<svg viewBox="-100 -100 200 200" xmlns="http://www.w3.org/2000/svg" width="400" height="400" id="face-svg"><defs><clipPath id="leftEyeClipPath"><polyline points="27.658912833139965,-3.580656338003921,27.260178523633314,-4.021421648313243,26.824372130545584,-4.475107102921934,26.35314040807092,-4.937900633502441,25.848112072210974,-5.40621305019679,25.31089734474842,-5.876672814002976,24.743087497220444,-6.346120809161313,24.146254394892342,-6.8116051155407895,23.521950040730985,-7.270375781025468,22.871706119378384,-7.719879593900824,22.197033541125204,-8.157754855240118,21.499421985884286,-8.581826151290773,20.780339447164188,-8.990099125860734,20.041231776042714,-9.380755252704848,19.28352222514042,-9.752146607911204,18.508610992594168,-10.10279064228752,17.633630571311905,-10.782872097056153,16.733167793328274,-11.414018633971896,15.80934819501212,-11.993706735538776,14.864362838172532,-12.519951481161506,13.900454810507231,-12.991269146829985,12.919906355187756,-13.406641125402992,11.925026617974783,-13.765479144479482,10.918140000256642,-14.067591758845953,9.901575106404323,-14.31315209448833,8.877654273836153,-14.5026668211569,7.848683674185268,-14.636946330472604,6.8169439739631805,-14.71707609656334,5.784681543112591,-14.744389196218513,4.754100199842602,-14.720439965550554,3.7273534801396044,-14.646978770151584,2.706537420346982,-14.525927865733895,1.6936838412068456,-14.35935832624261,0.6907541217570135,-14.149468016429019,-0.30036654852360734,-13.898560585872996,-1.2778744509280093,-13.609025461443029,-2.240052163699251,-13.283318815182241,-3.1852729447806185,-12.923945484608957,-4.112004682744563,-12.533441822420155,-5.01881342750725,-12.114359452586385,-5.904366512435481,-11.669249909826519,-6.767435279452827,-11.200650139450836,-7.606897418751767,-10.711068834560887,-8.421738934718622,-10.202973587594588,-9.211055749678113,-9.678778833205072,-9.9740549570643,-9.140834559461606,-10.710055735624781,-8.591415764361212,-11.418489936264862,-8.032712634639292,-12.098902353138602,-7.466821423867838,-12.750950690593406,-6.895736006829619,-13.374405237575157,-6.3213400871568,-13.96914826110045,-5.745400035222479,-14.535173130402967,-5.169558333273606,-15.072583183360653,-4.5953276047937095,-15.581590346810493,-4.024085205083924,-16.06251352235783,-3.4570683500507187,-16.515776749286804,-2.8953697601888937,-16.94190715617896,-2.3399337967481415,-17.34153271284665,-1.7915530670718418,-17.715379794188078,-1.250865476096326,-18.064270567570876,-0.7183517009992268,-18.38912021535087,-0.19433306598532418,-18.69093400413295,0.32103020580168184,-18.970804212380806,0.8277403862529855,-19.22990692798232,1.3259633051655948,-19.469498727377506,1.8160291050219746,-19.689671755642514,2.298330383108981,-19.88991732354402,2.772922623385976,-20.070659435326302,3.2397846851783374,-20.232334664477126,3.6989340871369816,-20.375390599245108,4.1504239253354624,-20.50028428815716,4.594339791367072,-20.60748068553587,5.030796690441941,-20.697451097016994,5.459935959484152,-20.77067162506676,5.88192218522883,-20.82762161449944,6.296940122319241,-20.868782097994583,6.705191611403907,-20.894634241614604,7.106892497233702,-20.905657790322092,7.502269546758956,-20.902329513497275,7.891557367226549,-16.748953034557413,14.115666040093817,-16.290080275803852,14.32468371170414,-15.822348948979826,14.527970803031337,-15.345956323585057,14.724771853654229,-14.861124140975996,14.914303625312446,-14.368096630756767,15.0957600545566,-13.867138527170106,15.268317205398414,-13.358533085488254,15.431138221960882,-12.842580098403932,15.583378281128411,-12.319593912421212,15.724189545196968,-11.789901444246489,15.852726114524227,-11.253840197179382,15.968148980179732,-10.711756277503685,16.06963097659502,-10.164002410878258,16.15636173421378,-9.610935958727993,16.227552632142018,-9.050530871382907,16.285535820547768,-8.480975910504515,16.331722504785,-7.9029416756469635,16.364078618654236,-7.317082124351425,16.380729723107336,-6.724032568984925,16.37996585208561,-6.124407714446485,16.360246078597484,-5.518799751551431,16.320202764055864,-4.907776520904881,16.25864545389541,-4.291879762075298,16.174564382490008,-3.67162346287913,16.067133550390515,-3.047492323587387,15.93571333690312,-2.4199403508652226,15.779852611028478,-1.7893895962553588,15.599290303781803,-1.15622905401636,15.393956404914196,-0.5208137331267073,15.16397234705537,0.11653608173442631,14.909650740297984,0.7555353654186927,14.631494420243861,1.3959346689414724,14.330194772532188,2.0375202027051946,14.00662929687006,2.6801136715021485,13.661858373585403,3.3235718464857995,13.297121195722685,3.9677858592997173,12.913830829701435,4.612680203553107,12.513568367557937,5.258211428832054,12.098076133790205,5.904366512435481,11.66924990982652,6.551160894024923,11.229130139137705,7.198636158377115,10.77989207601336,7.846857351428502,10.323834841022252,8.49590991480068,9.863369346177134,9.145896223995841,9.401005052824102,9.796931715451263,8.939335525276816,10.449140587641924,8.481022743215693,11.102651061420246,8.028780135872378,11.757590184782067,7.585354301019617,12.414078167247858,7.15350537178683,13.072222229048286,6.735985994321505,13.732109950303077,6.335518879316734,14.393802105382374,5.954772890424982,15.05732496763952,5.596337632578414,15.722662069704349,5.262696503235894,16.3897454045261,4.95619816957696,17.05844605235493,4.679026434662901,17.728564218851083,4.433168455585231,18.399818669510832,4.220381276621685,19.071835545598187,4.042156640420032,19.744136546771422,3.8996840402298627,20.416126465593535,3.7938119762025853,21.08708005911558,3.725007378779832,21.756128242722045,3.6933131621905106,22.422243591427282,3.698303871076667,22.94122067532027,3.5064698615533523,23.451830413385395,3.3247125586526174,23.953120003936192,3.152370243330976,24.44406698246444,2.988645493549173,24.923577131900622,2.8326000610037028,25.390482392874347,2.6831497478583204,25.843538773974895,2.5390592834755488,26.281424262011647,2.3989372011482013,26.702736732274566,2.2612307148308872,27.10599185879468,2.1242205958715257,27.489621024604553,1.986016049742866,27.851969231998744,1.8445495927739897,28.191293012794304,1.6975719288818292,28.50575833859122,1.5426468263026853,28.793438531032926,1.3771459943237323"></polyline></clipPath><clipPath id="rightEyeClipPath"><polyline points="-26.288455630250695,-3.9858532277787972,-25.96777489697143,-4.748416521263067,-25.611705930511164,-5.521151943050469,-25.221222819020685,-6.298744688904666,-24.797323431372106,-7.076207340296222,-24.341027947396213,-7.848872006173799,-23.853377388119846,-8.612382464735362,-23.335432146003235,-9.36268630519939,-22.788270515177402,-10.096027069576074,-22.2129872216815,-10.80893639443855,-21.61069195370021,-11.49822615269407,-20.982507891801042,-12.16098059535522,-20.32957023917178,-12.79454849331114,-19.653024751857792,-13.396535279098732,-18.95402626899941,-13.964795188673836,-18.233737243069317,-14.497423403182477,-17.47323344242442,-15.518827258072996,-16.677691379247328,-16.46170322466275,-15.848845107121713,-17.322662070607954,-14.988601327636053,-18.099131240658622,-14.099018516577381,-18.789296521009803,-13.182286915548767,-19.392045791096123,-12.24070937377509,-19.906914826358047,-11.276683024861741,-20.33403511550869,-10.292681783270963,-20.674083655829456,-9.291239645280406,-20.92823469002358,-8.274934779188515,-21.09811334815575,-7.2463743895314945,-21.18575115820667,-6.2081803400763835,-21.19354338877104,-5.162975520354921,-21.124208187427776,-4.113370940502842,-20.980747478310732,-3.0619535391692505,-20.76640958240889,-2.011274689260687,-20.48465352412444,-0.9638393862845649,-20.13911498761737,0.07790389594344527,-19.733573886465194,1.1115726974633717,-19.271923510166545,2.134859427441645,-18.758141211016955,3.145539597783912,-18.196260594885825,4.141479450325281,-17.590345179422837,5.120642992833405,-16.944463483222606,6.081098459059744,-16.26266550947625,7.021024208074346,-15.548960587638213,7.938714078119553,-14.807296536637256,8.83258221021794,-14.041540113160067,9.701167356769925,-13.255458708536143,10.543136690376295,-12.452703257752493,11.35728912812113,-11.63679232412687,12.142558186550394,-10.81109732316812,12.898014382581618,-9.978828849152166,13.622867195579982,-9.143024067942395,14.316466605836222,-8.306535139582909,14.978304224681622,-7.472018634193326,15.608014031475577,-6.641925904693771,16.20537273270098,-5.818494379888584,16.770299758402857,-5.00373974143746,17.302856911205613,-4.199448948242505,17.80324768314415,-3.4071740717799273,18.271816255544405,-2.628226905904919,18.70904619718845,-1.8636743146584127,19.11555887599972,-1.1143342816041901,19.49211159948359,-0.3807726242250702,19.83959549915865,0.33669966309322774,20.159033174214244,1.0380284739620187,20.451576109629293,1.723418099244629,20.718501883988107,2.3933322171379636,20.961211182228368,3.0484944005519257,21.17962429658423,3.6892030038610493,21.372926873196196,4.315139380143073,21.541527241857658,4.92634469761521,21.685857656784634,5.522920346859931,21.80637225616562,6.105023056263969,21.903545021711498,6.672860007457331,21.977867738205454,7.226683950752295,22.029847953052876,7.766788320582442,22.06000693583125,8.293502350941635,22.068877637840117,8.807186190823037,22.057002651650876,9.308226019658127,22.024932170656808,9.797029162755695,21.97322194862288,10.274019206740862,21.90243125923571,10.739631114994072,17.19129144582376,17.377233431591627,16.621489680197897,17.55859457274456,16.043969039330534,17.735932174724603,15.459231079654504,17.908647062166462,14.867816289134637,18.07611652283984,14.270300227255845,18.23769817144896,13.667289665011353,18.392733813432105,13.0594187248908,18.54055330876113,12.447345020868429,18.680478435741005,11.831745798391216,18.811826754809353,11.213314074367036,18.93391547233596,10.592754777152823,19.046065304422328,9.970780886542736,19.147604340701182,9.34810957375627,19.23787190813602,8.725458341426469,19.31622243482064,8.099813181189736,19.38453344808753,7.468734758721585,19.44395703712499,6.833753149656843,19.492860068289566,6.196331521604595,19.529728548247192,5.557861534437492,19.55317147746222,4.919658866451316,19.561924495384183,4.28295889521611,19.554853288482438,3.6489125619403624,19.530956732279147,3.0185824481696417,19.489369738530762,2.3929390936410777,19.429365778708412,1.7728575841151684,19.35035905492738,1.159114438006298,19.251906289476103,0.5523848206333803,19.133708104094836,-0.04675988508792761,18.995609960154432,-0.6378541226900314,18.837602630885417,-1.2205397921137995,18.659822176807708,-1.7945674367631474,18.46254939551128,-2.3597969588323524,18.246208716938035,-2.9161978340847288,18.011366515315217,-3.463848797261186,17.75872880889066,-4.002936969297287,17.489138318620114,-4.533756397527373,17.203570856957036,-5.05670598005432,16.903131017895078,-5.572286745463536,16.589047139413548,-6.081098459059744,16.26266550947625,-6.583835526805137,15.925443786733869,-7.081282168137516,15.578943607080273,-7.574306828846941,15.224822347213035,-8.063855805189487,14.864824016348408,-8.550946050416725,14.500769247241134,-9.036657134899441,14.134544357659317,-9.522122331024216,13.768089453464677,-10.008518794041425,13.40338554444851,-10.497056810043253,13.042440644073595,-10.98896808225028,12.687274824272412,-11.485493026785232,12.339904196451899,-11.98786704911247,12.002323789855096,-12.497305772321802,11.676489298429958,-13.014989188435173,11.364297667355629,-13.54204470391485,11.067566490376453,-14.079529050551649,10.788012189094086,-14.628409032911794,10.527226945367907,-15.189541083520965,10.286654357974147,-15.763649596964171,10.067563794673886,-16.35130401407995,9.871023410840364,-16.952894627427543,9.697871805795788,-17.568607079205563,9.548688288008007,-18.19839552280077,9.42376172029729,-18.84195441914554,9.32305791620356,-19.498688939062575,9.246185558664354,-19.96531484903552,9.025039513250594,-20.431838764837273,8.80730896361399,-20.897558023409594,8.592326603166962,-21.36167388500141,8.379315924994332,-21.82328805883151,8.167387196756259,-22.281399228751233,7.95553343559116,-22.734899578907182,7.742626383018661,-23.182571319403888,7.527412479842506,-23.62308321196653,7.3085088410535,-24.05498709560362,7.084399230732448,-24.476714412269697,6.853430036953065,-24.886572732528016,6.613806246684929,-25.28274228121325,6.363587420696399,-25.66327246309418,6.100683668457556,-26.0260783885364,5.822851623043126"></polyline></clipPath><filter id="fuzzy"><feTurbulence id="turbulence" baseFrequency="0.05" numOctaves="3" type="noise" result="noise"></feTurbulence><feDisplacementMap in="SourceGraphic" in2="noise" scale="2"></feDisplacementMap></filter><linearGradient id="rainbowGradient" x1="0%" y1="0%" x2="100%" y2="0%"><stop offset="0%" style="stop-color: rgb(80, 68, 68);  stop-opacity: 1"></stop><stop offset="50%" style="stop-color: rgb(64, 224, 208);  stop-opacity: 1"></stop><stop offset="100%" style="stop-color: rgb(220, 20, 60);  stop-opacity: 1"></stop></linearGradient></defs><title>That&#39;s an ugly face</title><desc>CREATED BY XUAN TANG, MORE INFO AT TXSTC55.GITHUB.IO</desc><rect x="-100" y="-100" width="100%" height="100%" opacity="1" fill="rgb(85, 107, 47)"></rect><polyline id="faceContour" points="65,0,64,1,64,3,64,5,64,5,64,4,64,6,63,9,63,12,63,11,63,12,63,13,62,15,62,16,62,17,62,18,61,19,60,22,61,21,60,23,60,24,60,25,59,26,58,28,59,27,57,31,57,32,57,33,57,33,56,33,55,35,54,38,54,38,54,39,54,39,52,42,53,41,52,43,51,44,50,45,49,47,49,47,49,48,48,50,48,50,45,53,45,53,46,52,44,55,44,54,43,56,43,57,43,57,41,58,40,59,40,60,38,61,39,61,36,64,37,63,36,64,35,65,34,66,33,67,31,68,32,67,30,69,30,70,30,69,28,70,28,71,26,72,25,73,24,73,24,73,23,74,21,75,21,75,20,76,19,76,17,77,18,76,16,77,15,78,15,78,15,78,14,78,13,79,11,79,11,80,8,80,9,80,7,81,6,81,5,81,4,81,4,81,2,81,2,81,1,81,-1,82,0,82,-2,82,-2,82,-4,82,-5,82,-5,82,-6,82,-8,81,-10,81,-9,81,-10,81,-11,81,-12,81,-13,80,-15,80,-16,80,-17,79,-18,79,-18,79,-18,79,-20,78,-20,78,-21,78,-22,78,-22,77,-24,76,-24,76,-26,75,-26,75,-26,75,-27,74,-29,73,-29,73,-32,71,-31,72,-33,70,-33,70,-34,69,-35,68,-36,67,-35,68,-37,67,-38,66,-38,66,-39,65,-40,63,-41,62,-42,61,-42,61,-43,61,-43,59,-45,58,-45,57,-46,56,-47,55,-47,54,-48,53,-49,51,-49,51,-49,51,-50,50,-51,49,-52,46,-53,45,-53,44,-53,43,-53,42,-54,41,-55,40,-54,41,-56,38,-57,35,-56,36,-57,36,-58,33,-58,33,-58,31,-59,29,-59,29,-59,28,-60,25,-60,24,-61,23,-61,23,-62,19,-62,17,-62,19,-62,16,-62,16,-63,14,-63,13,-64,10,-63,9,-64,8,-64,6,-64,5,-64,4,-64,4,-64,2,-65,-2,-64,-1,-65,-5,-65,-4,-65,-6,-65,-6,-65,-8,-65,-11,-65,-11,-65,-12,-65,-14,-65,-16,-65,-17,-65,-17,-64,-19,-65,-19,-64,-22,-64,-23,-64,-23,-63,-26,-63,-27,-63,-29,-63,-28,-63,-32,-62,-32,-63,-31,-62,-34,-61,-36,-61,-37,-61,-37,-60,-39,-60,-40,-60,-40,-60,-41,-59,-43,-59,-44,-58,-45,-57,-48,-57,-47,-56,-49,-56,-50,-55,-52,-55,-51,-54,-53,-53,-55,-54,-54,-52,-57,-52,-57,-51,-58,-50,-59,-49,-61,-49,-60,-48,-61,-47,-63,-45,-65,-46,-64,-46,-64,-44,-66,-43,-67,-42,-67,-42,-67,-42,-69,-41,-69,-38,-71,-38,-71,-37,-71,-36,-73,-36,-73,-33,-74,-34,-74,-31,-75,-30,-76,-30,-76,-29,-77,-28,-77,-27,-77,-27,-77,-25,-78,-23,-79,-23,-79,-22,-79,-21,-79,-21,-79,-19,-80,-18,-80,-18,-80,-17,-80,-15,-81,-15,-81,-14,-81,-11,-81,-9,-82,-8,-82,-9,-82,-7,-82,-5,-82,-5,-82,-4,-82,-3,-82,-2,-82,1,-82,0,-82,2,-81,3,-82,4,-81,6,-81,7,-81,7,-81,8,-81,11,-80,11,-80,12,-80,13,-79,14,-80,15,-79,16,-79,18,-78,19,-78,20,-77,23,-77,22,-77,25,-75,24,-75,24,-76,27,-74,28,-74,27,-74,30,-73,32,-72,31,-72,33,-71,33,-71,34,-70,35,-69,37,-68,39,-67,37,-68,39,-66,39,-66,41,-65,41,-65,43,-63,44,-62,44,-62,46,-61,46,-60,47,-59,47,-59,49,-57,48,-57,50,-56,51,-54,52,-53,52,-53,53,-51,52,-52,54,-49,54,-49,55,-47,54,-49,56,-46,56,-45,56,-45,57,-43,58,-41,58,-41,58,-41,59,-39,60,-37,60,-37,61,-34,61,-35,62,-33,62,-32,62,-32,63,-29,62,-31,63,-28,63,-26,64,-24,63,-25,64,-23,64,-22,64,-23,64,-19,65,-18,64,-17,65,-16,65,-15,65,-14,65,-12,65,-10,65,-10,65,-9,65,-6,65,-7,65,-6,65,-3,65,-2,65,-2,65,0,64,1" fill="#ffc9a9" stroke="black" stroke-width="1.6666666666666665" stroke-linejoin="round" filter="url(#fuzzy)"></polyline><g transform="translate(40.909325408475716 -28.853581508407583)"><polyline id="rightCountour" points="-26.288455630250695,-3.9858532277787972,-25.96777489697143,-4.748416521263067,-25.611705930511164,-5.521151943050469,-25.221222819020685,-6.298744688904666,-24.797323431372106,-7.076207340296222,-24.341027947396213,-7.848872006173799,-23.853377388119846,-8.612382464735362,-23.335432146003235,-9.36268630519939,-22.788270515177402,-10.096027069576074,-22.2129872216815,-10.80893639443855,-21.61069195370021,-11.49822615269407,-20.982507891801042,-12.16098059535522,-20.32957023917178,-12.79454849331114,-19.653024751857792,-13.396535279098732,-18.95402626899941,-13.964795188673836,-18.233737243069317,-14.497423403182477,-17.47323344242442,-15.518827258072996,-16.677691379247328,-16.46170322466275,-15.848845107121713,-17.322662070607954,-14.988601327636053,-18.099131240658622,-14.099018516577381,-18.789296521009803,-13.182286915548767,-19.392045791096123,-12.24070937377509,-19.906914826358047,-11.276683024861741,-20.33403511550869,-10.292681783270963,-20.674083655829456,-9.291239645280406,-20.92823469002358,-8.274934779188515,-21.09811334815575,-7.2463743895314945,-21.18575115820667,-6.2081803400763835,-21.19354338877104,-5.162975520354921,-21.124208187427776,-4.113370940502842,-20.980747478310732,-3.0619535391692505,-20.76640958240889,-2.011274689260687,-20.48465352412444,-0.9638393862845649,-20.13911498761737,0.07790389594344527,-19.733573886465194,1.1115726974633717,-19.271923510166545,2.134859427441645,-18.758141211016955,3.145539597783912,-18.196260594885825,4.141479450325281,-17.590345179422837,5.120642992833405,-16.944463483222606,6.081098459059744,-16.26266550947625,7.021024208074346,-15.548960587638213,7.938714078119553,-14.807296536637256,8.83258221021794,-14.041540113160067,9.701167356769925,-13.255458708536143,10.543136690376295,-12.452703257752493,11.35728912812113,-11.63679232412687,12.142558186550394,-10.81109732316812,12.898014382581618,-9.978828849152166,13.622867195579982,-9.143024067942395,14.316466605836222,-8.306535139582909,14.978304224681622,-7.472018634193326,15.608014031475577,-6.641925904693771,16.20537273270098,-5.818494379888584,16.770299758402857,-5.00373974143746,17.302856911205613,-4.199448948242505,17.80324768314415,-3.4071740717799273,18.271816255544405,-2.628226905904919,18.70904619718845,-1.8636743146584127,19.11555887599972,-1.1143342816041901,19.49211159948359,-0.3807726242250702,19.83959549915865,0.33669966309322774,20.159033174214244,1.0380284739620187,20.451576109629293,1.723418099244629,20.718501883988107,2.3933322171379636,20.961211182228368,3.0484944005519257,21.17962429658423,3.6892030038610493,21.372926873196196,4.315139380143073,21.541527241857658,4.92634469761521,21.685857656784634,5.522920346859931,21.80637225616562,6.105023056263969,21.903545021711498,6.672860007457331,21.977867738205454,7.226683950752295,22.029847953052876,7.766788320582442,22.06000693583125,8.293502350941635,22.068877637840117,8.807186190823037,22.057002651650876,9.308226019658127,22.024932170656808,9.797029162755695,21.97322194862288,10.274019206740862,21.90243125923571,10.739631114994072,17.19129144582376,17.377233431591627,16.621489680197897,17.55859457274456,16.043969039330534,17.735932174724603,15.459231079654504,17.908647062166462,14.867816289134637,18.07611652283984,14.270300227255845,18.23769817144896,13.667289665011353,18.392733813432105,13.0594187248908,18.54055330876113,12.447345020868429,18.680478435741005,11.831745798391216,18.811826754809353,11.213314074367036,18.93391547233596,10.592754777152823,19.046065304422328,9.970780886542736,19.147604340701182,9.34810957375627,19.23787190813602,8.725458341426469,19.31622243482064,8.099813181189736,19.38453344808753,7.468734758721585,19.44395703712499,6.833753149656843,19.492860068289566,6.196331521604595,19.529728548247192,5.557861534437492,19.55317147746222,4.919658866451316,19.561924495384183,4.28295889521611,19.554853288482438,3.6489125619403624,19.530956732279147,3.0185824481696417,19.489369738530762,2.3929390936410777,19.429365778708412,1.7728575841151684,19.35035905492738,1.159114438006298,19.251906289476103,0.5523848206333803,19.133708104094836,-0.04675988508792761,18.995609960154432,-0.6378541226900314,18.837602630885417,-1.2205397921137995,18.659822176807708,-1.7945674367631474,18.46254939551128,-2.3597969588323524,18.246208716938035,-2.9161978340847288,18.011366515315217,-3.463848797261186,17.75872880889066,-4.002936969297287,17.489138318620114,-4.533756397527373,17.203570856957036,-5.05670598005432,16.903131017895078,-5.572286745463536,16.589047139413548,-6.081098459059744,16.26266550947625,-6.583835526805137,15.925443786733869,-7.081282168137516,15.578943607080273,-7.574306828846941,15.224822347213035,-8.063855805189487,14.864824016348408,-8.550946050416725,14.500769247241134,-9.036657134899441,14.134544357659317,-9.522122331024216,13.768089453464677,-10.008518794041425,13.40338554444851,-10.497056810043253,13.042440644073595,-10.98896808225028,12.687274824272412,-11.485493026785232,12.339904196451899,-11.98786704911247,12.002323789855096,-12.497305772321802,11.676489298429958,-13.014989188435173,11.364297667355629,-13.54204470391485,11.067566490376453,-14.079529050551649,10.788012189094086,-14.628409032911794,10.527226945367907,-15.189541083520965,10.286654357974147,-15.763649596964171,10.067563794673886,-16.35130401407995,9.871023410840364,-16.952894627427543,9.697871805795788,-17.568607079205563,9.548688288008007,-18.19839552280077,9.42376172029729,-18.84195441914554,9.32305791620356,-19.498688939062575,9.246185558664354,-19.96531484903552,9.025039513250594,-20.431838764837273,8.80730896361399,-20.897558023409594,8.592326603166962,-21.36167388500141,8.379315924994332,-21.82328805883151,8.167387196756259,-22.281399228751233,7.95553343559116,-22.734899578907182,7.742626383018661,-23.182571319403888,7.527412479842506,-23.62308321196653,7.3085088410535,-24.05498709560362,7.084399230732448,-24.476714412269697,6.853430036953065,-24.886572732528016,6.613806246684929,-25.28274228121325,6.363587420696399,-25.66327246309418,6.100683668457556,-26.0260783885364,5.822851623043126" fill="white" stroke="white" stroke-width="0" stroke-linejoin="round" filter="url(#fuzzy)"></polyline></g><g transform="translate(-30.65220590984675 -24.058517022804004)"><polyline id="leftCountour" points="27.658912833139965,-3.580656338003921,27.260178523633314,-4.021421648313243,26.824372130545584,-4.475107102921934,26.35314040807092,-4.937900633502441,25.848112072210974,-5.40621305019679,25.31089734474842,-5.876672814002976,24.743087497220444,-6.346120809161313,24.146254394892342,-6.8116051155407895,23.521950040730985,-7.270375781025468,22.871706119378384,-7.719879593900824,22.197033541125204,-8.157754855240118,21.499421985884286,-8.581826151290773,20.780339447164188,-8.990099125860734,20.041231776042714,-9.380755252704848,19.28352222514042,-9.752146607911204,18.508610992594168,-10.10279064228752,17.633630571311905,-10.782872097056153,16.733167793328274,-11.414018633971896,15.80934819501212,-11.993706735538776,14.864362838172532,-12.519951481161506,13.900454810507231,-12.991269146829985,12.919906355187756,-13.406641125402992,11.925026617974783,-13.765479144479482,10.918140000256642,-14.067591758845953,9.901575106404323,-14.31315209448833,8.877654273836153,-14.5026668211569,7.848683674185268,-14.636946330472604,6.8169439739631805,-14.71707609656334,5.784681543112591,-14.744389196218513,4.754100199842602,-14.720439965550554,3.7273534801396044,-14.646978770151584,2.706537420346982,-14.525927865733895,1.6936838412068456,-14.35935832624261,0.6907541217570135,-14.149468016429019,-0.30036654852360734,-13.898560585872996,-1.2778744509280093,-13.609025461443029,-2.240052163699251,-13.283318815182241,-3.1852729447806185,-12.923945484608957,-4.112004682744563,-12.533441822420155,-5.01881342750725,-12.114359452586385,-5.904366512435481,-11.669249909826519,-6.767435279452827,-11.200650139450836,-7.606897418751767,-10.711068834560887,-8.421738934718622,-10.202973587594588,-9.211055749678113,-9.678778833205072,-9.9740549570643,-9.140834559461606,-10.710055735624781,-8.591415764361212,-11.418489936264862,-8.032712634639292,-12.098902353138602,-7.466821423867838,-12.750950690593406,-6.895736006829619,-13.374405237575157,-6.3213400871568,-13.96914826110045,-5.745400035222479,-14.535173130402967,-5.169558333273606,-15.072583183360653,-4.5953276047937095,-15.581590346810493,-4.024085205083924,-16.06251352235783,-3.4570683500507187,-16.515776749286804,-2.8953697601888937,-16.94190715617896,-2.3399337967481415,-17.34153271284665,-1.7915530670718418,-17.715379794188078,-1.250865476096326,-18.064270567570876,-0.7183517009992268,-18.38912021535087,-0.19433306598532418,-18.69093400413295,0.32103020580168184,-18.970804212380806,0.8277403862529855,-19.22990692798232,1.3259633051655948,-19.469498727377506,1.8160291050219746,-19.689671755642514,2.298330383108981,-19.88991732354402,2.772922623385976,-20.070659435326302,3.2397846851783374,-20.232334664477126,3.6989340871369816,-20.375390599245108,4.1504239253354624,-20.50028428815716,4.594339791367072,-20.60748068553587,5.030796690441941,-20.697451097016994,5.459935959484152,-20.77067162506676,5.88192218522883,-20.82762161449944,6.296940122319241,-20.868782097994583,6.705191611403907,-20.894634241614604,7.106892497233702,-20.905657790322092,7.502269546758956,-20.902329513497275,7.891557367226549,-16.748953034557413,14.115666040093817,-16.290080275803852,14.32468371170414,-15.822348948979826,14.527970803031337,-15.345956323585057,14.724771853654229,-14.861124140975996,14.914303625312446,-14.368096630756767,15.0957600545566,-13.867138527170106,15.268317205398414,-13.358533085488254,15.431138221960882,-12.842580098403932,15.583378281128411,-12.319593912421212,15.724189545196968,-11.789901444246489,15.852726114524227,-11.253840197179382,15.968148980179732,-10.711756277503685,16.06963097659502,-10.164002410878258,16.15636173421378,-9.610935958727993,16.227552632142018,-9.050530871382907,16.285535820547768,-8.480975910504515,16.331722504785,-7.9029416756469635,16.364078618654236,-7.317082124351425,16.380729723107336,-6.724032568984925,16.37996585208561,-6.124407714446485,16.360246078597484,-5.518799751551431,16.320202764055864,-4.907776520904881,16.25864545389541,-4.291879762075298,16.174564382490008,-3.67162346287913,16.067133550390515,-3.047492323587387,15.93571333690312,-2.4199403508652226,15.779852611028478,-1.7893895962553588,15.599290303781803,-1.15622905401636,15.393956404914196,-0.5208137331267073,15.16397234705537,0.11653608173442631,14.909650740297984,0.7555353654186927,14.631494420243861,1.3959346689414724,14.330194772532188,2.0375202027051946,14.00662929687006,2.6801136715021485,13.661858373585403,3.3235718464857995,13.297121195722685,3.9677858592997173,12.913830829701435,4.612680203553107,12.513568367557937,5.258211428832054,12.098076133790205,5.904366512435481,11.66924990982652,6.551160894024923,11.229130139137705,7.198636158377115,10.77989207601336,7.846857351428502,10.323834841022252,8.49590991480068,9.863369346177134,9.145896223995841,9.401005052824102,9.796931715451263,8.939335525276816,10.449140587641924,8.481022743215693,11.102651061420246,8.028780135872378,11.757590184782067,7.585354301019617,12.414078167247858,7.15350537178683,13.072222229048286,6.735985994321505,13.732109950303077,6.335518879316734,14.393802105382374,5.954772890424982,15.05732496763952,5.596337632578414,15.722662069704349,5.262696503235894,16.3897454045261,4.95619816957696,17.05844605235493,4.679026434662901,17.728564218851083,4.433168455585231,18.399818669510832,4.220381276621685,19.071835545598187,4.042156640420032,19.744136546771422,3.8996840402298627,20.416126465593535,3.7938119762025853,21.08708005911558,3.725007378779832,21.756128242722045,3.6933131621905106,22.422243591427282,3.698303871076667,22.94122067532027,3.5064698615533523,23.451830413385395,3.3247125586526174,23.953120003936192,3.152370243330976,24.44406698246444,2.988645493549173,24.923577131900622,2.8326000610037028,25.390482392874347,2.6831497478583204,25.843538773974895,2.5390592834755488,26.281424262011647,2.3989372011482013,26.702736732274566,2.2612307148308872,27.10599185879468,2.1242205958715257,27.489621024604553,1.986016049742866,27.851969231998744,1.8445495927739897,28.191293012794304,1.6975719288818292,28.50575833859122,1.5426468263026853,28.793438531032926,1.3771459943237323" fill="white" stroke="white" stroke-width="0" stroke-linejoin="round" filter="url(#fuzzy)"></polyline></g><g transform="translate(40.909325408475716 -28.853581508407583)"><polyline id="rightUpper" points="-27.354556425447498,1.6612427639268361,-27.43505023329907,1.3703584755755944,-27.472046213913604,0.9964189923443012,-27.466199811283847,0.5484451781218418,-27.418204947750194,0.035051928802285914,-27.32879255423808,-0.5355439694863442,-27.198729100495342,-1.1555159821532541,-27.028815125329544,-1.8174199679160967,-26.819883766845404,-2.514186320572179,-26.572799292682106,-3.2391121107696677,-26.288455630250695,-3.9858532277787972,-25.96777489697143,-4.748416521263067,-25.611705930511164,-5.521151943050469,-25.221222819020685,-6.298744688904666,-24.797323431372106,-7.076207340296222,-24.341027947396213,-7.848872006173799,-23.853377388119846,-8.612382464735362,-23.335432146003235,-9.36268630519939,-22.788270515177402,-10.096027069576074,-22.2129872216815,-10.80893639443855,-21.61069195370021,-11.49822615269407,-20.982507891801042,-12.16098059535522,-20.32957023917178,-12.79454849331114,-19.653024751857792,-13.396535279098732,-18.95402626899941,-13.964795188673836,-18.233737243069317,-14.497423403182477,-17.47323344242442,-15.518827258072996,-16.677691379247328,-16.46170322466275,-15.848845107121713,-17.322662070607954,-14.988601327636053,-18.099131240658622,-14.099018516577381,-18.789296521009803,-13.182286915548767,-19.392045791096123,-12.24070937377509,-19.906914826358047,-11.276683024861741,-20.33403511550869,-10.292681783270963,-20.674083655829456,-9.291239645280406,-20.92823469002358,-8.274934779188515,-21.09811334815575,-7.2463743895314945,-21.18575115820667,-6.2081803400763835,-21.19354338877104,-5.162975520354921,-21.124208187427776,-4.113370940502842,-20.980747478310732,-3.0619535391692505,-20.76640958240889,-2.011274689260687,-20.48465352412444,-0.9638393862845649,-20.13911498761737,0.07790389594344527,-19.733573886465194,1.1115726974633717,-19.271923510166545,2.134859427441645,-18.758141211016955,3.145539597783912,-18.196260594885825,4.141479450325281,-17.590345179422837,5.120642992833405,-16.944463483222606,6.081098459059744,-16.26266550947625,7.021024208074346,-15.548960587638213,7.938714078119553,-14.807296536637256,8.83258221021794,-14.041540113160067,9.701167356769925,-13.255458708536143,10.543136690376295,-12.452703257752493,11.35728912812113,-11.63679232412687,12.142558186550394,-10.81109732316812,12.898014382581618,-9.978828849152166,13.622867195579982,-9.143024067942395,14.316466605836222,-8.306535139582909,14.978304224681622,-7.472018634193326,15.608014031475577,-6.641925904693771,16.20537273270098,-5.818494379888584,16.770299758402857,-5.00373974143746,17.302856911205613,-4.199448948242505,17.80324768314415,-3.4071740717799273,18.271816255544405,-2.628226905904919,18.70904619718845,-1.8636743146584127,19.11555887599972,-1.1143342816041901,19.49211159948359,-0.3807726242250702,19.83959549915865,0.33669966309322774,20.159033174214244,1.0380284739620187,20.451576109629293,1.723418099244629,20.718501883988107,2.3933322171379636,20.961211182228368,3.0484944005519257,21.17962429658423,3.6892030038610493,21.372926873196196,4.315139380143073,21.541527241857658,4.92634469761521,21.685857656784634,5.522920346859931,21.80637225616562,6.105023056263969,21.903545021711498,6.672860007457331,21.977867738205454,7.226683950752295,22.029847953052876,7.766788320582442,22.06000693583125,8.293502350941635,22.068877637840117,8.807186190823037,22.057002651650876,9.308226019658127,22.024932170656808,9.797029162755695,21.97322194862288,10.274019206740862,21.90243125923571,10.739631114994072,21.813120855653448,11.194306343090123,21.705850930055714,11.638487954237142,21.581179073193432,12.072615734715626,21.43965823393883,12.497121309317427,21.28183467883524,12.912423256784763,21.108245951647103,13.318922225249246,20.919418832909816,13.716996047670852,20.71586729947963,14.106994857276966,20.49809048408359,14.489236203001362,20.266570634869446,14.86400016492323" fill="none" stroke="black" stroke-width="1.6666666666666665" stroke-linejoin="round" filter="url(#fuzzy)"></polyline><polyline id="rightLower" points="-28.117651697688203,1.612140453674014,-28.07878618640229,2.19928336311564,-27.99319697595056,2.7397375870295484,-27.864502988551184,3.2375026366332857,-27.696154108646077,3.6963842957783832,-27.491434657238223,4.119998646047385,-27.253466866228983,4.51177609185094,-26.985214352755325,4.874965385524879,-26.689485593527248,5.212637652427249,-26.368937399165,5.527690416035419,-26.0260783885364,5.822851623043126,-25.66327246309418,6.100683668457556,-25.28274228121325,6.363587420696399,-24.886572732528016,6.613806246684929,-24.476714412269697,6.853430036953065,-24.05498709560362,7.084399230732448,-23.62308321196653,7.3085088410535,-23.182571319403888,7.527412479842506,-22.734899578907182,7.742626383018661,-22.281399228751233,7.95553343559116,-21.82328805883151,8.167387196756259,-21.36167388500141,8.379315924994332,-20.897558023409594,8.592326603166962,-20.431838764837273,8.80730896361399,-19.96531484903552,9.025039513250594,-19.498688939062575,9.246185558664354,-18.84195441914554,9.32305791620356,-18.19839552280077,9.42376172029729,-17.568607079205563,9.548688288008007,-16.952894627427543,9.697871805795788,-16.35130401407995,9.871023410840364,-15.763649596964171,10.067563794673886,-15.189541083520965,10.286654357974147,-14.628409032911794,10.527226945367907,-14.079529050551649,10.788012189094086,-13.54204470391485,11.067566490376453,-13.014989188435173,11.364297667355629,-12.497305772321802,11.676489298429958,-11.98786704911247,12.002323789855096,-11.485493026785232,12.339904196451899,-10.98896808225028,12.687274824272412,-10.497056810043253,13.042440644073595,-10.008518794041425,13.40338554444851,-9.522122331024216,13.768089453464677,-9.036657134899441,14.134544357659317,-8.550946050416725,14.500769247241134,-8.063855805189487,14.864824016348408,-7.574306828846941,15.224822347213035,-7.081282168137516,15.578943607080273,-6.583835526805137,15.925443786733869,-6.081098459059744,16.26266550947625,-5.572286745463536,16.589047139413548,-5.05670598005432,16.903131017895078,-4.533756397527373,17.203570856957036,-4.002936969297287,17.489138318620114,-3.463848797261186,17.75872880889066,-2.9161978340847288,18.011366515315217,-2.3597969588323524,18.246208716938035,-1.7945674367631474,18.46254939551128,-1.2205397921137995,18.659822176807708,-0.6378541226900314,18.837602630885417,-0.04675988508792761,18.995609960154432,0.5523848206333803,19.133708104094836,1.159114438006298,19.251906289476103,1.7728575841151684,19.35035905492738,2.3929390936410777,19.429365778708412,3.0185824481696417,19.489369738530762,3.6489125619403624,19.530956732279147,4.28295889521611,19.554853288482438,4.919658866451316,19.561924495384183,5.557861534437492,19.55317147746222,6.196331521604595,19.529728548247192,6.833753149656843,19.492860068289566,7.468734758721585,19.44395703712499,8.099813181189736,19.38453344808753,8.725458341426469,19.31622243482064,9.34810957375627,19.23787190813602,9.970780886542736,19.147604340701182,10.592754777152823,19.046065304422328,11.213314074367036,18.93391547233596,11.831745798391216,18.811826754809353,12.447345020868429,18.680478435741005,13.0594187248908,18.54055330876113,13.667289665011353,18.392733813432105,14.270300227255845,18.23769817144896,14.867816289134637,18.07611652283984,15.459231079654504,17.908647062166462,16.043969039330534,17.735932174724603,16.621489680197897,17.55859457274456,17.19129144582376,17.377233431591627,17.752915571319097,17.192420525966547,18.305949943350534,17.00469636610601,18.850032960152195,16.81456633398309,19.38485739153756,16.622496819507745,19.910174238911306,16.428911356727262,20.425796595281135,16.23418676002674,20.931603505269628,16.038649260329564,21.42754382512609,15.842570641297849,21.91364008273842,15.646164375532948,22.3899923376449,15.449581760775889" fill="none" stroke="black" stroke-width="2.2222222222222223" stroke-linejoin="round" filter="url(#fuzzy)"></polyline><!--[--><circle r="3.91419408504531" cx="-1.2912364714547078" cy="-2.2550525346361465" stroke="black" fill="none" stroke-width="1" filter="url(#fuzzy)" clip-path="url(#rightEyeClipPath)"></circle><circle r="4.954865685354613" cx="-1.5622362563605172" cy="-2.3949927738083794" stroke="black" fill="none" stroke-width="1" filter="url(#fuzzy)" clip-path="url(#rightEyeClipPath)"></circle><circle r="4.501590858672874" cx="-5.417638290330972" cy="0.7687619303012716" stroke="black" fill="none" stroke-width="1" filter="url(#fuzzy)" clip-path="url(#rightEyeClipPath)"></circle><circle r="3.420765625971658" cx="-4.300966640968417" cy="-0.3416810258663623" stroke="black" fill="none" stroke-width="1" filter="url(#fuzzy)" clip-path="url(#rightEyeClipPath)"></circle><circle r="3.7528073879409876" cx="-5.3270511149007" cy="-0.6516068353151234" stroke="black" fill="none" stroke-width="1" filter="url(#fuzzy)" clip-path="url(#rightEyeClipPath)"></circle><circle r="3.6307015747805456" cx="-2.2174002404081405" cy="0.02410677300184716" stroke="black" fill="none" stroke-width="1" filter="url(#fuzzy)" clip-path="url(#rightEyeClipPath)"></circle><circle r="4.822578266740533" cx="-1.5502592405976188" cy="-2.572494966123911" stroke="black" fill="none" stroke-width="1" filter="url(#fuzzy)" clip-path="url(#rightEyeClipPath)"></circle><circle r="4.828286304545664" cx="-4.814943557278417" cy="-2.6340241487487646" stroke="black" fill="none" stroke-width="1" filter="url(#fuzzy)" clip-path="url(#rightEyeClipPath)"></circle><circle r="4.906586461750947" cx="-1.1654270744887993" cy="-1.572130229702295" stroke="black" fill="none" stroke-width="1" filter="url(#fuzzy)" clip-path="url(#rightEyeClipPath)"></circle><circle r="3.147214821131038" cx="-2.8211578159106176" cy="-3.3489850563023293" stroke="black" fill="none" stroke-width="1" filter="url(#fuzzy)" clip-path="url(#rightEyeClipPath)"></circle><!--]--></g><g transform="translate(-30.65220590984675 -24.058517022804004)"><polyline id="leftUpper" points="29.233021065884643,-0.8920899916856317,29.299221416292156,-0.9412190939291012,29.310990366412824,-1.0547974145740184,29.270129970909935,-1.2264965818471456,29.178428806518987,-1.4502633785811572,29.037661516021224,-1.720314514601025,28.84958835221716,-2.0311313991103592,28.615954721900096,-2.3774549130777842,28.33849072982967,-2.7542801816233187,28.018910722705336,-3.1568513464047356,27.658912833139965,-3.580656338003921,27.260178523633314,-4.021421648313243,26.824372130545584,-4.475107102921934,26.35314040807092,-4.937900633502441,25.848112072210974,-5.40621305019679,25.31089734474842,-5.876672814002976,24.743087497220444,-6.346120809161313,24.146254394892342,-6.8116051155407895,23.521950040730985,-7.270375781025468,22.871706119378384,-7.719879593900824,22.197033541125204,-8.157754855240118,21.499421985884286,-8.581826151290773,20.780339447164188,-8.990099125860734,20.041231776042714,-9.380755252704848,19.28352222514042,-9.752146607911204,18.508610992594168,-10.10279064228752,17.633630571311905,-10.782872097056153,16.733167793328274,-11.414018633971896,15.80934819501212,-11.993706735538776,14.864362838172532,-12.519951481161506,13.900454810507231,-12.991269146829985,12.919906355187756,-13.406641125402992,11.925026617974783,-13.765479144479482,10.918140000256642,-14.067591758845953,9.901575106404323,-14.31315209448833,8.877654273836153,-14.5026668211569,7.848683674185268,-14.636946330472604,6.8169439739631805,-14.71707609656334,5.784681543112591,-14.744389196218513,4.754100199842602,-14.720439965550554,3.7273534801396044,-14.646978770151584,2.706537420346982,-14.525927865733895,1.6936838412068456,-14.35935832624261,0.6907541217570135,-14.149468016429019,-0.30036654852360734,-13.898560585872996,-1.2778744509280093,-13.609025461443029,-2.240052163699251,-13.283318815182241,-3.1852729447806185,-12.923945484608957,-4.112004682744563,-12.533441822420155,-5.01881342750725,-12.114359452586385,-5.904366512435481,-11.669249909826519,-6.767435279452827,-11.200650139450836,-7.606897418751767,-10.711068834560887,-8.421738934718622,-10.202973587594588,-9.211055749678113,-9.678778833205072,-9.9740549570643,-9.140834559461606,-10.710055735624781,-8.591415764361212,-11.418489936264862,-8.032712634639292,-12.098902353138602,-7.466821423867838,-12.750950690593406,-6.895736006829619,-13.374405237575157,-6.3213400871568,-13.96914826110045,-5.745400035222479,-14.535173130402967,-5.169558333273606,-15.072583183360653,-4.5953276047937095,-15.581590346810493,-4.024085205083924,-16.06251352235783,-3.4570683500507187,-16.515776749286804,-2.8953697601888937,-16.94190715617896,-2.3399337967481415,-17.34153271284665,-1.7915530670718418,-17.715379794188078,-1.250865476096326,-18.064270567570876,-0.7183517009992268,-18.38912021535087,-0.19433306598532418,-18.69093400413295,0.32103020580168184,-18.970804212380806,0.8277403862529855,-19.22990692798232,1.3259633051655948,-19.469498727377506,1.8160291050219746,-19.689671755642514,2.298330383108981,-19.88991732354402,2.772922623385976,-20.070659435326302,3.2397846851783374,-20.232334664477126,3.6989340871369816,-20.375390599245108,4.1504239253354624,-20.50028428815716,4.594339791367072,-20.60748068553587,5.030796690441941,-20.697451097016994,5.459935959484152,-20.77067162506676,5.88192218522883,-20.82762161449944,6.296940122319241,-20.868782097994583,6.705191611403907,-20.894634241614604,7.106892497233702,-20.905657790322092,7.502269546758956,-20.902329513497275,7.891557367226549,-20.88512165045541,8.274995324277025,-20.85450035596424,8.652824460041687,-20.81092414576135,9.025284411239701,-20.75484234207167,9.392610327275195,-20.686693519124805,9.755029788334367,-20.60690394867251,10.112759723482586,-20.515886045506086,10.46600332876149,-20.414036812973798,10.814946985286088,-20.301736288498297,11.159757177341866,-20.17934598909406,11.50057741048189" fill="none" stroke="black" stroke-width="2.2222222222222223" stroke-linejoin="round" filter="url(#fuzzy)"></polyline><polyline id="leftLower" points="29.702760504984106,-1.5853303314109244,29.810776109913913,-1.1236001104531823,29.867184307615357,-0.7104188872924162,29.874953211684712,-0.3409560019577871,29.836937388366405,-0.010624086112439812,29.755879946292556,0.2849260602149606,29.634414626222505,0.5498105918987406,29.475067890782324,0.7879177419846943,29.280261014204356,1.0029129449585632,29.052312172066735,1.198243960014537,28.793438531032926,1.3771459943237323,28.50575833859122,1.5426468263026853,28.191293012794304,1.6975719288818292,27.851969231998744,1.8445495927739897,27.489621024604553,1.986016049742866,27.10599185879468,2.1242205958715257,26.702736732274566,2.2612307148308872,26.281424262011647,2.3989372011482013,25.843538773974895,2.5390592834755488,25.390482392874347,2.6831497478583204,24.923577131900622,2.8326000610037028,24.44406698246444,2.988645493549173,23.953120003936192,3.152370243330976,23.451830413385395,3.3247125586526174,22.94122067532027,3.5064698615533523,22.422243591427282,3.698303871076667,21.756128242722045,3.6933131621905106,21.08708005911558,3.725007378779832,20.416126465593535,3.7938119762025853,19.744136546771422,3.8996840402298627,19.071835545598187,4.042156640420032,18.399818669510832,4.220381276621685,17.728564218851083,4.433168455585231,17.05844605235493,4.679026434662901,16.3897454045261,4.95619816957696,15.722662069704349,5.262696503235894,15.05732496763952,5.596337632578414,14.393802105382374,5.954772890424982,13.732109950303077,6.335518879316734,13.072222229048286,6.735985994321505,12.414078167247858,7.15350537178683,11.757590184782067,7.585354301019617,11.102651061420246,8.028780135872378,10.449140587641924,8.481022743215693,9.796931715451263,8.939335525276816,9.145896223995841,9.401005052824102,8.49590991480068,9.863369346177134,7.846857351428502,10.323834841022252,7.198636158377115,10.77989207601336,6.551160894024923,11.229130139137705,5.904366512435481,11.66924990982652,5.258211428832054,12.098076133790205,4.612680203553107,12.513568367557937,3.9677858592997173,12.913830829701435,3.3235718464857995,13.297121195722685,2.6801136715021485,13.661858373585403,2.0375202027051946,14.00662929687006,1.3959346689414724,14.330194772532188,0.7555353654186927,14.631494420243861,0.11653608173442631,14.909650740297984,-0.5208137331267073,15.16397234705537,-1.15622905401636,15.393956404914196,-1.7893895962553588,15.599290303781803,-2.4199403508652226,15.779852611028478,-3.047492323587387,15.93571333690312,-3.67162346287913,16.067133550390515,-4.291879762075298,16.174564382490008,-4.907776520904881,16.25864545389541,-5.518799751551431,16.320202764055864,-6.124407714446485,16.360246078597484,-6.724032568984925,16.37996585208561,-7.317082124351425,16.380729723107336,-7.9029416756469635,16.364078618654236,-8.480975910504515,16.331722504785,-9.050530871382907,16.285535820547768,-9.610935958727993,16.227552632142018,-10.164002410878258,16.15636173421378,-10.711756277503685,16.06963097659502,-11.253840197179382,15.968148980179732,-11.789901444246489,15.852726114524227,-12.319593912421212,15.724189545196968,-12.842580098403932,15.583378281128411,-13.358533085488254,15.431138221960882,-13.867138527170106,15.268317205398414,-14.368096630756767,15.0957600545566,-14.861124140975996,14.914303625312446,-15.345956323585057,14.724771853654229,-15.822348948979826,14.527970803031337,-16.290080275803852,14.32468371170414,-16.748953034557413,14.115666040093817,-17.19879641120662,13.901640518132231,-17.639468030792486,13.683292192611765,-18.070855941039966,13.46126347453518,-18.49288059596707,13.23614918646548,-18.905496839493914,13.008491609875737,-19.308695889051798,12.77877553249896,-19.70250731919229,12.547423295677953,-20.087001045196278,12.31478984171515,-20.462289306683054,12.081157761222483,-20.828528651219404,11.846732340471224" fill="none" stroke="black" stroke-width="2.2222222222222223" stroke-linejoin="round" filter="url(#fuzzy)"></polyline><!--[--><circle r="3.334093412053821" cx="2.4579397269049545" cy="-0.7954306405015084" stroke="black" fill="none" stroke-width="1" filter="url(#fuzzy)" clip-path="url(#leftEyeClipPath)"></circle><circle r="3.848331362675207" cx="-0.26818672534413857" cy="-1.9068132468386838" stroke="black" fill="none" stroke-width="1" filter="url(#fuzzy)" clip-path="url(#leftEyeClipPath)"></circle><circle r="4.327595473612165" cx="0.6172209862121893" cy="-3.211570977854311" stroke="black" fill="none" stroke-width="1" filter="url(#fuzzy)" clip-path="url(#leftEyeClipPath)"></circle><circle r="4.041620465614953" cx="-1.4914284989339985" cy="-0.5133416862891949" stroke="black" fill="none" stroke-width="1" filter="url(#fuzzy)" clip-path="url(#leftEyeClipPath)"></circle><circle r="3.4828376004753627" cx="1.7219278349437168" cy="-0.37091011600268864" stroke="black" fill="none" stroke-width="1" filter="url(#fuzzy)" clip-path="url(#leftEyeClipPath)"></circle><circle r="3.3640092917979896" cx="-0.13115483759327873" cy="0.058396242045528624" stroke="black" fill="none" stroke-width="1" filter="url(#fuzzy)" clip-path="url(#leftEyeClipPath)"></circle><circle r="4.46108065390894" cx="-0.2705822336249928" cy="-0.8246346753073359" stroke="black" fill="none" stroke-width="1" filter="url(#fuzzy)" clip-path="url(#leftEyeClipPath)"></circle><circle r="4.9199564752258365" cx="1.894826680900625" cy="-4.136604635817805" stroke="black" fill="none" stroke-width="1" filter="url(#fuzzy)" clip-path="url(#leftEyeClipPath)"></circle><circle r="3.46158434104092" cx="1.9138916248340063" cy="-1.1500026209875776" stroke="black" fill="none" stroke-width="1" filter="url(#fuzzy)" clip-path="url(#leftEyeClipPath)"></circle><circle r="4.7819790783700045" cx="2.0763010048189168" cy="-1.0857795545074476" stroke="black" fill="none" stroke-width="1" filter="url(#fuzzy)" clip-path="url(#leftEyeClipPath)"></circle><!--]--></g><g id="hairs"><!--[--><polyline points="-37,-71,-35.8417947887058,-72.25535831911063,-33.88665373415125,-72.86076650061878,-31.169972727283746,-73.22087261244624,-27.830886475948276,-73.47979119200072,-23.981993030317007,-73.66926207921858,-19.711896736923645,-73.76748301893632,-15.06469702544023,-73.742541215693,-10.04249200225935,-73.57833249356926,-4.647008150978561,-73.28704948020838,1.0773388058988225,-72.91731156479955,7.044122725218054,-72.54984337286317,13.176514586312713,-72.25832983320987,19.465379032075464,-72.03382347152383,25.988959912870772,-71.71912159877552" fill="none" stroke="rgb(44, 34, 43)" stroke-width="2" stroke-linejoin="round" filter="url(#fuzzy)"></polyline><polyline points="-15,-81,-13.537649949838599,-81.04312670815928,-11.92162400906908,-81.19098591173118,-10.756548600143,-81.30458831467855,-10.085360131483842,-81.28050605035487,-9.766026855407059,-81.09478564960315,-9.688601873968063,-80.7595347637758,-9.821996934523579,-80.28804571241758,-10.178687523432476,-79.68290314844486,-10.778348772384728,-78.93838948677217,-11.638344019921536,-78.04559148663735,-12.78010611799527,-76.99450023558967,-14.232631258008682,-75.77409067864349,-16.026285162054123,-74.37323212046664,-18.183536520357094,-72.78269638039355,-20.716400669012717,-70.99617515759188,-23.633288151184413,-69.00912706182712,-26.948782863412724,-66.81680311828487,-30.686559197719085,-64.41403881195313,-34.87024450860305,-61.799036860430476,-39.50824614291828,-58.97867611080757,-44.59368903397529,-55.95327165365731,-50.128549868269005,-52.64930534450947" fill="none" stroke="rgb(44, 34, 43)" stroke-width="2" stroke-linejoin="round" filter="url(#fuzzy)"></polyline><polyline points="39,-66,39.54005977617169,-65.70791916012455,40.491901921986475,-65.09456783826764,41.517812745945506,-64.30360166766943,42.51365559328797,-63.45734617516653,43.4148795052724,-62.65825167933464,44.18132396758228,-61.955054823599475,44.78980266673,-61.36034956779339,45.22849735784966,-60.8772848253098,45.49595081799073,-60.51091830625015,45.59931812537627,-60.26834842383385,45.547472834770744,-60.15819446055794,45.338401061568305,-60.194382207158824,44.94475559586816,-60.40336869351504,44.30778341698283,-60.829673291545994,43.35278964506706,-61.531262590153396,42.028179706403584,-62.55881632247233,40.344481554269116,-63.926517379857174,38.37305551683663,-65.59980813785319,36.19503259164124,-67.52593531343908,33.9006396537813,-69.68893796392221" fill="none" stroke="rgb(44, 34, 43)" stroke-width="2" stroke-linejoin="round" filter="url(#fuzzy)"></polyline><polyline points="14,-80,14.919041438546401,-79.31133247385033,15.798347432896612,-78.81408691420042,16.51826912261468,-78.35901874803616,16.97197133722556,-77.93309026011883,17.073217370030246,-77.53023533046688,16.73821745306614,-77.13610329204393,15.903840027134223,-76.74437901771896,14.550256171823301,-76.36585828931435,12.699817176920194,-76.01798205565814,10.389668721389839,-75.7073880189993,7.637407303637815,-75.42228104098287,4.422689811915259,-75.13808118514274,0.6902501046690617,-74.82865480202612,-3.639078406148103,-74.47724572758612,-8.65697851078321,-74.08720263017841,-14.441706292953588,-73.68877250286377,-21.017927197990026,-73.32921793844227,-28.33928216314509,-73.05419337940927" fill="none" stroke="rgb(44, 34, 43)" stroke-width="2" stroke-linejoin="round" filter="url(#fuzzy)"></polyline><polyline points="15,-79,16.200948627064427,-78.74061602367902,17.511605430076667,-78.30824323913768,18.74981635842891,-77.88010082800852,19.852787676026722,-77.48336329661753,20.747943126456583,-77.11459301830519,21.383988730280276,-76.77896225359994,21.75625740918131,-76.49408874801124,21.894196458904904,-76.27548237476942,21.829234301562735,-76.12709365161804,21.570034635054483,-76.04471728585287,21.097875833511353,-76.02458333969116,20.37533642970931,-76.06872009752674,19.35513066486274,-76.18529643042316,17.985513289609848,-76.38581019507309,16.21934350074566,-76.68073589688129,14.030924203226215,-77.0754937393344,11.429915659964987,-77.57015804489004,8.450866177417911,-78.16546718397227,5.102705474348019,-78.87287289331542,1.283343367510204,-79.72128835565874,-3.296252865103787,-80.75196738816703" fill="none" stroke="rgb(44, 34, 43)" stroke-width="2" stroke-linejoin="round" filter="url(#fuzzy)"></polyline><polyline points="-27,-77,-26.415696629597964,-77.28879968389343,-25.390512335087084,-77.77019767637586,-24.52294882664866,-78.10198247250061,-23.96277805972192,-78.19374704873708,-23.68965980024712,-78.07722853587293,-23.659629849759146,-77.80615523853207,-23.852163357364045,-77.40907902443259,-24.275829111539334,-76.8808632449258,-24.95941209586921,-76.19327896765651,-25.938200562261493,-75.31112302465702,-27.241744582476557,-74.20600438511022,-28.888453177985312,-72.86209315261617,-30.89062618536846,-71.27050751522712,-33.27094943305615,-69.41654332133285,-36.08467338357895,-67.273074568504,-39.42911490202627,-64.8082279902218,-43.42094663286022,-61.978481095965364,-48.177558287931426,-58.61216898204313" fill="none" stroke="rgb(44, 34, 43)" stroke-width="2" stroke-linejoin="round" filter="url(#fuzzy)"></polyline><polyline points="60,-37,60.63339907338431,-35.30086700245128,60.9270901183877,-34.55910549938711,60.987801146634304,-34.072856500976435,60.81376304764001,-33.7663241152337,60.40739193920287,-33.65172662229615,59.77983839869142,-33.72490038375586,58.941832043114815,-33.97961462689253,57.89543348543515,-34.43931493791542,56.630416861126704,-35.16363607454939,55.125445399997474,-36.22404220077074,53.351718068122864,-37.67029321193695,51.27728935468559,-39.51329308914127,48.87179915369869,-41.73432592062821,46.11134139920575,-44.312003060996666,42.98208263015472,-47.24825255882592,39.48133255355965,-50.57571146596704,35.61630171398124,-54.33939580264061,31.400480194237065,-58.56389462547661,26.84449768415331,-63.2367856425783,21.94171352565748,-68.34105214294965,16.6664500596255,-73.92279189429247" fill="none" stroke="rgb(44, 34, 43)" stroke-width="2" stroke-linejoin="round" filter="url(#fuzzy)"></polyline><polyline points="47,-59,48.16454686913385,-57.63599899856164,48.94199344092531,-56.63328287994665,49.78145007151907,-55.600589601641296,50.602338942177504,-54.567516485834226,51.304766068248874,-53.61548093355355,51.86028568752801,-52.77675797593682,52.286088083198464,-52.05048936186195,52.606112123968074,-51.43692043966705,52.830366018088924,-50.95127419695847,52.95452325489078,-50.61578078494482,52.96888143440191,-50.44529677714916,52.86482353105772,-50.441911115330356,52.63419944834648,-50.60267824397695,52.264606455473356,-50.93301407858511,51.73555088648767,-51.45555784375176,51.01784740361852,-52.21025512249889,50.076223649252405,-53.24749555697399,48.87528612689957,-54.61555961796063,47.388977341430106,-56.34084032192735,45.609542667531045,-58.40680205831944,43.547347835054815,-60.75646496396268,41.24053542608589,-63.332626531832595" fill="none" stroke="rgb(44, 34, 43)" stroke-width="2" stroke-linejoin="round" filter="url(#fuzzy)"></polyline><polyline points="3,-82,4.27133537043032,-81.33413610223936,5.701343477345098,-80.9659543746588,7.110430894435338,-80.64386762952083,8.586367039916611,-80.25470031889799,10.17683985218912,-79.77393650924103,11.84644779880114,-79.22657334045891,13.53705118704827,-78.64903830168213,15.2149121750851,-78.06544051611192,16.87706451004097,-77.48181508255132,18.53382929891719,-76.8928716918221,20.18786985413155,-76.29375368978428,21.820777073992076,-75.69027417492799,23.391319375073547,-75.10256114713484,24.845174224536393,-74.55983040261819,26.130820147290088,-74.08890082542354,27.212090759239935,-73.7042226382759,28.069480907730192,-73.40827614081329,28.68971844472446,-73.20449854327671,29.049202331106656,-73.11231825899567,29.09760413811249,-73.16615237426683,28.76433332533059,-73.38944171086636,28.110057811725483,-73.74541858975095" fill="none" stroke="rgb(44, 34, 43)" stroke-width="2" stroke-linejoin="round" filter="url(#fuzzy)"></polyline><polyline points="39,-66,39.55725520016493,-65.67995231037291,40.568688482287946,-64.98513513826454,41.69571800902601,-64.06388104693276,42.836985184434475,-63.04106497776699,43.929507577140605,-62.02615258111553,44.92978945114792,-61.07770110337671,45.80760762612474,-60.21821203800428,46.54377720358012,-59.460642803930696,47.13174445688227,-58.81955831730714,47.57537625593959,-58.310324073627406,47.88039561736298,-57.94805234867547,48.04333381438875,-57.75097935893725,48.04164619043518,-57.74618532356995,47.827667499809465,-57.9730359901169,47.333468075687705,-58.479033131701044,46.4926285166744,-59.31069374469274,45.25541878784173,-60.53003230105869,43.52400716600371,-62.30610547595657" fill="none" stroke="rgb(44, 34, 43)" stroke-width="2" stroke-linejoin="round" filter="url(#fuzzy)"></polyline><polyline points="-15,-81,-14.565707454900757,-80.99239335785586,-13.464319280709827,-81.02451674820998,-12.247145170560781,-81.09234337968623,-11.307864769965834,-81.11373640092533,-10.756533834932977,-81.01780929334986,-10.545743451505402,-80.77510564899629,-10.606038140157501,-80.3857712607761,-10.90378238247153,-79.85850608295087,-11.438668376306918,-79.19618796211466,-12.225062408245677,-78.39233098441927,-13.282290437403745,-77.43546112156828,-14.634536031644858,-76.31491073449854,-16.311242987146976,-75.02290635784811,-18.342772135929952,-73.5527714846443,-20.75377520939947,-71.89678357639887,-23.560053551594024,-70.04636905982264,-26.771402812440737,-67.99369191860708,-30.397020300563685,-65.73162466224024,-34.44814911123765,-63.249731910142515,-38.93817308689919,-60.527220012132254,-43.884256848622776,-57.54613955568576,-49.28696169840229,-54.4359471939499" fill="none" stroke="rgb(44, 34, 43)" stroke-width="2" stroke-linejoin="round" filter="url(#fuzzy)"></polyline><polyline points="-21,-79,-19.428444668959216,-79.63116140081002,-18.25301039495442,-79.9290299285572,-17.157259055318086,-80.15678793098436,-15.99293672060594,-80.41031492763432,-14.745930261924434,-80.68573923492195,-13.44936400264049,-80.9540600182321,-12.161524720927996,-81.20005430623657,-10.982330322265625,-81.41844940185547,-10.052478061992367,-81.59397374941665,-9.519192238986566,-81.69519373955507,-9.491076313681244,-81.69195965311931,-10.008580442983657,-81.58151286555221,-11.03784736104876,-81.39436822775829,-12.491845068837744,-81.15456979635606,-14.338671152551838,-80.78875264564661" fill="none" stroke="rgb(44, 34, 43)" stroke-width="2" stroke-linejoin="round" filter="url(#fuzzy)"></polyline><polyline points="-36,-73,-35.2376230382921,-73.2797468126631,-33.98723559550508,-73.80134478880727,-32.66812638929856,-74.41645706503085,-31.368461389868102,-75.06921689271596,-30.1548063388841,-75.70048493594459,-29.05424195216046,-76.26280749771519,-28.05634196505865,-76.73623559743935,-27.14007117768223,-77.12935695719466,-26.29684465207786,-77.46572412819825,-25.543679237365723,-77.76140308380127,-24.926886326353575,-78.00731357037017,-24.51209550241533,-78.17065900806881,-24.35974771263048,-78.21720416889066,-24.499113017208252,-78.13781339022438,-24.92195153907005,-77.95418600102585,-25.603064089152525,-77.6918346272274,-26.527330692272148,-77.33904905315572,-27.696497372693063,-76.83474194767638,-29.133809309569862,-76.1030304353552" fill="none" stroke="rgb(44, 34, 43)" stroke-width="2" stroke-linejoin="round" filter="url(#fuzzy)"></polyline><polyline points="-22,-79,-21.02844135083034,-78.96296350808713,-19.62359909406485,-78.89098154201157,-17.76759777868645,-78.68147903688534,-15.564191717544823,-78.27108705216607,-13.0371311184374,-77.67304454328064,-10.169670382087912,-76.92162143532113,-6.94759121006058,-76.03723657271712,-3.3754640780529144,-75.02510882710531,0.5133196057465117,-73.88514334443111,4.651890277862549,-72.61659002304077,8.953588551219202,-71.21870979279541,13.343460643165475,-69.69478887840455,17.78657565801107,-68.05832829246326,22.290296012789963,-66.3320850195434,26.87809764054259,-64.53688428072815,31.555775981541057,-62.6830979659361,36.29316791729436,-60.78312651778671,41.022092575612675,-58.89018185065572,45.63233034086375,-57.167017315547014" fill="none" stroke="rgb(44, 34, 43)" stroke-width="2" stroke-linejoin="round" filter="url(#fuzzy)"></polyline><polyline points="7,-81,8.442928611748929,-80.72186361546281,9.997502914718556,-80.28257203167918,11.375928089661198,-79.86393083818882,12.677117657337956,-79.46828758235873,13.990731755684772,-79.07348800954259,15.352584390753435,-78.65796150225026,16.765344457906934,-78.2088637379072,18.211413079441712,-77.7279879441027,19.65505568683419,-77.23093788790861,21.043387135313452,-76.74049976210758,22.312175110968838,-76.27936610118378,23.39779285858794,-75.86638037780725,24.252602702023836,-75.51678659967816,24.85744983815805,-75.2436264756431,25.22421541441131,-75.05720047246356,25.385237175593183,-74.96333008058485,25.372479324083656,-74.96553505850481,25.19337886419068,-75.0739901363611,24.81082851406731,-75.31207978491821,24.132020228960396,-75.70214827846658,23.004250871260826,-76.23684897963966,21.24008991178362,-76.92039213580279" fill="none" stroke="rgb(44, 34, 43)" stroke-width="2" stroke-linejoin="round" filter="url(#fuzzy)"></polyline><polyline points="28,-74,28.112969980247115,-73.73037764388411,28.94071727626844,-73.25424350842641,29.439094728949794,-72.85682338661668,29.38191333765555,-72.61653188808808,28.812741579085678,-72.52467350532929,27.791591054639113,-72.5577472213123,26.3263106902957,-72.7116328108062,24.3697503735288,-73.01429256256236,21.834951913111556,-73.51788891853292,18.622336693194356,-74.27236341648415,14.652747976913028,-75.29754252888534,9.885760984580092,-76.58048072687289,4.326149782100294,-78.10872937174378,-1.8716573286843223,-79.90344267743136" fill="none" stroke="rgb(44, 34, 43)" stroke-width="2" stroke-linejoin="round" filter="url(#fuzzy)"></polyline><polyline points="-36,-73,-34.16811388516992,-73.69873084582608,-33.02352792223849,-74.24901554737093,-32.02496205234674,-74.77453909017093,-31.20169597451781,-75.21845956320784,-30.572791046838095,-75.52676005535263,-30.108668094501972,-75.6805273200549,-29.772773017795355,-75.69072259189385,-29.546170344750614,-75.57942663869763,-29.43718263184295,-75.35705370355706,-29.480975890702126,-75.01017220421498,-29.727797819542403,-74.50779458304687,-30.224363803071917,-73.81885970797184,-30.99970281058984,-72.92573831224635,-32.06381208002384,-71.82442916500483,-33.41707239235404,-70.51446107634308,-35.060479589879385,-68.98884223265111,-36.99787352232365,-67.23191311888175,-39.230340303986914,-65.22468596998137,-41.75410171846242,-62.94962710655372,-44.57706489482683,-60.38639513314116,-47.745650917002614,-57.51732559093136,-51.297639823044726,-54.46210282048118" fill="none" stroke="rgb(44, 34, 43)" stroke-width="2" stroke-linejoin="round" filter="url(#fuzzy)"></polyline><polyline points="-31,-75,-30.05123943558158,-75.62433710746092,-28.723325403967156,-75.91562438398454,-26.853479632693414,-75.99826353974744,-24.472414069107955,-75.91342696347411,-21.622825874663373,-75.72652972074876,-18.34155221202048,-75.49068775072801,-14.68712446288602,-75.21431304349981,-10.742581847534924,-74.87084698321773,-6.589229583740234,-74.43406867980957,-2.280438807585716,-73.90580450119134,2.1633918415535263,-73.31495545115496,6.740740547152628,-72.69276174928032,11.451884712127196,-72.04901889791071,16.296830944517414,-71.37090437454793,21.29915270749766,-70.63856058112646,26.53287873643944,-69.82423688552902,32.014879033872404,-68.88171467526509" fill="none" stroke="rgb(44, 34, 43)" stroke-width="2" stroke-linejoin="round" filter="url(#fuzzy)"></polyline><polyline points="32,-72,31.789844369659985,-71.77593885773585,32.078111111692095,-71.40794786614995,32.32034065336893,-71.02050153307233,32.40626979124444,-70.64814723829566,32.25247428864992,-70.35766146850943,31.731750533504254,-70.22441551302069,30.727068935814515,-70.29194406324085,29.1854263902837,-70.56187856514445,27.11914028323402,-71.01392841846207,24.5638271537294,-71.63149303505617,21.52972977216648,-72.4131333512953,17.976043806193797,-73.37146468196151,13.82100442777697,-74.53342968451982,8.995085321476495,-75.94428883356163,3.533263238551129,-77.65547154571482,-2.4002918172067984,-79.68313262274499" fill="none" stroke="rgb(44, 34, 43)" stroke-width="2" stroke-linejoin="round" filter="url(#fuzzy)"></polyline><polyline points="-21,-79,-19.16372909217027,-79.44994710938663,-17.175217341029775,-79.21741953518725,-14.711583589243297,-78.59407879802067,-11.621043976726142,-77.70955892822865,-7.886609528284402,-76.58391385954815,-3.533102142331286,-75.20354169346459,1.3955013775093263,-73.56554363865828,6.8108797256672275,-71.68164696737124,12.5768328690008,-69.57035065733939,18.56135622966497,-67.25643309742455,24.71371978194478,-64.76891141056356,31.09210480482059,-62.12516975460352,37.781345336130165,-59.32055721034436,44.75116439794845,-56.34553714283536" fill="none" stroke="rgb(44, 34, 43)" stroke-width="2" stroke-linejoin="round" filter="url(#fuzzy)"></polyline><polyline points="32,-72,31.685617387998963,-71.77953891203383,31.66172270767117,-71.41508273307653,31.390050895674676,-71.02565729844162,30.76273729634704,-70.63596036477247,29.696443074538788,-70.30425199717291,28.06363552557184,-70.10419661078683,25.746756318494203,-70.08070619635828,22.689064025878906,-70.2303695678711,18.88892665948114,-70.51598782587024,14.35551099206956,-70.8984940244591,9.076857775201235,-71.364878386524,3.0249311760417186,-71.9420753258164,-3.8329731438243826,-72.69389244091438,-11.559519775793966,-73.68741842827338,-20.268750427935764,-74.89601925667839" fill="none" stroke="rgb(44, 34, 43)" stroke-width="2" stroke-linejoin="round" filter="url(#fuzzy)"></polyline><polyline points="-18,-80,-17.67507358093364,-80.04045631245833,-17.0110936141815,-80.17998014391175,-16.32787427853669,-80.28955181718464,-15.701564618177361,-80.28576929731081,-15.167901349781914,-80.15675347171532,-14.827389797947227,-79.90286930016677,-14.805122520296996,-79.50794809831453,-15.181974908208023,-78.94350376838327,-15.976949395811655,-78.18124018587345,-17.177918434143066,-77.20119142532349,-18.776828331222873,-75.99535175911294,-20.779834886759183,-74.56688360168624,-23.19873176742383,-72.92207716821471,-26.046970606837046,-71.0571540900448,-29.34924652355903,-68.95115773257544,-33.14908535218095,-66.57402054865108,-37.493918107966564,-63.90050234746367,-42.39541118473387,-60.918478823687366,-47.751349260998644,-57.71207738702437" fill="none" stroke="rgb(44, 34, 43)" stroke-width="2" stroke-linejoin="round" filter="url(#fuzzy)"></polyline><polyline points="-22,-79,-21.063801209152977,-78.9904727273319,-19.76920676787094,-78.99771602258267,-18.097973910727273,-78.91690909827463,-16.14858659129799,-78.68687969252133,-13.938287957973087,-78.31641647766622,-11.4441817565673,-77.8279781566341,-8.647458776761596,-77.23230609121575,-5.552043987743778,-76.53408198611928,-2.1931982309621603,-75.74046772403484,1.3634650510882889,-74.85965029801973,5.03831672668457,-73.89586639404297,8.76275049334944,-72.85079084146311,12.495691995942027,-71.73159599059798,16.221090567449828,-70.55692363692327,19.93403605838482,-69.3528881758985,23.632847767228803,-68.14084316590248,27.323302970572044,-66.9277348464368,31.020597794590746,-65.70864273378245,34.73357182190763,-64.47864522090107,38.44628090593504,-63.24421798457509,42.14401662951295,-62.04715037984296" fill="none" stroke="rgb(44, 34, 43)" stroke-width="2" stroke-linejoin="round" filter="url(#fuzzy)"></polyline><polyline points="44,-62,45.22996275094753,-61.11408694119693,45.73237251381812,-60.405263069285986,45.89825446987224,-59.88135279290099,45.82446973095155,-59.50874928961111,45.515783948859365,-59.27013804518789,44.9473070089163,-59.170769458005275,44.07359291248561,-59.23573117645886,42.83266250397052,-59.505483342100376,41.160744165292876,-60.02324543005024,39.00993434437359,-60.81975271483024,36.35758694643357,-61.90729087593073,33.20309864244937,-63.288000274959856,29.554194328475614,-64.96996301888674,25.408863200896636,-66.97658187390442,20.740722123197166,-69.33464552502171,15.494093474649505,-72.04176285310625,9.600426459236342,-75.05038954147523,3.0518043120084757,-78.33430000326305" fill="none" stroke="rgb(44, 34, 43)" stroke-width="2" stroke-linejoin="round" filter="url(#fuzzy)"></polyline><polyline points="-33,-74,-32.60513836490667,-74.23230581688826,-30.956302528195565,-74.58471180073877,-28.946222507067183,-74.78125948628225,-26.69818697432993,-74.74149073871386,-24.15769306781496,-74.46895918550577,-21.27665385448365,-74.00725544161385,-18.03888621318735,-73.41179098376578,-14.455282284765858,-72.72140271560782,-10.560598673681886,-71.94233544878736,-6.405036188012128,-71.05489587731644,-2.0374595805716407,-70.03726734685765,2.5102876746218747,-68.88879877285197,7.22768098198147,-67.6354573834432,12.117316240715597,-66.31352072997491,17.18053632985003,-64.94590534523881,22.403441407657155,-63.53485384386263,27.746569291631246,-62.08411250191454,33.13725497171369,-60.63678562961659,38.455893619871894,-59.29012017108085,43.506927900201084,-58.13197776466478" fill="none" stroke="rgb(44, 34, 43)" stroke-width="2" stroke-linejoin="round" filter="url(#fuzzy)"></polyline><polyline points="44,-62,45.158093049658774,-61.10877538667264,45.44498563759629,-60.385095082754944,45.25623994069935,-59.82816842549915,44.69102699285187,-59.39484066973304,43.761517132032395,-59.0589760399896,42.451824339177755,-58.8174578128223,40.72016723550667,-58.68568780801915,38.50149973581702,-58.692284031717314,35.729381815185995,-58.86851092407192,32.36315298080444,-59.236727237701416,28.39903617006089,-59.805846391363175,23.857302574684496,-60.57548283234464,18.755801954380352,-61.543006102119094,13.088273990257582,-62.70554833539401,6.81884968378904,-64.0531917705232,-0.10948631778841644,-65.56027437568494,-7.758176714633747,-67.19563938573313,-16.16773034346108,-68.96793224701457,-25.38508882049951,-70.94535810165813" fill="none" stroke="rgb(44, 34, 43)" stroke-width="2" stroke-linejoin="round" filter="url(#fuzzy)"></polyline><!--]--></g><g id="lineNose"><path d="M -7.51513566945445 20.931144669882446, Q8.009021593498 31.262417030915206,0.2469429620217749 -5.435038254389262" fill="none" stroke="black" stroke-width="3" stroke-linejoin="round" filter="url(#fuzzy)"></path></g><g id="mouth"><polyline points="-27.05513837408352,72.04122369444286,-26.29939105407804,71.21411679194712,-25.557670349563416,70.39433072359452,-24.829683216946982,69.58217408169318,-24.115136612636068,68.77795545855119,-23.413737493038006,67.98198344647665,-22.72519281456013,67.19456663777768,-22.04920953360977,66.4160136247624,-21.385494606594264,65.6466329997389,-20.73375498992093,64.88673335501528,-20.093697639997096,64.13662328289966,-19.465029513230117,63.39661137570015,-18.847457566027305,62.667006225724826,-18.240688754795993,61.948116425281825,-17.64443003594352,61.24025056667925,-17.058388365877214,60.5437172422252,-16.482270701004406,59.85882504422778,-15.915783997732431,59.18588256499509,-15.358635212468611,58.52519839683525,-14.810531301620287,57.87708113205637,-14.271179221594789,57.24183936296654,-13.740285928799446,56.619781681873874,-13.21755837964159,56.01121668108648,-12.702703530528552,55.41645295291246,-12.195428337867662,54.83579908965993,-11.695439758066259,54.269563683636974,-11.202444747531667,53.718055327151724,-10.716150262671215,53.18158261251228,-10.23626325989224,52.66045413202672,-9.762490695602075,52.15497847800321,-9.294539526208043,51.66546424274981,-8.832116708117487,51.19222001857462,-8.37492919773773,50.73555439778578,-7.922683951476106,50.29577597269138,-7.475087925739949,49.87319333559953,-7.031848076936585,49.46811507881832,-6.592671361473348,49.080849794655876,-6.157264735757571,48.711706075420295,-5.725335156196584,48.360992513419696,-5.296589579197718,48.02901770096216,-4.870734961168306,47.71609023035582,-4.44747825851568,47.422518693908756,-4.02652642764717,47.148611683929104,-3.6075864249701044,46.89467779272495,-3.190365206891819,46.66102561260439,-2.774569729819645,46.44796373587557,-2.3599069501609127,46.255800754846554,-1.9460838243229537,46.084845261825485,-1.5328073087130993,45.935405849120436,-1.1197843597386803,45.80779110903953,-0.7067219338070319,45.702309633890884,-0.29332698732547924,45.61927001598258,0.12069352329864225,45.558980847622735,0.5356326416580007,45.52175072111946,0.9517834113452652,45.50788822878086,1.3694388759531064,45.517701962915034,1.788892079074191,45.5515005158301,2.2104360643011876,45.60959247983414,2.634363875226765,45.6922864472353,3.0609685554435915,45.799891010341646,3.4905431485443357,45.93271476146132,3.923380698121667,46.0910662929024,4.359774247768252,46.275254196973,4.800016841076761,46.48558706598124,5.244401521639863,46.72237349223521,5.693221333050224,46.98592206804303,6.146769318900517,47.27654138571279,6.605338522783405,47.59454003755261,7.06922198829156,47.94022661587059,7.538712759017649,48.313909712974834,8.014103878554343,48.71589792117346,8.495688390494308,49.14649983277455,8.983759338430213,49.60602404008623,9.47860976595473,50.09477913541662,9.980532716660521,50.6130737110738,10.489821234140262,51.16121635936588,11.006768361986614,51.73951567260098,11.531667143792248,52.348280243087196,12.064810623149839,52.987818663132636,12.606491843652046,53.6584395250454,13.157003848891543,54.36045142113361,13.716639682460997,55.09416294370536,14.285692387953079,55.85988268506877,14.864455008960455,56.65791923753192,15.45322058907579,57.488581193402936,16.052282171891765,58.35217714498992,16.661932801001033,59.24901568460099,17.282465519996272,60.179405404544234,17.91417337247015,61.14365489712777,18.55734940201533,62.142072754659694,19.21228665222449,63.174967569448114,19.879278166690288,64.24264793380115,20.558616989005397,65.3454224400269,21.25059616276249,66.48359968043346,21.95550873155423,67.65748824732896,22.673647738973283,68.86739673302148,23.40530622861233,70.11363372981914,24.150777244064024,71.39650783003005,24.910353828921046,72.71632762596231,25.684329026776055,74.07340170992401,26.47299588122167,75.46803867422321,25.68432902677601,74.07340170992393,24.91035382892099,72.71632762596222,24.150777244063967,71.39650783002996,23.405306228612275,70.11363372981906,22.673647738973234,68.86739673302141,21.95550873155418,67.65748824732889,21.250596162762445,66.4835996804334,20.558616989005355,65.34542244002682,19.87927816669025,64.24264793380108,19.21228665222445,63.17496756944806,18.557349402015294,62.14207275465964,17.914173372470113,61.14365489712771,17.282465519996233,60.179405404544184,16.661932801001,59.24901568460095,16.052282171891726,58.352177144989895,15.453220589075759,57.4885811934029,14.864455008960423,56.65791923753188,14.285692387953047,55.85988268506872,13.716639682460965,55.09416294370533,13.157003848891511,54.360451421133575,12.606491843652014,53.658439525045374,12.064810623149807,52.98781866313261,11.531667143792221,52.34828024308716,11.006768361986586,51.739515672600945,10.489821234140239,51.161216359365845,9.980532716660496,50.613073711073774,9.478609765954706,50.094779135416594,8.983759338430191,49.60602404008622,8.495688390494287,49.146499832774516,8.014103878554321,48.71589792117343,7.5387127590176295,48.3139097129748,7.069221988291539,47.94022661587056,6.605338522783384,47.594540037552584,6.146769318900496,47.27654138571277,5.693221333050203,46.98592206804301,5.244401521639841,46.722373492235185,4.800016841076741,46.48558706598123,4.3597742477682315,46.27525419697299,3.9233806981216457,46.09106629290238,3.4905431485443152,45.932714761461305,3.0609685554435715,45.79989101034163,2.6343638752267435,45.69228644723528,2.2104360643011685,45.609592479834134,1.7888920790741714,45.55150051583009,1.3694388759530869,45.51770196291502,0.9517834113452459,45.50788822878085,0.5356326416579821,45.52175072111945,0.12069352329862254,45.55898084762273,-0.29332698732549944,45.61927001598257,-0.7067219338070494,45.702309633890884,-1.1197843597387,45.80779110903955,-1.5328073087131182,45.93540584912044,-1.9460838243229726,46.084845261825485,-2.3599069501609313,46.255800754846575,-2.7745697298196648,46.44796373587559,-3.190365206891839,46.661025612604426,-3.6075864249701235,46.89467779272496,-4.0265264276471875,47.14861168392911,-4.447478258515698,47.422518693908785,-4.870734961168327,47.71609023035584,-5.296589579197739,48.029017700962186,-5.7253351561966035,48.36099251341972,-6.1572647357575905,48.71170607542032,-6.592671361473369,49.080849794655904,-7.031848076936605,49.46811507881834,-7.475087925739968,49.87319333559955,-7.922683951476127,50.29577597269141,-8.374929197737751,50.73555439778581,-8.832116708117507,51.192220018574666,-9.294539526208066,51.66546424274984,-9.762490695602096,52.15497847800324,-10.236263259892262,52.66045413202676,-10.716150262671237,53.18158261251231,-11.202444747531686,53.71805532715176,-11.695439758066282,54.26956368363701,-12.19542833786769,54.83579908965995,-12.702703530528579,55.416452952912486,-13.217558379641616,56.01121668108651,-13.740285928799475,56.6197816818739,-14.271179221594819,57.241839362966566,-14.810531301620317,57.8770811320564,-15.358635212468641,58.525198396835286,-15.915783997732461,59.185882564995126,-16.48227070100444,59.85882504422781,-17.05838836587725,60.54371724222523,-17.644430035943554,61.240250566679286,-18.24068875479603,61.94811642528187,-18.847457566027337,62.66700622572486,-19.46502951323015,63.39661137570018,-20.09369763999714,64.1366232828997,-20.73375498992096,64.88673335501532,-21.385494606594296,65.64663299973894,-22.04920953360981,66.41601362476244,-22.725192814560177,67.19456663777774,-23.413737493038056,67.98198344647669,-24.115136612636114,68.77795545855122,-24.82968321694703,69.58217408169322,-25.557670349563466,70.39433072359458,-26.299391054078086,71.21411679194718" fill="rgb(215,127,140)" stroke="black" stroke-width="3" stroke-linejoin="round" filter="url(#fuzzy)"></polyline></g></svg>