<svg viewBox="-100 -100 200 200" xmlns="http://www.w3.org/2000/svg" width="400" height="400" id="face-svg"><defs><clipPath id="leftEyeClipPath"><polyline points="32.07579895527418,3.5948439340217977,31.803190879870687,3.3107988336928704,31.490006607230054,3.01965628071774,31.137273652209235,2.722451501598771,30.746054379130523,2.4201891192800566,30.31744410214876,2.113843439543629,29.852569185618485,1.8043587374056695,29.35258514446118,1.4926495435127132,28.81867474453243,1.1796009305378679,28.252046102989127,0.8660687995770147,27.65393078865668,0.5528801665450196,27.02558192239617,0.24083344857194788,26.368272277471604,-0.06930124960073591,25.683292379917056,-0.3767818492239545,24.97194860890388,-0.6808940111447974,24.23556129710791,-0.9809508494103412,23.470804963981692,-1.369688356438667,22.664658646861156,-1.7525824217640658,21.819074904824657,-2.1281816309171635,20.93621249481669,-2.4950965083492687,20.01840963398591,-2.8520031195550093,19.068158479249355,-3.197646303359795,18.088080800704166,-3.530842543629431,17.08090482550829,-3.8504824896591554,16.0494432288516,-4.155533134499343,14.996572248638852,-4.4450396604752225,13.92521190050582,-4.7181269611577985,12.838307269790247,-4.974000849043364,11.738810857078807,-5.211948958198766,10.62966595395162,-5.431341351129829,9.513791025545757,-5.6316308391300876,8.394065076559126,-5.8123530253672175,7.273313977316162,-5.973126079964377,6.154297726516798,-6.113650256333761,5.039698627290067,-6.233707158019673,3.9321103531738206,-6.333158765308324,2.8340278806420125,-6.411946230861702,1.7478382648008548,-6.4700884536328065,0.6758122348754441,-6.507680440319442,-0.3799034138918742,-6.524891463613907,-1.4172926553098542,-6.521963026505915,-2.4344763176520736,-6.4992066418958725,-3.4297174427945336,-6.457001436775952,-4.401425942455774,-6.395791590236154,-5.348162574918032,-6.316083614552671,-6.268642265608008,-6.218443488615785,-7.161736794915878,-6.1034936529546435,-8.026476876631023,-5.97190987561617,-8.86205365037317,-5.8244179981553525,-9.667819611397398,-5.6617905709942296,-10.443289001151683,-5.484843387406887,-11.188137681965443,-5.294431925387599,-11.902202519247815,-5.091447706659617,-12.585480294574065,-4.876814582081682,-13.238126173038818,-4.651484952709659,-13.860451748254647,-4.4164359357705205,-14.452922688374564,-4.172665484805979,-15.016156006517065,-3.921188473243042,-15.55091697897219,-3.6630327506488083,-16.058115734567284,-3.3992351809266683,-16.53880353857097,-3.130837671711367,-16.994168794513868,-2.8588832042200227,-17.425532787304757,-2.5844118728165384,-17.834345191020645,-2.308456943546558,-18.222179364749294,-2.032040940900357,-18.59072745986297,-1.7561717720608652,-18.940053827004846,-1.4799126682872608,-19.269450879022582,-1.2020207591899563,-19.57955277162265,-0.923021241158299,-19.871009604617804,-0.6434245952652926,-20.144484290868203,-0.36372534745332175,-20.400649425222525,-0.08440082871993226,-20.64018415345914,0.1940900646964412,-20.863771041227213,0.4713081111307025,-21.072092942987823,0.7468350033053497,-21.265829870955127,1.0202745881447264,-21.44565586403746,1.2912541065892587,-21.61223585677849,1.5594254334097082,-21.766222548298323,1.8244663170214253,-21.908253271234653,2.0860816192985876,-19.56077673969735,6.465499450909212,-19.310556810875642,6.441274709951511,-19.049943159996136,6.416906276612655,-18.778582306585726,6.392505571153136,-18.496117691208955,6.3681904791952695,-18.20219105518493,6.344084624292264,-17.89644382030437,6.320316640497287,-17.578518468546484,6.297019444932543,-17.248059921796038,6.27432951035833,-16.90471692156025,6.252386137742118,-16.54814340868579,6.231330728827615,-16.177999903075772,6.211306058703835,-15.793954883406688,6.19245554837417,-15.39568616684539,6.174922537325457,-14.982882288766085,6.158849556097045,-14.555322563491853,6.143898940729473,-14.112354322200883,6.129860541355615,-13.653076737633572,6.1170550080193395,-13.176657479781039,6.105785850269546,-12.682335349821862,6.096338212076631,-12.169422811272412,6.088977675117045,-11.637308408048877,6.083949095857438,-11.085459059139119,6.081475481869884,-10.51342221958241,6.081756912809648,-9.920827897455236,6.084969511487008,-9.307390516561313,6.091264470464587,-8.672910614523726,6.100767139611703,-8.017276365977612,6.113576180047205,-7.340464920561185,6.129762789902296,-6.642543545403505,6.149370007334801,-5.923670561806855,6.1724120962264015,-5.1840960658220165,6.198874019994276,-4.424162422414449,6.228711008948679,-3.6443045229195743,6.261848226627896,-2.845049795485181,6.2981805405421,-2.027017958199181,6.337572402757564,-1.1909205046006726,6.379857845752726,-0.33755991127261886,6.424840598977588,0.5321714427859394,6.472294331547948,1.4172926553098542,6.521963026505915,2.3167359887420558,6.573561492078228,3.229348877333721,6.626776015363843,4.153896263672409,6.681265163882278,5.089063274939951,6.7366607404141945,6.033458249202085,6.792568896565712,6.985616122031652,6.848571410487924,7.9440021837672425,6.9042271341831185,8.907016217709234,6.959073615829167,9.87299702955504,7.012628902553581,10.840227378375506,7.064393529088711,11.806939319434312,7.113852697739588,12.77131996915227,7.1604786550958694,13.731517702518426,7.203733270919382,14.685648793249834,7.243070824638765,15.631804507001867,7.277941004882665,16.568058657931026,7.307792127482994,17.492475638912037,7.332074577379716,18.403118935711184,7.350244479858666,19.298060135417767,7.36176760655386,20.175388439435547,7.36612352164581,21.033220691336048,7.362809973687301,21.86971192987567,7.351347538488133,22.68306647747844,7.331284518490303,23.47154957448628,7.302202104065116,24.23349956947875,7.263719802163704,24.919933467841627,7.236564937367993,25.588348947993502,7.202425080550788,26.237565843588868,7.160964511874538,26.866388195087993,7.111847630401347,27.4736047358874,7.054739279695433,28.057989378450362,6.989305073425579,28.618301700437467,6.915211720967595,29.153287430837054,6.832127353006763,29.661678936095775,6.739721847140297,30.142195706249076,6.637667153479795,30.593544841051735,6.525637620253694,31.01442153610833,6.403310319409726,31.403509569003766,6.270365372217367,31.75948178543379,6.1264862748703,32.08100058533551,5.97136022408886"></polyline></clipPath><clipPath id="rightEyeClipPath"><polyline points="-31.74076877315484,5.303658783171576,-31.3424905235739,5.069701189391715,-30.9052955928221,4.825604400307263,-30.43074768825778,4.5717320555063985,-29.92040619568568,4.3084800296962396,-29.37582528499444,4.036274931184689,-28.798553015794127,3.7555726003622683,-28.190130443053768,3.4668566081839636,-27.55209072273889,3.1706367546510617,-26.885958217449016,2.8674475672929987,-26.193247602055223,2.557846799649189,-25.47546296933765,2.2424139297508745,-24.734096935623036,1.9217486586029588,-23.970629746422254,1.5964694086658557,-23.1865283820678,1.2672118223373188,-22.38324566335137,0.93462726043429,-21.492173424081138,0.5843766943241135,-20.571201777304466,0.22285721704499295,-19.622568067593253,-0.14844633959305398,-18.648610188361296,-0.527940956784736,-17.65174809159017,-0.9139457796842834,-16.63446620352585,-1.3047113690621153,-15.599296728542848,-1.6984378770998614,-14.548803823372861,-2.093292170760277,-13.485568623894698,-2.487423926168521,-12.412175106682424,-2.87898071744136,-11.331196767508526,-3.2661221234007396,-10.245184098999069,-3.64703287560833,-9.156652849637615,-4.019935071157425,-8.068073046314844,-4.383099473658849,-6.981858762620697,-4.73485592585725,-5.900358615075974,-5.073602897314387,-4.8258469695001995,-5.397816190595858,-3.760515839712671,-5.706056829397815,-2.7064674607635126,-5.9969781520501595,-1.6657075188916846,-6.269332133832741,-0.6401390204067159,-6.521974961541028,0.36844321830886173,-6.753871883737846,1.3583574774795988,-6.964101360127575,2.32803945510277,-7.151858533489424,3.276046020402836,-7.316458047606261,4.2010584173776415,-7.457336234625425,5.101884936239733,-7.574052695288163,5.9774630705557055,-7.666291295464138,6.826861177886839,-7.73386060242747,7.649279661734104,-7.776693784310922,8.444051692590682,-7.794847996174653,9.210643485905058,-7.788503276126082,9.948654154757984,-7.757960974927403,10.657815155056218,-7.703641742527186,11.337989341046383,-7.626083094952655,11.989169648951846,-7.5259365849990925,12.611477426536032,-7.403964600152904,13.205160426395013,-7.261036811184875,13.770590480782657,-7.098126294850067,14.308260875771493,-6.916305354130955,14.818783442552286,-6.716741059460189,15.302885383675568,-6.50069053435964,15.76140585203825,-6.2694960089321015,16.195292300418295,-6.024579664642275,16.60559661936084,-5.767438293823439,16.993471081218622,-5.49963779734639,17.360164108150016,-5.2228075438871375,17.7070158818778,-4.938634614229885,18.035453813011607,-4.648857954041722,18.346987887737498,-4.355262458555691,18.641744408136894,-4.056384058162152,18.919193483982532,-3.750103120990598,19.179927487672806,-3.437248951048776,19.424547002349506,-3.1186441588677347,19.653658437550227,-2.795101522683531,19.867871644860827,-2.46742084961895,20.067797533567884,-2.136385836865287,20.254045686311173,-1.8027609328640324,20.427221974736057,-1.4672881984886406,20.58792617514601,-1.1306841682262494,20.736749584155028,-0.793636711359424,20.874272634340073,-0.4568018931478761,21.001062509893565,-0.12080083601021308,21.117670762275793,0.21378341929432665,18.053390658384608,7.007570421442335,17.783066308852888,6.9916355055880945,17.502301793307275,6.975712340211155,17.210787793825908,6.959896492684253,16.908214544124682,6.944288705494517,16.594272947519528,6.928994257951156,16.2686556948887,6.914122327893138,15.931058382634985,6.899785353396881,15.581180630648023,6.886098394483929,15.218727200266505,6.873178494828644,14.843409112240463,6.861144043465886,14.454944764693542,6.850114136498699,14.053061051085232,6.840207938805992,13.63749447817313,6.831544045750229,13.207992283975228,6.82423984488511,12.76418043329137,6.818015781968294,12.3053034631666,6.812702855867407,11.830591302945686,6.808571385952332,11.33933724800883,6.805875458324688,10.830900238550276,6.804852002146164,10.304707044156421,6.805719893514702,9.760254345835792,6.808679091654433,9.197110707153284,6.813909812185298,8.614918426121603,6.821571742238262,8.013395259502024,6.831803302182029,7.39233601116735,6.8447209587271995,6.7516139761794225,6.860418594173756,6.091182232233825,6.878966936567805,5.411074770124278,6.900413055533509,4.7114074548793425,6.924779928546087,3.9923788092238475,6.9520660824118385,3.254270611017782,6.982245314721075,2.497448296325002,7.015266500039898,1.7223611597644677,7.051053485606728,0.9295423437964185,7.089505081299503,0.11960860859617384,7.130495148639459,-0.7067401258320523,7.1738727935974165,-1.5487214736485928,7.219462667968483,-2.405471521626657,7.2670653840810875,-3.2760460204028368,7.316458047606262,-4.159421836877385,7.367394913233097,-5.054498676111595,7.419608167976266,-5.960101081069837,7.472808846881557,-6.874980718553604,7.52668788589531,-7.797818959675109,7.5809173166636885,-8.727229763217824,7.635151608027695,-9.661762870231444,7.689029158979842,-10.599907318208695,7.74217394784841,-11.540095283191498,7.794197342475185,-12.480706258153853,7.84470007615262,-13.420071576008993,7.893274394086309,-14.356479285588167,7.939506375148706,-15.28817938893857,7.982978433690001,-16.21338944828784,8.023272006172071,-17.130300571022584,8.059970427391411,-18.037083781028386,8.092662001056983,-18.93189678473874,8.120943269488869,-19.812891140240346,8.144422487203675,-20.67821983778228,8.162723303152582,-21.526045300036387,8.175488656377958,-22.354547810456495,8.182384889854474,-23.161934378083735,8.183106087280589,-23.946448047145523,8.177378637586386,-24.70637765979567,8.164966031923617,-25.440068080342982,8.145673897903903,-26.093992415401267,8.141263499729018,-26.729147010895463,8.132522022989077,-27.344304352209107,8.119291760799001,-27.938215015041514,8.101421152367804,-28.509607923422067,8.078765194466554,-29.057190607724635,8.051185852896324,-29.57964946268187,8.018552473956165,-30.075650005399538,7.980742195911042,-30.543837133370914,7.9376403604598105,-30.982835382491068,7.889140924203164,-31.39124918507124,7.835146870111596,-31.767663127853204,7.775570618993357,-32.110642210023535,7.710334440962411,-32.418732101228045,7.639370866906393,-32.69045939958605,7.562623099954572"></polyline></clipPath><filter id="fuzzy"><feTurbulence id="turbulence" baseFrequency="0.05" numOctaves="3" type="noise" result="noise"></feTurbulence><feDisplacementMap in="SourceGraphic" in2="noise" scale="2"></feDisplacementMap></filter><linearGradient id="rainbowGradient" x1="0%" y1="0%" x2="100%" y2="0%"><stop offset="0%" style="stop-color: rgb(233, 236, 239);  stop-opacity: 1"></stop><stop offset="50%" style="stop-color: rgb(185, 55, 55);  stop-opacity: 1"></stop><stop offset="100%" style="stop-color: rgb(230, 230, 250);  stop-opacity: 1"></stop></linearGradient></defs><title>That&#39;s an ugly face</title><desc>CREATED BY XUAN TANG, MORE INFO AT TXSTC55.GITHUB.IO</desc><rect x="-100" y="-100" width="100%" height="100%" opacity="1" fill="rgb(0, 0, 139)"></rect><polyline id="faceContour" points="66,0,65,2,66,3,65,3,65,5,65,5,65,7,65,8,64,9,64,12,64,12,64,12,63,13,63,15,62,18,63,17,62,19,62,18,61,21,61,23,61,22,60,25,60,26,59,26,59,27,59,28,58,29,58,29,57,30,57,32,56,32,56,34,55,36,54,37,53,39,54,38,53,40,52,41,51,42,51,42,50,44,50,44,49,45,49,45,49,46,48,47,47,48,46,50,45,50,44,52,44,52,43,53,43,53,41,55,41,54,40,56,39,57,39,57,39,57,37,59,36,60,36,60,34,61,33,63,32,63,32,63,32,63,31,63,29,65,29,66,27,66,27,67,26,67,26,67,24,68,23,69,23,69,21,70,21,69,20,70,20,70,18,71,17,72,16,72,15,72,14,73,12,73,13,73,13,73,11,73,9,74,9,74,8,74,6,74,6,74,6,75,3,75,2,75,3,75,1,75,0,75,0,75,-1,75,-3,75,-4,75,-5,75,-7,75,-7,75,-8,75,-10,75,-10,74,-9,75,-12,74,-13,74,-13,74,-15,73,-15,73,-16,73,-17,73,-17,73,-19,72,-20,72,-22,71,-21,71,-23,70,-22,71,-25,69,-24,70,-25,69,-26,69,-28,67,-28,67,-29,67,-30,66,-31,66,-32,65,-33,64,-33,64,-35,62,-35,63,-36,62,-36,62,-37,61,-38,60,-40,59,-40,58,-41,57,-41,57,-42,56,-42,56,-44,54,-44,54,-45,53,-46,52,-47,50,-47,49,-48,50,-49,47,-49,47,-50,46,-51,45,-52,44,-51,44,-52,43,-52,43,-53,41,-54,40,-55,38,-54,39,-56,35,-56,35,-57,32,-57,33,-57,33,-58,31,-59,28,-60,27,-59,29,-60,26,-60,26,-61,24,-62,21,-62,21,-62,21,-62,19,-62,20,-63,16,-63,16,-63,14,-63,13,-64,13,-64,11,-64,11,-65,9,-65,7,-65,6,-65,5,-65,2,-66,2,-65,1,-65,0,-66,-1,-66,-4,-66,-3,-66,-3,-66,-6,-66,-7,-66,-10,-66,-8,-66,-11,-66,-14,-66,-13,-66,-15,-66,-16,-65,-18,-65,-19,-65,-19,-65,-19,-65,-23,-65,-21,-65,-23,-64,-24,-64,-27,-64,-27,-64,-28,-63,-29,-63,-30,-62,-33,-62,-34,-62,-33,-61,-36,-61,-36,-61,-36,-60,-38,-59,-40,-59,-41,-58,-43,-58,-43,-58,-42,-58,-43,-57,-45,-56,-47,-55,-48,-55,-48,-55,-48,-54,-50,-54,-50,-52,-52,-52,-52,-51,-53,-51,-54,-50,-55,-50,-55,-47,-58,-47,-58,-47,-58,-47,-58,-45,-60,-45,-60,-44,-61,-43,-62,-42,-62,-40,-64,-40,-64,-38,-65,-38,-65,-37,-66,-36,-66,-35,-67,-34,-68,-34,-67,-32,-68,-30,-69,-31,-69,-29,-70,-28,-70,-27,-70,-25,-71,-26,-71,-25,-72,-23,-72,-20,-73,-20,-73,-21,-73,-18,-74,-17,-74,-15,-74,-16,-74,-15,-74,-14,-74,-12,-75,-12,-74,-9,-75,-7,-75,-8,-75,-7,-75,-4,-75,-4,-75,-1,-75,-2,-75,1,-75,3,-75,3,-75,4,-75,4,-75,6,-75,6,-75,9,-74,10,-74,12,-74,13,-74,13,-74,13,-73,15,-73,16,-73,18,-72,17,-73,20,-72,20,-71,22,-71,23,-71,24,-70,24,-71,26,-70,27,-69,30,-68,29,-68,31,-68,30,-68,32,-66,33,-66,33,-66,36,-64,37,-64,37,-64,39,-63,38,-63,40,-61,40,-62,42,-60,43,-59,43,-59,45,-58,45,-57,46,-56,47,-55,48,-55,48,-55,49,-53,49,-53,49,-53,51,-51,52,-50,52,-50,53,-49,53,-48,54,-47,55,-46,56,-45,56,-45,56,-44,57,-42,58,-41,59,-39,58,-40,59,-37,59,-37,60,-36,60,-35,61,-35,61,-34,62,-32,62,-31,62,-31,62,-30,63,-27,63,-27,63,-28,64,-24,64,-24,64,-23,64,-23,65,-20,65,-21,65,-19,65,-18,65,-17,66,-15,66,-13,66,-14,66,-13,66,-12,66,-9,66,-7,66,-7,66,-6,66,-6,66,-4,66,-2,66,-3,66,0,65,2" fill="#ffc9a9" stroke="black" stroke-width="1.6666666666666665" stroke-linejoin="round" filter="url(#fuzzy)"></polyline><g transform="translate(41.88842865378099 -22.93001733695135)"><polyline id="rightCountour" points="-31.74076877315484,5.303658783171576,-31.3424905235739,5.069701189391715,-30.9052955928221,4.825604400307263,-30.43074768825778,4.5717320555063985,-29.92040619568568,4.3084800296962396,-29.37582528499444,4.036274931184689,-28.798553015794127,3.7555726003622683,-28.190130443053768,3.4668566081839636,-27.55209072273889,3.1706367546510617,-26.885958217449016,2.8674475672929987,-26.193247602055223,2.557846799649189,-25.47546296933765,2.2424139297508745,-24.734096935623036,1.9217486586029588,-23.970629746422254,1.5964694086658557,-23.1865283820678,1.2672118223373188,-22.38324566335137,0.93462726043429,-21.492173424081138,0.5843766943241135,-20.571201777304466,0.22285721704499295,-19.622568067593253,-0.14844633959305398,-18.648610188361296,-0.527940956784736,-17.65174809159017,-0.9139457796842834,-16.63446620352585,-1.3047113690621153,-15.599296728542848,-1.6984378770998614,-14.548803823372861,-2.093292170760277,-13.485568623894698,-2.487423926168521,-12.412175106682424,-2.87898071744136,-11.331196767508526,-3.2661221234007396,-10.245184098999069,-3.64703287560833,-9.156652849637615,-4.019935071157425,-8.068073046314844,-4.383099473658849,-6.981858762620697,-4.73485592585725,-5.900358615075974,-5.073602897314387,-4.8258469695001995,-5.397816190595858,-3.760515839712671,-5.706056829397815,-2.7064674607635126,-5.9969781520501595,-1.6657075188916846,-6.269332133832741,-0.6401390204067159,-6.521974961541028,0.36844321830886173,-6.753871883737846,1.3583574774795988,-6.964101360127575,2.32803945510277,-7.151858533489424,3.276046020402836,-7.316458047606261,4.2010584173776415,-7.457336234625425,5.101884936239733,-7.574052695288163,5.9774630705557055,-7.666291295464138,6.826861177886839,-7.73386060242747,7.649279661734104,-7.776693784310922,8.444051692590682,-7.794847996174653,9.210643485905058,-7.788503276126082,9.948654154757984,-7.757960974927403,10.657815155056218,-7.703641742527186,11.337989341046383,-7.626083094952655,11.989169648951846,-7.5259365849990925,12.611477426536032,-7.403964600152904,13.205160426395013,-7.261036811184875,13.770590480782657,-7.098126294850067,14.308260875771493,-6.916305354130955,14.818783442552286,-6.716741059460189,15.302885383675568,-6.50069053435964,15.76140585203825,-6.2694960089321015,16.195292300418295,-6.024579664642275,16.60559661936084,-5.767438293823439,16.993471081218622,-5.49963779734639,17.360164108150016,-5.2228075438871375,17.7070158818778,-4.938634614229885,18.035453813011607,-4.648857954041722,18.346987887737498,-4.355262458555691,18.641744408136894,-4.056384058162152,18.919193483982532,-3.750103120990598,19.179927487672806,-3.437248951048776,19.424547002349506,-3.1186441588677347,19.653658437550227,-2.795101522683531,19.867871644860827,-2.46742084961895,20.067797533567884,-2.136385836865287,20.254045686311173,-1.8027609328640324,20.427221974736057,-1.4672881984886406,20.58792617514601,-1.1306841682262494,20.736749584155028,-0.793636711359424,20.874272634340073,-0.4568018931478761,21.001062509893565,-0.12080083601021308,21.117670762275793,0.21378341929432665,18.053390658384608,7.007570421442335,17.783066308852888,6.9916355055880945,17.502301793307275,6.975712340211155,17.210787793825908,6.959896492684253,16.908214544124682,6.944288705494517,16.594272947519528,6.928994257951156,16.2686556948887,6.914122327893138,15.931058382634985,6.899785353396881,15.581180630648023,6.886098394483929,15.218727200266505,6.873178494828644,14.843409112240463,6.861144043465886,14.454944764693542,6.850114136498699,14.053061051085232,6.840207938805992,13.63749447817313,6.831544045750229,13.207992283975228,6.82423984488511,12.76418043329137,6.818015781968294,12.3053034631666,6.812702855867407,11.830591302945686,6.808571385952332,11.33933724800883,6.805875458324688,10.830900238550276,6.804852002146164,10.304707044156421,6.805719893514702,9.760254345835792,6.808679091654433,9.197110707153284,6.813909812185298,8.614918426121603,6.821571742238262,8.013395259502024,6.831803302182029,7.39233601116735,6.8447209587271995,6.7516139761794225,6.860418594173756,6.091182232233825,6.878966936567805,5.411074770124278,6.900413055533509,4.7114074548793425,6.924779928546087,3.9923788092238475,6.9520660824118385,3.254270611017782,6.982245314721075,2.497448296325002,7.015266500039898,1.7223611597644677,7.051053485606728,0.9295423437964185,7.089505081299503,0.11960860859617384,7.130495148639459,-0.7067401258320523,7.1738727935974165,-1.5487214736485928,7.219462667968483,-2.405471521626657,7.2670653840810875,-3.2760460204028368,7.316458047606262,-4.159421836877385,7.367394913233097,-5.054498676111595,7.419608167976266,-5.960101081069837,7.472808846881557,-6.874980718553604,7.52668788589531,-7.797818959675109,7.5809173166636885,-8.727229763217824,7.635151608027695,-9.661762870231444,7.689029158979842,-10.599907318208695,7.74217394784841,-11.540095283191498,7.794197342475185,-12.480706258153853,7.84470007615262,-13.420071576008993,7.893274394086309,-14.356479285588167,7.939506375148706,-15.28817938893857,7.982978433690001,-16.21338944828784,8.023272006172071,-17.130300571022584,8.059970427391411,-18.037083781028386,8.092662001056983,-18.93189678473874,8.120943269488869,-19.812891140240346,8.144422487203675,-20.67821983778228,8.162723303152582,-21.526045300036387,8.175488656377958,-22.354547810456495,8.182384889854474,-23.161934378083735,8.183106087280589,-23.946448047145523,8.177378637586386,-24.70637765979567,8.164966031923617,-25.440068080342982,8.145673897903903,-26.093992415401267,8.141263499729018,-26.729147010895463,8.132522022989077,-27.344304352209107,8.119291760799001,-27.938215015041514,8.101421152367804,-28.509607923422067,8.078765194466554,-29.057190607724635,8.051185852896324,-29.57964946268187,8.018552473956165,-30.075650005399538,7.980742195911042,-30.543837133370914,7.9376403604598105,-30.982835382491068,7.889140924203164,-31.39124918507124,7.835146870111596,-31.767663127853204,7.775570618993357,-32.110642210023535,7.710334440962411,-32.418732101228045,7.639370866906393,-32.69045939958605,7.562623099954572" fill="white" stroke="white" stroke-width="0" stroke-linejoin="round" filter="url(#fuzzy)"></polyline></g><g transform="translate(-35.37841265232981 -23.955640862975706)"><polyline id="leftCountour" points="32.07579895527418,3.5948439340217977,31.803190879870687,3.3107988336928704,31.490006607230054,3.01965628071774,31.137273652209235,2.722451501598771,30.746054379130523,2.4201891192800566,30.31744410214876,2.113843439543629,29.852569185618485,1.8043587374056695,29.35258514446118,1.4926495435127132,28.81867474453243,1.1796009305378679,28.252046102989127,0.8660687995770147,27.65393078865668,0.5528801665450196,27.02558192239617,0.24083344857194788,26.368272277471604,-0.06930124960073591,25.683292379917056,-0.3767818492239545,24.97194860890388,-0.6808940111447974,24.23556129710791,-0.9809508494103412,23.470804963981692,-1.369688356438667,22.664658646861156,-1.7525824217640658,21.819074904824657,-2.1281816309171635,20.93621249481669,-2.4950965083492687,20.01840963398591,-2.8520031195550093,19.068158479249355,-3.197646303359795,18.088080800704166,-3.530842543629431,17.08090482550829,-3.8504824896591554,16.0494432288516,-4.155533134499343,14.996572248638852,-4.4450396604752225,13.92521190050582,-4.7181269611577985,12.838307269790247,-4.974000849043364,11.738810857078807,-5.211948958198766,10.62966595395162,-5.431341351129829,9.513791025545757,-5.6316308391300876,8.394065076559126,-5.8123530253672175,7.273313977316162,-5.973126079964377,6.154297726516798,-6.113650256333761,5.039698627290067,-6.233707158019673,3.9321103531738206,-6.333158765308324,2.8340278806420125,-6.411946230861702,1.7478382648008548,-6.4700884536328065,0.6758122348754441,-6.507680440319442,-0.3799034138918742,-6.524891463613907,-1.4172926553098542,-6.521963026505915,-2.4344763176520736,-6.4992066418958725,-3.4297174427945336,-6.457001436775952,-4.401425942455774,-6.395791590236154,-5.348162574918032,-6.316083614552671,-6.268642265608008,-6.218443488615785,-7.161736794915878,-6.1034936529546435,-8.026476876631023,-5.97190987561617,-8.86205365037317,-5.8244179981553525,-9.667819611397398,-5.6617905709942296,-10.443289001151683,-5.484843387406887,-11.188137681965443,-5.294431925387599,-11.902202519247815,-5.091447706659617,-12.585480294574065,-4.876814582081682,-13.238126173038818,-4.651484952709659,-13.860451748254647,-4.4164359357705205,-14.452922688374564,-4.172665484805979,-15.016156006517065,-3.921188473243042,-15.55091697897219,-3.6630327506488083,-16.058115734567284,-3.3992351809266683,-16.53880353857097,-3.130837671711367,-16.994168794513868,-2.8588832042200227,-17.425532787304757,-2.5844118728165384,-17.834345191020645,-2.308456943546558,-18.222179364749294,-2.032040940900357,-18.59072745986297,-1.7561717720608652,-18.940053827004846,-1.4799126682872608,-19.269450879022582,-1.2020207591899563,-19.57955277162265,-0.923021241158299,-19.871009604617804,-0.6434245952652926,-20.144484290868203,-0.36372534745332175,-20.400649425222525,-0.08440082871993226,-20.64018415345914,0.1940900646964412,-20.863771041227213,0.4713081111307025,-21.072092942987823,0.7468350033053497,-21.265829870955127,1.0202745881447264,-21.44565586403746,1.2912541065892587,-21.61223585677849,1.5594254334097082,-21.766222548298323,1.8244663170214253,-21.908253271234653,2.0860816192985876,-19.56077673969735,6.465499450909212,-19.310556810875642,6.441274709951511,-19.049943159996136,6.416906276612655,-18.778582306585726,6.392505571153136,-18.496117691208955,6.3681904791952695,-18.20219105518493,6.344084624292264,-17.89644382030437,6.320316640497287,-17.578518468546484,6.297019444932543,-17.248059921796038,6.27432951035833,-16.90471692156025,6.252386137742118,-16.54814340868579,6.231330728827615,-16.177999903075772,6.211306058703835,-15.793954883406688,6.19245554837417,-15.39568616684539,6.174922537325457,-14.982882288766085,6.158849556097045,-14.555322563491853,6.143898940729473,-14.112354322200883,6.129860541355615,-13.653076737633572,6.1170550080193395,-13.176657479781039,6.105785850269546,-12.682335349821862,6.096338212076631,-12.169422811272412,6.088977675117045,-11.637308408048877,6.083949095857438,-11.085459059139119,6.081475481869884,-10.51342221958241,6.081756912809648,-9.920827897455236,6.084969511487008,-9.307390516561313,6.091264470464587,-8.672910614523726,6.100767139611703,-8.017276365977612,6.113576180047205,-7.340464920561185,6.129762789902296,-6.642543545403505,6.149370007334801,-5.923670561806855,6.1724120962264015,-5.1840960658220165,6.198874019994276,-4.424162422414449,6.228711008948679,-3.6443045229195743,6.261848226627896,-2.845049795485181,6.2981805405421,-2.027017958199181,6.337572402757564,-1.1909205046006726,6.379857845752726,-0.33755991127261886,6.424840598977588,0.5321714427859394,6.472294331547948,1.4172926553098542,6.521963026505915,2.3167359887420558,6.573561492078228,3.229348877333721,6.626776015363843,4.153896263672409,6.681265163882278,5.089063274939951,6.7366607404141945,6.033458249202085,6.792568896565712,6.985616122031652,6.848571410487924,7.9440021837672425,6.9042271341831185,8.907016217709234,6.959073615829167,9.87299702955504,7.012628902553581,10.840227378375506,7.064393529088711,11.806939319434312,7.113852697739588,12.77131996915227,7.1604786550958694,13.731517702518426,7.203733270919382,14.685648793249834,7.243070824638765,15.631804507001867,7.277941004882665,16.568058657931026,7.307792127482994,17.492475638912037,7.332074577379716,18.403118935711184,7.350244479858666,19.298060135417767,7.36176760655386,20.175388439435547,7.36612352164581,21.033220691336048,7.362809973687301,21.86971192987567,7.351347538488133,22.68306647747844,7.331284518490303,23.47154957448628,7.302202104065116,24.23349956947875,7.263719802163704,24.919933467841627,7.236564937367993,25.588348947993502,7.202425080550788,26.237565843588868,7.160964511874538,26.866388195087993,7.111847630401347,27.4736047358874,7.054739279695433,28.057989378450362,6.989305073425579,28.618301700437467,6.915211720967595,29.153287430837054,6.832127353006763,29.661678936095775,6.739721847140297,30.142195706249076,6.637667153479795,30.593544841051735,6.525637620253694,31.01442153610833,6.403310319409726,31.403509569003766,6.270365372217367,31.75948178543379,6.1264862748703,32.08100058533551,5.97136022408886" fill="white" stroke="white" stroke-width="0" stroke-linejoin="round" filter="url(#fuzzy)"></polyline></g><g transform="translate(41.88842865378099 -22.93001733695135)"><polyline id="rightUpper" points="-33.237818788560176,7.031632419217223,-33.31502252802595,6.910901644181827,-33.33763158703218,6.778498543496949,-33.307203698537414,6.634381822062575,-33.225301217571335,6.478557435079231,-33.09349022687223,6.311077086529816,-32.91333964252458,6.132036727661451,-32.686420319596515,5.941575055467315,-32.41430415777742,5.739872011168482,-32.0985632070154,5.52714727869577,-31.74076877315484,5.303658783171576,-31.3424905235739,5.069701189391715,-30.9052955928221,4.825604400307263,-30.43074768825778,4.5717320555063985,-29.92040619568568,4.3084800296962396,-29.37582528499444,4.036274931184689,-28.798553015794127,3.7555726003622683,-28.190130443053768,3.4668566081839636,-27.55209072273889,3.1706367546510617,-26.885958217449016,2.8674475672929987,-26.193247602055223,2.557846799649189,-25.47546296933765,2.2424139297508745,-24.734096935623036,1.9217486586029588,-23.970629746422254,1.5964694086658557,-23.1865283820678,1.2672118223373188,-22.38324566335137,0.93462726043429,-21.492173424081138,0.5843766943241135,-20.571201777304466,0.22285721704499295,-19.622568067593253,-0.14844633959305398,-18.648610188361296,-0.527940956784736,-17.65174809159017,-0.9139457796842834,-16.63446620352585,-1.3047113690621153,-15.599296728542848,-1.6984378770998614,-14.548803823372861,-2.093292170760277,-13.485568623894698,-2.487423926168521,-12.412175106682424,-2.87898071744136,-11.331196767508526,-3.2661221234007396,-10.245184098999069,-3.64703287560833,-9.156652849637615,-4.019935071157425,-8.068073046314844,-4.383099473658849,-6.981858762620697,-4.73485592585725,-5.900358615075974,-5.073602897314387,-4.8258469695001995,-5.397816190595858,-3.760515839712671,-5.706056829397815,-2.7064674607635126,-5.9969781520501595,-1.6657075188916846,-6.269332133832741,-0.6401390204067159,-6.521974961541028,0.36844321830886173,-6.753871883737846,1.3583574774795988,-6.964101360127575,2.32803945510277,-7.151858533489424,3.276046020402836,-7.316458047606261,4.2010584173776415,-7.457336234625425,5.101884936239733,-7.574052695288163,5.9774630705557055,-7.666291295464138,6.826861177886839,-7.73386060242747,7.649279661734104,-7.776693784310922,8.444051692590682,-7.794847996174653,9.210643485905058,-7.788503276126082,9.948654154757984,-7.757960974927403,10.657815155056218,-7.703641742527186,11.337989341046383,-7.626083094952655,11.989169648951846,-7.5259365849990925,12.611477426536032,-7.403964600152904,13.205160426395013,-7.261036811184875,13.770590480782657,-7.098126294850067,14.308260875771493,-6.916305354130955,14.818783442552286,-6.716741059460189,15.302885383675568,-6.50069053435964,15.76140585203825,-6.2694960089321015,16.195292300418295,-6.024579664642275,16.60559661936084,-5.767438293823439,16.993471081218622,-5.49963779734639,17.360164108150016,-5.2228075438871375,17.7070158818778,-4.938634614229885,18.035453813011607,-4.648857954041722,18.346987887737498,-4.355262458555691,18.641744408136894,-4.056384058162152,18.919193483982532,-3.750103120990598,19.179927487672806,-3.437248951048776,19.424547002349506,-3.1186441588677347,19.653658437550227,-2.795101522683531,19.867871644860827,-2.46742084961895,20.067797533567884,-2.136385836865287,20.254045686311173,-1.8027609328640324,20.427221974736057,-1.4672881984886406,20.58792617514601,-1.1306841682262494,20.736749584155028,-0.793636711359424,20.874272634340073,-0.4568018931478761,21.001062509893565,-0.12080083601021308,21.117670762275793,0.21378341929432665,21.224630925867416,0.546409052484151,21.322456133621856,0.8765786025735638,21.41163673271779,1.203842106691047,21.492637900211598,1.5278002388975072,21.565897258689795,1.8481074490045577,21.63182249192151,2.1644751013927808,21.690788960510957,2.476674613829978,21.743137317549788,2.7845405962894514,21.78917112426968,3.087973989768262,21.829154465694685,3.386945205105498" fill="none" stroke="black" stroke-width="1.6666666666666665" stroke-linejoin="round" filter="url(#fuzzy)"></polyline><polyline id="rightLower" points="-33.070521766154506,6.472973921222623,-33.24746875526507,6.608045352274433,-33.37232696192241,6.737442117963463,-33.44674631248296,6.861091662006466,-33.47236024192011,6.978936215041408,-33.450785435809905,7.090932383159503,-33.38362157231666,7.197050736437257,-33.27245106417861,7.29727539746851,-33.11883880069362,7.391603629896479,-32.92433188970476,7.480045426945801,-32.69045939958605,7.562623099954572,-32.418732101228045,7.639370866906393,-32.110642210023535,7.710334440962411,-31.767663127853204,7.775570618993357,-31.39124918507124,7.835146870111596,-30.982835382491068,7.889140924203164,-30.543837133370914,7.9376403604598105,-30.075650005399538,7.980742195911042,-29.57964946268187,8.018552473956165,-29.057190607724635,8.051185852896324,-28.509607923422067,8.078765194466554,-27.938215015041514,8.101421152367804,-27.344304352209107,8.119291760799001,-26.729147010895463,8.132522022989077,-26.093992415401267,8.141263499729018,-25.440068080342982,8.145673897903903,-24.70637765979567,8.164966031923617,-23.946448047145523,8.177378637586386,-23.161934378083735,8.183106087280589,-22.354547810456495,8.182384889854474,-21.526045300036387,8.175488656377958,-20.67821983778228,8.162723303152582,-19.812891140240346,8.144422487203675,-18.93189678473874,8.120943269488869,-18.037083781028386,8.092662001056983,-17.130300571022584,8.059970427391411,-16.21338944828784,8.023272006172071,-15.28817938893857,7.982978433690001,-14.356479285588167,7.939506375148706,-13.420071576008993,7.893274394086309,-12.480706258153853,7.84470007615262,-11.540095283191498,7.794197342475185,-10.599907318208695,7.74217394784841,-9.661762870231444,7.689029158979842,-8.727229763217824,7.635151608027695,-7.797818959675109,7.5809173166636885,-6.874980718553604,7.52668788589531,-5.960101081069837,7.472808846881557,-5.054498676111595,7.419608167976266,-4.159421836877385,7.367394913233097,-3.2760460204028368,7.316458047606262,-2.405471521626657,7.2670653840810875,-1.5487214736485928,7.219462667968483,-0.7067401258320523,7.1738727935974165,0.11960860859617384,7.130495148639459,0.9295423437964185,7.089505081299503,1.7223611597644677,7.051053485606728,2.497448296325002,7.015266500039898,3.254270611017782,6.982245314721075,3.9923788092238475,6.9520660824118385,4.7114074548793425,6.924779928546087,5.411074770124278,6.900413055533509,6.091182232233825,6.878966936567805,6.7516139761794225,6.860418594173756,7.39233601116735,6.8447209587271995,8.013395259502024,6.831803302182029,8.614918426121603,6.821571742238262,9.197110707153284,6.813909812185298,9.760254345835792,6.808679091654433,10.304707044156421,6.805719893514702,10.830900238550276,6.804852002146164,11.33933724800883,6.805875458324688,11.830591302945686,6.808571385952332,12.3053034631666,6.812702855867407,12.76418043329137,6.818015781968294,13.207992283975228,6.82423984488511,13.63749447817313,6.831544045750229,14.053061051085232,6.840207938805992,14.454944764693542,6.850114136498699,14.843409112240463,6.861144043465886,15.218727200266505,6.873178494828644,15.581180630648023,6.886098394483929,15.931058382634985,6.899785353396881,16.2686556948887,6.914122327893138,16.594272947519528,6.928994257951156,16.908214544124682,6.944288705494517,17.210787793825908,6.959896492684253,17.502301793307275,6.975712340211155,17.783066308852888,6.9916355055880945,18.053390658384608,7.007570421442335,18.31358259349986,7.023427333807848,18.56394718150932,7.039122940417632,18.80478568747464,7.054581028996025,19.03639445624627,7.0697331155510215,19.259063794501103,7.084519082666588,19.473076852780274,7.098887817794979,19.678708507526892,7.112797851549052,19.876224243123772,7.126217995994587,20.065879033931168,7.139127982942592,20.24791622632455,7.151519102241633" fill="none" stroke="black" stroke-width="2.2222222222222223" stroke-linejoin="round" filter="url(#fuzzy)"></polyline><!--[--><circle r="4.945872637259248" cx="-9.037082724758871" cy="4.765973997631484" stroke="black" fill="none" stroke-width="1" filter="url(#fuzzy)" clip-path="url(#rightEyeClipPath)"></circle><circle r="4.419243854088221" cx="-8.144520199604846" cy="3.1713305359498856" stroke="black" fill="none" stroke-width="1" filter="url(#fuzzy)" clip-path="url(#rightEyeClipPath)"></circle><circle r="3.809544459318267" cx="-8.372933135296494" cy="6.411014980891476" stroke="black" fill="none" stroke-width="1" filter="url(#fuzzy)" clip-path="url(#rightEyeClipPath)"></circle><circle r="3.2138219321390733" cx="-10.048450317602754" cy="3.5309038419869854" stroke="black" fill="none" stroke-width="1" filter="url(#fuzzy)" clip-path="url(#rightEyeClipPath)"></circle><circle r="3.0685884163802255" cx="-10.267155614317971" cy="3.4186473897817526" stroke="black" fill="none" stroke-width="1" filter="url(#fuzzy)" clip-path="url(#rightEyeClipPath)"></circle><circle r="4.899032352331258" cx="-10.069631561784849" cy="3.1912593836762078" stroke="black" fill="none" stroke-width="1" filter="url(#fuzzy)" clip-path="url(#rightEyeClipPath)"></circle><circle r="4.8410801891844315" cx="-11.196826966325691" cy="3.55242063084875" stroke="black" fill="none" stroke-width="1" filter="url(#fuzzy)" clip-path="url(#rightEyeClipPath)"></circle><circle r="4.3327917872213035" cx="-8.820457374673463" cy="5.878336180736822" stroke="black" fill="none" stroke-width="1" filter="url(#fuzzy)" clip-path="url(#rightEyeClipPath)"></circle><circle r="3.9096289132351068" cx="-10.821466718934397" cy="3.2958316032652313" stroke="black" fill="none" stroke-width="1" filter="url(#fuzzy)" clip-path="url(#rightEyeClipPath)"></circle><circle r="3.5931087273493243" cx="-9.153439729932394" cy="5.652156851002063" stroke="black" fill="none" stroke-width="1" filter="url(#fuzzy)" clip-path="url(#rightEyeClipPath)"></circle><!--]--></g><g transform="translate(-35.37841265232981 -23.955640862975706)"><polyline id="leftUpper" points="32.372856025326286,5.794730301875908,32.55349811959732,5.645534741748055,32.68562350787227,5.477143261079464,32.76980673055044,5.290912873746711,32.80667617382452,5.088167126106011,32.7969121700478,4.87019638338942,32.74124509810132,4.638258116101054,32.64045348376111,4.393577186413292,32.495362100065385,4.137346134562989,32.306840067681705,3.8707254652476815,32.07579895527418,3.5948439340217977,31.803190879870687,3.3107988336928704,31.490006607230054,3.01965628071774,31.137273652209235,2.722451501598771,30.746054379130523,2.4201891192800566,30.31744410214876,2.113843439543629,29.852569185618485,1.8043587374056695,29.35258514446118,1.4926495435127132,28.81867474453243,1.1796009305378679,28.252046102989127,0.8660687995770147,27.65393078865668,0.5528801665450196,27.02558192239617,0.24083344857194788,26.368272277471604,-0.06930124960073591,25.683292379917056,-0.3767818492239545,24.97194860890388,-0.6808940111447974,24.23556129710791,-0.9809508494103412,23.470804963981692,-1.369688356438667,22.664658646861156,-1.7525824217640658,21.819074904824657,-2.1281816309171635,20.93621249481669,-2.4950965083492687,20.01840963398591,-2.8520031195550093,19.068158479249355,-3.197646303359795,18.088080800704166,-3.530842543629431,17.08090482550829,-3.8504824896591554,16.0494432288516,-4.155533134499343,14.996572248638852,-4.4450396604752225,13.92521190050582,-4.7181269611577985,12.838307269790247,-4.974000849043364,11.738810857078807,-5.211948958198766,10.62966595395162,-5.431341351129829,9.513791025545757,-5.6316308391300876,8.394065076559126,-5.8123530253672175,7.273313977316162,-5.973126079964377,6.154297726516798,-6.113650256333761,5.039698627290067,-6.233707158019673,3.9321103531738206,-6.333158765308324,2.8340278806420125,-6.411946230861702,1.7478382648008548,-6.4700884536328065,0.6758122348754441,-6.507680440319442,-0.3799034138918742,-6.524891463613907,-1.4172926553098542,-6.521963026505915,-2.4344763176520736,-6.4992066418958725,-3.4297174427945336,-6.457001436775952,-4.401425942455774,-6.395791590236154,-5.348162574918032,-6.316083614552671,-6.268642265608008,-6.218443488615785,-7.161736794915878,-6.1034936529546435,-8.026476876631023,-5.97190987561617,-8.86205365037317,-5.8244179981553525,-9.667819611397398,-5.6617905709942296,-10.443289001151683,-5.484843387406887,-11.188137681965443,-5.294431925387599,-11.902202519247815,-5.091447706659617,-12.585480294574065,-4.876814582081682,-13.238126173038818,-4.651484952709659,-13.860451748254647,-4.4164359357705205,-14.452922688374564,-4.172665484805979,-15.016156006517065,-3.921188473243042,-15.55091697897219,-3.6630327506488083,-16.058115734567284,-3.3992351809266683,-16.53880353857097,-3.130837671711367,-16.994168794513868,-2.8588832042200227,-17.425532787304757,-2.5844118728165384,-17.834345191020645,-2.308456943546558,-18.222179364749294,-2.032040940900357,-18.59072745986297,-1.7561717720608652,-18.940053827004846,-1.4799126682872608,-19.269450879022582,-1.2020207591899563,-19.57955277162265,-0.923021241158299,-19.871009604617804,-0.6434245952652926,-20.144484290868203,-0.36372534745332175,-20.400649425222525,-0.08440082871993226,-20.64018415345914,0.1940900646964412,-20.863771041227213,0.4713081111307025,-21.072092942987823,0.7468350033053497,-21.265829870955127,1.0202745881447264,-21.44565586403746,1.2912541065892587,-21.61223585677849,1.5594254334097082,-21.766222548298323,1.8244663170214253,-21.908253271234653,2.0860816192985876,-22.03894686068388,2.344004555388449,-22.158900523142243,2.597997933525588,-22.26868670544699,2.8478553948461602,-22.368849963717423,3.0934026532021326,-22.459903832296128,3.334498734975546,-22.542327692689987,3.571037218892756,-22.61656364251145,3.8029474758386748,-22.683013364419537,4.0301959086710255,-22.74203499506109,4.252787192034589,-22.793939994011744,4.470765512175447" fill="none" stroke="black" stroke-width="2.2222222222222223" stroke-linejoin="round" filter="url(#fuzzy)"></polyline><polyline id="leftLower" points="33.100483177297036,3.735998288530946,33.199017029728466,4.019751132418345,33.24925389698845,4.28940415158079,33.25260909954845,4.545215235896393,33.210492373426376,4.787449231794465,33.12430738405607,5.016377616653063,32.99545124015676,5.232278173196535,32.825314007602614,5.435434663893066,32.61527822329217,5.626136505352223,32.366718409017864,5.804678442722498,32.08100058533551,5.97136022408886,31.75948178543379,6.1264862748703,31.403509569003766,6.270365372217367,31.01442153610833,6.403310319409726,30.593544841051735,6.525637620253694,30.142195706249076,6.637667153479795,29.661678936095775,6.739721847140297,29.153287430837054,6.832127353006763,28.618301700437467,6.915211720967595,28.057989378450362,6.989305073425579,27.4736047358874,7.054739279695433,26.866388195087993,7.111847630401347,26.237565843588868,7.160964511874538,25.588348947993502,7.202425080550788,24.919933467841627,7.236564937367993,24.23349956947875,7.263719802163704,23.47154957448628,7.302202104065116,22.68306647747844,7.331284518490303,21.86971192987567,7.351347538488133,21.033220691336048,7.362809973687301,20.175388439435547,7.36612352164581,19.298060135417767,7.36176760655386,18.403118935711184,7.350244479858666,17.492475638912037,7.332074577379716,16.568058657931026,7.307792127482994,15.631804507001867,7.277941004882665,14.685648793249834,7.243070824638765,13.731517702518426,7.203733270919382,12.77131996915227,7.1604786550958694,11.806939319434312,7.113852697739588,10.840227378375506,7.064393529088711,9.87299702955504,7.012628902553581,8.907016217709234,6.959073615829167,7.9440021837672425,6.9042271341831185,6.985616122031652,6.848571410487924,6.033458249202085,6.792568896565712,5.089063274939951,6.7366607404141945,4.153896263672409,6.681265163882278,3.229348877333721,6.626776015363843,2.3167359887420558,6.573561492078228,1.4172926553098542,6.521963026505915,0.5321714427859394,6.472294331547948,-0.33755991127261886,6.424840598977588,-1.1909205046006726,6.379857845752726,-2.027017958199181,6.337572402757564,-2.845049795485181,6.2981805405421,-3.6443045229195743,6.261848226627896,-4.424162422414449,6.228711008948679,-5.1840960658220165,6.198874019994276,-5.923670561806855,6.1724120962264015,-6.642543545403505,6.149370007334801,-7.340464920561185,6.129762789902296,-8.017276365977612,6.113576180047205,-8.672910614523726,6.100767139611703,-9.307390516561313,6.091264470464587,-9.920827897455236,6.084969511487008,-10.51342221958241,6.081756912809648,-11.085459059139119,6.081475481869884,-11.637308408048877,6.083949095857438,-12.169422811272412,6.088977675117045,-12.682335349821862,6.096338212076631,-13.176657479781039,6.105785850269546,-13.653076737633572,6.1170550080193395,-14.112354322200883,6.129860541355615,-14.555322563491853,6.143898940729473,-14.982882288766085,6.158849556097045,-15.39568616684539,6.174922537325457,-15.793954883406688,6.19245554837417,-16.177999903075772,6.211306058703835,-16.54814340868579,6.231330728827615,-16.90471692156025,6.252386137742118,-17.248059921796038,6.27432951035833,-17.578518468546484,6.297019444932543,-17.89644382030437,6.320316640497287,-18.20219105518493,6.344084624292264,-18.496117691208955,6.3681904791952695,-18.778582306585726,6.392505571153136,-19.049943159996136,6.416906276612655,-19.310556810875642,6.441274709951511,-19.56077673969735,6.465499450909212,-19.800951968255013,6.489476272018021,-20.031425679946075,6.513108866033887,-20.25253384005469,6.536309573367373,-20.46460381603476,6.559000109514593,-20.667952997792966,6.581112292488136,-20.86288741797178,6.602588770248002,-21.04970037223251,6.62338374813253,-21.22867103953833,6.64346371628933,-21.400063102437304,6.662808177106215,-21.564123367345424,6.681410372642129" fill="none" stroke="black" stroke-width="2.2222222222222223" stroke-linejoin="round" filter="url(#fuzzy)"></polyline><!--[--><circle r="3.84635445489461" cx="-14.37711272317758" cy="4.151450298049033" stroke="black" fill="none" stroke-width="1" filter="url(#fuzzy)" clip-path="url(#leftEyeClipPath)"></circle><circle r="3.726688743617863" cx="-13.165059167043264" cy="3.593320234803125" stroke="black" fill="none" stroke-width="1" filter="url(#fuzzy)" clip-path="url(#leftEyeClipPath)"></circle><circle r="4.287208644307625" cx="-18.094375198023407" cy="3.8806023002505166" stroke="black" fill="none" stroke-width="1" filter="url(#fuzzy)" clip-path="url(#leftEyeClipPath)"></circle><circle r="4.21872048083762" cx="-16.951206790020372" cy="1.5982813315980255" stroke="black" fill="none" stroke-width="1" filter="url(#fuzzy)" clip-path="url(#leftEyeClipPath)"></circle><circle r="4.008257941939533" cx="-13.951698198541745" cy="3.0861628200335236" stroke="black" fill="none" stroke-width="1" filter="url(#fuzzy)" clip-path="url(#leftEyeClipPath)"></circle><circle r="3.4258081258825848" cx="-16.419647639880765" cy="2.8918395098721845" stroke="black" fill="none" stroke-width="1" filter="url(#fuzzy)" clip-path="url(#leftEyeClipPath)"></circle><circle r="4.755370920140668" cx="-15.403045775483125" cy="2.0408943990042303" stroke="black" fill="none" stroke-width="1" filter="url(#fuzzy)" clip-path="url(#leftEyeClipPath)"></circle><circle r="3.3265102328700964" cx="-13.15077803032634" cy="3.2846811320549874" stroke="black" fill="none" stroke-width="1" filter="url(#fuzzy)" clip-path="url(#leftEyeClipPath)"></circle><circle r="4.118371306684509" cx="-15.312134110777988" cy="2.997576709391913" stroke="black" fill="none" stroke-width="1" filter="url(#fuzzy)" clip-path="url(#leftEyeClipPath)"></circle><circle r="3.3213084057383635" cx="-15.271407097574125" cy="0.3530689066899506" stroke="black" fill="none" stroke-width="1" filter="url(#fuzzy)" clip-path="url(#leftEyeClipPath)"></circle><!--]--></g><g id="hairs"><!--[--><polyline points="33,-66,33.82806884071662,-65.49311837051164,35.15539304958468,-64.76500335016553,36.31134632015878,-64.16726162351198,37.22921862691063,-63.65645587636542,37.97700489312994,-63.16437797487,38.619704155910625,-62.67079863642739,39.18478198430043,-62.1907181849043,39.659190768039366,-61.75458492418166,40.00342684740056,-61.39724615301947,40.17293947781733,-61.15128694925937,40.13449981416959,-61.041790617721375,39.86955028896918,-61.08500828825909,39.36468496056417,-61.29354198971305,38.59540508560907,-61.68579846713742,37.512700212472396,-62.29246109157703,36.0449203666181,-63.15130984186714,34.1267708820416,-64.28603471397588,31.7534598104409,-65.67617572673387,29.026090796035746,-67.24416027566349,26.115557380625326,-68.92212721174202" fill="none" stroke="rgb(185, 55, 55)" stroke-width="2" stroke-linejoin="round" filter="url(#fuzzy)"></polyline><polyline points="59,-37,59.529992777638206,-36.211769476608794,59.53259819429533,-35.75730816896307,59.133658060116296,-35.48759797747463,58.3121615738167,-35.34027963931467,57.02547191063263,-35.36054573102433,55.24986069640724,-35.60746884628629,52.98833024842326,-36.11278272892766,50.25672308895981,-36.89308218268049,47.06552523472277,-37.96670422235055,43.40855550765991,-39.35248422622681,39.25981388913162,-41.061432555435644,34.578552376912256,-43.09677049905909,29.324544349192102,-45.460981391227655,23.477891586255446,-48.158733657903326,17.041219215567935,-51.19308348543086,9.999277867777705,-54.5626668466035,2.2516241387884683,-58.26131022630403,-6.382215714185039,-62.27218108216369,-15.945065479460482,-66.56066121636745" fill="none" stroke="rgb(185, 55, 55)" stroke-width="2" stroke-linejoin="round" filter="url(#fuzzy)"></polyline><polyline points="16,-73,17.02684135888891,-72.52938362590022,17.385963847950357,-72.24806391453366,17.4565353100295,-71.82726990977052,17.153158016125865,-71.32435664987912,16.36016105728945,-70.80951895361875,15.00386108138666,-70.29204885312171,13.056309455686165,-69.73844876130082,10.512910415518144,-69.10163752735409,7.354850908026245,-68.34607603391834,3.5218475636071602,-67.4646850168193,-1.0807521230745252,-66.47866134274119,-6.539524809449873,-65.41670929764939,-12.88268299382217,-64.28616554880607,-20.06437578710211,-63.060658852015116,-28.01915970973703,-61.69846811354902,-36.81686731573144,-60.13683803637877" fill="none" stroke="rgb(185, 55, 55)" stroke-width="2" stroke-linejoin="round" filter="url(#fuzzy)"></polyline><polyline points="-15,-74,-13.867598275436574,-74.18187842023038,-12.698310882975033,-74.3505689036789,-11.582649536922446,-74.43464907254952,-10.621877662890368,-74.45653115081684,-9.8977107109183,-74.40627047559839,-9.411136673069226,-74.26834119806884,-9.1279344044439,-74.0356269162984,-9.033600843952954,-73.70691342372089,-9.14676879029267,-73.28197857335782,-9.504508254150025,-72.75942745520433,-10.146739850677111,-72.13664744978111,-11.109878987073898,-71.41047814488411,-12.424075185552786,-70.57771746196842,-14.108098276413793,-69.63440835826354,-16.165075597050905,-68.57269531115642,-18.587005060776118,-67.37581875861443,-21.368937154669812,-66.01582399674294,-24.521501038936528,-64.46106651451561,-28.068134838453727,-62.695089770222744,-32.02890475259471,-60.733623705093606,-36.412532235711744,-58.61753814369345,-41.23028169678545,-56.38618692410572,-46.4873782372464,-54.10056057198716" fill="none" stroke="rgb(185, 55, 55)" stroke-width="2" stroke-linejoin="round" filter="url(#fuzzy)"></polyline><polyline points="37,-64,38.1327086499013,-63.258184613056365,38.788197768678224,-62.60659789610301,39.46431690577324,-61.98316604226146,40.15737145120511,-61.40244376601186,40.75314002852879,-60.89331176747024,41.142851289261195,-60.50566471530682,41.25976576073769,-60.28502632299157,41.076393127441406,-60.25984191894531,40.584959502995986,-60.451744460723816,39.77653459604817,-60.88620911662269,38.61980927243212,-61.591546696115856,37.03925456217257,-62.59802477166522,34.90727009480877,-63.95163860174633,32.076136465705744,-65.73575810848745,28.45680789555412,-68.06689060316221" fill="none" stroke="rgb(185, 55, 55)" stroke-width="2" stroke-linejoin="round" filter="url(#fuzzy)"></polyline><polyline points="45,-57,45.954342843896356,-56.10628964370115,46.84238694492346,-55.40700445011487,47.59331544945918,-54.80645102046101,48.2121068439196,-54.20470713007784,48.73754286665981,-53.5931616225359,49.21413978529502,-53.0015093428199,49.66541549659638,-52.460222825823955,50.073692489826755,-52.00166274247102,50.38358497619629,-51.66484451293945,50.52772170442976,-51.48822433587315,50.454162239238265,-51.50421824029266,50.13628889840844,-51.74768184670447,49.561691731681435,-52.26750354279726,48.71074290689435,-53.11901127485032,47.54386781659859,-54.332217650378226,46.02362406711634,-55.88264320227219,44.17603899158334,-57.7218166927149" fill="none" stroke="rgb(185, 55, 55)" stroke-width="2" stroke-linejoin="round" filter="url(#fuzzy)"></polyline><polyline points="40,-62,41.407245023835024,-60.52448128981802,42.083944498629705,-59.6650808737621,42.31772025171103,-59.077079796896435,42.19991839394148,-58.595400173086254,41.73616446433593,-58.20242480861295,40.90856784626159,-57.93700026165519,39.68895831642985,-57.830258006123216,38.04469538720748,-57.88326982155817,35.949641518343356,-58.07490465111116,33.393972489965975,-58.379470114012754,30.382362136643437,-58.77939423616961,26.91699997584357,-59.26959114136306,22.97627006397974,-59.856409568988234,18.510893744626834,-60.55315586580835,13.471253814636679,-61.37291454176301,7.84854005486725,-62.32277179118795,1.6817079646595765,-63.40707929478747,-5.00437630990705,-64.64302273084746,-12.282377696826405,-66.08206350253172,-20.284185045160495,-67.82711631704338" fill="none" stroke="rgb(185, 55, 55)" stroke-width="2" stroke-linejoin="round" filter="url(#fuzzy)"></polyline><polyline points="-25,-71,-25.124705736650004,-71.26760826730239,-24.049832921520956,-71.73064854957319,-22.44396918840805,-72.20236022365489,-20.779243112242792,-72.63623216025546,-19.225203167858403,-73.02475440760094,-17.768821765765598,-73.36961869032304,-16.378938154404985,-73.66743191940563,-15.079112202469526,-73.91187596709207,-13.924342895773274,-74.10328849606691,-12.94937902367738,-74.2523519770881,-12.150614638501954,-74.37346308146633,-11.515425480886693,-74.47392261648189,-11.066781554471696,-74.54872264680468,-10.878876008337425,-74.58539845227126,-11.04891543009684,-74.57252154638749,-11.654698311943417,-74.4996212343574,-12.73088680043934,-74.35314652825244,-14.232445721400275,-74.15053436627335" fill="none" stroke="rgb(185, 55, 55)" stroke-width="2" stroke-linejoin="round" filter="url(#fuzzy)"></polyline><polyline points="26,-70,27.196805184939638,-69.14663020903957,28.03260909224612,-68.59998981782712,28.27430801237521,-68.2828263787369,28.05500389386884,-68.03322661161768,27.49005375250075,-67.76014741085757,26.627172950092376,-67.45682478315499,25.45394834842119,-67.15612425244521,23.91008825186656,-66.89284492595112,21.906733833990277,-66.68973542122025,19.35748136538484,-66.55602202775351,16.207834063977153,-66.48904408528831,12.441965511160154,-66.47977740048282,8.062460548826786,-66.52317188708932,3.0641325604232854,-66.62567576592691,-2.5711142274368335,-66.79964116642617,-8.853427750752664,-67.04803252218262,-15.765638635527779,-67.36242024831328,-23.32250102324526,-67.73281579955224" fill="none" stroke="rgb(185, 55, 55)" stroke-width="2" stroke-linejoin="round" filter="url(#fuzzy)"></polyline><polyline points="55,-46,55.49443482597442,-45.34740649237924,55.43245933551945,-44.82764890860601,55.090594954882484,-44.230649530885536,54.479318422295336,-43.65254833413047,53.50759121136332,-43.22967806767556,52.10303940301641,-43.04375447051515,50.24605057602284,-43.12300070791409,47.94643213692243,-43.4705286561136,45.21097972664355,-44.08204261197814,42.02964995347162,-44.94770217867477,38.37860387801353,-46.04975460899496,34.2254852791373,-47.36617662617792,29.530449332563027,-48.88068888851345,24.251518163291607,-50.59148681272306,18.36462780622576,-52.510647805598204,11.888402527007564,-54.654551575977464,4.877817241309337,-57.0381904891113,-2.640525021205484,-59.68999334455445,-10.743713598138276,-62.68183102324327,-19.552375535199637,-66.1201916538909" fill="none" stroke="rgb(185, 55, 55)" stroke-width="2" stroke-linejoin="round" filter="url(#fuzzy)"></polyline><polyline points="30,-68,31.43771722938614,-66.73481099865444,32.27967919557704,-66.07439146160658,32.85336726031274,-65.53023677837008,33.156682764047,-65.02816268730017,33.09076479706085,-64.58173178632738,32.60030169969501,-64.18193884115202,31.68958743079676,-63.80204873769334,30.390428490568745,-63.420908619814114,28.728507863537168,-63.0327185117241,26.70575777954086,-62.645280399674746,24.30072547902124,-62.27389930833104,21.480042438492433,-61.9344532519784,18.211015085642416,-61.638091147118644,14.468415783719134,-61.39063214265387,10.234264317984259,-61.197027720205014,5.49292357720363,-61.065412238951694,0.2242246651694657,-61.00289966673626,-5.602317087322454,-61.00204218373069,-12.027489407765177,-61.030001888027535,-19.09263828509281,-61.04099828393623,-26.819172186555782,-61.022038214467116,-35.16819461637984,-61.029040755321574" fill="none" stroke="rgb(185, 55, 55)" stroke-width="2" stroke-linejoin="round" filter="url(#fuzzy)"></polyline><polyline points="9,-74,10.181416763143472,-73.99809888737555,11.323142589668121,-73.9671031724349,12.15750308468038,-73.86609714837573,12.764883054554993,-73.69768950848425,13.274590447669757,-73.50141588880787,13.732007058304852,-73.31696127136783,14.097613326831155,-73.16322331164444,14.295725352540686,-73.03895193135372,14.252318669915377,-72.93544043433016,13.905673410008951,-72.85122768660324,13.201842286973422,-72.7998287733813,12.089374944084431,-72.80527363771756,10.519011269701004,-72.88862151598994,8.451089084615187,-73.05567344803362,5.875922501357909,-73.29493745772227,2.844109395564738,-73.5884008010121,-0.5329709055375327,-73.93454573023713,-4.240750876657561,-74.37696597722444" fill="none" stroke="rgb(185, 55, 55)" stroke-width="2" stroke-linejoin="round" filter="url(#fuzzy)"></polyline><polyline points="39,-63,38.86481383172014,-62.56009823722942,39.416173789186566,-61.93665441732274,40.08380194627193,-61.33567891721802,40.67099856009319,-60.76576120275891,41.08485321634516,-60.25782322721474,41.286472201278734,-59.83689377064649,41.26109122483913,-59.51681832584335,40.99361472898684,-59.313369258923984,40.457159925568135,-59.24794827018846,39.616085279014015,-59.3395425789212,38.4389239504066,-59.59581535081213,36.91256871430309,-60.01130684171615,35.04817377807916,-60.57270546086439,32.87273583780756,-61.26685125332321,30.40732713832594,-62.08797118998446,27.641187122715422,-63.042489607677325,24.517401037177443,-64.14927639336682,20.946360724779538,-65.43282392105424,16.851399353730038,-66.91186427445741,12.222379343289912,-68.59438546200657,7.119018103875554,-70.48808597925722,1.6035665835010398,-72.61426417843714" fill="none" stroke="rgb(185, 55, 55)" stroke-width="2" stroke-linejoin="round" filter="url(#fuzzy)"></polyline><polyline points="-12,-74,-9.667857068939483,-74.624625391032,-8.275908870930566,-74.86586039188415,-7.248726375166227,-74.95433787734156,-6.231309330006592,-74.98384460419945,-5.1707037010364365,-74.98939978333834,-4.1403184521544265,-74.98216812162981,-3.2215025192746185,-74.96465584774474,-2.4724466346589815,-74.9368201671656,-1.9362790356518136,-74.89802656170271,-1.6480892189118492,-74.84694744115741,-1.631042370101068,-74.78012197815248,-1.8912512468115845,-74.69005410217905,-2.420856742838887,-74.56473828022207,-3.2092973599228354,-74.39057829270904,-4.257870889876116,-74.1583886972751,-5.594758509987891,-73.86838574380073,-7.286910163120437,-73.52835207427377,-9.434000159494797,-73.14339876955398,-12.119549498049924,-72.70518411107344,-15.317699285774772,-72.19411754300468,-18.83913236984663,-71.5974404887924,-22.525982490715258,-70.91165652748683" fill="none" stroke="rgb(185, 55, 55)" stroke-width="2" stroke-linejoin="round" filter="url(#fuzzy)"></polyline><polyline points="-27,-70,-25.861771856958086,-70.70281816217457,-25.075572170383285,-71.22896392058702,-23.98469913349063,-71.72241415988292,-22.680245489174922,-72.18381889606525,-21.381923425311875,-72.59934197159798,-20.19797729783411,-72.96306403954378,-19.133537138071393,-73.27283965386431,-18.171565688275436,-73.52550950585163,-17.318500893999428,-73.71856778422796,-16.5990499355108,-73.85389282595361,-16.032144862016388,-73.93792855929424,-15.619054973125458,-73.97766000032425,-15.352758009118809,-73.97572205074063,-15.238894970283148,-73.92787609804145,-15.31129433695033,-73.82352816759123,-15.627923016944315,-73.648142688728,-16.24469097087958,-73.38670336741072,-17.183395505407315,-73.02838823551701,-18.426109617128372,-72.5721868326014,-19.95875337193465,-72.03118894632247,-21.836787625323243,-71.43119671797488,-24.19535083617737,-70.79412233664524,-27.184860266023044,-70.07616041131406" fill="none" stroke="rgb(185, 55, 55)" stroke-width="2" stroke-linejoin="round" filter="url(#fuzzy)"></polyline><polyline points="23,-71,5.601840986975524,-66.79519848741421,-12.133185940308767,-64.92604155041744,-16.751226668580884,-66.43504317451475,-11.128931423074143,-67.64372549330939,0.6460320636268607,-66.06678794419679,14.605865181544452,-61.447725097385984,26.481818365239253,-55.6533619721004,32.59722214111739,-51.525373776791675,31.604710644580347,-50.93045652724122,25.386389848369642,-53.2373511794313,17.91706258915943,-55.60181754693133,12.541981452632061,-55.29216718140211,10.051148771151945,-52.44373376161283,13.068074583718394,-49.91711506466349,56,-44" fill="none" stroke="rgb(185, 55, 55)" stroke-width="2" stroke-linejoin="round" filter="url(#fuzzy)"></polyline><polyline points="40,-61,28.848852805850242,-59.76940518989987,8.554887894815725,-63.716887165163186,-0.9507774925197398,-65.55788732130024,-2.692153925311139,-65.09752147328331,-1.7403999610169194,-63.533062928132495,0.6466717571936614,-61.78269300527811,4.896913575107856,-60.2673354884907,10.811022215384927,-59.090613257385634,17.46673083109919,-58.19715664373284,23.99202823638916,-57.48905372619629,29.763801997730983,-56.92862277405479,34.04394324533759,-56.57252245327951,35.777174812060075,-56.51596468495586,33.85365288966133,-56.8267787799114,27.595571766353714,-57.498170316082906,17.214610709436943,-58.268011515327366,3.8463100970430024,-58.269222823797044,-12.118001183196597,-56.18460295003311,-33.8891692061687,-52.016062192677424,-54,-50" fill="none" stroke="rgb(185, 55, 55)" stroke-width="2" stroke-linejoin="round" filter="url(#fuzzy)"></polyline><polyline points="30,-68,24.809125126071613,-67.61482785396306,25.157104765647688,-61.549367349120814,22.787252171733673,-56.73238567658467,20.67381680236697,-55.646890563024606,19.902650451798763,-57.71465848565276,18.976742713867413,-61.21717044289972,16.451778318624687,-64.4990520441349,11.976969380554957,-66.56660911434507,6.003285937546007,-67.24047628889355,-0.5307216644287109,-66.97990417480469,-6.24994236124515,-66.48451166879781,-9.622809852311672,-66.21015147188463,-9.63272011194378,-66.00301121638797,-6.214277248320053,-65.108593162215,0.16169702129445795,-62.74683886654384,9.110967120660106,-59.137528195152164,19.355650746105578,-56.25490652632962,25.670526966267253,-56.9540663845537,16.965425459699794,-61.889027410453906,-26,-71" fill="none" stroke="rgb(185, 55, 55)" stroke-width="2" stroke-linejoin="round" filter="url(#fuzzy)"></polyline><polyline points="-31,-69,-26.46556825563558,-59.352103569399794,-5.64989458115004,-57.409146547442084,3.3762604424150093,-58.25039884645085,3.0777675609569997,-60.66645273449831,2.229331712062522,-62.78562369108453,3.856871617008135,-63.756636739005195,4.962060915565165,-63.8235883238102,1.3488006591796875,-63.37199401855469,-8.233981084191806,-62.447492866081724,-21.20784631468617,-61.059483095696336,-33.11685507298868,-59.6190873515646,-40.33958349120803,-58.87995125236921,-41.334413091948804,-59.41530640442888,-35.09163614082134,-61.226661589418185,-16.597789807725636,-64.07728692516048,30,-68" fill="none" stroke="rgb(185, 55, 55)" stroke-width="2" stroke-linejoin="round" filter="url(#fuzzy)"></polyline><polyline points="-54,-50,-0.30370585186120924,-60.47913748923078,11.99022254584504,-62.888170886962605,5.48301282672648,-62.41599929544268,-5.164519560926031,-61.77500364776777,-12.789718672465602,-61.32469097648788,-15.343759654911342,-60.81751069459046,-13.028924701884195,-60.326809783155355,-7.444788445454538,-60.2066855121261,-1.429286927737198,-60.746560733262825,1.9344716786068687,-61.965321440908426,0.8988174047576595,-63.62169042065163,-4.012625331122058,-65.3610774762501,-10.40616228885869,-66.89890807902066,-15.339718803183514,-68.12885624642325,-16.600621018043537,-69.05872367923625,-13.299179230909525,-69.6000047551143,-5.916683943839027,-69.43992906660077,3.296608191337765,-68.29682563712448,8.372012310428147,-66.50431415125317,-3.355026569071466,-64.6956281756537,-47,-58" fill="none" stroke="rgb(185, 55, 55)" stroke-width="2" stroke-linejoin="round" filter="url(#fuzzy)"></polyline><polyline points="-27,-70,13.211413640931921,-64.5938132852262,21.546697900597653,-62.13078800944602,14.64382770524146,-61.87514746430722,7.160387856489232,-60.12756695498602,5.210583499571781,-56.0273809984608,8.74774216559214,-50.8726660700227,14.950287899674521,-46.61022177224143,20.464755969526006,-44.784692722579045,22.852902698690155,-45.996896815304744,21.318941859017794,-49.79141108541693,16.532309795340613,-54.934664010077505,9.83658355474472,-59.97039669752121,2.555590549054808,-63.81521600283162,-4.144140393427844,-66.12183177237647,-9.04760821293069,-67.24594998830472,-10.948162127040902,-67.85778971068524,-9.29233194917245,-68.44274320198289,-5.0436492567079405,-69.02773948560062,-0.9152445073629133,-69.3518582408204,-0.25165887919946317,-69.35597742124536,-4.507269924051902,-69.49965505959436,-10.561426268681007,-70.46882659426439,-12.363132838990737,-72.49378979621551,-18,-74" fill="none" stroke="rgb(185, 55, 55)" stroke-width="2" stroke-linejoin="round" filter="url(#fuzzy)"></polyline><polyline points="63,-28,41.91330785219239,-51.27924454382206,23.421215277474154,-60.20861283877575,4.519928706390866,-64.45565455460851,-8.698514110501458,-65.92203839454811,-13.058326938405624,-65.73422567766868,-9.336813747140646,-64.77328817550676,-0.25532846115640817,-63.348733360895565,11.349321049387,-61.410136083508895,22.98447251539038,-59.120050388022435,32.143070919481346,-57.19696978819582,36.22590191725043,-56.65844880079572,33.12218421548185,-58.10969236423473,22.037803415495013,-61.08511643447088,4.29170728038404,-63.91444491418055,-15.520097548677192,-64.56494268626238,-27.238157130785048,-63.893660442930624,-9,-75" fill="none" stroke="rgb(185, 55, 55)" stroke-width="2" stroke-linejoin="round" filter="url(#fuzzy)"></polyline><polyline points="60,-35,29.0620736541757,-52.47807937807103,11.250714565407382,-59.54726896600714,10.52536835819483,-61.93700239640614,17.397859631339088,-61.82823628443293,25.18922896251487,-61.08824117447627,31.255506047604715,-60.552555331427854,35.47334027376527,-59.931093263089195,38.34120178222656,-58.75700378417969,39.504532544847685,-57.32081629505188,37.30155510185975,-56.730345421973695,29.633517851343466,-57.98761847684846,15.921620531240478,-60.79761667805724,-0.9010678121064553,-63.3248559464482,-14.674084211635343,-63.56558318173602,-23.433362295507916,-60.500471913849914,-55,-48" fill="none" stroke="rgb(185, 55, 55)" stroke-width="2" stroke-linejoin="round" filter="url(#fuzzy)"></polyline><polyline points="48,-55,3.2181066029948733,-63.73246636311611,-2.671362910906016,-67.17883087990216,-1.8159162002636795,-66.32045586612232,-4.98405802785374,-64.6603439346997,-12.035364644847172,-64.1617539231386,-19.326682155581448,-64.65816946982912,-24.551412910458676,-64.99012398830945,-27.259512240991125,-64.17418050175179,-26.799235747676157,-61.997454457569276,-21.15178501052381,-59.073169614940014,-9.025009057229429,-56.611672921757716,5.5210708159692885,-56.15724604276736,10.561798250316224,-59.19353610862884,-6.266128538328073,-65.55313510158318,-34,-68" fill="none" stroke="rgb(185, 55, 55)" stroke-width="2" stroke-linejoin="round" filter="url(#fuzzy)"></polyline><polyline points="37,-64,19.859733485989647,-57.83539513034101,-8.183703316902042,-57.6728327756679,-25.8843398843597,-58.665874633719866,-33.64418600637917,-59.78508935675778,-35.61802756126306,-60.99936671134608,-35.49360780591104,-61.83999843067495,-34.53356701356873,-61.96998400203094,-31.3855253471421,-61.73735251949918,-24.09272857051136,-61.897108392902666,-13.094155603628913,-63.001482551946296,-2.886014382736063,-65.10387109956216,-0.2608972043059228,-67.71401325425458,-9.091946595964973,-69.46461722886464,-26.036304363178857,-67.5633041547684,-47,-58" fill="none" stroke="rgb(185, 55, 55)" stroke-width="2" stroke-linejoin="round" filter="url(#fuzzy)"></polyline><polyline points="-7,-75,30.23488641003143,-56.259450767214005,40.811252577502195,-52.384421825294794,42.78844266136883,-48.631414271476,38.268818813507565,-45.38894564676497,29.365603483723238,-44.47450972003615,19.648968877843746,-46.169543575688415,12.071720341004301,-49.490594107177266,8.228122327164824,-52.90417213555631,8.707565307617188,-55.039337158203125,13.154802152212369,-55.31236816114398,19.958450953609944,-54.14224829660109,26.657493359882675,-52.477928876394564,31.643883887232402,-50.85090003596777,35.80567074785254,-48.820844997328315,41.36124065748702,-45.86983132029153,46.91085095330928,-43.78195355041798,43.13328976839717,-48.6967121004289,15,-73" fill="none" stroke="rgb(185, 55, 55)" stroke-width="2" stroke-linejoin="round" filter="url(#fuzzy)"></polyline><polyline points="-25,-72,-4.275024554765509,-61.171144932147044,19.650935842371158,-53.81597449749812,27.88820129665751,-54.258994341697985,26.224635154241696,-57.401656097499654,22.305954685460698,-59.86983242269489,19.106368201858917,-60.57596164425432,16.219351422692355,-59.50287789309892,12.781753540039062,-57.20011901855469,8.776771205498063,-54.677749531354166,4.7630747867961,-52.92341466796198,1.4471320430300616,-52.17443536219032,-0.48937456286512315,-51.957284114090726,-1.1206705561097796,-52.413429815614734,-2.2246860144789444,-55.30320314387551,-7.427275486383266,-61.41583691528845,-38,-65" fill="none" stroke="rgb(185, 55, 55)" stroke-width="2" stroke-linejoin="round" filter="url(#fuzzy)"></polyline><polyline points="6,-75,-5.120155824277023,-58.46019520025477,5.286411051789785,-56.34861322807582,5.140957774788976,-60.49353324215327,-2.2195855130646303,-64.53406233432537,-10.260079771255459,-66.7486749130845,-15.416280995517889,-67.62837647813639,-16.32089508717904,-67.88425321396872,-12.775492866978041,-67.63846724126563,-5.593185763715881,-66.48795253879236,3.3339420539977187,-64.01757005010522,11.384207423769029,-60.34902744608319,16.075792681463025,-56.36890899191318,16.06677303617557,-53.4552547909194,11.731852147669786,-52.81732799658696,5.041297115266716,-54.83966746266966,-1.0642475552410244,-58.87042771592251,-3.6047750756017427,-63.61425428324276,-1.3296951517273956,-67.83292967272892,2.096929621974544,-70.77667879746812,-3.7555890650204216,-71.9568353220359,-29,-70" fill="none" stroke="rgb(185, 55, 55)" stroke-width="2" stroke-linejoin="round" filter="url(#fuzzy)"></polyline><!--]--></g><g id="lineNose"><path d="M -10.749065327463455 18.019574412425737, Q9.733809790410785 17.393890609706204,-0.5076277685263353 -4.766923363661565" fill="none" stroke="black" stroke-width="3" stroke-linejoin="round" filter="url(#fuzzy)"></path></g><g id="mouth"><polyline points="-21.955159651734355,62.60001839933922,-21.474650646266088,61.510549640751705,-20.989358891964503,60.452301461932315,-20.499426924089875,59.42501271190763,-20.004997277902444,58.42842223970422,-19.506212488662495,57.46226889434866,-19.00321509163027,56.52629152486755,-18.49614762206603,55.620228980287465,-17.98515261523004,54.74382010963495,-17.470372606382558,53.89680376193664,-16.951950130783835,53.07891878621908,-16.430027723694142,52.28990403150885,-15.904747920373737,51.52949834683255,-15.376253256082869,50.79744058121673,-14.844686266081808,50.093469583688,-14.310189485630815,49.41732420327291,-13.772905449990144,48.76874328899806,-13.232976694420064,48.14746568989002,-12.690545754180818,47.553230254975375,-12.145755164532677,46.9857758332807,-11.5987474607359,46.44484127383258,-11.049665178050743,45.93016542565759,-10.498650851737471,45.44148713778232,-9.94584701705634,44.97854525923332,-9.39139620926761,44.5410786390372,-8.835440963631541,44.128826126220524,-8.278123815408392,43.741526569809885,-7.719587299858423,43.37891881883186,-7.1599739522418915,43.04074172231301,-6.599426307819062,42.72673412927993,-6.038086901850187,42.43663488875921,-5.476098269595536,42.170182849777404,-4.913602946315358,41.9271168613611,-4.350743467269921,41.70717577253689,-3.7876623677194807,41.51009843233134,-3.2245021829242972,41.33562368977105,-2.661405448144632,41.18349039388256,-2.098514698640739,41.05343739369248,-1.5359724696728834,40.94520353822738,-0.9739212965013246,40.85852767651385,-0.4125037143863204,40.79314865757847,0.1481377414118672,40.748805330447794,0.7078605356329839,40.72523654414843,1.2665221330167642,40.72218114770694,1.823979998302951,40.73937799014992,2.380091596231285,40.77656592050393,2.934714391541506,40.83348378779556,3.487705848973353,40.90987044105138,4.03892343326657,41.005464729297984,4.5882246091608945,41.120005501561955,5.135466841396065,41.25323160686986,5.680507594711827,41.40488189424827,6.223204333847917,41.57469521272378,6.7634145235440775,41.762410411322975,7.300995628540048,41.96776633907241,7.835805113575568,42.190501844998685,8.367700443390383,42.43035577812838,8.896539082724223,42.687066987488066,9.422178496316839,42.960374322104315,9.944476148907965,43.25001663100372,10.463289505237343,43.55573276321286,10.978476030044716,43.87726156775831,11.489893188069818,44.214341893666656,11.997398444052395,44.56671258996446,12.500849262732189,44.93411250567832,13.000103108848933,45.3162804898348,13.495017447142372,45.712955391460504,13.985449742352246,46.123876059581995,14.471257459218295,46.54878134322585,14.952298062480262,46.98741009141865,15.42842901687788,47.43950115318697,15.8995077871509,47.90479337755741,16.36539183803906,48.38302561355652,16.825938634282082,48.873936710210906,17.281005640619735,49.37726551654713,17.730450321791743,49.89275088159178,18.174130142537845,50.42013165437144,18.611902567597788,50.95914668391268,19.04362506171131,51.50953481924208,19.469155089618152,52.07103490938622,19.88835011605805,52.643385803371686,20.30106760577075,53.226326350225044,20.707165023495993,53.81959539897289,21.106499833973515,54.4229317986418,21.49892950194306,55.03607439825834,21.884311492144366,55.658762046849105,22.262503269317172,56.29073359344067,22.63336229820122,56.93172788705961,22.996746043536252,57.581483776732505,23.352511970062,58.23974011148594,23.700517542518224,58.90623574034649,24.04062022564465,59.58070951234073,24.372677484181015,60.26290027649526,24.696546782867056,60.95254688183663,25.012085586442534,61.649388177391444,25.319151359647172,62.353163012186265,25.61760156722072,63.06361023524768,25.90729367390291,63.78046869560227,26.18808514443349,64.50347724227662,26.459833443552196,65.2323747242973,26.72239603599875,65.96689999069083,26.459833443552178,65.23237472429724,26.18808514443347,64.50347724227657,25.907293673902895,63.78046869560223,25.6176015672207,63.06361023524764,25.31915135964715,62.35316301218622,25.01208558644251,61.6493881773914,24.696546782867035,60.9525468818366,24.372677484180993,60.262900276495216,24.04062022564463,59.58070951234069,23.70051754251821,58.906235740346446,23.35251197006199,58.2397401114859,22.99674604353623,57.58148377673247,22.6333622982012,56.93172788705957,22.262503269317154,56.290733593440635,21.884311492144338,55.65876204684908,21.49892950194304,55.036074398258314,21.106499833973494,54.42293179864177,20.70716502349597,53.819595398972865,20.30106760577073,53.22632635022502,19.888350116058028,52.64338580337166,19.469155089618123,52.07103490938619,19.043625061711282,51.50953481924205,18.611902567597767,50.95914668391265,18.174130142537823,50.42013165437141,17.73045032179172,49.89275088159175,17.281005640619714,49.377265516547105,16.82593863428206,48.87393671021088,16.365391838039034,48.38302561355649,15.899507787150881,47.90479337755737,15.428429016877862,47.439501153186946,14.95229806248024,46.987410091418624,14.471257459218274,46.54878134322582,13.985449742352225,46.12387605958197,13.495017447142352,45.71295539146049,13.000103108848906,45.31628048983478,12.500849262732165,44.93411250567829,11.997398444052372,44.56671258996444,11.489893188069797,44.21434189366662,10.97847603004469,43.87726156775829,10.46328950523732,43.555732763212845,9.944476148907942,43.2500166310037,9.422178496316814,42.9603743221043,8.8965390827242,42.687066987488045,8.367700443390357,42.430355778128366,7.835805113575545,42.19050184499867,7.300995628540024,41.9677663390724,6.763414523544053,41.76241041132296,6.223204333847894,41.57469521272377,5.680507594711802,41.40488189424826,5.13546684139604,41.25323160686985,4.58822460916087,41.12000550156195,4.038923433266543,41.005464729298,3.4877058489733272,40.90987044105138,2.9347143915414793,40.83348378779556,2.3800915962312597,40.776565920503934,1.8239799983029228,40.73937799014992,1.2665221330167376,40.72218114770695,0.7078605356329566,40.72523654414843,0.14813774141184188,40.74880533044781,-0.4125037143863479,40.79314865757848,-0.9739212965013517,40.858527676513866,-1.5359724696729105,40.9452035382274,-2.0985146986407663,41.0534373936925,-2.6614054481446567,41.183490393882565,-3.224502182924323,41.33562368977105,-3.7876623677195065,41.51009843233136,-4.350743467269949,41.7071757725369,-4.913602946315386,41.92711686136113,-5.4760982695955605,42.170182849777426,-6.038086901850214,42.43663488875923,-6.599426307819087,42.72673412927996,-7.159973952241918,43.04074172231303,-7.719587299858446,43.378918818831885,-8.278123815408417,43.74152656980991,-8.835440963631568,44.12882612622055,-9.391396209267642,44.541078639037224,-9.94584701705637,44.97854525923334,-10.498650851737503,45.44148713778233,-11.049665178050775,45.93016542565761,-11.598747460735929,46.44484127383261,-12.145755164532707,46.98577583328073,-12.690545754180848,47.553230254975404,-13.232976694420088,48.147465689890055,-13.772905449990176,48.76874328899808,-14.310189485630847,49.41732420327294,-14.84468626608184,50.09346958368803,-15.3762532560829,50.797440581216776,-15.904747920373762,51.52949834683258,-16.430027723694167,52.2899040315089,-16.951950130783867,53.07891878621913,-17.470372606382583,53.89680376193669,-17.985152615230067,54.74382010963502,-18.496147622066065,55.620228980287514,-19.0032150916303,56.52629152486761,-19.50621248866253,57.462268894348725,-20.004997277902483,58.428422239704275,-20.49942692408991,59.42501271190769,-20.989358891964535,60.45230146193238,-21.474650646266117,61.510549640751776" fill="rgb(215,127,140)" stroke="black" stroke-width="3" stroke-linejoin="round" filter="url(#fuzzy)"></polyline></g></svg>