<svg viewBox="-100 -100 200 200" xmlns="http://www.w3.org/2000/svg" width="400" height="400" id="face-svg"><defs><clipPath id="leftEyeClipPath"><polyline points="26.743071573359906,-0.44317030989077555,26.483061731957356,-0.6314637097348554,26.194096078389762,-0.8253642759853381,25.877532017237833,-1.024138020040477,25.534680644634484,-1.227071180377524,25.16680759109922,-1.4334700712193147,24.77513386437252,-1.6426609312008607,24.36083669225026,-1.8539897720359235,23.925050365418066,-2.0668222271836107,23.46886708028574,-2.280543400514955,22.993337781821616,-2.4945577149795044,22.499473006386985,-2.7082887612718984,21.988243724570495,-2.921179146498474,21.460582184022492,-3.132690342843823,20.91738275228945,-3.342302536237403,20.359502759648365,-3.549514475020109,19.70946355586851,-3.817090238005523,19.04287152455438,-4.081280794960139,18.36060724598591,-4.341038147728371,17.66352530109254,-4.595350881281547,16.952458349955997,-4.843247159277046,16.228220877786057,-5.083797455085284,15.491612617427,-5.31611702462736,14.74342165745214,-5.539368127366254,13.98442724490427,-5.75276200179445,13.215402291739471,-5.955560601760837,12.437115594031917,-6.147078099979797,11.650333772997364,-6.326682165065291,10.855822946892784,-6.493795018432861,10.054350142849897,-6.647894277412412,9.246684457700066,-6.788513590914613,8.433597976848299,-6.915243073993825,7.615866460253795,-7.027729547650393,6.794269804574844,-7.125676590215225,5.96959229053547,-7.208844406659429,5.142622624571593,-7.277049522172,4.314153783814194,-7.33016430634834,3.4849826734671723,-7.368116334332525,2.65590960563745,-7.390887591256124,1.8277376086749277,-7.39851352631657,1.0012715760799291,-7.391081962837797,0.1773172640357037,-7.368731870656131,-0.6433198533763974,-7.331652007174235,-1.459835862221458,-7.2800794334260335,-2.271429810957664,-7.214297911495441,-3.0773052278274644,-7.13463618963177,-3.87667174433567,-7.041466181404726,-4.668746815756829,-6.935201045241804,-5.452757529614341,-6.816293170691033,-6.227942493073623,-6.68523207775182,-6.993553790191823,-6.5425422356169065,-7.748858999966386,-6.388780807168192,-8.493143266124928,-6.224535325569358,-9.22571140959878,-6.050421309298118,-9.945890074622646,-5.867079821961042,-10.653029899402675,-5.6751749832337115,-11.346507702295481,-5.4753914372691685,-12.025728674440378,-5.268431784917482,-12.690128569787296,-5.05501398609934,-13.33917588346278,-4.835868738676482,-13.9723740094164,-4.611736840161895,-14.589263368290082,-4.383366538612603,-15.18942349645262,-4.151510879047956,-15.772475087141897,-3.916925051736266,-16.338081974657086,-3.680363748692635,-16.885953052543364,-3.4425785347309406,-17.417583071890874,-3.20278305731229,-17.934422670532975,-2.959938123624278,-18.436163675843765,-2.714406638186346,-18.922517812660864,-2.4665435097783357,-19.393217916357273,-2.216694801948962,-19.848019145913362,-1.9651968835242881,-20.286700196988726,-1.7123755791162143,-20.709064514994175,-1.458545319630936,-21.114941508163618,-1.2040082927774423,-21.50418776062603,-0.949053593575977,-21.876688245477318,-0.6939563748665276,-22.232357537852323,-0.4389769978172957,-22.571141027996667,-0.18436018243317998,-22.89301613433875,0.06966584193575631,-21.451770461118585,3.8116595138634044,-21.15299106914496,4.031802508987143,-20.838784925245776,4.248391286397741,-20.509372154240758,4.461154470739295,-20.16501122379855,4.669812416242374,-19.80599619005571,4.874078536789951,-19.432653943235742,5.073660635983321,-19.045341453268094,5.26826223720804,-18.644443015407205,5.457583913699837,-18.230367495851503,5.64132461861056,-17.803545577362428,5.819183015074083,-17.364427004883446,5.99085880627225,-16.913477831159078,6.156054065500783,-16.451177662353892,6.31447456623523,-15.978016903671573,6.4658311121968755,-15.492064876408426,6.611188795013446,-14.9915898650986,6.7512745350534615,-14.477381183508408,6.88532748447094,-13.95021761223302,7.012629685887672,-13.410864217019917,7.132507909234789,-12.860069200575714,7.244335417785496,-12.298560808422312,7.347533653447844,-11.727044309368496,7.4415738313863375,-11.146199071162975,7.525978434041264,-10.556675751894891,7.600322594614543,-9.959093627707942,7.664235360090977,-9.354038077394026,7.717400823863699,-8.742058244432593,7.759559118032713,-8.12366489704159,7.790507255445313,-7.499328506806204,7.810099811547266,-6.869477566451358,7.818249436113578,-6.234497167323973,7.814927184927681,-5.594727857151169,7.800162661477888,-4.950464798640296,7.77404395873998,-4.301957249486954,7.736717391114704,-3.6494083843569998,7.68838700658911,-2.9929754794085834,7.629313869190485,-2.33277047992027,7.559815101801779,-1.6688609715912817,7.4802626794073355,-1.0012715760799291,7.391081962837797,-0.32998579134623995,7.292749963082985,0.3450517026351416,7.18579332624164,1.0239322522257577,7.070786029176821,1.706779931971778,6.9483467759458435,2.39374771938406,6.81913608507357,3.0850131220837596,6.6838530577379025,3.780773236747458,6.543231816936332,4.48123921928577,6.398037607702354,5.186630145689371,6.249062548440619,5.897166242976394,6.0971210234496604,6.613061469675205,5.943044706701017,7.334515425276409,5.787677206943603,8.06170456808817,5.6318683242021885,8.794772720928677,5.476467907738785,9.533820844089801,5.322319305545829,10.278896055005875,5.170252395439958,11.029979874061505,5.021076187825256,11.786975675972448,4.875570990194789,12.549695326173428,4.73448012343928,13.317844981646926,4.598501180031755,14.091010035626839,4.468276814157022,14.868639185611004,4.344385053854797,15.650027604116465,4.227329125245337,16.4342991916116,4.1175267789064165,17.220387891058856,4.0152991084704865,17.832242118263075,3.891205670043284,18.43868998409703,3.7689049956199527,19.03879812875961,3.6484547263029765,19.631554788208582,3.529888930886714,20.21586732874553,3.4132169930880867,20.79055978160077,3.2984224987772626,21.354370377518322,3.1854621232083495,21.905949081340765,3.074264518250077,22.443855126594237,2.964729199616487,22.966554550073333,2.85672543409762,23.472417726426038,2.7500911267902004,23.95971690273867,2.644631708328328,24.426623733120785,2.5401190221141623,24.871206813290122,2.4362902115486103,25.29142921515755,2.3328466072620153"></polyline></clipPath><clipPath id="rightEyeClipPath"><polyline points="-22.66166893405357,-1.648046976208005,-22.492070680986107,-1.826762901795293,-22.300962929415515,-2.008937731172132,-22.089159873948585,-2.1936781334561015,-21.8574365807026,-2.380133409517965,-21.606529988510054,-2.5674946380997037,-21.337139910123177,-2.75499382193256,-21.04993003341865,-2.9419030338550725,-20.745528922602222,-3.127533562931113,-20.424531019413326,-3.31123506056793,-20.08749764432974,-3.4923946866341797,-19.734957997772195,-3.6704362555779717,-19.367410161309053,-3.8448193825449017,-18.985322098860898,-4.015038629496096,-18.589132657905193,-4.18062265132624,-18.179252570680926,-4.341133341981626,-17.71046309199593,-4.581479887369448,-17.227072797350726,-4.8119496003589255,-16.72910782797425,-5.031669063391904,-16.216567006196588,-5.239865488786776,-15.689431204120076,-5.435862488913084,-15.14767204468232,-5.619075912644156,-14.591259951614113,-5.789009747881617,-14.020171564795522,-5.945252089945665,-13.434396537513209,-6.0874711756250175,-12.833943732122211,-6.215411482680375,-12.218846830615252,-6.328889894595299,-11.58916937660279,-6.4277919303684055,-10.945009265206892,-6.512068039140699,-10.286502697372182,-6.5817299594520104,-9.613827615096877,-6.636847142920338,-8.927206634087167,-6.677543242138039,-8.226909490338041,-6.703992662578695,-7.513255017143712,-6.716417178308596,-6.786612669040788,-6.715082611296669,-6.047403609187344,-6.700295574116755,-5.296101376681025,-6.672400275836141,-4.533232150319374,-6.631775390884158,-3.759374625305454,-6.578830990694824,-2.975159519401987,-6.514005537917315,-2.1812687250371363,-6.437762942988238,-1.3784341238650368,-6.350589682859493,-0.567436080284291,-6.252991981675695,0.2508983695824787,-6.14549305319497,1.075697616944833,-6.028630404747059,1.9060478509333647,-5.902953202522547,2.7409956842180048,-5.7690196979871935,3.579551017152674,-5.627394715215121,4.4206901239431104,-5.478647198934879,5.263358944334731,-5.323347823082158,6.106476564317371,-5.162066659653078,6.9489388693438,-4.995370907651949,7.789622353558762,-4.823822681927343,8.627388068535529,-4.647976861690405,9.461085695016695,-4.468378998509246,10.289557721156156,-4.285563283573321,11.11164371075906,-4.100050574021663,11.926184645016647,-3.9123464781288657,12.732027321232742,-3.7229394991426927,13.528028792038832,-3.5322992375671856,14.31306082859458,-3.340874651685156,15.086014391270528,-3.14909237611396,15.845804091309994,-2.957355098188404,16.59137262696687,-2.766039991964708,17.32169517761626,-2.575497209639341,18.035783739334814,-2.3860484301767144,18.73578001814579,-2.1972529925337723,19.424028798857456,-2.008602343796074,20.09989405557228,-1.8202861947036109,20.762764440336422,-1.632483700499272,21.412055493382713,-1.4453634885339923,22.04721185337367,-1.259083685871902,22.667709467644517,-1.0737919468954802,23.27305780244621,-0.8896254809106963,23.862802053188386,-0.7067110797521696,24.436525354682473,-0.5251651453883182,24.993850991384598,-0.3450937175265012,25.53444460763867,-0.16659250121817948,26.058016417919344,0.010253105535944496,26.564323417075084,0.1853679841807685,25.054795257183482,4.195761162332583,24.63046084134313,4.352955642206274,24.1906059638756,4.508394779046853,23.73568741884881,4.66180733930051,23.266214534256303,4.812910174776245,22.782745108710312,4.961409709089242,22.285881348134932,5.107003424104248,21.776265802459175,5.249381346378932,21.254577302310164,5.388227533607276,20.721526895706166,5.523221561062936,20.17785378474979,5.65404000804262,19.624321262321043,5.780357944309465,19.061712648770488,5.901850416536401,18.490827228612343,6.018193934749533,17.912476187217603,6.129067958771512,17.323890807455722,6.23544106620828,16.722771543079123,6.337957183337369,16.11061725490941,6.435839990738239,15.488892256963258,6.5283523653140625,14.859020784569793,6.614798506994094,14.22238153337679,6.6945260005520755,13.580302299584943,6.766927801441885,12.934054751749681,6.831444134551645,12.284849364489817,6.887564294777539,11.63383054444241,6.934828338318532,10.98207197880319,6.9728286535932344,10.330572236791909,7.001211400680136,9.680250654381995,7.019677808182386,9.03194353263383,7.027985316418441,8.386400679971022,7.025948555839693,7.744282328739059,7.013440149576357,7.106156456385659,6.99039132901287,6.472496541602214,6.95679235129392,5.843679785765646,6.9126927076624805,5.219985830020064,6.858201111530913,4.601595998337577,6.793485255186476,3.9885930968975987,6.718771324032421,3.380961800124031,6.634343257265883,2.778589653719659,6.5405417438938285,2.1812687250371363,6.437762942988238,1.588697931125906,6.32645691708179,1.0004860747944173,6.207125767605231,0.41615561902699394,6.080321461267679,-0.1648527699052682,5.946643336281084,-0.7431748803002547,5.806735277330047,-1.3195167835078374,5.6612825481882325,-1.8946478027008036,5.511008270882618,-2.4693925915943398,5.356669540306758,-3.0446222927746964,5.1990531631843275,-3.621244745297708,5.0389710102841505,-4.200193711217806,4.877254970787926,-4.782417090708102,4.7147514977118945,-5.368864095432298,4.552315733283662,-5.960471349828956,4.39080520317539,-6.558147889968837,4.231073068494593,-7.162759029645954,4.073960924433758,-7.775109063362886,3.9202911344800047,-8.395922775871139,3.7708586890860207,-9.025825727927089,3.6264225777034826,-9.665323287924178,3.487696663080192,-10.314778379062023,3.3553400467221524,-10.974387911713087,3.2299469144217965,-11.644157870647472,3.1120358507536063,-12.323877026776596,3.0020386114383304,-13.013089243076319,2.900288342477033,-13.526990028816801,2.7752995729594954,-14.039392215219166,2.652524242668595,-14.54969015708976,2.532033224892037,-15.057193197930957,2.4138732054773295,-15.561122544879634,2.2980655320819556,-16.06060814364567,2.184605063423547,-16.554685553450444,2.073459018530063,-17.042292821965294,1.9645658259899565,-17.52226736025003,1.857833973202354,-17.99334281769142,1.7531408556272283,-18.454145956941677,1.6503316260355678,-18.903193528856928,1.5492180437595577,-19.33888914743574,1.4495773239427474,-19.759520164757568,1.3511509867902292,-20.163254545921273,1.2536437068188087"></polyline></clipPath><filter id="fuzzy"><feTurbulence id="turbulence" baseFrequency="0.05" numOctaves="3" type="noise" result="noise"></feTurbulence><feDisplacementMap in="SourceGraphic" in2="noise" scale="2"></feDisplacementMap></filter><linearGradient id="rainbowGradient" x1="0%" y1="0%" x2="100%" y2="0%"><stop offset="0%" style="stop-color: rgb(128, 128, 128);  stop-opacity: 1"></stop><stop offset="50%" style="stop-color: rgb(233, 236, 239);  stop-opacity: 1"></stop><stop offset="100%" style="stop-color: rgb(50, 205, 50);  stop-opacity: 1"></stop></linearGradient></defs><title>That&#39;s an ugly face</title><desc>CREATED BY XUAN TANG, MORE INFO AT TXSTC55.GITHUB.IO</desc><rect x="-100" y="-100" width="100%" height="100%" opacity="1" fill="rgb(211, 211, 211)"></rect><polyline id="faceContour" points="72,1,72,1,72,2,72,5,72,5,72,7,72,8,72,7,72,10,71,13,72,11,72,14,71,16,71,17,71,20,71,19,71,19,71,20,70,23,69,26,69,26,69,28,69,28,68,29,68,30,67,32,67,33,66,34,66,36,65,37,65,38,65,37,63,41,63,42,63,41,62,42,62,43,61,46,60,46,61,45,58,49,58,50,59,48,58,50,55,53,56,52,55,53,53,56,52,57,52,57,52,57,51,58,51,58,51,58,49,60,48,61,47,61,46,62,45,64,44,64,44,64,44,64,41,66,40,67,39,68,39,67,36,69,37,69,35,69,33,70,34,70,31,71,31,72,32,71,30,72,30,72,25,73,27,73,26,73,24,74,23,74,22,75,20,75,20,75,18,75,16,76,16,76,15,76,16,76,12,76,11,76,12,76,10,76,6,77,6,77,7,77,5,77,2,76,2,77,1,77,-1,76,-1,76,-3,76,-2,76,-4,76,-6,76,-7,76,-8,76,-11,75,-9,75,-11,75,-14,74,-14,74,-15,74,-17,74,-17,73,-19,73,-19,73,-22,72,-22,72,-23,71,-24,71,-24,71,-26,70,-28,69,-29,68,-29,69,-29,69,-32,67,-33,67,-34,66,-35,65,-36,64,-36,65,-37,64,-39,63,-39,63,-41,61,-42,61,-43,60,-43,60,-44,59,-45,58,-47,56,-47,57,-47,57,-49,55,-48,55,-50,54,-51,53,-52,52,-53,50,-52,52,-54,49,-56,48,-56,48,-57,47,-56,47,-58,44,-59,44,-59,43,-61,41,-60,43,-61,40,-61,40,-62,39,-63,37,-63,36,-64,35,-65,34,-65,33,-65,34,-67,29,-67,29,-68,28,-67,28,-68,26,-68,26,-68,25,-69,23,-70,22,-70,20,-70,21,-71,18,-70,18,-71,16,-70,18,-71,14,-71,14,-72,13,-72,11,-72,10,-72,9,-72,9,-72,5,-72,6,-72,5,-72,3,-72,4,-72,0,-72,0,-72,0,-72,-2,-72,-4,-72,-4,-72,-5,-72,-7,-71,-10,-72,-9,-71,-11,-71,-10,-71,-13,-71,-14,-71,-14,-70,-15,-70,-16,-70,-18,-69,-21,-69,-21,-68,-22,-68,-23,-68,-24,-67,-26,-67,-25,-67,-26,-67,-26,-65,-30,-66,-29,-65,-30,-64,-32,-64,-33,-63,-34,-63,-35,-62,-36,-61,-38,-62,-37,-61,-38,-60,-40,-58,-42,-59,-42,-57,-44,-57,-44,-57,-44,-56,-45,-56,-46,-54,-48,-54,-48,-53,-48,-51,-51,-50,-52,-50,-52,-48,-54,-48,-54,-47,-55,-47,-55,-47,-56,-46,-56,-45,-57,-44,-58,-43,-59,-41,-60,-42,-59,-38,-62,-38,-62,-36,-64,-38,-62,-35,-65,-35,-64,-34,-65,-33,-66,-31,-67,-30,-67,-30,-67,-28,-68,-30,-68,-27,-69,-27,-69,-24,-70,-24,-70,-22,-71,-22,-71,-21,-71,-21,-72,-19,-73,-18,-73,-16,-73,-15,-74,-13,-74,-12,-75,-12,-74,-10,-75,-9,-75,-7,-75,-9,-75,-7,-76,-6,-76,-4,-76,-3,-76,-3,-76,-1,-76,1,-76,1,-77,2,-77,3,-77,3,-77,5,-77,7,-76,8,-77,9,-76,9,-77,11,-76,12,-76,15,-76,13,-76,16,-76,17,-75,19,-75,17,-75,21,-75,20,-75,21,-74,23,-74,25,-73,24,-74,26,-73,27,-72,28,-72,29,-71,29,-71,31,-71,34,-70,32,-71,34,-69,35,-69,35,-69,37,-67,37,-68,39,-66,40,-66,40,-65,43,-63,42,-64,44,-62,45,-62,46,-61,47,-60,47,-60,48,-59,49,-59,49,-58,50,-57,50,-57,52,-55,52,-55,53,-54,54,-52,56,-51,56,-49,57,-49,57,-48,57,-48,59,-46,59,-46,59,-46,60,-44,61,-43,62,-42,62,-41,63,-39,63,-39,63,-38,64,-37,65,-35,66,-32,66,-33,66,-31,67,-30,67,-29,68,-26,67,-28,68,-26,69,-24,69,-21,69,-22,70,-20,70,-20,70,-17,71,-15,71,-14,71,-14,71,-15,71,-12,72,-10,71,-11,71,-10,72,-7,72,-4,72,-5,72,-3,72,-1,72,1,72,1" fill="#ffc9a9" stroke="black" stroke-width="1.6666666666666665" stroke-linejoin="round" filter="url(#fuzzy)"></polyline><g transform="translate(28.49135621557694 -22.477899542534587)"><polyline id="rightCountour" points="-22.66166893405357,-1.648046976208005,-22.492070680986107,-1.826762901795293,-22.300962929415515,-2.008937731172132,-22.089159873948585,-2.1936781334561015,-21.8574365807026,-2.380133409517965,-21.606529988510054,-2.5674946380997037,-21.337139910123177,-2.75499382193256,-21.04993003341865,-2.9419030338550725,-20.745528922602222,-3.127533562931113,-20.424531019413326,-3.31123506056793,-20.08749764432974,-3.4923946866341797,-19.734957997772195,-3.6704362555779717,-19.367410161309053,-3.8448193825449017,-18.985322098860898,-4.015038629496096,-18.589132657905193,-4.18062265132624,-18.179252570680926,-4.341133341981626,-17.71046309199593,-4.581479887369448,-17.227072797350726,-4.8119496003589255,-16.72910782797425,-5.031669063391904,-16.216567006196588,-5.239865488786776,-15.689431204120076,-5.435862488913084,-15.14767204468232,-5.619075912644156,-14.591259951614113,-5.789009747881617,-14.020171564795522,-5.945252089945665,-13.434396537513209,-6.0874711756250175,-12.833943732122211,-6.215411482680375,-12.218846830615252,-6.328889894595299,-11.58916937660279,-6.4277919303684055,-10.945009265206892,-6.512068039140699,-10.286502697372182,-6.5817299594520104,-9.613827615096877,-6.636847142920338,-8.927206634087167,-6.677543242138039,-8.226909490338041,-6.703992662578695,-7.513255017143712,-6.716417178308596,-6.786612669040788,-6.715082611296669,-6.047403609187344,-6.700295574116755,-5.296101376681025,-6.672400275836141,-4.533232150319374,-6.631775390884158,-3.759374625305454,-6.578830990694824,-2.975159519401987,-6.514005537917315,-2.1812687250371363,-6.437762942988238,-1.3784341238650368,-6.350589682859493,-0.567436080284291,-6.252991981675695,0.2508983695824787,-6.14549305319497,1.075697616944833,-6.028630404747059,1.9060478509333647,-5.902953202522547,2.7409956842180048,-5.7690196979871935,3.579551017152674,-5.627394715215121,4.4206901239431104,-5.478647198934879,5.263358944334731,-5.323347823082158,6.106476564317371,-5.162066659653078,6.9489388693438,-4.995370907651949,7.789622353558762,-4.823822681927343,8.627388068535529,-4.647976861690405,9.461085695016695,-4.468378998509246,10.289557721156156,-4.285563283573321,11.11164371075906,-4.100050574021663,11.926184645016647,-3.9123464781288657,12.732027321232742,-3.7229394991426927,13.528028792038832,-3.5322992375671856,14.31306082859458,-3.340874651685156,15.086014391270528,-3.14909237611396,15.845804091309994,-2.957355098188404,16.59137262696687,-2.766039991964708,17.32169517761626,-2.575497209639341,18.035783739334814,-2.3860484301767144,18.73578001814579,-2.1972529925337723,19.424028798857456,-2.008602343796074,20.09989405557228,-1.8202861947036109,20.762764440336422,-1.632483700499272,21.412055493382713,-1.4453634885339923,22.04721185337367,-1.259083685871902,22.667709467644517,-1.0737919468954802,23.27305780244621,-0.8896254809106963,23.862802053188386,-0.7067110797521696,24.436525354682473,-0.5251651453883182,24.993850991384598,-0.3450937175265012,25.53444460763867,-0.16659250121817948,26.058016417919344,0.010253105535944496,26.564323417075084,0.1853679841807685,25.054795257183482,4.195761162332583,24.63046084134313,4.352955642206274,24.1906059638756,4.508394779046853,23.73568741884881,4.66180733930051,23.266214534256303,4.812910174776245,22.782745108710312,4.961409709089242,22.285881348134932,5.107003424104248,21.776265802459175,5.249381346378932,21.254577302310164,5.388227533607276,20.721526895706166,5.523221561062936,20.17785378474979,5.65404000804262,19.624321262321043,5.780357944309465,19.061712648770488,5.901850416536401,18.490827228612343,6.018193934749533,17.912476187217603,6.129067958771512,17.323890807455722,6.23544106620828,16.722771543079123,6.337957183337369,16.11061725490941,6.435839990738239,15.488892256963258,6.5283523653140625,14.859020784569793,6.614798506994094,14.22238153337679,6.6945260005520755,13.580302299584943,6.766927801441885,12.934054751749681,6.831444134551645,12.284849364489817,6.887564294777539,11.63383054444241,6.934828338318532,10.98207197880319,6.9728286535932344,10.330572236791909,7.001211400680136,9.680250654381995,7.019677808182386,9.03194353263383,7.027985316418441,8.386400679971022,7.025948555839693,7.744282328739059,7.013440149576357,7.106156456385659,6.99039132901287,6.472496541602214,6.95679235129392,5.843679785765646,6.9126927076624805,5.219985830020064,6.858201111530913,4.601595998337577,6.793485255186476,3.9885930968975987,6.718771324032421,3.380961800124031,6.634343257265883,2.778589653719659,6.5405417438938285,2.1812687250371363,6.437762942988238,1.588697931125906,6.32645691708179,1.0004860747944173,6.207125767605231,0.41615561902699394,6.080321461267679,-0.1648527699052682,5.946643336281084,-0.7431748803002547,5.806735277330047,-1.3195167835078374,5.6612825481882325,-1.8946478027008036,5.511008270882618,-2.4693925915943398,5.356669540306758,-3.0446222927746964,5.1990531631843275,-3.621244745297708,5.0389710102841505,-4.200193711217806,4.877254970787926,-4.782417090708102,4.7147514977118945,-5.368864095432298,4.552315733283662,-5.960471349828956,4.39080520317539,-6.558147889968837,4.231073068494593,-7.162759029645954,4.073960924433758,-7.775109063362886,3.9202911344800047,-8.395922775871139,3.7708586890860207,-9.025825727927089,3.6264225777034826,-9.665323287924178,3.487696663080192,-10.314778379062023,3.3553400467221524,-10.974387911713087,3.2299469144217965,-11.644157870647472,3.1120358507536063,-12.323877026776596,3.0020386114383304,-13.013089243076319,2.900288342477033,-13.526990028816801,2.7752995729594954,-14.039392215219166,2.652524242668595,-14.54969015708976,2.532033224892037,-15.057193197930957,2.4138732054773295,-15.561122544879634,2.2980655320819556,-16.06060814364567,2.184605063423547,-16.554685553450444,2.073459018530063,-17.042292821965294,1.9645658259899565,-17.52226736025003,1.857833973202354,-17.99334281769142,1.7531408556272283,-18.454145956941677,1.6503316260355678,-18.903193528856928,1.5492180437595577,-19.33888914743574,1.4495773239427474,-19.759520164757568,1.3511509867902292,-20.163254545921273,1.2536437068188087" fill="white" stroke="white" stroke-width="0" stroke-linejoin="round" filter="url(#fuzzy)"></polyline></g><g transform="translate(-36.68290499260027 -21.133200451136137)"><polyline id="leftCountour" points="26.743071573359906,-0.44317030989077555,26.483061731957356,-0.6314637097348554,26.194096078389762,-0.8253642759853381,25.877532017237833,-1.024138020040477,25.534680644634484,-1.227071180377524,25.16680759109922,-1.4334700712193147,24.77513386437252,-1.6426609312008607,24.36083669225026,-1.8539897720359235,23.925050365418066,-2.0668222271836107,23.46886708028574,-2.280543400514955,22.993337781821616,-2.4945577149795044,22.499473006386985,-2.7082887612718984,21.988243724570495,-2.921179146498474,21.460582184022492,-3.132690342843823,20.91738275228945,-3.342302536237403,20.359502759648365,-3.549514475020109,19.70946355586851,-3.817090238005523,19.04287152455438,-4.081280794960139,18.36060724598591,-4.341038147728371,17.66352530109254,-4.595350881281547,16.952458349955997,-4.843247159277046,16.228220877786057,-5.083797455085284,15.491612617427,-5.31611702462736,14.74342165745214,-5.539368127366254,13.98442724490427,-5.75276200179445,13.215402291739471,-5.955560601760837,12.437115594031917,-6.147078099979797,11.650333772997364,-6.326682165065291,10.855822946892784,-6.493795018432861,10.054350142849897,-6.647894277412412,9.246684457700066,-6.788513590914613,8.433597976848299,-6.915243073993825,7.615866460253795,-7.027729547650393,6.794269804574844,-7.125676590215225,5.96959229053547,-7.208844406659429,5.142622624571593,-7.277049522172,4.314153783814194,-7.33016430634834,3.4849826734671723,-7.368116334332525,2.65590960563745,-7.390887591256124,1.8277376086749277,-7.39851352631657,1.0012715760799291,-7.391081962837797,0.1773172640357037,-7.368731870656131,-0.6433198533763974,-7.331652007174235,-1.459835862221458,-7.2800794334260335,-2.271429810957664,-7.214297911495441,-3.0773052278274644,-7.13463618963177,-3.87667174433567,-7.041466181404726,-4.668746815756829,-6.935201045241804,-5.452757529614341,-6.816293170691033,-6.227942493073623,-6.68523207775182,-6.993553790191823,-6.5425422356169065,-7.748858999966386,-6.388780807168192,-8.493143266124928,-6.224535325569358,-9.22571140959878,-6.050421309298118,-9.945890074622646,-5.867079821961042,-10.653029899402675,-5.6751749832337115,-11.346507702295481,-5.4753914372691685,-12.025728674440378,-5.268431784917482,-12.690128569787296,-5.05501398609934,-13.33917588346278,-4.835868738676482,-13.9723740094164,-4.611736840161895,-14.589263368290082,-4.383366538612603,-15.18942349645262,-4.151510879047956,-15.772475087141897,-3.916925051736266,-16.338081974657086,-3.680363748692635,-16.885953052543364,-3.4425785347309406,-17.417583071890874,-3.20278305731229,-17.934422670532975,-2.959938123624278,-18.436163675843765,-2.714406638186346,-18.922517812660864,-2.4665435097783357,-19.393217916357273,-2.216694801948962,-19.848019145913362,-1.9651968835242881,-20.286700196988726,-1.7123755791162143,-20.709064514994175,-1.458545319630936,-21.114941508163618,-1.2040082927774423,-21.50418776062603,-0.949053593575977,-21.876688245477318,-0.6939563748665276,-22.232357537852323,-0.4389769978172957,-22.571141027996667,-0.18436018243317998,-22.89301613433875,0.06966584193575631,-21.451770461118585,3.8116595138634044,-21.15299106914496,4.031802508987143,-20.838784925245776,4.248391286397741,-20.509372154240758,4.461154470739295,-20.16501122379855,4.669812416242374,-19.80599619005571,4.874078536789951,-19.432653943235742,5.073660635983321,-19.045341453268094,5.26826223720804,-18.644443015407205,5.457583913699837,-18.230367495851503,5.64132461861056,-17.803545577362428,5.819183015074083,-17.364427004883446,5.99085880627225,-16.913477831159078,6.156054065500783,-16.451177662353892,6.31447456623523,-15.978016903671573,6.4658311121968755,-15.492064876408426,6.611188795013446,-14.9915898650986,6.7512745350534615,-14.477381183508408,6.88532748447094,-13.95021761223302,7.012629685887672,-13.410864217019917,7.132507909234789,-12.860069200575714,7.244335417785496,-12.298560808422312,7.347533653447844,-11.727044309368496,7.4415738313863375,-11.146199071162975,7.525978434041264,-10.556675751894891,7.600322594614543,-9.959093627707942,7.664235360090977,-9.354038077394026,7.717400823863699,-8.742058244432593,7.759559118032713,-8.12366489704159,7.790507255445313,-7.499328506806204,7.810099811547266,-6.869477566451358,7.818249436113578,-6.234497167323973,7.814927184927681,-5.594727857151169,7.800162661477888,-4.950464798640296,7.77404395873998,-4.301957249486954,7.736717391114704,-3.6494083843569998,7.68838700658911,-2.9929754794085834,7.629313869190485,-2.33277047992027,7.559815101801779,-1.6688609715912817,7.4802626794073355,-1.0012715760799291,7.391081962837797,-0.32998579134623995,7.292749963082985,0.3450517026351416,7.18579332624164,1.0239322522257577,7.070786029176821,1.706779931971778,6.9483467759458435,2.39374771938406,6.81913608507357,3.0850131220837596,6.6838530577379025,3.780773236747458,6.543231816936332,4.48123921928577,6.398037607702354,5.186630145689371,6.249062548440619,5.897166242976394,6.0971210234496604,6.613061469675205,5.943044706701017,7.334515425276409,5.787677206943603,8.06170456808817,5.6318683242021885,8.794772720928677,5.476467907738785,9.533820844089801,5.322319305545829,10.278896055005875,5.170252395439958,11.029979874061505,5.021076187825256,11.786975675972448,4.875570990194789,12.549695326173428,4.73448012343928,13.317844981646926,4.598501180031755,14.091010035626839,4.468276814157022,14.868639185611004,4.344385053854797,15.650027604116465,4.227329125245337,16.4342991916116,4.1175267789064165,17.220387891058856,4.0152991084704865,17.832242118263075,3.891205670043284,18.43868998409703,3.7689049956199527,19.03879812875961,3.6484547263029765,19.631554788208582,3.529888930886714,20.21586732874553,3.4132169930880867,20.79055978160077,3.2984224987772626,21.354370377518322,3.1854621232083495,21.905949081340765,3.074264518250077,22.443855126594237,2.964729199616487,22.966554550073333,2.85672543409762,23.472417726426038,2.7500911267902004,23.95971690273867,2.644631708328328,24.426623733120785,2.5401190221141623,24.871206813290122,2.4362902115486103,25.29142921515755,2.3328466072620153" fill="white" stroke="white" stroke-width="0" stroke-linejoin="round" filter="url(#fuzzy)"></polyline></g><g transform="translate(28.49135621557694 -22.477899542534587)"><polyline id="rightUpper" points="-22.96552495190464,-0.27985139810507986,-23.065126516241733,-0.3648555759611538,-23.132704304066603,-0.46478456688755276,-23.16951886113581,-0.5782717589621451,-23.176781592670025,-0.7040017108355956,-23.15565576455879,-0.8407092978494113,-23.10725750456504,-0.9871788581539689,-23.032656803529786,-1.142243338826563,-22.932878516576753,-1.3047834419894375,-22.808903364316993,-1.47372677092783,-22.66166893405357,-1.648046976208005,-22.492070680986107,-1.826762901795293,-22.300962929415515,-2.008937731172132,-22.089159873948585,-2.1936781334561015,-21.8574365807026,-2.380133409517965,-21.606529988510054,-2.5674946380997037,-21.337139910123177,-2.75499382193256,-21.04993003341865,-2.9419030338550725,-20.745528922602222,-3.127533562931113,-20.424531019413326,-3.31123506056793,-20.08749764432974,-3.4923946866341797,-19.734957997772195,-3.6704362555779717,-19.367410161309053,-3.8448193825449017,-18.985322098860898,-4.015038629496096,-18.589132657905193,-4.18062265132624,-18.179252570680926,-4.341133341981626,-17.71046309199593,-4.581479887369448,-17.227072797350726,-4.8119496003589255,-16.72910782797425,-5.031669063391904,-16.216567006196588,-5.239865488786776,-15.689431204120076,-5.435862488913084,-15.14767204468232,-5.619075912644156,-14.591259951614113,-5.789009747881617,-14.020171564795522,-5.945252089945665,-13.434396537513209,-6.0874711756250175,-12.833943732122211,-6.215411482680375,-12.218846830615252,-6.328889894595299,-11.58916937660279,-6.4277919303684055,-10.945009265206892,-6.512068039140699,-10.286502697372182,-6.5817299594520104,-9.613827615096877,-6.636847142920338,-8.927206634087167,-6.677543242138039,-8.226909490338041,-6.703992662578695,-7.513255017143712,-6.716417178308596,-6.786612669040788,-6.715082611296669,-6.047403609187344,-6.700295574116755,-5.296101376681025,-6.672400275836141,-4.533232150319374,-6.631775390884158,-3.759374625305454,-6.578830990694824,-2.975159519401987,-6.514005537917315,-2.1812687250371363,-6.437762942988238,-1.3784341238650368,-6.350589682859493,-0.567436080284291,-6.252991981675695,0.2508983695824787,-6.14549305319497,1.075697616944833,-6.028630404747059,1.9060478509333647,-5.902953202522547,2.7409956842180048,-5.7690196979871935,3.579551017152674,-5.627394715215121,4.4206901239431104,-5.478647198934879,5.263358944334731,-5.323347823082158,6.106476564317371,-5.162066659653078,6.9489388693438,-4.995370907651949,7.789622353558762,-4.823822681927343,8.627388068535529,-4.647976861690405,9.461085695016695,-4.468378998509246,10.289557721156156,-4.285563283573321,11.11164371075906,-4.100050574021663,11.926184645016647,-3.9123464781288657,12.732027321232742,-3.7229394991426927,13.528028792038832,-3.5322992375671856,14.31306082859458,-3.340874651685156,15.086014391270528,-3.14909237611396,15.845804091309994,-2.957355098188404,16.59137262696687,-2.766039991964708,17.32169517761626,-2.575497209639341,18.035783739334814,-2.3860484301767144,18.73578001814579,-2.1972529925337723,19.424028798857456,-2.008602343796074,20.09989405557228,-1.8202861947036109,20.762764440336422,-1.632483700499272,21.412055493382713,-1.4453634885339923,22.04721185337367,-1.259083685871902,22.667709467644517,-1.0737919468954802,23.27305780244621,-0.8896254809106963,23.862802053188386,-0.7067110797521696,24.436525354682473,-0.5251651453883182,24.993850991384598,-0.3450937175265012,25.53444460763867,-0.16659250121817948,26.058016417919344,0.010253105535944496,26.564323417075084,0.1853679841807685,27.053171590571118,0.3586872680016453,27.524418124732485,0.5301563145192301,27.977973616987033,0.6997306778843337,28.413804286108427,0.867376081272766,28.831934182459165,1.0330683892801922,29.232447398233596,1.1967935803169858,29.615490277700925,1.3585477190030653,29.9812736274482,1.518336928562758,30.33007492662336,1.6761773632196395,30.66224053717824,1.8320951805913925" fill="none" stroke="black" stroke-width="1.6666666666666665" stroke-linejoin="round" filter="url(#fuzzy)"></polyline><polyline id="rightLower" points="-22.776617626331966,0.23549897748620863,-22.671111081026055,0.34898742477082645,-22.523133753084814,0.4581619965871484,-22.335883425598556,0.5637497665416609,-22.112407244061885,0.666429455054304,-21.855604841435206,0.7668325801082967,-21.568231463206207,0.8655446079999631,-21.25290109245141,0.9631061040885596,-20.91208957489764,1.0600138835460995,-20.54813774398358,1.15672216210718,-20.163254545921273,1.2536437068188087,-19.759520164757568,1.3511509867902292,-19.33888914743574,1.4495773239427474,-18.903193528856928,1.5492180437595577,-18.454145956941677,1.6503316260355678,-17.99334281769142,1.7531408556272283,-17.52226736025003,1.857833973202354,-17.042292821965294,1.9645658259899565,-16.554685553450444,2.073459018530063,-16.06060814364567,2.184605063423547,-15.561122544879634,2.2980655320819556,-15.057193197930957,2.4138732054773295,-14.54969015708976,2.532033224892037,-14.039392215219166,2.652524242668595,-13.526990028816801,2.7752995729594954,-13.013089243076319,2.900288342477033,-12.323877026776596,3.0020386114383304,-11.644157870647472,3.1120358507536063,-10.974387911713087,3.2299469144217965,-10.314778379062023,3.3553400467221524,-9.665323287924178,3.487696663080192,-9.025825727927089,3.6264225777034826,-8.395922775871139,3.7708586890860207,-7.775109063362886,3.9202911344800047,-7.162759029645954,4.073960924433758,-6.558147889968837,4.231073068494593,-5.960471349828956,4.39080520317539,-5.368864095432298,4.552315733283662,-4.782417090708102,4.7147514977118945,-4.200193711217806,4.877254970787926,-3.621244745297708,5.0389710102841505,-3.0446222927746964,5.1990531631843275,-2.4693925915943398,5.356669540306758,-1.8946478027008036,5.511008270882618,-1.3195167835078374,5.6612825481882325,-0.7431748803002547,5.806735277330047,-0.1648527699052682,5.946643336281084,0.41615561902699394,6.080321461267679,1.0004860747944173,6.207125767605231,1.588697931125906,6.32645691708179,2.1812687250371363,6.437762942988238,2.778589653719659,6.5405417438938285,3.380961800124031,6.634343257265883,3.9885930968975987,6.718771324032421,4.601595998337577,6.793485255186476,5.219985830020064,6.858201111530913,5.843679785765646,6.9126927076624805,6.472496541602214,6.95679235129392,7.106156456385659,6.99039132901287,7.744282328739059,7.013440149576357,8.386400679971022,7.025948555839693,9.03194353263383,7.027985316418441,9.680250654381995,7.019677808182386,10.330572236791909,7.001211400680136,10.98207197880319,6.9728286535932344,11.63383054444241,6.934828338318532,12.284849364489817,6.887564294777539,12.934054751749681,6.831444134551645,13.580302299584943,6.766927801441885,14.22238153337679,6.6945260005520755,14.859020784569793,6.614798506994094,15.488892256963258,6.5283523653140625,16.11061725490941,6.435839990738239,16.722771543079123,6.337957183337369,17.323890807455722,6.23544106620828,17.912476187217603,6.129067958771512,18.490827228612343,6.018193934749533,19.061712648770488,5.901850416536401,19.624321262321043,5.780357944309465,20.17785378474979,5.65404000804262,20.721526895706166,5.523221561062936,21.254577302310164,5.388227533607276,21.776265802459175,5.249381346378932,22.285881348134932,5.107003424104248,22.782745108710312,4.961409709089242,23.266214534256303,4.812910174776245,23.73568741884881,4.66180733930051,24.1906059638756,4.508394779046853,24.63046084134313,4.352955642206274,25.054795257183482,4.195761162332583,25.46320901456119,4.037069171899028,25.855362577180166,3.8771226158549204,26.230981132590568,3.716148065182261,26.58985865549567,3.554354230452371,26.93186197105876,3.3919304753825115,27.256934818210006,3.229045330392514,27.56510191295337,3.0658450061614086,27.85647301167344,2.902451907184046,28.13124697444236,2.7389631453277294,28.389715828326686,2.575449053388837" fill="none" stroke="black" stroke-width="2.2222222222222223" stroke-linejoin="round" filter="url(#fuzzy)"></polyline><!--[--><circle r="4.957767938215818" cx="10.474379542484332" cy="2.210095534578741" stroke="black" fill="none" stroke-width="1" filter="url(#fuzzy)" clip-path="url(#rightEyeClipPath)"></circle><circle r="4.317514005067525" cx="8.18476672728572" cy="4.1291786206681245" stroke="black" fill="none" stroke-width="1" filter="url(#fuzzy)" clip-path="url(#rightEyeClipPath)"></circle><circle r="3.6947216052009697" cx="8.325380546691292" cy="5.360521019418458" stroke="black" fill="none" stroke-width="1" filter="url(#fuzzy)" clip-path="url(#rightEyeClipPath)"></circle><circle r="3.3334594031910054" cx="10.373794548423337" cy="2.697530721508829" stroke="black" fill="none" stroke-width="1" filter="url(#fuzzy)" clip-path="url(#rightEyeClipPath)"></circle><circle r="4.930889308626739" cx="6.861853634274635" cy="3.5097432926364522" stroke="black" fill="none" stroke-width="1" filter="url(#fuzzy)" clip-path="url(#rightEyeClipPath)"></circle><circle r="3.8408111514614984" cx="10.16900594309697" cy="6.611218432412073" stroke="black" fill="none" stroke-width="1" filter="url(#fuzzy)" clip-path="url(#rightEyeClipPath)"></circle><circle r="3.9405697808695344" cx="9.344058868442406" cy="2.799061526954448" stroke="black" fill="none" stroke-width="1" filter="url(#fuzzy)" clip-path="url(#rightEyeClipPath)"></circle><circle r="3.199846130303528" cx="9.527067796830483" cy="2.2741016828771192" stroke="black" fill="none" stroke-width="1" filter="url(#fuzzy)" clip-path="url(#rightEyeClipPath)"></circle><circle r="4.995493918333639" cx="7.321124458846388" cy="3.2270531248097836" stroke="black" fill="none" stroke-width="1" filter="url(#fuzzy)" clip-path="url(#rightEyeClipPath)"></circle><circle r="4.340308059315136" cx="7.661087410366951" cy="4.936623366001977" stroke="black" fill="none" stroke-width="1" filter="url(#fuzzy)" clip-path="url(#rightEyeClipPath)"></circle><!--]--></g><g transform="translate(-36.68290499260027 -21.133200451136137)"><polyline id="leftUpper" points="27.417173415922854,0.955126712833247,27.53216943321584,0.8678325109204734,27.601903204341497,0.7664454738876829,27.628241574250083,0.6519101844644117,27.61299665110014,0.5251494849670508,27.557926649092877,0.38706462863226143,27.464736731306587,0.23853543095039065,27.335079852530995,0.0804204209988848,27.170557602101702,-0.08644300722429454,26.97272104673452,-0.2612384434672581,26.743071573359906,-0.44317030989077555,26.483061731957356,-0.6314637097348554,26.194096078389762,-0.8253642759853381,25.877532017237833,-1.024138020040477,25.534680644634484,-1.227071180377524,25.16680759109922,-1.4334700712193147,24.77513386437252,-1.6426609312008607,24.36083669225026,-1.8539897720359235,23.925050365418066,-2.0668222271836107,23.46886708028574,-2.280543400514955,22.993337781821616,-2.4945577149795044,22.499473006386985,-2.7082887612718984,21.988243724570495,-2.921179146498474,21.460582184022492,-3.132690342843823,20.91738275228945,-3.342302536237403,20.359502759648365,-3.549514475020109,19.70946355586851,-3.817090238005523,19.04287152455438,-4.081280794960139,18.36060724598591,-4.341038147728371,17.66352530109254,-4.595350881281547,16.952458349955997,-4.843247159277046,16.228220877786057,-5.083797455085284,15.491612617427,-5.31611702462736,14.74342165745214,-5.539368127366254,13.98442724490427,-5.75276200179445,13.215402291739471,-5.955560601760837,12.437115594031917,-6.147078099979797,11.650333772997364,-6.326682165065291,10.855822946892784,-6.493795018432861,10.054350142849897,-6.647894277412412,9.246684457700066,-6.788513590914613,8.433597976848299,-6.915243073993825,7.615866460253795,-7.027729547650393,6.794269804574844,-7.125676590215225,5.96959229053547,-7.208844406659429,5.142622624571593,-7.277049522172,4.314153783814194,-7.33016430634834,3.4849826734671723,-7.368116334332525,2.65590960563745,-7.390887591256124,1.8277376086749277,-7.39851352631657,1.0012715760799291,-7.391081962837797,0.1773172640357037,-7.368731870656131,-0.6433198533763974,-7.331652007174235,-1.459835862221458,-7.2800794334260335,-2.271429810957664,-7.214297911495441,-3.0773052278274644,-7.13463618963177,-3.87667174433567,-7.041466181404726,-4.668746815756829,-6.935201045241804,-5.452757529614341,-6.816293170691033,-6.227942493073623,-6.68523207775182,-6.993553790191823,-6.5425422356169065,-7.748858999966386,-6.388780807168192,-8.493143266124928,-6.224535325569358,-9.22571140959878,-6.050421309298118,-9.945890074622646,-5.867079821961042,-10.653029899402675,-5.6751749832337115,-11.346507702295481,-5.4753914372691685,-12.025728674440378,-5.268431784917482,-12.690128569787296,-5.05501398609934,-13.33917588346278,-4.835868738676482,-13.9723740094164,-4.611736840161895,-14.589263368290082,-4.383366538612603,-15.18942349645262,-4.151510879047956,-15.772475087141897,-3.916925051736266,-16.338081974657086,-3.680363748692635,-16.885953052543364,-3.4425785347309406,-17.417583071890874,-3.20278305731229,-17.934422670532975,-2.959938123624278,-18.436163675843765,-2.714406638186346,-18.922517812660864,-2.4665435097783357,-19.393217916357273,-2.216694801948962,-19.848019145913362,-1.9651968835242881,-20.286700196988726,-1.7123755791162143,-20.709064514994175,-1.458545319630936,-21.114941508163618,-1.2040082927774423,-21.50418776062603,-0.949053593575977,-21.876688245477318,-0.6939563748665276,-22.232357537852323,-0.4389769978172957,-22.571141027996667,-0.18436018243317998,-22.89301613433875,0.06966584193575631,-23.197993516561638,0.3228901860857918,-23.486118288674994,0.5751201504510841,-23.757471232086992,0.8261820745951889,-24.012170008676293,1.0759221867025723,-24.250370373863902,1.3242074530701475,-24.472267389685165,1.5709264275987915,-24.67809663786163,1.8159901012848645,-24.868135432873004,2.0593327517117364,-25.042704035029104,2.3009127925413044,-25.202166863541734,2.5407136230055243" fill="none" stroke="black" stroke-width="2.2222222222222223" stroke-linejoin="round" filter="url(#fuzzy)"></polyline><polyline id="leftLower" points="27.62530646472014,1.226055753296238,27.58569990006506,1.3507485497072442,27.495017175522428,1.4706253470707806,27.356486055079102,1.5864041447743489,27.173204124764347,1.6987560017417607,26.948141258064958,1.8083061492024475,26.68414208134022,1.9156351034607764,26.383928439237103,2.0212797786653587,26.050101860105208,2.1257345995783665,25.685146021411953,2.2294526143448428,25.29142921515755,2.3328466072620153,24.871206813290122,2.4362902115486103,24.426623733120785,2.5401190221141623,23.95971690273867,2.644631708328328,23.472417726426038,2.7500911267902004,22.966554550073333,2.85672543409762,22.443855126594237,2.964729199616487,21.905949081340765,3.074264518250077,21.354370377518322,3.1854621232083495,20.79055978160077,3.2984224987772626,20.21586732874553,3.4132169930880867,19.631554788208582,3.529888930886714,19.03879812875961,3.6484547263029765,18.43868998409703,3.7689049956199527,17.832242118263075,3.891205670043284,17.220387891058856,4.0152991084704865,16.4342991916116,4.1175267789064165,15.650027604116465,4.227329125245337,14.868639185611004,4.344385053854797,14.091010035626839,4.468276814157022,13.317844981646926,4.598501180031755,12.549695326173428,4.73448012343928,11.786975675972448,4.875570990194789,11.029979874061505,5.021076187825256,10.278896055005875,5.170252395439958,9.533820844089801,5.322319305545829,8.794772720928677,5.476467907738785,8.06170456808817,5.6318683242021885,7.334515425276409,5.787677206943603,6.613061469675205,5.943044706701017,5.897166242976394,6.0971210234496604,5.186630145689371,6.249062548440619,4.48123921928577,6.398037607702354,3.780773236747458,6.543231816936332,3.0850131220837596,6.6838530577379025,2.39374771938406,6.81913608507357,1.706779931971778,6.9483467759458435,1.0239322522257577,7.070786029176821,0.3450517026351416,7.18579332624164,-0.32998579134623995,7.292749963082985,-1.0012715760799291,7.391081962837797,-1.6688609715912817,7.4802626794073355,-2.33277047992027,7.559815101801779,-2.9929754794085834,7.629313869190485,-3.6494083843569998,7.68838700658911,-4.301957249486954,7.736717391114704,-4.950464798640296,7.77404395873998,-5.594727857151169,7.800162661477888,-6.234497167323973,7.814927184927681,-6.869477566451358,7.818249436113578,-7.499328506806204,7.810099811547266,-8.12366489704159,7.790507255445313,-8.742058244432593,7.759559118032713,-9.354038077394026,7.717400823863699,-9.959093627707942,7.664235360090977,-10.556675751894891,7.600322594614543,-11.146199071162975,7.525978434041264,-11.727044309368496,7.4415738313863375,-12.298560808422312,7.347533653447844,-12.860069200575714,7.244335417785496,-13.410864217019917,7.132507909234789,-13.95021761223302,7.012629685887672,-14.477381183508408,6.88532748447094,-14.9915898650986,6.7512745350534615,-15.492064876408426,6.611188795013446,-15.978016903671573,6.4658311121968755,-16.451177662353892,6.31447456623523,-16.913477831159078,6.156054065500783,-17.364427004883446,5.99085880627225,-17.803545577362428,5.819183015074083,-18.230367495851503,5.64132461861056,-18.644443015407205,5.457583913699837,-19.045341453268094,5.26826223720804,-19.432653943235742,5.073660635983321,-19.80599619005571,4.874078536789951,-20.16501122379855,4.669812416242374,-20.509372154240758,4.461154470739295,-20.838784925245776,4.248391286397741,-21.15299106914496,4.031802508987143,-21.451770461118585,3.8116595138634044,-21.73494407357679,3.5882240759029784,-22.002376730540618,3.3617470394369344,-22.25397986202291,3.1324669881850378,-22.489714258409393,2.9006089151898213,-22.709592824839568,2.666382892750655,-22.913683335587763,2.4299827423578213,-23.102111188444063,2.1915847046265915,-23.275062159095313,1.9513461092312923,-23.432785155506124,1.7094040448393866,-23.575594972299804,1.46587402904554" fill="none" stroke="black" stroke-width="2.2222222222222223" stroke-linejoin="round" filter="url(#fuzzy)"></polyline><!--[--><circle r="3.04585664931442" cx="7.711167129993411" cy="2.2547818824646972" stroke="black" fill="none" stroke-width="1" filter="url(#fuzzy)" clip-path="url(#leftEyeClipPath)"></circle><circle r="4.275329420227341" cx="6.209756041845377" cy="4.214903472999437" stroke="black" fill="none" stroke-width="1" filter="url(#fuzzy)" clip-path="url(#leftEyeClipPath)"></circle><circle r="3.3275179993916133" cx="8.98777474073657" cy="2.9021187887434348" stroke="black" fill="none" stroke-width="1" filter="url(#fuzzy)" clip-path="url(#leftEyeClipPath)"></circle><circle r="4.575812636370161" cx="7.889374004523649" cy="-0.39861883696204536" stroke="black" fill="none" stroke-width="1" filter="url(#fuzzy)" clip-path="url(#leftEyeClipPath)"></circle><circle r="4.7081568191145315" cx="9.169667758331196" cy="2.2855250718344626" stroke="black" fill="none" stroke-width="1" filter="url(#fuzzy)" clip-path="url(#leftEyeClipPath)"></circle><circle r="4.118037993174655" cx="10.408071106176042" cy="3.387568568407417" stroke="black" fill="none" stroke-width="1" filter="url(#fuzzy)" clip-path="url(#leftEyeClipPath)"></circle><circle r="4.960326089687246" cx="9.209070012865842" cy="2.134937576376821" stroke="black" fill="none" stroke-width="1" filter="url(#fuzzy)" clip-path="url(#leftEyeClipPath)"></circle><circle r="4.658562941118072" cx="8.374942059872302" cy="0.17274271817391762" stroke="black" fill="none" stroke-width="1" filter="url(#fuzzy)" clip-path="url(#leftEyeClipPath)"></circle><circle r="4.297838280194271" cx="6.848775639260646" cy="3.287881200540382" stroke="black" fill="none" stroke-width="1" filter="url(#fuzzy)" clip-path="url(#leftEyeClipPath)"></circle><circle r="3.140168674817217" cx="6.144792209279993" cy="2.5536849828506734" stroke="black" fill="none" stroke-width="1" filter="url(#fuzzy)" clip-path="url(#leftEyeClipPath)"></circle><!--]--></g><g id="hairs"><!--[--><polyline points="13,-76,15.132093063961529,-75.75240833969775,16.273421151403287,-75.4008679097422,16.752650575507424,-75.134179496069,16.787989938803687,-74.91644701070463,16.487976665853854,-74.67146089459152,15.879900337434155,-74.3523549963823,14.947289351677938,-73.95573013808675,13.64157065559339,-73.50342261855357,11.890863418579102,-73.01399993896484,9.619352027413726,-72.4865086927006,6.765034426410404,-71.90670550501986,3.285864178959315,-71.26655742773585,-0.8359289934083591,-70.57687769848582,-5.5787120425156616,-69.86056529312597,-10.872351303170321,-69.1328943351628,-16.65046747630932,-68.38799911917614,-22.989850951162282,-67.62093484489817" fill="none" stroke="rgb(185, 55, 55)" stroke-width="2" stroke-linejoin="round" filter="url(#fuzzy)"></polyline><polyline points="54,-52,55.28806855634623,-50.89671659598364,55.92453700209263,-49.960530122584785,56.28093081867773,-49.31581232469155,56.49093485953469,-48.87973597011518,56.59448573478092,-48.59590528305267,56.576863541766244,-48.448207111361675,56.40845036871624,-48.43220863600514,56.06729574666973,-48.54520498886565,55.536273084073784,-48.794787846225645,54.79133798490646,-49.20637655009625,53.79754253322732,-49.81918460862826,52.51508296735415,-50.67395371112917,50.9083667220519,-51.800862188809226,48.95317244601331,-53.21399345830484,46.641808101395185,-54.91622387160305,43.98301594115429,-56.91645226233733,40.98531148013059,-59.255088781226334,37.61914888953081,-62.021623795474575,33.78496303511005,-65.33992246302905,29.32446727240493,-69.31593869665689" fill="none" stroke="rgb(185, 55, 55)" stroke-width="2" stroke-linejoin="round" filter="url(#fuzzy)"></polyline><polyline points="50,-57,50.398384884388385,-56.57239950154665,50.89812371492791,-55.95537116558312,51.161808553174666,-55.444854783416766,51.15130157703277,-55.06169942709376,50.814138270833716,-54.8615672492221,50.05046187146609,-54.951889287256485,48.75957250105857,-55.43750356514762,46.87867860985661,-56.38180975703193,44.39403008576062,-57.79977448306114,41.32649485660012,-59.67337918723241,37.694968531266674,-61.973764189098645,33.483999102068324,-64.67405547963023,28.67865648160833,-67.74616263902956,23.330269793371123,-71.16569871510804" fill="none" stroke="rgb(185, 55, 55)" stroke-width="2" stroke-linejoin="round" filter="url(#fuzzy)"></polyline><polyline points="7,-76,7.888351874022834,-76.43037503708571,8.674675686955066,-76.46042835728699,9.500170247709027,-76.38554347117207,10.364927768436548,-76.26715669733326,11.169634614701895,-76.13373747555923,11.824719530562737,-75.99019972762267,12.28704727548016,-75.82792913539105,12.538939609955557,-75.6424838214126,12.561725549557847,-75.4406663105186,12.330031463741054,-75.23366988605989,11.820495969321367,-75.02619921078282,11.018108170855374,-74.81207917660723,9.911553688092015,-74.57891893959054,8.481300694032615,-74.31655080569656,6.691143287345694,-74.0219298243649,4.4928620159757005,-73.69687295886908,1.8450990532025315,-73.34068095061765,-1.2642986396559515,-72.94391306715602,-4.808448459006435,-72.49144728962236,-8.73042792849272,-71.98267361544836,-12.961732447613494,-71.47100644997967,-17.435259630851526,-71.0977354611851" fill="none" stroke="rgb(185, 55, 55)" stroke-width="2" stroke-linejoin="round" filter="url(#fuzzy)"></polyline><polyline points="50,-57,51.34038099789463,-55.64666200682531,52.231951010702005,-54.66795180316915,53.09673943373076,-53.632539166514825,53.95159670567002,-52.553327390597666,54.70581911502401,-51.55267800539062,55.29385224458687,-50.72604724821024,55.70440653500792,-50.10898502037326,55.958701673790756,-49.69244791504944,56.07992176366851,-49.45057753357179,56.076113961312174,-49.36049068479258,55.938921126459505,-49.40985623335155,55.64932351755146,-49.59810832889957,55.18195751051813,-49.937287829030566,54.50653980401448,-50.45328699514828,53.589916957351946,-51.18493921783899,52.40111445342491,-52.17924069205939,50.91758975705824,-53.48261741794224,49.128942977339634,-55.128178738743415,47.0352284257048,-57.12134650577276,44.63822951877174,-59.435764137928174,41.92634592977826,-62.04239502798446,38.837271520550686,-65.0185173951729" fill="none" stroke="rgb(185, 55, 55)" stroke-width="2" stroke-linejoin="round" filter="url(#fuzzy)"></polyline><polyline points="63,-38,63.600739837158585,-36.816092570119416,63.40949479700669,-35.58455731895865,62.31897101025169,-34.74500836298402,60.33983501441254,-34.34678925314229,57.52444527876275,-34.29690492463056,53.90144137335494,-34.53628008102264,49.466935404747055,-35.06447306574966,44.201063633639464,-35.89210080203939,38.076272788975245,-36.99950837547753,31.053398657424154,-38.34547387780984,23.08298517529276,-39.917753653279036,14.121875693189555,-41.769430741651405,4.1494773469651705,-43.98482978684174,-6.840166131543345,-46.58752981376281,-18.860126779591376,-49.49282382113867,-31.919702938188422,-52.60420716546696" fill="none" stroke="rgb(185, 55, 55)" stroke-width="2" stroke-linejoin="round" filter="url(#fuzzy)"></polyline><polyline points="9,-77,10.680044019686015,-76.37546154820434,12.07721527241165,-76.12752155388075,13.213047387886226,-75.99673534529941,14.174313264760269,-75.86502275035232,15.013855532297654,-75.70624069388454,15.713031478196587,-75.5408267609035,16.23704531761925,-75.3916790617924,16.573265730518916,-75.26134715208063,16.727533735034715,-75.13488729142549,16.70271015474112,-74.99603700457433,16.483182484140293,-74.84070272298747,16.033878131474523,-74.67883345619776,15.310852673842772,-74.52609895035935,14.274771268883049,-74.39359462773481,12.898989923278888,-74.28352698718973,11.171144261114488,-74.19278153722219,9.094822398741169,-74.1200259683801,6.693429321258919,-74.07106437426091,3.9983862256775122,-74.06061164925919,0.9912413224814447,-74.10790226674949,-2.490130113332233,-74.21259081935911,-6.753739647379927,-74.28584971158146" fill="none" stroke="rgb(185, 55, 55)" stroke-width="2" stroke-linejoin="round" filter="url(#fuzzy)"></polyline><polyline points="-19,-73,-17.65005947191256,-73.05179704125142,-15.87067727063659,-73.26060525487486,-13.90408698589447,-73.53166836322865,-11.845316645352117,-73.76606734877687,-9.718449452120467,-73.92793396930256,-7.518123594954031,-74.02627726359195,-5.253035862574353,-74.0843170830094,-2.955101588187791,-74.12147125663826,-0.654955177306916,-74.14921954613243,1.642529010772705,-74.17254543304443,3.9544513833712234,-74.19208684460828,6.290737638037951,-74.20733904299743,8.628399129537806,-74.22052440299753,10.91479293547928,-74.23713418123467,13.094191547236505,-74.26071162391372,15.119775718085114,-74.28848060430107,16.91862743291992,-74.32123054125185,18.347055231253837,-74.38813149548908,19.285441524629327,-74.55899760915872" fill="none" stroke="rgb(185, 55, 55)" stroke-width="2" stroke-linejoin="round" filter="url(#fuzzy)"></polyline><polyline points="-3,-76,-1.2224744174848357,-76.06457208590801,0.16075425602335214,-76.2899479589957,1.2274821618886333,-76.55075456604762,2.128030033491086,-76.74102726834826,2.9514365796786786,-76.83220641548463,3.728312193147721,-76.84015410653505,4.431317790326595,-76.7941124228478,4.978187561035156,-76.71908569335938,5.2579259713552124,-76.62640329323443,5.170398830643178,-76.51380236256615,4.65333658369192,-76.3776335564305,3.683145722898189,-76.22963114106096,2.25192574571588,-76.10131155185096,0.31320218221450036,-76.02469566919228,-2.3215200980718174,-76.00142057088121" fill="none" stroke="rgb(185, 55, 55)" stroke-width="2" stroke-linejoin="round" filter="url(#fuzzy)"></polyline><polyline points="62,-41,62.608255412972674,-39.711834377873245,62.89281380731482,-38.949386172958704,63.151100244047576,-38.22535024297683,63.41586387455988,-37.46545879601626,63.59910715129831,-36.778641914996115,63.60752788598126,-36.30153346150304,63.389023326130925,-36.118292089238935,62.92647987731994,-36.25806565885311,62.214824954287515,-36.72891666884582,61.24745988845825,-37.543232917785645,60.01616520129352,-38.718768852348745,58.51385326734989,-40.26897496484405,56.73091695812559,-42.203789117974466,54.64755170350861,-44.54535881636993,52.232437075920416,-47.33951524063923,49.45328353310265,-50.64000813417198,46.291653225621886,-54.47293769006754,42.75006152370132,-58.83054803888852,38.87450824322549,-63.71760610237835" fill="none" stroke="rgb(185, 55, 55)" stroke-width="2" stroke-linejoin="round" filter="url(#fuzzy)"></polyline><polyline points="56,-49,56.620814134608516,-48.76535188025142,56.97052736345562,-48.345341519316186,57.293069113758044,-47.91921009868723,57.55704960320145,-47.590681023546495,57.684186520535256,-47.407217733383305,57.638534647808825,-47.37478863821501,57.40148374402669,-47.50830160968205,56.930267333984375,-47.85929870605469,56.15279363304324,-48.50528109769179,54.995173871157775,-49.52552558695498,53.411302918966015,-50.987145151776076,51.38888960890472,-52.94418366148602,48.930751932502304,-55.441749493527496,46.04087194148564,-58.51240778074049,42.748217981564444,-62.11874915567476" fill="none" stroke="rgb(185, 55, 55)" stroke-width="2" stroke-linejoin="round" filter="url(#fuzzy)"></polyline><polyline points="-3,-76,-1.308879915335831,-76.04279322533755,-0.24060436646600133,-76.18589835332165,0.32740816933406236,-76.2840415287932,0.583310430116158,-76.22664517600404,0.6447750062505122,-75.98021775278225,0.5527500891842929,-75.5541114974478,0.28381334590631013,-74.97449571509162,-0.2202742283938992,-74.26810350986447,-1.016167767836711,-73.45143108831608,-2.1374934792598452,-72.52648211444337,-3.5984157034074897,-71.48307668010608,-5.412450089570766,-70.30394065893893,-7.60767368904534,-68.9681249696668,-10.22682773504993,-67.45174027019246,-13.315950282857434,-65.72936631459112,-16.913684703124847,-63.78065813772112,-21.04769027634857,-61.60200936167482,-25.732646116798783,-59.21342302502319,-30.964321111146635,-56.64318651977013,-36.72032388289907,-53.884383239483796,-42.97829135406643,-50.865113534169424,-49.71969259954968,-47.52849386555978" fill="none" stroke="rgb(185, 55, 55)" stroke-width="2" stroke-linejoin="round" filter="url(#fuzzy)"></polyline><polyline points="59,-46,59.82052321388991,-44.52913034964036,60.30967916344982,-43.62201928836182,60.382182031377035,-43.068951859891186,60.02495675644326,-42.82779991819398,59.25712913126239,-42.91562534952535,58.10505168897644,-43.3333444773246,56.58341980970181,-44.0618180789721,54.68002897025802,-45.09888297297019,52.354027029397734,-46.48549293017146,49.55051724638953,-48.293956053706204,46.221842591145275,-50.59088390483451,42.33745981787004,-53.411499180224936,37.866794980958204,-56.77127299446829,32.74827623687278,-60.70008537629042,26.923766089521166,-65.24726813862014,20.59836299164337,-70.41237848376345" fill="none" stroke="rgb(185, 55, 55)" stroke-width="2" stroke-linejoin="round" filter="url(#fuzzy)"></polyline><polyline points="-38,-62,-37.31800316031537,-62.38554019476729,-35.94819385854882,-62.865261188802926,-34.002969628363516,-63.316345292209306,-31.44409099744625,-63.802238307893134,-28.31687552758535,-64.33845494813883,-24.69559557723405,-64.916853075689,-20.661028871772924,-65.51517305247204,-16.30215868766943,-66.10336579103164,-11.704890439774271,-66.6612062286967,-6.927255389880905,-67.1915907436707,-1.981686554779392,-67.71535011568528,3.159693970889876,-68.25345412263395,8.537623586340338,-68.81364789265194,14.17322308412718,-69.3872787729002,20.04407041109542,-69.93961117062179,25.979512489004158,-70.40701499125933" fill="none" stroke="rgb(185, 55, 55)" stroke-width="2" stroke-linejoin="round" filter="url(#fuzzy)"></polyline><polyline points="-22,-71,-21.0341466314518,-71.24170633458712,-19.592718377950398,-71.60211599561156,-17.570914960786855,-71.79363141494889,-15.085278704857481,-71.77433335736146,-12.260612604878585,-71.58329085451706,-9.192441925873993,-71.24884973240329,-5.942101442155294,-70.77532736609774,-2.539919968277058,-70.16207439604442,1.0025909219817546,-69.41917745838327,4.675993639749123,-68.57012059895037,8.46286457464667,-67.64760165648114,12.340991850715726,-66.68867005898733,16.29396339378402,-65.72855259672532,20.315948902858477,-64.79066180059401,24.403628005182117,-63.876222332172624,28.542402893694057,-62.96329630869236,32.70164015255045,-62.02224182114364,36.8469848091374,-61.03999171348022,40.96414171261048,-60.026335093103086,45.06334399263621,-58.98401439347152" fill="none" stroke="rgb(185, 55, 55)" stroke-width="2" stroke-linejoin="round" filter="url(#fuzzy)"></polyline><polyline points="26,-73,26.998557529382552,-72.27062286812972,28.05355257706114,-71.68623803463522,29.204188932572592,-71.13536180743914,30.487760116146866,-70.60326294868375,31.843943048105984,-70.06532896307294,33.17303685354731,-69.49646459075734,34.410458155192146,-68.8883681339317,35.5402454662012,-68.2544302651674,36.56799525035768,-67.62313015937573,37.49450063705444,-67.02762937545776,38.30585856419957,-66.49918893130749,38.9740038205581,-66.06655886593472,39.4597080485604,-65.7581228605597,39.71680457234124,-65.60255394975202,39.698467232281246,-65.62669867477393,39.3639262405772,-65.85291914485542,38.68569147277202,-66.29946881901806,37.66142964248828,-66.98890315559873,36.33757069563967,-67.95478158761296" fill="none" stroke="rgb(185, 55, 55)" stroke-width="2" stroke-linejoin="round" filter="url(#fuzzy)"></polyline><polyline points="39,-66,39.75677521325948,-65.66345433188789,40.47836304760102,-65.00459057217627,41.10336215939628,-64.4002646491814,41.522521826968315,-63.95827590403837,41.687314810951115,-63.67977495163618,41.5528189666177,-63.562003394387176,41.066557924871354,-63.61726379562408,40.183805944630066,-63.86420894823878,38.87442130324453,-64.31943099674407,37.11411393335544,-64.993906468922,34.87572892606026,-65.89183808122586,32.135257250230296,-67.01073110697207,28.879671125639803,-68.34562032840356,25.07939532726944,-69.90367312358651,20.623891656428903,-71.73616365997484,15.321179646387058,-73.99453672048848" fill="none" stroke="rgb(185, 55, 55)" stroke-width="2" stroke-linejoin="round" filter="url(#fuzzy)"></polyline><polyline points="-24,-70,-22.530921619838395,-70.61187426622577,-21.298071474892858,-70.91123105269943,-19.83751747533672,-71.18683843664401,-17.990287635442204,-71.46828170127819,-15.746322219729798,-71.70513721689528,-13.173565056183225,-71.865819013059,-10.369048785042299,-71.94985442267232,-7.426454952769176,-71.9680394586894,-4.417286965002276,-71.9292290754002,-1.3852868054467784,-71.84137253289059,1.6463720798492432,-71.71735191345215,4.6614978435019525,-71.5761763148176,7.642388116874472,-71.43781538373472,10.57395053271659,-71.3159202042282,13.455337786868695,-71.21325479388987,16.30351569382254,-71.12202208305081,19.13711753230369,-71.0291320643162,21.94885012180333,-70.925849366709,24.697537041460766,-70.8198811448881,27.36472991530551,-70.7377551828591,30.1506839802178,-70.64723588974667" fill="none" stroke="rgb(185, 55, 55)" stroke-width="2" stroke-linejoin="round" filter="url(#fuzzy)"></polyline><polyline points="-3,-76,-2.360687688653769,-76.015576257373,-1.1792782581835424,-76.12165479863911,-0.05829181595614817,-76.31950658733993,0.8579304913058574,-76.52924906048752,1.6074529143296021,-76.67916251893712,2.2572711577951585,-76.73925816112649,2.838542229321447,-76.71389545095468,3.331034912967417,-76.62423247290161,3.679596122404484,-76.49333920230819,3.8240054972863184,-76.33726101613956,3.7198984385051608,-76.1627096800905,3.3389328704892804,-75.9700806373234,2.654606315613939,-75.75816224027058,1.6301246255664656,-75.52596682848359,0.21859756380783146,-75.26900303403526,-1.62942063242404,-74.9725593312312,-3.964711864580025,-74.61174173256721,-6.848587355185269,-74.1708390930855,-10.35162148129777,-73.682498982456,-14.493481324166593,-73.25481851296907" fill="none" stroke="rgb(185, 55, 55)" stroke-width="2" stroke-linejoin="round" filter="url(#fuzzy)"></polyline><polyline points="50,-57,32.06037798102926,-64.82030720850332,18.026800223086042,-66.36034449801205,3.5983578232923117,-67.60954656171135,-7.1993485532418395,-68.36792223491157,-13.323363981702641,-68.4453842642697,-15.971522959219639,-68.16894350685145,-16.983099805363146,-67.80759605817407,-17.724761901929313,-67.40191334397811,-18.487148220041743,-66.93227527609432,-18.52638053894043,-66.42565250396729,-16.666324431070628,-65.86947401734362,-12.037717977275289,-65.08309690286012,-4.560046517377397,-63.72260078965632,4.771546568764563,-61.441103681858806,13.418865837857084,-58.1306572277108,16.9119750067732,-54.23204934987452,10.467559821559902,-51.07538851246098,-4.3323169519342155,-50.73490428732934,-7.52755475594136,-54.46439247762375,45,-62" fill="none" stroke="rgb(185, 55, 55)" stroke-width="2" stroke-linejoin="round" filter="url(#fuzzy)"></polyline><polyline points="-24,-70,16.043495834558932,-63.38465242960947,24.141371240151404,-60.42904342713988,23.582620040095073,-59.09713086111258,22.501354558145202,-60.16692520530686,22.532208058142515,-62.79452489908433,22.538935213515895,-65.66593145704493,21.666145823290247,-67.77059882368735,20.312305744473385,-68.58352558400499,19.52385354075112,-68.05240199123335,20.04504118073602,-66.5161517522826,21.85132322515373,-64.53357194053144,24.314128178161887,-62.64441204959356,26.680344274630556,-61.16734100036544,28.49185281967608,-60.12573606403205,29.801397638004772,-59.291194829058725,31.213475295520443,-58.276458924563165,33.687118337023975,-56.66737034151633,37.92160004294152,-54.23663871792673,43.38921421842093,-51.17728630313562,47.42452205897087,-48.19259568490584,44.217301286099456,-46.5246498503616,21.872943249740032,-48.14639445061411,-46,-56" fill="none" stroke="rgb(185, 55, 55)" stroke-width="2" stroke-linejoin="round" filter="url(#fuzzy)"></polyline><polyline points="40,-66,20.080988221564887,-70.3763104639642,22.648548031815274,-69.09475245422726,26.849591315137133,-67.1569810365153,28.928259405585155,-65.74071590716247,28.412296232811627,-65.3049092077407,25.31866284272216,-66.13385763720719,20.620306640309575,-67.89255780580868,16.17341363760629,-69.65993932174777,13.919657137964375,-70.41407880021575,14.997850571680448,-69.53889862888067,19.145997524261475,-67.11680030822754,24.586819282861615,-63.93301449680032,28.52995467573917,-61.160009551795184,28.24788938687256,-59.794996995706114,22.388655209505583,-60.132498893530844,11.992305303188882,-61.65601356565681,0.6780182313977579,-63.49206649522981,-6.517432939141401,-65.06602401433499,-6.256966429028781,-66.29314685520073,-2.142411912212074,-66.89685520112164,-9.572674928864185,-64.76074806712217,-50,-52" fill="none" stroke="rgb(185, 55, 55)" stroke-width="2" stroke-linejoin="round" filter="url(#fuzzy)"></polyline><polyline points="-9,-75,-12.60843896644623,-70.35772507786695,-4.40876606032484,-65.01651507243444,8.300140880131169,-61.56620540741132,14.818604323051588,-59.426944400057465,12.541603600180679,-58.55128417449487,4.408995342718339,-58.83969124765677,-5.476640958354847,-59.746580936141136,-14.201529948264557,-60.59079682743673,-20.063025410902124,-61.0014143123578,-21.854877471923828,-61.1039981842041,-18.862650719247007,-61.368812787088174,-11.664551163253064,-62.25496634667038,-2.6773585109783826,-63.87673112857898,4.659247439752016,-65.87030949051953,8.047821056225075,-67.50444350886573,8.265385104524611,-67.99976938407639,8.387918046457235,-67.01395289598756,8.505616385796763,-64.92986955165149,-3.1430327701873306,-61.338957478552366,-53,-48" fill="none" stroke="rgb(185, 55, 55)" stroke-width="2" stroke-linejoin="round" filter="url(#fuzzy)"></polyline><polyline points="-10,-75,10.096252453184947,-66.17975385668345,7.141664181862876,-64.81937331103316,0.7578430931981338,-65.13013964209637,-7.948630327684471,-64.23079816904368,-16.66536133444186,-61.47617425087454,-22.02028970772766,-57.74670309746051,-22.17546860143058,-54.300532557170165,-17.768362758644123,-51.959943468347326,-11.0391756635429,-50.895654984245304,-4.421654525595399,-50.836706071190065,0.3608423364106795,-51.42658249296468,2.6066649674762794,-52.47120796522057,2.7464107247507275,-53.93987856571052,2.3158510486101385,-55.80049895538886,3.3524349751629634,-57.94594899395617,6.897899932094568,-60.37416050048172,11.277328240441937,-63.41216934140649,12.147793922944725,-67.46485385698665,6.449292495755865,-72.0668910213874,-1.1028642700202196,-75.39152155047984,3,-77" fill="none" stroke="rgb(185, 55, 55)" stroke-width="2" stroke-linejoin="round" filter="url(#fuzzy)"></polyline><polyline points="-41,-60,-23.78978240339248,-65.22548902724074,-17.008796897154774,-62.934724140347825,-2.6229862849659646,-61.15881202802438,13.863121393043192,-60.78631565141957,26.831331840384944,-60.93862288144879,34.38716974605669,-60.86787592014918,36.342189553694844,-60.67842996473452,33.03450307394595,-60.977665998346886,25.70125255539316,-62.108624675523544,16.878876701071185,-63.70096434443172,9.786449864591567,-64.7903934215415,7.01675434953248,-64.32003961462807,9.555777806322068,-61.74529645122074,16.590278265902022,-57.51618945786216,25.55145565612948,-53.13501065355238,32.05395327904611,-50.45362079852626,31.669434502160414,-50.3843835260139,28.622316914517242,-51.43903785068319,62,-42" fill="none" stroke="rgb(185, 55, 55)" stroke-width="2" stroke-linejoin="round" filter="url(#fuzzy)"></polyline><polyline points="-19,-73,28.851501343819702,-47.41050837521456,31.5194276816098,-43.092537817888115,26.82780681534621,-45.88839655575236,24.106818017782643,-49.644910007948056,19.448454933350597,-52.315785570567236,10.523389488260324,-53.824921492583826,0.37625870832955566,-54.61068194446674,-5.5797576904296875,-54.79396057128906,-3.6907070813241765,-54.23592138751318,5.761282778311813,-53.19903667057656,18.70322102266734,-52.762825771953565,29.095130247296765,-54.289903566474095,31.839778781848118,-58.23456033989145,25.497073878595263,-63.766258113490494,13.409338664750939,-70.26670669129722,12,-76" fill="none" stroke="rgb(185, 55, 55)" stroke-width="2" stroke-linejoin="round" filter="url(#fuzzy)"></polyline><polyline points="59,-46,18.533915361164432,-62.989060372982074,-8.618405696223409,-65.60646477956031,-22.933181283421725,-64.34941920198769,-27.762702351034307,-63.304096904127285,-26.57569567944157,-63.21914212261685,-21.818745358095946,-63.566196923570615,-15.53053458919702,-63.602233195483535,-9.90150130513514,-62.96115754717805,-6.822410583496094,-61.91154098510742,-6.922891056660983,-61.20068762333137,-9.040047578440591,-61.60412463068221,-10.606566967086762,-63.478563349807764,-8.913902976578735,-66.53549579163465,-2.906913710793215,-69.89330904568372,5.20366093707587,-72.4198414274759,9.638869707672873,-73.26254823560966,2.3647178725676827,-72.0330105208036,-28,-68" fill="none" stroke="rgb(185, 55, 55)" stroke-width="2" stroke-linejoin="round" filter="url(#fuzzy)"></polyline><polyline points="9,-76,16.77854632381886,-63.314780731824186,10.924388652869034,-60.46462200910691,8.50223048278534,-59.9933043034807,5.388569839632513,-60.27796867981137,1.140771799700232,-60.990953457206636,-2.577123597387356,-61.712118564274206,-4.59687927456063,-62.202163021376656,-4.392594666951422,-62.47583495916712,-1.5632863644987216,-62.49952309756898,4.154008228460166,-62.012188101962266,12.36745359030395,-60.71569118555675,21.59198570251465,-58.649140655994415,29.398826856777635,-56.39008058089045,33.2539500598898,-54.85949129654467,31.70554879396658,-54.79709103056125,25.314262901033278,-56.230919057321714,16.689561212586185,-58.33928840359096,9.220025450022092,-59.912624363465525,4.67742797600521,-60.19539632671424,0.9510577638748946,-59.421339777360245,-7.606837888980497,-58.276692232829795,-24.867047071722432,-56.42871480066323,-44.91656490994331,-52.19141659944074,-56,-45" fill="none" stroke="rgb(185, 55, 55)" stroke-width="2" stroke-linejoin="round" filter="url(#fuzzy)"></polyline><polyline points="-18,-73,-22.68948036472348,-69.94200548107847,-24.81550718671922,-68.0115182192314,-25.330457630561686,-66.96426965353584,-22.26312079653191,-66.7274123150908,-15.220720759569959,-66.64321101980578,-5.248686462635259,-66.31968856986134,5.654478164480249,-65.72918514408673,15.381757884382102,-65.04270865082427,22.53134398144399,-64.47386260555706,26.778122933451268,-64.1303404150685,28.728248008669055,-63.91901746072514,29.420183956623077,-63.60760974884033,29.768841277128104,-63.03227425685235,30.276268809831755,-62.273483029833436,31.13627042976123,-61.61346945112676,32.49715169138285,-61.2866531723726,34.453402559739196,-61.25865694346704,36.59138893324818,-61.27990251427525,37.421336336502314,-61.20057412174805,34.24418238752144,-61.209915029289306,23.793146804182282,-61.59101717232999,4.201782261105122,-62.09607815269128,-19.35119150691428,-62.83773345843417,-19,-73" fill="none" stroke="rgb(185, 55, 55)" stroke-width="2" stroke-linejoin="round" filter="url(#fuzzy)"></polyline><polyline points="19,-75,35.720009780954456,-61.80791695372743,29.764747232374337,-59.358103503446074,21.633202038617863,-60.46246099819301,18.524001057751978,-61.25236573292847,19.402843521735615,-61.35238233145796,22.241558598441436,-61.386462986621865,25.670658567927237,-61.713827755049884,28.450095848370875,-62.3641262074178,29.20067492223057,-63.24856321887567,26.714373357367553,-64.19830589682296,20.541553083337117,-64.9101494889102,11.636221548896375,-65.01589983473959,2.643355292682539,-64.32537776007297,-3.01854530509602,-63.07039612519673,-3.8437670174182106,-61.8986841098909,-3.280547991117425,-61.52620542990858,-8.323117248986463,-62.324787336061156,-17.27264746459746,-64.85578954992985,1,-76" fill="none" stroke="rgb(185, 55, 55)" stroke-width="2" stroke-linejoin="round" filter="url(#fuzzy)"></polyline><polyline points="-48,-54,-19.656503077454783,-65.51669810786248,0.007294203509886283,-67.36628961042449,8.460915805807092,-67.1615587710562,10.444130597262024,-66.901346550434,10.342396457033834,-66.3090587598463,8.966780267749417,-65.50297911123356,5.771645980727354,-65.03949811534055,1.1589894862177115,-65.1591927453929,-3.261516673985219,-65.52934233403626,-5.7479174327038045,-65.58216758828095,-5.517604112625122,-64.9670877456665,-3.0920224691190668,-63.72875641576402,0.16006042528543626,-62.18946880441135,2.8454160323318334,-60.77108381458021,4.16954539153415,-59.95606863934741,4.086010443576458,-60.30670735411178,3.138012223383439,-62.208982249245544,2.1945463551440914,-65.17444440617936,1.843295249974124,-67.23735195062159,0.9551466464516869,-65.52333793609415,-7.480068191415302,-58.04042938348327,-57,-44" fill="none" stroke="rgb(185, 55, 55)" stroke-width="2" stroke-linejoin="round" filter="url(#fuzzy)"></polyline><polyline points="-4,-76,23.48547909653214,-66.5325121815,33.14500990176785,-62.73185343252599,31.163761022031387,-64.9702102873434,25.839560683083523,-68.09265727250347,21.544568086597813,-69.43452218480486,19.387153188165446,-68.87836565710428,18.801840710956004,-67.49850218210403,18.926118703319904,-66.30277273823499,19.286952893602823,-65.63902495685683,19.701060994013435,-65.34363445509227,19.848405868411437,-65.20995857875916,19.107600657117086,-65.2638537954021,16.831666505517376,-65.68198678549409,12.783787524334759,-66.56465618703888,7.371489908646638,-67.82743752824864,1.5352619728058134,-69.250860694283,-3.681984867983493,-70.54049269799425,-7.805227663618598,-71.30721239443578,-11.521586536485353,-71.06124669368654,-16.434657471040733,-69.3679601910738,-23.315138207818528,-66.28339758004657,-28.847543638655154,-63.8495117105699,-16,-73" fill="none" stroke="rgb(185, 55, 55)" stroke-width="2" stroke-linejoin="round" filter="url(#fuzzy)"></polyline><polyline points="21,-74,30.571292332816977,-68.47144361198657,23.00317429273459,-69.96985394087241,11.497611153747123,-70.46211953030812,0.8364318695255522,-68.2878782172451,-4.869358365602401,-64.19232648292154,-3.2499336971976542,-59.58311346706955,4.421016234750735,-55.72212027403474,14.165583433954238,-53.34441916884515,22.05718784095472,-52.523387806444184,26.365178540069447,-52.79480236736725,27.743468994403496,-53.50285816319778,27.84780330197965,-54.1616162900502,27.76785419803873,-54.595869471351705,27.45366913286867,-54.82777421173178,26.276060270696803,-54.92254545876912,23.864903353821784,-55.020028355606726,20.223960943969676,-55.50398958539819,15.031892665346717,-56.98487558330366,7.397780137058446,-59.86701261377272,-2.18472457681223,-63.746463749026226,-7.950412786680165,-67.21004302093547,2.357827962563217,-68.1007021923778,43,-63" fill="none" stroke="rgb(185, 55, 55)" stroke-width="2" stroke-linejoin="round" filter="url(#fuzzy)"></polyline><polyline points="39,-66,20.71827248147033,-71.19200157777186,6.534450245891744,-70.51820542430578,-5.160073767661629,-68.29642206549164,-10.167083667675689,-66.18289306794573,-10.06910490130669,-64.96855459831355,-9.021267599510372,-64.94339058981615,-9.489086051036503,-65.92224375458775,-11.082579210532975,-67.45130928460223,-11.757010285061604,-69.08311278431562,-9.542115856626545,-70.49238568276544,-3.6853177225721456,-71.43797551850415,5.027393892621844,-71.73303162023258,14.622597852254643,-71.29693589917407,22.763881822470807,-70.18435702168392,27.754514047689085,-68.48000548596055,29.18039873080285,-66.19296838654948,27.97799068979792,-63.40123500296403,28.861299488325187,-59.63306984618125,59,-46" fill="none" stroke="rgb(185, 55, 55)" stroke-width="2" stroke-linejoin="round" filter="url(#fuzzy)"></polyline><polyline points="-7,-75,-12.993003275482028,-71.31918216054628,-8.480638236661274,-68.1553152299575,0.5534159268385692,-67.31094858608485,3.768115009414032,-67.39216589694843,0.010271926095755838,-67.26953958005727,-5.598863617389338,-66.7581846543894,-7.539939823791183,-66.36397196702862,-3.8020477294921875,-66.53842163085938,3.339085049832087,-67.1856065460372,9.078228959253398,-67.76870061762334,8.901671601063136,-67.64342665871277,1.0585328445304185,-66.10421684151515,-11.752400278043446,-62.32289960313309,-20.600760925703366,-56.080684721131504,-6.864982198206523,-49.06543633868626,62,-41" fill="none" stroke="rgb(185, 55, 55)" stroke-width="2" stroke-linejoin="round" filter="url(#fuzzy)"></polyline><polyline points="53,-54,38.14208908510744,-60.84706131001405,25.145079410921586,-65.21328275314903,16.539891681256062,-67.72631980677534,11.541969712894135,-69.2758083940189,10.29750486026848,-69.74338663024014,11.52600308796141,-68.88735390621248,13.193971916964196,-66.63588723651749,13.993372197577091,-63.14997245013131,13.618917057457736,-58.98879805264576,12.172982494915077,-55.17281231766632,9.865472109196247,-52.88617340989842,7.439232469737286,-52.900229039214466,6.617302750297048,-55.09475776919701,9.389411902890581,-58.46187665949373,15.729730452199757,-61.71584288494434,21.444417876509704,-64.18826668385036,20.227362490469453,-66.22268502821768,14.19655598662578,-68.26805698947607,35,-69" fill="none" stroke="rgb(185, 55, 55)" stroke-width="2" stroke-linejoin="round" filter="url(#fuzzy)"></polyline><polyline points="19,-75,0.7370962802681844,-67.33538501700379,12.177052028234051,-65.59244461089139,18.020635496682193,-65.98540316199951,14.457652626857822,-67.13558827615577,6.693608822318027,-67.97093800760493,-1.0222745292131385,-68.10373862803118,-7.174405452056925,-67.70947728530875,-11.45011494595112,-67.11136036533519,-13.409690856933594,-66.51749801635742,-12.365126663312639,-66.00986216037741,-7.876855808721494,-65.65986176856553,-0.2243888784106178,-65.619162416059,9.261357024508573,-66.0951624139707,18.23412017260402,-67.15236394202832,24.669670223899583,-68.24719206219585,29.90102577973979,-67.4403160164698,40.34052295178982,-60.66684647310535,62,-42" fill="none" stroke="rgb(185, 55, 55)" stroke-width="2" stroke-linejoin="round" filter="url(#fuzzy)"></polyline><polyline points="40,-66,4.635675708309851,-66.0050098375915,-0.22277599892906277,-62.07998262890003,4.0779784534700845,-60.23268764872577,7.970477398941154,-60.23912893671177,10.855754817005128,-61.5668119294565,13.018510510556677,-63.955047798562205,14.118283007002328,-66.94250098702562,14.15403398067019,-69.86458265017706,13.763924377064184,-72.1501312208957,13.652549389017754,-73.52329007541695,13.965519199043694,-73.98771683019571,14.138833224773407,-73.68010073900223,13.249495091053808,-72.72575011385854,10.643015921293069,-71.1826823462858,6.540185640769497,-69.09674288536004,2.2617971505929066,-66.63775962037214,-0.29386926305170724,-64.23815351512869,0.03947833110170157,-62.60034241041798,2.334047883844677,-62.41430765979771,3.542795473944115,-63.7466430942289,0.422792013297145,-65.4414863310851,-8.798332156088989,-65.34265788548245,-26.117943715739848,-61.89842568648204,-47,-56" fill="none" stroke="rgb(185, 55, 55)" stroke-width="2" stroke-linejoin="round" filter="url(#fuzzy)"></polyline><polyline points="-30,-67,-2.343312230182501,-71.07774716026006,8.877144379278539,-69.02219266039275,8.225628067855155,-66.57679015195043,0.3937100280259887,-65.19049089586574,-6.958621628925357,-64.48241759122993,-8.692238825834128,-64.10692764417497,-4.339650113320944,-63.94062632198489,3.3615752510688215,-63.837504687577,11.294891070213962,-63.5910409016879,17.960715293884277,-63.0849084854126,23.607924053749823,-62.40149753002465,28.96889201151282,-61.7601073225406,33.95468990169042,-61.33968455625697,37.328630929590986,-61.1535910116884,37.23030203245344,-61.13043546563949,31.786355377311015,-61.37804285272474,20.00640471269358,-62.2694216096116,5.09755715928895,-63.78446712305363,2.152864880969542,-64.33416021711177,45,-62" fill="none" stroke="rgb(185, 55, 55)" stroke-width="2" stroke-linejoin="round" filter="url(#fuzzy)"></polyline><polyline points="-30,-67,-27.93838744502432,-60.06612565982759,-8.826627290567115,-59.954407190560914,3.140296731541084,-61.34888513369327,6.381249225748125,-63.924484773127624,5.28964903712416,-66.62783750713628,3.5490014235035057,-68.49344907022008,3.038160043380326,-69.22559138503318,4.235055713062072,-69.01664220773074,6.7844106185946185,-68.14510940519783,9.967950823999303,-66.76194684316339,13.033020104560883,-64.95883503534193,15.367785463932568,-62.96183733817033,16.588771732972948,-61.21731091849367,16.692236808019388,-60.25447937171344,16.32893113059111,-60.396435665732746,16.9279069135434,-61.4690621155254,20.103231629632138,-62.61329765527586,25.952981456643677,-62.39683407382871,30.34101731080322,-59.866782330090864,20.622859235681737,-57.53239999540803,-33,-66" fill="none" stroke="rgb(185, 55, 55)" stroke-width="2" stroke-linejoin="round" filter="url(#fuzzy)"></polyline><polyline points="-33,-66,15.632822493331608,-57.62531713861801,29.631100384213955,-57.12922164835807,34.51004372357299,-55.312809351044415,30.93130069196049,-54.3551912407623,20.771852991735706,-55.28169359979466,8.883136515790056,-57.159521816880776,-0.4872085750677134,-58.78526481082202,-5.573673574540919,-59.68138248921583,-6.711383393181909,-60.06655048353021,-5.180606773936844,-60.35694518934468,-2.3821719635252765,-60.76480127968894,0.4817658479323518,-61.238331710093654,2.5412814638465813,-61.651034540451064,3.428697965550635,-61.99140285857623,3.3586855734977608,-62.36721751146296,2.863839006436087,-62.82369513571743,2.2753537745830688,-63.13519604780813,1.6240262127087794,-62.765361127635316,1.6624046935277246,-61.080309491513695,5.0825113123684,-57.713669595708,13.526318895161289,-52.982884817579475,14.084758730469744,-49.320648860440265,-41,-60" fill="none" stroke="rgb(185, 55, 55)" stroke-width="2" stroke-linejoin="round" filter="url(#fuzzy)"></polyline><polyline points="34,-69,-0.8201491848250309,-65.07414885869467,-2.9640524459097772,-68.02501963546995,-0.2892372695775728,-70.85636564668633,3.554847292370469,-72.039232367344,7.937845013826646,-71.48632287800307,12.493223358012564,-69.56432304885267,16.94308298869874,-66.91224343035172,20.98182416990818,-64.23842330118174,24.242761141268012,-62.07522640022053,26.225704707248422,-60.69162136256428,26.217589932584467,-60.18488858413424,23.49966299533844,-60.58258730173111,17.9207407294422,-61.820894719309614,10.430954540643983,-63.64691122153144,3.020130512905404,-65.5956658156611,-2.075971172333254,-67.11490039515816,-3.431574687380856,-67.76323772067985,-1.0621282198207709,-67.36033831624366,3.724277749178711,-66.03135074745785,9.147775983138928,-64.09006470770906,14.028649796700108,-61.586758045440504,17.427475174064135,-57.641196949693175,10.790650623586881,-51.792728518027296,-47,-55" fill="none" stroke="rgb(185, 55, 55)" stroke-width="2" stroke-linejoin="round" filter="url(#fuzzy)"></polyline><polyline points="-48,-54,-24.420909308045125,-63.598910710492845,-2.5904845492834077,-62.62165837789202,11.148974934232715,-59.713119505667876,10.400447068105207,-57.56759424260528,-1.0894373066421394,-56.17317618805282,-14.97071538684979,-55.46457993250282,-24.262312247225697,-55.68888512761904,-25.991611569115125,-56.82741072422625,-21.18852455497718,-58.33438095898125,-13.546846389770508,-59.47502326965332,-7.475955892709371,-59.87746929418702,-6.04050790468329,-59.78325504747888,-9.571500680182275,-59.773302694709976,-15.751437541260863,-60.21701742909761,-21.127697130623346,-60.98663040527208,-22.73557251107548,-61.7936994249869,-18.2569839415042,-62.878332146505166,-5.3283642553494825,-65.16890994571176,14.795224841320026,-69.16260698093478,21,-75" fill="none" stroke="rgb(185, 55, 55)" stroke-width="2" stroke-linejoin="round" filter="url(#fuzzy)"></polyline><polyline points="-18,-73,-25.363511693790603,-62.33360562112264,-12.537136001484111,-60.057961250834246,-6.3421963342852425,-58.06045211582546,-6.590982653899118,-56.4647928297054,-7.794396296614707,-55.74217577170275,-7.175369627134966,-56.07343879325567,-3.767179573446896,-57.491959607817165,2.6254425048828125,-59.83573913574219,10.894949093988902,-62.69529906944851,18.76508124840426,-65.43289350820118,24.59092806281202,-67.21435316343053,29.14904887159355,-67.01666721398942,35.21657139223217,-63.6314604283042,44.90937210397679,-55.79605499911231,57.27706074694851,-43.06873762704417,67,-30" fill="none" stroke="rgb(185, 55, 55)" stroke-width="2" stroke-linejoin="round" filter="url(#fuzzy)"></polyline><polyline points="48,-59,12.241844917155502,-68.9342172087311,-7.67691100958839,-70.24578813576552,-14.978950090948622,-67.96886736263585,-11.655081202422497,-64.21894538508906,-2.2320622051561165,-60.84405139708556,6.188989056352259,-59.10849890061517,7.877376936631699,-58.96678408024914,2.251521251872534,-59.369539882056394,-5.549484352045054,-59.27408029692724,-7.716031750711052,-58.34483065504572,1.0767406844716252,-56.97713718130109,18.92651173006542,-56.15716509754982,35.593743487815374,-57.58600231510562,38.7767019438062,-63.18848654315059,29,-71" fill="none" stroke="rgb(185, 55, 55)" stroke-width="2" stroke-linejoin="round" filter="url(#fuzzy)"></polyline><polyline points="57,-49,37.20956565679321,-63.28690895831825,22.006516019383316,-66.43668080918907,5.8481715093751285,-65.48361059891687,-6.993612270676199,-64.18461030744156,-13.155378726226054,-63.26851116984362,-12.843552466222926,-62.317138481946344,-8.819070315380095,-61.14444688955873,-4.396981730420323,-60.06940493711721,-1.7396328294411536,-59.596105481470616,-1.2817214927816944,-60.05781071796151,-2.287970165640142,-61.466606922638256,-3.7670786978950175,-63.54998216549228,-4.987758939263285,-65.85983908078117,-5.4746308773193295,-67.87348190235866,-4.858704948560013,-69.07783443048972,-2.912074246097804,-69.06756811431976,0.2597887976960455,-67.69659368089546,4.08827220317289,-65.3241224916136,7.504743394115216,-63.120670209542524,8.747466164298293,-63.07646519141575,5.458708746590488,-66.84459601411358,-1.4833436943567013,-72.95813599250124,3,-77" fill="none" stroke="rgb(185, 55, 55)" stroke-width="2" stroke-linejoin="round" filter="url(#fuzzy)"></polyline><polyline points="21,-74,26.000711994415102,-67.56992270407599,38.14576910303956,-59.67969792951265,42.90270054883222,-57.3434160323835,41.049335039872865,-58.90106166810993,36.71381749073408,-61.39922957418928,32.40774032938078,-62.90959552025205,27.835482989764582,-63.00660993845258,21.607447773691785,-62.25673916035923,13.873542563352157,-61.46380577507484,7.5106386036536295,-61.13267154559595,6.591133531960632,-61.29193084991137,12.947048480251098,-61.70448000499765,23.5858903787284,-62.37604829831983,31.982984584265086,-63.86158874105801,33.86516803216053,-66.41233357054409,33.89137213228841,-67.52440983634544,47,-60" fill="none" stroke="rgb(185, 55, 55)" stroke-width="2" stroke-linejoin="round" filter="url(#fuzzy)"></polyline><!--]--></g><g id="lineNose"><path d="M -9.829476121339024 16.522939618721608, Q9.031973380075437 13.56481848259692,-0.39875137063179356 -4.697336198212186" fill="none" stroke="black" stroke-width="3" stroke-linejoin="round" filter="url(#fuzzy)"></path></g><g id="mouth"><polyline points="-59.42275731203265,43.075243906516164,-58.30026106850805,43.78415079614296,-57.15405735020993,44.486508884309636,-55.98479917986214,45.181997948326575,-54.79313958018844,45.87029776550411,-53.57973157391266,46.55108811315264,-52.345228183758614,47.224048768582506,-51.09028243245011,47.88885950910407,-49.815547342710964,48.54520011202773,-48.52167593726495,49.192750354663794,-47.2093212388359,49.831190014322665,-45.879136270147605,50.46019886831467,-44.531774053923925,51.07945669395022,-43.1678876128886,51.68864326853965,-41.78812996976548,52.28743836939332,-40.393154147278345,52.87552177382162,-38.98361316815104,53.45257325913487,-37.56016005510736,54.01827260264348,-36.1234478308711,54.57229958165778,-34.67412951816606,55.11433397348815,-33.21285813971609,55.64405555544495,-31.740286718244967,56.16114410483855,-30.2570682764765,56.66527939897931,-28.7638558371345,57.15614121517758,-27.261302422942784,57.63340933074372,-25.750061056625157,58.09676352298813,-24.23078476090541,58.54588356922113,-22.70412655850738,58.98044924675311,-21.170739472154853,59.40014033289443,-19.63127652457165,59.804636604955455,-18.08639073848157,60.193617840246525,-16.536735136608424,60.56676381607803,-14.982962741676026,60.923754309760334,-13.425726576408177,61.26426909860379,-11.86567966352869,61.58798795991875,-10.303475025761372,61.89459067101559,-8.739765685830031,62.1837570092047,-7.175204666458475,62.4551667517964,-5.610444990370517,62.70849967610106,-4.046139680289956,62.943435559429076,-2.482941758940604,63.159654179090765,-0.9215042490462775,63.35683531239654,0.6375198266692257,63.534658736656716,2.19347744548209,63.692804229181704,3.7457155846685106,63.83095156728182,5.293581221504682,63.94878052826748,6.836421333266789,64.045970889449,8.373582897231035,64.12220242813676,9.904412890673592,64.17715492164112,11.428258290870676,64.21050814727246,12.944466075098454,64.22194188234111,14.452383220633136,64.21113590415749,15.951356704750909,64.17776999003192,17.440733504727966,64.12152391727476,18.91986059784049,64.04207746319639,20.38808496136468,63.93911040510717,21.844753572576735,63.812302520317466,23.289213408752822,63.66133358613763,24.72081144716917,63.485883379878054,26.13889466510193,63.28563167884906,27.542810039827323,63.06025826036103,28.931904548621528,62.809442901724346,30.305525168760745,62.53286538024935,31.663018877521154,62.23020547324641,33.003732652178954,61.901142958025886,34.327013470010336,61.545357611898154,35.632208308291496,61.16252921217357,36.91866414429862,60.75233753616247,38.1857279553079,60.31446236117527,39.43274671859552,59.84858346452229,40.659067411437675,59.35438062351393,41.86403701111058,58.831533615460536,43.0470024948904,58.27972221767246,44.20731084005334,57.69862620746007,45.34430902387558,57.08792536213374,46.457344023633325,56.44729945900383,47.54576281660276,55.776428275380695,48.608912380060076,55.07499158857472,49.64613969128146,54.34266917589623,50.65679172754311,53.579140814655624,51.64021546612122,52.78408628216326,52.59575788429198,51.95718535572948,53.52276595933157,51.09811781266467,54.42058666851621,50.20656343027919,55.288566989122074,49.28220198588339,56.12605389842534,48.32471325678765,56.932394373702216,47.33377702030232,57.706935392228885,46.30907305373776,58.44902393128156,45.25028113440436,59.158006968136405,44.157081039612464,59.833231480069635,43.029152546672435,60.47404444435742,41.866175432894636,61.079792838275964,40.66782947558943,61.64982363910146,39.43379445206719,62.1834838241101,38.163750139638275,62.68012037057807,36.85737631561304,63.13908025578156,35.51435275730186,63.55971045699677,34.134359242015094,63.94135795149988,32.717075547063104,64.2833697165671,31.262181449756252,64.2833697165671,31.262181449756252,63.046308446281095,31.585922705749837,61.8092471759951,31.90387902017817,60.572185905709105,32.21609964722177,59.3351246354231,32.52263384106118,58.0980633651371,32.82353085587692,56.8610020948511,33.118839945849516,55.62394082456511,33.40861036515952,54.38687955427912,33.69289136798745,53.14981828399312,33.97173220851383,51.91275701370712,34.2451821409192,50.675695743421116,34.51329041938408,49.438634473135124,34.77610629808902,48.201573202849126,35.03367903121453,46.96451193256313,35.28605787294116,45.727450662277136,35.53329207744942,44.49038939199114,35.77543089891986,43.25332812170514,36.01252359153299,42.01626685141914,36.244619409469365,40.77920558113314,36.4717676069095,39.54214431084715,36.694017438033924,38.30508304056115,36.91141815702318,37.06802177027515,37.12401901805778,35.83096049998915,37.331869275318276,34.593899229703155,37.53501818298518,33.356837959417156,37.73351499523904,32.11977668913116,37.92740896626037,30.882715418845162,38.11674935022971,29.645654148559164,38.30158540132759,28.40859287827317,38.481966373734544,27.17153160798717,38.6579415216311,25.93447033770117,38.82956009919778,24.697409067415176,38.99687136061513,23.46034779712917,39.15992456006366,22.223286526843175,39.318768951723925,20.986225256557184,39.47345378977644,19.74916398627119,39.62402832840174,18.51210271598519,39.770541821780355,17.275041445699195,39.91304352409282,16.037980175413196,40.05158268951965,14.800918905127194,40.1862085722414,13.563857634841199,40.31697042643858,12.326796364555204,40.443917506291726,11.089735094269209,40.56709906598138,9.85267382398321,40.686564359688056,8.615612553697215,40.802362641592296,7.378551283411216,40.91454316587463,6.141490013125214,41.02315518671558,4.904428742839215,41.12824795829569,3.66736747255322,41.229870734795476,2.4303062022672215,41.32807277039548,1.1932449319812264,41.42290331927623,-0.04381633830477938,41.51441163561825,-1.2808776085907745,41.60264697360208,-2.517938878876766,41.687658587408244,-3.7550001491627647,41.769495731217276,-4.992061419448767,41.848207659209706,-6.2291226897347585,41.92384362556607,-7.46618396002075,41.99645288446688,-8.70324523030676,42.066084690092694,-9.940306500592751,42.13278829662403,-11.17736777087875,42.1966129582414,-12.414429041164748,42.25760792912536,-13.65149031145075,42.315822463456435,-14.888551581736742,42.371305815415155,-16.12561285202274,42.42410723918205,-17.36267412230874,42.47427598893764,-18.599735392594734,42.52186131886247,-19.836796662880733,42.56691248313707,-21.07385793316673,42.60947873594196,-22.310919203452727,42.64960933145769,-23.547980473738725,42.687353523864765,-24.785041744024717,42.722760567343734,-26.022103014310723,42.75587971607513,-27.259164284596718,42.78676022423946,-28.496225554882717,42.81545134601727,-29.73328682516871,42.8420023355891,-30.97034809545471,42.866462447135476,-32.20740936574071,42.88888093483692,-33.44447063602671,42.909307052873956,-34.6815319063127,42.92779005542714,-35.9185931765987,42.94437919667699,-37.1556544468847,42.95912373080403,-38.39271571717069,42.972072911988796,-39.629776987456694,42.98327599441183,-40.866838257742685,42.99278223225363,-42.103899528028684,43.000640879694764,-43.34096079831468,43.00690119091574,-44.57802206860068,43.011612420097094,-45.81508333888668,43.01482382141936,-47.05214460917268,43.01658464906306,-48.289205879458684,43.01694415720875,-49.526267149744676,43.01595160003693,-50.763328420030675,43.01365623172814,-52.00038969031666,43.01010730646291,-53.237450960602665,43.00535407842178,-54.47451223088866,42.999445801785285,-55.71157350117466,42.99243173073393,-56.948634771460654,42.98436111944827,-58.18569604174665,42.975283222108814" fill="rgb(215,127,140)" stroke="black" stroke-width="3" stroke-linejoin="round" filter="url(#fuzzy)"></polyline></g></svg>