<svg viewBox="-100 -100 200 200" xmlns="http://www.w3.org/2000/svg" width="400" height="400" id="face-svg"><defs><clipPath id="leftEyeClipPath"><polyline points="26.0112779727108,-4.280523565930809,25.844100543956003,-4.348355258014857,25.64935734212488,-4.41345068635314,25.427644317081565,-4.475914924664944,25.179566763986088,-4.535848658648541,24.905738696678853,-4.593348286077022,24.60678222106513,-4.648506016894127,24.283326908499546,-4.70140997331008,23.936009169170568,-4.752144289897419,23.565471625484996,-4.800789213686837,23.17236248545246,-4.8474212042630045,22.75733491606988,-4.892113033860411,22.32104641670599,-4.9349338874591915,21.864158192485807,-4.975949462880967,21.387334527675115,-5.015222070884671,20.89124215906496,-5.052810735262384,20.375680357519805,-5.092217131798775,19.831577352854254,-5.13025091295847,19.25958526120806,-5.166910914889357,18.660467710803275,-5.202189224657958,18.035091188784342,-5.236071668578933,17.384416608937645,-5.268538294106564,16.70949109845084,-5.299563845172327,16.01144000187265,-5.329118230852631,15.291459100433485,-5.357166987250865,14.550807044887414,-5.383671732477843,13.79079800003602,-5.4085906146147416,13.012794499094568,-5.431878752542654,12.218200506061045,-5.453488669522861,11.408454684248532,-5.47337071941192,10.585023869141345,-5.49147350539568,9.749396743735591,-5.507744291126333,8.903077714524429,-5.522129404146599,8.047580986288732,-5.534574631485162,7.184424833853488,-5.545025607307446,6.315126068970518,-5.55342819250586,5.4411947004879595,-5.559728846113595,4.5641287859670445,-5.563874988426085,3.6854094729066484,-5.5658153557142604,2.806496227736085,-5.565500346413656,1.928822250736677,-5.562882358673521,1.0537900750525706,-5.557916119150014,0.1827673479512888,-5.550559002927595,-0.6829172075054741,-5.540771344452718,-1.5419776522203337,-5.528516739363935,-2.3931745140874594,-5.513762337102512,-3.2353182961281344,-5.496479124187665,-4.067272811574061,-5.4766421980405235,-4.887958347738015,-5.454231031240919,-5.69635466051126,-5.42922972610112,-6.491503801327308,-5.4016272594406045,-7.2725127784314765,-5.37141771744598,-8.038556054295778,-5.338600520500163,-8.78887788101865,-5.303180637864912,-9.52279447554902,-5.2651687921008365,-10.239696036574205,-5.224581653108968,-10.939048604911171,-5.181442021678015,-11.620395769240702,-5.1357790024213985,-12.283360219023812,-5.087628165988179,-12.927645146440174,-5.037031700431981,-13.553035499187843,-4.98403855162201,-14.159399085983882,-4.928704552580286,-14.746687536605407,-4.871092541629183,-15.314937118310503,-4.811272469233394,-15.864269410478563,-4.7493214934204095,-16.39489183930956,-4.685324063663636,-16.907905993592806,-4.619096004029794,-17.40415428520021,-4.550397738508069,-17.88353869315519,-4.479237814856412,-18.345985907986854,-4.405627040323209,-18.791447085367437,-4.329578497168819,-19.21989759974979,-4.251107558187123,-19.631336798004845,-4.170231902227067,-20.025787753059113,-4.086971529714199,-20.403297017532072,-4.001348778172223,-20.763934377373744,-3.9133883377445375,-21.107792605502077,-3.823117266715779,-21.43498721544048,-3.7305650070333676,-21.74565621495523,-3.6357633998290497,-22.039959859692996,-3.538746700940444,-23.371335504583193,-0.2875363007413929,-22.97570821232211,-0.08329714884906281,-22.57050861547781,0.12271065491420874,-22.155858129806678,0.330214442046489,-21.731899665775916,0.5389204166543369,-21.298796012711385,0.748514950585105,-20.856728222945534,0.9586658785592483,-20.405893995965155,1.1690237933026442,-19.946506062559344,1.3792233406788723,-19.47879056896731,1.588884514821558,-19.00298546102622,1.7976139532666515,-18.519338868319124,2.005006232084752,-18.028107488322753,2.2106451610134066,-17.529554970555385,2.414105078589418,-17.023950300724767,2.6149521472811665,-16.509571885543817,2.814264448076168,-15.984820554309135,3.012824250712356,-15.450147623908645,3.2097500342799936,-14.905997371424998,3.4041646469186153,-14.352805472113843,3.595198460572237,-13.79099746235331,3.781992526524596,-13.220987239629672,3.9637017220440507,-12.643175611624226,4.139497878467794,-12.05794890646645,4.308572881055155,-11.46567765621841,4.4701417309395355,-10.866715365655509,4.623445559508805,-10.261397378408581,4.767754585543684,-9.650039852532345,4.902371005443917,-9.032938857565249,5.026631806871861,-8.410369605145764,5.139911496143154,-7.7825858252501465,5.241624729694174,-7.149819300116668,5.331228839955965,-6.512279567921368,5.408226245964248,-5.870153808270364,5.472166739035335,-5.223606921573737,5.522649633837438,-4.572781814366021,5.5593257751872285,-3.9177999026383263,5.581899390901191,-3.2587618452471374,5.590129781031549,-2.5957485194647862,5.5838328338163565,-1.928822250736677,5.56288235867352,-1.2580283087102453,5.52721122656835,-0.5833966816007027,5.4768123080843845,0.09505585904140912,5.411739199527095,0.7773233910958084,5.332106727390252,1.4634081601062103,5.23809122151452,2.15331757091716,5.129930547268041,2.84706084064892,5.007923887078648,3.544645300945427,4.872431261647374,4.246072337430238,4.723872781173005,4.951332954305469,4.562727616917253,5.660402952028693,4.389532683440335,6.373237706002743,4.204881021836525,7.089766534213427,4.00941987429947,7.809886641750109,3.8038484403468606,8.533456630144109,3.588915305034198,9.260289559459938,3.365415529487275,9.990145551074288,3.1341873940831073,10.722723919077762,2.896108784608966,11.45765481823437,2.652093211729184,12.19449039643365,2.4030854540894264,12.932695439570502,2.15005681538811,13.671637496787639,1.8939999857446397,14.410576474015603,1.6359234976941286,15.148653683745426,1.3768457671383212,15.884880338968763,1.1177887095823502,16.479545161409323,0.9038350870680372,17.06861562201065,0.6888956541705964,17.651287168978133,0.47344595751670493,18.22669769421135,0.2579708269043186,18.793925845441308,0.042964163116692156,19.351989338367673,-0.1710712742636078,19.899843268796026,-0.3836240790406764,20.43637842477508,-0.5941744105912594,20.960419598733953,-0.8021942060507365,21.47072389961938,-1.0071473924990917,21.965979065032982,-1.2084900991469132,22.444801773368482,-1.4056708695213573,22.905735955948952,-1.5981308736521433,23.347251109164063,-1.7853041202575284,23.767740606607315,-1.966617668930291"></polyline></clipPath><clipPath id="rightEyeClipPath"><polyline points="-27.966848992321637,-4.759307569099896,-27.76867194662349,-4.825093134773729,-27.54518489183596,-4.888272510831137,-27.29666253767014,-4.948974391570707,-27.023409553401393,-5.007320818165323,-26.725759416979628,-5.06342734355009,-26.40407326413958,-5.117403197310257,-26.058738737511153,-5.16935145056915,-25.690168835729683,-5.219369180876091,-25.298800762546243,-5.267547637094331,-24.88509477593796,-5.313972404288967,-24.449533037218266,-5.35872356861488,-23.99261846014728,-5.401875882204654,-23.514873560042016,-5.4434989280565,-23.016839302886737,-5.483657284922191,-22.499073954443237,-5.522410692194979,-21.982631201469133,-5.560409878299126,-21.43452164045831,-5.59767017922334,-20.855301024527577,-5.634189451233781,-20.24568165787203,-5.6699531903005145,-19.60651932664145,-5.70493567258571,-18.93880065677783,-5.739101054974444,-18.24363089269904,-5.772404436260623,-17.522222090713765,-5.804792879600564,-16.775881721052556,-5.836206396846759,-16.00600167240033,-5.866578895374344,-15.214047652815008,-5.895839088012811,-14.401548980917681,-5.923911366695477,-13.570088761239077,-5.95071664043925,-12.721294437607526,-5.9761731382672085,-11.856828718463383,-6.000197177686533,-10.978380867984974,-6.022703899334303,-10.087658356911152,-6.043607968403701,-9.186378866945415,-6.062824243463142,-8.276262642626694,-6.080268413280857,-7.359025184551837,-6.095857602267462,-6.436370277834803,-6.109510945149032,-5.509983349687663,-6.121150131483218,-4.581525150008369,-6.130699920630923,-3.652625748860415,-6.138088627796076,-2.7248788447293757,-6.143248581746017,-1.7998363774413797,-6.146116554825037,-0.8790034396285608,-6.146634165873582,0.03616651937347004,-6.144748256665673,0.9442762033110998,-6.140411242477035,1.843988698596084,-6.1335814373965,2.734031429801795,-6.12422335499318,3.6131998471872526,-6.11230798495196,4.48036085236399,-6.097813046289819,5.3344559682206,-6.080723217765522,6.174504259220014,-6.06103034609521,6.999605008184434,-6.038733632586395,7.808940155682868,-6.013839798802918,8.60177650813624,-5.986363231873365,9.377467720755053,-5.956326110055502,10.135456061424549,-5.923758509169226,10.875273961652255,-5.888698490510576,11.596545360693046,-5.8511921708593295,12.29898684896649,-5.811293775192713,12.982408616881585,-5.769065672717739,13.646715215183722,-5.724578396834721,14.291906132938962,-5.6779106496444784,14.91807619927048,-5.629149291611756,15.525415814962198,-5.578389316997398,16.114211020044493,-5.525733815671791,16.684843403477092,-5.471293921922119,17.238394855826893,-5.4148913916386725,17.775629212529612,-5.3562861115084965,18.296541399302082,-5.295503905125433,18.801150871057658,-5.23257252612896,19.289500792938437,-5.167521576169279,19.7616572213475,-5.100382422872406,20.21770828498121,-5.031188117805266,20.65776336586142,-4.9599733144407745,21.081952280367727,-4.886774186122936,21.490424460269764,-4.811628344031932,21.883348133759394,-4.734574755149208,22.260909506483024,-4.655653660222571,22.623311942573807,-4.574906491731269,22.970775145683913,-4.492375791851094,24.42065868861412,-0.49892341370278537,24.103328260236403,-0.27554836157464013,23.774868053260406,-0.05007326021831027,23.43515387533848,0.17722041208045702,23.08407309020831,0.4060285350198658,22.721524568836298,0.6360256381363696,22.34741864056094,0.8668661926589767,21.96167704423621,1.098185903363535,21.564232879374952,1.3296030004270438,21.15503055729225,1.5607195312819426,20.734025752248808,1.7911226524704116,20.30118535259435,2.0203859214986757,19.85648741191097,2.248070588691288,19.39992110015655,2.4737268890454382,18.93148665480811,2.6968953340852577,18.450238511049086,2.918711492980192,17.955057181865097,3.1400082624762558,17.44572056160037,3.35986373018215,16.922047123229714,3.5773561274223713,16.383896145478996,3.791567186369482,15.831167882534594,4.001585506317689,15.263803676706239,4.206509919451719,14.681786014408296,4.405452846465224,14.085138525824153,4.597543632382894,13.473925928618563,4.781931852940337,12.84825391606272,4.957790581875981,12.208268989936869,5.124319609489103,11.554158238575233,5.280748602818129,10.886149060418099,5.426340197793413,10.204508833435789,5.560393013718576,9.509544530789366,5.682244580434633,8.801602283092858,5.791274168521003,8.08106688764176,5.886905512887578,7.348361264972705,5.968609420112058,6.603945863118956,6.035906249876575,5.8483180099266745,6.088368260857932,5.082011213796623,6.125621811425434,4.305594413216194,6.147349405500654,3.5196711754465007,6.153291573933084,2.7248788447293757,6.143248581746018,1.9218876403790217,6.11708195160668,1.1113997051231599,6.074715793874832,0.2941481040584222,6.016137933583964,-0.5291042254151558,5.941400824709293,-1.35756557231581,5.85062224207663,-2.190416599093049,5.743985741266341,-3.0268115365671973,5.621740876866541,-3.865879426430701,5.484203169429659,-4.706725410946377,5.331753811486534,-5.548432069477816,5.164839102972222,-6.390060801487163,4.983969606417624,-7.230653255635434,4.789719012261115,-8.069232804620633,4.582722704634362,-8.904806065388815,4.363676017976392,-9.73636446435335,4.133332174830182,-10.562885847257537,3.892499895175826,-11.38333613331585,3.6420406676544896,-12.196671013268901,3.382865673037287,-13.001837690987468,3.1159323502932565,-13.797776668260674,2.842240595610537,-14.583423572403586,2.562828584724974,-15.3577110263194,2.278768208910236,-16.11957056065146,1.9911601149836695,-16.867934567660257,1.7011283396819605,-17.601738296460677,1.4098145287608492,-18.245951378770666,1.174570144973437,-18.879543434626527,0.9377061080834572,-19.501735695089966,0.6997602208473745,-20.111725954831712,0.4612842607463916,-20.70868831359847,0.22284388916728481,-21.29177291767988,-0.014981439416766662,-21.860105701375552,-0.2515985682653401,-22.412788128461965,-0.4864007291899508,-22.948896933659487,-0.7187676333732105,-23.46748386409931,-0.9480655621879981,-23.96757542079047,-1.1736474580166325,-24.44817260008678,-1.3948530150700336,-24.90825063515381,-1.6110087702068947,-25.346758737435866,-1.8214281937528494,-25.762619838122962,-2.025411780319639"></polyline></clipPath><filter id="fuzzy"><feTurbulence id="turbulence" baseFrequency="0.05" numOctaves="3" type="noise" result="noise"></feTurbulence><feDisplacementMap in="SourceGraphic" in2="noise" scale="2"></feDisplacementMap></filter><linearGradient id="rainbowGradient" x1="0%" y1="0%" x2="100%" y2="0%"><stop offset="0%" style="stop-color: rgb(80, 68, 68);  stop-opacity: 1"></stop><stop offset="50%" style="stop-color: rgb(220, 20, 60);  stop-opacity: 1"></stop><stop offset="100%" style="stop-color: rgb(255, 105, 180);  stop-opacity: 1"></stop></linearGradient></defs><title>That&#39;s an ugly face</title><desc>CREATED BY XUAN TANG, MORE INFO AT TXSTC55.GITHUB.IO</desc><rect x="-100" y="-100" width="100%" height="100%" opacity="1" fill="rgb(230, 230, 250)"></rect><polyline id="faceContour" points="65,-1,65,2,65,3,65,5,65,5,65,6,66,7,66,10,66,12,66,13,66,14,66,15,66,16,66,18,66,19,66,20,65,24,65,26,65,25,65,29,65,29,64,32,64,33,64,31,64,36,64,36,63,37,63,38,63,41,62,41,62,42,62,43,61,46,61,46,60,49,60,49,60,50,59,53,59,53,58,53,58,54,57,56,57,57,56,58,56,59,55,61,54,62,53,64,53,64,53,65,51,66,51,67,50,69,49,69,50,69,48,70,48,71,46,73,46,73,44,74,43,76,44,75,43,76,42,76,39,78,39,79,39,79,38,80,36,81,34,82,35,81,35,82,34,82,32,83,29,84,30,84,29,84,26,85,27,85,26,85,25,86,25,86,24,87,19,88,19,88,20,88,18,88,16,88,14,89,14,89,13,89,11,89,11,89,10,89,8,89,5,89,3,89,3,89,1,89,0,90,0,89,-1,89,-3,89,-2,89,-6,89,-6,89,-7,89,-8,89,-11,88,-12,88,-13,87,-14,87,-14,87,-16,87,-17,86,-20,85,-18,86,-21,85,-23,84,-24,84,-25,84,-26,83,-26,83,-26,83,-28,82,-31,81,-32,80,-32,80,-33,79,-33,78,-35,78,-36,77,-36,77,-39,75,-38,76,-41,73,-41,74,-41,73,-43,72,-44,70,-44,71,-45,70,-45,70,-47,68,-47,67,-49,66,-48,66,-49,65,-51,63,-50,64,-51,62,-52,61,-53,60,-54,57,-55,56,-55,56,-55,56,-56,55,-57,53,-57,53,-58,49,-58,49,-59,48,-59,48,-60,46,-61,44,-61,44,-61,41,-62,41,-62,41,-62,39,-63,37,-63,36,-63,36,-63,34,-64,33,-64,32,-64,30,-64,29,-64,29,-65,27,-65,24,-65,22,-65,23,-65,22,-65,19,-65,19,-66,16,-66,16,-66,15,-66,13,-65,14,-66,12,-65,10,-65,7,-65,5,-66,7,-66,5,-65,5,-65,2,-65,-1,-65,-2,-64,-4,-64,-5,-64,-6,-64,-7,-64,-8,-63,-9,-63,-12,-63,-11,-63,-13,-62,-15,-62,-16,-62,-16,-61,-20,-62,-19,-61,-20,-61,-23,-61,-23,-60,-24,-59,-26,-59,-28,-58,-30,-58,-30,-58,-31,-57,-33,-57,-34,-56,-36,-56,-36,-56,-36,-55,-39,-54,-40,-54,-41,-53,-43,-53,-43,-52,-45,-52,-46,-51,-48,-50,-50,-50,-50,-49,-51,-48,-52,-48,-52,-47,-54,-47,-54,-46,-57,-45,-57,-45,-57,-44,-60,-43,-60,-41,-62,-43,-61,-41,-63,-40,-64,-40,-65,-37,-68,-39,-66,-38,-68,-37,-68,-37,-69,-34,-71,-34,-71,-34,-72,-34,-72,-32,-74,-31,-75,-31,-75,-30,-75,-28,-77,-27,-78,-27,-78,-27,-78,-25,-79,-24,-80,-24,-81,-22,-82,-21,-82,-22,-82,-20,-82,-18,-84,-19,-84,-18,-84,-15,-85,-15,-86,-15,-86,-14,-86,-12,-87,-13,-86,-10,-87,-10,-87,-9,-88,-7,-88,-7,-88,-6,-88,-5,-89,-4,-89,-4,-89,-3,-89,-1,-89,-2,-90,0,-90,0,-89,1,-90,3,-90,4,-89,4,-90,6,-89,6,-89,6,-90,9,-89,9,-89,10,-89,11,-89,11,-89,12,-89,13,-88,14,-88,16,-87,16,-87,17,-87,18,-86,19,-86,20,-86,20,-85,21,-85,22,-84,22,-85,25,-83,24,-83,27,-81,27,-81,28,-81,28,-80,30,-80,30,-79,31,-78,32,-77,33,-76,33,-76,34,-75,35,-74,36,-73,37,-72,36,-73,38,-71,39,-70,40,-69,40,-69,41,-68,41,-68,43,-64,43,-65,45,-62,44,-63,45,-61,46,-60,46,-60,47,-58,48,-57,49,-56,50,-54,49,-54,50,-52,51,-51,51,-51,51,-51,52,-49,53,-47,53,-46,54,-43,55,-41,55,-41,56,-39,56,-39,57,-37,57,-36,58,-34,58,-33,59,-31,59,-33,60,-29,59,-28,60,-26,61,-23,61,-24,61,-23,61,-21,62,-19,62,-19,63,-16,63,-14,63,-14,63,-13,64,-8,64,-8,64,-5,64,-6,65,-3,65,-3,65,-1,65,-1,65,2" fill="#ffc9a9" stroke="black" stroke-width="1.6666666666666665" stroke-linejoin="round" filter="url(#fuzzy)"></polyline><g transform="translate(27.820257502047134 -22.00402730139324)"><polyline id="rightCountour" points="-27.966848992321637,-4.759307569099896,-27.76867194662349,-4.825093134773729,-27.54518489183596,-4.888272510831137,-27.29666253767014,-4.948974391570707,-27.023409553401393,-5.007320818165323,-26.725759416979628,-5.06342734355009,-26.40407326413958,-5.117403197310257,-26.058738737511153,-5.16935145056915,-25.690168835729683,-5.219369180876091,-25.298800762546243,-5.267547637094331,-24.88509477593796,-5.313972404288967,-24.449533037218266,-5.35872356861488,-23.99261846014728,-5.401875882204654,-23.514873560042016,-5.4434989280565,-23.016839302886737,-5.483657284922191,-22.499073954443237,-5.522410692194979,-21.982631201469133,-5.560409878299126,-21.43452164045831,-5.59767017922334,-20.855301024527577,-5.634189451233781,-20.24568165787203,-5.6699531903005145,-19.60651932664145,-5.70493567258571,-18.93880065677783,-5.739101054974444,-18.24363089269904,-5.772404436260623,-17.522222090713765,-5.804792879600564,-16.775881721052556,-5.836206396846759,-16.00600167240033,-5.866578895374344,-15.214047652815008,-5.895839088012811,-14.401548980917681,-5.923911366695477,-13.570088761239077,-5.95071664043925,-12.721294437607526,-5.9761731382672085,-11.856828718463383,-6.000197177686533,-10.978380867984974,-6.022703899334303,-10.087658356911152,-6.043607968403701,-9.186378866945415,-6.062824243463142,-8.276262642626694,-6.080268413280857,-7.359025184551837,-6.095857602267462,-6.436370277834803,-6.109510945149032,-5.509983349687663,-6.121150131483218,-4.581525150008369,-6.130699920630923,-3.652625748860415,-6.138088627796076,-2.7248788447293757,-6.143248581746017,-1.7998363774413797,-6.146116554825037,-0.8790034396285608,-6.146634165873582,0.03616651937347004,-6.144748256665673,0.9442762033110998,-6.140411242477035,1.843988698596084,-6.1335814373965,2.734031429801795,-6.12422335499318,3.6131998471872526,-6.11230798495196,4.48036085236399,-6.097813046289819,5.3344559682206,-6.080723217765522,6.174504259220014,-6.06103034609521,6.999605008184434,-6.038733632586395,7.808940155682868,-6.013839798802918,8.60177650813624,-5.986363231873365,9.377467720755053,-5.956326110055502,10.135456061424549,-5.923758509169226,10.875273961652255,-5.888698490510576,11.596545360693046,-5.8511921708593295,12.29898684896649,-5.811293775192713,12.982408616881585,-5.769065672717739,13.646715215183722,-5.724578396834721,14.291906132938962,-5.6779106496444784,14.91807619927048,-5.629149291611756,15.525415814962198,-5.578389316997398,16.114211020044493,-5.525733815671791,16.684843403477092,-5.471293921922119,17.238394855826893,-5.4148913916386725,17.775629212529612,-5.3562861115084965,18.296541399302082,-5.295503905125433,18.801150871057658,-5.23257252612896,19.289500792938437,-5.167521576169279,19.7616572213475,-5.100382422872406,20.21770828498121,-5.031188117805266,20.65776336586142,-4.9599733144407745,21.081952280367727,-4.886774186122936,21.490424460269764,-4.811628344031932,21.883348133759394,-4.734574755149208,22.260909506483024,-4.655653660222571,22.623311942573807,-4.574906491731269,22.970775145683913,-4.492375791851094,24.42065868861412,-0.49892341370278537,24.103328260236403,-0.27554836157464013,23.774868053260406,-0.05007326021831027,23.43515387533848,0.17722041208045702,23.08407309020831,0.4060285350198658,22.721524568836298,0.6360256381363696,22.34741864056094,0.8668661926589767,21.96167704423621,1.098185903363535,21.564232879374952,1.3296030004270438,21.15503055729225,1.5607195312819426,20.734025752248808,1.7911226524704116,20.30118535259435,2.0203859214986757,19.85648741191097,2.248070588691288,19.39992110015655,2.4737268890454382,18.93148665480811,2.6968953340852577,18.450238511049086,2.918711492980192,17.955057181865097,3.1400082624762558,17.44572056160037,3.35986373018215,16.922047123229714,3.5773561274223713,16.383896145478996,3.791567186369482,15.831167882534594,4.001585506317689,15.263803676706239,4.206509919451719,14.681786014408296,4.405452846465224,14.085138525824153,4.597543632382894,13.473925928618563,4.781931852940337,12.84825391606272,4.957790581875981,12.208268989936869,5.124319609489103,11.554158238575233,5.280748602818129,10.886149060418099,5.426340197793413,10.204508833435789,5.560393013718576,9.509544530789366,5.682244580434633,8.801602283092858,5.791274168521003,8.08106688764176,5.886905512887578,7.348361264972705,5.968609420112058,6.603945863118956,6.035906249876575,5.8483180099266745,6.088368260857932,5.082011213796623,6.125621811425434,4.305594413216194,6.147349405500654,3.5196711754465007,6.153291573933084,2.7248788447293757,6.143248581746018,1.9218876403790217,6.11708195160668,1.1113997051231599,6.074715793874832,0.2941481040584222,6.016137933583964,-0.5291042254151558,5.941400824709293,-1.35756557231581,5.85062224207663,-2.190416599093049,5.743985741266341,-3.0268115365671973,5.621740876866541,-3.865879426430701,5.484203169429659,-4.706725410946377,5.331753811486534,-5.548432069477816,5.164839102972222,-6.390060801487163,4.983969606417624,-7.230653255635434,4.789719012261115,-8.069232804620633,4.582722704634362,-8.904806065388815,4.363676017976392,-9.73636446435335,4.133332174830182,-10.562885847257537,3.892499895175826,-11.38333613331585,3.6420406676544896,-12.196671013268901,3.382865673037287,-13.001837690987468,3.1159323502932565,-13.797776668260674,2.842240595610537,-14.583423572403586,2.562828584724974,-15.3577110263194,2.278768208910236,-16.11957056065146,1.9911601149836695,-16.867934567660257,1.7011283396819605,-17.601738296460677,1.4098145287608492,-18.245951378770666,1.174570144973437,-18.879543434626527,0.9377061080834572,-19.501735695089966,0.6997602208473745,-20.111725954831712,0.4612842607463916,-20.70868831359847,0.22284388916728481,-21.29177291767988,-0.014981439416766662,-21.860105701375552,-0.2515985682653401,-22.412788128461965,-0.4864007291899508,-22.948896933659487,-0.7187676333732105,-23.46748386409931,-0.9480655621879981,-23.96757542079047,-1.1736474580166325,-24.44817260008678,-1.3948530150700336,-24.90825063515381,-1.6110087702068947,-25.346758737435866,-1.8214281937528494,-25.762619838122962,-2.025411780319639" fill="white" stroke="white" stroke-width="0" stroke-linejoin="round" filter="url(#fuzzy)"></polyline></g><g transform="translate(-36.437758877810225 -25.561907646191536)"><polyline id="leftCountour" points="26.0112779727108,-4.280523565930809,25.844100543956003,-4.348355258014857,25.64935734212488,-4.41345068635314,25.427644317081565,-4.475914924664944,25.179566763986088,-4.535848658648541,24.905738696678853,-4.593348286077022,24.60678222106513,-4.648506016894127,24.283326908499546,-4.70140997331008,23.936009169170568,-4.752144289897419,23.565471625484996,-4.800789213686837,23.17236248545246,-4.8474212042630045,22.75733491606988,-4.892113033860411,22.32104641670599,-4.9349338874591915,21.864158192485807,-4.975949462880967,21.387334527675115,-5.015222070884671,20.89124215906496,-5.052810735262384,20.375680357519805,-5.092217131798775,19.831577352854254,-5.13025091295847,19.25958526120806,-5.166910914889357,18.660467710803275,-5.202189224657958,18.035091188784342,-5.236071668578933,17.384416608937645,-5.268538294106564,16.70949109845084,-5.299563845172327,16.01144000187265,-5.329118230852631,15.291459100433485,-5.357166987250865,14.550807044887414,-5.383671732477843,13.79079800003602,-5.4085906146147416,13.012794499094568,-5.431878752542654,12.218200506061045,-5.453488669522861,11.408454684248532,-5.47337071941192,10.585023869141345,-5.49147350539568,9.749396743735591,-5.507744291126333,8.903077714524429,-5.522129404146599,8.047580986288732,-5.534574631485162,7.184424833853488,-5.545025607307446,6.315126068970518,-5.55342819250586,5.4411947004879595,-5.559728846113595,4.5641287859670445,-5.563874988426085,3.6854094729066484,-5.5658153557142604,2.806496227736085,-5.565500346413656,1.928822250736677,-5.562882358673521,1.0537900750525706,-5.557916119150014,0.1827673479512888,-5.550559002927595,-0.6829172075054741,-5.540771344452718,-1.5419776522203337,-5.528516739363935,-2.3931745140874594,-5.513762337102512,-3.2353182961281344,-5.496479124187665,-4.067272811574061,-5.4766421980405235,-4.887958347738015,-5.454231031240919,-5.69635466051126,-5.42922972610112,-6.491503801327308,-5.4016272594406045,-7.2725127784314765,-5.37141771744598,-8.038556054295778,-5.338600520500163,-8.78887788101865,-5.303180637864912,-9.52279447554902,-5.2651687921008365,-10.239696036574205,-5.224581653108968,-10.939048604911171,-5.181442021678015,-11.620395769240702,-5.1357790024213985,-12.283360219023812,-5.087628165988179,-12.927645146440174,-5.037031700431981,-13.553035499187843,-4.98403855162201,-14.159399085983882,-4.928704552580286,-14.746687536605407,-4.871092541629183,-15.314937118310503,-4.811272469233394,-15.864269410478563,-4.7493214934204095,-16.39489183930956,-4.685324063663636,-16.907905993592806,-4.619096004029794,-17.40415428520021,-4.550397738508069,-17.88353869315519,-4.479237814856412,-18.345985907986854,-4.405627040323209,-18.791447085367437,-4.329578497168819,-19.21989759974979,-4.251107558187123,-19.631336798004845,-4.170231902227067,-20.025787753059113,-4.086971529714199,-20.403297017532072,-4.001348778172223,-20.763934377373744,-3.9133883377445375,-21.107792605502077,-3.823117266715779,-21.43498721544048,-3.7305650070333676,-21.74565621495523,-3.6357633998290497,-22.039959859692996,-3.538746700940444,-23.371335504583193,-0.2875363007413929,-22.97570821232211,-0.08329714884906281,-22.57050861547781,0.12271065491420874,-22.155858129806678,0.330214442046489,-21.731899665775916,0.5389204166543369,-21.298796012711385,0.748514950585105,-20.856728222945534,0.9586658785592483,-20.405893995965155,1.1690237933026442,-19.946506062559344,1.3792233406788723,-19.47879056896731,1.588884514821558,-19.00298546102622,1.7976139532666515,-18.519338868319124,2.005006232084752,-18.028107488322753,2.2106451610134066,-17.529554970555385,2.414105078589418,-17.023950300724767,2.6149521472811665,-16.509571885543817,2.814264448076168,-15.984820554309135,3.012824250712356,-15.450147623908645,3.2097500342799936,-14.905997371424998,3.4041646469186153,-14.352805472113843,3.595198460572237,-13.79099746235331,3.781992526524596,-13.220987239629672,3.9637017220440507,-12.643175611624226,4.139497878467794,-12.05794890646645,4.308572881055155,-11.46567765621841,4.4701417309395355,-10.866715365655509,4.623445559508805,-10.261397378408581,4.767754585543684,-9.650039852532345,4.902371005443917,-9.032938857565249,5.026631806871861,-8.410369605145764,5.139911496143154,-7.7825858252501465,5.241624729694174,-7.149819300116668,5.331228839955965,-6.512279567921368,5.408226245964248,-5.870153808270364,5.472166739035335,-5.223606921573737,5.522649633837438,-4.572781814366021,5.5593257751872285,-3.9177999026383263,5.581899390901191,-3.2587618452471374,5.590129781031549,-2.5957485194647862,5.5838328338163565,-1.928822250736677,5.56288235867352,-1.2580283087102453,5.52721122656835,-0.5833966816007027,5.4768123080843845,0.09505585904140912,5.411739199527095,0.7773233910958084,5.332106727390252,1.4634081601062103,5.23809122151452,2.15331757091716,5.129930547268041,2.84706084064892,5.007923887078648,3.544645300945427,4.872431261647374,4.246072337430238,4.723872781173005,4.951332954305469,4.562727616917253,5.660402952028693,4.389532683440335,6.373237706002743,4.204881021836525,7.089766534213427,4.00941987429947,7.809886641750109,3.8038484403468606,8.533456630144109,3.588915305034198,9.260289559459938,3.365415529487275,9.990145551074288,3.1341873940831073,10.722723919077762,2.896108784608966,11.45765481823437,2.652093211729184,12.19449039643365,2.4030854540894264,12.932695439570502,2.15005681538811,13.671637496787639,1.8939999857446397,14.410576474015603,1.6359234976941286,15.148653683745426,1.3768457671383212,15.884880338968763,1.1177887095823502,16.479545161409323,0.9038350870680372,17.06861562201065,0.6888956541705964,17.651287168978133,0.47344595751670493,18.22669769421135,0.2579708269043186,18.793925845441308,0.042964163116692156,19.351989338367673,-0.1710712742636078,19.899843268796026,-0.3836240790406764,20.43637842477508,-0.5941744105912594,20.960419598733953,-0.8021942060507365,21.47072389961938,-1.0071473924990917,21.965979065032982,-1.2084900991469132,22.444801773368482,-1.4056708695213573,22.905735955948952,-1.5981308736521433,23.347251109164063,-1.7853041202575284,23.767740606607315,-1.966617668930291" fill="white" stroke="white" stroke-width="0" stroke-linejoin="round" filter="url(#fuzzy)"></polyline></g><g transform="translate(27.820257502047134 -22.00402730139324)"><polyline id="rightUpper" points="-28.519857982564183,-3.9247116472605876,-28.582476071599267,-4.025218878043605,-28.618938026201963,-4.121430778966718,-28.62915566150731,-4.213551644421515,-28.613082261111582,-4.3017774667946185,-28.570711426182637,-4.386296101355608,-28.502075924570196,-4.467287431144946,-28.40724653991613,-4.54492353186191,-28.286330920764776,-4.619368836752508,-28.139472429673223,-4.690780301497416,-27.966848992321637,-4.759307569099896,-27.76867194662349,-4.825093134773729,-27.54518489183596,-4.888272510831137,-27.29666253767014,-4.948974391570707,-27.023409553401393,-5.007320818165323,-26.725759416979628,-5.06342734355009,-26.40407326413958,-5.117403197310257,-26.058738737511153,-5.16935145056915,-25.690168835729683,-5.219369180876091,-25.298800762546243,-5.267547637094331,-24.88509477593796,-5.313972404288967,-24.449533037218266,-5.35872356861488,-23.99261846014728,-5.401875882204654,-23.514873560042016,-5.4434989280565,-23.016839302886737,-5.483657284922191,-22.499073954443237,-5.522410692194979,-21.982631201469133,-5.560409878299126,-21.43452164045831,-5.59767017922334,-20.855301024527577,-5.634189451233781,-20.24568165787203,-5.6699531903005145,-19.60651932664145,-5.70493567258571,-18.93880065677783,-5.739101054974444,-18.24363089269904,-5.772404436260623,-17.522222090713765,-5.804792879600564,-16.775881721052556,-5.836206396846759,-16.00600167240033,-5.866578895374344,-15.214047652815008,-5.895839088012811,-14.401548980917681,-5.923911366695477,-13.570088761239077,-5.95071664043925,-12.721294437607526,-5.9761731382672085,-11.856828718463383,-6.000197177686533,-10.978380867984974,-6.022703899334303,-10.087658356911152,-6.043607968403701,-9.186378866945415,-6.062824243463142,-8.276262642626694,-6.080268413280857,-7.359025184551837,-6.095857602267462,-6.436370277834803,-6.109510945149032,-5.509983349687663,-6.121150131483218,-4.581525150008369,-6.130699920630923,-3.652625748860415,-6.138088627796076,-2.7248788447293757,-6.143248581746017,-1.7998363774413797,-6.146116554825037,-0.8790034396285608,-6.146634165873582,0.03616651937347004,-6.144748256665673,0.9442762033110998,-6.140411242477035,1.843988698596084,-6.1335814373965,2.734031429801795,-6.12422335499318,3.6131998471872526,-6.11230798495196,4.48036085236399,-6.097813046289819,5.3344559682206,-6.080723217765522,6.174504259220014,-6.06103034609521,6.999605008184434,-6.038733632586395,7.808940155682868,-6.013839798802918,8.60177650813624,-5.986363231873365,9.377467720755053,-5.956326110055502,10.135456061424549,-5.923758509169226,10.875273961652255,-5.888698490510576,11.596545360693046,-5.8511921708593295,12.29898684896649,-5.811293775192713,12.982408616881585,-5.769065672717739,13.646715215183722,-5.724578396834721,14.291906132938962,-5.6779106496444784,14.91807619927048,-5.629149291611756,15.525415814962198,-5.578389316997398,16.114211020044493,-5.525733815671791,16.684843403477092,-5.471293921922119,17.238394855826893,-5.4148913916386725,17.775629212529612,-5.3562861115084965,18.296541399302082,-5.295503905125433,18.801150871057658,-5.23257252612896,19.289500792938437,-5.167521576169279,19.7616572213475,-5.100382422872406,20.21770828498121,-5.031188117805266,20.65776336586142,-4.9599733144407745,21.081952280367727,-4.886774186122936,21.490424460269764,-4.811628344031932,21.883348133759394,-4.734574755149208,22.260909506483024,-4.655653660222571,22.623311942573807,-4.574906491731269,22.970775145683913,-4.492375791851094,23.30353434001679,-4.40810513041946,23.621839451359392,-4.322139022900503,23.92595428811447,-4.234522848350166,24.216155722332775,-4.145302767381291,24.492732870745353,-4.054525640128709,24.755986275795774,-3.9622389442143304,25.006227086672382,-3.868490692712234,25.24377624034056,-3.773329352113759,25.468963642574973,-3.6768037602925965,25.68212734899183,-3.5789630444698766" fill="none" stroke="black" stroke-width="1.6666666666666665" stroke-linejoin="round" filter="url(#fuzzy)"></polyline><polyline id="rightLower" points="-28.419382654133553,-3.548289611259627,-28.295196861004506,-3.449926912189375,-28.13609108692843,-3.3374396382103884,-27.943419422574774,-3.211652056795581,-27.718507093028396,-3.073376367895661,-27.462650716322624,-2.9234126131199574,-27.177118561972282,-2.7625485849172544,-26.86315080950669,-2.591559735756624,-26.521959807002712,-2.4112090873082543,-26.154730329617795,-2.2222471396242858,-25.762619838122962,-2.025411780319639,-25.346758737435866,-1.8214281937528494,-24.90825063515381,-1.6110087702068947,-24.44817260008678,-1.3948530150700336,-23.96757542079047,-1.1736474580166325,-23.46748386409931,-0.9480655621879981,-22.948896933659487,-0.7187676333732105,-22.412788128461965,-0.4864007291899508,-21.860105701375552,-0.2515985682653401,-21.29177291767988,-0.014981439416766662,-20.70868831359847,0.22284388916728481,-20.111725954831712,0.4612842607463916,-19.501735695089966,0.6997602208473745,-18.879543434626527,0.9377061080834572,-18.245951378770666,1.174570144973437,-17.601738296460677,1.4098145287608492,-16.867934567660257,1.7011283396819605,-16.11957056065146,1.9911601149836695,-15.3577110263194,2.278768208910236,-14.583423572403586,2.562828584724974,-13.797776668260674,2.842240595610537,-13.001837690987468,3.1159323502932565,-12.196671013268901,3.382865673037287,-11.38333613331585,3.6420406676544896,-10.562885847257537,3.892499895175826,-9.73636446435335,4.133332174830182,-8.904806065388815,4.363676017976392,-8.069232804620633,4.582722704634362,-7.230653255635434,4.789719012261115,-6.390060801487163,4.983969606417624,-5.548432069477816,5.164839102972222,-4.706725410946377,5.331753811486534,-3.865879426430701,5.484203169429659,-3.0268115365671973,5.621740876866541,-2.190416599093049,5.743985741266341,-1.35756557231581,5.85062224207663,-0.5291042254151558,5.941400824709293,0.2941481040584222,6.016137933583964,1.1113997051231599,6.074715793874832,1.9218876403790217,6.11708195160668,2.7248788447293757,6.143248581746018,3.5196711754465007,6.153291573933084,4.305594413216194,6.147349405500654,5.082011213796623,6.125621811425434,5.8483180099266745,6.088368260857932,6.603945863118956,6.035906249876575,7.348361264972705,5.968609420112058,8.08106688764176,5.886905512887578,8.801602283092858,5.791274168521003,9.509544530789366,5.682244580434633,10.204508833435789,5.560393013718576,10.886149060418099,5.426340197793413,11.554158238575233,5.280748602818129,12.208268989936869,5.124319609489103,12.84825391606272,4.957790581875981,13.473925928618563,4.781931852940337,14.085138525824153,4.597543632382894,14.681786014408296,4.405452846465224,15.263803676706239,4.206509919451719,15.831167882534594,4.001585506317689,16.383896145478996,3.791567186369482,16.922047123229714,3.5773561274223713,17.44572056160037,3.35986373018215,17.955057181865097,3.1400082624762558,18.450238511049086,2.918711492980192,18.93148665480811,2.6968953340852577,19.39992110015655,2.4737268890454382,19.85648741191097,2.248070588691288,20.30118535259435,2.0203859214986757,20.734025752248808,1.7911226524704116,21.15503055729225,1.5607195312819426,21.564232879374952,1.3296030004270438,21.96167704423621,1.098185903363535,22.34741864056094,0.8668661926589767,22.721524568836298,0.6360256381363696,23.08407309020831,0.4060285350198658,23.43515387533848,0.17722041208045702,23.774868053260406,-0.05007326021831027,24.103328260236403,-0.27554836157464013,24.42065868861412,-0.49892341370278537,24.726995135683183,-0.7199408721873413,25.02248505253175,-0.9383684183375474,25.307287592903187,-1.1540002510415839,25.58157366205269,-1.3666583786208677,25.845525965603837,-1.5761939106843537,26.099339058405292,-1.7824883499828368,26.34321939338736,-1.9854548842632358,26.577385370418625,-2.1850396781229087,26.802067385162587,-2.381223164863933,27.01750787793426,-2.574021338347421" fill="none" stroke="black" stroke-width="2.2222222222222223" stroke-linejoin="round" filter="url(#fuzzy)"></polyline><!--[--><circle r="4.736864240262016" cx="10.838478667014352" cy="-1.1888726388332649" stroke="black" fill="none" stroke-width="1" filter="url(#fuzzy)" clip-path="url(#rightEyeClipPath)"></circle><circle r="4.267640025992779" cx="12.58283039928537" cy="-0.9810888602413335" stroke="black" fill="none" stroke-width="1" filter="url(#fuzzy)" clip-path="url(#rightEyeClipPath)"></circle><circle r="4.719720979785258" cx="10.727922730046854" cy="-0.7247365067694642" stroke="black" fill="none" stroke-width="1" filter="url(#fuzzy)" clip-path="url(#rightEyeClipPath)"></circle><circle r="4.4693793714490475" cx="8.969895756395026" cy="-3.267298651259596" stroke="black" fill="none" stroke-width="1" filter="url(#fuzzy)" clip-path="url(#rightEyeClipPath)"></circle><circle r="3.51136781786914" cx="12.731528796232864" cy="-3.157610339220074" stroke="black" fill="none" stroke-width="1" filter="url(#fuzzy)" clip-path="url(#rightEyeClipPath)"></circle><circle r="3.819142834481996" cx="8.81253983764742" cy="-0.9385088304091784" stroke="black" fill="none" stroke-width="1" filter="url(#fuzzy)" clip-path="url(#rightEyeClipPath)"></circle><circle r="4.152857049088725" cx="12.206653138632054" cy="-0.7671704710554441" stroke="black" fill="none" stroke-width="1" filter="url(#fuzzy)" clip-path="url(#rightEyeClipPath)"></circle><circle r="4.345321515693934" cx="9.407097331821728" cy="0.8330613053197475" stroke="black" fill="none" stroke-width="1" filter="url(#fuzzy)" clip-path="url(#rightEyeClipPath)"></circle><circle r="4.2295994396846055" cx="12.163434464944615" cy="-0.2653322255353987" stroke="black" fill="none" stroke-width="1" filter="url(#fuzzy)" clip-path="url(#rightEyeClipPath)"></circle><circle r="3.2961265702753293" cx="11.537551613453813" cy="-3.4946325845570794" stroke="black" fill="none" stroke-width="1" filter="url(#fuzzy)" clip-path="url(#rightEyeClipPath)"></circle><!--]--></g><g transform="translate(-36.437758877810225 -25.561907646191536)"><polyline id="leftUpper" points="26.043762141766585,-3.42525809394583,26.182515691115913,-3.5272684111924635,26.28839581543406,-3.625228365261317,26.361870547773133,-3.719292415352654,26.403423532636218,-3.809609631687389,26.413553399361913,-3.896323795602927,26.392773135508822,-3.97957349964899,26.341609460239972,-4.059492247683456,26.260602197707392,-4.136208554968184,26.15030365043654,-4.209846048264858,26.0112779727108,-4.280523565930809,25.844100543956003,-4.348355258014857,25.64935734212488,-4.41345068635314,25.427644317081565,-4.475914924664944,25.179566763986088,-4.535848658648541,24.905738696678853,-4.593348286077022,24.60678222106513,-4.648506016894127,24.283326908499546,-4.70140997331008,23.936009169170568,-4.752144289897419,23.565471625484996,-4.800789213686837,23.17236248545246,-4.8474212042630045,22.75733491606988,-4.892113033860411,22.32104641670599,-4.9349338874591915,21.864158192485807,-4.975949462880967,21.387334527675115,-5.015222070884671,20.89124215906496,-5.052810735262384,20.375680357519805,-5.092217131798775,19.831577352854254,-5.13025091295847,19.25958526120806,-5.166910914889357,18.660467710803275,-5.202189224657958,18.035091188784342,-5.236071668578933,17.384416608937645,-5.268538294106564,16.70949109845084,-5.299563845172327,16.01144000187265,-5.329118230852631,15.291459100433485,-5.357166987250865,14.550807044887414,-5.383671732477843,13.79079800003602,-5.4085906146147416,13.012794499094568,-5.431878752542654,12.218200506061045,-5.453488669522861,11.408454684248532,-5.47337071941192,10.585023869141345,-5.49147350539568,9.749396743735591,-5.507744291126333,8.903077714524429,-5.522129404146599,8.047580986288732,-5.534574631485162,7.184424833853488,-5.545025607307446,6.315126068970518,-5.55342819250586,5.4411947004879595,-5.559728846113595,4.5641287859670445,-5.563874988426085,3.6854094729066484,-5.5658153557142604,2.806496227736085,-5.565500346413656,1.928822250736677,-5.562882358673521,1.0537900750525706,-5.557916119150014,0.1827673479512888,-5.550559002927595,-0.6829172075054741,-5.540771344452718,-1.5419776522203337,-5.528516739363935,-2.3931745140874594,-5.513762337102512,-3.2353182961281344,-5.496479124187665,-4.067272811574061,-5.4766421980405235,-4.887958347738015,-5.454231031240919,-5.69635466051126,-5.42922972610112,-6.491503801327308,-5.4016272594406045,-7.2725127784314765,-5.37141771744598,-8.038556054295778,-5.338600520500163,-8.78887788101865,-5.303180637864912,-9.52279447554902,-5.2651687921008365,-10.239696036574205,-5.224581653108968,-10.939048604911171,-5.181442021678015,-11.620395769240702,-5.1357790024213985,-12.283360219023812,-5.087628165988179,-12.927645146440174,-5.037031700431981,-13.553035499187843,-4.98403855162201,-14.159399085983882,-4.928704552580286,-14.746687536605407,-4.871092541629183,-15.314937118310503,-4.811272469233394,-15.864269410478563,-4.7493214934204095,-16.39489183930956,-4.685324063663636,-16.907905993592806,-4.619096004029794,-17.40415428520021,-4.550397738508069,-17.88353869315519,-4.479237814856412,-18.345985907986854,-4.405627040323209,-18.791447085367437,-4.329578497168819,-19.21989759974979,-4.251107558187123,-19.631336798004845,-4.170231902227067,-20.025787753059113,-4.086971529714199,-20.403297017532072,-4.001348778172223,-20.763934377373744,-3.9133883377445375,-21.107792605502077,-3.823117266715779,-21.43498721544048,-3.7305650070333676,-21.74565621495523,-3.6357633998290497,-22.039959859692996,-3.538746700940444,-22.318080406818286,-3.4395515964325822,-22.580221868650913,-3.3382172181194543,-22.826609766303463,-3.234785159085553,-23.057490883318774,-3.129299489207419,-23.27313301930742,-3.021806770675182,-23.473824743585133,-2.9123560735141023,-23.659875148810332,-2.8009989911061224,-23.831613604621545,-2.687789655711405,-23.989389511274897,-2.572784753989879,-24.13357205328159,-2.4560435425227816" fill="none" stroke="black" stroke-width="2.2222222222222223" stroke-linejoin="round" filter="url(#fuzzy)"></polyline><polyline id="leftLower" points="26.404959803657768,-3.326879051394366,26.301045153319187,-3.237051299073005,26.155480499547764,-3.135298923761556,25.970726529163386,-3.0222526868930126,25.74915092756219,-2.898538522634711,25.4930300665793,-2.7647773257023447,25.20455069235163,-2.621584739173985,24.8858116131806,-2.4695709423041015,24.538825387394905,-2.309340438337574,24.165520011213296,-2.141491842323717,23.767740606607315,-1.966617668930291,23.347251109164063,-1.7853041202575284,22.905735955948952,-1.5981308736521433,22.444801773368482,-1.4056708695213573,21.965979065032982,-1.2084900991469132,21.47072389961938,-1.0071473924990917,20.960419598733953,-0.8021942060507365,20.43637842477508,-0.5941744105912594,19.899843268796026,-0.3836240790406764,19.351989338367673,-0.1710712742636078,18.793925845441308,0.042964163116692156,18.22669769421135,0.2579708269043186,17.651287168978133,0.47344595751670493,17.06861562201065,0.6888956541705964,16.479545161409323,0.9038350870680372,15.884880338968763,1.1177887095823502,15.148653683745426,1.3768457671383212,14.410576474015603,1.6359234976941286,13.671637496787639,1.8939999857446397,12.932695439570502,2.15005681538811,12.19449039643365,2.4030854540894264,11.45765481823437,2.652093211729184,10.722723919077762,2.896108784608966,9.990145551074288,3.1341873940831073,9.260289559459938,3.365415529487275,8.533456630144109,3.588915305034198,7.809886641750109,3.8038484403468606,7.089766534213427,4.00941987429947,6.373237706002743,4.204881021836525,5.660402952028693,4.389532683440335,4.951332954305469,4.562727616917253,4.246072337430238,4.723872781173005,3.544645300945427,4.872431261647374,2.84706084064892,5.007923887078648,2.15331757091716,5.129930547268041,1.4634081601062103,5.23809122151452,0.7773233910958084,5.332106727390252,0.09505585904140912,5.411739199527095,-0.5833966816007027,5.4768123080843845,-1.2580283087102453,5.52721122656835,-1.928822250736677,5.56288235867352,-2.5957485194647862,5.5838328338163565,-3.2587618452471374,5.590129781031549,-3.9177999026383263,5.581899390901191,-4.572781814366021,5.5593257751872285,-5.223606921573737,5.522649633837438,-5.870153808270364,5.472166739035335,-6.512279567921368,5.408226245964248,-7.149819300116668,5.331228839955965,-7.7825858252501465,5.241624729694174,-8.410369605145764,5.139911496143154,-9.032938857565249,5.026631806871861,-9.650039852532345,4.902371005443917,-10.261397378408581,4.767754585543684,-10.866715365655509,4.623445559508805,-11.46567765621841,4.4701417309395355,-12.05794890646645,4.308572881055155,-12.643175611624226,4.139497878467794,-13.220987239629672,3.9637017220440507,-13.79099746235331,3.781992526524596,-14.352805472113843,3.595198460572237,-14.905997371424998,3.4041646469186153,-15.450147623908645,3.2097500342799936,-15.984820554309135,3.012824250712356,-16.509571885543817,2.814264448076168,-17.023950300724767,2.6149521472811665,-17.529554970555385,2.414105078589418,-18.028107488322753,2.2106451610134066,-18.519338868319124,2.005006232084752,-19.00298546102622,1.7976139532666515,-19.47879056896731,1.588884514821558,-19.946506062559344,1.3792233406788723,-20.405893995965155,1.1690237933026442,-20.856728222945534,0.9586658785592483,-21.298796012711385,0.748514950585105,-21.731899665775916,0.5389204166543369,-22.155858129806678,0.330214442046489,-22.57050861547781,0.12271065491420874,-22.97570821232211,-0.08329714884906281,-23.371335504583193,-0.2875363007413929,-23.757292187067648,-0.4897565547846714,-24.133504680997152,-0.6897313826569125,-24.499925749860626,-0.8872592688245655,-24.856536115266376,-1.0821650056748218,-25.20334607279421,-1.2743009886479268,-25.540397107847618,-1.463548511369483,-25.867763511505853,-1.6498190607827579,-26.185553996376147,-1.8330556122809938,-26.493913312445777,-2.013233924839715,-26.793023862934245,-2.1903638361490354" fill="none" stroke="black" stroke-width="2.2222222222222223" stroke-linejoin="round" filter="url(#fuzzy)"></polyline><!--[--><circle r="4.893018455433336" cx="-21.424966400088593" cy="-2.995083697444743" stroke="black" fill="none" stroke-width="1" filter="url(#fuzzy)" clip-path="url(#leftEyeClipPath)"></circle><circle r="3.4129781263155223" cx="-20.00133305444168" cy="-0.7673995014733608" stroke="black" fill="none" stroke-width="1" filter="url(#fuzzy)" clip-path="url(#leftEyeClipPath)"></circle><circle r="4.088676925081919" cx="-19.15274053497108" cy="-0.4524700732270377" stroke="black" fill="none" stroke-width="1" filter="url(#fuzzy)" clip-path="url(#leftEyeClipPath)"></circle><circle r="3.5260241268781165" cx="-20.153055036809732" cy="-3.013557345936725" stroke="black" fill="none" stroke-width="1" filter="url(#fuzzy)" clip-path="url(#leftEyeClipPath)"></circle><circle r="3.3882802993702845" cx="-20.866460323223897" cy="-3.994139625076276" stroke="black" fill="none" stroke-width="1" filter="url(#fuzzy)" clip-path="url(#leftEyeClipPath)"></circle><circle r="3.0905972134465958" cx="-21.73236356551133" cy="-3.2248107135524555" stroke="black" fill="none" stroke-width="1" filter="url(#fuzzy)" clip-path="url(#leftEyeClipPath)"></circle><circle r="4.096331693519656" cx="-20.39854767293035" cy="-4.8044091855102575" stroke="black" fill="none" stroke-width="1" filter="url(#fuzzy)" clip-path="url(#leftEyeClipPath)"></circle><circle r="4.65064924076785" cx="-19.11957774418228" cy="-3.708022530775029" stroke="black" fill="none" stroke-width="1" filter="url(#fuzzy)" clip-path="url(#leftEyeClipPath)"></circle><circle r="3.4563200434815426" cx="-20.465445647098278" cy="-3.150397689978413" stroke="black" fill="none" stroke-width="1" filter="url(#fuzzy)" clip-path="url(#leftEyeClipPath)"></circle><circle r="4.467264955962223" cx="-20.980589247651267" cy="-3.3255194631057785" stroke="black" fill="none" stroke-width="1" filter="url(#fuzzy)" clip-path="url(#leftEyeClipPath)"></circle><!--]--></g><g id="hairs"><!--[--><polyline points="6,-89,11.311508556775651,-85.83846674641809,17.250436014053292,-78.40496766166318,18.749594823763783,-73.87977903367616,16.747487799767224,-72.89962162205998,13.13569491244418,-73.40560045473096,8.550128245356074,-74.21818992677613,3.7900172756585158,-75.02685662402297,0.4515846591442168,-75.69975188996622,-0.13742401068357768,-76.1052243336362,1.9521060331804676,-76.0873974225571,5.322933714144978,-75.36518503309925,8.231980807356807,-73.6927141065754,9.53939642088387,-71.4119685806059,9.365068712683986,-69.59155644225373,9.788252291213414,-68.47733509288709,16.579605361452032,-64.02779983139385,54,-43" fill="none" stroke="rgb(167, 133, 106)" stroke-width="2" stroke-linejoin="round" filter="url(#fuzzy)"></polyline><polyline points="50,-52,36.21094284550939,-51.72358626944054,21.33612494711848,-61.28556865849395,13.667776143223826,-69.10041323889376,7.687209937946243,-73.6629597577793,1.818185858816733,-75.83838263811133,-2.721843655374808,-76.78618505115745,-4.2803345364305825,-77.26847711127829,-2.16113495104093,-77.60264032738355,2.740359748937752,-77.95594995613797,8.403346432154375,-78.51982707121537,13.173039142331062,-79.30852776464842,17.044379244076005,-79.884339931637,21.208900388945953,-79.61314682071027,25.784695908955076,-78.60119583243406,27.905102349441588,-78.50220260547677,22.726662650017097,-81.90672436449711,6,-90" fill="none" stroke="rgb(167, 133, 106)" stroke-width="2" stroke-linejoin="round" filter="url(#fuzzy)"></polyline><polyline points="-18,-84,-10.400327248380021,-83.21782178280976,-4.210296239172005,-80.07196422542548,4.4187166314740365,-77.70785087946923,8.840333766652623,-75.55730478169949,7.583684506112149,-73.54261284497898,3.1909505559598053,-71.85274202029443,-1.6805473408826852,-70.6751568055115,-5.749231965279596,-70.14312893954533,-8.546839935925583,-70.26103560818797,-9.704323768615723,-70.84363842010498,-8.958710450869129,-71.54845216645573,-6.486953797966345,-71.94987110748427,-2.9481419654515038,-71.60009653684348,0.7550492862174496,-70.17066145109256,3.4005580987713984,-67.772615880388,2.796552668459322,-65.19902637758491,-4.092310887444682,-63.552747144541335,-17.15215950095964,-63.66224371955602,-24.44967354754366,-68.28724537277037,0,-90" fill="none" stroke="rgb(167, 133, 106)" stroke-width="2" stroke-linejoin="round" filter="url(#fuzzy)"></polyline><polyline points="-40,-64,1.855494783744737,-70.09918409630151,19.333146909980936,-66.55088642735107,19.309336657704694,-66.63931030719765,15.617543499683961,-68.90669266716577,15.300694293866595,-70.28727377364199,18.164393742698334,-69.64688946923228,21.526009650688238,-67.70697266611803,23.720443725585938,-65.92469787597656,24.61731708949441,-65.41724250204541,24.322299070210587,-66.42792236070112,22.130734400583922,-68.41227032065326,17.246555652236566,-70.36106481985189,11.028425589185797,-70.8514433915281,7.617715055592438,-68.2183492582162,5.657965094171688,-63.812910962704564,-31,-75" fill="none" stroke="rgb(167, 133, 106)" stroke-width="2" stroke-linejoin="round" filter="url(#fuzzy)"></polyline><polyline points="36,-73,42.629364824733024,-60.700257170466834,36.65873939941549,-63.16028972348187,28.532873774879196,-69.31532186772783,22.554285765391967,-74.58355182809795,19.43836550569405,-77.77100810915549,18.421878680116777,-78.95607141477984,18.296175214555852,-78.7468989937468,18.064877606750645,-77.87143242802765,17.052945018866144,-76.92410632824624,14.706250615903688,-76.28006142819669,10.642961978912354,-76.07947587966919,5.0828751983307,-76.21987050714141,-0.8447848133997111,-76.399066408373,-5.490202721056797,-76.25125829980556,-7.741918146833675,-75.5502563369209,-7.954386749256784,-74.44088495766596,-7.710842285755998,-73.64369711396546,-8.206520219422204,-74.37955546477279,-8.799968182627316,-77.54029120772579,-8.546369932990704,-82.15448516898111,-10.618163693606954,-84.96930215566475,-18,-84" fill="none" stroke="rgb(167, 133, 106)" stroke-width="2" stroke-linejoin="round" filter="url(#fuzzy)"></polyline><polyline points="36,-73,37.233612233452135,-67.77837299302503,30.419059021274258,-64.42926086830562,20.43399795272198,-63.32312444970725,11.433862787690394,-66.50043901241625,4.647350842291766,-71.91355109390346,-0.8104586862049299,-76.61505749437408,-5.2437643959015015,-78.97078039174718,-7.508352696175327,-78.74350438896356,-6.101946703233982,-76.33506501425212,-0.7282603650369032,-72.37262452937334,6.973592316805117,-67.86612315688785,14.119167237588114,-64.30000393922995,18.44899955293171,-62.96885344167486,20.162660232751755,-63.8111380525676,21.766089715510997,-65.16599177014784,24.839397517296412,-65.70993899069501,26.51437471758644,-67.11404821159663,24.424748381260656,-71.6841163960834,41,-68" fill="none" stroke="rgb(167, 133, 106)" stroke-width="2" stroke-linejoin="round" filter="url(#fuzzy)"></polyline><polyline points="24,-83,31.76637422155931,-65.92080342405087,26.268344358910312,-68.4317420634664,22.003346996005973,-69.80902922153105,17.20047097428687,-69.65733724904867,12.294040587968277,-69.31209641884668,9.552569719667057,-68.86245968266286,9.942229840235678,-68.31739032127092,12.800695196461884,-68.12532375953155,17.084041595458984,-68.70436477661133,22.043745983879695,-69.94992138430241,27.040106540010385,-71.26736568418626,31.37757813319987,-71.96367993588487,34.54223904309642,-71.62048048494168,36.20284142375824,-70.3252914403993,35.25342874894632,-68.75272526359652,28.061662838923567,-67.5679188293137,6.324021749989793,-64.9097042048094,-48,-52" fill="none" stroke="rgb(167, 133, 106)" stroke-width="2" stroke-linejoin="round" filter="url(#fuzzy)"></polyline><polyline points="31,-78,-6.246628908897775,-70.97309099071218,-2.0625659120424205,-71.33456628625461,9.909122973328364,-70.12050886063203,17.507109359294855,-68.0750215223627,18.93941616218957,-65.9991541981937,15.102230842588982,-64.30212235826647,7.7109777663870664,-63.51068779149512,-0.44794473157689224,-63.82470046250148,-6.121067751804227,-64.71675993030085,-7.06847951509653,-65.2881310917561,-3.149738920007608,-65.06757435306378,3.6247410472420243,-64.50215471993954,9.837735889765094,-64.67506087058351,11.969417488702613,-66.45401214407606,8.334839719287057,-69.85002441271783,0.8717607644844563,-74.24316911592457,-6.146457499482011,-78.8605486604524,-13.31518026792589,-81.3552310386591,-31,-75" fill="none" stroke="rgb(167, 133, 106)" stroke-width="2" stroke-linejoin="round" filter="url(#fuzzy)"></polyline><polyline points="27,-81,26.84458183619285,-69.15748313529721,15.674796857014176,-73.26942303362371,14.087474600509324,-74.9460677106688,19.18316994853828,-73.33045128559559,24.694113817274207,-71.60746528906773,27.325011625607797,-71.38536902864423,26.4813600348678,-72.28282015376915,22.578317935601095,-73.36711976006141,16.382611774391947,-74.16598778801936,9.304278149820773,-74.71195332280136,3.539151668548584,-75.07851529121399,1.4113155554847312,-75.00608360223015,4.191682468574855,-73.95224128161188,11.16577902191126,-71.56849689770165,19.56465441068188,-68.29099212371833,25.5187664054742,-65.513376738051,25.86182959298078,-64.90366774849213,20.41819590556743,-67.00044867223616,13.944127341052312,-70.01298989901302,15.653447785141047,-70.0142336006903,32.23092077222546,-63.203497325695686,50,-52" fill="none" stroke="rgb(167, 133, 106)" stroke-width="2" stroke-linejoin="round" filter="url(#fuzzy)"></polyline><polyline points="-4,-89,10.324660510608924,-85.5465593793019,11.074219021368053,-82.84878891216077,11.416887516996372,-78.50565328544438,11.962931103573489,-74.14222780865734,10.788901760820007,-71.94330107039438,9.002406897888141,-72.11951226130661,9.045506981714398,-73.13902416164407,11.403437104266335,-73.39579331090015,13.951265123430888,-72.41407259118397,14.2217242546799,-70.80599913029162,12.207134612162971,-69.43429794656575,10.886727583293732,-68.75778913313245,13.295642176181575,-68.97842348314055,17.976921118989058,-70.62415219745677,17.375437277900705,-74.10617182968068,2.207813973554826,-76.50010122706888,-37,-68" fill="none" stroke="rgb(167, 133, 106)" stroke-width="2" stroke-linejoin="round" filter="url(#fuzzy)"></polyline><polyline points="-24,-81,-17.276494443897285,-79.60475765615207,-6.840461762751615,-78.53499614796979,-4.216215315962833,-76.60744773316003,-5.217370949620864,-75.63759582091866,-4.8878720004495335,-75.37517488753838,-1.1635991150595513,-74.75961912735427,5.609787910151518,-73.45104677436635,13.443439354829609,-72.04999435586947,19.578843993588073,-71.46650966621874,21.680718421936035,-72.17975044250488,18.894250869817714,-73.8915461385669,12.182516517768269,-75.7480505087044,3.7674337672534417,-76.91897288082701,-4.082223177125,-77.04808815413412,-10.384444338013964,-76.2136791040557,-16.036001131765175,-74.59133607322741,-22.688283834928306,-72.42602613787317,-30.18440493052636,-70.33451725700982,-35.87479059224308,-68.74554926302136,-38,-68" fill="none" stroke="rgb(167, 133, 106)" stroke-width="2" stroke-linejoin="round" filter="url(#fuzzy)"></polyline><polyline points="-4,-89,-13.679394064796716,-77.08016605115604,-7.138564860656075,-78.88146592777122,-6.252675843556913,-81.19364317847781,-10.39347164425999,-81.33485319116153,-15.273943431877806,-79.57582119017373,-17.57523208710019,-77.00914607936653,-15.757310723831884,-74.79214770720893,-10.30328369140625,-73.46656799316406,-3.0055453630998676,-72.64448598156204,4.739611195329857,-71.43802348091828,13.017210453361145,-69.39070922687603,22.30935256090015,-67.10286972322501,31.25522102504263,-65.75827084791652,36.60530269021591,-65.8611097045926,35.637870541099645,-68.29385906676379,20,-86" fill="none" stroke="rgb(167, 133, 106)" stroke-width="2" stroke-linejoin="round" filter="url(#fuzzy)"></polyline><polyline points="-19,-84,15.890405756056555,-62.42842013732209,6.622553894464476,-65.03693545994248,-8.102006005727235,-69.29028863737862,-15.620194985012189,-71.97858198077131,-15.40256655088783,-73.26700207897372,-10.878943102795777,-73.73596988571649,-5.928196838344924,-74.0561430702549,-2.871507265467281,-74.8898559010068,-1.3339737290506246,-76.61506855452672,1.119163501442999,-78.8164897855983,6.868894311619322,-79.91605778230291,16.66684641440564,-77.59975532724224,29.739794066577176,-70.29907469147,43.43506990084906,-59.28830287871036,51,-51" fill="none" stroke="rgb(167, 133, 106)" stroke-width="2" stroke-linejoin="round" filter="url(#fuzzy)"></polyline><polyline points="38,-71,25.038476245976423,-71.0292371913494,7.348524222720019,-74.28065260348215,-2.304932893879349,-74.56250595300943,-2.1159539236645286,-71.38740846468093,6.080159722739078,-66.3540093549703,17.172458059135117,-61.69765607830474,25.468209944388697,-59.432998949664345,27.64897463788751,-60.51017715544475,23.89954438496244,-64.34390055499169,16.98994748539442,-69.08696068538575,10.264293668383647,-72.59091071805955,5.83310552755231,-73.58273145472538,3.9057132550431906,-72.40132342679756,3.307444534575606,-70.75696014157504,2.5086348364555646,-70.4304558270906,0.9840569146491553,-71.56852888348936,2.088403335073048,-71.81518802201354,16.743234550771852,-66.2854089811624,55,-41" fill="none" stroke="rgb(167, 133, 106)" stroke-width="2" stroke-linejoin="round" filter="url(#fuzzy)"></polyline><polyline points="-18.85061598816545,-70.26138686498032,-18.302288216248073,-69.9664348978528,-18.029817723849135,-71.01758733384801,-17.60549798878475,-72.47204026817207,-17.044467874449566,-73.83344442162674,-16.425864662175456,-75.15222941937766,-15.794759977342787,-76.5489156807858,-15.166678495983625,-77.9893940374048,-14.541115805480734,-79.34239550332835,-13.905141382575236,-80.49269235820452,-13.235962423062842,-81.3831838966277,-12.50918920820162,-82.0036321680281,-11.710331425392875,-82.3817171650561,-10.842590156899677,-82.58718055874633,-9.926432156561372,-82.72420485685866,-8.992897286891733,-82.90687952677963,-8.076919145274315,-83.24530207611416,-7.211681507292069,-83.84025499748839,-6.411614527951269,-84.70635068261124,-5.637171262729953,-85.61937237674721,-4.805006850098605,-86.41102646044864,-4,-89" fill="none" stroke="rgb(167, 133, 106)" stroke-width="2" stroke-linejoin="round" filter="url(#fuzzy)"></polyline><polyline points="63,-16,62.35190247574181,-18.045955268039908,61.93698547557083,-19.486174985769505,61.620658051498566,-20.82596582464481,61.37937031066507,-22.093087214337892,61.18249878556848,-23.325166226100755,61.00939886703897,-24.61639475748235,60.85254620107445,-26.03052606343994,60.70159802755466,-27.54857743097797,60.533266177712015,-29.087640637308667,60.31821683713987,-30.55890432251247,60.03690724205042,-31.919634260224374,59.69011013833295,-33.1895912054511,59.297352074046074,-34.4282591071287,58.88708776066802,-35.69214750080239,58.48628299572945,-37.00045156383749,58.11326540692598,-38.32839628528588,57.77330009743678,-39.62827912687157,57.456908811375484,-40.862668085889936,57.141779457917636,-42.03263015683644,56.79063643808946,-43.21824660615728,56.32214834300684,-44.84911812498693,-12,-87,-12.194553697034024,-88.91048928958132,-11.394439481650618,-90.39854208826767,-10.459975890841262,-91.9381251139053,-9.532734887169152,-93.51976225469633,-8.635914479038888,-95.07306407389983,-7.777664135851223,-96.57367199040274,-6.954114086645826,-97.99660428736681,-6.150520294282323,-99.22800540321361,-5.3476639041893455,-100.09307113438668,-4.528570833919165,-100.5050671276878,-3.6865883537562643,-100.59983481996505,-2.8338187577124287,-100.72394149219537,-1.9988194601372715,-101.26167905371312,-1.2035134943615777,-102.4119949057146,-0.4381607716111312,-104.08183820395035,0.3259517247129431,-106.07457251094525,1.211181103300659,-109.00629929705931,-18,-84,-19.668038088653567,-82.72186411214199,-20.75443462121959,-82.16617781024107,-21.541837665415642,-81.81691404191407,-22.30016870556202,-81.40508346888369,-23.113247443051574,-80.84762256544481,-23.96529205880688,-80.17326329558266,-24.81483351859412,-79.4529846020671,-25.626502560077515,-78.74748483286625,-26.389832326571597,-78.07793208049702,-27.13133535744005,-77.42440882511632,-27.90329808535852,-76.75150584060324,-28.74342375378253,-76.04687738747756,-29.63338091098062,-75.34132960274519,-30.508288697939907,-74.67482232293543,-31.350749697193336,-74.00189769490011,-32.328084098815935,-73.09866336072419,-33.81314966543059,-71.6043169385589,-27,-78,-27.223029532909198,-78.24034449195796,-28.078766130201906,-78.74626504914816,-29.455889709671318,-79.44501109128409,-30.9937087638928,-80.10859533313187,-32.460172063311475,-80.55700241348791,-33.801374821087705,-80.75674781217437,-35.03710390397676,-80.75975760941213,-36.17071628567062,-80.58843821271708,-37.17615103938384,-80.18968676297717,-38.0391833102427,-79.4974088511327,-38.79589749892332,-78.53468149184575,-39.532269680809996,-77.45913518058495,-40.351914903873,-76.51525845838933,-41.34399500533157,-75.93387341683655,-42.57379167131766,-75.84750683189006,-44.08892953463399,-76.26172581359145,-45.913352909600505,-77.0734295784879,-48.010110670766146,-78.1015233822914,-50.23242259089537,-79.11212081145767,-52.32626634754701,-79.86199105401239,-54.05721520420942,-80.20176298982749,-55.46746646518175,-80.21677341389483,-57.10099779543748,-80.29549313700943,-59.87600122015927,-81.64909257294445,-34,-72,-34.381789625745164,-71.60801530578424,-35.169785918542246,-70.90949495910996,-36.28622545180582,-70.3261974716394,-37.50685614911207,-70.07258611397857,-38.657487196982956,-70.03338386629284,-39.647914105890074,-69.93702675216005,-40.494274692056464,-69.5845947340986,-41.285576130910556,-68.95621642944236,-42.119776467049,-68.1836090199546,-43.063512824490665,-67.46048119205766,-44.14965380704416,-66.94896855150498,-45.38544815468067,-66.70394646824235,-46.74686039481178,-66.63584516637552,-48.17334706523719,-66.55631032033665,-49.60381180196864,-66.33336124704174,-51.05633548335059,-66.06481869416045,-52.649032197292016,-66.00016005609572,-54.40450857961203,-65.92152411101324,-55.93163851250734,-64.26188254628502" fill="none" stroke="rgb(167, 133, 106)" stroke-width="2" stroke-linejoin="round" filter="url(#fuzzy)"></polyline><polyline points="-55.31526065808708,-14.274905976280536,-55.48003968625264,-15.186243773454763,-55.65720323269636,-16.476012238574057,-56.00980422338198,-17.703856089514407,-56.29088846438308,-18.897965780252733,-56.40236447342446,-20.10123205027296,-56.344522454840664,-21.331388568660387,-56.15085434733477,-22.60382068624912,-55.88484447660563,-23.93070379107406,-55.636962500233324,-25.306545583022526,-55.48074389257544,-26.700565394052074,-55.41496414026817,-28.066529675852998,-55.35723463898384,-29.370412893657633,-55.22230562986154,-30.62172246371169,-55.03074507757859,-31.87637403920202,-54.929974958418704,-33.17891138144836,-55.077481833162224,-34.46177175600631,-55.51983222468475,-35.50633131990658,-56,-36" fill="none" stroke="rgb(167, 133, 106)" stroke-width="2" stroke-linejoin="round" filter="url(#fuzzy)"></polyline><polyline points="43,-64,44.23930673187919,-65.06328603952238,46.22247304072391,-66.27271593872395,47.788627730932525,-66.8617110631318,48.975117348391805,-66.80970958880535,50.078599913148956,-66.46274436250279,51.27144895696664,-66.0476368625288,52.579059709681616,-65.6100345753117,53.972548297780875,-65.14812323806811,55.45036258353117,-64.72504851764832,57.05861521345734,-64.47075042448529,58.85463515705552,-64.500441975416,60.84785347250531,-64.83552661103779,62.95059159481387,-65.39047692293022,64.98004659700813,-66.02640392765701,66.79608599581859,-66.63006686204774,68.52273799061473,-67.03426620512707,69.70185579049684,-65.68059487950664,32,-77,32.710265228270885,-76.2950939048738,33.32943762977424,-75.67605561357094,34.03845423711831,-74.96799573277819,34.79267548463855,-74.21631054669035,35.53246394360017,-73.47956375587862,36.24627765653433,-72.76787477921182,36.95586626270202,-72.05773763802631,37.68024958555648,-71.32650439231288,38.41764721514826,-70.5679725737823,39.15287033599737,-69.78334626001812,39.87492674507123,-68.96516496503052,40.586781849735274,-68.0933269443939,41.30026716089996,-67.14814479582498,42.02198328901816,-66.12962184692613,42.74229653450752,-65.06638029253511,43.43706002548688,-64.00514643051163,44.082833885023156,-62.98665989209211,44.67575810996444,-62.02510804184394,45.238509954508906,-61.105452926180156,45.80768475385026,-60.19427059444294,46.4196465569143,-59.239405640957465,47.13108312343665,-58.1607751338217,48.02087993192411,-57.02479491915987,33.571715440022636,-55.67991829076925,33.866178968040025,-57.75574484646944,34.046995182659074,-59.52334372610604,34.05871506821703,-61.35782470371067,34.004460374258244,-63.27133393650218,33.882886843262185,-65.01194069180814,33.679081750226835,-66.48445994260032,33.40387103637769,-67.80001215945987,33.071929334109505,-69.08868505056634,32.67430969742082,-70.34127366113844,32.180639844096994,-71.42274472106263,31.575785267745914,-72.24182127300858,30.91293847472701,-72.95463004821521,30.34290649241395,-74.02228778200876,30.047927633915936,-75.91113851262209,30.023443933524145,-78.35292668841599,30,-80" fill="none" stroke="rgb(167, 133, 106)" stroke-width="2" stroke-linejoin="round" filter="url(#fuzzy)"></polyline><!--]--></g><g id="pointNose"><g id="rightNose"><!--[--><circle r="1.0431780168807536" cx="8.462231308206729" cy="4.163135439606875" stroke="black" fill="none" stroke-width="1" filter="url(#fuzzy)"></circle><circle r="2.6690846053318267" cx="12.20794330120571" cy="4.603231011029647" stroke="black" fill="none" stroke-width="1" filter="url(#fuzzy)"></circle><circle r="1.4554139497803442" cx="11.473905979750194" cy="5.669154252119217" stroke="black" fill="none" stroke-width="1" filter="url(#fuzzy)"></circle><circle r="2.72929522577855" cx="9.250335566958306" cy="6.780402776134483" stroke="black" fill="none" stroke-width="1" filter="url(#fuzzy)"></circle><circle r="2.9391774241911666" cx="10.038239285838236" cy="7.386537127974627" stroke="black" fill="none" stroke-width="1" filter="url(#fuzzy)"></circle><circle r="2.8566294544872175" cx="11.74050926438606" cy="7.253882223239431" stroke="black" fill="none" stroke-width="1" filter="url(#fuzzy)"></circle><circle r="2.6258865551126274" cx="8.314448313231294" cy="4.852108378213871" stroke="black" fill="none" stroke-width="1" filter="url(#fuzzy)"></circle><circle r="2.6692915255478393" cx="8.256818424719619" cy="7.1559713016793385" stroke="black" fill="none" stroke-width="1" filter="url(#fuzzy)"></circle><circle r="1.1590416294326846" cx="11.050201957276464" cy="7.045452146801582" stroke="black" fill="none" stroke-width="1" filter="url(#fuzzy)"></circle><circle r="1.6297647700532867" cx="9.890139031416998" cy="4.443817302035553" stroke="black" fill="none" stroke-width="1" filter="url(#fuzzy)"></circle><!--]--></g><g id="leftNose"><!--[--><circle r="1.1726126895489886" cx="-10.942442282131672" cy="7.656163766435933" stroke="black" fill="none" stroke-width="1" filter="url(#fuzzy)"></circle><circle r="1.3229610694158693" cx="-7.390028881999269" cy="6.615356564359544" stroke="black" fill="none" stroke-width="1" filter="url(#fuzzy)"></circle><circle r="2.959245736881959" cx="-8.174351094540675" cy="4.732217774174878" stroke="black" fill="none" stroke-width="1" filter="url(#fuzzy)"></circle><circle r="1.785168622392402" cx="-7.725283080399089" cy="7.056545810818983" stroke="black" fill="none" stroke-width="1" filter="url(#fuzzy)"></circle><circle r="1.7308501366206674" cx="-9.502507976830245" cy="8.229584507759213" stroke="black" fill="none" stroke-width="1" filter="url(#fuzzy)"></circle><circle r="1.2785458383467394" cx="-9.25141258701647" cy="6.962132246812313" stroke="black" fill="none" stroke-width="1" filter="url(#fuzzy)"></circle><circle r="1.414848678301127" cx="-8.918871084361191" cy="4.916290459540581" stroke="black" fill="none" stroke-width="1" filter="url(#fuzzy)"></circle><circle r="1.2070810257854583" cx="-7.630403580438559" cy="7.241238351757621" stroke="black" fill="none" stroke-width="1" filter="url(#fuzzy)"></circle><circle r="1.3931740472666023" cx="-10.632499528695277" cy="5.1434442535138505" stroke="black" fill="none" stroke-width="1" filter="url(#fuzzy)"></circle><circle r="1.7566789143713142" cx="-8.165447938992074" cy="5.419521182323085" stroke="black" fill="none" stroke-width="1" filter="url(#fuzzy)"></circle><!--]--></g></g><g id="mouth"><polyline points="-17.22342695918828,54.522253628023094,-17.023672711993246,54.01966630689266,-16.81250400228538,53.52070804358475,-16.590149422126157,53.025573631083745,-16.356837563577027,52.53445786237408,-16.11279701869946,52.04755553044018,-15.858256379554906,51.565061428266425,-15.593444238204828,51.08717034883725,-15.3185891867107,50.614077085137055,-15.033919817133963,50.14597643015027,-14.739664721536087,49.683063176861296,-14.436052491978526,49.225532118254556,-14.12331172052275,48.773578047314444,-13.801670999230211,48.32739575702539,-13.471358920162373,47.88718004037182,-13.132604075380698,47.453125690338105,-12.785635056946642,47.0254274999087,-12.430680456921671,46.60428026206798,-12.067968867367243,46.189878769800394,-11.697728880344815,45.78241781609034,-11.320189087915855,45.38209219392222,-10.935578082141815,44.98909669628047,-10.544124455084157,44.603626116149485,-10.146056798804349,44.22587524651368,-9.741603705363845,43.85603888035748,-9.330993766824108,43.49431181066528,-8.914455575246588,43.14088883042152,-8.492217722692759,42.795964732610585,-8.06450880122408,42.459734310216895,-7.631557402902002,42.13239235622488,-7.193592119787992,41.81413366361893,-6.750841543943512,41.50515302538347,-6.30353426743002,41.20564523450292,-5.851898882308976,40.91580508396167,-5.396163980641839,40.63582736674417,-4.93655815449007,40.36590687583479,-4.473309995915135,40.10623840421797,-4.006648096978485,39.857016744878116,-3.536801049741592,39.61843669079965,-3.063997446265904,39.390693034966965,-2.5884658786128893,39.1739805703645,-2.1104349388440076,38.968494089976645,-1.630133219020716,38.774428386787825,-1.1477893112044781,38.59197825378244,-0.6636318074567522,38.42133848394493,-0.17788929983899893,38.26270387025968,0.3092096195873202,38.11626920571111,0.797436358760744,37.98222928328365,1.2865623256198144,37.8607788959617,1.776358928103073,37.75211283672967,2.266597574149051,37.65642589857199,2.7570496716962944,37.57391287447304,3.2474866286833444,37.504768557417265,3.737679853048737,37.44918774038906,4.227400752731014,37.407365216372845,4.716420735668711,37.37949577835304,5.2045112098003745,37.365774219314034,5.691443583064537,37.36639533224027,6.176989263399742,37.38155391011613,6.660919658744528,37.41144474592607,7.143006177037434,37.45626263265446,7.623020226217003,37.516202363285736,8.10073321422177,37.5914587308043,8.575916548990278,37.682226528194576,9.048341638461064,37.78870054844097,9.517779890572667,37.91107558452789,9.984002713263632,38.04954642943977,10.446781514472494,38.20430787616101,10.905887702137793,38.37555471767601,11.36109268419807,38.5634817469692,11.812167868591862,38.76828375702498,12.258884663257714,38.99015554082778,12.701014476134159,39.229291891362,13.138328715159739,39.48588760161207,13.570598788272997,39.760137464562376,13.997596103412471,40.05223627319735,14.419092068516697,40.362378820501405,14.834858091524216,40.690759899458946,15.244665580373573,41.037574303054384,15.648285943003296,41.40301682427214,16.045490587351935,41.78728225609663,16.43605092135803,42.190565391512266,16.819738352960115,42.61306102350345,17.196324290096733,43.0549639450546,17.565580140706423,43.51646894915013,17.92727731272772,43.99777082877446,18.28118721409917,44.499064376911996,18.627081252759307,45.02054438654715,18.964730836646677,45.56240565066434,19.293907373699813,46.12484296224797,19.614382271857263,46.70805111428247,19.925926939057558,47.31222489975223,20.228312783239247,47.93755911164169,20.521311212340855,48.58424854293524,20.804693634300936,49.252487986617304,21.07823145705802,49.94247223567229,21.341696088550652,50.65439608308461,21.594858936717372,51.388454321838694,21.837491409496717,52.14484174491893,22.06936491482723,52.923753145309746,22.290250860647426,53.7253833159955,22.06936491482721,52.92375314530969,21.837491409496696,52.144841744918885,21.594858936717355,51.388454321838644,21.341696088550634,50.65439608308457,21.078231457058,49.94247223567225,20.804693634300914,49.25248798661726,20.521311212340834,48.58424854293521,20.22831278323923,47.937559111641654,19.925926939057547,47.312224899752195,19.61438227185725,46.70805111428243,19.2939073736998,46.12484296224794,18.96473083664666,45.56240565066431,18.62708125275929,45.02054438654713,18.28118721409915,44.499064376911974,17.9272773127277,43.99777082877444,17.5655801407064,43.51646894915011,17.19632429009671,43.05496394505458,16.819738352960094,42.61306102350343,16.43605092135801,42.190565391512244,16.045490587351914,41.78728225609661,15.648285943003273,41.403016824272136,15.244665580373546,41.03757430305436,14.834858091524195,40.690759899458925,14.419092068516674,40.362378820501384,13.997596103412453,40.05223627319733,13.570598788272978,39.760137464562355,13.138328715159718,39.48588760161205,12.701014476134139,39.22929189136199,12.258884663257694,38.990155540827764,11.812167868591843,38.768283757024975,11.361092684198049,38.56348174696918,10.905887702137774,38.375554717675996,10.446781514472473,38.20430787616099,9.98400271326361,38.049546429439765,9.517779890572646,37.91107558452789,9.048341638461043,37.78870054844096,8.575916548990257,37.68222652819457,8.100733214221748,37.59145873080429,7.6230202262169815,37.51620236328572,7.143006177037412,37.45626263265446,6.660919658744507,37.411444745926055,6.176989263399719,37.381553910116125,5.6914435830645145,37.36639533224026,5.204511209800352,37.365774219314034,4.71642073566869,37.379495778353025,4.22740075273099,37.40736521637284,3.737679853048715,37.44918774038906,3.2474866286833217,37.50476855741726,2.7570496716962722,37.57391287447304,2.2665975741490274,37.65642589857199,1.776358928103049,37.75211283672968,1.2865623256197913,37.860778895961715,0.7974363587607216,37.982229283283665,0.30920961958729665,38.116269205711134,-0.17788929983902024,38.26270387025969,-0.6636318074567749,38.42133848394494,-1.1477893112045,38.59197825378246,-1.63013321902074,38.77442838678783,-2.1104349388440298,38.96849408997666,-2.5884658786129124,39.173980570364506,-3.063997446265927,39.390693034966986,-3.536801049741614,39.61843669079966,-4.006648096978508,39.85701674487814,-4.473309995915156,40.10623840421798,-4.9365581544900925,40.3659068758348,-5.396163980641859,40.635827366744174,-5.851898882308994,40.91580508396169,-6.303534267430042,41.20564523450294,-6.750841543943531,41.50515302538349,-7.193592119788011,41.814133663618954,-7.63155740290202,42.1323923562249,-8.064508801224097,42.459734310216916,-8.49221772269278,42.79596473261061,-8.914455575246608,43.14088883042154,-9.330993766824124,43.49431181066531,-9.741603705363863,43.8560388803575,-10.14605679880437,44.225875246513695,-10.544124455084182,44.6036261161495,-10.935578082141836,44.98909669628049,-11.320189087915873,45.38209219392224,-11.697728880344837,45.78241781609036,-12.067968867367263,46.189878769800416,-12.43068045692169,46.604280262068,-12.785635056946663,47.02542749990871,-13.132604075380717,47.453125690338126,-13.471358920162391,47.88718004037184,-13.801670999230229,48.32739575702542,-14.123311720522764,48.77357804731447,-14.436052491978543,49.22553211825458,-14.739664721536101,49.683063176861324,-15.033919817133977,50.1459764301503,-15.318589186710714,50.61407708513708,-15.59344423820485,51.087170348837276,-15.858256379554923,51.565061428266446,-16.112797018699478,52.0475555304402,-16.35683756357705,52.53445786237411,-16.590149422126174,53.02557363108377,-16.812504002285397,53.520708043584776,-17.023672711993257,54.019666306892695" fill="rgb(215,127,140)" stroke="black" stroke-width="3" stroke-linejoin="round" filter="url(#fuzzy)"></polyline></g></svg>