<svg viewBox="-100 -100 200 200" xmlns="http://www.w3.org/2000/svg" width="400" height="400" id="face-svg"><defs><clipPath id="leftEyeClipPath"><polyline points="33.57113765919869,-6.2258300070844825,33.185955593947305,-6.784099308033246,32.77539163252954,-7.345613700749496,32.33945209687944,-7.906959776198011,31.87822017010029,-8.464940579382272,31.3918531649732,-9.01657035437299,30.88057979246579,-9.55906928933664,30.344697430240853,-10.089858261564011,29.784569391164972,-10.606553582498723,29.20062219181721,-11.106961742765783,28.593342820997734,-11.589074157200097,27.963276008236473,-12.05106190987502,27.311021492301784,-12.491270499130913,26.637231289709092,-12.908214582603634,25.942606963229533,-13.300572722253104,25.22789689039863,-13.667182129391854,24.53157008342015,-14.360333011972113,23.795650707341952,-14.998815376848803,23.021441448422152,-15.580479589811766,22.210518108064576,-16.103724388874916,21.364698797941305,-16.567457079513414,20.486014497440014,-16.971055173525173,19.576680947316987,-17.314329446072815,18.639071853436647,-17.597488385462384,17.675693374478357,-17.821104010214842,16.68915986749144,-17.986079027986825,15.682170865179135,-18.093615310896627,14.657489258792383,-18.14518366181173,13.617920660514272,-18.142494846154126,12.56629391921595,-18.08747186377956,11.505442763464815,-17.982223435486937,10.438188545665897,-17.829018678714117,9.367324061217156,-17.63026294697631,8.295598416559624,-17.388474807603238,7.2257029200031315,-17.106264132331344,6.1602579692085175,-16.786311275307202,5.101800909207136,-16.43134731305833,4.052774834838451,-16.044135320987685,3.015518311486619,-15.627452660948027,1.992255987996824,-15.184074254452227,0.9850900756522272,-14.716756816076032,-0.004007332907614014,-14.228224021609115,-0.973201130946098,-13.721152585510978,-1.920799277185795,-13.198159222227666,-2.8452581137807513,-12.661788465925625,-3.7451869488240046,-12.114501323198883,-4.619351929509554,-11.558664733305747,-5.466679232067838,-10.99654181049128,-6.286257594594012,-10.430282842951705,-7.0773402188881285,-9.861917022996975,-7.839346067426387,-9.29334488296775,-8.571860581582648,-8.726331411462905,-9.274635847219354,-8.162499824433885,-9.947590233767095,-7.603325965702064,-10.59080753291186,-7.050133311455278,-11.204535623009324,-6.504088553279848,-11.78918468534508,-5.966197734284197,-12.345324998360315,-5.437302912870299,-12.873684335961816,-4.9180793287092825,-13.375144996035623,-4.4090330454771856,-13.850740485283463,-3.9104990449072776,-14.301651886501112,-3.4226397467150242,-14.729203934417924,-2.945443928951983,-15.134860826216574,-2.4787260233447865,-15.520221792852322,-2.02212576017547,-15.887016457290912,-1.5751081372593214,-16.23522017775373,-1.1374780199045142,-16.564013074274552,-0.7094667258363536,-16.874042623391993,-0.29101623944524846,-17.16597456616302,0.11797109573343789,-17.440489410059843,0.5176291693690023,-17.698278930866845,0.9081246966850127,-17.940042674577544,1.289653810808923,-18.166484459291514,1.6624386551216985,-18.3783088771113,2.026723975607414,-18.57621779603942,2.382773713202871,-18.760906861875206,2.7308675961472257,-18.93306200011182,3.0712977323315878,-19.093355917833158,3.4043652016486456,-19.24244460561076,3.7303766483422724,-19.848196781234392,8.227620331987197,-19.649471759587048,8.481882470460842,-19.442953046185202,8.736268013014687,-19.22813107761233,8.990472836251474,-19.0044794373838,9.244173408060893,-18.771457378666607,9.4970281777469,-18.52851234699921,9.748678966155062,-18.275082503011213,9.998752355799894,-18.010599245143215,10.246861080992177,-17.734489732366523,10.492605417966328,-17.446179406902957,10.735574575007693,-17.145094516944603,10.975348082579915,-16.830664639373577,11.21149718345225,-16.502325202481806,11.443586222826912,-16.15952000869081,11.671174038466408,-15.802616214319414,11.89549367868516,-15.431383216561187,12.117433791621966,-15.044435409979858,12.336042303214361,-14.640469827848502,12.550381622953301,-14.218270286255358,12.7595317670077,-13.776711400129823,12.962593464755036,-13.314762452352134,13.15869123833855,-12.831491097110458,13.346976444871279,-12.326066878669117,13.52663027090741,-11.797764546711637,13.696866668801276,-11.245967149422292,13.856935224574439,-10.670168885469835,14.006123946911144,-10.069977696057123,14.143761966902627,-9.445117578200321,14.269222138160607,-8.795430600401389,14.381923526920364,-8.120878601877553,14.481333781753749,-7.42154455651135,14.566971372512596,-6.697633582685146,14.638407688122767,-5.949473580163591,14.695268982849392,-5.177515475187871,14.73723816065357,-4.382333054945379,14.764056387260922,-3.5646223725784747,14.775524519562412,-2.7252007038960873,14.771504341967841,-1.865005036951814,14.751919599332286,-0.9850900756522254,14.716756816076032,-0.08662573855903943,14.666065891118212,0.829105865951103,14.599960458244675,1.7607140070056069,14.518618001530353,2.706703459869906,14.422279715436602,3.6654792147327875,14.311250099203843,4.635351784479393,14.185896275159907,5.614543130288128,14.046647020564444,6.6011932238878845,13.893991502609818,7.593367265311802,13.728477706198843,8.58906357498391,13.550710544119736,9.586222178974982,13.361349639238693,10.582734106263857,13.16110676833045,11.576451416840566,12.950742957167243,12.565197979487577,12.731065216486495,13.546781018075455,12.50292290845766,14.519003445209247,12.267203733268605,15.4796770020619,12.02482932545187,16.426636223230993,11.776750449571246,17.35775324545517,11.523941784888997,18.27095347902648,11.26739628863417,19.164232160734997,11.008119127492309,20.03567180718201,10.747121166937005,20.88346058729809,10.485412008023655,21.70591163290235,10.223992561265792,22.50148330613919,9.96384714721438,23.251086318481367,9.740679397732194,23.986421934843257,9.516733983988473,24.706595769723712,9.292443079271154,25.410726188385055,9.068242336785676,26.09794578040551,8.844570474357996,26.76740283323167,8.62186885913757,27.418262805730993,8.400581092300357,28.049709801744203,8.18115259375182,28.660948043637802,7.964030186829915,29.251203345856506,7.749661683008092,29.819724588475715,7.538495466598292,30.365785190753968,7.330980079453941,30.888684584685407,7.1275638056729544,31.38774968855222,6.928694256300726,31.86233638047714,6.734817954033131"></polyline></clipPath><clipPath id="rightEyeClipPath"><polyline points="-34.15052724543908,-4.4910795432430906,-33.79887386184689,-4.823764002598805,-33.42188845473115,-5.158832057385779,-33.019460568477,-5.494369908880986,-32.591563037141896,-5.8285808981459395,-32.138249111972755,-6.159782718957173,-31.65964958892312,-6.486404630736717,-31.155969936170333,-6.8069846714826,-30.62748742163272,-7.120166870699307,-30.074548240486706,-7.424698462328279,-29.49756464268404,-7.719427097678396,-28.897012060468906,-8.003298058356446,-28.273426235895126,-8.275351469197634,-27.6274003483433,-8.534719511196034,-26.959582142037984,-8.780623634435099,-26.270671053564847,-9.012371771018124,-25.612353910527858,-9.426689493987485,-24.912638974406512,-9.811461058304925,-24.172721038431344,-10.165376346576654,-23.394084667881177,-10.487420591553278,-22.578472531646817,-10.776853983040453,-21.727855116061008,-11.03319198334431,-20.8444017946659,-11.256186339121658,-19.93045322758946,-11.445806777504949,-18.988495064202056,-11.602223374371878,-18.021132922724583,-11.725789582629805,-17.031068620459486,-11.817025908384718,-16.021077628316,-11.87660422286497,-14.993987723300936,-11.905332697969573,-13.952658812646302,-11.904141353311175,-12.899963903245178,-11.874068202623576,-11.83877119006711,-11.816245987403853,-10.77192723722436,-11.731889485659053,-9.702241225360408,-11.622283383627405,-8.632470239031912,-11.488770698344045,-7.565305567755605,-11.332741738921268,-6.503359994391354,-11.155623594413232,-5.449156044532743,-10.958870136135143,-4.40511517057655,-10.743952522306845,-3.373547844142375,-10.512350192890874,-2.3566445305138224,-10.265542342494872,-1.3564675187725488,-10.0049998592084,-0.37494358129644567,-9.73217771724412,0.58614256370657,-9.448507811253268,1.5251540129580246,-9.155392220185519,2.440606688490057,-8.854196888563095,3.3311736239771506,-8.54624571303917,4.195688553346997,-8.232815022110536,5.03314882799917,-7.915128436854519,5.842717688960292,-7.594352100560076,6.623725920304363,-7.271590265123163,7.375672910166916,-6.947881222076197,8.098227145681655,-6.624193566121744,8.791226168168265,-6.301422779040321,9.454676014900045,-5.980388121842318,10.088750173780046,-5.661829823034022,10.69378807725436,-5.346406550867732,11.270293161791262,-5.034693157445897,11.818930519254849,-4.727178682549365,12.340524166501833,-4.424264605059576,12.8360539595302,-4.1262633298448055,13.306652178508354,-3.8333968979803617,13.753599810013451,-3.5457959081727717,14.178322552807558,-3.263498637257876,14.58238657348032,-2.986450347642865,14.967494038286898,-2.7145027695622126,15.333652475480754,-2.4474272510930852,15.680073812871473,-2.1851784686771047,16.0073832258826,-1.9277947637757626,16.3162259911438,-1.6752917724927805,16.607263960329973,-1.4276640501303537,16.881172034000283,-1.1848866957453885,17.13863463543731,-0.9469169767057455,17.380342184486086,-0.7136959532464697,17.606987571393155,-0.485150103026041,17.819262630645753,-0.26119294568260787,18.017854614810766,-0.041726667390225236,18.203442668373903,0.17335625458490433,18.376694301578745,0.3841714273281909,18.538261864265827,0.5908409177204208,19.275454958538276,4.100273550782607,19.11455067012791,4.299677820327066,18.946242644427237,4.499808721206216,18.770059798098234,4.70050829868064,18.585514777399474,4.901606000897649,18.39210607716087,5.102919168674961,18.189320159758473,5.3042535252843805,17.976633574089178,5.505403666235475,17.75351507454554,5.706153549059258,17.519427739990473,5.906276983091859,17.27383109273205,6.105538119258205,17.01618321749825,6.303691939855702,16.74594288041171,6.500484748337906,16.46257164796449,6.695654659098206,16.165536005992838,6.888932087253505,15.85516719525851,7.081072327327417,15.5312478086313,7.272659669480289,15.192472956553807,7.4631539774286795,14.83760319958656,7.652005237074625,14.465468566184377,7.838655506352834,14.074972474168788,8.022540889945205,13.66509554007488,8.203093535205571,13.234899260550812,8.379743645637621,12.783529549988387,8.551921508268997,12.310220118562984,8.719059531264444,11.814295674861121,8.880594288121035,11.295174937274062,9.03596856478833,10.752373438335734,9.184633406056525,10.185506106183233,9.326050157555443,9.594289607318391,9.45969249970737,8.978544434848526,9.585048469976677,8.338196726384858,9.701622469759176,7.673279795776825,9.808937252254111,6.983935362860663,9.906535887661825,6.2704144654005525,9.993983702049977,5.533078037400667,10.07087018623129,4.7723971379664025,10.136810870995753,3.9889528148931923,10.191449165040268,3.183435587161128,10.234458151938632,2.356644530513824,10.265542342494872,1.5094859502997124,10.284439378822825,0.6429716257542122,10.290921686494926,-0.24178339009898053,10.284798071103179,-1.1435634307491078,10.265915255575205,-2.061055352523814,10.234159354588403,-2.9928521627604807,10.189457282425053,-3.9374571556451086,10.131778090611434,-4.893288571540485,10.061134231683791,-5.858684795625252,9.977582745424236,-6.831910111665563,9.881226363909345,-7.811161026741055,9.772214531714596,-8.794573182746756,9.65074433761746,-9.780228870492625,9.517061354142152,-10.766165162222421,9.371460381288973,-11.750382678373551,9.214286090791212,-12.730855004399611,9.045933567242509,-13.705538773477256,8.866848742437707,-14.672384430919092,8.677528719270036,-15.629347696114301,8.478521981527704,-16.574401737818633,8.2704284859327,-17.50555007861545,8.053899632764896,-18.420840244369526,7.829638111414304,-19.31837817449527,7.598397617204466,-20.196343408861026,7.360982435829932,-21.05300506715117,7.118246891750769,-21.831846519438376,6.935036051351832,-22.599000190617446,6.748404571780669,-23.3534663673978,6.558748835282313,-24.094242115094424,6.366484823769369,-24.820322206770058,6.172048436585521,-25.530700052377384,5.975895808269056,-26.224368627901256,5.778503626316401,-26.900321404500882,5.580369448945626,-27.557553277652023,5.382012022859971,-28.195061496289195,5.183971601011379,-28.811846591947884,4.986810260364,-29.40691330790673,4.791112219657727,-29.979271528329726,4.59748415717171,-30.527937207408417,4.406555528487885,-31.05193329850413,4.218978884254486"></polyline></clipPath><filter id="fuzzy"><feTurbulence id="turbulence" baseFrequency="0.05" numOctaves="3" type="noise" result="noise"></feTurbulence><feDisplacementMap in="SourceGraphic" in2="noise" scale="2"></feDisplacementMap></filter><linearGradient id="rainbowGradient" x1="0%" y1="0%" x2="100%" y2="0%"><stop offset="0%" style="stop-color: rgb(165, 42, 42);  stop-opacity: 1"></stop><stop offset="15.876895645141738%" style="stop-color: rgb(220, 20, 60);  stop-opacity: 1"></stop><stop offset="100%" style="stop-color: rgb(167, 133, 106);  stop-opacity: 1"></stop></linearGradient></defs><title>That&#39;s an ugly face</title><desc>CREATED BY XUAN TANG, MORE INFO AT TXSTC55.GITHUB.IO</desc><rect x="-100" y="-100" width="100%" height="100%" opacity="1" fill="rgb(139, 0, 0)"></rect><polyline id="faceContour" points="59,0,59,2,59,1,59,6,59,7,59,9,59,10,59,10,58,13,58,13,58,14,58,16,58,19,58,19,58,19,57,24,57,24,56,27,56,27,56,29,56,28,55,30,56,30,54,35,54,35,54,37,54,38,54,37,53,40,52,42,52,43,51,44,51,46,50,48,51,46,49,51,49,50,48,54,48,53,47,55,47,55,46,58,46,57,45,59,45,60,44,61,43,62,43,63,43,64,41,66,41,66,40,67,39,69,38,70,38,71,37,71,37,72,35,74,34,75,34,75,34,75,34,76,32,77,32,78,30,79,30,78,30,79,30,79,27,81,27,81,27,82,25,83,24,83,23,84,23,84,22,85,20,86,20,85,20,86,18,87,18,87,16,87,17,87,15,88,14,88,13,89,12,88,12,89,11,89,11,89,9,90,9,89,7,90,5,90,4,90,4,90,4,90,2,90,3,90,0,90,-1,90,-1,89,-3,90,-4,89,-3,89,-5,89,-5,89,-6,89,-6,89,-7,88,-8,88,-9,88,-11,87,-11,87,-12,87,-12,87,-14,86,-16,85,-17,84,-17,85,-18,84,-19,83,-20,83,-19,83,-22,82,-22,81,-22,81,-23,80,-24,80,-26,78,-26,78,-26,79,-27,77,-29,75,-30,74,-30,74,-32,73,-31,73,-32,73,-33,71,-34,71,-34,70,-35,70,-35,69,-37,67,-37,66,-37,66,-38,64,-40,63,-40,62,-41,61,-42,60,-42,60,-42,59,-43,58,-45,55,-45,54,-45,54,-45,54,-47,51,-47,50,-48,49,-48,47,-48,47,-49,45,-50,45,-50,43,-50,43,-51,40,-51,41,-52,39,-52,38,-53,36,-53,35,-54,35,-54,33,-54,32,-54,31,-55,30,-55,27,-56,25,-56,26,-56,24,-57,23,-57,20,-57,19,-57,20,-57,17,-58,17,-58,14,-58,13,-58,11,-58,12,-59,9,-59,7,-59,6,-59,6,-59,4,-59,3,-59,2,-59,-2,-59,0,-59,-3,-59,-5,-59,-6,-59,-7,-59,-9,-59,-11,-59,-11,-59,-12,-59,-12,-59,-15,-59,-17,-58,-18,-58,-19,-58,-18,-58,-20,-58,-22,-58,-24,-58,-24,-57,-25,-57,-28,-56,-30,-56,-30,-56,-31,-56,-32,-55,-35,-55,-37,-54,-38,-54,-38,-54,-38,-53,-42,-53,-43,-53,-43,-52,-44,-52,-45,-51,-45,-51,-47,-50,-48,-50,-50,-49,-50,-49,-50,-49,-52,-47,-54,-47,-55,-46,-56,-46,-57,-45,-58,-45,-59,-44,-60,-43,-62,-43,-61,-42,-63,-41,-65,-40,-66,-39,-67,-40,-66,-38,-68,-39,-68,-37,-69,-36,-70,-36,-70,-34,-73,-35,-72,-32,-75,-33,-74,-31,-76,-31,-76,-30,-76,-30,-77,-28,-78,-27,-79,-26,-80,-24,-81,-24,-81,-24,-81,-22,-83,-22,-82,-21,-83,-21,-83,-18,-85,-19,-84,-18,-85,-16,-86,-16,-86,-14,-86,-14,-86,-13,-87,-12,-88,-11,-88,-10,-88,-9,-88,-7,-89,-7,-89,-5,-89,-6,-89,-3,-90,-3,-90,-2,-90,-1,-90,1,-90,2,-90,2,-90,4,-90,3,-90,5,-90,6,-90,6,-90,9,-90,9,-90,9,-89,12,-89,11,-90,13,-89,13,-89,14,-89,16,-88,16,-88,18,-87,18,-87,19,-87,19,-87,20,-87,21,-86,24,-85,23,-85,26,-83,26,-83,27,-83,27,-83,27,-83,29,-81,29,-81,31,-80,31,-80,32,-79,33,-78,34,-77,35,-76,36,-76,35,-76,36,-76,38,-73,37,-74,39,-72,40,-71,41,-70,42,-68,43,-67,44,-66,44,-66,44,-65,44,-65,45,-64,46,-62,47,-60,46,-61,47,-60,48,-58,48,-58,49,-55,50,-54,49,-55,50,-54,51,-51,52,-50,52,-47,52,-49,53,-46,54,-44,54,-43,54,-42,54,-42,55,-39,55,-38,56,-35,56,-35,56,-33,57,-31,57,-31,57,-30,57,-28,58,-26,58,-23,58,-24,58,-22,58,-22,59,-19,59,-17,59,-16,59,-16,59,-11,59,-10,59,-9,59,-10,59,-8,59,-6,59,-5,59,-2,59,-2,59,0,59,2" fill="#ffc9a9" stroke="black" stroke-width="1.6666666666666665" stroke-linejoin="round" filter="url(#fuzzy)"></polyline><g transform="translate(22.919942795561983 -22.05719182485463)"><polyline id="rightCountour" points="-34.15052724543908,-4.4910795432430906,-33.79887386184689,-4.823764002598805,-33.42188845473115,-5.158832057385779,-33.019460568477,-5.494369908880986,-32.591563037141896,-5.8285808981459395,-32.138249111972755,-6.159782718957173,-31.65964958892312,-6.486404630736717,-31.155969936170333,-6.8069846714826,-30.62748742163272,-7.120166870699307,-30.074548240486706,-7.424698462328279,-29.49756464268404,-7.719427097678396,-28.897012060468906,-8.003298058356446,-28.273426235895126,-8.275351469197634,-27.6274003483433,-8.534719511196034,-26.959582142037984,-8.780623634435099,-26.270671053564847,-9.012371771018124,-25.612353910527858,-9.426689493987485,-24.912638974406512,-9.811461058304925,-24.172721038431344,-10.165376346576654,-23.394084667881177,-10.487420591553278,-22.578472531646817,-10.776853983040453,-21.727855116061008,-11.03319198334431,-20.8444017946659,-11.256186339121658,-19.93045322758946,-11.445806777504949,-18.988495064202056,-11.602223374371878,-18.021132922724583,-11.725789582629805,-17.031068620459486,-11.817025908384718,-16.021077628316,-11.87660422286497,-14.993987723300936,-11.905332697969573,-13.952658812646302,-11.904141353311175,-12.899963903245178,-11.874068202623576,-11.83877119006711,-11.816245987403853,-10.77192723722436,-11.731889485659053,-9.702241225360408,-11.622283383627405,-8.632470239031912,-11.488770698344045,-7.565305567755605,-11.332741738921268,-6.503359994391354,-11.155623594413232,-5.449156044532743,-10.958870136135143,-4.40511517057655,-10.743952522306845,-3.373547844142375,-10.512350192890874,-2.3566445305138224,-10.265542342494872,-1.3564675187725488,-10.0049998592084,-0.37494358129644567,-9.73217771724412,0.58614256370657,-9.448507811253268,1.5251540129580246,-9.155392220185519,2.440606688490057,-8.854196888563095,3.3311736239771506,-8.54624571303917,4.195688553346997,-8.232815022110536,5.03314882799917,-7.915128436854519,5.842717688960292,-7.594352100560076,6.623725920304363,-7.271590265123163,7.375672910166916,-6.947881222076197,8.098227145681655,-6.624193566121744,8.791226168168265,-6.301422779040321,9.454676014900045,-5.980388121842318,10.088750173780046,-5.661829823034022,10.69378807725436,-5.346406550867732,11.270293161791262,-5.034693157445897,11.818930519254849,-4.727178682549365,12.340524166501833,-4.424264605059576,12.8360539595302,-4.1262633298448055,13.306652178508354,-3.8333968979803617,13.753599810013451,-3.5457959081727717,14.178322552807558,-3.263498637257876,14.58238657348032,-2.986450347642865,14.967494038286898,-2.7145027695622126,15.333652475480754,-2.4474272510930852,15.680073812871473,-2.1851784686771047,16.0073832258826,-1.9277947637757626,16.3162259911438,-1.6752917724927805,16.607263960329973,-1.4276640501303537,16.881172034000283,-1.1848866957453885,17.13863463543731,-0.9469169767057455,17.380342184486086,-0.7136959532464697,17.606987571393155,-0.485150103026041,17.819262630645753,-0.26119294568260787,18.017854614810766,-0.041726667390225236,18.203442668373903,0.17335625458490433,18.376694301578745,0.3841714273281909,18.538261864265827,0.5908409177204208,19.275454958538276,4.100273550782607,19.11455067012791,4.299677820327066,18.946242644427237,4.499808721206216,18.770059798098234,4.70050829868064,18.585514777399474,4.901606000897649,18.39210607716087,5.102919168674961,18.189320159758473,5.3042535252843805,17.976633574089178,5.505403666235475,17.75351507454554,5.706153549059258,17.519427739990473,5.906276983091859,17.27383109273205,6.105538119258205,17.01618321749825,6.303691939855702,16.74594288041171,6.500484748337906,16.46257164796449,6.695654659098206,16.165536005992838,6.888932087253505,15.85516719525851,7.081072327327417,15.5312478086313,7.272659669480289,15.192472956553807,7.4631539774286795,14.83760319958656,7.652005237074625,14.465468566184377,7.838655506352834,14.074972474168788,8.022540889945205,13.66509554007488,8.203093535205571,13.234899260550812,8.379743645637621,12.783529549988387,8.551921508268997,12.310220118562984,8.719059531264444,11.814295674861121,8.880594288121035,11.295174937274062,9.03596856478833,10.752373438335734,9.184633406056525,10.185506106183233,9.326050157555443,9.594289607318391,9.45969249970737,8.978544434848526,9.585048469976677,8.338196726384858,9.701622469759176,7.673279795776825,9.808937252254111,6.983935362860663,9.906535887661825,6.2704144654005525,9.993983702049977,5.533078037400667,10.07087018623129,4.7723971379664025,10.136810870995753,3.9889528148931923,10.191449165040268,3.183435587161128,10.234458151938632,2.356644530513824,10.265542342494872,1.5094859502997124,10.284439378822825,0.6429716257542122,10.290921686494926,-0.24178339009898053,10.284798071103179,-1.1435634307491078,10.265915255575205,-2.061055352523814,10.234159354588403,-2.9928521627604807,10.189457282425053,-3.9374571556451086,10.131778090611434,-4.893288571540485,10.061134231683791,-5.858684795625252,9.977582745424236,-6.831910111665563,9.881226363909345,-7.811161026741055,9.772214531714596,-8.794573182746756,9.65074433761746,-9.780228870492625,9.517061354142152,-10.766165162222421,9.371460381288973,-11.750382678373551,9.214286090791212,-12.730855004399611,9.045933567242509,-13.705538773477256,8.866848742437707,-14.672384430919092,8.677528719270036,-15.629347696114301,8.478521981527704,-16.574401737818633,8.2704284859327,-17.50555007861545,8.053899632764896,-18.420840244369526,7.829638111414304,-19.31837817449527,7.598397617204466,-20.196343408861026,7.360982435829932,-21.05300506715117,7.118246891750769,-21.831846519438376,6.935036051351832,-22.599000190617446,6.748404571780669,-23.3534663673978,6.558748835282313,-24.094242115094424,6.366484823769369,-24.820322206770058,6.172048436585521,-25.530700052377384,5.975895808269056,-26.224368627901256,5.778503626316401,-26.900321404500882,5.580369448945626,-27.557553277652023,5.382012022859971,-28.195061496289195,5.183971601011379,-28.811846591947884,4.986810260364,-29.40691330790673,4.791112219657727,-29.979271528329726,4.59748415717171,-30.527937207408417,4.406555528487885,-31.05193329850413,4.218978884254486" fill="white" stroke="white" stroke-width="0" stroke-linejoin="round" filter="url(#fuzzy)"></polyline></g><g transform="translate(-29.20824775000417 -23.503485290627488)"><polyline id="leftCountour" points="33.57113765919869,-6.2258300070844825,33.185955593947305,-6.784099308033246,32.77539163252954,-7.345613700749496,32.33945209687944,-7.906959776198011,31.87822017010029,-8.464940579382272,31.3918531649732,-9.01657035437299,30.88057979246579,-9.55906928933664,30.344697430240853,-10.089858261564011,29.784569391164972,-10.606553582498723,29.20062219181721,-11.106961742765783,28.593342820997734,-11.589074157200097,27.963276008236473,-12.05106190987502,27.311021492301784,-12.491270499130913,26.637231289709092,-12.908214582603634,25.942606963229533,-13.300572722253104,25.22789689039863,-13.667182129391854,24.53157008342015,-14.360333011972113,23.795650707341952,-14.998815376848803,23.021441448422152,-15.580479589811766,22.210518108064576,-16.103724388874916,21.364698797941305,-16.567457079513414,20.486014497440014,-16.971055173525173,19.576680947316987,-17.314329446072815,18.639071853436647,-17.597488385462384,17.675693374478357,-17.821104010214842,16.68915986749144,-17.986079027986825,15.682170865179135,-18.093615310896627,14.657489258792383,-18.14518366181173,13.617920660514272,-18.142494846154126,12.56629391921595,-18.08747186377956,11.505442763464815,-17.982223435486937,10.438188545665897,-17.829018678714117,9.367324061217156,-17.63026294697631,8.295598416559624,-17.388474807603238,7.2257029200031315,-17.106264132331344,6.1602579692085175,-16.786311275307202,5.101800909207136,-16.43134731305833,4.052774834838451,-16.044135320987685,3.015518311486619,-15.627452660948027,1.992255987996824,-15.184074254452227,0.9850900756522272,-14.716756816076032,-0.004007332907614014,-14.228224021609115,-0.973201130946098,-13.721152585510978,-1.920799277185795,-13.198159222227666,-2.8452581137807513,-12.661788465925625,-3.7451869488240046,-12.114501323198883,-4.619351929509554,-11.558664733305747,-5.466679232067838,-10.99654181049128,-6.286257594594012,-10.430282842951705,-7.0773402188881285,-9.861917022996975,-7.839346067426387,-9.29334488296775,-8.571860581582648,-8.726331411462905,-9.274635847219354,-8.162499824433885,-9.947590233767095,-7.603325965702064,-10.59080753291186,-7.050133311455278,-11.204535623009324,-6.504088553279848,-11.78918468534508,-5.966197734284197,-12.345324998360315,-5.437302912870299,-12.873684335961816,-4.9180793287092825,-13.375144996035623,-4.4090330454771856,-13.850740485283463,-3.9104990449072776,-14.301651886501112,-3.4226397467150242,-14.729203934417924,-2.945443928951983,-15.134860826216574,-2.4787260233447865,-15.520221792852322,-2.02212576017547,-15.887016457290912,-1.5751081372593214,-16.23522017775373,-1.1374780199045142,-16.564013074274552,-0.7094667258363536,-16.874042623391993,-0.29101623944524846,-17.16597456616302,0.11797109573343789,-17.440489410059843,0.5176291693690023,-17.698278930866845,0.9081246966850127,-17.940042674577544,1.289653810808923,-18.166484459291514,1.6624386551216985,-18.3783088771113,2.026723975607414,-18.57621779603942,2.382773713202871,-18.760906861875206,2.7308675961472257,-18.93306200011182,3.0712977323315878,-19.093355917833158,3.4043652016486456,-19.24244460561076,3.7303766483422724,-19.848196781234392,8.227620331987197,-19.649471759587048,8.481882470460842,-19.442953046185202,8.736268013014687,-19.22813107761233,8.990472836251474,-19.0044794373838,9.244173408060893,-18.771457378666607,9.4970281777469,-18.52851234699921,9.748678966155062,-18.275082503011213,9.998752355799894,-18.010599245143215,10.246861080992177,-17.734489732366523,10.492605417966328,-17.446179406902957,10.735574575007693,-17.145094516944603,10.975348082579915,-16.830664639373577,11.21149718345225,-16.502325202481806,11.443586222826912,-16.15952000869081,11.671174038466408,-15.802616214319414,11.89549367868516,-15.431383216561187,12.117433791621966,-15.044435409979858,12.336042303214361,-14.640469827848502,12.550381622953301,-14.218270286255358,12.7595317670077,-13.776711400129823,12.962593464755036,-13.314762452352134,13.15869123833855,-12.831491097110458,13.346976444871279,-12.326066878669117,13.52663027090741,-11.797764546711637,13.696866668801276,-11.245967149422292,13.856935224574439,-10.670168885469835,14.006123946911144,-10.069977696057123,14.143761966902627,-9.445117578200321,14.269222138160607,-8.795430600401389,14.381923526920364,-8.120878601877553,14.481333781753749,-7.42154455651135,14.566971372512596,-6.697633582685146,14.638407688122767,-5.949473580163591,14.695268982849392,-5.177515475187871,14.73723816065357,-4.382333054945379,14.764056387260922,-3.5646223725784747,14.775524519562412,-2.7252007038960873,14.771504341967841,-1.865005036951814,14.751919599332286,-0.9850900756522254,14.716756816076032,-0.08662573855903943,14.666065891118212,0.829105865951103,14.599960458244675,1.7607140070056069,14.518618001530353,2.706703459869906,14.422279715436602,3.6654792147327875,14.311250099203843,4.635351784479393,14.185896275159907,5.614543130288128,14.046647020564444,6.6011932238878845,13.893991502609818,7.593367265311802,13.728477706198843,8.58906357498391,13.550710544119736,9.586222178974982,13.361349639238693,10.582734106263857,13.16110676833045,11.576451416840566,12.950742957167243,12.565197979487577,12.731065216486495,13.546781018075455,12.50292290845766,14.519003445209247,12.267203733268605,15.4796770020619,12.02482932545187,16.426636223230993,11.776750449571246,17.35775324545517,11.523941784888997,18.27095347902648,11.26739628863417,19.164232160734997,11.008119127492309,20.03567180718201,10.747121166937005,20.88346058729809,10.485412008023655,21.70591163290235,10.223992561265792,22.50148330613919,9.96384714721438,23.251086318481367,9.740679397732194,23.986421934843257,9.516733983988473,24.706595769723712,9.292443079271154,25.410726188385055,9.068242336785676,26.09794578040551,8.844570474357996,26.76740283323167,8.62186885913757,27.418262805730993,8.400581092300357,28.049709801744203,8.18115259375182,28.660948043637802,7.964030186829915,29.251203345856506,7.749661683008092,29.819724588475715,7.538495466598292,30.365785190753968,7.330980079453941,30.888684584685407,7.1275638056729544,31.38774968855222,6.928694256300726,31.86233638047714,6.734817954033131" fill="white" stroke="white" stroke-width="0" stroke-linejoin="round" filter="url(#fuzzy)"></polyline></g><g transform="translate(22.919942795561983 -22.05719182485463)"><polyline id="rightUpper" points="-36.36340284916888,-1.8057030765869246,-36.23861708886068,-1.9815291445611023,-36.09481673937804,-2.185932638640009,-35.93090046182711,-2.4156750734318257,-35.7458789318147,-2.667662974024437,-35.53887196696545,-2.9389450889159203,-35.30910565443899,-3.2267096029450215,-35.05590947844706,-3.52828135022164,-34.778713447770784,-3.8411190270573172,-34.47704522327772,-4.162812404895712,-34.15052724543908,-4.4910795432430906,-33.79887386184689,-4.823764002598805,-33.42188845473115,-5.158832057385779,-33.019460568477,-5.494369908880986,-32.591563037141896,-5.8285808981459395,-32.138249111972755,-6.159782718957173,-31.65964958892312,-6.486404630736717,-31.155969936170333,-6.8069846714826,-30.62748742163272,-7.120166870699307,-30.074548240486706,-7.424698462328279,-29.49756464268404,-7.719427097678396,-28.897012060468906,-8.003298058356446,-28.273426235895126,-8.275351469197634,-27.6274003483433,-8.534719511196034,-26.959582142037984,-8.780623634435099,-26.270671053564847,-9.012371771018124,-25.612353910527858,-9.426689493987485,-24.912638974406512,-9.811461058304925,-24.172721038431344,-10.165376346576654,-23.394084667881177,-10.487420591553278,-22.578472531646817,-10.776853983040453,-21.727855116061008,-11.03319198334431,-20.8444017946659,-11.256186339121658,-19.93045322758946,-11.445806777504949,-18.988495064202056,-11.602223374371878,-18.021132922724583,-11.725789582629805,-17.031068620459486,-11.817025908384718,-16.021077628316,-11.87660422286497,-14.993987723300936,-11.905332697969573,-13.952658812646302,-11.904141353311175,-12.899963903245178,-11.874068202623576,-11.83877119006711,-11.816245987403853,-10.77192723722436,-11.731889485659053,-9.702241225360408,-11.622283383627405,-8.632470239031912,-11.488770698344045,-7.565305567755605,-11.332741738921268,-6.503359994391354,-11.155623594413232,-5.449156044532743,-10.958870136135143,-4.40511517057655,-10.743952522306845,-3.373547844142375,-10.512350192890874,-2.3566445305138224,-10.265542342494872,-1.3564675187725488,-10.0049998592084,-0.37494358129644567,-9.73217771724412,0.58614256370657,-9.448507811253268,1.5251540129580246,-9.155392220185519,2.440606688490057,-8.854196888563095,3.3311736239771506,-8.54624571303917,4.195688553346997,-8.232815022110536,5.03314882799917,-7.915128436854519,5.842717688960292,-7.594352100560076,6.623725920304363,-7.271590265123163,7.375672910166916,-6.947881222076197,8.098227145681655,-6.624193566121744,8.791226168168265,-6.301422779040321,9.454676014900045,-5.980388121842318,10.088750173780046,-5.661829823034022,10.69378807725436,-5.346406550867732,11.270293161791262,-5.034693157445897,11.818930519254849,-4.727178682549365,12.340524166501833,-4.424264605059576,12.8360539595302,-4.1262633298448055,13.306652178508354,-3.8333968979803617,13.753599810013451,-3.5457959081727717,14.178322552807558,-3.263498637257876,14.58238657348032,-2.986450347642865,14.967494038286898,-2.7145027695622126,15.333652475480754,-2.4474272510930852,15.680073812871473,-2.1851784686771047,16.0073832258826,-1.9277947637757626,16.3162259911438,-1.6752917724927805,16.607263960329973,-1.4276640501303537,16.881172034000283,-1.1848866957453885,17.13863463543731,-0.9469169767057455,17.380342184486086,-0.7136959532464697,17.606987571393155,-0.485150103026041,17.819262630645753,-0.26119294568260787,18.017854614810766,-0.041726667390225236,18.203442668373903,0.17335625458490433,18.376694301578745,0.3841714273281909,18.538261864265827,0.5908409177204208,18.68877901971172,0.7934916278815133,18.828857218468144,0.9922536706142846,18.959082172200976,1.187258744848208,19.080010327529436,1.378638511083173,19.192165339865074,1.5665229668332474,19.296034547250912,1.751038822070442,19.392065444200515,1.9323078746684625,19.480662155537043,2.110445385846478,19.56218191023238,2.2855584556128767,19.636931515246186,2.4577443982090323" fill="none" stroke="black" stroke-width="1.6666666666666665" stroke-linejoin="round" filter="url(#fuzzy)"></polyline><polyline id="rightLower" points="-34.72698115894933,2.6882818642839164,-34.50121435879086,2.801140262855105,-34.24159686988341,2.925216288980594,-33.948984644347014,3.0596089643554074,-33.624249924893526,3.203443583376094,-33.26828031568434,3.355871395377201,-32.88197785318823,3.516069286867755,-32.4662580770391,3.6832394637677397,-32.02204910089385,3.8566091336445707,-31.55029068329013,4.035430187949579,-31.05193329850413,4.218978884254486,-30.527937207408417,4.406555528487885,-29.979271528329726,4.59748415717171,-29.40691330790673,4.791112219657727,-28.811846591947884,4.986810260364,-28.195061496289195,5.183971601011379,-27.557553277652023,5.382012022859971,-26.900321404500882,5.580369448945626,-26.224368627901256,5.778503626316401,-25.530700052377384,5.975895808269056,-24.820322206770058,6.172048436585521,-24.094242115094424,6.366484823769369,-23.3534663673978,6.558748835282313,-22.599000190617446,6.748404571780669,-21.831846519438376,6.935036051351832,-21.05300506715117,7.118246891750769,-20.196343408861026,7.360982435829932,-19.31837817449527,7.598397617204466,-18.420840244369526,7.829638111414304,-17.50555007861545,8.053899632764896,-16.574401737818633,8.2704284859327,-15.629347696114301,8.478521981527704,-14.672384430919092,8.677528719270036,-13.705538773477256,8.866848742437707,-12.730855004399611,9.045933567242509,-11.750382678373551,9.214286090791212,-10.766165162222421,9.371460381288973,-9.780228870492625,9.517061354142152,-8.794573182746756,9.65074433761746,-7.811161026741055,9.772214531714596,-6.831910111665563,9.881226363909345,-5.858684795625252,9.977582745424236,-4.893288571540485,10.061134231683791,-3.9374571556451086,10.131778090611434,-2.9928521627604807,10.189457282425053,-2.061055352523814,10.234159354588403,-1.1435634307491078,10.265915255575205,-0.24178339009898053,10.284798071103179,0.6429716257542122,10.290921686494926,1.5094859502997124,10.284439378822825,2.356644530513824,10.265542342494872,3.183435587161128,10.234458151938632,3.9889528148931923,10.191449165040268,4.7723971379664025,10.136810870995753,5.533078037400667,10.07087018623129,6.2704144654005525,9.993983702049977,6.983935362860663,9.906535887661825,7.673279795776825,9.808937252254111,8.338196726384858,9.701622469759176,8.978544434848526,9.585048469976677,9.594289607318391,9.45969249970737,10.185506106183233,9.326050157555443,10.752373438335734,9.184633406056525,11.295174937274062,9.03596856478833,11.814295674861121,8.880594288121035,12.310220118562984,8.719059531264444,12.783529549988387,8.551921508268997,13.234899260550812,8.379743645637621,13.66509554007488,8.203093535205571,14.074972474168788,8.022540889945205,14.465468566184377,7.838655506352834,14.83760319958656,7.652005237074625,15.192472956553807,7.4631539774286795,15.5312478086313,7.272659669480289,15.85516719525851,7.081072327327417,16.165536005992838,6.888932087253505,16.46257164796449,6.695654659098206,16.74594288041171,6.500484748337906,17.01618321749825,6.303691939855702,17.27383109273205,6.105538119258205,17.519427739990473,5.906276983091859,17.75351507454554,5.706153549059258,17.976633574089178,5.505403666235475,18.189320159758473,5.3042535252843805,18.39210607716087,5.102919168674961,18.585514777399474,4.901606000897649,18.770059798098234,4.70050829868064,18.946242644427237,4.499808721206216,19.11455067012791,4.299677820327066,19.275454958538276,4.100273550782607,19.429408203618202,3.901740780415311,19.576842590974636,3.704210800387021,19.718167678886836,3.5078008353952765,19.853768279331643,3.3126135538896384,19.984002339008672,3.118736578288004,20.109198820365613,2.926241995192928,20.229655582623455,2.7351858656079573,20.345637262801656,2.545607735153939,20.45737315674352,2.3575301442853505,20.565055100141322,2.170958138506618" fill="none" stroke="black" stroke-width="2.2222222222222223" stroke-linejoin="round" filter="url(#fuzzy)"></polyline><!--[--><circle r="4.8668333662443946" cx="6.062042708249505" cy="2.164764553529335" stroke="black" fill="none" stroke-width="1" filter="url(#fuzzy)" clip-path="url(#rightEyeClipPath)"></circle><circle r="3.516672960051721" cx="6.423289922321979" cy="1.8631037582235717" stroke="black" fill="none" stroke-width="1" filter="url(#fuzzy)" clip-path="url(#rightEyeClipPath)"></circle><circle r="4.957117074713542" cx="2.905199982299404" cy="4.953200377001715" stroke="black" fill="none" stroke-width="1" filter="url(#fuzzy)" clip-path="url(#rightEyeClipPath)"></circle><circle r="4.218029677563477" cx="1.4507366071266405" cy="1.425394344381286" stroke="black" fill="none" stroke-width="1" filter="url(#fuzzy)" clip-path="url(#rightEyeClipPath)"></circle><circle r="4.811614867752823" cx="1.4733345780846139" cy="2.058966074308202" stroke="black" fill="none" stroke-width="1" filter="url(#fuzzy)" clip-path="url(#rightEyeClipPath)"></circle><circle r="4.852742789509165" cx="2.7205750704718694" cy="4.405944302107282" stroke="black" fill="none" stroke-width="1" filter="url(#fuzzy)" clip-path="url(#rightEyeClipPath)"></circle><circle r="3.7002082081741303" cx="4.066041677869313" cy="5.154659750218466" stroke="black" fill="none" stroke-width="1" filter="url(#fuzzy)" clip-path="url(#rightEyeClipPath)"></circle><circle r="4.7880483946912165" cx="5.99525256674627" cy="1.285057026413396" stroke="black" fill="none" stroke-width="1" filter="url(#fuzzy)" clip-path="url(#rightEyeClipPath)"></circle><circle r="3.313352847755404" cx="4.370002315864965" cy="2.865203163852353" stroke="black" fill="none" stroke-width="1" filter="url(#fuzzy)" clip-path="url(#rightEyeClipPath)"></circle><circle r="4.368686273676064" cx="5.2403488653889845" cy="3.9909685069792884" stroke="black" fill="none" stroke-width="1" filter="url(#fuzzy)" clip-path="url(#rightEyeClipPath)"></circle><!--]--></g><g transform="translate(-29.20824775000417 -23.503485290627488)"><polyline id="leftUpper" points="36.08598737872691,-1.7378521230940223,35.9361095079742,-2.0245558163213557,35.765614814117235,-2.361699757518645,35.57359077537391,-2.743416973833206,35.35922904604478,-3.164109496165686,35.12182272502176,-3.618443104198608,34.86076362429675,-4.101342071424897,34.57553953747028,-4.60798391017642,34.26573150826016,-5.133794116652524,33.93101109901017,-5.6744409159485745,33.57113765919869,-6.2258300070844825,33.185955593947305,-6.784099308033246,32.77539163252954,-7.345613700749496,32.33945209687944,-7.906959776198011,31.87822017010029,-8.464940579382272,31.3918531649732,-9.01657035437299,30.88057979246579,-9.55906928933664,30.344697430240853,-10.089858261564011,29.784569391164972,-10.606553582498723,29.20062219181721,-11.106961742765783,28.593342820997734,-11.589074157200097,27.963276008236473,-12.05106190987502,27.311021492301784,-12.491270499130913,26.637231289709092,-12.908214582603634,25.942606963229533,-13.300572722253104,25.22789689039863,-13.667182129391854,24.53157008342015,-14.360333011972113,23.795650707341952,-14.998815376848803,23.021441448422152,-15.580479589811766,22.210518108064576,-16.103724388874916,21.364698797941305,-16.567457079513414,20.486014497440014,-16.971055173525173,19.576680947316987,-17.314329446072815,18.639071853436647,-17.597488385462384,17.675693374478357,-17.821104010214842,16.68915986749144,-17.986079027986825,15.682170865179135,-18.093615310896627,14.657489258792383,-18.14518366181173,13.617920660514272,-18.142494846154126,12.56629391921595,-18.08747186377956,11.505442763464815,-17.982223435486937,10.438188545665897,-17.829018678714117,9.367324061217156,-17.63026294697631,8.295598416559624,-17.388474807603238,7.2257029200031315,-17.106264132331344,6.1602579692085175,-16.786311275307202,5.101800909207136,-16.43134731305833,4.052774834838451,-16.044135320987685,3.015518311486619,-15.627452660948027,1.992255987996824,-15.184074254452227,0.9850900756522272,-14.716756816076032,-0.004007332907614014,-14.228224021609115,-0.973201130946098,-13.721152585510978,-1.920799277185795,-13.198159222227666,-2.8452581137807513,-12.661788465925625,-3.7451869488240046,-12.114501323198883,-4.619351929509554,-11.558664733305747,-5.466679232067838,-10.99654181049128,-6.286257594594012,-10.430282842951705,-7.0773402188881285,-9.861917022996975,-7.839346067426387,-9.29334488296775,-8.571860581582648,-8.726331411462905,-9.274635847219354,-8.162499824433885,-9.947590233767095,-7.603325965702064,-10.59080753291186,-7.050133311455278,-11.204535623009324,-6.504088553279848,-11.78918468534508,-5.966197734284197,-12.345324998360315,-5.437302912870299,-12.873684335961816,-4.9180793287092825,-13.375144996035623,-4.4090330454771856,-13.850740485283463,-3.9104990449072776,-14.301651886501112,-3.4226397467150242,-14.729203934417924,-2.945443928951983,-15.134860826216574,-2.4787260233447865,-15.520221792852322,-2.02212576017547,-15.887016457290912,-1.5751081372593214,-16.23522017775373,-1.1374780199045142,-16.564013074274552,-0.7094667258363536,-16.874042623391993,-0.29101623944524846,-17.16597456616302,0.11797109573343789,-17.440489410059843,0.5176291693690023,-17.698278930866845,0.9081246966850127,-17.940042674577544,1.289653810808923,-18.166484459291514,1.6624386551216985,-18.3783088771113,2.026723975607414,-18.57621779603942,2.382773713202871,-18.760906861875206,2.7308675961472257,-18.93306200011182,3.0712977323315878,-19.093355917833158,3.4043652016486456,-19.24244460561076,3.7303766483422724,-19.38096383940081,4.049640873357148,-19.50952568244102,4.362465426688365,-19.62871498714756,4.669153199731057,-19.739085897012036,4.969999017629993,-19.841158348498393,5.26528623162921,-19.935414572939877,5.555283311421622,-20.022295598435925,5.840240437498627,-20.102197751749152,6.120386093499732,-20.17546916020225,6.395923658562159,-20.242406253574963,6.6670279996704656" fill="none" stroke="black" stroke-width="2.2222222222222223" stroke-linejoin="round" filter="url(#fuzzy)"></polyline><polyline id="leftLower" points="35.143840167922036,5.167308920696652,34.942039543741686,5.28723037789663,34.711236261616826,5.416459084595665,34.45170379963415,5.554582242928259,34.1637593312455,5.701181813709359,33.84776225171538,5.855834931731367,33.5041127045685,6.018114321061142,33.133250108037316,6.187588710336997,32.73565168150958,6.363823248065708,32.31183097197588,6.546379917919518,31.86233638047714,6.734817954033131,31.38774968855222,6.928694256300726,30.888684584685407,7.1275638056729544,30.365785190753968,7.330980079453941,29.819724588475715,7.538495466598292,29.251203345856506,7.749661683008092,28.660948043637802,7.964030186829915,28.049709801744203,8.18115259375182,27.418262805730993,8.400581092300357,26.76740283323167,8.62186885913757,26.09794578040551,8.844570474357996,25.410726188385055,9.068242336785676,24.706595769723712,9.292443079271154,23.986421934843257,9.516733983988473,23.251086318481367,9.740679397732194,22.50148330613919,9.96384714721438,21.70591163290235,10.223992561265792,20.88346058729809,10.485412008023655,20.03567180718201,10.747121166937005,19.164232160734997,11.008119127492309,18.27095347902648,11.26739628863417,17.35775324545517,11.523941784888997,16.426636223230993,11.776750449571246,15.4796770020619,12.02482932545187,14.519003445209247,12.267203733268605,13.546781018075455,12.50292290845766,12.565197979487577,12.731065216486495,11.576451416840566,12.950742957167243,10.582734106263857,13.16110676833045,9.586222178974982,13.361349639238693,8.58906357498391,13.550710544119736,7.593367265311802,13.728477706198843,6.6011932238878845,13.893991502609818,5.614543130288128,14.046647020564444,4.635351784479393,14.185896275159907,3.6654792147327875,14.311250099203843,2.706703459869906,14.422279715436602,1.7607140070056069,14.518618001530353,0.829105865951103,14.599960458244675,-0.08662573855903943,14.666065891118212,-0.9850900756522254,14.716756816076032,-1.865005036951814,14.751919599332286,-2.7252007038960873,14.771504341967841,-3.5646223725784747,14.775524519562412,-4.382333054945379,14.764056387260922,-5.177515475187871,14.73723816065357,-5.949473580163591,14.695268982849392,-6.697633582685146,14.638407688122767,-7.42154455651135,14.566971372512596,-8.120878601877553,14.481333781753749,-8.795430600401389,14.381923526920364,-9.445117578200321,14.269222138160607,-10.069977696057123,14.143761966902627,-10.670168885469835,14.006123946911144,-11.245967149422292,13.856935224574439,-11.797764546711637,13.696866668801276,-12.326066878669117,13.52663027090741,-12.831491097110458,13.346976444871279,-13.314762452352134,13.15869123833855,-13.776711400129823,12.962593464755036,-14.218270286255358,12.7595317670077,-14.640469827848502,12.550381622953301,-15.044435409979858,12.336042303214361,-15.431383216561187,12.117433791621966,-15.802616214319414,11.89549367868516,-16.15952000869081,11.671174038466408,-16.502325202481806,11.443586222826912,-16.830664639373577,11.21149718345225,-17.145094516944603,10.975348082579915,-17.446179406902957,10.735574575007693,-17.734489732366523,10.492605417966328,-18.010599245143215,10.246861080992177,-18.275082503011213,9.998752355799894,-18.52851234699921,9.748678966155062,-18.771457378666607,9.4970281777469,-19.0044794373838,9.244173408060893,-19.22813107761233,8.990472836251474,-19.442953046185202,8.736268013014687,-19.649471759587048,8.481882470460842,-19.848196781234392,8.227620331987197,-20.03961829875587,7.973764922150605,-20.224204601272465,7.72057737654019,-20.402399556677732,7.468295251650012,-20.57462008891803,7.2171311347517255,-20.74125365527276,6.967271253767246,-20.902655723634584,6.718874087141417,-21.059147249789667,6.472068973714676,-21.211012154697897,6.226954722595715,-21.358494801773116,5.98359822303415,-21.50179747416337,5.742033054293181" fill="none" stroke="black" stroke-width="2.2222222222222223" stroke-linejoin="round" filter="url(#fuzzy)"></polyline><!--[--><circle r="4.670178749926424" cx="5.630008205395997" cy="-1.3297963843988105" stroke="black" fill="none" stroke-width="1" filter="url(#fuzzy)" clip-path="url(#leftEyeClipPath)"></circle><circle r="3.337123722410869" cx="8.239096984972742" cy="-0.5353607866040972" stroke="black" fill="none" stroke-width="1" filter="url(#fuzzy)" clip-path="url(#leftEyeClipPath)"></circle><circle r="3.138640184495138" cx="5.368760017164065" cy="-1.6959164323623521" stroke="black" fill="none" stroke-width="1" filter="url(#fuzzy)" clip-path="url(#leftEyeClipPath)"></circle><circle r="3.279353159490589" cx="6.560095275388564" cy="-1.7524030130198387" stroke="black" fill="none" stroke-width="1" filter="url(#fuzzy)" clip-path="url(#leftEyeClipPath)"></circle><circle r="4.422549848350996" cx="8.553855572781067" cy="-1.3456283932950819" stroke="black" fill="none" stroke-width="1" filter="url(#fuzzy)" clip-path="url(#leftEyeClipPath)"></circle><circle r="4.902916538767969" cx="8.470567502599135" cy="-2.471959821657637" stroke="black" fill="none" stroke-width="1" filter="url(#fuzzy)" clip-path="url(#leftEyeClipPath)"></circle><circle r="3.351536721494718" cx="8.906701886219729" cy="0.8668048998934301" stroke="black" fill="none" stroke-width="1" filter="url(#fuzzy)" clip-path="url(#leftEyeClipPath)"></circle><circle r="3.6891949270188737" cx="5.909806322025098" cy="-1.8721712077190875" stroke="black" fill="none" stroke-width="1" filter="url(#fuzzy)" clip-path="url(#leftEyeClipPath)"></circle><circle r="3.4480837501217834" cx="5.327263100583627" cy="0.5078983251013218" stroke="black" fill="none" stroke-width="1" filter="url(#fuzzy)" clip-path="url(#leftEyeClipPath)"></circle><circle r="3.314839333546165" cx="9.101442265949846" cy="-3.231909764994581" stroke="black" fill="none" stroke-width="1" filter="url(#fuzzy)" clip-path="url(#leftEyeClipPath)"></circle><!--]--></g><g id="hairs"><!--[--><!--]--></g><g id="lineNose"><path d="M -8.670158140012337 23.978410829046297, Q7.871689948580016 24.703006878319275,-0.3992340957161602 -4.867201823648446" fill="none" stroke="black" stroke-width="3" stroke-linejoin="round" filter="url(#fuzzy)"></path></g><g id="mouth"><polyline points="20.371625554234782,69.837822281167,20.398629413864562,69.85414967416578,20.178243630144475,70.58918340082435,20.44931855364407,69.79055757912298,20.10176603959312,70.77051692295265,19.722520714743936,71.54634738477665,19.67677189903928,71.64239605519656,19.92755521356319,71.43095176103606,19.806918609087976,71.37464036764793,19.285333810730968,72.35197941405309,19.352860242119448,72.29975624118998,18.82885792369779,73.2242184513206,18.658092654150117,73.36503553213943,18.58125265654754,73.52176861855422,18.645784513769243,73.30017843142794,17.52794840997241,74.46816048014404,17.321034218316456,74.68938357088103,17.85620980676136,74.19884691066643,17.576216114274946,74.47658498461007,16.636668874353454,75.23855894954241,17.062832484827734,74.86512430192059,16.007612509570993,75.71726787604723,16.397726437767673,75.37359863064316,15.82978632036993,75.83028385156955,15.583511985115008,75.87665256074335,15.189189388510535,76.1535393313328,14.547482636037312,76.45249932642058,13.4563736868229,76.9699920821978,14.332218492598177,76.61122023499276,13.021978666479505,77.07776676050945,12.357034139989768,77.30695828997638,12.777399294286667,77.17609734361098,12.378611901623081,77.29743126000515,10.793674856068588,77.71354416742518,11.77029559507023,77.53239126578083,10.116721379840703,77.84895160799488,10.615471986137653,77.7763936371568,9.88258938377075,77.9210791847982,8.509733131232117,78.06136782985232,9.396213833630679,77.98995235670874,7.756602340347204,78.12563897563271,7.550398088084465,78.136533869675,7.575617899175524,78.13790379873683,7.78808585152823,78.11796265225595,6.724906643581726,78.14368053383654,5.466769790023096,78.10308279825989,4.858906246926444,78.04554810906475,5.922736120883189,78.12791138979725,5.434765948245646,78.09817094421123,4.83675200235214,78.04707031722216,2.9485858355828602,77.78043691390876,2.6825417448591278,77.72713976896306,2.0315231799978086,77.58448953088077,3.0369150164565912,77.79859534280614,2.148224119336465,77.61955081068766,1.6131475320529494,77.49349773922637,0.20543151409636007,77.08012102581463,1.0210799763447636,77.3294211373133,-0.4187586776168404,76.86342363951871,-1.0720864677206663,76.59221065490767,-1.3124703576499712,76.49302275980654,-0.5811928759946872,76.78291370411225,-2.564648019610967,75.94091163051615,-1.8140278390667248,76.29784865283604,-1.8507303146146876,76.24269709687985,-3.4210608796075803,75.41828659877888,-3.3530868553646336,75.47069224424786,-4.131862618266721,74.98460261037567,-4.542183416472454,74.74997218247594,-4.542754065059883,74.751175983996,-4.732602368817432,74.5790864390073,-5.0797839056487675,74.33963338371282,-5.9367827678752025,73.6974584306655,-6.3479738019682745,73.34102500152643,-6.222522664324897,73.41563634346022,-6.364849628251122,73.22425497059103,-7.156906398624816,72.39639356938282,-7.448528274553951,72.09266437656308,-7.344228783124748,72.2442201131741,-7.1475248090072725,72.43403313672042,-7.511833173727638,72.05222454219606,-8.332879821778631,71.01857090622006,-8.608561955482747,70.4314302530105,-8.471636602994135,70.79199526567234,-8.870275859496038,70.07409271470857,-8.679195570219214,70.37373647641787,-8.862041334038183,69.9432104794123,-9.137308140931108,69.43884147942534,-9.462663334387292,68.58076840800459,-9.56867677405087,68.5428438648219,-9.653064481956271,68.2254628718787,-9.851990065570371,67.28013357988496,-9.694066273252126,68.11917816678918,-9.829972922342401,66.88899466878065,-9.848277094666198,66.84619316870413,-9.8533743972683,66.45317479835926,-10.015354282405736,65.95716772551305,-9.948663944899424,65.88299226580503,-9.857791107034476,65.18445087972107,-10.000756330436245,65.27964462019494,-9.82991045882777,64.77740167811123,-9.953823097632226,64.84202253784089,-9.83219301778378,64.50790229549162,-9.584176621892414,63.598496260662465,-9.387491031692042,63.0718719836154,-9.570166252116532,63.22447090588564,-9.429212671361933,63.203904017269565,-8.955262002587355,62.031185674935756,-8.922119609054779,61.87877885800452,-8.658849276081495,61.388985357170824,-8.303630785902685,61.02802730746255,-8.701695541624312,61.659057559823,-8.524643123807381,61.41499751053234,-7.911236882911021,60.500895318886805,-7.873567454990994,60.352275018708426,-7.0402997250488255,59.65495714058896,-7.6435198996232,60.25309057080856,-6.47243515932179,59.155434488542284,-6.2111440153355115,58.90565527944095,-5.9202356018508695,58.60585993680057,-5.903891955271085,58.70464425873116,-5.920088673822667,58.643468333969565,-5.594531020780666,58.48571964023594,-4.41802940682412,57.76291361428494,-4.691741962168088,57.856377676064106,-4.540665012652223,57.809897248807346,-3.511607023573122,57.341676370041874,-3.52023707462018,57.34992212510554,-2.820138070562896,57.06236121357949,-2.4692407223625095,56.90247089947147,-2.8916920586242227,57.03586278930766,-1.2834586564553057,56.539222318664734,-2.0986874522203447,56.815211101428005,-1.1662556018184382,56.495760097368134,-1.3406340344231369,56.57825335664657,0.462641166334369,56.17671070887283,0.4809621184956647,56.15088619764515,1.277077341598651,56.034275533766234,0.7272265411699319,56.13579375791829,2.5538557029437436,55.93264043060838,1.7656549986582908,55.972051404135335,2.285064649537254,55.93100804851398,2.5336319749840097,55.931445485904554,3.895269168172241,55.88782906259066,3.301389844759962,55.912567708795244,4.775451795882009,55.92124276858835,4.81326527755761,55.91805899560251,6.31826048226684,56.05127733199661,5.9100883087265546,56.00266483309686,6.469213137113948,56.067412447330696,6.964122686612346,56.137895488361586,7.44769718183624,56.21780119394003,7.146714905886983,56.16639812414523,8.242398068351541,56.369085438675775,8.574572091546205,56.4455619937764,9.415774842362936,56.660295506733284,9.026640863052613,56.54980066242986,10.782739527486548,57.072398643957214,10.366633249015267,56.94669776731482,10.531429006372342,56.98656902589066,11.120620656820659,57.2006811162313,11.5876766452242,57.39759046080295,12.571069104759616,57.790186561087786,13.571802851567785,58.285294154262516,12.900666792189908,57.94241310317664,13.379362967874142,58.218525243416686,14.556153199530128,58.84252259047775,14.936241080185185,59.12096268522338,14.599008596423342,58.8648324167964,15.024122581348799,59.19027364296029,15.721578877925324,59.65779412981094,15.732584262266586,59.659264937520035,16.644728247211034,60.34746625269327,16.875554950486446,60.55336070324847,16.92913431080715,60.684826129960584,17.510396166621646,61.24073503178797,17.869683863859393,61.55178647459413,17.617493157694916,61.28813418557667,18.27029146654167,62.02352622855953,18.463501552308095,62.33906296998781,18.42128600069681,62.28455930515841,19.107657221076906,63.21536973988094,19.41152098954349,63.64483191674524,19.154908460778504,63.29884413209517,19.33162766694834,63.71179980400156,19.352886612689034,63.55697891274207,19.59462740560678,63.97440817303026,19.964650078570152,65.05849010035452,20.205163347507053,65.64364738024044,20.180892034434393,65.39968896527442,20.12109479359095,65.45641590113232,20.189551641970517,65.72331558687047,20.4547896170359,66.50422397909108,20.521328909777978,67.48276540443747,20.603597096007945,67.26397306881724,20.665386088464047,68.2146137143531,20.55950088216322,68.43819169891195,20.572146015482794,68.22418637159227,20.5742370309911,68.4412837225712,20.514053133574592,68.59304188618948" fill="rgb(215,127,140)" stroke="black" stroke-width="3" stroke-linejoin="round" filter="url(#fuzzy)"></polyline></g></svg>