<svg viewBox="-100 -100 200 200" xmlns="http://www.w3.org/2000/svg" width="400" height="400" id="face-svg"><defs><clipPath id="leftEyeClipPath"><polyline points="39.775740144875215,-6.335606533629003,39.446506621423374,-6.4442781424392,39.08859944898787,-6.5548618735918645,38.7016973120183,-6.666858870745102,38.285564860295324,-6.779793906735934,37.84004997465112,-6.893214913713292,37.365081032689716,-7.006692513270997,36.86066417450742,-7.1198195465807474,36.3268805684132,-7.232210604525101,35.763883676649144,-7.343501557830468,35.17189652111076,-7.453349087200084,34.55120894906747,-7.561430213447007,33.90217489888298,-7.6674418276271,33.22520966573565,-7.771100221172009,32.52078716733891,-7.8721406160221585,31.78943720966169,-7.970316694759729,31.10522458034696,-8.113906182117898,30.372303414547524,-8.252013212363416,29.59128219430743,-8.384133067905921,28.763084215216946,-8.50981016977175,27.88892012760614,-8.628635320918082,26.970261477954327,-8.740243061744037,26.008815234009656,-8.8443091353428,25.006499277112706,-8.940548060038866,23.965418845218284,-9.028710806754463,22.887843910109503,-9.108582578749205,21.776187472298037,-9.179980691277096,20.632984757104882,-9.242752548704907,19.460873295415457,-9.296773716636022,18.262573872603294,-9.341946086583832,17.040872329116176,-9.378196130738733,15.798602196219068,-9.405473244372793,14.538628150387611,-9.423748173426198,13.26383026984651,-9.433011524819499,11.977089076746699,-9.433272357035769,10.681271348475429,-9.424556848516733,9.37921668159333,-9.406907041416925,8.073724791892548,-9.38037965825998,6.767543534069968,-9.345044989041071,5.463357624509622,-9.300985846319659,4.163778050668366,-9.248296585846525,2.8713321505588585,-9.187082190269221,1.5884543458239224,-9.117457413460002,0.31747751189637663,-9.039545983010278,-0.9393750312616267,-8.95347985843571,-2.1799969243456663,-8.859398542635976,-3.402405586328468,-8.757448444153304,-4.604748461017584,-8.647782287773845,-5.785308709057293,-8.530558571015924,-6.94251036188062,-8.405941064049296,-8.074922954117461,-8.274098350589444,-9.181265650964681,-8.135203407310975,-10.260410887024163,-7.989433219324241,-11.311387533114711,-7.836968429259198,-12.333383607563782,-7.67799301750061,-13.325748548484933,-7.512694011118661,-14.287995063546907,-7.341261219039053,-15.219800573740391,-7.163886990996629,-16.121008267648225,-6.980765997816661,-16.99162778272509,-6.7920950305677925,-17.83183553009264,-6.59807281613078,-18.641974679355908,-6.398899846727048,-19.42255481994698,-6.194778220951171,-20.17425131550189,-5.985911493851336,-20.897904367776576,-5.772504533601853,-21.594517806607968,-5.554763382311803,-22.26508189159523,-5.3321631626463555,-22.90993797504427,-5.10406601929176,-23.52926796290564,-4.870510075819392,-24.12329142186336,-4.631534719574305,-24.692263368718997,-4.387180930594175,-25.23647205977571,-4.137491610528232,-25.756236780222366,-3.8825119115562132,-26.251905633517612,-3.622289565307283,-26.723853330773906,-3.3568752117789957,-27.17247898014169,-3.086322728256222,-27.59820387619337,-2.8106895582300924,-28.001469289307472,-2.530037040316939,-28.382734255052668,-2.2444307371772316,-28.742473363571893,-1.953940764434523,-29.33009644917006,2.6763283051617277,-29.064677826227626,3.0500870962863686,-28.782308834955682,3.422617881746252,-28.482718386472545,3.793229895436106,-28.165649058017795,4.161194777930563,-27.83085742918162,4.525750441933823,-27.47811441813418,4.886104937729328,-27.107205617854913,5.241440318629422,-26.71793163236195,5.5909165064250335,-26.3101084129414,5.93367515683533,-25.883567594376746,6.268843524957383,-25.438156831178166,6.595538330715867,-24.97374013381191,6.91286962431268,-24.490198204929587,7.21994465167665,-23.987428775597625,7.515871719913191,-23.464731801030986,7.803111742618045,-22.921036662269152,8.08332323421424,-22.35574989921084,8.354472143103916,-21.76834773880346,8.614606980088379,-21.15837695895559,8.861865055912446,-20.525455650513177,9.094478585331757,-19.869273874789137,9.310780628840831,-19.189594214135628,9.509210843199977,-18.486252213048676,9.688321011898969,-17.759156707294505,9.846780326695491,-17.008290038547102,9.983380391366323,-16.233708152026566,10.097039918809202,-15.435540574627622,10.186809092633403,-14.61399027102785,10.251873564376991,-13.769333375265129,10.291558057488663,-12.901918795273726,10.305329549212274,-12.0121676878686,10.29280000151188,-11.100572801667271,10.253728612175376,-10.16769768543897,10.188023557234727,-9.214175759370274,10.095743195840607,-8.240709246736948,9.977096708729636,-7.2480679634713745,9.832444141422021,-6.23708796311505,9.662295823287684,-5.208670034645685,9.467311133618752,-4.163778050668366,9.248296585846525,-3.103437163460271,9.006203201040739,-2.028731846358426,8.742123141829227,-0.9408037779799807,8.457285577875869,0.15915043323547184,8.153051754054882,1.2698816866720881,7.83090923245935,2.3900909918829907,7.492465279382001,3.518432238144965,7.139439368406256,4.6535151337332215,6.7736547707454395,5.793908317426698,6.397029203968168,6.9381426447544,6.011564510247924,8.084714651493345,5.619335335274734,9.232090196928555,5.222476778966952,10.37870828938566,4.823170989121149,11.522985096546615,4.423632669138032,12.663318143059014,4.026093470962417,13.798090697949585,3.6327852443751887,14.925676354352268,3.2459221137752694,16.04444380406148,2.8676813535895445,17.152761809421076,2.5001830334486996,18.24900437505943,2.1454684042670005,19.331556121981283,1.8054769963639528,20.398817866526738,1.4820224007658176,21.449212406708007,1.1767667048249661,22.48119051843437,0.8911935532950679,23.493237164135916,0.6265798060000485,24.39213730772339,0.32872615762025426,25.277990194419896,0.03862332843450833,26.149788495520777,-0.24320291415101103,27.006502611608884,-0.5162690678345854,27.847080713992007,-0.7801363639992189,28.670448786140334,-1.0344132362929184,29.475510665123956,-1.2787577892089397,30.26114808305027,-1.5128802666660608,31.026220708501466,-1.7365455205888463,31.76956618797199,-1.9495754794879105,32.490000187306016,-2.151851617040185,33.18631643313486,-2.343317420669176,33.857286754314494,-2.523980860125235,34.50166112336296,-2.6939168560658224,35.118167697897874,-2.853269748635769"></polyline></clipPath><clipPath id="rightEyeClipPath"><polyline points="-36.30601163287487,-3.0725137105849845,-36.01517067162232,-3.1575773935808704,-35.69623631259801,-3.244460311099731,-35.348556181404916,-3.3328320369498563,-34.97158532783657,-3.422374426596904,-34.564882960969,-3.512781431992343,-34.12810918425281,-3.603758916401892,-33.66102173060516,-3.695024469233964,-33.163472697501824,-3.786307220868107,-32.63540528206919,-3.877347657483444,-32.07685051617633,-3.96789743588712,-31.487924001526917,-4.057719198342736,-30.868822644751365,-4.146586387398797,-30.21982139249881,-4.2342830607171535,-29.541269966529097,-4.320603705901439,-28.833589598804835,-4.405353055325515,-28.20312985465418,-4.519424043842776,-27.518882520291342,-4.630863302120398,-26.78127695309445,-4.739260045499384,-25.99111160050977,-4.844227827675866,-25.149522445202464,-4.94540435425562,-24.257952600707764,-5.042451271442403,-23.318123038434354,-5.135053930519793,-22.332004426871716,-5.222921128786256,-21.30179006385316,-5.305784827603107,-20.229869882726486,-5.383399848215115,-19.11880551328383,-5.455543546003392,-17.971306378302728,-5.5220154638303365,-16.79020680654993,-5.582636965136266,-15.578444143099945,-5.637250847447496,-14.33903783781996,-5.685720936955526,-13.075069492872975,-5.727931664827059,-11.789663850090927,-5.763787625904544,-10.485970699069606,-5.793213120456939,-9.167147686837076,-5.816151679640424,-7.83634400994745,-5.83256557532872,-6.496684969851738,-5.84243531497275,-5.151257372397635,-5.845759122149343,-3.803095752309912,-5.842552403458651,-2.4551694035033043,-5.832847202430019,-1.1103701960795787,-5.816691641095991,0.228498839139337,-5.794149349894145,1.558734177690506,-5.765298886556479,2.877741739309511,-5.730233144646025,4.183046115678684,-5.689058752400429,5.472299107232162,-5.6418954625421485,6.743287588166098,-5.588875533715015,7.9939407188021265,-5.530143104206834,9.22233652445242,-5.465853558617739,10.426707859934435,-5.396172888133993,11.60544777888372,-5.321277045066941,12.757114327012824,-5.2413512923168115,13.880434778464709,-5.15658954842109,14.974309334408726,-5.06719372884712,16.03781430302749,-4.973373084188687,17.07020478004282,-4.87534353592624,18.070916848928963,-4.773327010410496,19.039569319961373,-4.667550771729076,19.975965027249156,-4.5582467541159355,20.88009170289953,-4.4456508945632365,21.752122447462458,-4.3300024662953955,22.592415815803644,-4.211543413764987,23.40151553755417,-4.090517689830238,24.180149891284973,-3.967170595773765,24.929230751554325,-3.8417481248223,25.649852327976717,-3.7144963098270862,26.3429639260556,-3.5850577650853737,27.00880542163297,-3.452976718665254,27.647575652089728,-3.3183503218402244,28.259515300956178,-3.18127439796991,28.84490433341816,-3.041843354147196,29.404059431823352,-2.9001500928453554,29.9373314311875,-2.7562859235651898,30.445102754700663,-2.610340474482153,30.927784849233408,-2.462401604093495,31.38581562084313,-2.312555312865388,31.819656870280234,-2.160885654880059,32.229791728494384,-2.007474649482927,32.616722092140755,-1.8524021929297336,32.98096605908626,-1.695745970033676,30.54021986724277,1.265579043055268,30.21188102924672,1.5011996457280157,29.86235276225359,1.7354148618934175,29.491394839122748,1.9678696490750407,29.09879351341446,2.1981910040148662,28.684361916662805,2.4259898294775732,28.247940455648582,2.650862801054836,27.789397209672227,2.87239423396961,27.308628327826753,3.0901579498804246,26.805558426270608,3.303719143685684,26.280140985500655,3.512636250327943,25.73235874762503,3.7164628115982152,25.162224113636114,3.9147493429402465,24.56977954068339,4.107045200254824,23.955097939346388,4.292900446704058,23.31726630034312,4.473648718180075,22.654999296210395,4.6502060039360815,21.967915969930917,4.821526493717426,21.25574372991816,4.986605504034584,20.51831777723005,5.144482598636529,19.75558035722796,5.294244643483074,18.967579832714616,5.435028782277349,18.154469575584535,5.566025318619589,17.316506674020825,5.686480490843495,16.454050452271968,5.795699125596264,15.567560800042285,5.893047156223585,14.657596308529829,5.977953992020715,13.724812210145299,6.049914724410866,12.769958118945777,6.108492156112115,11.793875568816956,6.153318639353981,10.797495346437481,6.184097709204917,9.781834616059212,6.200605498071881,8.747993833137013,6.202691917433143,7.697153443841832,6.190281592865667,6.6305703674906935,6.163374538428049,5.5495742589273895,6.1220465564604,4.455563547887452,6.06644934886224,3.350001252381242,5.99681032590968,2.2344105631286992,5.913432098673012,1.1103701960795784,5.816691641095991,-0.02049048994721736,5.7070391077978995,-1.1564966134714705,5.584996293659688,-2.29593313137297,5.451154721255312,-3.437050443692608,5.306173342189509,-4.578070245179584,5.150775838403184,-5.717191626550988,4.985747509507593,-6.8525974284300935,4.811931732208557,-7.982460850929647,4.630225977881849,-9.104952321846495,4.441577374360989,-10.218246626433759,4.246977797998627,-11.32053030171701,4.047458482062704,-12.410009298320594,3.84408412752859,-13.484916912770538,3.6379465023284077,-14.543521993240232,3.4301575151186956,-15.584137421705323,3.2218417496276706,-16.605128875473945,3.0141284456432063,-17.604923871058816,2.8081429127027944,-18.582021093357262,2.604997362546632,-19.535000013105684,2.4057811463950616,-20.46253079557464,2.2115503831115317,-21.363384503470872,2.0233169643123006,-22.236443597012684,1.8420369224840574,-23.080712734144775,1.668598148170659,-23.895329873859023,1.5038074422901895,-24.679577685587446,1.3483768896435109,-25.430739807216582,1.183801360689495,-26.16367221683007,1.0224588520457338,-26.877777937463062,0.8646441029283523,-27.572472297913897,0.7106336516117322,-28.24718392311326,0.5606846820074001,-28.90135572449334,0.4150338702429246,-29.534445890357066,0.27389623124080975,-30.145928876247222,0.13746396529739258,-30.73529639531566,0.005905304661730781,-31.302058408692485,-0.120636639885495,-31.845744115855222,-0.24204503245309317,-32.36590294499798,-0.35823046546046267,-32.86210554340069,-0.4691321130587003,-33.333944767798194,-0.5747188845517059,-33.781036674749494,-0.6749905778172873"></polyline></clipPath><filter id="fuzzy"><feTurbulence id="turbulence" baseFrequency="0.05" numOctaves="3" type="noise" result="noise"></feTurbulence><feDisplacementMap in="SourceGraphic" in2="noise" scale="2"></feDisplacementMap></filter><linearGradient id="rainbowGradient" x1="0%" y1="0%" x2="100%" y2="0%"><stop offset="0%" style="stop-color: rgb(80, 68, 68);  stop-opacity: 1"></stop><stop offset="50%" style="stop-color: rgb(64, 224, 208);  stop-opacity: 1"></stop><stop offset="100%" style="stop-color: rgb(220, 208, 186);  stop-opacity: 1"></stop></linearGradient></defs><title>That&#39;s an ugly face</title><desc>CREATED BY XUAN TANG, MORE INFO AT TXSTC55.GITHUB.IO</desc><rect x="-100" y="-100" width="100%" height="100%" opacity="1" fill="rgb(139, 0, 0)"></rect><polyline id="faceContour" points="84,1,84,3,84,2,84,4,84,6,84,7,83,7,83,11,83,11,82,15,82,16,82,17,82,16,81,19,81,21,81,23,81,22,80,24,80,27,79,27,78,29,79,29,77,32,77,33,76,36,76,35,74,39,74,40,74,41,73,42,73,42,72,45,72,45,71,46,71,48,69,48,69,49,67,52,66,54,66,53,65,55,65,56,63,58,62,59,61,60,60,61,61,61,60,62,59,63,58,64,58,65,56,66,56,67,55,67,52,70,52,70,52,70,49,72,49,72,48,73,47,75,46,75,45,76,44,77,43,77,42,78,41,78,40,79,39,79,39,79,38,80,33,82,34,82,33,82,32,83,29,84,29,84,30,84,29,84,28,85,25,85,24,86,22,87,20,87,19,87,17,87,17,87,14,88,15,88,12,88,12,88,13,88,9,88,9,88,8,88,6,89,7,88,4,88,2,88,0,88,-1,89,-3,88,-1,88,-4,88,-4,88,-6,88,-7,87,-10,87,-9,87,-12,87,-13,86,-13,86,-16,86,-16,86,-18,85,-18,85,-20,84,-20,84,-22,83,-21,84,-26,82,-27,82,-25,82,-29,81,-31,80,-31,79,-31,80,-33,79,-34,78,-35,77,-37,76,-37,76,-39,75,-39,75,-40,74,-40,74,-43,72,-44,72,-45,70,-46,70,-47,69,-49,68,-49,68,-49,68,-50,66,-53,64,-52,64,-54,63,-56,61,-55,62,-57,60,-56,61,-59,58,-59,57,-61,55,-61,56,-63,53,-62,54,-64,52,-65,50,-65,50,-66,50,-65,50,-69,45,-68,46,-69,44,-71,42,-70,42,-71,42,-73,38,-72,40,-74,36,-74,36,-75,34,-76,33,-75,33,-76,31,-77,29,-77,29,-78,28,-78,26,-79,24,-79,24,-79,23,-80,22,-81,19,-80,19,-81,16,-82,14,-82,15,-83,13,-83,12,-83,11,-83,8,-83,9,-84,8,-83,5,-84,5,-84,2,-84,1,-84,0,-85,-3,-85,-4,-85,-4,-84,-5,-85,-7,-85,-7,-84,-8,-84,-10,-85,-12,-85,-12,-84,-14,-84,-15,-84,-17,-84,-18,-83,-20,-83,-22,-83,-23,-83,-24,-83,-25,-82,-25,-82,-27,-82,-29,-81,-31,-81,-31,-80,-33,-80,-33,-79,-35,-79,-35,-79,-36,-78,-38,-77,-41,-76,-42,-77,-40,-76,-43,-75,-44,-75,-44,-74,-46,-72,-49,-73,-48,-73,-49,-71,-50,-70,-52,-68,-55,-69,-53,-68,-54,-67,-56,-66,-58,-65,-58,-64,-60,-63,-61,-62,-62,-62,-61,-61,-63,-60,-64,-58,-65,-59,-65,-57,-66,-56,-67,-53,-69,-54,-69,-50,-72,-50,-72,-51,-71,-50,-72,-49,-72,-47,-74,-44,-75,-45,-75,-44,-76,-42,-77,-39,-78,-40,-78,-38,-78,-37,-79,-34,-80,-35,-80,-31,-81,-32,-81,-30,-82,-28,-83,-28,-83,-27,-83,-23,-84,-23,-85,-24,-84,-21,-85,-19,-85,-17,-86,-16,-86,-16,-86,-12,-87,-11,-87,-9,-88,-9,-87,-8,-88,-6,-88,-5,-88,-4,-88,0,-88,1,-88,2,-89,2,-88,3,-89,5,-89,5,-88,8,-88,9,-89,12,-88,12,-88,13,-88,17,-88,18,-88,21,-87,19,-88,22,-87,21,-87,23,-87,26,-86,26,-87,28,-86,30,-85,32,-85,34,-84,34,-84,37,-83,36,-83,38,-83,40,-82,39,-82,43,-80,43,-80,43,-81,46,-79,46,-79,48,-78,49,-77,50,-76,52,-76,54,-74,53,-74,54,-74,55,-73,57,-71,57,-72,58,-71,59,-70,60,-69,60,-69,61,-68,63,-66,65,-64,66,-64,66,-63,67,-62,68,-60,69,-59,70,-58,71,-56,71,-57,72,-55,73,-53,73,-53,73,-52,74,-50,76,-48,75,-48,76,-48,77,-46,77,-44,79,-41,78,-43,80,-39,79,-39,80,-37,80,-37,82,-32,82,-32,82,-30,82,-30,82,-30,83,-27,83,-27,83,-25,84,-23,84,-21,83,-21,84,-19,84,-18,84,-15,84,-14,84,-13,84,-12,84,-10,85,-8,84,-8,85,-6,84,-4,84,-1,85,-3,84,1,84,3" fill="#ffc9a9" stroke="black" stroke-width="1.6666666666666665" stroke-linejoin="round" filter="url(#fuzzy)"></polyline><g transform="translate(46.75250216725375 -25.75089451010451)"><polyline id="rightCountour" points="-36.30601163287487,-3.0725137105849845,-36.01517067162232,-3.1575773935808704,-35.69623631259801,-3.244460311099731,-35.348556181404916,-3.3328320369498563,-34.97158532783657,-3.422374426596904,-34.564882960969,-3.512781431992343,-34.12810918425281,-3.603758916401892,-33.66102173060516,-3.695024469233964,-33.163472697501824,-3.786307220868107,-32.63540528206919,-3.877347657483444,-32.07685051617633,-3.96789743588712,-31.487924001526917,-4.057719198342736,-30.868822644751365,-4.146586387398797,-30.21982139249881,-4.2342830607171535,-29.541269966529097,-4.320603705901439,-28.833589598804835,-4.405353055325515,-28.20312985465418,-4.519424043842776,-27.518882520291342,-4.630863302120398,-26.78127695309445,-4.739260045499384,-25.99111160050977,-4.844227827675866,-25.149522445202464,-4.94540435425562,-24.257952600707764,-5.042451271442403,-23.318123038434354,-5.135053930519793,-22.332004426871716,-5.222921128786256,-21.30179006385316,-5.305784827603107,-20.229869882726486,-5.383399848215115,-19.11880551328383,-5.455543546003392,-17.971306378302728,-5.5220154638303365,-16.79020680654993,-5.582636965136266,-15.578444143099945,-5.637250847447496,-14.33903783781996,-5.685720936955526,-13.075069492872975,-5.727931664827059,-11.789663850090927,-5.763787625904544,-10.485970699069606,-5.793213120456939,-9.167147686837076,-5.816151679640424,-7.83634400994745,-5.83256557532872,-6.496684969851738,-5.84243531497275,-5.151257372397635,-5.845759122149343,-3.803095752309912,-5.842552403458651,-2.4551694035033043,-5.832847202430019,-1.1103701960795787,-5.816691641095991,0.228498839139337,-5.794149349894145,1.558734177690506,-5.765298886556479,2.877741739309511,-5.730233144646025,4.183046115678684,-5.689058752400429,5.472299107232162,-5.6418954625421485,6.743287588166098,-5.588875533715015,7.9939407188021265,-5.530143104206834,9.22233652445242,-5.465853558617739,10.426707859934435,-5.396172888133993,11.60544777888372,-5.321277045066941,12.757114327012824,-5.2413512923168115,13.880434778464709,-5.15658954842109,14.974309334408726,-5.06719372884712,16.03781430302749,-4.973373084188687,17.07020478004282,-4.87534353592624,18.070916848928963,-4.773327010410496,19.039569319961373,-4.667550771729076,19.975965027249156,-4.5582467541159355,20.88009170289953,-4.4456508945632365,21.752122447462458,-4.3300024662953955,22.592415815803644,-4.211543413764987,23.40151553755417,-4.090517689830238,24.180149891284973,-3.967170595773765,24.929230751554325,-3.8417481248223,25.649852327976717,-3.7144963098270862,26.3429639260556,-3.5850577650853737,27.00880542163297,-3.452976718665254,27.647575652089728,-3.3183503218402244,28.259515300956178,-3.18127439796991,28.84490433341816,-3.041843354147196,29.404059431823352,-2.9001500928453554,29.9373314311875,-2.7562859235651898,30.445102754700663,-2.610340474482153,30.927784849233408,-2.462401604093495,31.38581562084313,-2.312555312865388,31.819656870280234,-2.160885654880059,32.229791728494384,-2.007474649482927,32.616722092140755,-1.8524021929297336,32.98096605908626,-1.695745970033676,30.54021986724277,1.265579043055268,30.21188102924672,1.5011996457280157,29.86235276225359,1.7354148618934175,29.491394839122748,1.9678696490750407,29.09879351341446,2.1981910040148662,28.684361916662805,2.4259898294775732,28.247940455648582,2.650862801054836,27.789397209672227,2.87239423396961,27.308628327826753,3.0901579498804246,26.805558426270608,3.303719143685684,26.280140985500655,3.512636250327943,25.73235874762503,3.7164628115982152,25.162224113636114,3.9147493429402465,24.56977954068339,4.107045200254824,23.955097939346388,4.292900446704058,23.31726630034312,4.473648718180075,22.654999296210395,4.6502060039360815,21.967915969930917,4.821526493717426,21.25574372991816,4.986605504034584,20.51831777723005,5.144482598636529,19.75558035722796,5.294244643483074,18.967579832714616,5.435028782277349,18.154469575584535,5.566025318619589,17.316506674020825,5.686480490843495,16.454050452271968,5.795699125596264,15.567560800042285,5.893047156223585,14.657596308529829,5.977953992020715,13.724812210145299,6.049914724410866,12.769958118945777,6.108492156112115,11.793875568816956,6.153318639353981,10.797495346437481,6.184097709204917,9.781834616059212,6.200605498071881,8.747993833137013,6.202691917433143,7.697153443841832,6.190281592865667,6.6305703674906935,6.163374538428049,5.5495742589273895,6.1220465564604,4.455563547887452,6.06644934886224,3.350001252381242,5.99681032590968,2.2344105631286992,5.913432098673012,1.1103701960795784,5.816691641095991,-0.02049048994721736,5.7070391077978995,-1.1564966134714705,5.584996293659688,-2.29593313137297,5.451154721255312,-3.437050443692608,5.306173342189509,-4.578070245179584,5.150775838403184,-5.717191626550988,4.985747509507593,-6.8525974284300935,4.811931732208557,-7.982460850929647,4.630225977881849,-9.104952321846495,4.441577374360989,-10.218246626433759,4.246977797998627,-11.32053030171701,4.047458482062704,-12.410009298320594,3.84408412752859,-13.484916912770538,3.6379465023284077,-14.543521993240232,3.4301575151186956,-15.584137421705323,3.2218417496276706,-16.605128875473945,3.0141284456432063,-17.604923871058816,2.8081429127027944,-18.582021093357262,2.604997362546632,-19.535000013105684,2.4057811463950616,-20.46253079557464,2.2115503831115317,-21.363384503470872,2.0233169643123006,-22.236443597012684,1.8420369224840574,-23.080712734144775,1.668598148170659,-23.895329873859023,1.5038074422901895,-24.679577685587446,1.3483768896435109,-25.430739807216582,1.183801360689495,-26.16367221683007,1.0224588520457338,-26.877777937463062,0.8646441029283523,-27.572472297913897,0.7106336516117322,-28.24718392311326,0.5606846820074001,-28.90135572449334,0.4150338702429246,-29.534445890357066,0.27389623124080975,-30.145928876247222,0.13746396529739258,-30.73529639531566,0.005905304661730781,-31.302058408692485,-0.120636639885495,-31.845744115855222,-0.24204503245309317,-32.36590294499798,-0.35823046546046267,-32.86210554340069,-0.4691321130587003,-33.333944767798194,-0.5747188845517059,-33.781036674749494,-0.6749905778172873" fill="white" stroke="white" stroke-width="0" stroke-linejoin="round" filter="url(#fuzzy)"></polyline></g><g transform="translate(-49.18392624787083 -25.298338260132326)"><polyline id="leftCountour" points="39.775740144875215,-6.335606533629003,39.446506621423374,-6.4442781424392,39.08859944898787,-6.5548618735918645,38.7016973120183,-6.666858870745102,38.285564860295324,-6.779793906735934,37.84004997465112,-6.893214913713292,37.365081032689716,-7.006692513270997,36.86066417450742,-7.1198195465807474,36.3268805684132,-7.232210604525101,35.763883676649144,-7.343501557830468,35.17189652111076,-7.453349087200084,34.55120894906747,-7.561430213447007,33.90217489888298,-7.6674418276271,33.22520966573565,-7.771100221172009,32.52078716733891,-7.8721406160221585,31.78943720966169,-7.970316694759729,31.10522458034696,-8.113906182117898,30.372303414547524,-8.252013212363416,29.59128219430743,-8.384133067905921,28.763084215216946,-8.50981016977175,27.88892012760614,-8.628635320918082,26.970261477954327,-8.740243061744037,26.008815234009656,-8.8443091353428,25.006499277112706,-8.940548060038866,23.965418845218284,-9.028710806754463,22.887843910109503,-9.108582578749205,21.776187472298037,-9.179980691277096,20.632984757104882,-9.242752548704907,19.460873295415457,-9.296773716636022,18.262573872603294,-9.341946086583832,17.040872329116176,-9.378196130738733,15.798602196219068,-9.405473244372793,14.538628150387611,-9.423748173426198,13.26383026984651,-9.433011524819499,11.977089076746699,-9.433272357035769,10.681271348475429,-9.424556848516733,9.37921668159333,-9.406907041416925,8.073724791892548,-9.38037965825998,6.767543534069968,-9.345044989041071,5.463357624509622,-9.300985846319659,4.163778050668366,-9.248296585846525,2.8713321505588585,-9.187082190269221,1.5884543458239224,-9.117457413460002,0.31747751189637663,-9.039545983010278,-0.9393750312616267,-8.95347985843571,-2.1799969243456663,-8.859398542635976,-3.402405586328468,-8.757448444153304,-4.604748461017584,-8.647782287773845,-5.785308709057293,-8.530558571015924,-6.94251036188062,-8.405941064049296,-8.074922954117461,-8.274098350589444,-9.181265650964681,-8.135203407310975,-10.260410887024163,-7.989433219324241,-11.311387533114711,-7.836968429259198,-12.333383607563782,-7.67799301750061,-13.325748548484933,-7.512694011118661,-14.287995063546907,-7.341261219039053,-15.219800573740391,-7.163886990996629,-16.121008267648225,-6.980765997816661,-16.99162778272509,-6.7920950305677925,-17.83183553009264,-6.59807281613078,-18.641974679355908,-6.398899846727048,-19.42255481994698,-6.194778220951171,-20.17425131550189,-5.985911493851336,-20.897904367776576,-5.772504533601853,-21.594517806607968,-5.554763382311803,-22.26508189159523,-5.3321631626463555,-22.90993797504427,-5.10406601929176,-23.52926796290564,-4.870510075819392,-24.12329142186336,-4.631534719574305,-24.692263368718997,-4.387180930594175,-25.23647205977571,-4.137491610528232,-25.756236780222366,-3.8825119115562132,-26.251905633517612,-3.622289565307283,-26.723853330773906,-3.3568752117789957,-27.17247898014169,-3.086322728256222,-27.59820387619337,-2.8106895582300924,-28.001469289307472,-2.530037040316939,-28.382734255052668,-2.2444307371772316,-28.742473363571893,-1.953940764434523,-29.33009644917006,2.6763283051617277,-29.064677826227626,3.0500870962863686,-28.782308834955682,3.422617881746252,-28.482718386472545,3.793229895436106,-28.165649058017795,4.161194777930563,-27.83085742918162,4.525750441933823,-27.47811441813418,4.886104937729328,-27.107205617854913,5.241440318629422,-26.71793163236195,5.5909165064250335,-26.3101084129414,5.93367515683533,-25.883567594376746,6.268843524957383,-25.438156831178166,6.595538330715867,-24.97374013381191,6.91286962431268,-24.490198204929587,7.21994465167665,-23.987428775597625,7.515871719913191,-23.464731801030986,7.803111742618045,-22.921036662269152,8.08332323421424,-22.35574989921084,8.354472143103916,-21.76834773880346,8.614606980088379,-21.15837695895559,8.861865055912446,-20.525455650513177,9.094478585331757,-19.869273874789137,9.310780628840831,-19.189594214135628,9.509210843199977,-18.486252213048676,9.688321011898969,-17.759156707294505,9.846780326695491,-17.008290038547102,9.983380391366323,-16.233708152026566,10.097039918809202,-15.435540574627622,10.186809092633403,-14.61399027102785,10.251873564376991,-13.769333375265129,10.291558057488663,-12.901918795273726,10.305329549212274,-12.0121676878686,10.29280000151188,-11.100572801667271,10.253728612175376,-10.16769768543897,10.188023557234727,-9.214175759370274,10.095743195840607,-8.240709246736948,9.977096708729636,-7.2480679634713745,9.832444141422021,-6.23708796311505,9.662295823287684,-5.208670034645685,9.467311133618752,-4.163778050668366,9.248296585846525,-3.103437163460271,9.006203201040739,-2.028731846358426,8.742123141829227,-0.9408037779799807,8.457285577875869,0.15915043323547184,8.153051754054882,1.2698816866720881,7.83090923245935,2.3900909918829907,7.492465279382001,3.518432238144965,7.139439368406256,4.6535151337332215,6.7736547707454395,5.793908317426698,6.397029203968168,6.9381426447544,6.011564510247924,8.084714651493345,5.619335335274734,9.232090196928555,5.222476778966952,10.37870828938566,4.823170989121149,11.522985096546615,4.423632669138032,12.663318143059014,4.026093470962417,13.798090697949585,3.6327852443751887,14.925676354352268,3.2459221137752694,16.04444380406148,2.8676813535895445,17.152761809421076,2.5001830334486996,18.24900437505943,2.1454684042670005,19.331556121981283,1.8054769963639528,20.398817866526738,1.4820224007658176,21.449212406708007,1.1767667048249661,22.48119051843437,0.8911935532950679,23.493237164135916,0.6265798060000485,24.39213730772339,0.32872615762025426,25.277990194419896,0.03862332843450833,26.149788495520777,-0.24320291415101103,27.006502611608884,-0.5162690678345854,27.847080713992007,-0.7801363639992189,28.670448786140334,-1.0344132362929184,29.475510665123956,-1.2787577892089397,30.26114808305027,-1.5128802666660608,31.026220708501466,-1.7365455205888463,31.76956618797199,-1.9495754794879105,32.490000187306016,-2.151851617040185,33.18631643313486,-2.343317420669176,33.857286754314494,-2.523980860125235,34.50166112336296,-2.6939168560658224,35.118167697897874,-2.853269748635769" fill="white" stroke="white" stroke-width="0" stroke-linejoin="round" filter="url(#fuzzy)"></polyline></g><g transform="translate(46.75250216725375 -25.75089451010451)"><polyline id="rightUpper" points="-37.89615137727869,-2.403780640043521,-37.82439607079283,-2.4496441749805404,-37.73769772073823,-2.5013474352556813,-37.63415014087407,-2.5584269936678514,-37.51198721822978,-2.620433556388908,-37.369579648197075,-2.686931777792102,-37.20543166962206,-2.7575000752805163,-37.01817779989714,-2.8317304441155113,-36.80657957005311,-2.909228272245163,-36.56952225985115,-2.9896121551327086,-36.30601163287487,-3.0725137105849845,-36.01517067162232,-3.1575773935808704,-35.69623631259801,-3.244460311099731,-35.348556181404916,-3.3328320369498563,-34.97158532783657,-3.422374426596904,-34.564882960969,-3.512781431992343,-34.12810918425281,-3.603758916401892,-33.66102173060516,-3.695024469233964,-33.163472697501824,-3.786307220868107,-32.63540528206919,-3.877347657483444,-32.07685051617633,-3.96789743588712,-31.487924001526917,-4.057719198342736,-30.868822644751365,-4.146586387398797,-30.21982139249881,-4.2342830607171535,-29.541269966529097,-4.320603705901439,-28.833589598804835,-4.405353055325515,-28.20312985465418,-4.519424043842776,-27.518882520291342,-4.630863302120398,-26.78127695309445,-4.739260045499384,-25.99111160050977,-4.844227827675866,-25.149522445202464,-4.94540435425562,-24.257952600707764,-5.042451271442403,-23.318123038434354,-5.135053930519793,-22.332004426871716,-5.222921128786256,-21.30179006385316,-5.305784827603107,-20.229869882726486,-5.383399848215115,-19.11880551328383,-5.455543546003392,-17.971306378302728,-5.5220154638303365,-16.79020680654993,-5.582636965136266,-15.578444143099945,-5.637250847447496,-14.33903783781996,-5.685720936955526,-13.075069492872975,-5.727931664827059,-11.789663850090927,-5.763787625904544,-10.485970699069606,-5.793213120456939,-9.167147686837076,-5.816151679640424,-7.83634400994745,-5.83256557532872,-6.496684969851738,-5.84243531497275,-5.151257372397635,-5.845759122149343,-3.803095752309912,-5.842552403458651,-2.4551694035033043,-5.832847202430019,-1.1103701960795787,-5.816691641095991,0.228498839139337,-5.794149349894145,1.558734177690506,-5.765298886556479,2.877741739309511,-5.730233144646025,4.183046115678684,-5.689058752400429,5.472299107232162,-5.6418954625421485,6.743287588166098,-5.588875533715015,7.9939407188021265,-5.530143104206834,9.22233652445242,-5.465853558617739,10.426707859934435,-5.396172888133993,11.60544777888372,-5.321277045066941,12.757114327012824,-5.2413512923168115,13.880434778464709,-5.15658954842109,14.974309334408726,-5.06719372884712,16.03781430302749,-4.973373084188687,17.07020478004282,-4.87534353592624,18.070916848928963,-4.773327010410496,19.039569319961373,-4.667550771729076,19.975965027249156,-4.5582467541159355,20.88009170289953,-4.4456508945632365,21.752122447462458,-4.3300024662953955,22.592415815803644,-4.211543413764987,23.40151553755417,-4.090517689830238,24.180149891284973,-3.967170595773765,24.929230751554325,-3.8417481248223,25.649852327976717,-3.7144963098270862,26.3429639260556,-3.5850577650853737,27.00880542163297,-3.452976718665254,27.647575652089728,-3.3183503218402244,28.259515300956178,-3.18127439796991,28.84490433341816,-3.041843354147196,29.404059431823352,-2.9001500928453554,29.9373314311875,-2.7562859235651898,30.445102754700663,-2.610340474482153,30.927784849233408,-2.462401604093495,31.38581562084313,-2.312555312865388,31.819656870280234,-2.160885654880059,32.229791728494384,-2.007474649482927,32.616722092140755,-1.8524021929297336,32.98096605908626,-1.695745970033676,33.323055363915834,-1.53758136581254,33.6435328134386,-1.377981377135833,33.94294972219416,-1.2170165243719184,34.22186334795883,-1.0547547630351486,34.48083432725188,-0.8912613954329955,34.720424110841755,-0.7265989823131851,34.941192399252365,-0.5608272545108306,35.143694578269226,-0.39400302459556635,35.32847915444583,-0.22618009851868015,35.49608519060977,-0.057409187260245576" fill="none" stroke="black" stroke-width="1.6666666666666665" stroke-linejoin="round" filter="url(#fuzzy)"></polyline><polyline id="rightLower" points="-36.824956321060924,-1.4097282204806192,-36.64064240255201,-1.3549982438594463,-36.42923560373416,-1.29690379199713,-36.19083339950212,-1.2350727431159698,-35.925566368266516,-1.1691753982232305,-35.63359720158477,-1.0989233276900336,-35.31511971379186,-1.0240682178302554,-34.970357851631185,-0.9444007174794183,-34.59956470388532,-0.8597492845735886,-34.20302151100693,-0.7699790327282674,-33.781036674749494,-0.6749905778172873,-33.333944767798194,-0.5747188845517059,-32.86210554340069,-0.4691321130587003,-32.36590294499798,-0.35823046546046267,-31.845744115855222,-0.24204503245309317,-31.302058408692485,-0.120636639885495,-30.73529639531566,0.005905304661730781,-30.145928876247222,0.13746396529739258,-29.534445890357066,0.27389623124080975,-28.90135572449334,0.4150338702429246,-28.24718392311326,0.5606846820074001,-27.572472297913897,0.7106336516117322,-26.877777937463062,0.8646441029283523,-26.16367221683007,1.0224588520457338,-25.430739807216582,1.183801360689495,-24.679577685587446,1.3483768896435109,-23.895329873859023,1.5038074422901895,-23.080712734144775,1.668598148170659,-22.236443597012684,1.8420369224840574,-21.363384503470872,2.0233169643123006,-20.46253079557464,2.2115503831115317,-19.535000013105684,2.4057811463950616,-18.582021093357262,2.604997362546632,-17.604923871058816,2.8081429127027944,-16.605128875473945,3.0141284456432063,-15.584137421705323,3.2218417496276706,-14.543521993240232,3.4301575151186956,-13.484916912770538,3.6379465023284077,-12.410009298320594,3.84408412752859,-11.32053030171701,4.047458482062704,-10.218246626433759,4.246977797998627,-9.104952321846495,4.441577374360989,-7.982460850929647,4.630225977881849,-6.8525974284300935,4.811931732208557,-5.717191626550988,4.985747509507593,-4.578070245179584,5.150775838403184,-3.437050443692608,5.306173342189509,-2.29593313137297,5.451154721255312,-1.1564966134714705,5.584996293659688,-0.02049048994721736,5.7070391077978995,1.1103701960795784,5.816691641095991,2.2344105631286992,5.913432098673012,3.350001252381242,5.99681032590968,4.455563547887452,6.06644934886224,5.5495742589273895,6.1220465564604,6.6305703674906935,6.163374538428049,7.697153443841832,6.190281592865667,8.747993833137013,6.202691917433143,9.781834616059212,6.200605498071881,10.797495346437481,6.184097709204917,11.793875568816956,6.153318639353981,12.769958118945777,6.108492156112115,13.724812210145299,6.049914724410866,14.657596308529829,5.977953992020715,15.567560800042285,5.893047156223585,16.454050452271968,5.795699125596264,17.316506674020825,5.686480490843495,18.154469575584535,5.566025318619589,18.967579832714616,5.435028782277349,19.75558035722796,5.294244643483074,20.51831777723005,5.144482598636529,21.25574372991816,4.986605504034584,21.967915969930917,4.821526493717426,22.654999296210395,4.6502060039360815,23.31726630034312,4.473648718180075,23.955097939346388,4.292900446704058,24.56977954068339,4.107045200254824,25.162224113636114,3.9147493429402465,25.73235874762503,3.7164628115982152,26.280140985500655,3.512636250327943,26.805558426270608,3.303719143685684,27.308628327826753,3.0901579498804246,27.789397209672227,2.87239423396961,28.247940455648582,2.650862801054836,28.684361916662805,2.4259898294775732,29.09879351341446,2.1981910040148662,29.491394839122748,1.9678696490750407,29.86235276225359,1.7354148618934175,30.21188102924672,1.5011996457280157,30.54021986724277,1.265579043055268,30.84763558681034,1.0288882687657188,31.134420184673132,0.7914408433597409,31.400890946436952,0.5535267261432422,31.647390049316893,0.31541044842337085,31.874284164864306,0.07732924670422925,32.08196406169402,-0.16050880411742674,32.27084420821132,-0.39792665755646883,32.441362375339054,-0.6347801623436968,32.59397923924476,-0.8709599292301211,32.729177984067725,-1.1063931977912644" fill="none" stroke="black" stroke-width="2.2222222222222223" stroke-linejoin="round" filter="url(#fuzzy)"></polyline><!--[--><circle r="3.788129321493024" cx="21.32794173514369" cy="0.5238761061482808" stroke="black" fill="none" stroke-width="1" filter="url(#fuzzy)" clip-path="url(#rightEyeClipPath)"></circle><circle r="4.485938617478632" cx="19.993625343488635" cy="-1.6223549854355603" stroke="black" fill="none" stroke-width="1" filter="url(#fuzzy)" clip-path="url(#rightEyeClipPath)"></circle><circle r="4.2483288512450725" cx="20.577770071406754" cy="-1.6796182990195763" stroke="black" fill="none" stroke-width="1" filter="url(#fuzzy)" clip-path="url(#rightEyeClipPath)"></circle><circle r="4.403720483296059" cx="20.054492897973855" cy="-3.0266726924059713" stroke="black" fill="none" stroke-width="1" filter="url(#fuzzy)" clip-path="url(#rightEyeClipPath)"></circle><circle r="3.4092716128636993" cx="24.57899048527814" cy="-1.8108784114431515" stroke="black" fill="none" stroke-width="1" filter="url(#fuzzy)" clip-path="url(#rightEyeClipPath)"></circle><circle r="4.637032466826709" cx="21.826730522050607" cy="-2.361041399483426" stroke="black" fill="none" stroke-width="1" filter="url(#fuzzy)" clip-path="url(#rightEyeClipPath)"></circle><circle r="3.0519087832637197" cx="20.606661953216996" cy="-3.0191612741693534" stroke="black" fill="none" stroke-width="1" filter="url(#fuzzy)" clip-path="url(#rightEyeClipPath)"></circle><circle r="4.032830264371714" cx="22.707661856476385" cy="0.12645539883364965" stroke="black" fill="none" stroke-width="1" filter="url(#fuzzy)" clip-path="url(#rightEyeClipPath)"></circle><circle r="3.956904437903903" cx="23.176567416442037" cy="-0.34331205796310194" stroke="black" fill="none" stroke-width="1" filter="url(#fuzzy)" clip-path="url(#rightEyeClipPath)"></circle><circle r="3.787965895397764" cx="23.16825060043523" cy="-1.9171141228944821" stroke="black" fill="none" stroke-width="1" filter="url(#fuzzy)" clip-path="url(#rightEyeClipPath)"></circle><!--]--></g><g transform="translate(-49.18392624787083 -25.298338260132326)"><polyline id="leftUpper" points="41.628653345857316,-5.481641106271675,41.547616574219674,-5.53822001857484,41.446448943823526,-5.603102592223305,41.32381910042968,-5.675527836400159,41.178508997926066,-5.754763088137557,41.00941116404808,-5.840103542449712,40.815525966099,-5.9308717824658705,40.59595887667037,-6.026417309563303,40.349917739362425,-6.12611607350029,40.07671003450443,-6.229370002549105,39.775740144875215,-6.335606533629003,39.446506621423374,-6.4442781424392,39.08859944898787,-6.5548618735918645,38.7016973120183,-6.666858870745102,38.285564860295324,-6.779793906735934,37.84004997465112,-6.893214913713292,37.365081032689716,-7.006692513270997,36.86066417450742,-7.1198195465807474,36.3268805684132,-7.232210604525101,35.763883676649144,-7.343501557830468,35.17189652111076,-7.453349087200084,34.55120894906747,-7.561430213447007,33.90217489888298,-7.6674418276271,33.22520966573565,-7.771100221172009,32.52078716733891,-7.8721406160221585,31.78943720966169,-7.970316694759729,31.10522458034696,-8.113906182117898,30.372303414547524,-8.252013212363416,29.59128219430743,-8.384133067905921,28.763084215216946,-8.50981016977175,27.88892012760614,-8.628635320918082,26.970261477954327,-8.740243061744037,26.008815234009656,-8.8443091353428,25.006499277112706,-8.940548060038866,23.965418845218284,-9.028710806754463,22.887843910109503,-9.108582578749205,21.776187472298037,-9.179980691277096,20.632984757104882,-9.242752548704907,19.460873295415457,-9.296773716636022,18.262573872603294,-9.341946086583832,17.040872329116176,-9.378196130738733,15.798602196219068,-9.405473244372793,14.538628150387611,-9.423748173426198,13.26383026984651,-9.433011524819499,11.977089076746699,-9.433272357035769,10.681271348475429,-9.424556848516733,9.37921668159333,-9.406907041416925,8.073724791892548,-9.38037965825998,6.767543534069968,-9.345044989041071,5.463357624509622,-9.300985846319659,4.163778050668366,-9.248296585846525,2.8713321505588585,-9.187082190269221,1.5884543458239224,-9.117457413460002,0.31747751189637663,-9.039545983010278,-0.9393750312616267,-8.95347985843571,-2.1799969243456663,-8.859398542635976,-3.402405586328468,-8.757448444153304,-4.604748461017584,-8.647782287773845,-5.785308709057293,-8.530558571015924,-6.94251036188062,-8.405941064049296,-8.074922954117461,-8.274098350589444,-9.181265650964681,-8.135203407310975,-10.260410887024163,-7.989433219324241,-11.311387533114711,-7.836968429259198,-12.333383607563782,-7.67799301750061,-13.325748548484933,-7.512694011118661,-14.287995063546907,-7.341261219039053,-15.219800573740391,-7.163886990996629,-16.121008267648225,-6.980765997816661,-16.99162778272509,-6.7920950305677925,-17.83183553009264,-6.59807281613078,-18.641974679355908,-6.398899846727048,-19.42255481994698,-6.194778220951171,-20.17425131550189,-5.985911493851336,-20.897904367776576,-5.772504533601853,-21.594517806607968,-5.554763382311803,-22.26508189159523,-5.3321631626463555,-22.90993797504427,-5.10406601929176,-23.52926796290564,-4.870510075819392,-24.12329142186336,-4.631534719574305,-24.692263368718997,-4.387180930594175,-25.23647205977571,-4.137491610528232,-25.756236780222366,-3.8825119115562132,-26.251905633517612,-3.622289565307283,-26.723853330773906,-3.3568752117789957,-27.17247898014169,-3.086322728256222,-27.59820387619337,-2.8106895582300924,-28.001469289307472,-2.530037040316939,-28.382734255052668,-2.2444307371772316,-28.742473363571893,-1.953940764434523,-29.081174548966377,-1.6586421195943863,-29.3993368786798,-1.358615010963351,-29.697468342882264,-1.0539451865678546,-29.976083643854505,-0.744724263073171,-30.235701985371836,-0.43105005470235813,-30.47684486208831,-0.11302690215518929,-30.700033848920814,0.20923399847289392,-30.90578839043304,0.5356142667718524,-31.094623590219708,0.8659880090980998,-31.267048000290526,1.2002214896555756" fill="none" stroke="black" stroke-width="2.2222222222222223" stroke-linejoin="round" filter="url(#fuzzy)"></polyline><polyline id="leftLower" points="39.45518472485065,-3.951059851973758,39.19207707679725,-3.8725619630334425,38.88719250712299,-3.789285531634469,38.54201872815446,-3.700256250843736,38.15802205169234,-3.6045939190181597,37.736647347574056,-3.501509971224408,37.279318002236245,-3.390305010658637,36.78743587727731,-3.2703663400662277,36.26238126801999,-3.141165493161519,35.705512862073846,-3.0022557660475444,35.118167697897874,-2.853269748635769,34.50166112336296,-2.6939168560658224,33.857286754314494,-2.523980860125235,33.18631643313486,-2.343317420669176,32.490000187306016,-2.151851617040185,31.76956618797199,-1.9495754794879105,31.026220708501466,-1.7365455205888463,30.26114808305027,-1.5128802666660608,29.475510665123956,-1.2787577892089397,28.670448786140334,-1.0344132362929184,27.847080713992007,-0.7801363639992189,27.006502611608884,-0.5162690678345854,26.149788495520777,-0.24320291415101103,25.277990194419896,0.03862332843450833,24.39213730772339,0.32872615762025426,23.493237164135916,0.6265798060000485,22.48119051843437,0.8911935532950679,21.449212406708007,1.1767667048249661,20.398817866526738,1.4820224007658176,19.331556121981283,1.8054769963639528,18.24900437505943,2.1454684042670005,17.152761809421076,2.5001830334486996,16.04444380406148,2.8676813535895445,14.925676354352268,3.2459221137752694,13.798090697949585,3.6327852443751887,12.663318143059014,4.026093470962417,11.522985096546615,4.423632669138032,10.37870828938566,4.823170989121149,9.232090196928555,5.222476778966952,8.084714651493345,5.619335335274734,6.9381426447544,6.011564510247924,5.793908317426698,6.397029203968168,4.6535151337332215,6.7736547707454395,3.518432238144965,7.139439368406256,2.3900909918829907,7.492465279382001,1.2698816866720881,7.83090923245935,0.15915043323547184,8.153051754054882,-0.9408037779799807,8.457285577875869,-2.028731846358426,8.742123141829227,-3.103437163460271,9.006203201040739,-4.163778050668366,9.248296585846525,-5.208670034645685,9.467311133618752,-6.23708796311505,9.662295823287684,-7.2480679634713745,9.832444141422021,-8.240709246736948,9.977096708729636,-9.214175759370274,10.095743195840607,-10.16769768543897,10.188023557234727,-11.100572801667271,10.253728612175376,-12.0121676878686,10.29280000151188,-12.901918795273726,10.305329549212274,-13.769333375265129,10.291558057488663,-14.61399027102785,10.251873564376991,-15.435540574627622,10.186809092633403,-16.233708152026566,10.097039918809202,-17.008290038547102,9.983380391366323,-17.759156707294505,9.846780326695491,-18.486252213048676,9.688321011898969,-19.189594214135628,9.509210843199977,-19.869273874789137,9.310780628840831,-20.525455650513177,9.094478585331757,-21.15837695895559,8.861865055912446,-21.76834773880346,8.614606980088379,-22.35574989921084,8.354472143103916,-22.921036662269152,8.08332323421424,-23.464731801030986,7.803111742618045,-23.987428775597625,7.515871719913191,-24.490198204929587,7.21994465167665,-24.97374013381191,6.91286962431268,-25.438156831178166,6.595538330715867,-25.883567594376746,6.268843524957383,-26.3101084129414,5.93367515683533,-26.71793163236195,5.5909165064250335,-27.107205617854913,5.241440318629422,-27.47811441813418,4.886104937729328,-27.83085742918162,4.525750441933823,-28.165649058017795,4.161194777930563,-28.482718386472545,3.793229895436106,-28.782308834955682,3.422617881746252,-29.064677826227626,3.0500870962863686,-29.33009644917006,2.6763283051617277,-29.57884912255655,2.3019908157078355,-29.811233258823282,1.9276786110407604,-30.027558927839582,1.5539464846074695,-30.228148520678705,1.1812961747361674,-30.413336413388368,0.8101724991866055,-30.58346863076147,0.4409594897004334,-30.738902510106723,0.07397652655152775,-30.880006365019323,-0.29052552690368394,-31.007159149151537,-0.652368189675884,-31.120750119983445,-1.0114492285925345" fill="none" stroke="black" stroke-width="2.2222222222222223" stroke-linejoin="round" filter="url(#fuzzy)"></polyline><!--[--><circle r="4.89262095028971" cx="1.7118315026029354" cy="-2.2650221516297293" stroke="black" fill="none" stroke-width="1" filter="url(#fuzzy)" clip-path="url(#leftEyeClipPath)"></circle><circle r="3.8476692173282183" cx="0.33821432966717957" cy="-1.6830187591853392" stroke="black" fill="none" stroke-width="1" filter="url(#fuzzy)" clip-path="url(#leftEyeClipPath)"></circle><circle r="4.359455072175938" cx="0.16748066359528124" cy="-4.0811238472683025" stroke="black" fill="none" stroke-width="1" filter="url(#fuzzy)" clip-path="url(#leftEyeClipPath)"></circle><circle r="4.693885935139321" cx="1.216512624338491" cy="-2.4604730194407343" stroke="black" fill="none" stroke-width="1" filter="url(#fuzzy)" clip-path="url(#leftEyeClipPath)"></circle><circle r="3.24528006218315" cx="4.1425598520523765" cy="-2.469638426196719" stroke="black" fill="none" stroke-width="1" filter="url(#fuzzy)" clip-path="url(#leftEyeClipPath)"></circle><circle r="4.341691333261127" cx="2.134718596071277" cy="-0.7149812293544344" stroke="black" fill="none" stroke-width="1" filter="url(#fuzzy)" clip-path="url(#leftEyeClipPath)"></circle><circle r="3.8019541827370835" cx="3.8752068950361336" cy="-1.3271553909918214" stroke="black" fill="none" stroke-width="1" filter="url(#fuzzy)" clip-path="url(#leftEyeClipPath)"></circle><circle r="4.934170652151927" cx="3.2609662929522756" cy="-1.4524657119700493" stroke="black" fill="none" stroke-width="1" filter="url(#fuzzy)" clip-path="url(#leftEyeClipPath)"></circle><circle r="3.14050758387382" cx="2.9790072004854444" cy="0.5000086050535977" stroke="black" fill="none" stroke-width="1" filter="url(#fuzzy)" clip-path="url(#leftEyeClipPath)"></circle><circle r="3.516351684402698" cx="2.4464780483890403" cy="-2.038383497700428" stroke="black" fill="none" stroke-width="1" filter="url(#fuzzy)" clip-path="url(#leftEyeClipPath)"></circle><!--]--></g><g id="hairs"><!--[--><polyline points="-50,-72,-48.48351350026146,-72.61091385834081,-46.26986532480994,-73.73770834569429,-43.855136573587494,-74.91127022651315,-41.29927600120394,-76.06720859576676,-38.50251513930646,-77.23089047827831,-35.45785619795149,-78.39821751574854,-32.282689700255816,-79.54047023646137,-29.118148232846192,-80.64384870498567,-26.042055762870277,-81.72276403275694,-23.068449603861815,-82.7950516370341,-20.202271592515427,-83.84945257263075,-17.46917361772134,-84.84681845052538,-14.89997409301065,-85.76160627354818,-12.5919430815866,-86.57979533837114" fill="none" stroke="rgb(128, 128, 128)" stroke-width="2" stroke-linejoin="round" filter="url(#fuzzy)"></polyline><polyline points="48,-78,48.83135906137743,-77.10650749662167,49.43447855230331,-76.3345838899972,49.57272379646304,-75.62329841810154,49.06661099551593,-74.96630793329088,47.91297084329683,-74.35521577246786,46.17798700917447,-73.76379520508691,43.89596226588021,-73.17233618349367,41.04906497729216,-72.57775886833859,37.599169401020475,-71.98567271915823,33.52080182318856,-71.40077405060413,28.808314842022202,-70.82098598957462,23.46029087480499,-70.23159531722703,17.45831454756,-69.60157590600281,10.75475487141317,-68.89255904660297,3.2750769247205476,-68.08445655362479,-5.065255344520363,-67.20200994623768,-14.327734425937443,-66.31638271560985,-24.501764522111745,-65.51586385687128,-35.472325264553845,-64.87265978719434,-47.13559897126,-64.41576157183928" fill="none" stroke="rgb(128, 128, 128)" stroke-width="2" stroke-linejoin="round" filter="url(#fuzzy)"></polyline><polyline points="-37,-79,-35.06228225619452,-79.70959815879097,-33.608625387133586,-80.27580422775486,-32.1772083364479,-80.8532585918114,-30.7918189309421,-81.45353952579899,-29.485053099199774,-82.04199441877621,-28.2804367576848,-82.56929107141332,-27.21901297113568,-82.99774214833533,-26.37189483642578,-83.30921173095703,-25.830310117355758,-83.4921717734672,-25.671581541210145,-83.5261779339579,-25.92705370311947,-83.38268280743208,-26.593062764091883,-83.04245749633992,-27.69674899726925,-82.50932936784685,-29.36212187944668,-81.7987652454284,-31.704617155640896,-80.91941998355357" fill="none" stroke="rgb(128, 128, 128)" stroke-width="2" stroke-linejoin="round" filter="url(#fuzzy)"></polyline><polyline points="50,-76,51.736652279128585,-75.45546171342114,52.95800645748081,-74.59440917594235,53.92956961936926,-73.75344633209674,54.920774843491756,-72.90492616854023,55.99460809853741,-72.03536054824981,57.094979394755796,-71.18105951994988,58.14470556274623,-70.37978447699746,59.085075068142686,-69.65169395842429,59.877574190209145,-69.01111920180979,60.50099371932702,-68.47647030401681,60.95300499138135,-68.06598046471515,61.24336675243134,-67.79362092822494,61.368952961664974,-67.68007700188309,61.28488468909568,-67.76943530115888,60.905282443543754,-68.1214876075457,60.15153391957908,-68.76559934516673,59.00431738276823,-69.66745928423394,57.43104224516271,-70.85736920231841" fill="none" stroke="rgb(128, 128, 128)" stroke-width="2" stroke-linejoin="round" filter="url(#fuzzy)"></polyline><polyline points="5,-88,7.247711339784335,-88.16674010593,8.81180883692772,-88.22681478390257,9.948728829852897,-88.09978475302894,10.788270293843842,-87.87483317900876,11.384123291053777,-87.59321839876878,11.672474016258647,-87.25451019563423,11.532296234547852,-86.84897051222285,10.871175302667575,-86.3695640534646,9.666565721155903,-85.80959389560302,7.953291831384423,-85.15954386774261,5.783162355422974,-84.40780401229858,3.185884366886018,-83.54244666921204,0.14983198592845426,-82.55186082153372,-3.3709442443591957,-81.42730016891514,-7.429222781896703,-80.17194949054362,-12.054638103319512,-78.81364464705234,-17.24594216493967,-77.40570526142218,-23.00354656517151,-75.99535706843905,-29.397105651431268,-74.55617361941731,-36.61274094635604,-72.9301821091459,-44.78424390197042,-70.93182895725616" fill="none" stroke="rgb(128, 128, 128)" stroke-width="2" stroke-linejoin="round" filter="url(#fuzzy)"></polyline><polyline points="55,-73,56.31994898696723,-71.92372095963307,57.13361120179406,-71.4351608960603,57.81709166715627,-70.94846000906482,58.41243253761779,-70.41986016044287,58.91526055107579,-69.89216688730448,59.33467790175943,-69.3873898264746,59.66140005354536,-68.92655058088594,59.840039269527345,-68.55490186175679,59.780682807113905,-68.33438651797766,59.39522838592529,-68.31943988800049,58.62722909778445,-68.54370544528769,57.4568061052857,-69.02629446516397,55.88436684916557,-69.78527027537459,53.909604390387194,-70.84341521552193,51.5199162519325,-72.22471631270855,48.69081239618285,-73.9508913166832,45.39008875569962,-76.04239618226079,41.57920299855132,-78.5191524193313,37.2075219462454,-81.42334838115539" fill="none" stroke="rgb(128, 128, 128)" stroke-width="2" stroke-linejoin="round" filter="url(#fuzzy)"></polyline><polyline points="-50,-72,-48.49579918870726,-72.58976160204138,-46.3755509568665,-73.61699700374461,-44.11132125504751,-74.63198595108055,-41.72568036564893,-75.59579564295784,-39.112092138736216,-76.53970826115938,-36.237585983692405,-77.46719247217354,-33.14207341908726,-78.36682362082625,-29.876871794217667,-79.23898576970487,-26.480420839722,-80.09935465794285,-22.995839595794678,-80.96461772918701,-19.490548477483227,-81.83943132038864,-16.049147533647186,-82.71559869291902,-12.743822876119053,-83.58055487321087,-9.610076577444264,-84.42484530411537,-6.654707252117305,-85.24033479981017,-3.8960520326937162,-86.00952221004444,-1.3939869082695076,-86.70048713684223,0.795366421306313,-87.30163413795105,2.7606201793164886,-87.93647707181219" fill="none" stroke="rgb(128, 128, 128)" stroke-width="2" stroke-linejoin="round" filter="url(#fuzzy)"></polyline><polyline points="-47,-74,-45.298587162163564,-74.69147206611768,-44.45137625169088,-75.2528508866801,-43.5788853208085,-75.82278961638086,-42.65467653523443,-76.30650940096866,-41.86139488636808,-76.60549573857328,-41.320113134233374,-76.68791515222803,-41.06474693108579,-76.56881926024157,-41.10215304390185,-76.26573660433955,-41.45747947692871,-75.77175331115723,-42.17895712387191,-75.05713345466137,-43.31836766877251,-74.08824082281535,-44.91230220144604,-72.84392651038478,-46.9820199369273,-71.31194705332486,-49.553903247941186,-69.461071490592,-52.67872897381109,-67.21191250001606,-56.4170293509541,-64.46370598466748,-60.81213456174157,-61.24165656895461" fill="none" stroke="rgb(128, 128, 128)" stroke-width="2" stroke-linejoin="round" filter="url(#fuzzy)"></polyline><polyline points="8,-88,9.318239008722182,-88.36766441672292,10.584548980606092,-88.2427000544029,11.638727458688264,-88.0435894026405,12.557831980925982,-87.83526521717931,13.256985422004982,-87.59509591777999,13.573569802203497,-87.30085182553793,13.395289437711547,-86.94413368391761,12.703420162269719,-86.52246947436298,11.544243205130005,-86.0335720950133,9.976436369899819,-85.47477481693551,8.030609250068665,-84.842733502388,5.694813564159773,-84.13070643059739,2.92240486051881,-83.32608965992749,-0.34955825939445617,-82.412898203807,-4.183644881672544,-81.3797907744501,-8.636201404857442,-80.22686736387118,-13.76630052077905,-78.96164448506093,-19.65140443997381,-77.58398374849604,-26.378260010080893,-76.07984621473153,-33.96541078966164,-74.45384272352098,-42.24766906432459,-72.77677774807621" fill="none" stroke="rgb(128, 128, 128)" stroke-width="2" stroke-linejoin="round" filter="url(#fuzzy)"></polyline><polyline points="60,-69,61.16597022733532,-67.81659606307403,62.3610854918278,-66.59013005712383,63.16984373280588,-65.68107332026418,63.45374603760184,-65.12167308806461,63.231337851010316,-64.83221413201105,62.548836371173266,-64.76631370816021,61.41323463282195,-64.9457307701065,59.787625369814506,-65.43100314878774,57.61554539708171,-66.27905168786724,54.84580759155385,-67.51801957802178,51.448232119502066,-69.14833115277224,47.422381971932865,-71.16413670407647,42.79920384560489,-73.5774837090334,37.62996162087526,-76.41891626703244,31.957409526189025,-79.70350460202867,25.70677316708644,-83.44074138591387" fill="none" stroke="rgb(128, 128, 128)" stroke-width="2" stroke-linejoin="round" filter="url(#fuzzy)"></polyline><polyline points="67,-62,67.91222654101641,-60.4569495263661,68.71254907672687,-59.34275324639047,69.32144577217937,-58.502779273926855,69.69569722695388,-57.89886659349469,69.82865424930229,-57.4935132265114,69.7180752470047,-57.26784903727696,69.34993389327448,-57.24105115909851,68.70258176478755,-57.4567125473551,67.75270652770996,-57.96602439880371,66.47285056905504,-58.82456323365571,64.82709911167883,-60.08838412864473,62.77564933760297,-61.79420858146716,60.28788247964288,-63.935757493079066,57.3523439813641,-66.46787618324286,53.970836804711276,-69.35632128724248,50.107163727051386,-72.66447587446898,45.47793207180244,-76.67472583345992" fill="none" stroke="rgb(128, 128, 128)" stroke-width="2" stroke-linejoin="round" filter="url(#fuzzy)"></polyline><polyline points="57,-72,57.81553253277739,-71.09388988088415,58.27845921108306,-70.34459374156225,58.3969239651933,-69.7304025953347,58.26360250342879,-69.15039161288631,57.91015401237573,-68.56080927881884,57.26559589280713,-68.00115656762456,56.20805404546354,-67.538971642181,54.63401987234977,-67.21780242286148,52.49227981439379,-67.04704833214929,49.774368937865646,-67.02227468079393,46.48442196846008,-67.14774525165558,42.61682921721649,-67.44343360746556,38.15501606963689,-67.93610282128623,33.083238895638345,-68.64427601643399,27.39198324807185,-69.56834433558205,21.0669018492789,-70.6934396520218,14.07635890677426,-72.00509078359747,6.386925502270433,-73.50495022330513,-1.9974652965262756,-75.20283120388765,-11.057370471246239,-77.07366295200968,-20.93113003671369,-79.02473931624266" fill="none" stroke="rgb(128, 128, 128)" stroke-width="2" stroke-linejoin="round" filter="url(#fuzzy)"></polyline><polyline points="50,-76,51.68465270515011,-75.50686024327644,52.7322741050805,-74.80687778179414,53.41718937642614,-74.22590720883476,54.007436194943615,-73.72217541227964,54.56331395236036,-73.26720962233694,55.030599978657705,-72.8802134254576,55.33800651677037,-72.58482769908571,55.4374728636517,-72.3909840378076,55.30729855135476,-72.3002001401505,54.94387842872635,-72.31219569327583,54.34972180297121,-72.42876897740457,53.51609163699046,-72.66180370746434,52.40405963471116,-73.04439640733447,50.93619414328426,-73.63294796703752,49.00924520988256,-74.49142575836767,46.5240805825895,-75.66725515348031,43.41518861936068,-77.1823854965151,39.66673481551446,-79.04973123428245,35.33107471606935,-81.27822171459754,30.59922440742023,-83.77058570967567" fill="none" stroke="rgb(128, 128, 128)" stroke-width="2" stroke-linejoin="round" filter="url(#fuzzy)"></polyline><polyline points="54,-74,55.14480113579349,-72.92562149872325,56.210950556965074,-72.09267182905585,57.10011529702621,-71.46340234199761,57.880375275023404,-70.87263900745151,58.59343862626156,-70.26266608626534,59.26609721850161,-69.62858892430248,59.9155439442065,-68.97844326371765,60.52949691787666,-68.33590759206497,61.05528049390213,-67.74631812386302,61.415590763939015,-67.26539027673307,61.53913332093124,-66.93948218422088,61.383243560791016,-66.79456722736359,60.935682261516284,-66.84047885741103,60.199735158676404,-67.08366082022576,59.17613581344109,-67.53749418430726,57.853069662121584,-68.22446367553675,56.207279991555765,-69.1714205344833,54.212740740368886,-70.40173526995933,51.85115925753605,-71.9269593392842,49.119264315411385,-73.74070373279646,46.032048482323034,-75.8201382551821,42.62181397715122,-78.14474277427523,38.85472397617056,-80.76367137304287" fill="none" stroke="rgb(128, 128, 128)" stroke-width="2" stroke-linejoin="round" filter="url(#fuzzy)"></polyline><polyline points="-5,-88,-3.1540238809048526,-87.96556543234134,-0.7608279241891899,-87.9087839834131,1.4983688729110534,-87.83090265039158,3.6378213332075853,-87.6903457355316,5.832019465291861,-87.45762723373915,8.213689914533433,-87.12667471704387,10.825566436098448,-86.71427492509582,13.637130106270785,-86.25369697953566,16.57540169362036,-85.7805844883159,19.551584049216906,-85.31925749370792,22.483671167312586,-84.87850751926506,25.313326174991012,-84.45588412629843,28.005990231363356,-84.04350303571101,30.52540973856267,-83.635291369058,32.79625678235993,-83.24441646157055,34.70174599063898,-82.92674394009208,36.174839758703655,-82.7658908178854,37.33094087085894,-82.78025390203901" fill="none" stroke="rgb(128, 128, 128)" stroke-width="2" stroke-linejoin="round" filter="url(#fuzzy)"></polyline><polyline points="5,-89,6.118238976640407,-88.25935791268603,8.514157867052958,-87.65445772870284,11.523477961552702,-86.85839515018858,14.933585740726766,-85.76507996967443,18.71619557271274,-84.4058559535813,22.878344321938226,-82.83237143756799,27.359138997528085,-81.07653193482894,32.01685628678784,-79.16700266123456,36.69719130686751,-77.14976918680372,41.31709053983461,-75.08363865856356,45.898990336294425,-73.01708587414822,50.538217360044854,-70.96392615922892,55.333305900388886,-68.87928637107592,60.281281832766915,-66.63314967399329" fill="none" stroke="rgb(128, 128, 128)" stroke-width="2" stroke-linejoin="round" filter="url(#fuzzy)"></polyline><polyline points="38,-83,39.18588522842961,-82.27729538640217,40.017078115169014,-81.67484256131557,40.6944011807687,-81.21795866856002,41.070601351952725,-80.9612272798763,41.093652847565345,-80.85016621823534,40.73412822896476,-80.81951273477078,39.91234195347234,-80.85681191795572,38.51183902316212,-80.99687623538281,36.429866898823576,-81.29247940341922,33.60630478683847,-81.79524482248021,29.998338571118076,-82.54926927045327,25.514206933588373,-83.58314092618711,19.98391945674547,-84.88437138187368,13.237841511495303,-86.3657101432519" fill="none" stroke="rgb(128, 128, 128)" stroke-width="2" stroke-linejoin="round" filter="url(#fuzzy)"></polyline><polyline points="19,-88,20.865697872351213,-87.3397286257656,22.220521736585766,-86.95335657849498,23.782326918096356,-86.61682292237631,25.522318911249766,-86.25956544906694,27.338367744083282,-85.84817263010312,29.16536166994948,-85.37565056186965,30.943454149872004,-84.86346885134238,32.60147656551652,-84.34997738761851,34.07009875454449,-83.87505181702552,35.30099661201957,-83.46892479364952,36.27488100528717,-83.1461570262909,36.995002233883795,-82.90535057411509,37.471017265918746,-82.73641627370668,37.70063812486954,-82.63430557101995,37.65580597456783,-82.61223434375779,37.27838804824688,-82.70443449554422,36.48868523899966,-82.95340261384916,35.20771041935652,-83.38882638519999,33.390413711063296,-84.01470202845272,31.068482551872858,-84.80461003736119,28.42833977461288,-85.63480477144898" fill="none" stroke="rgb(128, 128, 128)" stroke-width="2" stroke-linejoin="round" filter="url(#fuzzy)"></polyline><polyline points="72,-55,72.59958424334131,-53.69195367380578,72.86959480904369,-52.834901475189376,73.10520882716433,-52.00269878992091,73.30758051587658,-51.23798655899802,73.3898601277195,-50.64148547524062,73.29333070564061,-50.232335298045335,72.99681205507952,-49.97750039160705,72.4895079573131,-49.85683998466274,71.75279188947422,-49.890276134894364,70.75899757230074,-50.12327160393177,69.47840832385916,-50.59968305111463,67.88510060310364,-51.346505492925644,65.95750786953788,-52.37619802012344,63.67460002381991,-53.69915868162988,61.01169222217002,-55.336163005421,57.94048415786784,-57.322868863984674,54.43545335210945,-59.70200567488071,50.48442368436623,-62.50518442978366,46.09886822591312,-65.7356509132998,41.32139476568023,-69.36810337461579,36.22789902554399,-73.37146392934848,30.918568343075542,-77.73216221983867,25.560525673804815,-82.40298816164588" fill="none" stroke="rgb(128, 128, 128)" stroke-width="2" stroke-linejoin="round" filter="url(#fuzzy)"></polyline><polyline points="36,-83,37.81014197208931,-82.65859538864757,39.39619494563963,-81.92851351955281,40.97764096868455,-81.02479578394777,42.61701082275881,-80.08726286811034,44.28704780869755,-79.16963323636563,45.970141428613616,-78.2525461155665,47.651220061641475,-77.30634390121536,49.29598126553125,-76.33498501628233,50.8556575762353,-75.37790996643153,52.28452413361688,-74.48695232477031,53.54753155764592,-73.70408037672264,54.6132504934651,-73.05494632908466,55.44625837835537,-72.55563281582508,56.01496204663731,-72.21722249881498,56.30909582605875,-72.0396347752478,56.33147821759551,-72.01820262240372,56.0337655275107,-72.21125994670975,55.259881597115076,-72.83679326982553" fill="none" stroke="rgb(128, 128, 128)" stroke-width="2" stroke-linejoin="round" filter="url(#fuzzy)"></polyline><polyline points="37,-83,36.63820733097525,-82.88788911349475,36.4670123726353,-82.45456075443859,35.73092202397113,-81.71574251514774,34.195130744890776,-80.75816356361611,31.76494017730387,-79.67069088814357,28.382315690496718,-78.49213624095083,24.01807953319996,-77.19848619781527,18.652427673339844,-75.73699188232422,12.2539731093466,-74.07277772261449,4.780792813405487,-72.21343836137535,-3.8094794430096535,-70.19822770369555,-13.566188818018418,-68.05619839957217,-24.568922653826462,-65.75835260628911,-36.93508463978233,-63.22612347210264,-50.76744525517023,-60.48474086960752" fill="none" stroke="rgb(128, 128, 128)" stroke-width="2" stroke-linejoin="round" filter="url(#fuzzy)"></polyline><polyline points="67,-62,67.83322024613427,-60.4774544370636,68.37434128125125,-59.437240406095285,68.54268249704269,-58.708104129698256,68.29959786674614,-58.231911444613914,67.63461693499033,-57.95476038600742,66.54088135081703,-57.845395137868024,65.01473707777127,-57.90608516475482,63.061909331057954,-58.15739579043625,60.69089347591561,-58.624679621266665,57.89623737492767,-59.334567206321296,54.64650916594365,-60.310795273805155,50.88641518756312,-61.565224413263,46.55134140234744,-63.09482305742981,41.58662486491439,-64.89493558101351,35.963600863626155,-66.98066765087205,29.685581112363455,-69.39259912995495,22.780716709601556,-72.17417087058922,15.288731261942218,-75.3451644496636,7.248348119364695,-78.91473127003678,-1.3683594317111734,-82.89324958065862" fill="none" stroke="rgb(128, 128, 128)" stroke-width="2" stroke-linejoin="round" filter="url(#fuzzy)"></polyline><polyline points="58,-71,58.38507559674721,-70.13195811553165,57.62763098658851,-69.3938597981403,55.85165411066187,-68.59876829014264,53.12054398302244,-67.63545670436858,49.33869474053556,-66.55524182666552,44.33617288454471,-65.47650019453174,37.97260221704979,-64.47560428257904,30.184120030427774,-63.55110798426533,20.970987880991952,-62.665013115001244,10.356992301457762,-61.80938536526395,-1.6516110289157169,-61.033343607832336,-15.09635460053076,-60.39355198977475,-30.07656645702173,-59.851276860276585,-46.70854793719077,-59.19663178598922" fill="none" stroke="rgb(128, 128, 128)" stroke-width="2" stroke-linejoin="round" filter="url(#fuzzy)"></polyline><polyline points="-17,-86,-16.166684586228836,-86.04578805505933,-15.080852109294097,-86.22420615717944,-13.938940185866041,-86.42388391833289,-13.112100412733897,-86.52524233720244,-12.775416322633058,-86.47119769712161,-12.942006123121185,-86.24767407466199,-13.566506184970448,-85.84965721412269,-14.614486552422274,-85.26541765915907,-16.092769776780436,-84.47986751061899,-18.06438308101825,-83.48103017513601,-20.650506716017965,-82.26013058693425,-23.992752453671294,-80.81270847103684,-28.162471148081966,-79.15385790157265,-33.065500543086465,-77.34561994884353,-38.44128404814514,-75.50860639458713,-44.03368222654819,-73.76540088654644" fill="none" stroke="rgb(128, 128, 128)" stroke-width="2" stroke-linejoin="round" filter="url(#fuzzy)"></polyline><polyline points="71,-57,71.73725265352523,-55.32731964262391,71.93572730573902,-54.24768524408308,71.68234120007665,-53.5664446149,71.09368313288303,-53.1101543490696,70.17619373861908,-52.872239544746435,68.86714074599251,-52.9043641692725,67.10625009153878,-53.222619851308494,64.86436247854643,-53.802481562940116,62.13246225197441,-54.62301499182482,58.900675773620605,-55.69909620285034,55.145543469961645,-57.07561734501718,50.826311898592834,-58.799306671016936,45.885634893633956,-60.89812494765867,40.256326786001495,-63.382723348534185,33.880674591227034,-66.26112405293702,26.738664997916427,-69.55079884157169,18.857281344497363,-73.28317386120295,10.266296998251015,-77.49483923448915,0.9435460705010117,-82.15871623992913" fill="none" stroke="rgb(128, 128, 128)" stroke-width="2" stroke-linejoin="round" filter="url(#fuzzy)"></polyline><polyline points="26,-87,27.668444283107046,-86.07573046049359,28.797305628825406,-85.24860029788051,29.24410051584349,-84.44502844823059,28.92915050591404,-83.59571481771394,27.844707551213123,-82.67258371104666,26.01691266165305,-81.659297011975,23.475574099949352,-80.53056832378215,20.23820579297534,-79.2555778315569,16.3024496200701,-77.81432352085132,11.643492945431518,-76.20628661625695,6.216993404197382,-74.43989467191051,-0.030576039457212545,-72.51013498488898,-7.147107345515572,-70.3840853669395,-15.16562058265868,-68.00903292195095,-24.106908947108153,-65.34113083192926,-33.981243004057426,-62.38840394508607,-44.75898220669274,-59.29089076055984,-56.275173239181726,-56.49261147354147" fill="none" stroke="rgb(128, 128, 128)" stroke-width="2" stroke-linejoin="round" filter="url(#fuzzy)"></polyline><polyline points="-45,-75,-43.56410039354208,-75.96360087041823,-41.64344624823552,-76.84761485882997,-39.68294664028587,-77.59005970839195,-37.71885470938448,-78.25195693293881,-35.674902974947464,-78.91530186041494,-33.525396222232,-79.61893878107692,-31.300975808272618,-80.36032126715564,-29.048449026367276,-81.1204260924428,-26.805139956306014,-81.88002689380599,-24.596974895531176,-82.62243450063622,-22.44936752319336,-83.33150255680084,-20.398254547119713,-83.99256901939455,-18.492953705957945,-84.59644051948042,-16.78810590305317,-85.14107162568749,-15.327101897235769,-85.6271634354647,-14.123605895613007,-86.0512512676415,-13.15230242857163,-86.4051473520182,-12.36438411643803,-86.68508290727289,-11.739775258635344,-86.89794965995978,-11.362020027222057,-87.04134468254304,-11.435150410028882,-87.06400245853403" fill="none" stroke="rgb(128, 128, 128)" stroke-width="2" stroke-linejoin="round" filter="url(#fuzzy)"></polyline><polyline points="-51,-71,-49.85363670999107,-71.81075842692317,-48.23792169869335,-72.73918976597149,-46.3756030274742,-73.79769832585953,-44.510244358243014,-74.85904076648647,-42.708420725267935,-75.87342303765709,-40.938433699273666,-76.83525329847322,-39.18482666406027,-77.73479087979867,-37.4844366908464,-78.55151227145205,-35.90118980407715,-79.27012634277344,-34.494118021297545,-79.88968574787462,-33.30764324543965,-80.4141717191257,-32.3807051369793,-80.83389045453058,-31.75837283281019,-81.1170489942042,-31.493348119060176,-81.22427180660513,-31.637226493715758,-81.13756076396179,-32.232848671225895,-80.87296509632922,-33.25606939039976,-80.45907377044401" fill="none" stroke="rgb(128, 128, 128)" stroke-width="2" stroke-linejoin="round" filter="url(#fuzzy)"></polyline><polyline points="28,-86,29.786366480522982,-85.32160014464993,31.217493283108706,-84.85774889163761,32.18510537832454,-84.462635168498,32.69459464746933,-84.13068229812552,32.766132608641044,-83.86860677298029,32.40475360524022,-83.66646978067638,31.601155517962336,-83.50404259877689,30.33589706938896,-83.36989928407942,28.581634521484375,-83.27420997619629,26.30395379518051,-83.24397668710093,23.462052433630046,-83.30313532883952,20.005678990646608,-83.45232950926007,15.86285107552079,-83.66571136528177,10.92930764011135,-83.91095275433933,5.0979191526747485,-84.18193615399345,-1.6383805409341292,-84.52897954359668,-9.069360074888273,-85.08005357678464" fill="none" stroke="rgb(128, 128, 128)" stroke-width="2" stroke-linejoin="round" filter="url(#fuzzy)"></polyline><polyline points="55,-73,56.32073658700099,-71.92166104716289,57.145950374640975,-71.42721877683209,57.838395612194645,-70.9390901585448,58.43600121542113,-70.41948551381938,58.923774964860925,-69.92651749913486,59.29726006469751,-69.49547275148787,59.52917763141903,-69.16037000753347,59.535926818847656,-68.99102783203125,59.18994987920014,-69.08899070254124,58.36796623205667,-69.54699934209944,56.99580454685531,-70.41097035679175,55.057961417303886,-71.6785321563948,52.57617371266468,-73.32754815322231,49.608456778611824,-75.3208355081407,46.32579823938248,-77.55573105906718" fill="none" stroke="rgb(128, 128, 128)" stroke-width="2" stroke-linejoin="round" filter="url(#fuzzy)"></polyline><polyline points="26,-86,26.516614827345496,-86.28544572656068,27.47157365308029,-85.86034365559028,28.312180461029033,-85.22488071208913,28.745619643757205,-84.53540559258221,28.638935275091953,-83.8254378522569,27.9613308581495,-83.09873533977436,26.731697270852457,-82.34745187629147,24.97614893733119,-81.54825753888932,22.702334128642516,-80.66557324455832,19.892582693864576,-79.66660872936193,16.51214098930359,-78.53711152076721,12.524592756547037,-77.28515038107672,7.905603775921222,-75.93018727707764,2.647393218263165,-74.4862606905475,-3.2494955192484234,-72.95183306343273,-9.791439463262154,-71.31338275584812,-16.998748537186977,-69.56191120666676,-24.893079519334343,-67.71623245097985,-33.480079827581804,-65.8370404093571,-42.771500859621355,-63.99089152426674,-52.870684117134466,-62.12071666296846" fill="none" stroke="rgb(128, 128, 128)" stroke-width="2" stroke-linejoin="round" filter="url(#fuzzy)"></polyline><polyline points="12,-88,13.769825084846671,-87.97247604659199,16.022487744342637,-87.85282098060951,18.030690478465004,-87.65359768381619,19.660926492615452,-87.42463120184246,20.996904959455158,-87.19436965471276,22.167189521908174,-86.9741722857961,23.255195851650036,-86.77383477115907,24.270733460497688,-86.60195667779018,25.163164138793945,-86.4588680267334,25.85412761345813,-86.3368201388418,26.268860840383493,-86.23180000543763,26.35227781323323,-86.15730760348782,26.0678914428436,-86.14540555280541,25.385546208655846,-86.23114530700673,24.260081563154635,-86.43655271320007,22.58856962055986,-86.78126185869635,20.159225355049458,-87.31738154541047" fill="none" stroke="rgb(128, 128, 128)" stroke-width="2" stroke-linejoin="round" filter="url(#fuzzy)"></polyline><polyline points="43,-80,43.83459848548787,-80.05066847978789,45.26528924086313,-79.30495353764275,46.78995146688214,-78.32779801463361,48.35944143902432,-77.24459997223893,49.96535538513995,-76.1067247886237,51.56762008333722,-74.95633189559442,53.10542646462667,-73.83024735946655,54.529504386925275,-72.75823891570643,55.82318619081413,-71.76159741963772,56.996867063481744,-70.85413301316227,58.064123034477234,-70.04630970954895,59.019513395559585,-69.34970990863445,59.83182444048062,-68.77946885461844,60.453590850225126,-68.35506121524561,60.84073262132472,-68.09864326115643,60.97542049359377,-68.02665565462769,60.88172883938239,-68.13545472501364,60.61447917376229,-68.39954562795006,60.20338759416225,-68.8107273925776,59.57430348482754,-69.44936793533391,58.54449914452131,-70.48894928823589" fill="none" stroke="rgb(128, 128, 128)" stroke-width="2" stroke-linejoin="round" filter="url(#fuzzy)"></polyline><polyline points="43,-80,43.064750167749516,-80.10901039106194,43.38563359057534,-79.93401727455034,43.686467608683444,-79.44550970658457,43.72879353601388,-78.79075203306347,43.40786444520864,-78.06438901649054,42.669791323537474,-77.31690191119375,41.4611344112936,-76.57605023505981,39.72497394609567,-75.85638029672177,37.418452614815834,-75.16188217063876,34.52540186483186,-74.48775373520327,31.053008289614382,-73.8258993458835,27.018303164901255,-73.17323697332277,22.435141300186878,-72.5355552553903,17.305551052008063,-71.92038806502846,11.61264484433439,-71.32136788129174,5.314974777024336,-70.70587334896456,-1.6498804680386456,-70.01848442199403,-9.345859312476101,-69.20348458571038,-17.81281047266363,-68.2378780085429,-27.05554026113539,-67.16222967111581,-37.035915315458354,-66.10345285761261,-47.577434971777336,-65.2854679581972" fill="none" stroke="rgb(128, 128, 128)" stroke-width="2" stroke-linejoin="round" filter="url(#fuzzy)"></polyline><polyline points="-32,-81,-30.034478152985898,-81.88289007982992,-28.007976958767397,-82.55914404093839,-25.74530897602807,-83.10093023098314,-23.151129466227395,-83.62267068797864,-20.337954870012062,-84.15691250908525,-17.446875822528924,-84.68340874373365,-14.526495120402066,-85.18694749531038,-11.568055504639316,-85.6769391315598,-8.606912085367195,-86.1681765306925,-5.76919343055189,-86.65566840735674,-3.2173129721677816,-87.11492551878591,-1.0448354584559585,-87.53773326290779,0.7703744015146183,-87.97676535268393,2.2459540706535748,-88.511937445539" fill="none" stroke="rgb(128, 128, 128)" stroke-width="2" stroke-linejoin="round" filter="url(#fuzzy)"></polyline><polyline points="19,-88,21.380353816496736,-79.57017247382065,6.065858460308151,-78.47326071838803,-5.192062068648825,-78.42308671416839,-10.307586005428703,-77.97642532524623,-10.572488921324586,-77.175245256376,-8.79368054669524,-76.13569051638451,-7.570542186404228,-74.96212863989282,-8.108664772750538,-73.89690972538486,-10.132522714678641,-73.25454445147429,-12.378080915358158,-73.21268280671723,-13.16190031962422,-73.67843620824107,-10.968587870281524,-74.34160012102123,-5.14557070229871,-74.86612533181713,3.4645501815948547,-75.08106358614705,12.38767285533193,-75.04409800215893,18.128209906125925,-74.95235306131805,17.252735474242282,-75.02415512754214,7.711606257711029,-75.54936528003202,-8.803171080979485,-77.05867704187523,-24.392906472209567,-79.64764102393804,-40,-78" fill="none" stroke="rgb(128, 128, 128)" stroke-width="2" stroke-linejoin="round" filter="url(#fuzzy)"></polyline><polyline points="-64,-60,18.233565287441554,-58.952053022144085,38.17901802374134,-60.5172467104333,37.32941922426619,-59.56547982559214,34.15044677819799,-57.944223005351425,33.33166650121385,-57.39700749699555,34.35526934819513,-58.34234588725766,35.94704287948833,-60.49981328154406,37.024244279207956,-63.54666263953383,36.96411235829552,-67.16501257798393,36.018537228306016,-70.78150855626492,35.28909815613998,-73.50683589982802,35.98318302631378,-74.44372594356537,38.46278543633885,-73.15730840123386,41.83637580727146,-69.97606671161884,44.46251935837885,-65.90376540909894,45.130664350984,-62.15513040059445,44.17580904944436,-59.576452337380466,43.57315928443422,-58.350131345757596,45.4416391641427,-58.251298843954125,49.55732292103351,-59.31220473825255,51.816411173608614,-62.36231191447689,45.41112119062295,-68.82045450490014,23.979968157802418,-78.74333315784472,-16,-86" fill="none" stroke="rgb(128, 128, 128)" stroke-width="2" stroke-linejoin="round" filter="url(#fuzzy)"></polyline><polyline points="34,-84,27.406269260188754,-82.18726549875527,28.419592329942432,-79.37335935733691,23.449483378938513,-77.20937416283536,19.99613271740061,-73.2775857429594,21.338949886876033,-68.3636022543746,23.501923952556822,-64.84351667909463,21.571968421046986,-63.87888195524249,15.186461124454102,-64.54543827950113,8.908431310760497,-64.83972782646778,8.50950297234752,-63.261707030682985,16.625388588460716,-59.82544180817477,30.867654910487396,-55.98475184219158,45.36928021641912,-53.588216779286235,54.28510705071885,-53.53294459851993,54.38490270964629,-55.13389141575078,44.76348753829646,-57.002999074246205,25.272029083086295,-59.402043768245676,1.6280326846097957,-67.08621309065076,19,-88" fill="none" stroke="rgb(128, 128, 128)" stroke-width="2" stroke-linejoin="round" filter="url(#fuzzy)"></polyline><polyline points="-50,-72,11.468816541050368,-76.08792621674883,32.117472064258315,-77.73023558422712,41.06864133298202,-75.44151803975525,46.02727823953326,-70.75914381623691,45.93282504705093,-66.79846351004612,40.051234982104035,-65.23275568063995,30.888860853571796,-65.45886328609974,22.532255847030175,-65.77481779994297,17.732740736461743,-64.89936262036068,16.277340049578985,-62.71688354827833,15.411667585372925,-60.12232041358948,11.729580602911565,-58.36285394747306,3.410927347301105,-58.326975400290245,-8.305425109189052,-60.121415718653545,-19.185958252217432,-63.12601078984622,-23.71206641903582,-66.4650484931189,-17.7791921199629,-69.52749442548236,-1.3666309896646136,-72.11111428325107,19.73031297920903,-74.21955355873558,34.15282465441518,-76.14298961511228,28.314622229580664,-79.19424924287125,-12,-87" fill="none" stroke="rgb(128, 128, 128)" stroke-width="2" stroke-linejoin="round" filter="url(#fuzzy)"></polyline><polyline points="13,-88,-9.766070436621126,-81.2298159166069,-25.042027429998225,-74.95878674369841,-21.02858418848917,-71.72063023691729,-5.060524495413197,-69.24772260053487,11.476048081720364,-66.82470204951187,21.574630665064344,-64.68199777568728,25.217625552247494,-62.95021353721256,26.502130607534358,-61.532408274076474,28.830716244097957,-60.51116955289762,32.15727233886719,-60.29532718658447,33.85059406904378,-61.19016985166566,31.741182730441583,-62.842929174425535,26.562027742227,-64.25630228794743,21.925592627989538,-64.47904074844652,22.141419461360783,-63.26187853876854,29.69474682630334,-60.932929446928874,43.68917105280424,-57.941509912324456,58.70707500282605,-55.81465249084308,64.47591679885909,-59.65080715501581,54,-74" fill="none" stroke="rgb(128, 128, 128)" stroke-width="2" stroke-linejoin="round" filter="url(#fuzzy)"></polyline><polyline points="49,-77,49.24854744820964,-69.86557945747006,32.68613213595555,-68.09703686491815,21.70131767050944,-68.73470430824064,17.952485239049683,-70.44283859296678,16.715626141740987,-71.60990888889386,15.95959254691893,-71.49497506621402,16.122503457642797,-70.54385600568287,17.57249114412254,-69.76722782946112,19.569255255970432,-69.90363325882781,20.945156897986397,-70.95343564577243,21.100360407750305,-72.27844602556135,20.19198113679886,-73.10381799936295,18.60111478755545,-73.05853181747638,16.55696734827282,-72.4077581849421,14.459054549621225,-71.84526340322489,13.402428768138584,-72.00077106322419,14.860311131429722,-72.9949260336453,19.210483069443786,-74.33304375425666,24.287008366642684,-75.22242229563739,25.80950403369566,-75.19098265385757,20.30811991457332,-74.73885451499962,8.773985381081468,-75.44643030032698,-4.2295562408774305,-78.27999872974286,-37,-79" fill="none" stroke="rgb(128, 128, 128)" stroke-width="2" stroke-linejoin="round" filter="url(#fuzzy)"></polyline><polyline points="38,-83,13.180176517794118,-73.99816421512038,20.7932131722177,-65.2488320478353,33.16533401842175,-58.26280701211133,44.34077021176927,-54.0612415347714,50.25034351913497,-54.00168432976976,50.55109445658691,-57.49829364625062,47.738197800084706,-62.566310241120256,44.06523132324219,-67.38264465332031,40.26717922209714,-70.98927730283907,36.55576523918144,-73.05666173087862,33.46593768172272,-73.61412093207258,30.95572752947919,-73.19950301689096,27.613554385750906,-72.84943872315291,23.133389400815712,-73.38535803600526,19.274634607962806,-75.76635934844856,-9,-88" fill="none" stroke="rgb(128, 128, 128)" stroke-width="2" stroke-linejoin="round" filter="url(#fuzzy)"></polyline><polyline points="2,-89,-12.437197378253073,-76.94217979033597,1.4073934417944935,-77.76958750285706,9.36288861608347,-80.54708941435706,10.843287837635065,-82.51938346449273,8.010374936571832,-83.55590986825693,1.5909800134574037,-83.87042651068825,-6.7590773587190975,-83.66352026220972,-13.763696556978214,-83.31518850438964,-16.33264964996301,-83.30491003889253,-14.02150756151671,-83.80562665853225,-10.058365740728224,-84.41613307330206,-9.404392251129856,-84.5002848855982,-13.533843807521157,-84.11813297083114,-14.653803907681963,-84.75583451302741,1,-88" fill="none" stroke="rgb(128, 128, 128)" stroke-width="2" stroke-linejoin="round" filter="url(#fuzzy)"></polyline><polyline points="-21,-85,-1.9091260490904676,-79.84026911119635,-4.822672374721517,-75.53789247045633,3.6374408046182407,-72.28845593106846,17.483954353011637,-70.67155383265428,28.470559604296014,-70.6660234120969,34.57509159452672,-71.59043686370507,36.33490523843077,-72.99528295487086,33.864549834795675,-74.97454685238152,27.864645414420487,-77.61388982547251,21.494292561795824,-80.38261792344184,19.32808588387981,-82.21013262832446,23.043481904578563,-82.18411286570598,27.161773802798283,-80.24364491008204,17.57843289991343,-77.75395949830161,-34,-80" fill="none" stroke="rgb(128, 128, 128)" stroke-width="2" stroke-linejoin="round" filter="url(#fuzzy)"></polyline><polyline points="3,-89,-31.915485332850015,-74.95080583794926,-35.364384167412005,-72.92749833933692,-25.04188133034,-71.20401632723906,-7.917482970395372,-69.40847596057561,7.587349069289531,-69.00761810243488,15.258955688685639,-70.38779502005451,14.063878892501036,-72.849820015137,7.379588043727477,-75.31521099480254,0.3719840829011629,-76.78874885104347,-2.51493700273987,-76.57968248777703,0.6798484103353796,-74.59631255183892,8.274689744028455,-71.79363814003158,14.747842071032712,-70.28462306974019,13.24188662824863,-72.19238453996924,2.888800849253429,-77.12362345485842,-0.6933880891853157,-81.18496157132707,37,-83" fill="none" stroke="rgb(128, 128, 128)" stroke-width="2" stroke-linejoin="round" filter="url(#fuzzy)"></polyline><polyline points="-17,-86,12.207329010887541,-81.59628862328485,5.2533901276224935,-81.54374726658712,-3.4437231045116707,-80.66444794444106,-5.897121762524852,-79.18088673947967,-4.714175654259191,-77.83986812946938,-3.627196173792381,-77.09439615339453,-3.9031487944118703,-77.1366169209819,-4.6259030368939245,-77.88718142680477,-4.4344264319967905,-79.0312079138488,-2.82924077608423,-80.19491373419342,-0.2702813608560029,-81.14378871043971,2.571747362613678,-81.8430563211441,5.525694659870607,-82.35481357219842,8.998489373429447,-82.68215392518698,13.525322431627808,-82.68123619177096,19.33685514923613,-82.06736558273991,26.312210035812335,-80.4649981611605,34.13030520542637,-77.4927597955087,42.11000477163111,-73.00467468733403,48.501164156106,-67.67562971281387,49.592849157884594,-63.893617197859754,39.75496109061244,-66.04666042424317,15.86007853105433,-77.31373698839009,-4,-88" fill="none" stroke="rgb(128, 128, 128)" stroke-width="2" stroke-linejoin="round" filter="url(#fuzzy)"></polyline><polyline points="52,-76,3.0012064120803523,-80.40706754020474,-6.1479316103026,-82.49348111266566,0.812280949203269,-81.28194120927255,12.528331085952567,-78.16069594295999,22.736294252574723,-75.41750717979426,28.271648436229217,-74.49543857759167,28.258405688948056,-75.52480018731994,23.573973531390997,-77.66227126687225,16.457489013671875,-79.67607498168945,10.08346381611926,-80.52320951973134,7.882402356741033,-79.74983635129955,12.32426805387672,-77.5870534302072,23.133681542643224,-74.78279704290028,35.802757577833276,-72.36825930277837,42.009079595049954,-71.41143456784478,32.39183942157389,-72.24617249791146,-1.060778529797961,-71.95360670206935,-66,-58" fill="none" stroke="rgb(128, 128, 128)" stroke-width="2" stroke-linejoin="round" filter="url(#fuzzy)"></polyline><polyline points="-61,-63,5.231483715059448,-55.91801284881107,5.394333218751502,-62.99755129860381,-0.008699210814152267,-69.0061888644943,-3.1665622673463076,-72.92469048104249,-7.95089825984052,-75.40540413846439,-14.911438362177375,-77.0138246264093,-21.72621225660051,-77.92440020995738,-26.518600463867188,-77.78977966308594,-28.62262594989585,-76.01171278584117,-27.07303470218325,-72.35304843785906,-19.46505568666651,-67.50138340355981,-3.7971508137416095,-63.209687392925844,16.333286163812016,-61.981744497394935,27.825222559578936,-66.5134927850126,16.243072570126323,-77.96758772464388,-4,-88" fill="none" stroke="rgb(128, 128, 128)" stroke-width="2" stroke-linejoin="round" filter="url(#fuzzy)"></polyline><polyline points="79,-39,31.426958742923485,-68.25246103130613,27.2812814079378,-76.7216952058992,33.89607813027937,-75.96052553625826,41.64839794137515,-71.53269644710235,47.18918965722506,-66.66688673188901,48.775296343006694,-63.32823333568386,45.44006689787765,-62.32553636063908,37.06422424316406,-63.53166198730469,24.534204863582424,-66.36367455939612,10.044183631802813,-70.03215535881246,-3.055651296580532,-73.47741157899277,-11.879231001948938,-75.56134647759609,-16.180065202536227,-75.9975891657679,-17.001236596008024,-76.66044753657557,-10.018766864109526,-81.39885536609353,8,-88" fill="none" stroke="rgb(128, 128, 128)" stroke-width="2" stroke-linejoin="round" filter="url(#fuzzy)"></polyline><!--]--></g><g id="lineNose"><path d="M -11.78373595788832 33.71371151482619, Q12.934270558588143 52.64379773912431,0.5752673003499114 -5.492712957406783" fill="none" stroke="black" stroke-width="3" stroke-linejoin="round" filter="url(#fuzzy)"></path></g><g id="mouth"><polyline points="-16.02390886985337,77.135282439783,-15.556205630373583,76.29727045514,-15.089760773814412,75.46418198097997,-14.624599647995293,74.6363925568348,-14.160747600735665,73.8142777222364,-13.698229979854958,72.99821301671662,-13.237072133172603,72.18857397980734,-12.777299408508043,71.3857361510405,-12.318937153680709,70.59007506994794,-11.86201071651003,69.80196627606156,-11.406545444815443,69.02178530891325,-10.952566686416377,68.24990770803491,-10.500099789132276,67.4867090129584,-10.04917010078257,66.73256476321563,-9.599802969186694,65.98785049833847,-9.152023742164076,65.25294175785882,-8.70585776753416,64.52821408130856,-8.261330393116374,63.81404300821957,-7.818466966730151,63.11080407812375,-7.377292836194931,62.41887283055299,-6.937833349330143,61.73862480503916,-6.500113853955224,61.07043554111416,-6.064159697889606,60.41468057830987,-5.629996228952727,59.77173545615818,-5.197648794964015,59.14197571419099,-4.7671427437429115,58.525776891940154,-4.338503423108845,57.923514528937595,-3.91175618088125,57.33556416471519,-3.4869263648795643,56.76230133880481,-3.0640393229232172,56.204101590738354,-2.643120402831647,55.66134046004771,-2.2241949524242868,55.134393486264756,-1.807288319520569,54.623636208921404,-1.3924258519399304,54.12944416754951,-0.9796328975018027,53.65219290168097,-0.5689348040256217,53.192257950847676,-0.16035691933082052,52.75001485458152,0.24607540876316691,52.325839152414375,0.650336832436903,51.92010638387815,1.0524020038709576,51.53319208850471,1.4522455752458945,51.16547180582595,1.849842198742281,50.817321075373755,2.2451665265406824,50.48911543668003,2.638193210821664,50.181230429276624,3.0288969037657916,49.89404159269547,3.4172522575536313,49.6279244664684,3.80323392436575,49.38325459012735,4.18681655638271,49.16040750320419,4.567974805785081,48.9597587452308,4.94668332475343,48.78168385573909,5.322916765468316,48.626558374260924,5.696649780110311,48.49475784032817,6.0678570208599805,48.386657793472764,6.436513139897888,48.302633773226574,6.802592789404599,48.24306131912147,7.166070621560682,48.208315970689355,7.526921288546703,48.198773267462116,7.885119442543222,48.214808748971635,8.240639735730813,48.25679795474979,8.593456820290037,48.325116424328485,8.943545348401457,48.420139697239605,9.290879972245648,48.542243313015035,9.635435344003167,48.691802811186655,9.977186115854584,48.86919373128636,10.316106939980466,49.07479161284603,10.652172468561375,49.30897199539755,10.985357353777879,49.57211041847282,11.315636247810545,49.864582421603714,11.642983802839936,50.18676354432213,11.967374671046619,50.53902932615996,12.28878350461116,50.92175530664907,12.607184955714127,51.33531702532135,12.922553676536081,51.78009002170869,13.234864319257591,52.256449835343005,13.544091536059225,52.76477200575615,13.850209979121546,53.305432072480016,14.153194300625119,53.8788055750465,14.453019152750512,54.48526805298748,14.749659187678288,55.12519504583484,15.043089057589016,55.79896209312049,15.33328341466326,56.50694473437629,15.620216911081586,57.24951850913415,15.903864199024563,58.027058956925934,16.18419993067275,58.83994161728355,16.46119875820672,59.68854202973886,16.734835333807034,60.57323573382377,17.00508430965426,61.494398269070174,17.271920337928965,62.45240517500994,17.535318070811712,63.447631991174966,17.795252160483066,64.48045425709714,18.0516972591236,65.55124751230834,18.30462801891387,66.66038729634046,18.554019092034448,67.80824914872538,18.7998451306659,68.995208608995,19.04208078698879,70.22164121668119,19.280700713183684,71.48792251131586,19.515679561431146,72.79442803243087,19.746991983911748,74.14153331955814,19.974612632806046,75.52961391222951,20.198516160294613,76.95904534997692,20.198516160294613,76.95904534997692,19.836291909993133,76.07755764177831,19.474067659691656,75.22158928460223,19.111843409390175,74.39090851716016,18.749619159088695,73.58528357816354,18.38739490878721,72.80448270632382,18.02517065848573,72.0482741403525,17.662946408184254,71.316426118961,17.300722157882774,70.6087068808608,16.938497907581294,69.92488466476334,16.576273657279817,69.26472770938008,16.214049406978337,68.62800425342252,15.851825156676856,68.01448253560207,15.489600906375374,67.42393079463021,15.127376656073896,66.85611726921839,14.765152405772415,66.31081019807809,14.402928155470935,65.78777781992075,14.040703905169455,65.28678837345784,13.678479654867978,64.80761009740081,13.316255404566498,64.35001123046112,12.954031154265017,63.91376001135024,12.591806903963535,63.49862467877963,12.229582653662057,63.10437347146073,11.867358403360576,62.730774628105024,11.505134153059096,62.37759638742395,11.142909902757618,62.044606988128976,10.780685652456137,61.731574668931565,10.418461402154657,61.43826766854316,10.056237151853178,61.16445422567526,9.694012901551698,60.909902579039276,9.331788651250218,60.6743809673467,8.969564400948737,60.45765762930897,8.607340150647257,60.25950080363756,8.245115900345777,60.07967872904392,7.8828916500442965,59.91795964423952,7.52066739974282,59.77411178793581,7.15844314944134,59.64790339884426,6.796218899139861,59.5391027156763,6.433994648838379,59.44747797714342,6.0717703985368985,59.37279742195708,5.709546148235419,59.31482928882872,5.347321897933941,59.273341816469824,4.985097647632461,59.24810324359183,4.622873397330983,59.2388818089062,4.260649147029502,59.245445751124386,3.898424896728022,59.267563308957875,3.5362006464265408,59.3050027211181,3.1739763961250604,59.357532226316536,2.81175214582358,59.42492006326463,2.4495278955221016,59.506934470673855,2.0873036452206213,59.60334368725566,1.7250793949191423,59.713915951721496,1.362855144617662,59.83841950278285,1.0006308943161806,59.97662257915115,0.6384066440147025,60.128293419537876,0.2761823937132222,60.293200262654494,-0.08604185658825836,60.47111134721243,-0.44826610688973645,60.66179491192318,-0.8104903571912168,60.865019195498164,-1.172714607492697,61.08055243664889,-1.5349388577941752,61.308162874086776,-1.8971631080956568,61.547618746523305,-2.259387358397137,61.798688292669915,-2.6216116086986148,62.0611397512381,-2.983835859000095,62.33474136093928,-3.3460601093015763,62.61926136048494,-3.7082843596030566,62.91446798858654,-4.070508609904537,63.22012948395552,-4.432732860206017,63.53601408530334,-4.794957110507495,63.86189003134149,-5.157181360808975,64.1975255607814,-5.5194056111104555,64.54268891233454,-5.881629861411934,64.89714832471236,-6.243854111713414,65.26067203662635,-6.606078362014893,65.6330282867879,-6.968302612316375,66.01398531390856,-7.3305268626178535,66.40331135669973,-7.692751112919334,66.80077465387288,-8.054975363220814,67.20614344413947,-8.417199613522296,67.61918596621098,-8.779423863823773,68.03967045879884,-9.141648114125255,68.4673651606145,-9.503872364426734,68.90203831036946,-9.866096614728212,69.34345814677516,-10.228320865029694,69.79139290854307,-10.590545115331173,70.24561083438462,-10.95276936563265,70.7058801630113,-11.314993615934135,71.17196913313455,-11.67721786623561,71.64364598346583,-12.039442116537094,72.12067895271662,-12.401666366838572,72.60283627959836,-12.763890617140053,73.08988620282251,-13.126114867441531,73.58159696110053,-13.488339117743012,74.07773679314388,-13.85056336804449,74.57807393766404,-14.212787618345967,75.08237663337245,-14.575011868647454,75.59041311898055,-14.937236118948931,76.10195163319983,-15.299460369250408,76.61676041474175,-15.661684619551888,77.13460770231774" fill="rgb(215,127,140)" stroke="black" stroke-width="3" stroke-linejoin="round" filter="url(#fuzzy)"></polyline></g></svg>