<svg viewBox="-100 -100 200 200" xmlns="http://www.w3.org/2000/svg" width="400" height="400" id="face-svg"><defs><clipPath id="leftEyeClipPath"><polyline points="34.22455947826147,-10.66852016689349,33.84517551276972,-10.836309299247123,33.437153067380876,-11.006837173277775,33.00059910313657,-11.179628808098002,32.53567897889751,-11.354221703372074,32.04261438685082,-11.530165774339025,31.521681288017476,-11.707023286835724,30.97320784775957,-11.884368792319949,30.397572371287747,-12.061789062893421,29.79520123916854,-12.238883026324908,29.166566842831763,-12.415261701073252,28.512185520077818,-12.590548131310456,27.832615490585106,-12.764377321944743,27.12845479141738,-12.936396173643613,26.4003392125311,-13.106263417856916,25.64894023228281,-13.27364955183991,24.90517853756009,-13.485185269000937,24.12027766301577,-13.693675559758013,23.295127912465645,-13.898352358935272,22.430870488643794,-14.098454399208993,21.528875630928397,-14.293228348528483,20.59072148634268,-14.481929954980895,19.61817370309976,-14.663825197505137,18.613165735960344,-14.838191440860001,17.577779852672126,-15.004318593251652,16.51422883075987,-15.161510265025635,15.424838333934884,-15.309084926828524,14.31202995739303,-15.446377065644366,13.17830493126993,-15.572738337111062,12.02622847152239,-15.687538712521825,10.858414767504883,-15.79016761891685,9.67751259551002,-15.880035070670361,8.486191547541827,-15.956572790978148,7.28712886459085,-16.019235321650747,6.0829968636798055,-16.067501119617436,4.876450947948838,-16.100873638546123,3.6701181890491337,-16.118882393984336,2.4665864711138936,-16.12108401042643,1.2683941855754783,-16.107063248712116,0.07802046609766455,-16.07643401216153,-1.1021240471081324,-16.028840329851946,-2.269705924313735,-15.963957315441226,-3.4224771553833477,-15.881492099943241,-4.558282861692005,-15.781184736860357,-5.675068521584518,-15.662809078078121,-6.770886720105919,-15.526173618927288,-7.843903433734651,-15.371122310818386,-8.892403860849447,-15.197535339853868,-9.914797808661204,-15.005329869823091,-10.909624647340728,-14.794460747985184,-11.875557842073704,-14.564921172045002,-12.811409073773795,-14.316743316727269,-13.716131959185091,-14.049998918354095,-14.588825381105014,-13.764799815830969,-15.428736439458715,-13.461298446446385,-16.235263033956187,-13.139688294890247,-17.00795608906301,-12.800204293896208,-17.746521432016177,-12.443123174913039,-18.45082133461565,-12.068763767210235,-19.12087572952319,-11.677487243822954,-19.75686311179926,-11.269697312741425,-20.35912113640934,-10.84584035175002,-20.928146922430514,-10.40640548532108,-21.46459707468976,-9.95192460196865,-21.96928743356464,-9.48297231046729,-22.44319256367799,-9.000165833341068,-22.886864543058678,-8.50216166050104,-23.300176683156526,-7.987233478383134,-23.683234906571847,-7.455465855101936,-24.036185182676174,-6.9069564449110885,-24.359212090410065,-6.341816201800306,-24.65253738108108,-5.760169593092377,-24.916418541161665,-5.162154813040207,-25.151147355087105,-4.547923996423788,-25.3570484680534,-3.9176434321472584,-25.5344779488152,-3.271493776835892,-25.683821852483725,-2.6096702684331223,-25.805494783324676,-1.9323829397975514,-25.899938457556132,-1.2398568322999681,-25.967620266146497,-0.5323322094203586,-28.98944514730117,3.508740663987272,-28.480653945821274,4.078230500287548,-27.95724682994863,4.648838089363149,-27.41922618358655,5.219611814029985,-26.866620314001,5.789540601509241,-26.299482636910657,6.35755900691114,-25.717890861577132,6.922552296718715,-25.12194617589502,7.483361532271568,-24.51177243148215,8.038788653249613,-23.88751532876962,8.587601561156886,-23.249341602092013,9.128539202805255,-22.597438204777507,9.660316653798228,-21.932011494238022,10.181630202014679,-21.253286417059364,10.69116243109263,-20.561505694091355,11.187587303913032,-19.854882260943633,11.674399535868217,-19.13158482583874,12.154014188971429,-18.391837762541986,12.623537433468757,-17.635911144796186,13.080156504978406,-16.86411922333252,13.521149123368192,-16.076818835031727,13.943892789516694,-15.274407750320204,14.34587392200118,-14.457322964885732,14.724696795755646,-13.62603894179742,15.078092244742384,-12.78106581011461,15.403926090680324,-11.922947526069315,15.70020725987345,-11.05226000290697,15.965095550182765,-10.169609215469988,16.196909010184854,-9.275629285608955,16.394130892560625,-8.370980554506012,16.555416143757455,-7.456347647995104,16.679597391968045,-6.5324375409638,16.765690395469264,-5.5999776269213015,16.8128989133644,-4.65971379881731,16.820618960772116,-3.7124085471964086,16.78844241050536,-2.7588390817726522,16.716159903283668,-1.7997954825089653,16.603763028521996,-0.836078886286077,16.451445737739704,0.13150028475441722,16.259604952632642,1.1021240471081324,16.028840329851946,2.0749685259625195,15.75995314453281,3.0492055653233305,15.453944254616394,4.024004272128286,15.112011108008351,4.9985324882632725,14.735543754617344,5.971958184396417,14.32611982531664,6.943450769545386,13.88549843987233,7.912182310293226,13.415613005881374,8.877328653568105,12.91856287076286,9.838070446902291,12.396603788845725,10.793594050085696,11.85213716559632,11.743092332129354,11.287698041029143,12.68576534745411,10.705941774343968,13.620820885219961,10.10962939183287,14.54747488571128,9.501611560100246,15.46495171769333,8.884811146639345,16.37248431065541,8.262204329808513,17.269314135855932,7.636800220250516,18.154691030084766,7.011618955798269,19.027872856058277,6.389668231910273,19.88812499336229,5.77391822967906,20.734719653858356,5.1672749034560645,21.566935015468736,4.572551590136095,22.38405416825527,3.9924389021448583,23.18536386670769,3.4294728661727856,23.97015308215649,2.886001269698504,24.666797184362956,2.3630467998448257,25.351076171130796,1.8461358403164159,26.022344858982976,1.336295603316099,26.67993517972377,0.8345244213544536,27.323155737391232,0.34178920695023685,27.95129136520965,-0.1409770876691976,28.56360268254203,-0.6128780108674601,29.159325651842554,-1.0730561518987063,29.737671135609062,-1.52069568120723,30.297824453335508,-1.9550248907270102,30.838944938464465,-2.3753187341813167,31.360165495339537,-2.780901367382257,31.86059215615787,-3.1711486885303737,32.33930363792262,-3.5454908785142116,32.7953508993954,-3.9034149412098946"></polyline></clipPath><clipPath id="rightEyeClipPath"><polyline points="-37.45967040554767,-12.404283110717902,-37.03763962614751,-12.572157663456084,-36.58726488594956,-12.744295329104933,-36.108817514841434,-12.92014349177272,-35.602616361707604,-13.099162459342129,-35.06902599619339,-13.280825439158438,-34.50845491046901,-13.46461851371774,-33.92135372099354,-13.650040616355138,-33.308213370278956,-13.836603506932942,-32.66956332865412,-14.023831747528877,-32.00596979602882,-14.211262678124282,-31.31803390365775,-14.398446392292314,-30.60638991590453,-14.584945712886146,-29.871703432005713,-14.770336167727177,-29.11466958783481,-14.95420596529322,-28.33601125766627,-15.136155970406719,-27.54707881103743,-15.365048568850163,-26.720157611926687,-15.591728783614352,-25.85624630530456,-15.815305913224167,-24.956562442865817,-16.03488892983546,-24.02252243023981,-16.24958825144002,-23.055722173911544,-16.458517518538653,-22.05791841718721,-16.660795373288558,-21.03101075453806,-16.855547239131226,-19.97702431365621,-17.041907098906997,-18.89809309455639,-17.2190192694625,-17.79644395505714,-17.386040170757138,-16.674381231975424,-17.54214008747484,-15.534271987368381,-17.686504921147232,-14.378531869155925,-17.818337930794414,-13.209611575458005,-17.93686146008958,-12.029983911980327,-18.04131864905361,-10.842131431782242,-18.13097512828583,-9.648534646760655,-18.20512069373718,-8.451660800183621,-18.263070960031904,-7.253953189607471,-18.304168990344028,-6.057821029511258,-18.3277869008347,-4.865629842982194,-18.333327437656727,-3.6796923717859524,-18.320225524532383,-2.502259994155554,-18.28794977891068,-1.3355146396326152,-18.23600399471041,-0.18156119029473183,-18.16392858965494,0.9575796422972367,-18.071302015205188,2.0799779750982026,-17.957742127096722,3.1838009571904466,-17.822907514487408,4.2673185296739735,-17.666498785721565,5.328908752501944,-17.488259808717025,6.36706270892725,-17.28797890398112,7.380388998226687,-17.065489988261888,8.367617827368699,-16.82067366684063,9.327604712291178,-16.55345827247203,10.259333799455328,-16.263820848978018,11.161920818341972,-15.951788077501565,12.034615675556491,-15.617437143426603,12.876804701208542,-15.260896541970244,13.688012558232977,-14.882346820453494,14.46790382531795,-14.482021255256651,15.21628426410663,-14.060206461465562,15.933101781338667,-13.617242933214962,16.618447096597688,-13.153525512735031,17.272554126330963,-12.669503786107397,17.89580009480756,-12.165682403736739,18.48870538268124,-11.642621323544223,19.05193312382414,-11.100935974888921,19.58628856109775,-10.541297341223393,20.09271817172718,-9.964431959489671,20.571899561724933,-9.368726949987117,21.02388636489145,-8.752104496567028,21.448821004551824,-8.11464814362065,21.84688024661792,-7.456458702296587,22.21827377107552,-6.777654517529273,22.563242743471342,-6.078371735067442,22.882058386400224,-5.358764568502584,23.175020550992187,-4.619005566297407,23.442456288399512,-3.859285878814318,23.684718421283897,-3.079815525343885,23.902184115303502,-2.280823661133293,24.0952534506001,-1.4625588444148168,24.264347993286115,-0.6252893034342808,24.409909366931785,0.23069679652046382,27.486711118803044,4.9404345389666116,27.086696908218265,5.632084378586724,26.673578108973377,6.323408300316666,26.24726922597854,7.01314031870214,25.80770098248323,7.699940662222884,25.354819761228054,8.382402785056472,24.88858704559678,9.059060378842135,24.408978860768197,9.728394384444575,23.915985214868115,10.388840003717759,23.40960954012126,11.038793711268765,22.88986813400321,11.67662026622155,22.356789600392357,12.300659723980813,21.810414290721827,12.90923444799576,21.25079374513139,13.500656121523926,20.677990133619446,14.073232759395042,20.090639386690153,14.631493364519981,19.487247345718384,15.17851319219171,18.867712541812583,15.710514398665444,18.231965205975012,16.22385321198518,17.579967096279095,16.71503187034842,16.911711286833512,17.180710348180398,16.22722192270571,17.617717817562905,15.526553944977422,18.023063792663436,14.809792790105178,18.393948904810244,14.07705406775834,18.727775255858454,13.328483221307465,19.02215629749324,12.564255175135752,19.27492618411496,11.784573972946236,19.484148546952298,10.989672411237553,19.648124637048554,10.179811672120923,19.765400784766776,9.35528095965112,19.834775123459067,8.516397143844191,19.855303524945725,7.663504416554572,19.82630469444956,6.796973963384449,19.74736437263106,5.917203655797973,19.618338592369703,5.0246177676131705,19.4393559379371,4.119666720044201,19.21081875420731,3.202826859466751,18.93340325354996,2.274600272079234,18.608058468051517,1.3355146396326143,18.23600399471041,0.38612314040149975,17.818726481251232,-0.5729956004307049,17.357974800203827,-1.5412375067998894,16.85575385889244,-2.5179729900298016,16.314316992980757,-3.5025468251683907,15.736156891217993,-4.494277961219185,15.123994999031806,-5.492459261094954,14.480769348613405,-6.496357167120948,13.809620763140332,-7.505211287914969,13.113877382782439,-8.518233902471543,12.397037460136646,-9.534609377277468,11.66275037273581,-10.55349349228599,10.914795800277298,-11.574012671576888,10.157061014216827,-12.595263114529743,9.393516227372912,-13.61630982333762,8.628187951187515,-14.636185522688512,7.8651303082884265,-15.6538894674417,7.108394247998751,-16.668386134126386,6.361994612439117,-17.678603792089856,5.629875000868072,-18.683432950122373,4.915870379906075,-19.681724674386185,4.223667387288753,-20.67228877347578,3.5567622767947444,-21.653891846436785,2.9184164519937443,-22.625255189570666,2.3116095364601765,-23.585052557852585,1.7389899280980483,-24.408674646399824,1.1382647686770948,-25.22278600395269,0.5498098869081023,-26.0264465352736,-0.025243009602849753,-26.818675679268296,-0.5858247787912347,-27.598451598780855,-1.1309329432863535,-28.364710370388842,-1.6596357895636036,-29.11634517419835,-2.171076467096727,-29.852205483639125,-2.664477087510069,-30.57109625525961,-3.13914282373086,-31.271777118522067,-3.5944660091414526,-31.952961565597633,-4.029930236731605,-32.613316141161434,-4.445114458250723,-33.251459632187654,-4.839697083360132,-33.86596225774461,-5.213460078785337,-34.455344858789886,-5.566293067468281"></polyline></clipPath><filter id="fuzzy"><feTurbulence id="turbulence" baseFrequency="0.05" numOctaves="3" type="noise" result="noise"></feTurbulence><feDisplacementMap in="SourceGraphic" in2="noise" scale="2"></feDisplacementMap></filter><linearGradient id="rainbowGradient" x1="0%" y1="0%" x2="100%" y2="0%"><stop offset="0%" style="stop-color: rgb(165, 42, 42);  stop-opacity: 1"></stop><stop offset="50%" style="stop-color: rgb(233, 236, 239);  stop-opacity: 1"></stop><stop offset="100%" style="stop-color: rgb(0, 191, 255);  stop-opacity: 1"></stop></linearGradient></defs><title>That&#39;s an ugly face</title><desc>CREATED BY XUAN TANG, MORE INFO AT TXSTC55.GITHUB.IO</desc><rect x="-100" y="-100" width="100%" height="100%" opacity="1" fill="rgb(0, 100, 0)"></rect><polyline id="faceContour" points="80,1,81,0,80,3,79,6,80,5,79,6,79,7,79,7,79,8,79,10,78,11,78,14,78,15,77,16,77,15,76,18,76,18,75,21,76,20,75,22,74,25,74,25,74,25,73,26,72,29,72,29,72,29,71,31,71,31,70,33,69,34,69,35,67,38,67,38,67,38,65,40,65,41,65,41,62,44,62,44,62,45,61,46,60,47,59,48,59,48,58,50,58,51,56,52,54,54,54,54,54,55,54,55,51,57,51,57,51,57,50,58,47,60,48,60,46,62,45,62,45,62,44,63,41,65,41,65,41,65,41,65,39,66,38,67,37,68,36,68,34,70,33,70,32,71,30,71,30,71,29,72,28,73,27,73,27,73,24,75,23,75,21,76,20,76,20,76,19,76,19,76,15,77,15,78,15,78,13,78,12,79,10,79,9,79,7,79,8,79,6,80,5,80,4,80,2,80,2,80,-1,80,-1,80,-2,80,-4,80,-4,80,-6,81,-7,81,-7,81,-9,80,-11,80,-13,80,-11,80,-14,80,-15,80,-16,80,-17,79,-18,79,-20,79,-20,79,-22,78,-24,78,-23,78,-25,78,-28,77,-27,77,-28,77,-28,77,-29,76,-31,76,-34,74,-34,74,-35,74,-36,73,-37,73,-38,72,-40,71,-40,71,-41,70,-42,70,-43,69,-44,68,-47,66,-46,67,-47,66,-48,65,-50,63,-50,63,-51,63,-51,62,-52,62,-53,61,-55,59,-55,58,-57,57,-57,57,-58,55,-59,54,-60,53,-61,52,-61,51,-62,51,-63,50,-63,49,-65,47,-66,44,-66,44,-67,44,-66,43,-67,42,-67,43,-68,40,-69,39,-70,37,-70,37,-71,36,-72,33,-72,32,-72,33,-74,29,-74,28,-75,27,-75,24,-75,26,-76,24,-77,20,-76,21,-77,18,-77,18,-78,16,-78,15,-79,13,-79,12,-79,9,-79,11,-79,9,-80,7,-80,5,-80,4,-80,3,-81,1,-81,-1,-81,-1,-81,-2,-81,-4,-81,-4,-81,-8,-81,-8,-81,-9,-81,-12,-81,-13,-80,-16,-81,-14,-80,-16,-80,-18,-80,-20,-80,-20,-80,-21,-80,-23,-80,-24,-79,-26,-79,-27,-79,-28,-78,-30,-78,-31,-78,-32,-77,-34,-77,-35,-77,-35,-76,-37,-75,-40,-75,-39,-74,-41,-74,-42,-73,-43,-72,-45,-72,-45,-72,-46,-72,-46,-71,-48,-69,-50,-69,-51,-68,-52,-68,-52,-67,-53,-67,-54,-66,-55,-65,-56,-63,-58,-64,-58,-62,-60,-62,-60,-61,-61,-61,-61,-58,-64,-57,-64,-56,-65,-56,-65,-56,-65,-55,-66,-52,-68,-51,-69,-49,-70,-49,-70,-49,-70,-49,-70,-47,-71,-46,-72,-43,-73,-43,-73,-42,-74,-40,-74,-38,-75,-38,-75,-37,-75,-34,-76,-34,-77,-34,-76,-32,-77,-30,-77,-29,-78,-26,-79,-27,-78,-24,-79,-25,-79,-23,-79,-21,-80,-19,-80,-16,-80,-17,-80,-16,-80,-14,-80,-13,-80,-11,-80,-10,-80,-8,-81,-9,-81,-5,-81,-4,-81,-4,-81,-1,-80,1,-80,3,-80,5,-80,4,-80,5,-80,7,-80,7,-80,8,-80,10,-80,14,-79,16,-78,14,-78,15,-78,19,-77,21,-77,19,-77,22,-77,25,-76,23,-76,27,-75,29,-74,30,-74,30,-74,31,-74,33,-73,34,-72,37,-71,37,-71,37,-71,39,-70,39,-70,40,-70,44,-68,45,-67,45,-67,47,-66,48,-65,48,-66,48,-65,50,-64,52,-62,54,-61,53,-62,54,-61,55,-60,56,-59,58,-57,59,-57,59,-57,60,-56,62,-54,62,-54,64,-52,64,-52,64,-52,65,-50,66,-49,66,-49,68,-47,68,-47,69,-45,70,-44,70,-44,71,-42,72,-41,72,-40,73,-38,73,-38,74,-36,74,-36,74,-36,76,-34,76,-31,76,-32,77,-31,77,-29,77,-29,78,-27,78,-27,79,-24,79,-24,79,-24,80,-21,80,-18,80,-19,80,-17,80,-16,80,-16,80,-14,80,-13,81,-11,81,-10,81,-10,81,-7,81,-7,81,-5,81,-4,81,-4,80,-2,81,0,80,1,81,0" fill="#ffc9a9" stroke="black" stroke-width="1.6666666666666665" stroke-linejoin="round" filter="url(#fuzzy)"></polyline><g transform="translate(52.57393350671866 -22.480774315524016)"><polyline id="rightCountour" points="-37.45967040554767,-12.404283110717902,-37.03763962614751,-12.572157663456084,-36.58726488594956,-12.744295329104933,-36.108817514841434,-12.92014349177272,-35.602616361707604,-13.099162459342129,-35.06902599619339,-13.280825439158438,-34.50845491046901,-13.46461851371774,-33.92135372099354,-13.650040616355138,-33.308213370278956,-13.836603506932942,-32.66956332865412,-14.023831747528877,-32.00596979602882,-14.211262678124282,-31.31803390365775,-14.398446392292314,-30.60638991590453,-14.584945712886146,-29.871703432005713,-14.770336167727177,-29.11466958783481,-14.95420596529322,-28.33601125766627,-15.136155970406719,-27.54707881103743,-15.365048568850163,-26.720157611926687,-15.591728783614352,-25.85624630530456,-15.815305913224167,-24.956562442865817,-16.03488892983546,-24.02252243023981,-16.24958825144002,-23.055722173911544,-16.458517518538653,-22.05791841718721,-16.660795373288558,-21.03101075453806,-16.855547239131226,-19.97702431365621,-17.041907098906997,-18.89809309455639,-17.2190192694625,-17.79644395505714,-17.386040170757138,-16.674381231975424,-17.54214008747484,-15.534271987368381,-17.686504921147232,-14.378531869155925,-17.818337930794414,-13.209611575458005,-17.93686146008958,-12.029983911980327,-18.04131864905361,-10.842131431782242,-18.13097512828583,-9.648534646760655,-18.20512069373718,-8.451660800183621,-18.263070960031904,-7.253953189607471,-18.304168990344028,-6.057821029511258,-18.3277869008347,-4.865629842982194,-18.333327437656727,-3.6796923717859524,-18.320225524532383,-2.502259994155554,-18.28794977891068,-1.3355146396326152,-18.23600399471041,-0.18156119029473183,-18.16392858965494,0.9575796422972367,-18.071302015205188,2.0799779750982026,-17.957742127096722,3.1838009571904466,-17.822907514487408,4.2673185296739735,-17.666498785721565,5.328908752501944,-17.488259808717025,6.36706270892725,-17.28797890398112,7.380388998226687,-17.065489988261888,8.367617827368699,-16.82067366684063,9.327604712291178,-16.55345827247203,10.259333799455328,-16.263820848978018,11.161920818341972,-15.951788077501565,12.034615675556491,-15.617437143426603,12.876804701208542,-15.260896541970244,13.688012558232977,-14.882346820453494,14.46790382531795,-14.482021255256651,15.21628426410663,-14.060206461465562,15.933101781338667,-13.617242933214962,16.618447096597688,-13.153525512735031,17.272554126330963,-12.669503786107397,17.89580009480756,-12.165682403736739,18.48870538268124,-11.642621323544223,19.05193312382414,-11.100935974888921,19.58628856109775,-10.541297341223393,20.09271817172718,-9.964431959489671,20.571899561724933,-9.368726949987117,21.02388636489145,-8.752104496567028,21.448821004551824,-8.11464814362065,21.84688024661792,-7.456458702296587,22.21827377107552,-6.777654517529273,22.563242743471342,-6.078371735067442,22.882058386400224,-5.358764568502584,23.175020550992187,-4.619005566297407,23.442456288399512,-3.859285878814318,23.684718421283897,-3.079815525343885,23.902184115303502,-2.280823661133293,24.0952534506001,-1.4625588444148168,24.264347993286115,-0.6252893034342808,24.409909366931785,0.23069679652046382,27.486711118803044,4.9404345389666116,27.086696908218265,5.632084378586724,26.673578108973377,6.323408300316666,26.24726922597854,7.01314031870214,25.80770098248323,7.699940662222884,25.354819761228054,8.382402785056472,24.88858704559678,9.059060378842135,24.408978860768197,9.728394384444575,23.915985214868115,10.388840003717759,23.40960954012126,11.038793711268765,22.88986813400321,11.67662026622155,22.356789600392357,12.300659723980813,21.810414290721827,12.90923444799576,21.25079374513139,13.500656121523926,20.677990133619446,14.073232759395042,20.090639386690153,14.631493364519981,19.487247345718384,15.17851319219171,18.867712541812583,15.710514398665444,18.231965205975012,16.22385321198518,17.579967096279095,16.71503187034842,16.911711286833512,17.180710348180398,16.22722192270571,17.617717817562905,15.526553944977422,18.023063792663436,14.809792790105178,18.393948904810244,14.07705406775834,18.727775255858454,13.328483221307465,19.02215629749324,12.564255175135752,19.27492618411496,11.784573972946236,19.484148546952298,10.989672411237553,19.648124637048554,10.179811672120923,19.765400784766776,9.35528095965112,19.834775123459067,8.516397143844191,19.855303524945725,7.663504416554572,19.82630469444956,6.796973963384449,19.74736437263106,5.917203655797973,19.618338592369703,5.0246177676131705,19.4393559379371,4.119666720044201,19.21081875420731,3.202826859466751,18.93340325354996,2.274600272079234,18.608058468051517,1.3355146396326143,18.23600399471041,0.38612314040149975,17.818726481251232,-0.5729956004307049,17.357974800203827,-1.5412375067998894,16.85575385889244,-2.5179729900298016,16.314316992980757,-3.5025468251683907,15.736156891217993,-4.494277961219185,15.123994999031806,-5.492459261094954,14.480769348613405,-6.496357167120948,13.809620763140332,-7.505211287914969,13.113877382782439,-8.518233902471543,12.397037460136646,-9.534609377277468,11.66275037273581,-10.55349349228599,10.914795800277298,-11.574012671576888,10.157061014216827,-12.595263114529743,9.393516227372912,-13.61630982333762,8.628187951187515,-14.636185522688512,7.8651303082884265,-15.6538894674417,7.108394247998751,-16.668386134126386,6.361994612439117,-17.678603792089856,5.629875000868072,-18.683432950122373,4.915870379906075,-19.681724674386185,4.223667387288753,-20.67228877347578,3.5567622767947444,-21.653891846436785,2.9184164519937443,-22.625255189570666,2.3116095364601765,-23.585052557852585,1.7389899280980483,-24.408674646399824,1.1382647686770948,-25.22278600395269,0.5498098869081023,-26.0264465352736,-0.025243009602849753,-26.818675679268296,-0.5858247787912347,-27.598451598780855,-1.1309329432863535,-28.364710370388842,-1.6596357895636036,-29.11634517419835,-2.171076467096727,-29.852205483639125,-2.664477087510069,-30.57109625525961,-3.13914282373086,-31.271777118522067,-3.5944660091414526,-31.952961565597633,-4.029930236731605,-32.613316141161434,-4.445114458250723,-33.251459632187654,-4.839697083360132,-33.86596225774461,-5.213460078785337,-34.455344858789886,-5.566293067468281" fill="white" stroke="white" stroke-width="0" stroke-linejoin="round" filter="url(#fuzzy)"></polyline></g><g transform="translate(-45.758448061023756 -19.4259853614005)"><polyline id="leftCountour" points="34.22455947826147,-10.66852016689349,33.84517551276972,-10.836309299247123,33.437153067380876,-11.006837173277775,33.00059910313657,-11.179628808098002,32.53567897889751,-11.354221703372074,32.04261438685082,-11.530165774339025,31.521681288017476,-11.707023286835724,30.97320784775957,-11.884368792319949,30.397572371287747,-12.061789062893421,29.79520123916854,-12.238883026324908,29.166566842831763,-12.415261701073252,28.512185520077818,-12.590548131310456,27.832615490585106,-12.764377321944743,27.12845479141738,-12.936396173643613,26.4003392125311,-13.106263417856916,25.64894023228281,-13.27364955183991,24.90517853756009,-13.485185269000937,24.12027766301577,-13.693675559758013,23.295127912465645,-13.898352358935272,22.430870488643794,-14.098454399208993,21.528875630928397,-14.293228348528483,20.59072148634268,-14.481929954980895,19.61817370309976,-14.663825197505137,18.613165735960344,-14.838191440860001,17.577779852672126,-15.004318593251652,16.51422883075987,-15.161510265025635,15.424838333934884,-15.309084926828524,14.31202995739303,-15.446377065644366,13.17830493126993,-15.572738337111062,12.02622847152239,-15.687538712521825,10.858414767504883,-15.79016761891685,9.67751259551002,-15.880035070670361,8.486191547541827,-15.956572790978148,7.28712886459085,-16.019235321650747,6.0829968636798055,-16.067501119617436,4.876450947948838,-16.100873638546123,3.6701181890491337,-16.118882393984336,2.4665864711138936,-16.12108401042643,1.2683941855754783,-16.107063248712116,0.07802046609766455,-16.07643401216153,-1.1021240471081324,-16.028840329851946,-2.269705924313735,-15.963957315441226,-3.4224771553833477,-15.881492099943241,-4.558282861692005,-15.781184736860357,-5.675068521584518,-15.662809078078121,-6.770886720105919,-15.526173618927288,-7.843903433734651,-15.371122310818386,-8.892403860849447,-15.197535339853868,-9.914797808661204,-15.005329869823091,-10.909624647340728,-14.794460747985184,-11.875557842073704,-14.564921172045002,-12.811409073773795,-14.316743316727269,-13.716131959185091,-14.049998918354095,-14.588825381105014,-13.764799815830969,-15.428736439458715,-13.461298446446385,-16.235263033956187,-13.139688294890247,-17.00795608906301,-12.800204293896208,-17.746521432016177,-12.443123174913039,-18.45082133461565,-12.068763767210235,-19.12087572952319,-11.677487243822954,-19.75686311179926,-11.269697312741425,-20.35912113640934,-10.84584035175002,-20.928146922430514,-10.40640548532108,-21.46459707468976,-9.95192460196865,-21.96928743356464,-9.48297231046729,-22.44319256367799,-9.000165833341068,-22.886864543058678,-8.50216166050104,-23.300176683156526,-7.987233478383134,-23.683234906571847,-7.455465855101936,-24.036185182676174,-6.9069564449110885,-24.359212090410065,-6.341816201800306,-24.65253738108108,-5.760169593092377,-24.916418541161665,-5.162154813040207,-25.151147355087105,-4.547923996423788,-25.3570484680534,-3.9176434321472584,-25.5344779488152,-3.271493776835892,-25.683821852483725,-2.6096702684331223,-25.805494783324676,-1.9323829397975514,-25.899938457556132,-1.2398568322999681,-25.967620266146497,-0.5323322094203586,-28.98944514730117,3.508740663987272,-28.480653945821274,4.078230500287548,-27.95724682994863,4.648838089363149,-27.41922618358655,5.219611814029985,-26.866620314001,5.789540601509241,-26.299482636910657,6.35755900691114,-25.717890861577132,6.922552296718715,-25.12194617589502,7.483361532271568,-24.51177243148215,8.038788653249613,-23.88751532876962,8.587601561156886,-23.249341602092013,9.128539202805255,-22.597438204777507,9.660316653798228,-21.932011494238022,10.181630202014679,-21.253286417059364,10.69116243109263,-20.561505694091355,11.187587303913032,-19.854882260943633,11.674399535868217,-19.13158482583874,12.154014188971429,-18.391837762541986,12.623537433468757,-17.635911144796186,13.080156504978406,-16.86411922333252,13.521149123368192,-16.076818835031727,13.943892789516694,-15.274407750320204,14.34587392200118,-14.457322964885732,14.724696795755646,-13.62603894179742,15.078092244742384,-12.78106581011461,15.403926090680324,-11.922947526069315,15.70020725987345,-11.05226000290697,15.965095550182765,-10.169609215469988,16.196909010184854,-9.275629285608955,16.394130892560625,-8.370980554506012,16.555416143757455,-7.456347647995104,16.679597391968045,-6.5324375409638,16.765690395469264,-5.5999776269213015,16.8128989133644,-4.65971379881731,16.820618960772116,-3.7124085471964086,16.78844241050536,-2.7588390817726522,16.716159903283668,-1.7997954825089653,16.603763028521996,-0.836078886286077,16.451445737739704,0.13150028475441722,16.259604952632642,1.1021240471081324,16.028840329851946,2.0749685259625195,15.75995314453281,3.0492055653233305,15.453944254616394,4.024004272128286,15.112011108008351,4.9985324882632725,14.735543754617344,5.971958184396417,14.32611982531664,6.943450769545386,13.88549843987233,7.912182310293226,13.415613005881374,8.877328653568105,12.91856287076286,9.838070446902291,12.396603788845725,10.793594050085696,11.85213716559632,11.743092332129354,11.287698041029143,12.68576534745411,10.705941774343968,13.620820885219961,10.10962939183287,14.54747488571128,9.501611560100246,15.46495171769333,8.884811146639345,16.37248431065541,8.262204329808513,17.269314135855932,7.636800220250516,18.154691030084766,7.011618955798269,19.027872856058277,6.389668231910273,19.88812499336229,5.77391822967906,20.734719653858356,5.1672749034560645,21.566935015468736,4.572551590136095,22.38405416825527,3.9924389021448583,23.18536386670769,3.4294728661727856,23.97015308215649,2.886001269698504,24.666797184362956,2.3630467998448257,25.351076171130796,1.8461358403164159,26.022344858982976,1.336295603316099,26.67993517972377,0.8345244213544536,27.323155737391232,0.34178920695023685,27.95129136520965,-0.1409770876691976,28.56360268254203,-0.6128780108674601,29.159325651842554,-1.0730561518987063,29.737671135609062,-1.52069568120723,30.297824453335508,-1.9550248907270102,30.838944938464465,-2.3753187341813167,31.360165495339537,-2.780901367382257,31.86059215615787,-3.1711486885303737,32.33930363792262,-3.5454908785142116,32.7953508993954,-3.9034149412098946" fill="white" stroke="white" stroke-width="0" stroke-linejoin="round" filter="url(#fuzzy)"></polyline></g><g transform="translate(52.57393350671866 -22.480774315524016)"><polyline id="rightUpper" points="-40.09894393159949,-11.090873460520967,-39.963535985954806,-11.182862396803063,-39.800079937381106,-11.285356761100886,-39.60827302281801,-11.39767336262977,-39.38787798056181,-11.519142177497441,-39.13872125202967,-11.64910632439221,-38.86069118352346,-11.786922040271175,-38.55373622799386,-11.931958656048426,-38.21786314680437,-12.083598572283247,-37.85313521149527,-12.241237234868313,-37.45967040554767,-12.404283110717902,-37.03763962614751,-12.572157663456084,-36.58726488594956,-12.744295329104933,-36.108817514841434,-12.92014349177272,-35.602616361707604,-13.099162459342129,-35.06902599619339,-13.280825439158438,-34.50845491046901,-13.46461851371774,-33.92135372099354,-13.650040616355138,-33.308213370278956,-13.836603506932942,-32.66956332865412,-14.023831747528877,-32.00596979602882,-14.211262678124282,-31.31803390365775,-14.398446392292314,-30.60638991590453,-14.584945712886146,-29.871703432005713,-14.770336167727177,-29.11466958783481,-14.95420596529322,-28.33601125766627,-15.136155970406719,-27.54707881103743,-15.365048568850163,-26.720157611926687,-15.591728783614352,-25.85624630530456,-15.815305913224167,-24.956562442865817,-16.03488892983546,-24.02252243023981,-16.24958825144002,-23.055722173911544,-16.458517518538653,-22.05791841718721,-16.660795373288558,-21.03101075453806,-16.855547239131226,-19.97702431365621,-17.041907098906997,-18.89809309455639,-17.2190192694625,-17.79644395505714,-17.386040170757138,-16.674381231975424,-17.54214008747484,-15.534271987368381,-17.686504921147232,-14.378531869155925,-17.818337930794414,-13.209611575458005,-17.93686146008958,-12.029983911980327,-18.04131864905361,-10.842131431782242,-18.13097512828583,-9.648534646760655,-18.20512069373718,-8.451660800183621,-18.263070960031904,-7.253953189607471,-18.304168990344028,-6.057821029511258,-18.3277869008347,-4.865629842982194,-18.333327437656727,-3.6796923717859524,-18.320225524532383,-2.502259994155554,-18.28794977891068,-1.3355146396326152,-18.23600399471041,-0.18156119029473183,-18.16392858965494,0.9575796422972367,-18.071302015205188,2.0799779750982026,-17.957742127096722,3.1838009571904466,-17.822907514487408,4.2673185296739735,-17.666498785721565,5.328908752501944,-17.488259808717025,6.36706270892725,-17.28797890398112,7.380388998226687,-17.065489988261888,8.367617827368699,-16.82067366684063,9.327604712291178,-16.55345827247203,10.259333799455328,-16.263820848978018,11.161920818341972,-15.951788077501565,12.034615675556491,-15.617437143426603,12.876804701208542,-15.260896541970244,13.688012558232977,-14.882346820453494,14.46790382531795,-14.482021255256651,15.21628426410663,-14.060206461465562,15.933101781338667,-13.617242933214962,16.618447096597688,-13.153525512735031,17.272554126330963,-12.669503786107397,17.89580009480756,-12.165682403736739,18.48870538268124,-11.642621323544223,19.05193312382414,-11.100935974888921,19.58628856109775,-10.541297341223393,20.09271817172718,-9.964431959489671,20.571899561724933,-9.368726949987117,21.02388636489145,-8.752104496567028,21.448821004551824,-8.11464814362065,21.84688024661792,-7.456458702296587,22.21827377107552,-6.777654517529273,22.563242743471342,-6.078371735067442,22.882058386400224,-5.358764568502584,23.175020550992187,-4.619005566297407,23.442456288399512,-3.859285878814318,23.684718421283897,-3.079815525343885,23.902184115303502,-2.280823661133293,24.0952534506001,-1.4625588444148168,24.264347993286115,-0.6252893034342808,24.409909366931785,0.23069679652046382,24.53239782405223,1.1050910860910825,24.63229081759457,1.9975647248203003,24.71008157242497,2.907768134123417,24.76627765681583,3.8353307302598427,24.801399553932832,4.779860657304653,24.81597923332202,5.740944520120115,24.81055872239697,6.718147117327204,24.785688677925794,7.711011174277152,24.741926957518338,8.71905707602299,24.679837191113233,9.741782600291069" fill="none" stroke="black" stroke-width="1.6666666666666665" stroke-linejoin="round" filter="url(#fuzzy)"></polyline><polyline id="rightLower" points="-38.605227152327,-8.004370328282835,-38.359841024614944,-7.840292883731941,-38.071649240793576,-7.66100456725991,-37.74266930228326,-7.465313740386032,-37.37486123034446,-7.252177412368642,-36.970128376282645,-7.020697141052869,-36.53031823165323,-6.7701149337183715,-36.05722323846644,-6.499809147927081,-35.552581599392255,-6.209290392370932,-35.018078087965335,-5.8981974277196105,-34.455344858789886,-5.566293067468281,-33.86596225774461,-5.213460078785337,-33.251459632187654,-4.839697083360132,-32.613316141161434,-4.445114458250723,-31.952961565597633,-4.029930236731605,-31.271777118522067,-3.5944660091414526,-30.57109625525961,-3.13914282373086,-29.852205483639125,-2.664477087510069,-29.11634517419835,-2.171076467096727,-28.364710370388842,-1.6596357895636036,-27.598451598780855,-1.1309329432863535,-26.818675679268296,-0.5858247787912347,-26.0264465352736,-0.025243009602849753,-25.22278600395269,0.5498098869081023,-24.408674646399824,1.1382647686770948,-23.585052557852585,1.7389899280980483,-22.625255189570666,2.3116095364601765,-21.653891846436785,2.9184164519937443,-20.67228877347578,3.5567622767947444,-19.681724674386185,4.223667387288753,-18.683432950122373,4.915870379906075,-17.678603792089856,5.629875000868072,-16.668386134126386,6.361994612439117,-15.6538894674417,7.108394247998751,-14.636185522688512,7.8651303082884265,-13.61630982333762,8.628187951187515,-12.595263114529743,9.393516227372912,-11.574012671576888,10.157061014216827,-10.55349349228599,10.914795800277298,-9.534609377277468,11.66275037273581,-8.518233902471543,12.397037460136646,-7.505211287914969,13.113877382782439,-6.496357167120948,13.809620763140332,-5.492459261094954,14.480769348613405,-4.494277961219185,15.123994999031806,-3.5025468251683907,15.736156891217993,-2.5179729900298016,16.314316992980757,-1.5412375067998894,16.85575385889244,-0.5729956004307049,17.357974800203827,0.38612314040149975,17.818726481251232,1.3355146396326143,18.23600399471041,2.274600272079234,18.608058468051517,3.202826859466751,18.93340325354996,4.119666720044201,19.21081875420731,5.0246177676131705,19.4393559379371,5.917203655797973,19.618338592369703,6.796973963384449,19.74736437263106,7.663504416554572,19.82630469444956,8.516397143844191,19.855303524945725,9.35528095965112,19.834775123459067,10.179811672120923,19.765400784766776,10.989672411237553,19.648124637048554,11.784573972946236,19.484148546952298,12.564255175135752,19.27492618411496,13.328483221307465,19.02215629749324,14.07705406775834,18.727775255858454,14.809792790105178,18.393948904810244,15.526553944977422,18.023063792663436,16.22722192270571,17.617717817562905,16.911711286833512,17.180710348180398,17.579967096279095,16.71503187034842,18.231965205975012,16.22385321198518,18.867712541812583,15.710514398665444,19.487247345718384,15.17851319219171,20.090639386690153,14.631493364519981,20.677990133619446,14.073232759395042,21.25079374513139,13.500656121523926,21.810414290721827,12.90923444799576,22.356789600392357,12.300659723980813,22.88986813400321,11.67662026622155,23.40960954012126,11.038793711268765,23.915985214868115,10.388840003717759,24.408978860768197,9.728394384444575,24.88858704559678,9.059060378842135,25.354819761228054,8.382402785056472,25.80770098248323,7.699940662222884,26.24726922597854,7.01314031870214,26.673578108973377,6.323408300316666,27.086696908218265,5.632084378586724,27.486711118803044,4.9404345389666116,27.873723013004813,4.2496439690808305,28.247852199136098,3.560810046960306,28.60923618039282,2.874935329278534,28.958030913702444,2.1929205395878153,29.294411368572007,1.5155575565554003,29.618572085936187,0.8435224021996905,29.93072773700534,0.17736823012645253,30.23111368211361,-0.48248168623504384,30.519986529566964,-1.135740965395783,30.797624694491297,-1.782267129570851" fill="none" stroke="black" stroke-width="2.2222222222222223" stroke-linejoin="round" filter="url(#fuzzy)"></polyline><!--[--><circle r="3.785640612982394" cx="-16.57149450905753" cy="-1.1918480237639275" stroke="black" fill="none" stroke-width="1" filter="url(#fuzzy)" clip-path="url(#rightEyeClipPath)"></circle><circle r="3.050351421604604" cx="-19.920052728452053" cy="-4.475226522730693" stroke="black" fill="none" stroke-width="1" filter="url(#fuzzy)" clip-path="url(#rightEyeClipPath)"></circle><circle r="4.974552730650517" cx="-19.946805865152637" cy="-2.7554068234101883" stroke="black" fill="none" stroke-width="1" filter="url(#fuzzy)" clip-path="url(#rightEyeClipPath)"></circle><circle r="3.127517757348515" cx="-19.368872685423725" cy="-1.2315766267717847" stroke="black" fill="none" stroke-width="1" filter="url(#fuzzy)" clip-path="url(#rightEyeClipPath)"></circle><circle r="3.3127249467136313" cx="-16.738517076078036" cy="-4.3808125286413695" stroke="black" fill="none" stroke-width="1" filter="url(#fuzzy)" clip-path="url(#rightEyeClipPath)"></circle><circle r="3.7475268583730816" cx="-16.53581122641276" cy="-4.99712422296684" stroke="black" fill="none" stroke-width="1" filter="url(#fuzzy)" clip-path="url(#rightEyeClipPath)"></circle><circle r="3.340963699617636" cx="-18.443582268932317" cy="-3.5073523703318807" stroke="black" fill="none" stroke-width="1" filter="url(#fuzzy)" clip-path="url(#rightEyeClipPath)"></circle><circle r="3.4804459127200156" cx="-18.830090165080442" cy="-2.484324211260448" stroke="black" fill="none" stroke-width="1" filter="url(#fuzzy)" clip-path="url(#rightEyeClipPath)"></circle><circle r="4.0979309318456645" cx="-18.388407148969275" cy="-2.961826932652225" stroke="black" fill="none" stroke-width="1" filter="url(#fuzzy)" clip-path="url(#rightEyeClipPath)"></circle><circle r="3.8323404237361767" cx="-19.815011641583705" cy="-3.4337755461680866" stroke="black" fill="none" stroke-width="1" filter="url(#fuzzy)" clip-path="url(#rightEyeClipPath)"></circle><!--]--></g><g transform="translate(-45.758448061023756 -19.4259853614005)"><polyline id="leftUpper" points="36.46563886457754,-9.25480910912622,36.364198922914724,-9.366294696015721,36.23671695936765,-9.485969558726438,36.082602409692214,-9.613230337122385,35.901343752389735,-9.747486801388638,35.69250644421432,-9.888161787054404,35.45573085568027,-10.034691130016089,35.19073020656939,-10.186523601560355,34.89728850143838,-10.343120843387187,34.57525846512621,-10.503957302632958,34.22455947826147,-10.66852016689349,33.84517551276972,-10.836309299247123,33.437153067380876,-11.006837173277775,33.00059910313657,-11.179628808098002,32.53567897889751,-11.354221703372074,32.04261438685082,-11.530165774339025,31.521681288017476,-11.707023286835724,30.97320784775957,-11.884368792319949,30.397572371287747,-12.061789062893421,29.79520123916854,-12.238883026324908,29.166566842831763,-12.415261701073252,28.512185520077818,-12.590548131310456,27.832615490585106,-12.764377321944743,27.12845479141738,-12.936396173643613,26.4003392125311,-13.106263417856916,25.64894023228281,-13.27364955183991,24.90517853756009,-13.485185269000937,24.12027766301577,-13.693675559758013,23.295127912465645,-13.898352358935272,22.430870488643794,-14.098454399208993,21.528875630928397,-14.293228348528483,20.59072148634268,-14.481929954980895,19.61817370309976,-14.663825197505137,18.613165735960344,-14.838191440860001,17.577779852672126,-15.004318593251652,16.51422883075987,-15.161510265025635,15.424838333934884,-15.309084926828524,14.31202995739303,-15.446377065644366,13.17830493126993,-15.572738337111062,12.02622847152239,-15.687538712521825,10.858414767504883,-15.79016761891685,9.67751259551002,-15.880035070670361,8.486191547541827,-15.956572790978148,7.28712886459085,-16.019235321650747,6.0829968636798055,-16.067501119617436,4.876450947948838,-16.100873638546123,3.6701181890491337,-16.118882393984336,2.4665864711138936,-16.12108401042643,1.2683941855754783,-16.107063248712116,0.07802046609766455,-16.07643401216153,-1.1021240471081324,-16.028840329851946,-2.269705924313735,-15.963957315441226,-3.4224771553833477,-15.881492099943241,-4.558282861692005,-15.781184736860357,-5.675068521584518,-15.662809078078121,-6.770886720105919,-15.526173618927288,-7.843903433734651,-15.371122310818386,-8.892403860849447,-15.197535339853868,-9.914797808661204,-15.005329869823091,-10.909624647340728,-14.794460747985184,-11.875557842073704,-14.564921172045002,-12.811409073773795,-14.316743316727269,-13.716131959185091,-14.049998918354095,-14.588825381105014,-13.764799815830969,-15.428736439458715,-13.461298446446385,-16.235263033956187,-13.139688294890247,-17.00795608906301,-12.800204293896208,-17.746521432016177,-12.443123174913039,-18.45082133461565,-12.068763767210235,-19.12087572952319,-11.677487243822954,-19.75686311179926,-11.269697312741425,-20.35912113640934,-10.84584035175002,-20.928146922430514,-10.40640548532108,-21.46459707468976,-9.95192460196865,-21.96928743356464,-9.48297231046729,-22.44319256367799,-9.000165833341068,-22.886864543058678,-8.50216166050104,-23.300176683156526,-7.987233478383134,-23.683234906571847,-7.455465855101936,-24.036185182676174,-6.9069564449110885,-24.359212090410065,-6.341816201800306,-24.65253738108108,-5.760169593092377,-24.916418541161665,-5.162154813040207,-25.151147355087105,-4.547923996423788,-25.3570484680534,-3.9176434321472584,-25.5344779488152,-3.271493776835892,-25.683821852483725,-2.6096702684331223,-25.805494783324676,-1.9323829397975514,-25.899938457556132,-1.2398568322999681,-25.967620266146497,-0.5323322094203586,-26.00903183761239,0.1899352296550738,-26.02468760081659,0.9266741364368976,-26.015123347765908,1.6775972995354351,-25.980894796409153,2.4424014310637556,-25.922576153434996,3.2207669530406466,-25.84075867706993,4.01235778379362,-25.73604923987617,4.816821124361882,-25.609068891549548,5.633787244899317,-25.460451421717465,6.462869271077482,-25.290841922736774,7.3036629704885865" fill="none" stroke="black" stroke-width="2.2222222222222223" stroke-linejoin="round" filter="url(#fuzzy)"></polyline><polyline id="leftLower" points="35.87976820177542,-6.5125135359351844,35.708984003452954,-6.332668161470152,35.504420998714124,-6.134958828701729,35.267330178826796,-5.9191905874013315,34.998930346341865,-5.685250713323713,34.70040855814106,-5.433106167907387,34.37292056848428,-5.162801057975054,34.017591272057196,-4.874454095434022,33.63551514701878,-4.5682560569766375,33.2277566980488,-4.244467243780699,32.7953508993954,-3.9034149412098946,32.33930363792262,-3.5454908785142116,31.86059215615787,-3.1711486885303737,31.360165495339537,-2.780901367382257,30.838944938464465,-2.3753187341813167,30.297824453335508,-1.9550248907270102,29.737671135609062,-1.52069568120723,29.159325651842554,-1.0730561518987063,28.56360268254203,-0.6128780108674601,27.95129136520965,-0.1409770876691976,27.323155737391232,0.34178920695023685,26.67993517972377,0.8345244213544536,26.022344858982976,1.336295603316099,25.351076171130796,1.8461358403164159,24.666797184362956,2.3630467998448257,23.97015308215649,2.886001269698504,23.18536386670769,3.4294728661727856,22.38405416825527,3.9924389021448583,21.566935015468736,4.572551590136095,20.734719653858356,5.1672749034560645,19.88812499336229,5.77391822967906,19.027872856058277,6.389668231910273,18.154691030084766,7.011618955798269,17.269314135855932,7.636800220250516,16.37248431065541,8.262204329808513,15.46495171769333,8.884811146639345,14.54747488571128,9.501611560100246,13.620820885219961,10.10962939183287,12.68576534745411,10.705941774343968,11.743092332129354,11.287698041029143,10.793594050085696,11.85213716559632,9.838070446902291,12.396603788845725,8.877328653568105,12.91856287076286,7.912182310293226,13.415613005881374,6.943450769545386,13.88549843987233,5.971958184396417,14.32611982531664,4.9985324882632725,14.735543754617344,4.024004272128286,15.112011108008351,3.0492055653233305,15.453944254616394,2.0749685259625195,15.75995314453281,1.1021240471081324,16.028840329851946,0.13150028475441722,16.259604952632642,-0.836078886286077,16.451445737739704,-1.7997954825089653,16.603763028521996,-2.7588390817726522,16.716159903283668,-3.7124085471964086,16.78844241050536,-4.65971379881731,16.820618960772116,-5.5999776269213015,16.8128989133644,-6.5324375409638,16.765690395469264,-7.456347647995104,16.679597391968045,-8.370980554506012,16.555416143757455,-9.275629285608955,16.394130892560625,-10.169609215469988,16.196909010184854,-11.05226000290697,15.965095550182765,-11.922947526069315,15.70020725987345,-12.78106581011461,15.403926090680324,-13.62603894179742,15.078092244742384,-14.457322964885732,14.724696795755646,-15.274407750320204,14.34587392200118,-16.076818835031727,13.943892789516694,-16.86411922333252,13.521149123368192,-17.635911144796186,13.080156504978406,-18.391837762541986,12.623537433468757,-19.13158482583874,12.154014188971429,-19.854882260943633,11.674399535868217,-20.561505694091355,11.187587303913032,-21.253286417059364,10.69116243109263,-21.932011494238022,10.181630202014679,-22.597438204777507,9.660316653798228,-23.249341602092013,9.128539202805255,-23.88751532876962,8.587601561156886,-24.51177243148215,8.038788653249613,-25.12194617589502,7.483361532271568,-25.717890861577132,6.922552296718715,-26.299482636910657,6.35755900691114,-26.866620314001,5.789540601509241,-27.41922618358655,5.219611814029985,-27.95724682994863,4.648838089363149,-28.480653945821274,4.078230500287548,-28.98944514730117,3.508740663987272,-29.483644788757438,2.9412556585679326,-29.963304777741563,2.376592939572882,-30.428505389897172,1.8154952564994744,-30.879356083869986,1.2586255693152832,-31.315996316217582,0.7065619649743464,-31.738596356319334,0.15979257393339097,-32.14735810128624,-0.38128951333190386,-32.54251589087073,-0.9163913298106978,-32.92433732237662,-1.4453251154407338,-33.29312406556891,-1.9680134005921062" fill="none" stroke="black" stroke-width="2.2222222222222223" stroke-linejoin="round" filter="url(#fuzzy)"></polyline><!--[--><circle r="4.02188341115354" cx="-5.583534886560203" cy="1.1001671200368" stroke="black" fill="none" stroke-width="1" filter="url(#fuzzy)" clip-path="url(#leftEyeClipPath)"></circle><circle r="4.553992751565399" cx="-6.01713955338123" cy="-1.0077276017767485" stroke="black" fill="none" stroke-width="1" filter="url(#fuzzy)" clip-path="url(#leftEyeClipPath)"></circle><circle r="4.50477707090729" cx="-5.352964897564538" cy="1.0977123951776475" stroke="black" fill="none" stroke-width="1" filter="url(#fuzzy)" clip-path="url(#leftEyeClipPath)"></circle><circle r="3.8601497656962134" cx="-5.774187498436618" cy="-0.22346643728114302" stroke="black" fill="none" stroke-width="1" filter="url(#fuzzy)" clip-path="url(#leftEyeClipPath)"></circle><circle r="4.00832503994196" cx="-7.682616081090945" cy="1.9251375183812396" stroke="black" fill="none" stroke-width="1" filter="url(#fuzzy)" clip-path="url(#leftEyeClipPath)"></circle><circle r="4.800722019733117" cx="-5.169977734713498" cy="2.856035990010186" stroke="black" fill="none" stroke-width="1" filter="url(#fuzzy)" clip-path="url(#leftEyeClipPath)"></circle><circle r="3.227931360029066" cx="-5.941915148257667" cy="2.809770160162776" stroke="black" fill="none" stroke-width="1" filter="url(#fuzzy)" clip-path="url(#leftEyeClipPath)"></circle><circle r="3.10702739380857" cx="-5.49225169921397" cy="3.2507861241275933" stroke="black" fill="none" stroke-width="1" filter="url(#fuzzy)" clip-path="url(#leftEyeClipPath)"></circle><circle r="4.620385762818656" cx="-7.136826399401879" cy="-1.0077387222327203" stroke="black" fill="none" stroke-width="1" filter="url(#fuzzy)" clip-path="url(#leftEyeClipPath)"></circle><circle r="4.931439713312784" cx="-4.7482795811087595" cy="-1.0559716329591067" stroke="black" fill="none" stroke-width="1" filter="url(#fuzzy)" clip-path="url(#leftEyeClipPath)"></circle><!--]--></g><g id="hairs"><!--[--><polyline points="-37,-75,-34.73717642270197,-75.68573773527626,-32.64435320997858,-75.78090905635077,-29.908119926672153,-75.49228670590851,-26.32372680365331,-75.00604457618638,-21.97778711727625,-74.37711776159716,-17.033355694480896,-73.5839505628056,-11.626571602989634,-72.5934074442665,-5.831221819831709,-71.39670221649718,0.34002302946456453,-70.01329899169622,6.913521762952058,-68.47581470719406,13.920535211170783,-66.81099247647029,21.359730493792455,-65.02485614117437,29.1683863602315,-63.098693542403176,37.215509183753134,-61.011597383590356,45.33446265288953,-58.795729821265674,53.455093285508305,-56.536897084778616" fill="none" stroke="rgb(44, 34, 43)" stroke-width="2" stroke-linejoin="round" filter="url(#fuzzy)"></polyline><polyline points="-37,-75,-35.11215123334371,-75.81170202697186,-34.16268917189624,-76.24559362391838,-33.315825294776225,-76.49738452297389,-32.37236007977161,-76.72464371669638,-31.407280966214778,-76.95452989409,-30.558135234413868,-77.14355345235631,-29.934173880488324,-77.23688650164725,-29.588345107643224,-77.19879184442603,-29.521107361493257,-77.01728068854008,-29.703502796947156,-76.69525141924375,-30.110315593281527,-76.23856296063298,-30.750003619177022,-75.64636608178995,-31.67602415639325,-74.90601429568767,-32.970983701528404,-73.99417223489293,-34.71024588563823,-72.88476022376521,-36.92653760427105,-71.56144307261016,-39.60009676213352,-70.02796115594742,-42.684340250167686,-68.30644486086308,-46.15118478843883,-66.4171954653961,-50.019867164508874,-64.34795691432427,-54.341603908112745,-62.03786366008704,-59.19174024775959,-59.374382296688566" fill="none" stroke="rgb(44, 34, 43)" stroke-width="2" stroke-linejoin="round" filter="url(#fuzzy)"></polyline><polyline points="53,-62,53.79365685501166,-61.10368742630694,54.30395127589318,-60.290314228275484,54.46894871085502,-59.64003727312378,54.15653400317531,-59.257712969892665,53.27528886086619,-59.15691431721396,51.80084153904076,-59.278730505310705,49.73306222407963,-59.567597359003436,47.05039696456505,-60.018249967618424,43.699209213256836,-60.67172622680664,39.61659313926654,-61.5820607371706,34.76348159194137,-62.78457181747898,29.142251896577765,-64.28605511706259,22.780838473753377,-66.07938875458349,15.67948177055648,-68.16588627343056,7.741141154706543,-70.55798751405658,-1.252043768468619,-73.24758855513166,-11.516522357290942,-76.15191851519899" fill="none" stroke="rgb(44, 34, 43)" stroke-width="2" stroke-linejoin="round" filter="url(#fuzzy)"></polyline><polyline points="60,-56,61.34704639567803,-54.64659872483222,62.18682874976687,-53.77850868901012,62.74588196461723,-53.137146888405006,63.058566374808336,-52.65612395533078,63.17051040414344,-52.28860502869793,63.109872166618956,-52.02909978940766,62.86648004878435,-51.906408180799446,62.405063835298634,-51.95441958002608,61.687364966573135,-52.19609527025395,60.6836519241333,-52.647329330444336,59.36979559199016,-53.32761948124504,57.716214024796486,-54.26565879297573,55.67832011717015,-55.498414503719204,53.1977049089686,-57.06761444603362,50.22045942665636,-59.013092239976686,46.73082788489935,-61.35712442943327,42.78284739406281,-64.08193514643659,38.49623619598265,-67.12382123758815,33.968439666550175,-70.41694711812279" fill="none" stroke="rgb(44, 34, 43)" stroke-width="2" stroke-linejoin="round" filter="url(#fuzzy)"></polyline><polyline points="62,-54,62.18573612830606,-53.60059131267763,61.973277266925024,-53.13348700417896,61.00008369105055,-52.89313931289385,59.28640036544166,-52.826515159219184,56.865748605177814,-52.90235562951344,53.71673348043181,-53.14537749355094,49.78931130342445,-53.5928340322576,45.03177313085498,-54.271497987561915,39.39704246135317,-55.19876207244792,32.83708843861914,-56.38928842755031,25.300988884636443,-57.8581308870856,16.743296292165862,-59.620646030123986,7.127978265939987,-61.690583979050544,-3.5963362231849985,-64.07669723057307,-15.528657395022002,-66.7802328724853,-28.73981139501931,-69.7900487740788" fill="none" stroke="rgb(44, 34, 43)" stroke-width="2" stroke-linejoin="round" filter="url(#fuzzy)"></polyline><polyline points="-27,-78,-24.97998561272258,-78.58343217552034,-23.167107586845862,-78.78447473150342,-20.778642285394263,-78.85193377794423,-17.82764465713358,-78.81251814066897,-14.530530503299723,-78.64020178104296,-11.06936770450466,-78.33517191274143,-7.5199557619000545,-77.92988422939322,-3.880816265790676,-77.47000078826117,-0.13788223266601562,-76.99674797058105,3.695865107947858,-76.53599633020286,7.585950397485195,-76.09268245504106,11.503868219525163,-75.65109388591648,15.441311625978445,-75.18237116872322,19.392434254210205,-74.65917948015615,23.300822742277276,-74.07965062479872,26.98421292804151,-73.50511865718568,30.157983869523324,-73.09106382041243" fill="none" stroke="rgb(44, 34, 43)" stroke-width="2" stroke-linejoin="round" filter="url(#fuzzy)"></polyline><polyline points="33,-73,34.313368322082475,-72.14491867301648,35.46222038558211,-71.58847263090817,36.14664909431648,-71.26575395960488,36.507073527523694,-71.06063908436833,36.68697705309046,-70.896250366696,36.74978647435799,-70.73194717543275,36.67058029496945,-70.56218715479639,36.354413396697495,-70.41782490674034,35.67658609657964,-70.35395275981662,34.52241849899292,-70.42731046676636,32.80756527261494,-70.6770941246388,30.483028960932337,-71.11730168014972,27.53804981725582,-71.73974977481956,23.99824076715553,-72.52462426803017,19.900115331790175,-73.45664592175513,15.239060353106497,-74.54102329664919,9.940255378505736,-75.8028428550859,3.9399575559836837,-77.24552550635596,-2.6573676606135788,-78.75530006871583" fill="none" stroke="rgb(44, 34, 43)" stroke-width="2" stroke-linejoin="round" filter="url(#fuzzy)"></polyline><polyline points="-25,-79,-23.049227865124198,-79.24964647317282,-21.059200217659004,-79.59278804282316,-19.22869628847079,-79.82138737903709,-17.692507919736265,-79.93894880973835,-16.425906493979255,-79.98951396260736,-15.334028115611357,-80.01203687089094,-14.352965716194669,-80.03454663195902,-13.484634501612788,-80.07534249354548,-12.781214620091767,-80.14078330476165,-12.315483093261719,-80.22036170959473,-12.156933618523937,-80.28515873101605,-12.357095759309,-80.29500475154931,-12.942215967825957,-80.21367451439366,-13.91347143290086,-80.02492163920394,-15.258970017338015,-79.74050878842763,-16.98367817182312,-79.39512996287883,-19.155200174211842,-79.02491350757731,-21.940450330682538,-78.61794145437779,-25.57311841170208,-78.02901385265459" fill="none" stroke="rgb(44, 34, 43)" stroke-width="2" stroke-linejoin="round" filter="url(#fuzzy)"></polyline><polyline points="37,-71,38.317335900842174,-70.36193625968463,39.302326716980595,-69.92578820465134,40.35431387392769,-69.39594988421368,41.292011583827914,-68.8101703923131,41.90213477320115,-68.28352653095655,42.091498245369166,-67.88815600175461,41.857355135337684,-67.63608113602133,41.23772661409725,-67.49736159751289,40.279145292698665,-67.42735332298098,39.01212970081459,-67.39477797362945,37.4328358398462,-67.39987868015064,35.501794934272766,-67.47278660535812,33.164216300570345,-67.65380094892569,30.378838706784617,-67.97021411502455,27.132733033589584,-68.42647748320452,23.428189411979123,-69.01319477869927,19.24969664302283,-69.72456402335688,14.538968713016448,-70.56671845302681,9.208853062089396,-71.54815570242029,3.204269896187405,-72.66312710997559,-3.4274062837320045,-73.89272500388367,-10.545361094300317,-75.23134930807596,-18.135229733122245,-76.67420349995227" fill="none" stroke="rgb(44, 34, 43)" stroke-width="2" stroke-linejoin="round" filter="url(#fuzzy)"></polyline><polyline points="31,-74,32.748386888626264,-73.0327752130651,34.4477745133943,-72.11705827252135,35.98969218109814,-71.35357419983096,37.310047786648916,-70.73452457239962,38.490699452018546,-70.19817808109381,39.64601062087562,-69.68177373437179,40.835239821797806,-69.1476496218052,42.02518560620278,-68.59870621780357,43.09520377699725,-68.0851821845687,43.8782023599074,-67.69286186403801,44.21865819294259,-67.5117057173253,44.02163546718137,-67.59864688280425,43.28017573488565,-67.95290755091861,42.07800176002958,-68.51927981668433,40.54736710824334,-69.2315669154595,38.78662186210095,-70.07595185756169" fill="none" stroke="rgb(44, 34, 43)" stroke-width="2" stroke-linejoin="round" filter="url(#fuzzy)"></polyline><polyline points="-37,-75,-34.74283232498499,-75.75888057475044,-32.663002422244716,-76.07326403929295,-29.963401440251104,-76.12512975978501,-26.447422294279058,-76.09701829977952,-22.226971619975437,-76.0517908901819,-17.505610585033928,-75.97340215630234,-12.468250460681784,-75.82722194132661,-7.229833907825874,-75.59564867676055,-1.8144676549623817,-75.27971586755788,3.8306612715054396,-74.88426509884458,9.780903524743431,-74.40901982749202,16.05734397474899,-73.84725067998822,22.548327600035964,-73.18833917033541,28.874549293444044,-72.47352847688849" fill="none" stroke="rgb(44, 34, 43)" stroke-width="2" stroke-linejoin="round" filter="url(#fuzzy)"></polyline><polyline points="-25,-79,-22.984884611811495,-79.24027765746058,-20.809777980305046,-79.55614825397913,-18.66980254820496,-79.74645610823467,-16.696783546193565,-79.82373707495702,-14.860326108031215,-79.83908795699178,-13.060412867623784,-79.83678951732816,-11.237265892923036,-79.85018818199343,-9.406750275574447,-79.90227081444301,-7.629677802496189,-80.00124979642666,-5.962451273575266,-80.13555376072384,-4.429037934580598,-80.27566252634719,-3.0265524572694398,-80.38493754719659,-1.751034375604457,-80.4344609146873,-0.6219777558882114,-80.4143674516099,0.3039825965768741,-80.33774623540289,0.9243672793993499,-80.23862374635269,1.0858518672559307,-80.16740449807213,0.608711855374874,-80.18469468893119,-0.6180181470497138,-80.34997018445864,-2.439739711104163,-80.68389303594671" fill="none" stroke="rgb(44, 34, 43)" stroke-width="2" stroke-linejoin="round" filter="url(#fuzzy)"></polyline><!--]--></g><g id="lineNose"><path d="M -10.697554634132427 17.682299170266063, Q9.076519823064043 32.63394362832943,-0.8105174055341919 -4.050601532262513" fill="none" stroke="black" stroke-width="3" stroke-linejoin="round" filter="url(#fuzzy)"></path></g><g id="mouth"><polyline points="-42.229970070965045,37.8989805018213,-41.47174148165766,39.43966075383382,-40.71753670266598,40.94754121369083,-39.96715550168249,42.42264532076356,-39.220397646399626,43.86499651442324,-38.477062904509864,45.274618234041114,-37.73695104370567,46.65153391898839,-36.9998618316795,47.995767008636314,-36.265595036123855,49.307340942356134,-35.533950424731145,50.58627915951905,-34.80472776519387,51.83260509949631,-34.077726825204465,53.046342201659144,-33.35274737245542,54.22751390537878,-32.629589174639186,55.37614365002646,-31.908051999448233,56.4922548749734,-31.18793561457502,57.57587101959084,-30.46903978771202,58.62701552325002,-29.751164286551695,59.64571182532217,-29.034108878786505,60.631983365178506,-28.317673332108907,61.585853582190275,-27.60165741421138,62.5073459157287,-26.885860892786376,63.39648380516502,-26.170083535526377,64.25329068987045,-25.454125110123826,65.07779000921624,-24.737785384271195,65.87000520257362,-24.020864125660953,66.62995970931384,-23.30316110198556,67.35767696880808,-22.584476080937478,68.0531804204276,-21.86460883020917,68.71649350354366,-21.143359117493105,69.34763965752742,-20.42052671048175,69.94664232175019,-19.69591137686756,70.51352493558316,-18.969312884343005,71.04831093839758,-18.240531000600548,71.55102376956465,-17.509365493332652,72.02168686845562,-16.77561613023178,72.46032367444174,-16.039082678990404,72.86695762689422,-15.29956490730098,73.2416121651843,-14.556862582855974,73.58431072868322,-13.81077547334785,73.8950767567622,-13.061103346469075,74.17393368879245,-12.307645969912109,74.42090496414524,-11.550203111369418,74.63601402219177,-10.788574538533465,74.81928430230332,-10.02256001909672,74.97073924385107,-9.25195932075164,75.09040228620628,-8.476572211190692,75.17829686874018,-7.696198458106338,75.23444643082398,-6.910637829191047,75.25887441182894,-6.119690092137274,75.25160425112627,-5.323155014637495,75.21265938808719,-4.520832364384168,75.14206326208298,-3.7125219090697543,75.03983931248483,-2.8980234163867236,74.90601097866399,-2.0771366540275356,74.7406016999917,-1.2496613896846576,74.54363491583915,-0.41539739105054707,74.31513406557762,0.425855574182318,74.05512258857831,1.2742977383214846,73.7636239242125,2.130129333674488,73.44066151185136,2.9935505925488615,73.08625879086614,3.86476174725214,72.70043920062808,4.743963030091862,72.28322618050842,5.631354673375563,71.83464316987838,6.527136909410777,71.35471360810921,7.431509970505042,70.8434609345721,8.344674088965892,70.30090858863831,9.266829497100865,69.72708000967907,10.198176427217494,69.12199863706562,11.138915111623316,68.48568791016916,12.08924578262587,67.81817126836097,13.04936867253269,67.11947215101226,14.019484013651304,66.38961399749425,14.99979203828926,65.62862024717816,15.99049297875409,64.83651433943527,16.99178706735333,64.01331971363678,18.00387453639451,63.1590598091539,19.02695561818517,62.2737580653579,20.06123054503285,61.357437921620004,21.10689954924508,60.41012281731143,22.1641628631294,59.43183619180342,23.23322071899334,58.4226014844672,24.314273349144443,57.382442134674,25.407520985890244,56.31138158179507,26.513163861538274,55.20944326520162,27.63140220839607,54.0766506242649,28.76243625877117,52.913027098356125,29.906466244971114,51.71859612684652,31.063692399303427,50.49338114910735,32.23431495407565,49.23740560450982,33.41853414159533,47.95069293242516,34.61655019416998,46.63326657222462,35.82856334410715,45.285149963279416,37.054773823714385,43.90636654496079,38.295381865299206,42.49693975663997,39.55058770116915,41.056893037688184,40.82059156363176,39.586249827476664,42.10559368499457,38.08503356537665,43.4057942975651,36.55326769075936,44.72139363365091,34.99097564299604,44.72139363365091,34.99097564299604,43.85187999660475,36.24460361640389,42.98236635955859,37.473850902732096,42.11285272251243,38.67869878139051,41.24333908546627,39.85912853178904,40.37382544842011,41.015121433337555,39.50431181137395,42.14665876544595,38.6347981743278,43.25372180752408,37.76528453728164,44.33629183898186,36.89577090023548,45.394350139229154,36.02625726318932,46.427877987675835,35.15674362614316,47.4368566637318,34.287229989097,48.421267446806915,33.41771635205084,49.381091616311096,32.54820271500468,50.316310451654196,31.678689077958516,51.22690523224609,30.809175440912355,52.11285723749667,29.939661803866194,52.97414774681584,29.07014816682004,53.81075803961345,28.20063452977388,54.6226693952994,27.33112089272772,55.40986309328356,26.46160725568156,56.172320412975814,25.5920936186354,56.91002263378605,24.72257998158925,57.622951035124146,23.853066344543084,58.3110868964,22.983552707496926,58.97441149702345,22.114039070450765,59.61290611640442,21.244525433404604,60.226552033952785,20.375011796358443,60.815330529078416,19.505498159312282,61.37922288119118,18.63598452226612,61.918210369700994,17.766470885219963,62.43227427401773,16.896957248173806,62.92139587355126,16.027443611127644,63.38555644771147,15.157929974081483,63.824737275908234,14.28841633703533,64.23891963755146,13.418902699989168,64.62808481205097,12.549389062943007,64.99221407881672,11.679875425896846,65.33128871725854,10.810361788850692,65.64529000678634,9.94084815180453,65.93419922681,9.071334514758373,66.19799765673937,8.201820877712212,66.43666657598436,7.332307240666054,66.65018726395486,6.462793603619893,66.83854100006073,5.593279966573732,67.00170906371187,4.7237663295275745,67.13967273431814,3.8542526924814133,67.25241329128944,2.984739055435252,67.33991201403565,2.1152254183890946,67.40215018196665,1.2457117813429335,67.43910907449232,0.37619814429677234,67.45076997102254,-0.4933154927493888,67.43711415096718,-1.3628291297955428,67.39812289373614,-2.232342766841704,67.3337774787393,-3.101856403887865,67.24405918538653,-3.9713700409340262,67.12894929308773,-4.840883677980177,66.98842908125276,-5.710397315026341,66.82247982929154,-6.5799109520725025,66.63108281661391,-7.449424589118664,66.41421932262978,-8.318938226164825,66.171870626749,-9.188451863210982,65.90401800838147,-10.05796550025714,65.61064274693709,-10.927479137303301,65.29172612182572,-11.796992774349462,64.94724941245723,-12.666506411395622,64.57719389824155,-13.53602004844178,64.1815408585885,-14.405533685487939,63.76027157290801,-15.275047322534094,63.31336732060993,-16.144560959580254,62.84080938110416,-17.014074596626422,62.3425790338006,-17.883588233672576,61.81865755810906,-18.753101870718737,61.26902623343952,-19.6226155077649,60.69366633920179,-20.49212914481106,60.09255915480576,-21.36164278185722,59.46568595966135,-22.231156418903378,58.81302803317842,-23.100670055949532,58.13456665476684,-23.97018369299569,57.4302831038365,-24.83969733004185,56.70015865979729,-25.709210967088012,55.944174602059086,-26.57872460413417,55.162312210031764,-27.448238241180327,54.35455276312521,-28.31775187822649,53.52087754074932,-29.18726551527265,52.661267822313945,-30.05677915231881,51.775704887229,-30.92629278936497,50.86417001490434,-31.795806426411133,49.926644484749865,-32.665320063457294,48.963109576175455,-33.534833700503455,47.973546568590976,-34.40434733754961,46.95793674140633,-35.27386097459576,45.91626137403137,-36.143374611641924,44.848501745876014,-37.012888248688085,43.75463913635012,-37.88240188573424,42.634654824863574,-38.75191552278041,41.48853009082627,-39.62142915982656,40.316246213648085,-40.49094279687272,39.11778447273889,-41.360456433918884,37.89312614750857" fill="rgb(215,127,140)" stroke="black" stroke-width="3" stroke-linejoin="round" filter="url(#fuzzy)"></polyline></g></svg>