<svg viewBox="-100 -100 200 200" xmlns="http://www.w3.org/2000/svg" width="400" height="400" id="face-svg"><defs><clipPath id="leftEyeClipPath"><polyline points="38.364940533811556,1.1014162679332813,38.50225869829294,0.628856584161638,38.58299498423205,0.1561903798640678,38.60722370632524,-0.31527695460487415,38.575140237895134,-0.7843027300089087,38.487056816310655,-1.2497057455908305,38.343398348407334,-1.7103650764332894,38.1446982159074,-2.1652188608196052,37.89159408083995,-2.613263087594543,37.584823690961194,-3.0535503835251347,37.225220685174534,-3.4851888006614438,36.81371039895078,-3.9073406036973886,36.35130566974835,-4.31922105733152,35.83910264243335,-4.720097213627831,35.27827657469985,-5.109286699376538,34.67007764248999,-5.486156503454893,34.17666090008258,-6.005349201996442,33.60464692919968,-6.504916365284105,32.95538262810208,-6.983337933502218,32.23069209181555,-7.439256159607332,31.432830502198797,-7.871470341222313,30.56443987461921,-8.27893154656518,29.628506627829523,-8.660737336827646,28.62832094363887,-9.016126487418443,27.56743788297161,-9.344473710486417,26.449640224907156,-9.645284381138485,25.278902995294196,-9.918189269767435,24.059359651532716,-10.162939282904635,22.79526989011707,-10.379400215012659,21.490989043533517,-10.567547513632915,20.1509390331055,-10.727461060303238,18.779580844380114,-10.85931996966054,17.381388491648956,-10.963397409143504,15.960824438196907,-11.040055441710411,14.522316438871963,-11.089739893987105,13.070235771569656,-11.1129752522601,11.608876824225275,-11.110359588729896,10.142438003907296,-11.082559520439592,8.675003934605371,-11.030305203293675,7.210528910306176,-10.954385363582208,5.752821569950508,-10.8556423694253,4.305530760864947,-10.734967344552992,2.8721325572614416,-10.593295326835502,1.4559184003981605,-10.431600473978978,0.05998432699493783,-10.250891318801681,-1.312778747503284,-10.052206076505685,-2.6596937242217837,-9.83660800635916,-3.9783050281166616,-9.605180830204173,-5.266385360607545,-9.359024210205165,-6.52194153098884,-9.099249288253034,-7.743219400026458,-8.826974289439924,-8.928707969146375,-8.543320192019705,-10.077142648621907,-8.249406466269235,-11.187507738166248,-7.946346884665372,-12.259038153336958,-7.6352454057928565,-13.291220431159031,-7.317192134397965,-14.283793048373242,-6.993259360003133,-15.236746085716396,-6.664497676497433,-16.15032027164009,-6.331932185118067,-17.025005438874764,-5.996558783237788,-17.861538427245655,-5.6593405413734,-18.660900466147076,-5.321204170830242,-19.424314070082204,-4.983036584397867,-20.153239480674394,-4.645681552511746,-20.849370688557165,-4.309936457296153,-21.514631068549335,-3.976549146903329,-22.14937377148737,-3.64467180801093,-22.752907187424576,-3.3132838542526084,-23.325793051856856,-2.9828195734296212,-23.868637869859818,-2.6536924424663324,-24.382088441983136,-2.3262948039681524,-24.866827390144962,-2.0009975427794613,-25.32356868352634,-1.678149762541568,-25.75305316446555,-1.3580784622506359,-26.15604407435253,-1.041088212815641,-26.53332257952333,-0.7274608336162949,-26.885683297154372,-0.41745506906099905,-27.21392982115696,-0.11130626514477271,-27.518870248071636,0.19077395399279506,-27.801312702962548,0.4885980095096141,-28.237090595918517,2.714082622611529,-27.98050366945477,2.9967608691895133,-27.711425309184435,3.2756084956325897,-27.42957299583756,3.550618599562286,-27.1346666141971,3.821789704260329,-26.826428818543548,4.089124986120817,-26.504585398099614,4.352631502102401,-26.1688656424748,4.612319417180465,-25.819002707110165,4.868201231799297,-25.45473397872285,5.120291009324283,-25.075801440750787,5.368603603494064,-24.681952038797355,5.613153885872732,-24.27293804607597,5.853955973301998,-23.848517428854777,6.091022455353378,-23.408454211901294,6.324363621780364,-22.95214050204369,6.55444587896084,-22.478620138806072,6.781704304598863,-21.987167264549164,7.0060864602760065,-21.477094629777305,7.227521396767055,-20.947755559256812,7.445919120868963,-20.39854587373849,7.661170100041095,-19.82890576455535,7.873144810625094,-19.238321618366967,8.081693335412753,-18.626327789321955,8.286645016330217,-17.992508315909667,8.487808168006907,-17.336498579772673,8.684969857997503,-16.6579869037513,8.877895759425341,-15.956716086431468,9.06633008181559,-15.232484870467408,9.249995585886563,-14.48514934195032,9.428593688067526,-13.7146242580946,9.601804660511336,-12.920884300512716,9.769287932370315,-12.103965251350322,9.930682498103648,-11.263965089552796,10.085607438584738,-10.401045004534572,10.233662560776798,-9.515430324522722,10.374429161745129,-8.607411356845931,10.507470922774324,-7.677344137440473,10.63233493935888,-6.725651086844248,10.748552892835468,-5.752821569950507,10.8556423694253,-4.759412356792378,10.953108332454889,-3.7460479816296903,11.040444753523595,-2.7134209976093526,11.117136408386314,-1.662292124270742,11.182660843319635,-0.5934902851672872,11.23649051773986,0.49208746712424833,11.27809512884123,1.5934761413355174,11.306944124022698,2.7096431159080367,11.32250940687163,3.839488568192941,11.324268242472787,4.981846027177706,11.311706367810917,6.135483052468551,11.284321313035374,7.299102042257067,11.241625939355036,8.471341172999832,11.183152199331971,9.650775473539602,11.108455125342134,10.835918036396741,11.017117051971496,12.025221368959585,10.908752078115945,13.217078887302312,10.783010774553318,14.409826555359048,10.639585142755909,15.601744672182841,10.478213830711855,16.791059810018126,10.298687611523697,17.97594690591535,10.100855130552503,19.154531509616483,9.884628926875926,20.32489219043991,9.649991734828525,21.48506310589351,9.3970030713927,22.633036734744493,9.12580611520866,23.616487676567345,8.917787965420043,24.590978586809662,8.696135934998468,25.55526315334623,8.460647989745643,26.508050672536662,8.211134893663129,27.448005466663197,7.947420826145971,28.37374630136849,7.669343999176366,29.28384580309347,7.37675727451731,30.176829876515136,7.069528780906248,31.051177121984345,6.747542531248727,31.905318252963674,6.410699039812058,32.73763551346523,6.058915939418953,33.5464620954884,5.69212859864119,34.33008155645776,5.310290738993261,35.08672723666083,4.913375052126024,35.814581676685876,4.501373817020361"></polyline></clipPath><clipPath id="rightEyeClipPath"><polyline points="-42.11205873460631,0.5439148227853323,-42.156180210006156,0.032311731306970515,-42.14861633991943,-0.4848960654679235,-42.0891689982483,-1.0054281376893641,-41.97777293981285,-1.5271219306630002,-41.81449135171671,-2.0479302641469737,-41.59951140471257,-2.565918831648787,-41.33313980456781,-3.0792636997221834,-41.015798343430035,-3.586248807263985,-40.64801945119271,-4.0852634648109785,-40.23044174686072,-4.57479985383678,-39.76380558991593,-5.053450526048696,-39.248948631682836,-5.519905902684595,-38.68680136669401,-5.972951773809768,-38.078382684055825,-6.411466797613802,-37.424795418813986,-6.8344199997074355,-36.891663522924915,-7.473811065696896,-36.2811019216076,-8.08358131064745,-35.59435125955156,-8.661622084174816,-34.83314601093974,-9.206115374921161,-33.9996667835926,-9.715519478192594,-33.09649455738938,-10.188554979173908,-32.126566821867954,-10.624191048541348,-31.093135577904246,-11.021632047294016,-29.999727168372427,-11.38030443762463,-28.850103902687014,-11.699843996650436,-27.64822744012792,-11.980083329824794,-26.398223896849704,-12.221039680850303,-25.104350641476096,-12.4229030349141,-23.770964744180898,-12.586024512066032,-22.402493044156433,-12.710905047560342,-21.00340380037069,-12.79818435598176,-19.578179890514214,-12.848630175976414,-18.13129352303801,-12.863127792408573,-16.66718242718343,-12.842669832763633,-15.190227485905314,-12.7883463346183,-13.7047317765894,-12.70133508099844,-12.214900984465261,-12.5828922004455,-10.724825153615761,-12.434343028612055,-9.238461740484277,-12.25707322820725,-7.759619934780749,-12.05252016411282,-6.29194621268773,-11.822164530490404,-4.8389110872675225,-11.567522226700806,-3.4037970209715915,-11.29013647885597,-1.9896874651533114,-10.991570203824342,-0.5994569914852832,-10.673398612510255,0.7642375198177973,-10.337202049228178,2.098964670069412,-9.984559063992386,3.4025253455736664,-9.617039714542845,4.6729585695786415,-9.236199094927944,5.908546437819648,-8.843571087464873,7.107818172751131,-8.44066233489822,8.269553331566172,-8.028946429577587,9.39278420310244,-7.609858316474876,10.476797428733462,-7.1847889068619875,11.521134882344029,-6.755079899469569,12.525593844488718,-6.322018805947563,13.490226505832268,-5.886834177448236,14.415338834970825,-5.450691029152422,15.301488845732738,-5.0146864595596075,16.149484299057963,-4.579845461362648,16.960379874554835,-4.147116920727727,17.735473846833102,-3.7173698018003503,18.476304301712112,-3.2913895132579807,19.184644927402896,-2.869874453730107,19.862500415763336,-2.453432732906375,20.510211416702617,-2.0412199274324863,21.127050419723222,-1.6323282944769666,21.71362598514006,-1.2271783853038354,22.27059064000868,-0.8261604496146031,22.798636177383884,-0.42963486134735795,23.298488955578332,-0.037932544475772545,23.770905197421254,0.34864460119178364,24.21666628951706,0.7298232742132384,24.636574081503955,1.1053583457137055,25.031446185312678,1.4750324335864589,25.40211127442498,1.838655476693865,25.749404383132482,2.196064309068328,26.07416220579513,2.5471222341132167,26.377218396099924,2.891718598803826,27.67814520744027,6.909982904150699,27.45878428098509,7.113184520336848,27.229358603481007,7.313285986176511,26.98957828022363,7.510226603430758,26.73914894575041,7.703947513436153,26.47777200619986,7.8943915512017115,26.20514488167097,8.081503099505884,25.920961248582362,8.26522794299352,25.62491128203168,8.445513122272835,25.316681898154787,8.622306788012402,24.995956996485123,8.795558055038097,24.662417702312954,8.96521685643008,24.31574260904463,9.131233797619775,23.95560802056193,9.293560010486825,23.581688193581325,9.452147007456078,23.193468756181755,9.607475786118219,22.790100400762775,9.759937134514223,22.370762186211362,9.90934769943363,21.93464680063904,10.055524383215571,21.4809632755452,10.198284246699764,21.00893970288472,10.337444414972456,20.517825953230112,10.472821986996758,20.00689639321865,10.604233950216704,19.47545260047487,10.731497101224543,18.92282607419876,10.854427973580568,18.34838093961013,10.972842773874994,17.751516644439455,11.086557327121202,17.131670645655603,11.19538703256982,16.488321084620843,11.299146831033038,15.820989448863525,11.39765118480854,15.129243218658793,11.490714071292498,14.412698496607693,11.57814899137101,13.671022618405157,11.659768993679405,12.903936742987103,11.735386715818823,12.111218420247162,11.804814443619474,11.292704134513368,11.867864189539995,10.448291821975168,11.924347791292295,9.57794336025118,11.974077031781324,8.681687028288025,12.016863781449162,7.759619934780748,12.052520164112819,6.81191041330502,12.080858747385191,5.838800382351653,12.101692758768564,4.840607668453757,12.114836328510048,3.8177282905969445,12.120104760308426,2.7706387041029377,12.11731483096172,1.6998980021769476,12.106285120044992,0.6061500733093297,12.086836370707708,-0.509874287278306,12.058791882680115,-1.6473553139519481,12.02197793857803,-2.805382256558728,11.976224264595453,-3.98295141770475,11.921364526674406,-5.17896424322681,11.857236863241418,-6.392225467667609,11.783684455600046,-7.6214413165641135,11.70055613706888,-8.865217767358649,11.607707041954388,-10.122058870742366,11.504999295448057,-11.390365134240653,11.392302745537217,-12.668431969850165,11.269495738018945,-13.954448207537038,11.13646593570651,-15.246494676405954,10.993111182917694,-16.542542855349616,10.839340416334453,-17.84045359498829,10.675074623323319,-19.137975912709024,10.500247848805929,-20.432745862614123,10.314808251769119,-21.72228548218858,10.118719212503969,-22.79650465955008,9.94720384079761,-23.8652332795603,9.765815774675952,-24.926984099538302,9.574266007915671,-25.980203339223788,9.372259481030698,-27.023269464376302,9.159495019273342,-28.054491970374453,8.935665270635429,-29.072110165815158,8.700456643849424,-30.07429195611281,8.453549246389565,-31.05913262709858,8.194616822472982,-32.024653628619575,7.923326691060836,-32.968801358138116,7.639339683859444,-33.88944594433087,7.342310083321404,-34.78438003068821,7.03188556064673,-35.65131755911328,6.707707113783975,-36.487892553521355,6.369409005431368"></polyline></clipPath><filter id="fuzzy"><feTurbulence id="turbulence" baseFrequency="0.05" numOctaves="3" type="noise" result="noise"></feTurbulence><feDisplacementMap in="SourceGraphic" in2="noise" scale="2"></feDisplacementMap></filter><linearGradient id="rainbowGradient" x1="0%" y1="0%" x2="100%" y2="0%"><stop offset="0%" style="stop-color: rgb(128, 128, 128);  stop-opacity: 1"></stop><stop offset="50%" style="stop-color: rgb(192, 192, 192);  stop-opacity: 1"></stop><stop offset="100%" style="stop-color: rgb(64, 224, 208);  stop-opacity: 1"></stop></linearGradient></defs><title>That&#39;s an ugly face</title><desc>CREATED BY XUAN TANG, MORE INFO AT TXSTC55.GITHUB.IO</desc><rect x="-100" y="-100" width="100%" height="100%" opacity="1" fill="rgb(139, 0, 0)"></rect><polyline id="faceContour" points="81,0,81,1,81,3,81,5,81,6,80,8,81,9,81,9,81,10,80,12,80,14,80,15,80,18,79,18,79,18,78,21,78,23,78,22,78,26,77,26,77,29,76,28,76,30,76,30,75,33,74,35,74,35,73,37,72,40,72,40,72,40,71,42,71,42,70,45,69,45,69,47,67,49,67,49,66,51,65,53,64,54,63,55,64,54,63,55,62,56,60,59,60,60,59,60,59,61,58,63,57,63,55,65,55,65,53,67,52,68,53,67,51,70,48,71,47,72,49,71,48,72,47,73,45,74,44,75,43,76,42,77,40,78,40,78,39,79,37,80,36,80,37,80,32,83,33,83,32,83,29,84,31,84,27,85,27,85,26,86,25,86,23,87,21,87,21,88,19,88,18,89,17,89,16,89,15,89,13,90,11,90,12,90,11,90,10,91,8,91,5,91,5,91,2,92,2,92,2,91,0,92,-1,92,-2,92,-4,92,-4,91,-5,92,-7,91,-9,92,-10,91,-12,91,-11,91,-13,91,-16,90,-16,90,-18,90,-19,89,-21,89,-21,89,-23,88,-23,88,-23,88,-26,88,-27,87,-26,87,-28,86,-32,85,-31,85,-31,85,-35,83,-35,83,-35,83,-37,82,-38,81,-40,80,-41,80,-40,81,-44,78,-44,78,-46,77,-45,77,-47,75,-48,74,-48,74,-50,73,-50,73,-51,72,-53,70,-54,69,-54,68,-54,68,-56,66,-57,66,-59,64,-58,64,-59,63,-61,60,-62,59,-62,59,-64,57,-63,57,-64,55,-65,55,-66,54,-67,52,-67,50,-68,50,-69,47,-70,47,-70,45,-71,43,-72,42,-73,40,-72,40,-73,39,-74,37,-75,35,-75,35,-75,34,-76,31,-75,33,-77,28,-77,26,-77,26,-78,23,-79,22,-79,22,-79,19,-79,19,-79,20,-80,16,-80,14,-80,11,-81,12,-81,10,-80,10,-81,9,-81,6,-81,5,-81,3,-81,0,-81,0,-81,-1,-81,-4,-81,-4,-81,-6,-81,-9,-81,-9,-81,-10,-81,-12,-81,-11,-80,-16,-81,-15,-80,-17,-80,-21,-80,-20,-80,-23,-79,-25,-79,-24,-78,-27,-78,-29,-78,-29,-78,-29,-77,-33,-76,-34,-77,-34,-76,-35,-75,-38,-75,-39,-75,-40,-74,-42,-74,-43,-72,-46,-72,-45,-72,-45,-71,-48,-70,-49,-69,-52,-69,-50,-68,-53,-69,-52,-67,-54,-67,-55,-65,-57,-65,-57,-63,-60,-63,-60,-62,-62,-61,-64,-61,-63,-60,-65,-58,-66,-58,-67,-57,-68,-56,-69,-56,-69,-54,-71,-53,-72,-52,-73,-50,-74,-50,-74,-48,-76,-48,-76,-47,-77,-45,-78,-45,-79,-44,-78,-43,-79,-42,-81,-42,-80,-39,-82,-38,-83,-37,-83,-36,-84,-35,-84,-32,-86,-31,-86,-30,-86,-32,-86,-29,-87,-28,-87,-25,-88,-23,-89,-24,-89,-23,-89,-20,-90,-19,-90,-20,-90,-17,-90,-17,-90,-15,-91,-14,-91,-13,-91,-10,-91,-10,-91,-8,-91,-8,-91,-7,-92,-4,-92,-1,-92,-1,-92,1,-92,0,-92,4,-91,3,-92,5,-92,6,-91,7,-91,9,-91,9,-91,13,-90,13,-90,16,-90,14,-90,17,-89,20,-88,19,-89,23,-88,22,-88,24,-87,25,-87,25,-86,28,-86,28,-85,31,-84,32,-83,34,-83,33,-84,33,-83,36,-82,37,-81,39,-80,39,-80,40,-79,42,-79,42,-78,43,-78,43,-77,46,-75,46,-75,47,-74,47,-74,49,-73,51,-71,52,-70,54,-69,54,-68,54,-68,56,-67,56,-67,57,-66,58,-64,59,-63,60,-62,62,-60,62,-59,64,-57,63,-58,65,-55,65,-54,66,-54,67,-54,67,-52,68,-51,69,-48,70,-48,70,-47,71,-46,71,-44,73,-43,73,-41,73,-42,74,-39,74,-38,74,-39,76,-34,76,-34,77,-32,77,-30,77,-29,78,-29,78,-28,78,-27,79,-24,79,-24,79,-24,80,-20,79,-22,80,-18,80,-16,81,-16,81,-14,81,-13,81,-11,81,-9,81,-10,81,-7,81,-5,81,-5,81,-2,81,-2,81,0,81,1" fill="#ffc9a9" stroke="black" stroke-width="1.6666666666666665" stroke-linejoin="round" filter="url(#fuzzy)"></polyline><g transform="translate(49.87398297963546 -29.966183761684995)"><polyline id="rightCountour" points="-42.11205873460631,0.5439148227853323,-42.156180210006156,0.032311731306970515,-42.14861633991943,-0.4848960654679235,-42.0891689982483,-1.0054281376893641,-41.97777293981285,-1.5271219306630002,-41.81449135171671,-2.0479302641469737,-41.59951140471257,-2.565918831648787,-41.33313980456781,-3.0792636997221834,-41.015798343430035,-3.586248807263985,-40.64801945119271,-4.0852634648109785,-40.23044174686072,-4.57479985383678,-39.76380558991593,-5.053450526048696,-39.248948631682836,-5.519905902684595,-38.68680136669401,-5.972951773809768,-38.078382684055825,-6.411466797613802,-37.424795418813986,-6.8344199997074355,-36.891663522924915,-7.473811065696896,-36.2811019216076,-8.08358131064745,-35.59435125955156,-8.661622084174816,-34.83314601093974,-9.206115374921161,-33.9996667835926,-9.715519478192594,-33.09649455738938,-10.188554979173908,-32.126566821867954,-10.624191048541348,-31.093135577904246,-11.021632047294016,-29.999727168372427,-11.38030443762463,-28.850103902687014,-11.699843996650436,-27.64822744012792,-11.980083329824794,-26.398223896849704,-12.221039680850303,-25.104350641476096,-12.4229030349141,-23.770964744180898,-12.586024512066032,-22.402493044156433,-12.710905047560342,-21.00340380037069,-12.79818435598176,-19.578179890514214,-12.848630175976414,-18.13129352303801,-12.863127792408573,-16.66718242718343,-12.842669832763633,-15.190227485905314,-12.7883463346183,-13.7047317765894,-12.70133508099844,-12.214900984465261,-12.5828922004455,-10.724825153615761,-12.434343028612055,-9.238461740484277,-12.25707322820725,-7.759619934780749,-12.05252016411282,-6.29194621268773,-11.822164530490404,-4.8389110872675225,-11.567522226700806,-3.4037970209715915,-11.29013647885597,-1.9896874651533114,-10.991570203824342,-0.5994569914852832,-10.673398612510255,0.7642375198177973,-10.337202049228178,2.098964670069412,-9.984559063992386,3.4025253455736664,-9.617039714542845,4.6729585695786415,-9.236199094927944,5.908546437819648,-8.843571087464873,7.107818172751131,-8.44066233489822,8.269553331566172,-8.028946429577587,9.39278420310244,-7.609858316474876,10.476797428733462,-7.1847889068619875,11.521134882344029,-6.755079899469569,12.525593844488718,-6.322018805947563,13.490226505832268,-5.886834177448236,14.415338834970825,-5.450691029152422,15.301488845732738,-5.0146864595596075,16.149484299057963,-4.579845461362648,16.960379874554835,-4.147116920727727,17.735473846833102,-3.7173698018003503,18.476304301712112,-3.2913895132579807,19.184644927402896,-2.869874453730107,19.862500415763336,-2.453432732906375,20.510211416702617,-2.0412199274324863,21.127050419723222,-1.6323282944769666,21.71362598514006,-1.2271783853038354,22.27059064000868,-0.8261604496146031,22.798636177383884,-0.42963486134735795,23.298488955578332,-0.037932544475772545,23.770905197421254,0.34864460119178364,24.21666628951706,0.7298232742132384,24.636574081503955,1.1053583457137055,25.031446185312678,1.4750324335864589,25.40211127442498,1.838655476693865,25.749404383132482,2.196064309068328,26.07416220579513,2.5471222341132167,26.377218396099924,2.891718598803826,27.67814520744027,6.909982904150699,27.45878428098509,7.113184520336848,27.229358603481007,7.313285986176511,26.98957828022363,7.510226603430758,26.73914894575041,7.703947513436153,26.47777200619986,7.8943915512017115,26.20514488167097,8.081503099505884,25.920961248582362,8.26522794299352,25.62491128203168,8.445513122272835,25.316681898154787,8.622306788012402,24.995956996485123,8.795558055038097,24.662417702312954,8.96521685643008,24.31574260904463,9.131233797619775,23.95560802056193,9.293560010486825,23.581688193581325,9.452147007456078,23.193468756181755,9.607475786118219,22.790100400762775,9.759937134514223,22.370762186211362,9.90934769943363,21.93464680063904,10.055524383215571,21.4809632755452,10.198284246699764,21.00893970288472,10.337444414972456,20.517825953230112,10.472821986996758,20.00689639321865,10.604233950216704,19.47545260047487,10.731497101224543,18.92282607419876,10.854427973580568,18.34838093961013,10.972842773874994,17.751516644439455,11.086557327121202,17.131670645655603,11.19538703256982,16.488321084620843,11.299146831033038,15.820989448863525,11.39765118480854,15.129243218658793,11.490714071292498,14.412698496607693,11.57814899137101,13.671022618405157,11.659768993679405,12.903936742987103,11.735386715818823,12.111218420247162,11.804814443619474,11.292704134513368,11.867864189539995,10.448291821975168,11.924347791292295,9.57794336025118,11.974077031781324,8.681687028288025,12.016863781449162,7.759619934780748,12.052520164112819,6.81191041330502,12.080858747385191,5.838800382351653,12.101692758768564,4.840607668453757,12.114836328510048,3.8177282905969445,12.120104760308426,2.7706387041029377,12.11731483096172,1.6998980021769476,12.106285120044992,0.6061500733093297,12.086836370707708,-0.509874287278306,12.058791882680115,-1.6473553139519481,12.02197793857803,-2.805382256558728,11.976224264595453,-3.98295141770475,11.921364526674406,-5.17896424322681,11.857236863241418,-6.392225467667609,11.783684455600046,-7.6214413165641135,11.70055613706888,-8.865217767358649,11.607707041954388,-10.122058870742366,11.504999295448057,-11.390365134240653,11.392302745537217,-12.668431969850165,11.269495738018945,-13.954448207537038,11.13646593570651,-15.246494676405954,10.993111182917694,-16.542542855349616,10.839340416334453,-17.84045359498829,10.675074623323319,-19.137975912709024,10.500247848805929,-20.432745862614123,10.314808251769119,-21.72228548218858,10.118719212503969,-22.79650465955008,9.94720384079761,-23.8652332795603,9.765815774675952,-24.926984099538302,9.574266007915671,-25.980203339223788,9.372259481030698,-27.023269464376302,9.159495019273342,-28.054491970374453,8.935665270635429,-29.072110165815158,8.700456643849424,-30.07429195611281,8.453549246389565,-31.05913262709858,8.194616822472982,-32.024653628619575,7.923326691060836,-32.968801358138116,7.639339683859444,-33.88944594433087,7.342310083321404,-34.78438003068821,7.03188556064673,-35.65131755911328,6.707707113783975,-36.487892553521355,6.369409005431368" fill="white" stroke="white" stroke-width="0" stroke-linejoin="round" filter="url(#fuzzy)"></polyline></g><g transform="translate(-32.68965744615749 -30.24521096816696)"><polyline id="leftCountour" points="38.364940533811556,1.1014162679332813,38.50225869829294,0.628856584161638,38.58299498423205,0.1561903798640678,38.60722370632524,-0.31527695460487415,38.575140237895134,-0.7843027300089087,38.487056816310655,-1.2497057455908305,38.343398348407334,-1.7103650764332894,38.1446982159074,-2.1652188608196052,37.89159408083995,-2.613263087594543,37.584823690961194,-3.0535503835251347,37.225220685174534,-3.4851888006614438,36.81371039895078,-3.9073406036973886,36.35130566974835,-4.31922105733152,35.83910264243335,-4.720097213627831,35.27827657469985,-5.109286699376538,34.67007764248999,-5.486156503454893,34.17666090008258,-6.005349201996442,33.60464692919968,-6.504916365284105,32.95538262810208,-6.983337933502218,32.23069209181555,-7.439256159607332,31.432830502198797,-7.871470341222313,30.56443987461921,-8.27893154656518,29.628506627829523,-8.660737336827646,28.62832094363887,-9.016126487418443,27.56743788297161,-9.344473710486417,26.449640224907156,-9.645284381138485,25.278902995294196,-9.918189269767435,24.059359651532716,-10.162939282904635,22.79526989011707,-10.379400215012659,21.490989043533517,-10.567547513632915,20.1509390331055,-10.727461060303238,18.779580844380114,-10.85931996966054,17.381388491648956,-10.963397409143504,15.960824438196907,-11.040055441710411,14.522316438871963,-11.089739893987105,13.070235771569656,-11.1129752522601,11.608876824225275,-11.110359588729896,10.142438003907296,-11.082559520439592,8.675003934605371,-11.030305203293675,7.210528910306176,-10.954385363582208,5.752821569950508,-10.8556423694253,4.305530760864947,-10.734967344552992,2.8721325572614416,-10.593295326835502,1.4559184003981605,-10.431600473978978,0.05998432699493783,-10.250891318801681,-1.312778747503284,-10.052206076505685,-2.6596937242217837,-9.83660800635916,-3.9783050281166616,-9.605180830204173,-5.266385360607545,-9.359024210205165,-6.52194153098884,-9.099249288253034,-7.743219400026458,-8.826974289439924,-8.928707969146375,-8.543320192019705,-10.077142648621907,-8.249406466269235,-11.187507738166248,-7.946346884665372,-12.259038153336958,-7.6352454057928565,-13.291220431159031,-7.317192134397965,-14.283793048373242,-6.993259360003133,-15.236746085716396,-6.664497676497433,-16.15032027164009,-6.331932185118067,-17.025005438874764,-5.996558783237788,-17.861538427245655,-5.6593405413734,-18.660900466147076,-5.321204170830242,-19.424314070082204,-4.983036584397867,-20.153239480674394,-4.645681552511746,-20.849370688557165,-4.309936457296153,-21.514631068549335,-3.976549146903329,-22.14937377148737,-3.64467180801093,-22.752907187424576,-3.3132838542526084,-23.325793051856856,-2.9828195734296212,-23.868637869859818,-2.6536924424663324,-24.382088441983136,-2.3262948039681524,-24.866827390144962,-2.0009975427794613,-25.32356868352634,-1.678149762541568,-25.75305316446555,-1.3580784622506359,-26.15604407435253,-1.041088212815641,-26.53332257952333,-0.7274608336162949,-26.885683297154372,-0.41745506906099905,-27.21392982115696,-0.11130626514477271,-27.518870248071636,0.19077395399279506,-27.801312702962548,0.4885980095096141,-28.237090595918517,2.714082622611529,-27.98050366945477,2.9967608691895133,-27.711425309184435,3.2756084956325897,-27.42957299583756,3.550618599562286,-27.1346666141971,3.821789704260329,-26.826428818543548,4.089124986120817,-26.504585398099614,4.352631502102401,-26.1688656424748,4.612319417180465,-25.819002707110165,4.868201231799297,-25.45473397872285,5.120291009324283,-25.075801440750787,5.368603603494064,-24.681952038797355,5.613153885872732,-24.27293804607597,5.853955973301998,-23.848517428854777,6.091022455353378,-23.408454211901294,6.324363621780364,-22.95214050204369,6.55444587896084,-22.478620138806072,6.781704304598863,-21.987167264549164,7.0060864602760065,-21.477094629777305,7.227521396767055,-20.947755559256812,7.445919120868963,-20.39854587373849,7.661170100041095,-19.82890576455535,7.873144810625094,-19.238321618366967,8.081693335412753,-18.626327789321955,8.286645016330217,-17.992508315909667,8.487808168006907,-17.336498579772673,8.684969857997503,-16.6579869037513,8.877895759425341,-15.956716086431468,9.06633008181559,-15.232484870467408,9.249995585886563,-14.48514934195032,9.428593688067526,-13.7146242580946,9.601804660511336,-12.920884300512716,9.769287932370315,-12.103965251350322,9.930682498103648,-11.263965089552796,10.085607438584738,-10.401045004534572,10.233662560776798,-9.515430324522722,10.374429161745129,-8.607411356845931,10.507470922774324,-7.677344137440473,10.63233493935888,-6.725651086844248,10.748552892835468,-5.752821569950507,10.8556423694253,-4.759412356792378,10.953108332454889,-3.7460479816296903,11.040444753523595,-2.7134209976093526,11.117136408386314,-1.662292124270742,11.182660843319635,-0.5934902851672872,11.23649051773986,0.49208746712424833,11.27809512884123,1.5934761413355174,11.306944124022698,2.7096431159080367,11.32250940687163,3.839488568192941,11.324268242472787,4.981846027177706,11.311706367810917,6.135483052468551,11.284321313035374,7.299102042257067,11.241625939355036,8.471341172999832,11.183152199331971,9.650775473539602,11.108455125342134,10.835918036396741,11.017117051971496,12.025221368959585,10.908752078115945,13.217078887302312,10.783010774553318,14.409826555359048,10.639585142755909,15.601744672182841,10.478213830711855,16.791059810018126,10.298687611523697,17.97594690591535,10.100855130552503,19.154531509616483,9.884628926875926,20.32489219043991,9.649991734828525,21.48506310589351,9.3970030713927,22.633036734744493,9.12580611520866,23.616487676567345,8.917787965420043,24.590978586809662,8.696135934998468,25.55526315334623,8.460647989745643,26.508050672536662,8.211134893663129,27.448005466663197,7.947420826145971,28.37374630136849,7.669343999176366,29.28384580309347,7.37675727451731,30.176829876515136,7.069528780906248,31.051177121984345,6.747542531248727,31.905318252963674,6.410699039812058,32.73763551346523,6.058915939418953,33.5464620954884,5.69212859864119,34.33008155645776,5.310290738993261,35.08672723666083,4.913375052126024,35.814581676685876,4.501373817020361" fill="white" stroke="white" stroke-width="0" stroke-linejoin="round" filter="url(#fuzzy)"></polyline></g><g transform="translate(49.87398297963546 -29.966183761684995)"><polyline id="rightUpper" points="-38.97565374279536,4.760705235314604,-39.493317162126296,4.458293375529777,-39.96956364700722,4.120439223699523,-40.40262158726797,3.7507394999024815,-40.790896740000505,3.3526480420303253,-41.132967780924474,2.929478306490889,-41.42758185575285,2.484405868911314,-41.67365013155741,2.0204709248411667,-41.870243348134395,1.5405807904555902,-42.01658736937007,1.0475124032584198,-42.11205873460631,0.5439148227853323,-42.156180210006156,0.032311731306970515,-42.14861633991943,-0.4848960654679235,-42.0891689982483,-1.0054281376893641,-41.97777293981285,-1.5271219306630002,-41.81449135171671,-2.0479302641469737,-41.59951140471257,-2.565918831648787,-41.33313980456781,-3.0792636997221834,-41.015798343430035,-3.586248807263985,-40.64801945119271,-4.0852634648109785,-40.23044174686072,-4.57479985383678,-39.76380558991593,-5.053450526048696,-39.248948631682836,-5.519905902684595,-38.68680136669401,-5.972951773809768,-38.078382684055825,-6.411466797613802,-37.424795418813986,-6.8344199997074355,-36.891663522924915,-7.473811065696896,-36.2811019216076,-8.08358131064745,-35.59435125955156,-8.661622084174816,-34.83314601093974,-9.206115374921161,-33.9996667835926,-9.715519478192594,-33.09649455738938,-10.188554979173908,-32.126566821867954,-10.624191048541348,-31.093135577904246,-11.021632047294016,-29.999727168372427,-11.38030443762463,-28.850103902687014,-11.699843996650436,-27.64822744012792,-11.980083329824794,-26.398223896849704,-12.221039680850303,-25.104350641476096,-12.4229030349141,-23.770964744180898,-12.586024512066032,-22.402493044156433,-12.710905047560342,-21.00340380037069,-12.79818435598176,-19.578179890514214,-12.848630175976414,-18.13129352303801,-12.863127792408573,-16.66718242718343,-12.842669832763633,-15.190227485905314,-12.7883463346183,-13.7047317765894,-12.70133508099844,-12.214900984465261,-12.5828922004455,-10.724825153615761,-12.434343028612055,-9.238461740484277,-12.25707322820725,-7.759619934780749,-12.05252016411282,-6.29194621268773,-11.822164530490404,-4.8389110872675225,-11.567522226700806,-3.4037970209715915,-11.29013647885597,-1.9896874651533114,-10.991570203824342,-0.5994569914852832,-10.673398612510255,0.7642375198177973,-10.337202049228178,2.098964670069412,-9.984559063992386,3.4025253455736664,-9.617039714542845,4.6729585695786415,-9.236199094927944,5.908546437819648,-8.843571087464873,7.107818172751131,-8.44066233489822,8.269553331566172,-8.028946429577587,9.39278420310244,-7.609858316474876,10.476797428733462,-7.1847889068619875,11.521134882344029,-6.755079899469569,12.525593844488718,-6.322018805947563,13.490226505832268,-5.886834177448236,14.415338834970825,-5.450691029152422,15.301488845732738,-5.0146864595596075,16.149484299057963,-4.579845461362648,16.960379874554835,-4.147116920727727,17.735473846833102,-3.7173698018003503,18.476304301712112,-3.2913895132579807,19.184644927402896,-2.869874453730107,19.862500415763336,-2.453432732906375,20.510211416702617,-2.0412199274324863,21.127050419723222,-1.6323282944769666,21.71362598514006,-1.2271783853038354,22.27059064000868,-0.8261604496146031,22.798636177383884,-0.42963486134735795,23.298488955578332,-0.037932544475772545,23.770905197421254,0.34864460119178364,24.21666628951706,0.7298232742132384,24.636574081503955,1.1053583457137055,25.031446185312678,1.4750324335864589,25.40211127442498,1.838655476693865,25.749404383132482,2.196064309068328,26.07416220579513,2.5471222341132167,26.377218396099924,2.891718598803826,26.659398866319574,3.2297683678882985,26.92151708657111,3.561211698088581,27.164369384074515,3.886013512301356,27.388730242411423,4.204163073798985,27.59534760078372,4.515673560430453,27.784938153272183,4.820581638822308,27.958182648095164,5.118947038579595,28.115721186867173,5.41085212648681,28.258148523857574,5.696401480708827,28.386009365249226,5.975721464991851" fill="none" stroke="black" stroke-width="1.6666666666666665" stroke-linejoin="round" filter="url(#fuzzy)"></polyline><polyline id="rightLower" points="-42.60361179229844,2.124444507846704,-42.21924250662123,2.6255808669609975,-41.776187828572546,3.108556113047868,-41.27767981615918,3.573806745850306,-40.72685844539215,4.021761909872265,-40.12677282668765,4.452843456377523,-39.48038242126766,4.867466005388559,-38.79055825756082,5.266037007685426,-38.060084147603185,5.648956806804614,-37.29165790343896,6.016618701037931,-36.487892553521355,6.369409005431368,-35.65131755911328,6.707707113783975,-34.78438003068821,7.03188556064673,-33.88944594433087,7.342310083321404,-32.968801358138116,7.639339683859444,-32.024653628619575,7.923326691060836,-31.05913262709858,8.194616822472982,-30.07429195611281,8.453549246389565,-29.072110165815158,8.700456643849424,-28.054491970374453,8.935665270635429,-27.023269464376302,9.159495019273342,-25.980203339223788,9.372259481030698,-24.926984099538302,9.574266007915671,-23.8652332795603,9.765815774675952,-22.79650465955008,9.94720384079761,-21.72228548218858,10.118719212503969,-20.432745862614123,10.314808251769119,-19.137975912709024,10.500247848805929,-17.84045359498829,10.675074623323319,-16.542542855349616,10.839340416334453,-15.246494676405954,10.993111182917694,-13.954448207537038,11.13646593570651,-12.668431969850165,11.269495738018945,-11.390365134240653,11.392302745537217,-10.122058870742366,11.504999295448057,-8.865217767358649,11.607707041954388,-7.6214413165641135,11.70055613706888,-6.392225467667609,11.783684455600046,-5.17896424322681,11.857236863241418,-3.98295141770475,11.921364526674406,-2.805382256558728,11.976224264595453,-1.6473553139519481,12.02197793857803,-0.509874287278306,12.058791882680115,0.6061500733093297,12.086836370707708,1.6998980021769476,12.106285120044992,2.7706387041029377,12.11731483096172,3.8177282905969445,12.120104760308426,4.840607668453757,12.114836328510048,5.838800382351653,12.101692758768564,6.81191041330502,12.080858747385191,7.759619934780748,12.052520164112819,8.681687028288025,12.016863781449162,9.57794336025118,11.974077031781324,10.448291821975168,11.924347791292295,11.292704134513368,11.867864189539995,12.111218420247162,11.804814443619474,12.903936742987103,11.735386715818823,13.671022618405157,11.659768993679405,14.412698496607693,11.57814899137101,15.129243218658793,11.490714071292498,15.820989448863525,11.39765118480854,16.488321084620843,11.299146831033038,17.131670645655603,11.19538703256982,17.751516644439455,11.086557327121202,18.34838093961013,10.972842773874994,18.92282607419876,10.854427973580568,19.47545260047487,10.731497101224543,20.00689639321865,10.604233950216704,20.517825953230112,10.472821986996758,21.00893970288472,10.337444414972456,21.4809632755452,10.198284246699764,21.93464680063904,10.055524383215571,22.370762186211362,9.90934769943363,22.790100400762775,9.759937134514223,23.193468756181755,9.607475786118219,23.581688193581325,9.452147007456078,23.95560802056193,9.293560010486825,24.31574260904463,9.131233797619775,24.662417702312954,8.96521685643008,24.995956996485123,8.795558055038097,25.316681898154787,8.622306788012402,25.62491128203168,8.445513122272835,25.920961248582362,8.26522794299352,26.20514488167097,8.081503099505884,26.47777200619986,7.8943915512017115,26.73914894575041,7.703947513436153,26.98957828022363,7.510226603430758,27.229358603481007,7.313285986176511,27.45878428098509,7.113184520336848,27.67814520744027,6.909982904150699,27.887726564433525,6.703743821335506,28.087808578075073,6.494532086990258,28.278666276639097,6.282414793498518,28.46056924820451,6.0674614564314515,28.633781398295614,5.849744160450859,28.798560707522835,5.629337705212198,28.955158989223467,5.406319751267613,29.103821647102333,5.180770965968975,29.244787432872517,4.9527751693708995,29.37828820389613,4.722419480133776" fill="none" stroke="black" stroke-width="2.2222222222222223" stroke-linejoin="round" filter="url(#fuzzy)"></polyline><!--[--><circle r="4.4166463106310365" cx="-31.35683076417609" cy="-1.7600035447256244" stroke="black" fill="none" stroke-width="1" filter="url(#fuzzy)" clip-path="url(#rightEyeClipPath)"></circle><circle r="3.217968335686574" cx="-31.946316435371386" cy="-1.4837699883754683" stroke="black" fill="none" stroke-width="1" filter="url(#fuzzy)" clip-path="url(#rightEyeClipPath)"></circle><circle r="4.682427668005111" cx="-31.59959620543877" cy="-2.1932075753288487" stroke="black" fill="none" stroke-width="1" filter="url(#fuzzy)" clip-path="url(#rightEyeClipPath)"></circle><circle r="3.0284541186952585" cx="-33.034191946522924" cy="-4.654718540237223" stroke="black" fill="none" stroke-width="1" filter="url(#fuzzy)" clip-path="url(#rightEyeClipPath)"></circle><circle r="3.5499735942531303" cx="-32.17735883810809" cy="-4.087462591949912" stroke="black" fill="none" stroke-width="1" filter="url(#fuzzy)" clip-path="url(#rightEyeClipPath)"></circle><circle r="3.2989163589977646" cx="-32.283635558077606" cy="-5.209696409144907" stroke="black" fill="none" stroke-width="1" filter="url(#fuzzy)" clip-path="url(#rightEyeClipPath)"></circle><circle r="4.4974636467711155" cx="-32.04081269321839" cy="-1.8992214846033502" stroke="black" fill="none" stroke-width="1" filter="url(#fuzzy)" clip-path="url(#rightEyeClipPath)"></circle><circle r="3.8843399491835995" cx="-28.901481561517215" cy="-3.342497483862052" stroke="black" fill="none" stroke-width="1" filter="url(#fuzzy)" clip-path="url(#rightEyeClipPath)"></circle><circle r="4.0449850176767" cx="-30.231529426893523" cy="-3.7883333389885117" stroke="black" fill="none" stroke-width="1" filter="url(#fuzzy)" clip-path="url(#rightEyeClipPath)"></circle><circle r="4.265119659351417" cx="-30.9088000685257" cy="-0.9786115173186793" stroke="black" fill="none" stroke-width="1" filter="url(#fuzzy)" clip-path="url(#rightEyeClipPath)"></circle><!--]--></g><g transform="translate(-32.68965744615749 -30.24521096816696)"><polyline id="leftUpper" points="33.9583608025242,5.486709595470742,34.635953038386035,5.101672869509683,35.263801280745554,4.699760377347257,35.84053855614648,4.2829712156769775,36.364960895557005,3.853229653682037,36.83602313979001,3.412386345674522,37.252834744923234,2.96221954373461,37.6146555877194,2.504436310349777,37.920891771046406,2.0406737310540035,38.171091429297526,1.5725001270669732,38.364940533811556,1.1014162679332813,38.50225869829294,0.628856584161638,38.58299498423205,0.1561903798640678,38.60722370632524,-0.31527695460487415,38.575140237895134,-0.7843027300089087,38.487056816310655,-1.2497057455908305,38.343398348407334,-1.7103650764332894,38.1446982159074,-2.1652188608196052,37.89159408083995,-2.613263087594543,37.584823690961194,-3.0535503835251347,37.225220685174534,-3.4851888006614438,36.81371039895078,-3.9073406036973886,36.35130566974835,-4.31922105733152,35.83910264243335,-4.720097213627831,35.27827657469985,-5.109286699376538,34.67007764248999,-5.486156503454893,34.17666090008258,-6.005349201996442,33.60464692919968,-6.504916365284105,32.95538262810208,-6.983337933502218,32.23069209181555,-7.439256159607332,31.432830502198797,-7.871470341222313,30.56443987461921,-8.27893154656518,29.628506627829523,-8.660737336827646,28.62832094363887,-9.016126487418443,27.56743788297161,-9.344473710486417,26.449640224907156,-9.645284381138485,25.278902995294196,-9.918189269767435,24.059359651532716,-10.162939282904635,22.79526989011707,-10.379400215012659,21.490989043533517,-10.567547513632915,20.1509390331055,-10.727461060303238,18.779580844380114,-10.85931996966054,17.381388491648956,-10.963397409143504,15.960824438196907,-11.040055441710411,14.522316438871963,-11.089739893987105,13.070235771569656,-11.1129752522601,11.608876824225275,-11.110359588729896,10.142438003907296,-11.082559520439592,8.675003934605371,-11.030305203293675,7.210528910306176,-10.954385363582208,5.752821569950508,-10.8556423694253,4.305530760864947,-10.734967344552992,2.8721325572614416,-10.593295326835502,1.4559184003981605,-10.431600473978978,0.05998432699493783,-10.250891318801681,-1.312778747503284,-10.052206076505685,-2.6596937242217837,-9.83660800635916,-3.9783050281166616,-9.605180830204173,-5.266385360607545,-9.359024210205165,-6.52194153098884,-9.099249288253034,-7.743219400026458,-8.826974289439924,-8.928707969146375,-8.543320192019705,-10.077142648621907,-8.249406466269235,-11.187507738166248,-7.946346884665372,-12.259038153336958,-7.6352454057928565,-13.291220431159031,-7.317192134397965,-14.283793048373242,-6.993259360003133,-15.236746085716396,-6.664497676497433,-16.15032027164009,-6.331932185118067,-17.025005438874764,-5.996558783237788,-17.861538427245655,-5.6593405413734,-18.660900466147076,-5.321204170830242,-19.424314070082204,-4.983036584397867,-20.153239480674394,-4.645681552511746,-20.849370688557165,-4.309936457296153,-21.514631068549335,-3.976549146903329,-22.14937377148737,-3.64467180801093,-22.752907187424576,-3.3132838542526084,-23.325793051856856,-2.9828195734296212,-23.868637869859818,-2.6536924424663324,-24.382088441983136,-2.3262948039681524,-24.866827390144962,-2.0009975427794613,-25.32356868352634,-1.678149762541568,-25.75305316446555,-1.3580784622506359,-26.15604407435253,-1.041088212815641,-26.53332257952333,-0.7274608336162949,-26.885683297154372,-0.41745506906099905,-27.21392982115696,-0.11130626514477271,-27.518870248071636,0.19077395399279506,-27.801312702962548,0.4885980095096141,-28.0620608653119,0.7820026913031466,-28.301909494914284,1.070849481452469,-28.521639957771114,1.3550248776603322,-28.722015751985026,1.6344407166952175,-28.903778033654227,1.909034497833399,-29.067641142766945,2.178769706301009,-29.214288129095777,2.4436361367160835,-29.344366278092096,2.7036502165306335,-29.45848263678048,2.9588553294726974,-29.557199539653062,3.209322138988407" fill="none" stroke="black" stroke-width="2.2222222222222223" stroke-linejoin="round" filter="url(#fuzzy)"></polyline><polyline id="leftLower" points="41.07227872212824,-0.4348017486998401,40.743889417319444,0.12372911877580872,40.3656121310774,0.6683103135764785,39.939804360726235,1.1987197377702001,39.46876697826902,1.7147610526915469,38.954744812949926,2.2162630617479895,38.39992723381647,2.703079093226238,37.80644873228156,3.1750863830985914,37.17638950468585,3.63218545782928,36.51177603485978,4.074299517180822,35.814581676685876,4.501373817020361,35.08672723666083,4.913375052126024,34.33008155645776,5.310290738993261,33.5464620954884,5.69212859864119,32.73763551346523,6.058915939418953,31.905318252963674,6.410699039812058,31.051177121984345,6.747542531248727,30.176829876515136,7.069528780906248,29.28384580309347,7.37675727451731,28.37374630136849,7.669343999176366,27.448005466663197,7.947420826145971,26.508050672536662,8.211134893663129,25.55526315334623,8.460647989745643,24.590978586809662,8.696135934998468,23.616487676567345,8.917787965420043,22.633036734744493,9.12580611520866,21.48506310589351,9.3970030713927,20.32489219043991,9.649991734828525,19.154531509616483,9.884628926875926,17.97594690591535,10.100855130552503,16.791059810018126,10.298687611523697,15.601744672182841,10.478213830711855,14.409826555359048,10.639585142755909,13.217078887302312,10.783010774553318,12.025221368959585,10.908752078115945,10.835918036396741,11.017117051971496,9.650775473539602,11.108455125342134,8.471341172999832,11.183152199331971,7.299102042257067,11.241625939355036,6.135483052468551,11.284321313035374,4.981846027177706,11.311706367810917,3.839488568192941,11.324268242472787,2.7096431159080367,11.32250940687163,1.5934761413355174,11.306944124022698,0.49208746712424833,11.27809512884123,-0.5934902851672872,11.23649051773986,-1.662292124270742,11.182660843319635,-2.7134209976093526,11.117136408386314,-3.7460479816296903,11.040444753523595,-4.759412356792378,10.953108332454889,-5.752821569950507,10.8556423694253,-6.725651086844248,10.748552892835468,-7.677344137440473,10.63233493935888,-8.607411356845931,10.507470922774324,-9.515430324522722,10.374429161745129,-10.401045004534572,10.233662560776798,-11.263965089552796,10.085607438584738,-12.103965251350322,9.930682498103648,-12.920884300512716,9.769287932370315,-13.7146242580946,9.601804660511336,-14.48514934195032,9.428593688067526,-15.232484870467408,9.249995585886563,-15.956716086431468,9.06633008181559,-16.6579869037513,8.877895759425341,-17.336498579772673,8.684969857997503,-17.992508315909667,8.487808168006907,-18.626327789321955,8.286645016330217,-19.238321618366967,8.081693335412753,-19.82890576455535,7.873144810625094,-20.39854587373849,7.661170100041095,-20.947755559256812,7.445919120868963,-21.477094629777305,7.227521396767055,-21.987167264549164,7.0060864602760065,-22.478620138806072,6.781704304598863,-22.95214050204369,6.55444587896084,-23.408454211901294,6.324363621780364,-23.848517428854777,6.091022455353378,-24.27293804607597,5.853955973301998,-24.681952038797355,5.613153885872732,-25.075801440750787,5.368603603494064,-25.45473397872285,5.120291009324283,-25.819002707110165,4.868201231799297,-26.1688656424748,4.612319417180465,-26.504585398099614,4.352631502102401,-26.826428818543548,4.089124986120817,-27.1346666141971,3.821789704260329,-27.42957299583756,3.550618599562286,-27.711425309184435,3.2756084956325897,-27.98050366945477,2.9967608691895133,-28.237090595918517,2.714082622611529,-28.481470646453893,2.4275868564851253,-28.713930052102732,2.1372936421526267,-28.9347563516258,1.8432307942600215,-29.14423802605822,1.5454346433047785,-29.342664133264776,1.2439508081836728,-29.530323942495272,0.9388349687405997,-29.707506568939927,0.630153638314404,-29.87450060828465,0.3179849362866989,-30.031593771266465,0.0024193606296893932,-30.17907251822885,-0.3164394395460093" fill="none" stroke="black" stroke-width="2.2222222222222223" stroke-linejoin="round" filter="url(#fuzzy)"></polyline><!--[--><circle r="4.502916967955061" cx="11.23276290735033" cy="4.017299719391598" stroke="black" fill="none" stroke-width="1" filter="url(#fuzzy)" clip-path="url(#leftEyeClipPath)"></circle><circle r="4.654723746123937" cx="8.12494701330405" cy="6.326606872581355" stroke="black" fill="none" stroke-width="1" filter="url(#fuzzy)" clip-path="url(#leftEyeClipPath)"></circle><circle r="4.843781915215376" cx="8.050340020654382" cy="5.140301563684303" stroke="black" fill="none" stroke-width="1" filter="url(#fuzzy)" clip-path="url(#leftEyeClipPath)"></circle><circle r="3.482689259845646" cx="12.38807227721176" cy="3.1110258169544345" stroke="black" fill="none" stroke-width="1" filter="url(#fuzzy)" clip-path="url(#leftEyeClipPath)"></circle><circle r="4.779298167630972" cx="10.962448762803426" cy="2.3956843516476285" stroke="black" fill="none" stroke-width="1" filter="url(#fuzzy)" clip-path="url(#leftEyeClipPath)"></circle><circle r="3.6205943130536826" cx="11.186462660111896" cy="5.330899148815309" stroke="black" fill="none" stroke-width="1" filter="url(#fuzzy)" clip-path="url(#leftEyeClipPath)"></circle><circle r="4.6374392400228555" cx="11.311805399090307" cy="3.3473335015400965" stroke="black" fill="none" stroke-width="1" filter="url(#fuzzy)" clip-path="url(#leftEyeClipPath)"></circle><circle r="3.516815333715365" cx="12.074485475559232" cy="5.34294163599311" stroke="black" fill="none" stroke-width="1" filter="url(#fuzzy)" clip-path="url(#leftEyeClipPath)"></circle><circle r="3.9416295817998015" cx="9.661839397065858" cy="4.979766627633973" stroke="black" fill="none" stroke-width="1" filter="url(#fuzzy)" clip-path="url(#leftEyeClipPath)"></circle><circle r="4.449293098008808" cx="12.96916173941575" cy="4.904733726558338" stroke="black" fill="none" stroke-width="1" filter="url(#fuzzy)" clip-path="url(#leftEyeClipPath)"></circle><!--]--></g><g id="hairs"><!--[--><polyline points="-20,-90,-19.476669682152522,-89.98114564844037,-19.00146355158298,-89.94203028824874,-18.419376495685146,-89.91056683869328,-17.892890997685278,-89.86686436464433,-17.536612102954386,-89.74910257991874,-17.41752976484079,-89.4975662399725,-17.59853340415432,-89.0832121573423,-18.152818126122156,-88.5056292492805,-19.148632049560547,-87.77376556396484,-20.62609713844944,-86.88786223434991,-22.590804790039094,-85.83133675944623,-25.038045076994717,-84.57185801032843,-27.999379334503033,-83.06939120309849,-31.5776488019283,-81.28973163103251,-35.927293601548755,-79.21453433891335,-41.16645461273444,-76.83001959385527,-47.26615900103789,-74.10110719043107" fill="none" stroke="rgb(44, 34, 43)" stroke-width="2" stroke-linejoin="round" filter="url(#fuzzy)"></polyline><polyline points="73,-42,73.31452460681598,-40.06876957202629,72.74554223149742,-39.24780618826715,71.54312697551549,-38.816999633258675,69.65149255127527,-38.636064881409744,66.9356029083096,-38.81949300123528,63.3122202530151,-39.49979054433038,58.76924886159616,-40.759181447482234,53.324945883907446,-42.619610657246454,46.97848621777036,-45.044910977351336,39.689058051915374,-47.96259854136937,31.394844017373572,-51.309194553011615,22.05214862722981,-55.07344941931506,11.656772117951903,-59.297351468117,0.21735907530165477,-64.01972382143046,-12.323645449655913,-69.20045776441358,-26.20622114904132,-74.67194610306916" fill="none" stroke="rgb(44, 34, 43)" stroke-width="2" stroke-linejoin="round" filter="url(#fuzzy)"></polyline><polyline points="-13,-91,-11.008546776488776,-90.99980208612551,-9.826107752417164,-91.02626581774436,-8.877916213738025,-91.11996232715238,-7.948005387760836,-91.26749962867716,-6.989029441815689,-91.41012290998435,-6.0937104782904905,-91.48752842160881,-5.418120903006001,-91.46311488452207,-5.094299938757329,-91.32614439728091,-5.184634080522914,-91.08459428253116,-5.686686404946417,-90.7563910658954,-6.567443976551955,-90.35947342485184,-7.801773292780878,-89.90164109498187,-9.39817856020483,-89.37478240333147,-11.402954360354784,-88.75791917135197,-13.880393257236207,-88.02838865880616,-16.87888601854985,-87.17455395900303,-20.411134398582462,-86.20037977364893,-24.484298246479305,-85.11130813613492,-29.189315093790178,-83.86907828947051,-34.81224964789822,-82.30234046505407" fill="none" stroke="rgb(44, 34, 43)" stroke-width="2" stroke-linejoin="round" filter="url(#fuzzy)"></polyline><polyline points="-13,-91,-11.10126422988597,-90.96656085703557,-10.181777283128135,-90.88268466260116,-9.685104347315917,-90.78399025382491,-9.401160999041469,-90.65362675771178,-9.278785338860066,-90.42301360131941,-9.410824683220795,-90.01942424371889,-9.963503555771688,-89.39665640823381,-11.082963027635108,-88.536767033145,-12.845542907714844,-87.43799018859863,-15.267485476402433,-86.10184020936197,-18.3430333112913,-84.52365125814391,-22.071248535162876,-82.6891974394261,-26.45601770406211,-80.58233569424215,-31.4948830617355,-78.20240740225393,-37.18282640169072,-75.57109435856898,-43.531847445572815,-72.699486867506,-50.545260384691545,-69.53476446290527" fill="none" stroke="rgb(44, 34, 43)" stroke-width="2" stroke-linejoin="round" filter="url(#fuzzy)"></polyline><polyline points="-30,-86,-30.439642154119944,-86.23765532504316,-29.469452311303467,-86.6260452553262,-28.20012005443813,-87.00197554584585,-27.11694199267086,-87.28915333787457,-26.41397812601508,-87.41791974116654,-26.10890379208779,-87.34346257462217,-26.160129119293984,-87.04506462729378,-26.544075314183445,-86.51368148927128,-27.266352288169983,-85.74642468598032,-28.340216636657715,-84.74664354324341,-29.774155011886076,-83.5199105471797,-31.57945482203997,-82.06402739736149,-33.781857083331296,-80.36170389165912,-36.420986401630365,-78.38518556142091,-39.53826686140337,-76.11041672285432,-43.16785649226156,-73.52302241493922,-47.341722105448724,-70.59814005613194,-52.09397775102079,-67.27848007605336,-57.40574034158499,-63.577294738952844" fill="none" stroke="rgb(44, 34, 43)" stroke-width="2" stroke-linejoin="round" filter="url(#fuzzy)"></polyline><polyline points="58,-64,58.88147971588102,-63.087418898553366,59.60779852546001,-62.199939351779285,60.001419790037865,-61.48244539027624,59.94687204555159,-61.08271138942542,59.38956453849299,-61.07751233828011,58.30038908254291,-61.501896785553015,56.65749977548522,-62.392627808154714,54.438631855246136,-63.79326857737295,51.6208100801708,-65.72391918160444,48.18417147266571,-68.16231433748462,44.113124226980815,-71.07331557299952,39.38705880594513,-74.47152194134999,33.94365758999894,-78.46166737003568,27.52315156925612,-83.22389270536304" fill="none" stroke="rgb(44, 34, 43)" stroke-width="2" stroke-linejoin="round" filter="url(#fuzzy)"></polyline><polyline points="56,-67,56.297525279722095,-66.6297086963068,56.90534708668708,-65.77336790946612,57.58704353612502,-64.77982125869298,58.22558036429928,-63.83199017676802,58.72823898473838,-63.012740693344426,59.008325339372064,-62.378869898633575,59.00281607214998,-61.97706454893602,58.6852788067302,-61.83585568174452,58.0565664928896,-61.96675358020714,57.12012003675646,-62.3768425451981,55.86098856244024,-63.077340979384275,54.24347498002438,-64.07932671973892,52.22716060810891,-65.3849042397677,49.7871662692969,-66.98902037189653,46.92217619328375,-68.89610315195056,43.64411378790397,-71.13725547179206,39.95804150835399,-73.76677265265207,35.84714952078106,-76.83274847233999,31.257868084018284,-80.34986574397034,25.982326838906438,-84.33389427794506" fill="none" stroke="rgb(44, 34, 43)" stroke-width="2" stroke-linejoin="round" filter="url(#fuzzy)"></polyline><polyline points="56,-67,56.11587815202611,-66.68713921403035,56.17566109624135,-65.98915348354424,55.92995008023724,-65.2442647598989,55.25295114493049,-64.6294574018217,54.048059894629624,-64.21726935908703,52.22537133806577,-64.0555944869848,49.713622392028,-64.18852729143343,46.4697869202823,-64.64443920446092,42.4747371673584,-65.43073654174805,37.72103029962175,-66.54444646876084,32.1987529507503,-67.98041526513865,25.87813098341323,-69.72197422854077,18.69191586627033,-71.72727832215331,10.53969709496443,-73.94414663483528,1.344351863824393,-76.36382506812751,-8.838464593404977,-79.06872425330383,-19.661456563488137,-82.21340588068568" fill="none" stroke="rgb(44, 34, 43)" stroke-width="2" stroke-linejoin="round" filter="url(#fuzzy)"></polyline><polyline points="4,-91,3.7792864180728087,-91.52476591435465,4.0795586380031565,-91.43755808300465,4.24055619296597,-91.05595593101827,4.049819921143353,-90.53962722572032,3.4341587823026245,-89.91715432858497,2.3315741605011127,-89.17471428591426,0.6479721882616545,-88.30699583745105,-1.727294921875,-87.31622314453125,-4.879011377000451,-86.18979117070049,-8.840703153744393,-84.89493267475319,-13.613118071966282,-83.40135709111942,-19.21411204058677,-81.70490674523171,-25.714282834979876,-79.81891700596101,-33.22310116978348,-77.74733304479572,-41.87470966195549,-75.49722701141212" fill="none" stroke="rgb(44, 34, 43)" stroke-width="2" stroke-linejoin="round" filter="url(#fuzzy)"></polyline><polyline points="69,-48,69.2307606122542,-47.84254799598547,68.35592951629854,-47.56139268433699,66.52225109213843,-47.35684350430415,63.70103145271257,-47.403970341904916,59.79342919057648,-47.8317920661135,54.70178143227737,-48.693952511868936,48.37579757701189,-49.98399964213378,40.81654611709662,-51.67687256833773,32.049499655739794,-53.76101384375501,22.0891501817293,-56.251262343536,10.911112681832396,-59.193478397554415,-1.5625407568216154,-62.65050493144269,-15.464956240995342,-66.6410169097525,-30.955648501045765,-71.0926609670162" fill="none" stroke="rgb(44, 34, 43)" stroke-width="2" stroke-linejoin="round" filter="url(#fuzzy)"></polyline><polyline points="-8,-91,-6.222839914699117,-91.51212296398474,-3.576153272051746,-91.44346339650278,-0.7637158470993566,-91.03529546681503,2.047544222121548,-90.39387198243486,4.927660677276526,-89.57062980065935,7.973477573845856,-88.59903916210621,11.2277676757188,-87.50172647237044,14.681588740070008,-86.2909151862387,18.29988912500493,-84.9791759366081,22.032575432110704,-83.59714306012283,25.81020445161422,-82.20043501699908,29.545042795618134,-80.85389173134848,33.15122058172224,-79.6001720194111,36.577889173818534,-78.43168965469943,39.84078867479931,-77.28445926160211,43.019330191687345,-76.08973813486527" fill="none" stroke="rgb(44, 34, 43)" stroke-width="2" stroke-linejoin="round" filter="url(#fuzzy)"></polyline><polyline points="54,-68,54.51825807574914,-67.72865369869777,55.341527119318876,-67.20408089515244,56.155316089521435,-66.49363790869351,56.95983697663215,-65.61081343658118,57.765154947089925,-64.62741828215091,58.54181553524389,-63.63479213816583,59.23066139682563,-62.71479693352374,59.76616677822545,-61.932402445956896,60.09858339311653,-61.33424055330344,60.20469727308921,-60.949359177830104,60.083699184323365,-60.79432878781011,59.743733406066895,-60.87980207800865,59.18941321256162,-61.21199814418833,58.41749743434471,-61.78795489202038,57.41979570017456,-62.59246219578072,56.18619663886396,-63.606251999847714,54.70217410185093,-64.82497627074618,52.94306924161094,-66.2751349634003,50.872931795765254,-68.0111058595308,48.44900062140547,-70.0937370864002,45.61685396172632,-72.57395823949219,42.278295129861455,-75.50593549722876,38.233439585837786,-78.96756560133895" fill="none" stroke="rgb(44, 34, 43)" stroke-width="2" stroke-linejoin="round" filter="url(#fuzzy)"></polyline><polyline points="16,-90,15.798886194429704,-89.63334806654635,17.362064236743056,-88.94266394538089,19.38455732529683,-88.22972196251456,21.45665071888937,-87.5137305427016,23.4796396102411,-86.74946316242661,25.434591701042795,-85.92225415832365,27.329842086608934,-85.04855487830763,29.188343123789387,-84.151846013322,31.02960968017578,-83.25171279907227,32.846017109948235,-82.37161879521653,34.58769037005514,-81.55236543285014,36.169349253664976,-80.8532551875438,37.499677309996585,-80.33052872629358,38.51585918956398,-80.00114380204933,39.196014952951785,-79.82153103137398,39.531876072421866,-79.7180728289091,39.47849140806818,-79.68819780693958" fill="none" stroke="rgb(44, 34, 43)" stroke-width="2" stroke-linejoin="round" filter="url(#fuzzy)"></polyline><polyline points="-8,-91,-6.4136121024873285,-91.61686378752636,-4.311043199641213,-91.85345461569193,-2.4086847740313613,-91.92752888971926,-0.9022699127290338,-91.92395021310024,0.2558856457382661,-91.87619867724658,1.1466093819330565,-91.81288934572689,1.792249533965558,-91.76056577235435,2.146736246954359,-91.72586138980785,2.116589926678529,-91.69079587367158,1.5876284746519957,-91.63009993258255,0.4660072832678037,-91.52883866249269,-1.2602088420802575,-91.38062496976733,-3.49598514488429,-91.18699741136228,-6.2053022222759555,-91.00514501270465" fill="none" stroke="rgb(44, 34, 43)" stroke-width="2" stroke-linejoin="round" filter="url(#fuzzy)"></polyline><polyline points="-8,-91,-7.446290084921214,-91.23718110467993,-5.924954375737366,-91.55024542998154,-3.970069891381482,-91.73924269394941,-2.0416863227651483,-91.80665472962237,-0.3412375562557083,-91.78963152020779,1.1091879021831594,-91.7239641382191,2.348545303640773,-91.64065005798776,3.4073599808689137,-91.56128085592428,4.291051665569464,-91.49367841975052,4.988497895470154,-91.43536637884671,5.481244384765893,-91.3827058200443,5.744858597151412,-91.33727944570168,5.745907470709723,-91.30644278122264,5.440295030830905,-91.3026243600607,4.7742780786773915,-91.34326976911763,3.6811639041899498,-91.44405113584332,2.055987497429382,-91.6027143925913,-0.31962555143179605,-91.79480265094806" fill="none" stroke="rgb(44, 34, 43)" stroke-width="2" stroke-linejoin="round" filter="url(#fuzzy)"></polyline><polyline points="-20,-90,-19.100406818488075,-89.90244056532262,-17.49540237747366,-89.64339190098093,-15.02335490367162,-89.28621936959165,-11.870889630371241,-88.86042492528395,-8.194756065159998,-88.34888285683832,-4.09407120180511,-87.71928593886088,0.357603313412886,-86.95332757150211,5.088071055648847,-86.05837241436157,10.019649439911118,-85.06930765369833,15.078250443279988,-84.04456650716789,20.2161013673134,-83.04699476191942,25.43995563060757,-82.09974284020615,30.81050231126262,-81.13836968067787,36.35573411139052,-80.0538507661922" fill="none" stroke="rgb(44, 34, 43)" stroke-width="2" stroke-linejoin="round" filter="url(#fuzzy)"></polyline><polyline points="-35,-84,-32.68816339784919,-85.24411918865493,-31.054640929476356,-85.74680802935627,-29.577988870119018,-86.02730611142101,-27.847623869682707,-86.31249142651248,-25.700938725340418,-86.67145920528095,-23.199473801195346,-87.09526732138022,-20.50028267466463,-87.54360406438,-17.74003174841359,-87.97394292243898,-14.988938418099892,-88.35763379851306,-12.268551508637827,-88.6830536669554,-9.591452446914229,-88.95082548509265,-6.983441222403639,-89.16965495140526,-4.477519254296893,-89.35647716711853,-2.0958168120026635,-89.53556493860965,0.15859284856782097,-89.72863097102302,2.288442527991055,-89.93809243122499,4.267405021319176,-90.14202364920216,5.996947354761853,-90.32176190873858,7.302246195317874,-90.5097535746054,8.084005497543215,-90.77622660957566" fill="none" stroke="rgb(44, 34, 43)" stroke-width="2" stroke-linejoin="round" filter="url(#fuzzy)"></polyline><polyline points="63,-58,64.21133228066572,-55.9720661419556,64.67741568809922,-55.109357331172774,64.75121061797232,-54.800341747937814,64.48462876611647,-54.675256456127954,63.8704362881266,-54.628520023947985,62.88605858878973,-54.72606970076725,61.49571854576207,-55.08596344916286,59.657073544509544,-55.79537011291817,57.328661554043,-56.88820434135482,54.47192725899414,-58.36845175824633,51.050807812048625,-60.24329486850594,47.0339630271619,-62.537240011738405,42.40007031107062,-65.28302283221333,37.142151083815605,-68.5050415758433,31.26696901253927,-72.21025759837191,24.78798967531762,-76.38357038344219,17.697206034773554,-80.98239486452572,9.806797574901093,-86.00899944693559" fill="none" stroke="rgb(44, 34, 43)" stroke-width="2" stroke-linejoin="round" filter="url(#fuzzy)"></polyline><polyline points="-47,-77,-45.39925314381622,-77.79093522067842,-43.73800820719527,-78.2255909312664,-41.62742610750744,-78.56097358628352,-39.00081876324529,-78.95941830742642,-35.85977458657752,-79.42890317618847,-32.22691104002288,-79.92271699779421,-28.152346072363382,-80.39426958330645,-23.705077740199215,-80.81403303012291,-18.949849873640304,-81.17339501181748,-13.93390723105971,-81.47764023256259,-8.695763248380047,-81.72896697676175,-3.284922683810425,-81.91310721850614,2.2319111116576202,-82.00523254429012,7.794968024479301,-81.99417384779517,13.39244500663118,-81.90343531599189,19.066522731558862,-81.78741480335866,24.827823364323,-81.71149676640982,30.52573645147021,-81.75501366166189" fill="none" stroke="rgb(44, 34, 43)" stroke-width="2" stroke-linejoin="round" filter="url(#fuzzy)"></polyline><polyline points="-25,-88,-23.904026485950553,-88.63190534970518,-23.24590998181378,-88.95126940370498,-22.445468018228365,-89.18594483453616,-21.610051635592495,-89.35279972570937,-20.895003738950045,-89.42811967869518,-20.353830683881164,-89.40905446117674,-19.980502440757988,-89.30733374545629,-19.764517919602184,-89.12877130079605,-19.71398274902767,-88.86495851748698,-19.857797452406498,-88.49884240382183,-20.240496193609278,-88.01445334373601,-20.91299845068758,-87.40224112027931,-21.919560950359383,-86.65802732166406,-23.28616563815234,-85.77816138837615,-25.020146097000115,-84.75409758560285,-27.127148427776547,-83.56871466587968,-29.63843929716228,-82.19595462588168,-32.62721519007352,-80.60352461891844,-36.191092885191715,-78.75552966134047,-40.39948510154719,-76.61409543249833,-45.23732367637998,-74.1554597383012,-50.5666611404494,-71.45535936348335" fill="none" stroke="rgb(44, 34, 43)" stroke-width="2" stroke-linejoin="round" filter="url(#fuzzy)"></polyline><polyline points="47,-74,47.34230071484752,-73.70099713147945,47.74527893692257,-73.03543528044254,47.61435902443523,-72.36924194809451,46.657919066678474,-71.94488776557725,44.75332306960156,-71.87316827221292,41.87786875695923,-72.174432493568,38.05252976415058,-72.81317367956709,33.29596948932484,-73.72652596721476,27.60447022373274,-74.8507640474501,20.942665505230934,-76.14333017374308,13.21867760660542,-77.59751782227946,4.264016608329715,-79.24985703910605,-6.118381936739661,-81.17655282912096,-18.077159539424496,-83.45403819537813" fill="none" stroke="rgb(44, 34, 43)" stroke-width="2" stroke-linejoin="round" filter="url(#fuzzy)"></polyline><polyline points="28,-85,30.03366406631908,-84.17381609592621,30.890673268325177,-83.72893756892697,30.82865019097885,-83.58609791968752,30.097356641839724,-83.51841941772727,28.893068023488055,-83.38277816693675,27.249647685775386,-83.16935490774462,25.063225207321842,-82.94697154693891,22.180885314941406,-82.79045867919922,18.46750977458225,-82.73838358957873,13.83259411130223,-82.79196623420628,8.24346403150503,-82.93965383599993,1.745089095144067,-83.18240115378285,-5.533876252002461,-83.54503981747901,-13.457254335904054,-84.07808666163847,-22.10925068251064,-84.8593992097331" fill="none" stroke="rgb(44, 34, 43)" stroke-width="2" stroke-linejoin="round" filter="url(#fuzzy)"></polyline><polyline points="-13,-91,-10.654389581585754,-90.80555040130821,-8.370682092190403,-90.26117204864,-5.619982501176938,-89.43990648438792,-2.2059886948797667,-88.3796968253436,1.928794994629211,-87.06118122214238,6.695908735785374,-85.43872364665243,11.911423034894698,-83.48305522236755,17.401785870890098,-81.20689638260077,23.081737486047636,-78.66555047693517,28.95338083939076,-75.9355092110268,35.04193267258171,-73.08537590080702,41.32680641289258,-70.1658378896343,47.721414194503026,-67.23784043502377,54.08067571081419,-64.42181925055195" fill="none" stroke="rgb(44, 34, 43)" stroke-width="2" stroke-linejoin="round" filter="url(#fuzzy)"></polyline><polyline points="28,-86,28.921639735287332,-84.9995608532355,30.643270974282864,-83.9939480602712,32.404597216398564,-83.11901235502125,34.010707867460255,-82.34563032644363,35.52797656759968,-81.55676131522311,37.06709058983035,-80.67596841874882,38.6441858968328,-79.72405085137487,40.166181434454856,-78.79017640142413,41.50809142796616,-77.96654832095068,42.59443863331658,-77.30392589019732,43.40835172096443,-76.81858742691395,43.9176328340308,-76.5419351690838,43.99885459658235,-76.57239920719284,43.53684623961919,-77.06665517404764" fill="none" stroke="rgb(44, 34, 43)" stroke-width="2" stroke-linejoin="round" filter="url(#fuzzy)"></polyline><polyline points="40,-79,41.264551055047846,-78.75831910648654,41.89121517916791,-78.32569550329103,42.33071591500477,-77.80532796312906,42.6688241067646,-77.25457078461349,42.84611514185385,-76.76101536707885,42.79798058688956,-76.38249567938243,42.50438868070075,-76.12367861873003,41.9679416097141,-75.96134681263167,41.17301023464797,-75.88285494565218,40.06575633843516,-75.90695232180057,38.56334614753723,-76.0777291059494,36.57884853234986,-76.44150736668058,34.04510005968411,-77.02367661248425,30.92922827627026,-77.81819533759287,27.237369135902032,-78.7937583626991,23.00908354726208,-79.91381272049647,18.295980804166213,-81.16323760238964,13.120592660713214,-82.56934059405233,7.428791711060588,-84.19984268650069,1.072976530360929,-86.12764202998201,-6.119307773605391,-88.38750570347183" fill="none" stroke="rgb(44, 34, 43)" stroke-width="2" stroke-linejoin="round" filter="url(#fuzzy)"></polyline><polyline points="33,-83,35.272434686669136,-82.04778434703874,36.891815976006825,-81.17470634873916,38.15926367192774,-80.44742351798574,39.21511009965783,-79.84909098965267,40.12526024570161,-79.3403003224048,40.89625820245497,-78.88909171670863,41.51219584543981,-78.47915098205966,41.95611075429001,-78.1162302014668,42.206262167562315,-77.83185127779306,42.23169255405962,-77.67378739522312,42.00438848742878,-77.6821592470391,41.51459664838254,-77.86742463791211,40.759967608670905,-78.21398014813167,39.70102450539502,-78.71846776982277,38.22094424143194,-79.43904583086201,36.14922228783354,-80.5026802813938,33.355951904690585,-82.02507375238422,29.77967864584236,-83.96377595884222" fill="none" stroke="rgb(44, 34, 43)" stroke-width="2" stroke-linejoin="round" filter="url(#fuzzy)"></polyline><polyline points="-48,-76,-46.75896795323513,-76.96138192878645,-45.39536942226725,-77.81756969151634,-44.028871834758284,-78.54569258814598,-42.58394618751321,-79.26749820447017,-41.0056901060791,-80.07269328979578,-39.28160508530734,-80.97425389564123,-37.43903037300874,-81.93987029569088,-35.53714263819114,-82.92364694514988,-33.64616454190736,-83.88240693562709,-31.824015140533447,-84.78428888320923,-30.1086964973947,-85.61194802607838,-28.53143478448348,-86.35791400995097,-27.136576347002084,-87.01455039607154,-25.987389380686192,-87.56741944988025,-25.14624689308016,-87.9993729682185,-24.63370188031152,-88.30303481079173,-24.3861820019399,-88.48918159736326,-24.261352896278986,-88.5728074118087,-24.223094004875254,-88.50668317275054" fill="none" stroke="rgb(44, 34, 43)" stroke-width="2" stroke-linejoin="round" filter="url(#fuzzy)"></polyline><polyline points="-37,-83,-35.646549263557525,-83.65297037556304,-33.47071860607093,-84.05174715816987,-30.815541986151533,-84.19478301193905,-27.91833883437575,-84.02517173095347,-24.758505618589425,-83.59093906508315,-21.194387590533303,-82.98113876038482,-17.124261254038025,-82.26186378295706,-12.557353912742503,-81.45203445960675,-7.589146752748734,-80.53101811273281,-2.3322296142578125,-79.46418190002441,3.1390715056993272,-78.23068340728769,8.79915160141439,-76.83771833008919,14.64424086481794,-75.3149138453443,20.66056094453114,-73.69952562910822,26.813537350241404,-72.03152606999174,33.054965581922545,-70.3625844059043,39.32813191110188,-68.7530656413684,45.574039457801696,-67.22463486797827,51.77464308524694,-65.68972500886295" fill="none" stroke="rgb(44, 34, 43)" stroke-width="2" stroke-linejoin="round" filter="url(#fuzzy)"></polyline><polyline points="59,-63,60.1064811675885,-61.8224542688872,61.08035679673641,-60.59850209313706,61.762358810227454,-59.576540145225465,62.17411434450466,-58.79181376080624,62.35642832210258,-58.2283341152842,62.331263238156836,-57.88731340751158,62.09870308442023,-57.775544812148695,61.64841565158469,-57.87717443876049,60.96695788073992,-58.15780795713128,60.03426305899648,-58.597051673111054,58.816662430763245,-59.21602141857147,57.267910314820334,-60.07488899937676,55.34217732144441,-61.243358320729385,53.01127722061521,-62.768522053829784,50.272670602849885,-64.6647036625896,47.140149718450836,-66.93023256099417,43.62187156529045,-69.57241349138161,39.70070404789359,-72.61371068231549,35.32997262893279,-76.068046232146,30.447984381698475,-79.90355546341776,25.072771580367423,-84.00602510126463" fill="none" stroke="rgb(44, 34, 43)" stroke-width="2" stroke-linejoin="round" filter="url(#fuzzy)"></polyline><polyline points="-35,-84,-32.78467328619264,-85.26209809238715,-31.464583306113166,-85.80932234257105,-30.492623591220898,-86.1627579461419,-29.445411041102638,-86.53744338990752,-28.162995082072868,-86.98920733310824,-26.709156680610576,-87.4992699544439,-25.234614459255358,-88.02104413286304,-23.86494664876801,-88.50788831043178,-22.66038764162181,-88.92797177189304,-21.632427722542925,-89.26713348343911,-20.777397477269616,-89.52372345210624,-20.097251504659653,-89.7018232345581,-19.602066488112094,-89.80661187791632,-19.305483399831083,-89.84118564972023,-19.225167193220113,-89.80282549659634,-19.39071394123855,-89.67966362337808,-19.850574323181,-89.45227622238089,-20.66408862251667,-89.10384965989081,-21.86951962022061,-88.63579671384542,-23.437951938143808,-88.07847178465616,-25.253532106417868,-87.48805193975326,-27.186916267760637,-86.93071333894532,-29.30580512945322,-86.45192026828798" fill="none" stroke="rgb(44, 34, 43)" stroke-width="2" stroke-linejoin="round" filter="url(#fuzzy)"></polyline><polyline points="19,-89,26.006973680389322,-82.63314224210639,17.70096926023528,-79.56248759526385,6.384614147717296,-79.98412542414495,-2.185172271608659,-81.21830014247965,-8.32721555658892,-82.03371494644696,-11.95407278524189,-82.45006337029332,-12.327632283958037,-82.69111159947265,-10.198049580709217,-82.77652654048876,-8.168045043945312,-82.65358352661133,-8.758873426119681,-82.33674454291547,-12.146493523765482,-81.80258645325719,-15.626790644518543,-80.7867439272165,-15.330933543828763,-78.7824575244197,-9.27886953149914,-75.3955470287664,-0.746980696626351,-70.9771548955051,-0.8118529316971284,-67.34361891318677,-23.97275986597613,-67.68040208817689,-56,-69" fill="none" stroke="rgb(44, 34, 43)" stroke-width="2" stroke-linejoin="round" filter="url(#fuzzy)"></polyline><polyline points="56,-67,22.917356742787486,-72.20395438916623,25.535075993018214,-67.3236089280026,20.856485394501682,-66.27594717963025,10.65169560742688,-69.6383919434936,3.850760588031794,-74.26826385611784,3.5498690882162425,-78.00311278826604,7.647691571874253,-80.29251572861492,12.916240511026485,-81.40982585623583,17.427769209668092,-81.73486046295295,20.557486262870345,-81.55841512526332,21.931586027145386,-81.18590950965881,20.840144377073706,-80.95961439721803,16.654782294136382,-81.09695236085426,9.737611338676466,-81.55662118049264,1.8962255865729793,-82.12733258977092,-4.243147322637126,-82.61050969148958,-6.711841067091427,-82.73899232633508,-5.195003357984891,-81.71926501847854,0.3585327267213301,-77.94057341819126,13.456901471769404,-69.99000847357264,39.401915269186695,-60.59272781379391,56,-67" fill="none" stroke="rgb(44, 34, 43)" stroke-width="2" stroke-linejoin="round" filter="url(#fuzzy)"></polyline><polyline points="58,-64,28.048161059894994,-76.90110850612125,18.708794813593396,-74.06430867538107,18.629865705472014,-69.1541531216446,22.80896530776092,-66.22735550381374,28.23582179464961,-64.88008166754446,30.532116984627205,-65.25032352625459,27.18680835075335,-67.88660379191494,19.946303673985728,-72.05360034278195,13.118808528486403,-75.59924714065102,9.923407545954545,-76.6064652868682,10.1713477328582,-75.09033971403456,10.574184236646401,-72.81420961356184,8.445873262598441,-70.1990456851696,13.832310784398494,-60.92757514308926,77,-30" fill="none" stroke="rgb(44, 34, 43)" stroke-width="2" stroke-linejoin="round" filter="url(#fuzzy)"></polyline><polyline points="37,-81,4.645674765411059,-81.84891560814427,13.467500943374885,-74.58197627919115,28.87856259066185,-66.22471390467727,35.97318447221235,-59.61182130772377,30.969064716162006,-55.26063219097112,17.284128455293462,-53.33361759532803,3.017470579116907,-53.45249708917015,-3.717088682494667,-54.70844567873055,0.29270499063820876,-56.298645623182416,11.528725396704036,-58.06662579891803,21.988119351834037,-60.46491414409801,23.704049452040284,-63.975344358201944,13.02756724720928,-68.19208932605362,-6.453752448806838,-70.97845705242973,-21.959955105481235,-68.86817531754166,-9.805238932058305,-60.09882558127231,69,-48" fill="none" stroke="rgb(44, 34, 43)" stroke-width="2" stroke-linejoin="round" filter="url(#fuzzy)"></polyline><polyline points="-10,-91,7.997831300899461,-82.17681013493835,26.984736039687224,-74.44722822623169,35.997387620954676,-72.31502649421314,38.348028597856306,-73.41087662068361,38.00473211760345,-75.3339461418791,37.34011512040748,-76.46821820290647,36.694829773856256,-76.25338822054754,34.909438804185996,-74.99818191675844,30.459550012849924,-73.39355603523965,22.63546848297119,-72.07816982269287,12.375286203799128,-71.39816863012175,2.4342958741577037,-71.33651411814206,-3.481722067270346,-71.60187491342474,-2.671910267144204,-71.86293237301035,4.385555988098531,-72.00001355360928,13.33226987586365,-72.22164034382796,17.870256131918282,-73.0137576144572,13.13498760150463,-74.57314044967505,-4.626917938498728,-74.4733982860897,-58,-66" fill="none" stroke="rgb(44, 34, 43)" stroke-width="2" stroke-linejoin="round" filter="url(#fuzzy)"></polyline><polyline points="68,-51,7.298690675984683,-69.87332315146399,-16.122905409754917,-72.40420399511034,-13.284179309176679,-72.66643799414979,-2.930436746977149,-73.05537562718217,3.556770088594448,-73.91252213480291,3.1131238291341394,-75.1529592039312,-2.7308983858407214,-76.42707550083705,-10.599689776999654,-77.36972846316893,-16.687123390444114,-77.83087179174713,-17.855078066492098,-77.84573867197946,-12.677521705627441,-77.41019749641418,-1.9747673418066516,-76.3278782305768,11.577775361223368,-74.30736767064202,24.6423741698117,-71.22866599371126,34.549872341739054,-67.3395018635272,39.97973988019507,-63.248440048586936,40.691166311428674,-59.813148198263285,36.886471062370006,-58.058709865669755,29.13601489988422,-59.10366262471208,18.57063780260355,-64.30762637961246,6.880641867767779,-75.91285363320056,14,-90" fill="none" stroke="rgb(44, 34, 43)" stroke-width="2" stroke-linejoin="round" filter="url(#fuzzy)"></polyline><polyline points="20,-88,-14.851847922981795,-83.08728404336232,-14.002254380213179,-83.21480328299916,-1.7091641905587212,-81.6656872991313,12.704825865681148,-78.14936050472932,25.191519119060327,-73.63993413032627,33.106408382280605,-69.38011769156762,34.74741620964619,-66.33450112936755,30.34352251881255,-64.81683085061307,22.32163634129779,-64.58933073134313,14.150718186679686,-65.25051682773024,8.548979307441625,-66.52338040797707,6.272519052028656,-68.26719641685486,6.128178196057999,-70.32953079971809,5.984448767241377,-72.46143796953946,4.059806414201708,-74.40480924204624,-0.18032992160302708,-76.0677925202674,-5.837064403095164,-77.5991118973379,-11.079167718746707,-79.23041537063452,-14.087023126669006,-80.94812009282279,-13.99556351660522,-82.29755695964381,-11.059136991436617,-82.7595294830811,-5.106196289047595,-82.85289844441901,6.147131981594284,-84.93437567669764,13,-90" fill="none" stroke="rgb(44, 34, 43)" stroke-width="2" stroke-linejoin="round" filter="url(#fuzzy)"></polyline><polyline points="73,-43,58.665307141244995,-58.79671402341105,46.17549831450423,-65.89367230736623,30.28675580582826,-71.72819881420038,18.332236591243944,-75.00711581170587,13.673994879594426,-76.04371292267523,13.455750442776786,-76.35794741322994,12.985295656842432,-76.9971252658942,9.93978045669855,-77.90920384254397,5.483510157350749,-78.33198670607727,2.7489092621613787,-77.54558336860657,4.3706278800964355,-75.41873574256897,10.573452769920642,-72.51699527897594,18.69767595077146,-69.83655898943636,24.388628569170656,-68.35027227132834,23.98896091860738,-68.54528793017039,17.018100001774158,-70.10493650045042,7.181298202151888,-71.88944955719997,0.3240067463394428,-72.35224415304714,-1.336726985788244,-70.42649785174366,-6.058205068555389,-66.74894524940393,-29.890277870889058,-64.52400773042852,-60,-65" fill="none" stroke="rgb(44, 34, 43)" stroke-width="2" stroke-linejoin="round" filter="url(#fuzzy)"></polyline><polyline points="1,-92,-23.629201859902036,-84.290410422804,-26.726090068123845,-79.46387529765005,-17.5137947894224,-77.56296947073501,-9.090125968214124,-76.66922275861725,-5.989223040092688,-76.14896670176314,-7.017954306502666,-76.35237184630185,-10.429422460421137,-77.54671910345307,-15.273284912109375,-79.25790405273438,-20.281358859463474,-80.44592986312821,-23.180994439020047,-80.09829912150488,-21.239934381112388,-77.58921981492779,-12.158809503074735,-72.72617419203743,5.12311393461453,-66.16261166325515,28.62294598331406,-60.461564209966376,50.638666286985305,-58.59386285266753,69,-48" fill="none" stroke="rgb(44, 34, 43)" stroke-width="2" stroke-linejoin="round" filter="url(#fuzzy)"></polyline><polyline points="3,-92,16.084422656751148,-62.62659262449745,2.2152287534096793,-62.297771951405856,0.8820630135410579,-67.41974327823876,4.517500433654937,-71.11264565811899,5.2944912742333505,-72.99688807271644,2.9614468922264874,-73.92710279572441,0.5590902826552776,-74.3699521011956,0.5697273724128685,-74.2842885707257,3.8003259810272656,-73.44868316908239,9.509256370203758,-71.82704074495192,15.76325035644226,-69.75893806257568,20.193104105445645,-67.85988654330177,21.32951983154447,-66.67077942276985,19.835846234538597,-66.28160115138184,18.45304367017456,-66.24173740851072,20.159913949801123,-65.91224042691715,25.65773998724805,-65.01936714658477,32.5325824642173,-63.82260714437168,37.75308660919242,-62.506190630349224,41.876147716121544,-60.45020299093783,49.22668315209286,-57.329267924159964,59.02901231405065,-56.72045501046806,60,-62" fill="none" stroke="rgb(44, 34, 43)" stroke-width="2" stroke-linejoin="round" filter="url(#fuzzy)"></polyline><polyline points="-42,-80,-12.85533376340161,-84.03798679997858,-6.937099676592518,-80.46303968826577,-10.716302221541381,-74.84784136794939,-13.161883887324949,-69.56068255288668,-13.14103109038202,-65.7153149016856,-11.532861603053563,-63.762475437654025,-8.254343431151998,-64.04367763017805,-3.2739732252115767,-66.58601901451904,3.236893317562365,-70.27108258571879,12.001178626358087,-72.67370789984213,24.30554002375977,-71.57209715466986,39.321228125208584,-67.35180684381388,52.187566974950556,-63.575922195773884,58.0048627068373,-62.72694121372122,63,-58" fill="none" stroke="rgb(44, 34, 43)" stroke-width="2" stroke-linejoin="round" filter="url(#fuzzy)"></polyline><polyline points="-42,-81,29.42889646571286,-59.21520043553482,52.75976309579755,-56.52044793523917,59.51709334061061,-57.20811933643577,61.49597459064816,-56.491160295626834,61.380988182584275,-54.346936947880465,57.37606842646527,-53.06635341289883,46.9507558434027,-54.907832530684516,30.030844182538313,-60.31765127251129,10.40524374392833,-67.50921582143079,-5.51049456240813,-73.45968504778796,-12.117713978602714,-75.66341500763468,-8.714379472732155,-73.68755683134668,-1.539230062849363,-69.96159683512569,3.6545578003990045,-69.77433366308811,43,-78" fill="none" stroke="rgb(44, 34, 43)" stroke-width="2" stroke-linejoin="round" filter="url(#fuzzy)"></polyline><polyline points="-10,-91,4.347887054927209,-85.40064322258212,23.475893846090322,-78.79538791075406,31.38975647993392,-75.70747153537127,30.160427775164806,-76.04710897458932,26.03222818409371,-77.84884302641913,23.372856431938622,-79.00604046362622,22.66342179494129,-78.54936422457942,21.812128510099296,-76.70527835155984,19.09630523906505,-74.17350591203963,15.347711095171771,-71.46794025614197,13.614300569407023,-68.7949138000534,16.427552576673193,-66.39982907443894,22.877146879950068,-64.95144621802366,28.257038446602962,-65.46864838730923,27.182074403517678,-68.63959079360829,18.003115592753158,-74.12942884162966,5.199918948584637,-80.87044435796977,-1.6260045562418473,-87.79633431112288,1,-92" fill="none" stroke="rgb(44, 34, 43)" stroke-width="2" stroke-linejoin="round" filter="url(#fuzzy)"></polyline><polyline points="-63,-60,0.2897786227698959,-63.55490315621631,9.227845716438084,-73.9788089567107,14.081886003081825,-78.52731209200763,20.65528640617752,-77.6458470002663,24.442243874293883,-74.3295837055414,23.08729492475947,-70.75457370256365,18.46550159729142,-67.88684493513422,14.199777739329337,-65.9906073350223,12.645606706217592,-65.14227800803933,13.748506279109744,-65.42569019136363,15.988907230711352,-66.8124796166945,18.043086886405945,-68.95127058029175,19.671098335549843,-71.12877485421996,21.31962077033758,-72.51541206588176,22.99486839032298,-72.58930735701426,23.430080882628133,-71.48320062988235,20.384641195281652,-69.9866367336801,12.290418473716834,-69.08769102476683,0.5213509801317675,-69.25647369910192,-9.556759639315558,-70.00123253547407,-11.063230268473957,-70.11502410086396,-1.493713212824451,-68.02541362401368,17.233782603553593,-60.15585623238166,76,-34" fill="none" stroke="rgb(44, 34, 43)" stroke-width="2" stroke-linejoin="round" filter="url(#fuzzy)"></polyline><polyline points="-62,-62,-11.779546436949328,-77.44291229854628,16.699984028964522,-76.48606105928309,25.861078203981908,-71.64278421503928,21.73836619019179,-69.02305154327824,12.596988080713594,-69.51422712802571,3.5808253986642065,-71.68287638108,-4.4546536242550765,-74.01807911599977,-12.21049447310359,-75.79722491677711,-19.317462774727872,-77.07465649068003,-23.984569507773198,-78.29046587914937,-24.361509084701538,-79.81212329864502,-19.99149474133529,-81.6374565823932,-12.243934181612573,-83.38557627361634,-3.625669698438366,-84.53399903098024,3.415123165907095,-84.72087230443809,7.425054853549453,-83.92841829233056,8.2757669405398,-82.49476997850677,7.306457313755413,-81.02975203623002,7.899332244029796,-80.25070128901295,15.235981739376925,-80.4656862333513,30.70156875135785,-80.3807187379551,43,-77" fill="none" stroke="rgb(44, 34, 43)" stroke-width="2" stroke-linejoin="round" filter="url(#fuzzy)"></polyline><polyline points="-23,-89,8.252998083085027,-86.83311638938896,18.886732588695978,-83.31990284042803,21.694519150187286,-78.26535843898806,21.1462224994049,-73.67941960971427,17.367250730045495,-71.06014265923649,10.163805535123041,-70.07054553469459,1.5812941630866726,-69.4597804355635,-4.73190909239447,-68.59701333532867,-6.112416217456646,-67.96340032691712,-2.9765198299940776,-68.49533822467818,1.2162948441682493,-70.66645094281495,2.0680487949046604,-74.03782376200668,-2.661077028671814,-77.34278449432834,-9.881839103725587,-78.84834162313525,-9.007314085493933,-76.74261760309949,15.99613471242527,-68.02828674454295,74,-39" fill="none" stroke="rgb(44, 34, 43)" stroke-width="2" stroke-linejoin="round" filter="url(#fuzzy)"></polyline><polyline points="25,-86,1.1705506575560554,-75.76539711707538,9.952315137125911,-67.37737843599857,7.8321278401154295,-64.8213654390756,-2.651671809296063,-68.22889794176962,-11.469542653077058,-73.9316556139429,-14.12505401146923,-78.35173341465195,-10.837539132786082,-79.61840472224777,-3.1634128665179935,-77.58248298560329,7.4683027625131135,-73.31461111892172,19.634237523069736,-68.43922141445825,31.637187886401353,-64.44326833037736,41.48220851642621,-62.25431191061552,46.807343461154666,-62.27637034495231,45.03693839947667,-64.66444773493787,34.966064171264414,-69.52860913632922,22.49024491565331,-76.50717140921276,42,-78" fill="none" stroke="rgb(44, 34, 43)" stroke-width="2" stroke-linejoin="round" filter="url(#fuzzy)"></polyline><polyline points="28,-85,16.946762944563236,-85.15196499797361,27.682380473023876,-74.47216445004503,40.43337282065959,-64.88842046916858,46.088855997290786,-61.06964652090838,44.457518957953546,-61.48449658789447,38.461193096578896,-63.49051653796251,31.377321050531815,-65.51075719510297,25.961560405053902,-67.21000630702353,23.86187744140625,-68.95271682739258,25.07555333420997,-71.11972425184423,27.88741231629303,-73.68530068419797,29.500688230250002,-76.34512316409781,27.150937323722474,-79.02004152904587,19.479370071383304,-82.06313051908286,7.967204243894713,-85.66778784882543,-2.617375816621749,-89.03878378396435,-6.609022065038829,-90.89783728733477,1,-92" fill="none" stroke="rgb(44, 34, 43)" stroke-width="2" stroke-linejoin="round" filter="url(#fuzzy)"></polyline><!--]--></g><g id="pointNose"><g id="rightNose"><!--[--><circle r="1.5479048792932444" cx="12.12083740045173" cy="17.187855431571975" stroke="black" fill="none" stroke-width="1" filter="url(#fuzzy)"></circle><circle r="2.4080520700970665" cx="11.579357861227646" cy="16.168641635182155" stroke="black" fill="none" stroke-width="1" filter="url(#fuzzy)"></circle><circle r="1.7329257341579545" cx="8.781610304646646" cy="14.465483823269732" stroke="black" fill="none" stroke-width="1" filter="url(#fuzzy)"></circle><circle r="1.1231367414901756" cx="10.14553517830956" cy="16.511023559526535" stroke="black" fill="none" stroke-width="1" filter="url(#fuzzy)"></circle><circle r="1.1780883549081513" cx="9.717572270065114" cy="17.82511870906069" stroke="black" fill="none" stroke-width="1" filter="url(#fuzzy)"></circle><circle r="1.7029927277861743" cx="9.295051118331795" cy="15.050377907614088" stroke="black" fill="none" stroke-width="1" filter="url(#fuzzy)"></circle><circle r="2.194181649874995" cx="10.56339998511843" cy="16.486477228640357" stroke="black" fill="none" stroke-width="1" filter="url(#fuzzy)"></circle><circle r="2.076279621619604" cx="11.75697610101384" cy="18.021915831062643" stroke="black" fill="none" stroke-width="1" filter="url(#fuzzy)"></circle><circle r="2.8253284063172095" cx="9.542158308265831" cy="17.683467700645764" stroke="black" fill="none" stroke-width="1" filter="url(#fuzzy)"></circle><circle r="2.797982630356572" cx="11.293826398729058" cy="17.238877604492266" stroke="black" fill="none" stroke-width="1" filter="url(#fuzzy)"></circle><!--]--></g><g id="leftNose"><!--[--><circle r="1.1352069756601608" cx="-10.48413757603956" cy="15.743081480223175" stroke="black" fill="none" stroke-width="1" filter="url(#fuzzy)"></circle><circle r="2.6636956383736266" cx="-9.85862734527912" cy="16.538392032968584" stroke="black" fill="none" stroke-width="1" filter="url(#fuzzy)"></circle><circle r="2.197243749021725" cx="-11.223514412675547" cy="19.10154167715382" stroke="black" fill="none" stroke-width="1" filter="url(#fuzzy)"></circle><circle r="1.6584880878330694" cx="-11.202726238428975" cy="18.987273515728827" stroke="black" fill="none" stroke-width="1" filter="url(#fuzzy)"></circle><circle r="2.172966285918953" cx="-9.23046911025432" cy="18.73436227864498" stroke="black" fill="none" stroke-width="1" filter="url(#fuzzy)"></circle><circle r="2.1662214526074934" cx="-9.598666648215064" cy="19.413838413143328" stroke="black" fill="none" stroke-width="1" filter="url(#fuzzy)"></circle><circle r="1.4869945115677792" cx="-9.340000816333632" cy="18.250331310136257" stroke="black" fill="none" stroke-width="1" filter="url(#fuzzy)"></circle><circle r="2.8290061256658556" cx="-8.672291861768308" cy="18.72480687791321" stroke="black" fill="none" stroke-width="1" filter="url(#fuzzy)"></circle><circle r="2.2092983816928995" cx="-8.357959649501868" cy="15.984716572808075" stroke="black" fill="none" stroke-width="1" filter="url(#fuzzy)"></circle><circle r="2.5618486695798635" cx="-10.450300123943226" cy="16.03565308483169" stroke="black" fill="none" stroke-width="1" filter="url(#fuzzy)"></circle><!--]--></g></g><g id="mouth"><polyline points="3.114811102920921,48.008098784752015,3.5599001513015445,49.62414240124291,3.4651536641607485,49.26354621555098,3.537047501720707,50.235091378813614,3.5786552235296476,50.591481118190664,3.6424436117976526,50.32954843997439,3.8852193547336,52.717821821716775,3.7023400239351076,51.4567152043486,3.879746308687306,53.085595416824326,3.746691646256128,53.93824121939924,3.811159999609341,54.071611513797826,3.6544490288169165,54.60797875627304,3.5739346936329817,55.16410455803716,3.5142938756145092,56.04977196769174,3.5686199442036823,55.73588001625582,3.1214167677095723,57.71127385341313,3.3911221036530996,56.70053568503534,2.8830626403665747,58.554228894807544,2.823389467758261,58.80487498870474,2.8357745218611683,58.77632964311189,2.327326497692585,59.859228220827205,2.3418151864931005,59.6056476627639,1.5714599915763365,61.34002240011569,1.0095304535212364,62.2818463502849,1.5383978834061551,61.533728102247665,1.3927119686624856,61.79776166913609,0.9030767888954827,62.60482657269038,-0.1654586669028113,64.09742454428275,-0.16802917222577562,64.11449159391566,-0.5943962407943424,64.58217737765762,-0.9437530221335884,64.9524661251859,-0.7905756656081486,64.80542844781174,-1.7661863597962917,65.84558414487674,-2.8215956681517262,66.91880362254295,-2.5744236761061003,66.67473203530598,-3.069719534680919,67.14529320270493,-3.0387175797164456,67.08952682054446,-5.336126609442198,68.86480452425313,-4.879699158345089,68.59005704628625,-5.888392639776352,69.27140270098047,-5.316854385410778,68.89622135950164,-5.982750658279491,69.29004244963045,-6.587311722801729,69.71714289213936,-7.59858032911951,70.2707885552569,-7.153379155430283,70.04076917933862,-9.220836530207773,71.06117752580494,-9.748678085500437,71.26931573850335,-10.343033582821828,71.51550654714795,-9.996889863386688,71.37990599600624,-11.779336815395677,72.01921834281428,-12.469294270737945,72.22680856400322,-12.977852987559537,72.36714876533077,-13.885121649910847,72.59202097658374,-13.231986433017255,72.43498556889813,-13.693611888114798,72.53655944832842,-15.205374323101642,72.85277397014835,-16.983428816690427,73.08313839939922,-17.51620568244563,73.13067055866196,-17.586440115036645,73.11159684013255,-17.006702639013124,73.06534106911886,-17.503295169796544,73.10110914676864,-19.588706586770485,73.15950056999525,-20.61253809209374,73.15573829059525,-20.926059449511172,73.1163653479361,-22.15519290581382,72.96723730107969,-21.529976923829246,73.02569395611162,-21.673214694717505,73.07117263901718,-22.639884445635936,72.90792057292714,-24.336311742895198,72.54940075070107,-23.56167242290674,72.7590651492055,-25.236614982132053,72.31144078071068,-25.517023916001214,72.27310727578433,-25.77755218652203,72.22034119529903,-26.73411890341855,71.83310498059299,-27.182024397661642,71.65779201740581,-28.197310520819443,71.23929282104238,-28.323070266716478,71.19323083324663,-28.901956697845602,71.0365442508579,-28.671151147572893,71.09146259064063,-29.337154690914623,70.67291154015494,-29.822004176609724,70.48066685440845,-32.002307541282384,69.12543329665323,-31.13720543529779,69.66789942710588,-32.51517140714347,68.6003230299838,-31.933552976814223,69.08706780620149,-32.89329144773187,68.38413718317389,-32.627489497488455,68.52180446670252,-34.013992353974096,67.18245264530007,-34.731020529744086,66.5319615187235,-34.60095519698465,66.67332520849432,-34.397483788913604,66.8445501176964,-34.99051401350732,66.16369952292791,-35.835813338356296,64.87302557382944,-36.41392757674185,64.24518523928367,-36.37177460600254,64.27900389081144,-36.96090389497934,63.08601621133172,-37.06325150929826,62.76885655915984,-37.370725993608104,62.32126795112617,-37.19898063889181,62.735113678973114,-37.789620415799114,60.71465747766621,-37.91215089343761,60.065016515117236,-38.06794407747024,59.51496078524512,-37.98755367163944,59.815472584910026,-37.93222000226743,59.96465420168582,-38.43013332029964,57.95731688358263,-38.36110283011256,58.5796190528628,-38.31090809761716,58.6265669160408,-38.548007724073535,56.34581413459106,-38.53400190043436,55.73526133520002,-38.39337762614153,56.628891505951685,-38.5361987645727,56.1819319145963,-38.382604437200385,55.06669119000228,-38.27730318218221,54.47895801388576,-38.11546228416766,53.39340759083764,-38.348798346099585,53.94729173534638,-38.05426221437621,52.911034027237825,-37.757701176854184,51.789703476618975,-37.7801606456335,51.601038517869526,-37.478335910749664,51.00866941851664,-36.84682020819042,49.40846526152213,-36.931574250037926,49.60928537147439,-37.044697474972565,49.77238749288401,-36.110175735769054,47.96682609383976,-35.817223268858314,47.30309170410879,-36.27859713640356,48.032851499426,-35.19063274989924,46.36096761405708,-35.409427135868555,46.774096813366185,-35.48298995733305,46.82161920325878,-34.11127016354995,45.02871027251345,-33.34692121711825,44.116067132428995,-34.153396606659186,44.99903264056779,-32.7241414622423,43.40830688620235,-32.69609293539118,43.46897393041403,-33.15996852944484,43.88068408537545,-31.790111874388664,42.59206903202757,-32.174550991669605,42.85911095156645,-30.594014195631505,41.56939748387309,-29.798878073413242,40.98579265261379,-29.116208322254835,40.50997705770119,-28.480243693103652,40.106327191796396,-29.679130569831713,40.87686362954841,-27.487933024300965,39.534838277751206,-26.670091844946228,39.07107623528622,-28.09033594076971,39.83467821536232,-27.404425819828802,39.44232169842421,-25.199589808220182,38.38830686389629,-24.320796977579622,38.03184015540418,-24.222457525157772,37.99209149800316,-23.273085476290532,37.64675777111838,-24.362737771896217,38.03905829087101,-22.59104839280056,37.425172237636154,-22.554327416670983,37.41428885907009,-20.802086475891088,36.95228976268946,-19.606640356084053,36.711749523121384,-21.151535167398507,37.025847702975085,-19.103397352200517,36.622052335105,-17.755189067282217,36.43142132322111,-18.757729278600465,36.55822933093434,-16.16454236025363,36.31489281363275,-16.835576370227614,36.369310655708595,-16.75625901147119,36.360909681876166,-14.75827601361165,36.28870777243874,-14.481637348671047,36.2941830609999,-12.757666386240246,36.37855706901692,-13.299605245002734,36.3981963208728,-12.431086914576948,36.47333964638245,-12.754459085340546,36.411316224225246,-11.569639063524349,36.60278756635844,-9.58630282352735,36.91803986879944,-10.801978816753874,36.746315362666486,-10.532076893937695,36.77646104074683,-10.053456262648947,36.897906092389086,-7.49950932143962,37.63749817481747,-8.445149181034292,37.296523130678494,-7.866015278407101,37.483341044881534,-6.535828132422992,37.96082319635138,-5.348389878158038,38.47497724145586,-5.188160803300811,38.686359926796854,-5.284746230335337,38.578841587328746,-4.4876996833631715,39.01949950230574,-4.60508222517419,38.93157909588073,-2.6281372285509566,40.14372323352195,-3.006171141421019,40.01440593355895,-2.9065618322125673,39.96683076464895,-1.3264538114758135,41.29865679591167,-2.0695136036797734,40.68059736987853,-1.7186134759097307,40.891824155776845,-0.658292758250731,41.82628613119083,-0.11909948210801957,42.550427480372996,0.5530696927707659,43.48130162677738,0.16207920078553428,42.94589280247532,0.8557886374661443,43.78304265564057,1.6695989894828074,45.086857888128314,1.9138492298634944,45.19201442981299,1.3858907866403953,44.66429566951725,2.330133268971551,46.101946341586356,2.3481803779336943,46.27501515526693,2.762700495502962,46.97912700863035,2.991029689263776,48.048234176877266,2.8830913977395802,47.67076653927519" fill="rgb(215,127,140)" stroke="black" stroke-width="3" stroke-linejoin="round" filter="url(#fuzzy)"></polyline></g></svg>