<svg viewBox="-100 -100 200 200" xmlns="http://www.w3.org/2000/svg" width="400" height="400" id="face-svg"><defs><clipPath id="leftEyeClipPath"><polyline points="26.80708627988675,6.6788442754124375,26.421933303187256,6.150375192604102,26.00874015173469,5.609068341844917,25.56922917820872,5.057690145874043,25.10505669289266,4.49887927506764,24.61781422130183,3.9351491473312894,24.10902976181197,3.3688904279924117,23.580169043287658,2.802373529692689,23.03263678271069,2.2377511122804705,22.46777794280848,1.6770605827032092,21.886878989682476,1.122226594899864,21.29116915043654,0.5750635496933256,20.681821670805363,0.037278094682825724,20.059955072782845,-0.4895283758636424,19.42663441225052,-1.0038572211168848,18.782872536605936,-1.5043100537941356,18.006037397984038,-2.2456674643336534,17.2195294432222,-2.9593053229415958,16.424624025588976,-3.6424956547909915,15.622514146997633,-4.292810638057137,14.814316656307444,-4.908111471432701,14.001078113344121,-5.486537318383135,13.183780326707566,-6.026494330645129,12.363345573435087,-6.526644753470968,11.540641508588202,-6.9858961151215375,10.716485772831232,-7.403390503110895,9.89165030606979,-7.778493929705078,9.066865375217343,-8.110785789178102,8.242823324157996,-8.400048409327809,7.420182053973642,-8.64625669975456,6.599568241503618,-8.849567899405372,5.781580304305059,-9.010311425886528,4.96679112008205,-9.128978829047238,4.155750508651783,-9.206213851337402,3.348987484515807,-9.242802597442083,2.547012288104579,-9.239663815695657,1.7503182037634457,-9.197839293778262,0.9593831725481823,-9.118484371197656,0.17467120789830126,-9.002858571058916,-0.6033663777437863,-8.852316353625099,-1.37428992729956,-8.668297994171581,-2.1376705663389846,-8.452320587636748,-2.89308949521478,-8.205969182572076,-3.640137437978197,-7.930888046894253,-4.378414240008136,-7.628772067942233,-5.107528606285492,-7.301358289341923,-5.827097972244543,-6.950417587181487,-6.5367484991332425,-6.577746487999935,-7.2361151858142705,-6.185159131091837,-7.924842088938661,-5.77447937763101,-8.602582643423926,-5.347533069116029,-9.269000075168405,-4.906140437640129,-9.923767897933837,-4.452108670488734,-10.566570486327867,-3.987224631566992,-11.197103716818425,-3.513247742160406,-11.815075668711794,-3.0319030235312496,-12.420207377026184,-2.5448743038536144,-13.012233629192758,-2.0537975919898876,-13.590903797515818,-1.5602546206115022,-14.155982699324145,-1.0657665611667362,-14.707251476745213,-0.571787913198321,-15.24450848803422,-0.07970057051385382,-15.767570202389763,0.4091919332884473,-16.27627209018791,0.8936699974355697,-16.770469500566712,1.372603342234493,-17.250038518292822,1.8449562104630122,-17.716321024981607,2.31185380393808,-18.170612376609007,2.77460279730024,-18.612742211203205,3.2325411960358448,-19.04255075083189,3.6850441208430045,-19.459889882158233,4.131524142829425,-19.864624236996878,4.571431618710276,-20.256632272870007,5.0042550260059855,-20.63580735356334,5.429521298240115,-21.00205882968209,5.8467961601371705,-21.35531311920706,6.255684462820467,-21.695514788050584,6.655830519009937,-22.0226276306126,7.046918438219995,-22.33663575033659,7.428672461957362,-22.637544640265677,7.8008572989189116,-21.487170137207524,12.010641819153673,-21.048971486970416,11.902660320234425,-20.60000793492311,11.791602717359504,-20.14050699383322,11.677712870617889,-19.670725695669585,11.561256207988315,-19.190948207356964,11.442518352940212,-18.70148344653085,11.321803752034587,-18.202662697292137,11.19943430252496,-17.69483722596192,11.075747979958265,-17.178375896836194,10.951097465775767,-16.653662787940636,10.825848774913975,-16.121094806785315,10.700379883405553,-15.581079306119452,10.575079355980233,-15.03403169968615,10.450344973665727,-14.480373077977145,10.326582361388647,-13.917971898007139,10.202940759291433,-13.34493643264183,10.078823940270194,-12.762036636612056,9.955021837321024,-12.170022153874736,9.832318404650614,-11.569619767818173,9.711488390735067,-10.961530900030427,9.593294114925238,-10.346429175433123,9.478482257845858,-9.724958071583025,9.367780675835691,-9.097728669943734,9.261895249675959,-8.465317526929937,9.1615067778543,-7.828264682526479,9.067267924611468,-7.187071824284724,8.97980023301809,-6.542200624498481,8.899691213328651,-5.894071268361916,8.827491516860002,-5.243061190911795,8.7637122056416,-4.589504040556404,8.708822128084787,-3.9336888869935525,8.663245410918284,-3.275859691320009,8.627359077637198,-2.616215056134692,8.601490803712759,-1.9549082734380478,8.58591681881004,-1.2920476881299376,8.580859966260928,-0.6276973949084015,8.586487930039556,0.03812171362831718,8.602911639487482,0.7054305298741443,8.630183862035814,1.3742899272995595,8.668297994171578,2.044798551925651,8.717187060895537,2.717090191385449,8.776722933918741,3.3913307037702047,8.84671577884502,4.067714488458214,8.926913741586674,4.746460481123853,9.017002884260641,5.427807655124451,9.116607380812358,6.112010011462618,9.225289982614536,6.799331039521694,9.342552764288168,7.49003763077193,9.467838159992958,8.184393427645047,9.600530300434427,8.882651589774817,9.739956660834956,9.58504695980126,9.885390030116024,10.291787610936174,10.036050811538836,11.003045758487527,10.191109665050645,11.718948017540445,10.349690501584,12.43956498899237,10.510873839556126,13.164900156140046,10.67370053381574,13.894878074015963,10.83717588728453,14.62933183367189,11.000274155540499,15.367989783607158,11.161943454590503,16.110461490539286,11.321111082079163,16.856222921714625,11.476689262181415,17.604600830956624,11.627581324425968,18.354756330649376,11.772688326696882,19.10566763185408,11.910916132660539,19.69123600987886,12.017464790228628,20.270890469294383,12.118540590947601,20.843718264770246,12.213451553918885,21.408731781326896,12.301491224603367,21.96486619498383,12.381938826268332,22.510977133407696,12.454059411434393,23.045838336560504,12.51710401332243,23.568139317347715,12.570309797300505,24.076483022266434,12.61290021233082,24.569383492053536,12.644085142416628,25.045263522333844,12.663061058049177,25.502452324268244,12.669011167654634,25.93918318520187,12.66110556904103,26.35359112931221,12.638501400845175,26.74371057825733,12.600342993979613"></polyline></clipPath><clipPath id="rightEyeClipPath"><polyline points="-29.183022674587093,6.177383755146392,-28.9142611596794,5.4694959093992885,-28.61785094435132,4.750771510616829,-28.294475458424277,4.025249583318164,-27.944825118874423,3.2967452106323876,-27.569596714693624,2.5688545659968725,-27.169492791750265,1.84495994485561,-26.745221037650186,1.128234796357546,-26.297493666597564,0.4216487550549388,-25.82702680425577,-0.27202732739829827,-25.334539872608325,-0.9502163505482883,-24.820754974819696,-1.6105299334428196,-24.28639628009626,-2.250763382933016,-23.732189408547164,-2.868890661974998,-23.158860816045202,-3.4630593579315274,-22.567137179087727,-4.031585650873694,-21.94025531998135,-4.969980300013717,-21.285537986771665,-5.85499887899411,-20.603803627726705,-6.683441670797656,-19.895974769985596,-7.452663136365828,-19.163068768078055,-8.160539270796086,-18.406188835883743,-8.805435896030254,-17.626515358546115,-9.386177876578067,-16.825297480855596,-9.902019244820302,-16.00384496861669,-10.352614222435669,-15.163520339513905,-10.737989124495854,-14.305731259991127,-11.058515132772843,-13.431923204659242,-11.314881924802922,-12.543572374746677,-11.50807214525156,-11.642178872107717,-11.639336706123526,-10.729260125303117,-11.710170902362407,-9.806344564268056,-11.722291329383868,-8.874965540081845,-11.677613589086956,-7.936655486354421,-11.578230770887675,-6.992940318744075,-11.426392694319095,-6.04533406912144,-11.224485899742362,-5.095333750894236,-10.975014373712689,-4.144414452007663,-10.680580995544947,-3.194024652135104,-10.343869691622675,-2.245581760573904,-9.967628283995214,-1.3004678713609499,-9.554652019806976,-0.36002573212280353,-9.107767768103194,0.5744450768249023,-8.62981887055646,1.5016917566140284,-8.123650632658293,2.4205117006817645,-7.59209644192007,3.329755705834942,-7.0379644996274315,4.228330987006151,-6.4640251526926775,5.115203999186857,-5.872998812149223,5.98940307002285,-5.267544444832517,6.850020846557219,-4.65024862479164,7.696216559606163,-4.0236151309758625,8.527218109252907,-3.3900550777404064,9.342323974944918,-2.751877564715844,10.140904953679783,-2.1112808325851518,10.922405729764925,-1.470343911312952,11.686346279636474,-0.8310187473709796,12.432323115222513,-0.19512279650430742,13.160010369336025,0.4356679314176972,13.86916072658273,1.0598253889210518,14.55960620326912,1.6759755822735727,15.231258779795944,2.282904251113436,15.88411088902242,2.8795621498158397,16.518235764086388,3.4650699440532975,17.13378764916575,4.038722736005468,17.731001876666344,4.599994231674113,18.31019481432167,5.148540563758967,18.872560214812584,5.685109008267904,19.41901520345909,6.210263511994274,19.949538291372747,6.7235652993313355,20.464129487196544,7.224629003946465,20.96280983032857,7.7131208666751565,21.445620924145746,8.188756933415071,21.91262446922759,8.651301253020069,22.36390179657995,9.100564075194248,22.799553400858674,9.536400048385945,23.21969847359343,9.958706417681793,23.624474436411365,10.367421222700752,24.014036474260887,10.762521495488128,24.38855706863537,11.144021458409615,24.748225530796898,11.511970722045328,23.907350522677277,13.551223567933278,23.518329622138623,13.371371508044643,23.11814122065745,13.189275168748107,22.706872678406757,13.005343673410081,22.284633874386234,12.820015157157151,21.851555679531014,12.633754402248304,21.407788429820467,12.447050473447167,20.95350039938691,12.260414353394253,20.48887627362445,12.074376577979187,20.01411562229767,11.889484871712943,19.52943137265044,11.706301783100088,19.0350482825147,11.525402320011015,18.531201413419172,11.347371585054184,18.01813460369815,11.172802410948359,17.496098941600295,11.002292995894829,16.963412198014055,10.834436100386318,16.41846750290868,10.668276081384114,15.861635356477972,10.505068954019208,15.293287562999936,10.346037440492566,14.713795775945965,10.192366354460663,14.123530054913072,10.04519803499546,13.522857445779941,9.90562784777469,12.912140595487454,9.774699771158442,12.291736412844685,9.653402084807771,11.661994786760943,9.542663178501375,11.023257373304794,9.443347498806135,10.375856462990821,9.356251651257413,9.720113939694869,9.28210067570505,9.056340342598563,9.221544512480879,8.384834042563956,9.175154677043695,7.705880544339025,9.143421160757542,7.019751925994851,9.126749575459204,6.326706426995192,9.125458559470824,5.626988196299363,9.139777462713463,4.920827211899086,9.169844328577575,4.208439383190179,9.215704190206221,3.4900268475798404,9.277307698846924,2.7657784727303154,9.354510101928081,2.0358705758397395,9.447070588515793,1.3004678713609503,9.554652019806975,0.5597246585590474,9.67682106231471,-0.1862137396915058,9.813048741401651,-0.937209275469467,9.962711432817416,-1.6931292003282585,10.125092309895816,-2.453843804375531,10.29938326406787,-3.2192238585100315,10.484687316346413,-3.9891377484149775,10.680021537438243,-4.763448288907185,10.88432049413969,-5.542009207241142,11.096440239671447,-6.324661283967207,11.31516286560861,-7.1112281399432264,11.539201633061783,-7.901511658098696,11.76720670076514,-8.69528702855073,11.997771467727318,-9.492297405671042,12.229439548101059,-10.292248165703125,12.460712395927471,-11.094800753528887,12.690057597410782,-11.899566107183915,12.915917848379499,-12.706097648720593,13.136720634589844,-13.51388383001828,13.350888632527361,-14.322340222139793,13.55685084836258,-15.130801136833348,13.753054512716606,-15.938510768779231,13.937977748892573,-16.74461384718036,14.110143032228788,-17.548145785296008,14.268131458229476,-18.34802231651781,14.410597837129052,-19.002337283788773,14.543474687927135,-19.650122535819474,14.666353714664346,-20.290519246565193,14.778394037246384,-20.922611875142426,14.878753685823998,-21.545426568587878,14.96659047707325,-22.157929564617483,15.041062890475763,-22.759025594385424,15.101330944598972,-23.347556285243098,15.146557073376396,-23.922298563498163,15.175907002387879,-24.481963057173548,15.18855062513985,-25.025192498766415,15.183662879345581,-25.550560128007223,15.160424623205444,-26.0565680946187,15.118023511687156,-26.541645861074844,15.05565487280605,-27.004148605359976,14.97252258390532"></polyline></clipPath><filter id="fuzzy"><feTurbulence id="turbulence" baseFrequency="0.05" numOctaves="3" type="noise" result="noise"></feTurbulence><feDisplacementMap in="SourceGraphic" in2="noise" scale="2"></feDisplacementMap></filter><linearGradient id="rainbowGradient" x1="0%" y1="0%" x2="100%" y2="0%"><stop offset="0%" style="stop-color: rgb(233, 236, 239);  stop-opacity: 1"></stop><stop offset="50%" style="stop-color: rgb(44, 34, 43);  stop-opacity: 1"></stop><stop offset="100%" style="stop-color: rgb(185, 55, 55);  stop-opacity: 1"></stop></linearGradient></defs><title>That&#39;s an ugly face</title><desc>CREATED BY XUAN TANG, MORE INFO AT TXSTC55.GITHUB.IO</desc><rect x="-100" y="-100" width="100%" height="100%" opacity="1" fill="rgb(85, 107, 47)"></rect><polyline id="faceContour" points="69,1,69,1,69,3,69,5,69,4,69,7,69,8,69,8,69,10,69,12,68,12,68,14,68,15,68,17,68,18,68,19,67,19,68,20,67,20,68,21,67,24,66,25,66,27,66,28,66,28,65,30,65,29,64,32,63,34,63,36,63,35,62,37,62,38,61,39,61,39,61,40,60,42,60,41,58,45,58,45,59,44,57,46,57,46,56,48,54,50,55,50,53,52,52,53,53,52,52,53,50,55,50,55,49,56,47,58,47,58,46,59,46,59,45,60,45,60,43,62,41,63,40,64,42,63,41,63,40,65,39,65,36,67,37,66,37,66,34,68,34,68,31,69,30,70,30,69,28,70,29,70,26,71,25,72,26,71,25,72,23,72,22,73,22,73,21,73,20,73,17,74,15,74,16,74,13,75,12,75,12,75,11,75,9,75,10,75,8,75,5,76,4,76,3,76,1,76,1,75,-1,75,-1,75,-1,76,-2,75,-6,75,-4,75,-6,75,-9,75,-10,75,-10,74,-12,74,-14,74,-14,74,-16,74,-16,73,-18,73,-19,73,-19,73,-21,72,-22,72,-24,71,-25,71,-24,71,-26,70,-28,69,-27,70,-29,69,-30,68,-30,68,-32,67,-33,67,-34,66,-35,66,-37,65,-38,63,-38,64,-38,64,-40,63,-40,62,-43,60,-44,59,-44,60,-43,60,-45,58,-47,57,-48,56,-48,56,-49,55,-51,53,-51,52,-50,53,-52,51,-53,50,-52,51,-54,49,-54,49,-55,48,-56,47,-56,47,-57,44,-59,42,-59,42,-59,41,-59,42,-61,38,-60,39,-61,39,-62,36,-62,36,-63,33,-63,34,-63,32,-64,32,-64,30,-65,29,-65,30,-66,26,-66,27,-66,25,-66,24,-67,22,-67,21,-68,20,-67,20,-68,18,-68,17,-68,17,-68,15,-68,15,-69,14,-69,11,-69,10,-69,9,-69,8,-69,8,-69,5,-69,5,-69,3,-69,1,-69,3,-69,1,-69,-3,-69,-2,-69,-5,-69,-5,-68,-6,-68,-5,-68,-8,-68,-8,-68,-10,-68,-10,-67,-14,-67,-14,-67,-15,-66,-16,-66,-17,-66,-18,-66,-18,-65,-20,-65,-22,-64,-23,-65,-23,-63,-27,-63,-27,-62,-28,-62,-28,-61,-31,-61,-30,-61,-31,-61,-33,-61,-32,-60,-34,-59,-35,-58,-38,-57,-38,-57,-39,-56,-40,-56,-41,-55,-42,-55,-42,-54,-43,-54,-44,-53,-45,-52,-46,-51,-47,-50,-49,-50,-49,-50,-49,-50,-50,-48,-52,-47,-53,-46,-54,-46,-54,-44,-56,-44,-55,-42,-57,-43,-56,-41,-59,-40,-59,-39,-60,-37,-62,-39,-61,-36,-62,-35,-63,-37,-62,-33,-65,-33,-64,-33,-65,-31,-66,-31,-66,-29,-67,-29,-67,-29,-67,-27,-68,-27,-68,-26,-69,-25,-69,-23,-70,-23,-70,-21,-71,-21,-71,-19,-72,-18,-72,-17,-73,-16,-73,-15,-73,-14,-74,-13,-74,-14,-74,-12,-74,-9,-75,-9,-75,-9,-75,-6,-75,-5,-75,-6,-75,-4,-75,-3,-75,-2,-76,-1,-76,1,-76,1,-76,3,-76,4,-76,5,-76,5,-75,7,-75,7,-76,8,-75,9,-75,11,-75,12,-75,11,-75,14,-74,14,-75,15,-74,16,-74,18,-73,18,-73,20,-73,21,-72,22,-72,21,-72,24,-71,24,-71,26,-70,26,-70,26,-70,29,-69,29,-69,30,-68,31,-68,32,-67,33,-66,33,-66,35,-65,35,-65,36,-64,37,-63,38,-63,40,-62,40,-61,42,-60,42,-60,41,-60,42,-59,44,-58,46,-56,45,-57,46,-55,47,-54,47,-54,48,-53,49,-52,50,-51,51,-49,51,-50,53,-47,53,-47,53,-47,54,-46,55,-44,55,-44,57,-42,56,-42,56,-42,58,-39,58,-39,59,-37,59,-37,60,-34,61,-34,61,-33,62,-31,62,-30,62,-30,63,-29,63,-27,64,-26,64,-25,65,-24,65,-23,65,-23,65,-21,66,-20,66,-18,66,-17,67,-14,67,-14,67,-14,67,-13,67,-12,68,-10,68,-8,68,-7,68,-7,69,-6,69,-2,69,-1,69,-1,69,1,69,1" fill="#ffc9a9" stroke="black" stroke-width="1.6666666666666665" stroke-linejoin="round" filter="url(#fuzzy)"></polyline><g transform="translate(41.443289840146285 -24.88446866599271)"><polyline id="rightCountour" points="-29.183022674587093,6.177383755146392,-28.9142611596794,5.4694959093992885,-28.61785094435132,4.750771510616829,-28.294475458424277,4.025249583318164,-27.944825118874423,3.2967452106323876,-27.569596714693624,2.5688545659968725,-27.169492791750265,1.84495994485561,-26.745221037650186,1.128234796357546,-26.297493666597564,0.4216487550549388,-25.82702680425577,-0.27202732739829827,-25.334539872608325,-0.9502163505482883,-24.820754974819696,-1.6105299334428196,-24.28639628009626,-2.250763382933016,-23.732189408547164,-2.868890661974998,-23.158860816045202,-3.4630593579315274,-22.567137179087727,-4.031585650873694,-21.94025531998135,-4.969980300013717,-21.285537986771665,-5.85499887899411,-20.603803627726705,-6.683441670797656,-19.895974769985596,-7.452663136365828,-19.163068768078055,-8.160539270796086,-18.406188835883743,-8.805435896030254,-17.626515358546115,-9.386177876578067,-16.825297480855596,-9.902019244820302,-16.00384496861669,-10.352614222435669,-15.163520339513905,-10.737989124495854,-14.305731259991127,-11.058515132772843,-13.431923204659242,-11.314881924802922,-12.543572374746677,-11.50807214525156,-11.642178872107717,-11.639336706123526,-10.729260125303117,-11.710170902362407,-9.806344564268056,-11.722291329383868,-8.874965540081845,-11.677613589086956,-7.936655486354421,-11.578230770887675,-6.992940318744075,-11.426392694319095,-6.04533406912144,-11.224485899742362,-5.095333750894236,-10.975014373712689,-4.144414452007663,-10.680580995544947,-3.194024652135104,-10.343869691622675,-2.245581760573904,-9.967628283995214,-1.3004678713609499,-9.554652019806976,-0.36002573212280353,-9.107767768103194,0.5744450768249023,-8.62981887055646,1.5016917566140284,-8.123650632658293,2.4205117006817645,-7.59209644192007,3.329755705834942,-7.0379644996274315,4.228330987006151,-6.4640251526926775,5.115203999186857,-5.872998812149223,5.98940307002285,-5.267544444832517,6.850020846557219,-4.65024862479164,7.696216559606163,-4.0236151309758625,8.527218109252907,-3.3900550777404064,9.342323974944918,-2.751877564715844,10.140904953679783,-2.1112808325851518,10.922405729764925,-1.470343911312952,11.686346279636474,-0.8310187473709796,12.432323115222513,-0.19512279650430742,13.160010369336025,0.4356679314176972,13.86916072658273,1.0598253889210518,14.55960620326912,1.6759755822735727,15.231258779795944,2.282904251113436,15.88411088902242,2.8795621498158397,16.518235764086388,3.4650699440532975,17.13378764916575,4.038722736005468,17.731001876666344,4.599994231674113,18.31019481432167,5.148540563758967,18.872560214812584,5.685109008267904,19.41901520345909,6.210263511994274,19.949538291372747,6.7235652993313355,20.464129487196544,7.224629003946465,20.96280983032857,7.7131208666751565,21.445620924145746,8.188756933415071,21.91262446922759,8.651301253020069,22.36390179657995,9.100564075194248,22.799553400858674,9.536400048385945,23.21969847359343,9.958706417681793,23.624474436411365,10.367421222700752,24.014036474260887,10.762521495488128,24.38855706863537,11.144021458409615,24.748225530796898,11.511970722045328,23.907350522677277,13.551223567933278,23.518329622138623,13.371371508044643,23.11814122065745,13.189275168748107,22.706872678406757,13.005343673410081,22.284633874386234,12.820015157157151,21.851555679531014,12.633754402248304,21.407788429820467,12.447050473447167,20.95350039938691,12.260414353394253,20.48887627362445,12.074376577979187,20.01411562229767,11.889484871712943,19.52943137265044,11.706301783100088,19.0350482825147,11.525402320011015,18.531201413419172,11.347371585054184,18.01813460369815,11.172802410948359,17.496098941600295,11.002292995894829,16.963412198014055,10.834436100386318,16.41846750290868,10.668276081384114,15.861635356477972,10.505068954019208,15.293287562999936,10.346037440492566,14.713795775945965,10.192366354460663,14.123530054913072,10.04519803499546,13.522857445779941,9.90562784777469,12.912140595487454,9.774699771158442,12.291736412844685,9.653402084807771,11.661994786760943,9.542663178501375,11.023257373304794,9.443347498806135,10.375856462990821,9.356251651257413,9.720113939694869,9.28210067570505,9.056340342598563,9.221544512480879,8.384834042563956,9.175154677043695,7.705880544339025,9.143421160757542,7.019751925994851,9.126749575459204,6.326706426995192,9.125458559470824,5.626988196299363,9.139777462713463,4.920827211899086,9.169844328577575,4.208439383190179,9.215704190206221,3.4900268475798404,9.277307698846924,2.7657784727303154,9.354510101928081,2.0358705758397395,9.447070588515793,1.3004678713609503,9.554652019806975,0.5597246585590474,9.67682106231471,-0.1862137396915058,9.813048741401651,-0.937209275469467,9.962711432817416,-1.6931292003282585,10.125092309895816,-2.453843804375531,10.29938326406787,-3.2192238585100315,10.484687316346413,-3.9891377484149775,10.680021537438243,-4.763448288907185,10.88432049413969,-5.542009207241142,11.096440239671447,-6.324661283967207,11.31516286560861,-7.1112281399432264,11.539201633061783,-7.901511658098696,11.76720670076514,-8.69528702855073,11.997771467727318,-9.492297405671042,12.229439548101059,-10.292248165703125,12.460712395927471,-11.094800753528887,12.690057597410782,-11.899566107183915,12.915917848379499,-12.706097648720593,13.136720634589844,-13.51388383001828,13.350888632527361,-14.322340222139793,13.55685084836258,-15.130801136833348,13.753054512716606,-15.938510768779231,13.937977748892573,-16.74461384718036,14.110143032228788,-17.548145785296008,14.268131458229476,-18.34802231651781,14.410597837129052,-19.002337283788773,14.543474687927135,-19.650122535819474,14.666353714664346,-20.290519246565193,14.778394037246384,-20.922611875142426,14.878753685823998,-21.545426568587878,14.96659047707325,-22.157929564617483,15.041062890475763,-22.759025594385424,15.101330944598972,-23.347556285243098,15.146557073376396,-23.922298563498163,15.175907002387879,-24.481963057173548,15.18855062513985,-25.025192498766415,15.183662879345581,-25.550560128007223,15.160424623205444,-26.0565680946187,15.118023511687156,-26.541645861074844,15.05565487280605,-27.004148605359976,14.97252258390532" fill="white" stroke="white" stroke-width="0" stroke-linejoin="round" filter="url(#fuzzy)"></polyline></g><g transform="translate(-29.99357952123985 -21.969417710030374)"><polyline id="leftCountour" points="26.80708627988675,6.6788442754124375,26.421933303187256,6.150375192604102,26.00874015173469,5.609068341844917,25.56922917820872,5.057690145874043,25.10505669289266,4.49887927506764,24.61781422130183,3.9351491473312894,24.10902976181197,3.3688904279924117,23.580169043287658,2.802373529692689,23.03263678271069,2.2377511122804705,22.46777794280848,1.6770605827032092,21.886878989682476,1.122226594899864,21.29116915043654,0.5750635496933256,20.681821670805363,0.037278094682825724,20.059955072782845,-0.4895283758636424,19.42663441225052,-1.0038572211168848,18.782872536605936,-1.5043100537941356,18.006037397984038,-2.2456674643336534,17.2195294432222,-2.9593053229415958,16.424624025588976,-3.6424956547909915,15.622514146997633,-4.292810638057137,14.814316656307444,-4.908111471432701,14.001078113344121,-5.486537318383135,13.183780326707566,-6.026494330645129,12.363345573435087,-6.526644753470968,11.540641508588202,-6.9858961151215375,10.716485772831232,-7.403390503110895,9.89165030606979,-7.778493929705078,9.066865375217343,-8.110785789178102,8.242823324157996,-8.400048409327809,7.420182053973642,-8.64625669975456,6.599568241503618,-8.849567899405372,5.781580304305059,-9.010311425886528,4.96679112008205,-9.128978829047238,4.155750508651783,-9.206213851337402,3.348987484515807,-9.242802597442083,2.547012288104579,-9.239663815695657,1.7503182037634457,-9.197839293778262,0.9593831725481823,-9.118484371197656,0.17467120789830126,-9.002858571058916,-0.6033663777437863,-8.852316353625099,-1.37428992729956,-8.668297994171581,-2.1376705663389846,-8.452320587636748,-2.89308949521478,-8.205969182572076,-3.640137437978197,-7.930888046894253,-4.378414240008136,-7.628772067942233,-5.107528606285492,-7.301358289341923,-5.827097972244543,-6.950417587181487,-6.5367484991332425,-6.577746487999935,-7.2361151858142705,-6.185159131091837,-7.924842088938661,-5.77447937763101,-8.602582643423926,-5.347533069116029,-9.269000075168405,-4.906140437640129,-9.923767897933837,-4.452108670488734,-10.566570486327867,-3.987224631566992,-11.197103716818425,-3.513247742160406,-11.815075668711794,-3.0319030235312496,-12.420207377026184,-2.5448743038536144,-13.012233629192758,-2.0537975919898876,-13.590903797515818,-1.5602546206115022,-14.155982699324145,-1.0657665611667362,-14.707251476745213,-0.571787913198321,-15.24450848803422,-0.07970057051385382,-15.767570202389763,0.4091919332884473,-16.27627209018791,0.8936699974355697,-16.770469500566712,1.372603342234493,-17.250038518292822,1.8449562104630122,-17.716321024981607,2.31185380393808,-18.170612376609007,2.77460279730024,-18.612742211203205,3.2325411960358448,-19.04255075083189,3.6850441208430045,-19.459889882158233,4.131524142829425,-19.864624236996878,4.571431618710276,-20.256632272870007,5.0042550260059855,-20.63580735356334,5.429521298240115,-21.00205882968209,5.8467961601371705,-21.35531311920706,6.255684462820467,-21.695514788050584,6.655830519009937,-22.0226276306126,7.046918438219995,-22.33663575033659,7.428672461957362,-22.637544640265677,7.8008572989189116,-21.487170137207524,12.010641819153673,-21.048971486970416,11.902660320234425,-20.60000793492311,11.791602717359504,-20.14050699383322,11.677712870617889,-19.670725695669585,11.561256207988315,-19.190948207356964,11.442518352940212,-18.70148344653085,11.321803752034587,-18.202662697292137,11.19943430252496,-17.69483722596192,11.075747979958265,-17.178375896836194,10.951097465775767,-16.653662787940636,10.825848774913975,-16.121094806785315,10.700379883405553,-15.581079306119452,10.575079355980233,-15.03403169968615,10.450344973665727,-14.480373077977145,10.326582361388647,-13.917971898007139,10.202940759291433,-13.34493643264183,10.078823940270194,-12.762036636612056,9.955021837321024,-12.170022153874736,9.832318404650614,-11.569619767818173,9.711488390735067,-10.961530900030427,9.593294114925238,-10.346429175433123,9.478482257845858,-9.724958071583025,9.367780675835691,-9.097728669943734,9.261895249675959,-8.465317526929937,9.1615067778543,-7.828264682526479,9.067267924611468,-7.187071824284724,8.97980023301809,-6.542200624498481,8.899691213328651,-5.894071268361916,8.827491516860002,-5.243061190911795,8.7637122056416,-4.589504040556404,8.708822128084787,-3.9336888869935525,8.663245410918284,-3.275859691320009,8.627359077637198,-2.616215056134692,8.601490803712759,-1.9549082734380478,8.58591681881004,-1.2920476881299376,8.580859966260928,-0.6276973949084015,8.586487930039556,0.03812171362831718,8.602911639487482,0.7054305298741443,8.630183862035814,1.3742899272995595,8.668297994171578,2.044798551925651,8.717187060895537,2.717090191385449,8.776722933918741,3.3913307037702047,8.84671577884502,4.067714488458214,8.926913741586674,4.746460481123853,9.017002884260641,5.427807655124451,9.116607380812358,6.112010011462618,9.225289982614536,6.799331039521694,9.342552764288168,7.49003763077193,9.467838159992958,8.184393427645047,9.600530300434427,8.882651589774817,9.739956660834956,9.58504695980126,9.885390030116024,10.291787610936174,10.036050811538836,11.003045758487527,10.191109665050645,11.718948017540445,10.349690501584,12.43956498899237,10.510873839556126,13.164900156140046,10.67370053381574,13.894878074015963,10.83717588728453,14.62933183367189,11.000274155540499,15.367989783607158,11.161943454590503,16.110461490539286,11.321111082079163,16.856222921714625,11.476689262181415,17.604600830956624,11.627581324425968,18.354756330649376,11.772688326696882,19.10566763185408,11.910916132660539,19.69123600987886,12.017464790228628,20.270890469294383,12.118540590947601,20.843718264770246,12.213451553918885,21.408731781326896,12.301491224603367,21.96486619498383,12.381938826268332,22.510977133407696,12.454059411434393,23.045838336560504,12.51710401332243,23.568139317347715,12.570309797300505,24.076483022266434,12.61290021233082,24.569383492053536,12.644085142416628,25.045263522333844,12.663061058049177,25.502452324268244,12.669011167654634,25.93918318520187,12.66110556904103,26.35359112931221,12.638501400845175,26.74371057825733,12.600342993979613" fill="white" stroke="white" stroke-width="0" stroke-linejoin="round" filter="url(#fuzzy)"></polyline></g><g transform="translate(41.443289840146285 -24.88446866599271)"><polyline id="rightUpper" points="-30.205832064003836,11.60147484748888,-30.249169194960682,11.276963650775407,-30.258542951400578,10.887801905746814,-30.23453305894598,10.440544794231593,-30.177732381765242,9.941473239684766,-30.088746307433517,9.396598938886232,-29.968192131793625,8.811669393639097,-29.81669844381695,8.192172942468034,-29.63490451046432,7.5433437923176,-29.423459661546907,6.870167050250595,-29.183022674587093,6.177383755146392,-28.9142611596794,5.4694959093992885,-28.61785094435132,4.750771510616829,-28.294475458424277,4.025249583318164,-27.944825118874423,3.2967452106323876,-27.569596714693624,2.5688545659968725,-27.169492791750265,1.84495994485561,-26.745221037650186,1.128234796357546,-26.297493666597564,0.4216487550549388,-25.82702680425577,-0.27202732739829827,-25.334539872608325,-0.9502163505482883,-24.820754974819696,-1.6105299334428196,-24.28639628009626,-2.250763382933016,-23.732189408547164,-2.868890661974998,-23.158860816045202,-3.4630593579315274,-22.567137179087727,-4.031585650873694,-21.94025531998135,-4.969980300013717,-21.285537986771665,-5.85499887899411,-20.603803627726705,-6.683441670797656,-19.895974769985596,-7.452663136365828,-19.163068768078055,-8.160539270796086,-18.406188835883743,-8.805435896030254,-17.626515358546115,-9.386177876578067,-16.825297480855596,-9.902019244820302,-16.00384496861669,-10.352614222435669,-15.163520339513905,-10.737989124495854,-14.305731259991127,-11.058515132772843,-13.431923204659242,-11.314881924802922,-12.543572374746677,-11.50807214525156,-11.642178872107717,-11.639336706123526,-10.729260125303117,-11.710170902362407,-9.806344564268056,-11.722291329383868,-8.874965540081845,-11.677613589086956,-7.936655486354421,-11.578230770887675,-6.992940318744075,-11.426392694319095,-6.04533406912144,-11.224485899742362,-5.095333750894236,-10.975014373712689,-4.144414452007663,-10.680580995544947,-3.194024652135104,-10.343869691622675,-2.245581760573904,-9.967628283995214,-1.3004678713609499,-9.554652019806976,-0.36002573212280353,-9.107767768103194,0.5744450768249023,-8.62981887055646,1.5016917566140284,-8.123650632658293,2.4205117006817645,-7.59209644192007,3.329755705834942,-7.0379644996274315,4.228330987006151,-6.4640251526926775,5.115203999186857,-5.872998812149223,5.98940307002285,-5.267544444832517,6.850020846557219,-4.65024862479164,7.696216559606163,-4.0236151309758625,8.527218109252907,-3.3900550777404064,9.342323974944918,-2.751877564715844,10.140904953679783,-2.1112808325851518,10.922405729764925,-1.470343911312952,11.686346279636474,-0.8310187473709796,12.432323115222513,-0.19512279650430742,13.160010369336025,0.4356679314176972,13.86916072658273,1.0598253889210518,14.55960620326912,1.6759755822735727,15.231258779795944,2.282904251113436,15.88411088902242,2.8795621498158397,16.518235764086388,3.4650699440532975,17.13378764916575,4.038722736005468,17.731001876666344,4.599994231674113,18.31019481432167,5.148540563758967,18.872560214812584,5.685109008267904,19.41901520345909,6.210263511994274,19.949538291372747,6.7235652993313355,20.464129487196544,7.224629003946465,20.96280983032857,7.7131208666751565,21.445620924145746,8.188756933415071,21.91262446922759,8.651301253020069,22.36390179657995,9.100564075194248,22.799553400858674,9.536400048385945,23.21969847359343,9.958706417681793,23.624474436411365,10.367421222700752,24.014036474260887,10.762521495488128,24.38855706863537,11.144021458409615,24.748225530796898,11.511970722045328,25.093247534999986,11.866452483083826,25.42384465171533,12.20758172221614,25.740253880853516,12.535503402029828,26.042727184988784,12.850390664902974,26.331531022582727,13.152443030898244,26.60694588120803,13.441884595656916,26.869265810772244,13.718962228292895,27.11879795674144,13.983943769286753,27.355862093364024,14.237116228379776,27.580790156894402,14.478783982467965" fill="none" stroke="black" stroke-width="1.6666666666666665" stroke-linejoin="round" filter="url(#fuzzy)"></polyline><polyline id="rightLower" points="-29.969377898744977,12.831919041816285,-29.8405752020784,13.163967184524616,-29.668312223131622,13.46795344533405,-29.45506447707201,13.74454025820869,-29.203217222167265,13.994407369243056,-28.91506705702648,14.218250960381834,-28.592823517841083,14.416782773139621,-28.23861067562585,14.590729232320669,-27.854468733459907,14.740830569738625,-27.44235562372769,14.867839947936282,-27.004148605359976,14.97252258390532,-26.541645861074844,15.05565487280605,-26.0565680946187,15.118023511687156,-25.550560128007223,15.160424623205444,-25.025192498766415,15.183662879345581,-24.481963057173548,15.18855062513985,-23.922298563498163,15.175907002387879,-23.347556285243098,15.146557073376396,-22.759025594385424,15.101330944598972,-22.157929564617483,15.041062890475763,-21.545426568587878,14.96659047707325,-20.922611875142426,14.878753685823998,-20.290519246565193,14.778394037246384,-19.650122535819474,14.666353714664346,-19.002337283788773,14.543474687927135,-18.34802231651781,14.410597837129052,-17.548145785296008,14.268131458229476,-16.74461384718036,14.110143032228788,-15.938510768779231,13.937977748892573,-15.130801136833348,13.753054512716606,-14.322340222139793,13.55685084836258,-13.51388383001828,13.350888632527361,-12.706097648720593,13.136720634589844,-11.899566107183915,12.915917848379499,-11.094800753528887,12.690057597410782,-10.292248165703125,12.460712395927471,-9.492297405671042,12.229439548101059,-8.69528702855073,11.997771467727318,-7.901511658098696,11.76720670076514,-7.1112281399432264,11.539201633061783,-6.324661283967207,11.31516286560861,-5.542009207241142,11.096440239671447,-4.763448288907185,10.88432049413969,-3.9891377484149775,10.680021537438243,-3.2192238585100315,10.484687316346413,-2.453843804375531,10.29938326406787,-1.6931292003282585,10.125092309895816,-0.937209275469467,9.962711432817416,-0.1862137396915058,9.813048741401651,0.5597246585590474,9.67682106231471,1.3004678713609503,9.554652019806975,2.0358705758397395,9.447070588515793,2.7657784727303154,9.354510101928081,3.4900268475798404,9.277307698846924,4.208439383190179,9.215704190206221,4.920827211899086,9.169844328577575,5.626988196299363,9.139777462713463,6.326706426995192,9.125458559470824,7.019751925994851,9.126749575459204,7.705880544339025,9.143421160757542,8.384834042563956,9.175154677043695,9.056340342598563,9.221544512480879,9.720113939694869,9.28210067570505,10.375856462990821,9.356251651257413,11.023257373304794,9.443347498806135,11.661994786760943,9.542663178501375,12.291736412844685,9.653402084807771,12.912140595487454,9.774699771158442,13.522857445779941,9.90562784777469,14.123530054913072,10.04519803499546,14.713795775945965,10.192366354460663,15.293287562999936,10.346037440492566,15.861635356477972,10.505068954019208,16.41846750290868,10.668276081384114,16.963412198014055,10.834436100386318,17.496098941600295,11.002292995894829,18.01813460369815,11.172802410948359,18.531201413419172,11.347371585054184,19.0350482825147,11.525402320011015,19.52943137265044,11.706301783100088,20.01411562229767,11.889484871712943,20.48887627362445,12.074376577979187,20.95350039938691,12.260414353394253,21.407788429820467,12.447050473447167,21.851555679531014,12.633754402248304,22.284633874386234,12.820015157157151,22.706872678406757,13.005343673410081,23.11814122065745,13.189275168748107,23.518329622138623,13.371371508044643,23.907350522677277,13.551223567933278,24.285140607818327,13.728453601435518,24.65166213571585,13.902717602588574,25.006904464024306,14.073707671073107,25.350885576789793,14.241154376840997,25.683653611341242,14.404829124743106,26.005288385181704,14.564546519157044,26.315902922879552,14.720166728614924,26.615644982959704,14.87159785043113,26.904698584794897,15.018798275330077,27.18328553549689,15.161779052073982" fill="none" stroke="black" stroke-width="2.2222222222222223" stroke-linejoin="round" filter="url(#fuzzy)"></polyline><!--[--><circle r="3.1481766640110203" cx="-19.95070278864167" cy="6.277033974688818" stroke="black" fill="none" stroke-width="1" filter="url(#fuzzy)" clip-path="url(#rightEyeClipPath)"></circle><circle r="3.9362212719458647" cx="-19.31674086626126" cy="2.7919924017121662" stroke="black" fill="none" stroke-width="1" filter="url(#fuzzy)" clip-path="url(#rightEyeClipPath)"></circle><circle r="4.626111005459226" cx="-20.91310972996152" cy="7.280546864805466" stroke="black" fill="none" stroke-width="1" filter="url(#fuzzy)" clip-path="url(#rightEyeClipPath)"></circle><circle r="4.927230715199245" cx="-21.079662085057226" cy="4.8850963965841006" stroke="black" fill="none" stroke-width="1" filter="url(#fuzzy)" clip-path="url(#rightEyeClipPath)"></circle><circle r="4.490149475835242" cx="-18.179453212268907" cy="6.549521774906772" stroke="black" fill="none" stroke-width="1" filter="url(#fuzzy)" clip-path="url(#rightEyeClipPath)"></circle><circle r="4.780839030314458" cx="-19.43207896736901" cy="3.43704171583616" stroke="black" fill="none" stroke-width="1" filter="url(#fuzzy)" clip-path="url(#rightEyeClipPath)"></circle><circle r="3.2421049686773076" cx="-21.618398522885585" cy="2.8163351726320727" stroke="black" fill="none" stroke-width="1" filter="url(#fuzzy)" clip-path="url(#rightEyeClipPath)"></circle><circle r="4.372758349757221" cx="-17.942027853863525" cy="6.476114116614228" stroke="black" fill="none" stroke-width="1" filter="url(#fuzzy)" clip-path="url(#rightEyeClipPath)"></circle><circle r="3.41569183340673" cx="-20.71806170029289" cy="7.135750589660018" stroke="black" fill="none" stroke-width="1" filter="url(#fuzzy)" clip-path="url(#rightEyeClipPath)"></circle><circle r="3.479281773895733" cx="-20.453372946924844" cy="2.9924412631576303" stroke="black" fill="none" stroke-width="1" filter="url(#fuzzy)" clip-path="url(#rightEyeClipPath)"></circle><!--]--></g><g transform="translate(-29.99357952123985 -21.969417710030374)"><polyline id="leftUpper" points="28.687750760472092,10.552497139423322,28.693157460193113,10.33445192971461,28.6493914483159,10.068328368366856,28.558904671045834,9.758307895832147,28.424070455907923,9.40841920127539,28.24718476937521,9.022540722466744,28.030467474497183,8.604403145674027,27.776063588528128,8.15759190555514,27.486044540555593,7.685549685050482,27.162409429128736,7.191578915275366,26.80708627988675,6.6788442754124375,26.421933303187256,6.150375192604102,26.00874015173469,5.609068341844917,25.56922917820872,5.057690145874043,25.10505669289266,4.49887927506764,24.61781422130183,3.9351491473312894,24.10902976181197,3.3688904279924117,23.580169043287658,2.802373529692689,23.03263678271069,2.2377511122804705,22.46777794280848,1.6770605827032092,21.886878989682476,1.122226594899864,21.29116915043654,0.5750635496933256,20.681821670805363,0.037278094682825724,20.059955072782845,-0.4895283758636424,19.42663441225052,-1.0038572211168848,18.782872536605936,-1.5043100537941356,18.006037397984038,-2.2456674643336534,17.2195294432222,-2.9593053229415958,16.424624025588976,-3.6424956547909915,15.622514146997633,-4.292810638057137,14.814316656307444,-4.908111471432701,14.001078113344121,-5.486537318383135,13.183780326707566,-6.026494330645129,12.363345573435087,-6.526644753470968,11.540641508588202,-6.9858961151215375,10.716485772831232,-7.403390503110895,9.89165030606979,-7.778493929705078,9.066865375217343,-8.110785789178102,8.242823324157996,-8.400048409327809,7.420182053973642,-8.64625669975456,6.599568241503618,-8.849567899405372,5.781580304305059,-9.010311425886528,4.96679112008205,-9.128978829047238,4.155750508651783,-9.206213851337402,3.348987484515807,-9.242802597442083,2.547012288104579,-9.239663815695657,1.7503182037634457,-9.197839293778262,0.9593831725481823,-9.118484371197656,0.17467120789830126,-9.002858571058916,-0.6033663777437863,-8.852316353625099,-1.37428992729956,-8.668297994171581,-2.1376705663389846,-8.452320587636748,-2.89308949521478,-8.205969182572076,-3.640137437978197,-7.930888046894253,-4.378414240008136,-7.628772067942233,-5.107528606285492,-7.301358289341923,-5.827097972244543,-6.950417587181487,-6.5367484991332425,-6.577746487999935,-7.2361151858142705,-6.185159131091837,-7.924842088938661,-5.77447937763101,-8.602582643423926,-5.347533069116029,-9.269000075168405,-4.906140437640129,-9.923767897933837,-4.452108670488734,-10.566570486327867,-3.987224631566992,-11.197103716818425,-3.513247742160406,-11.815075668711794,-3.0319030235312496,-12.420207377026184,-2.5448743038536144,-13.012233629192758,-2.0537975919898876,-13.590903797515818,-1.5602546206115022,-14.155982699324145,-1.0657665611667362,-14.707251476745213,-0.571787913198321,-15.24450848803422,-0.07970057051385382,-15.767570202389763,0.4091919332884473,-16.27627209018791,0.8936699974355697,-16.770469500566712,1.372603342234493,-17.250038518292822,1.8449562104630122,-17.716321024981607,2.31185380393808,-18.170612376609007,2.77460279730024,-18.612742211203205,3.2325411960358448,-19.04255075083189,3.6850441208430045,-19.459889882158233,4.131524142829425,-19.864624236996878,4.571431618710276,-20.256632272870007,5.0042550260059855,-20.63580735356334,5.429521298240115,-21.00205882968209,5.8467961601371705,-21.35531311920706,6.255684462820467,-21.695514788050584,6.655830519009937,-22.0226276306126,7.046918438219995,-22.33663575033659,7.428672461957362,-22.637544640265677,7.8008572989189116,-22.925382263598554,8.163278460189494,-23.200200134245577,8.515782594439791,-23.462074397384686,8.858257823124154,-23.71110691001752,9.190634075678421,-23.947426321525338,9.512883424717778,-24.171189154225075,9.825020421234594,-24.382580883925378,10.127102429796249,-24.581817020482543,10.419229963742971,-24.769144188356613,10.701547020385696,-24.94484120716732,10.974241416203878" fill="none" stroke="black" stroke-width="2.2222222222222223" stroke-linejoin="round" filter="url(#fuzzy)"></polyline><polyline id="leftLower" points="28.799996414568252,11.166174273147304,28.784673916938285,11.409646281305111,28.71935934474594,11.628336253408374,28.60715296587956,11.823219606206063,28.451031052189528,11.995260463192189,28.253848218840126,12.145411503158877,28.018339763661363,12.274613808749436,27.747124006500837,12.383796715011421,27.44270462857559,12.4738776579497,27.10747301182393,12.54576202307953,26.74371057825733,12.600342993979613,26.35359112931221,12.638501400845175,25.93918318520187,12.66110556904103,25.502452324268244,12.669011167654634,25.045263522333844,12.663061058049177,24.569383492053536,12.644085142416628,24.076483022266434,12.61290021233082,23.568139317347715,12.570309797300505,23.045838336560504,12.51710401332243,22.510977133407696,12.454059411434393,21.96486619498383,12.381938826268332,21.408731781326896,12.301491224603367,20.843718264770246,12.213451553918885,20.270890469294383,12.118540590947601,19.69123600987886,12.017464790228628,19.10566763185408,11.910916132660539,18.354756330649376,11.772688326696882,17.604600830956624,11.627581324425968,16.856222921714625,11.476689262181415,16.110461490539286,11.321111082079163,15.367989783607158,11.161943454590503,14.62933183367189,11.000274155540499,13.894878074015963,10.83717588728453,13.164900156140046,10.67370053381574,12.43956498899237,10.510873839556126,11.718948017540445,10.349690501584,11.003045758487527,10.191109665050645,10.291787610936174,10.036050811538836,9.58504695980126,9.885390030116024,8.882651589774817,9.739956660834956,8.184393427645047,9.600530300434427,7.49003763077193,9.467838159992958,6.799331039521694,9.342552764288168,6.112010011462618,9.225289982614536,5.427807655124451,9.116607380812358,4.746460481123853,9.017002884260641,4.067714488458214,8.926913741586674,3.3913307037702047,8.84671577884502,2.717090191385449,8.776722933918741,2.044798551925651,8.717187060895537,1.3742899272995595,8.668297994171578,0.7054305298741443,8.630183862035814,0.03812171362831718,8.602911639487482,-0.6276973949084015,8.586487930039556,-1.2920476881299376,8.580859966260928,-1.9549082734380478,8.58591681881004,-2.616215056134692,8.601490803712759,-3.275859691320009,8.627359077637198,-3.9336888869935525,8.663245410918284,-4.589504040556404,8.708822128084787,-5.243061190911795,8.7637122056416,-5.894071268361916,8.827491516860002,-6.542200624498481,8.899691213328651,-7.187071824284724,8.97980023301809,-7.828264682526479,9.067267924611468,-8.465317526929937,9.1615067778543,-9.097728669943734,9.261895249675959,-9.724958071583025,9.367780675835691,-10.346429175433123,9.478482257845858,-10.961530900030427,9.593294114925238,-11.569619767818173,9.711488390735067,-12.170022153874736,9.832318404650614,-12.762036636612056,9.955021837321024,-13.34493643264183,10.078823940270194,-13.917971898007139,10.202940759291433,-14.480373077977145,10.326582361388647,-15.03403169968615,10.450344973665727,-15.581079306119452,10.575079355980233,-16.121094806785315,10.700379883405553,-16.653662787940636,10.825848774913975,-17.178375896836194,10.951097465775767,-17.69483722596192,11.075747979958265,-18.202662697292137,11.19943430252496,-18.70148344653085,11.321803752034587,-19.190948207356964,11.442518352940212,-19.670725695669585,11.561256207988315,-20.14050699383322,11.677712870617889,-20.60000793492311,11.791602717359504,-21.048971486970416,11.902660320234425,-21.487170137207524,12.010641819153673,-21.914408276313296,12.115326294317125,-22.330524582658303,12.216517138612598,-22.735394406550107,12.314043430014937,-23.12893215447852,12.407761303985097,-23.511093673360836,12.497555325869243,-23.88187863478713,12.583339863297827,-24.24133291926549,12.665060458584671,-24.589551000467246,12.742695201126066,-24.92667832947231,12.81625609979985,-25.252913719014344,12.8857904553645" fill="none" stroke="black" stroke-width="2.2222222222222223" stroke-linejoin="round" filter="url(#fuzzy)"></polyline><!--[--><circle r="4.72683885710641" cx="8.557237040120897" cy="1.8030864270256854" stroke="black" fill="none" stroke-width="1" filter="url(#fuzzy)" clip-path="url(#leftEyeClipPath)"></circle><circle r="3.4796040649220665" cx="9.490081040075097" cy="3.0087152725090496" stroke="black" fill="none" stroke-width="1" filter="url(#fuzzy)" clip-path="url(#leftEyeClipPath)"></circle><circle r="3.8413204248476225" cx="8.02173469781692" cy="2.231774964836786" stroke="black" fill="none" stroke-width="1" filter="url(#fuzzy)" clip-path="url(#leftEyeClipPath)"></circle><circle r="3.1539551159835626" cx="8.967978545299484" cy="2.419990969405254" stroke="black" fill="none" stroke-width="1" filter="url(#fuzzy)" clip-path="url(#leftEyeClipPath)"></circle><circle r="4.2302674546185095" cx="9.192278340204142" cy="3.4453655582725684" stroke="black" fill="none" stroke-width="1" filter="url(#fuzzy)" clip-path="url(#leftEyeClipPath)"></circle><circle r="3.8806283911414665" cx="8.92685007017199" cy="4.625130279074463" stroke="black" fill="none" stroke-width="1" filter="url(#fuzzy)" clip-path="url(#leftEyeClipPath)"></circle><circle r="3.0304009954671667" cx="7.141116751961492" cy="0.8610847596468596" stroke="black" fill="none" stroke-width="1" filter="url(#fuzzy)" clip-path="url(#leftEyeClipPath)"></circle><circle r="4.6493601828916935" cx="11.955573242320112" cy="2.7798827090002787" stroke="black" fill="none" stroke-width="1" filter="url(#fuzzy)" clip-path="url(#leftEyeClipPath)"></circle><circle r="3.06267442882845" cx="7.479273168931567" cy="0.20487800129645173" stroke="black" fill="none" stroke-width="1" filter="url(#fuzzy)" clip-path="url(#leftEyeClipPath)"></circle><circle r="4.011705955519515" cx="11.18115313775542" cy="2.2933248762644016" stroke="black" fill="none" stroke-width="1" filter="url(#fuzzy)" clip-path="url(#leftEyeClipPath)"></circle><!--]--></g><g id="hairs"><!--[--><polyline points="41,-60,42.246253366318115,-59.00000918510314,43.542324184927644,-58.00150211836152,44.51935209503953,-57.12887700779889,45.20096104595637,-56.37558633570464,45.70354872044668,-55.713560271585656,46.10793109276616,-55.13281044579436,46.44658090307799,-54.62983066220985,46.71861465682553,-54.20332752896243,46.90217770111791,-53.86125279375785,46.96341577478152,-53.625467911496585,46.864557360141504,-53.52820530256184,46.57068222761154,-53.60328206419945,46.0541760653751,-53.87698140147988,45.2965950946139,-54.36211282627523,44.28752012049633,-55.05777449645154,43.02008780776977,-55.95603858709906,41.48538748926012,-57.0529381644574,39.671143539021884,-58.35654275303098,37.56793583298785,-59.8855720588219,35.17499174722603,-61.66074975904471,32.48579127889012,-63.70076416353747,29.438909454612265,-66.03403762892036,25.826520927670234,-68.73169623103036" fill="none" stroke="rgb(185, 55, 55)" stroke-width="2" stroke-linejoin="round" filter="url(#fuzzy)"></polyline><polyline points="55,-44,55.97288258244391,-42.77087754317214,56.16190206455556,-42.14541192118537,56.25913311789446,-41.59205744734503,56.32542208436665,-41.07056840235776,56.265804930773584,-40.671752820571555,56.00408166671607,-40.46937775483812,55.50081620171519,-40.507371381112705,54.72990280964462,-40.81766561051901,53.66421981293351,-41.429225910491134,52.27639818191528,-42.36935567855835,50.54425431942753,-43.66342241528457,48.453584620238544,-45.33210458176221,45.99881613281485,-47.38570787984093,43.183017225917084,-49.82270740352901,40.01253103019485,-52.64080080722238,36.477879395980075,-55.8557482277601,32.52529211642986,-59.506248597879086,28.060087091957755,-63.621599628555096,23.07086541097958,-68.15754208455503" fill="none" stroke="rgb(185, 55, 55)" stroke-width="2" stroke-linejoin="round" filter="url(#fuzzy)"></polyline><polyline points="33,-66,33.581252108328556,-65.65862655615119,34.6215968626595,-64.9577348372661,35.78657650138361,-64.06170928771571,37.06450845702784,-63.028067883162294,38.454498854333146,-61.907342727490324,39.901348561045424,-60.7465335590554,41.30965950868299,-59.59594404116779,42.57769012451172,-58.516212463378906,43.62893501421913,-57.569271600638615,44.43563790326555,-56.794725691263224,45.028798699630826,-56.19101223671986,45.478038290922996,-55.72606765961973,45.825586651779254,-55.39033515057744,45.99566288502646,-55.28101687184848,45.7688409446001,-55.67861731572627" fill="none" stroke="rgb(185, 55, 55)" stroke-width="2" stroke-linejoin="round" filter="url(#fuzzy)"></polyline><polyline points="37,-63,38.1756929123478,-62.63795838685469,39.37095974798943,-61.87666244741173,40.3995411876311,-61.04153616121821,41.23973529765816,-60.26753649041041,41.952731937608625,-59.553670553788145,42.637044172258996,-58.850835022385084,43.3514279720446,-58.13093321411696,44.07989606682233,-57.40952387179809,44.7568996222337,-56.73224720398054,45.31468293599195,-56.15100694851509,45.71177351865069,-55.708504746497496,45.93214409395896,-55.43399611242198,45.97196370757264,-55.3437235806265,45.83374350050615,-55.44109303778991,45.52937566809044,-55.71899985177163,45.074278425560394,-56.17104822216717,44.456967329854535,-56.814030356288214,43.59988316499798,-57.711469794628634,42.362752382312685,-58.97570669849651,40.59795529291501,-60.72790995618733" fill="none" stroke="rgb(185, 55, 55)" stroke-width="2" stroke-linejoin="round" filter="url(#fuzzy)"></polyline><polyline points="53,-47,52.923905400544456,-46.986672086121764,52.78539859507639,-46.78120801051534,52.495138842272105,-46.43978172061061,51.90219223560779,-46.148987056407485,50.89013107283645,-46.046139653938496,49.39569910645919,-46.18365944989962,47.40419340311164,-46.55329677983547,44.92343647335081,-47.12834632258544,41.9556792509359,-47.898627890040615,38.488636014709165,-48.8818640804232,34.50264842880189,-50.112668099744425,29.975025365895643,-51.6253546025783,24.87319081730535,-53.44544604203621,19.148390039883704,-55.59033179468383,12.743724867497574,-58.06936885381813,5.609153579825364,-60.88084785321324,-2.3040413339100283,-64.01624147838082,-11.091409306733537,-67.45536192489553" fill="none" stroke="rgb(185, 55, 55)" stroke-width="2" stroke-linejoin="round" filter="url(#fuzzy)"></polyline><polyline points="41,-60,42.00702415015181,-59.03842057128074,42.62950055670677,-58.11858823710989,42.47203967517419,-57.36196711233191,41.531911235567904,-56.752898759966605,39.92024254980186,-56.246886572084584,37.71498452335773,-55.82319404296319,34.9398363509633,-55.47043594134618,31.583041028537117,-55.17670302829617,27.612897872924805,-54.93948745727539,22.985798372545077,-54.77442223660934,17.653003095092394,-54.70702404802421,11.565274288663996,-54.75284045530522,4.669740999184608,-54.90310155134901,-3.0948190574378813,-55.125674400993624,-11.7797267241037,-55.37367408842066,-21.36686704738046,-55.59894525864043,-31.663845227337806,-55.867392410131295" fill="none" stroke="rgb(185, 55, 55)" stroke-width="2" stroke-linejoin="round" filter="url(#fuzzy)"></polyline><polyline points="42,-60,41.841942209099535,-59.926939905682964,41.94100632677147,-59.58311043111741,42.44922513441436,-59.01548315716452,43.09643485017731,-58.39231730689236,43.60723835833869,-57.85651940592107,43.84830485426027,-57.482414878298584,43.80285280310334,-57.301327741334774,43.49598100219841,-57.333675412657996,42.9428997972191,-57.59788700172958,42.131422577803555,-58.106942591863984,41.02280274945531,-58.871887733053825,39.55735848129187,-59.91410448701737,37.66289813781525,-61.27042447963074,35.27575445666585,-62.9760666986204,32.39755184717932,-65.03230029382573,29.198381231856768,-67.39385734197373" fill="none" stroke="rgb(185, 55, 55)" stroke-width="2" stroke-linejoin="round" filter="url(#fuzzy)"></polyline><polyline points="54,-46,54.54500208933734,-44.66354859957004,54.548079315149515,-43.83449910972468,54.018150220516645,-43.216086475266565,52.98455731087149,-42.704581542060126,51.51052347377949,-42.234080450049085,49.60956386002902,-41.7919667133805,47.247011522478324,-41.401229996337996,44.374575252763876,-41.090431267834354,40.95189297708346,-40.881207172625054,36.94968883990814,-40.79156356143283,32.34545955627296,-40.84175259093796,27.119919203532568,-41.055168238370086,21.25634578119289,-41.4531454046281,14.742066065523215,-42.04501679629693,7.569794499663601,-42.81781749204458,-0.26587231121628463,-43.73409434019078,-8.781529588801433,-44.74289358217481,-18.02225803997586,-45.79400389229605,-28.05256591018174,-46.83939171446725,-38.852451363724505,-47.850978949742235" fill="none" stroke="rgb(185, 55, 55)" stroke-width="2" stroke-linejoin="round" filter="url(#fuzzy)"></polyline><polyline points="-39,-61,-36.97581063913322,-61.833578832237514,-35.99525472401851,-62.436887433890455,-35.29984266361059,-62.958381062109495,-34.66350007484043,-63.41424278823637,-34.122857785347236,-63.757375854319335,-33.73891146560745,-63.95361019139773,-33.549379837593364,-63.98202160568708,-33.588623547970236,-63.82026110096395,-33.895599365234375,-63.44204330444336,-34.504159764754114,-62.82156898220129,-35.435369681458965,-61.93498335700355,-36.69867894794451,-60.75898367970244,-38.290592522162335,-59.276230022336584,-40.1835003466854,-57.49348017743387,-42.327492037438006,-55.45456544516678,-44.71042262798492,-53.196044083379405,-47.478325250605934,-50.580556493889176" fill="none" stroke="rgb(185, 55, 55)" stroke-width="2" stroke-linejoin="round" filter="url(#fuzzy)"></polyline><polyline points="20,-73,20.829822213078664,-72.36873859423179,21.44838095623878,-72.03514531842336,22.05338002810601,-71.74863861346304,22.662973342870828,-71.46649951912696,23.161185394774215,-71.22405075542316,23.43928356959981,-71.05945763325799,23.447065441828208,-70.98896326248199,23.170204162597656,-71.01067352294922,22.58532960460606,-71.1187477726534,21.635131432624338,-71.31530774415873,20.24109361888231,-71.61490066102033,18.34221628011437,-72.04129049385665,15.925577628807332,-72.6141560537526,13.005983411740836,-73.32164954698503,9.511468097075344,-74.10289615003673" fill="none" stroke="rgb(185, 55, 55)" stroke-width="2" stroke-linejoin="round" filter="url(#fuzzy)"></polyline><polyline points="22,-72,22.169315856522655,-71.72679948875533,23.19684505306233,-71.25971425791232,24.282087439942995,-70.79075371225558,25.272087394615273,-70.36458213282029,26.183040869470936,-69.97845291764725,27.044361250210947,-69.61421069355971,27.8510622120725,-69.25848405713731,28.57157404386614,-68.90978242981087,29.16944127216449,-68.57738665598922,29.615095352865648,-68.27858440891116,29.886812091323932,-68.03579339019272,29.96879474087246,-67.87224974981186,29.84994477289835,-67.80668500451637,29.521217598616673,-67.85014419877766,28.9699481210574,-68.00772164804665,28.17402561430828,-68.28429646248182,27.100668101742947,-68.69003594288347,25.710909081039745,-69.24214428039456,23.967031233514682,-69.96291389305676,21.845085733708835,-70.87384295835616,19.36614873790662,-71.97460200192245,16.652414511048633,-73.16849267806829" fill="none" stroke="rgb(185, 55, 55)" stroke-width="2" stroke-linejoin="round" filter="url(#fuzzy)"></polyline><polyline points="-29,-67,-28.50219247004621,-67.25270017475829,-27.728385970400193,-67.66721774961216,-26.97981836993672,-68.07206536037386,-26.257550731790605,-68.42953273710036,-25.57516339765029,-68.71959306320568,-24.979788855349558,-68.92385293496679,-24.517573466838304,-69.02615831363498,-24.218149829273806,-69.01345904223626,-24.10135225737323,-68.87430840447377,-24.189309724531405,-68.59577071478657,-24.511755562797497,-68.16077318998592,-25.10314347447265,-67.54754938307744,-25.99614629330692,-66.73134174675435,-27.21481260812331,-65.68784164657959,-28.76685865759446,-64.39871291275468,-30.63565709310705,-62.8594966751196,-32.78060541359846,-61.08560560644492,-35.1608031702476,-59.10456875910005,-37.78483712555285,-56.9237552801756,-40.75272667671814,-54.48788351710684,-44.2252028020353,-51.68590394975196,-48.30486106203357,-48.47373373518788" fill="none" stroke="rgb(185, 55, 55)" stroke-width="2" stroke-linejoin="round" filter="url(#fuzzy)"></polyline><polyline points="-29,-67,-27.559176708746243,-67.69968450141845,-26.362945727377422,-68.2253994929741,-24.978404843015774,-68.73525284710334,-23.358093381987196,-69.25047672589731,-21.5640654984009,-69.77151042361099,-19.658324688345168,-70.29642791810741,-17.679179751081048,-70.82247964554865,-15.651499357939459,-71.34515600286818,-13.600083403123389,-71.85720263429208,-11.554457094443332,-72.34877508675491,-9.546228766441345,-72.80947232246399,-7.604576019134829,-73.23132062124837,-5.753410714623457,-73.6105392209325,-4.010263175949569,-73.94715483833272,-2.3858059837142056,-74.24416598467059,-0.8844860170024971,-74.50790685761629,0.4913087265032301,-74.74658595905325,1.7315714279867676,-74.96078355935175,2.8072040047357745,-75.13101405090256,3.6725200280789876,-75.23971176469095,4.3177076252698265,-75.39106477523276" fill="none" stroke="rgb(185, 55, 55)" stroke-width="2" stroke-linejoin="round" filter="url(#fuzzy)"></polyline><polyline points="21,-72,21.478409308043304,-71.94469081214667,21.806158847590087,-71.72396341804418,22.10671849520212,-71.41562994567917,22.168093437108613,-71.10804135077913,21.85000713433652,-70.84659843313608,21.118380017468564,-70.63995945555351,19.9840065208396,-70.47566469291999,18.438926648848035,-70.33680061679219,16.435021693510695,-70.21317880977445,13.902937905860163,-70.10367034887746,10.778427431496473,-70.012349683102,7.010468152035166,-69.9447832493226,2.5556004033655437,-69.9087705948575,-2.6201454530865558,-69.91618763531332,-8.529977185072845,-69.97612344783781,-15.207707578103308,-70.06668934506447" fill="none" stroke="rgb(185, 55, 55)" stroke-width="2" stroke-linejoin="round" filter="url(#fuzzy)"></polyline><polyline points="-27,-68,-26.487952713067827,-68.25422628888725,-25.198981346102435,-68.69165698239978,-23.40602003562281,-69.15268869528434,-21.294929660482975,-69.61187843866203,-18.962854616190135,-70.06340317443522,-16.447409778061598,-70.50299386549317,-13.769992440266526,-70.92677742797976,-10.963412279175925,-71.33075818681856,-8.073793411254883,-71.7094612121582,-5.147335121465877,-72.05624459435577,-2.2217905532284963,-72.36657483013894,0.666535323587393,-72.64143968045701,3.4707890196944806,-72.88638251563953,6.140235403000299,-73.10726990265674,8.650499079097653,-73.31383844837038,11.009835503858286,-73.5380313934243,13.171404819633054,-73.82216309766164" fill="none" stroke="rgb(185, 55, 55)" stroke-width="2" stroke-linejoin="round" filter="url(#fuzzy)"></polyline><polyline points="-39,-61,-36.68431325233921,-61.776321135021306,-34.82915340290635,-62.22813364404853,-32.66888516743997,-62.54105367358666,-29.97037138902685,-62.76422475021456,-26.766775734890146,-62.875300710371015,-23.118294197049227,-62.859861361987384,-19.063319505744523,-62.720035691347924,-14.637827899273136,-62.465848015980214,-9.882726669311523,-62.11305618286133,-4.832454562737935,-61.68435458480952,0.4951730065112514,-61.205375111552144,6.097153157190574,-60.69360450801214,11.976328247009834,-60.14932983314273,18.132681616018193,-59.562814691693916,24.55513565458447,-58.93862463784471,31.22522622563908,-58.29772308287782,38.20764576887473,-57.545527507841555" fill="none" stroke="rgb(185, 55, 55)" stroke-width="2" stroke-linejoin="round" filter="url(#fuzzy)"></polyline><polyline points="-14,-74,-13.44228018434294,-74.01447099201893,-12.76169494336536,-74.11743614272949,-11.743176207824849,-74.31158208784905,-10.6477329350914,-74.51768603520898,-9.657998422503363,-74.66675772091085,-8.839811851141288,-74.73345304640469,-8.21573370872009,-74.72470030641487,-7.798944150063493,-74.65961410566521,-7.593627663927411,-74.55543552107875,-7.596336592692828,-74.41956320087559,-7.807215690612793,-74.24560570716858,-8.240776992811545,-74.01403378320057,-8.92699091816506,-73.69834937267527,-9.902979942119764,-73.27454690461184,-11.202000179748879,-72.72872198728115,-12.846838112794494,-72.05896043541541,-14.850194401276912,-71.27308050415529,-17.216646828991152,-70.38847673692962,-19.938328702669157,-69.43679365224946,-23.003129470318655,-68.45688416743425,-26.507771464573985,-67.41994074675644" fill="none" stroke="rgb(185, 55, 55)" stroke-width="2" stroke-linejoin="round" filter="url(#fuzzy)"></polyline><polyline points="36,-64,37.02188763301797,-63.28123670455699,38.150516885236975,-62.64879589949319,39.22027202963643,-61.96007284857856,40.11826411225879,-61.28829980095986,40.802350401545674,-60.70794013103205,41.29680479199635,-60.23348197317806,41.662230912792694,-59.84081280020954,41.939518926797355,-59.51163650445933,42.11267221281852,-59.25966107125369,42.11920190672258,-59.12643436204223,41.891662698464586,-59.16022140654552,41.39140078819789,-59.39941693803261,40.61134904322577,-59.871145960467864,39.55541774138329,-60.59883256607014,38.21541429359914,-61.60622830725573,36.556125874239136,-62.91324597380665,34.51153947243969,-64.53024899315889,32.006661059289,-66.48152402719995" fill="none" stroke="rgb(185, 55, 55)" stroke-width="2" stroke-linejoin="round" filter="url(#fuzzy)"></polyline><polyline points="-9,-75,-8.744457383974956,-74.99935065692891,-7.862719205625728,-74.99947537361174,-6.726632506239987,-75.0049425109515,-5.604713081006038,-75.02931247736345,-4.532358871947133,-75.09150760670808,-3.4684951776687,-75.2014988473425,-2.392730144111628,-75.35053620681703,-1.321927126648517,-75.51441280542014,-0.29544318156214344,-75.66487026586317,0.6399442210233933,-75.7796314526012,1.4382023429405355,-75.84615452529397,2.0580525398254395,-75.86044406890869,2.4660983789018536,-75.8246360897601,2.6399272686626225,-75.74549619848688,2.5701232016517115,-75.6335068176563,2.2597622911084425,-75.50155006765331,1.720353794015009,-75.3633951134092,0.9625226326222389,-75.23299281332977,-0.021366878201305894,-75.12402931323145,-1.279127888165815,-75.0469459653244,-2.895654370354063,-75.0026400469493,-4.899208708679968,-74.97995467179575,-7.062814044056,-74.96936431506057" fill="none" stroke="rgb(185, 55, 55)" stroke-width="2" stroke-linejoin="round" filter="url(#fuzzy)"></polyline><polyline points="35,-65,35.88799622926541,-64.13732383814498,36.66647215756768,-63.48984969500809,37.28383374497877,-62.951191590061256,37.63046804464387,-62.47267901615782,37.61543788840702,-62.08171349241272,37.202410790371744,-61.80761080812768,36.41401159495821,-61.64288649461835,35.30176578297569,-61.55424512951774,33.9005248396428,-61.51365771469878,32.2023199520265,-61.51875992279929,30.16570746898651,-61.591230154037476,27.74483038205355,-61.761069378745184,24.910382302903205,-62.05133172756268,21.64925294485187,-62.47179014022581,17.95100958440841,-63.020421747007966,13.796115593285808,-63.68784625848941,9.151868110703811,-64.4632676963196,3.9743554366821243,-65.34358449224064,-1.7804024105439904,-66.34199802604502,-8.132170439919127,-67.48047442304708,-15.09165096181134,-68.74618599154788" fill="none" stroke="rgb(185, 55, 55)" stroke-width="2" stroke-linejoin="round" filter="url(#fuzzy)"></polyline><polyline points="-31,-66,-29.695283880557643,-66.65112909875924,-28.916490439700144,-67.0419543325619,-28.162347642389086,-67.43251084348667,-27.33614663881935,-67.8725341024364,-26.457896261790435,-68.33989027765998,-25.562633397762845,-68.80241460158251,-24.69182556891019,-69.23411734465127,-23.89430698617073,-69.61550523511939,-23.216587825828544,-69.9309109928071,-22.693017379674178,-70.16651995034957,-22.34553631588743,-70.30953122827779,-22.191610888447755,-70.34809980482108,-22.252589417862097,-70.27149813689498,-22.557271414888255,-70.06970092824314,-23.14184119520316,-69.73151306067462,-24.048727150290386,-69.24108288306262,-25.31973822734883,-68.5750801227114,-26.97061859681869,-67.70854333917895,-28.938282242727357,-66.65038988525869,-31.02263342455274,-65.55646682046266" fill="none" stroke="rgb(185, 55, 55)" stroke-width="2" stroke-linejoin="round" filter="url(#fuzzy)"></polyline><polyline points="-27,-68,-0.8892770378162911,-63.10264554612867,10.801971508129283,-56.53908029911669,22.740809131977134,-53.45071161860077,30.438350289369826,-54.311001328745974,32.69113660930634,-56.929672179120644,31.09191446439819,-59.15712878031949,28.065435105540267,-59.879068261581466,25.97252011466002,-58.95593176421204,26.235577081655855,-56.94554227766384,28.58396339416504,-54.80333995819092,31.196682276196334,-53.48672486767468,31.79981079404895,-53.55408632543937,28.882359692517277,-54.99165487605236,22.269325699304517,-57.33077898756646,13.14989533372318,-59.82069948539993,4.141625755561846,-61.463823249995926,-0.5682532803117999,-61.244841228711415,4.311216001724626,-59.21180100953812,22.573675034712785,-58.00188624084497,40,-61" fill="none" stroke="rgb(185, 55, 55)" stroke-width="2" stroke-linejoin="round" filter="url(#fuzzy)"></polyline><polyline points="53,-47,35.1432649598161,-61.64303858157413,24.393381522518016,-65.93121540757652,11.972229666576386,-66.85707424757024,0.032685948812105216,-66.55697147705601,-8.369330345333033,-65.00550014526311,-11.995053587946623,-62.06844069836294,-10.918434733300064,-58.49737139361698,-6.4022033193857215,-55.67923620331636,-0.8493588044187849,-54.66759952994993,3.186868177277544,-55.42550295368682,4.367845200611551,-56.87847455966745,3.0304650533080864,-57.6185174115542,0.5897526019907982,-56.6948589253351,-1.4126931518645538,-54.344714435605916,-2.964342157264645,-53.077165292509825,-6.226380150963379,-58.41935906279555,8,-75" fill="none" stroke="rgb(185, 55, 55)" stroke-width="2" stroke-linejoin="round" filter="url(#fuzzy)"></polyline><polyline points="-50,-50,13.147377099847661,-46.380774020275275,21.191064966732554,-55.43894523916766,13.412124789961455,-61.50867254662111,6.184113568117583,-62.05799003857474,3.288686349026099,-59.67806771460555,3.28385016608761,-57.258894214648315,4.230602068320675,-56.100857703546055,4.972170544482372,-56.14189804558547,4.789493738977937,-56.77831883004572,3.756683726246006,-57.3462595260013,3.732282626557951,-57.30115689705965,7.841251031933138,-56.42623175726606,17.286078281007285,-55.0765791059488,27.729678462396972,-54.36348666828269,29.567736131224734,-56.517275212323085,13.917281755374974,-64.54020323661932,-17,-73" fill="none" stroke="rgb(185, 55, 55)" stroke-width="2" stroke-linejoin="round" filter="url(#fuzzy)"></polyline><polyline points="22,-72,40.31040016518159,-55.65262182114979,34.51703002383192,-56.37682100218147,18.189002729233163,-60.70180873103855,1.9431119374979164,-64.15465392011598,-8.514034557377455,-65.86519141459968,-11.828610190534185,-65.92474493910072,-9.0801553075995,-64.68580173171648,-2.6021791971271937,-62.66460421736621,4.662566076023224,-60.40078074864995,10.264417587083692,-58.256186153596026,13.644250368064975,-56.3039298831048,16.466075085427107,-54.4152766134365,20.97802993077713,-52.58414266015746,27.50252435306493,-51.32252511999038,33.78422514228485,-51.55629899238073,37.81880962704803,-53.36254133236344,41.52438957595755,-54.09357602480689,49.111356153036894,-48.698815332507934,61,-33" fill="none" stroke="rgb(185, 55, 55)" stroke-width="2" stroke-linejoin="round" filter="url(#fuzzy)"></polyline><polyline points="-19,-72,-9.158660188794208,-69.66056821222222,-5.405473012253858,-66.69498601136819,-10.648783521635288,-63.52299416416311,-15.32502925489425,-60.79786215309608,-15.748445643543553,-58.86704770446337,-13.017387345690512,-57.691888952708815,-8.843887355782545,-57.21961529586265,-3.806322535729716,-57.454464969846256,2.3201526212624715,-58.23580361217589,9.775848752892324,-59.031936041706736,18.394067823828447,-59.031466157843575,27.49853946914816,-57.58918157016573,35.89385185453061,-54.726129144234285,41.961472944994334,-51.19870352044408,43.88434688696634,-48.03385446058272,39.72247604888933,-46.25913299522261,27.84252045054633,-47.687800179859735,12.86173388253516,-55.2297050159555,33,-66" fill="none" stroke="rgb(185, 55, 55)" stroke-width="2" stroke-linejoin="round" filter="url(#fuzzy)"></polyline><polyline points="-47,-53,-13.533665344669718,-66.00293948837489,-9.270857875548904,-67.77551162398134,-12.92009316561716,-65.94432093329823,-16.793925747943447,-63.88093817122175,-19.47127847438137,-62.727813344946824,-20.575116919668734,-62.616983768301566,-18.92913849290188,-63.14112848617245,-12.952929474245286,-63.64835466620989,-2.2591087754608687,-63.59371066651443,11.070365359535742,-62.94999410059596,23.080894303777825,-62.34664527086929,30.666297061834754,-62.48211698132583,34.30866937853272,-63.03716089547548,37.39438387779375,-62.44195564588371,44,-58" fill="none" stroke="rgb(185, 55, 55)" stroke-width="2" stroke-linejoin="round" filter="url(#fuzzy)"></polyline><polyline points="42,-60,41.029076841850326,-59.351218457397415,34.22759576730627,-63.689514889211814,28.5552331047842,-67.36954161157207,24.479001452998094,-69.48850503011312,20.149813921591885,-70.48907072046131,14.35819108740569,-70.7338182608861,7.461775987310388,-70.42378552707368,0.9558129177901417,-69.77866555951185,-3.589054294785295,-68.98605323462607,-5.435370445251465,-68.07128143310547,-4.853489291330559,-66.98813729226498,-2.6172530838978907,-65.90736961374813,0.5669212682286868,-65.32681728584829,4.212745909287261,-65.68517911167392,8.008386564012653,-66.67368311165774,12.098604944982837,-66.96975209071408,17.171182425192185,-65.08355445175202,21.91613640285338,-61.24501011100148,15.43083653380951,-59.24489093499851,-31,-66" fill="none" stroke="rgb(185, 55, 55)" stroke-width="2" stroke-linejoin="round" filter="url(#fuzzy)"></polyline><polyline points="11,-75,28.90204808212125,-61.36583192004593,16.09073317868954,-60.67879943794097,-3.391481424893214,-61.033144687501405,-16.972326124290028,-60.54488382779616,-20.89059848310281,-60.092789049886235,-16.770686629492744,-60.27776969778587,-8.519008298156054,-61.02751753601572,0.25639642275705765,-62.084532196573214,7.57181573372653,-63.28490610566152,13.01683943490865,-64.46947694132268,16.95099901326009,-65.35525209545997,19.693914506279754,-65.62658102960975,21.13121112423219,-65.19489269838118,20.815673909801912,-64.37965742627706,18.431150804820955,-63.822892311458816,14.355465203977486,-64.1491102857942,9.953016663215879,-65.53495434246791,7.073860806430402,-67.4618686009342,6.322042530710072,-69.12956570783481,6.484248531459468,-70.76493407582456,20,-73" fill="none" stroke="rgb(185, 55, 55)" stroke-width="2" stroke-linejoin="round" filter="url(#fuzzy)"></polyline><polyline points="5,-75,28.521792630349886,-63.09458230119853,35.29465132890009,-57.66324689332647,32.84732374586662,-57.59121511326328,29.45359105951228,-58.29691610471125,27.01940677949341,-58.69538830824227,24.068473996327135,-59.63533223510912,19.19516290403021,-61.57424225432314,12.122675214566573,-63.98012384139032,3.5002327235711608,-65.98286581082922,-5.41559684203136,-67.12545335808196,-13.13023215648013,-67.54308199778684,-18.569428955770043,-67.57443496253029,-21.74624608380539,-67.25472616764532,-23.688207982148135,-66.20671075757139,-25.222127097487416,-64.07292374512919,-25.33539664332291,-60.92327386227176,-20.404996176953922,-56.562503389731646,-2.3999170482096908,-48.79567055857749,59,-37" fill="none" stroke="rgb(185, 55, 55)" stroke-width="2" stroke-linejoin="round" filter="url(#fuzzy)"></polyline><polyline points="-6,-75,-24.814660886905262,-65.94182389907887,-34.268773296371,-60.386006255310434,-34.98132635030388,-58.87581047296521,-28.533474968724633,-58.806957202071054,-16.679097147166413,-58.27483662056333,-2.604460284068777,-56.840891843327434,9.745481818602798,-55.2448103462956,17.638178471143892,-54.56310488113051,20.846000572887416,-55.42811208767334,21.20468415292416,-57.70693592426685,20.98721816396965,-60.66822768026766,21.42525336533537,-63.411280422026984,22.293151058170373,-65.27064995069203,22.536251496401796,-65.99634307998424,21.36095993492626,-65.65110500767518,19.28337748300732,-64.27641952141391,18.822180846584132,-61.47891277768029,24.050188595882233,-56.34168756524349,37.34072484661391,-48.41581940443059,53.406064315548335,-39.65488477507624,62,-31" fill="none" stroke="rgb(185, 55, 55)" stroke-width="2" stroke-linejoin="round" filter="url(#fuzzy)"></polyline><polyline points="58,-39,-3.242807823117294,-52.69458973714847,-19.680013244451455,-59.12138139796523,-18.040901516247224,-61.83278768512247,-9.04134390107356,-61.762887535849586,2.2320265474049426,-60.624901557381534,12.08336660892309,-60.189519973247776,18.333122814959335,-61.23140788230347,20.367446899414062,-63.37684631347656,18.31693848351431,-65.6764286107339,12.55636539014785,-67.19167065958774,4.310101597902428,-67.21609293647765,-3.1163129990454763,-65.31540103093721,-4.0508737797825,-61.51795856770479,6.362071340359254,-56.80403144150657,21.939133005039746,-55.20789750137181,5,-76" fill="none" stroke="rgb(185, 55, 55)" stroke-width="2" stroke-linejoin="round" filter="url(#fuzzy)"></polyline><polyline points="1,-76,1.5853850013703608,-76.41598487187247,2.6684551963902168,-77.4788466490868,3.77637227487859,-78.87848121860146,4.787050369993291,-79.9719941392666,5.7106084199393745,-80.47803576357674,6.596263601573982,-80.50659598815358,7.496962007700064,-80.3309694120561,8.452173358706549,-80.19308111686908,9.476449528882107,-80.23468253630826,10.558773967923528,-80.5138198934887,11.675780428614505,-81.03289958923693,12.81029070802267,-81.74593149046686,13.961824497469653,-82.56661429211067,15.14528358499726,-83.40854249100668,16.387288490520348,-84.24047049041639,17.72315866263985,-85.07888126452292,19.16074390449386,-85.8574801818573,20.548537828915947,-86.31617432306494,21.340204908595013,-86.54638657374645,-9,-75,-8.224649489202019,-75.07840420930731,-7.0575240019302585,-75.64062856138366,-6.122366132372481,-76.99656541175828,-5.3411966709707865,-78.96570432347418,-4.533730482698969,-81.07468662540698,-3.6080478581986033,-82.84987128092908,-2.555676423246467,-84.03020164981841,-1.4056124526613714,-84.66598247255705,-0.19335841402160558,-85.06692688921785,1.0509734846974113,-85.61178006201928,2.30202074948054,-86.52314137556684,3.5320202851947466,-87.74925239345228,4.708749408843515,-89.0299326842983,5.813704443212933,-90.10001131498319,6.873544428004925,-90.91667028114891,7.926784095088031,-91.90493891231715,8.693779350832752,-94.38960438046988,67,-14,67.66565210858238,-14.04889417578725,68.36160051874418,-13.747060788755904,68.79105917013005,-12.983068589367713,69.09198001177491,-11.883777247439188,69.38477266138956,-10.618184617993242,69.77812164976758,-9.313652709213533,70.34271665258129,-8.016904821111428,71.06767372940539,-6.714080722622905,71.85490965325613,-5.38183977451872,72.5634952008222,-4.0236940700071875,73.08091233982006,-2.669949354491879,73.38066615921305,-1.3532390090936486,73.53165310948698,-0.08588533949048419,73.65472482411403,1.1441276066128794,73.8576032955345,2.3606947602164956,74.19237080181445,3.584445231950215,74.65765203880547,4.826278568092865,75.22903031405866,6.090117111773529,75.88273967822703,7.378739432041874,76.59769165991793,8.701475675328153,77.35031431767723,10.086525120305863,78.09237619859927,11.567685459883835,78.60885446651571,13.029723231230566,78.1820736821056,13.79683653213628" fill="none" stroke="rgb(185, 55, 55)" stroke-width="2" stroke-linejoin="round" filter="url(#fuzzy)"></polyline><polyline points="-29,-67,-28.396943643268145,-65.92700223989586,-27.323495994312985,-64.69858357987641,-26.243271430575103,-64.0733813873381,-25.385942419481164,-64.27690255562523,-24.654725264398557,-64.96631720900174,-23.871520398246552,-65.66424526515664,-22.94490235481784,-66.0771175131525,-21.884863381016853,-66.14118594423587,-20.737424118675822,-65.90732892899204,-19.53157037521634,-65.43994762547524,-18.2816125011731,-64.81775243308897,-17.024146202431478,-64.17867363637731,-15.825154999343113,-63.6460839238747,-14.691979528559628,-63.003001770274345,-13.426653064337316,-61.259104606039" fill="none" stroke="rgb(185, 55, 55)" stroke-width="2" stroke-linejoin="round" filter="url(#fuzzy)"></polyline><polyline points="-36,-62,-37.133842864825446,-60.836580159639844,-37.59198600292895,-60.027496557750915,-38.33264320627993,-59.33784709559943,-39.21709280259101,-58.52345073824183,-40.02245698243386,-57.499475973942886,-40.65979762486594,-56.32468423552497,-41.161087267335525,-55.118065363324625,-41.60740053276534,-53.97427892981437,-42.067563834136685,-52.92422826979951,-42.573939542852735,-51.943170713383374,-43.12932132425769,-50.97824006162913,-43.721394660742185,-49.970642799841166,-44.32187226329532,-48.86975866396132,-44.86346623673839,-47.65137885598707,-45.21997477265263,-46.351076635061375,-45.254766698485156,-45.11143394615293,-44.993525917309704,-44.20496820626842,-44.762078293713856,-43.86683672783958,-46,-54,-44.673258843603065,-55.16139695575778,-43.90119674404504,-55.940180237814054,-43.338403151817445,-56.851584612730974,-42.78253396160898,-57.915667331781556,-42.127364599576175,-59.05811327112918,-41.39013257427338,-60.22458682826283,-40.66762979539365,-61.40731680278239,-40.05370355697036,-62.62157778689779,-39.574612600705336,-63.86651777967754,-39.18015213770145,-65.10821937914017,-38.78523733809441,-66.30231362197712,-38.31720415257087,-67.44143487338081,-37.73972876406649,-68.58530300416874,-37.103942029616036,-69.82104196468389,-36.6804618663263,-71.14117875707727,-36.7669070218233,-72.41966534601559,-26.183046003250194,-55.74454955530687,-26.861885056869266,-55.99146734468333,-28.066912845987616,-56.54631841452366,-29.336357973199053,-57.10572168370776,-30.463974793677448,-57.30328179432526,-31.386964141053372,-57.09737554573356,-32.17320450882339,-56.68694986876452,-32.93279978428411,-56.2783013932799,-33.73446631364003,-55.94381785702409,-34.592669804674934,-55.63351032430253,-35.50399693542323,-55.27277027667824,-36.479376532750265,-54.84877921752285,-37.54471942232382,-54.42882229634677,-38.71853159530681,-54.113457867077486,-39.987710908918466,-53.963155568280364,-41.2934589132506,-53.93949596007443,-42.530699784784524,-53.891217038750604,-43.57344088332834,-53.610796711124785,-44.35508543819243,-52.978832463977575,-45.01898281779137,-52.16110736765038,-46.053865194741284,-51.68694067822953,-48,-52,-48.0929511138697,-75.22230815246287,-46.91489819818212,-74.73300588821118,-47.05844131386875,-72.96689881492037,-47.65003169554794,-71.03152334374177,-48.485710699989745,-69.40795484108406,-49.376394748179244,-68.08646171063316,-50.120675276561855,-66.82875927647366,-50.58257825904097,-65.38923954205649,-50.743796946775234,-63.6529056427401,-50.70017195899586,-61.66664238988574,-50.60568625959602,-59.58102998699067,-50.59705327152245,-57.561314350638824,-50.74123965500203,-55.72553187913265,-51.0283557714104,-54.12810612702963,-51.40147350750673,-52.76803828713006,-51.79765186867474,-51.59562997840397,-52.18025494597596,-50.518673647718266,-52.56029776279319,-49.43441942597994,-53.012010440791855,-48.30081481867688,-53.671497617219416,-47.205689304873985,-54.678911122826776,-46.34147240111691,-56.00438055557498,-45.80310197131705,-57.00763520154801,-45.1250368058768,-55,-42,-61,-33,-61.43761575881703,-31.74787711844207,-62.23875134416654,-31.176486067659784,-63.13801763841995,-30.671415357795688,-64.0751312759038,-30.05356682390671,-65.05970785473455,-29.323777665792132,-66.07504030008678,-28.476081183275458,-67.07730412639712,-27.49154981352532,-68.04195296721379,-26.382035232733124,-68.98778837706728,-25.197428586558303,-69.9499751626001,-23.99715341653463,-70.92718076308014,-22.82294827419859,-71.85572204562027,-21.694614071659867,-72.64479781957252,-20.620400556545363,-73.25620916250135,-19.603333825142226,-73.77062650915241,-18.641209575396577,-74.38080379269977,-17.738074454135734,-75.2836414324197,-16.937974344520306,-76.50361405032845,-16.363671135240473,-77.87993049496728,-16.27341831238122" fill="none" stroke="rgb(185, 55, 55)" stroke-width="2" stroke-linejoin="round" filter="url(#fuzzy)"></polyline><polyline points="62,-30,60.93253998561577,-29.88922919199828,59.98982053728199,-30.45956991632617,59.589408337713515,-31.54006958911403,59.19773325775246,-32.6787920771376,58.53789818712484,-33.691306016105166,57.630868995931635,-34.57822740976062,56.60426496860207,-35.392634703607555,55.560283007694665,-36.16988989713313,54.54644501078327,-36.91205893802239,53.5865813723549,-37.60734665010488,52.71369596485491,-38.26273583101239,51.967547437463985,-38.92135818687133,51.35801950524098,-39.64205809170415,50.82878109594621,-40.446275189390036,50.263520920440264,-41.269631998355614,49.5500519505498,-41.958517552633815,48.66553037709889,-42.312748727305376,47.695270999140405,-42.14527086248379,46.69075429700464,-41.40500852753242,67.26073793202458,-38.11441816148059,66.12775480873754,-40.11971674877249,65.2695568698616,-41.35591318521351,64.21650179418889,-42.30203352090974,63.09123612936044,-43.166632931143525,62.00096158198333,-43.95470086826275,60.95319464331938,-44.621727303482594,59.90958756677502,-45.17830855831753,58.85318189067542,-45.697211138938776,57.812785501617405,-46.25855370418226,56.84132815298325,-46.89541470866026,55.977935638534674,-47.58300694562756,55.22148859978995,-48.27655508372098,54.523821712450065,-48.96387254950163,53.80215085415623,-49.672622604072544,52.97179081643708,-50.387979153625345,51.92785114973367,-50.93128050284166,50,-51" fill="none" stroke="rgb(185, 55, 55)" stroke-width="2" stroke-linejoin="round" filter="url(#fuzzy)"></polyline><polyline points="36,-64,35.69091758856075,-65.57384439973485,35.575281131971494,-67.36142136563824,35.21065749943236,-68.79214236602591,34.614208452929546,-69.87509229572034,33.91357922971378,-70.84846880328222,33.16802985993351,-71.80757262192186,32.380313054454746,-72.73424713681828,31.556115389826573,-73.63081428492158,30.73239270678674,-74.57645970183704,29.961752312247594,-75.686586241612,29.27592397408275,-77.03190809295947,28.66153269860529,-78.58467405607591,28.06817691880799,-80.2296797145432,27.441947836563465,-81.82990081843376,26.75638853057672,-83.29803109740676,26.01446974922666,-84.6209298600329,25.22048396646728,-85.82143320910725,24.351312986132687,-86.90070666272318,23.364156431118477,-87.83852028181795,22.2456376215701,-88.68913469666755,21.05381889472581,-89.69076675849726,19.893774776930847,-91.20956008446319,18.860769502329223,-93.49081975843416,18.040012084910423,-96.6429218834487,26,-70,28.126207618873106,-69.7135489730577,29.668235578621232,-70.16428781779928,31.28254961508297,-71.17527394627234,32.8807585456088,-72.14006736345442,34.308798700331636,-72.68627290292403,35.53751851457296,-72.78807729843278,36.62099277948303,-72.58017662193726,37.626500202290785,-72.19092736594084,38.610820151066164,-71.69778973145209,39.62565074039695,-71.15372883766267,40.71244086665986,-70.60357687012166,41.87626156954381,-70.06421798035828,43.067260192616516,-69.51006781739278,44.20436325637381,-68.91739064086694,45.236027725614036,-68.3532336677787,46.1843031222523,-68.00339773639162,47.13335555087702,-68.04012831498142,48.226872327368135,-68.40769827613829,49.759748904574394,-68.77197713964854,51.87054633177502,-68.37481107370343,18,-73,19.490642940496954,-72.52139819780415,20.32534730506459,-71.41906519390415,20.86957982773765,-70.119530890066,21.490744059808417,-69.14267708295671,22.302526579132245,-68.62630097898285,23.240547453230278,-68.42065837900935,24.20933846798042,-68.31768635695505,25.152502894345446,-68.1650204346183,26.048327743681586,-67.87177824642379,26.882074047941998,-67.3806248436044,27.63313657198371,-66.65481020093014,28.2849510342793,-65.69004245693294,28.84354641427952,-64.53545009678675,29.34543273598073,-63.298022354259196,29.844309181131788,-62.1115463036592,30.38126619737692,-61.07399380335509,30.95628614250438,-60.18612591285392,31.522276660948418,-59.33643227675236,32.01240349299715,-58.35559495990526,32.39181993158185,-57.11888826684189,32.71443137480111,-55.64999281412508,33.1947882139565,-54.20264130525066,34.40465016829362,-53.32720776085511" fill="none" stroke="rgb(185, 55, 55)" stroke-width="2" stroke-linejoin="round" filter="url(#fuzzy)"></polyline><polyline points="-3.648439710393486,-91.21099275983715,-2.3956917195604177,-90.42670555161638,-1.0519695633318178,-89.93025084160048,0.2831015498468951,-89.78122792954645,1.561489668974159,-89.52654426460485,2.759614441492694,-88.83299991436384,3.8599827471303048,-87.6907239204982,4.861335189466748,-86.28279841995658,5.781942919350233,-84.80495802171056,6.651828530290919,-83.36983805992978,7.502846568017672,-82.00786041098797,8.360668534504537,-80.72040492011163,9.237966041712339,-79.52635084088922,10.130386868741828,-78.46370371509843,11.020333297343722,-77.55347865470328,11.890248971669168,-76.77048114696183,12.737991419804153,-76.05971657003502,13.582362225525388,-75.38709717399264,14.45553000447243,-74.76648519870743,15.391674236154598,-74.22272814963445,16.408998984325482,-73.73624684287535,17.427535949140697,-73.2774360133267,18,-73" fill="none" stroke="rgb(185, 55, 55)" stroke-width="2" stroke-linejoin="round" filter="url(#fuzzy)"></polyline><polyline points="23.942245308223576,-56.966031940256094,23.20947073002705,-59.713162068152414,22.98382036566546,-61.562851503412546,22.71928972694448,-63.005340947206236,22.262197679799304,-64.1853150237822,21.659908522334018,-65.17875214544475,21.01012673169753,-66.05774658834612,20.358957165196397,-66.84317409246897,19.68119252275872,-67.51107025135023,18.933411938749074,-68.08493386621441,18.11776381719377,-68.71827265836468,17.289608340942017,-69.64271747133857,16.498669778116863,-70.9592070091031,15.732502251021872,-72.43543521934306,14.958311748533305,-73.58129906301878,14.270306786143616,-74.07193015596543,14,-74" fill="none" stroke="rgb(185, 55, 55)" stroke-width="2" stroke-linejoin="round" filter="url(#fuzzy)"></polyline><!--]--></g><g id="lineNose"><path d="M -10.061975128689685 19.30054859748406, Q9.809376535499831 17.894058666598774,-0.12629929659492678 -4.688097881743139" fill="none" stroke="black" stroke-width="3" stroke-linejoin="round" filter="url(#fuzzy)"></path></g><g id="mouth"><polyline points="-42.24674389634326,24.139190382829025,-41.35132332899256,25.944641140833923,-40.452598492046796,27.694374563523724,-39.55066256998315,29.388997315060813,-38.64560874727882,31.029116059607574,-37.737530208410966,32.615337461326384,-36.826520137856754,34.14826818437964,-35.91267172009338,35.62851489292971,-34.99607813959802,37.05668425113899,-34.07683258084782,38.433382923169845,-33.155028228319985,39.75921757318467,-32.23075826649167,41.03479486534584,-31.304115879840076,42.26072146381575,-30.375194252842356,43.437604032756774,-29.4440865699757,44.566049236331295,-28.51088601571727,45.6466637387017,-27.57568577454426,46.68005420403037,-26.638579030933837,47.6668272964797,-25.69965896936317,48.60758968021205,-24.75901877430944,49.502948019389805,-23.816751630249833,50.35350897817537,-22.872950721661503,51.15987922073111,-21.92770923302165,51.922665411219405,-20.98112034880743,52.64247421380266,-20.03327725349603,53.31991229264324,-19.084273131564633,53.95558631190354,-18.13420116749039,54.550102935745905,-17.183154545750497,55.104068828332764,-16.23122645082212,55.618090653826485,-15.278510067182442,56.09277507638945,-14.325098579308632,56.528728760184016,-13.371085171677874,56.92655836937262,-12.416563028767339,57.2868705681176,-11.461625335054203,57.61027202058136,-10.506365275015641,57.897369390926265,-9.55087603312883,58.14876934331472,-8.595250793870944,58.3650785419091,-7.6395827417191615,58.54690365087179,-6.683965061150655,58.69485133436515,-5.728490936642606,58.80952825655159,-4.773253552672184,58.89154108159348,-3.81834609371657,58.94149647365321,-2.8638617442529353,58.96000109689316,-1.9098936887584586,58.947661615475724,-0.9565351117103171,58.90508469356325,-0.0038791975856815597,58.832876995318166,0.9479808691382692,58.73164518490282,1.898951903984356,58.60199592647962,2.84894072247541,58.44453588421092,3.797854140134252,58.25987172225912,4.745598972483701,58.04861010478662,5.692082035046591,57.81135769595578,6.637210143345739,57.54872115992898,7.580890112903975,57.26130716086862,8.52302875924412,56.94972236293707,9.463532897888992,56.614573430296716,10.402309344361429,56.25646702710994,11.339264914184241,55.87600981753914,12.274306422880265,55.47380846574667,13.207340685972316,55.05046963589494,14.13827451898322,54.606599992146315,15.0670147374358,54.14280619866319,15.993468156852886,53.65969491960794,16.9175415927573,53.15787281914295,17.839141860671866,52.63794656143061,18.7581757761194,52.100522810633294,19.674550154622736,51.54620823091337,20.588171811704697,50.97560948643325,21.498947562888105,50.3893332413553,22.406784223695784,49.78798615984191,23.311588609650556,49.17217490605546,24.213267536275254,48.542506144158345,25.111727819092696,47.89958653831293,26.0068762736257,47.24402275268159,26.898619715397103,46.57642145142673,27.786864959929726,45.897389298710735,28.671518822746386,45.20753295869597,29.552488119369904,44.507459095544824,30.42967966532312,43.797774373419685,31.30300027612885,43.07908545648292,32.172356767309914,42.35199900889694,33.03765595438914,41.6171216948241,33.89880465288935,40.8750601784268,34.755709678333375,40.12642112386742,35.60827784624404,39.37181119530834,36.45641597214416,38.61183705691194,37.30003087155656,37.84710537284061,38.139029360004066,37.07822280725672,38.97331825300951,36.305796024322674,39.8028043660957,35.530431688200835,40.62739451478548,34.75273646305361,41.44699551460165,33.97331701304335,42.261514181067064,33.192780002332455,43.07085732970452,32.41173209508331,43.87493177603687,31.630779955458294,44.6736443355869,30.850530247619783,45.466901823877464,30.071589635730177,46.25461105643137,29.294564783951845,47.03667884877146,28.520062356447177,47.81301201642054,27.748689017378545,48.58351737490139,26.981051430908398,47.813012016420494,27.7486890173786,47.03667884877141,28.520062356447223,46.25461105643132,29.29456478395189,45.46690182387741,30.071589635730223,44.67364433558684,30.850530247619833,43.87493177603681,31.630779955458337,43.07085732970446,32.41173209508335,42.26151418106702,33.192780002332505,41.44699551460162,33.9733170130434,40.627394514785436,34.752736463053644,39.80280436609565,35.530431688200885,38.97331825300946,36.30579602432272,38.139029360004024,37.078222807256765,37.300030871556515,37.847105372840645,36.456415972144114,38.61183705691198,35.60827784624399,39.371811195308375,34.75570967833333,40.126421123867466,33.898804652889304,40.87506017842685,33.037655954389095,41.61712169482414,32.17235676730987,42.35199900889698,31.3030002761288,43.07908545648296,30.42967966532307,43.79777437341971,29.552488119369862,44.50745909554486,28.671518822746332,45.207532958696,27.786864959929684,45.89738929871078,26.89861971539707,46.57642145142677,26.006876273625664,47.24402275268163,25.111727819092657,47.89958653831297,24.213267536275218,48.54250614415838,23.311588609650517,49.1721749060555,22.40678422369574,49.78798615984196,21.498947562888063,50.389333241355345,20.588171811704655,50.97560948643329,19.674550154622693,51.54620823091341,18.758175776119362,52.100522810633315,17.839141860671823,52.637946561430645,16.917541592757257,53.157872819142995,15.993468156852849,53.65969491960798,15.067014737435763,54.14280619866322,14.138274518983177,54.60659999214635,13.207340685972277,55.05046963589498,12.274306422880219,55.4738084657467,11.3392649141842,55.87600981753916,10.402309344361386,56.25646702710996,9.46353289788895,56.61457343029674,8.523028759244074,56.949722362937095,7.580890112903932,57.26130716086864,6.637210143345698,57.54872115992901,5.692082035046545,57.81135769595579,4.745598972483659,58.04861010478662,3.7978541401342065,58.259871722259135,2.8489407224753656,58.44453588421093,1.89895190398431,58.60199592647962,0.9479808691382239,58.73164518490282,-0.0038791975857250804,58.83287699531815,-0.9565351117103624,58.90508469356325,-1.9098936887585038,58.94766161547571,-2.863861744252982,58.960001096893166,-3.818346093716614,58.94149647365321,-4.773253552672228,58.891541081593466,-5.7284909366426495,58.80952825655157,-6.683965061150701,58.69485133436513,-7.639582741719204,58.54690365087176,-8.595250793870987,58.365078541909085,-9.550876033128871,58.148769343314704,-10.506365275015684,57.89736939092625,-11.461625335054247,57.610272020581334,-12.416563028767383,57.28687056811757,-13.371085171677919,56.926558369372586,-14.32509857930868,56.528728760183995,-15.278510067182488,56.09277507638941,-16.231226450822163,55.61809065382646,-17.18315454575054,55.10406882833273,-18.13420116749043,54.550102935745876,-19.084273131564675,53.95558631190349,-20.033277253496085,53.31991229264321,-20.981120348807483,52.642474213802636,-21.9277092330217,51.922665411219384,-22.872950721661557,51.15987922073107,-23.816751630249883,50.353508978175334,-24.759018774309492,49.50294801938977,-25.69965896936322,48.607589680212,-26.638579030933887,47.666827296479646,-27.575685774544315,46.68005420403033,-28.51088601571733,45.646663738701655,-29.444086569975752,44.56604923633124,-30.375194252842412,43.43760403275671,-31.304115879840126,42.260721463815685,-32.23075826649172,41.034794865345766,-33.155028228320035,39.75921757318459,-34.07683258084787,38.43338292316976,-34.99607813959807,37.056684251138904,-35.91267172009344,35.62851489292963,-36.82652013785682,34.14826818437955,-37.73753020841102,32.6153374613263,-38.64560874727888,31.029116059607478,-39.55066256998322,29.388997315060713,-40.45259849204685,27.694374563523617,-41.35132332899261,25.944641140833806" fill="rgb(215,127,140)" stroke="black" stroke-width="3" stroke-linejoin="round" filter="url(#fuzzy)"></polyline></g></svg>