<svg viewBox="-100 -100 200 200" xmlns="http://www.w3.org/2000/svg" width="400" height="400" id="face-svg"><defs><clipPath id="leftEyeClipPath"><polyline points="25.339918683252648,-2.5876767086534773,25.28459392556085,-3.0028319237163625,25.198221032574065,-3.4100158538998375,25.080894722588926,-3.808666385009621,24.932758036629256,-4.198259808998127,24.75400070153056,-4.5783099387078074,24.544857493024537,-4.948367222614509,24.305606598823594,-5.308017859570836,24.036567981705375,-5.6568829135495,23.73810174259723,-5.994617428386669,23.410606483660786,-6.320909542525342,23.05451767137639,-6.635479603758682,22.6703059996277,-6.9380792839733925,22.25847575278612,-7.228490693893055,21.819563168795348,-7.506525497821497,21.354134802255906,-7.772024028386143,20.926908963762102,-8.132330382486625,20.457738543666693,-8.474347556212745,19.947002506927237,-8.797368421845373,19.39530461008613,-9.10080478030238,18.803456578657656,-9.38418118194971,18.17246177595382,-9.647128896402535,17.50349935726136,-9.889380029593145,16.797908903282,-10.110761786382358,16.057175526748395,-10.311190876991066,15.28291544612787,-10.490668065528624,14.476862020326216,-10.649272858894836,13.640852238303868,-10.787158334332176,12.776813657516666,-10.904546103904973,11.886751785093427,-11.00172141418221,10.97273789566259,-11.07902837940074,10.036897279740215,-11.136865346385466,9.081397916591529,-11.175680389503324,8.10843956547835,-11.195966933927675,7.120243269204501,-11.198259505489833,6.119041263871631,-11.183129605394448,5.107067288757536,-11.151181708075384,4.0865472902293405,-11.103049380468853,3.0596905136037167,-11.03939152098047,2.0286809768664336,-10.96088871642289,0.9956693201634756,-10.868239715200843,-0.037234975024071026,-10.762158015020102,-1.0679710031090237,-10.643368563397207,-2.094533494118833,-10.512604569246587,-3.114979521995759,-10.370604423821806,-4.127434867564221,-10.218108729287579,-5.1301000422531375,-10.055857433199328,-6.121255978660923,-9.884587067166894,-7.0992693940509835,-9.705028087979187,-8.062597832865373,-9.517902319466401,-9.009794394344448,-9.32392049337653,-9.939512151340205,-9.123779887542852,-10.85050826641109,-8.918162059619128,-11.741647811286015,-8.70773067465916,-12.611907295785347,-8.493129424817429,-13.460377912286624,-8.27498003944751,-14.2862685018227,-8.053880383874969,-15.088908247900166,-7.830402645121405,-15.867749104125695,-7.60509160285639,-16.62236796172813,-7.378462983853951,-17.35246856306408,-7.151001898230311,-18.057883167194667,-6.923161355739606,-18.738573973621357,-6.695360860404237,-19.394634310268426,-6.467985081756589,-20.026289591799944,-6.241382600968783,-20.63389805435906,-6.015864730147201,-21.218554798728427,-5.790948642137361,-21.7809565129566,-5.566094806814381,-22.32099190041975,-5.3414915033957495,-22.83858653031659,-5.117314723665895,-23.333702022344422,-4.893728402775682,-23.806335231375243,-4.670884650041902,-24.25651743213183,-4.448923979746769,-24.684313503863834,-4.227975541937404,-25.08982111502384,-4.008157353225345,-25.473169907943518,-3.7895765275860245,-25.834520683509595,-3.572329507158271,-26.174064585840092,-3.3565022930438024,-26.492022286960285,-3.142170676106714,-26.788643171478856,-2.929400467772979,-26.8749987772223,1.4614903128652985,-26.437677565386526,1.6839676053857588,-25.985688376187372,1.9097280782008093,-25.519159267952094,2.138727261029321,-25.038252039922924,2.370907438237296,-24.543160616701257,2.606197193602725,-24.034109432691945,2.844510955080442,-23.511351816547524,3.085748539566983,-22.9751683756125,3.3297946976654407,-22.425865380367554,3.5765186584503246,-21.863773148873832,3.825773674232413,-21.289244431217174,4.077396565323609,-20.7026527939524,4.331207264801798,-20.1043910045475,4.587008363275705,-19.494869415827964,4.844584653649755,-18.872190215058065,5.104444193865608,-18.234547893255098,5.3670781007313435,-17.582526506298052,5.6321884848032235,-16.916738645586406,5.899420400670619,-16.237822685619044,6.168363364928713,-15.546439991205759,6.438552984125422,-14.843272096374006,6.709472696081598,-14.129017867033728,6.980555627983599,-13.404390659463159,7.251186574647353,-12.670115486678307,7.520704100352915,-11.926926204749012,7.788402767648768,-11.175562731124394,8.053535496524741,-10.416768307030438,8.315316057352845,-9.651286816002617,8.57292170099496,-8.879860170616318,8.82549592947655,-8.103225779477906,9.072151410625462,-7.3221141065392095,9.311973040074903,-6.537246334798326,9.544021154029672,-5.7493321464494604,9.767334896194765,-4.9590676315446744,9.980935742265423,-4.167133337230368,10.183831185377699,-3.3741924696212595,10.375018585918674,-2.580889260374749,10.55348918909537,-1.787847510028409,10.718232313661453,-0.9956693201634765,10.868239715200843,-0.20493402645713754,11.002510127367334,0.5838026553135869,11.120053984479188,1.3700092582535142,11.219898328868013,2.15317895625374,11.301091906380776,2.93282970675601,11.362710453434225,3.7085041323142214,11.403862179020706,4.479769128890233,11.423693445064497,5.246215188821141,11.421394648527752,6.007455426395282,11.396206308665121,6.7631242939740375,11.347425362826183,7.512875976596719,11.274411674204725,8.256382453005655,11.176594754933962,8.993331211028721,11.053480707926873,9.72342260525641,10.90465939086058,10.446366844950731,10.729811805704056,11.161880600123043,10.528717717188066,11.869683213718051,10.30126350361655,12.56949250784109,10.04745024341851,13.261020171965978,9.767402040839436,13.94396672106052,9.461374594171474,14.618016011566908,9.12976400992127,15.282829303174204,8.77311586631475,15.93803885432003,8.39213452953777,16.583241039358708,7.987692726111839,17.217988975333043,7.5608413748039345,17.76475569536128,7.26519179450093,18.301742085459477,6.95588590826292,18.828425207888692,6.6333129755033795,19.34425036326198,6.297910756124284,19.84863013441906,5.950166978080852,20.34094343030098,5.590620804946268,20.82053452982479,5.219864303476421,21.28671212575822,4.838543911174624,21.73874836859435,4.447361903856351,22.175877910426287,4.047077863213969,22.597296948821832,3.6385101443814563,23.002162270698165,3.222537343499149,23.389590296196488,2.800099765278463,23.758656122556737,2.37220089056662,24.108392567992222,1.9399088439113914"></polyline></clipPath><clipPath id="rightEyeClipPath"><polyline points="-26.183111243597814,-2.8490940466193,-26.056216451860085,-3.3634625855253937,-25.90126458900238,-3.8686823607495535,-25.718381614394808,-4.364009509212855,-25.507734131410473,-4.848748817001166,-25.269527990204143,-5.3222526184405705,-25.004006890491016,-5.783919695172781,-24.711450984325463,-6.233194175230576,-24.39217547887971,-6.669564432113198,-24.04652923922259,-7.092561983861799,-23.674893391098298,-7.5017603921348455,-23.277679923705062,-7.896774161283544,-22.855330292473923,-8.277257637427269,-22.408314021847435,-8.642903907528977,-21.937127308058393,-8.993443698470628,-21.442291621908584,-9.328644276128617,-20.970706650946195,-9.78356144530391,-20.461546431776533,-10.216016792996317,-19.9151796213111,-10.625078826179273,-19.332168555576576,-11.009965096829422,-18.71325464652796,-11.370034845857933,-18.059344211935354,-11.70478180462582,-17.371494732830545,-12.013827152602435,-16.65090153299982,-12.296912629726279,-15.898884875009351,-12.553893802027371,-15.116877467249513,-12.784733479070287,-14.306412376484431,-12.989495281777067,-13.469111340393187,-13.168337359189195,-12.606673474588941,-13.321506252727767,-11.720864368602374,-13.449330906511086,-10.813505565315788,-13.552216822288802,-9.88646441833422,-13.63064035755183,-8.941644321779878,-13.685143165377148,-7.980975306996305,-13.71632677456675,-7.006405000648565,-13.724847308639832,-6.019889938705848,-13.711410342237421,-5.023387230792789,-13.676765893498677,-4.018846569395899,-13.62170355096794,-3.0082025784114195,-13.5470477335918,-1.9933674955209573,-13.453653082365262,-0.9762241828812876,-13.34239998218631,0.041380539385409865,-13.214190212477899,1.0576422424144591,-13.069942725136688,2.070804926048424,-12.910589548367565,3.0791667500273205,-12.737071814963269,4.081085464432953,-12.550335913588139,5.07498354490105,-12.351329761625308,6.059353038114799,-12.140999198146414,7.032760123093503,-11.920284495563047,7.993849393789933,-11.690116988519106,8.941347868510114,-11.45141581858325,9.874068731669121,-11.205084793300562,10.790914813396567,-10.952009358162693,11.690881812505461,-10.693053680055568,12.57306126833805,-10.429057840743948,13.43664328700229,-10.160835138951835,14.28091902751266,-9.889169499598118,15.105282953348908,-9.614812988746456,15.909234854946385,-9.338483432828696,16.692381648631684,-9.060862140700902,17.454438957517144,-8.782591727091262,18.19523247986794,-8.504274035998964,18.914699150455384,-8.226468162603304,19.61288810041011,-7.9496885722421,20.28996142108872,-7.674403315018685,20.946194737467696,-7.401032334596606,21.58286810171177,-7.128980517579454,22.200940582559074,-6.857579229067568,22.800315525801423,-6.587088618764714,23.380927412585493,-6.317752372577766,23.94274112097721,-6.049797905584294,24.48575118752622,-5.783436555000132,25.009981068830317,-5.518863773146975,25.515482403099913,-5.256259320419941,26.00233427172241,-4.995787458255164,26.470642460826728,-4.73759714209737,26.92053872284765,-4.48182221436746,27.352180038090356,-4.2285815974300895,27.76574787629479,-3.9779794865612437,28.161447458200126,-3.730105542915826,27.782143540957662,2.3869797165567803,27.402303285854234,2.665431129582445,27.006014697405522,2.94719635232328,26.593181766081003,3.2321771126299064,26.163734209857687,3.520258305557059,25.717627338628116,3.811307750271835,25.25484191860841,4.105175946961917,24.77538403674627,4.401695833743825,24.279284965129065,4.700682543571134,23.766601025391772,5.001933161142729,23.23741345312506,5.305226479811028,22.69182826228332,5.610322758490222,22.12997610959265,5.916963478564511,21.552012158958913,6.224871100796339,20.958115945875768,6.533748822234634,20.347071809582797,6.844341647254715,19.717482627169087,7.157317072747654,19.06933259235864,7.472203863102942,18.402683245736565,7.788474229370879,17.717672296152912,8.105545858261916,17.014512316628362,8.422784051924037,16.293489315774067,8.739503980313284,15.554961185738113,9.054973047972462,14.79935602769101,9.368413377033171,14.027170355862648,9.679004408256187,13.2389671811431,9.985885621925359,12.43537397525978,10.288159380409962,11.61708051654323,10.584893894210808,10.784836618294099,10.87512631330498,9.939449740763672,11.15786594560442,9.081782487760334,11.432097604343399,8.212749988894476,11.696785086209967,7.333317168474187,11.950874782036447,6.444495902064185,12.193299421864086,5.547342061720398,12.422981956196965,4.642952450912639,12.638839575260175,3.7324616301477405,12.839787868077446,2.8170386343056473,13.024745123183218,1.8978835827007958,13.192636772784326,0.9762241828812876,13.34239998218631,0.05331212917821615,13.472988386299496,-0.8695806029824085,13.583376975039888,-1.7911655659927148,13.672567129439953,-2.7101417511886035,13.739591810284475,-3.6251996011754994,13.783520901086412,-4.53502512234186,13.803466707217954,-5.438304096547977,13.798589613011874,-6.333726390977652,13.768103898648135,-7.219990365140347,13.711283718641011,-8.095807374011386,13.627469243741642,-8.95990636629778,13.51607296807125,-9.811038576817229,13.376586183299963,-10.647982311977959,13.208585621686487,-11.469547827346862,13.01174026979354,-12.274582296293659,12.78581835469431,-13.061974868698496,12.530694504484861,-13.830661818710727,12.246357084917696,-14.579631780546343,11.93291571397145,-15.30793107131164,11.590608956171952,-16.01466909984077,11.219812198479552,-16.69902386053474,10.821045709557968,-17.360247511189332,10.394982884239596,-17.997672033799684,9.942458675002525,-18.610714977329,9.464478212274162,-19.198885281429003,8.96222561537671,-19.756298664289165,8.601059733475541,-20.297184329711502,8.224204699932322,-20.821011121081195,7.832054810987705,-21.327249001681672,7.425052035543658,-21.8153694875496,7.003687405247959,-22.284846080329988,6.568502404578677,-22.735154700131194,6.1200903609286845,-23.165774118379996,5.659097834690135,-23.576186390676646,5.186226009338956,-23.965877289649914,4.702232081519358,-24.334336737812126,4.207930651128304,-24.68105924041424,3.7041951114000238,-25.005544318300867,3.1919590389904933,-25.307296940765315,2.6722175840619347,-25.58582795840471,2.1460288603673083"></polyline></clipPath><filter id="fuzzy"><feTurbulence id="turbulence" baseFrequency="0.05" numOctaves="3" type="noise" result="noise"></feTurbulence><feDisplacementMap in="SourceGraphic" in2="noise" scale="2"></feDisplacementMap></filter><linearGradient id="rainbowGradient" x1="0%" y1="0%" x2="100%" y2="0%"><stop offset="0%" style="stop-color: rgb(167, 133, 106);  stop-opacity: 1"></stop><stop offset="50%" style="stop-color: rgb(167, 133, 106);  stop-opacity: 1"></stop><stop offset="100%" style="stop-color: rgb(0, 191, 255);  stop-opacity: 1"></stop></linearGradient></defs><title>That&#39;s an ugly face</title><desc>CREATED BY XUAN TANG, MORE INFO AT TXSTC55.GITHUB.IO</desc><rect x="-100" y="-100" width="100%" height="100%" opacity="1" fill="rgb(105, 105, 105)"></rect><polyline id="faceContour" points="71,1,71,1,70,2,70,4,71,6,71,7,71,8,71,8,70,9,71,10,70,11,70,12,70,14,70,14,69,16,70,17,69,17,69,20,69,21,69,20,69,22,68,24,68,25,67,27,67,27,66,29,66,30,66,29,66,31,65,32,64,35,65,32,64,35,63,36,62,38,62,38,61,41,61,40,61,41,60,42,59,43,58,44,57,45,57,46,55,48,55,48,54,50,54,50,52,52,53,51,53,51,52,53,51,54,49,55,48,56,47,57,48,56,47,57,45,59,45,59,44,60,43,60,42,61,40,62,40,62,40,63,38,64,37,65,36,65,35,66,35,65,33,67,31,68,30,68,30,68,29,69,26,70,27,70,25,70,24,71,25,71,22,71,20,72,21,72,19,73,16,73,18,72,15,73,15,73,14,73,13,74,9,75,8,75,7,75,6,75,5,75,5,75,3,75,2,75,0,75,-1,75,-1,76,-3,76,-4,75,-6,75,-6,75,-6,75,-8,75,-10,75,-12,75,-13,75,-14,74,-13,75,-16,74,-17,74,-17,74,-19,74,-19,74,-20,73,-22,73,-22,73,-24,72,-24,72,-26,72,-29,70,-28,71,-30,70,-30,70,-32,69,-33,69,-35,68,-35,68,-35,68,-38,66,-39,65,-38,66,-40,65,-40,65,-42,63,-43,62,-44,62,-45,61,-45,61,-46,60,-48,59,-48,59,-48,59,-50,57,-51,56,-52,55,-53,54,-53,53,-54,52,-54,52,-55,52,-56,49,-56,50,-57,49,-58,48,-59,46,-59,46,-59,46,-61,43,-61,42,-62,41,-62,41,-63,39,-63,38,-63,39,-64,36,-65,35,-65,34,-65,34,-66,31,-66,31,-66,31,-67,29,-68,27,-68,26,-68,25,-69,23,-69,24,-69,22,-69,20,-70,18,-69,18,-70,16,-70,14,-70,15,-70,15,-70,14,-70,11,-71,9,-70,8,-71,8,-71,6,-71,5,-71,4,-70,1,-70,1,-71,-1,-70,-1,-70,-2,-70,-4,-70,-5,-70,-7,-70,-7,-69,-10,-70,-10,-69,-11,-69,-13,-69,-14,-69,-14,-69,-15,-68,-17,-67,-19,-68,-19,-67,-20,-67,-20,-66,-23,-66,-24,-65,-26,-65,-27,-65,-27,-65,-27,-64,-30,-63,-32,-64,-30,-62,-34,-62,-34,-61,-35,-61,-37,-61,-37,-60,-39,-58,-41,-58,-41,-58,-41,-57,-43,-57,-43,-56,-45,-55,-46,-54,-48,-54,-48,-54,-48,-52,-50,-52,-50,-51,-51,-50,-53,-50,-52,-49,-53,-48,-55,-47,-56,-47,-56,-46,-56,-45,-57,-45,-57,-43,-59,-42,-60,-43,-60,-41,-62,-39,-63,-38,-64,-37,-64,-38,-64,-36,-65,-35,-66,-34,-66,-33,-67,-31,-68,-31,-68,-30,-69,-29,-69,-30,-69,-27,-70,-27,-70,-25,-71,-25,-71,-22,-72,-23,-72,-21,-72,-22,-72,-20,-73,-19,-73,-17,-74,-15,-74,-15,-74,-16,-74,-14,-74,-13,-74,-10,-75,-10,-75,-9,-75,-8,-75,-6,-75,-6,-75,-5,-76,-4,-75,-3,-75,-3,-76,-2,-76,1,-75,1,-75,1,-75,2,-75,6,-75,5,-75,5,-75,8,-74,8,-74,11,-74,12,-74,13,-74,12,-74,12,-74,15,-73,17,-72,17,-72,18,-72,19,-71,21,-71,21,-71,22,-70,23,-70,24,-70,24,-70,26,-69,27,-68,28,-68,29,-67,29,-67,31,-66,32,-65,33,-65,33,-64,33,-65,35,-63,37,-62,36,-62,38,-61,38,-61,39,-60,41,-59,42,-58,42,-58,43,-57,45,-55,45,-55,46,-54,47,-54,47,-53,47,-53,49,-51,49,-51,50,-49,51,-48,51,-49,53,-46,53,-46,54,-45,55,-44,55,-43,56,-43,57,-41,57,-41,58,-39,58,-39,59,-38,60,-35,60,-35,60,-36,62,-33,62,-31,62,-32,63,-29,63,-30,64,-27,65,-27,64,-27,66,-24,66,-23,66,-23,66,-22,66,-21,67,-19,67,-18,68,-16,68,-16,68,-15,68,-14,69,-12,69,-11,69,-11,69,-10,70,-8,70,-8,70,-6,70,-4,70,-3,70,-2,70,-2,71,1,71,1" fill="#ffc9a9" stroke="black" stroke-width="1.6666666666666665" stroke-linejoin="round" filter="url(#fuzzy)"></polyline><g transform="translate(26.18202593992003 -21.638360957798938)"><polyline id="rightCountour" points="-26.183111243597814,-2.8490940466193,-26.056216451860085,-3.3634625855253937,-25.90126458900238,-3.8686823607495535,-25.718381614394808,-4.364009509212855,-25.507734131410473,-4.848748817001166,-25.269527990204143,-5.3222526184405705,-25.004006890491016,-5.783919695172781,-24.711450984325463,-6.233194175230576,-24.39217547887971,-6.669564432113198,-24.04652923922259,-7.092561983861799,-23.674893391098298,-7.5017603921348455,-23.277679923705062,-7.896774161283544,-22.855330292473923,-8.277257637427269,-22.408314021847435,-8.642903907528977,-21.937127308058393,-8.993443698470628,-21.442291621908584,-9.328644276128617,-20.970706650946195,-9.78356144530391,-20.461546431776533,-10.216016792996317,-19.9151796213111,-10.625078826179273,-19.332168555576576,-11.009965096829422,-18.71325464652796,-11.370034845857933,-18.059344211935354,-11.70478180462582,-17.371494732830545,-12.013827152602435,-16.65090153299982,-12.296912629726279,-15.898884875009351,-12.553893802027371,-15.116877467249513,-12.784733479070287,-14.306412376484431,-12.989495281777067,-13.469111340393187,-13.168337359189195,-12.606673474588941,-13.321506252727767,-11.720864368602374,-13.449330906511086,-10.813505565315788,-13.552216822288802,-9.88646441833422,-13.63064035755183,-8.941644321779878,-13.685143165377148,-7.980975306996305,-13.71632677456675,-7.006405000648565,-13.724847308639832,-6.019889938705848,-13.711410342237421,-5.023387230792789,-13.676765893498677,-4.018846569395899,-13.62170355096794,-3.0082025784114195,-13.5470477335918,-1.9933674955209573,-13.453653082365262,-0.9762241828812876,-13.34239998218631,0.041380539385409865,-13.214190212477899,1.0576422424144591,-13.069942725136688,2.070804926048424,-12.910589548367565,3.0791667500273205,-12.737071814963269,4.081085464432953,-12.550335913588139,5.07498354490105,-12.351329761625308,6.059353038114799,-12.140999198146414,7.032760123093503,-11.920284495563047,7.993849393789933,-11.690116988519106,8.941347868510114,-11.45141581858325,9.874068731669121,-11.205084793300562,10.790914813396567,-10.952009358162693,11.690881812505461,-10.693053680055568,12.57306126833805,-10.429057840743948,13.43664328700229,-10.160835138951835,14.28091902751266,-9.889169499598118,15.105282953348908,-9.614812988746456,15.909234854946385,-9.338483432828696,16.692381648631684,-9.060862140700902,17.454438957517144,-8.782591727091262,18.19523247986794,-8.504274035998964,18.914699150455384,-8.226468162603304,19.61288810041011,-7.9496885722421,20.28996142108872,-7.674403315018685,20.946194737467696,-7.401032334596606,21.58286810171177,-7.128980517579454,22.200940582559074,-6.857579229067568,22.800315525801423,-6.587088618764714,23.380927412585493,-6.317752372577766,23.94274112097721,-6.049797905584294,24.48575118752622,-5.783436555000132,25.009981068830317,-5.518863773146975,25.515482403099913,-5.256259320419941,26.00233427172241,-4.995787458255164,26.470642460826728,-4.73759714209737,26.92053872284765,-4.48182221436746,27.352180038090356,-4.2285815974300895,27.76574787629479,-3.9779794865612437,28.161447458200126,-3.730105542915826,27.782143540957662,2.3869797165567803,27.402303285854234,2.665431129582445,27.006014697405522,2.94719635232328,26.593181766081003,3.2321771126299064,26.163734209857687,3.520258305557059,25.717627338628116,3.811307750271835,25.25484191860841,4.105175946961917,24.77538403674627,4.401695833743825,24.279284965129065,4.700682543571134,23.766601025391772,5.001933161142729,23.23741345312506,5.305226479811028,22.69182826228332,5.610322758490222,22.12997610959265,5.916963478564511,21.552012158958913,6.224871100796339,20.958115945875768,6.533748822234634,20.347071809582797,6.844341647254715,19.717482627169087,7.157317072747654,19.06933259235864,7.472203863102942,18.402683245736565,7.788474229370879,17.717672296152912,8.105545858261916,17.014512316628362,8.422784051924037,16.293489315774067,8.739503980313284,15.554961185738113,9.054973047972462,14.79935602769101,9.368413377033171,14.027170355862648,9.679004408256187,13.2389671811431,9.985885621925359,12.43537397525978,10.288159380409962,11.61708051654323,10.584893894210808,10.784836618294099,10.87512631330498,9.939449740763672,11.15786594560442,9.081782487760334,11.432097604343399,8.212749988894476,11.696785086209967,7.333317168474187,11.950874782036447,6.444495902064185,12.193299421864086,5.547342061720398,12.422981956196965,4.642952450912639,12.638839575260175,3.7324616301477405,12.839787868077446,2.8170386343056473,13.024745123183218,1.8978835827007958,13.192636772784326,0.9762241828812876,13.34239998218631,0.05331212917821615,13.472988386299496,-0.8695806029824085,13.583376975039888,-1.7911655659927148,13.672567129439953,-2.7101417511886035,13.739591810284475,-3.6251996011754994,13.783520901086412,-4.53502512234186,13.803466707217954,-5.438304096547977,13.798589613011874,-6.333726390977652,13.768103898648135,-7.219990365140347,13.711283718641011,-8.095807374011386,13.627469243741642,-8.95990636629778,13.51607296807125,-9.811038576817229,13.376586183299963,-10.647982311977959,13.208585621686487,-11.469547827346862,13.01174026979354,-12.274582296293659,12.78581835469431,-13.061974868698496,12.530694504484861,-13.830661818710727,12.246357084917696,-14.579631780546343,11.93291571397145,-15.30793107131164,11.590608956171952,-16.01466909984077,11.219812198479552,-16.69902386053474,10.821045709557968,-17.360247511189332,10.394982884239596,-17.997672033799684,9.942458675002525,-18.610714977329,9.464478212274162,-19.198885281429003,8.96222561537671,-19.756298664289165,8.601059733475541,-20.297184329711502,8.224204699932322,-20.821011121081195,7.832054810987705,-21.327249001681672,7.425052035543658,-21.8153694875496,7.003687405247959,-22.284846080329988,6.568502404578677,-22.735154700131194,6.1200903609286845,-23.165774118379996,5.659097834690135,-23.576186390676646,5.186226009338956,-23.965877289649914,4.702232081519358,-24.334336737812126,4.207930651128304,-24.68105924041424,3.7041951114000238,-25.005544318300867,3.1919590389904933,-25.307296940765315,2.6722175840619347,-25.58582795840471,2.1460288603673083" fill="white" stroke="white" stroke-width="0" stroke-linejoin="round" filter="url(#fuzzy)"></polyline></g><g transform="translate(-39.423674808999706 -18.368776597747882)"><polyline id="leftCountour" points="25.339918683252648,-2.5876767086534773,25.28459392556085,-3.0028319237163625,25.198221032574065,-3.4100158538998375,25.080894722588926,-3.808666385009621,24.932758036629256,-4.198259808998127,24.75400070153056,-4.5783099387078074,24.544857493024537,-4.948367222614509,24.305606598823594,-5.308017859570836,24.036567981705375,-5.6568829135495,23.73810174259723,-5.994617428386669,23.410606483660786,-6.320909542525342,23.05451767137639,-6.635479603758682,22.6703059996277,-6.9380792839733925,22.25847575278612,-7.228490693893055,21.819563168795348,-7.506525497821497,21.354134802255906,-7.772024028386143,20.926908963762102,-8.132330382486625,20.457738543666693,-8.474347556212745,19.947002506927237,-8.797368421845373,19.39530461008613,-9.10080478030238,18.803456578657656,-9.38418118194971,18.17246177595382,-9.647128896402535,17.50349935726136,-9.889380029593145,16.797908903282,-10.110761786382358,16.057175526748395,-10.311190876991066,15.28291544612787,-10.490668065528624,14.476862020326216,-10.649272858894836,13.640852238303868,-10.787158334332176,12.776813657516666,-10.904546103904973,11.886751785093427,-11.00172141418221,10.97273789566259,-11.07902837940074,10.036897279740215,-11.136865346385466,9.081397916591529,-11.175680389503324,8.10843956547835,-11.195966933927675,7.120243269204501,-11.198259505489833,6.119041263871631,-11.183129605394448,5.107067288757536,-11.151181708075384,4.0865472902293405,-11.103049380468853,3.0596905136037167,-11.03939152098047,2.0286809768664336,-10.96088871642289,0.9956693201634756,-10.868239715200843,-0.037234975024071026,-10.762158015020102,-1.0679710031090237,-10.643368563397207,-2.094533494118833,-10.512604569246587,-3.114979521995759,-10.370604423821806,-4.127434867564221,-10.218108729287579,-5.1301000422531375,-10.055857433199328,-6.121255978660923,-9.884587067166894,-7.0992693940509835,-9.705028087979187,-8.062597832865373,-9.517902319466401,-9.009794394344448,-9.32392049337653,-9.939512151340205,-9.123779887542852,-10.85050826641109,-8.918162059619128,-11.741647811286015,-8.70773067465916,-12.611907295785347,-8.493129424817429,-13.460377912286624,-8.27498003944751,-14.2862685018227,-8.053880383874969,-15.088908247900166,-7.830402645121405,-15.867749104125695,-7.60509160285639,-16.62236796172813,-7.378462983853951,-17.35246856306408,-7.151001898230311,-18.057883167194667,-6.923161355739606,-18.738573973621357,-6.695360860404237,-19.394634310268426,-6.467985081756589,-20.026289591799944,-6.241382600968783,-20.63389805435906,-6.015864730147201,-21.218554798728427,-5.790948642137361,-21.7809565129566,-5.566094806814381,-22.32099190041975,-5.3414915033957495,-22.83858653031659,-5.117314723665895,-23.333702022344422,-4.893728402775682,-23.806335231375243,-4.670884650041902,-24.25651743213183,-4.448923979746769,-24.684313503863834,-4.227975541937404,-25.08982111502384,-4.008157353225345,-25.473169907943518,-3.7895765275860245,-25.834520683509595,-3.572329507158271,-26.174064585840092,-3.3565022930438024,-26.492022286960285,-3.142170676106714,-26.788643171478856,-2.929400467772979,-26.8749987772223,1.4614903128652985,-26.437677565386526,1.6839676053857588,-25.985688376187372,1.9097280782008093,-25.519159267952094,2.138727261029321,-25.038252039922924,2.370907438237296,-24.543160616701257,2.606197193602725,-24.034109432691945,2.844510955080442,-23.511351816547524,3.085748539566983,-22.9751683756125,3.3297946976654407,-22.425865380367554,3.5765186584503246,-21.863773148873832,3.825773674232413,-21.289244431217174,4.077396565323609,-20.7026527939524,4.331207264801798,-20.1043910045475,4.587008363275705,-19.494869415827964,4.844584653649755,-18.872190215058065,5.104444193865608,-18.234547893255098,5.3670781007313435,-17.582526506298052,5.6321884848032235,-16.916738645586406,5.899420400670619,-16.237822685619044,6.168363364928713,-15.546439991205759,6.438552984125422,-14.843272096374006,6.709472696081598,-14.129017867033728,6.980555627983599,-13.404390659463159,7.251186574647353,-12.670115486678307,7.520704100352915,-11.926926204749012,7.788402767648768,-11.175562731124394,8.053535496524741,-10.416768307030438,8.315316057352845,-9.651286816002617,8.57292170099496,-8.879860170616318,8.82549592947655,-8.103225779477906,9.072151410625462,-7.3221141065392095,9.311973040074903,-6.537246334798326,9.544021154029672,-5.7493321464494604,9.767334896194765,-4.9590676315446744,9.980935742265423,-4.167133337230368,10.183831185377699,-3.3741924696212595,10.375018585918674,-2.580889260374749,10.55348918909537,-1.787847510028409,10.718232313661453,-0.9956693201634765,10.868239715200843,-0.20493402645713754,11.002510127367334,0.5838026553135869,11.120053984479188,1.3700092582535142,11.219898328868013,2.15317895625374,11.301091906380776,2.93282970675601,11.362710453434225,3.7085041323142214,11.403862179020706,4.479769128890233,11.423693445064497,5.246215188821141,11.421394648527752,6.007455426395282,11.396206308665121,6.7631242939740375,11.347425362826183,7.512875976596719,11.274411674204725,8.256382453005655,11.176594754933962,8.993331211028721,11.053480707926873,9.72342260525641,10.90465939086058,10.446366844950731,10.729811805704056,11.161880600123043,10.528717717188066,11.869683213718051,10.30126350361655,12.56949250784109,10.04745024341851,13.261020171965978,9.767402040839436,13.94396672106052,9.461374594171474,14.618016011566908,9.12976400992127,15.282829303174204,8.77311586631475,15.93803885432003,8.39213452953777,16.583241039358708,7.987692726111839,17.217988975333043,7.5608413748039345,17.76475569536128,7.26519179450093,18.301742085459477,6.95588590826292,18.828425207888692,6.6333129755033795,19.34425036326198,6.297910756124284,19.84863013441906,5.950166978080852,20.34094343030098,5.590620804946268,20.82053452982479,5.219864303476421,21.28671212575822,4.838543911174624,21.73874836859435,4.447361903856351,22.175877910426287,4.047077863213969,22.597296948821832,3.6385101443814563,23.002162270698165,3.222537343499149,23.389590296196488,2.800099765278463,23.758656122556737,2.37220089056662,24.108392567992222,1.9399088439113914" fill="white" stroke="white" stroke-width="0" stroke-linejoin="round" filter="url(#fuzzy)"></polyline></g><g transform="translate(26.18202593992003 -21.638360957798938)"><polyline id="rightUpper" points="-25.913066887058527,2.5971352637529286,-26.063729878014808,2.043681534696022,-26.187619012992954,1.4890200310610084,-26.28437696416347,0.9344416584265469,-26.35370101991251,0.3811776639607194,-26.395341687620675,-0.16959926265439074,-26.4091012964417,-0.7167738882981218,-26.394832600081187,-1.2592873354866538,-26.352437379575342,-1.796135981448426,-26.281865046069687,-2.3263703571995644,-26.183111243597814,-2.8490940466193,-26.056216451860085,-3.3634625855253937,-25.90126458900238,-3.8686823607495535,-25.718381614394808,-4.364009509212855,-25.507734131410473,-4.848748817001166,-25.269527990204143,-5.3222526184405705,-25.004006890491016,-5.783919695172781,-24.711450984325463,-6.233194175230576,-24.39217547887971,-6.669564432113198,-24.04652923922259,-7.092561983861799,-23.674893391098298,-7.5017603921348455,-23.277679923705062,-7.896774161283544,-22.855330292473923,-8.277257637427269,-22.408314021847435,-8.642903907528977,-21.937127308058393,-8.993443698470628,-21.442291621908584,-9.328644276128617,-20.970706650946195,-9.78356144530391,-20.461546431776533,-10.216016792996317,-19.9151796213111,-10.625078826179273,-19.332168555576576,-11.009965096829422,-18.71325464652796,-11.370034845857933,-18.059344211935354,-11.70478180462582,-17.371494732830545,-12.013827152602435,-16.65090153299982,-12.296912629726279,-15.898884875009351,-12.553893802027371,-15.116877467249513,-12.784733479070287,-14.306412376484431,-12.989495281777067,-13.469111340393187,-13.168337359189195,-12.606673474588941,-13.321506252727767,-11.720864368602374,-13.449330906511086,-10.813505565315788,-13.552216822288802,-9.88646441833422,-13.63064035755183,-8.941644321779878,-13.685143165377148,-7.980975306996305,-13.71632677456675,-7.006405000648565,-13.724847308639832,-6.019889938705848,-13.711410342237421,-5.023387230792789,-13.676765893498677,-4.018846569395899,-13.62170355096794,-3.0082025784114195,-13.5470477335918,-1.9933674955209573,-13.453653082365262,-0.9762241828812876,-13.34239998218631,0.041380539385409865,-13.214190212477899,1.0576422424144591,-13.069942725136688,2.070804926048424,-12.910589548367565,3.0791667500273205,-12.737071814963269,4.081085464432953,-12.550335913588139,5.07498354490105,-12.351329761625308,6.059353038114799,-12.140999198146414,7.032760123093503,-11.920284495563047,7.993849393789933,-11.690116988519106,8.941347868510114,-11.45141581858325,9.874068731669121,-11.205084793300562,10.790914813396567,-10.952009358162693,11.690881812505461,-10.693053680055568,12.57306126833805,-10.429057840743948,13.43664328700229,-10.160835138951835,14.28091902751266,-9.889169499598118,15.105282953348908,-9.614812988746456,15.909234854946385,-9.338483432828696,16.692381648631684,-9.060862140700902,17.454438957517144,-8.782591727091262,18.19523247986794,-8.504274035998964,18.914699150455384,-8.226468162603304,19.61288810041011,-7.9496885722421,20.28996142108872,-7.674403315018685,20.946194737467696,-7.401032334596606,21.58286810171177,-7.128980517579454,22.200940582559074,-6.857579229067568,22.800315525801423,-6.587088618764714,23.380927412585493,-6.317752372577766,23.94274112097721,-6.049797905584294,24.48575118752622,-5.783436555000132,25.009981068830317,-5.518863773146975,25.515482403099913,-5.256259320419941,26.00233427172241,-4.995787458255164,26.470642460826728,-4.73759714209737,26.92053872284765,-4.48182221436746,27.352180038090356,-4.2285815974300895,27.76574787629479,-3.9779794865612437,28.161447458200126,-3.730105542915826,28.539507017109216,-3.485035086495231,28.90017706045303,-3.2428292891149315,29.243729631355052,-3.003535367372055,29.570457570195796,-2.7671867756129647,29.880673776177183,-2.533803398900843,30.174710468887007,-2.3033917459832605,30.45291844986337,-2.0759451422597737,30.715666364159105,-1.8514439227494925,30.963339961906257,-1.629855625058668,31.196341359880474,-1.4111351823482658" fill="none" stroke="black" stroke-width="1.6666666666666665" stroke-linejoin="round" filter="url(#fuzzy)"></polyline><polyline id="rightLower" points="-26.991408708782405,-3.1898712165298586,-26.97039357836459,-2.6722519619619245,-26.921684048910674,-2.1467300225514707,-26.845686649758186,-1.6150696026059417,-26.742818120098892,-1.0789580419971179,-26.613504976123796,-0.5400072062456018,-26.458183078168062,0.000245123394684299,-26.277297197855948,0.5403338598520082,-26.07130058524579,1.0788652201523248,-25.840654535974938,1.6145153353348016,-25.58582795840471,2.1460288603673083,-25.307296940765315,2.6722175840619347,-25.005544318300867,3.1919590389904933,-24.68105924041424,3.7041951114000238,-24.334336737812126,4.207930651128304,-23.965877289649914,4.702232081519358,-23.576186390676646,5.186226009338956,-23.165774118379996,5.659097834690135,-22.735154700131194,6.1200903609286845,-22.284846080329988,6.568502404578677,-21.8153694875496,7.003687405247959,-21.327249001681672,7.425052035543658,-20.821011121081195,7.832054810987705,-20.297184329711502,8.224204699932322,-19.756298664289165,8.601059733475541,-19.198885281429003,8.96222561537671,-18.610714977329,9.464478212274162,-17.997672033799684,9.942458675002525,-17.360247511189332,10.394982884239596,-16.69902386053474,10.821045709557968,-16.01466909984077,11.219812198479552,-15.30793107131164,11.590608956171952,-14.579631780546343,11.93291571397145,-13.830661818710727,12.246357084917696,-13.061974868698496,12.530694504484861,-12.274582296293659,12.78581835469431,-11.469547827346862,13.01174026979354,-10.647982311977959,13.208585621686487,-9.811038576817229,13.376586183299963,-8.95990636629778,13.51607296807125,-8.095807374011386,13.627469243741642,-7.219990365140347,13.711283718641011,-6.333726390977652,13.768103898648135,-5.438304096547977,13.798589613011874,-4.53502512234186,13.803466707217954,-3.6251996011754994,13.783520901086412,-2.7101417511886035,13.739591810284475,-1.7911655659927148,13.672567129439953,-0.8695806029824085,13.583376975039888,0.05331212917821615,13.472988386299496,0.9762241828812876,13.34239998218631,1.8978835827007958,13.192636772784326,2.8170386343056473,13.024745123183218,3.7324616301477405,12.839787868077446,4.642952450912639,12.638839575260175,5.547342061720398,12.422981956196965,6.444495902064185,12.193299421864086,7.333317168474187,11.950874782036447,8.212749988894476,11.696785086209967,9.081782487760334,11.432097604343399,9.939449740763672,11.15786594560442,10.784836618294099,10.87512631330498,11.61708051654323,10.584893894210808,12.43537397525978,10.288159380409962,13.2389671811431,9.985885621925359,14.027170355862648,9.679004408256187,14.79935602769101,9.368413377033171,15.554961185738113,9.054973047972462,16.293489315774067,8.739503980313284,17.014512316628362,8.422784051924037,17.717672296152912,8.105545858261916,18.402683245736565,7.788474229370879,19.06933259235864,7.472203863102942,19.717482627169087,7.157317072747654,20.347071809582797,6.844341647254715,20.958115945875768,6.533748822234634,21.552012158958913,6.224871100796339,22.12997610959265,5.916963478564511,22.69182826228332,5.610322758490222,23.23741345312506,5.305226479811028,23.766601025391772,5.001933161142729,24.279284965129065,4.700682543571134,24.77538403674627,4.401695833743825,25.25484191860841,4.105175946961917,25.717627338628116,3.811307750271835,26.163734209857687,3.520258305557059,26.593181766081003,3.2321771126299064,27.006014697405522,2.94719635232328,27.402303285854234,2.665431129582445,27.782143540957662,2.3869797165567803,28.145657335345824,2.1119237956915553,28.492992540340204,1.8403287028196837,28.824323161545696,1.5722436702534934,29.139849474442656,1.3077020698764872,29.439798159978796,1.0467216562351083,29.724422440161195,0.7893048096304978,29.994002213648276,0.5354387792102744,30.248844191341753,0.2850959260602792,30.489282031978618,0.03823396629635567,30.715676477723147,-0.2052037858438971" fill="none" stroke="black" stroke-width="2.2222222222222223" stroke-linejoin="round" filter="url(#fuzzy)"></polyline><!--[--><circle r="3.9132469821928706" cx="-12.480256783904801" cy="1.2421707693479567" stroke="black" fill="none" stroke-width="1" filter="url(#fuzzy)" clip-path="url(#rightEyeClipPath)"></circle><circle r="3.7544664309265507" cx="-15.477649950752049" cy="2.7960950442209844" stroke="black" fill="none" stroke-width="1" filter="url(#fuzzy)" clip-path="url(#rightEyeClipPath)"></circle><circle r="3.804392564491681" cx="-15.740263925555489" cy="3.9947611091615034" stroke="black" fill="none" stroke-width="1" filter="url(#fuzzy)" clip-path="url(#rightEyeClipPath)"></circle><circle r="4.979073269055775" cx="-14.572944720880415" cy="5.134832840115994" stroke="black" fill="none" stroke-width="1" filter="url(#fuzzy)" clip-path="url(#rightEyeClipPath)"></circle><circle r="3.468018562886985" cx="-13.752686400191065" cy="3.539728271127011" stroke="black" fill="none" stroke-width="1" filter="url(#fuzzy)" clip-path="url(#rightEyeClipPath)"></circle><circle r="3.948552238053192" cx="-14.516006485412584" cy="3.6877599716330645" stroke="black" fill="none" stroke-width="1" filter="url(#fuzzy)" clip-path="url(#rightEyeClipPath)"></circle><circle r="4.226862824882275" cx="-14.301826099258303" cy="3.4623254804095547" stroke="black" fill="none" stroke-width="1" filter="url(#fuzzy)" clip-path="url(#rightEyeClipPath)"></circle><circle r="4.19359316048368" cx="-12.169945988352085" cy="1.3969537875038749" stroke="black" fill="none" stroke-width="1" filter="url(#fuzzy)" clip-path="url(#rightEyeClipPath)"></circle><circle r="4.7531341873373325" cx="-15.104471735131359" cy="1.6811516754594225" stroke="black" fill="none" stroke-width="1" filter="url(#fuzzy)" clip-path="url(#rightEyeClipPath)"></circle><circle r="3.09571242795196" cx="-14.698290827076608" cy="2.4411360798239885" stroke="black" fill="none" stroke-width="1" filter="url(#fuzzy)" clip-path="url(#rightEyeClipPath)"></circle><!--]--></g><g transform="translate(-39.423674808999706 -18.368776597747882)"><polyline id="leftUpper" points="24.202508648423834,1.8493983089199002,24.451073355444255,1.394528836519707,24.67066061560542,0.939702412526672,24.860791889580323,0.48591390171737325,25.021053329924044,0.03411091015525791,25.15109414415824,-0.41480532955270966,25.250624957855653,-0.8599790729994103,25.319416177724605,-1.3005991787209203,25.357296354693524,-1.7358982229398667,25.364150546995475,-2.165151614308786,25.339918683252648,-2.5876767086534773,25.28459392556085,-3.0028319237163625,25.198221032574065,-3.4100158538998375,25.080894722588926,-3.808666385009621,24.932758036629256,-4.198259808998127,24.75400070153056,-4.5783099387078074,24.544857493024537,-4.948367222614509,24.305606598823594,-5.308017859570836,24.036567981705375,-5.6568829135495,23.73810174259723,-5.994617428386669,23.410606483660786,-6.320909542525342,23.05451767137639,-6.635479603758682,22.6703059996277,-6.9380792839733925,22.25847575278612,-7.228490693893055,21.819563168795348,-7.506525497821497,21.354134802255906,-7.772024028386143,20.926908963762102,-8.132330382486625,20.457738543666693,-8.474347556212745,19.947002506927237,-8.797368421845373,19.39530461008613,-9.10080478030238,18.803456578657656,-9.38418118194971,18.17246177595382,-9.647128896402535,17.50349935726136,-9.889380029593145,16.797908903282,-10.110761786382358,16.057175526748395,-10.311190876991066,15.28291544612787,-10.490668065528624,14.476862020326216,-10.649272858894836,13.640852238303868,-10.787158334332176,12.776813657516666,-10.904546103904973,11.886751785093427,-11.00172141418221,10.97273789566259,-11.07902837940074,10.036897279740215,-11.136865346385466,9.081397916591529,-11.175680389503324,8.10843956547835,-11.195966933927675,7.120243269204501,-11.198259505489833,6.119041263871631,-11.183129605394448,5.107067288757536,-11.151181708075384,4.0865472902293405,-11.103049380468853,3.0596905136037167,-11.03939152098047,2.0286809768664336,-10.96088871642289,0.9956693201634756,-10.868239715200843,-0.037234975024071026,-10.762158015020102,-1.0679710031090237,-10.643368563397207,-2.094533494118833,-10.512604569246587,-3.114979521995759,-10.370604423821806,-4.127434867564221,-10.218108729287579,-5.1301000422531375,-10.055857433199328,-6.121255978660923,-9.884587067166894,-7.0992693940509835,-9.705028087979187,-8.062597832865373,-9.517902319466401,-9.009794394344448,-9.32392049337653,-9.939512151340205,-9.123779887542852,-10.85050826641109,-8.918162059619128,-11.741647811286015,-8.70773067465916,-12.611907295785347,-8.493129424817429,-13.460377912286624,-8.27498003944751,-14.2862685018227,-8.053880383874969,-15.088908247900166,-7.830402645121405,-15.867749104125695,-7.60509160285639,-16.62236796172813,-7.378462983853951,-17.35246856306408,-7.151001898230311,-18.057883167194667,-6.923161355739606,-18.738573973621357,-6.695360860404237,-19.394634310268426,-6.467985081756589,-20.026289591799944,-6.241382600968783,-20.63389805435906,-6.015864730147201,-21.218554798728427,-5.790948642137361,-21.7809565129566,-5.566094806814381,-22.32099190041975,-5.3414915033957495,-22.83858653031659,-5.117314723665895,-23.333702022344422,-4.893728402775682,-23.806335231375243,-4.670884650041902,-24.25651743213183,-4.448923979746769,-24.684313503863834,-4.227975541937404,-25.08982111502384,-4.008157353225345,-25.473169907943518,-3.7895765275860245,-25.834520683509595,-3.572329507158271,-26.174064585840092,-3.3565022930438024,-26.492022286960285,-3.142170676106714,-26.788643171478856,-2.929400467772979,-27.06420452126396,-2.718247730829934,-27.31901070011932,-2.5087590102257797,-27.553392338460323,-2.3009715638690693,-27.767705517990077,-2.094913593428205,-27.96233095637552,-1.8906044751309299,-28.137673191923522,-1.6880549905638167,-28.294159768256943,-1.4872675574717718,-28.432240418990727,-1.2882364605575192,-28.552386252407995,-1.0909480822810993,-28.655088936136156,-0.8953811336593576" fill="none" stroke="black" stroke-width="2.2222222222222223" stroke-linejoin="round" filter="url(#fuzzy)"></polyline><polyline id="leftLower" points="26.297717411483436,-2.340490368541966,26.20445478902639,-1.938284375481134,26.079655273742194,-1.52591204111562,25.924761424576626,-1.105168643058763,25.741163960195582,-0.6777701395760599,25.530202715110406,-0.24535463714989392,25.293167595803233,0.19051614195573574,25.031299536852273,0.6283553921304814,24.745791457057173,1.0667497568529165,24.437789215564322,1.5043578611258113,24.108392567992222,1.9399088439113914,23.758656122556737,2.37220089056662,23.389590296196488,2.800099765278463,23.002162270698165,3.222537343499149,22.597296948821832,3.6385101443814563,22.175877910426287,4.047077863213969,21.73874836859435,4.447361903856351,21.28671212575822,4.838543911174624,20.82053452982479,5.219864303476421,20.34094343030098,5.590620804946268,19.84863013441906,5.950166978080852,19.34425036326198,6.297910756124284,18.828425207888692,6.6333129755033795,18.301742085459477,6.95588590826292,17.76475569536128,7.26519179450093,17.217988975333043,7.5608413748039345,16.583241039358708,7.987692726111839,15.93803885432003,8.39213452953777,15.282829303174204,8.77311586631475,14.618016011566908,9.12976400992127,13.94396672106052,9.461374594171474,13.261020171965978,9.767402040839436,12.56949250784109,10.04745024341851,11.869683213718051,10.30126350361655,11.161880600123043,10.528717717188066,10.446366844950731,10.729811805704056,9.72342260525641,10.90465939086058,8.993331211028721,11.053480707926873,8.256382453005655,11.176594754933962,7.512875976596719,11.274411674204725,6.7631242939740375,11.347425362826183,6.007455426395282,11.396206308665121,5.246215188821141,11.421394648527752,4.479769128890233,11.423693445064497,3.7085041323142214,11.403862179020706,2.93282970675601,11.362710453434225,2.15317895625374,11.301091906380776,1.3700092582535142,11.219898328868013,0.5838026553135869,11.120053984479188,-0.20493402645713754,11.002510127367334,-0.9956693201634765,10.868239715200843,-1.787847510028409,10.718232313661453,-2.580889260374749,10.55348918909537,-3.3741924696212595,10.375018585918674,-4.167133337230368,10.183831185377699,-4.9590676315446744,9.980935742265423,-5.7493321464494604,9.767334896194765,-6.537246334798326,9.544021154029672,-7.3221141065392095,9.311973040074903,-8.103225779477906,9.072151410625462,-8.879860170616318,8.82549592947655,-9.651286816002617,8.57292170099496,-10.416768307030438,8.315316057352845,-11.175562731124394,8.053535496524741,-11.926926204749012,7.788402767648768,-12.670115486678307,7.520704100352915,-13.404390659463159,7.251186574647353,-14.129017867033728,6.980555627983599,-14.843272096374006,6.709472696081598,-15.546439991205759,6.438552984125422,-16.237822685619044,6.168363364928713,-16.916738645586406,5.899420400670619,-17.582526506298052,5.6321884848032235,-18.234547893255098,5.3670781007313435,-18.872190215058065,5.104444193865608,-19.494869415827964,4.844584653649755,-20.1043910045475,4.587008363275705,-20.7026527939524,4.331207264801798,-21.289244431217174,4.077396565323609,-21.863773148873832,3.825773674232413,-22.425865380367554,3.5765186584503246,-22.9751683756125,3.3297946976654407,-23.511351816547524,3.085748539566983,-24.034109432691945,2.844510955080442,-24.543160616701257,2.606197193602725,-25.038252039922924,2.370907438237296,-25.519159267952094,2.138727261029321,-25.985688376187372,1.9097280782008093,-26.437677565386526,1.6839676053857588,-26.8749987772223,1.4614903128652985,-27.297559309838093,1.242327880802835,-27.70530343340376,1.0264996544791956,-28.09821400567133,0.8140130995277652,-28.476314087530763,0.6048642571696423,-28.839668558565698,0.3990381994487715,-29.188385732609202,0.19650948446708916,-29.522618973299526,-0.0027573883803237997,-29.842568309635816,-0.19880752317011163,-30.148482051533918,-0.39169517221548844,-30.440658405382077,-0.5814832808311023" fill="none" stroke="black" stroke-width="2.2222222222222223" stroke-linejoin="round" filter="url(#fuzzy)"></polyline><!--[--><circle r="3.935830529431014" cx="14.177248672429254" cy="2.2100817091322886" stroke="black" fill="none" stroke-width="1" filter="url(#fuzzy)" clip-path="url(#leftEyeClipPath)"></circle><circle r="4.537064904548064" cx="17.530010092460238" cy="2.684765357773202" stroke="black" fill="none" stroke-width="1" filter="url(#fuzzy)" clip-path="url(#leftEyeClipPath)"></circle><circle r="4.784569837728915" cx="17.755504083143265" cy="1.2921332980049733" stroke="black" fill="none" stroke-width="1" filter="url(#fuzzy)" clip-path="url(#leftEyeClipPath)"></circle><circle r="4.679667754859809" cx="15.62986125337704" cy="-0.5287375589286256" stroke="black" fill="none" stroke-width="1" filter="url(#fuzzy)" clip-path="url(#leftEyeClipPath)"></circle><circle r="4.506378003038456" cx="13.63108600974552" cy="0.3894671754047576" stroke="black" fill="none" stroke-width="1" filter="url(#fuzzy)" clip-path="url(#leftEyeClipPath)"></circle><circle r="4.503706307474191" cx="17.187430918314696" cy="1.795843555683578" stroke="black" fill="none" stroke-width="1" filter="url(#fuzzy)" clip-path="url(#leftEyeClipPath)"></circle><circle r="3.3553632590198426" cx="15.191160920102053" cy="1.7622089267026917" stroke="black" fill="none" stroke-width="1" filter="url(#fuzzy)" clip-path="url(#leftEyeClipPath)"></circle><circle r="3.7858241164517996" cx="17.031307760469307" cy="3.5429140466138875" stroke="black" fill="none" stroke-width="1" filter="url(#fuzzy)" clip-path="url(#leftEyeClipPath)"></circle><circle r="3.4018760106354398" cx="14.34037023092661" cy="3.620965958362537" stroke="black" fill="none" stroke-width="1" filter="url(#fuzzy)" clip-path="url(#leftEyeClipPath)"></circle><circle r="3.605184223692236" cx="14.71192006539636" cy="0.46326611201253964" stroke="black" fill="none" stroke-width="1" filter="url(#fuzzy)" clip-path="url(#leftEyeClipPath)"></circle><!--]--></g><g id="hairs"><!--[--><polyline points="-25,-71,2.7743752928932173,-70.61700582400061,15.512725936943827,-68.55535526903427,23.642652090731335,-65.64521993436594,27.717412752022767,-62.83895478506852,28.017913490788487,-60.10163281674704,25.512042068906283,-57.44646812402899,22.116656359933714,-55.091287911450145,20.07142821957878,-53.218064211672186,20.313002428928097,-51.995278571352756,21.389854431152344,-51.68579959869385,20.240497361894484,-52.50910228563058,14.492075895578337,-54.38731694142274,4.599222455345135,-56.9575965581518,-5.868896786707218,-59.9036929996931,-12.36804951166414,-63.165702847371904,-12.93056921661613,-66.6187618167296,-10.588383367561063,-69.53734177433365,-11.318502742636465,-70.86597242855476,-15.332201125731277,-70.99691703552881,-4,-75" fill="none" stroke="rgb(128, 128, 128)" stroke-width="2" stroke-linejoin="round" filter="url(#fuzzy)"></polyline><polyline points="62,-32,42.700827535847175,-46.80842828578209,27.725229244269073,-56.9291091900683,18.863708507957856,-62.15839851430933,10.214886634315993,-64.3753229560218,0.44687929953215644,-64.5714074922007,-8.740796892493702,-63.75681806822056,-14.868192903537025,-62.95736669985596,-16.14780803204055,-62.5887186252004,-12.222509882628499,-62.262242215800434,-4.219291687011719,-61.30330753326416,5.694992194368513,-59.47315409463422,15.064648705982991,-57.24252405823503,22.053887034776164,-55.42108925380198,26.161839848601407,-54.53913973460575,28.097376820398495,-54.624590954656924,28.40896388332349,-55.705896758182796,25.73794964982962,-58.575298367407214,17.269758214337926,-64.3623740225772,2.8925794350150333,-71.47780255269181,-17,-74" fill="none" stroke="rgb(128, 128, 128)" stroke-width="2" stroke-linejoin="round" filter="url(#fuzzy)"></polyline><polyline points="-43,-59,-37.20536969136706,-54.78364791250781,-14.472544366166625,-53.12874161594892,2.499432331866799,-52.67673108658012,7.5685024513621535,-53.369401757235515,5.2271160427887295,-54.604269021185196,1.897919325783247,-56.27072655181242,0.8618745283299223,-58.51347142584634,1.6861286684626149,-61.30325121835416,2.5133935581867184,-64.31361570120161,2.4324253082910565,-67.02619276307641,2.0816533986772576,-68.92126112334753,2.532015762171924,-69.6791787479142,3.810458707063504,-69.33697797675397,4.49878720992936,-68.31292017386767,2.9497170355207754,-67.19409153988786,-0.5574732535105821,-66.26780963939821,-2.3776535955979554,-65.02103275035095,3.2866932264425914,-62.13662017790496,19.358274210822174,-56.70352761385876,37.662590715280054,-51.8945684068746,31,-66" fill="none" stroke="rgb(128, 128, 128)" stroke-width="2" stroke-linejoin="round" filter="url(#fuzzy)"></polyline><polyline points="1,-75,29.19617361956118,-58.69801472249781,23.783069859972294,-60.27686781684344,9.186010193926569,-63.071709129471,-0.7568304028050584,-63.63279937859343,-1.4918652840447848,-62.70916939629218,3.990576016196992,-61.52563241122058,9.938489632036164,-60.92722263865339,12.532777236795443,-61.232188173281266,11.708299391881894,-62.09950287073716,9.998642269505648,-62.67706710545012,10.241247455929589,-62.17143276795218,13.771397024090476,-60.446630989522575,19.185423801471615,-58.185420337423814,21.241082015075154,-56.651852798136794,11.696905913371994,-57.44972204101265,-12.561074197940634,-62.08775444182292,-27,-70" fill="none" stroke="rgb(128, 128, 128)" stroke-width="2" stroke-linejoin="round" filter="url(#fuzzy)"></polyline><polyline points="12,-74,-13.854189297830127,-68.02242570204217,-12.148117026121785,-62.2556984029305,5.292868641945703,-57.06912179778488,23.559874861032334,-53.07503694920825,35.523972923304015,-51.11343552719905,40.738030868491144,-50.77616696369309,41.1458373514501,-51.06319202425659,38.28415686467573,-51.37243651286108,32.989367256096884,-51.68183954695138,26.3904408162966,-52.17753688417068,20.480098893728737,-52.91910545176781,17.36597944796118,-53.7409465719017,17.4428613398046,-54.334723083303054,17.306338510298406,-54.61108152759195,8.681811911260041,-55.33872317580072,-17.181991628605182,-57.55128733755675,-47,-56" fill="none" stroke="rgb(128, 128, 128)" stroke-width="2" stroke-linejoin="round" filter="url(#fuzzy)"></polyline><polyline points="-45,-57,-11.537405777107653,-68.0350786436737,-2.8773578068151235,-71.23782707559475,1.35342599887492,-70.2216405134252,6.56908811529449,-67.95808334751423,10.90945283961314,-66.61574741288288,12.160505821487632,-66.83291141641337,10.085398313768026,-68.05330074166383,5.819781586649243,-69.40582418037125,0.8276616505602826,-70.3509529880358,-3.561361327625132,-70.81760140312588,-6.208857760924179,-70.97974493837653,-6.233196020126343,-70.95480358600616,-3.2109801701443823,-70.63012124226645,2.6241235780768553,-69.68200018304499,10.339087034610385,-67.7432577385399,18.422335356107567,-64.631983048887,24.975956675608206,-60.55569008225353,27.990744477761737,-56.2171366921042,25.99057689696487,-52.747306026350564,19.492764483776504,-51.3415073349704,13.189753337873295,-52.31603223347982,16.71171775499848,-53.20013026524066,38.22205458967975,-46.62396060587061,66,-24" fill="none" stroke="rgb(128, 128, 128)" stroke-width="2" stroke-linejoin="round" filter="url(#fuzzy)"></polyline><polyline points="-25,-71,-37.686410386471366,-61.17815679834283,-33.83360986055272,-62.11588957303934,-25.125315427631627,-63.125335855080976,-16.10746742946496,-62.48082465704248,-8.661176613015469,-61.17806983488885,-3.5207569529193243,-60.28340702747627,-1.02743853183531,-60.30153455235292,-1.0561476612240492,-61.19812876726435,-2.8096049536658527,-62.52940241121773,-5.070767861965918,-63.64803281927281,-6.716091853731415,-63.990877351079696,-7.052830636501312,-63.329750537872314,-5.910917999383914,-61.84830211113686,-3.686027351447619,-60.01934960576749,-1.3504920519193433,-58.38435108589592,-0.1721041379121847,-57.37618271361341,-0.9838220388985282,-57.25588079226374,-3.299093956787029,-58.11545837629214,-4.898986132726,-59.83561860959357,-2.4881655491060273,-61.95049587739201,6.140315556454273,-63.555582085253086,18.46075877785011,-63.73182520024845,23.79722344863353,-63.83086117145007,1,-75" fill="none" stroke="rgb(128, 128, 128)" stroke-width="2" stroke-linejoin="round" filter="url(#fuzzy)"></polyline><polyline points="57,-41,32.57519789750759,-43.0898866807036,7.135934614185639,-51.3169250988283,-0.36523779758778446,-56.91494515779314,0.678607402692294,-59.12591964678106,2.038930351078847,-60.082184894334624,1.8177788604400213,-60.99075626618948,1.0853651740692591,-61.73867251602792,0.7315830852808056,-61.96866852822121,0.8331131090778244,-61.72961869629511,1.3639754656356935,-61.32679021904827,2.759385227836708,-60.93633233259452,5.837219808379681,-60.485148159817456,11.29682575609489,-59.79650443205516,19.15283940885872,-58.7194757338444,28.448478971989747,-57.09208122021915,37.571217911483366,-54.664014379468256,45.132693249344214,-51.185686449305855,50.642704373613434,-46.744842639398115,53.91715048346135,-42.46043488891219,52.88222160186891,-42.36423893229635,39,-60" fill="none" stroke="rgb(128, 128, 128)" stroke-width="2" stroke-linejoin="round" filter="url(#fuzzy)"></polyline><polyline points="57,-41,41.71979533012864,-52.620629436710125,43.05003319292959,-49.370570850380396,38.969360296882456,-47.258521658239935,26.835359753441814,-49.30579954494778,11.367258313158517,-53.433231600719,-2.03191270730323,-57.013364428596546,-10.165609690175547,-58.81401500621661,-12.626157451967446,-59.004777970826815,-11.044530027308927,-58.42585064476626,-7.765039920303348,-57.90330145786683,-4.732136487960815,-57.863932847976685,-3.000259011647737,-58.25906287325042,-2.674225308794347,-58.73932950458064,-2.9627417382772987,-58.97700167000353,-2.490788348131057,-58.98595955879565,-0.2534011140836463,-59.26270512688154,3.159686305366944,-60.57122254609768,5.577928948865613,-63.29843119441964,5.570299620409751,-66.68168504916662,5.207053781460237,-68.74975749028701,10.345887424190137,-67.43187731300178,39,-60" fill="none" stroke="rgb(128, 128, 128)" stroke-width="2" stroke-linejoin="round" filter="url(#fuzzy)"></polyline><polyline points="-10,-75,-25.056937995480293,-68.4437798472594,-26.47025384709268,-66.01346453064244,-22.48529773734709,-65.82142104094605,-17.930444078816645,-66.77617900011148,-14.917758372752845,-67.61447891184109,-13.395398208244355,-67.83130272790999,-12.744257232327305,-67.5462918821436,-12.50099965728451,-67.02077985652689,-12.295793487003005,-66.45831720564736,-11.79274297042014,-66.05776944728034,-10.845029532665865,-66.04162562928411,-9.56887000799179,-66.53502625226974,-8.165358811275885,-67.39850747457572,-6.704091121115622,-68.19505967712061,-5.180303460985016,-68.37994027027813,-3.862767468201375,-67.63891499825529,-3.5871097115175647,-66.16751438434314,-5.5781247045541384,-64.64253286778265,-10.707662575016563,-63.75383026434857,-18.62731091304466,-63.51821142545095,-27.526561771736898,-63.08728099719704,-34.92343767495342,-61.701896378049696,-39.86917697198099,-59.344235946670295,-52,-50" fill="none" stroke="rgb(128, 128, 128)" stroke-width="2" stroke-linejoin="round" filter="url(#fuzzy)"></polyline><polyline points="8,-74,-20.142071679275006,-64.329702777239,-17.559736907743794,-65.71304845302552,-10.823305409769512,-66.78906265561797,-4.526496700131688,-65.54249809487995,2.7089265113503096,-62.971736420560724,10.333891736944258,-60.49649131747398,16.27311695451112,-59.043186691119786,19.678047075513522,-58.758747405357,21.849853515625,-59.047298431396484,24.741966670535156,-59.04863857163511,28.818393306591044,-58.42993915996438,32.31408535029752,-57.88413087775541,32.619168158079326,-58.70052110761936,28.834744008077966,-61.419396788984294,23.64139338497195,-64.56414319716615,22.5964050687235,-65.18251517708443,28.62012361133131,-62.92303375541617,26,-69" fill="none" stroke="rgb(128, 128, 128)" stroke-width="2" stroke-linejoin="round" filter="url(#fuzzy)"></polyline><polyline points="65,-27,53.61002351763356,-37.66451723478014,41.49345507710959,-47.79016607455035,31.917965004571137,-50.8847442528163,21.95534384889107,-51.54576708756349,11.833382893011471,-53.010365492390015,3.1702721633308504,-55.70267275090281,-2.691519737490834,-58.71106447427296,-5.224380585840933,-61.07995016424537,-4.91542003774518,-62.36606380009408,-3.198232056043091,-62.666450757997175,-1.9272506864152248,-62.37801059290881,-2.5203226349812997,-61.88392132332823,-5.156945989760391,-61.344709754671364,-8.432846330820016,-60.74288622097116,-9.845200149649454,-60.17515951962724,-7.39845716374385,-60.10412067319584,-1.9608958737203572,-61.10754858096997,1.5154796092048817,-63.01412959004019,-2.9658943388175856,-64.45410526020436,-12.991160981826381,-65.34486549425549,1,-75" fill="none" stroke="rgb(128, 128, 128)" stroke-width="2" stroke-linejoin="round" filter="url(#fuzzy)"></polyline><polyline points="-34,-66,-16.068832390764836,-54.062447847865656,11.81580850703955,-51.14939378337443,25.681943682315875,-54.4642166356552,28.265630866020132,-59.308418905122416,25.117523325031488,-63.6094447395474,20.577108314552124,-66.76569350323624,17.536467350298537,-68.51888362597968,17.30700121960208,-68.69878580089699,19.64786788330526,-67.39314137900605,23.19562545408493,-65.09442612884203,26.149205689064132,-62.60237496558995,26.94802868563874,-60.69560118255897,24.753552131202113,-59.79137239313397,19.65531111980369,-59.86064448152842,12.582682689825338,-60.65199274526908,4.852767169684918,-61.935551954184945,-2.6562113901663964,-63.36676511260405,-9.876805808642008,-63.98017405836394,-14.864686729225571,-62.09050832461795,-5.38703238570659,-56.62926000537348,51,-49" fill="none" stroke="rgb(128, 128, 128)" stroke-width="2" stroke-linejoin="round" filter="url(#fuzzy)"></polyline><polyline points="-33,-67,-0.8579913950644056,-64.705163842843,18.34944704238585,-55.1969948622285,23.24725283976152,-48.841525247842284,21.867396714401522,-47.29247217068248,17.925531185121706,-49.17124338986327,12.905165694973372,-52.51529540294775,9.1307465736201,-55.57405586454808,9.176454426455503,-57.185982456317795,13.935658562464745,-57.01234631473144,21.910971617685107,-55.55883869881107,30.141978837536623,-53.89577833631286,35.75063325075839,-53.13226778760153,37.02891252638658,-53.88308155411918,33.71371662886248,-56.00714343473399,26.78936652217052,-58.7109616985093,18.3370651710418,-60.84543279489603,11.535276033613613,-61.15452452406954,10.220300204162212,-58.49005048886676,17.067109420158435,-52.362078093307545,30.104040278622325,-44.134907485038916,39.0677470767606,-38.312795200977654,24.772488407289302,-42.15129738137871,-39,-63" fill="none" stroke="rgb(128, 128, 128)" stroke-width="2" stroke-linejoin="round" filter="url(#fuzzy)"></polyline><polyline points="66,-24,45.76461629181,-43.77811290741658,26.867710516153306,-50.726164409313675,11.956498980601012,-55.216590037207496,8.15387313207156,-56.868213127734315,13.020003702353087,-56.1501119873314,19.560969294291347,-54.90778674635787,22.26874931673997,-54.713492178346684,19.54578936755922,-55.84902134420403,13.042146208968385,-57.491997849946216,5.699616191429977,-58.62218596798326,-0.0107892732657481,-58.84545591138429,-2.9223536252975464,-58.583437740802765,-3.062335831674552,-58.61026909583238,-1.059158915261987,-59.3671070812367,2.372245693038612,-60.58263680058548,6.561927612548682,-61.45711683236675,10.67869738942375,-61.25704642363506,13.38031896200608,-59.90618432618071,12.533719316070691,-58.170716463956275,5.551420626486957,-57.240686554112315,-8.58860857267576,-57.839786777671634,-25.738798690917474,-59.52427690439157,-36.904446934443115,-60.915293843285454,-45,-57" fill="none" stroke="rgb(128, 128, 128)" stroke-width="2" stroke-linejoin="round" filter="url(#fuzzy)"></polyline><polyline points="-50,-53,-6.678111738296919,-64.41374514271777,5.653122006209065,-68.85858718895471,11.025264463016573,-69.79671429938854,14.784495622940046,-69.68101823080383,17.846815647937046,-69.28763459405816,20.650830968146845,-68.58174168136773,23.20276037716245,-67.54548868126608,24.900240842487502,-66.37608853148815,24.85378558078144,-65.31843943916121,22.404275341814305,-64.4922609924408,17.53792569434859,-63.85733059195029,11.064725577831268,-63.28261595964432,4.498478848161451,-62.633747894787476,-0.3645010785083116,-61.83056832768729,-2.052984088517361,-60.8877015307486,0.013283177775038273,-59.96615258186481,5.230671616470755,-59.39502510591298,11.936818068310725,-59.53506291010798,18.052879805671072,-60.41249594530746,22.262725114275014,-61.3432167974835,25.08108710380804,-61.117354108685795,27.408941330738564,-59.39052218240638,22.78668542407927,-59.708435183564475,-15,-74" fill="none" stroke="rgb(128, 128, 128)" stroke-width="2" stroke-linejoin="round" filter="url(#fuzzy)"></polyline><polyline points="57,-41,38.55242400542936,-54.92456105003363,29.343306888289344,-56.25239107308048,16.173532048424978,-56.61401564420512,5.666578898630563,-57.73781425649604,1.3918646904603977,-59.63034048516731,0.7692972387532798,-62.1288528488366,0.38665331352452664,-64.77856226448857,-0.46179368116602265,-66.91717070929427,-0.6510963616972798,-68.19330772808499,0.2533577644624769,-68.92659496643195,1.0903955947016315,-69.8439681087236,0.29094892027903907,-71.39746784978534,-2.592623687843038,-73.33871440698508,-5.607459457936857,-74.98168067966819,-3,-76" fill="none" stroke="rgb(128, 128, 128)" stroke-width="2" stroke-linejoin="round" filter="url(#fuzzy)"></polyline><polyline points="45,-55,55.83257432571938,-39.52235966759974,56.69457641282919,-37.02201303680206,49.48286514720048,-40.65138695838121,35.44570184782319,-46.690376368683445,18.86919076455797,-52.6280909694151,5.276587705469527,-57.490723717948974,-1.7467665511246846,-61.19941684975822,-2.053780135635069,-63.80439303851989,1.7958471162362408,-65.29100942619338,6.351923942565918,-65.81460285186768,8.940525221423364,-65.87523798022113,8.630101810778465,-66.14021181089161,6.38009840247753,-67.01913935063575,4.250100306236231,-68.35700129899978,3.70179675084637,-69.54466802946718,3.9125051728980758,-69.96695631162838,2.264239360274143,-69.26485180535009,-0.7447862633064313,-66.76236958244716,7.317896058041098,-59.77918179134584,57,-41" fill="none" stroke="rgb(128, 128, 128)" stroke-width="2" stroke-linejoin="round" filter="url(#fuzzy)"></polyline><polyline points="6,-75,-5.298942051869295,-61.330913018057586,12.665970901813669,-56.20875752077082,29.490645485023173,-51.96896643913329,39.89766078670296,-48.11840823026858,43.38117643604777,-46.15442155220979,41.459580648545504,-46.47315198532387,36.805778455204056,-48.130526461543745,31.705221029941434,-49.80364214268462,26.89702766614489,-50.68359896674793,21.685430428243503,-50.76358406618019,15.008369573883964,-50.60316672076938,6.532903492450714,-50.91807579994202,-2.893442303680194,-52.260439883651756,-11.533456273809797,-54.84889325259132,-17.529790216466182,-58.50473085973937,-19.791322750133244,-62.67690610446426,-18.607863511456262,-66.5750301945701,-15.618598705620354,-69.38796075249287,-13.00322393405908,-70.48867868674542,-12.36417909268876,-69.51494696766738,-14.491576269810407,-66.29873761663167,-21.168432189171753,-60.764672279162504,-36.8280678972099,-53.3248553308691,-54,-48" fill="none" stroke="rgb(128, 128, 128)" stroke-width="2" stroke-linejoin="round" filter="url(#fuzzy)"></polyline><polyline points="-52,-50,-27.96200775710187,-63.36657031803876,-4.794221011613014,-64.91162320307137,15.970601681050217,-59.550545973283555,30.683749679494852,-53.45744842850175,37.594200073054836,-50.247631361091884,37.281243319559266,-50.49954739357052,31.33537482126263,-53.07776479776023,21.568103253760803,-56.45732513833837,10.08703991289931,-59.44849594228939,-0.552528112561825,-61.41168934259294,-7.746537731163804,-62.19214052384403,-9.707003951072693,-61.9474875330925,-6.219699619849336,-60.97641255862455,1.2438585419348946,-59.593755262362734,10.164234597348397,-58.0503803769146,17.9677541009362,-56.51316817148745,22.79862391585865,-55.16088395668346,23.836998890702695,-54.35959902767523,21.535090289142644,-54.6300881736361,18.10479407726079,-56.09517131212355,17.043246301953094,-57.85426517340948,18.506372188876483,-58.893521630055766,9.977231502951716,-61.02108859462767,-34,-66" fill="none" stroke="rgb(128, 128, 128)" stroke-width="2" stroke-linejoin="round" filter="url(#fuzzy)"></polyline><!--]--></g><g id="pointNose"><g id="rightNose"><!--[--><circle r="1.1701333943930061" cx="11.34861788369434" cy="16.053069481425545" stroke="black" fill="none" stroke-width="1" filter="url(#fuzzy)"></circle><circle r="1.2128875954662846" cx="10.639769479826809" cy="13.663277127624333" stroke="black" fill="none" stroke-width="1" filter="url(#fuzzy)"></circle><circle r="1.4665439327658722" cx="10.966370243784286" cy="16.77500005716679" stroke="black" fill="none" stroke-width="1" filter="url(#fuzzy)"></circle><circle r="2.8122479692527844" cx="10.844588553873061" cy="13.801241131945181" stroke="black" fill="none" stroke-width="1" filter="url(#fuzzy)"></circle><circle r="2.0339152239084077" cx="10.79909089349275" cy="17.062148282696462" stroke="black" fill="none" stroke-width="1" filter="url(#fuzzy)"></circle><circle r="2.108448289509762" cx="11.125840926701683" cy="14.693129352111875" stroke="black" fill="none" stroke-width="1" filter="url(#fuzzy)"></circle><circle r="2.625802248451322" cx="9.888893165327376" cy="16.70719131006568" stroke="black" fill="none" stroke-width="1" filter="url(#fuzzy)"></circle><circle r="1.158368642867849" cx="11.23584917199905" cy="14.804552942137924" stroke="black" fill="none" stroke-width="1" filter="url(#fuzzy)"></circle><circle r="1.2521824646550654" cx="12.520397156531637" cy="16.222751705911126" stroke="black" fill="none" stroke-width="1" filter="url(#fuzzy)"></circle><circle r="2.360859426353525" cx="13.091351326176113" cy="17.01533398151214" stroke="black" fill="none" stroke-width="1" filter="url(#fuzzy)"></circle><!--]--></g><g id="leftNose"><!--[--><circle r="2.10085940631696" cx="-8.379057598257038" cy="16.870111121250694" stroke="black" fill="none" stroke-width="1" filter="url(#fuzzy)"></circle><circle r="1.5334984935480485" cx="-7.9472100603907485" cy="18.60535162667809" stroke="black" fill="none" stroke-width="1" filter="url(#fuzzy)"></circle><circle r="1.8566225574224626" cx="-8.645240793681456" cy="16.803463042245554" stroke="black" fill="none" stroke-width="1" filter="url(#fuzzy)"></circle><circle r="2.887134802618937" cx="-10.266476524907164" cy="17.522495482104663" stroke="black" fill="none" stroke-width="1" filter="url(#fuzzy)"></circle><circle r="2.7323947820571997" cx="-8.37254413632322" cy="17.715774328953007" stroke="black" fill="none" stroke-width="1" filter="url(#fuzzy)"></circle><circle r="2.945446535770116" cx="-9.115367677305782" cy="15.73921109042135" stroke="black" fill="none" stroke-width="1" filter="url(#fuzzy)"></circle><circle r="1.410444577177345" cx="-8.107184867699916" cy="18.954873108470643" stroke="black" fill="none" stroke-width="1" filter="url(#fuzzy)"></circle><circle r="1.4289223953775456" cx="-7.431025274433217" cy="18.663242838568223" stroke="black" fill="none" stroke-width="1" filter="url(#fuzzy)"></circle><circle r="2.385206418033868" cx="-8.575926961698134" cy="15.601411195098272" stroke="black" fill="none" stroke-width="1" filter="url(#fuzzy)"></circle><circle r="1.787982399025085" cx="-9.973830698668522" cy="16.175185115010517" stroke="black" fill="none" stroke-width="1" filter="url(#fuzzy)"></circle><!--]--></g></g><g id="mouth"><polyline points="36.657429321133804,57.5126672069607,36.56037903206004,58.142634475303055,36.51971948402884,58.42726217705867,36.49748076011478,59.39001916004539,35.95852063481787,60.483727614254434,36.25540886529183,59.697661245454995,35.717607419190756,60.835236829421284,35.23835950392143,61.43162524052534,35.049774251784065,61.418254597855224,34.58130677673179,62.307743579568466,33.76272365730909,62.797502122038935,34.37126197072854,62.47847453246591,34.06228217382231,62.796798656778506,33.929217827332906,62.85356358167611,32.06377030590906,64.1045361104142,32.482389666008444,63.85067351018609,32.28813605227645,64.07857556201324,30.472979273919695,65.07315674762192,30.479559635029684,65.16205944584148,30.22388280115005,65.30141413913978,28.765723485048937,65.90508102646217,28.526929874022432,66.06394386401655,27.856634067063393,66.19936165901733,26.296982768135337,66.74756043343112,26.184130431689415,66.87065756086066,25.587959503808793,67.02664206979954,25.35108984154763,67.07901743303562,22.851138487869196,67.68072989162975,24.011067013796566,67.42131261840275,21.20338174911211,67.96801988547776,20.742540287356572,68.04714311392209,21.07238511550028,67.93981502359526,19.202821779354245,68.22837120407512,17.839437504698378,68.33924062298419,17.350214131967945,68.42808376408911,16.811374664142456,68.41770198065531,15.462681659930482,68.4936796210565,16.646341332587042,68.44148696511454,12.922083236102479,68.58396121817206,14.08983012806317,68.56197878348878,12.792451512923577,68.58585271739425,9.961667972010295,68.54879717739347,9.396832782391408,68.51552563455147,10.78759685075516,68.55302207455034,9.714673566762707,68.52286815912225,8.549426479961124,68.4653832285848,5.200205635387781,68.17869745191558,4.939202404954672,68.15289248271199,3.3094188686202264,67.95097921386204,2.4615854350737214,67.82954623278792,1.549407193572522,67.68900196653615,0.4221316989092987,67.4982347319104,-0.7848201764276679,67.27480088823968,-0.1889052250459642,67.38233789653835,-1.1162167259348266,67.19541475511609,-1.8990393074662943,67.04063305319036,-5.004779998561654,66.29949999267303,-3.3805180922165112,66.71346392486126,-3.5607955935521503,66.64987042889501,-5.734747612645458,66.1153219591456,-8.182896580193423,65.35356155771656,-8.448799006317811,65.3092668028692,-9.180089083105297,65.06764940938227,-8.506088374156072,65.26095013529147,-10.511904842688528,64.60207051704553,-10.4014023416704,64.60988191643386,-13.806656046823544,63.225733342748086,-14.61610240706548,62.910624559204564,-14.547314004273588,62.90793373186342,-15.274100256900098,62.55716272595643,-14.798609451768268,62.7687715495456,-16.011624513486485,62.22397603778604,-17.55156447915833,61.40164904133458,-17.12678362648616,61.68385632697334,-18.860724258774454,60.69491365995068,-19.562519320355122,60.25114231154922,-19.73963531057475,60.016467576367425,-20.739719237742104,59.29858787765045,-21.4110868633231,58.901372218853815,-22.71054508741818,57.75469039174423,-21.826273861596423,58.65288409468147,-22.7855694069632,57.81605488005292,-24.280743508625996,56.46337152335125,-24.541048622983247,56.05493264358435,-25.029359600435885,55.4860087950057,-24.228555975898885,56.36022242554009,-24.92266802448791,55.58287252851958,-25.728239271739305,54.734768357611244,-25.97326775648892,54.041396388559825,-26.578262055301956,53.321101832801276,-26.745585402442636,52.75604852820456,-26.87828818920862,52.2752954702997,-26.62296971187474,53.19023240787176,-27.03823844852487,52.2920765449092,-27.28295188626507,51.26118112309363,-27.379188250713376,51.06950597893891,-27.333295090243467,51.23350913911231,-27.532662278462862,49.93100205331529,-27.43446139337028,49.86010603551334,-27.66957379474835,49.49328208595724,-27.534229972341702,49.15907466005804,-27.32885545202237,48.2441905983113,-27.54713669156666,48.14439969609281,-27.119807036025946,47.09596001699458,-27.01133674038651,46.79713620390298,-26.972289259160977,47.02120046089422,-26.577167496373345,46.04036060423095,-26.495382273729952,45.81812417900942,-25.30810994354406,44.52156597787268,-25.63733887536267,44.68445065621611,-25.588837311531663,44.7160719998201,-25.549768263100134,44.5713806420048,-24.785578661069234,43.710188089375684,-24.915791736558187,43.893940656131804,-24.283389727199967,43.37432658176161,-23.484083426354868,42.71134412951048,-22.322547596693244,42.13459321013907,-22.161519151291312,42.00325943487765,-21.80642223811273,41.75960474916195,-19.698605311839163,40.823306016363595,-19.756031146165576,40.858214855586,-20.36464897251364,41.04674333539018,-19.272517329731688,40.619387226120544,-17.19447948002756,39.96896647237379,-17.35206939968125,39.897683991599216,-16.425959277584223,39.757971735628146,-14.547807589828395,39.23534652205305,-13.581891825153672,39.07541475927839,-12.77528313563641,38.909129456096025,-14.835355710013946,39.347368425513736,-13.466693350325734,38.97049268439122,-12.947031974466647,38.89895327687327,-10.194968998623438,38.53403110474963,-10.167772517706611,38.54692864660045,-9.696299296895031,38.46021942956435,-9.58050715600702,38.454505559766254,-7.540464245801415,38.30402794584465,-6.042914140553872,38.191961526379814,-3.9355880563164316,38.13448689622307,-3.8170635216428472,38.14892715294202,-4.914507240264864,38.142583213745155,-2.15622779870308,38.14446510461088,0.08178980208546882,38.24920766678692,-1.4468477037842886,38.19328657533354,1.1430010862436033,38.31754859163153,0.4059114760264251,38.2612847439289,3.8285599010412397,38.551186690041476,3.9740803168790593,38.566189812901094,5.072404029345657,38.69705044468398,6.361466397084133,38.87133258030709,8.290131079471035,39.17320562329615,9.163362864078401,39.33169461339226,8.53837420980891,39.21573722503109,11.323680234185572,39.757881277966376,10.960380359314511,39.68508800951842,10.064005718285063,39.498019077192865,11.582376157903898,39.81913424779165,15.1401449820593,40.68134973743932,13.505159265438987,40.27190526132125,14.781125355227267,40.59551829618051,16.31375587083066,41.02569796368732,18.471898627151596,41.68180739245023,19.54761516487042,42.087588214500016,21.120641642731545,42.629311897165636,21.131564949552207,42.69981278526333,22.029111243601697,43.00305128791378,20.98823826876337,42.60175203900119,23.48871555905946,43.69489872706707,22.414700007896617,43.17609574525443,25.768617289148896,44.68861934715423,24.853151421785068,44.2565202466411,26.009299236036213,44.840516867601295,27.283670045268693,45.58770936527519,27.809493563666614,45.801976818245876,28.151204298486338,46.0522169280359,28.008480303679633,45.98328982302432,29.757357589753635,47.179844549021496,29.884215867237153,47.21682962807845,31.528741395976134,48.393019518871704,30.56525928970261,47.64418136690218,31.25561346320389,48.19691794040182,32.258577093626,48.983464729952395,32.52000118107476,49.35297093989709,34.03395064674586,50.87852057155664,33.47662381909845,50.138188650478824,34.19209813762957,50.94405706323499,35.21443708131308,52.25750334669566,34.73625500772465,51.88216732006784,35.689393726112876,52.95498886768863,35.61646170158791,52.9188817135073,36.36670145788919,54.33547794751169,36.00220334401148,53.94129288972855,36.08584209775361,54.170358283389234,36.50308310201824,54.904653558330956,36.29798344780309,54.80930990739094,36.65497765573056,55.84186558512076,36.84296986722832,55.99851477920313,36.72535566694495,57.251419854779066,36.7972188524066,57.67112766485212,36.77095774792873,57.76810507289932" fill="rgb(215,127,140)" stroke="black" stroke-width="3" stroke-linejoin="round" filter="url(#fuzzy)"></polyline></g></svg>