<svg viewBox="-100 -100 200 200" xmlns="http://www.w3.org/2000/svg" width="400" height="400" id="face-svg"><defs><clipPath id="leftEyeClipPath"><polyline points="29.749197053366665,-5.273396224038908,29.57065231294579,-5.349171919480019,29.356439142322056,-5.424834081912617,29.1076562071061,-5.500166572891041,28.82540265828416,-5.574964312966405,28.510777458264688,-5.64903305579362,28.16487870692492,-5.722189162238426,27.78880296765745,-5.794259374484423,27.383644593416857,-5.865080590140095,26.950495052766275,-5.9344996363458415,26.490442255923984,-6.0023730438810095,26.00456988080998,-6.068566821270915,25.493956699092607,-6.132956228893882,24.959675902235116,-6.195425553088261,24.40279442754224,-6.2558678802594665,23.82437228420683,-6.314184870987001,23.202950584494474,-6.3962515948027425,22.550172150098625,-6.474839316479903,21.867344981345585,-6.549700898562296,21.155886018607017,-6.620610423920571,20.4173088144828,-6.687361466478103,19.65321167064279,-6.74976546888632,18.865266231966693,-6.807650224397378,18.05520653062155,-6.860858460182215,17.22481847271596,-6.909246519341913,16.375929760170557,-6.952683138860354,15.510400240443882,-6.991048320746137,14.630112676753187,-7.024232293611736,13.736963931429276,-7.052134561937841,12.832856555044893,-7.074663040270893,11.919690773955855,-7.091733269601747,10.999356868894335,-7.103267713173456,10.073727937253585,-7.109195128966135,9.144653031703447,-7.109450016106875,8.21395066777594,-7.103972132452689,7.283402693060303,-7.092706080594446,6.354748510646762,-7.075600959529767,5.4296796494584045,-7.052610079252863,4.509834674110447,-7.0236907355092715,3.596794426936237,-6.988804041963466,2.6920775948193074,-6.947914817027317,1.7971365934708317,-6.900991522597364,0.9133537617917789,-6.848006251948872,0.042037858959107055,-6.788934764034652,-0.815579143124685,-6.723756561436583,-1.658344979379292,-6.652455009217872,-2.4851897304523494,-6.5750174919239335,-3.2951281883438277,-6.49143560597994,-4.087261956109746,-6.401705384732962,-4.8607812890058995,-6.305827553386692,-5.614966684432268,-6.203807811076709,-6.349190228038797,-6.095657137334269,-7.062916703353132,-5.981392120186576,-7.755704472291148,-5.861035303141511,-8.427206133910804,-5.734615548304793,-9.077168968770016,-5.602168412877542,-9.70543517624931,-5.46373653628219,-10.311941912199853,-5.319370035164758,-10.896721134277506,-5.169126903521424,-11.459899262323692,-5.0130734151973755,-12.001696661153623,-4.851284526005909,-12.522426953112642,-4.683844272715754,-13.022496167761329,-4.510846166154577,-13.502401736050043,-4.332393575676659,-13.962731336343555,-4.148600102242689,-14.404161599656508,-3.95958993735967,-14.82741198773542,-3.764902770889502,-15.232787510489317,-3.563973698211806,-15.620424797540206,-3.3567816502882786,-15.990480764499992,-3.143310494479401,-16.343131627165874,-2.9235494031198535,-16.678571915715853,-2.6974932220939336,-16.99701348890423,-2.4651428394109773,-17.29868454825708,-2.2265055537807643,-17.58382865226768,-1.981595443188954,-17.85270373059209,-1.7304337334724886,-18.10558109824454,-1.473049166895017,-18.342744469792965,-1.2094783707223122,-18.564488973554457,-0.9397662257976842,-18.771120165790784,-0.6639662351174032,-21.417934694321385,2.0363332009166246,-21.156655642252332,2.311286535241922,-20.886600394614074,2.5861750445549125,-20.607610532383372,2.860451898998737,-20.31953084854595,3.133538499967278,-20.022209310762417,3.4048275803940182,-19.715497024034256,3.673686305040892,-19.399248193369754,3.939459370787141,-19.07332008644999,4.201472106918162,-18.737572996294734,4.459033575414377,-18.39187020392847,4.7114396712400595,-18.036077941046322,4.957976222632215,-17.670065352679995,5.197922091389421,-17.293704459863743,5.43055227316067,-16.90687012230037,5.6551409977342555,-16.508812193544827,5.873604503905252,-16.098588781135575,6.087231059272014,-15.675802177618003,6.29439708201458,-15.240073019076988,6.49354025513148,-14.791041627330383,6.683164609622821,-14.32836933821757,6.861845509241785,-13.85173981626166,7.0282345136657,-13.36086035598414,7.18106409693776,-12.85546317015082,7.319152198030748,-12.335306665227705,7.44140658038374,-11.800176704325633,7.546828977263138,-11.249887857912476,7.6345189997991,-10.684284642571548,7.703677784548571,-10.103242748085059,7.753611357436117,-9.50667025312141,7.783733690923739,-8.894508829804984,7.793569431260773,-8.266734937447307,7.782756272665145,-7.623361005718225,7.751046955287091,-6.964436607535987,7.698310863806592,-6.290049621954871,7.624535203515581,-5.600327387329209,7.52982573073624,-4.8954378450325,7.4144070144264465,-4.175590674010445,7.278622205823625,-3.441038416446567,7.122932292978115,-2.692077594819308,6.947914817027316,-1.9290498206292135,6.754262027061687,-1.1523428950751091,6.542778450433849,-0.36239190195790094,6.314377855361938,0.4403197069091176,6.070079582678405,1.2552590335047897,5.811004223575415,2.081842662340649,5.538368620198016,2.919435595858719,5.253480165936308,3.76735019620785,4.957730382267725,4.62484513311979,4.652587749000624,5.491124337606247,4.3395897647704125,6.365335961198183,4.020334214639288,7.246571340448565,3.6964696216508557,8.133863966419824,3.3696848591907784,9.026188458877275,3.0416979010045857,9.922459544909685,2.7142436857239067,10.82153104169831,2.3890610727522112,11.722194843155565,2.0678788663613066,12.623179910154574,1.7524008848497363,13.523151264070927,1.4442900516142547,14.420708983357745,1.1451514849855435,15.314387202875414,0.8565145636794114,16.202653115697146,0.5798139447145525,17.083905977111655,0.3163695106481237,17.95647611054416,0.06736522298026593,18.818623915116962,-0.16617314142119888,19.537191205559036,-0.4216955822907167,20.24585382157128,-0.6720102014513119,20.943407510625484,-0.9167138482322494,21.628597092381305,-1.1554363678022748,22.30011551809986,-1.387842532637567,22.956602930057336,-1.6136339739896943,23.596645720958605,-1.8325511133535617,24.21877559335079,-2.0443750939353675,24.82146861903694,-2.2489297121205554,25.40314429848954,-2.4460833489417655,25.962164620264208,-2.6357509015467926,26.496833120413232,-2.8178957146665287,27.00539394189921,-2.992531512082927,27.486030894008636,-3.1597243280969463,27.936866511765512,-3.319594438996507"></polyline></clipPath><clipPath id="rightEyeClipPath"><polyline points="-31.951198917099624,-3.6067576926142477,-31.971939223449624,-3.6596469274269845,-31.941831083671406,-3.7127634927189037,-31.86249020877873,-3.7659980852853794,-31.73553088744665,-3.819244424515426,-31.562565052398295,-3.8723992357479444,-31.345201346791644,-3.9253622336279763,-31.08504419060634,-3.9780361054629476,-30.783692847030434,-4.0303264945789214,-30.442740488847225,-4.082141983676847,-30.063773264822025,-4.1333940781888066,-29.648369366088918,-4.183997189634268,-29.198098092537613,-4.2338686189763335,-28.714518919200174,-4.282928539977987,-28.19918056263783,-4.331099982558344,-27.653620047327784,-4.378308816148904,-27.07132020949684,-4.437525722077787,-26.44669780461176,-4.495595468895763,-25.78160790945396,-4.55232710014714,-25.078046576339556,-4.607533897212452,-24.338132552360882,-4.661033741346566,-23.564089785930427,-4.712649458481166,-22.75823070638188,-4.76220914699658,-21.92294026238307,-4.809546488668036,-21.0606607049156,-4.854501042991345,-20.173877100575893,-4.896918525093051,-19.265103560952472,-4.936651067430089,-18.33687017383422,-4.973557465483967,-17.391710622004368,-5.007503407654516,-16.432150475375042,-5.038361689558234,-15.460696142217081,-5.066012412936256,-14.479824465239911,-5.090343169376977,-13.49197294827627,-5.111249209058376,-12.499530599326544,-5.128633594715044,-11.50482937571743,-5.1424073410349775,-10.510136217129814,-5.152489539691153,-9.517645652250502,-5.158807470212906,-8.529472964802665,-5.161296696902176,-7.54764790470974,-5.159901151999605,-6.574108930147541,-5.154573205305569,-5.610697966239381,-5.145273720461132,-4.6591556661489575,-5.131972098093987,-3.7211171603257718,-5.114646306034384,-2.7981082796578463,-5.093282896806111,-1.8915422382865366,-5.067877012597526,-1.0027167618381743,-5.038432377917703,-0.13281164682734037,-5.004961280142689,0.7171132630134807,-4.967484538156939,1.546119697723089,-4.926031459294933,2.3533921936648152,-4.880639784788018,3.138238951889102,-4.831355623921516,3.9000923365505695,-4.778233377107097,4.638509027624881,-4.721335648075496,5.353169842170569,-4.660733145394563,6.043879238381116,-4.596504573517696,6.710564516672434,-4.528736513567694,7.353274732051098,-4.457523294061044,7.972179332008391,-4.382966851777695,8.567566534185588,-4.305176582981332,9.139841458055525,-4.224269185195185,9.689524024865829,-4.140368489738417,10.21724664008893,-4.053605285228114,10.72375167262416,-3.96411713225189,11.209888744997155,-3.8720481694161832,11.676611848801663,-3.777548910975224,12.124976299629296,-3.68077603624575,12.55552440795266,-3.5814523671571457,12.968257536080937,-3.479220663632849,13.363508514436091,-3.374123049327943,13.741628440859373,-3.2662030178243007,14.102984772768043,-3.155505405171013,14.447959419312092,-3.0420763624248175,14.776946833531007,-2.9259633281905293,15.090352104510508,-2.8072150011614667,15.388589049539245,-2.6858813126598853,15.672078306265604,-2.562013399177404,15.941245424854344,-2.435663574915434,16.196518960143454,-2.3068853043256103,16.43832856380079,-2.175733174650219,16.667103076480853,-2.0422628684626263,18.410381128374624,1.6724045045533487,18.25844103729649,1.874254991826156,18.101131264884096,2.075908930305739,17.938308434575582,2.276959264710845,17.769823364059256,2.4769756850641027,17.59552049618553,2.6755069454201132,17.415237329878902,2.872083182593527,17.228803851049825,3.066218234887141,17.036041963506758,3.2574119608199714,16.836764919868035,3.445152557855356,16.63077675247382,3.628918881129022,16.417871704298086,3.808182762177183,16.19783365986053,3.982411327664619,15.970435576138527,4.151069318112761,15.73543891347908,4.313621406627786,15.492254510168465,4.471488088317628,15.24015130103605,4.625621101054075,14.978644075483842,4.774816461207366,14.707216334307187,4.91791740369804,14.425322662402323,5.053818123218984,14.132391181607229,5.181467439144456,13.827826087924851,5.29987236681288,13.511010277377846,5.408101577870181,13.181308064744204,5.505288732360646,12.838067999422762,5.590635665251956,12.480625782677922,5.663415410081375,12.108307290512741,5.722975042409806,11.720431706419479,5.768738325770642,11.316314768256976,5.8002081428001775,10.89527213350388,5.816968694236432,10.456622867137053,5.818687448473221,9.999693056384238,5.8051168243563085,9.52381955660023,5.776095589908425,9.02835387251574,5.731549959670086,8.512666179108141,5.671494373342891,7.976149486343303,5.596031938422297,7.418223952037611,5.505354519506544,6.838341347089557,5.399742456968695,6.23598967732983,5.279563897678526,5.610697966239382,5.145273720461133,4.962041202784398,4.997412038979101,4.2896454586175565,4.836602264725034,3.5931931788946443,4.663548712811292,2.8724286509558095,4.479033733243772,2.127163655120583,4.283914350366553,1.3572833018458486,4.079118393164226,0.5627520594960558,3.86564009910877,-0.25638002302531326,3.6445351742377747,-1.0999708945336302,3.4169152921508434,-1.967779876461309,3.183942014611036,-2.859460830147089,2.9468201164381345,-3.7745551122671426,2.7067902973806044,-4.712484314158899,2.4651212636530637,-5.672542780788377,2.2231011618260768,-6.653889905111778,1.9820283477551364,-7.655542193582253,1.7432014732356338,-8.676365098552555,1.5079088730706625,-9.715064613324422,1.2774172352384774,-10.770178625595523,1.0529595368464557,-11.840068025054753,0.8357222285583661,-12.922907560876663,0.626831650181797,-14.016676444865904,0.42733966010256275,-15.119148696002407,0.2382084612529245,-16.227883222138168,0.06029460630044747,-17.34021363459645,-0.10566783525566059,-18.205668186561773,-0.2911732267362823,-19.067437531343842,-0.4725979293138258,-19.923801131703083,-0.6496577442366247,-20.77293871363594,-0.8220945027243887,-21.612927886503122,-0.9896775462484677,-22.441741763157818,-1.1522052068121282,-23.257246580073968,-1.3095062872308167,-24.057199317474467,-1.4614415414124313,-24.839245319459426,-1.6079051546375913,-25.600915914134422,-1.7488262238399042,-26.33962603373871,-1.884170237886238,-27.05267183477348,-2.013940557856988,-27.737228318130093,-2.1381798973263466,-28.390346949218305,-2.256971802642572,-29.008953278094534,-2.3704421332082575"></polyline></clipPath><filter id="fuzzy"><feTurbulence id="turbulence" baseFrequency="0.05" numOctaves="3" type="noise" result="noise"></feTurbulence><feDisplacementMap in="SourceGraphic" in2="noise" scale="2"></feDisplacementMap></filter><linearGradient id="rainbowGradient" x1="0%" y1="0%" x2="100%" y2="0%"><stop offset="0%" style="stop-color: rgb(220, 208, 186);  stop-opacity: 1"></stop><stop offset="50%" style="stop-color: rgb(0, 191, 255);  stop-opacity: 1"></stop><stop offset="100%" style="stop-color: rgb(80, 68, 68);  stop-opacity: 1"></stop></linearGradient></defs><title>That&#39;s an ugly face</title><desc>CREATED BY XUAN TANG, MORE INFO AT TXSTC55.GITHUB.IO</desc><rect x="-100" y="-100" width="100%" height="100%" opacity="1" fill="rgb(25, 25, 112)"></rect><polyline id="faceContour" points="65,2,65,1,65,1,65,4,65,4,65,7,65,8,65,9,66,9,65,11,65,12,65,14,65,15,65,15,65,18,65,16,65,17,64,20,64,20,64,23,64,24,63,25,64,25,64,26,63,28,62,28,62,32,62,31,62,32,61,34,61,34,61,35,60,37,59,38,59,38,58,41,58,42,58,42,57,44,56,44,56,44,54,48,56,45,54,49,53,50,53,49,53,50,51,52,50,54,50,54,49,55,49,56,48,57,48,57,47,58,46,58,45,59,45,59,43,61,42,62,42,63,40,65,40,64,38,66,38,66,37,66,35,68,35,68,34,69,33,69,31,71,32,70,31,71,30,71,29,71,29,72,27,73,26,73,25,73,25,74,22,75,21,75,20,76,20,76,18,76,18,76,17,76,15,77,14,77,12,78,10,78,11,78,10,78,8,79,6,79,7,79,5,79,3,79,2,80,2,79,-2,80,-2,80,-2,79,-5,80,-5,80,-5,80,-6,80,-8,80,-9,79,-12,79,-11,79,-11,79,-13,79,-15,79,-17,78,-18,78,-19,77,-18,78,-20,77,-22,77,-23,77,-23,77,-25,76,-25,76,-27,75,-29,75,-28,75,-29,74,-32,73,-31,73,-32,73,-34,72,-34,72,-35,71,-36,70,-38,69,-38,69,-39,69,-40,68,-40,67,-42,66,-43,65,-43,66,-45,64,-46,62,-46,62,-48,61,-47,62,-48,60,-50,58,-50,58,-50,58,-52,56,-52,56,-53,54,-52,54,-54,52,-55,50,-55,50,-56,49,-56,50,-57,47,-56,48,-57,47,-58,45,-58,44,-59,43,-60,41,-59,42,-61,38,-61,37,-61,38,-61,36,-62,34,-62,33,-63,31,-63,30,-63,31,-63,28,-64,26,-64,27,-64,26,-64,23,-64,22,-65,20,-65,18,-65,19,-65,18,-65,15,-65,13,-65,13,-65,12,-65,10,-65,9,-65,6,-65,8,-65,6,-65,3,-65,3,-65,2,-65,-1,-65,-1,-65,-3,-65,-4,-65,-6,-65,-6,-64,-9,-64,-10,-64,-10,-64,-11,-64,-13,-63,-15,-63,-15,-63,-17,-63,-18,-62,-21,-62,-20,-61,-22,-61,-23,-61,-24,-60,-28,-60,-28,-59,-29,-59,-31,-59,-29,-58,-33,-58,-33,-57,-34,-57,-36,-56,-37,-56,-38,-55,-39,-54,-41,-54,-41,-54,-42,-53,-44,-53,-44,-52,-46,-52,-46,-51,-47,-50,-49,-49,-51,-49,-50,-49,-51,-47,-53,-47,-53,-46,-55,-45,-56,-45,-57,-44,-57,-44,-58,-43,-58,-42,-60,-41,-61,-40,-62,-40,-63,-38,-64,-39,-63,-38,-64,-37,-65,-35,-67,-35,-67,-35,-67,-34,-68,-32,-69,-31,-70,-31,-70,-30,-71,-30,-71,-29,-71,-28,-72,-26,-73,-25,-74,-25,-74,-24,-74,-22,-75,-22,-75,-22,-75,-22,-75,-20,-76,-19,-76,-18,-77,-18,-77,-15,-78,-15,-78,-15,-78,-13,-78,-12,-79,-12,-79,-10,-79,-11,-79,-8,-79,-7,-79,-7,-79,-6,-79,-6,-80,-4,-80,-4,-79,-3,-79,0,-79,0,-80,1,-80,2,-79,2,-80,5,-79,3,-79,7,-79,7,-79,8,-78,8,-78,9,-78,10,-78,11,-78,12,-77,14,-76,14,-76,15,-77,16,-76,16,-76,18,-75,19,-74,20,-74,20,-74,21,-73,23,-72,23,-72,25,-72,25,-71,26,-70,26,-70,28,-69,30,-68,30,-68,30,-68,31,-67,32,-66,33,-66,34,-65,35,-64,36,-63,36,-62,37,-62,37,-62,38,-60,39,-60,40,-59,41,-57,42,-57,42,-56,43,-56,44,-53,44,-54,45,-53,45,-53,46,-52,47,-49,48,-49,49,-47,48,-48,49,-47,50,-46,51,-43,51,-44,52,-42,53,-41,53,-40,54,-38,55,-36,56,-35,56,-36,56,-35,56,-34,57,-33,57,-32,58,-30,58,-29,59,-27,59,-26,59,-27,61,-23,60,-23,61,-22,61,-21,61,-21,62,-19,62,-18,62,-18,63,-15,63,-15,63,-14,63,-12,64,-10,64,-9,64,-9,64,-7,64,-7,64,-7,65,-3,65,-3,65,-1,65,2,65,1" fill="#ffc9a9" stroke="black" stroke-width="1.6666666666666665" stroke-linejoin="round" filter="url(#fuzzy)"></polyline><g transform="translate(30.504759235471173 -24.153275913375705)"><polyline id="rightCountour" points="-31.951198917099624,-3.6067576926142477,-31.971939223449624,-3.6596469274269845,-31.941831083671406,-3.7127634927189037,-31.86249020877873,-3.7659980852853794,-31.73553088744665,-3.819244424515426,-31.562565052398295,-3.8723992357479444,-31.345201346791644,-3.9253622336279763,-31.08504419060634,-3.9780361054629476,-30.783692847030434,-4.0303264945789214,-30.442740488847225,-4.082141983676847,-30.063773264822025,-4.1333940781888066,-29.648369366088918,-4.183997189634268,-29.198098092537613,-4.2338686189763335,-28.714518919200174,-4.282928539977987,-28.19918056263783,-4.331099982558344,-27.653620047327784,-4.378308816148904,-27.07132020949684,-4.437525722077787,-26.44669780461176,-4.495595468895763,-25.78160790945396,-4.55232710014714,-25.078046576339556,-4.607533897212452,-24.338132552360882,-4.661033741346566,-23.564089785930427,-4.712649458481166,-22.75823070638188,-4.76220914699658,-21.92294026238307,-4.809546488668036,-21.0606607049156,-4.854501042991345,-20.173877100575893,-4.896918525093051,-19.265103560952472,-4.936651067430089,-18.33687017383422,-4.973557465483967,-17.391710622004368,-5.007503407654516,-16.432150475375042,-5.038361689558234,-15.460696142217081,-5.066012412936256,-14.479824465239911,-5.090343169376977,-13.49197294827627,-5.111249209058376,-12.499530599326544,-5.128633594715044,-11.50482937571743,-5.1424073410349775,-10.510136217129814,-5.152489539691153,-9.517645652250502,-5.158807470212906,-8.529472964802665,-5.161296696902176,-7.54764790470974,-5.159901151999605,-6.574108930147541,-5.154573205305569,-5.610697966239381,-5.145273720461132,-4.6591556661489575,-5.131972098093987,-3.7211171603257718,-5.114646306034384,-2.7981082796578463,-5.093282896806111,-1.8915422382865366,-5.067877012597526,-1.0027167618381743,-5.038432377917703,-0.13281164682734037,-5.004961280142689,0.7171132630134807,-4.967484538156939,1.546119697723089,-4.926031459294933,2.3533921936648152,-4.880639784788018,3.138238951889102,-4.831355623921516,3.9000923365505695,-4.778233377107097,4.638509027624881,-4.721335648075496,5.353169842170569,-4.660733145394563,6.043879238381116,-4.596504573517696,6.710564516672434,-4.528736513567694,7.353274732051098,-4.457523294061044,7.972179332008391,-4.382966851777695,8.567566534185588,-4.305176582981332,9.139841458055525,-4.224269185195185,9.689524024865829,-4.140368489738417,10.21724664008893,-4.053605285228114,10.72375167262416,-3.96411713225189,11.209888744997155,-3.8720481694161832,11.676611848801663,-3.777548910975224,12.124976299629296,-3.68077603624575,12.55552440795266,-3.5814523671571457,12.968257536080937,-3.479220663632849,13.363508514436091,-3.374123049327943,13.741628440859373,-3.2662030178243007,14.102984772768043,-3.155505405171013,14.447959419312092,-3.0420763624248175,14.776946833531007,-2.9259633281905293,15.090352104510508,-2.8072150011614667,15.388589049539245,-2.6858813126598853,15.672078306265604,-2.562013399177404,15.941245424854344,-2.435663574915434,16.196518960143454,-2.3068853043256103,16.43832856380079,-2.175733174650219,16.667103076480853,-2.0422628684626263,18.410381128374624,1.6724045045533487,18.25844103729649,1.874254991826156,18.101131264884096,2.075908930305739,17.938308434575582,2.276959264710845,17.769823364059256,2.4769756850641027,17.59552049618553,2.6755069454201132,17.415237329878902,2.872083182593527,17.228803851049825,3.066218234887141,17.036041963506758,3.2574119608199714,16.836764919868035,3.445152557855356,16.63077675247382,3.628918881129022,16.417871704298086,3.808182762177183,16.19783365986053,3.982411327664619,15.970435576138527,4.151069318112761,15.73543891347908,4.313621406627786,15.492254510168465,4.471488088317628,15.24015130103605,4.625621101054075,14.978644075483842,4.774816461207366,14.707216334307187,4.91791740369804,14.425322662402323,5.053818123218984,14.132391181607229,5.181467439144456,13.827826087924851,5.29987236681288,13.511010277377846,5.408101577870181,13.181308064744204,5.505288732360646,12.838067999422762,5.590635665251956,12.480625782677922,5.663415410081375,12.108307290512741,5.722975042409806,11.720431706419479,5.768738325770642,11.316314768256976,5.8002081428001775,10.89527213350388,5.816968694236432,10.456622867137053,5.818687448473221,9.999693056384238,5.8051168243563085,9.52381955660023,5.776095589908425,9.02835387251574,5.731549959670086,8.512666179108141,5.671494373342891,7.976149486343303,5.596031938422297,7.418223952037611,5.505354519506544,6.838341347089557,5.399742456968695,6.23598967732983,5.279563897678526,5.610697966239382,5.145273720461133,4.962041202784398,4.997412038979101,4.2896454586175565,4.836602264725034,3.5931931788946443,4.663548712811292,2.8724286509558095,4.479033733243772,2.127163655120583,4.283914350366553,1.3572833018458486,4.079118393164226,0.5627520594960558,3.86564009910877,-0.25638002302531326,3.6445351742377747,-1.0999708945336302,3.4169152921508434,-1.967779876461309,3.183942014611036,-2.859460830147089,2.9468201164381345,-3.7745551122671426,2.7067902973806044,-4.712484314158899,2.4651212636530637,-5.672542780788377,2.2231011618260768,-6.653889905111778,1.9820283477551364,-7.655542193582253,1.7432014732356338,-8.676365098552555,1.5079088730706625,-9.715064613324422,1.2774172352384774,-10.770178625595523,1.0529595368464557,-11.840068025054753,0.8357222285583661,-12.922907560876663,0.626831650181797,-14.016676444865904,0.42733966010256275,-15.119148696002407,0.2382084612529245,-16.227883222138168,0.06029460630044747,-17.34021363459645,-0.10566783525566059,-18.205668186561773,-0.2911732267362823,-19.067437531343842,-0.4725979293138258,-19.923801131703083,-0.6496577442366247,-20.77293871363594,-0.8220945027243887,-21.612927886503122,-0.9896775462484677,-22.441741763157818,-1.1522052068121282,-23.257246580073968,-1.3095062872308167,-24.057199317474467,-1.4614415414124313,-24.839245319459426,-1.6079051546375913,-25.600915914134422,-1.7488262238399042,-26.33962603373871,-1.884170237886238,-27.05267183477348,-2.013940557856988,-27.737228318130093,-2.1381798973263466,-28.390346949218305,-2.256971802642572,-29.008953278094534,-2.3704421332082575" fill="white" stroke="white" stroke-width="0" stroke-linejoin="round" filter="url(#fuzzy)"></polyline></g><g transform="translate(-38.38921864289194 -26.67674866754599)"><polyline id="leftCountour" points="29.749197053366665,-5.273396224038908,29.57065231294579,-5.349171919480019,29.356439142322056,-5.424834081912617,29.1076562071061,-5.500166572891041,28.82540265828416,-5.574964312966405,28.510777458264688,-5.64903305579362,28.16487870692492,-5.722189162238426,27.78880296765745,-5.794259374484423,27.383644593416857,-5.865080590140095,26.950495052766275,-5.9344996363458415,26.490442255923984,-6.0023730438810095,26.00456988080998,-6.068566821270915,25.493956699092607,-6.132956228893882,24.959675902235116,-6.195425553088261,24.40279442754224,-6.2558678802594665,23.82437228420683,-6.314184870987001,23.202950584494474,-6.3962515948027425,22.550172150098625,-6.474839316479903,21.867344981345585,-6.549700898562296,21.155886018607017,-6.620610423920571,20.4173088144828,-6.687361466478103,19.65321167064279,-6.74976546888632,18.865266231966693,-6.807650224397378,18.05520653062155,-6.860858460182215,17.22481847271596,-6.909246519341913,16.375929760170557,-6.952683138860354,15.510400240443882,-6.991048320746137,14.630112676753187,-7.024232293611736,13.736963931429276,-7.052134561937841,12.832856555044893,-7.074663040270893,11.919690773955855,-7.091733269601747,10.999356868894335,-7.103267713173456,10.073727937253585,-7.109195128966135,9.144653031703447,-7.109450016106875,8.21395066777594,-7.103972132452689,7.283402693060303,-7.092706080594446,6.354748510646762,-7.075600959529767,5.4296796494584045,-7.052610079252863,4.509834674110447,-7.0236907355092715,3.596794426936237,-6.988804041963466,2.6920775948193074,-6.947914817027317,1.7971365934708317,-6.900991522597364,0.9133537617917789,-6.848006251948872,0.042037858959107055,-6.788934764034652,-0.815579143124685,-6.723756561436583,-1.658344979379292,-6.652455009217872,-2.4851897304523494,-6.5750174919239335,-3.2951281883438277,-6.49143560597994,-4.087261956109746,-6.401705384732962,-4.8607812890058995,-6.305827553386692,-5.614966684432268,-6.203807811076709,-6.349190228038797,-6.095657137334269,-7.062916703353132,-5.981392120186576,-7.755704472291148,-5.861035303141511,-8.427206133910804,-5.734615548304793,-9.077168968770016,-5.602168412877542,-9.70543517624931,-5.46373653628219,-10.311941912199853,-5.319370035164758,-10.896721134277506,-5.169126903521424,-11.459899262323692,-5.0130734151973755,-12.001696661153623,-4.851284526005909,-12.522426953112642,-4.683844272715754,-13.022496167761329,-4.510846166154577,-13.502401736050043,-4.332393575676659,-13.962731336343555,-4.148600102242689,-14.404161599656508,-3.95958993735967,-14.82741198773542,-3.764902770889502,-15.232787510489317,-3.563973698211806,-15.620424797540206,-3.3567816502882786,-15.990480764499992,-3.143310494479401,-16.343131627165874,-2.9235494031198535,-16.678571915715853,-2.6974932220939336,-16.99701348890423,-2.4651428394109773,-17.29868454825708,-2.2265055537807643,-17.58382865226768,-1.981595443188954,-17.85270373059209,-1.7304337334724886,-18.10558109824454,-1.473049166895017,-18.342744469792965,-1.2094783707223122,-18.564488973554457,-0.9397662257976842,-18.771120165790784,-0.6639662351174032,-21.417934694321385,2.0363332009166246,-21.156655642252332,2.311286535241922,-20.886600394614074,2.5861750445549125,-20.607610532383372,2.860451898998737,-20.31953084854595,3.133538499967278,-20.022209310762417,3.4048275803940182,-19.715497024034256,3.673686305040892,-19.399248193369754,3.939459370787141,-19.07332008644999,4.201472106918162,-18.737572996294734,4.459033575414377,-18.39187020392847,4.7114396712400595,-18.036077941046322,4.957976222632215,-17.670065352679995,5.197922091389421,-17.293704459863743,5.43055227316067,-16.90687012230037,5.6551409977342555,-16.508812193544827,5.873604503905252,-16.098588781135575,6.087231059272014,-15.675802177618003,6.29439708201458,-15.240073019076988,6.49354025513148,-14.791041627330383,6.683164609622821,-14.32836933821757,6.861845509241785,-13.85173981626166,7.0282345136657,-13.36086035598414,7.18106409693776,-12.85546317015082,7.319152198030748,-12.335306665227705,7.44140658038374,-11.800176704325633,7.546828977263138,-11.249887857912476,7.6345189997991,-10.684284642571548,7.703677784548571,-10.103242748085059,7.753611357436117,-9.50667025312141,7.783733690923739,-8.894508829804984,7.793569431260773,-8.266734937447307,7.782756272665145,-7.623361005718225,7.751046955287091,-6.964436607535987,7.698310863806592,-6.290049621954871,7.624535203515581,-5.600327387329209,7.52982573073624,-4.8954378450325,7.4144070144264465,-4.175590674010445,7.278622205823625,-3.441038416446567,7.122932292978115,-2.692077594819308,6.947914817027316,-1.9290498206292135,6.754262027061687,-1.1523428950751091,6.542778450433849,-0.36239190195790094,6.314377855361938,0.4403197069091176,6.070079582678405,1.2552590335047897,5.811004223575415,2.081842662340649,5.538368620198016,2.919435595858719,5.253480165936308,3.76735019620785,4.957730382267725,4.62484513311979,4.652587749000624,5.491124337606247,4.3395897647704125,6.365335961198183,4.020334214639288,7.246571340448565,3.6964696216508557,8.133863966419824,3.3696848591907784,9.026188458877275,3.0416979010045857,9.922459544909685,2.7142436857239067,10.82153104169831,2.3890610727522112,11.722194843155565,2.0678788663613066,12.623179910154574,1.7524008848497363,13.523151264070927,1.4442900516142547,14.420708983357745,1.1451514849855435,15.314387202875414,0.8565145636794114,16.202653115697146,0.5798139447145525,17.083905977111655,0.3163695106481237,17.95647611054416,0.06736522298026593,18.818623915116962,-0.16617314142119888,19.537191205559036,-0.4216955822907167,20.24585382157128,-0.6720102014513119,20.943407510625484,-0.9167138482322494,21.628597092381305,-1.1554363678022748,22.30011551809986,-1.387842532637567,22.956602930057336,-1.6136339739896943,23.596645720958605,-1.8325511133535617,24.21877559335079,-2.0443750939353675,24.82146861903694,-2.2489297121205554,25.40314429848954,-2.4460833489417655,25.962164620264208,-2.6357509015467926,26.496833120413232,-2.8178957146665287,27.00539394189921,-2.992531512082927,27.486030894008636,-3.1597243280969463,27.936866511765512,-3.319594438996507" fill="white" stroke="white" stroke-width="0" stroke-linejoin="round" filter="url(#fuzzy)"></polyline></g><g transform="translate(30.504759235471173 -24.153275913375705)"><polyline id="rightUpper" points="-28.592527014985915,-3.116609701100057,-29.210261269446605,-3.1605370839843037,-29.761117133918585,-3.205954733669272,-30.24667319407614,-3.252722205607661,-30.668515949386947,-3.3007022442833143,-31.02823887949887,-3.349760766567471,-31.327441510626777,-3.3997668450750154,-31.567728481939284,-3.4505926915207237,-31.750708611945562,-3.5021136400755166,-31.877993964882123,-3.554208130722707,-31.951198917099624,-3.6067576926142477,-31.971939223449624,-3.6596469274269845,-31.941831083671406,-3.7127634927189037,-31.86249020877873,-3.7659980852853794,-31.73553088744665,-3.819244424515426,-31.562565052398295,-3.8723992357479444,-31.345201346791644,-3.9253622336279763,-31.08504419060634,-3.9780361054629476,-30.783692847030434,-4.0303264945789214,-30.442740488847225,-4.082141983676847,-30.063773264822025,-4.1333940781888066,-29.648369366088918,-4.183997189634268,-29.198098092537613,-4.2338686189763335,-28.714518919200174,-4.282928539977987,-28.19918056263783,-4.331099982558344,-27.653620047327784,-4.378308816148904,-27.07132020949684,-4.437525722077787,-26.44669780461176,-4.495595468895763,-25.78160790945396,-4.55232710014714,-25.078046576339556,-4.607533897212452,-24.338132552360882,-4.661033741346566,-23.564089785930427,-4.712649458481166,-22.75823070638188,-4.76220914699658,-21.92294026238307,-4.809546488668036,-21.0606607049156,-4.854501042991345,-20.173877100575893,-4.896918525093051,-19.265103560952472,-4.936651067430089,-18.33687017383422,-4.973557465483967,-17.391710622004368,-5.007503407654516,-16.432150475375042,-5.038361689558234,-15.460696142217081,-5.066012412936256,-14.479824465239911,-5.090343169376977,-13.49197294827627,-5.111249209058376,-12.499530599326544,-5.128633594715044,-11.50482937571743,-5.1424073410349775,-10.510136217129814,-5.152489539691153,-9.517645652250502,-5.158807470212906,-8.529472964802665,-5.161296696902176,-7.54764790470974,-5.159901151999605,-6.574108930147541,-5.154573205305569,-5.610697966239381,-5.145273720461132,-4.6591556661489575,-5.131972098093987,-3.7211171603257718,-5.114646306034384,-2.7981082796578463,-5.093282896806111,-1.8915422382865366,-5.067877012597526,-1.0027167618381743,-5.038432377917703,-0.13281164682734037,-5.004961280142689,0.7171132630134807,-4.967484538156939,1.546119697723089,-4.926031459294933,2.3533921936648152,-4.880639784788018,3.138238951889102,-4.831355623921516,3.9000923365505695,-4.778233377107097,4.638509027624881,-4.721335648075496,5.353169842170569,-4.660733145394563,6.043879238381116,-4.596504573517696,6.710564516672434,-4.528736513567694,7.353274732051098,-4.457523294061044,7.972179332008391,-4.382966851777695,8.567566534185588,-4.305176582981332,9.139841458055525,-4.224269185195185,9.689524024865829,-4.140368489738417,10.21724664008893,-4.053605285228114,10.72375167262416,-3.96411713225189,11.209888744997155,-3.8720481694161832,11.676611848801663,-3.777548910975224,12.124976299629296,-3.68077603624575,12.55552440795266,-3.5814523671571457,12.968257536080937,-3.479220663632849,13.363508514436091,-3.374123049327943,13.741628440859373,-3.2662030178243007,14.102984772768043,-3.155505405171013,14.447959419312092,-3.0420763624248175,14.776946833531007,-2.9259633281905293,15.090352104510508,-2.8072150011614667,15.388589049539245,-2.6858813126598853,15.672078306265604,-2.562013399177404,15.941245424854344,-2.435663574915434,16.196518960143454,-2.3068853043256103,16.43832856380079,-2.175733174650219,16.667103076480853,-2.0422628684626263,16.883268619981536,-1.90653113620771,17.087246689400843,-1.7685957687422853,17.279452245293612,-1.628515569875537,17.460291805828298,-1.4863503289094464,17.630161538943664,-1.3421607931792248,17.78944535450554,-1.196008640593734,17.93851299646356,-1.0479564521759248,18.077718135007885,-0.8980676846032623,18.20739645872595,-0.7464066427481546,18.3278637667592,-0.5930384522183827" fill="none" stroke="black" stroke-width="1.6666666666666665" stroke-linejoin="round" filter="url(#fuzzy)"></polyline><polyline id="rightLower" points="-32.52566697669799,-3.2733652511046927,-32.45068140288497,-3.1958211285555223,-32.30299011120242,-3.116866904929408,-32.08705759807431,-3.0358721748655997,-31.80719864585359,-2.9522636488603733,-31.46758070269405,-2.8655236729867624,-31.072226262422046,-2.7751887486142897,-30.62501524440824,-2.680848052128697,-30.12968737343939,-2.5821419546516764,-29.589844559590084,-2.4787605417606016,-29.008953278094534,-2.3704421332082575,-28.390346949218305,-2.256971802642572,-27.737228318130093,-2.1381798973263466,-27.05267183477348,-2.013940557856988,-26.33962603373871,-1.884170237886238,-25.600915914134422,-1.7488262238399042,-24.839245319459426,-1.6079051546375913,-24.057199317474467,-1.4614415414124313,-23.257246580073968,-1.3095062872308167,-22.441741763157818,-1.1522052068121282,-21.612927886503122,-0.9896775462484677,-20.77293871363594,-0.8220945027243887,-19.923801131703083,-0.6496577442366247,-19.067437531343842,-0.4725979293138258,-18.205668186561773,-0.2911732267362823,-17.34021363459645,-0.10566783525566059,-16.227883222138168,0.06029460630044747,-15.119148696002407,0.2382084612529245,-14.016676444865904,0.42733966010256275,-12.922907560876663,0.626831650181797,-11.840068025054753,0.8357222285583661,-10.770178625595523,1.0529595368464557,-9.715064613324422,1.2774172352384774,-8.676365098552555,1.5079088730706625,-7.655542193582253,1.7432014732356338,-6.653889905111778,1.9820283477551364,-5.672542780788377,2.2231011618260768,-4.712484314158899,2.4651212636530637,-3.7745551122671426,2.7067902973806044,-2.859460830147089,2.9468201164381345,-1.967779876461309,3.183942014611036,-1.0999708945336302,3.4169152921508434,-0.25638002302531326,3.6445351742377747,0.5627520594960558,3.86564009910877,1.3572833018458486,4.079118393164226,2.127163655120583,4.283914350366553,2.8724286509558095,4.479033733243772,3.5931931788946443,4.663548712811292,4.2896454586175565,4.836602264725034,4.962041202784398,4.997412038979101,5.610697966239382,5.145273720461133,6.23598967732983,5.279563897678526,6.838341347089557,5.399742456968695,7.418223952037611,5.505354519506544,7.976149486343303,5.596031938422297,8.512666179108141,5.671494373342891,9.02835387251574,5.731549959670086,9.52381955660023,5.776095589908425,9.999693056384238,5.8051168243563085,10.456622867137053,5.818687448473221,10.89527213350388,5.816968694236432,11.316314768256976,5.8002081428001775,11.720431706419479,5.768738325770642,12.108307290512741,5.722975042409806,12.480625782677922,5.663415410081375,12.838067999422762,5.590635665251956,13.181308064744204,5.505288732360646,13.511010277377846,5.408101577870181,13.827826087924851,5.29987236681288,14.132391181607229,5.181467439144456,14.425322662402323,5.053818123218984,14.707216334307187,4.91791740369804,14.978644075483842,4.774816461207366,15.24015130103605,4.625621101054075,15.492254510168465,4.471488088317628,15.73543891347908,4.313621406627786,15.970435576138527,4.151069318112761,16.19783365986053,3.982411327664619,16.417871704298086,3.808182762177183,16.63077675247382,3.628918881129022,16.836764919868035,3.445152557855356,17.036041963506758,3.2574119608199714,17.228803851049825,3.066218234887141,17.415237329878902,2.872083182593527,17.59552049618553,2.6755069454201132,17.769823364059256,2.4769756850641027,17.938308434575582,2.276959264710845,18.101131264884096,2.075908930305739,18.25844103729649,1.874254991826156,18.410381128374624,1.6724045045533487,18.557089678018585,1.4707389503443764,18.69870015855475,1.2696119189039994,18.835341943823796,1.0693467890566124,18.967140878268822,0.8702344100181558,19.094219846023332,0.6725307826680185,19.21669933999936,0.47645474082096184,19.334698030975463,0.28218563249903506,19.448333336684808,0.08986100120348439,19.557721990903232,-0.10042573281332379,19.662980612537265,-0.28862759127600013" fill="none" stroke="black" stroke-width="2.2222222222222223" stroke-linejoin="round" filter="url(#fuzzy)"></polyline><!--[--><circle r="3.5129549070726984" cx="3.5650797418679474" cy="-1.8204051313430774" stroke="black" fill="none" stroke-width="1" filter="url(#fuzzy)" clip-path="url(#rightEyeClipPath)"></circle><circle r="3.9675234448772376" cx="5.64390955750333" cy="-0.004207524392386919" stroke="black" fill="none" stroke-width="1" filter="url(#fuzzy)" clip-path="url(#rightEyeClipPath)"></circle><circle r="4.74191755329849" cx="2.9110833598888437" cy="0.6297317701442164" stroke="black" fill="none" stroke-width="1" filter="url(#fuzzy)" clip-path="url(#rightEyeClipPath)"></circle><circle r="4.523107888405335" cx="5.703172187762529" cy="-1.266201080382514" stroke="black" fill="none" stroke-width="1" filter="url(#fuzzy)" clip-path="url(#rightEyeClipPath)"></circle><circle r="3.0470361443470946" cx="5.515942644017459" cy="2.9552167986923648" stroke="black" fill="none" stroke-width="1" filter="url(#fuzzy)" clip-path="url(#rightEyeClipPath)"></circle><circle r="3.768681443361084" cx="5.95332436925424" cy="0.1881129502256913" stroke="black" fill="none" stroke-width="1" filter="url(#fuzzy)" clip-path="url(#rightEyeClipPath)"></circle><circle r="4.664303024501722" cx="5.959900937285774" cy="0.8364307934886082" stroke="black" fill="none" stroke-width="1" filter="url(#fuzzy)" clip-path="url(#rightEyeClipPath)"></circle><circle r="4.438529872958137" cx="2.1853695389927257" cy="-0.1768162513093321" stroke="black" fill="none" stroke-width="1" filter="url(#fuzzy)" clip-path="url(#rightEyeClipPath)"></circle><circle r="4.56098094288785" cx="5.374458542299027" cy="-0.23668064038320136" stroke="black" fill="none" stroke-width="1" filter="url(#fuzzy)" clip-path="url(#rightEyeClipPath)"></circle><circle r="3.3209017386498787" cx="2.191288362685908" cy="-1.6396031693261452" stroke="black" fill="none" stroke-width="1" filter="url(#fuzzy)" clip-path="url(#rightEyeClipPath)"></circle><!--]--></g><g transform="translate(-38.38921864289194 -26.67674866754599)"><polyline id="leftUpper" points="29.332870660367636,-4.5653048326234735,29.570848171237493,-4.6277337508746585,29.762345561207027,-4.692868461849932,29.908419574693188,-4.760369813022521,30.010134181022647,-4.829911969792134,30.068559900478366,-4.90118218959199,30.084773130346218,-4.973880595995845,30.059855470961562,-5.047719952825027,29.994893051755813,-5.122425438255457,29.890975857303065,-5.197734418924683,29.749197053366665,-5.273396224038908,29.57065231294579,-5.349171919480019,29.356439142322056,-5.424834081912617,29.1076562071061,-5.500166572891041,28.82540265828416,-5.574964312966405,28.510777458264688,-5.64903305579362,28.16487870692492,-5.722189162238426,27.78880296765745,-5.794259374484423,27.383644593416857,-5.865080590140095,26.950495052766275,-5.9344996363458415,26.490442255923984,-6.0023730438810095,26.00456988080998,-6.068566821270915,25.493956699092607,-6.132956228893882,24.959675902235116,-6.195425553088261,24.40279442754224,-6.2558678802594665,23.82437228420683,-6.314184870987001,23.202950584494474,-6.3962515948027425,22.550172150098625,-6.474839316479903,21.867344981345585,-6.549700898562296,21.155886018607017,-6.620610423920571,20.4173088144828,-6.687361466478103,19.65321167064279,-6.74976546888632,18.865266231966693,-6.807650224397378,18.05520653062155,-6.860858460182215,17.22481847271596,-6.909246519341913,16.375929760170557,-6.952683138860354,15.510400240443882,-6.991048320746137,14.630112676753187,-7.024232293611736,13.736963931429276,-7.052134561937841,12.832856555044893,-7.074663040270893,11.919690773955855,-7.091733269601747,10.999356868894335,-7.103267713173456,10.073727937253585,-7.109195128966135,9.144653031703447,-7.109450016106875,8.21395066777594,-7.103972132452689,7.283402693060303,-7.092706080594446,6.354748510646762,-7.075600959529767,5.4296796494584045,-7.052610079252863,4.509834674110447,-7.0236907355092715,3.596794426936237,-6.988804041963466,2.6920775948193074,-6.947914817027317,1.7971365934708317,-6.900991522597364,0.9133537617917789,-6.848006251948872,0.042037858959107055,-6.788934764034652,-0.815579143124685,-6.723756561436583,-1.658344979379292,-6.652455009217872,-2.4851897304523494,-6.5750174919239335,-3.2951281883438277,-6.49143560597994,-4.087261956109746,-6.401705384732962,-4.8607812890058995,-6.305827553386692,-5.614966684432268,-6.203807811076709,-6.349190228038797,-6.095657137334269,-7.062916703353132,-5.981392120186576,-7.755704472291148,-5.861035303141511,-8.427206133910804,-5.734615548304793,-9.077168968770016,-5.602168412877542,-9.70543517624931,-5.46373653628219,-10.311941912199853,-5.319370035164758,-10.896721134277506,-5.169126903521424,-11.459899262323692,-5.0130734151973755,-12.001696661153623,-4.851284526005909,-12.522426953112642,-4.683844272715754,-13.022496167761329,-4.510846166154577,-13.502401736050043,-4.332393575676659,-13.962731336343555,-4.148600102242689,-14.404161599656508,-3.95958993735967,-14.82741198773542,-3.764902770889502,-15.232787510489317,-3.563973698211806,-15.620424797540206,-3.3567816502882786,-15.990480764499992,-3.143310494479401,-16.343131627165874,-2.9235494031198535,-16.678571915715853,-2.6974932220939336,-16.99701348890423,-2.4651428394109773,-17.29868454825708,-2.2265055537807643,-17.58382865226768,-1.981595443188954,-17.85270373059209,-1.7304337334724886,-18.10558109824454,-1.473049166895017,-18.342744469792965,-1.2094783707223122,-18.564488973554457,-0.9397662257976842,-18.771120165790784,-0.6639662351174032,-18.962953044903813,-0.38214089240611404,-19.140311065631042,-0.09436205069225512,-19.303525153241047,0.19928870911652385,-19.452932717729002,0.4987197096579461,-19.5888766680121,0.8038288085396887,-19.71170442612511,1.114503029763969,-19.821766941415774,1.4306181951521175,-19.919417704740354,1.7520385557691718,-20.005011762659084,2.078616423348447,-20.078904731631653,2.4101918017161337" fill="none" stroke="black" stroke-width="2.2222222222222223" stroke-linejoin="round" filter="url(#fuzzy)"></polyline><polyline id="leftLower" points="30.34741285357719,-4.58465736955834,30.312004010047293,-4.478084877249987,30.224442168960632,-4.368800674938866,30.087269270169923,-4.256035835730039,29.902956573401408,-4.139094989395062,29.673905598841287,-4.017354390904023,29.40244906772211,-3.8902599889575953,29.090851842909135,-3.757325494519081,28.741311869486772,-3.6181304493464626,28.355961115344943,-3.472318294524445,27.936866511765512,-3.319594438996507,27.486030894008636,-3.1597243280969463,27.00539394189921,-2.992531512082927,26.496833120413232,-2.8178957146665287,25.962164620264208,-2.6357509015467926,25.40314429848954,-2.4460833489417655,24.82146861903694,-2.2489297121205554,24.21877559335079,-2.0443750939353675,23.596645720958605,-1.8325511133535617,22.956602930057336,-1.6136339739896943,22.30011551809986,-1.387842532637567,21.628597092381305,-1.1554363678022748,20.943407510625484,-0.9167138482322494,20.24585382157128,-0.6720102014513119,19.537191205559036,-0.4216955822907167,18.818623915116962,-0.16617314142119888,17.95647611054416,0.06736522298026593,17.083905977111655,0.3163695106481237,16.202653115697146,0.5798139447145525,15.314387202875414,0.8565145636794114,14.420708983357745,1.1451514849855435,13.523151264070927,1.4442900516142547,12.623179910154574,1.7524008848497363,11.722194843155565,2.0678788663613066,10.82153104169831,2.3890610727522112,9.922459544909685,2.7142436857239067,9.026188458877275,3.0416979010045857,8.133863966419824,3.3696848591907784,7.246571340448565,3.6964696216508557,6.365335961198183,4.020334214639288,5.491124337606247,4.3395897647704125,4.62484513311979,4.652587749000624,3.76735019620785,4.957730382267725,2.919435595858719,5.253480165936308,2.081842662340649,5.538368620198016,1.2552590335047897,5.811004223575415,0.4403197069091176,6.070079582678405,-0.36239190195790094,6.314377855361938,-1.1523428950751091,6.542778450433849,-1.9290498206292135,6.754262027061687,-2.692077594819308,6.947914817027316,-3.441038416446567,7.122932292978115,-4.175590674010445,7.278622205823625,-4.8954378450325,7.4144070144264465,-5.600327387329209,7.52982573073624,-6.290049621954871,7.624535203515581,-6.964436607535987,7.698310863806592,-7.623361005718225,7.751046955287091,-8.266734937447307,7.782756272665145,-8.894508829804984,7.793569431260773,-9.50667025312141,7.783733690923739,-10.103242748085059,7.753611357436117,-10.684284642571548,7.703677784548571,-11.249887857912476,7.6345189997991,-11.800176704325633,7.546828977263138,-12.335306665227705,7.44140658038374,-12.85546317015082,7.319152198030748,-13.36086035598414,7.18106409693776,-13.85173981626166,7.0282345136657,-14.32836933821757,6.861845509241785,-14.791041627330383,6.683164609622821,-15.240073019076988,6.49354025513148,-15.675802177618003,6.29439708201458,-16.098588781135575,6.087231059272014,-16.508812193544827,5.873604503905252,-16.90687012230037,5.6551409977342555,-17.293704459863743,5.43055227316067,-17.670065352679995,5.197922091389421,-18.036077941046322,4.957976222632215,-18.39187020392847,4.7114396712400595,-18.737572996294734,4.459033575414377,-19.07332008644999,4.201472106918162,-19.399248193369754,3.939459370787141,-19.715497024034256,3.673686305040892,-20.022209310762417,3.4048275803940182,-20.31953084854595,3.133538499967278,-20.607610532383372,2.860451898998737,-20.886600394614074,2.5861750445549125,-21.156655642252332,2.311286535241922,-21.417934694321385,2.0363332009166246,-21.670599219187444,1.7618270023977782,-21.914814171893767,1.4882419311771686,-22.150747831494687,1.216010909130775,-22.378571838389654,0.9455226882299046,-22.598461231657268,0.677118750252343,-22.81059448638938,0.41109020649349226,-23.015153551025058,0.14767469747753736,-23.212323884684654,-0.11294670733143519,-23.402294494503895,-0.3706526098182623,-23.58525797296787,-0.6253843835055779" fill="none" stroke="black" stroke-width="2.2222222222222223" stroke-linejoin="round" filter="url(#fuzzy)"></polyline><!--[--><circle r="3.4119879810233043" cx="-5.879626116579143" cy="-4.057162096818837" stroke="black" fill="none" stroke-width="1" filter="url(#fuzzy)" clip-path="url(#leftEyeClipPath)"></circle><circle r="4.304222974288793" cx="-2.9963526052404617" cy="-1.0603014056385454" stroke="black" fill="none" stroke-width="1" filter="url(#fuzzy)" clip-path="url(#leftEyeClipPath)"></circle><circle r="3.036486877996041" cx="-3.516927243916803" cy="-3.282417029681247" stroke="black" fill="none" stroke-width="1" filter="url(#fuzzy)" clip-path="url(#leftEyeClipPath)"></circle><circle r="3.9385277228805697" cx="-5.485633048582397" cy="-2.387553387376603" stroke="black" fill="none" stroke-width="1" filter="url(#fuzzy)" clip-path="url(#leftEyeClipPath)"></circle><circle r="4.33842308488664" cx="-5.735189440339644" cy="-3.35662597449917" stroke="black" fill="none" stroke-width="1" filter="url(#fuzzy)" clip-path="url(#leftEyeClipPath)"></circle><circle r="4.698434621699137" cx="-3.0789210194304415" cy="-2.7499346343575986" stroke="black" fill="none" stroke-width="1" filter="url(#fuzzy)" clip-path="url(#leftEyeClipPath)"></circle><circle r="4.435327146518116" cx="-3.890993858660412" cy="-3.7022189365017204" stroke="black" fill="none" stroke-width="1" filter="url(#fuzzy)" clip-path="url(#leftEyeClipPath)"></circle><circle r="4.313398290832911" cx="-2.396714527091043" cy="-1.5279627336188" stroke="black" fill="none" stroke-width="1" filter="url(#fuzzy)" clip-path="url(#leftEyeClipPath)"></circle><circle r="3.010554036994299" cx="-2.812039062178392" cy="-0.20435065347550596" stroke="black" fill="none" stroke-width="1" filter="url(#fuzzy)" clip-path="url(#leftEyeClipPath)"></circle><circle r="4.89663762268534" cx="-4.1222025726774145" cy="-4.444508667783912" stroke="black" fill="none" stroke-width="1" filter="url(#fuzzy)" clip-path="url(#leftEyeClipPath)"></circle><!--]--></g><g id="hairs"><!--[--><polyline points="-30,-71,6.747135809589476,-67.98705383566444,21.356180930749073,-64.56938012235229,29.39400733991113,-59.685912071997926,30.625018291113097,-55.71433255453879,24.93914895487897,-53.845660335242094,15.420565248781614,-53.96357749278117,6.644631677228071,-55.21990127202147,1.9552796098657537,-56.67866772198735,1.9670188989667448,-57.79385420540648,4.796619897248546,-58.572042198448344,7.430834718708153,-59.403575234759735,7.374873211240201,-60.704214298184894,3.8524353270725196,-62.58639181997838,-1.913124488119479,-64.72482671866632,-7.384014590909354,-66.45965842462638,-9.91299378163432,-67.08530068202177,-7.832244438102665,-66.21470106080487,-1.1602753997452548,-64.02190777351115,7.847514457037932,-61.06595548418171,14.550059479469919,-57.51369209874648,14.512317487775931,-52.1714045738113,14.208847669008245,-42.315921217696484,61,-23" fill="none" stroke="rgb(0, 0, 0)" stroke-width="2" stroke-linejoin="round" filter="url(#fuzzy)"></polyline><polyline points="26,-70,-1.3642114133035392,-62.391268541760226,7.0587462476103475,-63.89783573729902,15.654335239617199,-66.54862161055293,18.302324500801966,-68.76568939587457,16.68572638778287,-69.9664675945763,13.671025193356574,-69.73545661352419,11.223927245747195,-68.14035576541194,9.789268162811968,-65.83187090043441,8.668772728314673,-63.69551720653671,7.053472130205226,-62.33696035800593,4.950048837067576,-61.792174822043336,3.355723411156239,-61.656655608287295,3.6190282035098873,-61.4991439706817,6.462491323193514,-61.20723701271008,11.315559932719468,-60.979791635105556,16.375178263484344,-61.0109271931272,19.32197896083303,-61.248009793608425,18.23685805934771,-61.59300426223977,12.479519673534806,-62.392455127755085,3.965870804781657,-64.430636163054,-1.4739984028955897,-67.96751547704653,1.823682002235783,-72.47239048823398,-4,-80" fill="none" stroke="rgb(0, 0, 0)" stroke-width="2" stroke-linejoin="round" filter="url(#fuzzy)"></polyline><polyline points="-37,-65,5.216846413472328,-58.96822203766738,9.631118944179466,-64.52989434187828,12.345021192838493,-67.08597637996174,17.085200617605214,-66.72318483085508,20.299144381516065,-66.03781854483022,20.19683521952296,-66.05123432952982,17.96309847399238,-66.1699408253021,16.284452505154533,-65.38880979824228,17.320045471191406,-63.31251525878906,21.16989344360473,-60.5002813055043,25.698618260381842,-58.068366817350714,27.98449946461143,-56.78258313540047,26.67290209670425,-56.19610605406342,23.85683495152455,-54.550455421236826,24.938319572482744,-49.97305399479053,34.64840957111187,-42.99423134707806,48.34597239311385,-39.20414257595324,49,-47" fill="none" stroke="rgb(0, 0, 0)" stroke-width="2" stroke-linejoin="round" filter="url(#fuzzy)"></polyline><polyline points="-6,-79,3.6487608807503036,-75.11527786422654,-4.729900162300034,-72.79503824843779,-11.7196457641503,-72.27398129627176,-12.650091847212146,-73.15917134710561,-9.237368634427025,-73.76286829461138,-4.0930764634908146,-72.84296316863104,0.8068018524745467,-70.34587989282487,4.016146144911356,-67.22632395410906,4.600032806396484,-64.7732925415039,2.527619776856787,-63.86365038192298,-1.1287175220071393,-64.53291938238729,-4.616396532399193,-66.04663533683166,-6.156155877245643,-67.32893368627535,-4.278822141389482,-67.33772402104714,1.5906924775666023,-64.94425520610362,8.646338920875547,-58.57155855458526,4.656579974035598,-48.536506091706926,-49,-51" fill="none" stroke="rgb(0, 0, 0)" stroke-width="2" stroke-linejoin="round" filter="url(#fuzzy)"></polyline><polyline points="-18,-77,-4.305238944996578,-73.08881854008983,-9.62541329391932,-71.81487400108725,-10.947851545090304,-70.9751848079169,-6.604071936803339,-70.19375576136657,-1.474132369741789,-69.6635678542187,0.37190615913414005,-69.44819951133209,-1.330470747009556,-69.57693727335962,-3.716609422899209,-70.00291659720259,-3.2514233020101995,-70.28170975109019,2.0882491751217462,-69.46130160241225,11.929753997463258,-66.57114672462892,23.773231609997325,-61.572559973470604,33.83207425332932,-56.13903756173945,38.28341858358022,-53.33540737876082,35.64757264306824,-55.12560839628401,32.150633877966676,-56.79001611412736,54,-38" fill="none" stroke="rgb(0, 0, 0)" stroke-width="2" stroke-linejoin="round" filter="url(#fuzzy)"></polyline><polyline points="-7,-79,-12.967936514858328,-67.44618880874435,-3.697347597031054,-66.89449802767655,-2.3108530948014088,-68.64126761782482,-3.9924049077206454,-70.15234996069405,-2.2275197685788943,-70.77709194156745,3.750167793401857,-70.47840628057703,10.54620292464416,-69.55458013806815,14.329447260242825,-68.3042285870958,13.311394354233348,-66.69498112678298,8.447732987606656,-64.34758793823113,3.047571116154987,-60.911945719323924,1.2170834601902085,-56.874612686815226,4.299415417792733,-54.741951499450025,9.588655438500515,-58.462951320498036,36,-62" fill="none" stroke="rgb(0, 0, 0)" stroke-width="2" stroke-linejoin="round" filter="url(#fuzzy)"></polyline><polyline points="-6,-80,-1.0577736546549605,-71.15366511190648,1.4069742206611529,-65.4085177494977,8.791057646010872,-64.58705800672149,15.770295037167429,-65.59959769088,19.247802208048896,-66.58310093737867,18.188192640728182,-67.41778506300477,12.987232163158556,-68.44372389726473,5.195284565366516,-69.60304142283937,-3.019693282669167,-70.41655205378169,-9.618234437636021,-70.35336479250145,-13.367982278786002,-69.16548599478828,-14.255888661855455,-67.0525348397241,-13.442122194945789,-64.65246069086612,-12.570392681031922,-62.79492404287222,-12.518135844271857,-61.969756253674525,-12.200287268398325,-61.753233533968114,-8.43717953049709,-60.814695045737174,2.253921547274436,-58.01926126191648,19.90692669902317,-53.965872214969444,38.09109011602311,-49.733399477145085,56,-34" fill="none" stroke="rgb(0, 0, 0)" stroke-width="2" stroke-linejoin="round" filter="url(#fuzzy)"></polyline><polyline points="-12,-79,-27.148540848788045,-65.58175140333894,-19.724072920287146,-62.40775392104232,-7.558415880441358,-63.81501939209288,1.8838078521365393,-64.956651466198,8.149843222816502,-64.58000999738107,12.183709615456245,-63.562726925007844,14.510729509775256,-62.88407422370232,15.348022233413324,-62.69559691098823,15.163268637528505,-62.429637116563306,14.906409605436588,-61.38768162107618,15.598978231512149,-59.33693308691208,17.560107588768005,-56.79541128873825,19.99075252357005,-54.83262772392804,21.464802355271683,-54.44501501897003,21.110888360434032,-55.855779958406075,19.51522135257546,-58.245676095345885,18.35560764634948,-60.241219954951525,18.72848929651709,-60.96002857193083,19.51477121818324,-60.82496360133689,17.837152374473757,-61.22328792783132,12.600792482322586,-62.9079487765063,8.823019364001222,-64.84010010303388,15.174525593722784,-66.56334771218202,19,-74" fill="none" stroke="rgb(0, 0, 0)" stroke-width="2" stroke-linejoin="round" filter="url(#fuzzy)"></polyline><polyline points="42,-56,10.469509524473997,-49.78025444195256,18.922049549430724,-49.11123261300164,23.003282575397133,-53.41868258176611,20.287411874445173,-58.05803383419336,16.596710045757646,-60.5458587586829,14.746452553274397,-61.25409911878262,14.049193317885159,-61.75331830396746,13.120601181417625,-63.0742290834013,11.627044740720102,-65.12409792365642,10.095107152825925,-67.1655193058545,8.934576034545898,-68.55925631523132,7.932987161484165,-69.11514501232594,6.5821542272774165,-68.9492909331765,4.7509319634641995,-68.1824574155358,2.9403700330166624,-66.8622130307107,1.7396846381654754,-65.18598672290095,1.0107767229697626,-63.71190572612472,0.16118146667497027,-63.149561573552724,0.21139961130868945,-63.7643284049375,4.778486064741755,-65.15623320092251,12.165426123903387,-67.72535494266873,-6,-80" fill="none" stroke="rgb(0, 0, 0)" stroke-width="2" stroke-linejoin="round" filter="url(#fuzzy)"></polyline><polyline points="-25,-74,-23.10963747557722,-70.05055843829408,-5.305899162310419,-68.38285040384659,11.338117447438187,-65.84463179836669,19.39405348122083,-64.65739456946282,19.213447292538238,-65.19527984756817,15.290293810855335,-66.11910166997195,12.48221920781351,-66.15253086965969,13.419291672461366,-64.98965734260348,17.890885122433875,-63.11896244224346,23.92618698413758,-61.19921599806361,29.399772904921743,-59.60595482028405,33.00468664070475,-58.39833023775863,34.21235187853324,-57.58036152507514,32.679176621202664,-57.353263560157814,27.90602430178065,-58.09842649202521,19.745820537816265,-59.97619945076802,9.782501784267998,-62.23814748155332,2.788695635668911,-62.80169922517809,6.523403075877864,-59.26595653525823,26.874018833250478,-52.117342319414306,49,-47" fill="none" stroke="rgb(0, 0, 0)" stroke-width="2" stroke-linejoin="round" filter="url(#fuzzy)"></polyline><polyline points="11,-78,14.412357230746876,-73.19597450071606,19.233602833228495,-67.58433227109177,21.606043796038136,-64.17018069866754,21.897499873978543,-62.512150619649674,20.425022305189817,-61.72569275756096,17.305467847371762,-61.23558825258816,12.50950442129232,-61.10060400158095,6.558781829111631,-61.58317221220278,0.8920352814068118,-62.55710537527112,-2.634978908698368,-63.36630296737327,-2.6642889581332927,-63.21006359676934,0.9662392735481262,-61.70466011762619,6.995710504666879,-59.19401376190031,12.988023711592186,-56.59529101579175,16.08018711572172,-54.88777120309004,14.218385241421629,-54.580826670595194,7.538052345881866,-55.488303419692535,-0.9040959459377227,-56.9056141277674,-5.999175740188794,-58.022135687972266,-3.580417050047631,-58.34975470605133,5.071122487021631,-58.157292067808775,9.765826006940653,-58.91850126228537,-5.536362983879213,-62.18019441869642,-44,-58" fill="none" stroke="rgb(0, 0, 0)" stroke-width="2" stroke-linejoin="round" filter="url(#fuzzy)"></polyline><polyline points="30,-68,15.184886055484318,-68.81744339669625,18.486995007331466,-63.60448881207981,18.1051304264919,-60.33702855057238,14.460310066426942,-60.31038505155832,10.256869182882854,-62.83919755667687,6.643033744027701,-66.54877945618131,3.7688760119363907,-69.98498601429735,1.54704292765895,-72.1236486247074,0.002600396810428119,-72.59144947627804,-0.6546381592278913,-71.5423754707913,-0.10683035850524902,-69.34442448616028,1.8913041880253203,-66.30095147300939,5.242921667818646,-62.58537646253757,9.206454058585164,-58.43793695135111,12.200702686437978,-54.4875258475763,11.983681031124714,-51.89193962744477,6.590478814360043,-51.96164038953133,-3.846344527986562,-55.202095584582864,-15.491107358087989,-60.35262024750859,-21.95340561539276,-64.7313571565322,-17.823101803825555,-67.40093307105812,11,-78" fill="none" stroke="rgb(0, 0, 0)" stroke-width="2" stroke-linejoin="round" filter="url(#fuzzy)"></polyline><polyline points="14,-76,22.682218240678115,-56.26502402680322,3.075168551326577,-57.20935781027192,-10.771496377373868,-60.317754043063566,-12.712828329298645,-63.66523529263213,-7.787421156563711,-67.04203305157786,-1.8200457242854569,-69.84409601737953,2.613032344391099,-71.3215473362872,6.259368896484375,-70.72732543945312,11.310651718225962,-67.60115997248151,18.871342622461405,-62.469016877286045,27.10515312809311,-57.409088022278645,31.373136618640274,-55.51343629928306,26.701753271812795,-58.90402663316315,11.30028871243271,-66.35809119992399,-10.755181549097383,-72.64080084947645,-28,-72" fill="none" stroke="rgb(0, 0, 0)" stroke-width="2" stroke-linejoin="round" filter="url(#fuzzy)"></polyline><polyline points="-37,-65,-35.92040876098575,-58.766635864558424,-21.338011099672133,-57.32242582854987,-8.736702818957657,-58.55452672880046,-0.6546720950223799,-60.271334611561294,5.727031069556942,-60.21251789790832,11.68366192682185,-58.18266911536531,16.624808105526252,-55.68609947402547,20.153797353592097,-54.25014243202379,22.883182525634766,-54.39613342285156,25.46681839446644,-55.832145358228445,27.502514408801094,-58.133597380344646,27.81627314243569,-61.00346954288213,25.861861074318494,-63.97300562573737,22.631611367011253,-66.18958905993702,20.207102188016727,-66.79074917595528,21.409301850913664,-65.04649418685862,31.359163081888788,-58.379459701735975,53,-40" fill="none" stroke="rgb(0, 0, 0)" stroke-width="2" stroke-linejoin="round" filter="url(#fuzzy)"></polyline><!--]--></g><g id="pointNose"><g id="rightNose"><!--[--><circle r="1.5427523451919891" cx="7.931831880154785" cy="5.3936980350919885" stroke="black" fill="none" stroke-width="1" filter="url(#fuzzy)"></circle><circle r="2.1909912501700397" cx="10.89603809794211" cy="2.3728559636935476" stroke="black" fill="none" stroke-width="1" filter="url(#fuzzy)"></circle><circle r="2.070396853858707" cx="10.379999404588828" cy="4.152836829212631" stroke="black" fill="none" stroke-width="1" filter="url(#fuzzy)"></circle><circle r="1.3007230507934864" cx="9.76754859293133" cy="3.667995452916564" stroke="black" fill="none" stroke-width="1" filter="url(#fuzzy)"></circle><circle r="2.770260885579454" cx="7.795421039229662" cy="3.4135893715186363" stroke="black" fill="none" stroke-width="1" filter="url(#fuzzy)"></circle><circle r="2.09374757468058" cx="11.073707553534248" cy="5.532889929274868" stroke="black" fill="none" stroke-width="1" filter="url(#fuzzy)"></circle><circle r="2.160746699279956" cx="7.313907481542834" cy="2.978215355022992" stroke="black" fill="none" stroke-width="1" filter="url(#fuzzy)"></circle><circle r="2.6294758188863696" cx="8.888142911499715" cy="1.829155753904701" stroke="black" fill="none" stroke-width="1" filter="url(#fuzzy)"></circle><circle r="2.9551388278310267" cx="10.329212633265609" cy="4.280615289534397" stroke="black" fill="none" stroke-width="1" filter="url(#fuzzy)"></circle><circle r="1.176206690069845" cx="11.115093588009929" cy="5.345555096832619" stroke="black" fill="none" stroke-width="1" filter="url(#fuzzy)"></circle><!--]--></g><g id="leftNose"><!--[--><circle r="2.2055731516009844" cx="-7.160051113076207" cy="4.820440892760808" stroke="black" fill="none" stroke-width="1" filter="url(#fuzzy)"></circle><circle r="2.022171179427535" cx="-7.19353457121856" cy="3.7027932904267784" stroke="black" fill="none" stroke-width="1" filter="url(#fuzzy)"></circle><circle r="1.5385436362198757" cx="-6.180513551419942" cy="6.627686925291991" stroke="black" fill="none" stroke-width="1" filter="url(#fuzzy)"></circle><circle r="1.105933759726461" cx="-8.708489465377852" cy="6.577366523857545" stroke="black" fill="none" stroke-width="1" filter="url(#fuzzy)"></circle><circle r="1.1145943500909223" cx="-6.970451446347266" cy="6.2723738277054455" stroke="black" fill="none" stroke-width="1" filter="url(#fuzzy)"></circle><circle r="1.0849468505782511" cx="-6.826939933772414" cy="5.120564140599341" stroke="black" fill="none" stroke-width="1" filter="url(#fuzzy)"></circle><circle r="2.0029774921857744" cx="-7.7426203925589725" cy="3.844319081088564" stroke="black" fill="none" stroke-width="1" filter="url(#fuzzy)"></circle><circle r="2.4998617692378344" cx="-8.426799550136518" cy="6.540681394596481" stroke="black" fill="none" stroke-width="1" filter="url(#fuzzy)"></circle><circle r="1.5239918778484556" cx="-6.542421156075573" cy="6.548059957732804" stroke="black" fill="none" stroke-width="1" filter="url(#fuzzy)"></circle><circle r="1.0074431984961325" cx="-6.219015371711565" cy="5.83365476848988" stroke="black" fill="none" stroke-width="1" filter="url(#fuzzy)"></circle><!--]--></g></g><g id="mouth"><polyline points="-44.86288288004743,25.70531553746702,-43.592951944987156,27.49137602179859,-42.335988794253616,29.243036039791527,-41.09185353944306,30.960243601762933,-39.860406292151744,32.64294671802988,-38.641507163975916,34.29109339890948,-37.43501626651183,35.904631654718784,-36.240793711355735,37.483509495774925,-35.05869961010391,39.02767493239496,-33.88859407435255,40.537075974896,-32.730337215697936,42.0116606335951,-31.583789145736322,43.45137691880936,-30.44880997606397,44.8561728408559,-29.325259818277104,46.225996410051756,-28.212998783972,47.56079563671406,-27.11188698474489,48.86051853115988,-26.02178453219204,50.12511310370631,-24.942551537909704,51.354527364670446,-23.87404811349411,52.54870932436936,-22.816134370541537,53.707606993120145,-21.768670420648228,54.83116838123989,-20.731516375410422,55.91934149904568,-19.704532346424383,56.97207435685461,-18.68757844528636,57.98931496498378,-17.680514783592603,58.97101133375023,-16.68320147293937,59.917111473471124,-15.695498624922903,60.82756339446348,-14.717266351139454,61.70231510704441,-13.748364763185275,62.54131462153102,-12.788653972656624,63.344509948240386,-11.837994091149744,64.1118490974896,-10.896245230260895,64.84328007959571,-9.963267501586325,65.53875090487587,-9.038921016722279,66.19820958364711,-8.123065887265017,66.82160412622656,-7.215562224810787,67.4088825429313,-6.31627014095584,67.95999284407841,-5.425049747296429,68.47488303998499,-4.541761155428805,68.9535011409681,-3.6662644769492196,69.39579515734484,-2.7984198234539224,69.80171309943229,-1.938087306539169,70.1712029775476,-1.085127037801204,70.50421280200779,-0.23939912883628667,70.80069058312995,0.5992363087593375,71.06058433123121,1.4309191633894152,71.28384205662861,2.2557893234576953,71.4704117696393,3.073986677367923,71.62024148058029,3.885651113523851,71.73327919976875,4.690922520329228,71.80947293752168,5.489940786187796,71.84877070415624,6.2828457995033125,71.85112050998949,7.069777448679523,71.81647036533853,7.850875622120173,71.74476828052043,8.626280208229016,71.6359622658523,9.396131095409794,71.49000033165119,10.160568172066263,71.30683048823425,10.919731326602168,71.08640074591852,11.673760447421255,70.8286591150211,12.422795422927278,70.53355360585908,13.16697614152398,70.20103222874954,13.906442491615117,69.8310429940096,14.641334361604427,69.42353391195628,15.371791639895667,68.97845299290675,16.09795421489258,68.49574824717804,16.819961974998925,67.97536768508728,17.537954808618437,67.41725931695152,18.252072604154872,66.82137115308784,18.962455250011978,66.18765120381339,19.669242634593502,65.5160474794452,20.372574646303192,64.80650799030039,21.0725911735448,64.05898074669604,21.76943210472207,63.273413758949225,22.463237328238755,62.449755037377045,23.154146732498603,61.58795259229659,23.84230020590536,60.68795443402494,24.527837636862778,59.74970857287919,25.210898913774596,58.77316301917643,25.891623925044573,57.75826578323374,26.57015255907646,56.70496487536822,27.24662470427399,55.61320830589695,27.92118024904093,54.48294408513699,28.593959081781012,53.314120223405496,29.265101090898,52.1066847310195,29.934746164795637,50.86058561829611,30.603034191877665,49.57577089555241,31.270105060547838,48.252188573105485,31.936098659209904,46.88978666127243,32.601154876267614,45.48851317037034,33.26541360012471,44.04831611071628,33.92901471918495,42.56914349262736,34.59209812185207,41.05094332642066,35.25480369652983,39.493663622413266,35.917271331621976,37.89725239092227,36.579640915532245,36.26165764226476,37.24205233666441,34.58682738675782,37.90464548342219,32.87270963471855,38.56756024420936,31.11925239646402,39.230936507429654,29.326403682311327,39.894914161486824,27.49411150257756,40.55963309478457,25.622323867579937,39.894914161486774,27.494111502577685,39.23093650742961,29.326403682311437,38.56756024420932,31.11925239646413,37.904645483422144,32.87270963471865,37.24205233666436,34.58682738675793,36.5796409155322,36.261657642264865,35.917271331621926,37.89725239092236,35.25480369652979,39.493663622413365,34.59209812185203,41.05094332642076,33.92901471918491,42.569143492627454,33.265413600124674,44.04831611071636,32.60115487626757,45.48851317037042,31.93609865920986,46.8897866612725,31.2701050605478,48.252188573105556,30.603034191877622,49.575770895552466,29.934746164795595,50.86058561829616,29.265101090897964,52.10668473101957,28.59395908178098,53.31412022340555,27.92118024904089,54.48294408513706,27.246624704273955,55.61320830589699,26.570152559076416,56.70496487536827,25.891623925044538,57.758265783233796,25.210898913774557,58.77316301917648,24.52783763686273,59.74970857287924,23.84230020590533,60.68795443402499,23.15414673249857,61.58795259229664,22.463237328238726,62.449755037377095,21.76943210472204,63.27341375894928,21.072591173544765,64.0589807466961,20.37257464630316,64.80650799030043,19.669242634593473,65.51604747944525,18.962455250011946,66.18765120381345,18.25207260415484,66.82137115308788,17.53795480861841,67.41725931695154,16.81996197499889,67.9753676850873,16.09795421489255,68.49574824717808,15.371791639895632,68.97845299290678,14.641334361604397,69.42353391195633,13.906442491615081,69.83104299400962,13.166976141523946,70.20103222874957,12.422795422927244,70.5335536058591,11.673760447421222,70.82865911502113,10.919731326602133,71.08640074591854,10.160568172066228,71.30683048823427,9.39613109540976,71.49000033165123,8.62628020822898,71.63596226585233,7.850875622120138,71.74476828052046,7.0697774486794875,71.81647036533853,6.282845799503275,71.8511205099895,5.489940786187762,71.84877070415624,4.690922520329191,71.80947293752168,3.8856511135238128,71.73327919976872,3.073986677367884,71.62024148058029,2.2557893234576545,71.47041176963927,1.430919163389376,71.28384205662859,0.5992363087592985,71.06058433123118,-0.2393991288363253,70.80069058312993,-1.0851270378012439,70.50421280200774,-1.9380873065392077,70.17120297754758,-2.798419823453963,69.80171309943229,-3.6662644769492605,69.3957951573448,-4.541761155428847,68.95350114096806,-5.425049747296473,68.47488303998495,-6.316270140955883,67.95999284407839,-7.21556222481083,67.40888254293127,-8.12306588726506,66.82160412622653,-9.038921016722323,66.19820958364708,-9.963267501586365,65.53875090487581,-10.896245230260938,64.84328007959567,-11.83799409114979,64.11184909748954,-12.788653972656668,63.34450994824033,-13.748364763185322,62.54131462153099,-14.717266351139497,61.70231510704436,-15.695498624922946,60.827563394463425,-16.68320147293942,59.91711147347107,-17.68051478359266,58.9710113337502,-18.687578445286412,57.98931496498373,-19.70453234642444,56.97207435685456,-20.73151637541048,55.91934149904563,-21.76867042064828,54.831168381239834,-22.816134370541594,53.70760699312008,-23.87404811349417,52.5487093243693,-24.94255153790976,51.35452736467038,-26.021784532192104,50.12511310370626,-27.111886984744952,48.860518531159826,-28.212998783972058,47.560795636714,-29.325259818277168,46.22599641005169,-30.448809976064027,44.85617284085582,-31.583789145736386,43.45137691880929,-32.73033721569801,42.011660633595014,-33.88859407435261,40.5370759748959,-35.058699610103965,39.02767493239487,-36.24079371135582,37.48350949577483,-37.435016266511916,35.9046316547187,-38.641507163975994,34.291093398909375,-39.86040629215182,32.642946718029776,-41.09185353944314,30.960243601762823,-42.3359887942537,29.24303603979142,-43.59295194498724,27.49137602179847" fill="rgb(215,127,140)" stroke="black" stroke-width="3" stroke-linejoin="round" filter="url(#fuzzy)"></polyline></g></svg>