<svg viewBox="-100 -100 200 200" xmlns="http://www.w3.org/2000/svg" width="400" height="400" id="face-svg"><defs><clipPath id="leftEyeClipPath"><polyline points="25.238813693497296,-0.419598039852082,25.169083627885858,-0.48723267072250764,25.065145972311132,-0.553946826707868,24.92721749372762,-0.619678485389912,24.75557401038996,-0.6843680494296901,24.5505482498948,-0.747958320179276,24.312527707222817,-0.810394471293487,24.041952502780656,-0.8716240223416055,23.73931324044285,-0.9315968124190989,23.405148865593812,-0.990264973759342,23.04004452316978,-1.0475829053453376,22.64462941570073,-1.1035072465214362,22.2195746613524,-1.1579968506050595,21.76559115196817,-1.2110127584984198,21.283427411111067,-1.2625181723002405,20.773867452105687,-1.312478428917479,20.302865534697116,-1.3742664301295182,19.786818233943226,-1.434221838727852,19.22660066685156,-1.4922052353112876,18.62335104721942,-1.548084879952198,17.978447198156182,-1.6017368434483736,17.293483895930475,-1.6530451179452261,16.570251032102792,-1.7019017074346259,15.81071258090463,-1.7482066986366314,15.01698635882475,-1.7918683127703972,14.19132456336364,-1.8328029387205271,13.33609507791671,-1.8709351481051426,12.45376352974735,-1.9061976927519448,11.546876088010494,-1.938531485088539,10.61804298878757,-1.967885561953298,9.669922774093642,-1.99421703233303,8.705207231817685,-2.017491009533735,7.726607023556644,-2.0376805282907093,6.736837987304286,-2.0547664473242815,5.738608101955531,-2.068737337847448,4.734605100587213,-2.0795893585316807,3.7274847194759975,-2.0873261174371804,2.719859569814364,-2.091958521413849,1.7142886190854454,-2.0935046134792534,0.7132672690575602,-2.0919893986798517,-0.2807819826407132,-2.0874446589417563,-1.2655183104041154,-2.0799087574173076,-2.2386907710321,-2.0694264328337293,-3.1981459696471886,-2.0560485843501346,-4.141835194189495,-2.039832047429169,-5.067821031526542,-2.0208393612295437,-5.974283478217603,-1.999138528025746,-6.859525558971658,-1.9748027651611961,-7.721978465838202,-1.9479102500411232,-8.560206231170032,-1.918543858671427,-9.372909947397225,-1.8867908982498118,-10.158931546651402,-1.852742834315448,-10.91725715327954,-1.816495012963451,-11.647020022286428,-1.7781463786304372,-12.347503076744971,-1.7377991879574375,-13.018141057213509,-1.6955587202364346,-13.658522296199294,-1.651532984946806,-14.26839013070736,-1.6058324268879343,-14.84764396591384,-1.55856962941427,-15.396340003003028,-1.5098590162791043,-15.914691644207283,-1.4598165525933426,-16.403069588088933,-1.408559445405531,-16.862001628103407,-1.3562058444094305,-17.2921721674827,-1.3028745432853945,-17.694421463478374,-1.2486846821818274,-18.069744614003305,-1.193755451843003,-18.418405776415792,-1.137926858260855,-18.740007386175797,-1.080992696814686,-19.0346965102148,-1.0230021976671564,-19.302657688540666,-0.9640038619022085,-19.544111187920283,-0.9040453937206868,-19.759311255562295,-0.8431736326359482,-19.948544372799823,-0.7814344856694847,-20.112127508773145,-0.7188728595465332,-20.25040637411237,-0.655532592891698,-20.363753674620227,-0.5914563884245625,-20.452567364954653,-0.5266857451553072,-20.51726890231161,-0.46126089058032627,-20.55830150010769,-0.395220712877843,-20.57612838166289,-0.32860269310352636,-22.96764871953395,0.4272712686976299,-22.548674189565475,0.4744943370132402,-22.119014871154892,0.5222185688305084,-21.67874633248695,0.5704086303635906,-21.227966545409217,0.6190255374639068,-20.766794742028633,0.6680267553299083,-20.295370271308222,0.7173662982168444,-19.81385145566358,0.7669948291465288,-19.32241444755961,0.8168597596171053,-18.821252086107037,0.8669053493128182,-18.310572753659084,0.9170728058137722,-17.790599232408056,0.9673003843057054,-17.261567560981955,1.0175234872897532,-16.723725891041095,1.0676747642922129,-16.177333343874725,1.117684211574315,-15.620758170269971,1.1677288479597578,-15.052426157652013,1.2179501846534562,-14.472704388371033,1.2682189044066297,-13.881977522067666,1.318400579982225,-13.280646219067304,1.368356166177568,-12.669125543078328,1.4179425027007042,-12.047843351731595,1.467012827155909,-11.41723868349856,1.5154172973938809,-10.777760149525545,1.5630035224821102,-10.129864338921447,1.6096171015509273,-9.474014246036392,1.6551021697707364,-8.810677728268718,1.6993019507159168,-8.140326002937654,1.742059314370917,-7.463432191759192,1.7832173400340205,-6.7804699214624895,1.8226198833742995,-6.091911989084245,1.860112146897246,-5.3982291004784635,1.8955412530745859,-4.699888690579013,1.9287568193937719,-3.997353833952395,1.9596115345826695,-3.2910822541781144,1.987961735264912,-2.581525440594105,2.013667982301453,-1.8691278809445713,2.0365956360737902,-1.154326418467715,2.056615429964383,-0.43754974196069396,2.0736040412897494,0.2807819826407132,2.0874446589417563,1.0002573306303661,2.098027546992578,1.7204736783105128,2.105250603518863,2.441037095643634,2.109019913900569,3.161562063239956,2.109250297849996,3.8816710051432164,2.1058658494265003,4.600993628877296,2.0988004692924,5.31916606421629,2.0879983884655657,6.03582979214057,2.073414682824203,6.750630355441523,2.055015777619319,7.463215842437423,2.0327799412503826,8.173235135263146,2.0066977675596744,8.88033591419624,1.9767726459008217,9.58416240948196,1.943021218237031,10.284352892119857,1.9054738225245051,10.980536895074527,1.8641749216365562,11.672332156373066,1.8191835170839097,12.359341275551873,1.770573546786697,13.041148074915304,1.7184342661536434,13.7173136570689,1.6628706117239527,14.387372150189625,1.6040035466273759,15.05082613249582,1.541970387117984,15.707141727379389,1.476925109437126,16.355743360662856,1.4090386362610894,16.99600817144383,1.3384991019889494,17.627260067989518,1.2655120961261175,18.16356383327315,1.2102364114922906,18.691085030970406,1.153244516689159,19.20919887487504,1.0946133883517049,19.717245777495744,1.0344252561094183,20.214530408007438,0.9727677124448489,20.700320750202625,0.9097338225521551,21.173847160442715,0.8454222341956609,21.63430142560936,0.7799372875684046,22.080835821055782,0.713389125150692,22.512562168558116,0.6458938015686492,22.92855089426673,0.577573393452773,23.327830086657567,0.508556109296485,23.70938455448348,0.43897639931468235,24.072154884725563,0.36897506530229063,24.41503650054445,0.29869937049281625"></polyline></clipPath><clipPath id="rightEyeClipPath"><polyline points="-27.0570645807436,-0.5142392267934142,-27.036530567412953,-0.5795209172452049,-26.98175390944287,-0.6447064349961366,-26.892913504399708,-0.7096318668838857,-26.77024585853851,-0.7741411734171156,-26.614043037643604,-0.8380860375827184,-26.424650617869183,-0.9013257136530546,-26.20246563657993,-0.9637268759931972,-25.94793454319162,-1.0251634678681714,-25.661551150011682,-1.0855165502501973,-25.34385458307984,-1.1446741506259326,-24.995427233008662,-1.2025311118037116,-24.616892705824228,-1.2589889407207908,-24.208913773806664,-1.3139556572505866,-23.77219032633075,-1.36734564300992,-23.30745732070657,-1.4190794901662571,-22.887456676982616,-1.4893768552201052,-22.422198015656015,-1.5571021875520747,-21.91240097295852,-1.6220576096610722,-21.359040700999092,-1.684065134736546,-20.763325510547425,-1.742965970549719,-20.126675307760117,-1.7986198298408762,-19.450700812235162,-1.8509042472733837,-18.737183543780365,-1.899713903025096,-17.988056565281145,-1.944959953087824,-17.205385969053488,-1.986569366345533,-16.391353094067483,-2.0244842685019218,-15.548237461427124,-2.058661292928072,-14.678400415491927,-2.089070938500809,-13.784269458025976,-2.1156969345024637,-12.868323262759926,-2.138535612652685,-11.93307735775162,-2.157595286342975,-10.981070462930875,-2.1728956371446104,-10.014851470214053,-2.1844671086606295,-9.03696705357392,-2.192350307792525,-8.04994989645051,-2.1965954134923393,-7.056307523888463,-2.197261593070799,-6.0585117267865005,-2.1944164261321815,-5.058988565644591,-2.1881353362065603,-4.060108941194408,-2.1785010301501027,-3.064179719298651,-2.1656029453840935,-2.0734353975048467,-2.149536705043329,-1.0900303006391883,-2.1304035811045745,-0.1160312928260081,-2.108309965565736,0.8465890066815145,-2.0833668497464117,1.7959585164738303,-2.055689311780491,2.730311507375119,-2.0253960123714787,3.6479939508653665,-1.992608698881191,4.547468414148898,-1.9574517178225044,5.427318514483719,-1.9200515358268175,6.286252945386136,-1.880536269156894,7.123109087325012,-1.8390352218357513,7.93685621552011,-1.7956784324622614,8.726598317458919,-1.7505962297841335,9.491576532746379,-1.7039187970989385,10.231171227901921,-1.6557757455538475,10.944903718718207,-1.6062956964147461,11.632437652796051,-1.555605872375392,12.293580064869847,-1.503831697977287,12.92828211753796,-1.451096409210918,13.536639540012535,-1.3975206723690479,14.118892777503014,-1.3432222122227095,14.675426863847928,-1.2883154495905762,15.206771030009254,-1.2329111483723765,15.713598061043793,-1.1771160721170093,16.196723414166,-1.1210326501960393,16.65673625149087,-1.0645179088991399,17.09366672307375,-1.007396755774503,17.507624883272094,-0.9497186068997918,17.898755107332004,-0.8915310186669654,18.26723440195796,-0.8328796783180556,18.613270715882628,-0.7738083944809419,18.937101250436616,-0.7143590877051295,19.238990770118253,-0.6545717809975232,19.51922991316335,-0.5944845903582069,19.778133502114997,-0.5341337153162178,20.016038854393308,-0.4735534294653236,20.23330409286522,-0.4127760709997985,20.430306456414232,-0.3518320332502,20.60744061051022,-0.2907497552191448,22.459205643898542,0.6889240019144355,22.117486316557702,0.7360560571546602,21.766884851755176,0.7835331109497713,21.407486392755903,0.8313091118579843,21.039393560089326,0.8793341951986601,20.662724954927462,0.927554865610205,20.277613662463033,0.9759141796079747,19.884205755287486,1.0243519281421736,19.48265879676914,1.072804819155755,19.073140344431206,1.1212066601423276,18.655826453329922,1.1694885407040505,18.23090017943261,1.2175790151095387,17.798550082995764,1.2654042848517635,17.35896873194313,1.3128883812059522,16.912351205243795,1.3599533477874923,16.45717948132405,1.4068041610140172,15.992021877042664,1.4535964524403324,15.517195279669018,1.5001753301738734,15.03300413163495,1.5463842792844924,14.539739371017793,1.592065699457275,14.037677408119656,1.637061447209643,13.527079149317437,1.6812133813096235,13.008189079358472,1.7243639100321877,12.48123441327658,1.7663565388905718,11.946424329103243,1.8070364174794644,11.403949292548775,1.8462508840669811,10.853980484828154,1.8838500065723036,10.296669344806402,1.9196871185659061,9.732147236638188,1.953619348929257,9.160525254076525,1.985508143810905,8.581894172625258,2.0152197795158395,7.996324560710172,2.042625864965042,7.403867061043468,2.067603832362108,6.804552853356433,2.090037414703871,6.1983943096749785,2.109817108771894,5.585385853312957,2.12684062224176,4.965505032757914,2.141013303547042,4.338713821624152,2.152248553134866,3.7049601558477816,2.160468214749959,3.064179719298651,2.1656029453840935,2.4162979889838248,2.167592562527817,1.7612325510174573,2.166386367361377,1.0988956985318044,2.1619434425217348,0.42919732270418387,2.1542329230825867,-0.24795189192538514,2.1432342393842623,-0.9326369566710601,2.1289373303504284,-1.6249347412777664,2.111342825928496,-2.324909798682794,2.0904621972906154,-3.0326098407875577,2.0663178734321734,-3.748060854064769,2.038943322804694,-4.471261843826257,2.008383098620037,-5.202179195976633,1.9746928464628015,-5.9407406450780345,1.9379392728478317,-6.686828837551192,1.8982000733597244,-7.440274478837988,1.8555638190112473,-8.200849053350813,1.8101297994575591,-8.968257106033846,1.7620078217031374,-9.742128074361556,1.7113179629383188,-10.522007659599618,1.658190276142342,-11.307348726153474,1.6027644470898073,-12.09750171782975,1.545189401397444,-12.891704579835775,1.48562286024809,-13.689072175342373,1.424230843428788,-14.488585185435255,1.3611871183198911,-15.2890784812801,1.2966725934720886,-15.932436052800607,1.2444765219498841,-16.572335203917078,1.1909826367884848,-17.207923276603356,1.136251857961924,-17.838286143399674,1.0803474606787182,-18.462446440411306,1.0233350816630307,-19.079361800307197,0.9652827254358332,-19.687923085318623,0.9062607705960719,-20.286952620237848,0.846341976101829,-20.875202425416738,0.7856014875514858,-21.45135244976542,0.7241168434648881,-22.014008803750944,0.6619679815645068,-22.561701992395903,0.5992372450566036,-23.092885148277098,0.5360093889123927,-23.605932264524156,0.47237158614920527,-24.09913642781822,0.4084134341116527"></polyline></clipPath><filter id="fuzzy"><feTurbulence id="turbulence" baseFrequency="0.05" numOctaves="3" type="noise" result="noise"></feTurbulence><feDisplacementMap in="SourceGraphic" in2="noise" scale="2"></feDisplacementMap></filter><linearGradient id="rainbowGradient" x1="0%" y1="0%" x2="100%" y2="0%"><stop offset="0%" style="stop-color: rgb(0, 0, 0);  stop-opacity: 1"></stop><stop offset="50%" style="stop-color: rgb(148, 0, 211);  stop-opacity: 1"></stop><stop offset="100%" style="stop-color: rgb(230, 230, 250);  stop-opacity: 1"></stop></linearGradient></defs><title>That&#39;s an ugly face</title><desc>CREATED BY XUAN TANG, MORE INFO AT TXSTC55.GITHUB.IO</desc><rect x="-100" y="-100" width="100%" height="100%" opacity="1" fill="rgb(152, 251, 152)"></rect><polyline id="faceContour" points="64,1,64,1,64,2,63,4,64,5,63,7,63,8,63,8,63,10,63,12,62,14,62,14,62,15,61,16,61,18,61,17,60,21,60,23,60,23,60,22,59,25,59,26,59,25,58,28,57,30,58,29,56,33,56,34,55,35,56,35,55,36,54,37,53,39,53,40,52,41,53,40,51,44,51,43,51,44,50,46,49,46,49,46,49,47,48,49,47,50,47,51,46,52,45,53,44,54,43,54,43,56,42,56,41,57,40,59,40,59,40,58,38,61,38,61,38,61,37,61,34,64,35,63,33,64,33,65,31,66,32,66,30,67,31,67,28,68,28,69,27,69,25,70,25,70,25,70,24,70,22,71,22,72,21,72,20,72,20,72,18,73,17,73,15,74,15,74,15,74,14,74,12,74,13,75,11,75,9,75,9,75,8,75,9,75,7,75,5,75,5,75,4,75,3,75,1,75,0,75,0,75,-2,75,-3,75,-3,75,-5,75,-6,74,-6,74,-6,74,-6,74,-9,74,-9,74,-10,74,-11,73,-13,72,-13,72,-14,72,-13,72,-15,72,-16,71,-16,71,-19,70,-20,70,-21,69,-21,69,-21,69,-23,68,-24,67,-24,67,-27,66,-27,65,-28,65,-28,65,-29,64,-29,64,-30,63,-32,62,-33,61,-32,62,-35,59,-35,59,-34,60,-36,58,-38,56,-38,56,-38,57,-39,55,-39,55,-41,53,-42,53,-41,53,-43,51,-43,51,-44,50,-45,48,-45,48,-46,47,-47,46,-47,45,-47,45,-50,42,-50,42,-50,41,-50,41,-50,41,-52,38,-53,37,-53,35,-53,36,-54,35,-54,35,-55,32,-55,31,-56,30,-56,30,-57,28,-57,29,-57,27,-58,25,-58,25,-59,23,-59,23,-59,23,-60,20,-60,18,-60,18,-61,17,-61,17,-61,15,-62,13,-62,14,-62,12,-63,10,-63,9,-63,7,-63,7,-63,7,-64,5,-64,4,-64,3,-64,1,-64,1,-64,-1,-64,-3,-64,-5,-64,-4,-64,-5,-64,-7,-64,-7,-64,-8,-64,-9,-64,-10,-64,-11,-64,-14,-64,-14,-64,-16,-64,-18,-63,-19,-63,-20,-63,-19,-63,-21,-63,-22,-62,-25,-63,-22,-62,-26,-61,-27,-61,-28,-61,-27,-61,-31,-61,-30,-60,-31,-59,-34,-59,-34,-59,-35,-59,-34,-58,-36,-58,-38,-57,-38,-56,-41,-57,-39,-56,-42,-55,-43,-54,-45,-53,-45,-54,-45,-53,-47,-52,-47,-52,-48,-51,-49,-51,-49,-50,-50,-48,-52,-49,-51,-48,-53,-47,-54,-45,-55,-45,-56,-45,-56,-43,-58,-42,-58,-43,-58,-41,-59,-41,-59,-38,-61,-39,-61,-38,-62,-36,-63,-36,-63,-36,-63,-34,-65,-32,-65,-32,-66,-32,-66,-30,-67,-28,-67,-28,-68,-28,-68,-26,-68,-26,-68,-25,-69,-24,-70,-21,-71,-22,-71,-21,-71,-20,-71,-17,-72,-16,-72,-15,-73,-15,-73,-13,-73,-13,-73,-12,-74,-10,-74,-9,-74,-9,-74,-7,-74,-7,-75,-4,-75,-4,-75,-1,-75,-2,-75,0,-75,1,-75,3,-75,4,-75,5,-75,5,-75,9,-75,7,-75,9,-75,10,-75,11,-75,13,-75,15,-75,15,-74,16,-74,18,-74,17,-74,20,-73,19,-74,21,-73,21,-73,23,-73,24,-72,26,-72,27,-71,27,-71,29,-71,31,-70,30,-70,30,-70,31,-69,32,-69,34,-68,36,-67,36,-67,37,-66,37,-66,39,-65,39,-65,42,-63,41,-63,41,-63,43,-61,43,-61,44,-60,45,-60,47,-58,47,-57,47,-57,49,-56,48,-56,50,-55,51,-53,51,-53,51,-52,52,-52,53,-49,53,-50,54,-49,54,-48,56,-46,56,-46,57,-43,57,-43,57,-42,58,-41,59,-39,59,-39,59,-38,59,-38,60,-35,60,-36,60,-34,61,-33,61,-33,62,-29,62,-30,62,-28,62,-28,63,-25,63,-24,63,-23,63,-23,63,-22,63,-20,64,-19,64,-17,64,-15,64,-14,64,-14,64,-12,64,-11,64,-11,64,-8,64,-8,64,-5,64,-5,64,-5,64,-4,64,-1,64,1,64,1" fill="#ffc9a9" stroke="black" stroke-width="1.6666666666666665" stroke-linejoin="round" filter="url(#fuzzy)"></polyline><g transform="translate(28.564973199387058 -23.676685452017754)"><polyline id="rightCountour" points="-27.0570645807436,-0.5142392267934142,-27.036530567412953,-0.5795209172452049,-26.98175390944287,-0.6447064349961366,-26.892913504399708,-0.7096318668838857,-26.77024585853851,-0.7741411734171156,-26.614043037643604,-0.8380860375827184,-26.424650617869183,-0.9013257136530546,-26.20246563657993,-0.9637268759931972,-25.94793454319162,-1.0251634678681714,-25.661551150011682,-1.0855165502501973,-25.34385458307984,-1.1446741506259326,-24.995427233008662,-1.2025311118037116,-24.616892705824228,-1.2589889407207908,-24.208913773806664,-1.3139556572505866,-23.77219032633075,-1.36734564300992,-23.30745732070657,-1.4190794901662571,-22.887456676982616,-1.4893768552201052,-22.422198015656015,-1.5571021875520747,-21.91240097295852,-1.6220576096610722,-21.359040700999092,-1.684065134736546,-20.763325510547425,-1.742965970549719,-20.126675307760117,-1.7986198298408762,-19.450700812235162,-1.8509042472733837,-18.737183543780365,-1.899713903025096,-17.988056565281145,-1.944959953087824,-17.205385969053488,-1.986569366345533,-16.391353094067483,-2.0244842685019218,-15.548237461427124,-2.058661292928072,-14.678400415491927,-2.089070938500809,-13.784269458025976,-2.1156969345024637,-12.868323262759926,-2.138535612652685,-11.93307735775162,-2.157595286342975,-10.981070462930875,-2.1728956371446104,-10.014851470214053,-2.1844671086606295,-9.03696705357392,-2.192350307792525,-8.04994989645051,-2.1965954134923393,-7.056307523888463,-2.197261593070799,-6.0585117267865005,-2.1944164261321815,-5.058988565644591,-2.1881353362065603,-4.060108941194408,-2.1785010301501027,-3.064179719298651,-2.1656029453840935,-2.0734353975048467,-2.149536705043329,-1.0900303006391883,-2.1304035811045745,-0.1160312928260081,-2.108309965565736,0.8465890066815145,-2.0833668497464117,1.7959585164738303,-2.055689311780491,2.730311507375119,-2.0253960123714787,3.6479939508653665,-1.992608698881191,4.547468414148898,-1.9574517178225044,5.427318514483719,-1.9200515358268175,6.286252945386136,-1.880536269156894,7.123109087325012,-1.8390352218357513,7.93685621552011,-1.7956784324622614,8.726598317458919,-1.7505962297841335,9.491576532746379,-1.7039187970989385,10.231171227901921,-1.6557757455538475,10.944903718718207,-1.6062956964147461,11.632437652796051,-1.555605872375392,12.293580064869847,-1.503831697977287,12.92828211753796,-1.451096409210918,13.536639540012535,-1.3975206723690479,14.118892777503014,-1.3432222122227095,14.675426863847928,-1.2883154495905762,15.206771030009254,-1.2329111483723765,15.713598061043793,-1.1771160721170093,16.196723414166,-1.1210326501960393,16.65673625149087,-1.0645179088991399,17.09366672307375,-1.007396755774503,17.507624883272094,-0.9497186068997918,17.898755107332004,-0.8915310186669654,18.26723440195796,-0.8328796783180556,18.613270715882628,-0.7738083944809419,18.937101250436616,-0.7143590877051295,19.238990770118253,-0.6545717809975232,19.51922991316335,-0.5944845903582069,19.778133502114997,-0.5341337153162178,20.016038854393308,-0.4735534294653236,20.23330409286522,-0.4127760709997985,20.430306456414232,-0.3518320332502,20.60744061051022,-0.2907497552191448,22.459205643898542,0.6889240019144355,22.117486316557702,0.7360560571546602,21.766884851755176,0.7835331109497713,21.407486392755903,0.8313091118579843,21.039393560089326,0.8793341951986601,20.662724954927462,0.927554865610205,20.277613662463033,0.9759141796079747,19.884205755287486,1.0243519281421736,19.48265879676914,1.072804819155755,19.073140344431206,1.1212066601423276,18.655826453329922,1.1694885407040505,18.23090017943261,1.2175790151095387,17.798550082995764,1.2654042848517635,17.35896873194313,1.3128883812059522,16.912351205243795,1.3599533477874923,16.45717948132405,1.4068041610140172,15.992021877042664,1.4535964524403324,15.517195279669018,1.5001753301738734,15.03300413163495,1.5463842792844924,14.539739371017793,1.592065699457275,14.037677408119656,1.637061447209643,13.527079149317437,1.6812133813096235,13.008189079358472,1.7243639100321877,12.48123441327658,1.7663565388905718,11.946424329103243,1.8070364174794644,11.403949292548775,1.8462508840669811,10.853980484828154,1.8838500065723036,10.296669344806402,1.9196871185659061,9.732147236638188,1.953619348929257,9.160525254076525,1.985508143810905,8.581894172625258,2.0152197795158395,7.996324560710172,2.042625864965042,7.403867061043468,2.067603832362108,6.804552853356433,2.090037414703871,6.1983943096749785,2.109817108771894,5.585385853312957,2.12684062224176,4.965505032757914,2.141013303547042,4.338713821624152,2.152248553134866,3.7049601558477816,2.160468214749959,3.064179719298651,2.1656029453840935,2.4162979889838248,2.167592562527817,1.7612325510174573,2.166386367361377,1.0988956985318044,2.1619434425217348,0.42919732270418387,2.1542329230825867,-0.24795189192538514,2.1432342393842623,-0.9326369566710601,2.1289373303504284,-1.6249347412777664,2.111342825928496,-2.324909798682794,2.0904621972906154,-3.0326098407875577,2.0663178734321734,-3.748060854064769,2.038943322804694,-4.471261843826257,2.008383098620037,-5.202179195976633,1.9746928464628015,-5.9407406450780345,1.9379392728478317,-6.686828837551192,1.8982000733597244,-7.440274478837988,1.8555638190112473,-8.200849053350813,1.8101297994575591,-8.968257106033846,1.7620078217031374,-9.742128074361556,1.7113179629383188,-10.522007659599618,1.658190276142342,-11.307348726153474,1.6027644470898073,-12.09750171782975,1.545189401397444,-12.891704579835775,1.48562286024809,-13.689072175342373,1.424230843428788,-14.488585185435255,1.3611871183198911,-15.2890784812801,1.2966725934720886,-15.932436052800607,1.2444765219498841,-16.572335203917078,1.1909826367884848,-17.207923276603356,1.136251857961924,-17.838286143399674,1.0803474606787182,-18.462446440411306,1.0233350816630307,-19.079361800307197,0.9652827254358332,-19.687923085318623,0.9062607705960719,-20.286952620237848,0.846341976101829,-20.875202425416738,0.7856014875514858,-21.45135244976542,0.7241168434648881,-22.014008803750944,0.6619679815645068,-22.561701992395903,0.5992372450566036,-23.092885148277098,0.5360093889123927,-23.605932264524156,0.47237158614920527,-24.09913642781822,0.4084134341116527" fill="white" stroke="white" stroke-width="0" stroke-linejoin="round" filter="url(#fuzzy)"></polyline></g><g transform="translate(-43.071245733251494 -22.871449769111287)"><polyline id="leftCountour" points="25.238813693497296,-0.419598039852082,25.169083627885858,-0.48723267072250764,25.065145972311132,-0.553946826707868,24.92721749372762,-0.619678485389912,24.75557401038996,-0.6843680494296901,24.5505482498948,-0.747958320179276,24.312527707222817,-0.810394471293487,24.041952502780656,-0.8716240223416055,23.73931324044285,-0.9315968124190989,23.405148865593812,-0.990264973759342,23.04004452316978,-1.0475829053453376,22.64462941570073,-1.1035072465214362,22.2195746613524,-1.1579968506050595,21.76559115196817,-1.2110127584984198,21.283427411111067,-1.2625181723002405,20.773867452105687,-1.312478428917479,20.302865534697116,-1.3742664301295182,19.786818233943226,-1.434221838727852,19.22660066685156,-1.4922052353112876,18.62335104721942,-1.548084879952198,17.978447198156182,-1.6017368434483736,17.293483895930475,-1.6530451179452261,16.570251032102792,-1.7019017074346259,15.81071258090463,-1.7482066986366314,15.01698635882475,-1.7918683127703972,14.19132456336364,-1.8328029387205271,13.33609507791671,-1.8709351481051426,12.45376352974735,-1.9061976927519448,11.546876088010494,-1.938531485088539,10.61804298878757,-1.967885561953298,9.669922774093642,-1.99421703233303,8.705207231817685,-2.017491009533735,7.726607023556644,-2.0376805282907093,6.736837987304286,-2.0547664473242815,5.738608101955531,-2.068737337847448,4.734605100587213,-2.0795893585316807,3.7274847194759975,-2.0873261174371804,2.719859569814364,-2.091958521413849,1.7142886190854454,-2.0935046134792534,0.7132672690575602,-2.0919893986798517,-0.2807819826407132,-2.0874446589417563,-1.2655183104041154,-2.0799087574173076,-2.2386907710321,-2.0694264328337293,-3.1981459696471886,-2.0560485843501346,-4.141835194189495,-2.039832047429169,-5.067821031526542,-2.0208393612295437,-5.974283478217603,-1.999138528025746,-6.859525558971658,-1.9748027651611961,-7.721978465838202,-1.9479102500411232,-8.560206231170032,-1.918543858671427,-9.372909947397225,-1.8867908982498118,-10.158931546651402,-1.852742834315448,-10.91725715327954,-1.816495012963451,-11.647020022286428,-1.7781463786304372,-12.347503076744971,-1.7377991879574375,-13.018141057213509,-1.6955587202364346,-13.658522296199294,-1.651532984946806,-14.26839013070736,-1.6058324268879343,-14.84764396591384,-1.55856962941427,-15.396340003003028,-1.5098590162791043,-15.914691644207283,-1.4598165525933426,-16.403069588088933,-1.408559445405531,-16.862001628103407,-1.3562058444094305,-17.2921721674827,-1.3028745432853945,-17.694421463478374,-1.2486846821818274,-18.069744614003305,-1.193755451843003,-18.418405776415792,-1.137926858260855,-18.740007386175797,-1.080992696814686,-19.0346965102148,-1.0230021976671564,-19.302657688540666,-0.9640038619022085,-19.544111187920283,-0.9040453937206868,-19.759311255562295,-0.8431736326359482,-19.948544372799823,-0.7814344856694847,-20.112127508773145,-0.7188728595465332,-20.25040637411237,-0.655532592891698,-20.363753674620227,-0.5914563884245625,-20.452567364954653,-0.5266857451553072,-20.51726890231161,-0.46126089058032627,-20.55830150010769,-0.395220712877843,-20.57612838166289,-0.32860269310352636,-22.96764871953395,0.4272712686976299,-22.548674189565475,0.4744943370132402,-22.119014871154892,0.5222185688305084,-21.67874633248695,0.5704086303635906,-21.227966545409217,0.6190255374639068,-20.766794742028633,0.6680267553299083,-20.295370271308222,0.7173662982168444,-19.81385145566358,0.7669948291465288,-19.32241444755961,0.8168597596171053,-18.821252086107037,0.8669053493128182,-18.310572753659084,0.9170728058137722,-17.790599232408056,0.9673003843057054,-17.261567560981955,1.0175234872897532,-16.723725891041095,1.0676747642922129,-16.177333343874725,1.117684211574315,-15.620758170269971,1.1677288479597578,-15.052426157652013,1.2179501846534562,-14.472704388371033,1.2682189044066297,-13.881977522067666,1.318400579982225,-13.280646219067304,1.368356166177568,-12.669125543078328,1.4179425027007042,-12.047843351731595,1.467012827155909,-11.41723868349856,1.5154172973938809,-10.777760149525545,1.5630035224821102,-10.129864338921447,1.6096171015509273,-9.474014246036392,1.6551021697707364,-8.810677728268718,1.6993019507159168,-8.140326002937654,1.742059314370917,-7.463432191759192,1.7832173400340205,-6.7804699214624895,1.8226198833742995,-6.091911989084245,1.860112146897246,-5.3982291004784635,1.8955412530745859,-4.699888690579013,1.9287568193937719,-3.997353833952395,1.9596115345826695,-3.2910822541781144,1.987961735264912,-2.581525440594105,2.013667982301453,-1.8691278809445713,2.0365956360737902,-1.154326418467715,2.056615429964383,-0.43754974196069396,2.0736040412897494,0.2807819826407132,2.0874446589417563,1.0002573306303661,2.098027546992578,1.7204736783105128,2.105250603518863,2.441037095643634,2.109019913900569,3.161562063239956,2.109250297849996,3.8816710051432164,2.1058658494265003,4.600993628877296,2.0988004692924,5.31916606421629,2.0879983884655657,6.03582979214057,2.073414682824203,6.750630355441523,2.055015777619319,7.463215842437423,2.0327799412503826,8.173235135263146,2.0066977675596744,8.88033591419624,1.9767726459008217,9.58416240948196,1.943021218237031,10.284352892119857,1.9054738225245051,10.980536895074527,1.8641749216365562,11.672332156373066,1.8191835170839097,12.359341275551873,1.770573546786697,13.041148074915304,1.7184342661536434,13.7173136570689,1.6628706117239527,14.387372150189625,1.6040035466273759,15.05082613249582,1.541970387117984,15.707141727379389,1.476925109437126,16.355743360662856,1.4090386362610894,16.99600817144383,1.3384991019889494,17.627260067989518,1.2655120961261175,18.16356383327315,1.2102364114922906,18.691085030970406,1.153244516689159,19.20919887487504,1.0946133883517049,19.717245777495744,1.0344252561094183,20.214530408007438,0.9727677124448489,20.700320750202625,0.9097338225521551,21.173847160442715,0.8454222341956609,21.63430142560936,0.7799372875684046,22.080835821055782,0.713389125150692,22.512562168558116,0.6458938015686492,22.92855089426673,0.577573393452773,23.327830086657567,0.508556109296485,23.70938455448348,0.43897639931468235,24.072154884725563,0.36897506530229063,24.41503650054445,0.29869937049281625" fill="white" stroke="white" stroke-width="0" stroke-linejoin="round" filter="url(#fuzzy)"></polyline></g><g transform="translate(28.564973199387058 -23.676685452017754)"><polyline id="rightUpper" points="-25.384994423815968,0.10187391790363842,-25.702587162546042,0.046486034810111876,-25.987767573919225,-0.010911121516838436,-26.240025764847932,-0.07006658560332399,-26.458929942527256,-0.13073877757402458,-26.644124365275612,-0.1926953519594309,-26.79532729337531,-0.2557130465030858,-26.912328939913152,-0.3195775309688263,-26.994989421621028,-0.3840832559480245,-27.043236709716552,-0.44903330166683086,-27.0570645807436,-0.5142392267934142,-27.036530567412953,-0.5795209172452049,-26.98175390944287,-0.6447064349961366,-26.892913504399708,-0.7096318668838857,-26.77024585853851,-0.7741411734171156,-26.614043037643604,-0.8380860375827184,-26.424650617869183,-0.9013257136530546,-26.20246563657993,-0.9637268759931972,-25.94793454319162,-1.0251634678681714,-25.661551150011682,-1.0855165502501973,-25.34385458307984,-1.1446741506259326,-24.995427233008662,-1.2025311118037116,-24.616892705824228,-1.2589889407207908,-24.208913773806664,-1.3139556572505866,-23.77219032633075,-1.36734564300992,-23.30745732070657,-1.4190794901662571,-22.887456676982616,-1.4893768552201052,-22.422198015656015,-1.5571021875520747,-21.91240097295852,-1.6220576096610722,-21.359040700999092,-1.684065134736546,-20.763325510547425,-1.742965970549719,-20.126675307760117,-1.7986198298408762,-19.450700812235162,-1.8509042472733837,-18.737183543780365,-1.899713903025096,-17.988056565281145,-1.944959953087824,-17.205385969053488,-1.986569366345533,-16.391353094067483,-2.0244842685019218,-15.548237461427124,-2.058661292928072,-14.678400415491927,-2.089070938500809,-13.784269458025976,-2.1156969345024637,-12.868323262759926,-2.138535612652685,-11.93307735775162,-2.157595286342975,-10.981070462930875,-2.1728956371446104,-10.014851470214053,-2.1844671086606295,-9.03696705357392,-2.192350307792525,-8.04994989645051,-2.1965954134923393,-7.056307523888463,-2.197261593070799,-6.0585117267865005,-2.1944164261321815,-5.058988565644591,-2.1881353362065603,-4.060108941194408,-2.1785010301501027,-3.064179719298651,-2.1656029453840935,-2.0734353975048467,-2.149536705043329,-1.0900303006391883,-2.1304035811045745,-0.1160312928260081,-2.108309965565736,0.8465890066815145,-2.0833668497464117,1.7959585164738303,-2.055689311780491,2.730311507375119,-2.0253960123714787,3.6479939508653665,-1.992608698881191,4.547468414148898,-1.9574517178225044,5.427318514483719,-1.9200515358268175,6.286252945386136,-1.880536269156894,7.123109087325012,-1.8390352218357513,7.93685621552011,-1.7956784324622614,8.726598317458919,-1.7505962297841335,9.491576532746379,-1.7039187970989385,10.231171227901921,-1.6557757455538475,10.944903718718207,-1.6062956964147461,11.632437652796051,-1.555605872375392,12.293580064869847,-1.503831697977287,12.92828211753796,-1.451096409210918,13.536639540012535,-1.3975206723690479,14.118892777503014,-1.3432222122227095,14.675426863847928,-1.2883154495905762,15.206771030009254,-1.2329111483723765,15.713598061043793,-1.1771160721170093,16.196723414166,-1.1210326501960393,16.65673625149087,-1.0645179088991399,17.09366672307375,-1.007396755774503,17.507624883272094,-0.9497186068997918,17.898755107332004,-0.8915310186669654,18.26723440195796,-0.8328796783180556,18.613270715882628,-0.7738083944809419,18.937101250436616,-0.7143590877051295,19.238990770118253,-0.6545717809975232,19.51922991316335,-0.5944845903582069,19.778133502114997,-0.5341337153162178,20.016038854393308,-0.4735534294653236,20.23330409286522,-0.4127760709997985,20.430306456414232,-0.3518320332502,20.60744061051022,-0.2907497552191448,20.765116957779174,-0.22955571211708506,20.903759948573004,-0.16827440589808607,21.023806391539264,-0.10692835579560023,21.125703764190987,-0.04553808885824604,21.2099085234764,0.015877869514416984,21.276884416348743,0.07730300503611301,21.327100790336008,0.13872282399807068,21.36103090411073,0.20012486273324903,21.379150238059754,0.26149869708055995,21.381934804854016,0.3228359518490926" fill="none" stroke="black" stroke-width="1.6666666666666665" stroke-linejoin="round" filter="url(#fuzzy)"></polyline><polyline id="rightLower" points="-27.502909070796402,-0.2273299116453752,-27.32107749421082,-0.16563396385115256,-27.09749523651749,-0.1032276720288526,-26.83477546059489,-0.040225222259869485,-26.53543275285942,0.023261686513315505,-26.20188489026681,0.0871238362059713,-25.836454607313435,0.15125448330995386,-25.441371363037657,0.21554935261254232,-25.018773108021207,0.27990663091527546,-24.570708051390554,0.34422696075278914,-24.09913642781822,0.4084134341116527,-23.605932264524156,0.47237158614920527,-23.092885148277098,0.5360093889123927,-22.561701992395903,0.5992372450566036,-22.014008803750944,0.6619679815645068,-21.45135244976542,0.7241168434648881,-20.875202425416738,0.7856014875514858,-20.286952620237848,0.846341976101829,-19.687923085318623,0.9062607705960719,-19.079361800307197,0.9652827254358332,-18.462446440411306,1.0233350816630307,-17.838286143399674,1.0803474606787182,-17.207923276603356,1.136251857961924,-16.572335203917078,1.1909826367884848,-15.932436052800607,1.2444765219498841,-15.2890784812801,1.2966725934720886,-14.488585185435255,1.3611871183198911,-13.689072175342373,1.424230843428788,-12.891704579835775,1.48562286024809,-12.09750171782975,1.545189401397444,-11.307348726153474,1.6027644470898073,-10.522007659599618,1.658190276142342,-9.742128074361556,1.7113179629383188,-8.968257106033846,1.7620078217031374,-8.200849053350813,1.8101297994575591,-7.440274478837988,1.8555638190112473,-6.686828837551192,1.8982000733597244,-5.9407406450780345,1.9379392728478317,-5.202179195976633,1.9746928464628015,-4.471261843826257,2.008383098620037,-3.748060854064769,2.038943322804694,-3.0326098407875577,2.0663178734321734,-2.324909798682794,2.0904621972906154,-1.6249347412777664,2.111342825928496,-0.9326369566710601,2.1289373303504284,-0.24795189192538514,2.1432342393842623,0.42919732270418387,2.1542329230825867,1.0988956985318044,2.1619434425217348,1.7612325510174573,2.166386367361377,2.4162979889838248,2.167592562527817,3.064179719298651,2.1656029453840935,3.7049601558477816,2.160468214749959,4.338713821624152,2.152248553134866,4.965505032757914,2.141013303547042,5.585385853312957,2.12684062224176,6.1983943096749785,2.109817108771894,6.804552853356433,2.090037414703871,7.403867061043468,2.067603832362108,7.996324560710172,2.042625864965042,8.581894172625258,2.0152197795158395,9.160525254076525,1.985508143810905,9.732147236638188,1.953619348929257,10.296669344806402,1.9196871185659061,10.853980484828154,1.8838500065723036,11.403949292548775,1.8462508840669811,11.946424329103243,1.8070364174794644,12.48123441327658,1.7663565388905718,13.008189079358472,1.7243639100321877,13.527079149317437,1.6812133813096235,14.037677408119656,1.637061447209643,14.539739371017793,1.592065699457275,15.03300413163495,1.5463842792844924,15.517195279669018,1.5001753301738734,15.992021877042664,1.4535964524403324,16.45717948132405,1.4068041610140172,16.912351205243795,1.3599533477874923,17.35896873194313,1.3128883812059522,17.798550082995764,1.2654042848517635,18.23090017943261,1.2175790151095387,18.655826453329922,1.1694885407040505,19.073140344431206,1.1212066601423276,19.48265879676914,1.072804819155755,19.884205755287486,1.0243519281421736,20.277613662463033,0.9759141796079747,20.662724954927462,0.927554865610205,21.039393560089326,0.8793341951986601,21.407486392755903,0.8313091118579843,21.766884851755176,0.7835331109497713,22.117486316557702,0.7360560571546602,22.459205643898542,0.6889240019144355,22.791976664399186,0.6421790008741258,23.115753679189478,0.595858931324102,23.430512956529498,0.5499973096421754,23.736254228431516,0.5046231087356986,24.033002187281884,0.45976057548366145,24.32080798246298,0.4154290481787899,24.5997507169751,0.37164277396964784,24.869938944058372,0.32841072630273155,25.131512163814694,0.2857364223645714,25.38464231982964,0.24361774052382879" fill="none" stroke="black" stroke-width="2.2222222222222223" stroke-linejoin="round" filter="url(#fuzzy)"></polyline><!--[--><circle r="4.045018942464271" cx="-1.5042529881415385" cy="0.23841292364528766" stroke="black" fill="none" stroke-width="1" filter="url(#fuzzy)" clip-path="url(#rightEyeClipPath)"></circle><circle r="4.887562901754955" cx="-3.8736875660443326" cy="0.4008737840012695" stroke="black" fill="none" stroke-width="1" filter="url(#fuzzy)" clip-path="url(#rightEyeClipPath)"></circle><circle r="4.090570976443328" cx="-1.478312434388331" cy="0.2581294447387239" stroke="black" fill="none" stroke-width="1" filter="url(#fuzzy)" clip-path="url(#rightEyeClipPath)"></circle><circle r="3.4508373507795147" cx="-0.15462623807758735" cy="0.44431637363823606" stroke="black" fill="none" stroke-width="1" filter="url(#fuzzy)" clip-path="url(#rightEyeClipPath)"></circle><circle r="3.835758818599161" cx="-2.449424767470741" cy="-0.028288976572922397" stroke="black" fill="none" stroke-width="1" filter="url(#fuzzy)" clip-path="url(#rightEyeClipPath)"></circle><circle r="4.459347035547702" cx="0.7038985971896876" cy="-1.0538811704469275" stroke="black" fill="none" stroke-width="1" filter="url(#fuzzy)" clip-path="url(#rightEyeClipPath)"></circle><circle r="3.8742257492638634" cx="-1.022376485062857" cy="0.8337412142074285" stroke="black" fill="none" stroke-width="1" filter="url(#fuzzy)" clip-path="url(#rightEyeClipPath)"></circle><circle r="3.2484631239295103" cx="-0.6336155299209052" cy="2.0375561433261034" stroke="black" fill="none" stroke-width="1" filter="url(#fuzzy)" clip-path="url(#rightEyeClipPath)"></circle><circle r="4.364465598464303" cx="-3.2333343882639474" cy="2.0024027525481687" stroke="black" fill="none" stroke-width="1" filter="url(#fuzzy)" clip-path="url(#rightEyeClipPath)"></circle><circle r="3.3947162522519316" cx="-1.7071908863492964" cy="1.7673390699377753" stroke="black" fill="none" stroke-width="1" filter="url(#fuzzy)" clip-path="url(#rightEyeClipPath)"></circle><!--]--></g><g transform="translate(-43.071245733251494 -22.871449769111287)"><polyline id="leftUpper" points="24.053518051222312,0.29194269448034327,24.32326328171549,0.21906693282890843,24.560352304976327,0.14635223709706047,24.764293567265703,0.07388633185141114,24.93467598572506,0.0017542526964811067,25.071166806418393,-0.0699616273370221,25.17350946237417,-0.1411815714039238,25.241521431627298,-0.2118284524563045,25.275092095261062,-0.28182772685521984,25.27418059544908,-0.35110740798242235,25.238813693497296,-0.419598039852082,25.169083627885858,-0.48723267072250764,25.065145972311132,-0.553946826707868,24.92721749372762,-0.619678485389912,24.75557401038996,-0.6843680494296901,24.5505482498948,-0.747958320179276,24.312527707222817,-0.810394471293487,24.041952502780656,-0.8716240223416055,23.73931324044285,-0.9315968124190989,23.405148865593812,-0.990264973759342,23.04004452316978,-1.0475829053453376,22.64462941570073,-1.1035072465214362,22.2195746613524,-1.1579968506050595,21.76559115196817,-1.2110127584984198,21.283427411111067,-1.2625181723002405,20.773867452105687,-1.312478428917479,20.302865534697116,-1.3742664301295182,19.786818233943226,-1.434221838727852,19.22660066685156,-1.4922052353112876,18.62335104721942,-1.548084879952198,17.978447198156182,-1.6017368434483736,17.293483895930475,-1.6530451179452261,16.570251032102792,-1.7019017074346259,15.81071258090463,-1.7482066986366314,15.01698635882475,-1.7918683127703972,14.19132456336364,-1.8328029387205271,13.33609507791671,-1.8709351481051426,12.45376352974735,-1.9061976927519448,11.546876088010494,-1.938531485088539,10.61804298878757,-1.967885561953298,9.669922774093642,-1.99421703233303,8.705207231817685,-2.017491009533735,7.726607023556644,-2.0376805282907093,6.736837987304286,-2.0547664473242815,5.738608101955531,-2.068737337847448,4.734605100587213,-2.0795893585316807,3.7274847194759975,-2.0873261174371804,2.719859569814364,-2.091958521413849,1.7142886190854454,-2.0935046134792534,0.7132672690575602,-2.0919893986798517,-0.2807819826407132,-2.0874446589417563,-1.2655183104041154,-2.0799087574173076,-2.2386907710321,-2.0694264328337293,-3.1981459696471886,-2.0560485843501346,-4.141835194189495,-2.039832047429169,-5.067821031526542,-2.0208393612295437,-5.974283478217603,-1.999138528025746,-6.859525558971658,-1.9748027651611961,-7.721978465838202,-1.9479102500411232,-8.560206231170032,-1.918543858671427,-9.372909947397225,-1.8867908982498118,-10.158931546651402,-1.852742834315448,-10.91725715327954,-1.816495012963451,-11.647020022286428,-1.7781463786304372,-12.347503076744971,-1.7377991879574375,-13.018141057213509,-1.6955587202364346,-13.658522296199294,-1.651532984946806,-14.26839013070736,-1.6058324268879343,-14.84764396591384,-1.55856962941427,-15.396340003003028,-1.5098590162791043,-15.914691644207283,-1.4598165525933426,-16.403069588088933,-1.408559445405531,-16.862001628103407,-1.3562058444094305,-17.2921721674827,-1.3028745432853945,-17.694421463478374,-1.2486846821818274,-18.069744614003305,-1.193755451843003,-18.418405776415792,-1.137926858260855,-18.740007386175797,-1.080992696814686,-19.0346965102148,-1.0230021976671564,-19.302657688540666,-0.9640038619022085,-19.544111187920283,-0.9040453937206868,-19.759311255562295,-0.8431736326359482,-19.948544372799823,-0.7814344856694847,-20.112127508773145,-0.7188728595465332,-20.25040637411237,-0.655532592891698,-20.363753674620227,-0.5914563884245625,-20.452567364954653,-0.5266857451553072,-20.51726890231161,-0.46126089058032627,-20.55830150010769,-0.395220712877843,-20.57612838166289,-0.32860269310352636,-20.57123103388327,-0.2614428373861071,-20.544107460943685,-0.1937756091229939,-20.495270437970447,-0.12563386117589026,-20.425245764724096,-0.05704876806641057,-20.33457051928202,0.011950241828304564,-20.22379131172123,0.0813355540799719,-20.09346253780101,0.1510814360135479,-19.944144632645646,0.22116410451161383,-19.776402324427142,0.2915617938187587,-19.590802888047882,0.36225482334596415" fill="none" stroke="black" stroke-width="2.2222222222222223" stroke-linejoin="round" filter="url(#fuzzy)"></polyline><polyline id="leftLower" points="26.472788347765736,-0.3819096446638774,26.400155207633613,-0.3184898850788497,26.29389632385457,-0.2534923059524571,26.155619724148934,-0.1871348271243765,25.98687885192991,-0.11962780841018317,25.78917350835228,-0.05117415945990267,25.56395079436108,0.018030550383437205,25.312606052740225,0.08779798222525348,25.036483810161197,0.15794691776085634,24.73687871923173,0.22830314941689722,24.41503650054445,0.29869937049281625,24.072154884725563,0.36897506530229063,23.70938455448348,0.43897639931468235,23.327830086657567,0.508556109296485,22.92855089426673,0.577573393452773,22.512562168558116,0.6458938015686492,22.080835821055782,0.713389125150692,21.63430142560936,0.7799372875684046,21.173847160442715,0.8454222341956609,20.700320750202625,0.9097338225521551,20.214530408007438,0.9727677124448489,19.717245777495744,1.0344252561094183,19.20919887487504,1.0946133883517049,18.691085030970406,1.153244516689159,18.16356383327315,1.2102364114922906,17.627260067989518,1.2655120961261175,16.99600817144383,1.3384991019889494,16.355743360662856,1.4090386362610894,15.707141727379389,1.476925109437126,15.05082613249582,1.541970387117984,14.387372150189625,1.6040035466273759,13.7173136570689,1.6628706117239527,13.041148074915304,1.7184342661536434,12.359341275551873,1.770573546786697,11.672332156373066,1.8191835170839097,10.980536895074527,1.8641749216365562,10.284352892119857,1.9054738225245051,9.58416240948196,1.943021218237031,8.88033591419624,1.9767726459008217,8.173235135263146,2.0066977675596744,7.463215842437423,2.0327799412503826,6.750630355441523,2.055015777619319,6.03582979214057,2.073414682824203,5.31916606421629,2.0879983884655657,4.600993628877296,2.0988004692924,3.8816710051432164,2.1058658494265003,3.161562063239956,2.109250297849996,2.441037095643634,2.109019913900569,1.7204736783105128,2.105250603518863,1.0002573306303661,2.098027546992578,0.2807819826407132,2.0874446589417563,-0.43754974196069396,2.0736040412897494,-1.154326418467715,2.056615429964383,-1.8691278809445713,2.0365956360737902,-2.581525440594105,2.013667982301453,-3.2910822541781144,1.987961735264912,-3.997353833952395,1.9596115345826695,-4.699888690579013,1.9287568193937719,-5.3982291004784635,1.8955412530745859,-6.091911989084245,1.860112146897246,-6.7804699214624895,1.8226198833742995,-7.463432191759192,1.7832173400340205,-8.140326002937654,1.742059314370917,-8.810677728268718,1.6993019507159168,-9.474014246036392,1.6551021697707364,-10.129864338921447,1.6096171015509273,-10.777760149525545,1.5630035224821102,-11.41723868349856,1.5154172973938809,-12.047843351731595,1.467012827155909,-12.669125543078328,1.4179425027007042,-13.280646219067304,1.368356166177568,-13.881977522067666,1.318400579982225,-14.472704388371033,1.2682189044066297,-15.052426157652013,1.2179501846534562,-15.620758170269971,1.1677288479597578,-16.177333343874725,1.117684211574315,-16.723725891041095,1.0676747642922129,-17.261567560981955,1.0175234872897532,-17.790599232408056,0.9673003843057054,-18.310572753659084,0.9170728058137722,-18.821252086107037,0.8669053493128182,-19.32241444755961,0.8168597596171053,-19.81385145566358,0.7669948291465288,-20.295370271308222,0.7173662982168444,-20.766794742028633,0.6680267553299083,-21.227966545409217,0.6190255374639068,-21.67874633248695,0.5704086303635906,-22.119014871154892,0.5222185688305084,-22.548674189565475,0.4744943370132402,-22.96764871953395,0.4272712686976299,-23.375886439941755,0.3805809475970211,-23.7733600201399,0.3344511076424871,-24.160067963352354,0.2889055332730671,-24.536035750079442,0.2439639597259986,-24.901316981501218,0.19964197332695088,-25.25599452288088,0.15595091178025694,-25.600181646968114,0.11289776445915017,-25.93402317740252,0.07048507269599458,-26.257696632116982,0.028710830072520677,-26.571413366741062,-0.012431617289943353" fill="none" stroke="black" stroke-width="2.2222222222222223" stroke-linejoin="round" filter="url(#fuzzy)"></polyline><!--[--><circle r="4.847384484556468" cx="7.03115867163196" cy="1.892091663035174" stroke="black" fill="none" stroke-width="1" filter="url(#fuzzy)" clip-path="url(#leftEyeClipPath)"></circle><circle r="4.536363932992649" cx="10.28959741645901" cy="2.140810106484275" stroke="black" fill="none" stroke-width="1" filter="url(#fuzzy)" clip-path="url(#leftEyeClipPath)"></circle><circle r="4.371557474436849" cx="9.619991234525461" cy="2.388377540671459" stroke="black" fill="none" stroke-width="1" filter="url(#fuzzy)" clip-path="url(#leftEyeClipPath)"></circle><circle r="4.869327921139787" cx="6.625729498649177" cy="0.05370175832809254" stroke="black" fill="none" stroke-width="1" filter="url(#fuzzy)" clip-path="url(#leftEyeClipPath)"></circle><circle r="4.986892343774972" cx="9.202996846697609" cy="-1.4417481102795535" stroke="black" fill="none" stroke-width="1" filter="url(#fuzzy)" clip-path="url(#leftEyeClipPath)"></circle><circle r="3.860528494610744" cx="7.067377719502714" cy="-1.8268428982041631" stroke="black" fill="none" stroke-width="1" filter="url(#fuzzy)" clip-path="url(#leftEyeClipPath)"></circle><circle r="4.561068941685527" cx="6.389275721814107" cy="-2.2069102100606446" stroke="black" fill="none" stroke-width="1" filter="url(#fuzzy)" clip-path="url(#leftEyeClipPath)"></circle><circle r="3.8033617206501082" cx="8.937436474041277" cy="1.448965618043192" stroke="black" fill="none" stroke-width="1" filter="url(#fuzzy)" clip-path="url(#leftEyeClipPath)"></circle><circle r="4.281729566383001" cx="6.322353771306783" cy="-1.6346096737315792" stroke="black" fill="none" stroke-width="1" filter="url(#fuzzy)" clip-path="url(#leftEyeClipPath)"></circle><circle r="3.692983463001811" cx="9.375762493985457" cy="-0.21131979764664388" stroke="black" fill="none" stroke-width="1" filter="url(#fuzzy)" clip-path="url(#leftEyeClipPath)"></circle><!--]--></g><g id="hairs"><!--[--><!--]--></g><g id="pointNose"><g id="rightNose"><!--[--><circle r="1.151687589093516" cx="9.35256584772937" cy="12.59312619929455" stroke="black" fill="none" stroke-width="1" filter="url(#fuzzy)"></circle><circle r="2.7299778112206323" cx="7.794918596469053" cy="11.163520312677822" stroke="black" fill="none" stroke-width="1" filter="url(#fuzzy)"></circle><circle r="2.0593054154807" cx="7.140328693404838" cy="12.7287655534338" stroke="black" fill="none" stroke-width="1" filter="url(#fuzzy)"></circle><circle r="2.377261647732933" cx="7.662012452048959" cy="13.521135105790874" stroke="black" fill="none" stroke-width="1" filter="url(#fuzzy)"></circle><circle r="1.6652450807902333" cx="7.873742889369238" cy="13.557925127389504" stroke="black" fill="none" stroke-width="1" filter="url(#fuzzy)"></circle><circle r="1.9520034878865147" cx="7.537869560352032" cy="12.457070375161846" stroke="black" fill="none" stroke-width="1" filter="url(#fuzzy)"></circle><circle r="1.0556697926926888" cx="5.7913136763111766" cy="13.052825681293676" stroke="black" fill="none" stroke-width="1" filter="url(#fuzzy)"></circle><circle r="2.4986285564333164" cx="7.646691246030695" cy="13.507129455411253" stroke="black" fill="none" stroke-width="1" filter="url(#fuzzy)"></circle><circle r="2.8859916211147563" cx="7.885081034077439" cy="13.715615992223928" stroke="black" fill="none" stroke-width="1" filter="url(#fuzzy)"></circle><circle r="2.608438477126241" cx="8.968085621923068" cy="13.429598703156794" stroke="black" fill="none" stroke-width="1" filter="url(#fuzzy)"></circle><!--]--></g><g id="leftNose"><!--[--><circle r="2.1175955034764895" cx="-8.167209080219175" cy="9.70981109860021" stroke="black" fill="none" stroke-width="1" filter="url(#fuzzy)"></circle><circle r="2.352114612724222" cx="-7.547641729519094" cy="8.29261236974437" stroke="black" fill="none" stroke-width="1" filter="url(#fuzzy)"></circle><circle r="1.0570674093586951" cx="-7.337831596136057" cy="7.841500997583404" stroke="black" fill="none" stroke-width="1" filter="url(#fuzzy)"></circle><circle r="1.4805706494749291" cx="-10.505051932086165" cy="8.277321710330892" stroke="black" fill="none" stroke-width="1" filter="url(#fuzzy)"></circle><circle r="2.2291110816111868" cx="-8.636436869748" cy="9.158008773873721" stroke="black" fill="none" stroke-width="1" filter="url(#fuzzy)"></circle><circle r="1.426082280045575" cx="-7.35327930180126" cy="7.493488010833092" stroke="black" fill="none" stroke-width="1" filter="url(#fuzzy)"></circle><circle r="1.8059484021715073" cx="-8.695879196420957" cy="9.004796947640337" stroke="black" fill="none" stroke-width="1" filter="url(#fuzzy)"></circle><circle r="1.989663107879601" cx="-9.938612162872676" cy="7.559138433310165" stroke="black" fill="none" stroke-width="1" filter="url(#fuzzy)"></circle><circle r="2.154737607995802" cx="-10.3916407132411" cy="8.254079793214538" stroke="black" fill="none" stroke-width="1" filter="url(#fuzzy)"></circle><circle r="2.725862008274367" cx="-9.933787182772" cy="9.388249753103175" stroke="black" fill="none" stroke-width="1" filter="url(#fuzzy)"></circle><!--]--></g></g><g id="mouth"><polyline points="-22.678601365485786,51.95638423029101,-22.115659913603103,50.765800035468985,-21.55407239337921,49.61781562361699,-20.993864184828904,48.51186294550564,-20.43506066796696,47.44737395190556,-19.877687222808206,46.423780593587374,-19.321769229367405,45.440514821321685,-18.767332067659357,44.49700858587912,-18.21440111769887,43.59269383803031,-17.663001759500712,42.72700252854585,-17.11315937307969,41.89936660819639,-16.564899338450587,41.10921802775252,-16.018247035628207,40.35598873798487,-15.473227844627335,39.639110689664065,-14.929867145462767,38.95801583356072,-14.388190318149295,38.31213612044546,-13.848222742701708,37.700903501088895,-13.309989799134806,37.123749926261645,-12.773516867463373,36.58010734673433,-12.238829327702208,36.069407713277585,-11.7059525598661,35.59108297666201,-11.174911943969848,35.14456508765823,-10.645732860028236,34.729285997036854,-10.118440688056058,34.344677655568525,-9.593060808068108,33.990172014023855,-9.069618600079187,33.66520102317343,-8.548139444104073,33.36919663378793,-8.028648720157564,33.10159079663793,-7.511171808254458,32.86181546249405,-6.995734088409542,32.64930258212692,-6.482360940637609,32.46348410630718,-5.971077744953454,32.30379198580541,-5.461909881371866,32.16965817139226,-4.954882729907641,32.060514613838336,-4.4500216705755715,31.97579326391426,-3.947352083390448,31.914926072390646,-3.4468993483670634,31.87734499003811,-2.9486888455202083,31.86248196762728,-2.4527459548646813,31.869768955928784,-1.9590960564152708,31.898637905713226,-1.4677645301867703,31.948520767751237,-0.9787767561939715,32.018849492813416,-0.49215811445166757,32.109056031670406,-0.007933984974650879,32.21857233509282,0.47387025222228535,32.34683035385126,0.9532292171243502,32.493262038716374,1.430117529716749,32.65729934045875,1.90450980998469,32.838374209849036,2.37638067791338,33.03591859765784,2.8457047534880293,33.24936445465577,3.31245665669384,33.47814373161347,3.776611007516024,33.72168837930153,4.238142425939789,33.979430348490595,4.697025531950341,34.250801589951266,5.153234945532886,34.53523405445418,5.6067452866726315,34.832159692769935,6.05753117535479,35.141010455669175,6.505567231564562,35.461218293922485,6.95082807528716,35.79221515830052,7.393288326507789,36.133432999573884,7.832922605211656,36.48430376851319,8.26970553138397,36.84425941588907,8.703611725009939,37.212731892472135,9.134615806074768,37.589153149033,9.562692394563664,37.9729551363423,9.987816110461837,38.36356980517065,10.409961573754495,38.760429106288655,10.829103404426844,39.162964990466946,11.245216222464089,39.57060940847614,11.658274647851442,39.982794311086856,12.068253300574108,40.39895164906971,12.475126800617295,40.81851337319534,12.87886976796621,41.24091143423433,13.27945682260606,41.66557778295733,13.676862584522052,42.091944370134954,14.071061673699397,42.5194431465378,14.462028710123295,42.94750606293652,14.849738313778962,43.37556507010171,15.234165104651604,43.803052118804,15.615283702726423,44.229399159814,15.993068727988629,44.65403814390234,16.36749480042343,45.07640102183963,16.73853654001603,45.495919744396495,17.10616856675165,45.91202626234355,17.47036550061548,46.32415252645143,17.831101961592736,46.73173048749072,18.188352569668623,47.13419209623208,18.542091944828353,47.5309693034461,18.892294707057125,47.92149405990341,19.238935476340156,48.30519831637463,19.581988872662645,48.68151402363038,19.92142951600981,49.04987313244128,20.257232026366843,49.409707593577934,20.589371023718964,49.760449357810984,20.917821128051386,50.10153037591103,21.242556959349294,50.432382598648715,21.56355313759791,50.75243797679464,21.880784282782443,51.06112846111942,22.194225014888097,51.357886002393684,22.503849953900072,51.642142551388055,22.503849953900072,51.642142551388055,22.052025440706217,51.43778205785265,21.600200927512354,51.224395810612975,21.1483764143185,51.00239394290659,20.696551901124643,50.77218658797102,20.244727387930787,50.53418387904382,19.792902874736924,50.28879594936254,19.34107836154307,50.036432932164715,18.88925384834921,49.7775049606879,18.437429335155347,49.512422168169635,17.98560482196149,49.241594687847474,17.53378030876763,48.96543265295895,17.081955795573773,48.68434619674162,16.630131282379914,48.398745452433026,16.178306769186054,48.10904055327071,15.726482255992197,47.81564163249223,15.274657742798336,47.51895882333511,14.822833229604479,47.219402259036926,14.371008716410623,46.91738207283519,13.919184203216764,46.613308397967465,13.467359690022905,46.30759136767131,13.015535176829045,46.000641115184244,12.563710663635186,45.69286777374383,12.111886150441329,45.38468147658761,11.660061637247468,45.07649235695313,11.208237124053609,44.768710548077934,10.756412610859751,44.461746183199566,10.304588097665894,44.15600939555557,9.852763584472033,43.8519103183835,9.400939071278174,43.5498590849209,8.949114558084316,43.25026582840531,8.497290044890455,42.95354068207428,8.045465531696596,42.660093779165365,7.593641018502739,42.370335252916085,7.14181650530888,42.08467523656401,6.689991992115023,41.803523863346676,6.238167478921165,41.52729126650162,5.786342965727305,41.25638757926641,5.334518452533448,40.99122293487858,4.88269393933959,40.73220746657567,4.43086942614573,40.47975130759523,3.979044912951874,40.23426459117481,3.5272203997580154,39.996157450551955,3.075395886564156,39.765840018964205,2.6235713733702966,39.5437224296491,2.1717468601764387,39.33021481584421,1.7199223469825788,39.125727310787056,1.268097833788721,38.930670047715196,0.8162733205948612,38.74545315986617,0.36444880740100133,38.57048678047753,-0.08737570579285645,38.40618104278681,-0.5392002189867163,38.252946080031585,-0.9910247321805741,38.11119202544936,-1.442849245374432,37.981329012277705,-1.8946737585682918,37.86376717375417,-2.3464982717621496,37.75891664311628,-2.7983227849560115,37.66718755360161,-3.250147298149867,37.58899003844767,-3.7019718113437237,37.52473423089203,-4.153796324537583,37.47483026417223,-4.605620837731442,37.43968827152582,-5.057445350925299,37.41971838619033,-5.509269864119161,37.41533074140333,-5.961094377313019,37.426935470402356,-6.412918890506879,37.454942706424944,-6.864743403700737,37.49976258270865,-7.316567916894594,37.56180523249101,-7.768392430088456,37.64148078900958,-8.220216943282313,37.7391993855019,-8.672041456476169,37.85537115520552,-9.123865969670028,37.99040623135798,-9.575690482863886,38.144714747196836,-10.027514996057745,38.318706835959624,-10.479339509251606,38.512792630883894,-10.931164022445463,38.72738226520718,-11.382988535639324,38.96288587216706,-11.834813048833182,39.21971358500104,-12.286637562027039,39.49827553694668,-12.7384620752209,39.79898186124154,-13.190286588414759,40.12224269112315,-13.642111101608618,40.468468159829065,-14.093935614802477,40.838068400596825,-14.545760127996331,41.23145354666397,-14.997584641190187,41.64903373126806,-15.449409154384048,42.091219087646635,-15.901233667577907,42.55841974903724,-16.353058180771768,43.05104584867742,-16.804882693965627,43.569507519804716,-17.256707207159486,44.11421489565668,-17.708531720353342,44.68557810947086,-18.1603562335472,45.284007294484795,-18.612180746741064,45.90991258393604,-19.06400525993492,46.56370411106213,-19.51582977312878,47.24579200910061,-19.967654286322635,47.956586411289045,-20.41947879951649,48.69649745086495,-20.871303312710356,49.4659352610659,-21.323127825904212,50.26530997512943,-21.774952339098075,51.09503172629308,-22.22677685229193,51.9555106477944" fill="rgb(215,127,140)" stroke="black" stroke-width="3" stroke-linejoin="round" filter="url(#fuzzy)"></polyline></g></svg>