<svg viewBox="-100 -100 200 200" xmlns="http://www.w3.org/2000/svg" width="400" height="400" id="face-svg"><defs><clipPath id="leftEyeClipPath"><polyline points="29.413435853399598,1.245004255989766,29.135992394808973,0.30546045817271583,28.816998762665648,-0.6367786962732325,28.458387910262367,-1.5787753600019414,28.06205229636602,-2.5177340949887217,27.629844083328805,-3.4509990674940916,27.16357533519941,-4.376051243027543,26.665018215834166,-5.290505581311333,26.13590518700824,-6.192108231244223,25.57792920652676,-7.078733725865291,24.992743926336047,-7.948382177317672,24.381963890634694,-8.799176471812341,23.747164733984846,-9.629359464591897,23.089883379423263,-10.437291174894323,22.411618236572558,-11.221445980916751,21.713829399752314,-11.980409814779254,20.90694960035109,-13.04573692654133,20.07498752924281,-14.069270797272598,19.21990540792506,-15.047761507541392,18.343685338508614,-15.978321850573224,17.44832212826566,-16.85841438869828,16.535816420124945,-17.685838572363902,15.608168124328744,-18.4587179253927,14.667370146466476,-19.175487300166992,13.715402407099946,-19.83488020642024,12.75422614819504,-20.43591621731623,11.785778521574784,-20.977888456496533,10.81196745460867,-21.460351169777088,9.834666788353115,-21.88310738517445,8.855711683357953,-22.24619666494254,7.876894288353846,-22.549882953300358,6.899959667035516,-22.794642523531582,5.926601978155668,-22.98115202813653,4.958460904144534,-23.110276655717303,3.9971183234698513,-23.183058398276696,3.044095221952252,-23.20070443261169,2.100848838250908,-23.16457561948194,1.1687700387342925,-23.07617512423435,0.24918091695104128,-22.937137162563953,-0.6566673870843012,-22.74921587509208,-1.5475966525757157,-22.514274334442586,-2.4225033333853805,-22.234273688496312,-3.2803601080138147,-21.91126244350512,-4.120217228905469,-21.547365890745656,-4.941203675864999,-21.14477568039384,-5.742528118369188,-20.705739546300574,-6.523479691559796,-20.23255118534945,-7.283428590702295,-19.727540295077137,-8.021826488895721,-19.193062773237067,-8.738206782818615,-18.631491082987107,-9.432184671296351,-18.04520478738204,-10.103457071474766,-17.436581256851262,-10.751802377385355,-16.80798655334263,-11.377080065687009,-16.16176649481309,-11.979230153369565,-15.50023790374657,-12.558272512204125,-14.8256800433801,-13.114306044725298,-14.140326245318644,-13.647507726530582,-13.446355732219406,-14.15813151968183,-12.745885639226291,-14.646507161994007,-12.040963237835104,-15.113038836996369,-11.333558365870381,-15.558203729351076,-10.625556067254234,-15.98255047051446,-9.918749445248189,-16.386697479425983,-9.214832732848482,-16.771331203010014,-8.5153945840156,-17.137204261275556,-7.821911589418715,-17.484939963560876,-7.132674015965936,-17.814749751471815,-6.445656346537142,-18.126827735062115,-5.761740102724399,-18.4213819389224,-5.081761653297431,-18.69863366131714,-4.406511721255388,-18.958816833321677,-3.736734890878582,-19.202177377959302,-3.073129114780249,-19.42897256933822,-2.4163452209582896,-19.639470391788613,-1.7669864198470435,-19.83394889899965,-1.1256078113690275,-20.012695573156527,-0.4927158919866983,-20.176006684077485,0.13123193824581136,-20.32418664835083,0.7458278686309203,-20.45754738847196,1.3507141707758503,-19.505981567023674,10.308913569264554,-19.181639931174594,10.652278580575398,-18.846261375150398,10.99441492537552,-18.49983603748526,11.335372390415703,-18.142370413232356,11.675201824724518,-17.77388633119363,12.013953686146898,-17.394419931149613,12.35167658788275,-17.004020641089127,12.688415845025519,-16.60275015443917,13.024212021100805,-16.190681407294633,13.359099474604946,-15.767897555648089,13.693104905543603,-15.33449095261958,14.026245901970352,-14.89056212568642,14.358529486525288,-14.43621875391293,14.689950662973597,-13.971574645180281,15.020490962744166,-13.495317339045874,15.350575270977158,-13.00609964048538,15.680687648269924,-12.503994246888043,16.010840390445647,-11.98908302737078,16.3409826759797,-11.461456802209733,16.67100013226176,-10.921215123404407,17.000714521771513,-10.368466064011129,17.329883559020452,-9.803326023882372,17.658200869112257,-9.225919559448753,17.98529609877436,-8.636379245180354,18.310735190713054,-8.034845574364025,18.63402083214484,-7.421466906833379,18.95459308835634,-6.796399471288154,19.27183023214543,-6.159807429839631,19.585049779996055,-5.511863012418788,19.893509745839204,-4.852746728683874,20.196410123252612,-4.182647665064097,20.49289460695166,-3.5017638745760813,20.78205256442402,-2.810302867049831,21.062921268560522,-2.108482207400824,21.33448840213478,-1.39653022958497,21.595694844984074,-0.6746868738730818,21.84543775474401,0.05679534491843974,22.082573951989467,0.7976502306040123,22.305923620634342,1.5475966525757157,22.51427433444259,2.306337138883854,22.706385420503103,3.073556307814576,22.88099267052094,3.848919130327884,23.036813410777324,4.632069015719274,23.172551941611104,5.422625712868423,23.286905357274,6.220183019438168,23.37856975701228,7.024306291387112,23.446246858227283,7.834529745159187,23.488651022567396,8.650353544913472,23.50451670580392,9.47124066715758,23.492606342343358,10.296613535147959,23.45171867522866,11.125850415420366,23.380697542481904,11.958281568813907,23.27844113064097,12.793185148351881,23.143911706342625,13.629782836342791,22.976145836804694,14.467235213064848,22.774265110059623,15.304636849397218,22.53748736579214,16.141011115761405,22.265138447633376,16.97530469973605,21.956664487764073,17.80638182470843,21.611644734679277,18.63301816192606,21.229804934967174,19.45389442831163,20.811031279954396,20.267589662404593,20.355384928070492,21.072574170792812,19.863117113783954,21.86720213739749,19.334684853962354,22.50674479803748,18.94764877334945,23.13360619904479,18.535287791579403,23.74647108493606,18.097395343976487,24.343956020964754,17.633804102627504,24.924607767132947,17.144387604944292,25.486901652202974,16.629061882226196,26.029239947709186,16.08778708822259,26.549950241969626,15.52056912769536,27.04728381409774,14.927461284981398,27.519414008014124,14.308565852555114,27.964434606458177,13.664035759590915,28.380358204999858,12.994076200525713,28.765114586051375,12.298946263621417,29.11654909287887,11.578960559527431,29.432421003614195,10.834490849843158"></polyline></clipPath><clipPath id="rightEyeClipPath"><polyline points="-31.33947419531185,2.277964851913236,-31.049300973920758,1.564849245625748,-30.721569699829367,0.8435522786851468,-30.358001471099406,0.1159728944961671,-29.960279760325164,-0.6160460620749895,-29.530050660610605,-1.3507173712199485,-29.068923131546462,-2.086308964707449,-28.578469245187428,-2.8211434524026533,-28.060224432029166,-3.5535976487864254,-27.515687726985526,-4.28210209947464,-26.94632201536558,-5.00514060773747,-26.353554278850794,-5.721249761018676,-25.738775841472112,-6.4290184574549265,-25.10334261558709,-7.127087432395065,-24.44857534785698,-7.814148784919414,-23.775759865223904,-8.48894550435908,-23.00110239651007,-9.34980218940603,-22.203246627158812,-10.194807141812493,-21.383878276369522,-11.021047220579003,-20.544698090308522,-11.825734705982882,-19.687416352987682,-12.606214872022314,-18.81374761579562,-13.359972792020056,-17.925405642605643,-14.084639396544517,-17.024098567384122,-14.777996802806232,-16.111524261223376,-15.437982934687675,-15.18936590572293,-16.062695452564213,-14.25928776964302,-16.65039501207431,-13.322931185754337,-17.19950787099669,-12.381910724807895,-17.708627863392543,-11.437810563548917,-18.17651776017071,-10.492181043698686,-18.60211003523355,-9.546535418828277,-18.98450705636174,-8.602346786048072,-19.32298071999563,-7.66104519943699,-19.61697154907128,-6.724014962135332,-19.86608727306899,-5.7925920940251725,-20.07010090943239,-4.868061971922224,-20.228948365515674,-3.9516571392030455,-20.34272558021744,-3.0445552817915846,-20.411685224458502,-2.147877367428901,-20.436232979662016,-1.2626859451500163,-20.416923413393622,-0.38998360189185455,-20.354455471319522,0.4692884268439288,-20.24966760464063,1.314251495349172,-20.10353255216038,2.144090638164684,-19.9171517961445,2.958055515708958,-19.691749711130292,3.7554612181563147,-19.428667424843656,4.5356889306404415,-19.12935641038163,5.298186462859505,-18.795371828818315,6.042468646158852,-18.42836564139227,6.768117601167445,-18.030079510433236,7.4747828790640405,-17.60233750818596,8.162181479549286,-17.14703865268933,8.83009774859969,-16.666149289868493,9.478383159079717,-16.16169534099803,10.106955977287923,-15.635754434694022,10.715800818513314,-15.090447942592977,11.30496809467799,-14.527932937875509,11.874573357142173,-13.95039409579282,12.424796537747623,-13.360035555353637,12.955881091175629,-12.75907276132983,13.468133041695603,-12.149724305738442,13.961919937380364,-11.534203787958102,14.437669714864233,-10.914711712637814,14.895869477719879,-10.293427444555856,15.337064191530276,-9.672501239587042,15.762138372516079,-9.04985870750653,16.171657443136795,-8.42276077512685,16.565740347823542,-7.792313012872725,16.944519096458215,-7.159590812969718,17.308138352398025,-6.525636823650856,17.65675502050017,-5.891458383363371,17.99053783514642,-5.2580249549753155,18.309666948267775,-4.626265559982217,18.614333517369026,-3.997066212713804,18.904739293553433,-3.37126735454064,19.1810962095473,-2.7496612880807874,19.4436259677246,-2.132989611406492,19.692559628131626,-1.5219406522508372,19.92813719651155,-0.9171469022144194,19.179569332260286,6.430519314847487,18.97330763876105,6.90083028159431,18.755287713189993,7.365433412188606,18.525417526048727,7.824328184109271,18.283617371035767,8.277521862613726,18.02981907426021,8.72502809375416,17.76396520345554,9.166865497393783,17.486008277193243,9.60305626022306,17.1959099740966,10.033624728775962,16.893640342054383,10.458596002446214,16.579177007434538,10.877994526503524,16.252504384298,11.291842685109847,15.913612883612286,11.70015939433561,15.562498122465309,12.102958695175973,15.19916013327907,12.50024834656706,14.82269685091086,12.892770245820287,14.432073684651003,13.281233558790273,14.027102037637809,13.665562190264218,13.607603457166855,14.045640684852096,13.173410109440047,14.421313754666993,12.724365256915034,14.792385887034056,12.2603237441593,15.158621042733461,11.781152498113558,15.519742455282948,11.286731048668988,15.87543254176536,10.776952075462853,16.225332935706653,10.251721986796992,16.569044652509927,9.710961536583772,16.90612839795085,9.154606485224045,17.23610503024005,8.582608310321561,17.558456186157894,7.9949349731385,17.87262508176716,7.391571746696574,18.178017498209094,6.772522111428243,18.47400296308826,6.1378087242826265,18.759916137951755,5.487474467190614,19.03505842236823,4.8215835807937015,19.29869978511215,4.140222889341141,19.55008083295884,3.4435031226598714,19.788415127595776,2.731560341101847,20.012891761155565,2.0045574693732284,20.222678200876135,1.2626859451500163,20.416923413393622,0.5061674883846559,20.59476127917334,-0.26474400279184884,20.755314307584477,-1.0497604236677969,20.89769766312378,-1.8485572961440342,21.021023513293986,-2.6607714576181065,21.124405708642147,-3.485998599654757,21.206964805463635,-4.323790650538197,21.26783344167711,-5.173652995801685,21.30616207637597,-6.035041530829815,21.321125103561872,-6.9073595396289855,21.311927350565597,-7.78995439386156,21.27781097166095,-8.682114066239102,21.21806274737702,-9.583063452370226,21.132021800014364,-10.491960495158468,21.01908773587055,-11.407892105845661,20.87872922468057,-12.329869875796307,20.710493026777574,-13.256825573118345,20.514013478479423,-14.187606418215815,20.289022446206516,-15.120970132368887,20.03535975983641,-16.055579753436724,19.75298413580066,-16.98999821277857,19.441984600429414,-17.922682667488658,19.10259242404919,-18.851978582040246,18.73519357633934,-19.77611355343435,18.340341713452705,-20.69319087394863,17.918771707405845,-21.43529756554223,17.626530961625974,-22.16787019291794,17.317294110443193,-22.889551679889884,16.99120820838625,-23.598915207075166,16.648465814289082,-24.29446262102536,16.2893065824448,-24.974622843358034,15.914018853759657,-25.637750279888273,15.522941246907042,-26.282123229760188,15.116464249481442,-26.90594229457843,14.695031809152434,-27.50732878753972,14.259142924818654,-28.084323142564344,13.809353237761771,-28.634883323427694,13.346276622800474,-29.156883232891758,12.870586779444452,-29.64811112183667,12.383018823048355,-30.10626799839219,11.884370875965796"></polyline></clipPath><filter id="fuzzy"><feTurbulence id="turbulence" baseFrequency="0.05" numOctaves="3" type="noise" result="noise"></feTurbulence><feDisplacementMap in="SourceGraphic" in2="noise" scale="2"></feDisplacementMap></filter><linearGradient id="rainbowGradient" x1="0%" y1="0%" x2="100%" y2="0%"><stop offset="0%" style="stop-color: rgb(145, 85, 61);  stop-opacity: 1"></stop><stop offset="50%" style="stop-color: rgb(255, 105, 180);  stop-opacity: 1"></stop><stop offset="100%" style="stop-color: rgb(233, 236, 239);  stop-opacity: 1"></stop></linearGradient></defs><title>That&#39;s an ugly face</title><desc>CREATED BY XUAN TANG, MORE INFO AT TXSTC55.GITHUB.IO</desc><rect x="-100" y="-100" width="100%" height="100%" opacity="1" fill="rgb(0, 0, 139)"></rect><polyline id="faceContour" points="69,1,69,2,69,4,69,3,69,4,69,6,69,10,69,9,69,9,68,14,68,15,68,14,68,16,67,20,67,19,67,21,67,21,66,23,66,25,65,28,65,28,65,29,64,31,64,32,63,34,63,34,63,35,63,35,62,38,60,41,61,41,61,41,59,44,59,45,59,45,57,49,57,48,57,50,57,50,55,52,55,52,54,54,54,55,53,56,52,57,52,57,51,59,51,60,49,62,48,64,47,65,47,65,45,67,46,67,44,69,44,69,42,71,43,71,42,71,39,74,39,75,39,75,37,76,38,76,36,77,34,79,33,79,33,80,32,81,31,82,30,82,30,83,28,83,27,84,26,85,26,85,25,85,22,87,22,87,23,87,19,89,21,88,19,89,18,89,18,89,15,90,15,90,13,91,13,91,11,92,10,92,10,92,8,92,8,93,7,93,6,93,4,93,3,93,3,93,1,94,0,94,0,94,-4,94,-4,94,-5,94,-5,94,-5,94,-8,94,-8,94,-9,93,-10,93,-11,93,-12,93,-12,93,-13,93,-16,92,-17,92,-18,91,-19,91,-19,91,-20,90,-22,90,-24,89,-22,90,-23,89,-25,89,-26,88,-28,87,-29,86,-31,85,-32,85,-31,85,-31,85,-33,83,-33,83,-35,81,-37,80,-36,81,-37,80,-38,80,-39,78,-40,77,-41,77,-42,76,-43,74,-43,74,-45,73,-45,72,-46,71,-48,68,-47,69,-47,69,-49,67,-50,65,-50,64,-51,64,-51,64,-53,60,-53,60,-55,57,-55,57,-54,58,-56,55,-57,53,-57,52,-57,52,-59,48,-59,49,-60,45,-60,47,-61,44,-61,43,-62,41,-62,41,-63,38,-63,38,-63,38,-64,34,-64,33,-65,32,-65,30,-66,27,-66,27,-66,25,-67,22,-67,21,-67,20,-67,21,-67,21,-68,18,-68,14,-68,15,-68,13,-69,10,-69,9,-69,9,-69,5,-69,5,-69,4,-69,0,-70,-1,-69,-3,-69,-3,-69,-3,-70,-5,-69,-7,-69,-11,-69,-11,-69,-14,-69,-16,-69,-15,-69,-16,-69,-19,-69,-20,-69,-22,-68,-23,-68,-24,-68,-26,-68,-28,-68,-27,-67,-29,-67,-30,-66,-33,-66,-35,-66,-36,-65,-39,-65,-41,-65,-40,-64,-43,-64,-43,-64,-43,-63,-45,-62,-48,-62,-49,-61,-50,-61,-50,-60,-53,-60,-53,-58,-57,-59,-55,-58,-57,-58,-57,-56,-60,-56,-61,-56,-62,-55,-63,-54,-64,-53,-65,-52,-66,-52,-67,-51,-68,-50,-70,-50,-70,-49,-71,-47,-73,-46,-74,-46,-75,-46,-74,-45,-75,-44,-77,-43,-77,-41,-80,-41,-80,-39,-81,-39,-81,-38,-82,-37,-83,-36,-83,-36,-84,-36,-84,-32,-86,-31,-86,-31,-86,-31,-87,-29,-88,-28,-88,-28,-88,-25,-90,-24,-90,-25,-89,-22,-90,-21,-91,-21,-91,-18,-92,-17,-92,-17,-92,-15,-93,-16,-93,-13,-93,-14,-93,-10,-93,-12,-93,-10,-93,-7,-94,-8,-93,-7,-94,-5,-94,-5,-94,-3,-94,-2,-94,0,-94,2,-94,2,-94,5,-93,5,-93,4,-93,7,-93,6,-93,9,-93,10,-92,13,-92,13,-92,14,-91,14,-91,16,-91,17,-90,19,-89,20,-89,20,-89,23,-88,24,-87,24,-87,25,-87,24,-87,26,-86,28,-85,28,-85,30,-84,32,-83,33,-82,34,-81,35,-80,35,-81,37,-78,38,-78,37,-79,39,-77,40,-76,41,-76,41,-75,42,-75,44,-72,44,-73,45,-71,46,-71,48,-68,48,-68,48,-68,49,-67,51,-64,51,-64,52,-63,53,-62,53,-61,54,-61,54,-59,55,-58,56,-56,57,-55,57,-55,57,-54,59,-51,59,-50,59,-50,59,-50,61,-47,61,-47,62,-45,62,-43,63,-40,63,-41,63,-40,65,-37,64,-38,65,-35,65,-34,66,-34,66,-31,67,-29,67,-29,67,-29,67,-28,67,-26,68,-24,68,-22,68,-21,69,-17,69,-19,69,-16,69,-14,69,-14,69,-11,69,-13,69,-11,69,-10,69,-8,69,-7,69,-4,69,-5,69,-1,69,1,69,2" fill="#ffc9a9" stroke="black" stroke-width="1.6666666666666665" stroke-linejoin="round" filter="url(#fuzzy)"></polyline><g transform="translate(44.97087725429411 -23.62799456722141)"><polyline id="rightCountour" points="-31.33947419531185,2.277964851913236,-31.049300973920758,1.564849245625748,-30.721569699829367,0.8435522786851468,-30.358001471099406,0.1159728944961671,-29.960279760325164,-0.6160460620749895,-29.530050660610605,-1.3507173712199485,-29.068923131546462,-2.086308964707449,-28.578469245187428,-2.8211434524026533,-28.060224432029166,-3.5535976487864254,-27.515687726985526,-4.28210209947464,-26.94632201536558,-5.00514060773747,-26.353554278850794,-5.721249761018676,-25.738775841472112,-6.4290184574549265,-25.10334261558709,-7.127087432395065,-24.44857534785698,-7.814148784919414,-23.775759865223904,-8.48894550435908,-23.00110239651007,-9.34980218940603,-22.203246627158812,-10.194807141812493,-21.383878276369522,-11.021047220579003,-20.544698090308522,-11.825734705982882,-19.687416352987682,-12.606214872022314,-18.81374761579562,-13.359972792020056,-17.925405642605643,-14.084639396544517,-17.024098567384122,-14.777996802806232,-16.111524261223376,-15.437982934687675,-15.18936590572293,-16.062695452564213,-14.25928776964302,-16.65039501207431,-13.322931185754337,-17.19950787099669,-12.381910724807895,-17.708627863392543,-11.437810563548917,-18.17651776017071,-10.492181043698686,-18.60211003523355,-9.546535418828277,-18.98450705636174,-8.602346786048072,-19.32298071999563,-7.66104519943699,-19.61697154907128,-6.724014962135332,-19.86608727306899,-5.7925920940251725,-20.07010090943239,-4.868061971922224,-20.228948365515674,-3.9516571392030455,-20.34272558021744,-3.0445552817915846,-20.411685224458502,-2.147877367428901,-20.436232979662016,-1.2626859451500163,-20.416923413393622,-0.38998360189185455,-20.354455471319522,0.4692884268439288,-20.24966760464063,1.314251495349172,-20.10353255216038,2.144090638164684,-19.9171517961445,2.958055515708958,-19.691749711130292,3.7554612181563147,-19.428667424843656,4.5356889306404415,-19.12935641038163,5.298186462859505,-18.795371828818315,6.042468646158852,-18.42836564139227,6.768117601167445,-18.030079510433236,7.4747828790640405,-17.60233750818596,8.162181479549286,-17.14703865268933,8.83009774859969,-16.666149289868493,9.478383159079717,-16.16169534099803,10.106955977287923,-15.635754434694022,10.715800818513314,-15.090447942592977,11.30496809467799,-14.527932937875509,11.874573357142173,-13.95039409579282,12.424796537747623,-13.360035555353637,12.955881091175629,-12.75907276132983,13.468133041695603,-12.149724305738442,13.961919937380364,-11.534203787958102,14.437669714864233,-10.914711712637814,14.895869477719879,-10.293427444555856,15.337064191530276,-9.672501239587042,15.762138372516079,-9.04985870750653,16.171657443136795,-8.42276077512685,16.565740347823542,-7.792313012872725,16.944519096458215,-7.159590812969718,17.308138352398025,-6.525636823650856,17.65675502050017,-5.891458383363371,17.99053783514642,-5.2580249549753155,18.309666948267775,-4.626265559982217,18.614333517369026,-3.997066212713804,18.904739293553433,-3.37126735454064,19.1810962095473,-2.7496612880807874,19.4436259677246,-2.132989611406492,19.692559628131626,-1.5219406522508372,19.92813719651155,-0.9171469022144194,19.179569332260286,6.430519314847487,18.97330763876105,6.90083028159431,18.755287713189993,7.365433412188606,18.525417526048727,7.824328184109271,18.283617371035767,8.277521862613726,18.02981907426021,8.72502809375416,17.76396520345554,9.166865497393783,17.486008277193243,9.60305626022306,17.1959099740966,10.033624728775962,16.893640342054383,10.458596002446214,16.579177007434538,10.877994526503524,16.252504384298,11.291842685109847,15.913612883612286,11.70015939433561,15.562498122465309,12.102958695175973,15.19916013327907,12.50024834656706,14.82269685091086,12.892770245820287,14.432073684651003,13.281233558790273,14.027102037637809,13.665562190264218,13.607603457166855,14.045640684852096,13.173410109440047,14.421313754666993,12.724365256915034,14.792385887034056,12.2603237441593,15.158621042733461,11.781152498113558,15.519742455282948,11.286731048668988,15.87543254176536,10.776952075462853,16.225332935706653,10.251721986796992,16.569044652509927,9.710961536583772,16.90612839795085,9.154606485224045,17.23610503024005,8.582608310321561,17.558456186157894,7.9949349731385,17.87262508176716,7.391571746696574,18.178017498209094,6.772522111428243,18.47400296308826,6.1378087242826265,18.759916137951755,5.487474467190614,19.03505842236823,4.8215835807937015,19.29869978511215,4.140222889341141,19.55008083295884,3.4435031226598714,19.788415127595776,2.731560341101847,20.012891761155565,2.0045574693732284,20.222678200876135,1.2626859451500163,20.416923413393622,0.5061674883846559,20.59476127917334,-0.26474400279184884,20.755314307584477,-1.0497604236677969,20.89769766312378,-1.8485572961440342,21.021023513293986,-2.6607714576181065,21.124405708642147,-3.485998599654757,21.206964805463635,-4.323790650538197,21.26783344167711,-5.173652995801685,21.30616207637597,-6.035041530829815,21.321125103561872,-6.9073595396289855,21.311927350565597,-7.78995439386156,21.27781097166095,-8.682114066239102,21.21806274737702,-9.583063452370226,21.132021800014364,-10.491960495158468,21.01908773587055,-11.407892105845661,20.87872922468057,-12.329869875796307,20.710493026777574,-13.256825573118345,20.514013478479423,-14.187606418215815,20.289022446206516,-15.120970132368887,20.03535975983641,-16.055579753436724,19.75298413580066,-16.98999821277857,19.441984600429414,-17.922682667488658,19.10259242404919,-18.851978582040246,18.73519357633934,-19.77611355343435,18.340341713452705,-20.69319087394863,17.918771707405845,-21.43529756554223,17.626530961625974,-22.16787019291794,17.317294110443193,-22.889551679889884,16.99120820838625,-23.598915207075166,16.648465814289082,-24.29446262102536,16.2893065824448,-24.974622843358034,15.914018853759657,-25.637750279888273,15.522941246907042,-26.282123229760188,15.116464249481442,-26.90594229457843,14.695031809152434,-27.50732878753972,14.259142924818654,-28.084323142564344,13.809353237761771,-28.634883323427694,13.346276622800474,-29.156883232891758,12.870586779444452,-29.64811112183667,12.383018823048355,-30.10626799839219,11.884370875965796" fill="white" stroke="white" stroke-width="0" stroke-linejoin="round" filter="url(#fuzzy)"></polyline></g><g transform="translate(-32.540315283308665 -25.40161866543938)"><polyline id="leftCountour" points="29.413435853399598,1.245004255989766,29.135992394808973,0.30546045817271583,28.816998762665648,-0.6367786962732325,28.458387910262367,-1.5787753600019414,28.06205229636602,-2.5177340949887217,27.629844083328805,-3.4509990674940916,27.16357533519941,-4.376051243027543,26.665018215834166,-5.290505581311333,26.13590518700824,-6.192108231244223,25.57792920652676,-7.078733725865291,24.992743926336047,-7.948382177317672,24.381963890634694,-8.799176471812341,23.747164733984846,-9.629359464591897,23.089883379423263,-10.437291174894323,22.411618236572558,-11.221445980916751,21.713829399752314,-11.980409814779254,20.90694960035109,-13.04573692654133,20.07498752924281,-14.069270797272598,19.21990540792506,-15.047761507541392,18.343685338508614,-15.978321850573224,17.44832212826566,-16.85841438869828,16.535816420124945,-17.685838572363902,15.608168124328744,-18.4587179253927,14.667370146466476,-19.175487300166992,13.715402407099946,-19.83488020642024,12.75422614819504,-20.43591621731623,11.785778521574784,-20.977888456496533,10.81196745460867,-21.460351169777088,9.834666788353115,-21.88310738517445,8.855711683357953,-22.24619666494254,7.876894288353846,-22.549882953300358,6.899959667035516,-22.794642523531582,5.926601978155668,-22.98115202813653,4.958460904144534,-23.110276655717303,3.9971183234698513,-23.183058398276696,3.044095221952252,-23.20070443261169,2.100848838250908,-23.16457561948194,1.1687700387342925,-23.07617512423435,0.24918091695104128,-22.937137162563953,-0.6566673870843012,-22.74921587509208,-1.5475966525757157,-22.514274334442586,-2.4225033333853805,-22.234273688496312,-3.2803601080138147,-21.91126244350512,-4.120217228905469,-21.547365890745656,-4.941203675864999,-21.14477568039384,-5.742528118369188,-20.705739546300574,-6.523479691559796,-20.23255118534945,-7.283428590702295,-19.727540295077137,-8.021826488895721,-19.193062773237067,-8.738206782818615,-18.631491082987107,-9.432184671296351,-18.04520478738204,-10.103457071474766,-17.436581256851262,-10.751802377385355,-16.80798655334263,-11.377080065687009,-16.16176649481309,-11.979230153369565,-15.50023790374657,-12.558272512204125,-14.8256800433801,-13.114306044725298,-14.140326245318644,-13.647507726530582,-13.446355732219406,-14.15813151968183,-12.745885639226291,-14.646507161994007,-12.040963237835104,-15.113038836996369,-11.333558365870381,-15.558203729351076,-10.625556067254234,-15.98255047051446,-9.918749445248189,-16.386697479425983,-9.214832732848482,-16.771331203010014,-8.5153945840156,-17.137204261275556,-7.821911589418715,-17.484939963560876,-7.132674015965936,-17.814749751471815,-6.445656346537142,-18.126827735062115,-5.761740102724399,-18.4213819389224,-5.081761653297431,-18.69863366131714,-4.406511721255388,-18.958816833321677,-3.736734890878582,-19.202177377959302,-3.073129114780249,-19.42897256933822,-2.4163452209582896,-19.639470391788613,-1.7669864198470435,-19.83394889899965,-1.1256078113690275,-20.012695573156527,-0.4927158919866983,-20.176006684077485,0.13123193824581136,-20.32418664835083,0.7458278686309203,-20.45754738847196,1.3507141707758503,-19.505981567023674,10.308913569264554,-19.181639931174594,10.652278580575398,-18.846261375150398,10.99441492537552,-18.49983603748526,11.335372390415703,-18.142370413232356,11.675201824724518,-17.77388633119363,12.013953686146898,-17.394419931149613,12.35167658788275,-17.004020641089127,12.688415845025519,-16.60275015443917,13.024212021100805,-16.190681407294633,13.359099474604946,-15.767897555648089,13.693104905543603,-15.33449095261958,14.026245901970352,-14.89056212568642,14.358529486525288,-14.43621875391293,14.689950662973597,-13.971574645180281,15.020490962744166,-13.495317339045874,15.350575270977158,-13.00609964048538,15.680687648269924,-12.503994246888043,16.010840390445647,-11.98908302737078,16.3409826759797,-11.461456802209733,16.67100013226176,-10.921215123404407,17.000714521771513,-10.368466064011129,17.329883559020452,-9.803326023882372,17.658200869112257,-9.225919559448753,17.98529609877436,-8.636379245180354,18.310735190713054,-8.034845574364025,18.63402083214484,-7.421466906833379,18.95459308835634,-6.796399471288154,19.27183023214543,-6.159807429839631,19.585049779996055,-5.511863012418788,19.893509745839204,-4.852746728683874,20.196410123252612,-4.182647665064097,20.49289460695166,-3.5017638745760813,20.78205256442402,-2.810302867049831,21.062921268560522,-2.108482207400824,21.33448840213478,-1.39653022958497,21.595694844984074,-0.6746868738730818,21.84543775474401,0.05679534491843974,22.082573951989467,0.7976502306040123,22.305923620634342,1.5475966525757157,22.51427433444259,2.306337138883854,22.706385420503103,3.073556307814576,22.88099267052094,3.848919130327884,23.036813410777324,4.632069015719274,23.172551941611104,5.422625712868423,23.286905357274,6.220183019438168,23.37856975701228,7.024306291387112,23.446246858227283,7.834529745159187,23.488651022567396,8.650353544913472,23.50451670580392,9.47124066715758,23.492606342343358,10.296613535147959,23.45171867522866,11.125850415420366,23.380697542481904,11.958281568813907,23.27844113064097,12.793185148351881,23.143911706342625,13.629782836342791,22.976145836804694,14.467235213064848,22.774265110059623,15.304636849397218,22.53748736579214,16.141011115761405,22.265138447633376,16.97530469973605,21.956664487764073,17.80638182470843,21.611644734679277,18.63301816192606,21.229804934967174,19.45389442831163,20.811031279954396,20.267589662404593,20.355384928070492,21.072574170792812,19.863117113783954,21.86720213739749,19.334684853962354,22.50674479803748,18.94764877334945,23.13360619904479,18.535287791579403,23.74647108493606,18.097395343976487,24.343956020964754,17.633804102627504,24.924607767132947,17.144387604944292,25.486901652202974,16.629061882226196,26.029239947709186,16.08778708822259,26.549950241969626,15.52056912769536,27.04728381409774,14.927461284981398,27.519414008014124,14.308565852555114,27.964434606458177,13.664035759590915,28.380358204999858,12.994076200525713,28.765114586051375,12.298946263621417,29.11654909287887,11.578960559527431,29.432421003614195,10.834490849843158" fill="white" stroke="white" stroke-width="0" stroke-linejoin="round" filter="url(#fuzzy)"></polyline></g><g transform="translate(44.97087725429411 -23.62799456722141)"><polyline id="rightUpper" points="-31.769477281724797,8.500320166406418,-31.95799845720525,7.9861402710907194,-32.08962708369368,7.4415999957004075,-32.16647404266755,6.8691853104642755,-32.19061013036572,6.27132135226554,-32.16406630376557,5.650372898122539,-32.08883392656015,5.008644838669446,-31.966865015135213,4.348382651636975,-31.80007248454642,3.671772875333076,-31.59033039449639,2.980943582123646,-31.33947419531185,2.277964851913236,-31.049300973920758,1.564849245625748,-30.721569699829367,0.8435522786851468,-30.358001471099406,0.1159728944961671,-29.960279760325164,-0.6160460620749895,-29.530050660610605,-1.3507173712199485,-29.068923131546462,-2.086308964707449,-28.578469245187428,-2.8211434524026533,-28.060224432029166,-3.5535976487864254,-27.515687726985526,-4.28210209947464,-26.94632201536558,-5.00514060773747,-26.353554278850794,-5.721249761018676,-25.738775841472112,-6.4290184574549265,-25.10334261558709,-7.127087432395065,-24.44857534785698,-7.814148784919414,-23.775759865223904,-8.48894550435908,-23.00110239651007,-9.34980218940603,-22.203246627158812,-10.194807141812493,-21.383878276369522,-11.021047220579003,-20.544698090308522,-11.825734705982882,-19.687416352987682,-12.606214872022314,-18.81374761579562,-13.359972792020056,-17.925405642605643,-14.084639396544517,-17.024098567384122,-14.777996802806232,-16.111524261223376,-15.437982934687675,-15.18936590572293,-16.062695452564213,-14.25928776964302,-16.65039501207431,-13.322931185754337,-17.19950787099669,-12.381910724807895,-17.708627863392543,-11.437810563548917,-18.17651776017071,-10.492181043698686,-18.60211003523355,-9.546535418828277,-18.98450705636174,-8.602346786048072,-19.32298071999563,-7.66104519943699,-19.61697154907128,-6.724014962135332,-19.86608727306899,-5.7925920940251725,-20.07010090943239,-4.868061971922224,-20.228948365515674,-3.9516571392030455,-20.34272558021744,-3.0445552817915846,-20.411685224458502,-2.147877367428901,-20.436232979662016,-1.2626859451500163,-20.416923413393622,-0.38998360189185455,-20.354455471319522,0.4692884268439288,-20.24966760464063,1.314251495349172,-20.10353255216038,2.144090638164684,-19.9171517961445,2.958055515708958,-19.691749711130292,3.7554612181563147,-19.428667424843656,4.5356889306404415,-19.12935641038163,5.298186462859505,-18.795371828818315,6.042468646158852,-18.42836564139227,6.768117601167445,-18.030079510433236,7.4747828790640405,-17.60233750818596,8.162181479549286,-17.14703865268933,8.83009774859969,-16.666149289868493,9.478383159079717,-16.16169534099803,10.106955977287923,-15.635754434694022,10.715800818513314,-15.090447942592977,11.30496809467799,-14.527932937875509,11.874573357142173,-13.95039409579282,12.424796537747623,-13.360035555353637,12.955881091175629,-12.75907276132983,13.468133041695603,-12.149724305738442,13.961919937380364,-11.534203787958102,14.437669714864233,-10.914711712637814,14.895869477719879,-10.293427444555856,15.337064191530276,-9.672501239587042,15.762138372516079,-9.04985870750653,16.171657443136795,-8.42276077512685,16.565740347823542,-7.792313012872725,16.944519096458215,-7.159590812969718,17.308138352398025,-6.525636823650856,17.65675502050017,-5.891458383363371,17.99053783514642,-5.2580249549753155,18.309666948267775,-4.626265559982217,18.614333517369026,-3.997066212713804,18.904739293553433,-3.37126735454064,19.1810962095473,-2.7496612880807874,19.4436259677246,-2.132989611406492,19.692559628131626,-1.5219406522508372,19.92813719651155,-0.9171469022144194,20.150607212329078,-0.3191824509720256,20.360226336795094,0.27143957952071496,20.557258940891195,0.8542696008206665,20.741976693394406,1.4289241237904822,20.9146581489017,1.9950883243919755,21.075588335854725,2.5525186094794448,21.225058344564317,3.101045182592979,21.36336491523518,3.640574609751824,21.490810025990484,4.171092385247681,21.60770048089649,4.692665497438064" fill="none" stroke="black" stroke-width="1.6666666666666665" stroke-linejoin="round" filter="url(#fuzzy)"></polyline><polyline id="rightLower" points="-32.297589385870474,6.5123143296913675,-32.3169180621159,7.062866239326938,-32.27503746493361,7.614134820629516,-32.175206511464,8.164604367787206,-32.02058096741225,8.712838093526841,-31.814215037916867,9.257476537960011,-31.55906295841814,9.797235977429077,-31.257980585526568,10.330906833353193,-30.913726987891444,10.857352081074332,-30.528966037069246,11.37550565870331,-30.10626799839219,11.884370875965796,-29.64811112183667,12.383018823048355,-29.156883232891758,12.870586779444452,-28.634883323427694,13.346276622800474,-28.084323142564344,13.809353237761771,-27.50732878753972,14.259142924818654,-26.90594229457843,14.695031809152434,-26.282123229760188,15.116464249481442,-25.637750279888273,15.522941246907042,-24.974622843358034,15.914018853759657,-24.29446262102536,16.2893065824448,-23.598915207075166,16.648465814289082,-22.889551679889884,16.99120820838625,-22.16787019291794,17.317294110443193,-21.43529756554223,17.626530961625974,-20.69319087394863,17.918771707405845,-19.77611355343435,18.340341713452705,-18.851978582040246,18.73519357633934,-17.922682667488658,19.10259242404919,-16.98999821277857,19.441984600429414,-16.055579753436724,19.75298413580066,-15.120970132368887,20.03535975983641,-14.187606418215815,20.289022446206516,-13.256825573118345,20.514013478479423,-12.329869875796307,20.710493026777574,-11.407892105845661,20.87872922468057,-10.491960495158468,21.01908773587055,-9.583063452370226,21.132021800014364,-8.682114066239102,21.21806274737702,-7.78995439386156,21.27781097166095,-6.9073595396289855,21.311927350565597,-6.035041530829815,21.321125103561872,-5.173652995801685,21.30616207637597,-4.323790650538197,21.26783344167711,-3.485998599654757,21.206964805463635,-2.6607714576181065,21.124405708642147,-1.8485572961440342,21.021023513293986,-1.0497604236677969,20.89769766312378,-0.26474400279184884,20.755314307584477,0.5061674883846559,20.59476127917334,1.2626859451500163,20.416923413393622,2.0045574693732284,20.222678200876135,2.731560341101847,20.012891761155565,3.4435031226598714,19.788415127595776,4.140222889341141,19.55008083295884,4.8215835807937015,19.29869978511215,5.487474467190614,19.03505842236823,6.1378087242826265,18.759916137951755,6.772522111428243,18.47400296308826,7.391571746696574,18.178017498209094,7.9949349731385,17.87262508176716,8.582608310321561,17.558456186157894,9.154606485224045,17.23610503024005,9.710961536583772,16.90612839795085,10.251721986796992,16.569044652509927,10.776952075462853,16.225332935706653,11.286731048668988,15.87543254176536,11.781152498113558,15.519742455282948,12.2603237441593,15.158621042733461,12.724365256915034,14.792385887034056,13.173410109440047,14.421313754666993,13.607603457166855,14.045640684852096,14.027102037637809,13.665562190264218,14.432073684651003,13.281233558790273,14.82269685091086,12.892770245820287,15.19916013327907,12.50024834656706,15.562498122465309,12.102958695175973,15.913612883612286,11.70015939433561,16.252504384298,11.291842685109847,16.579177007434538,10.877994526503524,16.893640342054383,10.458596002446214,17.1959099740966,10.033624728775962,17.486008277193243,9.60305626022306,17.76396520345554,9.166865497393783,18.02981907426021,8.72502809375416,18.283617371035767,8.277521862613726,18.525417526048727,7.824328184109271,18.755287713189993,7.365433412188606,18.97330763876105,6.90083028159431,19.179569332260286,6.430519314847487,19.37417793716928,5.954510229231531,19.55725250173903,5.472823343775867,19.728926769776315,4.985490986239718,19.889349971429922,4.492558900095859,20.038687613976926,3.9940876515143717,20.177122272608997,3.4901540363463877,20.304854381218668,2.98085248710787,20.42210302318562,2.4662964799633462,20.52910672216295,1.9466199417096792,20.62612423286349,1.421978656759812" fill="none" stroke="black" stroke-width="2.2222222222222223" stroke-linejoin="round" filter="url(#fuzzy)"></polyline><!--[--><circle r="4.730210308526517" cx="12.340357037990351" cy="7.377010166444496" stroke="black" fill="none" stroke-width="1" filter="url(#fuzzy)" clip-path="url(#rightEyeClipPath)"></circle><circle r="4.416603159036765" cx="10.385166192814877" cy="9.195298138411031" stroke="black" fill="none" stroke-width="1" filter="url(#fuzzy)" clip-path="url(#rightEyeClipPath)"></circle><circle r="3.554062482984009" cx="9.50250282119909" cy="11.010305704016702" stroke="black" fill="none" stroke-width="1" filter="url(#fuzzy)" clip-path="url(#rightEyeClipPath)"></circle><circle r="3.551780203788955" cx="8.818652468061444" cy="9.038034240110532" stroke="black" fill="none" stroke-width="1" filter="url(#fuzzy)" clip-path="url(#rightEyeClipPath)"></circle><circle r="3.912274285512169" cx="10.190747901697856" cy="9.220515012859916" stroke="black" fill="none" stroke-width="1" filter="url(#fuzzy)" clip-path="url(#rightEyeClipPath)"></circle><circle r="4.22725516439537" cx="12.09945226846887" cy="8.932366249890274" stroke="black" fill="none" stroke-width="1" filter="url(#fuzzy)" clip-path="url(#rightEyeClipPath)"></circle><circle r="4.714298961014601" cx="10.746371303474879" cy="9.360113002648882" stroke="black" fill="none" stroke-width="1" filter="url(#fuzzy)" clip-path="url(#rightEyeClipPath)"></circle><circle r="4.4479077725674205" cx="9.81855109955014" cy="10.107746248697827" stroke="black" fill="none" stroke-width="1" filter="url(#fuzzy)" clip-path="url(#rightEyeClipPath)"></circle><circle r="4.521588441776147" cx="8.690073760604225" cy="9.536447602513439" stroke="black" fill="none" stroke-width="1" filter="url(#fuzzy)" clip-path="url(#rightEyeClipPath)"></circle><circle r="4.766109090824464" cx="9.070632133408804" cy="8.860645342285933" stroke="black" fill="none" stroke-width="1" filter="url(#fuzzy)" clip-path="url(#rightEyeClipPath)"></circle><!--]--></g><g transform="translate(-32.540315283308665 -25.40161866543938)"><polyline id="leftUpper" points="29.44801096496235,9.738432856069155,29.70143211817198,9.020759880196591,29.891702781522667,8.262563453584828,30.021171749679922,7.468359793786868,30.092145341671717,6.642494658672002,30.106887598999663,5.78914615146204,30.067620483750183,4.9123275257675285,29.976524076705637,4.0158899906239895,29.83573677545556,3.103525515528144,29.647355492507778,2.1787696354741364,29.413435853399598,1.245004255989766,29.135992394808973,0.30546045817271583,28.816998762665648,-0.6367786962732325,28.458387910262367,-1.5787753600019414,28.06205229636602,-2.5177340949887217,27.629844083328805,-3.4509990674940916,27.16357533519941,-4.376051243027543,26.665018215834166,-5.290505581311333,26.13590518700824,-6.192108231244223,25.57792920652676,-7.078733725865291,24.992743926336047,-7.948382177317672,24.381963890634694,-8.799176471812341,23.747164733984846,-9.629359464591897,23.089883379423263,-10.437291174894323,22.411618236572558,-11.221445980916751,21.713829399752314,-11.980409814779254,20.90694960035109,-13.04573692654133,20.07498752924281,-14.069270797272598,19.21990540792506,-15.047761507541392,18.343685338508614,-15.978321850573224,17.44832212826566,-16.85841438869828,16.535816420124945,-17.685838572363902,15.608168124328744,-18.4587179253927,14.667370146466476,-19.175487300166992,13.715402407099946,-19.83488020642024,12.75422614819504,-20.43591621731623,11.785778521574784,-20.977888456496533,10.81196745460867,-21.460351169777088,9.834666788353115,-21.88310738517445,8.855711683357953,-22.24619666494254,7.876894288353846,-22.549882953300358,6.899959667035516,-22.794642523531582,5.926601978155668,-22.98115202813653,4.958460904144534,-23.110276655717303,3.9971183234698513,-23.183058398276696,3.044095221952252,-23.20070443261169,2.100848838250908,-23.16457561948194,1.1687700387342925,-23.07617512423435,0.24918091695104128,-22.937137162563953,-0.6566673870843012,-22.74921587509208,-1.5475966525757157,-22.514274334442586,-2.4225033333853805,-22.234273688496312,-3.2803601080138147,-21.91126244350512,-4.120217228905469,-21.547365890745656,-4.941203675864999,-21.14477568039384,-5.742528118369188,-20.705739546300574,-6.523479691559796,-20.23255118534945,-7.283428590702295,-19.727540295077137,-8.021826488895721,-19.193062773237067,-8.738206782818615,-18.631491082987107,-9.432184671296351,-18.04520478738204,-10.103457071474766,-17.436581256851262,-10.751802377385355,-16.80798655334263,-11.377080065687009,-16.16176649481309,-11.979230153369565,-15.50023790374657,-12.558272512204125,-14.8256800433801,-13.114306044725298,-14.140326245318644,-13.647507726530582,-13.446355732219406,-14.15813151968183,-12.745885639226291,-14.646507161994007,-12.040963237835104,-15.113038836996369,-11.333558365870381,-15.558203729351076,-10.625556067254234,-15.98255047051446,-9.918749445248189,-16.386697479425983,-9.214832732848482,-16.771331203010014,-8.5153945840156,-17.137204261275556,-7.821911589418715,-17.484939963560876,-7.132674015965936,-17.814749751471815,-6.445656346537142,-18.126827735062115,-5.761740102724399,-18.4213819389224,-5.081761653297431,-18.69863366131714,-4.406511721255388,-18.958816833321677,-3.736734890878582,-19.202177377959302,-3.073129114780249,-19.42897256933822,-2.4163452209582896,-19.639470391788613,-1.7669864198470435,-19.83394889899965,-1.1256078113690275,-20.012695573156527,-0.4927158919866983,-20.176006684077485,0.13123193824581136,-20.32418664835083,0.7458278686309203,-20.45754738847196,1.3507141707758503,-20.576407691980407,1.9455836915408842,-20.68109257059686,2.530180345987594,-20.771932619360143,3.104299610327116,-20.849263375764338,3.6677890148683536,-20.9134246788957,4.220548636966267,-20.964760028569778,4.762531593970112,-21.003615944468386,5.293744536171651,-21.030341325276616,5.81424813975345,-21.04528680781994,6.324157599737087,-21.048804126201155,6.82364312293142" fill="none" stroke="black" stroke-width="2.2222222222222223" stroke-linejoin="round" filter="url(#fuzzy)"></polyline><polyline id="leftLower" points="30.077446715296162,2.16908430876388,30.26053737941246,3.124209555201002,30.38056692894277,4.062069998040604,30.440726166454553,4.9816327952460515,30.44410356949801,5.881938541355678,30.39368691659444,6.762099638920268,30.29236491322446,7.621298669940586,30.142928817816326,8.45878676730485,29.94807406773422,9.273881986226257,29.710401905266536,10.06596767568048,29.432421003614195,10.834490849843158,29.11654909287887,11.578960559527431,28.765114586051375,12.298946263621417,28.380358204999858,12.994076200525713,27.964434606458177,13.664035759590915,27.519414008014124,14.308565852555114,27.04728381409774,14.927461284981398,26.549950241969626,15.52056912769536,26.029239947709186,16.08778708822259,25.486901652202974,16.629061882226196,24.924607767132947,17.144387604944292,24.343956020964754,17.633804102627504,23.74647108493606,18.097395343976487,23.13360619904479,18.535287791579403,22.50674479803748,18.94764877334945,21.86720213739749,19.334684853962354,21.072574170792812,19.863117113783954,20.267589662404593,20.355384928070492,19.45389442831163,20.811031279954396,18.63301816192606,21.229804934967174,17.80638182470843,21.611644734679277,16.97530469973605,21.956664487764073,16.141011115761405,22.265138447633376,15.304636849397218,22.53748736579214,14.467235213064848,22.774265110059623,13.629782836342791,22.976145836804694,12.793185148351881,23.143911706342625,11.958281568813907,23.27844113064097,11.125850415420366,23.380697542481904,10.296613535147959,23.45171867522866,9.47124066715758,23.492606342343358,8.650353544913472,23.50451670580392,7.834529745159187,23.488651022567396,7.024306291387112,23.446246858227283,6.220183019438168,23.37856975701228,5.422625712868423,23.286905357274,4.632069015719274,23.172551941611104,3.848919130327884,23.036813410777324,3.073556307814576,22.88099267052094,2.306337138883854,22.706385420503103,1.5475966525757157,22.51427433444259,0.7976502306040123,22.305923620634342,0.05679534491843974,22.082573951989467,-0.6746868738730818,21.84543775474401,-1.39653022958497,21.595694844984074,-2.108482207400824,21.33448840213478,-2.810302867049831,21.062921268560522,-3.5017638745760813,20.78205256442402,-4.182647665064097,20.49289460695166,-4.852746728683874,20.196410123252612,-5.511863012418788,19.893509745839204,-6.159807429839631,19.585049779996055,-6.796399471288154,19.27183023214543,-7.421466906833379,18.95459308835634,-8.034845574364025,18.63402083214484,-8.636379245180354,18.310735190713054,-9.225919559448753,17.98529609877436,-9.803326023882372,17.658200869112257,-10.368466064011129,17.329883559020452,-10.921215123404407,17.000714521771513,-11.461456802209733,16.67100013226176,-11.98908302737078,16.3409826759797,-12.503994246888043,16.010840390445647,-13.00609964048538,15.680687648269924,-13.495317339045874,15.350575270977158,-13.971574645180281,15.020490962744166,-14.43621875391293,14.689950662973597,-14.89056212568642,14.358529486525288,-15.33449095261958,14.026245901970352,-15.767897555648089,13.693104905543603,-16.190681407294633,13.359099474604946,-16.60275015443917,13.024212021100805,-17.004020641089127,12.688415845025519,-17.394419931149613,12.35167658788275,-17.77388633119363,12.013953686146898,-18.142370413232356,11.675201824724518,-18.49983603748526,11.335372390415703,-18.846261375150398,10.99441492537552,-19.181639931174594,10.652278580575398,-19.505981567023674,10.308913569264554,-19.819313523452685,9.964272620431387,-20.121681443276103,9.618312432264895,-20.413150394138043,9.27099512561608,-20.693805891282516,8.922289697459362,-20.963754920323602,8.572173474353981,-21.223126960015684,8.220633565905407,-21.472075005023676,7.8676683182267535,-21.710776588693236,7.513288767400179,-21.939434805820966,7.157520092938308,-22.158279335424666,6.800403071245621" fill="none" stroke="black" stroke-width="2.2222222222222223" stroke-linejoin="round" filter="url(#fuzzy)"></polyline><!--[--><circle r="3.9592006746584243" cx="-4.817947311133688" cy="7.889063759554858" stroke="black" fill="none" stroke-width="1" filter="url(#fuzzy)" clip-path="url(#leftEyeClipPath)"></circle><circle r="3.9735195479660916" cx="-7.090874832847023" cy="7.427444160175558" stroke="black" fill="none" stroke-width="1" filter="url(#fuzzy)" clip-path="url(#leftEyeClipPath)"></circle><circle r="3.5588179316145068" cx="-3.8027714517656603" cy="8.562886679017502" stroke="black" fill="none" stroke-width="1" filter="url(#fuzzy)" clip-path="url(#leftEyeClipPath)"></circle><circle r="3.3019368557479924" cx="-6.766559289574449" cy="10.220169177198581" stroke="black" fill="none" stroke-width="1" filter="url(#fuzzy)" clip-path="url(#leftEyeClipPath)"></circle><circle r="4.195655711859229" cx="-6.904522324180855" cy="7.897226986578033" stroke="black" fill="none" stroke-width="1" filter="url(#fuzzy)" clip-path="url(#leftEyeClipPath)"></circle><circle r="3.4208065993609575" cx="-3.7146500570477583" cy="9.836417600272473" stroke="black" fill="none" stroke-width="1" filter="url(#fuzzy)" clip-path="url(#leftEyeClipPath)"></circle><circle r="4.5683107077496805" cx="-6.961490124639444" cy="8.89605181251461" stroke="black" fill="none" stroke-width="1" filter="url(#fuzzy)" clip-path="url(#leftEyeClipPath)"></circle><circle r="4.553102346515892" cx="-2.7510837455897246" cy="6.705584091220603" stroke="black" fill="none" stroke-width="1" filter="url(#fuzzy)" clip-path="url(#leftEyeClipPath)"></circle><circle r="3.0074397863432187" cx="-6.708797383224557" cy="9.147177950529837" stroke="black" fill="none" stroke-width="1" filter="url(#fuzzy)" clip-path="url(#leftEyeClipPath)"></circle><circle r="3.5502212348491584" cx="-4.473550274030661" cy="6.994292141318359" stroke="black" fill="none" stroke-width="1" filter="url(#fuzzy)" clip-path="url(#leftEyeClipPath)"></circle><!--]--></g><g id="hairs"><!--[--><polyline points="62,-43,52.56312056068592,-57.61723340445664,44.35583169231995,-61.95468904765783,32.49908151555434,-67.1106067791661,22.209018140798435,-73.03894808446057,15.268929805465781,-77.65955240564644,9.687816839161083,-80.23357530463858,3.9213988087938696,-81.37397082139394,-1.2846832275390625,-81.94648742675781,-3.9965819716666715,-82.24768392672489,-2.6877082735979947,-81.9949435390817,3.1563008278083484,-80.85368178679786,12.858655884629115,-78.73759127710946,24.13183321102002,-75.45731314913665,33.44478083403328,-70.69198588176249,36.64044878339989,-67.75456519554264,17,-90" fill="none" stroke="rgb(0, 0, 0)" stroke-width="2" stroke-linejoin="round" filter="url(#fuzzy)"></polyline><polyline points="44,-72,10.63257917325643,-85.01418015206873,3.8024321957389913,-86.59880694116603,6.999138882369871,-83.83157077835608,9.677043787023125,-81.66787048012507,8.376462080139987,-80.9992035841579,6.023681615568877,-80.42946684209875,7.02947911098034,-78.79277433042515,12.894627303382181,-76.3453925867479,21.284760713443813,-74.40490684221201,28.152229502086147,-74.15865334484486,30.396031606136543,-75.65466980527557,26.81999726297736,-77.74950594669416,17.34114624165675,-79.04834581340025,2.8385946993472997,-79.08647235195772,-11.509251549402308,-78.89580221458618,-10.087238078157545,-80.50763234188835,32,-83" fill="none" stroke="rgb(0, 0, 0)" stroke-width="2" stroke-linejoin="round" filter="url(#fuzzy)"></polyline><polyline points="-22,-90,-0.7835589769161734,-86.70326296325533,3.0257631557119913,-81.46914350796156,0.9378926149244196,-77.72130592221764,-2.7342563584506197,-76.05812047455363,-4.614816718368615,-74.80020036008112,-3.1533794143327407,-72.40083998911123,2.1431814247345535,-68.57640957097003,10.742031763612825,-64.40405556144103,20.67707665056599,-61.56051541060989,29.069646137363524,-61.12963891902736,33.41898686211482,-62.84176143505918,32.48760762309912,-65.3444908491897,26.444627509499952,-67.16276460072123,17.244445143313605,-67.34100872828735,9.822138882111291,-65.245547832682,12.069618002620917,-60.317934382431474,29.3384642190558,-53.04740316170969,53.09807802781992,-46.66667719058041,61,-47" fill="none" stroke="rgb(0, 0, 0)" stroke-width="2" stroke-linejoin="round" filter="url(#fuzzy)"></polyline><polyline points="61,-47,53.67660528418453,-56.05155733679337,53.56956576840829,-51.16274827279636,47.50568948167225,-49.23959561187284,35.41951350380502,-53.009534401018236,22.38734224136502,-59.948454431565935,13.101110452100611,-67.003880655976,9.902738487470218,-72.14839340943588,12.447929080736701,-74.52267503091453,18.022217151071278,-74.40281010903117,22.740484427304203,-73.09135800503799,23.630036346504767,-72.2760890429378,20.608686763095324,-72.81094420296321,16.600760420175614,-73.84758079232023,14.333036578736163,-73.79532426224513,11.349579375419182,-73.49727555575076,2.7837898972617037,-78.50383135410823,14,-91" fill="none" stroke="rgb(0, 0, 0)" stroke-width="2" stroke-linejoin="round" filter="url(#fuzzy)"></polyline><polyline points="16,-91,20.20276619064921,-87.86505463420788,22.84638605925827,-84.92882734254512,21.025030124210026,-82.92817805163656,17.438422469655052,-80.789756112732,13.646066087765025,-78.09372402303816,10.885263157471147,-74.30018887870814,10.447600617840965,-69.18894440660434,12.968643188476562,-63.79791259765625,17.715282407525763,-60.36598495034458,22.380231687758826,-61.09175348574139,23.91230851397851,-66.56569402856253,20.88475780026056,-74.87510725203902,16.33199894048655,-81.94376001845666,17.823630919324817,-82.81188495908977,32.54350768485824,-72.15536199054458,63,-41" fill="none" stroke="rgb(0, 0, 0)" stroke-width="2" stroke-linejoin="round" filter="url(#fuzzy)"></polyline><polyline points="66,-31,2.133383625839852,-59.64635958052335,-9.476871384481948,-74.32049244476221,-10.572571035412194,-78.78353266691629,-12.02878864323249,-79.20496589423375,-15.4318800399279,-79.06522205287914,-19.523749347601903,-79.12543636430753,-21.917567971480977,-78.98473429276241,-20.63630279135041,-78.295879781691,-15.573158358226483,-77.13520324725033,-8.972933438739995,-75.82162438084664,-4.538306673234596,-74.6756319983804,-5.386055338629075,-73.9410208505402,-11.469261689294713,-73.75550712691995,-17.790615779989636,-74.1171347244031,-16.632441602925667,-75.13939083262792,-9.779415819924552,-77.50158655690166,-38,-82" fill="none" stroke="rgb(0, 0, 0)" stroke-width="2" stroke-linejoin="round" filter="url(#fuzzy)"></polyline><polyline points="38,-78,19.067364644404385,-84.43948980101662,25.089021113419886,-78.68029673137596,32.09367645197963,-73.57520598064572,32.05745794401509,-73.92383360629594,25.963495521730263,-77.82529243453676,17.073156833963143,-81.93740850765708,8.230987690514091,-84.35940699658444,1.4907627266820547,-84.93191900595065,-2.0377854823773416,-84.30152795898663,-2.4190442266755285,-82.89661801100956,-0.47402417569466615,-80.49493134011512,3.243769525672183,-76.64569759616838,8.553062681764654,-71.71142245164104,13.167980317585569,-67.76614423815832,9.123371725579663,-68.32162071674269,-13.111911082904907,-75.77668826346981,-36,-84" fill="none" stroke="rgb(0, 0, 0)" stroke-width="2" stroke-linejoin="round" filter="url(#fuzzy)"></polyline><polyline points="-13,-93,16.91679705492608,-70.3790684724532,18.866331149846857,-69.96125497120394,24.015460893597442,-67.97148430024399,30.34166643702369,-64.65515238536867,34.70362242387972,-62.59149420868921,37.061885588939234,-62.26774244051615,37.71681352536452,-63.4391789112516,36.11114375350067,-66.10686720145732,31.759816871183823,-70.187516282651,25.378829208715345,-74.95551365296616,18.927817488502047,-79.0973218275561,14.57877347909846,-81.36248217466775,13.395016509897113,-81.27951405966907,14.657671614475406,-79.40996574080978,16.510122181692356,-76.91980062366129,17.838953530164453,-74.64363681364432,19.9209398420413,-72.24995295001116,24.979548560810343,-68.47130799085198,29.547526878038042,-63.158631541164695,15.696729327817078,-60.380653733777066,-51,-68" fill="none" stroke="rgb(0, 0, 0)" stroke-width="2" stroke-linejoin="round" filter="url(#fuzzy)"></polyline><polyline points="42,-75,18.327796284416536,-83.75301532591469,9.316078265749542,-85.22363301684905,7.692230215269298,-85.37650072127185,8.322820117539967,-84.72680410050562,10.049088434816975,-82.57121012688486,11.026032554569102,-79.27140077311721,8.97394158997011,-76.15028056277872,3.4592349397329922,-74.43306638310706,-3.410996745465481,-74.44105437422797,-8.451504522371618,-75.5113126198997,-9.491909265518188,-76.53350114822388,-6.514754209948388,-76.7061586286123,-1.3657818436459406,-76.04824700202084,3.3874854181891356,-75.3285199144839,5.571008490755083,-75.41576327144217,4.041102847348441,-76.50008207417336,-0.9540460639897004,-77.86701099370167,-7.347719449884994,-78.59221396841764,-11.371929940450677,-78.7033165693758,-9.90949370810754,-79.57584644239357,-3.0189467438515685,-82.4680777544921,25,-87" fill="none" stroke="rgb(0, 0, 0)" stroke-width="2" stroke-linejoin="round" filter="url(#fuzzy)"></polyline><polyline points="67,-29,21.319583757869545,-57.942778802853404,25.38298497227477,-66.3186061509339,32.776964591222814,-69.58823506880107,35.8797440328009,-70.71077200979609,36.39282985108206,-69.74129548682706,35.9284010830725,-67.19636272575282,34.65076921896636,-64.49592209810169,32.51890681044444,-63.18648075408467,30.014009879461884,-64.16721854794956,27.180654317433383,-67.58432297317141,22.37992372827184,-73.00127220425827,13.002941401890808,-79.06926395906459,-2.2876535912171656,-83.19207485796086,-22.670578246361778,-83.23443688686835,-39,-81" fill="none" stroke="rgb(0, 0, 0)" stroke-width="2" stroke-linejoin="round" filter="url(#fuzzy)"></polyline><polyline points="20,-89,-15.35388098846758,-85.05874317082666,-19.826764959743517,-84.69713756212944,-9.771355369036023,-84.29323158773008,3.6601858626130848,-83.69064629107731,13.223785824063262,-83.58188905164847,16.70926741278568,-84.23464293718934,15.887273384137705,-85.07879229957882,13.893143332312704,-85.01604015805749,12.626317168126668,-83.09882068052072,11.58689847323321,-79.17125083543093,8.79955134332291,-74.11541429649857,3.271295681981685,-69.46936096829396,-2.7507836927178255,-66.48581501360783,-3.8712408528377438,-65.16978888263363,4.973637930237221,-64.12272883756495,23.381013914369888,-61.62646889585663,43.456257533927534,-57.3127181634362,55.289931641406014,-53.512587049979246,54,-61" fill="none" stroke="rgb(0, 0, 0)" stroke-width="2" stroke-linejoin="round" filter="url(#fuzzy)"></polyline><polyline points="65,-34,44.088679063013615,-63.054176079920055,33.2677411638741,-73.03195936575997,18.555267622824125,-78.81943400034464,3.837665638246082,-81.7259441085079,-4.678193711372363,-81.29279310808803,-4.533835015660557,-78.11462031494831,1.8628382242468904,-73.96408076429695,9.26931247126095,-70.78890994894174,13.148796627446922,-69.45737071155052,12.289210813455263,-69.29149448243103,8.477685790683463,-68.87323960581813,3.551184852091893,-67.58146823256394,-2.9511254972160494,-66.666143813457,-11.852715851815665,-68.7511437267903,-19.410793458193744,-75.37532266591649,-20.549859609088724,-83.62224177059804,-36,-84" fill="none" stroke="rgb(0, 0, 0)" stroke-width="2" stroke-linejoin="round" filter="url(#fuzzy)"></polyline><polyline points="57,-55,14.968032683880125,-63.02362771101117,12.548500572492562,-67.02260528415525,15.055473561290315,-69.42438621500051,20.594949821281556,-68.35011920516945,27.11583842726358,-65.66132200571226,31.748803796329117,-63.84767400394005,33.75861136129941,-63.86335761381468,34.23822369658525,-65.28748797672725,34.203958913470295,-67.30968411226024,33.549928167715,-69.35016507939098,31.498145470720186,-71.09888561847768,27.71729531492272,-72.33907659305711,23.037889336794052,-72.91459892470593,19.267019933246516,-72.86316542680515,18.295009867642282,-72.46535448186522,20.999953690445118,-72.0502186056574,26.29036265007189,-71.8371705405316,30.398643511055795,-72.41012050114823,27.193101915586155,-75.793568463198,12.432102374198411,-84.82213734929582,-2,-94" fill="none" stroke="rgb(0, 0, 0)" stroke-width="2" stroke-linejoin="round" filter="url(#fuzzy)"></polyline><polyline points="-32,-86,-15.378511047694282,-83.2108940188854,6.717572078315256,-80.92267006811927,15.914005133016062,-79.94234062561321,13.016071141897417,-80.41100917996356,4.2449477592847025,-81.83880260512106,-4.887186456213269,-83.46180115283362,-11.803070723806044,-84.60737441821553,-16.286706594613268,-84.82257421615206,-18.842240386911516,-83.90526063182335,-19.47462950778763,-81.8828889105058,-17.518775688709635,-78.90296099200486,-12.302243340865484,-75.11495560935633,-3.9846416111084304,-70.72040847901722,6.028736309775249,-66.20896339899623,15.358082000695017,-62.4824803221699,21.50427968170095,-60.52132069829222,22.79004975977252,-60.752153038712244,18.511705423030364,-62.87430162108873,8.708430201128422,-66.41068948106435,0.45943002556172097,-70.7814219944403,37,-79" fill="none" stroke="rgb(0, 0, 0)" stroke-width="2" stroke-linejoin="round" filter="url(#fuzzy)"></polyline><polyline points="-50,-70,-17.912414006523996,-84.48056541480635,-12.02971049646934,-87.70678210373296,-10.762841039205538,-85.14401797073458,-5.114141430322121,-80.20815997746854,4.540930802211879,-75.13893052352525,14.153505345244819,-71.2030565258876,20.760111000190406,-68.65544190701766,23.65842909216276,-67.02020598323074,22.996792185194415,-65.76581740890916,18.3630642093417,-64.89148582392458,9.344929346636635,-64.85786659406934,-2.0130357534279164,-65.80494835024099,-9.307271688009513,-66.78423195621686,-3.8594822087259657,-65.97971897825721,17.775270252635217,-62.124748123240536,44.271457324738606,-57.34596331309897,48,-68" fill="none" stroke="rgb(0, 0, 0)" stroke-width="2" stroke-linejoin="round" filter="url(#fuzzy)"></polyline><polyline points="63,-40,51.64040335632009,-54.23851685446966,29.501820163978763,-68.83361137424946,7.706803000556497,-79.00121679286072,-7.749092260197528,-84.31314829659026,-15.485459780075436,-86.00220840774298,-15.7565224203326,-85.30523398068188,-9.637205133458345,-83.09415537869688,0.48386230455387513,-80.07719545780857,10.796302142652511,-76.97103736034634,17.094288360092197,-74.46774169745635,16.49877713737994,-73.06978440096242,8.890362189420765,-72.86629849489303,-2.751034079758558,-73.30401703864247,-13.374462085873004,-73.19761621388427,-18.04391197301811,-71.48063586379011,-14.92450198916382,-68.91667233104138,-8.754047975415805,-69.58479541499072,-11.706367524190643,-78.65365664025691,-21,-91" fill="none" stroke="rgb(0, 0, 0)" stroke-width="2" stroke-linejoin="round" filter="url(#fuzzy)"></polyline><polyline points="46,-71,48.10888728941845,-60.924318490002754,38.048520411597984,-69.93103500758137,28.817485199676597,-77.58911064092756,20.294204323164298,-81.49078487914139,11.602631958338295,-83.02036635997541,3.9981873575461297,-83.70062287255823,-0.6090445921233231,-84.50997714855171,-1.365476410086234,-85.52842511173444,1.3650787165607396,-85.89578292314567,6.869449238535435,-84.36069208490856,14.364530879821123,-80.24328674354011,21.895835910761466,-74.36770796009091,25.164125524526312,-69.43237821423928,19.170718549077478,-69.10634286528145,4.74964689172266,-75.16447050762372,-2.369975132080505,-83.49321339353202,28,-85" fill="none" stroke="rgb(0, 0, 0)" stroke-width="2" stroke-linejoin="round" filter="url(#fuzzy)"></polyline><polyline points="63,-40,25.310222854606977,-63.8665296253393,2.9027776096466473,-69.1364271044103,1.7794254054814522,-67.67700508324451,8.367289381305127,-65.59455822158907,13.15289727117248,-65.33916676901805,14.064147983967587,-66.81275859056932,13.391394045444343,-68.67667952832082,14.177879981154703,-69.54780555893454,17.978201001936814,-68.82373422531079,24.216933165638654,-66.95669793759697,30.654956827779134,-65.1975318377109,34.42904936179355,-64.961282233491,33.39113225981431,-67.01489473980475,27.530126374146583,-70.81073873360538,20.016024445707387,-74.42939307260713,17.047072869866273,-75.40382291407971,25.04359889074576,-72.06004122907774,42.959557108880006,-65.06627540151624,52,-63" fill="none" stroke="rgb(0, 0, 0)" stroke-width="2" stroke-linejoin="round" filter="url(#fuzzy)"></polyline><polyline points="30,-84,37.3781870338727,-76.77506037972665,37.792509156019804,-71.41300074952878,28.914000688496934,-69.54308636515309,17.81662916056438,-68.85650716467616,9.805002253925597,-69.10581812663698,6.076401489149223,-70.77557623470703,5.596513336031416,-73.65722098646064,6.826926600312265,-76.8733801176267,8.570089149388025,-79.38717188434167,10.355141832012187,-80.30487095571445,12.4224115417513,-79.01581629754295,15.254802286624908,-75.37477743625641,18.985856943545915,-69.87993592129187,23.19650478895741,-63.624304803530855,27.206465470203003,-57.93786827851336,30.38026425262085,-53.93940414179325,31.96821519224331,-52.31978311395066,30.822436079622413,-53.37383699245207,26.113698190648115,-56.85448437126993,19.45151257166624,-61.33852939838112,15.985768413804687,-63.914337799564045,19.054886116641786,-62.284409426920675,14.656730053392932,-60.575786617394,-44,-77" fill="none" stroke="rgb(0, 0, 0)" stroke-width="2" stroke-linejoin="round" filter="url(#fuzzy)"></polyline><polyline points="28,-85,30.82319025806407,-81.26525390729562,23.986300074284394,-84.81466041066217,17.06522998873045,-88.14770429923969,10.640485452573689,-90.05652868965942,3.887247119038389,-90.55923887539907,-3.4710526535186945,-89.75424135460443,-10.713788513169776,-87.86023507852687,-16.284627209478852,-85.346451479403,-18.5534190782427,-82.80581556417103,-16.867467597815438,-80.69606396026926,-12.220536053849871,-79.22790982066932,-7.024482129351906,-78.47565187521619,-4.04372202119874,-78.48435172301807,-5.096455114222202,-79.12480423449045,-10.23023201157831,-79.79225018025784,-17.64113148233061,-79.4056000046794,-23.954652200765207,-77.0835266290235,-24.370983903988193,-73.31985635450101,-13.635360555825613,-70.9404452257229,6.8789112122997835,-75.1567563617311,2,-94" fill="none" stroke="rgb(0, 0, 0)" stroke-width="2" stroke-linejoin="round" filter="url(#fuzzy)"></polyline><polyline points="-25,-90,-16.149887739533163,-87.84626574291019,-14.902645438393243,-82.36413435363093,-10.914858227369022,-77.11048193111128,-4.484571799502691,-72.83526749516865,1.591410540949255,-70.34175232297912,4.9064872636792005,-70.23781789285695,5.129520907282775,-72.29996219698012,3.675344941830144,-75.39721354170412,2.3927661325158716,-78.12054105816004,2.375308036804199,-79.61780452728271,3.4887384367140784,-79.98072581835387,4.8946764367722215,-79.8819997644638,6.283519280368021,-79.77158869850803,8.683553040290201,-79.3965766329931,13.528504671284281,-78.26023418068417,20.034853156689053,-76.75999911281765,23.357533119152542,-76.72309400876941,17.37818224310246,-80.07978733888066,4.493741855443652,-86.32856374918813,13,-92" fill="none" stroke="rgb(0, 0, 0)" stroke-width="2" stroke-linejoin="round" filter="url(#fuzzy)"></polyline><polyline points="63,-41,4.748848593380301,-70.9016653553298,-18.643084189713683,-78.3394166340099,-20.67161069346562,-77.43660515995667,-11.418621650431305,-74.88096351851709,-1.416305685791659,-73.73730317360341,2.772590863328695,-74.53752436412807,1.254520581000703,-76.34725714045459,-1.530670166015625,-77.96382141113281,-1.2873322558725315,-78.65770454794523,3.5482120001974167,-78.15269989285775,12.351460674389836,-76.17500850399938,23.93629635265097,-72.26984769036062,36.74991305850024,-66.25390117951193,48.19633672314639,-58.74518287990485,56.00857951192632,-51.44544618306419,57,-54" fill="none" stroke="rgb(0, 0, 0)" stroke-width="2" stroke-linejoin="round" filter="url(#fuzzy)"></polyline><polyline points="-31,-86,-38.28189527774361,-80.68015872533104,-35.87604167060606,-80.60349081493366,-27.798625855064067,-82.3088150302049,-19.632982759059207,-83.91897777559885,-15.844317130739027,-84.43059437726109,-16.964260220851028,-83.89400423887334,-20.566061393464647,-82.94980901845369,-23.867521675284276,-82.203466384542,-25.562132925959514,-81.87298342833014,-26.007635991004506,-81.78471792777304,-26.212894146781096,-81.5702446816118,-26.633974043248156,-80.88089333709115,-26.66653905705553,-79.52399803995857,-25.151917209707545,-77.54000247855178,-21.533794472750838,-75.27526887690574,-16.815607651365138,-73.41079628811369,-13.37925850633224,-72.77910740999154,-13.20948905306341,-73.87248524450335,-15.272512808407985,-76.3235498620265,-14.365064284193016,-78.86611496384198,-3.9267897414570196,-79.28856294921964,19.29421827027429,-71.52417618770812,64,-38" fill="none" stroke="rgb(0, 0, 0)" stroke-width="2" stroke-linejoin="round" filter="url(#fuzzy)"></polyline><polyline points="-45,-75,-15.280727274049553,-79.57918590198163,-19.284896127693756,-78.62992378070338,-20.015842991311608,-75.04764333535704,-12.40601706161488,-70.64762338481854,-0.9728556899763134,-66.56620059387024,9.370297511620182,-63.457715983590695,15.698860296847862,-61.769019789193194,17.16060921733702,-61.83499813087943,14.539534324071315,-63.806790129472866,9.623370170593262,-67.50408744812012,4.454072847863828,-72.2700226645382,0.633039476872098,-76.9415110183794,-1.0264039457453997,-80.0366889701229,-0.2043877344633866,-80.18388009455194,3.6775833861347564,-76.78028550680574,11.528451639275607,-70.80667793008801,22.509114524413064,-65.29718500379947,30.176709326700713,-64.23010905740583,20.368634228308693,-69.62078108448024,-31,-86" fill="none" stroke="rgb(0, 0, 0)" stroke-width="2" stroke-linejoin="round" filter="url(#fuzzy)"></polyline><polyline points="61,-47,58.13377348973826,-51.89365946113596,57.17736006678564,-51.54643849342178,53.02680447341156,-52.65861802682502,45.34757470573121,-55.343035298672866,36.47985806319301,-57.88028980355102,27.990843149415145,-59.75408980626189,20.08491218323538,-61.44289712473965,13.07976423057127,-63.21136399459423,8.264004638806343,-64.67843536168321,7.104592915389794,-65.33257882787538,9.814527937667787,-65.20584775746836,14.742275536060333,-65.0024488568306,19.11863866224431,-65.6128883982636,20.591805915749095,-67.4630073221336,18.551165672697987,-70.19642773817813,14.507613369710874,-72.86360742091652,11.309186859918318,-74.43696842339473,11.446182459386382,-74.35242301294822,15.257117800703199,-72.8660608883061,20.438285816322004,-71.10988660000613,23.873319469456277,-70.81371731613197,24.030012637328838,-73.99067481282859,19.236135799113548,-82.78918577012473,9,-93" fill="none" stroke="rgb(0, 0, 0)" stroke-width="2" stroke-linejoin="round" filter="url(#fuzzy)"></polyline><polyline points="14,-91,21.34232547525392,-75.16994905525924,17.251235742734156,-72.07475480155381,16.770544799891034,-74.64883457424453,16.3903170239469,-79.47265319866278,15.325008118845014,-83.49482347803566,14.282503014935724,-85.02546644558993,13.042099554958373,-83.92955499372994,10.417604715917689,-81.13135412825139,5.552327066356686,-77.9315531369868,-1.026813312530085,-75.45042867595465,-7.329097573571798,-74.37136963557346,-10.677547131746076,-74.9502747795132,-8.923215040860864,-77.03899204805067,-1.6068322288746406,-79.90531667945508,9.65565978430695,-82.03265743823343,22.174931769306344,-81.52950741345045,33.70721351011217,-77.66471416317721,41.65692679572955,-73.21916962335219,39,-77" fill="none" stroke="rgb(0, 0, 0)" stroke-width="2" stroke-linejoin="round" filter="url(#fuzzy)"></polyline><polyline points="38,-78,28.744617794739916,-77.17956189966067,10.2878055791344,-80.41688708297293,-2.6685556745032533,-79.43991229637061,-8.75939734023317,-75.17696104943519,-10.942061441478423,-70.60108777825486,-12.16237595884259,-67.98395243507885,-13.067637288966404,-67.91145836109371,-12.774632737887085,-69.62285002052779,-10.760006790539988,-71.98977327123114,-7.784595331504993,-74.28435819078382,-5.356611075399809,-76.33165457874762,-4.488081509418235,-78.18363929572553,-4.771614098210209,-79.71221033600472,-4.432886732131889,-80.4730980922375,-1.4302316626270868,-79.97117909320484,4.909533620083607,-78.19186777570336,12.688949087281753,-76.04523778859269,17.753104432706728,-75.26614618892566,16.00591359485661,-77.43798788435339,6.662969907219061,-82.38373867756398,-6.633909679391994,-87.27488121486765,-19.79095833008229,-88.49726094702245,-31,-86" fill="none" stroke="rgb(0, 0, 0)" stroke-width="2" stroke-linejoin="round" filter="url(#fuzzy)"></polyline><polyline points="-51,-68,-16.816201233640868,-78.34844520630942,-17.732387173496058,-82.47175929546947,-21.66856711212617,-84.45620931364373,-21.685918974692594,-85.56679907720563,-18.089933538706934,-85.6487977191808,-13.66709253388529,-84.20606674840145,-11.468059978937061,-81.5176694244671,-13.033036798356607,-78.7525138802663,-17.5568503939263,-77.1181347249076,-22.725229167303073,-76.91728289854697,-26.6521763283689,-77.32186442195726,-28.980428523175924,-77.03142295384066,-29.526997471006798,-75.34320970720233,-25.440327401648215,-72.88959833077557,-11.36550750234035,-71.58331656552996,10.749694284981288,-74.77500673273858,5,-93" fill="none" stroke="rgb(0, 0, 0)" stroke-width="2" stroke-linejoin="round" filter="url(#fuzzy)"></polyline><polyline points="-44,-77,-1.8696558620161174,-79.51121916569146,16.512731077749898,-74.67458473969222,19.471475385488986,-71.68431776854364,20.90553272200504,-70.01801599052132,25.706307541810325,-68.2367615887148,31.453479206928602,-66.40414458261003,33.99805460226097,-65.7051985211229,31.164842999441415,-67.15808223886809,23.736495711255635,-70.7564061977259,14.472636532126277,-75.52476604352803,6.3046839237213135,-80.17913389205933,0.8923335735517399,-83.77821807300793,-1.6977089615902414,-85.95287500132171,-2.3159800521791025,-86.72200010289883,-1.957168997061066,-86.20547400917992,-1.7238921716638074,-84.54741811615109,-3.29890192223831,-82.12564758013406,-8.498037472908505,-79.86421158361495,-16.78413504551871,-79.33749022036517,-22.77611447765313,-82.20520424492886,-20.623935058274473,-88.10578453573349,-21,-91" fill="none" stroke="rgb(0, 0, 0)" stroke-width="2" stroke-linejoin="round" filter="url(#fuzzy)"></polyline><polyline points="20,-89,2.233110399915607,-85.80964117789941,13.97429376411995,-76.27319758307289,26.06427214799727,-68.36438502047699,30.25828816064936,-65.72071327633293,27.437960982453834,-66.94914285216194,20.40784469451828,-69.7698686979,12.242009335079896,-72.69079266937709,5.695416790985019,-75.00020686866094,2.086920929300145,-76.46295878724891,0.6629865409114302,-77.15459600071695,-0.6360936381078682,-77.34682556605135,-3.463646352291107,-77.34861451387405,-7.721496269227883,-77.34949338967932,-11.575559869238699,-77.36437124534011,-12.788750211180998,-77.32016640376372,-10.423514173440738,-77.23715652825322,-5.755872803322654,-77.38408204940102,-1.7605700305525964,-78.21666903058387,-1.4281400977347072,-79.9359182952467,-5.939469082780561,-81.8720756618554,-13.674583548237159,-82.61735265325056,-19.5690239870197,-81.9270141372034,-12.725173766724513,-82.93900732557152,24,-87" fill="none" stroke="rgb(0, 0, 0)" stroke-width="2" stroke-linejoin="round" filter="url(#fuzzy)"></polyline><polyline points="-36,-84,-26.886619155677145,-73.29837124606055,-17.631425789699357,-71.8667857339935,-19.320948780885082,-73.57270886687031,-22.68854330961742,-76.01931717315301,-23.420287314337507,-77.67954813042772,-21.38655832681862,-77.92793265547304,-17.396035643132418,-77.36867547079989,-12.076233189751319,-77.21156171448662,-5.868303169950704,-78.2182696988517,0.8956833421472126,-80.07616461284141,8.007714472919417,-81.6081664771016,15.216792263931477,-81.66069980169985,21.578569100021305,-80.06916489198974,24.707788981239506,-77.9454223354753,21.95699944426532,-76.87195808495969,17.717342577910127,-76.96022497607325,46,-71" fill="none" stroke="rgb(0, 0, 0)" stroke-width="2" stroke-linejoin="round" filter="url(#fuzzy)"></polyline><polyline points="-13,-93,-12.250786670609028,-89.71224618906392,-11.339080651960728,-89.73821880233048,-10.425696285379109,-90.03199108679108,-9.463289011008182,-90.3008288747444,-8.48993149742813,-90.57179485637785,-7.529762331775537,-90.73700108326805,-6.562898948073438,-90.68550059238322,-5.552560982693263,-90.42273256773073,-4.471792216053077,-90.06738560251084,-3.313692544913976,-89.76889839078565,-2.091947420151792,-89.61080650219883,-0.8385137460016042,-89.55594648923457,0.40048734600036723,-89.46340645016575,1.5723836805895202,-89.16668103082814,2.630455820799671,-88.5675638470217,3.55096641886528,-87.69295958740452,4.350676652533161,-86.6840211224883,5.095249333737916,-85.71997026400479,5.887372299780141,-84.90598184855178,6.835419327447317,-84.183428459414,8.025631498771075,-83.367425583792,9.529645842185076,-82.4159433758594,11.5392067939932,-81.66207884979802" fill="none" stroke="rgb(0, 0, 0)" stroke-width="2" stroke-linejoin="round" filter="url(#fuzzy)"></polyline><polyline points="-31,-87,-31.377322730992127,-87.03881964043245,-32.3536615010976,-87.39918464016007,-33.72891075111856,-87.4843771596728,-35.15341008529556,-87.33091755120559,-36.41909597430316,-87.0438338571623,-37.52817964071568,-86.74004902271811,-38.58574812958215,-86.52209542789832,-39.69839907843494,-86.45680889868132,-40.92379599855915,-86.54761630432505,-42.25247833721744,-86.70123864095338,-43.615441828219645,-86.73332108883304,-44.922132048346015,-86.45017115466781,-46.114900058483755,-85.77481576403879,-47.20506723223075,-84.8274540792409,-48.26556708647356,-83.88984102212108,-49.39210344334761,-83.26887901020655,-50.67105029096185,-83.14847517009423,-52.17515770121605,-83.51351358080797,-53.958656421126996,-84.16002152166362,-55.99835369107237,-84.75945603295158,-58.08679470014525,-84.99578867504005,-59.82997346112516,-84.89961140618803,-61.01782199772908,-85.42495079682071,-49,-71,-50.48654106173791,-71.27023273545808,-52.88618182220226,-72.79878043620127,-55.41930099919551,-74.22605124327421,-57.647642609221734,-75.0874440561788,-59.350324919716854,-75.18901817311219,-60.49950316363122,-74.52801913750282,-61.25530789534059,-73.32844142424399,-61.81220069470428,-71.86654915792124,-62.27578466794729,-70.30313131424265,-62.683101778546714,-68.6916569243198,-63.096322274571506,-67.0941493574,-63.65112260419131,-65.65293478905953,-64.5166571814731,-64.54954874753764,-65.80831237322971,-63.89607160875167,-67.51959105794904,-63.65112868876023,-69.5153774774141,-63.625005354806916,-71.59283311816885,-63.57639866166753,-73.5865225903648,-63.345853067739746,-75.47004250631544,-62.94084385960383,-77.39365636744395,-62.50173106226538,-79.61196606336796,-62.14139779437449,-82.2889687408145,-61.732696068305565,-85.22298643328156,-60.80054645665372,-87.93884306171444,-59.08391018208939" fill="none" stroke="rgb(0, 0, 0)" stroke-width="2" stroke-linejoin="round" filter="url(#fuzzy)"></polyline><polyline points="-52,-66,-53.00336397384106,-68.70608198628916,-52.32578151946725,-69.73948830705169,-51.580109216821555,-70.79845013789523,-50.91251292571721,-72.04377062767642,-50.25926737589808,-73.40708282856238,-49.673540882527625,-74.87718779179974,-49.26435216738735,-76.49073430020498,-49.07307146552671,-78.27369824113224,-49.012939158078254,-80.18484529913502,-48.89858240588395,-82.09809998716331,-48.54341903079927,-83.85680772660976,-47.869362878411295,-85.37995145210371,-46.96241390721128,-86.74350376171286,-46.03509134517711,-88.16375470127767,-45.31339755231535,-89.8813257657952,-44.91320296571446,-92.01997189751076,-44.767459646378846,-94.4917726048099,-44.61735493697634,-96.93778790100146,-44.07873447973164,-98.6850801275625,-42.975172975160106,-99.08164880384135,-53,-65,-53.93416213625224,-64.03556317352732,-54.74983069326654,-63.05350117304806,-55.41557763075011,-62.009205783010096,-56.00408559309874,-60.87329675886769,-56.57891079583094,-59.678059837079914,-57.15264725403525,-58.49211117271906,-57.71219650551984,-57.36221564363858,-58.250629788719635,-56.282845111959375,-58.775594239604395,-55.21078171462255,-59.29955114255407,-54.10212923529073,-59.828921479839316,-52.93915290802128,-60.36215359175329,-51.73019962039849,-60.89520772609301,-50.48972374946707,-61.427048745721976,-49.220024709850705,-61.95934044505686,-47.91337206398976,-62.4902290940653,-46.575188319714535,-63.00767476271829,-45.247324457817214,-63.49016644608829,-44.00191390038029,-63.91882248065353,-42.89566818237205,-64.29184710922179,-41.92073626404511,-64.61477112494289,-41.02126908256314,-64.84877591253588,-40.154540994332535,-64.91267347910895,-38.947604087465365" fill="none" stroke="rgb(0, 0, 0)" stroke-width="2" stroke-linejoin="round" filter="url(#fuzzy)"></polyline><polyline points="-64,-43,-64.82935513702253,-41.330294784110606,-66.02288489424663,-40.62669342795582,-67.56720187927594,-39.908993082996886,-68.95240411191308,-38.829312857122545,-69.8583918138389,-37.33183049388382,-70.338688924298,-35.55129650615305,-70.6477111222463,-33.71862653250617,-71.01118591830965,-32.046258904563324,-71.52831441852898,-30.644152550315713,-72.20870716848769,-29.498677763102553,-73.04085050573187,-28.507181017441173,-74.00955814724944,-27.543296842728395,-75.064207730733,-26.521064782734015,-76.0816098464779,-25.404469445583256,-76.83075058321674,-24.101760470258938,-76.95235124706252,-22.305029346974642" fill="none" stroke="rgb(0, 0, 0)" stroke-width="2" stroke-linejoin="round" filter="url(#fuzzy)"></polyline><polyline points="66,-31,67.96201477581644,-34.11457711657519,69.52644557011145,-36.402193937887645,69.39988483166212,-37.737170395227075,68.67625671254015,-38.80677237664066,68.36962958756004,-40.15417000248955,68.77469537757537,-41.91867398940256,69.5702979873902,-43.91073231913553,70.2409118753059,-45.87852828696822,70.52501179867176,-47.76521884589869,70.59931743848792,-49.75620717021809,70.83966582482078,-52.06239844239933,71.31128018969405,-54.60769082243439,71.49649200238456,-56.950217291613946,70.94398869348059,-58.72143705355991,71.32548050441065,-60.44532246136496,65,-34,64.65334962385307,-35.232936875553364,64.14547100769411,-36.44519653610356,63.363524128856334,-37.373495096799886,62.30768015675441,-38.076553868785226,61.11389106240032,-38.668410594939445,59.95505202327267,-39.31361875400811,58.93936129302329,-40.13928238871953,58.04328433206606,-41.13284937559397,57.12275307737868,-42.13539377590255,56.01038430554775,-42.939488407040365,54.65424620001434,-43.421436249744296,53.20801442723891,-43.624540770489126,51.953821271133705,-43.73605441028396,50.97545275778616,-43.9412971262663,49.713978610192186,-44.23576217090164,47.04416575514972,-44.56815703119447,63,-40,62.13310169454007,-39.54398494822877,62.27525323892321,-38.62009048530379,62.52551797345444,-37.4216187914029,62.6204456033367,-36.0773611705377,62.61342834032403,-34.66023185830513,62.643110208153566,-33.24263337386975,62.76280183117121,-31.87412220896362,62.896157968435745,-30.565410627509014,62.90599704665711,-29.296966256240907,62.6939476398445,-28.033763046980514,62.25355627828391,-26.73473237520386,61.65659491056992,-25.36032008865564,61.00699379418277,-23.88525121768753,60.40812952966881,-22.315899182110147,59.956870483282515,-20.701318521476328,59.738430328788674,-19.123924821700356,59.790792473119026,-17.664709519082173,60.044695165836764,-16.355110346706194,60.29001478953562,-15.144198498160087,60.22393734516005,-13.91604229180328,59.5937545460934,-12.569600044568894,58.42565023141506,-11.071163182768567,57.43879233847457,-9.156908923524933,31.156488489754235,-94.58219720103965,31.542469819408705,-93.26691709081999,32.729117154384234,-91.90936922035247,33.97480461166294,-90.4421822306683,35.03929712820832,-88.91645391372258,35.91614244846392,-87.42825823767102,36.66055749991634,-86.01604489076874,37.34021021032985,-84.71052331113697,38.025465545149835,-83.57900626467489,38.776106292712946,-82.69101453976981,39.622194361796474,-82.0534113019495,40.54921588889729,-81.58083800367648,41.49642785959494,-81.11623892532995,42.37408373591417,-80.47701740672109,43.0996962565412,-79.50778853367605,43.64176076476528,-78.14022605397875,44.04548332481701,-76.44827514211661,44.416234809662605,-74.64603545719635,44.87038557566887,-72.97407722660068,45.5128050002583,-71.51558936673406,46.48574390541774,-70.07701115085946,48,-68" fill="none" stroke="rgb(0, 0, 0)" stroke-width="2" stroke-linejoin="round" filter="url(#fuzzy)"></polyline><polyline points="45,-71,44.263984277315885,-72.24764873585788,43.56865808670999,-73.30951338820131,42.854723785071286,-74.49874345670166,42.171748831858245,-75.66303575003828,41.497270229112566,-76.70604890445519,40.80256423836882,-77.64806600470813,40.11347772636229,-78.58754625913448,39.49360327942881,-79.64427315326144,38.984323189583314,-80.90025909217542,38.56340176326665,-82.35285587237263,38.15452369393846,-83.90731328749892,37.675027444289384,-85.43413831678839,37.082194020434954,-86.87755765480355,36.38129064035102,-88.33634948387612,35.58201136003972,-90.00961570426533,34.62317265074657,-91.98636004387684,33.330285075244504,-94.04495184190374,31.50355114587446,-95.63578026426175,43.24535718304182,-68.23156355546598,42.60547431466186,-69.51550896992077,41.957122722572095,-70.52559214791458,41.15455634185627,-71.439312749775,40.36823228121634,-72.31559678128474,39.68494056665197,-73.2391761641288,39.07639956241842,-74.23613040608632,38.4857206688917,-75.25358103457248,37.88570346582738,-76.20984535758497,37.27017971737598,-77.05483674510944,36.617490930320685,-77.79000036908934,35.887097186957185,-78.43648431509253,35.072323988397045,-79.00560223745167,34.25895079138723,-79.57590929715987,33.58177714046909,-80.47155727651102,33,-82,28,-85,30.1116437675821,-84.786373359868,31.933224359609035,-84.56954330062814,33.54405597178087,-84.54045842597073,35.15311671819706,-84.99975365783428,36.79943113068382,-85.81691749170524,38.428219151830135,-86.69536418753137,40.0250598292738,-87.50658401856627,41.637349734954654,-88.30992274127333,43.30395954163328,-89.16419010776808,44.999006531330124,-89.99502229862759,46.65475319081364,-90.64264371024004,48.235963476004414,-91.01150784241547,49.78397952497699,-91.15704776226096,51.378300758359615,-91.21859631974299,53.049667253942744,-91.26276368101956,54.742677602373135,-91.20473430601929,56.39408607896019,-90.92447949151382,58.062179053044375,-90.4969527465916,59.91682191883886,-90.2566479471052,61.95779159952456,-90.45829047169391,63.696473629453436,-90.74819444026488,64.56437975748419,-90.3480990368827,65.8575758006344,-90.05015466617355" fill="none" stroke="rgb(0, 0, 0)" stroke-width="2" stroke-linejoin="round" filter="url(#fuzzy)"></polyline><!--]--></g><g id="pointNose"><g id="rightNose"><!--[--><circle r="1.261353523035483" cx="10.213069190731671" cy="22.51896059738268" stroke="black" fill="none" stroke-width="1" filter="url(#fuzzy)"></circle><circle r="1.7477948977177782" cx="7.979950442162455" cy="20.553805483561007" stroke="black" fill="none" stroke-width="1" filter="url(#fuzzy)"></circle><circle r="1.0755181531199545" cx="9.019027389665766" cy="20.525094780462148" stroke="black" fill="none" stroke-width="1" filter="url(#fuzzy)"></circle><circle r="2.9248060185321987" cx="8.748958078996843" cy="21.857693243943654" stroke="black" fill="none" stroke-width="1" filter="url(#fuzzy)"></circle><circle r="2.7105239082200017" cx="7.968368490719419" cy="20.634694468560202" stroke="black" fill="none" stroke-width="1" filter="url(#fuzzy)"></circle><circle r="1.9317720071929192" cx="10.096708346685679" cy="23.46024286974464" stroke="black" fill="none" stroke-width="1" filter="url(#fuzzy)"></circle><circle r="1.699385813666296" cx="9.24402592621864" cy="21.69601615766949" stroke="black" fill="none" stroke-width="1" filter="url(#fuzzy)"></circle><circle r="2.1105158080769684" cx="10.259145300859608" cy="23.21559247089169" stroke="black" fill="none" stroke-width="1" filter="url(#fuzzy)"></circle><circle r="1.782144709143449" cx="8.10864597569793" cy="20.38148706777985" stroke="black" fill="none" stroke-width="1" filter="url(#fuzzy)"></circle><circle r="2.0596490453449983" cx="7.391612440295383" cy="20.173440130712894" stroke="black" fill="none" stroke-width="1" filter="url(#fuzzy)"></circle><!--]--></g><g id="leftNose"><!--[--><circle r="2.5778965046257474" cx="-9.396997437967652" cy="28.833773219264536" stroke="black" fill="none" stroke-width="1" filter="url(#fuzzy)"></circle><circle r="2.978561432863114" cx="-8.600118380182801" cy="29.62348114432475" stroke="black" fill="none" stroke-width="1" filter="url(#fuzzy)"></circle><circle r="2.300769158794166" cx="-11.075698704202987" cy="30.93029813411279" stroke="black" fill="none" stroke-width="1" filter="url(#fuzzy)"></circle><circle r="2.7537680921679275" cx="-9.710592408961762" cy="29.05975627292679" stroke="black" fill="none" stroke-width="1" filter="url(#fuzzy)"></circle><circle r="1.7765411365989636" cx="-8.83597453469116" cy="28.540233468823693" stroke="black" fill="none" stroke-width="1" filter="url(#fuzzy)"></circle><circle r="1.4659298576606457" cx="-11.655050940370504" cy="29.854166789564125" stroke="black" fill="none" stroke-width="1" filter="url(#fuzzy)"></circle><circle r="2.160732274363571" cx="-9.707020364798476" cy="29.246750616332438" stroke="black" fill="none" stroke-width="1" filter="url(#fuzzy)"></circle><circle r="2.2634030553092765" cx="-9.568035572023845" cy="30.20440293876893" stroke="black" fill="none" stroke-width="1" filter="url(#fuzzy)"></circle><circle r="1.9851081180293804" cx="-9.579640488228117" cy="30.620904935215975" stroke="black" fill="none" stroke-width="1" filter="url(#fuzzy)"></circle><circle r="1.0763456286321909" cx="-10.05668950115572" cy="30.788154809086684" stroke="black" fill="none" stroke-width="1" filter="url(#fuzzy)"></circle><!--]--></g></g><g id="mouth"><polyline points="20.20615732890561,59.18482406753824,20.3186459562151,59.49041793580008,20.122975863998256,59.22948690084887,20.25527509418115,59.55145153239732,20.12845908507299,60.00310173955433,19.981632401749238,61.37909697045991,19.71261143010082,62.03058841534089,19.755865638800692,61.367795548182336,19.590958168041702,61.83095926744619,19.239996982120502,63.06725882150448,19.374187987241534,62.69706529420625,18.81058349684951,63.796794798046015,18.840077096802943,63.71722231784676,18.041750539181145,64.66881368580788,17.33308187168636,65.42292927167635,17.418907006131782,65.48323725704905,17.215752966931582,65.6735274900908,16.17297713755356,66.65250540056407,16.159628618507718,66.54734022136513,16.415477506964983,66.46827078143734,15.727725589263228,66.9172134796918,14.383524716361693,68.04465453298425,14.083114903015359,68.15437674380163,14.904718834927403,67.71475149620375,14.239216322128724,68.07818864575172,12.314726040525185,69.25362872974759,12.912548816702882,68.93886175287602,11.77996070096007,69.50607402814643,10.726462669623185,69.98422835458244,10.347500984059012,70.13752753234427,10.804388400309541,70.0051588032891,10.01955196526669,70.36880155557346,9.498017200324345,70.5888152493559,7.224173027387257,71.36292700014044,6.50030112391128,71.57499482255182,6.413708523237188,71.6166863377447,5.554072045776627,71.87055399897122,6.260255622680116,71.67636230178212,4.7915789875267585,72.05327756826738,4.11080329437881,72.21611759490303,3.872974028141421,72.23936123960613,1.3826024336315186,72.73642510528431,0.8838383458755805,72.8244332047225,1.9801826276712742,72.6544127903961,-1.331012144800222,73.09353573492928,-0.41882251057136965,72.99809413526816,-2.4174285548355217,73.1800804704165,-2.848560119936048,73.20975880862397,-3.147433857332481,73.22496563802417,-3.034506954537335,73.21072390926233,-5.667941357916669,73.29348559820154,-6.484103123423438,73.28197320579042,-7.148554776147958,73.27518704675268,-7.612822996108163,73.25006295576453,-9.47695720071505,73.13272768697865,-8.667220577744093,73.20690609364611,-8.906591284330347,73.18121353895836,-11.049732291160275,72.97435400873064,-11.356909975560285,72.95221377094238,-10.961343694069765,72.97499888637563,-13.678258243274954,72.5558594824876,-12.59943873695051,72.74959689432956,-14.399128934144674,72.46078637928665,-13.96722082019291,72.54202530186025,-16.0028478704399,72.0728546524578,-16.083980821464184,72.04634846322341,-18.329531313334105,71.42488587469086,-18.857608227728015,71.20945544759724,-18.6610516394772,71.35043868065289,-20.147639229520948,70.75791240510472,-19.00147763988761,71.16763623140677,-21.668359599953675,70.15936129681867,-20.24843603500105,70.73219070753996,-22.751831979754392,69.58649950293568,-21.38567695918151,70.24994478816048,-23.428615287631295,69.23188187188072,-22.671388080262183,69.6717889582911,-24.521034507127915,68.56076878303755,-23.74770233579151,68.98975919388782,-25.496941083606025,67.867587935544,-26.373081387661315,67.35886123837055,-26.546970859377353,67.04668740935607,-26.13592341791003,67.40875979209791,-26.6328067580638,67.11953526242526,-27.807317504107772,65.92354864267148,-27.618898829022157,66.12200056482045,-28.573661759485873,65.15719088894224,-27.90906404973098,65.78622168179166,-29.034938668483456,64.369222764797,-28.651844177965607,64.89078904855658,-28.91960253824857,64.55711401568723,-29.570614360168257,63.69997577048229,-29.915812084073714,62.689164943932006,-29.942663311696997,62.78613281313434,-30.230110893489602,62.05158961345738,-30.295646635870888,61.704426135163445,-30.17511621934691,61.90342378973726,-30.259318106889786,61.60584912700371,-30.608520647026808,60.449718766173916,-30.493286857323632,60.303731190608026,-30.712392311412103,59.11634989192337,-30.671458932436238,59.038986873403786,-30.726831870803444,59.50681852147217,-30.616106917088132,59.04573440661554,-30.321034609900643,57.827668612800515,-30.489439179428615,57.900895925985935,-30.253494621082822,57.11086982343882,-29.814905768575755,56.399283304591194,-29.71936071880291,56.21560325285635,-29.825502407555184,56.240092506433484,-29.56656662549461,55.562340517825724,-28.80804578691317,54.38365135018941,-28.911598818755635,54.64283774531064,-28.826857750641352,54.52213513763387,-28.25820695108323,53.717459602163736,-27.726711057930352,53.216642878579854,-27.12699976581836,52.66133057406516,-26.683511670811114,52.131083531707574,-27.00865562456439,52.48328217214409,-26.956438102176364,52.48170628253678,-26.184413843708526,51.88616077892225,-25.542220405329374,51.28664717278809,-25.06844531103649,50.99344748419929,-23.821214825043732,50.18727740124257,-23.81379039311333,50.16489224518608,-23.64549786267566,50.02616359670181,-22.997379466124407,49.73381947438946,-22.857526647102127,49.61060136539861,-22.554166358851916,49.423637391216126,-19.892910340836792,48.31332223801364,-20.426450384188747,48.50368512980327,-19.043830281077415,47.94781383490296,-19.795782006830958,48.246658796010344,-18.60418738030757,47.75226826618448,-16.626808745344057,47.15527454501522,-16.260579806246042,47.10029813644533,-16.80969701816138,47.211496131202985,-14.870674244260869,46.711490512909485,-15.085044452860604,46.771109984875146,-14.025445846379682,46.531368836520656,-13.390740589313173,46.413444399030126,-12.653466026543601,46.26005323596175,-12.293266688553423,46.1980162947776,-11.29056081112903,46.0572063051196,-9.789935297347078,45.85849743006687,-8.96791448359452,45.771911912606484,-8.848642149306807,45.760601889538904,-8.666387789759476,45.753138102542,-7.4133752821500245,45.65455815560811,-7.155426670129809,45.642094751110115,-4.417174027445026,45.579181926339245,-4.918934315081105,45.57948715384401,-4.7153065099331775,45.579486926246545,-3.0724357582457675,45.60924053823908,-2.558150047286572,45.624337397346984,-1.4803391328034161,45.678419597486474,0.49360742050738704,45.852389438839005,-1.2718188822449843,45.70612727079344,0.5190568995444105,45.86706766267344,1.443719955701959,45.99797233339702,3.2300762467345567,46.248695575705796,3.3876236048950297,46.26736982299903,3.696827432502115,46.370131992529586,5.967096419144912,46.82562451516767,4.6985271642876825,46.55156838913187,6.277782352336045,46.94148272243429,5.746770683752095,46.762614193962605,7.226932265415675,47.22225433217751,8.313482381905336,47.4882870476093,9.22779888370167,47.84120854108718,10.412931085706747,48.25315744631659,10.406811576045294,48.25011219979507,11.596247041529184,48.80140454131441,10.879107554147792,48.45158551486798,11.43011923351064,48.76102087674473,12.195910019091768,49.042428321722,13.70340043749067,49.85588112193339,14.122275538500281,50.122462206489224,14.507342702289337,50.37021033578195,14.980417356295836,50.80003285480861,15.186203926988805,50.943226169732476,15.582694198095242,51.10151688234252,16.396777321047274,51.79480348948702,17.2269894471253,52.472513788526264,16.500846819863817,51.89099642167447,17.38411942489322,52.78065587599035,17.90127933884156,53.187703385410465,17.935512841115823,53.33257937691372,18.097546209766136,53.406440420436105,18.90645853019813,54.68086853941142,18.75882857280918,54.64188144914374,19.19313373056302,55.290528664704986,19.587120010370697,56.29384728432801,19.734509708504746,56.497686878927894,20.089967954820033,57.19788662559869,20.037845198441822,57.254717532063765,20.066292521451324,57.36368880979464,20.075262971779132,57.60047370509272,20.030731243199178,58.04443769978485,20.294332950896354,58.35327288060506" fill="rgb(215,127,140)" stroke="black" stroke-width="3" stroke-linejoin="round" filter="url(#fuzzy)"></polyline></g></svg>