<svg viewBox="-100 -100 200 200" xmlns="http://www.w3.org/2000/svg" width="400" height="400" id="face-svg"><defs><clipPath id="leftEyeClipPath"><polyline points="29.04873520601981,-2.0875827949734327,28.770086597395444,-2.1202232859277528,28.46494881559566,-2.151100283665332,28.134255397832348,-2.180276032985263,27.77891426977708,-2.2078114794832038,27.39980815819829,-2.2337662794614093,26.997795003598455,-2.258198809838763,26.573708372851318,-2.2811661780608103,26.128357871839068,-2.30272423200979,25.662529558089556,-2.3229275699146643,25.176986353413465,-2.341829550261155,24.672468456541527,-2.359482301701772,24.149693755761707,-2.3759367329658465,23.609358241556397,-2.391242542769564,23.052136419239638,-2.4054482297259945,22.478681721594295,-2.418601102255127,21.83999424702502,-2.432813322548396,21.180517989181904,-2.4459039479128593,20.500796326315122,-2.4579065480349644,19.801397622332995,-2.4688545526848737,19.082917236862187,-2.4787809568656636,18.345979209902225,-2.4877180513221404,17.5912376309584,-2.495697177744114,16.819377702537327,-2.502748507998966,16.03111650788932,-2.5089008467283493,15.227203492881852,-2.5141814566438576,14.408420671888145,-2.5186159058565027,13.575582567575335,-2.5222279365748377,12.729535894476133,-2.525039354506563,11.871158996228452,-2.5270699382984554,11.001361046366942,-2.528337368349455,10.121081022550872,-2.5288571743317476,9.231286464112364,-2.528642700754686,8.33297202280933,-2.527705089906382,7.427157816667185,-2.5260532815078065,6.51488759679366,-2.5236940284142446,5.597226737050782,-2.52063192769893,4.675260056468357,-2.5168694664537075,3.750089484283041,-2.5124070816415576,2.8228315774872814,-2.5072432333358217,1.8946149007722792,-2.5013744906809596,0.9665772787491878,-2.4947956299096923,0.03986293033276622,-2.4874997437513486,-0.8843805048283437,-2.47947836156627,-1.805005037990505,-2.4707215795411024,-2.720865491138911,-2.4612182002798133,-3.6308227351122007,-2.4509558811252763,-4.533746996143611,-2.4399212905462595,-5.428521220934513,-2.4281002719246505,-6.314044490376072,-2.415478014077764,-7.1892354720349125,-2.402039227850564,-8.053035901518511,-2.3877683281126396,-8.904414082836155,-2.372649620494775,-9.742368397871264,-2.3566674921999486,-10.565930815080876,-2.339806606223599,-11.374170387538081,-2.3220520983179975,-12.166196730433217,-2.303389776035566,-12.94116346814964,-2.283806319185973,-13.698271641029805,-2.2632894810418502,-14.436773061947571,-2.241828289627969,-15.155973612802416,-2.2194132484287086,-15.85523647105142,-2.1960365358486564,-16.53398525639482,-2.1716922027611845,-17.191707087730897,-2.1463763674798275,-17.827955540496035,-2.1200874074873144,-18.442353494505763,-2.0928261472570773,-19.036533571355868,-2.0645307306352705,-19.61205492915331,-2.035126537038299,-20.16850464008278,-2.004598100277541,-20.705498514815897,-1.9729312391456901,-21.222682426287992,-1.9401131465009709,-21.719733633474924,-1.906132478351354,-22.19636210516991,-1.8709794429387707,-22.65231184376036,-1.8346458898233282,-23.087362209004603,-1.7971253989675253,-23.501329241808854,-1.7584133698204667,-23.894066988003868,-1.7185071104020775,-24.265468822121882,-1.6774059263873204,-24.615468771173333,-1.635111210190408,-24.944042838423773,-1.59162653004902,-29.03558701330463,-0.6991233738125984,-28.552741349455367,-0.6154486116930438,-28.056311278856473,-0.530361724448428,-27.54644314219434,-0.4439270517406606,-27.023314346200596,-0.35621681718093123,-26.487131485584648,-0.26731095601609134,-25.938128464966415,-0.17729694281502395,-25.376564620808843,-0.08626961915502473,-24.802722843350686,0.00566897869182581,-24.216907698539007,0.09840979207228706,-23.619443549961876,0.19183691226557764,-23.010672680781024,0.2858277527970037,-22.39095341566443,0.3802532217515826,-21.76065824271898,0.4749778940876661,-21.12017193542309,0.5698601839505657,-20.46739993125312,0.6652195548852657,-19.800377502044153,0.7613151778539025,-19.119700770631848,0.85790001271813,-18.425975294830618,0.9547138625250944,-17.719813663905473,1.051484448021097,-17.00183309162328,1.147928509325094,-16.272653019906425,1.24375293347543,-15.532892747111672,1.3386559065631793,-14.783169094957227,1.4323280891654933,-14.024094128120808,1.5244538137923462,-13.25627294053172,1.614712303060085,-12.480301522379765,1.7027789073051394,-11.696764721863952,1.7883263603513222,-10.906234315703829,1.8710260521440847,-10.10926720243644,1.9505493169651351,-9.30640373252171,2.026568735940812,-8.498166189279246,2.098759452557577,-7.685057434679406,2.1668004998980552,-6.867559734011541,2.2303761383109992,-6.046133773452347,2.289177202228561,-5.221217884557199,2.342902454844275,-4.393227489697365,2.391259949365135,-3.562554782466045,2.433968395551165,-2.729568657076077,2.47075853025587,-1.8946149007722792,2.5013744906809596,-1.0580166632812755,2.5255751890587352,-0.2200752173217344,2.543135687475535,0.6189289758020808,2.5538485715496164,1.4587348815005368,2.557525321676905,2.299099174069743,2.5539976805579454,3.139794171710663,2.543119015719482,3.980605410373259,2.524765675744064,4.821328842402856,2.4988383389210536,5.661767645965741,2.465263353032413,6.5017286312311455,2.423994064986712,7.341018229286707,2.3750121390146917,8.179438049764446,2.3183288621398,9.016779993154453,2.2539864356371138,9.852820903783286,2.1820592511939894,10.687316749434263,2.1026551504858815,11.51999631358667,2.0159166668806816,12.350554386251039,1.9220222479850064,13.178644439377543,1.821187457745785,14.00387077281464,1.7136661568205898,14.825780116795091,1.5997516599300385,15.643852676926347,1.479777868905717,16.457492607662527,1.3541203801469819,17.26601790023498,1.2231975652000453,18.06864967101861,1.0874716231727266,18.864500836310974,0.947449603698272,19.523118038196017,0.8481226522894834,20.172773843924222,0.7464554333789031,20.81265767299325,0.6426976148641903,21.441904329963705,0.5371145076580985,22.059592395862044,0.4299874120909437,22.664742619583517,0.3216139643130709,23.256316309295084,0.2123084826973285,23.833213723838373,0.10240231424153245,24.394272464132584,-0.007755819029062305,24.938265864577435,-0.11779947365929067,25.46390138445609,-0.22734413836161282,25.96981899933809,-0.3359868876136409,26.45458959248229,-0.443306035255671,26.916713346239767,-0.5488607880882135,27.354618133456796,-0.6521908994695249"></polyline></clipPath><clipPath id="rightEyeClipPath"><polyline points="-30.516141170845916,-1.8567914863077921,-30.220211742361574,-1.8980531828392626,-29.893314180743936,-1.9370202260570863,-29.536763745384082,-1.9737802270299163,-29.151837790183478,-2.0084186759842217,-28.739776340571066,-2.0410189657383833,-28.301782670520478,-2.0716624151367875,-27.83902387956719,-2.100428292483924,-27.352631469825695,-2.1273938389784814,-26.843701923006673,-2.1526342921474413,-26.31329727743415,-2.1762229092801753,-25.762445705062685,-2.1982309908625393,-25.192142088494517,-2.218727904010972,-24.60334859799674,-2.2377811059065884,-23.996995268518493,-2.2554561672292737,-23.373980576708096,-2.2718167955917843,-22.662925930974996,-2.288899534360241,-21.931401466122367,-2.304637434721879,-21.180357484651548,-2.319079765840805,-20.410748910190694,-2.3322755733517693,-19.62353685166966,-2.344273453713239,-18.819689912886783,-2.3551213458022673,-18.000185255503716,-2.364866339329209,-17.166009423504235,-2.3735544996502855,-16.31815893715309,-2.381230708556051,-15.457640664490963,-2.387938520613772,-14.585471978401468,-2.3937200346417553,-13.702680707286335,-2.39861577989365,-12.810304887384675,-2.4026646165307564,-11.909392324772506,-2.405903649960365,-11.000999975078393,-2.4083681586181545,-10.086193148951406,-2.41009153477268,-9.166044551317242,-2.4111052379299793,-8.241633162458752,-2.411438760416319,-7.31404296895665,-2.4111196047171224,-6.384361552526667,-2.410173272150088,-5.453678544789003,-2.40862326245055,-4.523083956006207,-2.4064910838470874,-3.593666385825463,-2.403796273205424,-2.6665111240613317,-2.400556425818641,-1.7426981495549472,-2.396787234421738,-0.8233000351457446,-2.392502537008555,0.09062023320831769,-2.3877143730291044,0.9980115151259548,-2.3824330475453257,1.8978368442771936,-2.3766672029232945,2.7890758186013755,-2.3704238976399217,3.6707270442325575,-2.363708691782159,4.5418106250962165,-2.3565257388167513,5.401370690141297,-2.3488778832085515,6.248477950171508,-2.3407667634654397,7.082232276239924,-2.3321929201878637,7.901765291570759,-2.3231559087010334,8.706242968972392,-2.3136544158478016,9.49486822570554,-2.3036863805202494,10.266883507770606,-2.2932491175080156,11.021573355578107,-2.2823394442413902,11.758266942966257,-2.2709538100072053,12.476340581529563,-2.2590884272155454,13.175220182222498,-2.246739404295317,13.854383666202162,-2.233902879796691,14.513363316873967,-2.2205751572784576,15.151748065104249,-2.2067528405583174,15.769185699563831,-2.1924329689041357,16.365384994166472,-2.1776131517441937,16.940117744566255,-2.1622917024744566,17.493220705677736,-2.1464677709408955,18.02612608008528,-2.1301074644163855,18.540129994390867,-2.113171028341895,19.034933196048723,-2.0956499410022134,19.510261663500476,-2.077536279497525,19.965867682428723,-2.05882277625748,20.40153092201061,-2.0395028755552618,20.8170595111715,-2.019570790021662,21.212291114838543,-1.9990215571591468,21.58709401019426,-1.97785109585593,21.941368162930218,-1.9560562629000424,22.275046303500535,-1.933634909493403,22.588095003375614,-1.9105859377658885,22.88051575129561,-1.8869093572894045,23.152346029524164,-1.8626063415919556,26.299762026429985,-1.0893595454747338,25.808541403239374,-1.022278722432433,25.30673072807165,-0.9533025427997526,24.794616520580945,-0.8824268893499676,24.2725163868431,-0.8096529489404543,23.740776086038437,-0.7349874950322606,23.19976659713471,-0.6584431702096698,22.649881185569814,-0.5800387686997683,22.091532469934776,-0.49979951889201124,21.52514948865645,-0.417757365857786,20.95117476668046,-0.33395125386998314,20.370061382153995,-0.24842740892255932,19.782270033108677,-0.16123962125010305,19.188266104143377,-0.07244952784740422,18.588516733107063,0.017873105010985046,17.980556824472096,0.10984032106715569,17.362239219667178,0.20358706273979266,16.734478436450484,0.2990504782634895,16.098147922817315,0.39613993398135694,15.454077244643234,0.49473760777930886,14.80304936097173,0.5946991352184803,14.14579800884823,0.6958543104752781,13.483005219602727,0.7980078441985183,12.81529898848303,0.9009401803931443,12.143251119540793,1.00440837444,11.467375267672384,1.1081470343611493,10.78812519971675,1.2118693274401928,10.105893296512322,1.3152680543070945,9.421009317815075,1.418016792596977,8.73373945197988,1.5197711122923754,8.044285672307208,1.6201698648584175,7.352785421957319,1.7188365482804198,6.659311649333994,1.815380750113377,5.963873215839968,1.9093996706528236,5.2664156979061145,2.0004797283365434,4.566822605196532,2.088198249486613,3.864917036891576,2.1721252445012498,3.1604637979509906,2.25182527260596,2.4531719972592088,2.3268593972734397,1.7426981495549472,2.396787234421738,1.0286498030471607,2.461169095500143,0.310589714619513,2.5195682275722735,-0.41195940547461185,2.5715531525058513,-1.1395095575243595,2.6167001073786587,-1.8726015029789078,2.654595588210123,-2.6117981798680616,2.684838999128022,-3.3576774611238553,2.7070454090798215,-4.110824233901071,2.720848418198063,-4.871821777994559,2.725903135929334,-5.641242421451257,2.7218892730362807,-6.4196374514748245,2.7085143495821313,-7.2075262587207645,2.6855170210072288,-8.005384693079963,2.65267052440705,-8.8136326090485,2.609786247121164,-9.632620578781687,2.556717419742659,-10.462615750930189,2.4933629356574656,-11.303786833356138,2.4196712992230838,-12.156188177827136,2.335644704696194,-13.019742944786056,2.241343248018623,-13.89422532629453,2.136889273571139,-14.77924180524803,2.022471858004576,-15.67421142896045,1.8983514332577416,-16.578345075216014,1.7648645508716054,-17.490623688886547,1.622428789709243,-18.40977546721188,1.4715478091910157,-19.115230928142818,1.3788084596710553,-19.817620042533065,1.281931498980338,-20.51588936948109,1.1811772441228792,-21.208890154978413,1.0768321544581294,-21.895375291662777,0.9692096102983858,-22.573996278571354,0.8586506915062087,-23.243300180893893,0.7455249560918409,-23.90172658972595,0.6302312188106236,-24.547604581822046,0.5131983297604097,-25.17914967934885,0.3948859529789832,-25.79446080963839,0.2757853450414718,-26.391517264941218,0.15642013365776997,-26.968175662179593,0.03734709626994892,-27.522166902700686,-0.08084306135032548,-28.051093132029738,-0.1975249265043706"></polyline></clipPath><filter id="fuzzy"><feTurbulence id="turbulence" baseFrequency="0.05" numOctaves="3" type="noise" result="noise"></feTurbulence><feDisplacementMap in="SourceGraphic" in2="noise" scale="2"></feDisplacementMap></filter><linearGradient id="rainbowGradient" x1="0%" y1="0%" x2="100%" y2="0%"><stop offset="0%" style="stop-color: rgb(128, 128, 128);  stop-opacity: 1"></stop><stop offset="50%" style="stop-color: rgb(145, 85, 61);  stop-opacity: 1"></stop><stop offset="100%" style="stop-color: rgb(145, 85, 61);  stop-opacity: 1"></stop></linearGradient></defs><title>That&#39;s an ugly face</title><desc>CREATED BY XUAN TANG, MORE INFO AT TXSTC55.GITHUB.IO</desc><rect x="-100" y="-100" width="100%" height="100%" opacity="1" fill="rgb(255, 253, 208)"></rect><polyline id="faceContour" points="78,1,78,2,77,1,78,4,77,3,77,6,77,6,76,11,76,9,76,11,75,12,75,13,75,15,75,16,74,17,74,17,74,20,73,20,72,22,73,21,72,23,72,25,70,28,70,28,70,29,70,29,69,30,68,31,68,32,67,35,66,36,66,36,66,36,63,40,64,40,63,41,62,42,61,44,60,45,59,46,58,48,59,48,58,48,57,50,57,49,56,50,55,52,53,54,53,54,52,55,51,56,51,57,50,58,49,59,47,60,47,61,46,62,45,62,45,62,43,64,43,63,40,66,41,66,40,67,39,68,37,69,35,70,35,70,35,71,34,71,32,72,32,73,31,73,30,73,30,74,27,75,25,76,26,75,24,76,23,77,21,78,21,78,20,78,19,79,17,79,15,80,16,80,14,80,13,81,14,81,11,81,9,82,8,82,8,82,6,82,4,82,3,83,3,83,3,83,3,83,-1,83,-2,83,-4,83,-4,83,-5,83,-4,83,-6,83,-7,83,-9,83,-10,83,-10,83,-12,83,-13,83,-16,82,-16,82,-15,83,-18,82,-19,82,-18,82,-21,81,-22,81,-24,80,-24,80,-25,80,-27,79,-27,79,-27,79,-29,78,-30,78,-32,77,-32,77,-33,76,-35,76,-35,75,-37,74,-38,74,-38,74,-39,72,-40,72,-41,71,-42,71,-44,69,-45,68,-45,68,-46,68,-47,67,-47,67,-48,66,-50,64,-51,62,-52,62,-53,60,-53,60,-54,59,-54,59,-55,59,-56,57,-57,56,-57,55,-58,54,-60,53,-60,51,-60,51,-62,49,-62,48,-63,46,-63,46,-64,44,-64,45,-66,41,-67,40,-66,40,-67,40,-67,38,-69,35,-69,34,-69,34,-71,31,-71,28,-72,29,-72,28,-72,26,-73,23,-72,25,-73,23,-74,20,-74,19,-75,18,-75,16,-75,16,-76,14,-76,11,-76,11,-76,11,-77,7,-77,8,-77,7,-77,6,-77,3,-78,2,-78,0,-78,-2,-78,-1,-78,-3,-78,-5,-78,-6,-78,-10,-78,-12,-78,-12,-78,-13,-78,-15,-78,-17,-78,-17,-78,-19,-78,-19,-78,-21,-78,-22,-77,-26,-77,-24,-77,-27,-77,-28,-77,-29,-76,-30,-76,-32,-76,-32,-76,-33,-76,-34,-75,-37,-75,-38,-74,-39,-73,-41,-73,-42,-72,-44,-72,-45,-71,-47,-71,-46,-71,-48,-70,-49,-70,-49,-69,-51,-69,-51,-67,-55,-65,-56,-66,-55,-66,-55,-64,-58,-65,-58,-62,-60,-63,-60,-61,-62,-61,-62,-60,-63,-57,-66,-58,-64,-57,-66,-56,-67,-54,-68,-55,-68,-54,-68,-52,-70,-51,-71,-51,-71,-48,-72,-47,-73,-46,-74,-47,-73,-45,-74,-42,-76,-43,-75,-42,-76,-41,-76,-37,-78,-38,-78,-38,-77,-34,-79,-33,-79,-33,-79,-33,-80,-30,-80,-29,-81,-28,-81,-26,-81,-26,-81,-24,-82,-23,-82,-20,-82,-19,-82,-19,-83,-18,-82,-17,-83,-14,-83,-13,-83,-11,-83,-10,-83,-8,-83,-6,-83,-6,-83,-5,-83,-3,-83,-1,-83,1,-83,3,-83,2,-83,5,-83,7,-83,8,-82,9,-82,9,-82,11,-82,13,-81,14,-81,15,-81,17,-80,19,-80,19,-80,22,-79,21,-79,24,-79,23,-79,27,-77,27,-78,28,-77,31,-76,31,-76,32,-76,34,-74,34,-75,37,-73,39,-72,40,-72,40,-72,40,-72,42,-71,43,-70,44,-70,47,-68,46,-68,47,-68,48,-66,49,-66,51,-65,51,-64,53,-63,53,-63,56,-61,57,-60,57,-59,57,-59,60,-57,61,-56,61,-56,62,-55,62,-54,62,-55,64,-52,65,-52,65,-51,66,-49,67,-48,67,-47,68,-46,69,-44,69,-45,70,-44,70,-42,71,-41,72,-40,72,-39,73,-38,73,-37,74,-35,74,-33,74,-34,74,-33,75,-30,76,-29,76,-28,76,-29,77,-25,77,-25,77,-23,78,-22,77,-23,77,-21,78,-21,78,-18,78,-19,78,-15,78,-13,79,-12,78,-11,78,-11,79,-10,78,-10,78,-8,79,-6,78,-3,78,-5,78,-3,78,-2,78,1,78,2" fill="#ffc9a9" stroke="black" stroke-width="1.6666666666666665" stroke-linejoin="round" filter="url(#fuzzy)"></polyline><g transform="translate(48.29011985070629 -22.77094263992799)"><polyline id="rightCountour" points="-30.516141170845916,-1.8567914863077921,-30.220211742361574,-1.8980531828392626,-29.893314180743936,-1.9370202260570863,-29.536763745384082,-1.9737802270299163,-29.151837790183478,-2.0084186759842217,-28.739776340571066,-2.0410189657383833,-28.301782670520478,-2.0716624151367875,-27.83902387956719,-2.100428292483924,-27.352631469825695,-2.1273938389784814,-26.843701923006673,-2.1526342921474413,-26.31329727743415,-2.1762229092801753,-25.762445705062685,-2.1982309908625393,-25.192142088494517,-2.218727904010972,-24.60334859799674,-2.2377811059065884,-23.996995268518493,-2.2554561672292737,-23.373980576708096,-2.2718167955917843,-22.662925930974996,-2.288899534360241,-21.931401466122367,-2.304637434721879,-21.180357484651548,-2.319079765840805,-20.410748910190694,-2.3322755733517693,-19.62353685166966,-2.344273453713239,-18.819689912886783,-2.3551213458022673,-18.000185255503716,-2.364866339329209,-17.166009423504235,-2.3735544996502855,-16.31815893715309,-2.381230708556051,-15.457640664490963,-2.387938520613772,-14.585471978401468,-2.3937200346417553,-13.702680707286335,-2.39861577989365,-12.810304887384675,-2.4026646165307564,-11.909392324772506,-2.405903649960365,-11.000999975078393,-2.4083681586181545,-10.086193148951406,-2.41009153477268,-9.166044551317242,-2.4111052379299793,-8.241633162458752,-2.411438760416319,-7.31404296895665,-2.4111196047171224,-6.384361552526667,-2.410173272150088,-5.453678544789003,-2.40862326245055,-4.523083956006207,-2.4064910838470874,-3.593666385825463,-2.403796273205424,-2.6665111240613317,-2.400556425818641,-1.7426981495549472,-2.396787234421738,-0.8233000351457446,-2.392502537008555,0.09062023320831769,-2.3877143730291044,0.9980115151259548,-2.3824330475453257,1.8978368442771936,-2.3766672029232945,2.7890758186013755,-2.3704238976399217,3.6707270442325575,-2.363708691782159,4.5418106250962165,-2.3565257388167513,5.401370690141297,-2.3488778832085515,6.248477950171508,-2.3407667634654397,7.082232276239924,-2.3321929201878637,7.901765291570759,-2.3231559087010334,8.706242968972392,-2.3136544158478016,9.49486822570554,-2.3036863805202494,10.266883507770606,-2.2932491175080156,11.021573355578107,-2.2823394442413902,11.758266942966257,-2.2709538100072053,12.476340581529563,-2.2590884272155454,13.175220182222498,-2.246739404295317,13.854383666202162,-2.233902879796691,14.513363316873967,-2.2205751572784576,15.151748065104249,-2.2067528405583174,15.769185699563831,-2.1924329689041357,16.365384994166472,-2.1776131517441937,16.940117744566255,-2.1622917024744566,17.493220705677736,-2.1464677709408955,18.02612608008528,-2.1301074644163855,18.540129994390867,-2.113171028341895,19.034933196048723,-2.0956499410022134,19.510261663500476,-2.077536279497525,19.965867682428723,-2.05882277625748,20.40153092201061,-2.0395028755552618,20.8170595111715,-2.019570790021662,21.212291114838543,-1.9990215571591468,21.58709401019426,-1.97785109585593,21.941368162930218,-1.9560562629000424,22.275046303500535,-1.933634909493403,22.588095003375614,-1.9105859377658885,22.88051575129561,-1.8869093572894045,23.152346029524164,-1.8626063415919556,26.299762026429985,-1.0893595454747338,25.808541403239374,-1.022278722432433,25.30673072807165,-0.9533025427997526,24.794616520580945,-0.8824268893499676,24.2725163868431,-0.8096529489404543,23.740776086038437,-0.7349874950322606,23.19976659713471,-0.6584431702096698,22.649881185569814,-0.5800387686997683,22.091532469934776,-0.49979951889201124,21.52514948865645,-0.417757365857786,20.95117476668046,-0.33395125386998314,20.370061382153995,-0.24842740892255932,19.782270033108677,-0.16123962125010305,19.188266104143377,-0.07244952784740422,18.588516733107063,0.017873105010985046,17.980556824472096,0.10984032106715569,17.362239219667178,0.20358706273979266,16.734478436450484,0.2990504782634895,16.098147922817315,0.39613993398135694,15.454077244643234,0.49473760777930886,14.80304936097173,0.5946991352184803,14.14579800884823,0.6958543104752781,13.483005219602727,0.7980078441985183,12.81529898848303,0.9009401803931443,12.143251119540793,1.00440837444,11.467375267672384,1.1081470343611493,10.78812519971675,1.2118693274401928,10.105893296512322,1.3152680543070945,9.421009317815075,1.418016792596977,8.73373945197988,1.5197711122923754,8.044285672307208,1.6201698648584175,7.352785421957319,1.7188365482804198,6.659311649333994,1.815380750113377,5.963873215839968,1.9093996706528236,5.2664156979061145,2.0004797283365434,4.566822605196532,2.088198249486613,3.864917036891576,2.1721252445012498,3.1604637979509906,2.25182527260596,2.4531719972592088,2.3268593972734397,1.7426981495549472,2.396787234421738,1.0286498030471607,2.461169095500143,0.310589714619513,2.5195682275722735,-0.41195940547461185,2.5715531525058513,-1.1395095575243595,2.6167001073786587,-1.8726015029789078,2.654595588210123,-2.6117981798680616,2.684838999128022,-3.3576774611238553,2.7070454090798215,-4.110824233901071,2.720848418198063,-4.871821777994559,2.725903135929334,-5.641242421451257,2.7218892730362807,-6.4196374514748245,2.7085143495821313,-7.2075262587207645,2.6855170210072288,-8.005384693079963,2.65267052440705,-8.8136326090485,2.609786247121164,-9.632620578781687,2.556717419742659,-10.462615750930189,2.4933629356574656,-11.303786833356138,2.4196712992230838,-12.156188177827136,2.335644704696194,-13.019742944786056,2.241343248018623,-13.89422532629453,2.136889273571139,-14.77924180524803,2.022471858004576,-15.67421142896045,1.8983514332577416,-16.578345075216014,1.7648645508716054,-17.490623688886547,1.622428789709243,-18.40977546721188,1.4715478091910157,-19.115230928142818,1.3788084596710553,-19.817620042533065,1.281931498980338,-20.51588936948109,1.1811772441228792,-21.208890154978413,1.0768321544581294,-21.895375291662777,0.9692096102983858,-22.573996278571354,0.8586506915062087,-23.243300180893893,0.7455249560918409,-23.90172658972595,0.6302312188106236,-24.547604581822046,0.5131983297604097,-25.17914967934885,0.3948859529789832,-25.79446080963839,0.2757853450414718,-26.391517264941218,0.15642013365776997,-26.968175662179593,0.03734709626994892,-27.522166902700686,-0.08084306135032548,-28.051093132029738,-0.1975249265043706" fill="white" stroke="white" stroke-width="0" stroke-linejoin="round" filter="url(#fuzzy)"></polyline></g><g transform="translate(-52.964909277332666 -27.95741009992719)"><polyline id="leftCountour" points="29.04873520601981,-2.0875827949734327,28.770086597395444,-2.1202232859277528,28.46494881559566,-2.151100283665332,28.134255397832348,-2.180276032985263,27.77891426977708,-2.2078114794832038,27.39980815819829,-2.2337662794614093,26.997795003598455,-2.258198809838763,26.573708372851318,-2.2811661780608103,26.128357871839068,-2.30272423200979,25.662529558089556,-2.3229275699146643,25.176986353413465,-2.341829550261155,24.672468456541527,-2.359482301701772,24.149693755761707,-2.3759367329658465,23.609358241556397,-2.391242542769564,23.052136419239638,-2.4054482297259945,22.478681721594295,-2.418601102255127,21.83999424702502,-2.432813322548396,21.180517989181904,-2.4459039479128593,20.500796326315122,-2.4579065480349644,19.801397622332995,-2.4688545526848737,19.082917236862187,-2.4787809568656636,18.345979209902225,-2.4877180513221404,17.5912376309584,-2.495697177744114,16.819377702537327,-2.502748507998966,16.03111650788932,-2.5089008467283493,15.227203492881852,-2.5141814566438576,14.408420671888145,-2.5186159058565027,13.575582567575335,-2.5222279365748377,12.729535894476133,-2.525039354506563,11.871158996228452,-2.5270699382984554,11.001361046366942,-2.528337368349455,10.121081022550872,-2.5288571743317476,9.231286464112364,-2.528642700754686,8.33297202280933,-2.527705089906382,7.427157816667185,-2.5260532815078065,6.51488759679366,-2.5236940284142446,5.597226737050782,-2.52063192769893,4.675260056468357,-2.5168694664537075,3.750089484283041,-2.5124070816415576,2.8228315774872814,-2.5072432333358217,1.8946149007722792,-2.5013744906809596,0.9665772787491878,-2.4947956299096923,0.03986293033276622,-2.4874997437513486,-0.8843805048283437,-2.47947836156627,-1.805005037990505,-2.4707215795411024,-2.720865491138911,-2.4612182002798133,-3.6308227351122007,-2.4509558811252763,-4.533746996143611,-2.4399212905462595,-5.428521220934513,-2.4281002719246505,-6.314044490376072,-2.415478014077764,-7.1892354720349125,-2.402039227850564,-8.053035901518511,-2.3877683281126396,-8.904414082836155,-2.372649620494775,-9.742368397871264,-2.3566674921999486,-10.565930815080876,-2.339806606223599,-11.374170387538081,-2.3220520983179975,-12.166196730433217,-2.303389776035566,-12.94116346814964,-2.283806319185973,-13.698271641029805,-2.2632894810418502,-14.436773061947571,-2.241828289627969,-15.155973612802416,-2.2194132484287086,-15.85523647105142,-2.1960365358486564,-16.53398525639482,-2.1716922027611845,-17.191707087730897,-2.1463763674798275,-17.827955540496035,-2.1200874074873144,-18.442353494505763,-2.0928261472570773,-19.036533571355868,-2.0645307306352705,-19.61205492915331,-2.035126537038299,-20.16850464008278,-2.004598100277541,-20.705498514815897,-1.9729312391456901,-21.222682426287992,-1.9401131465009709,-21.719733633474924,-1.906132478351354,-22.19636210516991,-1.8709794429387707,-22.65231184376036,-1.8346458898233282,-23.087362209004603,-1.7971253989675253,-23.501329241808854,-1.7584133698204667,-23.894066988003868,-1.7185071104020775,-24.265468822121882,-1.6774059263873204,-24.615468771173333,-1.635111210190408,-24.944042838423773,-1.59162653004902,-29.03558701330463,-0.6991233738125984,-28.552741349455367,-0.6154486116930438,-28.056311278856473,-0.530361724448428,-27.54644314219434,-0.4439270517406606,-27.023314346200596,-0.35621681718093123,-26.487131485584648,-0.26731095601609134,-25.938128464966415,-0.17729694281502395,-25.376564620808843,-0.08626961915502473,-24.802722843350686,0.00566897869182581,-24.216907698539007,0.09840979207228706,-23.619443549961876,0.19183691226557764,-23.010672680781024,0.2858277527970037,-22.39095341566443,0.3802532217515826,-21.76065824271898,0.4749778940876661,-21.12017193542309,0.5698601839505657,-20.46739993125312,0.6652195548852657,-19.800377502044153,0.7613151778539025,-19.119700770631848,0.85790001271813,-18.425975294830618,0.9547138625250944,-17.719813663905473,1.051484448021097,-17.00183309162328,1.147928509325094,-16.272653019906425,1.24375293347543,-15.532892747111672,1.3386559065631793,-14.783169094957227,1.4323280891654933,-14.024094128120808,1.5244538137923462,-13.25627294053172,1.614712303060085,-12.480301522379765,1.7027789073051394,-11.696764721863952,1.7883263603513222,-10.906234315703829,1.8710260521440847,-10.10926720243644,1.9505493169651351,-9.30640373252171,2.026568735940812,-8.498166189279246,2.098759452557577,-7.685057434679406,2.1668004998980552,-6.867559734011541,2.2303761383109992,-6.046133773452347,2.289177202228561,-5.221217884557199,2.342902454844275,-4.393227489697365,2.391259949365135,-3.562554782466045,2.433968395551165,-2.729568657076077,2.47075853025587,-1.8946149007722792,2.5013744906809596,-1.0580166632812755,2.5255751890587352,-0.2200752173217344,2.543135687475535,0.6189289758020808,2.5538485715496164,1.4587348815005368,2.557525321676905,2.299099174069743,2.5539976805579454,3.139794171710663,2.543119015719482,3.980605410373259,2.524765675744064,4.821328842402856,2.4988383389210536,5.661767645965741,2.465263353032413,6.5017286312311455,2.423994064986712,7.341018229286707,2.3750121390146917,8.179438049764446,2.3183288621398,9.016779993154453,2.2539864356371138,9.852820903783286,2.1820592511939894,10.687316749434263,2.1026551504858815,11.51999631358667,2.0159166668806816,12.350554386251039,1.9220222479850064,13.178644439377543,1.821187457745785,14.00387077281464,1.7136661568205898,14.825780116795091,1.5997516599300385,15.643852676926347,1.479777868905717,16.457492607662527,1.3541203801469819,17.26601790023498,1.2231975652000453,18.06864967101861,1.0874716231727266,18.864500836310974,0.947449603698272,19.523118038196017,0.8481226522894834,20.172773843924222,0.7464554333789031,20.81265767299325,0.6426976148641903,21.441904329963705,0.5371145076580985,22.059592395862044,0.4299874120909437,22.664742619583517,0.3216139643130709,23.256316309295084,0.2123084826973285,23.833213723838373,0.10240231424153245,24.394272464132584,-0.007755819029062305,24.938265864577435,-0.11779947365929067,25.46390138445609,-0.22734413836161282,25.96981899933809,-0.3359868876136409,26.45458959248229,-0.443306035255671,26.916713346239767,-0.5488607880882135,27.354618133456796,-0.6521908994695249" fill="white" stroke="white" stroke-width="0" stroke-linejoin="round" filter="url(#fuzzy)"></polyline></g><g transform="translate(48.29011985070629 -22.77094263992799)"><polyline id="rightUpper" points="-31.45457345383805,-1.2971308364172174,-31.549416398197717,-1.3666410155201143,-31.597926869804763,-1.4328586288016294,-31.601830918891146,-1.4958937846275235,-31.562810920027477,-1.5558542361804175,-31.48250614914019,-1.612845404893885,-31.36251336052873,-1.6669704038865507,-31.204387363882685,-1.718330061396185,-31.009641601298977,-1.7670229442137986,-30.77974872429902,-1.8131453811177407,-30.516141170845916,-1.8567914863077921,-30.220211742361574,-1.8980531828392626,-29.893314180743936,-1.9370202260570863,-29.536763745384082,-1.9737802270299163,-29.151837790183478,-2.0084186759842217,-28.739776340571066,-2.0410189657383833,-28.301782670520478,-2.0716624151367875,-27.83902387956719,-2.100428292483924,-27.352631469825695,-2.1273938389784814,-26.843701923006673,-2.1526342921474413,-26.31329727743415,-2.1762229092801753,-25.762445705062685,-2.1982309908625393,-25.192142088494517,-2.218727904010972,-24.60334859799674,-2.2377811059065884,-23.996995268518493,-2.2554561672292737,-23.373980576708096,-2.2718167955917843,-22.662925930974996,-2.288899534360241,-21.931401466122367,-2.304637434721879,-21.180357484651548,-2.319079765840805,-20.410748910190694,-2.3322755733517693,-19.62353685166966,-2.344273453713239,-18.819689912886783,-2.3551213458022673,-18.000185255503716,-2.364866339329209,-17.166009423504235,-2.3735544996502855,-16.31815893715309,-2.381230708556051,-15.457640664490963,-2.387938520613772,-14.585471978401468,-2.3937200346417553,-13.702680707286335,-2.39861577989365,-12.810304887384675,-2.4026646165307564,-11.909392324772506,-2.405903649960365,-11.000999975078393,-2.4083681586181545,-10.086193148951406,-2.41009153477268,-9.166044551317242,-2.4111052379299793,-8.241633162458752,-2.411438760416319,-7.31404296895665,-2.4111196047171224,-6.384361552526667,-2.410173272150088,-5.453678544789003,-2.40862326245055,-4.523083956006207,-2.4064910838470874,-3.593666385825463,-2.403796273205424,-2.6665111240613317,-2.400556425818641,-1.7426981495549472,-2.396787234421738,-0.8233000351457446,-2.392502537008555,0.09062023320831769,-2.3877143730291044,0.9980115151259548,-2.3824330475453257,1.8978368442771936,-2.3766672029232945,2.7890758186013755,-2.3704238976399217,3.6707270442325575,-2.363708691782159,4.5418106250962165,-2.3565257388167513,5.401370690141297,-2.3488778832085515,6.248477950171508,-2.3407667634654397,7.082232276239924,-2.3321929201878637,7.901765291570759,-2.3231559087010334,8.706242968972392,-2.3136544158478016,9.49486822570554,-2.3036863805202494,10.266883507770606,-2.2932491175080156,11.021573355578107,-2.2823394442413902,11.758266942966257,-2.2709538100072053,12.476340581529563,-2.2590884272155454,13.175220182222498,-2.246739404295317,13.854383666202162,-2.233902879796691,14.513363316873967,-2.2205751572784576,15.151748065104249,-2.2067528405583174,15.769185699563831,-2.1924329689041357,16.365384994166472,-2.1776131517441937,16.940117744566255,-2.1622917024744566,17.493220705677736,-2.1464677709408955,18.02612608008528,-2.1301074644163855,18.540129994390867,-2.113171028341895,19.034933196048723,-2.0956499410022134,19.510261663500476,-2.077536279497525,19.965867682428723,-2.05882277625748,20.40153092201061,-2.0395028755552618,20.8170595111715,-2.019570790021662,21.212291114838543,-1.9990215571591468,21.58709401019426,-1.97785109585593,21.941368162930218,-1.9560562629000424,22.275046303500535,-1.933634909493403,22.588095003375614,-1.9105859377658885,22.88051575129561,-1.8869093572894045,23.152346029524164,-1.8626063415919556,23.403660390101894,-1.837679284671717,23.634571531100104,-1.8121318575111027,23.845231372874302,-1.7859690645908386,24.03583213431788,-1.7591973004040307,24.20660740911567,-1.7318244059702375,24.357833241997557,-1.7038597253495387,24.48982920499211,-1.6753141621566068,24.602959473680166,-1.6462002360747778,24.69763390344843,-1.6165321393701213,24.774309105743114,-1.5863257934055097" fill="none" stroke="black" stroke-width="1.6666666666666665" stroke-linejoin="round" filter="url(#fuzzy)"></polyline><polyline id="rightLower" points="-31.33610483852366,-1.1174224938519393,-31.220210774519217,-1.0584134728828165,-31.047522730070888,-0.9895618600434242,-30.82189333144735,-0.9118829601604597,-30.547016046627185,-0.8263495851594458,-30.22642822554578,-0.7338928326621452,-29.863514140342087,-0.6354028645839778,-29.461508025605415,-0.5317296857314382,-29.0234971186223,-0.42368392239951014,-28.552424699623277,-0.3120376009690835,-28.051093132029738,-0.1975249265043706,-27.522166902700686,-0.08084306135032548,-26.968175662179593,0.03734709626994892,-26.391517264941218,0.15642013365776997,-25.79446080963839,0.2757853450414718,-25.17914967934885,0.3948859529789832,-24.547604581822046,0.5131983297604097,-23.90172658972595,0.6302312188106236,-23.243300180893893,0.7455249560918409,-22.573996278571354,0.8586506915062087,-21.895375291662777,0.9692096102983858,-21.208890154978413,1.0768321544581294,-20.51588936948109,1.1811772441228792,-19.817620042533065,1.281931498980338,-19.115230928142818,1.3788084596710553,-18.40977546721188,1.4715478091910157,-17.490623688886547,1.622428789709243,-16.578345075216014,1.7648645508716054,-15.67421142896045,1.8983514332577416,-14.77924180524803,2.022471858004576,-13.89422532629453,2.136889273571139,-13.019742944786056,2.241343248018623,-12.156188177827136,2.335644704696194,-11.303786833356138,2.4196712992230838,-10.462615750930189,2.4933629356574656,-9.632620578781687,2.556717419742659,-8.8136326090485,2.609786247121164,-8.005384693079963,2.65267052440705,-7.2075262587207645,2.6855170210072288,-6.4196374514748245,2.7085143495821313,-5.641242421451257,2.7218892730362807,-4.871821777994559,2.725903135929334,-4.110824233901071,2.720848418198063,-3.3576774611238553,2.7070454090798215,-2.6117981798680616,2.684838999128022,-1.8726015029789078,2.654595588210123,-1.1395095575243595,2.6167001073786587,-0.41195940547461185,2.5715531525058513,0.310589714619513,2.5195682275722735,1.0286498030471607,2.461169095500143,1.7426981495549472,2.396787234421738,2.4531719972592088,2.3268593972734397,3.1604637979509906,2.25182527260596,3.864917036891576,2.1721252445012498,4.566822605196532,2.088198249486613,5.2664156979061145,2.0004797283365434,5.963873215839968,1.9093996706528236,6.659311649333994,1.815380750113377,7.352785421957319,1.7188365482804198,8.044285672307208,1.6201698648584175,8.73373945197988,1.5197711122923754,9.421009317815075,1.418016792596977,10.105893296512322,1.3152680543070945,10.78812519971675,1.2118693274401928,11.467375267672384,1.1081470343611493,12.143251119540793,1.00440837444,12.81529898848303,0.9009401803931443,13.483005219602727,0.7980078441985183,14.14579800884823,0.6958543104752781,14.80304936097173,0.5946991352184803,15.454077244643234,0.49473760777930886,16.098147922817315,0.39613993398135694,16.734478436450484,0.2990504782634895,17.362239219667178,0.20358706273979266,17.980556824472096,0.10984032106715569,18.588516733107063,0.017873105010985046,19.188266104143377,-0.07244952784740422,19.782270033108677,-0.16123962125010305,20.370061382153995,-0.24842740892255932,20.95117476668046,-0.33395125386998314,21.52514948865645,-0.417757365857786,22.091532469934776,-0.49979951889201124,22.649881185569814,-0.5800387686997683,23.19976659713471,-0.6584431702096698,23.740776086038437,-0.7349874950322606,24.2725163868431,-0.8096529489404543,24.794616520580945,-0.8824268893499676,25.30673072807165,-0.9533025427997526,25.808541403239374,-1.022278722432433,26.299762026429985,-1.0893595454747338,26.78014009772819,-1.1545541507179213,27.249460070274697,-1.217876415998231,27.707546283583387,-1.2793446756773055,28.154265896858448,-1.338981438122626,28.58953182231155,-1.3968131031879474,29.013305658479016,-1.4528696796937335,29.425600623538937,-1.507184502907587,29.826484488628374,-1.5597939520246875,30.2160825111605,-1.6107371676482225,30.594580368141752,-1.6600557692698228" fill="none" stroke="black" stroke-width="2.2222222222222223" stroke-linejoin="round" filter="url(#fuzzy)"></polyline><!--[--><circle r="4.411600858220584" cx="1.312446894166948" cy="-0.17972812891623535" stroke="black" fill="none" stroke-width="1" filter="url(#fuzzy)" clip-path="url(#rightEyeClipPath)"></circle><circle r="3.7366647593675237" cx="0.31217398147422903" cy="-0.13944821287397913" stroke="black" fill="none" stroke-width="1" filter="url(#fuzzy)" clip-path="url(#rightEyeClipPath)"></circle><circle r="4.131563449079579" cx="1.7111617991238202" cy="-1.0795355177701338" stroke="black" fill="none" stroke-width="1" filter="url(#fuzzy)" clip-path="url(#rightEyeClipPath)"></circle><circle r="4.939079554339163" cx="0.798353763516471" cy="0.9833683484035345" stroke="black" fill="none" stroke-width="1" filter="url(#fuzzy)" clip-path="url(#rightEyeClipPath)"></circle><circle r="3.990993743181193" cx="2.6476093240834686" cy="-2.7465581184879784" stroke="black" fill="none" stroke-width="1" filter="url(#fuzzy)" clip-path="url(#rightEyeClipPath)"></circle><circle r="3.1866886856169474" cx="2.1026567693179565" cy="-2.180161198284015" stroke="black" fill="none" stroke-width="1" filter="url(#fuzzy)" clip-path="url(#rightEyeClipPath)"></circle><circle r="4.983151507482101" cx="4.173940693842706" cy="1.9034913477588793" stroke="black" fill="none" stroke-width="1" filter="url(#fuzzy)" clip-path="url(#rightEyeClipPath)"></circle><circle r="4.94042169976875" cx="2.432851161606398" cy="-0.685927615607234" stroke="black" fill="none" stroke-width="1" filter="url(#fuzzy)" clip-path="url(#rightEyeClipPath)"></circle><circle r="3.0847385998337136" cx="3.1145147777648674" cy="-0.13803731666066055" stroke="black" fill="none" stroke-width="1" filter="url(#fuzzy)" clip-path="url(#rightEyeClipPath)"></circle><circle r="4.114684067440242" cx="3.0588205316248693" cy="0.6762338825022458" stroke="black" fill="none" stroke-width="1" filter="url(#fuzzy)" clip-path="url(#rightEyeClipPath)"></circle><!--]--></g><g transform="translate(-52.964909277332666 -27.95741009992719)"><polyline id="leftUpper" points="30.153800229992566,-1.6495431323687497,30.197317474245477,-1.7035349298692342,30.203510758302468,-1.7550671497660653,30.173592429824556,-1.8042155739444505,30.10874509856048,-1.8510545859858412,30.010122048983877,-1.8956571810779645,29.87884765293047,-1.938094975924857,29.716017782235294,-1.9784382186568954,29.52270022136985,-2.016755798740829,29.299935080079326,-2.053115256889811,29.04873520601981,-2.0875827949734327,28.770086597395444,-2.1202232859277528,28.46494881559566,-2.151100283665332,28.134255397832348,-2.180276032985263,27.77891426977708,-2.2078114794832038,27.39980815819829,-2.2337662794614093,26.997795003598455,-2.258198809838763,26.573708372851318,-2.2811661780608103,26.128357871839068,-2.30272423200979,25.662529558089556,-2.3229275699146643,25.176986353413465,-2.341829550261155,24.672468456541527,-2.359482301701772,24.149693755761707,-2.3759367329658465,23.609358241556397,-2.391242542769564,23.052136419239638,-2.4054482297259945,22.478681721594295,-2.418601102255127,21.83999424702502,-2.432813322548396,21.180517989181904,-2.4459039479128593,20.500796326315122,-2.4579065480349644,19.801397622332995,-2.4688545526848737,19.082917236862187,-2.4787809568656636,18.345979209902225,-2.4877180513221404,17.5912376309584,-2.495697177744114,16.819377702537327,-2.502748507998966,16.03111650788932,-2.5089008467283493,15.227203492881852,-2.5141814566438576,14.408420671888145,-2.5186159058565027,13.575582567575335,-2.5222279365748377,12.729535894476133,-2.525039354506563,11.871158996228452,-2.5270699382984554,11.001361046366942,-2.528337368349455,10.121081022550872,-2.5288571743317476,9.231286464112364,-2.528642700754686,8.33297202280933,-2.527705089906382,7.427157816667185,-2.5260532815078065,6.51488759679366,-2.5236940284142446,5.597226737050782,-2.52063192769893,4.675260056468357,-2.5168694664537075,3.750089484283041,-2.5124070816415576,2.8228315774872814,-2.5072432333358217,1.8946149007722792,-2.5013744906809596,0.9665772787491878,-2.4947956299096923,0.03986293033276622,-2.4874997437513486,-0.8843805048283437,-2.47947836156627,-1.805005037990505,-2.4707215795411024,-2.720865491138911,-2.4612182002798133,-3.6308227351122007,-2.4509558811252763,-4.533746996143611,-2.4399212905462595,-5.428521220934513,-2.4281002719246505,-6.314044490376072,-2.415478014077764,-7.1892354720349125,-2.402039227850564,-8.053035901518511,-2.3877683281126396,-8.904414082836155,-2.372649620494775,-9.742368397871264,-2.3566674921999486,-10.565930815080876,-2.339806606223599,-11.374170387538081,-2.3220520983179975,-12.166196730433217,-2.303389776035566,-12.94116346814964,-2.283806319185973,-13.698271641029805,-2.2632894810418502,-14.436773061947571,-2.241828289627969,-15.155973612802416,-2.2194132484287086,-15.85523647105142,-2.1960365358486564,-16.53398525639482,-2.1716922027611845,-17.191707087730897,-2.1463763674798275,-17.827955540496035,-2.1200874074873144,-18.442353494505763,-2.0928261472570773,-19.036533571355868,-2.0645307306352705,-19.61205492915331,-2.035126537038299,-20.16850464008278,-2.004598100277541,-20.705498514815897,-1.9729312391456901,-21.222682426287992,-1.9401131465009709,-21.719733633474924,-1.906132478351354,-22.19636210516991,-1.8709794429387707,-22.65231184376036,-1.8346458898233282,-23.087362209004603,-1.7971253989675253,-23.501329241808854,-1.7584133698204667,-23.894066988003868,-1.7185071104020775,-24.265468822121882,-1.6774059263873204,-24.615468771173333,-1.635111210190408,-24.944042838423773,-1.59162653004902,-25.251210327170597,-1.5469577191085175,-25.537035164519892,-1.5011129645061572,-25.801627225163273,-1.454102896455308,-26.045143655154668,-1.405940677329665,-26.26779019568714,-1.356642090747465,-26.469822506869722,-1.3062256306557012,-26.651547491504218,-1.254712590414338,-26.813324618861994,-1.2021271518805272,-26.95556724846086,-1.1484964744928223,-27.07874395384181,-1.0938507843553933" fill="none" stroke="black" stroke-width="2.2222222222222223" stroke-linejoin="round" filter="url(#fuzzy)"></polyline><polyline id="leftLower" points="30.00083316479532,-1.4472797633259125,29.908643274404948,-1.3960370668143214,29.772182231816036,-1.3368211145668283,29.59383373206938,-1.270305739783531,29.37589307473028,-1.1971418581975808,29.120568772485562,-1.11795781447765,28.829984159740714,-1.033359728630403,28.506179001216875,-0.9439318424029655,28.15111110054797,-0.8502368656853925,27.76665790887773,-0.7528163229131382,27.354618133456796,-0.6521908994695249,26.916713346239767,-0.5488607880882135,26.45458959248229,-0.443306035255671,25.96981899933809,-0.3359868876136409,25.46390138445609,-0.22734413836161282,24.938265864577435,-0.11779947365929067,24.394272464132584,-0.007755819029062305,23.833213723838373,0.10240231424153245,23.256316309295084,0.2123084826973285,22.664742619583517,0.3216139643130709,22.059592395862044,0.4299874120909437,21.441904329963705,0.5371145076580985,20.81265767299325,0.6426976148641903,20.172773843924222,0.7464554333789031,19.523118038196017,0.8481226522894834,18.864500836310974,0.947449603698272,18.06864967101861,1.0874716231727266,17.26601790023498,1.2231975652000453,16.457492607662527,1.3541203801469819,15.643852676926347,1.479777868905717,14.825780116795091,1.5997516599300385,14.00387077281464,1.7136661568205898,13.178644439377543,1.821187457745785,12.350554386251039,1.9220222479850064,11.51999631358667,2.0159166668806816,10.687316749434263,2.1026551504858815,9.852820903783286,2.1820592511939894,9.016779993154453,2.2539864356371138,8.179438049764446,2.3183288621398,7.341018229286707,2.3750121390146917,6.5017286312311455,2.423994064986712,5.661767645965741,2.465263353032413,4.821328842402856,2.4988383389210536,3.980605410373259,2.524765675744064,3.139794171710663,2.543119015719482,2.299099174069743,2.5539976805579454,1.4587348815005368,2.557525321676905,0.6189289758020808,2.5538485715496164,-0.2200752173217344,2.543135687475535,-1.0580166632812755,2.5255751890587352,-1.8946149007722792,2.5013744906809596,-2.729568657076077,2.47075853025587,-3.562554782466045,2.433968395551165,-4.393227489697365,2.391259949365135,-5.221217884557199,2.342902454844275,-6.046133773452347,2.289177202228561,-6.867559734011541,2.2303761383109992,-7.685057434679406,2.1668004998980552,-8.498166189279246,2.098759452557577,-9.30640373252171,2.026568735940812,-10.10926720243644,1.9505493169651351,-10.906234315703829,1.8710260521440847,-11.696764721863952,1.7883263603513222,-12.480301522379765,1.7027789073051394,-13.25627294053172,1.614712303060085,-14.024094128120808,1.5244538137923462,-14.783169094957227,1.4323280891654933,-15.532892747111672,1.3386559065631793,-16.272653019906425,1.24375293347543,-17.00183309162328,1.147928509325094,-17.719813663905473,1.051484448021097,-18.425975294830618,0.9547138625250944,-19.119700770631848,0.85790001271813,-19.800377502044153,0.7613151778539025,-20.46739993125312,0.6652195548852657,-21.12017193542309,0.5698601839505657,-21.76065824271898,0.4749778940876661,-22.39095341566443,0.3802532217515826,-23.010672680781024,0.2858277527970037,-23.619443549961876,0.19183691226557764,-24.216907698539007,0.09840979207228706,-24.802722843350686,0.00566897869182581,-25.376564620808843,-0.08626961915502473,-25.938128464966415,-0.17729694281502395,-26.487131485584648,-0.26731095601609134,-27.023314346200596,-0.35621681718093123,-27.54644314219434,-0.4439270517406606,-28.056311278856473,-0.530361724448428,-28.552741349455367,-0.6154486116930438,-29.03558701330463,-0.6991233738125984,-29.5047348738304,-0.7813297274080908,-29.960106356638743,-0.8620196176570505,-30.401659587583016,-0.941153390627163,-30.829391270831223,-1.018699965589892,-31.243338566933392,-1.0946370073341063,-31.643580970888934,-1.168951098479702,-32.03024219021401,-1.2416379117912277,-32.40349202300888,-1.3127023824915078,-32.7635482360253,-1.382158880575267,-33.11067844273388,-1.4500313831227543" fill="none" stroke="black" stroke-width="2.2222222222222223" stroke-linejoin="round" filter="url(#fuzzy)"></polyline><!--[--><circle r="4.62527622736747" cx="16.074705877861756" cy="-1.9784487777877853" stroke="black" fill="none" stroke-width="1" filter="url(#fuzzy)" clip-path="url(#leftEyeClipPath)"></circle><circle r="3.8512527083400196" cx="16.498181622765692" cy="2.285553799804525" stroke="black" fill="none" stroke-width="1" filter="url(#fuzzy)" clip-path="url(#leftEyeClipPath)"></circle><circle r="3.525491489563838" cx="18.60021583435094" cy="-1.712970633425237" stroke="black" fill="none" stroke-width="1" filter="url(#fuzzy)" clip-path="url(#leftEyeClipPath)"></circle><circle r="4.139932306520878" cx="18.807153726019727" cy="-0.7672901593050683" stroke="black" fill="none" stroke-width="1" filter="url(#fuzzy)" clip-path="url(#leftEyeClipPath)"></circle><circle r="4.8227841845608665" cx="19.954815863549157" cy="-1.3191978255011976" stroke="black" fill="none" stroke-width="1" filter="url(#fuzzy)" clip-path="url(#leftEyeClipPath)"></circle><circle r="4.82013348006084" cx="16.125875429713773" cy="-0.8714494939821773" stroke="black" fill="none" stroke-width="1" filter="url(#fuzzy)" clip-path="url(#leftEyeClipPath)"></circle><circle r="4.667800115267449" cx="15.831988354817813" cy="-0.15346158155630985" stroke="black" fill="none" stroke-width="1" filter="url(#fuzzy)" clip-path="url(#leftEyeClipPath)"></circle><circle r="4.347712917969245" cx="17.77237395430582" cy="1.6184320733233744" stroke="black" fill="none" stroke-width="1" filter="url(#fuzzy)" clip-path="url(#leftEyeClipPath)"></circle><circle r="4.154634796298406" cx="17.76518582066181" cy="-1.620915286428333" stroke="black" fill="none" stroke-width="1" filter="url(#fuzzy)" clip-path="url(#leftEyeClipPath)"></circle><circle r="4.483279065027324" cx="18.586703665890433" cy="-0.9990673101258845" stroke="black" fill="none" stroke-width="1" filter="url(#fuzzy)" clip-path="url(#leftEyeClipPath)"></circle><!--]--></g><g id="hairs"><!--[--><polyline points="9,-82,9.640917040440955,-81.93262630945878,10.90779737010847,-81.69957232621341,12.238209151656287,-81.40523408958586,13.449480577339651,-81.12384493497181,14.493750829413548,-80.87785094161407,15.322317058283769,-80.67536547953033,15.863940982529412,-80.52265947913617,16.049799495025724,-80.42344692623817,15.830507278442383,-80.37871932983398,15.171861747572772,-80.38707905736203,14.043430544013624,-80.44485388266928,12.415862723426242,-80.54982721542811,10.269096080042459,-80.7088386890733,7.599041280855952,-80.94052384819338,4.399391109887265,-81.26652890488474,0.589082681025114,-81.70382407853944,-4.100029808667614,-82.27615045913589" fill="none" stroke="rgb(165, 42, 42)" stroke-width="2" stroke-linejoin="round" filter="url(#fuzzy)"></polyline><polyline points="42,-71,43.1221688208968,-70.17931929841065,44.51729689365845,-69.28523811080017,45.88424181591629,-68.31305319183399,47.147053345077104,-67.31987889498623,48.380670610941415,-66.3056022346953,49.65221559306848,-65.26642606916957,50.96833502080188,-64.21774788801433,52.28960421573486,-63.18865380987329,53.556907653808594,-62.214643478393555,54.70482947675927,-61.33526649699958,55.663647330614474,-60.59398450555645,56.36417374921026,-60.03837594918734,56.753595447763104,-59.719843677608466,56.806800976619215,-59.692964814880625,56.49899203076114,-60.01591436584013,55.74150155013649,-60.743426470182726,54.42714712523907,-61.86172158539361" fill="none" stroke="rgb(165, 42, 42)" stroke-width="2" stroke-linejoin="round" filter="url(#fuzzy)"></polyline><polyline points="14,-81,15.243336050652866,-80.75456082380569,16.649901218992962,-80.39919893062434,17.899932536884084,-80.09663417048534,18.915246638644305,-79.84296364484669,19.69326580150479,-79.62797964298426,20.250326009351774,-79.44241450876387,20.59706920682267,-79.27300947073647,20.720282418838355,-79.11149588162843,20.58005423346035,-78.96241595757631,20.123287364794525,-78.84096515434929,19.300370543479872,-78.76535904707707,18.072142396261043,-78.75069990526288,16.405858542159624,-78.8066928792417,14.268238070125138,-78.93840801215504,11.622685010297381,-79.14936344076465,8.42869668014465,-79.44616171177611,4.633435604926029,-79.8422819488495,0.1508937250748854,-80.35572265674875,-5.144742989119311,-80.98656550054102,-11.323923666316436,-81.6440843231044" fill="none" stroke="rgb(165, 42, 42)" stroke-width="2" stroke-linejoin="round" filter="url(#fuzzy)"></polyline><polyline points="14,-81,15.180835778542242,-80.74596725804318,16.380970483125203,-80.36662653505405,17.283968342064053,-80.01429126615668,17.827600049144923,-79.67625589778795,18.025691163857356,-79.33443134668279,17.90607910812175,-78.97218963982222,17.490022664622224,-78.57140070269477,16.779365502711197,-78.1199771371988,15.752537466612587,-77.61669492841082,14.371468638550539,-77.06826686445012,12.593357612918503,-76.48271931710659,10.379689782857895,-75.86354094743729,7.699886326416047,-75.20676813190184,4.531389323892935,-74.50213241640846,0.8578033513770258,-73.73843737435897,-3.3354963333425083,-72.91138183457305,-8.067752427673064,-72.0305292395341,-13.365364066054692,-71.1216791345402,-19.253174078036935,-70.21938012129036,-25.739891020910164,-69.34206570565749,-32.823827293753055,-68.44892020290999,-40.53335428736084,-67.40421072276155,-48.93277588637923,-65.99949950445681" fill="none" stroke="rgb(165, 42, 42)" stroke-width="2" stroke-linejoin="round" filter="url(#fuzzy)"></polyline><polyline points="-6,-83,-5.446024931316603,-82.94191864784757,-3.955130214975047,-82.77387333085095,-1.8508356821642664,-82.5051146987287,0.5724065628591746,-82.14602100283614,3.126143014746362,-81.70417500076776,5.737393834392996,-81.18170059451568,8.396866727857214,-80.57855874866956,11.097449024885586,-79.89917025848092,13.810051111326015,-79.15687072461174,16.498317619635063,-78.37272405193875,19.141804337501526,-77.56974875926971,21.741472061225625,-76.7670444495224,24.305857302916444,-75.97785929589027,26.834035461045712,-75.21184996224632,29.30872709027814,-74.47857754384947,31.696617629436066,-73.79018007925036,33.943228127319976,-73.16431645550972,35.96240113053719,-72.62702253173643,37.6468993343384,-72.20820929537948,38.920646920642994,-71.92959998987223,39.75767332030441,-71.82573186264668" fill="none" stroke="rgb(165, 42, 42)" stroke-width="2" stroke-linejoin="round" filter="url(#fuzzy)"></polyline><polyline points="37,-73,38.29238760034346,-72.4123309175952,38.577660648281835,-72.23782127513134,38.20060311728949,-72.17786834301917,37.38916099791842,-72.09215290032601,36.18203615021073,-71.96001948200836,34.49561466798761,-71.82320567609135,32.20391268563497,-71.74028231445887,29.19194956336665,-71.76157834803315,25.384299934892912,-71.91589510331849,20.750370870108434,-72.2065795494364,15.288750910633619,-72.62090760370137,9.005699964382188,-73.14929311814114,1.9039502189291149,-73.80055972527315,-6.034457379311146,-74.60018595195758,-14.935466920928366,-75.55737644626896,-25.248071900668954,-76.54887569847511" fill="none" stroke="rgb(165, 42, 42)" stroke-width="2" stroke-linejoin="round" filter="url(#fuzzy)"></polyline><polyline points="61,-56,61.05662248988033,-55.74130096399337,60.875446075027945,-55.323180910853054,60.35604520042434,-54.931435830951266,59.51188104053336,-54.546541545708536,58.2902199743987,-54.15720328192627,56.604719845203846,-53.78714330703441,54.38688923804939,-53.474735765781276,51.60108214345953,-53.26270070995583,48.233357605786544,-53.19349427929468,44.27543833733886,-53.30267085843698,39.71607196331024,-53.611478328704834,34.540617001649785,-54.121917006992646,28.732486512254575,-54.81647050562007,22.270953612258403,-55.66490514238811,15.127423753884141,-56.63849488802629,7.267933633480581,-57.72467139689187,-1.3356721093433919,-58.9289858458564,-10.695659074353035,-60.25996277785569,-20.8061705770866,-61.72037938416676,-31.616083816913452,-63.35251820560895,-42.89596054136617,-65.34469667111611" fill="none" stroke="rgb(165, 42, 42)" stroke-width="2" stroke-linejoin="round" filter="url(#fuzzy)"></polyline><polyline points="48,-66,49.02514414507255,-65.72187678534466,49.8054898799232,-65.18796687046532,50.2416539981288,-64.66081492078808,50.36503183926087,-64.22481521821211,50.14735443463561,-63.895622676893716,49.50547894186941,-63.69423628147263,48.35537788289477,-63.65839130503707,46.64964306214083,-63.82482695470997,44.37345425961184,-64.21900498041705,41.51571298663782,-64.85962185976084,38.04727453012038,-65.76491121252394,33.92214782782948,-66.95028333289369,29.09415218760076,-68.42038084871068,23.533000771525828,-70.16562212270466,17.22795165317038,-72.16914815478268,10.168217625901779,-74.42359219502968,2.2895836456594427,-76.95142947132564,-6.606108679827413,-79.8031205094559" fill="none" stroke="rgb(165, 42, 42)" stroke-width="2" stroke-linejoin="round" filter="url(#fuzzy)"></polyline><polyline points="-42,-76,-40.08245674233725,-76.35216594167058,-37.46482691904782,-76.62458260254866,-34.44241243452928,-76.49997596627976,-30.79433422278383,-76.0753175672627,-26.477125501342574,-75.44045776256779,-21.577992836656726,-74.62425564395281,-16.160786457236007,-73.63697360252158,-10.228265498866444,-72.49199118225141,-3.7736350562269543,-71.20175715437912,3.1698198354848124,-69.77136334144005,10.527181088846085,-68.2014754346897,18.216240921705435,-66.49622864527225,26.18811372278981,-64.66186975731542,34.45630287649591,-62.686555956554315,43.08633963462772,-60.53102761882362,52.06887836523429,-58.22120557165181" fill="none" stroke="rgb(165, 42, 42)" stroke-width="2" stroke-linejoin="round" filter="url(#fuzzy)"></polyline><polyline points="23,-79,25.67841617426566,-77.87119545063265,27.412008676440376,-77.25490305120938,29.04167673460433,-76.60765139885376,30.690136320408524,-75.89190434457798,32.33221895167617,-75.13560308700767,33.96501454576426,-74.34898395753395,35.59832951357694,-73.54170896460644,37.213623890299566,-72.74135614236832,38.74941079050496,-71.99363135601965,40.12170600891113,-71.34783792495728,41.26171341428613,-70.83723772231153,42.14148265949798,-70.46778072707212,42.76718298075202,-70.22524517349146,43.14623083514931,-70.09697878868596,43.25864725472684,-70.09046269424448,43.06114496411428,-70.23192669957483,42.52524242919293,-70.54442807097874,41.694705117200854,-71.01453412844089,40.75922028670789,-71.55075802086179" fill="none" stroke="rgb(165, 42, 42)" stroke-width="2" stroke-linejoin="round" filter="url(#fuzzy)"></polyline><polyline points="74,-35,73.78337800204082,-34.046530085176975,73.19791149547973,-33.79599125514443,72.27309865234244,-33.622844979975625,70.92174487957762,-33.62160473613163,69.02088732294717,-33.984493364794005,66.47740356172376,-34.79014416813669,63.23759978417256,-36.030268397268294,59.26801688243806,-37.694330223374955,54.538644790649414,-39.81092071533203,49.02234028349752,-42.431224477039606,42.70842119846639,-45.58921351942171,35.61721428901163,-49.277732771123524,27.7943280976964,-53.457965862999075,19.266414556129003,-58.09423522095316,9.968168394184552,-63.19091541360574,-0.2947830659952757,-68.80735681535943,-11.71794381060247,-75.03592211604462" fill="none" stroke="rgb(165, 42, 42)" stroke-width="2" stroke-linejoin="round" filter="url(#fuzzy)"></polyline><polyline points="65,-51,65.71731431218906,-49.46768924353166,65.90982256290008,-48.41306146348664,65.65356856035751,-47.62246550116612,64.98146238205202,-47.05108446026438,63.879218806839035,-46.676964312038514,62.329168033057414,-46.45158100947127,60.3226396256222,-46.32655503887343,57.85346090116738,-46.28376831875517,54.909689345694,-46.33518750312177,51.471372400292424,-46.50364249277098,47.51437071101218,-46.807230489296046,43.0155808031559,-47.25702029466629,37.95503493673701,-47.86234902408735,32.31493642520964,-48.63329044351558,26.07982353724088,-49.57604422717737,19.240519719888553,-50.686565322724476,11.798336848852465,-51.952207825481366,3.7633541852589154,-53.366020234633886,-4.852060853702525,-54.945812671095254,-14.034363407686712,-56.738651162939334,-23.767329397856617,-58.79192039917817,-34.070775767488854,-61.09403412809754,-45.102456339382016,-63.537399834572014" fill="none" stroke="rgb(165, 42, 42)" stroke-width="2" stroke-linejoin="round" filter="url(#fuzzy)"></polyline><polyline points="-37,-78,-37.21675406227517,-77.8890839057853,-36.08320177659557,-78.02733008821951,-34.328078022547736,-78.38907610861209,-32.42292318920121,-78.81347692015686,-30.461273769318606,-79.23535839145241,-28.396395829215514,-79.63967786250069,-26.202942222500116,-80.01847599683427,-23.909401604340164,-80.3636315855296,-21.567582167531164,-80.67333095116291,-19.220793033153946,-80.95429629057519,-16.894972002719417,-81.21654389302826,-14.608939202044976,-81.46664915966558,-12.389566008946042,-81.70576265657812,-10.279463680672407,-81.93303618099583,-8.331907172769723,-82.14968243066279,-6.595564720810677,-82.35838076484438,-5.097790625475905,-82.5575303842603,-3.838912463993478,-82.73583969171221,-2.8110028326754097,-82.87450592985132,-2.0493610611884954,-82.95910072110496,-1.696807610289804,-82.99338069775955,-1.9862572916348458,-82.99980845644313" fill="none" stroke="rgb(165, 42, 42)" stroke-width="2" stroke-linejoin="round" filter="url(#fuzzy)"></polyline><polyline points="-33,-79,-32.1818644977009,-79.68779777149578,-30.821246233512042,-80.14295880182534,-29.550012173694462,-80.47031592506296,-28.4750702606841,-80.68375956139568,-27.577949570645835,-80.81285438273271,-26.826102974546526,-80.87950779862511,-26.21729101426941,-80.88240584708606,-25.791928719133853,-80.80632588731389,-25.61427092910099,-80.6362524006947,-25.74021721957569,-80.3619792627398,-26.196978211402893,-79.97424781322479,-26.986698822893278,-79.46015061640242,-28.106731790320314,-78.80249069436863,-29.569090406987353,-77.98295206502995,-31.40513990322887,-76.98782558068498,-33.65381682890477,-75.8154098022371,-36.34565980331256,-74.48028729177994,-39.504201725630615,-73.00185432731689,-43.17796779321488,-71.36541434106994,-47.46931581464207,-69.46986506583679,-52.45470719417655,-67.11167464197742" fill="none" stroke="rgb(165, 42, 42)" stroke-width="2" stroke-linejoin="round" filter="url(#fuzzy)"></polyline><polyline points="-17,-83,-14.785587741160489,-82.98892978424709,-13.265346761555891,-82.95063197869497,-12.084509736265879,-82.87968624202604,-11.17940863002192,-82.76865822629419,-10.585550070558838,-82.60746302478788,-10.3378528585116,-82.38738169573168,-10.4322315108388,-82.10156036767768,-10.846680619633965,-81.74280847102793,-11.581405636978698,-81.30276952725794,-12.677947998046875,-80.77242136001587,-14.208084620510673,-80.14071878949326,-16.248702007124805,-79.3908764583191,-18.862560865853833,-78.49862712663986,-22.093928474721938,-77.43650347484039,-25.97597046249166,-76.18165671496786,-30.53916446404764,-74.7213331899273,-35.8022303991969,-73.06120952237308,-41.71276507542427,-71.26070731161326,-47.99998179827358,-69.49859173367705" fill="none" stroke="rgb(165, 42, 42)" stroke-width="2" stroke-linejoin="round" filter="url(#fuzzy)"></polyline><polyline points="-56.18658571681435,-84.27987857522153,-54.93606387362412,-84.7949604670418,-53.91028242689206,-84.94358758191079,-52.81542501240605,-85.07021646315457,-51.43208392409902,-85.08822932925725,-49.85097421569792,-84.95501257939098,-48.16994234140007,-84.66056307407362,-46.42312617965261,-84.24310311619159,-44.652556299083415,-83.8144722153855,-42.93311476482246,-83.51193055923956,-41.32133261716396,-83.40171061397452,-39.807409518780155,-83.42353652962382,-38.33039398253093,-83.4284444507585,-36.83710114901835,-83.28189369558224,-35.32167816971271,-82.95562359197328,-33.811166498114815,-82.54387623203753,-32.32325184759728,-82.19086433470797,-30.848354572370265,-81.97198433282412,-29.37461252073523,-81.81460815028932,-27.931417061664057,-81.5619602674059,-26.65741236580165,-81.20955970359121,-26,-81,-30,-80,-29.103020931124043,-80.91035115132817,-28.248906979808066,-81.94984563675973,-27.333309400797646,-82.85207527133724,-26.27123720716626,-83.50716403190134,-25.053007114785416,-84.01295028306687,-23.73788225519815,-84.46972231869856,-22.419814711631155,-84.90098561897638,-21.1790220441281,-85.28979066342731,-20.03813494104282,-85.64730433231487,-18.94531909740657,-86.04010519580423,-17.797733055849243,-86.54552463467024,-16.49943667682155,-87.16673117288859,-15.027346358462664,-87.79688960653522,-13.466135154406494,-88.32761074084755,-11.984485415269855,-88.87975237672904,-10.822754099631807,-89.82885902694399,-45,-74,-44.15079635772284,-76.56333406272128,-44.034862317234456,-78.28109776633721,-43.26927395722187,-78.98580863072384,-42.01000565692763,-79.27588969885609,-40.63299784054447,-79.56352322774111,-39.37816955277891,-80.08369461894993,-38.299519163518895,-80.91066182634745,-37.344202207927175,-81.9611691526063,-36.445401732089735,-83.07253543920795,-35.564777783278174,-84.13921328081102,-34.68941620301304,-85.21211664650986,-33.821354468831096,-86.47578197923183,-32.97668887783658,-88.09792279613134,-32.17260006636249,-90.0371912133096,-31.390424728108,-91.95151949463161,-30.621009165273925,-93.38390592138103,-30.344295529272515,-94.53415145657976" fill="none" stroke="rgb(165, 42, 42)" stroke-width="2" stroke-linejoin="round" filter="url(#fuzzy)"></polyline><polyline points="-61,-62,-63.45142306968125,-61.82740701924442,-65.282218315681,-61.7508743769984,-66.38178219680759,-60.97866610109315,-67.19893461421402,-59.99867721917999,-67.94411172627753,-59.103749866170865,-68.67227234861973,-58.29719099887461,-69.4190588093577,-57.459333042825,-70.23678126933677,-56.50728629185051,-71.18308086767833,-55.473822129209275,-72.29769422176408,-54.482836064632764,-73.56922085321237,-53.65362576577693,-74.90537866442466,-53.00846929834153,-76.1467536061034,-52.45405293430284,-77.15503191547899,-51.854859092184356,-77.94350507078143,-51.14452529744028,-78.73854905705424,-50.37685664090707,-79.84971830765208,-49.64822194051139,-81.35976690084537,-48.940138759403894,-82.91569177967708,-48.089352496874675,-84.1598339252516,-47.267851930620765,-66,-55,-65.95837140696932,-55.17153704257386,-66.36446247302855,-54.97456257269644,-67.4008471043478,-54.283342116346375,-68.84161378578585,-53.4237884829586,-70.40807231549256,-52.65123080864513,-71.8768219419061,-52.01351170398312,-73.13209885059022,-51.444451916675554,-74.18795104418653,-50.890751569432176,-75.15406363320635,-50.35733606618381,-76.14875099333155,-49.85686558452655,-77.21003617800075,-49.32976982466131,-78.26786171062398,-48.6295649712043,-79.21169609922238,-47.62672138663519,-80.06173070318542,-46.41349809417337,-81.25820956056575,-45.63817249292048" fill="none" stroke="rgb(165, 42, 42)" stroke-width="2" stroke-linejoin="round" filter="url(#fuzzy)"></polyline><polyline points="-71,-47,-71.21912761235384,-45.06866823344955,-71.2202064620909,-43.31325673158662,-71.39948152255539,-41.71865689177805,-71.61035973125546,-40.16322160164388,-71.70097874511886,-38.56211244691312,-71.62453411622323,-36.899710911889834,-71.4455182229138,-35.231830989999835,-71.29211019716818,-33.657554906964606,-71.27772764494485,-32.2638608047572,-71.43170802372927,-31.073051875813064,-71.67523230067083,-30.02648047643852,-71.85013154127691,-29.0128517836135,-71.77977859402566,-27.919857170032962,-71.3351325418024,-26.678629764328853,-70.49206002017401,-25.28387700923804,-69.37222366029846,-23.788922223544773,-68.23970721561119,-22.27582536501221,-67.40222656868795,-20.797825636695848,-67.00823548800203,-19.327170163006468,-66.87029322483514,-17.806993850107048,-66.41103390116083,-16.177046719513537" fill="none" stroke="rgb(165, 42, 42)" stroke-width="2" stroke-linejoin="round" filter="url(#fuzzy)"></polyline><polyline points="77,-21,80.49168589537045,-23.079237826788486,82.22558220030396,-24.190360011952517,83.229798044403,-25.35479437808673,83.88186801649455,-26.72990518307455,84.54851363638673,-28.30850583207017,85.37543506715673,-30.016248636438597,86.23332964416636,-31.749834614985456,86.9003938778529,-33.434618513651486,87.30997853718489,-35.069779979962966,87.63874525932037,-36.72304604545545,88.15987256129853,-38.47587155965661,88.99669225921987,-40.35915247106298,89.99622878493814,-42.32557614858739,90.83653562763274,-44.27690588951151,91.28322997316043,-46.12794347892431,91.38258119127218,-47.8679005003331,91.42219777368157,-49.579501421699156,91.66637855724939,-51.38691194397923,92.03335446446454,-53.32441350009597,92.0159840089143,-55.20959040534858" fill="none" stroke="rgb(165, 42, 42)" stroke-width="2" stroke-linejoin="round" filter="url(#fuzzy)"></polyline><polyline points="70,-44,69.32739937584435,-44.531133811954945,68.7734938214942,-45.02614393709688,68.18283353103693,-45.792201040543496,67.5745468102331,-46.751309125784786,66.96551082405722,-47.81393338483612,66.3525211040676,-48.930746852141,65.72487447958406,-50.066832150784414,65.06856370745597,-51.18549776497012,64.374812113136,-52.249786143950494,63.662741913762865,-53.22659925066516,62.99489780301068,-54.09098613725215,62.4487210344267,-54.84202440674913,62.04347775965179,-55.51830857673053,61.71548999102987,-56.13763048483665,61.53139797658686,-56.48784076539121,57,-59,58.847191989312044,-57.233684680759104,59.650339451804506,-55.95185232981171,60.205798224812256,-55.08960556338218,60.75374754919565,-54.43962073647575,61.29627795629785,-53.78144497285605,61.77140894194909,-52.9495214699966,62.13532785784532,-51.87895814348705,62.39498096388665,-50.604202054821684,62.6004381971121,-49.217053453460416,62.810681820458655,-47.81450574993531,63.061963385893435,-46.46546332020075,63.36156563186106,-45.20679449218822,63.70308908628913,-44.05676647971323,64.08015165122002,-43.02256200911802,64.48413243300793,-42.08867045397577,64.89728055208181,-41.1996587859443,65.3015047703016,-40.2703038787053,65.69603081443425,-39.23930087798311,66.0812688810722,-38.12673383475076,66.38885206567937,-37.01809388881206,66.48348791582116,-36.01188928773646" fill="none" stroke="rgb(165, 42, 42)" stroke-width="2" stroke-linejoin="round" filter="url(#fuzzy)"></polyline><polyline points="83.57764701015918,-62.05007126511818,82.0078789038563,-63.45889035313715,79.94526524421101,-63.86574570932571,77.73559705462878,-64.00883780926449,75.4943871855397,-63.91931620412353,73.41027604800907,-63.71705319977446,71.64677388542437,-63.63528561782823,70.20317612893967,-63.81711413087336,68.92385202111984,-64.23279846490065,67.60055587460236,-64.72924478615761,66.07381870751738,-65.13335544753883,64.29038202310582,-65.34957770819527,62.311357876629344,-65.40938173828137,60.27349990690139,-65.44257108012437,58.3126523043768,-65.57715522669879,56.483745242287,-65.83247238685566,54.73616760985696,-66.09989374817656,52.982796654754274,-66.25360949128097,51.21932075726443,-66.30987865440514,49.56999921084651,-66.46248206848269,48.175695872955316,-66.90442422666567,47.03218260765615,-67.58124263952506,46,-68,19.97024664334785,-65.73539520102001,20.55790051356368,-66.26880823674409,21.993338095922535,-66.78112648380603,23.57523513687989,-67.56037317286973,25.145951121124465,-68.34611395699329,26.67873995964117,-69.028318182427,28.211801415617717,-69.69321616328075,29.789944663327145,-70.39551759878688,31.419940750951927,-71.03729040440707,33.07656786815114,-71.4536554035839,34.72919485916658,-71.57811575924389,36.33780721713993,-71.51727767551573,37.81805098529362,-71.46639920295571,39.04044380331784,-71.53654366430742,39.93676933424359,-71.64305892182053,40.70716013431495,-71.55555750355954,42,-71,44.30050892604032,-52.65909551585925,44.63289909960173,-53.85805179334024,44.45539687365481,-55.16864735699026,44.03815902201956,-56.41650501584837,43.66814051581336,-57.8131383490276,43.47632437743875,-59.4311844137501,43.41596523199722,-61.152328357261,43.340670884155664,-62.80230441238729,43.10864318417939,-64.28430929269089,42.65915210120011,-65.61811822106304,42.02364784396729,-66.87090735986054,41.26605001317744,-68.0253347660291,40.402895903906625,-68.87914120443696,39.39842745247514,-69.10609399156418,38.31570516577538,-68.62172543121335,37.656076766762666,-68.40561626592424,39,-72,32,-76,31.22086132653748,-76.20692382756009,30.411406721705323,-77.19299362395809,29.507597667135194,-78.6416417640198,28.457549668015993,-79.9019817342001,27.28414573187828,-80.8667202092432,26.12894143116751,-81.90457918843697,25.142040901339193,-83.42191225358418,24.367924697221735,-85.54903219495415,23.71861818298929,-88.08326421702972,23.029676131119594,-90.62653784105363,22.14823379674856,-92.80162896898122,21.002488344049716,-94.42842039541344,19.626039467435344,-95.57326625872426,18.137268712029154,-96.48010223383255,16.68135035072377,-97.5248023741632,15.314769934962204,-99.32291974009982,13.767778152506937,-102.6325280459608" fill="none" stroke="rgb(165, 42, 42)" stroke-width="2" stroke-linejoin="round" filter="url(#fuzzy)"></polyline><polyline points="21,-79,21.259415346950632,-80.71168443343917,20.142576425941066,-80.87353808349391,18.807784198652815,-81.11917664528724,17.470906963218347,-81.72516074175722,16.144913400046455,-82.4919269218853,14.816023583026894,-83.19499982476579,13.483691991674233,-83.72567396215904,12.166039174903963,-84.08494427311597,10.885847418391137,-84.3436132766053,9.648506689235328,-84.59801143563651,8.430700242759048,-84.92002291709437,7.191583855978647,-85.31645540752248,5.8991812123185925,-85.72721045566794,4.549072082395911,-86.07281457636404,3.1549701811494106,-86.32086256231024,1.7148594302159585,-86.5172604318814,0.1873108186871569,-86.75246625558582,-1.479929282095558,-87.09246513738815,-3.267983495550648,-87.53947752652492,-5.015379607617302,-88.04562330929349,-6.402116474797383,-88.56261123469713,-22.51273307777718,-109.91510855620623,-19.363538967899878,-108.72180985163905,-16.742400130268862,-105.90081392716453,-14.490887580103701,-103.76106169821712,-12.49834954313668,-102.56871731305992,-10.70541874720016,-102.02197154233059,-9.068255946019738,-101.62289232274446,-7.507292173578533,-100.75224488165813,-5.918862767934863,-98.95761382859152,-4.234319150855439,-96.29646122623893,-2.4642808826698532,-93.38328148049341,-0.687453267328468,-91.04541037557541,1.0090565017982915,-89.82701752501798,2.5959016278514224,-89.68532522932261,4.120739886581689,-90.03387378958305,5.640221975454673,-89.98603655363853,7.081942865140735,-88.56285785603689,8.198830556816322,-85.1410998870815,9,-82" fill="none" stroke="rgb(165, 42, 42)" stroke-width="2" stroke-linejoin="round" filter="url(#fuzzy)"></polyline><polyline points="44.775188792751706,-97.45188149010666,42.257988182712,-97.92657989741568,40.61187352223146,-98.48446111027206,39.12556957814114,-99.18385279868703,37.250311141335025,-98.95880824588878,34.94502793346446,-97.55410892679954,32.446365127042796,-95.45945687466657,30.031107070268988,-93.36112612769146,27.878928763935836,-91.75193333999175,26.03452467365868,-90.81213462767121,24.434314884538033,-90.45658288982962,22.96001621298568,-90.44031203993578,21.492888145631255,-90.47149517596974,19.953161111370235,-90.30730142565274,18.315703683511995,-89.80920242010997,16.60177996545769,-88.95037212331505,14.859601265697258,-87.80280101607467,13.152411868438966,-86.53970018800356,11.558844997258364,-85.4370250433121,10.162412721248288,-84.79994426882206,8.998844322081206,-84.78694403495683,7.972422379957027,-85.24158135168597,6.808053691875543,-85.50378357535426,5,-83" fill="none" stroke="rgb(165, 42, 42)" stroke-width="2" stroke-linejoin="round" filter="url(#fuzzy)"></polyline><!--]--></g><g id="lineNose"><path d="M -11.907881353137412 23.479341105444227, Q10.544571333594366 34.417586392817434,-0.6816550097715233 -5.052572039556387" fill="none" stroke="black" stroke-width="3" stroke-linejoin="round" filter="url(#fuzzy)"></path></g><g id="mouth"><polyline points="21.531421734781844,49.57449052858501,21.271171738391033,50.597476667099336,21.481708575718628,49.837423060568774,21.210494589128135,51.132819803797126,21.08985840574994,51.374135343522084,20.935372939693707,51.905788463641336,20.898214564422393,51.96341512939221,20.461017653595047,52.330115611682224,20.285337224017184,52.60989457799249,20.009537956638585,53.103691670896346,20.046016878386183,52.983173073272205,19.501684390534223,53.557400875507774,18.932476578341216,54.06460280506182,18.71029323776108,54.238861887509884,18.773196877858755,54.160152787839735,17.857235254755295,54.95823444420756,18.389782596076888,54.665084567861484,16.88766802061264,55.64277736351906,17.1712689850469,55.4029311639581,17.347385724596872,55.23965818028572,15.394904654172183,56.3177502676504,14.951320162508356,56.565331419475754,15.512430749953989,56.346686039254934,15.595193650155668,56.293395440946014,14.058708199633465,56.952997355851025,13.345361489320155,57.165500778412735,12.298591439275194,57.490123360932,13.407967403628941,57.183952172225716,10.787814424112803,57.94329456495946,10.228503568195528,58.06791238888849,10.733261622468058,57.93188329719217,8.972542082723294,58.31824337815304,8.153322392606375,58.454796915811755,9.164385287506011,58.31618537494246,6.887452557038275,58.64493572263067,6.770497087064374,58.663073393243124,6.305114986250709,58.72031392455949,4.90824525229608,58.87213122752226,5.048497185902803,58.858585448318685,5.4057338508107335,58.826368594485835,3.445931650662615,58.97908626358357,2.7273845434990305,59.01360380586461,2.7717546719909096,59.006178553876495,0.9730031479533037,59.05590110725146,0.14922966192834863,59.030550498679844,-1.5548456140183133,58.982500466858205,-2.1519691478632033,58.944274675670584,-1.1473981110815605,58.99427659244441,-2.1408394237635324,58.94938833714585,-2.3096706411410803,58.93546630484841,-4.481413122412807,58.74781814547504,-5.968847933830438,58.56491241277972,-4.741681051008734,58.718654485865414,-7.00410217204744,58.40858072889861,-6.574375766843264,58.47212528644052,-8.988540955083316,58.04809143619937,-7.911102270348097,58.25691853655623,-8.438807134919736,58.15482147516997,-9.290323132036871,57.974706019045485,-9.605412363557564,57.92470742898484,-10.394022101919319,57.7437881237592,-11.857211024415644,57.35873065154296,-13.048386320243576,57.05336774549319,-12.457031163148214,57.19947584845612,-13.91775593035537,56.741534361750396,-14.44020106656958,56.61973507358677,-15.363148604237757,56.25940260269002,-17.425441539927796,55.474303354531,-16.252554800868346,55.93533190423885,-17.964563508055775,55.2283624237469,-18.41056340513238,55.02128386000391,-19.192105727245774,54.58696610315438,-18.52445003087795,54.991513334041976,-19.043937085029548,54.6733595072759,-21.121461360151926,53.49173529493724,-21.78054853407497,53.15222281377077,-20.588546348875315,53.88353255291931,-21.095494997226968,53.589663757061004,-21.858494419099262,53.1004195095907,-23.064706926743593,52.185620671396286,-22.76564688181749,52.40430343475662,-23.576352452510168,51.75474881258807,-24.27955218112188,51.0634288317778,-24.89564644242388,50.45892508083857,-25.13603817667254,50.128992562201134,-25.435291481163834,49.791113768245474,-25.669655097016367,49.558210617514746,-26.18972437451774,48.94668987168794,-25.68449896519199,49.62900699520191,-26.230578349674822,48.87432847566939,-26.154020350737497,48.778689294446835,-26.813568605160896,47.44390803434943,-26.883160747039902,47.725183135806176,-27.03170264272313,46.730110780505385,-27.010532214893985,47.129815537987035,-26.97271789489056,47.03235979034954,-27.118944180474152,46.604014242524244,-27.374615215368394,46.071579308499594,-27.334330261260455,45.9329838337948,-27.43931229326528,45.083010761188625,-27.23832277466081,44.42140651433929,-27.354828744415112,44.11987886243651,-27.092856776330024,43.546665536404234,-27.37654653780493,44.23802656958501,-26.8392101971256,43.07162840602568,-26.59481868637284,42.380856190472926,-26.816308883992686,42.7284487150298,-26.496415708735388,42.199057452443604,-26.217203740358926,41.60883146556272,-25.930364891600245,41.42956228776229,-25.2224718129097,40.67094424234916,-25.12246291741109,40.51129614641647,-25.3807562065775,40.69008166204294,-24.701145073648796,40.097560100896565,-25.159802902226065,40.43031496396277,-24.81665322037013,40.21401604002085,-23.914401790294065,39.41021107729473,-23.363814368389644,39.16491782177968,-22.89527769263861,38.852970682441345,-22.934438417053205,38.84891485185823,-21.82884390818073,38.24840287875209,-20.986929140545413,37.82511685065861,-20.27426975436988,37.488169753260486,-20.22296334446209,37.5196625178199,-19.23100470016495,37.1918457796927,-18.50944841354223,36.9424921498219,-19.02877235815984,37.05545141733214,-19.033793460097982,37.09313132685312,-18.627573162925337,36.9406347295587,-16.726374938646618,36.40709032782478,-17.12970353970359,36.51326484237704,-16.269212815144755,36.29706953892071,-15.8107928500797,36.146555726166476,-14.067188497677625,35.82934235881968,-13.260497893833934,35.69730651085179,-13.79681067401459,35.82143672514628,-12.471097595280616,35.642627994505844,-12.347016381132498,35.57903253282182,-11.86980527050128,35.54298256633405,-9.000730614911184,35.32619907357497,-8.895883981383875,35.32179863848504,-9.609377081651536,35.35406724886818,-6.933240758628148,35.27283839587175,-6.5387140026593595,35.2774923562157,-6.976190130482583,35.28253100500484,-4.270050967296032,35.343843946417124,-6.007994741298407,35.27592243973924,-5.341681021310798,35.301378971290156,-3.531517096568864,35.38606725117036,-3.6074270070549432,35.38275793852297,-0.8596776647053961,35.62614518746847,-0.7059885299751736,35.64460904372618,1.1628160927969269,35.89889438643198,0.11185030582120437,35.744513132713905,2.1737661439883,36.07286278126515,1.489234962699605,35.945658200452186,4.175040680676023,36.46630311947008,2.497967099313196,36.12069448332011,5.417799262558805,36.76722507854367,4.166069269904796,36.46633087418629,5.214189450653095,36.71688562044281,5.592759658225605,36.818528344519166,6.049737497036817,36.91689646059691,7.602474365619521,37.373593673746235,7.920442563389482,37.47759319244292,8.208303198237726,37.52352215690388,9.564050368681283,38.0308509959538,11.282258593960556,38.691160402206776,12.271942680650955,39.074149056127276,12.400930687122527,39.119804820382676,13.031486193340388,39.41169286362951,13.334947903957175,39.60785053411383,13.627530542303603,39.785938830151366,14.337688663023872,40.12611774017512,14.827399120760912,40.44248024862133,15.224035010494504,40.64508935740674,16.06912855039599,41.192173018927846,17.25381005461585,41.91056988841034,17.32340516834202,42.11993519140364,17.095447993430923,41.905033630004965,16.868102078007606,41.72508894420807,17.501875227541838,42.18502888452666,18.59858469004745,43.07324057828564,19.13885068030709,43.646387664381685,18.737967031424414,43.34740208980557,19.51555809431423,44.10580731963683,20.092461774456332,44.88927284519039,19.890779767046634,44.62980620148004,20.043163207469604,44.71567527941197,20.747513612057816,45.844815416914486,20.506813586614197,45.34487442807058,20.6361149517579,45.73635219667233,20.809951050680045,45.96986614254448,21.22833884148517,47.16885252620796,21.10608682929633,46.721124352353755,21.185001493440122,47.07371550223843,21.523293734316145,48.77095397592722,21.67849511740495,48.59038198405617,21.693534942493525,48.65426073798107,21.528802063798306,49.886454987668074" fill="rgb(215,127,140)" stroke="black" stroke-width="3" stroke-linejoin="round" filter="url(#fuzzy)"></polyline></g></svg>