<svg viewBox="-100 -100 200 200" xmlns="http://www.w3.org/2000/svg" width="400" height="400" id="face-svg"><defs><clipPath id="leftEyeClipPath"><polyline points="32.49621232041499,-0.7712463769228743,32.14465929351748,-0.8529955658299921,31.763613690514944,-0.9363800749846947,31.352600923527874,-1.0211126448284564,30.911265472583402,-1.1069154754828165,30.43936700621672,-1.1935201129124544,29.93677650207247,-1.280667335088264,29.40347236750614,-1.3681070381504354,28.839536560185465,-1.455598122571526,28.24515070869183,-1.54290837931954,27.620592233121705,-1.6298143760210042,26.966230465687964,-1.7161013431240448,26.282522771321375,-1.801563060061465,25.57001066827194,-1.8860017414138195,24.829315948710317,-1.9692279230724923,24.061136799329233,-2.051060348402773,23.362144850747725,-2.1585388596176727,22.608989695889314,-2.263921337331765,21.80283689897326,-2.3668186840535332,20.945247793016122,-2.4668622796379185,20.03813868454558,-2.5637045806621384,19.083741792428526,-2.6570196364576235,18.084567888238546,-2.7465035239727236,17.043370605587736,-2.831874703640787,15.963112385848087,-2.912874298428263,14.846932027687474,-2.9892662982374487,13.698113807845214,-3.0608376918385116,12.520058140572507,-3.12739852850541,11.316253743162598,-3.188781911530356,10.090251274995943,-3.2448439257914377,8.845638417525302,-3.2954635015480314,7.58601636262595,-3.340542216638645,6.3149776767360475,-3.3800040392558017,5.03608550821227,-3.4137950134726163,3.752854105325714,-3.4418828896956732,2.468730612323292,-3.464256702218857,1.1870781109795407,-3.480926296052737,-0.08884012493595161,-3.4919218052041705,-1.3558751948504506,-3.4972930845807157,-2.6110059888142834,-3.4971090976945156,-3.851351489736201,-3.491457262340277,-5.074181993002805,-3.480442756421943,-6.276929276057064,-3.46418778610274,-7.457195750510673,-3.442830818453185,-8.612762629365356,-3.416525780771707,-9.741597141917822,-3.3854412287524953,-10.841858828923531,-3.3497594856752313,-11.911904950593945,-3.3096757547912916,-12.950295040002388,-3.265397207081101,-13.955794634473277,-3.2171420465572127,-14.927378217529766,-3.165138555287806,-15.86423140397462,-3.1096241203151576,-16.76575240067927,-3.050844244643787,-17.631552775656033,-2.9890515444728694,-18.461457567988333,-2.92450473484753,-19.255504771193777,-2.857467605903701,-20.013944222595292,-2.788207991881111,-20.737235931274768,-2.7169967350790802,-21.4260478771847,-2.6441066469297394,-22.081253313992164,-2.569811468363285,-22.703927608230543,-2.4943848316399246,-23.295344647333536,-2.4180992258231266,-23.856972849126656,-2.341224968068807,-24.39047080535095,-2.264029182905089,-24.897682591793895,-2.186774791677255,-25.380632777602564,-2.10971951433253,-25.839326645911697,-2.032614334570338,-26.27278809554359,-1.9551337777351843,-26.68172649186573,-1.8774134685356003,-27.066880554782742,-1.79958491224339,-27.42901399602401,-1.7217752034485958,-27.768911156431606,-1.644106734814471,-28.087372643248045,-1.566696905832457,-28.385210967404163,-1.4896578315771483,-28.66324618080683,-1.4130960514612707,-28.92230151362689,-1.337112237990647,-29.163199011586862,-1.2618009055191737,-29.386755173248815,-1.1872501190037912,-29.59377658730218,-1.1135412027594547,-29.785055569851522,-1.0407484492141073,-22.801282690694393,1.228970942289708,-22.324163646238425,1.2717963066750992,-21.83540912268709,1.315861864173335,-21.33503842380118,1.3611727941229095,-20.823092295030484,1.4077309384201184,-20.299632210660846,1.4555346004275047,-19.764739660961247,1.5045783438823084,-19.2185154393309,1.554852791804909,-18.66107892944631,1.6063444254072774,-18.092567392408355,1.659035383001421,-17.513135253889352,1.7129032589078292,-16.92295339128016,1.7679209023639237,-16.322208420837235,1.8240562164325023,-15.711101984829716,1.8812719569101883,-15.08985003868649,1.9395255312358772,-14.456811357458777,1.9988813578300255,-13.810333132974987,2.0594217475453327,-13.150651801722722,2.1211126708323595,-12.478039488275899,2.183901505987858,-11.792802653071645,2.2477174000574696,-11.095280687422088,2.312471664912426,-10.385844461083561,2.3780582100017353,-9.664894827705929,2.4443540132813393,-8.932861093484583,2.5112196318217204,-8.190199454337844,2.5784997535954446,-7.437391406932342,2.6460237919461296,-6.6749421388790235,2.713606524240311,-5.9033789034224196,2.781048776203696,-5.123249383945817,2.8481381534432897,-4.335120053614986,2.9146498216568757,-3.539574535483019,2.980347337031335,-2.737211968379036,3.044983528331281,-1.928645383903298,3.108301432179509,-1.1145000998514085,3.170035283030725,-0.2954121353902064,3.229911559340052,0.5279733466919705,3.2876500874277914,1.355003565338066,3.342965204541924,2.185019608855444,3.395566982619832,3.017357879506808,3.445162514250727,3.851351489736201,3.491457262340277,4.686331604707515,3.534156474978894,5.521628725832815,3.5729666670151854,6.356573909967901,3.6075971698360503,7.190499918952419,3.637761750854896,8.022742294171925,3.6631803042094573,8.852640350819243,3.68358061417072,9.679538086532498,3.6987001927644143,10.502784999087176,3.708288193106557,11.32173680781959,3.7121073999545553,12.135756073459094,3.709936298975319,12.944212711046443,3.7015712262318985,13.746484390615622,3.686828599390097,14.541956820316566,3.6655472321465834,15.330023906656043,3.6375907333799393,16.11008778653421,3.602849992526176,16.88155872575404,3.56124575268016,17.643854878681104,3.5127312729244577,18.396401903731025,3.4572950813870733,19.138632429361998,3.3949638205295716,19.86998536524966,3.325805186167049,20.58990505332185,3.249930961721464,21.29784025333035,3.16750014920979,21.9932429576373,3.078722198468484,22.675567029893344,2.9838603361157463,23.344266662285115,2.883234995753069,23.938825703169094,2.820995433797786,24.523246784404115,2.7558628856559917,25.09702059054449,2.6879989648078446,25.659619161002468,2.6175823580490816,26.210495505149268,2.54480934175424,26.749083217416057,2.4698942981398764,27.274796092395036,2.39307023152779,27.787027739940413,2.31458928460824,28.285151200269482,2.2347232547031672,28.768518559063587,2.153764110029416,29.23646056256922,2.0720245059619535,29.688286232698985,1.9898383012970913,30.12328248213268,1.9075610745157041,30.54071372941825,1.8255706400464526,30.93982151407289,1.7442675645290042"></polyline></clipPath><clipPath id="rightEyeClipPath"><polyline points="-32.530037091189094,-1.0125829703171603,-32.193447045353075,-1.1136659264195687,-31.82758724487748,-1.216764520746612,-31.43175804796879,-1.3215143222281758,-31.005395152690472,-1.4275632683556214,-30.54806529276127,-1.534571507032136,-30.059461933353358,-1.6422112384230814,-29.539400966890586,-1.7501665568063474,-28.98781640884671,-1.8581332924226985,-28.404756093543607,-1.9658188533261254,-27.79037736994947,-2.0729420672341963,-27.14494279747704,-2.1792330233784063,-26.468815841781865,-2.2844329143545274,-25.762456570560442,-2.3882938779729592,-25.026417349348495,-2.490578839109079,-24.26133853731919,-2.591061351553592,-23.58572549438617,-2.724039277862054,-22.85210567020305,-2.8542440391167863,-22.06156728411359,-2.981190993025925,-21.215635589007004,-3.1044226116464286,-20.316228489520995,-3.2235090808333626,-19.365614041701107,-3.3380488018266266,-18.36636979874786,-3.4476687975744595,-17.32134396748305,-3.5520250263930646,-16.233618340166633,-3.6508026055616596,-15.106472966295792,-3.743715947452292,-13.943352529017394,-3.8305088107937544,-12.747834390785487,-3.9109542696689075,-11.52359827289518,-3.9848546028447696,-10.274397533524372,-4.052041106034672,-9.004032008914749,-4.112373829691817,-7.7163223823235345,-4.165741244933585,-6.415086045377409,-4.212059840195895,-5.104114416460064,-4.251273651216945,-3.7871516807647727,-4.2833537269497,-2.4678749166435234,-4.308297534002406,-1.1498755728840582,-4.326128302206477,0.1633577384536813,-4.33689431391111,1.4684551690102676,-4.340668139603904,2.7621803162772296,-4.337545822456864,4.0414436962938005,-4.327646014397079,5.3033150422584185,-4.311109066301425,6.545034464423743,-4.288096074914618,7.764022506643501,-4.25878788908992,8.957889134939936,-4.2233840779518825,10.124441693460232,-4.182101863580398,11.261691863190649,-4.135175020815405,12.367861658796754,-4.0828527467816045,13.441388498958435,-4.025398502732479,14.480929385568176,-3.9630888308129415,15.485364227161236,-3.8962121483400005,16.453798341946115,-3.825067522200674,17.385564175804124,-3.7499634259665693,18.280222270626368,-3.6712164823244096,19.13756151835685,-3.5891501934218453,19.957598736110192,-3.504093661727883,20.74057759773255,-3.4163803040072547,21.48696695717426,-3.3263465610080583,22.197458599042804,-3.2343306054620062,22.872964451704625,-3.140671050996589,23.51461329830437,-3.0457056645585054,24.123747021070045,-2.9497700849476685,24.70191641427284,-2.853196550061138,25.250876601209846,-2.7563126354462817,25.772582090578567,-2.6594400067625084,26.26918150761159,-2.5628931887509085,26.740618418415412,-2.4663647715329837,27.1857942347755,-2.3694554604196707,27.605463181625808,-2.2723321366704727,28.000411097829197,-2.1751564279431217,28.371450699317126,-2.0780843601692505,28.719416842229347,-1.9812660094300556,29.04516178605366,-1.8848451538319693,29.349550456765616,-1.7889589253823246,29.633455709968192,-1.6937374618650258,29.897753594031553,-1.5993035587162132,30.143318613232733,-1.5057723208999323,30.371018990895383,-1.4132508147838028,30.581711932529434,-1.3218377200146825,30.77623888897087,-1.2316229813943402,24.161251010265804,1.4787387440801694,23.699390735519827,1.5277453397828653,23.224389522073896,1.5783904511746347,22.736125831134284,1.6306961320412838,22.23449574235326,1.6846808904256994,21.719413245104192,1.7403593326609927,21.190810529756746,1.797741807403642,20.64863827895198,1.8568340496666358,20.092865958877564,1.9176368248526148,19.52348211054286,1.9801455727870194,18.940494641054126,2.0443500517512265,18.343931114889653,2.1102339825156964,17.733839045174914,2.1777746923731165,17.11028618495769,2.2469427591715414,16.473360818483272,2.3177016553475394,15.821813257365418,2.3900821022230234,15.15420623960628,2.464156046324444,14.470417307548013,2.5399232055622063,13.770397046701829,2.6173568056509753,13.05416854973478,2.696403920512047,12.321826761325436,2.7769858623418835,11.573537701713452,2.8589986240047,10.809537566768206,2.942313376406991,10.03013170240165,3.026777023511873,9.235693451150551,3.112212817651144,8.426662868753201,3.1984210377929347,7.603545308545829,3.285179733422835,6.766909871503783,3.3722455366963944,5.917387719752643,3.4593545455208696,5.0556702513744884,3.546223280224116,4.182507134334326,3.6325497164684957,3.29870419735195,3.718014397067701,2.4051211755443123,3.80228162536437,1.5026693086635805,3.885000742826388,0.5923087897559904,3.96580749351975,-0.3249539379333082,4.0443254781158835,-1.2480690379843224,4.120167700091308,-2.175946293930003,4.192938206777516,-3.1074582806626587,4.262233827918964,-4.0414436962938005,4.327646014397079,-4.976710856642303,4.388762779778113,-5.912041354525735,4.4451707473428,-6.846193886029685,4.496457305255647,-7.777908245929991,4.5422128725317705,-8.705909494442652,4.582033278459163,-9.628912297476367,4.615522258134268,-10.545625442562466,4.6422940667687485,-11.454756532637152,4.66197621542535,-12.3550168598509,4.674212330840721,-13.245126461579812,4.678665141993102,-14.123819360813862,4.675019596072741,-14.989848993096826,4.662986106512946,-15.841993822192796,4.642303935739651,-16.679063146654073,4.612744715297373,-17.499903099465367,4.574116106009466,-18.303402842939104,4.526265600830532,-19.08850096103672,4.469084473048898,-19.854192051290752,4.402511872497026,-20.599533518502692,4.326539072427771,-21.3236525723913,4.241213869714324,-22.025753431366383,4.146645141031781,-22.70512473460277,4.043007557678184,-23.361147164589422,3.930546461692933,-23.993301282328506,3.8095829059304642,-24.601175577359275,3.680518860747069,-25.18621818540169,3.603541534092144,-25.756445183753435,3.5225826133332077,-26.311445522833623,3.437848877247,-26.850818235757618,3.349570919284657,-27.374173150297526,3.258003892790105,-27.881131600842743,3.1634282562184604,-28.371327140360474,3.066150518354431,-28.84440625235624,2.966503983530712,-29.300029062834408,2.8648494968463836,-29.737870052258714,2.7615761893853157,-30.15761876751277,2.6571022234345576,-30.5589805338606,2.5518755377027444,-30.941677166907137,2.4463745925384925,-31.30544768455878,2.3411091151487984,-31.650049018983875,2.2366208448174376"></polyline></clipPath><filter id="fuzzy"><feTurbulence id="turbulence" baseFrequency="0.05" numOctaves="3" type="noise" result="noise"></feTurbulence><feDisplacementMap in="SourceGraphic" in2="noise" scale="2"></feDisplacementMap></filter><linearGradient id="rainbowGradient" x1="0%" y1="0%" x2="100%" y2="0%"><stop offset="0%" style="stop-color: rgb(233, 236, 239);  stop-opacity: 1"></stop><stop offset="50%" style="stop-color: rgb(44, 34, 43);  stop-opacity: 1"></stop><stop offset="100%" style="stop-color: rgb(220, 20, 60);  stop-opacity: 1"></stop></linearGradient></defs><title>That&#39;s an ugly face</title><desc>CREATED BY XUAN TANG, MORE INFO AT TXSTC55.GITHUB.IO</desc><rect x="-100" y="-100" width="100%" height="100%" opacity="1" fill="rgb(188, 143, 143)"></rect><polyline id="faceContour" points="69,1,68,2,68,4,68,4,68,7,68,6,68,9,68,10,69,11,68,15,68,14,68,18,68,18,68,19,68,20,68,21,68,21,67,25,67,26,67,27,67,29,66,29,66,32,66,32,65,34,66,34,65,38,64,39,64,39,64,40,62,44,63,41,62,45,62,45,62,46,61,48,61,49,60,51,59,51,58,55,59,53,58,56,57,57,56,59,55,60,55,60,54,61,53,63,53,63,52,64,52,64,51,66,50,67,49,69,49,69,47,71,46,72,47,71,46,72,43,75,44,74,42,77,42,77,41,77,40,78,38,80,39,79,36,81,36,81,35,82,34,83,34,83,31,85,32,84,29,86,29,87,29,86,26,88,27,87,24,88,23,89,22,90,20,90,18,91,18,91,17,92,16,92,14,92,15,92,13,92,11,93,11,93,10,93,9,94,8,94,6,94,5,94,4,94,3,94,1,94,-1,95,-2,94,-1,94,-3,95,-5,95,-5,95,-8,94,-9,94,-11,94,-12,94,-12,94,-13,94,-14,93,-15,93,-15,93,-16,93,-20,92,-20,92,-19,92,-22,91,-23,91,-23,91,-24,90,-26,90,-27,89,-29,88,-28,88,-31,87,-32,87,-32,86,-34,85,-36,84,-36,84,-38,83,-38,83,-38,82,-40,81,-41,80,-41,80,-41,80,-43,78,-44,78,-45,76,-45,75,-46,75,-47,74,-49,72,-49,71,-51,70,-51,69,-52,68,-52,67,-53,66,-54,65,-54,64,-54,65,-56,61,-57,59,-58,59,-57,59,-58,57,-58,56,-60,53,-59,55,-60,53,-61,51,-62,49,-62,47,-63,46,-63,44,-63,45,-63,44,-64,43,-65,39,-65,39,-65,37,-65,36,-66,35,-66,32,-67,30,-67,29,-67,28,-67,26,-67,28,-68,25,-68,22,-68,24,-68,20,-68,18,-68,16,-68,16,-68,13,-68,13,-68,10,-68,9,-69,8,-69,7,-69,4,-68,2,-68,3,-68,-1,-68,-1,-68,-3,-68,-4,-68,-6,-68,-6,-67,-10,-67,-12,-67,-13,-67,-12,-67,-14,-66,-17,-66,-18,-66,-21,-66,-21,-65,-25,-65,-25,-65,-25,-64,-26,-64,-30,-63,-31,-63,-32,-63,-33,-62,-35,-61,-36,-62,-37,-61,-37,-60,-40,-60,-41,-59,-45,-59,-43,-58,-46,-58,-47,-57,-48,-57,-48,-55,-52,-55,-52,-55,-54,-54,-55,-53,-58,-53,-57,-53,-56,-52,-59,-50,-62,-50,-62,-49,-64,-50,-63,-49,-65,-48,-66,-46,-68,-47,-67,-45,-69,-43,-72,-44,-71,-42,-73,-43,-72,-40,-76,-40,-75,-40,-75,-38,-78,-38,-78,-38,-78,-37,-79,-36,-80,-34,-82,-33,-83,-34,-82,-33,-83,-30,-85,-30,-85,-29,-85,-29,-85,-26,-88,-27,-87,-26,-88,-24,-89,-22,-90,-23,-89,-23,-89,-21,-90,-19,-91,-19,-91,-18,-92,-19,-91,-16,-92,-14,-93,-15,-92,-13,-93,-12,-94,-12,-93,-10,-94,-8,-94,-9,-94,-6,-94,-7,-94,-4,-94,-4,-94,-2,-94,-2,-95,-1,-95,1,-94,2,-94,2,-94,3,-94,4,-94,5,-94,7,-93,7,-94,7,-94,8,-93,10,-93,11,-93,11,-93,12,-92,15,-91,15,-91,17,-90,17,-90,18,-90,18,-90,18,-89,20,-89,21,-88,22,-88,24,-86,25,-86,25,-86,27,-84,28,-84,27,-84,30,-83,30,-83,31,-82,32,-80,33,-80,33,-80,35,-78,35,-78,37,-76,38,-75,38,-75,40,-73,39,-74,41,-71,41,-71,41,-71,42,-71,44,-68,44,-67,45,-67,47,-64,47,-64,48,-63,48,-63,50,-59,49,-61,50,-59,52,-57,51,-57,53,-54,53,-54,53,-54,54,-52,54,-52,55,-50,55,-49,56,-48,57,-46,58,-44,58,-44,59,-42,59,-41,60,-39,60,-37,61,-36,61,-35,62,-35,62,-33,62,-32,63,-30,64,-27,64,-25,64,-26,64,-26,65,-24,65,-21,66,-20,66,-18,66,-17,66,-17,66,-15,67,-12,67,-13,67,-10,67,-8,67,-9,68,-6,68,-5,68,-3,68,-1,69,1,68,2" fill="#ffc9a9" stroke="black" stroke-width="1.6666666666666665" stroke-linejoin="round" filter="url(#fuzzy)"></polyline><g transform="translate(32.06923916549806 -31.326294628761275)"><polyline id="rightCountour" points="-32.530037091189094,-1.0125829703171603,-32.193447045353075,-1.1136659264195687,-31.82758724487748,-1.216764520746612,-31.43175804796879,-1.3215143222281758,-31.005395152690472,-1.4275632683556214,-30.54806529276127,-1.534571507032136,-30.059461933353358,-1.6422112384230814,-29.539400966890586,-1.7501665568063474,-28.98781640884671,-1.8581332924226985,-28.404756093543607,-1.9658188533261254,-27.79037736994947,-2.0729420672341963,-27.14494279747704,-2.1792330233784063,-26.468815841781865,-2.2844329143545274,-25.762456570560442,-2.3882938779729592,-25.026417349348495,-2.490578839109079,-24.26133853731919,-2.591061351553592,-23.58572549438617,-2.724039277862054,-22.85210567020305,-2.8542440391167863,-22.06156728411359,-2.981190993025925,-21.215635589007004,-3.1044226116464286,-20.316228489520995,-3.2235090808333626,-19.365614041701107,-3.3380488018266266,-18.36636979874786,-3.4476687975744595,-17.32134396748305,-3.5520250263930646,-16.233618340166633,-3.6508026055616596,-15.106472966295792,-3.743715947452292,-13.943352529017394,-3.8305088107937544,-12.747834390785487,-3.9109542696689075,-11.52359827289518,-3.9848546028447696,-10.274397533524372,-4.052041106034672,-9.004032008914749,-4.112373829691817,-7.7163223823235345,-4.165741244933585,-6.415086045377409,-4.212059840195895,-5.104114416460064,-4.251273651216945,-3.7871516807647727,-4.2833537269497,-2.4678749166435234,-4.308297534002406,-1.1498755728840582,-4.326128302206477,0.1633577384536813,-4.33689431391111,1.4684551690102676,-4.340668139603904,2.7621803162772296,-4.337545822456864,4.0414436962938005,-4.327646014397079,5.3033150422584185,-4.311109066301425,6.545034464423743,-4.288096074914618,7.764022506643501,-4.25878788908992,8.957889134939936,-4.2233840779518825,10.124441693460232,-4.182101863580398,11.261691863190649,-4.135175020815405,12.367861658796754,-4.0828527467816045,13.441388498958435,-4.025398502732479,14.480929385568176,-3.9630888308129415,15.485364227161236,-3.8962121483400005,16.453798341946115,-3.825067522200674,17.385564175804124,-3.7499634259665693,18.280222270626368,-3.6712164823244096,19.13756151835685,-3.5891501934218453,19.957598736110192,-3.504093661727883,20.74057759773255,-3.4163803040072547,21.48696695717426,-3.3263465610080583,22.197458599042804,-3.2343306054620062,22.872964451704625,-3.140671050996589,23.51461329830437,-3.0457056645585054,24.123747021070045,-2.9497700849476685,24.70191641427284,-2.853196550061138,25.250876601209846,-2.7563126354462817,25.772582090578567,-2.6594400067625084,26.26918150761159,-2.5628931887509085,26.740618418415412,-2.4663647715329837,27.1857942347755,-2.3694554604196707,27.605463181625808,-2.2723321366704727,28.000411097829197,-2.1751564279431217,28.371450699317126,-2.0780843601692505,28.719416842229347,-1.9812660094300556,29.04516178605366,-1.8848451538319693,29.349550456765616,-1.7889589253823246,29.633455709968192,-1.6937374618650258,29.897753594031553,-1.5993035587162132,30.143318613232733,-1.5057723208999323,30.371018990895383,-1.4132508147838028,30.581711932529434,-1.3218377200146825,30.77623888897087,-1.2316229813943402,24.161251010265804,1.4787387440801694,23.699390735519827,1.5277453397828653,23.224389522073896,1.5783904511746347,22.736125831134284,1.6306961320412838,22.23449574235326,1.6846808904256994,21.719413245104192,1.7403593326609927,21.190810529756746,1.797741807403642,20.64863827895198,1.8568340496666358,20.092865958877564,1.9176368248526148,19.52348211054286,1.9801455727870194,18.940494641054126,2.0443500517512265,18.343931114889653,2.1102339825156964,17.733839045174914,2.1777746923731165,17.11028618495769,2.2469427591715414,16.473360818483272,2.3177016553475394,15.821813257365418,2.3900821022230234,15.15420623960628,2.464156046324444,14.470417307548013,2.5399232055622063,13.770397046701829,2.6173568056509753,13.05416854973478,2.696403920512047,12.321826761325436,2.7769858623418835,11.573537701713452,2.8589986240047,10.809537566768206,2.942313376406991,10.03013170240165,3.026777023511873,9.235693451150551,3.112212817651144,8.426662868753201,3.1984210377929347,7.603545308545829,3.285179733422835,6.766909871503783,3.3722455366963944,5.917387719752643,3.4593545455208696,5.0556702513744884,3.546223280224116,4.182507134334326,3.6325497164684957,3.29870419735195,3.718014397067701,2.4051211755443123,3.80228162536437,1.5026693086635805,3.885000742826388,0.5923087897559904,3.96580749351975,-0.3249539379333082,4.0443254781158835,-1.2480690379843224,4.120167700091308,-2.175946293930003,4.192938206777516,-3.1074582806626587,4.262233827918964,-4.0414436962938005,4.327646014397079,-4.976710856642303,4.388762779778113,-5.912041354525735,4.4451707473428,-6.846193886029685,4.496457305255647,-7.777908245929991,4.5422128725317705,-8.705909494442652,4.582033278459163,-9.628912297476367,4.615522258134268,-10.545625442562466,4.6422940667687485,-11.454756532637152,4.66197621542535,-12.3550168598509,4.674212330840721,-13.245126461579812,4.678665141993102,-14.123819360813862,4.675019596072741,-14.989848993096826,4.662986106512946,-15.841993822192796,4.642303935739651,-16.679063146654073,4.612744715297373,-17.499903099465367,4.574116106009466,-18.303402842939104,4.526265600830532,-19.08850096103672,4.469084473048898,-19.854192051290752,4.402511872497026,-20.599533518502692,4.326539072427771,-21.3236525723913,4.241213869714324,-22.025753431366383,4.146645141031781,-22.70512473460277,4.043007557678184,-23.361147164589422,3.930546461692933,-23.993301282328506,3.8095829059304642,-24.601175577359275,3.680518860747069,-25.18621818540169,3.603541534092144,-25.756445183753435,3.5225826133332077,-26.311445522833623,3.437848877247,-26.850818235757618,3.349570919284657,-27.374173150297526,3.258003892790105,-27.881131600842743,3.1634282562184604,-28.371327140360474,3.066150518354431,-28.84440625235624,2.966503983530712,-29.300029062834408,2.8648494968463836,-29.737870052258714,2.7615761893853157,-30.15761876751277,2.6571022234345576,-30.5589805338606,2.5518755377027444,-30.941677166907137,2.4463745925384925,-31.30544768455878,2.3411091151487984,-31.650049018983875,2.2366208448174376" fill="white" stroke="white" stroke-width="0" stroke-linejoin="round" filter="url(#fuzzy)"></polyline></g><g transform="translate(-36.22743180822702 -33.1913295021553)"><polyline id="leftCountour" points="32.49621232041499,-0.7712463769228743,32.14465929351748,-0.8529955658299921,31.763613690514944,-0.9363800749846947,31.352600923527874,-1.0211126448284564,30.911265472583402,-1.1069154754828165,30.43936700621672,-1.1935201129124544,29.93677650207247,-1.280667335088264,29.40347236750614,-1.3681070381504354,28.839536560185465,-1.455598122571526,28.24515070869183,-1.54290837931954,27.620592233121705,-1.6298143760210042,26.966230465687964,-1.7161013431240448,26.282522771321375,-1.801563060061465,25.57001066827194,-1.8860017414138195,24.829315948710317,-1.9692279230724923,24.061136799329233,-2.051060348402773,23.362144850747725,-2.1585388596176727,22.608989695889314,-2.263921337331765,21.80283689897326,-2.3668186840535332,20.945247793016122,-2.4668622796379185,20.03813868454558,-2.5637045806621384,19.083741792428526,-2.6570196364576235,18.084567888238546,-2.7465035239727236,17.043370605587736,-2.831874703640787,15.963112385848087,-2.912874298428263,14.846932027687474,-2.9892662982374487,13.698113807845214,-3.0608376918385116,12.520058140572507,-3.12739852850541,11.316253743162598,-3.188781911530356,10.090251274995943,-3.2448439257914377,8.845638417525302,-3.2954635015480314,7.58601636262595,-3.340542216638645,6.3149776767360475,-3.3800040392558017,5.03608550821227,-3.4137950134726163,3.752854105325714,-3.4418828896956732,2.468730612323292,-3.464256702218857,1.1870781109795407,-3.480926296052737,-0.08884012493595161,-3.4919218052041705,-1.3558751948504506,-3.4972930845807157,-2.6110059888142834,-3.4971090976945156,-3.851351489736201,-3.491457262340277,-5.074181993002805,-3.480442756421943,-6.276929276057064,-3.46418778610274,-7.457195750510673,-3.442830818453185,-8.612762629365356,-3.416525780771707,-9.741597141917822,-3.3854412287524953,-10.841858828923531,-3.3497594856752313,-11.911904950593945,-3.3096757547912916,-12.950295040002388,-3.265397207081101,-13.955794634473277,-3.2171420465572127,-14.927378217529766,-3.165138555287806,-15.86423140397462,-3.1096241203151576,-16.76575240067927,-3.050844244643787,-17.631552775656033,-2.9890515444728694,-18.461457567988333,-2.92450473484753,-19.255504771193777,-2.857467605903701,-20.013944222595292,-2.788207991881111,-20.737235931274768,-2.7169967350790802,-21.4260478771847,-2.6441066469297394,-22.081253313992164,-2.569811468363285,-22.703927608230543,-2.4943848316399246,-23.295344647333536,-2.4180992258231266,-23.856972849126656,-2.341224968068807,-24.39047080535095,-2.264029182905089,-24.897682591793895,-2.186774791677255,-25.380632777602564,-2.10971951433253,-25.839326645911697,-2.032614334570338,-26.27278809554359,-1.9551337777351843,-26.68172649186573,-1.8774134685356003,-27.066880554782742,-1.79958491224339,-27.42901399602401,-1.7217752034485958,-27.768911156431606,-1.644106734814471,-28.087372643248045,-1.566696905832457,-28.385210967404163,-1.4896578315771483,-28.66324618080683,-1.4130960514612707,-28.92230151362689,-1.337112237990647,-29.163199011586862,-1.2618009055191737,-29.386755173248815,-1.1872501190037912,-29.59377658730218,-1.1135412027594547,-29.785055569851522,-1.0407484492141073,-22.801282690694393,1.228970942289708,-22.324163646238425,1.2717963066750992,-21.83540912268709,1.315861864173335,-21.33503842380118,1.3611727941229095,-20.823092295030484,1.4077309384201184,-20.299632210660846,1.4555346004275047,-19.764739660961247,1.5045783438823084,-19.2185154393309,1.554852791804909,-18.66107892944631,1.6063444254072774,-18.092567392408355,1.659035383001421,-17.513135253889352,1.7129032589078292,-16.92295339128016,1.7679209023639237,-16.322208420837235,1.8240562164325023,-15.711101984829716,1.8812719569101883,-15.08985003868649,1.9395255312358772,-14.456811357458777,1.9988813578300255,-13.810333132974987,2.0594217475453327,-13.150651801722722,2.1211126708323595,-12.478039488275899,2.183901505987858,-11.792802653071645,2.2477174000574696,-11.095280687422088,2.312471664912426,-10.385844461083561,2.3780582100017353,-9.664894827705929,2.4443540132813393,-8.932861093484583,2.5112196318217204,-8.190199454337844,2.5784997535954446,-7.437391406932342,2.6460237919461296,-6.6749421388790235,2.713606524240311,-5.9033789034224196,2.781048776203696,-5.123249383945817,2.8481381534432897,-4.335120053614986,2.9146498216568757,-3.539574535483019,2.980347337031335,-2.737211968379036,3.044983528331281,-1.928645383903298,3.108301432179509,-1.1145000998514085,3.170035283030725,-0.2954121353902064,3.229911559340052,0.5279733466919705,3.2876500874277914,1.355003565338066,3.342965204541924,2.185019608855444,3.395566982619832,3.017357879506808,3.445162514250727,3.851351489736201,3.491457262340277,4.686331604707515,3.534156474978894,5.521628725832815,3.5729666670151854,6.356573909967901,3.6075971698360503,7.190499918952419,3.637761750854896,8.022742294171925,3.6631803042094573,8.852640350819243,3.68358061417072,9.679538086532498,3.6987001927644143,10.502784999087176,3.708288193106557,11.32173680781959,3.7121073999545553,12.135756073459094,3.709936298975319,12.944212711046443,3.7015712262318985,13.746484390615622,3.686828599390097,14.541956820316566,3.6655472321465834,15.330023906656043,3.6375907333799393,16.11008778653421,3.602849992526176,16.88155872575404,3.56124575268016,17.643854878681104,3.5127312729244577,18.396401903731025,3.4572950813870733,19.138632429361998,3.3949638205295716,19.86998536524966,3.325805186167049,20.58990505332185,3.249930961721464,21.29784025333035,3.16750014920979,21.9932429576373,3.078722198468484,22.675567029893344,2.9838603361157463,23.344266662285115,2.883234995753069,23.938825703169094,2.820995433797786,24.523246784404115,2.7558628856559917,25.09702059054449,2.6879989648078446,25.659619161002468,2.6175823580490816,26.210495505149268,2.54480934175424,26.749083217416057,2.4698942981398764,27.274796092395036,2.39307023152779,27.787027739940413,2.31458928460824,28.285151200269482,2.2347232547031672,28.768518559063587,2.153764110029416,29.23646056256922,2.0720245059619535,29.688286232698985,1.9898383012970913,30.12328248213268,1.9075610745157041,30.54071372941825,1.8255706400464526,30.93982151407289,1.7442675645290042" fill="white" stroke="white" stroke-width="0" stroke-linejoin="round" filter="url(#fuzzy)"></polyline></g><g transform="translate(32.06923916549806 -31.326294628761275)"><polyline id="rightUpper" points="-34.54540724868518,-0.2019484841267265,-34.43018217778274,-0.25999718860237,-34.301074386703974,-0.3244209058078784,-34.15579410398718,-0.39472282082764765,-33.99222994004552,-0.47042006880404585,-33.80844458296518,-0.5510435767877657,-33.602670494303624,-0.6361379055881728,-33.373305604887804,-0.7252610916236559,-33.11890901061236,-0.8179844887719774,-32.83819666823788,-0.9138926102206248,-32.530037091189094,-1.0125829703171603,-32.193447045353075,-1.1136659264195687,-31.82758724487748,-1.216764520746612,-31.43175804796879,-1.3215143222281758,-31.005395152690472,-1.4275632683556214,-30.54806529276127,-1.534571507032136,-30.059461933353358,-1.6422112384230814,-29.539400966890586,-1.7501665568063474,-28.98781640884671,-1.8581332924226985,-28.404756093543607,-1.9658188533261254,-27.79037736994947,-2.0729420672341963,-27.14494279747704,-2.1792330233784063,-26.468815841781865,-2.2844329143545274,-25.762456570560442,-2.3882938779729592,-25.026417349348495,-2.490578839109079,-24.26133853731919,-2.591061351553592,-23.58572549438617,-2.724039277862054,-22.85210567020305,-2.8542440391167863,-22.06156728411359,-2.981190993025925,-21.215635589007004,-3.1044226116464286,-20.316228489520995,-3.2235090808333626,-19.365614041701107,-3.3380488018266266,-18.36636979874786,-3.4476687975744595,-17.32134396748305,-3.5520250263930646,-16.233618340166633,-3.6508026055616596,-15.106472966295792,-3.743715947452292,-13.943352529017394,-3.8305088107937544,-12.747834390785487,-3.9109542696689075,-11.52359827289518,-3.9848546028447696,-10.274397533524372,-4.052041106034672,-9.004032008914749,-4.112373829691817,-7.7163223823235345,-4.165741244933585,-6.415086045377409,-4.212059840195895,-5.104114416460064,-4.251273651216945,-3.7871516807647727,-4.2833537269497,-2.4678749166435234,-4.308297534002406,-1.1498755728840582,-4.326128302206477,0.1633577384536813,-4.33689431391111,1.4684551690102676,-4.340668139603904,2.7621803162772296,-4.337545822456864,4.0414436962938005,-4.327646014397079,5.3033150422584185,-4.311109066301425,6.545034464423743,-4.288096074914618,7.764022506643501,-4.25878788908992,8.957889134939936,-4.2233840779518825,10.124441693460232,-4.182101863580398,11.261691863190649,-4.135175020815405,12.367861658796754,-4.0828527467816045,13.441388498958435,-4.025398502732479,14.480929385568176,-3.9630888308129415,15.485364227161236,-3.8962121483400005,16.453798341946115,-3.825067522200674,17.385564175804124,-3.7499634259665693,18.280222270626368,-3.6712164823244096,19.13756151835685,-3.5891501934218453,19.957598736110192,-3.504093661727883,20.74057759773255,-3.4163803040072547,21.48696695717426,-3.3263465610080583,22.197458599042804,-3.2343306054620062,22.872964451704625,-3.140671050996589,23.51461329830437,-3.0457056645585054,24.123747021070045,-2.9497700849476685,24.70191641427284,-2.853196550061138,25.250876601209846,-2.7563126354462817,25.772582090578567,-2.6594400067625084,26.26918150761159,-2.5628931887509085,26.740618418415412,-2.4663647715329837,27.1857942347755,-2.3694554604196707,27.605463181625808,-2.2723321366704727,28.000411097829197,-2.1751564279431217,28.371450699317126,-2.0780843601692505,28.719416842229347,-1.9812660094300556,29.04516178605366,-1.8848451538319693,29.349550456765616,-1.7889589253823246,29.633455709968192,-1.6937374618650258,29.897753594031553,-1.5993035587162132,30.143318613232733,-1.5057723208999323,30.371018990895383,-1.4132508147838028,30.581711932529434,-1.3218377200146825,30.77623888897087,-1.2316229813943402,30.955420819521397,-1.1426874607551198,31.120053455088165,-1.0551025888356096,31.2709025613235,-0.9689300171563084,31.408699201764623,-0.884221269895296,31.534135000973304,-0.8010173957638997,31.647857407675648,-0.7193486198823589,31.750464957901794,-0.6392339956555002,31.84250253812557,-0.560681056648396,31.9244566484043,-0.4836854684620415,31.996750665518423,-0.4082306806090161" fill="none" stroke="black" stroke-width="1.6666666666666665" stroke-linejoin="round" filter="url(#fuzzy)"></polyline><polyline id="rightLower" points="-34.00251640507953,1.3780477342740678,-33.85852544425607,1.4373927853679591,-33.69407653761213,1.5048570486285058,-33.50919445253113,1.5795376769922123,-33.30392899026359,1.6605712876563492,-33.07835427396671,1.7471332168605551,-32.83256803674383,1.8384367746684371,-32.56669090968385,1.9337324997491716,-32.280865709900795,2.032307414159107,-31.975256728573264,2.133484278123364,-31.650049018983875,2.2366208448174376,-31.30544768455878,2.3411091151487984,-30.941677166907137,2.4463745925384925,-30.5589805338606,2.5518755377027444,-30.15761876751277,2.6571022234345576,-29.737870052258714,2.7615761893853157,-29.300029062834408,2.8648494968463836,-28.84440625235624,2.966503983530712,-28.371327140360474,3.066150518354431,-27.881131600842743,3.1634282562184604,-27.374173150297526,3.258003892790105,-26.850818235757618,3.349570919284657,-26.311445522833623,3.437848877247,-25.756445183753435,3.5225826133332077,-25.18621818540169,3.603541534092144,-24.601175577359275,3.680518860747069,-23.993301282328506,3.8095829059304642,-23.361147164589422,3.930546461692933,-22.70512473460277,4.043007557678184,-22.025753431366383,4.146645141031781,-21.3236525723913,4.241213869714324,-20.599533518502692,4.326539072427771,-19.854192051290752,4.402511872497026,-19.08850096103672,4.469084473048898,-18.303402842939104,4.526265600830532,-17.499903099465367,4.574116106009466,-16.679063146654073,4.612744715297373,-15.841993822192796,4.642303935739651,-14.989848993096826,4.662986106512946,-14.123819360813862,4.675019596072741,-13.245126461579812,4.678665141993102,-12.3550168598509,4.674212330840721,-11.454756532637152,4.66197621542535,-10.545625442562466,4.6422940667687485,-9.628912297476367,4.615522258134268,-8.705909494442652,4.582033278459163,-7.777908245929991,4.5422128725317705,-6.846193886029685,4.496457305255647,-5.912041354525735,4.4451707473428,-4.976710856642303,4.388762779778113,-4.0414436962938005,4.327646014397079,-3.1074582806626587,4.262233827918964,-2.175946293930003,4.192938206777516,-1.2480690379843224,4.120167700091308,-0.3249539379333082,4.0443254781158835,0.5923087897559904,3.96580749351975,1.5026693086635805,3.885000742826388,2.4051211755443123,3.80228162536437,3.29870419735195,3.718014397067701,4.182507134334326,3.6325497164684957,5.0556702513744884,3.546223280224116,5.917387719752643,3.4593545455208696,6.766909871503783,3.3722455366963944,7.603545308545829,3.285179733422835,8.426662868753201,3.1984210377929347,9.235693451150551,3.112212817651144,10.03013170240165,3.026777023511873,10.809537566768206,2.942313376406991,11.573537701713452,2.8589986240047,12.321826761325436,2.7769858623418835,13.05416854973478,2.696403920512047,13.770397046701829,2.6173568056509753,14.470417307548013,2.5399232055622063,15.15420623960628,2.464156046324444,15.821813257365418,2.3900821022230234,16.473360818483272,2.3177016553475394,17.11028618495769,2.2469427591715414,17.733839045174914,2.1777746923731165,18.343931114889653,2.1102339825156964,18.940494641054126,2.0443500517512265,19.52348211054286,1.9801455727870194,20.092865958877564,1.9176368248526148,20.64863827895198,1.8568340496666358,21.190810529756746,1.797741807403642,21.719413245104192,1.7403593326609927,22.23449574235326,1.6846808904256994,22.736125831134284,1.6306961320412838,23.224389522073896,1.5783904511746347,23.699390735519827,1.5277453397828653,24.161251010265804,1.4787387440801694,24.610109212276356,1.4313454205046792,25.046121243411676,1.3855372916853206,25.469459750152495,1.3412838024086724,25.880313832324887,1.298552275585821,26.278888751825146,1.257308268219219,26.665405641344627,1.2175159273695395,27.040101213094633,1.1791383461225373,27.40322746753115,1.1421379195559014,27.755051402079847,1.1064767007061151,28.095854719860803,1.0721167565353107" fill="none" stroke="black" stroke-width="2.2222222222222223" stroke-linejoin="round" filter="url(#fuzzy)"></polyline><!--[--><circle r="4.406411384786805" cx="12.097902313345273" cy="0.009823555772950687" stroke="black" fill="none" stroke-width="1" filter="url(#fuzzy)" clip-path="url(#rightEyeClipPath)"></circle><circle r="4.396172343456204" cx="15.897656641934617" cy="-1.3791802729026124" stroke="black" fill="none" stroke-width="1" filter="url(#fuzzy)" clip-path="url(#rightEyeClipPath)"></circle><circle r="4.219754431251722" cx="12.562667339891181" cy="-1.5849059568547688" stroke="black" fill="none" stroke-width="1" filter="url(#fuzzy)" clip-path="url(#rightEyeClipPath)"></circle><circle r="4.940220956794413" cx="15.105851723876224" cy="-2.7705676772918717" stroke="black" fill="none" stroke-width="1" filter="url(#fuzzy)" clip-path="url(#rightEyeClipPath)"></circle><circle r="3.096808186709648" cx="14.607219855687038" cy="-2.6733631923461507" stroke="black" fill="none" stroke-width="1" filter="url(#fuzzy)" clip-path="url(#rightEyeClipPath)"></circle><circle r="4.573211847107365" cx="12.67053948326167" cy="-2.4723285305173306" stroke="black" fill="none" stroke-width="1" filter="url(#fuzzy)" clip-path="url(#rightEyeClipPath)"></circle><circle r="3.0937144375713794" cx="13.570055965856753" cy="-2.275245834042836" stroke="black" fill="none" stroke-width="1" filter="url(#fuzzy)" clip-path="url(#rightEyeClipPath)"></circle><circle r="3.5739510179404266" cx="11.796265242710351" cy="-0.22672817156286618" stroke="black" fill="none" stroke-width="1" filter="url(#fuzzy)" clip-path="url(#rightEyeClipPath)"></circle><circle r="4.500498316757231" cx="11.739576751244787" cy="-1.6427594995970547" stroke="black" fill="none" stroke-width="1" filter="url(#fuzzy)" clip-path="url(#rightEyeClipPath)"></circle><circle r="4.613500668273326" cx="15.866226306208166" cy="1.137869249690504" stroke="black" fill="none" stroke-width="1" filter="url(#fuzzy)" clip-path="url(#rightEyeClipPath)"></circle><!--]--></g><g transform="translate(-36.22743180822702 -33.1913295021553)"><polyline id="leftUpper" points="34.586960346358474,-0.11388577711015424,34.47526203767611,-0.16131996480841004,34.34621923424155,-0.2138073948661302,34.197953302185795,-0.2709599498933688,34.02874346953248,-0.33240011054947693,33.83702294679932,-0.39776084170618087,33.62137504759947,-0.4666854786106571,33.380529309242895,-0.5388276130486094,33.11335761333786,-0.6138509795073446,32.81887030639224,-0.691429341338851,32.49621232041499,-0.7712463769228743,32.14465929351748,-0.8529955658299921,31.763613690514944,-0.9363800749846947,31.352600923527874,-1.0211126448284564,30.911265472583402,-1.1069154754828165,30.43936700621672,-1.1935201129124544,29.93677650207247,-1.280667335088264,29.40347236750614,-1.3681070381504354,28.839536560185465,-1.455598122571526,28.24515070869183,-1.54290837931954,27.620592233121705,-1.6298143760210042,26.966230465687964,-1.7161013431240448,26.282522771321375,-1.801563060061465,25.57001066827194,-1.8860017414138195,24.829315948710317,-1.9692279230724923,24.061136799329233,-2.051060348402773,23.362144850747725,-2.1585388596176727,22.608989695889314,-2.263921337331765,21.80283689897326,-2.3668186840535332,20.945247793016122,-2.4668622796379185,20.03813868454558,-2.5637045806621384,19.083741792428526,-2.6570196364576235,18.084567888238546,-2.7465035239727236,17.043370605587736,-2.831874703640787,15.963112385848087,-2.912874298428263,14.846932027687474,-2.9892662982374487,13.698113807845214,-3.0608376918385116,12.520058140572507,-3.12739852850541,11.316253743162598,-3.188781911530356,10.090251274995943,-3.2448439257914377,8.845638417525302,-3.2954635015480314,7.58601636262595,-3.340542216638645,6.3149776767360475,-3.3800040392558017,5.03608550821227,-3.4137950134726163,3.752854105325714,-3.4418828896956732,2.468730612323292,-3.464256702218857,1.1870781109795407,-3.480926296052737,-0.08884012493595161,-3.4919218052041705,-1.3558751948504506,-3.4972930845807157,-2.6110059888142834,-3.4971090976945156,-3.851351489736201,-3.491457262340277,-5.074181993002805,-3.480442756421943,-6.276929276057064,-3.46418778610274,-7.457195750510673,-3.442830818453185,-8.612762629365356,-3.416525780771707,-9.741597141917822,-3.3854412287524953,-10.841858828923531,-3.3497594856752313,-11.911904950593945,-3.3096757547912916,-12.950295040002388,-3.265397207081101,-13.955794634473277,-3.2171420465572127,-14.927378217529766,-3.165138555287806,-15.86423140397462,-3.1096241203151576,-16.76575240067927,-3.050844244643787,-17.631552775656033,-2.9890515444728694,-18.461457567988333,-2.92450473484753,-19.255504771193777,-2.857467605903701,-20.013944222595292,-2.788207991881111,-20.737235931274768,-2.7169967350790802,-21.4260478771847,-2.6441066469297394,-22.081253313992164,-2.569811468363285,-22.703927608230543,-2.4943848316399246,-23.295344647333536,-2.4180992258231266,-23.856972849126656,-2.341224968068807,-24.39047080535095,-2.264029182905089,-24.897682591793895,-2.186774791677255,-25.380632777602564,-2.10971951433253,-25.839326645911697,-2.032614334570338,-26.27278809554359,-1.9551337777351843,-26.68172649186573,-1.8774134685356003,-27.066880554782742,-1.79958491224339,-27.42901399602401,-1.7217752034485958,-27.768911156431606,-1.644106734814471,-28.087372643248045,-1.566696905832457,-28.385210967404163,-1.4896578315771483,-28.66324618080683,-1.4130960514612707,-28.92230151362689,-1.337112237990647,-29.163199011586862,-1.2618009055191737,-29.386755173248815,-1.1872501190037912,-29.59377658730218,-1.1135412027594547,-29.785055569851522,-1.0407484492141073,-29.961365801704403,-0.9689388276636517,-30.1234579656592,-0.8981716930269221,-30.272055383792825,-0.8284984946006553,-30.407849654748674,-0.7599624848144633,-30.531496291024347,-0.6925984279858057,-30.643610356259472,-0.6264323090749591,-30.744762102523588,-0.561481042439993,-30.835472607603855,-0.4977521805917373,-30.91620941229293,-0.43524362294875796,-30.98738215767679,-0.3739433245923265" fill="none" stroke="black" stroke-width="2.2222222222222223" stroke-linejoin="round" filter="url(#fuzzy)"></polyline><polyline id="leftLower" points="33.739118534944254,1.0744676022668669,33.570269292692,1.121491308460684,33.37416895851343,1.174572989516807,33.15182595264275,1.2330561622083813,32.90422196729362,1.2963122581517625,32.63231235155816,1.3637401075432973,32.33702649630593,1.4347654228961035,32.01926821908289,1.508840282776849,31.67991614901036,1.585442615542529,31.31982411168402,1.6640756830772498,30.93982151407289,1.7442675645290042,30.54071372941825,1.8255706400464526,30.12328248213268,1.9075610745157041,29.688286232698985,1.9898383012970913,29.23646056256922,2.0720245059619535,28.768518559063587,2.153764110029416,28.285151200269482,2.2347232547031672,27.787027739940413,2.31458928460824,27.274796092395036,2.39307023152779,26.749083217416057,2.4698942981398764,26.210495505149268,2.54480934175424,25.659619161002468,2.6175823580490816,25.09702059054449,2.6879989648078446,24.523246784404115,2.7558628856559917,23.938825703169094,2.820995433797786,23.344266662285115,2.883234995753069,22.675567029893344,2.9838603361157463,21.9932429576373,3.078722198468484,21.29784025333035,3.16750014920979,20.58990505332185,3.249930961721464,19.86998536524966,3.325805186167049,19.138632429361998,3.3949638205295716,18.396401903731025,3.4572950813870733,17.643854878681104,3.5127312729244577,16.88155872575404,3.56124575268016,16.11008778653421,3.602849992526176,15.330023906656043,3.6375907333799393,14.541956820316566,3.6655472321465834,13.746484390615622,3.686828599390097,12.944212711046443,3.7015712262318985,12.135756073459094,3.709936298975319,11.32173680781959,3.7121073999545553,10.502784999087176,3.708288193106557,9.679538086532498,3.6987001927644143,8.852640350819243,3.68358061417072,8.022742294171925,3.6631803042094573,7.190499918952419,3.637761750854896,6.356573909967901,3.6075971698360503,5.521628725832815,3.5729666670151854,4.686331604707515,3.534156474978894,3.851351489736201,3.491457262340277,3.017357879506808,3.445162514250727,2.185019608855444,3.395566982619832,1.355003565338066,3.342965204541924,0.5279733466919705,3.2876500874277914,-0.2954121353902064,3.229911559340052,-1.1145000998514085,3.170035283030725,-1.928645383903298,3.108301432179509,-2.737211968379036,3.044983528331281,-3.539574535483019,2.980347337031335,-4.335120053614986,2.9146498216568757,-5.123249383945817,2.8481381534432897,-5.9033789034224196,2.781048776203696,-6.6749421388790235,2.713606524240311,-7.437391406932342,2.6460237919461296,-8.190199454337844,2.5784997535954446,-8.932861093484583,2.5112196318217204,-9.664894827705929,2.4443540132813393,-10.385844461083561,2.3780582100017353,-11.095280687422088,2.312471664912426,-11.792802653071645,2.2477174000574696,-12.478039488275899,2.183901505987858,-13.150651801722722,2.1211126708323595,-13.810333132974987,2.0594217475453327,-14.456811357458777,1.9988813578300255,-15.08985003868649,1.9395255312358772,-15.711101984829716,1.8812719569101883,-16.322208420837235,1.8240562164325023,-16.92295339128016,1.7679209023639237,-17.513135253889352,1.7129032589078292,-18.092567392408355,1.659035383001421,-18.66107892944631,1.6063444254072774,-19.2185154393309,1.554852791804909,-19.764739660961247,1.5045783438823084,-20.299632210660846,1.4555346004275047,-20.823092295030484,1.4077309384201184,-21.33503842380118,1.3611727941229095,-21.83540912268709,1.315861864173335,-22.324163646238425,1.2717963066750992,-22.801282690694393,1.228970942289708,-23.266769106836122,1.1873774553280203,-23.720648612839575,1.1470045948418028,-24.162970507128442,1.1078383757152817,-24.593808381227134,1.0698622797566957,-25.013260832613653,1.0330574567898494,-25.42145217757251,0.9974029257456651,-25.818533164047707,0.9628757757537378,-26.20468168449557,0.9294513672338864,-26.580103488737755,0.8971035329877067,-26.94503289681414,0.8658047792901251" fill="none" stroke="black" stroke-width="2.2222222222222223" stroke-linejoin="round" filter="url(#fuzzy)"></polyline><!--[--><circle r="3.380309608560195" cx="-16.52535327211891" cy="1.4603098745782885" stroke="black" fill="none" stroke-width="1" filter="url(#fuzzy)" clip-path="url(#leftEyeClipPath)"></circle><circle r="3.5488018674416577" cx="-14.741687578627003" cy="-1.9614553397525814" stroke="black" fill="none" stroke-width="1" filter="url(#fuzzy)" clip-path="url(#leftEyeClipPath)"></circle><circle r="3.1307770264638117" cx="-16.860734625399417" cy="-1.8244473654284217" stroke="black" fill="none" stroke-width="1" filter="url(#fuzzy)" clip-path="url(#leftEyeClipPath)"></circle><circle r="4.797889036450503" cx="-18.127872558493273" cy="-0.8018531518668657" stroke="black" fill="none" stroke-width="1" filter="url(#fuzzy)" clip-path="url(#leftEyeClipPath)"></circle><circle r="3.199347932401511" cx="-16.67513320251819" cy="-2.827692946851758" stroke="black" fill="none" stroke-width="1" filter="url(#fuzzy)" clip-path="url(#leftEyeClipPath)"></circle><circle r="4.376052116606437" cx="-16.41444772206048" cy="-0.1629412236700576" stroke="black" fill="none" stroke-width="1" filter="url(#fuzzy)" clip-path="url(#leftEyeClipPath)"></circle><circle r="3.9222507527169475" cx="-14.983217988088084" cy="-0.6310614653527646" stroke="black" fill="none" stroke-width="1" filter="url(#fuzzy)" clip-path="url(#leftEyeClipPath)"></circle><circle r="4.951874757512373" cx="-15.709208763943357" cy="0.607996786399994" stroke="black" fill="none" stroke-width="1" filter="url(#fuzzy)" clip-path="url(#leftEyeClipPath)"></circle><circle r="3.304497375291975" cx="-16.52500567210306" cy="1.1496397169494967" stroke="black" fill="none" stroke-width="1" filter="url(#fuzzy)" clip-path="url(#leftEyeClipPath)"></circle><circle r="4.961028705232652" cx="-17.20023938751158" cy="0.6459279701423855" stroke="black" fill="none" stroke-width="1" filter="url(#fuzzy)" clip-path="url(#leftEyeClipPath)"></circle><!--]--></g><g id="hairs"><!--[--><polyline points="47,-64,15.530920613493391,-78.43880942237048,16.29150609819027,-81.23739010236761,22.215126893259246,-78.90895368263449,27.816125588930337,-74.00894368398947,32.34465887563573,-67.98507363891149,34.262383528714224,-62.66642694005795,31.52914870907207,-59.933099232557915,24.036399608020645,-60.48176935036952,14.814071655273438,-63.35012435913086,8.518746975738134,-66.73220956427767,8.18724897458364,-69.30245211023366,12.813163319816052,-70.9431287822261,18.011751061730486,-72.37811260958547,19.864185363593503,-74.0360875289852,18.967071155054043,-75.0075852737109,19.334005287576407,-73.4717228019344,16.776871714712925,-71.34040868205531,-23,-89" fill="none" stroke="rgb(233, 236, 239)" stroke-width="2" stroke-linejoin="round" filter="url(#fuzzy)"></polyline><polyline points="-53,-56,-15.027475748077858,-71.37904160848007,-1.2483065625189411,-71.25905131248503,0.1892851341795153,-72.74178241818524,-0.10813790047541261,-76.90695833670907,0.5553171250683308,-81.57857468981526,1.138633027761749,-85.25058971461264,0.18660966336303403,-87.46533772537649,-2.382965087890625,-88.34880065917969,-4.999257472024692,-88.29624630214441,-5.553680773851887,-87.86688327284826,-3.1644155861149397,-87.64671898220568,0.8407124928198755,-87.9671146075707,4.198537036428072,-88.61956778101268,6.9312701346583125,-88.92233245787286,11.352877875288794,-88.90090566967248,7,-93" fill="none" stroke="rgb(233, 236, 239)" stroke-width="2" stroke-linejoin="round" filter="url(#fuzzy)"></polyline><polyline points="4,-94,10.54157820962951,-91.49832681751442,7.514308528033934,-91.04881515666806,4.533789366471057,-89.20287096540285,7.32882054470505,-84.19869956278615,15.353533277770765,-76.50833932232534,24.320856389054562,-68.27756248452077,30.13291493678534,-61.90198420287476,31.407729206528675,-58.771126397686835,29.598249297813847,-58.83952863770477,27.297886694447648,-61.035782562002225,26.213444709777832,-64.08176636695862,26.17679093334589,-67.1860632652634,25.649935698984,-70.25214210616474,23.136772781667126,-73.57345279618322,18.435201287582476,-77.28836269968097,12.945232507633905,-80.96951356312236,8.98059492006184,-83.5897187566583,8.713971143223398,-83.88013519048268,13.467310322071837,-80.99561757871015,22.755750877285465,-75.67305415996246,29.631750337514127,-73.24520594942234,10,-93" fill="none" stroke="rgb(233, 236, 239)" stroke-width="2" stroke-linejoin="round" filter="url(#fuzzy)"></polyline><polyline points="53,-54,10.417064758097162,-55.33181614698525,8.62219117780707,-57.229027470014856,10.765872805453606,-61.180415643838984,11.305096207965027,-64.861953424503,9.20604165016908,-67.60038377674604,4.664959972594376,-69.7640604840715,-1.252670023930925,-71.84693446020307,-7.155722161253536,-74.01786837682549,-11.935578627892523,-76.06021973283549,-15.090311251470231,-77.5468966684961,-16.70002231345428,-78.13212882020129,-17.189370322519196,-77.82604847858504,-17.00699249348911,-77.1017801708288,-16.286973015265854,-76.73906267119196,-14.636857224564746,-77.42770976126278,-11.35853391544526,-79.29579091011153,-6.302645786103594,-81.64418096735025,-0.967167814838651,-83.1678908295296,1.2913273518046373,-82.69836979804371,-2.68663278319047,-80.0426161840695,-10.648813962623354,-76.23260239854224,-7.094239540859249,-72.92909772120487,41,-71" fill="none" stroke="rgb(233, 236, 239)" stroke-width="2" stroke-linejoin="round" filter="url(#fuzzy)"></polyline><polyline points="-26,-88,24.35467476056156,-65.9930141629073,38.919604562995794,-61.62133825931299,36.77156953302602,-64.19403607106919,26.913889230930916,-68.32742895666247,16.010836162083876,-71.01173918925373,8.483188296873687,-71.43381729258833,5.4493608466661785,-70.65661121448844,5.536072954234931,-70.26477495155744,6.650346130240286,-71.10084278789964,7.118051664116311,-72.94233546498603,5.91752028465271,-74.99137139320374,2.7408896109261853,-76.57571271097247,-1.674281278120108,-77.57803198562478,-5.392606028138661,-78.41841861912998,-6.046500303142505,-79.66624459026195,-2.4800211956591904,-81.54480227723175,3.951402697501102,-83.6845999288318,10.001476299793431,-85.3048976593233,13.32766873349604,-85.56990776162702,14.844956399585715,-83.91598491195737,14.421946850069821,-82.09819920526868,-10,-94" fill="none" stroke="rgb(233, 236, 239)" stroke-width="2" stroke-linejoin="round" filter="url(#fuzzy)"></polyline><polyline points="-30,-85,20.994425258263746,-61.5530839846758,28.79046803449082,-56.64900092602322,23.800376227861488,-59.88527787732541,17.294306272175163,-66.03195227240212,12.23968145337901,-72.54420515073515,10.07191295163593,-77.49007241441649,11.637410372485528,-79.37381844368085,16.934173583984375,-77.37373352050781,24.94287867061537,-71.8168965625965,33.4496709366962,-64.6796822735293,39.4495799702807,-59.24992439634134,40.79129954567179,-58.39112406526692,38.07134098689132,-62.45427866543616,33.88482911286419,-69.51366709630969,27.969517742069286,-79.157321895445,18,-90" fill="none" stroke="rgb(233, 236, 239)" stroke-width="2" stroke-linejoin="round" filter="url(#fuzzy)"></polyline><polyline points="54,-52,40.7985679385253,-55.27765961786385,28.34858874841983,-61.4065725490275,20.82752984918334,-63.912098276670015,13.050063683651388,-65.08552734670229,6.724750622964527,-66.13678563446992,4.348489577514087,-67.48108889607148,5.499307468074491,-69.21544667626289,8.32366943359375,-70.79890441894531,11.711090803418369,-71.27824207946868,15.219275451591315,-70.38375024594372,17.558604623853867,-69.2676224940882,16.148988529108465,-69.5516568433959,8.676344371449,-71.09435464547519,-5.8290444736772,-71.08512852391483,-28.676072555324865,-66.86358721191213,-52,-59" fill="none" stroke="rgb(233, 236, 239)" stroke-width="2" stroke-linejoin="round" filter="url(#fuzzy)"></polyline><polyline points="60,-37,27.792768806877735,-68.45804533167585,13.095155386443484,-75.70826444477565,6.040411174864249,-74.56865885614582,6.241481294181804,-70.9390516343515,9.444215580778893,-68.08325721462312,11.926350335889031,-66.9435702313363,12.629157828366116,-66.9097453036314,11.858502588706223,-67.18382681223387,9.848241327086486,-67.52699587875992,6.609532285585272,-68.09574849082112,2.450769728136367,-68.93755015902262,-1.8402409578570045,-69.78693107925427,-5.465755988193102,-70.33983383629894,-8.263600246930519,-70.68846797822734,-10.818278486800695,-71.42806578559932,-13.798792995111505,-73.20721988894302,-17.059711168829356,-76.00981259783735,-19.327663368162035,-78.82080961636129,-18.623489356034096,-80.14766759898366,-12.794381713214985,-79.15163612956154,-0.8235991432316667,-76.56200336113271,10.074456523916732,-75.76025161358629,-16,-92" fill="none" stroke="rgb(233, 236, 239)" stroke-width="2" stroke-linejoin="round" filter="url(#fuzzy)"></polyline><polyline points="17,-90,15.44909141132484,-86.2844271660372,22.664687892539405,-81.24150596618179,25.66752417228811,-79.33628554212332,25.561854915983936,-78.5717720981611,23.619608254005904,-77.55487398273468,20.172866818609396,-76.16373241681816,15.600179358586951,-74.99934644667746,10.514039131992165,-74.7872141624311,5.646091230026442,-75.89313951707393,1.890322277668696,-78.09670160650084,0.21593236923217773,-80.68077993392944,1.1613780357847396,-82.74033273917009,4.210263537022783,-83.55506216604032,7.729337812923266,-82.88663345976308,9.882624040828683,-81.05989358290896,10.190143242436232,-78.7019768324026,10.605762953483241,-76.19871245898949,14.622114983809992,-73.35523836670193,23.689196827825935,-70.13134578728248,33.05882775376866,-68.7805143713608,33.623018977489956,-74.57167831610826,28,-84" fill="none" stroke="rgb(233, 236, 239)" stroke-width="2" stroke-linejoin="round" filter="url(#fuzzy)"></polyline><polyline points="62,-33,25.767527270790676,-62.36257109298092,27.18732217610643,-68.56311558836151,28.917659251599055,-70.99566249918355,25.401487111786203,-72.99561540898758,20.455662127913456,-74.06389093504367,18.29671059051064,-73.77082993206052,20.058198348043373,-72.48580416828594,23.876415838271424,-71.06208914378634,26.868239355652825,-70.17179409840331,27.00627326965332,-69.82928276062012,23.79278180182325,-69.51490219399966,17.975651244706743,-68.81885398477694,11.124525000743054,-68.01777013363365,5.300147669128112,-67.98801366292975,2.1115333837897197,-69.46540365525834,0.7085743823083093,-72.33985435008228,-3.510289628748537,-75.59833615400807,-15.598843221228961,-77.55391375500024,-33.21512713054142,-75.23812445579932,-50,-62" fill="none" stroke="rgb(233, 236, 239)" stroke-width="2" stroke-linejoin="round" filter="url(#fuzzy)"></polyline><polyline points="-40,-75,-5.814914940363938,-68.19774243475219,-5.012675398840614,-70.74469919018004,-0.8079284928137536,-75.35188393529937,5.167468124877098,-79.10509046162173,8.570496909774192,-81.36671535120331,9.581447963770582,-82.04605672384926,10.640700150672595,-81.15650991313959,13.319344076571543,-78.93458603879414,16.99323046495005,-76.09491184337305,19.38093090057373,-73.84172439575195,18.180823159592425,-73.39848980504298,12.78699552008753,-75.27720826378447,5.0097283603011595,-78.88856076034693,-1.8729811491659136,-82.91788784973272,-5.380186792955101,-86.21078789719832,-5.820735595300782,-88.34620817875593,-5.864654486299908,-89.26799502907846,-6.4308453947718,-88.31829577304069,0.07916830241374662,-84.02282670123608,37,-76" fill="none" stroke="rgb(233, 236, 239)" stroke-width="2" stroke-linejoin="round" filter="url(#fuzzy)"></polyline><polyline points="-22,-90,-10.404350965172588,-81.26759949885249,-3.3735990885643736,-75.0108701628374,-2.072700967550977,-74.57502545611989,2.08255783259164,-75.03304234138352,9.390774154435606,-73.69500568928356,16.56848062133043,-71.13158370780775,21.331970270010356,-69.10769600507645,22.86578281261446,-68.88391133320494,20.971342897184773,-70.67208918358425,16.30403110146299,-73.81388491820317,11.114925002416106,-77.19112691141925,7.956641208139775,-79.81580987904819,5.249383656050952,-81.94741666143113,-4.896548554487506,-86.06273756076345,-19,-91" fill="none" stroke="rgb(233, 236, 239)" stroke-width="2" stroke-linejoin="round" filter="url(#fuzzy)"></polyline><polyline points="1,-94,-9.053512860025519,-92.30089889042664,-8.885903373796394,-91.21432509730596,-7.263456132702663,-87.59778820294423,-3.148186322501576,-81.57069510039832,3.7973158678641132,-75.68335048629754,10.60693854555892,-72.61843640429737,14.01356368641007,-73.08348351803652,13.07090495500717,-75.56284705256849,9.280763214767756,-77.72462141947734,5.3395107400388415,-78.09444977300159,3.7361764809550015,-76.86548564751745,5.356230220165694,-75.66082380113967,8.420318134421803,-76.61799280701463,9.375560354205392,-80.97110557463293,6.846216801930453,-87.27884183454437,5.688720230488334,-91.06440659310844,18,-89" fill="none" stroke="rgb(233, 236, 239)" stroke-width="2" stroke-linejoin="round" filter="url(#fuzzy)"></polyline><polyline points="52,-57,12.42713364683116,-60.18824003802015,14.937699141135143,-65.92173912144672,15.037026947838688,-73.92523325180683,9.39607638670467,-79.86133854535561,2.9767995735123636,-82.69149824333927,-1.3976063711323519,-83.6985025869672,-4.3792916859415305,-84.33080327286096,-7.7617234704846805,-85.18683651808226,-12.122429711539999,-86.17576821599538,-16.351680396754073,-87.06859161896021,-18.850784595014343,-87.78965105483816,-18.945034753825944,-88.32024503414702,-17.222443036629635,-88.47815442479822,-14.498394935569095,-87.8173625517562,-9.91255884525697,-85.47788312644343,2.2675544232922284,-79.53384211349618,45,-67" fill="none" stroke="rgb(233, 236, 239)" stroke-width="2" stroke-linejoin="round" filter="url(#fuzzy)"></polyline><polyline points="60,-39,33.34415186818326,-62.37630356804425,22.89388192715609,-68.3665057439138,12.50005730564335,-75.16144953517649,3.5163158572254996,-81.38721352516383,-2.5004549275737347,-85.27873438298057,-5.215671077908127,-86.73259341477785,-5.131122282079628,-86.53767448062,-3.654422443185416,-85.72977330250278,-2.975825937290017,-85.03750077864031,-5.122252551476539,-84.44550728393583,-10.53267734224325,-83.28835178859761,-17.176578112928162,-81.04376354152605,-21.165627814218027,-78.29961393439167,-19.28325226661888,-76.92659068866918,-12.722966462182415,-78.88632643865421,-7.252264128094582,-84.46507744038544,8,-93" fill="none" stroke="rgb(233, 236, 239)" stroke-width="2" stroke-linejoin="round" filter="url(#fuzzy)"></polyline><polyline points="62,-33,27.82798449389394,-67.63618012892258,23.688576274501322,-75.5135427504511,27.908350560729993,-73.76522421609693,33.18004346793391,-69.80060612055013,35.73192437895198,-66.98448740925714,35.087402004117784,-65.73201725580317,33.42282967495671,-64.92701856957545,33.29125905830321,-63.56890498277114,35.318687246324345,-61.78642492189217,37.571563468160804,-60.76207910199644,36.893673221462976,-61.82084591254535,31.07958202792791,-65.34705533876597,20.489576354801017,-70.20036388312603,8.686238288477785,-74.21971897676123,2.880012320715366,-75.9571318141898,14.20619689961326,-75.17956203718506,48,-63" fill="none" stroke="rgb(233, 236, 239)" stroke-width="2" stroke-linejoin="round" filter="url(#fuzzy)"></polyline><polyline points="-49,-64,-22.382623081858814,-80.58452381523223,-5.972347645831917,-83.71327428916426,-0.6687431732665168,-82.72143760986783,-0.9974136251387947,-81.41293978682067,-3.140770223307438,-80.76858963945922,-6.228787928228361,-80.99492192612205,-9.889108076810302,-81.78253838647471,-12.954940499681902,-82.31917144534413,-13.992814883201728,-81.78381512201517,-12.341922950422424,-80.01870616528515,-8.554506310025149,-77.77961991701578,-3.9034536584295703,-76.29648627246486,0.6284597834844949,-76.4620694589249,4.889173008354893,-78.3399038768184,8.833300135586311,-81.3991137210421,11.20826802120821,-84.98220775198594,9.622052871385494,-88.06004220732768,1.0958586501896121,-88.91739943245769,-26,-88" fill="none" stroke="rgb(233, 236, 239)" stroke-width="2" stroke-linejoin="round" filter="url(#fuzzy)"></polyline><polyline points="30,-83,18.386917816005145,-84.80494257592949,1.6579116608894695,-80.79748943135417,-7.866177252536818,-76.46040321968863,-5.792683372772997,-74.90084547580922,2.881117208717665,-75.92521044057595,11.732113203037464,-78.06659696070045,17.208530472213823,-80.02719902501102,18.365759049334386,-81.13115938715352,15.189044111023543,-81.2273588356211,7.928469562581329,-80.522249979474,-2.1581290223673557,-79.52836941882319,-11.816055435164333,-78.92497603673202,-16.198717771490042,-78.9694994040245,-11.604736416502352,-78.51422351783258,-0.281138317001445,-74.8060790879897,2.4945751556977633,-66.90116736732301,-46,-68" fill="none" stroke="rgb(233, 236, 239)" stroke-width="2" stroke-linejoin="round" filter="url(#fuzzy)"></polyline><polyline points="-23,-89,12.014247844076298,-82.21635873523695,24.60369676802882,-78.74797961454323,25.048372262338585,-78.37726188211411,18.895740318402282,-77.74783523267513,9.680908936130127,-75.6720256811199,1.6507719642316794,-72.39165249857126,-1.7151316944283321,-68.77551880840294,0.44591025670130907,-65.90409582156207,6.481033907077115,-64.62948812315034,13.40936637194735,-65.19671170772799,17.85417322920836,-67.3805607710502,17.259430333808634,-71.15434148131637,13.241082032854763,-76.39949814912836,17.02441688322759,-78.71710860753235,48,-63" fill="none" stroke="rgb(233, 236, 239)" stroke-width="2" stroke-linejoin="round" filter="url(#fuzzy)"></polyline><polyline points="-19,-91,20.447208889990957,-75.41439410129038,32.77849918577395,-70.50889990133192,34.90434555457242,-68.20024486369583,31.687726528744484,-67.95636687078743,25.69284846054333,-68.59939388689853,18.488604511029916,-69.12056858379778,11.913585199549713,-69.28338160941081,8.336012106678679,-69.1912158963729,9.459150809218913,-68.85355626589696,15.080890719511837,-68.20527952638663,23.071887956699815,-67.34266876701332,30.50684752067464,-66.60643483497662,34.993601524103504,-66.40863702469983,35.40357973234313,-66.97819468499843,31.935695619784916,-68.2393954405516,25.915762007872395,-69.88649352229234,19.511602798633117,-71.59798050876303,14.977675521652419,-73.33231022847013,13.145016732372955,-75.53794302384013,12.481774107880991,-78.6799640027632,12.12352667155503,-81.22888882644313,20.110805179557477,-76.40197459075627,55,-50" fill="none" stroke="rgb(233, 236, 239)" stroke-width="2" stroke-linejoin="round" filter="url(#fuzzy)"></polyline><!--]--></g><g id="pointNose"><g id="rightNose"><!--[--><circle r="1.743244095903261" cx="9.490753258808349" cy="36.77724182734639" stroke="black" fill="none" stroke-width="1" filter="url(#fuzzy)"></circle><circle r="1.2870763965774579" cx="8.372070127908202" cy="37.39344845690782" stroke="black" fill="none" stroke-width="1" filter="url(#fuzzy)"></circle><circle r="2.5548475466404446" cx="8.010171999546417" cy="36.52821042566744" stroke="black" fill="none" stroke-width="1" filter="url(#fuzzy)"></circle><circle r="1.7670917646726836" cx="9.869683244569995" cy="35.82538993489029" stroke="black" fill="none" stroke-width="1" filter="url(#fuzzy)"></circle><circle r="1.675066569580324" cx="9.904335709831166" cy="36.909105132939175" stroke="black" fill="none" stroke-width="1" filter="url(#fuzzy)"></circle><circle r="1.0664049827821482" cx="9.858587505300687" cy="38.13738314821476" stroke="black" fill="none" stroke-width="1" filter="url(#fuzzy)"></circle><circle r="1.1491923493845089" cx="8.589354925574604" cy="37.414520635213606" stroke="black" fill="none" stroke-width="1" filter="url(#fuzzy)"></circle><circle r="1.4021200564703895" cx="9.245256097840668" cy="34.803344925950896" stroke="black" fill="none" stroke-width="1" filter="url(#fuzzy)"></circle><circle r="1.3104080359906987" cx="9.332319126400051" cy="37.80837201310722" stroke="black" fill="none" stroke-width="1" filter="url(#fuzzy)"></circle><circle r="2.545993384581105" cx="7.258938576310086" cy="35.77890476274738" stroke="black" fill="none" stroke-width="1" filter="url(#fuzzy)"></circle><!--]--></g><g id="leftNose"><!--[--><circle r="2.2993526899004424" cx="-9.413626983130465" cy="47.298463447169226" stroke="black" fill="none" stroke-width="1" filter="url(#fuzzy)"></circle><circle r="2.909830925741416" cx="-9.23141503382287" cy="43.59143453785143" stroke="black" fill="none" stroke-width="1" filter="url(#fuzzy)"></circle><circle r="1.1929112373341897" cx="-8.075614757307159" cy="47.35879139101658" stroke="black" fill="none" stroke-width="1" filter="url(#fuzzy)"></circle><circle r="2.5787586968778404" cx="-7.620130009989886" cy="43.99558288563082" stroke="black" fill="none" stroke-width="1" filter="url(#fuzzy)"></circle><circle r="2.6926021980596992" cx="-6.129796175127202" cy="45.94854854548515" stroke="black" fill="none" stroke-width="1" filter="url(#fuzzy)"></circle><circle r="2.3418243643970866" cx="-8.980313819412533" cy="47.195532012527856" stroke="black" fill="none" stroke-width="1" filter="url(#fuzzy)"></circle><circle r="2.546592917426712" cx="-9.802098287101197" cy="46.21267631830786" stroke="black" fill="none" stroke-width="1" filter="url(#fuzzy)"></circle><circle r="2.0174443565436473" cx="-7.08437731511559" cy="45.3345091067347" stroke="black" fill="none" stroke-width="1" filter="url(#fuzzy)"></circle><circle r="2.0970840341998613" cx="-6.630136528752091" cy="45.608847117478035" stroke="black" fill="none" stroke-width="1" filter="url(#fuzzy)"></circle><circle r="1.8484712372097198" cx="-6.220352891453003" cy="44.963675922580435" stroke="black" fill="none" stroke-width="1" filter="url(#fuzzy)"></circle><!--]--></g></g><g id="mouth"><polyline points="-67.27645396123611,39.45861922563408,-66.92519870448845,40.35816669154448,-66.54110981137802,41.22565653362198,-66.12461504390983,42.061567475058325,-65.67614216408886,42.866378239045254,-65.19611893392006,43.64056754877453,-64.68497311540847,44.384614127437885,-64.14313247055905,45.098996698227076,-63.5710247613768,45.78419398433385,-62.96907774986667,46.44068470894995,-62.33771919803367,47.068947595267126,-61.67737686788277,47.6694613664771,-60.988478521418976,48.24270474577167,-60.271451920647245,48.789156456342546,-59.52672482757259,49.30929522138148,-58.75472500419998,49.80359976408023,-57.95588021253442,50.27254880763053,-57.130618214580885,50.71662107522415,-56.27936677234434,51.13629529005281,-55.40255364782979,51.53205017530826,-54.50060660304222,51.904364454182264,-53.57395339998659,52.25371684986656,-52.623021800667935,52.58058608555289,-51.6482395670912,52.88545088443302,-50.650034461261384,53.16878996969867,-49.628834245183484,53.431082064541606,-48.585066680862454,53.67280589215357,-47.51915953030329,53.89444017572631,-46.431540555511,54.09646363845157,-45.322637518490545,54.279355003521104,-44.19287818124691,54.44359299412664,-43.04269030578509,54.58965633345994,-41.87250165411007,54.71802374471277,-40.68273998822683,54.82917395107684,-39.47383307014036,54.923585675743915,-38.24620866185564,55.00173764190575,-37.000294525377655,55.06410857275408,-35.7365184227114,55.11117719148066,-34.45530811586186,55.14342222127723,-33.157091366833995,55.16132238533553,-31.84229593763282,55.165356406847316,-30.5113495902633,55.15600300900436,-29.16468008673044,55.13374091499836,-27.80271518903921,55.0990488480211,-26.425882659194595,55.05240553126431,-25.034610259201585,54.99428968791977,-23.629325751065164,54.92518004117916,-22.210456896790326,54.845555314234296,-20.778431458382038,54.75589423027688,-19.333677197845294,54.65667551249867,-17.87662187718508,54.54837788409142,-16.40769325840639,54.43148006824689,-14.92731910351419,54.306460788156805,-13.435927174513475,54.17379876701292,-11.93394523340923,54.03397272800697,-10.421801042206447,53.88746139433073,-8.899922362910093,53.734743489175926,-7.368736957525172,53.57629773573431,-5.828672588056657,53.412602857197626,-4.280157016509541,53.24413757675763,-2.7236180048888077,53.07138061760605,-1.1594833151994361,52.89481070293466,0.41181929055358246,52.714906555935194,1.9898620503652644,52.53214689979939,3.5742172022306278,52.34701045771901,5.164456984144678,52.15997595288579,6.760153634102444,51.971522108491484,8.360879390098939,51.78212764772783,9.966206490129167,51.592271293786595,11.575707172188139,51.40243176985951,13.188953674270886,51.21308779913832,14.805518234372423,51.02471810481478,16.424973090487747,50.83780141008064,18.046890480611893,50.65281643812763,19.670842642739863,50.470241912147515,21.296401814866677,50.29055655533203,22.92314023498735,50.114239090872935,24.55063014109689,49.94176824196197,26.178443771190317,49.77362273179088,27.806153363262652,49.610281283551416,29.4333311553089,49.45222262043532,31.059549385324082,49.29992546563434,32.684380291303206,49.153868542340234,34.307396111241296,49.014530573744736,35.92816908313336,48.8823902830396,37.54627144497442,48.75792639341657,39.16127543475949,48.64161762806739,40.77275329048358,48.53394271018381,42.380277250141695,48.435380362957574,43.983419551728865,48.346409309580444,45.581752433240105,48.26750827324416,47.17484813267043,48.19915597714045,48.76227888801484,48.14183114446108,50.343616937268365,48.096012498397805,51.91843451842602,48.06217876214235,53.48630386948281,48.04080865888648,55.04679722843376,48.03238091182194,56.59948683327388,48.037374244140466,58.143944921998184,48.056267379033805,59.67974373260168,48.08953903969371,61.2064555030793,48.13766794931193,59.67974373260158,48.08953903969371,58.14394492199807,48.05626737903379,56.59948683327377,48.03737424414046,55.046797228433654,48.032380911821924,53.4863038694827,48.04080865888648,51.91843451842592,48.06217876214236,50.34361693726826,48.0960124983978,48.76227888801475,48.1418311444611,47.17484813267034,48.199155977140464,45.58175243324002,48.26750827324417,43.98341955172877,48.34640930958046,42.38027725014161,48.43538036295759,40.77275329048348,48.53394271018381,39.161275434759396,48.64161762806739,37.54627144497433,48.75792639341656,35.92816908313328,48.88239028303959,34.30739611124122,49.01453057374474,32.68438029130311,49.153868542340234,31.059549385323987,49.29992546563434,29.433331155308814,49.45222262043533,27.80615336326256,49.61028128355141,26.178443771190228,49.77362273179089,24.550630141096807,49.94176824196198,22.923140234987255,50.11423909087294,21.2964018148666,50.29055655533205,19.67084264273979,50.47024191214752,18.04689048061181,50.652816438127644,16.424973090487676,50.83780141008065,14.805518234372343,51.024718104814795,13.188953674270811,51.21308779913833,11.575707172188068,51.402431769859525,9.966206490129084,51.59227129378662,8.360879390098859,51.782127647727854,6.760153634102375,51.971522108491506,5.16445698414461,52.15997595288581,3.5742172022305496,52.34701045771903,1.9898620503651836,52.532146899799415,0.41181929055350297,52.714906555935215,-1.1594833151995165,52.894810702934684,-2.723618004888883,53.07138061760607,-4.280157016509616,53.244137576757645,-5.828672588056734,53.41260285719764,-7.368736957525245,53.576297735734315,-8.899922362910168,53.73474348917594,-10.421801042206521,53.88746139433075,-11.933945233409304,54.033972728006994,-13.435927174513548,54.17379876701293,-14.927319103514257,54.306460788156826,-16.40769325840646,54.4314800682469,-17.876621877185144,54.54837788409143,-19.333677197845358,54.65667551249867,-20.7784314583821,54.75589423027688,-22.210456896790387,54.84555531423428,-23.62932575106523,54.92518004117916,-25.03461025920165,54.994289687919746,-26.42588265919466,55.05240553126431,-27.80271518903927,55.099048848021106,-29.1646800867305,55.13374091499836,-30.511349590263364,55.15600300900435,-31.84229593763288,55.16535640684732,-33.15709136683405,55.161322385335524,-34.45530811586191,55.14342222127721,-35.736518422711455,55.11117719148065,-37.00029452537771,55.06410857275407,-38.24620866185569,55.001737641905734,-39.47383307014041,54.92358567574391,-40.682739988226885,54.829173951076825,-41.872501654110124,54.71802374471275,-43.042690305785136,54.589656333459935,-44.192878181246954,54.44359299412662,-45.32263751849058,54.279355003521076,-46.43154055551105,54.09646363845155,-47.51915953030334,53.89444017572629,-48.5850666808625,53.672805892153555,-49.628834245183526,53.4310820645416,-50.65003446126144,53.16878996969866,-51.64823956709125,52.885450884433006,-52.623021800667985,52.58058608555288,-53.57395339998665,52.25371684986655,-54.500606603042264,51.90436445418225,-55.40255364782983,51.53205017530824,-56.27936677234438,51.136295290052786,-57.13061821458092,50.716621075224126,-57.95588021253447,50.272548807630514,-58.75472500420003,49.803599764080204,-59.526724827572636,49.309295221381454,-60.271451920647294,48.78915645634251,-60.988478521419005,48.24270474577163,-61.6773768678828,47.66946136647708,-62.3377191980337,47.06894759526708,-62.9690777498667,46.4406847089499,-63.571024761376826,45.784193984333804,-64.1431324705591,45.09899669822703,-64.68497311540852,44.38461412743784,-65.1961189339201,43.640567548774484,-65.67614216408889,42.86637823904521,-66.12461504390987,42.061567475058276,-66.54110981137805,41.22565653362192,-66.92519870448847,40.35816669154442" fill="rgb(215,127,140)" stroke="black" stroke-width="3" stroke-linejoin="round" filter="url(#fuzzy)"></polyline></g></svg>