<svg viewBox="-100 -100 200 200" xmlns="http://www.w3.org/2000/svg" width="400" height="400" id="face-svg"><defs><clipPath id="leftEyeClipPath"><polyline points="32.795324897493295,-0.3352827952293289,32.622646953769156,-0.7027622564284224,32.418634539627156,-1.073336173589552,32.182944244369224,-1.445380341949023,31.915325117587173,-1.8173581342920313,31.61561572666921,-2.1878185873502423,31.283741214306566,-2.555394488199389,30.919710356000035,-2.918800460656853,30.523612617566528,-3.2768310516792463,30.095615212645694,-3.6283588177600086,29.635960160206448,-3.972332411326991,29.144961342053538,-4.307774667140033,28.62300156033415,-4.633780688688568,28.07052959504444,-4.9495159345892015,27.488057261536124,-5.254214304983294,26.876156468023055,-5.547176227934554,26.33370234249654,-5.997097335717663,25.739274445339987,-6.4245546702478835,25.093465738957757,-6.828114512112049,24.397204119680584,-7.2065616940536055,23.651722509146737,-7.558887830099693,22.858530080292535,-7.884279847049549,22.019384598417993,-8.182108814458292,21.13626585779309,-8.451919069250224,20.211350194270366,-8.693417631095606,19.246986054369444,-8.906463904685122,18.24567060129906,-9.091059665035942,17.21002733838234,-9.24733932196358,16.142784730350776,-9.375560459853535,15.046755802972708,-9.476094648866852,13.924818701481767,-9.549418523713591,12.77989818827104,-9.596105126128347,11.614948060318492,-9.616815507181833,10.432934466809291,-9.612290585562643,9.2368201074207,-9.583343257963232,8.029549291735094,-9.53085075770419,6.8140338402467515,-9.45574725773086,5.593139807428071,-9.359016714116432,4.3696750073208115,-9.241685946205486,3.1463773221179485,-9.104817949532144,1.9259037742018434,-8.949505437646838,0.7108203421042855,-8.776864608985779,-0.4964074991459527,-8.588029134917225,-1.6934235328223979,-8.38414436509856,-2.877988869981425,-8.16636174627833,-4.0479893531583775,-7.935833450677204,-5.201442313813724,-7.693707210082027,-6.336502703063544,-7.441121351786955,-7.451468615228774,-7.179200032515838,-8.544786223737567,-6.90904866645977,-9.615054148915156,-6.631749543564051,-10.661027277195583,-6.348357634198455,-11.681620051289679,-6.059896576345044,-12.675909250843677,-5.767354841437446,-13.643136283122825,-5.471682074985783,-14.58270900325438,-5.173785608121201,-15.494203083564358,-4.8745271361942075,-16.37736295154242,-4.574719560560745,-17.232102315969275,-4.275123989690225,-18.058504300740942,-3.976446895729384,-18.856821205924334,-3.6793374226562667,-19.627473915578406,-3.3843848421582097,-20.37105097187542,-3.0921161533680026,-21.08830733505651,-2.8029938225922777,-21.780162848756014,-2.5174136591661362,-22.44770043022914,-2.2357028235681913,-23.09177171279717,-1.957348089133407,-23.712572391358464,-1.6818322042371916,-24.310350655548724,-1.4094071724292396,-24.88539005515397,-1.1403034085467487,-25.43800688389932,-0.8747302564730912,-25.968547563237824,-0.6128765068964741,-26.477386026139303,-0.3549109150686105,-26.96492110087915,-0.10098271856337515,-27.431573894827135,0.14877784496452318,-27.87778517823626,0.39425902002087554,-28.304012768031562,0.6353670155133146,-28.710728911598927,0.872025486992646,-29.098417670573923,1.104175018894182,-29.46757230463061,1.331772606779079,-29.71511505277655,5.559201160345309,-29.377915754933426,5.678623867042443,-29.024709144397644,5.797714158602848,-28.655121902414297,5.91638877270601,-28.26878951706291,6.034559475809869,-27.86535787370678,6.152133305835551,-27.444484845442503,6.2690128148521005,-27.005841883549394,6.385096311761208,-26.549115607938962,6.500278104981941,-26.074009397604303,6.614448745135472,-25.580244981069626,6.7274952677298065,-25.06756402683965,6.83930143584452,-24.53572973384909,6.949747982815478,-23.98452842191205,7.0587128549195715,-23.413771122171568,7.166071454059448,-22.823010399461236,7.27224631012049,-22.211304710056968,7.377563659495093,-21.577827256933695,7.481751133418179,-20.921864280132517,7.584534763282169,-20.242816463084637,7.6856395996798454,-19.54020015455092,7.784790336992428,-18.813648394301378,7.881711941710835,-18.06291173065933,7.976130282678069,-17.287858818034852,8.067772761440683,-16.488476782572306,8.156368940897286,-15.664871344036289,8.241651170432048,-14.817266682061025,8.323355205721125,-13.946005034887495,8.401220821400015,-13.051546018713186,8.474992414779747,-12.134465655779014,8.544419598799877,-11.195455099318036,8.609257782406257,-10.235319043490678,8.669268736541511,-9.254973806431027,8.724221143936173,-8.25544507452893,8.773891130888469,-7.237865296072456,8.818062779220654,-6.2034707123754265,8.856528616599894,-5.1535980145146265,8.889090083411627,-4.0896806138013515,8.915557974373371,-3.01324451411192,8.935752853076908,-1.9259037742018434,8.949505437646838,-0.8293555481282177,8.956656955703417,0.2746253080949421,8.95705946681766,1.384192075483834,8.950576150646642,2.4974324685897846,8.937081558936981,3.6123754013973333,8.916461829584419,4.726998234490831,8.888614860937487,5.8392345153649,8.853450444533191,6.94698222375412,8.810890354452674,8.048112533857315,8.760868391484816,9.14047910533173,8.703330380285728,10.221927914932571,8.638234117722067,11.290307640673111,8.56554927058617,12.343480610380883,8.48525722087092,13.379334326525157,8.397350856792333,14.395793579191196,8.301834307747772,15.390833159076553,8.198722621397815,16.3624911823848,8.088041381059657,17.30888303949203,7.9698262616000335,18.228215979261538,7.844122522015638,19.118804340881944,7.710984432888942,19.97908544510421,7.570474636907418,20.807636156752853,7.422663440634084,21.603190130386707,7.267628035717342,22.364655750984628,7.105451647728067,23.091134781531448,6.936222610811879,23.80772024912945,6.786401928101855,24.50430282917739,6.629511847494065,25.180218099564822,6.465390523822528,25.834826672918044,6.2938704704043005,26.467515826137692,6.114778396804736,27.077701129936283,5.92793504660273,27.664828078375812,5.733155035155988,28.228373718405305,5.530246687366265,28.76784827939837,5.319011875444629,29.2827968026908,5.099245856676719,29.77280077111812,4.870737111187983,30.237479738553166,4.633267179708956,30.67649295944364,4.386610501340493,31.08954101834967,4.130534251319034,31.476367459481423,3.864798178781863"></polyline></clipPath><clipPath id="rightEyeClipPath"><polyline points="-32.30234753368527,-0.5426485366723961,-32.27697043181131,-1.0326265740647305,-32.211737739692694,-1.5252937026347304,-32.106573982263534,-2.0184424045706564,-31.961493649595543,-2.5099908651160305,-31.77659818552615,-2.997980126485043,-31.552072976286546,-3.480571241778007,-31.288184339129778,-3.9560424288967724,-30.985276510958858,-4.422786224460163,-30.643768636954793,-4.879306637719399,-30.264151759204722,-5.324216304473534,-29.84698580532996,-5.756233640984881,-29.39289657711411,-6.174179997894456,-28.90257273913114,-6.576976814137382,-28.376762807373417,-6.963642770858341,-27.81627213787989,-7.3332909453270005,-27.332738375469024,-7.9197802855924255,-26.79105126614341,-8.473310726019559,-26.19200612612269,-8.992069173637349,-25.536748428705362,-9.474561159317215,-24.82674172446625,-9.919591985137004,-24.063736801822287,-10.326248419980644,-23.24974206631365,-10.69388093535347,-22.38699511694726,-11.022086473393323,-21.47793549794966,-11.310691739057368,-20.525178604276356,-11.55973700846474,-19.531490719224607,-11.769460445375007,-18.499765162496715,-11.940282917782483,-17.432999527060826,-12.072793306606428,-16.33427398315631,-12.167734298457201,-15.206730627790709,-12.225988654458313,-14.05355385807531,-12.248565947104495,-12.87795174674636,-12.236589757135786,-11.683138398218999,-12.191285322407634,-10.472317263520832,-12.113967630737115,-9.248665392452342,-12.006029948705216,-8.015318601320967,-11.86893277839528,-6.7753575345960915,-11.704193234047654,-5.531794598831781,-11.513374830610449,-4.2875617472044425,-11.298077676166617,-3.045499093012374,-11.059929060217279,-1.8083443304842188,-10.800574429801287,-0.5787229412434067,-10.521668745431196,0.6408608352244145,-10.224868208825516,1.8480322887539549,-9.911822354417442,3.0405538049857497,-9.584166496619897,4.216331732807598,-9.243514524827116,5.37342257440484,-8.891452038132662,6.510038519572529,-8.529529811743988,7.624552345942364,-8.159257587073506,8.715501706777491,-7.782098177486276,9.781592827988003,-7.399461881684264,10.821703636020175,-7.012701196707253,11.834886338272428,-6.623105822530444,12.82036947769092,-6.231897950238725,13.777559483197821,-5.840227825757703,14.706041737605128,-5.449169581121458,15.605581184667093,-5.059717325257136,16.476122496924198,-4.67278148626635,17.317789825991603,-4.2891853971834415,18.130886156945124,-3.909662117190617,18.915892288457595,-3.5348514802700137,19.67346546033873,-3.1652973632727353,20.40443765013128,-2.8014451653848482,21.10981356041659,-2.4436394909703605,21.79076831848254,-2.0921220277713406,22.448122216196904,-1.7463683879344156,23.082002611237304,-1.4059331115574807,23.692700237643834,-1.0710747900370148,24.280541781823587,-0.7420220447619199,24.845886982599463,-0.4189746012164992,25.389125731258947,-0.10210436308339865,25.910675171602975,0.2084435136534175,26.410976799994692,0.5125495466057286,26.890493565408295,0.8101188528780776,27.349706969477825,1.101080074964826,27.78911416654598,1.385384306647194,28.20922506371294,1.6630040188902973,28.610559420885167,1.9339319857401902,28.993643950824204,2.1981802102209134,28.914105178507185,7.663419424468472,28.57142177625,7.784834800936497,28.214953714802512,7.906208410770478,27.84442887793862,8.027435783918603,27.45958383081624,8.148405616246052,27.060164648264426,8.269000150551637,26.645927743070622,8.38909555758445,26.216640694267735,8.508562317060498,25.772083075421396,8.627265598679344,25.312047282917064,8.745065643140748,24.836339364247216,8.861818143161315,24.34477984629854,8.97737462449112,23.83720456363906,9.091582826930367,23.31346548680533,9.204287085346014,22.77343155058962,9.315328710688428,22.216389956782827,9.425190748231149,21.641270033667126,9.534237849051733,21.04747349032161,9.642130763476885,20.4344781474102,9.748529494720888,19.801839042216525,9.853093919971384,19.1491894158141,9.95548441500376,18.47624157618721,10.055362479479209,17.782787631117994,10.152391360081559,17.068700084655166,10.24623666864791,16.333932290979824,10.336566992448219,15.578518759483815,10.423054493768827,14.802575304876159,10.505375495955064,14.00629903613281,10.583211053068005,13.189968178105506,10.656247500310396,12.353941719604848,10.724176982376914,11.498658881773299,10.786697956883753,10.62463840056344,10.843515670032666,9.73247761713696,10.894342601664516,8.82285136999989,10.938898876857419,7.896510682689415,10.976912641224555,6.954281240827882,11.008120397066701,5.99706165235931,11.032267297534608,5.025821484783972,11.049107395956263,4.041599073206397,11.058403847484097,3.0454990930123746,11.059929060217279,2.0386898909902937,11.053464792954081,1.02240056871236,11.038802196729485,-0.0020821880089116895,11.015741797293023,-1.0334175397734144,10.984093415681993,-2.070214190539979,10.943676024045086,-3.1110343570512335,10.894317533871497,-4.15439801692132,10.835854513780646,-5.198787441571045,10.768131834027512,-6.242652020195001,10.69100223487872,-7.284413380945164,10.60432581601441,-8.322470815515597,10.507969444110994,-9.355207013312684,10.401806075759875,-10.380994111395555,10.285713992877167,-11.398200066371174,10.15957594775955,-12.40519535442866,10.023278214941286,-13.400360005697381,9.876709547007497,-14.382090979113373,9.719760031518783,-15.348809883978598,9.552319846202227,-16.298971054397633,9.374277909563911,-17.23106998277629,9.185520424077957,-18.143652118566745,8.985929309107245,-19.035322038443695,8.775380520710797,-19.904752994096093,8.553742255492992,-20.750696843819036,8.320873035649598,-21.571994374090284,8.076619672365775,-22.327997820506987,7.846687475984684,-23.06873243118549,7.604369804987259,-23.793381003455817,7.3491971554057205,-24.501122694553832,7.080680543017117,-25.19113362828428,6.798311025675929,-25.862587501683873,6.501559225646666,-26.514656191684317,6.1898748519364775,-27.14651036177542,5.8626862226277465,-27.75732006866811,5.519399787210696,-28.346255368957536,5.159399648915996,-28.91248692578609,4.782047087047351,-29.455186615506516,4.386680079314123,-29.973528134344928,3.972612824163917,-30.466687605063896,3.5391352631151896,-30.933844183625517,3.085512603089861"></polyline></clipPath><filter id="fuzzy"><feTurbulence id="turbulence" baseFrequency="0.05" numOctaves="3" type="noise" result="noise"></feTurbulence><feDisplacementMap in="SourceGraphic" in2="noise" scale="2"></feDisplacementMap></filter><linearGradient id="rainbowGradient" x1="0%" y1="0%" x2="100%" y2="0%"><stop offset="0%" style="stop-color: rgb(167, 133, 106);  stop-opacity: 1"></stop><stop offset="50%" style="stop-color: rgb(165, 42, 42);  stop-opacity: 1"></stop><stop offset="100%" style="stop-color: rgb(44, 34, 43);  stop-opacity: 1"></stop></linearGradient></defs><title>That&#39;s an ugly face</title><desc>CREATED BY XUAN TANG, MORE INFO AT TXSTC55.GITHUB.IO</desc><rect x="-100" y="-100" width="100%" height="100%" opacity="1" fill="rgb(211, 211, 211)"></rect><polyline id="faceContour" points="74,-1,74,0,74,3,74,5,74,6,75,8,74,11,74,10,74,13,74,14,74,16,74,16,74,19,74,19,74,20,73,22,73,24,73,25,72,28,72,28,72,31,72,33,72,32,71,34,71,37,71,35,70,39,70,38,70,39,69,41,69,41,69,43,67,47,67,46,66,48,66,49,66,50,65,51,64,54,63,55,63,55,62,58,62,58,60,60,59,62,59,62,58,63,58,63,57,65,56,66,54,68,53,69,53,70,53,70,52,71,50,73,49,74,48,75,50,73,48,75,46,76,45,77,45,78,45,78,43,79,41,80,41,81,40,81,39,82,36,84,36,84,36,84,34,85,33,85,33,86,30,87,31,86,29,87,27,88,26,89,23,90,23,90,23,90,21,90,21,90,19,91,18,91,18,91,17,91,14,92,12,92,12,92,9,93,9,93,8,93,5,93,4,93,3,93,4,93,2,93,-1,93,-1,93,-3,93,-3,93,-4,93,-7,93,-8,92,-9,92,-9,92,-13,91,-11,92,-15,91,-15,91,-17,91,-18,90,-19,90,-21,89,-20,90,-23,88,-24,88,-24,88,-25,88,-26,87,-28,87,-29,86,-31,85,-30,85,-33,84,-34,83,-34,83,-35,83,-38,81,-40,80,-39,81,-42,78,-41,79,-43,77,-44,77,-44,77,-46,75,-46,75,-49,72,-49,72,-49,72,-50,71,-50,71,-52,69,-53,68,-53,68,-54,66,-55,66,-56,64,-58,62,-57,63,-59,60,-59,60,-61,58,-61,57,-62,55,-63,54,-62,55,-63,53,-64,51,-65,50,-66,48,-66,47,-66,47,-67,45,-67,46,-68,43,-69,40,-69,40,-70,39,-70,36,-70,36,-71,35,-71,33,-71,32,-72,31,-71,31,-73,26,-72,29,-73,24,-73,24,-73,22,-74,20,-74,18,-74,18,-74,18,-74,16,-74,13,-74,14,-74,12,-74,11,-75,9,-75,8,-74,5,-74,6,-75,3,-74,2,-74,0,-74,-1,-74,-3,-74,-5,-74,-5,-73,-7,-73,-9,-73,-11,-73,-14,-73,-11,-72,-16,-72,-15,-72,-16,-72,-19,-71,-19,-71,-20,-70,-24,-70,-24,-70,-26,-69,-28,-69,-29,-69,-30,-69,-29,-68,-31,-67,-35,-67,-35,-67,-35,-66,-38,-66,-38,-64,-41,-65,-40,-63,-42,-64,-42,-62,-46,-62,-47,-61,-48,-61,-49,-61,-49,-59,-51,-58,-53,-58,-54,-57,-55,-56,-57,-56,-57,-55,-58,-55,-59,-54,-60,-52,-62,-52,-62,-50,-65,-51,-64,-50,-66,-48,-67,-46,-69,-47,-68,-47,-68,-46,-70,-44,-72,-44,-72,-42,-74,-42,-74,-40,-75,-40,-76,-40,-77,-37,-78,-36,-79,-36,-79,-36,-79,-35,-80,-32,-82,-32,-82,-30,-83,-29,-84,-29,-84,-29,-84,-28,-85,-26,-86,-25,-86,-25,-87,-24,-87,-21,-88,-21,-88,-19,-89,-18,-90,-17,-90,-17,-90,-14,-91,-14,-91,-13,-91,-11,-92,-10,-92,-9,-92,-9,-92,-6,-93,-7,-93,-6,-93,-6,-93,-4,-93,-2,-93,-2,-93,1,-93,1,-93,2,-93,3,-93,4,-93,6,-93,6,-93,9,-93,8,-93,11,-92,12,-92,13,-92,12,-92,14,-91,15,-91,16,-91,19,-90,19,-90,21,-90,21,-89,23,-89,23,-89,24,-88,25,-88,25,-88,27,-87,29,-85,29,-86,29,-85,31,-84,33,-83,34,-82,34,-82,34,-82,37,-80,37,-80,39,-79,37,-80,40,-78,41,-77,40,-77,43,-74,44,-74,44,-74,45,-73,45,-73,47,-71,46,-71,48,-70,50,-67,51,-66,50,-66,52,-65,53,-63,54,-61,54,-61,54,-61,55,-60,55,-59,58,-56,57,-57,59,-54,59,-53,59,-53,61,-50,62,-48,62,-48,62,-48,63,-46,63,-45,64,-44,65,-41,65,-40,65,-40,67,-36,67,-36,66,-37,68,-34,68,-32,68,-31,69,-30,69,-28,70,-27,70,-25,71,-24,71,-22,71,-20,72,-19,72,-18,73,-15,73,-13,73,-13,73,-12,73,-12,73,-11,73,-9,74,-5,74,-5,74,-3,74,-3,74,-1,74,0" fill="#ffc9a9" stroke="black" stroke-width="1.6666666666666665" stroke-linejoin="round" filter="url(#fuzzy)"></polyline><g transform="translate(27.826567771502873 -33.71727916425718)"><polyline id="rightCountour" points="-32.30234753368527,-0.5426485366723961,-32.27697043181131,-1.0326265740647305,-32.211737739692694,-1.5252937026347304,-32.106573982263534,-2.0184424045706564,-31.961493649595543,-2.5099908651160305,-31.77659818552615,-2.997980126485043,-31.552072976286546,-3.480571241778007,-31.288184339129778,-3.9560424288967724,-30.985276510958858,-4.422786224460163,-30.643768636954793,-4.879306637719399,-30.264151759204722,-5.324216304473534,-29.84698580532996,-5.756233640984881,-29.39289657711411,-6.174179997894456,-28.90257273913114,-6.576976814137382,-28.376762807373417,-6.963642770858341,-27.81627213787989,-7.3332909453270005,-27.332738375469024,-7.9197802855924255,-26.79105126614341,-8.473310726019559,-26.19200612612269,-8.992069173637349,-25.536748428705362,-9.474561159317215,-24.82674172446625,-9.919591985137004,-24.063736801822287,-10.326248419980644,-23.24974206631365,-10.69388093535347,-22.38699511694726,-11.022086473393323,-21.47793549794966,-11.310691739057368,-20.525178604276356,-11.55973700846474,-19.531490719224607,-11.769460445375007,-18.499765162496715,-11.940282917782483,-17.432999527060826,-12.072793306606428,-16.33427398315631,-12.167734298457201,-15.206730627790709,-12.225988654458313,-14.05355385807531,-12.248565947104495,-12.87795174674636,-12.236589757135786,-11.683138398218999,-12.191285322407634,-10.472317263520832,-12.113967630737115,-9.248665392452342,-12.006029948705216,-8.015318601320967,-11.86893277839528,-6.7753575345960915,-11.704193234047654,-5.531794598831781,-11.513374830610449,-4.2875617472044425,-11.298077676166617,-3.045499093012374,-11.059929060217279,-1.8083443304842188,-10.800574429801287,-0.5787229412434067,-10.521668745431196,0.6408608352244145,-10.224868208825516,1.8480322887539549,-9.911822354417442,3.0405538049857497,-9.584166496619897,4.216331732807598,-9.243514524827116,5.37342257440484,-8.891452038132662,6.510038519572529,-8.529529811743988,7.624552345942364,-8.159257587073506,8.715501706777491,-7.782098177486276,9.781592827988003,-7.399461881684264,10.821703636020175,-7.012701196707253,11.834886338272428,-6.623105822530444,12.82036947769092,-6.231897950238725,13.777559483197821,-5.840227825757703,14.706041737605128,-5.449169581121458,15.605581184667093,-5.059717325257136,16.476122496924198,-4.67278148626635,17.317789825991603,-4.2891853971834415,18.130886156945124,-3.909662117190617,18.915892288457595,-3.5348514802700137,19.67346546033873,-3.1652973632727353,20.40443765013128,-2.8014451653848482,21.10981356041659,-2.4436394909703605,21.79076831848254,-2.0921220277713406,22.448122216196904,-1.7463683879344156,23.082002611237304,-1.4059331115574807,23.692700237643834,-1.0710747900370148,24.280541781823587,-0.7420220447619199,24.845886982599463,-0.4189746012164992,25.389125731258947,-0.10210436308339865,25.910675171602975,0.2084435136534175,26.410976799994692,0.5125495466057286,26.890493565408295,0.8101188528780776,27.349706969477825,1.101080074964826,27.78911416654598,1.385384306647194,28.20922506371294,1.6630040188902973,28.610559420885167,1.9339319857401902,28.993643950824204,2.1981802102209134,28.914105178507185,7.663419424468472,28.57142177625,7.784834800936497,28.214953714802512,7.906208410770478,27.84442887793862,8.027435783918603,27.45958383081624,8.148405616246052,27.060164648264426,8.269000150551637,26.645927743070622,8.38909555758445,26.216640694267735,8.508562317060498,25.772083075421396,8.627265598679344,25.312047282917064,8.745065643140748,24.836339364247216,8.861818143161315,24.34477984629854,8.97737462449112,23.83720456363906,9.091582826930367,23.31346548680533,9.204287085346014,22.77343155058962,9.315328710688428,22.216389956782827,9.425190748231149,21.641270033667126,9.534237849051733,21.04747349032161,9.642130763476885,20.4344781474102,9.748529494720888,19.801839042216525,9.853093919971384,19.1491894158141,9.95548441500376,18.47624157618721,10.055362479479209,17.782787631117994,10.152391360081559,17.068700084655166,10.24623666864791,16.333932290979824,10.336566992448219,15.578518759483815,10.423054493768827,14.802575304876159,10.505375495955064,14.00629903613281,10.583211053068005,13.189968178105506,10.656247500310396,12.353941719604848,10.724176982376914,11.498658881773299,10.786697956883753,10.62463840056344,10.843515670032666,9.73247761713696,10.894342601664516,8.82285136999989,10.938898876857419,7.896510682689415,10.976912641224555,6.954281240827882,11.008120397066701,5.99706165235931,11.032267297534608,5.025821484783972,11.049107395956263,4.041599073206397,11.058403847484097,3.0454990930123746,11.059929060217279,2.0386898909902937,11.053464792954081,1.02240056871236,11.038802196729485,-0.0020821880089116895,11.015741797293023,-1.0334175397734144,10.984093415681993,-2.070214190539979,10.943676024045086,-3.1110343570512335,10.894317533871497,-4.15439801692132,10.835854513780646,-5.198787441571045,10.768131834027512,-6.242652020195001,10.69100223487872,-7.284413380945164,10.60432581601441,-8.322470815515597,10.507969444110994,-9.355207013312684,10.401806075759875,-10.380994111395555,10.285713992877167,-11.398200066371174,10.15957594775955,-12.40519535442866,10.023278214941286,-13.400360005697381,9.876709547007497,-14.382090979113373,9.719760031518783,-15.348809883978598,9.552319846202227,-16.298971054397633,9.374277909563911,-17.23106998277629,9.185520424077957,-18.143652118566745,8.985929309107245,-19.035322038443695,8.775380520710797,-19.904752994096093,8.553742255492992,-20.750696843819036,8.320873035649598,-21.571994374090284,8.076619672365775,-22.327997820506987,7.846687475984684,-23.06873243118549,7.604369804987259,-23.793381003455817,7.3491971554057205,-24.501122694553832,7.080680543017117,-25.19113362828428,6.798311025675929,-25.862587501683873,6.501559225646666,-26.514656191684317,6.1898748519364775,-27.14651036177542,5.8626862226277465,-27.75732006866811,5.519399787210696,-28.346255368957536,5.159399648915996,-28.91248692578609,4.782047087047351,-29.455186615506516,4.386680079314123,-29.973528134344928,3.972612824163917,-30.466687605063896,3.5391352631151896,-30.933844183625517,3.085512603089861" fill="white" stroke="white" stroke-width="0" stroke-linejoin="round" filter="url(#fuzzy)"></polyline></g><g transform="translate(-35.11899483664972 -27.29674449942888)"><polyline id="leftCountour" points="32.795324897493295,-0.3352827952293289,32.622646953769156,-0.7027622564284224,32.418634539627156,-1.073336173589552,32.182944244369224,-1.445380341949023,31.915325117587173,-1.8173581342920313,31.61561572666921,-2.1878185873502423,31.283741214306566,-2.555394488199389,30.919710356000035,-2.918800460656853,30.523612617566528,-3.2768310516792463,30.095615212645694,-3.6283588177600086,29.635960160206448,-3.972332411326991,29.144961342053538,-4.307774667140033,28.62300156033415,-4.633780688688568,28.07052959504444,-4.9495159345892015,27.488057261536124,-5.254214304983294,26.876156468023055,-5.547176227934554,26.33370234249654,-5.997097335717663,25.739274445339987,-6.4245546702478835,25.093465738957757,-6.828114512112049,24.397204119680584,-7.2065616940536055,23.651722509146737,-7.558887830099693,22.858530080292535,-7.884279847049549,22.019384598417993,-8.182108814458292,21.13626585779309,-8.451919069250224,20.211350194270366,-8.693417631095606,19.246986054369444,-8.906463904685122,18.24567060129906,-9.091059665035942,17.21002733838234,-9.24733932196358,16.142784730350776,-9.375560459853535,15.046755802972708,-9.476094648866852,13.924818701481767,-9.549418523713591,12.77989818827104,-9.596105126128347,11.614948060318492,-9.616815507181833,10.432934466809291,-9.612290585562643,9.2368201074207,-9.583343257963232,8.029549291735094,-9.53085075770419,6.8140338402467515,-9.45574725773086,5.593139807428071,-9.359016714116432,4.3696750073208115,-9.241685946205486,3.1463773221179485,-9.104817949532144,1.9259037742018434,-8.949505437646838,0.7108203421042855,-8.776864608985779,-0.4964074991459527,-8.588029134917225,-1.6934235328223979,-8.38414436509856,-2.877988869981425,-8.16636174627833,-4.0479893531583775,-7.935833450677204,-5.201442313813724,-7.693707210082027,-6.336502703063544,-7.441121351786955,-7.451468615228774,-7.179200032515838,-8.544786223737567,-6.90904866645977,-9.615054148915156,-6.631749543564051,-10.661027277195583,-6.348357634198455,-11.681620051289679,-6.059896576345044,-12.675909250843677,-5.767354841437446,-13.643136283122825,-5.471682074985783,-14.58270900325438,-5.173785608121201,-15.494203083564358,-4.8745271361942075,-16.37736295154242,-4.574719560560745,-17.232102315969275,-4.275123989690225,-18.058504300740942,-3.976446895729384,-18.856821205924334,-3.6793374226562667,-19.627473915578406,-3.3843848421582097,-20.37105097187542,-3.0921161533680026,-21.08830733505651,-2.8029938225922777,-21.780162848756014,-2.5174136591661362,-22.44770043022914,-2.2357028235681913,-23.09177171279717,-1.957348089133407,-23.712572391358464,-1.6818322042371916,-24.310350655548724,-1.4094071724292396,-24.88539005515397,-1.1403034085467487,-25.43800688389932,-0.8747302564730912,-25.968547563237824,-0.6128765068964741,-26.477386026139303,-0.3549109150686105,-26.96492110087915,-0.10098271856337515,-27.431573894827135,0.14877784496452318,-27.87778517823626,0.39425902002087554,-28.304012768031562,0.6353670155133146,-28.710728911598927,0.872025486992646,-29.098417670573923,1.104175018894182,-29.46757230463061,1.331772606779079,-29.71511505277655,5.559201160345309,-29.377915754933426,5.678623867042443,-29.024709144397644,5.797714158602848,-28.655121902414297,5.91638877270601,-28.26878951706291,6.034559475809869,-27.86535787370678,6.152133305835551,-27.444484845442503,6.2690128148521005,-27.005841883549394,6.385096311761208,-26.549115607938962,6.500278104981941,-26.074009397604303,6.614448745135472,-25.580244981069626,6.7274952677298065,-25.06756402683965,6.83930143584452,-24.53572973384909,6.949747982815478,-23.98452842191205,7.0587128549195715,-23.413771122171568,7.166071454059448,-22.823010399461236,7.27224631012049,-22.211304710056968,7.377563659495093,-21.577827256933695,7.481751133418179,-20.921864280132517,7.584534763282169,-20.242816463084637,7.6856395996798454,-19.54020015455092,7.784790336992428,-18.813648394301378,7.881711941710835,-18.06291173065933,7.976130282678069,-17.287858818034852,8.067772761440683,-16.488476782572306,8.156368940897286,-15.664871344036289,8.241651170432048,-14.817266682061025,8.323355205721125,-13.946005034887495,8.401220821400015,-13.051546018713186,8.474992414779747,-12.134465655779014,8.544419598799877,-11.195455099318036,8.609257782406257,-10.235319043490678,8.669268736541511,-9.254973806431027,8.724221143936173,-8.25544507452893,8.773891130888469,-7.237865296072456,8.818062779220654,-6.2034707123754265,8.856528616599894,-5.1535980145146265,8.889090083411627,-4.0896806138013515,8.915557974373371,-3.01324451411192,8.935752853076908,-1.9259037742018434,8.949505437646838,-0.8293555481282177,8.956656955703417,0.2746253080949421,8.95705946681766,1.384192075483834,8.950576150646642,2.4974324685897846,8.937081558936981,3.6123754013973333,8.916461829584419,4.726998234490831,8.888614860937487,5.8392345153649,8.853450444533191,6.94698222375412,8.810890354452674,8.048112533857315,8.760868391484816,9.14047910533173,8.703330380285728,10.221927914932571,8.638234117722067,11.290307640673111,8.56554927058617,12.343480610380883,8.48525722087092,13.379334326525157,8.397350856792333,14.395793579191196,8.301834307747772,15.390833159076553,8.198722621397815,16.3624911823848,8.088041381059657,17.30888303949203,7.9698262616000335,18.228215979261538,7.844122522015638,19.118804340881944,7.710984432888942,19.97908544510421,7.570474636907418,20.807636156752853,7.422663440634084,21.603190130386707,7.267628035717342,22.364655750984628,7.105451647728067,23.091134781531448,6.936222610811879,23.80772024912945,6.786401928101855,24.50430282917739,6.629511847494065,25.180218099564822,6.465390523822528,25.834826672918044,6.2938704704043005,26.467515826137692,6.114778396804736,27.077701129936283,5.92793504660273,27.664828078375812,5.733155035155988,28.228373718405305,5.530246687366265,28.76784827939837,5.319011875444629,29.2827968026908,5.099245856676719,29.77280077111812,4.870737111187983,30.237479738553166,4.633267179708956,30.67649295944364,4.386610501340493,31.08954101834967,4.130534251319034,31.476367459481423,3.864798178781863" fill="white" stroke="white" stroke-width="0" stroke-linejoin="round" filter="url(#fuzzy)"></polyline></g><g transform="translate(27.826567771502873 -33.71727916425718)"><polyline id="rightUpper" points="-30.451019443433374,3.628002358084453,-30.798101654187153,3.31601833473686,-31.11169360974549,2.971730235450072,-31.390654558210954,2.5987591432396764,-31.63396382654288,2.200571977220317,-31.840717809185502,1.7804843386902505,-32.01012695669596,1.3416633572159258,-32.141512764372465,0.8871305367165538,-32.2343047608823,0.4197646015486738,-32.28803749688998,-0.05769565740927973,-32.30234753368527,-0.5426485366723961,-32.27697043181131,-1.0326265740647305,-32.211737739692694,-1.5252937026347304,-32.106573982263534,-2.0184424045706564,-31.961493649595543,-2.5099908651160305,-31.77659818552615,-2.997980126485043,-31.552072976286546,-3.480571241778007,-31.288184339129778,-3.9560424288967724,-30.985276510958858,-4.422786224460163,-30.643768636954793,-4.879306637719399,-30.264151759204722,-5.324216304473534,-29.84698580532996,-5.756233640984881,-29.39289657711411,-6.174179997894456,-28.90257273913114,-6.576976814137382,-28.376762807373417,-6.963642770858341,-27.81627213787989,-7.3332909453270005,-27.332738375469024,-7.9197802855924255,-26.79105126614341,-8.473310726019559,-26.19200612612269,-8.992069173637349,-25.536748428705362,-9.474561159317215,-24.82674172446625,-9.919591985137004,-24.063736801822287,-10.326248419980644,-23.24974206631365,-10.69388093535347,-22.38699511694726,-11.022086473393323,-21.47793549794966,-11.310691739057368,-20.525178604276356,-11.55973700846474,-19.531490719224607,-11.769460445375007,-18.499765162496715,-11.940282917782483,-17.432999527060826,-12.072793306606428,-16.33427398315631,-12.167734298457201,-15.206730627790709,-12.225988654458313,-14.05355385807531,-12.248565947104495,-12.87795174674636,-12.236589757135786,-11.683138398218999,-12.191285322407634,-10.472317263520832,-12.113967630737115,-9.248665392452342,-12.006029948705216,-8.015318601320967,-11.86893277839528,-6.7753575345960915,-11.704193234047654,-5.531794598831781,-11.513374830610449,-4.2875617472044425,-11.298077676166617,-3.045499093012374,-11.059929060217279,-1.8083443304842188,-10.800574429801287,-0.5787229412434067,-10.521668745431196,0.6408608352244145,-10.224868208825516,1.8480322887539549,-9.911822354417442,3.0405538049857497,-9.584166496619897,4.216331732807598,-9.243514524827116,5.37342257440484,-8.891452038132662,6.510038519572529,-8.529529811743988,7.624552345942364,-8.159257587073506,8.715501706777491,-7.782098177486276,9.781592827988003,-7.399461881684264,10.821703636020175,-7.012701196707253,11.834886338272428,-6.623105822530444,12.82036947769092,-6.231897950238725,13.777559483197821,-5.840227825757703,14.706041737605128,-5.449169581121458,15.605581184667093,-5.059717325257136,16.476122496924198,-4.67278148626635,17.317789825991603,-4.2891853971834415,18.130886156945124,-3.909662117190617,18.915892288457595,-3.5348514802700137,19.67346546033873,-3.1652973632727353,20.40443765013128,-2.8014451653848482,21.10981356041659,-2.4436394909703605,21.79076831848254,-2.0921220277713406,22.448122216196904,-1.7463683879344156,23.082002611237304,-1.4059331115574807,23.692700237643834,-1.0710747900370148,24.280541781823587,-0.7420220447619199,24.845886982599463,-0.4189746012164992,25.389125731258947,-0.10210436308339865,25.910675171602975,0.2084435136534175,26.410976799994692,0.5125495466057286,26.890493565408295,0.8101188528780776,27.349706969477825,1.101080074964826,27.78911416654598,1.385384306647194,28.20922506371294,1.6630040188902973,28.610559420885167,1.9339319857401902,28.993643950824204,2.1981802102209134,29.359009419195505,2.455778850231523,29.70718774461724,2.706775144443145,30.038709098709088,2.9512323381960086,30.35409900614108,3.1892286093964866,30.653875444682367,3.420855994414144,30.938545945250073,3.6462193139787797,31.208604691958097,3.8654350990774557,31.46452962216588,4.078630516851552,31.706779526527274,4.285942296493802,31.935791149039314,4.487515655145334" fill="none" stroke="black" stroke-width="1.6666666666666665" stroke-linejoin="round" filter="url(#fuzzy)"></polyline><polyline id="rightLower" points="-33.99804848935087,-2.738990444715771,-33.83496618646502,-2.0377200322003475,-33.637972842889745,-1.3654081390798583,-33.40782560419939,-0.7210463546039065,-33.1452907157984,-0.10365577929259917,-32.85114291625834,0.4877134527308229,-32.526164830654764,1.053982651407403,-32.171146363904185,1.596045048409846,-31.786884094101,2.11476627480993,-31.374180665854446,2.6109848387458983,-30.933844183625517,3.085512603089861,-30.466687605063896,3.5391352631151896,-29.973528134344928,3.972612824163917,-29.455186615506516,4.386680079314123,-28.91248692578609,4.782047087047351,-28.346255368957536,5.159399648915996,-27.75732006866811,5.519399787210696,-27.14651036177542,5.8626862226277465,-26.514656191684317,6.1898748519364775,-25.862587501683873,6.501559225646666,-25.19113362828428,6.798311025675929,-24.501122694553832,7.080680543017117,-23.793381003455817,7.3491971554057205,-23.06873243118549,7.604369804987259,-22.327997820506987,7.846687475984684,-21.571994374090284,8.076619672365775,-20.750696843819036,8.320873035649598,-19.904752994096093,8.553742255492992,-19.035322038443695,8.775380520710797,-18.143652118566745,8.985929309107245,-17.23106998277629,9.185520424077957,-16.298971054397633,9.374277909563911,-15.348809883978598,9.552319846202227,-14.382090979113373,9.719760031518783,-13.400360005697381,9.876709547007497,-12.40519535442866,10.023278214941286,-11.398200066371174,10.15957594775955,-10.380994111395555,10.285713992877167,-9.355207013312684,10.401806075759875,-8.322470815515597,10.507969444110994,-7.284413380945164,10.60432581601441,-6.242652020195001,10.69100223487872,-5.198787441571045,10.768131834027512,-4.15439801692132,10.835854513780646,-3.1110343570512335,10.894317533871497,-2.070214190539979,10.943676024045086,-1.0334175397734144,10.984093415681993,-0.0020821880089116895,11.015741797293023,1.02240056871236,11.038802196729485,2.0386898909902937,11.053464792954081,3.0454990930123746,11.059929060217279,4.041599073206397,11.058403847484097,5.025821484783972,11.049107395956263,5.99706165235931,11.032267297534608,6.954281240827882,11.008120397066701,7.896510682689415,10.976912641224555,8.82285136999989,10.938898876857419,9.73247761713696,10.894342601664516,10.62463840056344,10.843515670032666,11.498658881773299,10.786697956883753,12.353941719604848,10.724176982376914,13.189968178105506,10.656247500310396,14.00629903613281,10.583211053068005,14.802575304876159,10.505375495955064,15.578518759483815,10.423054493768827,16.333932290979824,10.336566992448219,17.068700084655166,10.24623666864791,17.782787631117994,10.152391360081559,18.47624157618721,10.055362479479209,19.1491894158141,9.95548441500376,19.801839042216525,9.853093919971384,20.4344781474102,9.748529494720888,21.04747349032161,9.642130763476885,21.641270033667126,9.534237849051733,22.216389956782827,9.425190748231149,22.77343155058962,9.315328710688428,23.31346548680533,9.204287085346014,23.83720456363906,9.091582826930367,24.34477984629854,8.97737462449112,24.836339364247216,8.861818143161315,25.312047282917064,8.745065643140748,25.772083075421396,8.627265598679344,26.216640694267735,8.508562317060498,26.645927743070622,8.38909555758445,27.060164648264426,8.269000150551637,27.45958383081624,8.148405616246052,27.84442887793862,8.027435783918603,28.214953714802512,7.906208410770478,28.57142177625,7.784834800936497,28.914105178507185,7.663419424468472,29.243283890897015,7.542059536318572,29.55924490755209,7.420844795322673,29.862281419127527,7.299856883183729,30.15269198451374,7.179169123455119,30.43077970254934,7.058846100524015,30.696851383733897,6.938943278594734,30.951216721940828,6.819506620672105,31.194187466130163,6.700572207544822,31.426076592061467,6.582165856768808,31.64719747400658,6.464302741650567" fill="none" stroke="black" stroke-width="2.2222222222222223" stroke-linejoin="round" filter="url(#fuzzy)"></polyline><!--[--><circle r="4.105479534779572" cx="30.238000159359466" cy="6.4222612889180315" stroke="black" fill="none" stroke-width="1" filter="url(#fuzzy)" clip-path="url(#rightEyeClipPath)"></circle><circle r="4.209144256327125" cx="29.706379089039984" cy="5.291958710131716" stroke="black" fill="none" stroke-width="1" filter="url(#fuzzy)" clip-path="url(#rightEyeClipPath)"></circle><circle r="3.522020952731026" cx="30.2948194081333" cy="3.891954882189843" stroke="black" fill="none" stroke-width="1" filter="url(#fuzzy)" clip-path="url(#rightEyeClipPath)"></circle><circle r="3.707562843125755" cx="28.117372367153216" cy="5.747278217128866" stroke="black" fill="none" stroke-width="1" filter="url(#fuzzy)" clip-path="url(#rightEyeClipPath)"></circle><circle r="4.702092702175479" cx="30.35563141264837" cy="4.078838485528833" stroke="black" fill="none" stroke-width="1" filter="url(#fuzzy)" clip-path="url(#rightEyeClipPath)"></circle><circle r="3.071908349546543" cx="29.9413177918468" cy="4.497602714713967" stroke="black" fill="none" stroke-width="1" filter="url(#fuzzy)" clip-path="url(#rightEyeClipPath)"></circle><circle r="3.398198670375631" cx="27.59807640831072" cy="3.0669272916362385" stroke="black" fill="none" stroke-width="1" filter="url(#fuzzy)" clip-path="url(#rightEyeClipPath)"></circle><circle r="3.583473464827235" cx="28.351544979605166" cy="5.059819902158894" stroke="black" fill="none" stroke-width="1" filter="url(#fuzzy)" clip-path="url(#rightEyeClipPath)"></circle><circle r="3.438265735088746" cx="26.733226276836394" cy="4.30919876305695" stroke="black" fill="none" stroke-width="1" filter="url(#fuzzy)" clip-path="url(#rightEyeClipPath)"></circle><circle r="4.877822086287165" cx="30.52875957123819" cy="6.488476412128087" stroke="black" fill="none" stroke-width="1" filter="url(#fuzzy)" clip-path="url(#rightEyeClipPath)"></circle><!--]--></g><g transform="translate(-35.11899483664972 -27.29674449942888)"><polyline id="leftUpper" points="32.946258794423315,2.7455427113523116,33.045592819912535,2.5189743582570645,33.12275914646147,2.2678317438432285,33.1763279233348,1.9947200964960734,33.20499118502134,1.7021379310278575,33.207559908740684,1.392478962280232,33.18296107194969,1.0680340187266615,33.130234709849105,0.7309929560748314,33.04853097289011,0.38344657086906775,32.93710718428092,0.027388514092735683,32.795324897493295,-0.3352827952293289,32.622646953769156,-0.7027622564284224,32.418634539627156,-1.073336173589552,32.182944244369224,-1.445380341949023,31.915325117587173,-1.8173581342920313,31.61561572666921,-2.1878185873502423,31.283741214306566,-2.555394488199389,30.919710356000035,-2.918800460656853,30.523612617566528,-3.2768310516792463,30.095615212645694,-3.6283588177600086,29.635960160206448,-3.972332411326991,29.144961342053538,-4.307774667140033,28.62300156033415,-4.633780688688568,28.07052959504444,-4.9495159345892015,27.488057261536124,-5.254214304983294,26.876156468023055,-5.547176227934554,26.33370234249654,-5.997097335717663,25.739274445339987,-6.4245546702478835,25.093465738957757,-6.828114512112049,24.397204119680584,-7.2065616940536055,23.651722509146737,-7.558887830099693,22.858530080292535,-7.884279847049549,22.019384598417993,-8.182108814458292,21.13626585779309,-8.451919069250224,20.211350194270366,-8.693417631095606,19.246986054369444,-8.906463904685122,18.24567060129906,-9.091059665035942,17.21002733838234,-9.24733932196358,16.142784730350776,-9.375560459853535,15.046755802972708,-9.476094648866852,13.924818701481767,-9.549418523713591,12.77989818827104,-9.596105126128347,11.614948060318492,-9.616815507181833,10.432934466809291,-9.612290585562643,9.2368201074207,-9.583343257963232,8.029549291735094,-9.53085075770419,6.8140338402467515,-9.45574725773086,5.593139807428071,-9.359016714116432,4.3696750073208115,-9.241685946205486,3.1463773221179485,-9.104817949532144,1.9259037742018434,-8.949505437646838,0.7108203421042855,-8.776864608985779,-0.4964074991459527,-8.588029134917225,-1.6934235328223979,-8.38414436509856,-2.877988869981425,-8.16636174627833,-4.0479893531583775,-7.935833450677204,-5.201442313813724,-7.693707210082027,-6.336502703063544,-7.441121351786955,-7.451468615228774,-7.179200032515838,-8.544786223737567,-6.90904866645977,-9.615054148915156,-6.631749543564051,-10.661027277195583,-6.348357634198455,-11.681620051289679,-6.059896576345044,-12.675909250843677,-5.767354841437446,-13.643136283122825,-5.471682074985783,-14.58270900325438,-5.173785608121201,-15.494203083564358,-4.8745271361942075,-16.37736295154242,-4.574719560560745,-17.232102315969275,-4.275123989690225,-18.058504300740942,-3.976446895729384,-18.856821205924334,-3.6793374226562667,-19.627473915578406,-3.3843848421582097,-20.37105097187542,-3.0921161533680026,-21.08830733505651,-2.8029938225922777,-21.780162848756014,-2.5174136591661362,-22.44770043022914,-2.2357028235681913,-23.09177171279717,-1.957348089133407,-23.712572391358464,-1.6818322042371916,-24.310350655548724,-1.4094071724292396,-24.88539005515397,-1.1403034085467487,-25.43800688389932,-0.8747302564730912,-25.968547563237824,-0.6128765068964741,-26.477386026139303,-0.3549109150686105,-26.96492110087915,-0.10098271856337515,-27.431573894827135,0.14877784496452318,-27.87778517823626,0.39425902002087554,-28.304012768031562,0.6353670155133146,-28.710728911598927,0.872025486992646,-29.098417670573923,1.104175018894182,-29.46757230463061,1.331772606779079,-29.818692655270354,1.554791139575673,-30.15228252961068,1.7732188818208106,-30.46884708417404,1.9870589559011904,-30.768890208676705,2.196328824294692,-31.052911909817478,2.401059771811713,-31.32140569506665,2.6012963878365105,-31.574855956454694,2.797096048568525,-31.81373535436116,2.988528399263721,-32.038502201303494,3.175674836475923,-32.249597845725795,3.3586279902981495" fill="none" stroke="black" stroke-width="2.2222222222222223" stroke-linejoin="round" filter="url(#fuzzy)"></polyline><polyline id="leftLower" points="33.880001103416,0.6176575703859077,33.758879666105145,0.9949554051885618,33.61169333213711,1.3597467817503652,33.438179336235386,1.712355134836666,33.238134168149124,2.053094850766188,33.01141194311567,2.382271429645789,32.75792277232289,2.7001816476052,32.47763113337164,3.0071137190317705,32.17055424073817,3.303347458805212,31.83676041623663,3.58915444453235,31.476367459481423,3.864798178781863,31.08954101834967,4.130534251319034,30.67649295944364,4.386610501340493,30.237479738553166,4.633267179708956,29.77280077111812,4.870737111187983,29.2827968026908,5.099245856676719,28.76784827939837,5.319011875444629,28.228373718405305,5.530246687366265,27.664828078375812,5.733155035155988,27.077701129936283,5.92793504660273,26.467515826137692,6.114778396804736,25.834826672918044,6.2938704704043005,25.180218099564822,6.465390523822528,24.50430282917739,6.629511847494065,23.80772024912945,6.786401928101855,23.091134781531448,6.936222610811879,22.364655750984628,7.105451647728067,21.603190130386707,7.267628035717342,20.807636156752853,7.422663440634084,19.97908544510421,7.570474636907418,19.118804340881944,7.710984432888942,18.228215979261538,7.844122522015638,17.30888303949203,7.9698262616000335,16.3624911823848,8.088041381059657,15.390833159076553,8.198722621397815,14.395793579191196,8.301834307747772,13.379334326525157,8.397350856792333,12.343480610380883,8.48525722087092,11.290307640673111,8.56554927058617,10.221927914932571,8.638234117722067,9.14047910533173,8.703330380285728,8.048112533857315,8.760868391484816,6.94698222375412,8.810890354452674,5.8392345153649,8.853450444533191,4.726998234490831,8.888614860937487,3.6123754013973333,8.916461829584419,2.4974324685897846,8.937081558936981,1.384192075483834,8.950576150646642,0.2746253080949421,8.95705946681766,-0.8293555481282177,8.956656955703417,-1.9259037742018434,8.949505437646838,-3.01324451411192,8.935752853076908,-4.0896806138013515,8.915557974373371,-5.1535980145146265,8.889090083411627,-6.2034707123754265,8.856528616599894,-7.237865296072456,8.818062779220654,-8.25544507452893,8.773891130888469,-9.254973806431027,8.724221143936173,-10.235319043490678,8.669268736541511,-11.195455099318036,8.609257782406257,-12.134465655779014,8.544419598799877,-13.051546018713186,8.474992414779747,-13.946005034887495,8.401220821400015,-14.817266682061025,8.323355205721125,-15.664871344036289,8.241651170432048,-16.488476782572306,8.156368940897286,-17.287858818034852,8.067772761440683,-18.06291173065933,7.976130282678069,-18.813648394301378,7.881711941710835,-19.54020015455092,7.784790336992428,-20.242816463084637,7.6856395996798454,-20.921864280132517,7.584534763282169,-21.577827256933695,7.481751133418179,-22.211304710056968,7.377563659495093,-22.823010399461236,7.27224631012049,-23.413771122171568,7.166071454059448,-23.98452842191205,7.0587128549195715,-24.53572973384909,6.949747982815478,-25.06756402683965,6.83930143584452,-25.580244981069626,6.7274952677298065,-26.074009397604303,6.614448745135472,-26.549115607938962,6.500278104981941,-27.005841883549394,6.385096311761208,-27.444484845442503,6.2690128148521005,-27.86535787370678,6.152133305835551,-28.26878951706291,6.034559475809869,-28.655121902414297,5.91638877270601,-29.024709144397644,5.797714158602848,-29.377915754933426,5.678623867042443,-29.71511505277655,5.559201160345309,-30.036687573066796,5.439524086925696,-30.343019476879462,5.3196652386068415,-30.634500960775817,5.199691507936259,-30.911524666353746,5.079663845501,-31.174484089798224,4.959637017242922,-31.423771991431916,4.839659361773963,-31.65977880526569,4.719772547691413,-31.8828910485492,4.600011330893179,-32.09348973132139,4.4804033118930615,-32.29194876596111,4.360968693136019" fill="none" stroke="black" stroke-width="2.2222222222222223" stroke-linejoin="round" filter="url(#fuzzy)"></polyline><!--[--><circle r="3.7804236272002987" cx="-5.1577371260741876" cy="2.4200157635317083" stroke="black" fill="none" stroke-width="1" filter="url(#fuzzy)" clip-path="url(#leftEyeClipPath)"></circle><circle r="3.2048125929528815" cx="-2.4381350468816225" cy="1.2211121765222517" stroke="black" fill="none" stroke-width="1" filter="url(#fuzzy)" clip-path="url(#leftEyeClipPath)"></circle><circle r="4.232251889524925" cx="-1.2332937304760265" cy="2.4431855683806427" stroke="black" fill="none" stroke-width="1" filter="url(#fuzzy)" clip-path="url(#leftEyeClipPath)"></circle><circle r="4.081007547200144" cx="-3.8063292299000593" cy="-0.22390611096378743" stroke="black" fill="none" stroke-width="1" filter="url(#fuzzy)" clip-path="url(#leftEyeClipPath)"></circle><circle r="4.7306900099231415" cx="-5.557678159750628" cy="2.039973079857366" stroke="black" fill="none" stroke-width="1" filter="url(#fuzzy)" clip-path="url(#leftEyeClipPath)"></circle><circle r="3.2593460778776246" cx="-1.5600157190023363" cy="0.9581504391327385" stroke="black" fill="none" stroke-width="1" filter="url(#fuzzy)" clip-path="url(#leftEyeClipPath)"></circle><circle r="3.143468469444128" cx="-4.616174179641346" cy="0.36412803528039817" stroke="black" fill="none" stroke-width="1" filter="url(#fuzzy)" clip-path="url(#leftEyeClipPath)"></circle><circle r="4.624994253594513" cx="-5.828027950685943" cy="0.23353916718859224" stroke="black" fill="none" stroke-width="1" filter="url(#fuzzy)" clip-path="url(#leftEyeClipPath)"></circle><circle r="4.2100839201098" cx="-4.588963857061374" cy="2.086131601711255" stroke="black" fill="none" stroke-width="1" filter="url(#fuzzy)" clip-path="url(#leftEyeClipPath)"></circle><circle r="3.7812972241259546" cx="-2.298374386153345" cy="0.9127548336780849" stroke="black" fill="none" stroke-width="1" filter="url(#fuzzy)" clip-path="url(#leftEyeClipPath)"></circle><!--]--></g><g id="hairs"><!--[--><polyline points="-25,-87,-23.388983671841537,-87.23259562027373,-21.21138133869489,-87.64058768399258,-18.81004820217857,-88.08994903284783,-16.19923889098114,-88.5298573409184,-13.381314804442374,-88.91174586793738,-10.372232126824446,-89.2171510220784,-7.188763747126794,-89.45799000685825,-3.8510910103576688,-89.65061360095959,-0.3897305881968638,-89.80104638815271,3.1518471987680545,-89.90996622019132,6.711805910762496,-89.97857005170997,10.20072697433293,-90.00872074589637,13.510563482647264,-90.01722045281166,16.537770568378992,-90.0469640697285" fill="none" stroke="rgb(185, 55, 55)" stroke-width="2" stroke-linejoin="round" filter="url(#fuzzy)"></polyline><polyline points="-40,-75,-39.71738321077323,-75.98629213982099,-38.740653128023105,-76.9946619893143,-37.450256915745996,-77.9390842944806,-36.16495955624073,-78.7937250362617,-34.93714998920413,-79.60863820884872,-33.697407071051366,-80.44778014074849,-32.3999297146232,-81.33240721874832,-31.07567350392206,-82.23065396559815,-29.81207167958454,-83.0827613524429,-28.705478867752383,-83.83346154391698,-27.82048381595772,-84.45172166429413,-27.172049110194962,-84.93287972514956,-26.73475076685581,-85.28731948556053,-26.473939974599666,-85.52346008906878,-26.380202748500125,-85.63485957585513,-26.477533093549944,-85.60128857204634,-26.787077978695972,-85.40724452050554,-27.275767972543413,-85.0657423861925,-27.8772086599115,-84.61289321613576,-28.657008998069713,-84.02000660783767" fill="none" stroke="rgb(185, 55, 55)" stroke-width="2" stroke-linejoin="round" filter="url(#fuzzy)"></polyline><polyline points="61,-50,61.5926596177231,-48.77706489484664,61.80333135262362,-48.212044820365804,61.901679745900026,-47.72604373307045,61.94322463073112,-47.18949868839658,61.90089237745015,-46.645878252478255,61.72799105611724,-46.18425629877605,61.38286520343532,-45.895691734967286,60.83424699622216,-45.8565070241628,60.058779104247506,-46.11968722427946,59.03947647278613,-46.7101965500834,57.766595949111945,-47.62605304399507,56.236655563116074,-48.84885507822037,54.44702830261054,-50.36192942979142,52.388918711819294,-52.16629015522089,50.04337333053925,-54.284146916109286,47.381572508824995,-56.74916662760674,44.36694382695638,-59.59318141394285,40.95770578122755,-62.84002981030936,37.11332510177845,-66.50830739074738,32.810359881899714,-70.61685511911212,28.06682857126514,-75.19052871532394,22.96821936043893,-80.27219367144454,17.727749348763375,-85.91736240435242" fill="none" stroke="rgb(185, 55, 55)" stroke-width="2" stroke-linejoin="round" filter="url(#fuzzy)"></polyline><polyline points="54,-61,54.654901258996894,-60.005059515125886,55.0489114138401,-58.949169445515444,55.093225981955406,-58.03074982160527,54.66351371866988,-57.30938771462037,53.73591507743652,-56.77092895897197,52.326637762028284,-56.40427957769718,50.44320865182044,-56.22329458438657,48.066933798355024,-56.26453214271697,45.162656237092875,-56.56714348684388,41.70127499352239,-57.14731776219767,37.67609258513737,-57.98853578226486,33.101030305991706,-59.05606957276292,27.991415534242478,-60.32263689621316,22.338931981154314,-61.78428185213164,16.097120089547175,-63.456465005196364,9.18916191900205,-65.35679344051849,1.5344654948559295,-67.48934844712058,-6.923045842571231,-69.84678899690425,-16.18069541917111,-72.44720153342296,-26.06141255758819,-75.40991080027769" fill="none" stroke="rgb(185, 55, 55)" stroke-width="2" stroke-linejoin="round" filter="url(#fuzzy)"></polyline><polyline points="8,-93,10.311594275291036,-92.26926990406878,12.008133467463477,-91.68354834075228,13.524795611292818,-91.00118971329564,15.172343661651652,-90.14737875510491,17.10606632863801,-89.13711198394341,19.332276363158275,-88.01620983443924,21.759184272444656,-86.83385926840407,24.25886794763843,-85.63140664942965,26.72179304997694,-84.434207079132,29.086937953644544,-83.24905597804839,31.338375076381816,-82.07096498746964,33.47974793576828,-80.89201462816297,35.50898473389845,-79.7046673839601,37.39690909879472,-78.51236304843022,39.037541833747085,-77.38394135473494,40.12734730727542,-76.60210553787915" fill="none" stroke="rgb(185, 55, 55)" stroke-width="2" stroke-linejoin="round" filter="url(#fuzzy)"></polyline><polyline points="-29,-84,-28.81652551055041,-84.09365058733945,-28.096000063285313,-84.4703232455876,-26.912548396403306,-85.03710454219352,-25.46999566415108,-85.66498745850375,-23.88739843504974,-86.29169634138094,-22.19370938983379,-86.9054393393314,-20.39768512940039,-87.51388144798447,-18.53251499320477,-88.12440137875141,-16.655191253130194,-88.73502025356542,-14.824149724288496,-89.33303681787474,-13.080909689141631,-89.8996913727953,-11.44616374373436,-90.41785496473312,-9.927135786664886,-90.87818477370712,-8.527919593573314,-91.28043249140495,-7.256894300414638,-91.63009075709218,-6.1307360625346075,-91.93340489465908,-5.177608595130665,-92.19413755996794,-4.4396840956829005,-92.4138602069447,-3.970323652269191,-92.59505346470365,-3.8225649385803484,-92.74335306756002,-4.0352341663059486,-92.86381929852638,-4.617202064515248,-92.95181640896507,-5.458561091182808,-92.99438119781031" fill="none" stroke="rgb(185, 55, 55)" stroke-width="2" stroke-linejoin="round" filter="url(#fuzzy)"></polyline><polyline points="44,-74,44.67095877645572,-73.27372632182241,45.10398507662359,-72.62541025384044,45.40261499307716,-71.94548648619637,45.58146866721807,-71.23696408854012,45.595986460632055,-70.54018770475132,45.360935701411755,-69.93044812860126,44.808300345427604,-69.47356810837412,43.909378859983036,-69.19955646211783,42.65533791145056,-69.11481819833025,41.03299739109575,-69.22562565689371,39.02075806375953,-69.54480853420773,36.60036030405116,-70.07968680206261,33.766070298555185,-70.8191354758578,30.520057313370994,-71.73623438159652,26.858193208935656,-72.80651309468374,22.759199607109146,-74.02689527544607,18.18690451608008,-75.41982487043532,13.105753293631354,-77.02025461708233,7.5002993131799585,-78.85613953201616,1.3790459552209473,-80.93025196320318,-5.2705532757389655,-83.19920348215014,-12.598093650105827,-85.5680778675408" fill="none" stroke="rgb(185, 55, 55)" stroke-width="2" stroke-linejoin="round" filter="url(#fuzzy)"></polyline><polyline points="54,-61,54.269138003327036,-60.67104055687344,54.829967563697906,-59.89717420060712,55.49780218427666,-58.9553630889777,56.11120983492108,-58.056197192554826,56.56218571667991,-57.30533881684815,56.812171046297856,-56.74156951829435,56.85957750997675,-56.38685368729078,56.69917901338702,-56.279553763148776,56.300998415721345,-56.485674673245356,55.61831416470525,-57.082552015690766,54.61345863758025,-58.12304936040776,53.277977596411574,-59.6079005641576,51.630626016795546,-61.492065587877576,49.69292063872847,-63.72563244132702,47.45084452822245,-66.3068637606491,44.81723915977314,-69.32206321384095,41.63823053389766,-72.9419278054001,37.847274465242364,-77.29336958600894" fill="none" stroke="rgb(185, 55, 55)" stroke-width="2" stroke-linejoin="round" filter="url(#fuzzy)"></polyline><polyline points="-14,-91,-12.750090559558712,-91.24875163533018,-11.32629568508395,-91.60336114066544,-9.985045924937639,-91.88395442374346,-8.748317863393254,-92.12060809985479,-7.608597992874259,-92.34977114921062,-6.578687942512688,-92.56683792649567,-5.66888415272436,-92.74682160980265,-4.871508330834495,-92.8727210735893,-4.177816390991211,-92.94606399536133,-3.605141810579327,-92.98107735024398,-3.204062622305475,-92.99385597132189,-3.0372887514819427,-92.99467289747119,-3.1491322615259323,-92.98429622572226,-3.5565600830702504,-92.95056436163634,-4.282019275442802,-92.86227582102552,-5.413964381396141,-92.66661036110483,-7.092462052334732,-92.32487855272073" fill="none" stroke="rgb(185, 55, 55)" stroke-width="2" stroke-linejoin="round" filter="url(#fuzzy)"></polyline><polyline points="23,-89,23.17409152868501,-88.76158009293918,23.37800303132683,-88.39929752648543,23.396621372169374,-88.02463174870027,23.158488921594053,-87.58125303829404,22.568285006828305,-87.06346286048992,21.5120034048524,-86.51640330461963,19.917905205467257,-85.97741555223574,17.768586796822085,-85.45386762140406,15.056289974649745,-84.94227409617082,11.738889525432349,-84.45118803432464,7.748923696561739,-84.00229206755878,3.0502259490380723,-83.61527747208737,-2.323531832113911,-83.29685992954234,-8.321620275332599,-83.03992334763912,-15.020388424995296,-82.81101664678417,-22.74034490052336,-82.5089920014989" fill="none" stroke="rgb(185, 55, 55)" stroke-width="2" stroke-linejoin="round" filter="url(#fuzzy)"></polyline><polyline points="8,-93,10.121216507923329,-92.37850117068537,11.22632234109363,-92.11244858812444,11.76365940976777,-91.93104897980906,12.0575562247229,-91.72999439329372,12.263834206959286,-91.49790909883615,12.384160808628112,-91.2522273424041,12.327845484852244,-91.00898165209507,11.971534719328629,-90.7768115023578,11.201379776000977,-90.55803489685059,9.936626524784826,-90.35071939317609,8.13402890160302,-90.15184860169683,5.776736925926158,-89.95977635469525,2.860065970493322,-89.77391158615201,-0.6137006501502427,-89.59257283704142,-4.6391354491591965,-89.40510809098686,-9.242732033102417,-89.16213408201901,-14.568850039419551,-88.73341836104936" fill="none" stroke="rgb(185, 55, 55)" stroke-width="2" stroke-linejoin="round" filter="url(#fuzzy)"></polyline><polyline points="-21,-88,-20.441479070379007,-88.30603402930358,-19.47883044601614,-88.84369396134323,-18.565145077923116,-89.2996954048424,-17.776616088332023,-89.60458275151855,-17.108513129609644,-89.77477245934809,-16.569527001617594,-89.83048552032942,-16.185252231976087,-89.77830035165587,-15.989156990173017,-89.61373250887725,-16.021318236365587,-89.32444147867206,-16.325932068867033,-88.89341181599646,-16.942956805229187,-88.30294358730316,-17.9001516988514,-87.53708545796368,-19.21154411702429,-86.58092184552557,-20.88084452255021,-85.41823623300105,-22.90558648946962,-84.02982135085531,-25.282617238480334,-82.39282683935258,-28.017723499863802,-80.48142703324743,-31.13121956409788,-78.27475667341439,-34.63441456808506,-75.78856677857506,-38.458286397057506,-73.15188162758113,-42.37391763183314,-70.71313176918608" fill="none" stroke="rgb(185, 55, 55)" stroke-width="2" stroke-linejoin="round" filter="url(#fuzzy)"></polyline><polyline points="61,-50,61.56412798296294,-48.79799938602327,61.68938657829665,-48.292152018780136,61.64017477430036,-47.903947315044626,61.47030172925065,-47.49896417990896,61.14976672435948,-47.11578255918965,60.62669104721007,-46.84113914217253,59.856975482711576,-46.765510374277454,58.81330216679895,-46.96470633454376,57.47889354914752,-47.49136188990299,55.83734233434198,-48.371785994579184,53.86808664374301,-49.607419075150005,51.54858971440376,-51.18328815160842,48.85850267757694,-53.083095648714135,45.78169334879754,-55.30345630847785,42.30558234798576,-57.857974851745546,38.419601553816136,-60.76989828537539,34.11489209751752,-64.06215866272662,29.386383453095533,-67.7542439164135,24.2355737951315,-71.86574320767524,18.66553890602652,-76.41878904801578,12.64607925342457,-81.43653974618995,5.994146093322554,-86.9469030071678" fill="none" stroke="rgb(185, 55, 55)" stroke-width="2" stroke-linejoin="round" filter="url(#fuzzy)"></polyline><polyline points="-40,-75,-39.6610897390781,-75.99823576885913,-38.51399504401535,-77.0664537214912,-36.9324398482789,-78.11906190140276,-35.25954009590497,-79.12086540116393,-33.56419279774736,-80.11365353746143,-31.771757681992064,-81.16213146421687,-29.829462713344206,-82.2915683292439,-27.777237142046886,-83.47042536788379,-25.726600059621287,-84.63557434676102,-23.804405055765937,-85.72635268743835,-22.10721422945536,-86.7028301209745,-20.677352975428782,-87.54943039835373,-19.499162770623894,-88.27360857580632,-18.532081512507656,-88.89265251157913,-17.79454400386163,-89.39482828232784,-17.39008542714777,-89.72408120990251" fill="none" stroke="rgb(185, 55, 55)" stroke-width="2" stroke-linejoin="round" filter="url(#fuzzy)"></polyline><polyline points="62,-48,62.62886249307154,-46.51971470798673,62.97565524922786,-45.485206787679104,63.15184750316282,-44.68655284266587,63.09567490709014,-44.18960449186852,62.757096363742555,-44.114383612123135,62.10884292036391,-44.55308006125731,61.123209140988884,-45.56575977257679,59.77333068847656,-47.172340393066406,58.04668742652136,-49.34712650589217,55.94003052331979,-52.0514012876362,53.43069605072883,-55.29500431984631,50.45462683052756,-59.16851846157806,46.93258762606935,-63.79726469463547,42.8630905599352,-69.23416222895082,38.445723203286704,-75.37040377454815" fill="none" stroke="rgb(185, 55, 55)" stroke-width="2" stroke-linejoin="round" filter="url(#fuzzy)"></polyline><polyline points="1,-93,1.9461090755668478,-92.99870511674483,2.905283941155132,-92.99222880484312,3.8568063280137386,-92.97487107975641,4.733735113289281,-92.93080906994595,5.477833613969103,-92.83718899543739,6.045962650708247,-92.67770406940205,6.396648594290712,-92.45204917512652,6.483906530378313,-92.17216376892493,6.266914477640959,-91.85000123469035,5.724819953757955,-91.48837169341601,4.860173225402832,-91.08157455921173,3.6855177599083815,-90.62296827342075,2.2029198142695883,-90.111566456788,0.39141104451315734,-89.55234742973221,-1.7906983782337296,-88.95106362655844,-4.394121511300636,-88.30805037940763,-7.467215744245167,-87.61541533727024,-11.044482001933078,-86.8613929148685,-15.119555558673099,-86.04673790420614,-19.59594293673255,-85.21585496016962,-24.27038965310059,-84.48650865315136" fill="none" stroke="rgb(185, 55, 55)" stroke-width="2" stroke-linejoin="round" filter="url(#fuzzy)"></polyline><polyline points="33,-83,33.56465585175396,-82.3540444252338,33.820190215454346,-81.91374406562949,34.043756775733996,-81.40924952029063,34.138091720763356,-80.8613344079934,33.9602849222368,-80.32697788810694,33.44716617524497,-79.805687292368,32.59716977301555,-79.25843870384706,31.42153452540667,-78.65292688229312,29.917688228699234,-77.98986639603764,28.066357939856253,-77.30241833812501,25.837931138420853,-76.63746028237892,23.199268221855164,-76.0312068760395,20.119974136171628,-75.49129306393668,16.578887258557263,-74.99400048905494,12.569024873290461,-74.49764751491622,8.09661001683336,-73.96426085967224,3.1702418197003865,-73.37765542123073,-2.218072303816058,-72.74963837581252,-8.10839369949717,-72.11259223264351,-14.567517195810948,-71.49901146842383,-21.658387547461558,-70.90674080362652,-29.415262385184043,-70.25306604984353,-37.87139905624894,-69.34531642546648" fill="none" stroke="rgb(185, 55, 55)" stroke-width="2" stroke-linejoin="round" filter="url(#fuzzy)"></polyline><polyline points="4,-93,5.324817409272833,-92.97012408871076,6.154564185736956,-92.85073976264208,6.691796590682888,-92.58627568712109,6.905411337212433,-92.16207277971883,6.719712434399334,-91.60267685765534,6.058061759695251,-90.93318038392829,4.893384270930112,-90.16030659022435,3.2539075441780296,-89.27727517656442,1.1784019470214844,-88.2721061706543,-1.3329314387579778,-87.12901774283162,-4.331340143953673,-85.8284045804322,-7.895784513692394,-84.35265092635134,-12.102572911118482,-82.69485149091243,-17.013880345710007,-80.86017908767636,-22.681238717666975,-78.85427403097162,-29.13933411544402,-76.66635384203619,-36.36135274268629,-74.29032581478268" fill="none" stroke="rgb(185, 55, 55)" stroke-width="2" stroke-linejoin="round" filter="url(#fuzzy)"></polyline><polyline points="43,-74,43.51757714310291,-73.97234411538113,43.50595303040057,-73.80002847955151,43.127225160787454,-73.49788325393473,42.38933517532967,-73.1120570142032,41.27762321274583,-72.67638442630128,39.77028695119549,-72.2181289911602,37.81904369391488,-71.7784826873982,35.352300060645845,-71.41891211656942,32.30488160138768,-71.20144426520173,28.63867362019761,-71.16248424241147,24.33003822575074,-71.30660929857379,19.33941469125057,-71.62408566356811,13.599695995405606,-72.10989001922067,7.0422535995298965,-72.76074766074919,-0.3552443948296258,-73.55631389372465,-8.528306006586876,-74.46756239694707,-17.308551088520794,-75.53222109003313,-26.469326338804372,-76.94834300698" fill="none" stroke="rgb(185, 55, 55)" stroke-width="2" stroke-linejoin="round" filter="url(#fuzzy)"></polyline><polyline points="1,-93,2.028863791477137,-92.98196646725361,3.242252815153502,-92.93707714466086,4.615503240172777,-92.86808443502206,6.081492732732717,-92.76779591904304,7.5788730269479885,-92.62370490277839,9.058234388246714,-92.42870964306036,10.468443575618675,-92.19201181506816,11.746869820513371,-91.93860280323891,12.827405768533206,-91.69733441752179,13.662743982569932,-91.48899326928147,14.242476489707265,-91.32414673883487,14.590725629520202,-91.20969402902725,14.743748032512041,-91.15512899741151,14.72165459335722,-91.17137074193967,14.504593907650031,-91.26372853839885,14.006650729394652,-91.42950100928024,13.0327305684522,-91.67757170526059,11.223623655110993,-92.09501090207662" fill="none" stroke="rgb(185, 55, 55)" stroke-width="2" stroke-linejoin="round" filter="url(#fuzzy)"></polyline><polyline points="53,-63,53.28992792214221,-61.81880888673952,52.598856545452996,-61.400562440103165,51.21688792324485,-61.16793880960814,49.22394867154071,-60.90687300247373,46.558957784424415,-60.61503839385692,43.10146126543405,-60.371020207653736,38.74345448420663,-60.25153542616523,33.42180633544922,-60.30297088623047,27.110104821939803,-60.54496014675097,19.791247786811617,-60.98238050659501,11.430587905749462,-61.61801248614962,1.9635901010478847,-62.45926225738367,-8.684622199383274,-63.50047626835073,-20.53187624016718,-64.69169619575027,-33.43141620680892,-66.02612037001157" fill="none" stroke="rgb(185, 55, 55)" stroke-width="2" stroke-linejoin="round" filter="url(#fuzzy)"></polyline><polyline points="62,-48,61.87628301074664,-47.994115540321864,61.55018150794886,-47.8123032782388,60.94038503426161,-47.56571923297665,59.9534996111972,-47.42285781574611,58.51668785216261,-47.51052514191716,56.57879784893536,-47.93095176233702,54.1073645286971,-48.763112770264925,51.07364093562088,-50.05985613644483,47.44082450866699,-51.85034370422363,43.16824414191272,-54.139649557829735,38.222349182276886,-56.908103525096564,32.57818872696053,-60.12597192297696,26.21220073717339,-63.784927195742824,19.10082816287578,-67.91830377082027,11.221593149680274,-72.5788561034827,2.5322894532918543,-77.78827939338186,-7.010691076490773,-83.54148876624006" fill="none" stroke="rgb(185, 55, 55)" stroke-width="2" stroke-linejoin="round" filter="url(#fuzzy)"></polyline><polyline points="62,-48,61.92976978748516,-47.92859930418975,61.77064645705208,-47.54734368118567,61.451929537147734,-46.96795752174496,60.889528871155186,-46.34894722138928,60.01511181671665,-45.80574244051117,58.77644723216419,-45.427934408215854,57.13676276849703,-45.282333899266284,55.068474520216284,-45.410917791216136,52.5494400321518,-45.82982745505308,49.56521015372353,-46.53044330815221,46.11104205461959,-47.4877970379212,42.18843528570189,-48.67759276537912,37.79918319338258,-50.09287928264875,32.94319560473706,-51.748962529615596,27.62022121306195,-53.67427683117806,21.827761576397315,-55.895271350640314,15.54873314521787,-58.42470896663873,8.734700634744168,-61.25709549560785,1.3022610439372713,-64.37096383583591,-6.846191253205898,-67.73555425208721,-15.79405592224438,-71.31140380050661,-25.588532842536708,-75.04358458889529" fill="none" stroke="rgb(185, 55, 55)" stroke-width="2" stroke-linejoin="round" filter="url(#fuzzy)"></polyline><polyline points="-13,-91,-11.363349643556825,-91.00692644124729,-10.130376967789275,-90.36905104623624,-9.11654789051702,-89.99127516314823,-8.219582734094494,-89.92993612784967,-7.4045335330437085,-90.04918626159387,-6.635164785114567,-90.2532455249818,-5.850501044042567,-90.48448964442004,-4.990064153717408,-90.68915083482457,-4.02520394542609,-90.80613793110557,-2.9688541337837178,-90.77388238724649,-1.8626521070128523,-90.54693663500997,-0.7539808694075605,-90.11797811759048,0.32424002990335415,-89.53483206692486,1.363390404128619,-88.89516760399218,2.3764660312760175,-88.30818448811091,3.385712663683739,-87.83611020208006,4.407907897142094,-87.45392776286923,5.446594250885138,-87.0677961550548,6.497304872786477,-86.59501160028458,7.56327251202782,-86.04827956442061,8.667621093741868,-85.5386912303459,9.833157100396278,-85.16383142002663,10.989437166830573,-84.83852002665336,11.883183082065587,-84.09637258077184" fill="none" stroke="rgb(185, 55, 55)" stroke-width="2" stroke-linejoin="round" filter="url(#fuzzy)"></polyline><polyline points="3.137290328544914,-97.25600018489234,2.1809360155304054,-96.96343395814262,1.2386686665296345,-96.79069949577448,0.16364648070506682,-96.54320637978246,-1.0388238572386796,-96.25645385361331,-2.288738289559215,-95.99557662046422,-3.4948807125522907,-95.75089700894642,-4.587310938483088,-95.4667778808286,-5.541671751911531,-95.10426848604814,-6.38538436687981,-94.67109468732268,-7.178980769370026,-94.20968274375531,-7.985311465731995,-93.76593880427065,-8.846972051070102,-93.36521118717347,-9.781843448290854,-93.00912987636681,-10.79036790967982,-92.68967019495275,-11.861899295823008,-92.40303379029113,-12.975919531411128,-92.14288571474636,-14.105041986512536,-91.86824817356617,-15.221144426539968,-91.48073466544166,-16.28305267852067,-90.89314838660964,-17.20151405309874,-90.24762749936949,-18,-90" fill="none" stroke="rgb(185, 55, 55)" stroke-width="2" stroke-linejoin="round" filter="url(#fuzzy)"></polyline><polyline points="-30,-83,-31.804423931643097,-83.10839881574589,-33.88600261109276,-84.1813712594746,-36.10343917833389,-85.5711235897809,-37.998349420428575,-86.69692578191747,-39.33310631904299,-87.02924495836284,-40.22613870596279,-86.49313104606149,-40.992821226882796,-85.4764284120942,-41.9187565200926,-84.51764914302082,-43.14264462870778,-84.00437984264295,-44.67544233757505,-84.065065439762,-46.47303179892826,-84.62130524791776,-48.479011368622636,-85.48056133563082,-50.630921189426175,-86.4075129242355,-52.878441102436554,-87.1894760709649,-55.204785259401035,-87.64783486515847,-57.522310379028376,-87.42864073932378,-59.53709617744416,-86.13877744821708" fill="none" stroke="rgb(185, 55, 55)" stroke-width="2" stroke-linejoin="round" filter="url(#fuzzy)"></polyline><polyline points="-54.544721293193376,-81.81708193979007,-53.9598164966356,-79.48728956467369,-52.83993451356922,-78.62187487179273,-51.66517070979098,-79.03480017163987,-50.4148239172436,-79.84069921947335,-49.04280665390117,-80.49058713346996,-47.60626348470048,-80.89628395987411,-46.198378442107334,-81.17652509288362,-44.851609039636166,-81.41053175099269,-43.505163020844506,-81.54723729778449,-42.057922466706216,-81.4639871965464,-40.47083936394361,-81.09343262972178,-38.84385867723946,-80.51896305772767,-37.386316097322656,-79.96621149392126,-36.25213586767429,-79.6900939555447,-35.32442592704201,-79.8573503511401,-34.13201920475834,-80.56950089322817,-32,-82,-46,-69,-46.53497829926712,-68.55332397243636,-46.35238948970352,-69.05852216339441,-45.732595104600506,-70.1077647062912,-44.91127907182613,-71.3159909340809,-44.025831177499896,-72.49307045025178,-43.142988682070744,-73.59474390028237,-42.28332534482483,-74.63455687538645,-41.436720193264236,-75.6295081276232,-40.58098266216326,-76.58292388453319,-39.70226937057768,-77.48580889890613,-38.80520226450933,-78.32394086049774,-37.90493078592621,-79.08847192853608,-37.007554756101435,-79.7886733558926,-36.09615833228694,-80.45873672403573,-35.13702616440507,-81.14813320413383,-34.10532249026345,-81.89506946699231,-33.01353665961615,-82.6994211759169,-31.923061498611297,-83.51820683192713,-30.93174779702729,-84.29059626903263,-30.14255669764357,-84.97168651493321,-29.609285861272504,-85.55349156214068,-29.235180204027436,-86.10990718194503,-28.64569159788195,-86.96013520785593" fill="none" stroke="rgb(185, 55, 55)" stroke-width="2" stroke-linejoin="round" filter="url(#fuzzy)"></polyline><polyline points="71,-22,71.09335625389525,-23.781341954104853,70.914983646485,-25.349623880860946,70.59999549491022,-26.85908467375909,70.42361044579503,-28.419522899596235,70.41788797678983,-30.038621362189488,70.45591391122943,-31.665416944539835,70.41547754999829,-33.24304645918963,70.25979101919111,-34.739719485160606,70.0288050657274,-36.16321113223224,69.79298470851836,-37.561087690869655,69.61402394960338,-39.004483921835856,69.52638802673118,-40.55981851407816,69.53182373369708,-42.26018865864002,69.59821214374476,-44.08817029838829,69.665633952846,-45.97660179077994,69.66783518715091,-47.82845188277749,69.56598483388879,-49.55134700125274,69.37266789507312,-51.09620500957244,69.14005699776241,-52.487817882334845,68.91037826632135,-53.84138321084282,68.66089681552444,-55.353439351275995,68.2899835634435,-57.20547372223429,67.75066201058212,-59.28488718893078,67.84680459400751,-60.94712955054912" fill="none" stroke="rgb(185, 55, 55)" stroke-width="2" stroke-linejoin="round" filter="url(#fuzzy)"></polyline><polyline points="96.81071060892997,-1.3082528460666212,98.04869117626569,-3.1469851890697185,96.63693821046725,-4.455732048339206,94.6936536149301,-5.923679138132546,92.98122493079066,-7.662070048998188,91.13902946792147,-9.45498733305236,88.7829724503299,-11.023941410016713,86.03782310708645,-12.23469234178752,83.39776201334887,-13.14964902838073,81.28125951493762,-13.947921684222072,79.70843666326945,-14.805511184851142,78.34607731347813,-15.817505531216256,76.8544367455837,-16.98783326614369,75.20965954405249,-18.262561465171835,73.67654430446359,-19.575195261818905,72.45673661382527,-20.89968041473938,71.50562988524952,-22.31343606960489,71,-24" fill="none" stroke="rgb(185, 55, 55)" stroke-width="2" stroke-linejoin="round" filter="url(#fuzzy)"></polyline><polyline points="16.086293685583207,-123.32825158947125,17.57860857745522,-118.44157119507022,19.10054432826618,-116.37600529217568,20.68567850653881,-115.09317420082336,22.105142996875163,-113.5159593323223,23.188508813153796,-111.16234222641573,23.960639559859963,-108.22383492960402,24.557272272709746,-105.22359335657885,25.105645176460932,-102.59182662818951,25.676736735402805,-100.48296148815578,26.308017378998173,-98.85328474098405,27.041145998684435,-97.62079034127947,27.92398507434205,-96.7367001895321,28.965546019452585,-96.12918772145467,30.07299553827022,-95.5885200171511,31.023505544324756,-94.67363698187206,31.540404197696603,-92.72830347200977,31.560803135635023,-89.27556102893753,31.68006258631404,-85.15933420792345,33,-83,29,-86,28.35852138873447,-85.89666531749975,27.166630063260612,-86.47835139167006,25.977904388793842,-86.93131230109763,24.90604736663675,-87.06667863831784,23.92910250157663,-87.00546788959359,23.008388719746304,-86.92707991162116,22.105952258631554,-86.93414266117875,21.184869249857783,-87.04446823539848,20.214108386952248,-87.23859725675115,19.173953026941376,-87.49240320950608,18.05992187367151,-87.77569587881152,16.886719566147686,-88.0381581227046,15.690869329098263,-88.21007486171217,14.526721955725206,-88.22817439517495,13.450754961318106,-88.07557317137416,12.49340624542236,-87.81110491998804,11.625743928491547,-87.56073280243001,10.744887082208619,-87.45254338103805,9.732581499005386,-87.50263239858123,8.68104551217586,-87.52297708872098,8.441826539726017,-87.23220757716884,24.69868276515509,-86.93936333334592,24.392871293903752,-87.0516926359276,23.76845378120796,-87.32228699738033,23.04072144613892,-87.66890780465468,22.238635520098097,-88.02092166065593,21.35649763787993,-88.37732432644425,20.386169978102092,-88.74829435459215,19.32465837822242,-89.13128437914062,18.185853596350256,-89.51732473941803,17.00729783592134,-89.90045877498855,15.842001774473301,-90.27797701846892,14.737724360423838,-90.64466827522253,13.715353848205488,-90.98984377717912,12.758984163329847,-91.30166875122728,11.824049711148977,-91.5753263153474,10.85982233720198,-91.81713199387256,9.833648272535338,-92.0397384329859,8.742446897879152,-92.25150661045498,7.605424975139555,-92.44904241771266,6.446299331361821,-92.62002981321967,5.281916304194066,-92.75440551843205,4.127539883843273,-92.85322312663565,3.0109657989005782,-92.9254256677601,1.969828482828925,-92.97491193601691,1,-93" fill="none" stroke="rgb(185, 55, 55)" stroke-width="2" stroke-linejoin="round" filter="url(#fuzzy)"></polyline><!--]--></g><g id="lineNose"><path d="M -8.958152718412705 2.70535925637129, Q9.133083930750699 2.1954106450319117,0.08746560616899668 -6.007570372477094" fill="none" stroke="black" stroke-width="3" stroke-linejoin="round" filter="url(#fuzzy)"></path></g><g id="mouth"><polyline points="-16.328378145991095,48.065358333373894,-15.913671067695285,47.411791035750646,-15.49901642188894,46.7782296661312,-15.084463119167093,46.16443757969802,-14.670060070124762,45.57017813163353,-14.255856185356985,44.9952146771202,-13.841900375458788,44.43931057134049,-13.428241551025192,43.90222916947684,-13.014928622651237,43.38373382671168,-12.602010500931934,42.8835878982275,-12.189536096462326,42.40155473920672,-11.777554319837433,41.93739770483181,-11.366114081652288,41.490880150285214,-10.955264292501907,41.06176543074938,-10.545053862981334,40.64981690140676,-10.13553170368559,40.25479791743981,-9.726746725209702,39.87647183403097,-9.318747838148699,39.5146020063627,-8.911583953097608,39.168951789617445,-8.505303980651457,38.839284538977665,-8.099956831405274,38.525363609625806,-7.695591415954091,38.22695235674432,-7.2922566448929285,37.94381413551565,-6.890001428816823,37.67571230112226,-6.488874678320794,37.42241020874658,-6.088925303999877,37.18367121357108,-5.690202216449093,36.95925867077821,-5.292754326263473,36.74893593555041,-4.896630544038046,36.552466363070145,-4.501879780367837,36.36961330851985,-4.1085509458478775,36.20014012708199,-3.7166929510731936,36.04381017393901,-3.3263547066388135,35.90038680427335,-2.9375851231397645,35.76963337326749,-2.550433111171075,35.65131323610385,-2.1649475813277728,35.54518974796489,-1.7811774442048858,35.45102626403307,-1.399171610397442,35.36858613949083,-1.01897899050047,35.297632729520636,-0.6406484951089972,35.237929389304924,-0.26422903481805193,35.189239474026145,0.11023047977733799,35.15132633886675,0.4826811380821463,35.12395333900921,0.8530740295013428,35.10688382963595,1.2213602434399005,35.099881165929425,1.5874908693027923,35.1027087030721,1.9514169964949895,35.115129796246414,2.313089714421462,35.13690780063482,2.672460112487186,35.167806071419776,3.029479280097132,35.20758796378372,3.3840983066562678,35.25601683290912,3.7362682815695725,35.312856033978406,4.085940294242015,35.37786892217404,4.433065434078566,35.45081885267848,4.7775947904842,35.531469180674165,5.119479452863888,35.61958326134355,5.458670510622602,35.71492444986909,5.795119053165314,35.81725610143322,6.128776169896996,35.92634157121841,6.4595929502226195,36.04194421440711,6.7875204835471585,36.16382738618175,7.112509859275584,36.29175444172481,7.434512166812867,36.42548873621872,7.753478495563982,36.56479362484593,8.069359934933898,36.709432462788904,8.38210757432759,36.85916860523009,8.691672503150029,37.01376540735193,8.998005810806186,37.17298622433689,9.301058586701034,37.33659441136739,9.600781920239545,37.50435332362592,9.89712690082669,37.676026316294916,10.190044617867445,37.851376744556816,10.479486160766777,38.03016796359408,10.765402618929658,38.212163328589156,11.047745081761066,38.397126194724514,11.326464638665971,38.58481991718258,11.601512379049339,38.77500785114581,11.872839392316148,38.967453351796664,12.14039676787137,39.16191977431758,12.404135595119975,39.35817047389103,12.664006963466935,39.555968805699436,12.919961962317224,39.75507812492528,13.171951681075814,39.95526178675098,13.419927209147673,40.156283146359016,13.663839635937778,40.357905558931826,13.903640050851102,40.559892379651856,14.13927954329261,40.76200696370157,14.37070920266728,40.964012666263415,14.59788011838008,41.165672842519825,14.820743379835985,41.36675084765327,15.03925007643997,41.56701003684619,15.253351297597,41.76621376528105,15.46299813271205,41.96412538814029,15.668141671190098,42.160508260606356,15.868733002436107,42.35512573786171,16.064723215855054,42.5477411750888,16.256063400851907,42.73811792747007,16.44270464683165,42.92601935018797,16.624598043199235,43.11120879842497,16.80169467935965,43.29344962736351,16.80169467935965,43.29344962736351,16.47039395110614,43.26262348457941,16.139093222852637,43.23079020983707,15.807792494599127,43.19803063166479,15.476491766345623,43.16442557859092,15.145191038092113,43.130055879143804,14.813890309838607,43.09500236185175,14.482589581585097,43.05934585524311,14.151288853331593,43.023167187846205,13.819988125078087,42.98654718818938,13.488687396824577,42.94956668480096,13.157386668571068,42.91230650620928,12.826085940317562,42.874847480942684,12.494785212064052,42.83727043752948,12.163484483810548,42.799656204498035,11.832183755557038,42.76208561037666,11.500883027303532,42.724639483693686,11.169582299050022,42.68739865297746,10.838281570796518,42.650443946756305,10.506980842543012,42.61385619355856,10.175680114289502,42.57771622191255,9.844379386035994,42.542104860346626,9.513078657782488,42.507102937389114,9.18177792952898,42.472791281568334,8.85047720127547,42.439250721412634,8.519176473021966,42.40656208545034,8.187875744768458,42.37480620220979,7.856575016514949,42.34406390021931,7.525274288261443,42.31441600800724,7.193973560007935,42.285943354101924,6.862672831754426,42.258726767031675,6.531372103500921,42.232847075324834,6.200071375247412,42.208385107509734,5.868770646993903,42.185421692114716,5.537469918740398,42.164037657668096,5.206169190486892,42.144313832698224,4.874868462233383,42.12633104573342,4.543567733979875,42.110170125302034,4.212267005726369,42.095911899932396,3.8809662774728606,42.08363719815283,3.5496655492193523,42.07342684849167,3.218364820965848,42.06536167947725,2.88706409271234,42.05952251963791,2.5557633644588327,42.055990197501984,2.224462636205324,42.054845541597786,1.8931619079518178,42.056169380453674,1.5618611796983093,42.06004254259797,1.2305604514448016,42.06654585655901,0.8992597231912942,42.07576015086513,0.5679589949377867,42.08776625404465,0.2366582666842792,42.10264499462591,-0.09464246156922834,42.12047720113726,-0.4259431898227358,42.141343702107015,-0.7572439180762434,42.16532532606351,-1.0885446463297508,42.192502901535086,-1.4198453745832593,42.22295725705006,-1.7511461028367656,42.25676922113679,-2.082446831090272,42.294019622323596,-2.4137475593437796,42.334789289138804,-2.745048287597286,42.37915905011076,-3.076349015850796,42.427209733767796,-3.4076497441043023,42.47902216863823,-3.7389504723578098,42.534677183250416,-4.0702512006113185,42.59425560613268,-4.401551928864825,42.657838265813346,-4.7328526571183325,42.725505990820764,-5.064153385371841,42.79733960968326,-5.395454113625347,42.87341995092916,-5.726754841878855,42.953827843086806,-6.058055570132361,43.03864411468452,-6.389356298385869,43.12794959425066,-6.720657026639377,43.22182511031354,-7.051957754892885,43.32035149140149,-7.383258483146391,43.42360956604285,-7.7145592113999,43.53168016276596,-8.045859939653408,43.644644110099144,-8.377160667906914,43.76258223657074,-8.708461396160422,43.885575370709084,-9.03976212441393,44.01370434104249,-9.371062852667436,44.147049976099325,-9.702363580920943,44.2856931044079,-10.033664309174453,44.42971455449654,-10.36496503742796,44.5791951548936,-10.696265765681463,44.7342157341274,-11.027566493934973,44.89485712072628,-11.358867222188483,45.06120014321857,-11.690167950441989,45.233325630132605,-12.021468678695495,45.41131440999672,-12.352769406949005,45.59524731133924,-12.684070135202509,45.785205162688506,-13.015370863456019,45.981268792572855,-13.346671591709528,46.18351902952061,-13.677972319963034,46.39203670206012,-14.009273048216539,46.60690263871969,-14.340573776470048,46.828197668027684,-14.671874504723554,47.05600261851241,-15.003175232977064,47.29039831870222,-15.334475961230568,47.531465597125454,-15.665776689484078,47.77928528231042,-15.997077417737584,48.033938202785464" fill="rgb(215,127,140)" stroke="black" stroke-width="3" stroke-linejoin="round" filter="url(#fuzzy)"></polyline></g></svg>