<svg viewBox="-100 -100 200 200" xmlns="http://www.w3.org/2000/svg" width="400" height="400" id="face-svg"><defs><clipPath id="leftEyeClipPath"><polyline points="21.375038611133128,-0.9151792650472617,21.124868146315997,-1.0724591248139062,20.847826870970675,-1.2345046939516697,20.545087226211027,-1.399728439162545,20.217801103264904,-1.566640501666635,19.867099827114977,-1.733846336583862,19.49409414013957,-1.90004435231568,19.099874185753542,-2.064023549926776,18.6855094920491,-2.2246611625267807,18.25204895543668,-2.3809202946519763,17.800520824285776,-2.531847561647007,17.33193268256577,-2.6765707290465794,16.847271433486835,-2.8142963519571813,16.347503283140714,-2.9443074144387795,15.833573724141626,-3.065960968886535,15.306407519267074,-3.1786857754125064,14.70803630814511,-3.428798299841815,14.091591169360745,-3.6572847899653853,13.458329628589633,-3.863219228967906,12.80953757634549,-4.045915166064694,12.146523504054594,-4.2049080231337514,11.470612972775479,-4.339938050896595,10.783143310970607,-4.4509339231143334,10.08545853773675,-4.5379969572654515,9.378904507900993,-4.601385950171676,8.66482427538903,-4.641502617038491,7.944553671272635,-4.658877622376656,7.219417092903074,-4.654157191271241,6.490723500537264,-4.628090289464569,5.7597626178634425,-4.581516360719607,5.027801332833199,-4.515353609930158,4.296080295206606,-4.4305878204443685,3.56581070721729,-4.328261694067991,2.838171303764237,-4.209464702213846,2.114305518537071,-4.0753234366639175,1.3953188324816863,-3.9269924484106022,0.6822763010129727,-3.7656455630434342,-0.023799743618566627,-3.5924676611479116,-0.7219318183994798,-3.4086469121827125,-1.4111892476585361,-3.2153674503018417,-2.0906899567976214,-3.013802480588157,-2.7596021052415165,-2.805107804164682,-3.417145562199822,-2.590415750650201,-4.062593228834167,-2.3708295064255696,-4.695272210423987,-2.1474178271771835,-5.31456484212398,-1.921210123184081,-5.919909571906528,-1.6931919058151026,-6.51080170428223,-1.4643005837025838,-7.086794008391811,-1.2354215970590134,-7.6474971940625185,-1.007384878603136,-8.19258025942232,-0.7809616295618982,-8.721770713664998,-0.5568613992147577,-9.234854678559476,-0.33572945644675123,-9.731676872296399,-0.11814444177680983,-10.212140479265376,0.09538371167225623,-10.676206909355926,0.3044155997956359,-11.123895450375423,0.5085839232537954,-11.55528281717719,0.7075948288787455,-11.970502601092015,0.9012290282727835,-12.369744623256198,1.0893427051333253,-12.753254195429404,1.2718682228373313,-13.121331291895528,1.4488146438188907,-13.474329636039743,1.6202680722735074,-13.812655705194894,1.7863918317226446,-14.13676765735057,1.947426488972066,-14.447174183317953,2.103689735997531,-14.744436498622845,2.2551501233452274,-15.028828045675903,2.401555687961682,-15.300471564583527,2.542964781384833,-15.559500788846078,2.679452816810122,-15.806059964125163,2.811110724418824,-16.040303367010978,2.9380434067063743,-16.26239482378965,3.0603681938106977,-16.47250722921058,3.1782132988405385,-16.670822065253734,3.2917162732037824,-16.85752891989703,3.4010224619357894,-17.032825005883616,3.5062834590277205,-17.19691467948926,3.6076555627548648,-17.350008959289614,3.705298231004969,-17.492325044927597,3.7993725366065627,-15.241308611554215,5.107787791815531,-14.963198437365056,5.128657927022832,-14.675501466312364,5.147474079213056,-14.378257634246465,5.164047295087775,-14.071525225647436,5.178183590648791,-13.75537989366032,5.1896853009348005,-13.429913680130445,5.198352429758047,-13.095234035638688,5.203983999440975,-12.751462839536766,5.206379400552889,-12.39873541998247,5.205339741646606,-12.037199573974993,5.20066919899511,-11.66701458739018,5.192176366328212,-11.288350255015805,5.179675604569204,-10.901385900586856,5.162988391571508,-10.506309396820816,5.141944671855343,-10.10194221197315,5.117071175848501,-9.687122904862008,5.0886580993307495,-9.262081536268678,5.0562247657362684,-8.827061679864059,5.019340631969789,-8.382319416332518,4.97762618588114,-7.928122314305368,4.930753753952942,-7.464748405421016,4.878448209123437,-6.9924851608288225,4.820487568666381,-6.511628476453771,4.756703472049998,-6.022481674339019,4.686981528696956,-5.52535452738339,4.61126152556731,-5.020562314790878,4.5295374844864185,-4.508424915549215,4.441857559139748,-3.9892659472546312,4.34832376165658,-3.463411957599814,4.249091508704563,-2.93119167584215,4.144368977017069,-2.3929353315693533,4.034416258275345,-1.8489740480795098,3.9195443032674024,-1.2996393176926344,3.800113645245623,-0.7452625663107946,3.6765328924050436,-0.18617481454387974,3.549256979404292,0.37729355728191916,3.4187851678511274,0.9448129329158452,3.2856587856745696,1.5160544654574646,3.1504586953055624,2.0906899567976214,3.0138024805881565,2.6683916039084123,2.8763413423431685,3.2488316046650922,2.7387566925062807,3.8316816158828546,2.6017564367625594,4.416612056251398,2.4660709355993373,5.003291246850233,2.332448633699451,5.591384381927641,2.2016513475967825,6.18055232262622,2.0744492015160736,6.77045020633795,1.9516152013189911,7.360725864371716,1.8339194364783888,7.951018040616187,1.7221229000027538,8.540954403881033,1.6169709162327885,9.130149346599346,1.5191861664321005,9.71820156257427,1.429461302093968,10.304691396452688,1.3484511358861444,10.889177957608968,1.2767644001556628,11.471195991121654,1.2149550629156254,12.050252498526064,1.1635131912359187,12.62582310102566,1.1228553519598465,13.19734813784523,1.0933145396686168,13.764228492408705,1.0751296218156856,14.325821139024596,1.0684342909528963,14.881434402761977,1.0732455139703792,15.430322925199935,1.0894514682722094,15.97168232873341,1.1167989548097452,16.50464357211837,1.1548802778946516,16.94303935122403,1.1193231014858878,17.372180459834833,1.085961128468207,17.791302964871065,1.054410706609013,18.19960216728961,1.024239562061621,18.596231567926175,0.9949651304712694,18.980301833337503,0.966052888081137,19.35087976164359,0.9369146828383528,19.70698724836988,0.9069070655000124,20.047600252289534,0.8753296207391874,20.371647761265564,0.8414232982509442,20.678010758093112,0.8043687438583547,20.96552118634166,0.7632846306185064,21.23296091619721,0.7172259899285254,21.479060710304513,0.6651825426315763,21.702499189609306,0.6060770301228899"></polyline></clipPath><clipPath id="rightEyeClipPath"><polyline points="-19.306331362505656,-1.606044262843474,-19.081811717135057,-1.869075939206109,-18.834363716014575,-2.1359741005665196,-18.564746386001737,-2.4046584625528826,-18.273714434493556,-2.673180640078888,-17.962017950404217,-2.939720925823517,-17.630402105142778,-3.2025850687108193,-17.27960685359083,-3.460201052389687,-16.91036663508025,-3.711115873713622,-16.52341007437083,-3.9539923212205235,-16.119459682627983,-4.187605753612443,-15.699231558400461,-4.410840878235387,-15.263435088598014,-4.622688529559069,-14.812772649469101,-4.822242447656693,-14.34793930757856,-5.00869605668473,-13.869622520785333,-5.181339243362688,-13.347659322564999,-5.543618574614381,-12.805963545332968,-5.874574507200917,-12.24540045263466,-6.172995304018544,-11.666897383677375,-6.437999422449689,-11.07143738973024,-6.669010945079725,-10.460053062606416,-6.865735915585265,-9.833820553131522,-7.02813956370912,-9.193853777502115,-7.156424403237068,-8.54129880943805,-7.251009186891666,-7.877328456032612,-7.312508702058249,-7.203137015204278,-7.341714391258272,-6.51993521265396,-7.339575781285214,-5.828945316231606,-7.307182704918196,-5.131396425615996,-7.245748299128483,-4.428519935211609,-7.1565927636940465,-3.7215451681664176,-7.041127864137392,-3.011695179414474,-6.900842162901778,-2.3001827256471596,-6.737286962681043,-1.5882064001169096,-6.552062945818198,-0.876946930177344,-6.346807493687967,-0.16756363546361747,-6.123182669978419,0.5388089553831548,-5.8828638517869525,1.2410643315434882,-5.62752899244567,1.9381270724953326,-5.358848499991478,2.6289557682341913,-5.0784757151959425,3.312545789333699,-4.788037973070185,3.98793190894283,-4.489128231759922,4.654190778815814,-4.183297252745856,5.310443261470975,-3.872046316264612,5.955856620574556,-3.556820455865328,6.5896465716457415,-3.2390021960171644,7.21107919517896,-2.9199057766828176,7.819472714279629,-2.6007718487732916,8.414199138909492,-2.2827626243990515,8.994685778837674,-1.9669574658327544,9.560416627393588,-1.6543488970987186,10.11093361811784,-1.3458390221043457,10.645837756407294,-1.0422363332286126,11.164790128250395,-0.7442528942828526,11.667512788148915,-0.452501881758991,12.15378952832225,-0.16749546828039907,12.62346653129043,0.11035696782945781,13.076452907931955,0.3807503229453708,13.512721123112598,0.6434849545906047,13.932307310981342,0.8984675900237891,14.335311482029544,1.1457119730472947,14.721897624009543,1.3853392651219418,15.09229369880874,1.6175782168728463,15.446791537375363,1.8427651260712463,15.785746634792117,2.0613435981771167,16.109805624434514,2.2732722084561057,16.41934566159421,2.478202713933577,16.714378505090743,2.6762177782819907,16.99493289548457,2.8674237288756,17.261054274344072,3.051948402572871,17.512804503512605,3.2299389914988947,17.75026158437555,3.401559888827801,17.973519377127342,3.5669905345651807,18.182687320038497,3.726423261330491,18.37789014872271,3.880061140139474,18.559267615403805,4.028115826186575,18.726974208182874,4.17080540462735,18.881178870305234,4.308352236360892,19.022064719427522,4.4409808038122325,16.887646530264036,6.1685145678024,16.558477842532366,6.207027645124067,16.217911369572555,6.244060290380366,15.866056337637778,6.279430730089787,15.503049027570972,6.312950883328368,15.12905149129069,6.344427589023727,14.744250268277096,6.373663833249087,14.34885510205783,6.400459976517306,13.943097656693965,6.424614981074901,13.527230233265906,6.445927638196079,13.101524486359319,6.464197795476759,12.666270140551058,6.479227584128607,12.221773706895084,6.490822646273056,11.768357199408358,6.498793362235337,11.306356851556822,6.502956077838508,10.834313586200794,6.503850466244884,10.350849124207954,6.501793474450873,9.856449379610202,6.496302512136703,9.351623333484966,6.486935716685322,8.836900851292475,6.473292904680531,8.31283046681755,6.45501645100662,7.77997714229945,6.431792086385688,7.238920014333276,6.4033496041888585,6.690250135126631,6.369463467357607,6.134568218694987,6.329953306271394,5.572482401579396,6.2846842983978,5.004606027670127,6.2335674205613945,4.431555466719732,6.176559564667506,3.853947976129202,6.113663507717138,3.2723996155907127,6.044927726949202,2.687523224170561,5.970446050946287,2.099926469415876,5.890357137540176,1.510209978068654,5.804843769353298,0.9189655579706999,5.714131957812336,0.3267745207430364,5.618489846470181,-0.2657938851766225,5.518226404472454,-0.8581839215547904,5.413689901004776,-1.4498546778579322,5.305266151557024,-2.0402812496394285,5.193376526840744,-2.6289557682341913,5.0784757151959425,-3.2153882721773916,4.961049229323467,-3.799107410763696,4.841610648179163,-4.379660970163451,4.720698584866029,-4.956616212512263,4.598873371360557,-5.5295600183903515,4.47671345090948,-6.098098823108169,4.354811468933125,-6.66185833721467,4.233770053271565,-7.22048304164466,4.114197274609793,-7.77363544792169,3.9967017779181093,-8.32099511383286,3.881887575743935,-8.862257404992038,3.770348494191246,-9.397131992707855,3.662662262423846,-9.925341078572943,3.5593842365286705,-10.44661733619082,3.4610407485753356,-10.960701560456885,3.3681220717081257,-11.467340014809908,3.281074992106639,-11.96628146687049,3.200294978651279,-12.457273902882845,3.1261179411298192,-12.940060911376454,3.058811567821211,-13.414377726463881,2.9985662332928764,-13.879946921191294,2.9454854672476714,-14.336473741358054,2.8995759752567185,-14.783641070221789,2.8607372022143283,-15.22110401450548,2.8287504293512082,-15.648484102122838,2.803267395642156,-16.01276717540268,2.7210164422446925,-16.367307052525753,2.637994323616229,-16.711614557267595,2.5537966805778245,-17.04517297664505,2.46797520675503,-17.367437261788975,2.380036169478616,-17.677833228816926,2.2894389306853045,-17.97575675970588,2.1955944678185046,-18.26057300316492,2.0978638947290387,-18.531615575507942,1.9955569825758799,-18.788185761526364,1.8879306807268823,-19.02955171536182,1.7741876376595105,-19.254947661378875,1.6534747218615733,-19.463573095037702,1.5248815427319573,-19.6545919837668,1.3874389714813553,-19.82713196783571,1.2401176620330032"></polyline></clipPath><filter id="fuzzy"><feTurbulence id="turbulence" baseFrequency="0.05" numOctaves="3" type="noise" result="noise"></feTurbulence><feDisplacementMap in="SourceGraphic" in2="noise" scale="2"></feDisplacementMap></filter><linearGradient id="rainbowGradient" x1="0%" y1="0%" x2="100%" y2="0%"><stop offset="0%" style="stop-color: rgb(145, 85, 61);  stop-opacity: 1"></stop><stop offset="50%" style="stop-color: rgb(44, 34, 43);  stop-opacity: 1"></stop><stop offset="100%" style="stop-color: rgb(255, 165, 0);  stop-opacity: 1"></stop></linearGradient></defs><title>That&#39;s an ugly face</title><desc>CREATED BY XUAN TANG, MORE INFO AT TXSTC55.GITHUB.IO</desc><rect x="-100" y="-100" width="100%" height="100%" opacity="1" fill="rgb(211, 211, 211)"></rect><polyline id="faceContour" points="53,-1,53,3,53,3,53,4,53,4,53,5,53,7,53,9,53,11,53,13,53,13,53,14,52,16,52,16,52,18,52,21,52,22,52,22,52,21,51,25,51,25,51,27,50,30,51,29,50,32,50,33,49,34,49,35,49,35,49,38,48,39,48,38,48,40,48,40,46,43,46,45,46,45,46,45,45,48,44,49,44,50,44,50,43,51,42,53,42,53,41,55,41,56,41,56,40,58,40,58,39,59,38,61,38,61,37,62,37,63,36,64,36,65,34,67,34,67,33,68,32,69,32,69,32,69,29,72,29,73,30,71,28,73,27,74,27,74,26,75,25,76,24,77,22,78,23,78,22,78,21,79,21,79,20,80,19,80,18,81,17,82,16,82,15,82,15,83,15,83,13,83,13,83,10,85,9,85,9,85,7,85,8,85,7,85,6,86,6,86,4,86,2,86,2,86,2,86,1,87,0,87,-1,87,-2,87,-2,87,-3,87,-4,87,-6,86,-6,86,-7,86,-8,86,-9,86,-10,86,-11,86,-12,85,-12,85,-12,85,-13,85,-15,84,-15,84,-16,84,-17,83,-18,83,-18,83,-20,82,-20,82,-21,81,-22,80,-22,80,-23,80,-24,79,-25,78,-27,77,-26,77,-29,75,-28,75,-29,75,-29,74,-30,74,-30,74,-32,72,-32,72,-32,71,-33,70,-35,68,-34,69,-36,68,-36,66,-37,66,-37,66,-38,63,-39,62,-40,61,-40,61,-40,60,-41,58,-41,58,-42,57,-43,54,-43,55,-44,53,-45,51,-44,52,-44,51,-46,49,-46,48,-47,46,-47,45,-47,43,-47,44,-47,44,-48,41,-49,39,-49,38,-50,35,-49,38,-50,33,-50,34,-50,32,-51,29,-51,29,-51,28,-51,27,-51,26,-52,24,-52,23,-52,21,-52,19,-52,19,-53,17,-53,16,-53,16,-53,15,-53,13,-53,10,-53,10,-53,7,-53,4,-53,5,-53,3,-53,1,-53,-2,-53,-1,-53,-5,-53,-4,-53,-6,-53,-8,-53,-9,-53,-10,-53,-10,-52,-14,-52,-15,-52,-15,-52,-17,-52,-17,-52,-18,-51,-19,-51,-22,-50,-25,-50,-25,-50,-28,-50,-26,-50,-29,-49,-30,-49,-32,-49,-32,-48,-35,-47,-38,-48,-37,-47,-38,-47,-39,-47,-40,-46,-41,-46,-43,-45,-44,-45,-45,-44,-48,-43,-48,-43,-49,-43,-51,-43,-50,-42,-53,-42,-53,-41,-54,-41,-55,-40,-56,-38,-59,-39,-58,-39,-59,-38,-61,-37,-62,-37,-62,-36,-64,-35,-65,-35,-65,-35,-65,-33,-68,-32,-69,-32,-69,-32,-70,-30,-72,-30,-72,-29,-73,-28,-73,-28,-74,-28,-74,-27,-75,-27,-75,-26,-76,-25,-77,-24,-77,-24,-78,-22,-79,-21,-80,-21,-80,-21,-80,-20,-81,-20,-81,-18,-82,-17,-83,-18,-82,-16,-83,-15,-83,-15,-83,-14,-84,-13,-84,-11,-85,-10,-85,-10,-85,-10,-85,-9,-86,-8,-86,-7,-86,-7,-86,-5,-87,-4,-86,-4,-86,-3,-87,-2,-87,-2,-87,-2,-86,0,-87,0,-87,2,-86,2,-86,4,-86,4,-86,6,-86,7,-85,7,-85,7,-85,7,-85,9,-85,9,-85,11,-84,10,-85,11,-84,14,-83,14,-83,14,-82,14,-83,16,-82,16,-81,17,-81,18,-80,19,-79,20,-79,19,-79,20,-79,21,-78,23,-76,23,-76,23,-76,25,-74,26,-73,27,-72,27,-72,27,-73,29,-70,29,-71,29,-70,31,-68,30,-68,32,-67,32,-66,33,-65,34,-63,34,-63,35,-62,35,-62,36,-61,37,-58,37,-59,38,-57,37,-58,38,-56,40,-54,40,-54,40,-53,41,-52,42,-50,42,-49,42,-49,43,-47,43,-46,44,-44,44,-44,45,-43,45,-41,46,-41,46,-39,46,-38,47,-36,47,-37,48,-34,48,-35,48,-32,49,-30,49,-31,49,-29,50,-26,50,-26,50,-25,51,-23,51,-21,51,-21,51,-19,51,-18,51,-17,52,-15,52,-14,52,-14,52,-10,52,-11,52,-8,53,-7,53,-6,53,-7,53,-4,53,-1,53,-3,53,-1,53,3" fill="#ffc9a9" stroke="black" stroke-width="1.6666666666666665" stroke-linejoin="round" filter="url(#fuzzy)"></polyline><g transform="translate(25.568713346993007 -27.81892410464745)"><polyline id="rightCountour" points="-19.306331362505656,-1.606044262843474,-19.081811717135057,-1.869075939206109,-18.834363716014575,-2.1359741005665196,-18.564746386001737,-2.4046584625528826,-18.273714434493556,-2.673180640078888,-17.962017950404217,-2.939720925823517,-17.630402105142778,-3.2025850687108193,-17.27960685359083,-3.460201052389687,-16.91036663508025,-3.711115873713622,-16.52341007437083,-3.9539923212205235,-16.119459682627983,-4.187605753612443,-15.699231558400461,-4.410840878235387,-15.263435088598014,-4.622688529559069,-14.812772649469101,-4.822242447656693,-14.34793930757856,-5.00869605668473,-13.869622520785333,-5.181339243362688,-13.347659322564999,-5.543618574614381,-12.805963545332968,-5.874574507200917,-12.24540045263466,-6.172995304018544,-11.666897383677375,-6.437999422449689,-11.07143738973024,-6.669010945079725,-10.460053062606416,-6.865735915585265,-9.833820553131522,-7.02813956370912,-9.193853777502115,-7.156424403237068,-8.54129880943805,-7.251009186891666,-7.877328456032612,-7.312508702058249,-7.203137015204278,-7.341714391258272,-6.51993521265396,-7.339575781285214,-5.828945316231606,-7.307182704918196,-5.131396425615996,-7.245748299128483,-4.428519935211609,-7.1565927636940465,-3.7215451681664176,-7.041127864137392,-3.011695179414474,-6.900842162901778,-2.3001827256471596,-6.737286962681043,-1.5882064001169096,-6.552062945818198,-0.876946930177344,-6.346807493687967,-0.16756363546361747,-6.123182669978419,0.5388089553831548,-5.8828638517869525,1.2410643315434882,-5.62752899244567,1.9381270724953326,-5.358848499991478,2.6289557682341913,-5.0784757151959425,3.312545789333699,-4.788037973070185,3.98793190894283,-4.489128231759922,4.654190778815814,-4.183297252745856,5.310443261470975,-3.872046316264612,5.955856620574556,-3.556820455865328,6.5896465716457415,-3.2390021960171644,7.21107919517896,-2.9199057766828176,7.819472714279629,-2.6007718487732916,8.414199138909492,-2.2827626243990515,8.994685778837674,-1.9669574658327544,9.560416627393588,-1.6543488970987186,10.11093361811784,-1.3458390221043457,10.645837756407294,-1.0422363332286126,11.164790128250395,-0.7442528942828526,11.667512788148915,-0.452501881758991,12.15378952832225,-0.16749546828039907,12.62346653129043,0.11035696782945781,13.076452907931955,0.3807503229453708,13.512721123112598,0.6434849545906047,13.932307310981342,0.8984675900237891,14.335311482029544,1.1457119730472947,14.721897624009543,1.3853392651219418,15.09229369880874,1.6175782168728463,15.446791537375363,1.8427651260712463,15.785746634792117,2.0613435981771167,16.109805624434514,2.2732722084561057,16.41934566159421,2.478202713933577,16.714378505090743,2.6762177782819907,16.99493289548457,2.8674237288756,17.261054274344072,3.051948402572871,17.512804503512605,3.2299389914988947,17.75026158437555,3.401559888827801,17.973519377127342,3.5669905345651807,18.182687320038497,3.726423261330491,18.37789014872271,3.880061140139474,18.559267615403805,4.028115826186575,18.726974208182874,4.17080540462735,18.881178870305234,4.308352236360892,19.022064719427522,4.4409808038122325,16.887646530264036,6.1685145678024,16.558477842532366,6.207027645124067,16.217911369572555,6.244060290380366,15.866056337637778,6.279430730089787,15.503049027570972,6.312950883328368,15.12905149129069,6.344427589023727,14.744250268277096,6.373663833249087,14.34885510205783,6.400459976517306,13.943097656693965,6.424614981074901,13.527230233265906,6.445927638196079,13.101524486359319,6.464197795476759,12.666270140551058,6.479227584128607,12.221773706895084,6.490822646273056,11.768357199408358,6.498793362235337,11.306356851556822,6.502956077838508,10.834313586200794,6.503850466244884,10.350849124207954,6.501793474450873,9.856449379610202,6.496302512136703,9.351623333484966,6.486935716685322,8.836900851292475,6.473292904680531,8.31283046681755,6.45501645100662,7.77997714229945,6.431792086385688,7.238920014333276,6.4033496041888585,6.690250135126631,6.369463467357607,6.134568218694987,6.329953306271394,5.572482401579396,6.2846842983978,5.004606027670127,6.2335674205613945,4.431555466719732,6.176559564667506,3.853947976129202,6.113663507717138,3.2723996155907127,6.044927726949202,2.687523224170561,5.970446050946287,2.099926469415876,5.890357137540176,1.510209978068654,5.804843769353298,0.9189655579706999,5.714131957812336,0.3267745207430364,5.618489846470181,-0.2657938851766225,5.518226404472454,-0.8581839215547904,5.413689901004776,-1.4498546778579322,5.305266151557024,-2.0402812496394285,5.193376526840744,-2.6289557682341913,5.0784757151959425,-3.2153882721773916,4.961049229323467,-3.799107410763696,4.841610648179163,-4.379660970163451,4.720698584866029,-4.956616212512263,4.598873371360557,-5.5295600183903515,4.47671345090948,-6.098098823108169,4.354811468933125,-6.66185833721467,4.233770053271565,-7.22048304164466,4.114197274609793,-7.77363544792169,3.9967017779181093,-8.32099511383286,3.881887575743935,-8.862257404992038,3.770348494191246,-9.397131992707855,3.662662262423846,-9.925341078572943,3.5593842365286705,-10.44661733619082,3.4610407485753356,-10.960701560456885,3.3681220717081257,-11.467340014809908,3.281074992106639,-11.96628146687049,3.200294978651279,-12.457273902882845,3.1261179411298192,-12.940060911376454,3.058811567821211,-13.414377726463881,2.9985662332928764,-13.879946921191294,2.9454854672476714,-14.336473741358054,2.8995759752567185,-14.783641070221789,2.8607372022143283,-15.22110401450548,2.8287504293512082,-15.648484102122838,2.803267395642156,-16.01276717540268,2.7210164422446925,-16.367307052525753,2.637994323616229,-16.711614557267595,2.5537966805778245,-17.04517297664505,2.46797520675503,-17.367437261788975,2.380036169478616,-17.677833228816926,2.2894389306853045,-17.97575675970588,2.1955944678185046,-18.26057300316492,2.0978638947290387,-18.531615575507942,1.9955569825758799,-18.788185761526364,1.8879306807268823,-19.02955171536182,1.7741876376595105,-19.254947661378875,1.6534747218615733,-19.463573095037702,1.5248815427319573,-19.6545919837668,1.3874389714813553,-19.82713196783571,1.2401176620330032" fill="white" stroke="white" stroke-width="0" stroke-linejoin="round" filter="url(#fuzzy)"></polyline></g><g transform="translate(-26.429571355852488 -31.206770129090252)"><polyline id="leftCountour" points="21.375038611133128,-0.9151792650472617,21.124868146315997,-1.0724591248139062,20.847826870970675,-1.2345046939516697,20.545087226211027,-1.399728439162545,20.217801103264904,-1.566640501666635,19.867099827114977,-1.733846336583862,19.49409414013957,-1.90004435231568,19.099874185753542,-2.064023549926776,18.6855094920491,-2.2246611625267807,18.25204895543668,-2.3809202946519763,17.800520824285776,-2.531847561647007,17.33193268256577,-2.6765707290465794,16.847271433486835,-2.8142963519571813,16.347503283140714,-2.9443074144387795,15.833573724141626,-3.065960968886535,15.306407519267074,-3.1786857754125064,14.70803630814511,-3.428798299841815,14.091591169360745,-3.6572847899653853,13.458329628589633,-3.863219228967906,12.80953757634549,-4.045915166064694,12.146523504054594,-4.2049080231337514,11.470612972775479,-4.339938050896595,10.783143310970607,-4.4509339231143334,10.08545853773675,-4.5379969572654515,9.378904507900993,-4.601385950171676,8.66482427538903,-4.641502617038491,7.944553671272635,-4.658877622376656,7.219417092903074,-4.654157191271241,6.490723500537264,-4.628090289464569,5.7597626178634425,-4.581516360719607,5.027801332833199,-4.515353609930158,4.296080295206606,-4.4305878204443685,3.56581070721729,-4.328261694067991,2.838171303764237,-4.209464702213846,2.114305518537071,-4.0753234366639175,1.3953188324816863,-3.9269924484106022,0.6822763010129727,-3.7656455630434342,-0.023799743618566627,-3.5924676611479116,-0.7219318183994798,-3.4086469121827125,-1.4111892476585361,-3.2153674503018417,-2.0906899567976214,-3.013802480588157,-2.7596021052415165,-2.805107804164682,-3.417145562199822,-2.590415750650201,-4.062593228834167,-2.3708295064255696,-4.695272210423987,-2.1474178271771835,-5.31456484212398,-1.921210123184081,-5.919909571906528,-1.6931919058151026,-6.51080170428223,-1.4643005837025838,-7.086794008391811,-1.2354215970590134,-7.6474971940625185,-1.007384878603136,-8.19258025942232,-0.7809616295618982,-8.721770713664998,-0.5568613992147577,-9.234854678559476,-0.33572945644675123,-9.731676872296399,-0.11814444177680983,-10.212140479265376,0.09538371167225623,-10.676206909355926,0.3044155997956359,-11.123895450375423,0.5085839232537954,-11.55528281717719,0.7075948288787455,-11.970502601092015,0.9012290282727835,-12.369744623256198,1.0893427051333253,-12.753254195429404,1.2718682228373313,-13.121331291895528,1.4488146438188907,-13.474329636039743,1.6202680722735074,-13.812655705194894,1.7863918317226446,-14.13676765735057,1.947426488972066,-14.447174183317953,2.103689735997531,-14.744436498622845,2.2551501233452274,-15.028828045675903,2.401555687961682,-15.300471564583527,2.542964781384833,-15.559500788846078,2.679452816810122,-15.806059964125163,2.811110724418824,-16.040303367010978,2.9380434067063743,-16.26239482378965,3.0603681938106977,-16.47250722921058,3.1782132988405385,-16.670822065253734,3.2917162732037824,-16.85752891989703,3.4010224619357894,-17.032825005883616,3.5062834590277205,-17.19691467948926,3.6076555627548648,-17.350008959289614,3.705298231004969,-17.492325044927597,3.7993725366065627,-15.241308611554215,5.107787791815531,-14.963198437365056,5.128657927022832,-14.675501466312364,5.147474079213056,-14.378257634246465,5.164047295087775,-14.071525225647436,5.178183590648791,-13.75537989366032,5.1896853009348005,-13.429913680130445,5.198352429758047,-13.095234035638688,5.203983999440975,-12.751462839536766,5.206379400552889,-12.39873541998247,5.205339741646606,-12.037199573974993,5.20066919899511,-11.66701458739018,5.192176366328212,-11.288350255015805,5.179675604569204,-10.901385900586856,5.162988391571508,-10.506309396820816,5.141944671855343,-10.10194221197315,5.117071175848501,-9.687122904862008,5.0886580993307495,-9.262081536268678,5.0562247657362684,-8.827061679864059,5.019340631969789,-8.382319416332518,4.97762618588114,-7.928122314305368,4.930753753952942,-7.464748405421016,4.878448209123437,-6.9924851608288225,4.820487568666381,-6.511628476453771,4.756703472049998,-6.022481674339019,4.686981528696956,-5.52535452738339,4.61126152556731,-5.020562314790878,4.5295374844864185,-4.508424915549215,4.441857559139748,-3.9892659472546312,4.34832376165658,-3.463411957599814,4.249091508704563,-2.93119167584215,4.144368977017069,-2.3929353315693533,4.034416258275345,-1.8489740480795098,3.9195443032674024,-1.2996393176926344,3.800113645245623,-0.7452625663107946,3.6765328924050436,-0.18617481454387974,3.549256979404292,0.37729355728191916,3.4187851678511274,0.9448129329158452,3.2856587856745696,1.5160544654574646,3.1504586953055624,2.0906899567976214,3.0138024805881565,2.6683916039084123,2.8763413423431685,3.2488316046650922,2.7387566925062807,3.8316816158828546,2.6017564367625594,4.416612056251398,2.4660709355993373,5.003291246850233,2.332448633699451,5.591384381927641,2.2016513475967825,6.18055232262622,2.0744492015160736,6.77045020633795,1.9516152013189911,7.360725864371716,1.8339194364783888,7.951018040616187,1.7221229000027538,8.540954403881033,1.6169709162327885,9.130149346599346,1.5191861664321005,9.71820156257427,1.429461302093968,10.304691396452688,1.3484511358861444,10.889177957608968,1.2767644001556628,11.471195991121654,1.2149550629156254,12.050252498526064,1.1635131912359187,12.62582310102566,1.1228553519598465,13.19734813784523,1.0933145396686168,13.764228492408705,1.0751296218156856,14.325821139024596,1.0684342909528963,14.881434402761977,1.0732455139703792,15.430322925199935,1.0894514682722094,15.97168232873341,1.1167989548097452,16.50464357211837,1.1548802778946516,16.94303935122403,1.1193231014858878,17.372180459834833,1.085961128468207,17.791302964871065,1.054410706609013,18.19960216728961,1.024239562061621,18.596231567926175,0.9949651304712694,18.980301833337503,0.966052888081137,19.35087976164359,0.9369146828383528,19.70698724836988,0.9069070655000124,20.047600252289534,0.8753296207391874,20.371647761265564,0.8414232982509442,20.678010758093112,0.8043687438583547,20.96552118634166,0.7632846306185064,21.23296091619721,0.7172259899285254,21.479060710304513,0.6651825426315763,21.702499189609306,0.6060770301228899" fill="white" stroke="white" stroke-width="0" stroke-linejoin="round" filter="url(#fuzzy)"></polyline></g><g transform="translate(25.568713346993007 -27.81892410464745)"><polyline id="rightUpper" points="-20.12099256970666,0.2531957914693601,-20.168239439361173,0.17456583530927716,-20.184795899270213,0.06330335528027131,-20.171447724669456,-0.07701518777829186,-20.12897936155715,-0.24297744751481254,-20.05817362767182,-0.4313319705452354,-19.95981141346994,-0.6389849749328196,-19.834671383103633,-0.8629971286679199,-19.683529675398365,-1.1005803281477506,-19.50715960483063,-1.3490944766561768,-19.306331362505656,-1.606044262843474,-19.081811717135057,-1.869075939206109,-18.834363716014575,-2.1359741005665196,-18.564746386001737,-2.4046584625528826,-18.273714434493556,-2.673180640078888,-17.962017950404217,-2.939720925823517,-17.630402105142778,-3.2025850687108193,-17.27960685359083,-3.460201052389687,-16.91036663508025,-3.711115873713622,-16.52341007437083,-3.9539923212205235,-16.119459682627983,-4.187605753612443,-15.699231558400461,-4.410840878235387,-15.263435088598014,-4.622688529559069,-14.812772649469101,-4.822242447656693,-14.34793930757856,-5.00869605668473,-13.869622520785333,-5.181339243362688,-13.347659322564999,-5.543618574614381,-12.805963545332968,-5.874574507200917,-12.24540045263466,-6.172995304018544,-11.666897383677375,-6.437999422449689,-11.07143738973024,-6.669010945079725,-10.460053062606416,-6.865735915585265,-9.833820553131522,-7.02813956370912,-9.193853777502115,-7.156424403237068,-8.54129880943805,-7.251009186891666,-7.877328456032612,-7.312508702058249,-7.203137015204278,-7.341714391258272,-6.51993521265396,-7.339575781285214,-5.828945316231606,-7.307182704918196,-5.131396425615996,-7.245748299128483,-4.428519935211609,-7.1565927636940465,-3.7215451681664176,-7.041127864137392,-3.011695179414474,-6.900842162901778,-2.3001827256471596,-6.737286962681043,-1.5882064001169096,-6.552062945818198,-0.876946930177344,-6.346807493687967,-0.16756363546361747,-6.123182669978419,0.5388089553831548,-5.8828638517869525,1.2410643315434882,-5.62752899244567,1.9381270724953326,-5.358848499991478,2.6289557682341913,-5.0784757151959425,3.312545789333699,-4.788037973070185,3.98793190894283,-4.489128231759922,4.654190778815814,-4.183297252745856,5.310443261470975,-3.872046316264612,5.955856620574556,-3.556820455865328,6.5896465716457415,-3.2390021960171644,7.21107919517896,-2.9199057766828176,7.819472714279629,-2.6007718487732916,8.414199138909492,-2.2827626243990515,8.994685778837674,-1.9669574658327544,9.560416627393588,-1.6543488970987186,10.11093361811784,-1.3458390221043457,10.645837756407294,-1.0422363332286126,11.164790128250395,-0.7442528942828526,11.667512788148915,-0.452501881758991,12.15378952832225,-0.16749546828039907,12.62346653129043,0.11035696782945781,13.076452907931955,0.3807503229453708,13.512721123112598,0.6434849545906047,13.932307310981342,0.8984675900237891,14.335311482029544,1.1457119730472947,14.721897624009543,1.3853392651219418,15.09229369880874,1.6175782168728463,15.446791537375363,1.8427651260712463,15.785746634792117,2.0613435981771167,16.109805624434514,2.2732722084561057,16.41934566159421,2.478202713933577,16.714378505090743,2.6762177782819907,16.99493289548457,2.8674237288756,17.261054274344072,3.051948402572871,17.512804503512605,3.2299389914988947,17.75026158437555,3.401559888827801,17.973519377127342,3.5669905345651807,18.182687320038497,3.726423261330491,18.37789014872271,3.880061140139474,18.559267615403805,4.028115826186575,18.726974208182874,4.17080540462735,18.881178870305234,4.308352236360892,19.022064719427522,4.4409808038122325,19.149828766884713,4.568915556714768,19.264681636957164,4.692378757892666,19.366847286137652,4.811588329043287,19.456562722398438,4.926755696519595,19.534077724458253,5.038083637112573,19.59965456104941,5.145764123833641,19.653567710184788,5.249976171697066,19.69610357842489,5.350883683502381,19.727560220144902,5.448633295616799,19.748247056801713,5.543352223757625" fill="none" stroke="black" stroke-width="1.6666666666666665" stroke-linejoin="round" filter="url(#fuzzy)"></polyline><polyline id="rightLower" points="-20.31669913999592,-1.048898687483799,-20.385491338696532,-0.7318706026179722,-20.424907233683264,-0.43865206936682366,-20.43622640827769,-0.16753021831924375,-20.42068412736943,0.0831328116557346,-20.379472136543455,0.3149013525082065,-20.31373946120739,0.5292676861066621,-20.224593205718783,0.7276535233372572,-20.113099352512442,0.9114114832030769,-19.98028356122769,1.0818265719234086,-19.82713196783571,1.2401176620330032,-19.6545919837668,1.3874389714813553,-19.463573095037702,1.5248815427319573,-19.254947661378875,1.6534747218615733,-19.02955171536182,1.7741876376595105,-18.788185761526364,1.8879306807268823,-18.531615575507942,1.9955569825758799,-18.26057300316492,2.0978638947290387,-17.97575675970588,2.1955944678185046,-17.677833228816926,2.2894389306853045,-17.367437261788975,2.380036169478616,-17.04517297664505,2.46797520675503,-16.711614557267595,2.5537966805778245,-16.367307052525753,2.637994323616229,-16.01276717540268,2.7210164422446925,-15.648484102122838,2.803267395642156,-15.22110401450548,2.8287504293512082,-14.783641070221789,2.8607372022143283,-14.336473741358054,2.8995759752567185,-13.879946921191294,2.9454854672476714,-13.414377726463881,2.9985662332928764,-12.940060911376454,3.058811567821211,-12.457273902882845,3.1261179411298192,-11.96628146687049,3.200294978651279,-11.467340014809908,3.281074992106639,-10.960701560456885,3.3681220717081257,-10.44661733619082,3.4610407485753356,-9.925341078572943,3.5593842365286705,-9.397131992707855,3.662662262423846,-8.862257404992038,3.770348494191246,-8.32099511383286,3.881887575743935,-7.77363544792169,3.9967017779181093,-7.22048304164466,4.114197274609793,-6.66185833721467,4.233770053271565,-6.098098823108169,4.354811468933125,-5.5295600183903515,4.47671345090948,-4.956616212512263,4.598873371360557,-4.379660970163451,4.720698584866029,-3.799107410763696,4.841610648179163,-3.2153882721773916,4.961049229323467,-2.6289557682341913,5.0784757151959425,-2.0402812496394285,5.193376526840744,-1.4498546778579322,5.305266151557024,-0.8581839215547904,5.413689901004776,-0.2657938851766225,5.518226404472454,0.3267745207430364,5.618489846470181,0.9189655579706999,5.714131957812336,1.510209978068654,5.804843769353298,2.099926469415876,5.890357137540176,2.687523224170561,5.970446050946287,3.2723996155907127,6.044927726949202,3.853947976129202,6.113663507717138,4.431555466719732,6.176559564667506,5.004606027670127,6.2335674205613945,5.572482401579396,6.2846842983978,6.134568218694987,6.329953306271394,6.690250135126631,6.369463467357607,7.238920014333276,6.4033496041888585,7.77997714229945,6.431792086385688,8.31283046681755,6.45501645100662,8.836900851292475,6.473292904680531,9.351623333484966,6.486935716685322,9.856449379610202,6.496302512136703,10.350849124207954,6.501793474450873,10.834313586200794,6.503850466244884,11.306356851556822,6.502956077838508,11.768357199408358,6.498793362235337,12.221773706895084,6.490822646273056,12.666270140551058,6.479227584128607,13.101524486359319,6.464197795476759,13.527230233265906,6.445927638196079,13.943097656693965,6.424614981074901,14.34885510205783,6.400459976517306,14.744250268277096,6.373663833249087,15.12905149129069,6.344427589023727,15.503049027570972,6.312950883328368,15.866056337637778,6.279430730089787,16.217911369572555,6.244060290380366,16.558477842532366,6.207027645124067,16.887646530264036,6.1685145678024,17.205336544618206,6.1286952971604,17.511496619063404,6.087735309912601,17.806106392200114,6.045790093449002,18.089177691274905,6.003003918541045,18.36075581569445,5.959508612047587,18.620920820539652,5.91542232962087,18.869788800079686,5.870848328412496,19.1075131712861,5.8258737397794,19.3342859573469,5.78056834198982,19.550339071180606,5.734983332929272" fill="none" stroke="black" stroke-width="2.2222222222222223" stroke-linejoin="round" filter="url(#fuzzy)"></polyline><!--[--><circle r="3.202153192339959" cx="6.627843540863278" cy="1.341028422865569" stroke="black" fill="none" stroke-width="1" filter="url(#fuzzy)" clip-path="url(#rightEyeClipPath)"></circle><circle r="3.2500833759774963" cx="6.887532079807238" cy="3.5197520354404803" stroke="black" fill="none" stroke-width="1" filter="url(#fuzzy)" clip-path="url(#rightEyeClipPath)"></circle><circle r="3.6269501407017404" cx="7.96603792233161" cy="2.6154231810448687" stroke="black" fill="none" stroke-width="1" filter="url(#fuzzy)" clip-path="url(#rightEyeClipPath)"></circle><circle r="4.456734984602598" cx="6.835667686695789" cy="1.6705621637581274" stroke="black" fill="none" stroke-width="1" filter="url(#fuzzy)" clip-path="url(#rightEyeClipPath)"></circle><circle r="3.681685582941652" cx="6.264461455275356" cy="1.2487428446007889" stroke="black" fill="none" stroke-width="1" filter="url(#fuzzy)" clip-path="url(#rightEyeClipPath)"></circle><circle r="4.442944434733315" cx="6.828114850906557" cy="-0.7347310685557007" stroke="black" fill="none" stroke-width="1" filter="url(#fuzzy)" clip-path="url(#rightEyeClipPath)"></circle><circle r="4.377636297454099" cx="10.311985757181105" cy="0.6738288953688283" stroke="black" fill="none" stroke-width="1" filter="url(#fuzzy)" clip-path="url(#rightEyeClipPath)"></circle><circle r="3.283948558426078" cx="8.190096173712528" cy="0.15772632515940543" stroke="black" fill="none" stroke-width="1" filter="url(#fuzzy)" clip-path="url(#rightEyeClipPath)"></circle><circle r="4.793896027944085" cx="7.339606468766583" cy="1.535162991904329" stroke="black" fill="none" stroke-width="1" filter="url(#fuzzy)" clip-path="url(#rightEyeClipPath)"></circle><circle r="3.686616152164951" cx="9.888075229370862" cy="-0.6575254656482339" stroke="black" fill="none" stroke-width="1" filter="url(#fuzzy)" clip-path="url(#rightEyeClipPath)"></circle><!--]--></g><g transform="translate(-26.429571355852488 -31.206770129090252)"><polyline id="leftUpper" points="22.126251217716515,-0.0283152466252119,22.213782397576086,-0.02744744522667375,22.261591711050805,-0.053112120699768894,22.271056198361446,-0.10261516055930375,22.243532513434246,-0.17338373302111343,22.180356907541817,-0.2629639263837795,22.082845212943955,-0.3690183884103284,21.952292826528485,-0.4893239657099455,21.78997469345212,-0.6217693431196771,21.59714529078132,-0.7643526830861482,21.375038611133128,-0.9151792650472617,21.124868146315997,-1.0724591248139062,20.847826870970675,-1.2345046939516697,20.545087226211027,-1.399728439162545,20.217801103264904,-1.566640501666635,19.867099827114977,-1.733846336583862,19.49409414013957,-1.90004435231568,19.099874185753542,-2.064023549926776,18.6855094920491,-2.2246611625267807,18.25204895543668,-2.3809202946519763,17.800520824285776,-2.531847561647007,17.33193268256577,-2.6765707290465794,16.847271433486835,-2.8142963519571813,16.347503283140714,-2.9443074144387795,15.833573724141626,-3.065960968886535,15.306407519267074,-3.1786857754125064,14.70803630814511,-3.428798299841815,14.091591169360745,-3.6572847899653853,13.458329628589633,-3.863219228967906,12.80953757634549,-4.045915166064694,12.146523504054594,-4.2049080231337514,11.470612972775479,-4.339938050896595,10.783143310970607,-4.4509339231143334,10.08545853773675,-4.5379969572654515,9.378904507900993,-4.601385950171676,8.66482427538903,-4.641502617038491,7.944553671272635,-4.658877622376656,7.219417092903074,-4.654157191271241,6.490723500537264,-4.628090289464569,5.7597626178634425,-4.581516360719607,5.027801332833199,-4.515353609930158,4.296080295206606,-4.4305878204443685,3.56581070721729,-4.328261694067991,2.838171303764237,-4.209464702213846,2.114305518537071,-4.0753234366639175,1.3953188324816863,-3.9269924484106022,0.6822763010129727,-3.7656455630434342,-0.023799743618566627,-3.5924676611479116,-0.7219318183994798,-3.4086469121827125,-1.4111892476585361,-3.2153674503018417,-2.0906899567976214,-3.013802480588157,-2.7596021052415165,-2.805107804164682,-3.417145562199822,-2.590415750650201,-4.062593228834167,-2.3708295064255696,-4.695272210423987,-2.1474178271771835,-5.31456484212398,-1.921210123184081,-5.919909571906528,-1.6931919058151026,-6.51080170428223,-1.4643005837025838,-7.086794008391811,-1.2354215970590134,-7.6474971940625185,-1.007384878603136,-8.19258025942232,-0.7809616295618982,-8.721770713664998,-0.5568613992147577,-9.234854678559476,-0.33572945644675123,-9.731676872296399,-0.11814444177680983,-10.212140479265376,0.09538371167225623,-10.676206909355926,0.3044155997956359,-11.123895450375423,0.5085839232537954,-11.55528281717719,0.7075948288787455,-11.970502601092015,0.9012290282727835,-12.369744623256198,1.0893427051333253,-12.753254195429404,1.2718682228373313,-13.121331291895528,1.4488146438188907,-13.474329636039743,1.6202680722735074,-13.812655705194894,1.7863918317226446,-14.13676765735057,1.947426488972066,-14.447174183317953,2.103689735997531,-14.744436498622845,2.2551501233452274,-15.028828045675903,2.401555687961682,-15.300471564583527,2.542964781384833,-15.559500788846078,2.679452816810122,-15.806059964125163,2.811110724418824,-16.040303367010978,2.9380434067063743,-16.26239482378965,3.0603681938106977,-16.47250722921058,3.1782132988405385,-16.670822065253734,3.2917162732037824,-16.85752891989703,3.4010224619357894,-17.032825005883616,3.5062834590277205,-17.19691467948926,3.6076555627548648,-17.350008959289614,3.705298231004969,-17.492325044927597,3.7993725366065627,-17.624085835880734,3.890039622657291,-17.74551945022845,3.9774591578522367,-17.856858743419426,4.061787791812253,-17.958340827038917,4.143177610412288,-18.050206587576106,4.221774591109715,-18.132700205191416,4.297717058272662,-18.206068672483863,4.371134138508332,-18.27056131325835,4.442144215991342,-18.326429301293064,4.51085338779204,-18.37392517910673,4.5773539192048425" fill="none" stroke="black" stroke-width="2.2222222222222223" stroke-linejoin="round" filter="url(#fuzzy)"></polyline><polyline id="leftLower" points="22.36045657788886,-0.6616200056979906,22.448517691196624,-0.4567158800621538,22.49760839099988,-0.27369743199954755,22.509628352021362,-0.11072581925673397,22.486414765706936,0.0339541320319201,22.429743374383357,0.16201559623822437,22.34132950541609,0.2750514171341596,22.22282910536706,0.37457577678585885,22.075839774152463,0.46202586444759586,21.901901799200516,0.5387635454557684,21.702499189609306,0.6060770301228899,21.479060710304513,0.6651825426315763,21.23296091619721,0.7172259899285254,20.96552118634166,0.7632846306185064,20.678010758093112,0.8043687438583547,20.371647761265564,0.8414232982509442,20.047600252289534,0.8753296207391874,19.70698724836988,0.9069070655000124,19.35087976164359,0.9369146828383528,18.980301833337503,0.966052888081137,18.596231567926175,0.9949651304712694,18.19960216728961,1.024239562061621,17.791302964871065,1.054410706609013,17.372180459834833,1.085961128468207,16.94303935122403,1.1193231014858878,16.50464357211837,1.1548802778946516,15.97168232873341,1.1167989548097452,15.430322925199935,1.0894514682722094,14.881434402761977,1.0732455139703792,14.325821139024596,1.0684342909528963,13.764228492408705,1.0751296218156856,13.19734813784523,1.0933145396686168,12.62582310102566,1.1228553519598465,12.050252498526064,1.1635131912359187,11.471195991121654,1.2149550629156254,10.889177957608968,1.2767644001556628,10.304691396452688,1.3484511358861444,9.71820156257427,1.429461302093968,9.130149346599346,1.5191861664321005,8.540954403881033,1.6169709162327885,7.951018040616187,1.7221229000027538,7.360725864371716,1.8339194364783888,6.77045020633795,1.9516152013189911,6.18055232262622,2.0744492015160736,5.591384381927641,2.2016513475967825,5.003291246850233,2.332448633699451,4.416612056251398,2.4660709355993373,3.8316816158828546,2.6017564367625594,3.2488316046650922,2.7387566925062807,2.6683916039084123,2.8763413423431685,2.0906899567976214,3.0138024805881565,1.5160544654574646,3.1504586953055624,0.9448129329158452,3.2856587856745696,0.37729355728191916,3.4187851678511274,-0.18617481454387974,3.549256979404292,-0.7452625663107946,3.6765328924050436,-1.2996393176926344,3.800113645245623,-1.8489740480795098,3.9195443032674024,-2.3929353315693533,4.034416258275345,-2.93119167584215,4.144368977017069,-3.463411957599814,4.249091508704563,-3.9892659472546312,4.34832376165658,-4.508424915549215,4.441857559139748,-5.020562314790878,4.5295374844864185,-5.52535452738339,4.61126152556731,-6.022481674339019,4.686981528696956,-6.511628476453771,4.756703472049998,-6.9924851608288225,4.820487568666381,-7.464748405421016,4.878448209123437,-7.928122314305368,4.930753753952942,-8.382319416332518,4.97762618588114,-8.827061679864059,5.019340631969789,-9.262081536268678,5.0562247657362684,-9.687122904862008,5.0886580993307495,-10.10194221197315,5.117071175848501,-10.506309396820816,5.141944671855343,-10.901385900586856,5.162988391571508,-11.288350255015805,5.179675604569204,-11.66701458739018,5.192176366328212,-12.037199573974993,5.20066919899511,-12.39873541998247,5.205339741646606,-12.751462839536766,5.206379400552889,-13.095234035638688,5.203983999440975,-13.429913680130445,5.198352429758047,-13.75537989366032,5.1896853009348005,-14.071525225647436,5.178183590648791,-14.378257634246465,5.164047295087775,-14.675501466312364,5.147474079213056,-14.963198437365056,5.128657927022832,-15.241308611554215,5.107787791815531,-15.509811381623935,5.085046246453168,-15.768706448877486,5.0606081336246795,-16.01801480314202,5.034639216109271,-16.257779702733313,5.007294827039765,-16.48806765442046,4.9787185201659385,-16.708969393390618,4.949040720117876,-16.92060086321374,4.9183773726693065,-17.123104195807265,4.886828595000952,-17.316648691400868,4.854477325963873,-17.501431798501173,4.821387976342807" fill="none" stroke="black" stroke-width="2.2222222222222223" stroke-linejoin="round" filter="url(#fuzzy)"></polyline><!--[--><circle r="4.046628611073055" cx="0.9812081538449253" cy="1.9450174318535316" stroke="black" fill="none" stroke-width="1" filter="url(#fuzzy)" clip-path="url(#leftEyeClipPath)"></circle><circle r="4.435390219256647" cx="3.9385769138723905" cy="2.2933588265993716" stroke="black" fill="none" stroke-width="1" filter="url(#fuzzy)" clip-path="url(#leftEyeClipPath)"></circle><circle r="4.901262308561023" cx="0.5072027597868978" cy="-0.14466771228015052" stroke="black" fill="none" stroke-width="1" filter="url(#fuzzy)" clip-path="url(#leftEyeClipPath)"></circle><circle r="3.5351231389706887" cx="3.651814100349177" cy="2.179124973637448" stroke="black" fill="none" stroke-width="1" filter="url(#fuzzy)" clip-path="url(#leftEyeClipPath)"></circle><circle r="3.485171427479673" cx="1.3671540529017348" cy="3.532261599036506" stroke="black" fill="none" stroke-width="1" filter="url(#fuzzy)" clip-path="url(#leftEyeClipPath)"></circle><circle r="4.363559942039575" cx="0.28635141301647016" cy="-0.24784699382771302" stroke="black" fill="none" stroke-width="1" filter="url(#fuzzy)" clip-path="url(#leftEyeClipPath)"></circle><circle r="3.5440583946067004" cx="0.8572642521296734" cy="2.315436656905236" stroke="black" fill="none" stroke-width="1" filter="url(#fuzzy)" clip-path="url(#leftEyeClipPath)"></circle><circle r="3.737618606117256" cx="0.3148889425520407" cy="2.5221523264878556" stroke="black" fill="none" stroke-width="1" filter="url(#fuzzy)" clip-path="url(#leftEyeClipPath)"></circle><circle r="3.1823103251102616" cx="3.143052945514688" cy="3.6819320832075064" stroke="black" fill="none" stroke-width="1" filter="url(#fuzzy)" clip-path="url(#leftEyeClipPath)"></circle><circle r="3.307761162652476" cx="2.4371787234797884" cy="0.7020457658436392" stroke="black" fill="none" stroke-width="1" filter="url(#fuzzy)" clip-path="url(#leftEyeClipPath)"></circle><!--]--></g><g id="hairs"><!--[--><polyline points="2,-86,2.571554136383606,-85.97189933785275,3.619132764069565,-85.8713561009597,4.778691127705686,-85.66640226528374,5.9094485186095165,-85.3660300785029,6.928888366955423,-85.02335824703455,7.82507001557773,-84.69650677606201,8.638988439630944,-84.41883929892523,9.417132786720359,-84.19457196710638,10.175187027265746,-84.01035015125602,10.894644381017592,-83.84864019349075,11.543691537066888,-83.69599597752004,12.094669504928616,-83.54884707258228,12.514625893655754,-83.4221896132569,12.735714362563467,-83.35777052937468,12.652392794095586,-83.4153154701523,12.197512744256594,-83.6316114328523,11.458008814257182,-83.96547694536137,10.580777031456158,-84.32818370486264" fill="none" stroke="rgb(233, 236, 239)" stroke-width="2" stroke-linejoin="round" filter="url(#fuzzy)"></polyline><polyline points="14,-83,13.96739116566814,-82.80303137021902,13.99677395810452,-82.54988093505807,14.13473550725938,-82.24233922748972,14.288162786718031,-81.82265635519359,14.35324419971549,-81.30870870245771,14.250200503216433,-80.7473976749414,13.916647922098496,-80.17992259049504,13.309716425992628,-79.62675678618217,12.414991700877685,-79.08241073985376,11.244714920339755,-78.52112320783125,9.821168496363612,-77.9132793538951,8.157129342392953,-77.24342505147936,6.247044215341072,-76.51802744959764,4.071123718541777,-75.75921077871945,1.6025320988448222,-74.99215725472467,-1.1925969130162635,-74.23714975671089,-4.360586062580865,-73.50817349193107,-7.95731030985192,-72.80784449360569,-12.02660121247143,-72.11007728175676,-16.56872858577397,-71.34694408605682,-21.51769523543166,-70.45342064751706,-26.726038750352803,-69.52853104533568" fill="none" stroke="rgb(233, 236, 239)" stroke-width="2" stroke-linejoin="round" filter="url(#fuzzy)"></polyline><polyline points="-10,-85,-9.805300966140221,-85.03025328551043,-9.114917513829889,-85.16141951341562,-7.995094821852426,-85.28868124102748,-6.591417290493002,-85.3388678723469,-5.004653269379631,-85.30344261149644,-3.2896435369658596,-85.19213068458428,-1.49411675561235,-85.01816888566063,0.32194735997970136,-84.80654368601594,2.096437000795193,-84.59180867448055,3.7839723955488465,-84.39930497171883,5.3648745166826775,-84.23062274309189,6.843160998359145,-84.06994567927245,8.24294129083498,-83.90060240282068,9.609215283263024,-83.70842731895993,11.007600374601896,-83.4798481810308,12.495278299581058,-83.23764425069588" fill="none" stroke="rgb(233, 236, 239)" stroke-width="2" stroke-linejoin="round" filter="url(#fuzzy)"></polyline><polyline points="0,-87,1.4172386147348461,-86.36622323927419,2.5102393215814858,-86.09294468145947,3.5832750031428984,-85.92437257001245,4.636661503411097,-85.74503381088931,5.6014477625025,-85.53334069992454,6.421911060138872,-85.31833777426068,7.093766723997195,-85.13481564988362,7.65545098631707,-84.99709323417443,8.152296473212722,-84.89665933075034,8.607097209541093,-84.81346595355407,9.015350749513274,-84.72834368421623,9.35847203353881,-84.63062192493527,9.615180425145114,-84.52175215459698,9.758318158809029,-84.41698828631831,9.743244103074174,-84.34380362460746,9.506650711391595,-84.33347868442034,8.987128624868493,-84.40656157623246,8.154579870167401,-84.56257835815495,7.0183137718914965,-84.7898448010994,5.599467135316798,-85.09983865940609,3.8993013911819565,-85.55767248770917,1.934197231617183,-86.23767358882779" fill="none" stroke="rgb(233, 236, 239)" stroke-width="2" stroke-linejoin="round" filter="url(#fuzzy)"></polyline><polyline points="-24,-77,-23.45074075613382,-77.9281632430745,-22.58313243279155,-78.708658561546,-21.906402363333807,-79.25949052792399,-21.459474229689995,-79.61694074729822,-21.148057690897986,-79.85112348653524,-20.901118454685435,-79.99932692217972,-20.711397280753715,-80.05046899547112,-20.617302774876897,-79.9619783327796,-20.66841595126653,-79.68686398979452,-20.902913093566895,-79.19360589981079,-21.3455304830314,-78.4705178788683,-22.01501895938319,-77.5186670455606,-22.92604777930521,-76.34401351074357,-24.08589607003359,-74.95287933887204,-25.50195755497589,-73.34301790045924,-27.206389767648496,-71.48557436485602,-29.268902432139843,-69.32077819944786,-31.752760184713157,-66.81176754970136,-34.645303995572725,-64.03275012026064" fill="none" stroke="rgb(233, 236, 239)" stroke-width="2" stroke-linejoin="round" filter="url(#fuzzy)"></polyline><polyline points="-21,-80,-20.80866348929778,-80.01431892198126,-20.15177407366114,-80.12543003825078,-19.057726931980604,-80.27615365543309,-17.617047455287498,-80.3849159281885,-15.931784064173279,-80.38917916015588,-14.071194345273335,-80.25829779949149,-12.059953697435121,-79.99633486994318,-9.898019869635856,-79.630575689708,-7.583309115459481,-79.19497962466006,-5.122791051829496,-78.71643612803103,-2.53566267123343,-78.20659493509515,0.1458428282100126,-77.66110959552972,2.8790936944516954,-77.06770896968358,5.620304789196801,-76.42026902338664,8.337927882021143,-75.73005490606184,11.021347074064895,-75.02417784454963,13.677196498004339,-74.32946234882252,16.31540178426929,-73.65374811701588,18.936860004369173,-72.98489392295893,21.53137113551606,-72.31952105667312,24.07398401915603,-71.70856806717845,26.512944492570856,-71.2685571536483" fill="none" stroke="rgb(233, 236, 239)" stroke-width="2" stroke-linejoin="round" filter="url(#fuzzy)"></polyline><polyline points="-27,-75,-26.6445538923612,-75.33390793710771,-25.8817517911587,-75.99939878414463,-24.98632484029353,-76.73473097042644,-24.071917559809386,-77.47464527928763,-23.193519762493036,-78.19272653616969,-22.406339762637444,-78.84387449689007,-21.76502272439342,-79.37814643605215,-21.30100475679502,-79.76556126600903,-21.01772899081937,-79.998605196951,-20.910365137883048,-80.07489650847046,-20.990120528227926,-79.9805906885156,-21.293417080627613,-79.68888625210337,-21.8721105307797,-79.17022804687437,-22.77031501831579,-78.40257194469396,-23.9920883574318,-77.38236627133267,-25.46808318231113,-76.16438527068047" fill="none" stroke="rgb(233, 236, 239)" stroke-width="2" stroke-linejoin="round" filter="url(#fuzzy)"></polyline><polyline points="-29,-73,-28.19924315630485,-73.28840521625078,-27.35958166892506,-73.83130405452846,-26.224185448321865,-74.47312856205293,-24.737600322638173,-75.20516578183742,-22.925592755231577,-76.0342743188915,-20.83442256459521,-76.94930964480612,-18.516121028902294,-77.92376151859378,-16.02729034423828,-78.9289321899414,-13.42574195421836,-79.9373951559406,-10.762814392109739,-80.91623134042212,-8.07293638451359,-81.82836737067876,-5.367137656954583,-82.65576316457009,-2.6511423742896865,-83.43166839194473,0.005909181419434972,-84.24287999199443,2.3661566219830203,-85.15392735303911" fill="none" stroke="rgb(233, 236, 239)" stroke-width="2" stroke-linejoin="round" filter="url(#fuzzy)"></polyline><polyline points="11,-84,10.89340529961005,-84.24333682753013,11.886673662848413,-83.70841358502385,13.181492523130181,-82.93898819742974,14.406975928577594,-82.14880690030986,15.534178418418243,-81.38214229706018,16.643084206939356,-80.61199974042255,17.78169170055021,-79.80524943837862,18.93804931640625,-78.95714569091797,20.06420089534616,-78.09750296599,21.094224772386816,-77.28697044820596,21.94333893915573,-76.61504839010979,22.5173004103126,-76.18349069467513,22.766098913493074,-76.04902043476606,22.771960927088198,-76.13557727711994,22.782509046531686,-76.19459442321485" fill="none" stroke="rgb(233, 236, 239)" stroke-width="2" stroke-linejoin="round" filter="url(#fuzzy)"></polyline><polyline points="-27,-75,-26.528890970898694,-75.27919854801557,-25.424517877079378,-75.78067096312508,-23.955658736527496,-76.26591008898016,-22.220974170773044,-76.69398017811179,-20.266235732573506,-77.05991616758337,-18.143702630108574,-77.34507813369174,-15.903529559909085,-77.53157170977804,-13.566996730202527,-77.62118337117491,-11.1214652091172,-77.63496882753223,-8.540613729887,-77.59854668990947,-5.810715954833086,-77.52705947959798,-2.9436334439848935,-77.41923691745743,0.02923168531609477,-77.26198796933463,3.0734209638140833,-77.04067576321208,6.164192168265679,-76.74763772061274,9.286809239486397,-76.38545842256809,12.424020904435778,-75.97273553330308,15.53124222888997,-75.56668030673096,18.498023905581597,-75.29597042189714,21.108862719546885,-75.3591125402704" fill="none" stroke="rgb(233, 236, 239)" stroke-width="2" stroke-linejoin="round" filter="url(#fuzzy)"></polyline><polyline points="37,-58,38.002964040255954,-56.308872516148995,38.59247225198304,-55.19932228277423,38.65196257315101,-54.49815515469068,38.30384082171181,-53.99908273735176,37.61377630955316,-53.63017882192694,36.58204421142257,-53.40563787353305,35.19345637494853,-53.35345811467821,33.44229568845797,-53.485534162364054,31.331130187441612,-53.80574580919469,28.862239365593414,-54.32519538363448,26.03107433053225,-55.063004550843566,22.821689474528142,-56.03336792155528,19.203865892991104,-57.23337635768067,15.135700931296107,-58.64407956569456,10.57538346366163,-60.24566504571176,5.498118136883788,-62.03667553306214,-0.09573622271095061,-64.0422512978778,-6.192412851816796,-66.29925999641725,-12.77802941895205,-68.82572336136748,-19.794413180338086,-71.6396693692958" fill="none" stroke="rgb(233, 236, 239)" stroke-width="2" stroke-linejoin="round" filter="url(#fuzzy)"></polyline><polyline points="-16,-83,-15.169355792841111,-83.03580342237406,-14.168442781624812,-83.20991180958605,-12.795224572400198,-83.4547919508841,-11.121156080181901,-83.68089172492405,-9.305136466314563,-83.83868645915614,-7.4713421967038425,-83.92038773406233,-5.655673636986922,-83.94121080290265,-3.8245677599048005,-83.91654791300405,-1.9322261810302734,-83.85274505615234,0.03171646799244954,-83.75449618403215,2.0322620176109325,-83.63524619933072,4.010652868009087,-83.51634310956644,5.909844732413211,-83.4157432860891,7.68429587913567,-83.33902526317402,9.305253744399291,-83.27526960533397,10.795222998490088,-83.18220692878057,12.294301626720216,-82.9999505171975" fill="none" stroke="rgb(233, 236, 239)" stroke-width="2" stroke-linejoin="round" filter="url(#fuzzy)"></polyline><polyline points="27,-72,27.52084744953472,-71.8951087361079,28.33105102711811,-71.0749126393754,29.09112377846712,-70.16028345858822,29.810363199051352,-69.19887474311422,30.514347854670536,-68.21800173894316,31.20067092355909,-67.26012627587185,31.850248717788855,-66.3562972767729,32.43289931301854,-65.53692620575954,32.90946578979492,-64.85313415527344,33.23821197195757,-64.37510582171433,33.38501872230469,-64.16501736976902,33.331388835417705,-64.24840649561,33.073872305151255,-64.61299262767513,32.61298493451664,-65.24523058095721,31.939750131839368,-66.17583963851385,31.046844456117555,-67.45445528375565,30.004729203759293,-68.94585218541536" fill="none" stroke="rgb(233, 236, 239)" stroke-width="2" stroke-linejoin="round" filter="url(#fuzzy)"></polyline><polyline points="43,-46,43.508231456122516,-44.811803072316,43.4540114848165,-44.3252914469537,42.967430939722526,-44.12823968423912,42.03955528974842,-44.1833840420652,40.6387766385128,-44.532428234039436,38.737806380619524,-45.220151223376675,36.319086778381916,-46.287952922943305,33.370628417671625,-47.767017275784625,29.878776206453068,-49.669169141143726,25.824039501102256,-51.99041619756798,21.18400569257257,-54.72915565870551,15.941550808182246,-57.90482399613323,10.086008453523087,-61.55482041455321,3.5904925994086625,-65.69429551106523,-3.6202443734789647,-70.26969864990127,-11.601560827579895,-75.24543170186678" fill="none" stroke="rgb(233, 236, 239)" stroke-width="2" stroke-linejoin="round" filter="url(#fuzzy)"></polyline><polyline points="-25,-77,-24.08926791233739,-77.30731706646117,-22.87403841933462,-77.92265004678407,-21.374403048226547,-78.53812437709465,-19.751572097144788,-79.02870939265732,-18.051717124429562,-79.39943612295053,-16.231877685674984,-79.70642504522863,-14.240112243422413,-79.99730128709948,-12.064685923330835,-80.28815865388246,-9.735672051618169,-80.56674163638004,-7.29632596848871,-80.80725439719444,-4.776451395167644,-80.98826143526942,-2.19184100746323,-81.10850129426888,0.4342509882636616,-81.19451206118931,3.05647875402075,-81.29362533418129,5.622343695530101,-81.45109122433827,8.100619486154546,-81.68424365944134,10.469814351666471,-81.98625292830963,12.607600107361813,-82.38765515427177" fill="none" stroke="rgb(233, 236, 239)" stroke-width="2" stroke-linejoin="round" filter="url(#fuzzy)"></polyline><polyline points="37,-58,37.0742594843035,-58.28036215647577,36.975263417980884,-58.15157494550054,36.695963206839664,-58.01452997814685,36.24831487832125,-57.97690424090251,35.52710253796984,-58.15895059419081,34.41350815788368,-58.65405469425196,32.83895818839935,-59.50236690789322,30.775299072265625,-60.71846008300781,28.206908759693434,-62.3236755628823,25.12528205723693,-64.35154226075909,21.538590497508146,-66.8318804713497,17.4638301624218,-69.77416772115976,12.890672312803485,-73.16282151216177,7.7608590256618335,-76.96855314436283,2.0490201603399534,-81.19278320099868" fill="none" stroke="rgb(233, 236, 239)" stroke-width="2" stroke-linejoin="round" filter="url(#fuzzy)"></polyline><polyline points="-28,-74,-27.494110103878526,-74.19506245680158,-26.287545390423393,-74.48911203743324,-24.520009324732253,-74.76149002829814,-22.23027314938372,-74.98364882799797,-19.473235185880963,-75.13446316407033,-16.312196879340696,-75.21186215814973,-12.80978316448623,-75.22276945925114,-9.032157897949219,-75.16093444824219,-5.04421245504845,-75.0042201528477,-0.8882164620262234,-74.73691111237429,3.434624420132204,-74.37402971663485,7.956241219944786,-73.95788476499729,12.707078139300945,-73.51859864474903,17.66585211667624,-73.0433821156154,22.647088621267745,-72.60466828327863" fill="none" stroke="rgb(233, 236, 239)" stroke-width="2" stroke-linejoin="round" filter="url(#fuzzy)"></polyline><polyline points="0,-87,0.6346594668748551,-86.6388862877577,1.867216683732166,-85.96816783807525,3.360469592764968,-85.20291997995353,5.0433524826830975,-84.33229261293383,6.863939436031128,-83.31230520594143,8.754645626592762,-82.13466384789179,10.658335273076858,-80.82929505361061,12.55806502441644,-79.43805743441123,14.477783357449436,-77.99105305722323,16.45446028671746,-76.49975268284378,18.507787046613146,-74.96228999695917,20.631633236154556,-73.37031957013771,22.8071219013166,-71.71494338715999,25.014778971524557,-69.99924006803703,27.22427034405483,-68.26231630845257,29.367114333473364,-66.59756768192008,31.337718600095258,-65.10982993188013,33.10609679702393,-63.73336539285819" fill="none" stroke="rgb(233, 236, 239)" stroke-width="2" stroke-linejoin="round" filter="url(#fuzzy)"></polyline><polyline points="4,-86,5.534366765475412,-85.72819376587763,6.467808401399365,-85.33210641340229,7.118342954387376,-85.02038456402951,7.746032279770833,-84.78194876964372,8.472053263219161,-84.56644101292271,9.301707916638813,-84.33652540175062,10.191046364442558,-84.07338277386731,11.097958352283971,-83.76971260348796,11.994332531939252,-83.42719147819493,12.853205450536803,-83.05981770064399,13.638170811631067,-82.6948734123036,14.30943351984024,-82.36538553237915,14.83971830430318,-82.09714502586232,15.223851612940184,-81.89946957174625,15.473368141933125,-81.76665694673605,15.600739923348684,-81.68949492592265,15.602931025313042,-81.67008830313998,15.449447438213907,-81.73204356070354,15.078232192385698,-81.91909407986225,14.413688220761873,-82.27533310652545,13.42881269279482,-82.80452002455351,12.224712278754875,-83.43109930034132,10.932781254594625,-84.05845100251625" fill="none" stroke="rgb(233, 236, 239)" stroke-width="2" stroke-linejoin="round" filter="url(#fuzzy)"></polyline><polyline points="27,-72,27.317556325652514,-71.94506634921532,27.512326585933845,-71.26057394487422,27.237265615444954,-70.54280023451803,26.500511134637883,-69.80300778088953,25.329814884867762,-69.02880130096396,23.723422924938134,-68.22904246209521,21.658240262463657,-67.40562024008122,19.09830584317789,-66.55682309521626,16.0047664642334,-65.69713401794434,12.346695066083633,-64.86136029294019,8.105255737521638,-64.08198142142604,3.2688610479418063,-63.35742763293383,-2.1747596245894165,-62.64366547770341,-8.244294771387121,-61.88426801748851,-14.96969745218121,-61.04945075528599,-22.387952534928232,-60.12629761848214,-30.480948633603447,-59.07210038271972" fill="none" stroke="rgb(233, 236, 239)" stroke-width="2" stroke-linejoin="round" filter="url(#fuzzy)"></polyline><polyline points="23,-76,24.519833496486626,-74.47287070582377,25.454948824535236,-73.52939626353565,25.96997305679592,-73.02130882575325,26.20809013124265,-72.77457098792672,26.25861708695984,-72.64199834128851,26.1451121978893,-72.55477298227716,25.855092006968288,-72.51032704503734,25.366040771498817,-72.54088175597397,24.650676158541334,-72.69003390575489,23.673753393910694,-72.99743717338399,22.393724814658388,-73.490339457388,20.769676558703942,-74.18707599867417,18.766595269401382,-75.11202144097193,16.35543464751729,-76.30691585189625,13.511463441928942,-77.81725278901698,10.215824172832813,-79.64956764980755,6.46169451187579,-81.7412010022287,2.2861268119504974,-84.05534742519892" fill="none" stroke="rgb(233, 236, 239)" stroke-width="2" stroke-linejoin="round" filter="url(#fuzzy)"></polyline><polyline points="25,-74,25.87858464085737,-73.13379828205944,26.53394048586501,-72.55605559498632,27.066643936666438,-72.14553883047154,27.574971862158606,-71.7334678065227,28.058934878075174,-71.2709705962382,28.47312098680457,-70.79211576474702,28.77655777950638,-70.35569588405497,28.94561008930748,-70.01708199642866,28.965329155521406,-69.81970671978219,28.817710133881214,-69.79524326427926,28.47812714181934,-69.96817183893813,27.922944273017784,-70.35993298615867,27.140194891199194,-70.98961503952395,26.127314226141536,-71.87494394894573,24.86745759127533,-73.03970514194988,23.3017614281628,-74.52351593099968,21.33784823955946,-76.37237356052012,18.90898881974805,-78.58203448207303" fill="none" stroke="rgb(233, 236, 239)" stroke-width="2" stroke-linejoin="round" filter="url(#fuzzy)"></polyline><polyline points="21,-78,22.21313328983068,-76.7506922877622,22.749431644348743,-76.10415905418063,23.139529830849824,-75.51982429241174,23.437022790689003,-74.93698618234782,23.53195066673584,-74.46149912876967,23.33215554726878,-74.17194845671978,22.808549050429864,-74.06752913535918,21.970696089451895,-74.09854937429907,20.83277463314045,-74.21377010015422,19.39831781387329,-74.38767194747925,17.661181328454923,-74.62373247050935,15.607201259171976,-74.94441198431073,13.2081765510409,-75.37630775239757,10.415241267306392,-75.93573511478041,7.167029536992914,-76.62338699981433,3.4201880167947643,-77.43739456468526,-0.8129322945963704,-78.40113598118747,-5.458869489301327,-79.58367034014634,-10.458239488423526,-81.08956986477624" fill="none" stroke="rgb(233, 236, 239)" stroke-width="2" stroke-linejoin="round" filter="url(#fuzzy)"></polyline><polyline points="-21,-80,-20.655306406433265,-79.92733713657412,-19.543923634951092,-79.78534177064566,-17.70007034921617,-79.54239128279454,-15.221296015126507,-79.13452579134366,-12.230436436726514,-78.50391935776021,-8.833676239706522,-77.61879915678925,-5.086631294687098,-76.48780168085469,-1.0003231556390393,-75.14530229919856,3.426718792541797,-73.62467112137524,8.180719339807549,-71.9525965287809,13.221435041149167,-70.16954847607533,18.479637645878896,-68.34311665706598,23.863115768288473,-66.52060472198531,29.312339072006807,-64.5696134067621" fill="none" stroke="rgb(233, 236, 239)" stroke-width="2" stroke-linejoin="round" filter="url(#fuzzy)"></polyline><polyline points="-28,-73,-20.538195640151017,-69.66281156164327,-3.837572278902909,-73.95358595969857,7.481669954881671,-76.77797516843144,11.848144240067043,-77.80819484513074,10.461694710568542,-78.46675302260405,5.492119432081526,-79.2469602611626,-0.41088467069204837,-79.62169916970409,-4.688787595502035,-78.90982894475647,-5.46073047313236,-76.92824582827902,-2.2061476420040607,-74.05501127587729,3.6017344895036425,-70.96295888690548,8.765025931815243,-68.40732191468868,10.509659012138,-67.0003821747317,10.069409951610758,-66.35014740466572,14.421595531260099,-63.42989245861461,30.3308529400711,-52.819585961549194,47,-36" fill="none" stroke="rgb(233, 236, 239)" stroke-width="2" stroke-linejoin="round" filter="url(#fuzzy)"></polyline><polyline points="9,-85,13.596997519368106,-68.82249754538438,-1.310091406629121,-68.97260688358608,-10.099348610640337,-69.2650122493382,-7.893079647969491,-67.2454423197085,1.57265024516918,-63.93673705533986,12.123190143535455,-60.950174884871096,19.203529433822183,-59.453567461479956,21.33747538791519,-59.856438357308946,19.304870259487203,-62.03720762510961,14.546753297555485,-65.63887844335387,8.204855117714946,-70.04652207945658,1.0588319926413805,-74.24982932942164,-6.3135869325942995,-77.10437124772413,-13.601045001111443,-77.95996886510083,-20.702389486023616,-76.7253402827242,-27.73281024951528,-72.68357735636543,-36,-64" fill="none" stroke="rgb(233, 236, 239)" stroke-width="2" stroke-linejoin="round" filter="url(#fuzzy)"></polyline><polyline points="46,-39,39.15810911423351,-42.86650668035995,22.453526952563987,-56.46456382408874,11.6207941783615,-65.29454085913521,10.077839447730517,-67.83489989306314,13.03775085317518,-66.89442248337953,14.947565691006275,-65.76817034654813,13.334884471831872,-66.33122351811257,8.835244709104598,-68.65251075766426,3.4718218951980546,-71.64948977346452,-0.8440865485534437,-74.03646659120773,-2.855093240737915,-75.00436854362488,-1.9349013177602616,-74.46524484345443,1.8595503942697862,-72.96438017636882,7.54935079678693,-71.41835664564273,13.247996395129228,-70.78286474073677,16.80245186585703,-71.71753500666003,16.83464629500915,-74.33358931407916,13.527008068952634,-78.11417281782944,8.723847436718081,-82.0239106234529,5.274014756577446,-84.80724210408579,4.973471600614496,-85.73501701518386,4,-86" fill="none" stroke="rgb(233, 236, 239)" stroke-width="2" stroke-linejoin="round" filter="url(#fuzzy)"></polyline><polyline points="40,-54,43.11513752880664,-43.877086628414624,37.56468949958854,-44.83635157199406,24.520111582552648,-53.30857299137455,11.137190690962598,-62.93513856572099,2.585966839331997,-70.27550594938644,-0.18117365777711214,-74.26273585520036,1.4099015344045427,-74.91569262679603,5.4257049560546875,-73.00764465332031,9.936380556212082,-70.10994139400124,13.054298006401819,-68.12988781053261,13.308800859798929,-68.26504112882738,10.066510743228719,-70.17475419980474,3.8925025098779757,-72.20401006892853,-1.547533183665923,-72.27565417149319,5.110075605970614,-67.2456620427894,43,-47" fill="none" stroke="rgb(233, 236, 239)" stroke-width="2" stroke-linejoin="round" filter="url(#fuzzy)"></polyline><polyline points="-27,-75,3.624226675050093,-57.8735739736694,5.829471694150391,-60.66133617409853,5.056414072546837,-66.20172670872869,3.480060511053473,-70.5568351160854,2.00649007459881,-73.41379972795075,1.0635395109684018,-74.97509250051368,0.3225928262788402,-75.5671776526915,-0.4770810499271875,-75.7150918518638,-0.9944794094665456,-75.8930363343422,-0.4890980113297681,-76.15576156763962,1.6346266269683838,-76.08906841278076,5.3299065371627705,-75.2045959465773,9.64378675413592,-73.47875779021383,12.863161386656113,-71.55144739192,13.238909165592094,-70.29837083989675,10.145400386004978,-69.9831004840569,4.963704579996464,-69.67298441312887,0.5679524982467044,-67.6444959102349,-1.4264406282271533,-62.925269304407486,-4.8092036713991435,-57.38508097449665,-18.47218587840176,-57.23915828208422,-33,-68" fill="none" stroke="rgb(233, 236, 239)" stroke-width="2" stroke-linejoin="round" filter="url(#fuzzy)"></polyline><polyline points="46,-41,15.55783411827285,-66.94506981222275,9.467104395086407,-72.06542378695633,13.218441896259192,-69.03599829783835,19.937211384874395,-64.82764805860134,24.572002691766897,-63.07892063386425,25.15066685590455,-64.62506826283285,22.35063388555752,-68.41757069426728,17.873738364757017,-72.73269700189887,13.087681081775395,-76.14233071233404,8.642243241361454,-77.94279538305116,4.894477367401123,-78.08708596229553,2.4455897143457883,-76.88149817768969,2.103650684481142,-74.73065099220176,4.115294126766234,-72.08879839238996,7.237936469582352,-69.55872326231275,8.634062879124041,-67.87552279022987,5.240096403299544,-67.54039568620955,-3.781864559920775,-68.33770690234091,-15.05996947399066,-69.60513858159177,-21.403511839911268,-71.76062681437361,-15.300416582784733,-77.02595467753378,7,-85" fill="none" stroke="rgb(233, 236, 239)" stroke-width="2" stroke-linejoin="round" filter="url(#fuzzy)"></polyline><polyline points="29,-70,26.712067028770154,-71.13017666463314,25.962751302034764,-68.9050905457088,22.354008858968136,-67.76067221660382,16.19263679086318,-68.47356204771624,9.708647812254801,-70.06428147338404,4.787467769573807,-71.08154799353329,1.6058098340617528,-70.81900895719306,-0.8810141657793037,-69.5080182355236,-3.455479124656885,-67.80680177521712,-5.669726389335266,-66.24896494582268,-6.188029934290974,-65.02256752374737,-4.035914347970707,-64.08548412219831,0.3349419929685477,-63.419712769081634,5.031221341188489,-63.203297250989365,7.782697333498997,-63.77086059277289,7.315698791325853,-65.37681744486015,4.01507230673306,-67.91964140944354,-0.6743452005098383,-70.8732862964246,-5.649719851338567,-73.59110925903839,-10.931127522756716,-75.75098020609583,-16.72421908859544,-77.08407170066444,-22.92862135357059,-75.53026460194644,-35,-65" fill="none" stroke="rgb(233, 236, 239)" stroke-width="2" stroke-linejoin="round" filter="url(#fuzzy)"></polyline><polyline points="47,-37,39.72641157298195,-43.45172083119979,25.946809836956703,-53.10029066152562,16.510268613510984,-59.66315514560256,10.952967805993557,-64.56221790027803,7.044181992723662,-68.47328953184389,4.884378247222752,-70.88376738381542,4.9932259665299625,-71.43406365031686,6.322736225767132,-70.52570492250925,6.7323150634765625,-69.12829208374023,4.8729708376464345,-68.25188372930766,1.3444928420711177,-68.38422027040984,-1.8744410830579485,-69.11120512524056,-2.844525530058877,-69.17677151508394,-0.2586921498654447,-67.18569508830386,6.959319599982614,-63.00110216220556,18.459163078984375,-59.54411248831199,28.149379248616192,-62.7886846505378,29,-70" fill="none" stroke="rgb(233, 236, 239)" stroke-width="2" stroke-linejoin="round" filter="url(#fuzzy)"></polyline><polyline points="-9,-86,1.2653012553172784,-83.5308844373747,2.124002646795646,-81.01671198419604,-1.33427806472107,-78.80984985548642,-2.360955902888741,-76.21405557459248,-0.2556100876896935,-73.6342202947435,2.3252587001100875,-71.63717265866751,3.333516497989712,-70.324516854271,2.7041166492964863,-69.53436696885144,1.5341772651405505,-69.18695026868599,0.9354271474473471,-69.29924789718973,1.5836212439279225,-69.80933347075273,3.7065493389162536,-70.5552066736007,6.9507705885795525,-71.48009723885228,10.207358049475605,-72.79611488220223,11.986995142527508,-74.80193438077926,11.464850994002386,-77.37745964686584,9.22571346810729,-79.62056316189022,6.492258792759734,-80.21482277904124,3.608598387300253,-78.55673295780318,2.790085032410624,-75.677426307307,25,-74" fill="none" stroke="rgb(233, 236, 239)" stroke-width="2" stroke-linejoin="round" filter="url(#fuzzy)"></polyline><polyline points="-26,-76,15.085760261490082,-59.63319861535481,22.7499867829946,-63.75228239205815,22.224077254457356,-68.20914414743827,19.89904617172872,-68.9530670531562,15.141896531638132,-68.04249121705048,7.772106898604103,-67.88240650063058,-0.21927445806467494,-69.2216734771952,-6.083874179301804,-71.34709883077635,-8.049164959308397,-73.0097369541945,-6.141838210394411,-73.26248430256477,-2.083127021789551,-71.90363097190857,1.4752075484200382,-69.4695541249968,2.169071647628631,-66.85583850581428,-0.7741057012400492,-64.79042917154912,-5.854714378356819,-63.47811894366763,-9.943969467190472,-62.642638863435685,-10.213644878701865,-61.90541137958721,-6.16233651820482,-61.19944145174577,-0.009561365485327267,-61.01267752976722,5.251158542509958,-62.50663943146708,9.763579819282036,-66.63024597693607,32,-66" fill="none" stroke="rgb(233, 236, 239)" stroke-width="2" stroke-linejoin="round" filter="url(#fuzzy)"></polyline><polyline points="29,-70,-7.1906884587374345,-70.81210526010842,-16.20331917153331,-70.7971499177822,-11.17594512435103,-71.73286155992497,-3.4080201246855277,-72.33175256598507,2.143541671341154,-72.67076211194399,5.681825854731265,-72.97707556299461,8.787032318118055,-73.23733002152544,11.86875380941119,-73.52642269260916,14.034258361406685,-74.05945867443558,14.325529098510742,-74.8705005645752,12.838621367048283,-75.56503955526577,10.897414517795104,-75.46154391235125,10.22226128879003,-74.05637588157319,11.577673190002974,-71.46108289936167,13.829652128135422,-68.36341818091933,14.595895619483903,-65.25513665699593,13.088675377257905,-61.44648002408876,13.532866141608567,-55.846293627377996,22.968990424245977,-52.57620886085137,27,-73" fill="none" stroke="rgb(233, 236, 239)" stroke-width="2" stroke-linejoin="round" filter="url(#fuzzy)"></polyline><polyline points="-17,-83,7.315777363998308,-54.348954438457866,4.357674776085759,-53.184983534010556,-1.6869785255785774,-59.56186582500725,-7.477146970108151,-66.60718385549262,-10.518825158268072,-71.78570554035099,-9.189674007566765,-74.27160715955343,-3.774089514579378,-74.07324421327694,3.7030029296875,-71.88601684570312,10.178069001130874,-69.06867453931837,12.735236133456482,-67.29077923561198,10.226358479984963,-67.83240044297955,4.251709206029773,-70.88904155464843,-2.0174158288818647,-75.25989519459,-6.613878664610212,-78.74973308873513,-7.760324389908914,-80.1728106207706,9,-85" fill="none" stroke="rgb(233, 236, 239)" stroke-width="2" stroke-linejoin="round" filter="url(#fuzzy)"></polyline><polyline points="-14,-84,-17.941373118796243,-79.31144762322411,-24.276435218708855,-73.33985980280085,-24.022785083047953,-70.64314092686547,-16.957973270081432,-69.89264444885788,-6.772569088363326,-70.26505928291269,2.2149397500395525,-71.91416064927336,7.634611974525308,-74.6646754500257,9.442439430863057,-77.53930276767028,8.463665969102848,-79.47579227396506,5.159882073247815,-80.1475616226379,0.25215614892050303,-79.9214210599846,-3.2833048247664633,-78.9470031657042,0.5816921339985379,-75.82492446867009,17.82698766343188,-65.49461144868067,48,-35" fill="none" stroke="rgb(233, 236, 239)" stroke-width="2" stroke-linejoin="round" filter="url(#fuzzy)"></polyline><polyline points="40,-53,5.5178403189119685,-50.82380850613594,1.8272425751003958,-53.715426169640224,3.4832188918697566,-58.88597478223548,8.908352695169143,-61.288556152073284,14.916334084605872,-60.71098592209412,17.605597930018416,-59.880816871546386,15.7632978810816,-61.25194266548534,11.228410484185646,-65.15973001142571,7.163106088294738,-69.77827531864878,6.250880835136163,-72.31678624315245,9.714703477704946,-70.64911568177247,16.821163548613736,-64.79772587301979,24.457209822728455,-57.82484448008586,27.44579106092994,-55.266260613292864,21.350691117311154,-61.79075697421778,9.348394806042938,-75.16841015467968,14,-83" fill="none" stroke="rgb(233, 236, 239)" stroke-width="2" stroke-linejoin="round" filter="url(#fuzzy)"></polyline><polyline points="-30,-72,-1.3176605333818932,-76.24494366446173,3.7515808015380108,-79.92383071279251,7.299981609861126,-78.74367990425198,12.724425058581039,-74.11941225999385,16.313990048161866,-69.6280729953857,14.83065659129856,-67.64308350743346,8.89057183993206,-68.23877569889571,2.2139640876754827,-70.27164701532996,-1.5458085853593588,-72.80290120649933,-1.5828797273548443,-75.36464052627842,0.027337594468733073,-77.16194012278228,1.1277553503436812,-76.58744288287129,1.8716420395865287,-72.41566985325473,0.2663276907400398,-67.05495609565203,-30,-72" fill="none" stroke="rgb(233, 236, 239)" stroke-width="2" stroke-linejoin="round" filter="url(#fuzzy)"></polyline><polyline points="48,-34,8.152490435469941,-52.756855222295464,0.3701317091621061,-61.97108345459885,-1.9900564677741688,-65.7676588692411,-1.4999277587859847,-67.18409998081444,-0.4813238215319247,-68.22988577354506,-1.1716834975970152,-69.4614960446429,-3.973195414097529,-70.62191118414006,-7.903956976908101,-71.40672150525037,-11.611572896247461,-71.83124039373396,-13.79766098509451,-72.16199191881842,-13.343608804145784,-72.58704668843997,-9.683138773426958,-72.89924256677563,-3.341675039490194,-72.48742584744086,3.9431817166718997,-70.76932663876896,9.972889373420118,-67.84740147383458,13.508923746056803,-64.85190440402376,15.3607423807005,-63.48552579379069,17.732998380848215,-64.79165149225025,21.61280875842267,-67.64742614784836,26.489877680817294,-66.91279433212192,42,-49" fill="none" stroke="rgb(233, 236, 239)" stroke-width="2" stroke-linejoin="round" filter="url(#fuzzy)"></polyline><!--]--></g><g id="lineNose"><path d="M -8.350158279557187 22.655465110737133, Q7.475820028011757 29.892905537577473,-0.43716912577271483 -5.62811765921421" fill="none" stroke="black" stroke-width="3" stroke-linejoin="round" filter="url(#fuzzy)"></path></g><g id="mouth"><polyline points="-21.617440172928927,59.41467531386717,-21.481677167338006,58.46496930097634,-21.327066400196525,57.5491341873188,-21.15400752064135,56.66671653756443,-20.962900177809328,55.817262916383136,-20.75414402083732,55.00031988844481,-20.528138698862193,54.21543401841935,-20.28528386102079,53.46215187097667,-20.025979156449996,52.74002001078663,-19.750624234286636,52.048585002519154,-19.45961874366758,51.38739341084414,-19.153362333729692,50.75599180043147,-18.832254653609834,50.15392673595104,-18.496695352444846,49.58074478207277,-18.147084079371602,49.03599250346653,-17.783820483526952,48.519216464802234,-17.40730421404776,48.02996323074976,-17.017934920070882,47.56777936597901,-16.61611225073317,47.1322114351599,-16.202235855171487,46.72280600296231,-15.776705382522698,46.33910963405612,-15.339920481923645,45.98066889311127,-14.892280802511202,45.64703034479762,-14.43418599342222,45.33774055378508,-13.966035703793553,45.05234608474355,-13.488229582762068,44.79039350234291,-13.001167279464614,44.55142937125308,-12.505248443038056,44.335000256143935,-12.000872722619247,44.140652721685385,-11.48843976734505,43.96793333254732,-10.968349226352318,43.816388653399656,-10.441000748777912,43.685565248912255,-9.906793983758687,43.57500968375503,-9.366128580431505,43.48426852259787,-8.819404187933221,43.41288833011072,-8.267020455400697,43.3604156709634,-7.709377031970788,43.32639710982585,-7.146873566780351,43.31037921136796,-6.579909708966247,43.31190854025964,-6.008885107665334,43.33053166117076,-5.434199412014466,43.36579513877123,-4.856252271150505,43.41724553773094,-4.2754433342103075,43.484429422719806,-3.6921722503307306,43.566893358407704,-3.106838668648637,43.66418390946455,-2.519842238300879,43.77584764056021,-1.9315826084243148,43.9014311163646,-1.3424594281558102,44.04048090154762,-0.7528723466322123,44.192543560779164,-0.16322101299038538,44.35716565872912,0.4260949236328103,44.53389376006741,1.0146758141005214,44.72227442946389,1.6021220092758885,44.92185423158847,2.188033860022055,45.13217973111107,2.7720117172021603,45.35279749270157,3.3536559316793446,45.58325408102986,3.9325668543167573,45.82309606076586,4.508344835977533,46.07186999657942,5.080590227524818,46.32912245314049,5.648903379821751,46.594399995118934,6.212884643731475,46.86724918718466,6.772134370117135,47.14721659400756,7.32625290984187,47.433848780257534,7.87484061376882,47.726692310604484,8.417497832761132,48.02529374971829,8.953824917681944,48.329199662268856,9.4834222193944,48.63795661292609,10.00589008876164,48.95111116635988,10.520828876646808,49.26820988724011,11.027838933913046,49.5887993402367,11.526520611423495,49.91242609001952,12.016474260041294,50.23863670125849,12.497300230629593,50.56697773862351,12.968598874051525,50.89699576678445,13.42997054117024,51.22823735041123,13.881015582848871,51.560249054173724,14.32133434995057,51.892577442741846,14.750527193338474,52.22476908078549,15.16819446387572,52.556370532974555,15.573936512425458,52.88692836397893,15.967353689850825,53.215989138468515,16.348046347014968,53.54309942111321,16.715614834781025,53.867805776582905,17.069659504012133,54.189654769547495,17.40978070557145,54.50819296467689,17.735578790322098,54.822966926640966,18.046654109127232,55.133523220109645,18.342607012849992,55.4394084097528,18.62303785235352,55.74016906024034,18.887546978500954,56.03535173624216,19.13573474215544,56.324503002428145,19.367201494180115,56.607169423468214,19.58154758543812,56.88289756403225,19.77837336679261,57.151233988790146,19.95727918910672,57.4117252624118,20.117865403243584,57.66391794956712,20.25973236006635,57.90735861492598,20.382480410438166,58.1415938231583,20.48570990522217,58.366170138933974,20.56902119528149,58.58063412692289,20.632014631479283,58.78453235179492,20.569021195281486,58.580634126922874,20.485709905222155,58.36617013893397,20.38248041043816,58.141593823158296,20.259732360066344,57.907358614925975,20.11786540324357,57.6639179495671,19.957279189106707,57.41172526241179,19.778373366792596,57.15123398879013,19.581547585438113,56.88289756403223,19.367201494180105,56.60716942346819,19.13573474215542,56.32450300242813,18.887546978500936,56.03535173624214,18.623037852353505,55.74016906024032,18.342607012849975,55.43940840975279,18.046654109127218,55.13352322010963,17.73557879032208,54.82296692664096,17.40978070557143,54.50819296467688,17.06965950401212,54.18965476954748,16.715614834781004,53.86780577658289,16.348046347014947,53.5430994211132,15.967353689850807,53.215989138468494,15.573936512425433,52.88692836397892,15.168194463875698,52.55637053297454,14.750527193338447,52.22476908078548,14.321334349950543,51.89257744274183,13.881015582848852,51.5602490541737,13.429970541170219,51.228237350411206,12.968598874051505,50.89699576678443,12.497300230629572,50.56697773862348,12.016474260041276,50.23863670125847,11.526520611423473,49.9124260900195,11.027838933913024,49.588799340236676,10.520828876646783,49.26820988724009,10.005890088761618,48.95111116635985,9.483422219394376,48.63795661292607,8.953824917681919,48.329199662268834,8.417497832761105,48.02529374971827,7.874840613768795,47.726692310604456,7.326252909841844,47.43384878025751,6.772134370117108,47.14721659400754,6.212884643731448,46.86724918718465,5.648903379821726,46.59439999511891,5.08059022752479,46.32912245314047,4.508344835977505,46.071869996579416,3.93256685431673,45.823096060765835,3.3536559316793197,45.58325408102985,2.7720117172021332,45.352797492701555,2.188033860022028,45.13217973111106,1.6021220092758606,44.921854231588455,1.0146758141004926,44.722274429463866,0.4260949236327837,44.5338937600674,-0.16322101299041308,44.35716565872912,-0.75287234663224,44.192543560779164,-1.3424594281558364,44.04048090154762,-1.9315826084243453,43.901431116364606,-2.5198422383009036,43.775847640560215,-3.1068386686486638,43.66418390946455,-3.6921722503307595,43.56689335840771,-4.275443334210335,43.48442942271981,-4.856252271150531,43.41724553773095,-5.434199412014493,43.36579513877123,-6.00888510766536,43.33053166117077,-6.579909708966275,43.311908540259644,-7.146873566780377,43.31037921136797,-7.709377031970814,43.326397109825855,-8.267020455400722,43.360415670963405,-8.819404187933246,43.41288833011072,-9.36612858043153,43.4842685225979,-9.906793983758712,43.57500968375504,-10.441000748777933,43.68556524891226,-10.96834922635234,43.81638865339966,-11.488439767345072,43.96793333254734,-12.00087272261927,44.140652721685406,-12.505248443038079,44.33500025614396,-13.001167279464637,44.551429371253086,-13.48822958276209,44.79039350234293,-13.966035703793578,45.05234608474356,-14.434185993422243,45.337740553785096,-14.892280802511229,45.64703034479763,-15.339920481923672,45.980668893111286,-15.77670538252272,46.33910963405614,-16.202235855171512,46.722806002962315,-16.616112250733195,47.13221143515992,-17.017934920070903,47.567779365979035,-17.407304214047784,48.02996323074978,-17.783820483526974,48.51921646480225,-18.147084079371623,49.03599250346655,-18.496695352444867,49.5807447820728,-18.832254653609848,50.15392673595108,-19.153362333729714,50.7559918004315,-19.4596187436676,51.387393410844176,-19.75062423428665,52.0485850025192,-20.025979156450006,52.74002001078667,-20.28528386102081,53.462151870976705,-20.52813869886221,54.2154340184194,-20.754144020837337,55.000319888444864,-20.96290017780934,55.817262916383186,-21.154007520641358,56.66671653756448,-21.327066400196543,57.549134187318856,-21.481677167338017,58.464969300976406" fill="rgb(215,127,140)" stroke="black" stroke-width="3" stroke-linejoin="round" filter="url(#fuzzy)"></polyline></g></svg>