<svg viewBox="-100 -100 200 200" xmlns="http://www.w3.org/2000/svg" width="400" height="400" id="face-svg"><defs><clipPath id="leftEyeClipPath"><polyline points="41.4443038723408,0.09185667656402452,40.785084119230476,0.005416076361696831,40.09422451258071,-0.08461120697621438,39.37295513917301,-0.17807111688311705,38.62251876807244,-0.2747996255794365,37.84416953499535,-0.3746232334875401,37.03917162667703,-0.4773594686466618,36.20879796523941,-0.5828173861278305,35.35432889255874,-0.6907980674487906,34.47705085463325,-0.80109511998893,33.57825508595085,-0.9134951764042065,32.65923629385683,-1.0277783940420684,31.72129134292149,-1.143718954356387,30.765717939307883,-1.2610855623223762,29.793813315139438,-1.379641945851518,28.806872912867686,-1.4991473552064898,27.72436500297263,-1.6272164045307975,26.614046102260314,-1.7588424993198606,25.478187108148717,-1.893478471519824,24.319184650389328,-2.030542838787375,23.13953933545375,-2.169426819824204,21.941835060268378,-2.3095009630323093,20.728719374054602,-2.450121396806264,19.50288486703203,-2.5906357097785464,18.267051564742143,-2.7303884693340446,17.023950306749914,-2.8687263867098403,15.776307088480753,-3.0050031369963874,14.526828344950351,-3.1385838423561894,13.278187155144819,-3.2688492267760734,12.033010345808577,-3.3951994506691876,10.79386647339749,-3.5170576336428243,9.563254662954687,-3.6338730737481657,8.343594282666569,-3.7451241715280665,7.137215432856392,-3.8503210671789962,5.946350228172941,-3.949007999143227,4.773124851731762,-4.0407653924473905,3.6195523599664003,-4.125211685103492,2.4875262169470442,-4.202004900888539,1.3788145369241818,-4.270843976818805,0.2950550138546042,-4.331469853634939,-0.7622494833327771,-4.38366633761396,-1.7917346709737316,-4.427260742024254,-2.7921779876507493,-4.462124316539702,-3.7625011291629242,-4.48817247292904,-4.7017720027260275,-4.505364815336556,-5.609206121645496,-4.513704983470214,-6.484167461704775,-4.513240317013361,-7.326168800511546,-4.504061349576066,-8.134871561044516,-4.486301140502253,-8.91008518064302,-4.460134452848692,-9.65176602668237,-4.425776785851996,-10.360015880177077,-4.383483270199685,-11.035080008554786,-4.333547434421488,-11.67734484884338,-4.276299850716919,-12.28733532251367,-4.212106668535297,-12.865711803220371,-4.141368044224285,-13.413266758683847,-4.064516475063055,-13.930921087955124,-3.982015045996213,-14.419720175306733,-3.8943555973845627,-14.880829681991937,-3.8020568220888307,-15.315531097114924,-3.7056623002024645,-15.725217068854345,-3.6057384797495993,-16.111386537282925,-3.5028726116643125,-16.47563969002558,-3.3976706473672746,-16.819672761998532,-3.2907551072558854,-17.145272700472226,-3.1827629284240424,-17.45249065952339,-3.0731688538941335,-17.740616869997858,-2.9612180589787935,-18.010369086076693,-2.847211053630501,-18.262472674872164,-2.731445336910347,-18.497657771444928,-2.614214283223559,-18.716656433821264,-2.4958060285549974,-18.92019979801028,-2.3765023567046866,-19.109015233021168,-2.256577585523316,-19.283823495880327,-2.1362974531477623,-19.445335886648678,-2.0159180042366023,-19.594251403438804,-1.895684476205619,-19.731253897432218,-1.7758301854633292,-19.85700922789652,-1.6565754136464843,-19.97216241720269,-1.538126293855592,-19.80286658278846,-0.6536314336856615,-19.598413878643335,-0.5508310606589237,-19.384984375694984,-0.44823029368348033,-19.162044086721572,-0.34567509387347695,-18.929041110438753,-0.24300431689635338,-18.685407921294924,-0.14005116713530508,-18.430563659266788,-0.03664465185174337,-18.163916419654576,0.0673889646522432,-17.884865542877584,0.17222470687142866,-17.592803904269466,0.27803743393499114,-17.287120203873677,0.3850003854440499,-16.967201256238887,0.4932837273092042,-16.632434280214326,0.6030530975880759,-16.282209188745192,0.7144681523228469,-15.915920878668103,0.8276811113777987,-15.533844075805327,0.9424477785503558,-15.135632575922948,1.0587051503468574,-14.719805660394993,1.176835519507375,-14.284953904361043,1.2971732831031815,-13.829743774521244,1.4200039159096283,-13.352922124634798,1.5455630315229387,-12.853320571624604,1.674035542078669,-12.329859735191011,1.805554927429587,-11.781553323837407,1.940202624640705,-11.207512050210749,2.07800754865922,-10.606947358659554,2.218945755017117,-9.979174947912576,2.3629402554241494,-9.32361807178074,2.509860997108989,-8.63981060078537,2.659525016766251,-7.927399827615467,2.811696779967166,-7.186148999317016,2.9660887168916314,-6.415939559117003,3.1223619652393984,-5.616773080785173,3.280127331178131,-4.788772878436369,3.438946479186092,-3.932185274676158,3.5983333616472013,-3.047380509992834,3.757755899056203,-2.134853276298461,3.916637921691706,-1.1952228575219301,4.074361383614821,-0.22923286015685918,4.230268859851165,0.7622494833327771,4.38366633761396,1.7782344553465261,4.533826312425983,2.817611455317813,4.679991199998113,3.879151080318101,4.821377074722208,4.961507701191806,4.957177745636088,6.063222551319297,5.0865691807183335,7.182727345104961,5.208714290370674,8.318348443287553,5.322768080945703,9.468311582169957,5.427883189177663,10.630747183865502,5.523215808374044,11.803696264657926,5.607932017225762,12.985116958572219,5.681214522093642,14.172891673253371,5.742269823628954,15.364834895250272,5.790335818585758,16.558701661801802,5.824689847682803,17.752196716222343,5.844657200372726,18.942984363983797,5.849620087376282,20.12869904659125,5.839027091839373,21.306956650349445,5.812403109970619,22.475366567117163,5.7693597920172,23.631544524146733,5.709606494436736,24.773126200105686,5.632961754122938,25.897781644377847,5.5393652955427815,27.003230516740796,5.428890581642959,28.087258164517095,5.301757919383316,29.147732554296176,5.158348130755105,30.100680514731923,5.100997100190137,31.04032459699981,5.036233819417566,31.965421422842308,4.9642826232242925,32.87471636906892,4.885412768201711,33.76694441591111,4.799940054852579,34.64083099537724,4.7082284496978595,35.495092839607565,4.610691707383589,36.328438829229086,4.507794992787724,37.13957084171057,4.400056503127006,37.92718459971749,4.288049090063813,38.68997051946691,4.172401881813014,39.42661455908251,4.0538019052488306,40.13579906694943,3.9329957080116915,40.81620363006933,3.8107909806150855,41.46650592241525,3.688058178552424"></polyline></clipPath><clipPath id="rightEyeClipPath"><polyline points="-42.051856910431425,-0.17010440794760484,-41.455121118606016,-0.26055958885932284,-40.826254552969786,-0.35367570513715285,-40.165988294414944,-0.44916760847055226,-39.47510359725466,-0.5467541294457339,-38.75442958657331,-0.6461581655818438,-38.00484095557674,-0.7471067693671396,-37.22725566294252,-0.8493312362951626,-36.42263263017021,-0.9525671929009152,-35.59196943893163,-1.0565546847970386,-34.736300028421105,-1.1610382647099866,-33.8566923927057,-1.265767080516201,-32.95424627807556,-1.3704949632782932,-32.030090880394084,-1.4749805152812125,-31.085382542448215,-1.5789871980684278,-30.12130245129873,-1.682283420478101,-29.111077515685828,-1.8085080054626894,-28.063328853077557,-1.9343829608072303,-26.980149789145084,-2.0594047520877687,-25.86385750980525,-2.1830740552461005,-24.716962908305263,-2.3048987725251715,-23.5421418403866,-2.424396839691042,-22.342207759956622,-2.5410988293683907,-21.12008570769642,-2.6545503553166183,-19.878787625033443,-2.764314282473528,-18.62138896590756,-2.8699727475936587,-17.3510065787589,-2.9711289953082307,-16.070777831166193,-3.0674090344337737,-14.78384094956412,-3.1584631193564174,-13.493316546468106,-3.2439670613189193,-12.202290307635277,-3.3236233744373678,-10.913796811589972,-3.397162261274672,-9.630804453942464,-3.464342442797787,-8.356201448929388,-3.5249518375457436,-7.0927828806044,-3.5788080948354564,-5.843238776107677,-3.625758986832391,-4.610143173442738,-3.665682664313045,-3.395944156189172,-3.6984877809463113,-2.202954827579825,-3.724113490920721,-1.0333451963709486,-3.7425293247445968,0.11086505306612082,-3.7537349480461275,1.227812934003154,-3.757759808200391,2.315797701534656,-3.7546626736103494,3.373285595250298,-3.744531070468817,4.398913807971617,-3.727480621828456,5.391493708124468,-3.7036542938067845,6.350013343318675,-3.6732215537532387,7.273639252706296,-3.6363774452053015,8.161717615690048,-3.593341584460725,9.013774764553173,-3.5443570835928497,9.829517088582485,-3.489689404736078,10.608830357255673,-3.429625150468465,11.351778490064692,-3.3644707951185024,12.058601800546445,-3.2945513618230926,12.729714742092263,-3.2202090501637173,13.365703183107776,-3.1418018192078545,13.96732123909435,-3.059701930782639,14.535487689223867,-2.974294457807785,15.071282004978055,-2.8859757625148337,15.575940018423946,-2.795151949379667,16.050849257696854,-2.7022372975953983,16.49754397726241,-2.6076526779125775,16.91769991052898,-2.511823958673804,17.313128772382093,-2.415180405869708,17.685772539212103,-2.318153082043356,18.037697534006817,-2.2211732488700937,18.368797445829934,-2.1238619933079432,18.67806119842421,-2.0257012049361514,18.966300049855946,-1.9269094090799508,19.23433891438392,-1.8277004337698297,19.483012669853892,-1.7282827632655924,19.71316246509312,-1.6288588915804223,19.92563202730495,-1.5296246760049497,20.121263969463293,-1.4307686906313097,20.300896097707188,-1.3324715798772153,20.46535771873537,-1.2349054120100098,20.61546594720072,-1.138233032670741,20.752022013104906,-1.0426074183982201,20.875807569192816,-0.948171030153085,20.987580998347163,-0.8550551668418642,21.359670012196837,-0.8422081881059051,21.113665134327526,-0.7584389339148452,20.859905949174447,-0.674860546356179,20.59785260440617,-0.5912913111594571,20.326944595762555,-0.5075407897725583,20.04660321301285,-0.4234114209731372,19.756233985913838,-0.33870012248006964,19.4552291301678,-0.2531998925648984,19.14296999338076,-0.1667014116632819,18.81882950102039,-0.07899464398643352,18.482174602374265,0.010129560867425225,18.132368716507827,0.10087786630162165,17.768774178222507,0.19345284710958688,17.39075468401382,0.2880513878634101,16.99767773802946,0.38486308130238966,16.58977367843449,0.4835361644077135,16.166653846642653,0.5839319593577164,15.726811403584122,0.6865161651679975,15.268809863753475,0.7917039389090974,14.791287918228065,0.899858605737966,14.292964156499437,1.0112904607791526,13.772641668854384,1.1262556748144192,13.229212511042483,1.2449553157394853,12.66166201296706,1.3675344977465884,12.069072913136381,1.4940816701915691,11.45062930061188,1.624628058104182,10.805620346190373,1.7591472663003134,10.133443804556947,1.8975550590548314,9.43360926914552,2.0397093272937448,8.705741161443886,2.185410255264378,7.949581436479978,2.3344006986422663,7.164991986226358,2.4863667860334564,6.351956722659644,2.640938755830928,5.5105833222118505,2.797692040383815,4.641104613350361,2.956148609438152,3.7438795890234218,3.115778584807815,2.8193940257081103,3.276002138234376,1.8682606907974346,3.436191684394565,0.8912191200635462,3.5956743810140344,-0.11086505306611905,3.7537349480461275,-1.137001234682952,3.9096188178743496,-2.1860754922846404,4.062535628497245,-3.256852679639227,4.211663071654363,-4.347979082888793,4.356151107852038,-5.457985606156054,4.4951265602476544,-6.585291514916927,4.6276980993511145,-7.728208755402241,4.7529616305022016,-8.884946868291784,4.870006096082532,-10.053618514963798,4.977919704420813,-11.232245634563082,5.075796597350073,-12.418766250150892,5.1627439683756045,-13.611041942199728,5.237889643412271,-14.806866007696224,5.300390136049931,-16.00397232311526,5.34943918930562,-17.20004492952846,5.384276815821247,-18.392728358110226,5.404198848465447,-19.579638714304483,5.408567013298341,-20.75837553891522,5.396819536857858,-21.92653446438409,5.368482299726361,-23.08172068451813,5.323180548336226,-24.221563255930782,5.260651176973119,-25.343730249459398,5.180755591935647,-26.445944769822344,5.083493169810078,-27.52600186177887,4.969015321818842,-28.581786321054913,4.837640176201508,-29.5342304741399,4.792453935090701,-30.4731249548604,4.739648095651003,-31.397240020977073,4.6794198217594,-32.305337182771105,4.612012261778849,-33.19617014287594,4.537716250707709,-34.06848573610904,4.4568720123291845,-34.921024869303594,4.369870861360749,-35.75252346114028,4.277156905603586,-36.56171338197902,4.1792287480920205,-37.347323393690694,4.076641189242954,-38.108080089488894,3.9700069290052973,-38.84270883376166,3.859998269009404,-39.549934701903226,3.7473488147165064,-40.228483420145764,3.6328551775681506,-40.8770823053911,3.5173786771356284"></polyline></clipPath><filter id="fuzzy"><feTurbulence id="turbulence" baseFrequency="0.05" numOctaves="3" type="noise" result="noise"></feTurbulence><feDisplacementMap in="SourceGraphic" in2="noise" scale="2"></feDisplacementMap></filter><linearGradient id="rainbowGradient" x1="0%" y1="0%" x2="100%" y2="0%"><stop offset="0%" style="stop-color: rgb(185, 55, 55);  stop-opacity: 1"></stop><stop offset="37.889291029971545%" style="stop-color: rgb(128, 128, 128);  stop-opacity: 1"></stop><stop offset="100%" style="stop-color: rgb(148, 0, 211);  stop-opacity: 1"></stop></linearGradient></defs><title>That&#39;s an ugly face</title><desc>CREATED BY XUAN TANG, MORE INFO AT TXSTC55.GITHUB.IO</desc><rect x="-100" y="-100" width="100%" height="100%" opacity="1" fill="rgb(255, 253, 208)"></rect><polyline id="faceContour" points="72,2,72,1,72,3,72,4,72,4,72,6,72,7,71,9,72,10,72,9,71,11,71,12,71,14,71,14,71,17,70,17,70,19,70,21,69,22,70,21,69,22,68,26,69,25,68,26,67,29,67,30,67,30,66,32,66,33,66,32,65,35,64,36,65,36,63,39,63,39,62,40,62,40,62,41,61,43,60,44,59,45,58,47,58,46,58,48,56,49,56,51,56,50,55,51,54,53,54,52,51,55,51,55,50,57,49,58,49,58,48,59,48,58,45,61,46,61,46,61,44,63,43,63,41,64,40,66,39,66,40,66,37,67,37,67,35,69,33,69,33,69,34,69,32,70,31,71,30,71,28,72,27,73,26,73,24,74,24,74,23,74,23,75,22,75,19,76,19,76,17,77,15,77,15,77,14,77,13,77,13,78,10,79,10,78,8,79,8,79,6,79,5,79,5,79,2,80,1,79,0,80,-1,79,-2,80,-5,80,-4,80,-5,80,-7,80,-9,80,-10,79,-12,79,-10,79,-12,79,-15,79,-16,79,-15,79,-18,78,-18,78,-19,78,-20,78,-22,77,-24,76,-26,76,-25,76,-26,76,-26,76,-30,74,-31,74,-29,75,-32,73,-33,73,-33,73,-35,72,-36,72,-38,70,-38,70,-40,69,-39,70,-40,69,-42,67,-43,67,-43,67,-45,65,-45,65,-46,64,-46,64,-49,62,-49,61,-49,62,-51,60,-50,60,-52,59,-53,57,-54,56,-55,56,-56,53,-55,55,-56,54,-58,51,-59,49,-59,50,-59,49,-60,48,-61,46,-61,46,-62,45,-63,43,-64,41,-63,42,-64,40,-64,41,-66,37,-66,35,-67,34,-67,34,-67,32,-67,32,-67,32,-68,29,-68,30,-68,28,-69,24,-70,25,-70,22,-70,23,-70,21,-70,19,-71,19,-71,17,-71,16,-71,15,-72,12,-71,13,-71,10,-71,8,-72,8,-72,6,-72,5,-72,4,-72,2,-72,3,-71,-2,-72,-2,-71,-3,-71,-5,-71,-6,-71,-6,-71,-7,-71,-10,-71,-11,-70,-13,-70,-12,-70,-14,-70,-16,-70,-17,-70,-17,-69,-21,-68,-22,-69,-21,-68,-24,-67,-26,-68,-26,-67,-27,-67,-28,-67,-28,-66,-30,-66,-31,-65,-34,-65,-34,-63,-37,-64,-36,-64,-37,-61,-41,-61,-41,-62,-39,-60,-43,-60,-44,-59,-44,-58,-47,-57,-48,-57,-48,-57,-49,-56,-50,-55,-51,-55,-51,-54,-53,-52,-55,-52,-55,-52,-55,-51,-57,-51,-57,-49,-59,-49,-59,-48,-60,-46,-61,-46,-62,-46,-62,-44,-64,-43,-64,-43,-65,-41,-66,-42,-66,-40,-67,-40,-67,-38,-68,-38,-69,-35,-70,-36,-70,-34,-71,-32,-72,-34,-71,-31,-73,-31,-73,-29,-74,-29,-74,-28,-74,-25,-75,-25,-76,-24,-76,-23,-76,-23,-76,-22,-76,-21,-77,-20,-77,-18,-78,-17,-78,-17,-78,-16,-78,-14,-79,-12,-79,-13,-79,-12,-79,-10,-79,-8,-79,-6,-80,-7,-79,-5,-79,-5,-79,-3,-80,-3,-80,-1,-80,0,-79,2,-79,3,-79,2,-80,5,-79,5,-79,6,-79,9,-78,9,-79,9,-78,9,-78,12,-78,12,-78,14,-77,16,-77,16,-76,17,-76,19,-76,21,-75,21,-75,21,-75,22,-75,23,-74,25,-73,25,-73,26,-72,28,-71,29,-71,28,-71,31,-70,31,-69,33,-68,34,-67,33,-68,35,-67,35,-67,39,-64,39,-65,38,-65,40,-64,40,-63,42,-62,42,-62,45,-59,45,-60,46,-58,47,-57,46,-58,48,-56,48,-55,50,-54,49,-55,50,-54,52,-52,52,-52,53,-51,54,-49,55,-48,55,-47,56,-46,57,-45,58,-43,58,-43,59,-41,60,-40,60,-39,61,-38,62,-37,62,-36,63,-36,63,-34,63,-35,64,-32,65,-30,65,-29,65,-29,66,-26,66,-27,66,-26,67,-25,67,-24,68,-21,68,-23,68,-20,69,-20,69,-19,70,-16,70,-15,70,-14,70,-14,70,-12,71,-10,70,-10,71,-9,71,-7,71,-7,71,-5,71,-3,71,-3,72,-1,72,2,72,1" fill="#ffc9a9" stroke="black" stroke-width="1.6666666666666665" stroke-linejoin="round" filter="url(#fuzzy)"></polyline><g transform="translate(41.46103941929244 -24.178366223867975)"><polyline id="rightCountour" points="-42.051856910431425,-0.17010440794760484,-41.455121118606016,-0.26055958885932284,-40.826254552969786,-0.35367570513715285,-40.165988294414944,-0.44916760847055226,-39.47510359725466,-0.5467541294457339,-38.75442958657331,-0.6461581655818438,-38.00484095557674,-0.7471067693671396,-37.22725566294252,-0.8493312362951626,-36.42263263017021,-0.9525671929009152,-35.59196943893163,-1.0565546847970386,-34.736300028421105,-1.1610382647099866,-33.8566923927057,-1.265767080516201,-32.95424627807556,-1.3704949632782932,-32.030090880394084,-1.4749805152812125,-31.085382542448215,-1.5789871980684278,-30.12130245129873,-1.682283420478101,-29.111077515685828,-1.8085080054626894,-28.063328853077557,-1.9343829608072303,-26.980149789145084,-2.0594047520877687,-25.86385750980525,-2.1830740552461005,-24.716962908305263,-2.3048987725251715,-23.5421418403866,-2.424396839691042,-22.342207759956622,-2.5410988293683907,-21.12008570769642,-2.6545503553166183,-19.878787625033443,-2.764314282473528,-18.62138896590756,-2.8699727475936587,-17.3510065787589,-2.9711289953082307,-16.070777831166193,-3.0674090344337737,-14.78384094956412,-3.1584631193564174,-13.493316546468106,-3.2439670613189193,-12.202290307635277,-3.3236233744373678,-10.913796811589972,-3.397162261274672,-9.630804453942464,-3.464342442797787,-8.356201448929388,-3.5249518375457436,-7.0927828806044,-3.5788080948354564,-5.843238776107677,-3.625758986832391,-4.610143173442738,-3.665682664313045,-3.395944156189172,-3.6984877809463113,-2.202954827579825,-3.724113490920721,-1.0333451963709486,-3.7425293247445968,0.11086505306612082,-3.7537349480461275,1.227812934003154,-3.757759808200391,2.315797701534656,-3.7546626736103494,3.373285595250298,-3.744531070468817,4.398913807971617,-3.727480621828456,5.391493708124468,-3.7036542938067845,6.350013343318675,-3.6732215537532387,7.273639252706296,-3.6363774452053015,8.161717615690048,-3.593341584460725,9.013774764553173,-3.5443570835928497,9.829517088582485,-3.489689404736078,10.608830357255673,-3.429625150468465,11.351778490064692,-3.3644707951185024,12.058601800546445,-3.2945513618230926,12.729714742092263,-3.2202090501637173,13.365703183107776,-3.1418018192078545,13.96732123909435,-3.059701930782639,14.535487689223867,-2.974294457807785,15.071282004978055,-2.8859757625148337,15.575940018423946,-2.795151949379667,16.050849257696854,-2.7022372975953983,16.49754397726241,-2.6076526779125775,16.91769991052898,-2.511823958673804,17.313128772382093,-2.415180405869708,17.685772539212103,-2.318153082043356,18.037697534006817,-2.2211732488700937,18.368797445829934,-2.1238619933079432,18.67806119842421,-2.0257012049361514,18.966300049855946,-1.9269094090799508,19.23433891438392,-1.8277004337698297,19.483012669853892,-1.7282827632655924,19.71316246509312,-1.6288588915804223,19.92563202730495,-1.5296246760049497,20.121263969463293,-1.4307686906313097,20.300896097707188,-1.3324715798772153,20.46535771873537,-1.2349054120100098,20.61546594720072,-1.138233032670741,20.752022013104906,-1.0426074183982201,20.875807569192816,-0.948171030153085,20.987580998347163,-0.8550551668418642,21.359670012196837,-0.8422081881059051,21.113665134327526,-0.7584389339148452,20.859905949174447,-0.674860546356179,20.59785260440617,-0.5912913111594571,20.326944595762555,-0.5075407897725583,20.04660321301285,-0.4234114209731372,19.756233985913838,-0.33870012248006964,19.4552291301678,-0.2531998925648984,19.14296999338076,-0.1667014116632819,18.81882950102039,-0.07899464398643352,18.482174602374265,0.010129560867425225,18.132368716507827,0.10087786630162165,17.768774178222507,0.19345284710958688,17.39075468401382,0.2880513878634101,16.99767773802946,0.38486308130238966,16.58977367843449,0.4835361644077135,16.166653846642653,0.5839319593577164,15.726811403584122,0.6865161651679975,15.268809863753475,0.7917039389090974,14.791287918228065,0.899858605737966,14.292964156499437,1.0112904607791526,13.772641668854384,1.1262556748144192,13.229212511042483,1.2449553157394853,12.66166201296706,1.3675344977465884,12.069072913136381,1.4940816701915691,11.45062930061188,1.624628058104182,10.805620346190373,1.7591472663003134,10.133443804556947,1.8975550590548314,9.43360926914552,2.0397093272937448,8.705741161443886,2.185410255264378,7.949581436479978,2.3344006986422663,7.164991986226358,2.4863667860334564,6.351956722659644,2.640938755830928,5.5105833222118505,2.797692040383815,4.641104613350361,2.956148609438152,3.7438795890234218,3.115778584807815,2.8193940257081103,3.276002138234376,1.8682606907974346,3.436191684394565,0.8912191200635462,3.5956743810140344,-0.11086505306611905,3.7537349480461275,-1.137001234682952,3.9096188178743496,-2.1860754922846404,4.062535628497245,-3.256852679639227,4.211663071654363,-4.347979082888793,4.356151107852038,-5.457985606156054,4.4951265602476544,-6.585291514916927,4.6276980993511145,-7.728208755402241,4.7529616305022016,-8.884946868291784,4.870006096082532,-10.053618514963798,4.977919704420813,-11.232245634563082,5.075796597350073,-12.418766250150892,5.1627439683756045,-13.611041942199728,5.237889643412271,-14.806866007696224,5.300390136049931,-16.00397232311526,5.34943918930562,-17.20004492952846,5.384276815821247,-18.392728358110226,5.404198848465447,-19.579638714304483,5.408567013298341,-20.75837553891522,5.396819536857858,-21.92653446438409,5.368482299726361,-23.08172068451813,5.323180548336226,-24.221563255930782,5.260651176973119,-25.343730249459398,5.180755591935647,-26.445944769822344,5.083493169810078,-27.52600186177887,4.969015321818842,-28.581786321054913,4.837640176201508,-29.5342304741399,4.792453935090701,-30.4731249548604,4.739648095651003,-31.397240020977073,4.6794198217594,-32.305337182771105,4.612012261778849,-33.19617014287594,4.537716250707709,-34.06848573610904,4.4568720123291845,-34.921024869303594,4.369870861360749,-35.75252346114028,4.277156905603586,-36.56171338197902,4.1792287480920205,-37.347323393690694,4.076641189242954,-38.108080089488894,3.9700069290052973,-38.84270883376166,3.859998269009404,-39.549934701903226,3.7473488147165064,-40.228483420145764,3.6328551775681506,-40.8770823053911,3.5173786771356284" fill="white" stroke="white" stroke-width="0" stroke-linejoin="round" filter="url(#fuzzy)"></polyline></g><g transform="translate(-42.98950184376854 -26.426537280147556)"><polyline id="leftCountour" points="41.4443038723408,0.09185667656402452,40.785084119230476,0.005416076361696831,40.09422451258071,-0.08461120697621438,39.37295513917301,-0.17807111688311705,38.62251876807244,-0.2747996255794365,37.84416953499535,-0.3746232334875401,37.03917162667703,-0.4773594686466618,36.20879796523941,-0.5828173861278305,35.35432889255874,-0.6907980674487906,34.47705085463325,-0.80109511998893,33.57825508595085,-0.9134951764042065,32.65923629385683,-1.0277783940420684,31.72129134292149,-1.143718954356387,30.765717939307883,-1.2610855623223762,29.793813315139438,-1.379641945851518,28.806872912867686,-1.4991473552064898,27.72436500297263,-1.6272164045307975,26.614046102260314,-1.7588424993198606,25.478187108148717,-1.893478471519824,24.319184650389328,-2.030542838787375,23.13953933545375,-2.169426819824204,21.941835060268378,-2.3095009630323093,20.728719374054602,-2.450121396806264,19.50288486703203,-2.5906357097785464,18.267051564742143,-2.7303884693340446,17.023950306749914,-2.8687263867098403,15.776307088480753,-3.0050031369963874,14.526828344950351,-3.1385838423561894,13.278187155144819,-3.2688492267760734,12.033010345808577,-3.3951994506691876,10.79386647339749,-3.5170576336428243,9.563254662954687,-3.6338730737481657,8.343594282666569,-3.7451241715280665,7.137215432856392,-3.8503210671789962,5.946350228172941,-3.949007999143227,4.773124851731762,-4.0407653924473905,3.6195523599664003,-4.125211685103492,2.4875262169470442,-4.202004900888539,1.3788145369241818,-4.270843976818805,0.2950550138546042,-4.331469853634939,-0.7622494833327771,-4.38366633761396,-1.7917346709737316,-4.427260742024254,-2.7921779876507493,-4.462124316539702,-3.7625011291629242,-4.48817247292904,-4.7017720027260275,-4.505364815336556,-5.609206121645496,-4.513704983470214,-6.484167461704775,-4.513240317013361,-7.326168800511546,-4.504061349576066,-8.134871561044516,-4.486301140502253,-8.91008518064302,-4.460134452848692,-9.65176602668237,-4.425776785851996,-10.360015880177077,-4.383483270199685,-11.035080008554786,-4.333547434421488,-11.67734484884338,-4.276299850716919,-12.28733532251367,-4.212106668535297,-12.865711803220371,-4.141368044224285,-13.413266758683847,-4.064516475063055,-13.930921087955124,-3.982015045996213,-14.419720175306733,-3.8943555973845627,-14.880829681991937,-3.8020568220888307,-15.315531097114924,-3.7056623002024645,-15.725217068854345,-3.6057384797495993,-16.111386537282925,-3.5028726116643125,-16.47563969002558,-3.3976706473672746,-16.819672761998532,-3.2907551072558854,-17.145272700472226,-3.1827629284240424,-17.45249065952339,-3.0731688538941335,-17.740616869997858,-2.9612180589787935,-18.010369086076693,-2.847211053630501,-18.262472674872164,-2.731445336910347,-18.497657771444928,-2.614214283223559,-18.716656433821264,-2.4958060285549974,-18.92019979801028,-2.3765023567046866,-19.109015233021168,-2.256577585523316,-19.283823495880327,-2.1362974531477623,-19.445335886648678,-2.0159180042366023,-19.594251403438804,-1.895684476205619,-19.731253897432218,-1.7758301854633292,-19.85700922789652,-1.6565754136464843,-19.97216241720269,-1.538126293855592,-19.80286658278846,-0.6536314336856615,-19.598413878643335,-0.5508310606589237,-19.384984375694984,-0.44823029368348033,-19.162044086721572,-0.34567509387347695,-18.929041110438753,-0.24300431689635338,-18.685407921294924,-0.14005116713530508,-18.430563659266788,-0.03664465185174337,-18.163916419654576,0.0673889646522432,-17.884865542877584,0.17222470687142866,-17.592803904269466,0.27803743393499114,-17.287120203873677,0.3850003854440499,-16.967201256238887,0.4932837273092042,-16.632434280214326,0.6030530975880759,-16.282209188745192,0.7144681523228469,-15.915920878668103,0.8276811113777987,-15.533844075805327,0.9424477785503558,-15.135632575922948,1.0587051503468574,-14.719805660394993,1.176835519507375,-14.284953904361043,1.2971732831031815,-13.829743774521244,1.4200039159096283,-13.352922124634798,1.5455630315229387,-12.853320571624604,1.674035542078669,-12.329859735191011,1.805554927429587,-11.781553323837407,1.940202624640705,-11.207512050210749,2.07800754865922,-10.606947358659554,2.218945755017117,-9.979174947912576,2.3629402554241494,-9.32361807178074,2.509860997108989,-8.63981060078537,2.659525016766251,-7.927399827615467,2.811696779967166,-7.186148999317016,2.9660887168916314,-6.415939559117003,3.1223619652393984,-5.616773080785173,3.280127331178131,-4.788772878436369,3.438946479186092,-3.932185274676158,3.5983333616472013,-3.047380509992834,3.757755899056203,-2.134853276298461,3.916637921691706,-1.1952228575219301,4.074361383614821,-0.22923286015685918,4.230268859851165,0.7622494833327771,4.38366633761396,1.7782344553465261,4.533826312425983,2.817611455317813,4.679991199998113,3.879151080318101,4.821377074722208,4.961507701191806,4.957177745636088,6.063222551319297,5.0865691807183335,7.182727345104961,5.208714290370674,8.318348443287553,5.322768080945703,9.468311582169957,5.427883189177663,10.630747183865502,5.523215808374044,11.803696264657926,5.607932017225762,12.985116958572219,5.681214522093642,14.172891673253371,5.742269823628954,15.364834895250272,5.790335818585758,16.558701661801802,5.824689847682803,17.752196716222343,5.844657200372726,18.942984363983797,5.849620087376282,20.12869904659125,5.839027091839373,21.306956650349445,5.812403109970619,22.475366567117163,5.7693597920172,23.631544524146733,5.709606494436736,24.773126200105686,5.632961754122938,25.897781644377847,5.5393652955427815,27.003230516740796,5.428890581642959,28.087258164517095,5.301757919383316,29.147732554296176,5.158348130755105,30.100680514731923,5.100997100190137,31.04032459699981,5.036233819417566,31.965421422842308,4.9642826232242925,32.87471636906892,4.885412768201711,33.76694441591111,4.799940054852579,34.64083099537724,4.7082284496978595,35.495092839607565,4.610691707383589,36.328438829229086,4.507794992787724,37.13957084171057,4.400056503127006,37.92718459971749,4.288049090063813,38.68997051946691,4.172401881813014,39.42661455908251,4.0538019052488306,40.13579906694943,3.9329957080116915,40.81620363006933,3.8107909806150855,41.46650592241525,3.688058178552424" fill="white" stroke="white" stroke-width="0" stroke-linejoin="round" filter="url(#fuzzy)"></polyline></g><g transform="translate(41.46103941929244 -24.178366223867975)"><polyline id="rightUpper" points="-46.13166837356016,0.5226946649566857,-45.88376522174209,0.475344406206748,-45.59968660828602,0.4222822576223346,-45.27953523413899,0.3638283144918808,-44.92348700016633,0.300299573568825,-44.53178870450208,0.2320098450354311,-44.10475573989906,0.15926966446661672,-43.64276979107926,0.08238620479377223,-43.14627653208406,0.0016631882685875787,-42.61578332362447,-0.08259920157312495,-42.051856910431425,-0.17010440794760484,-41.455121118606016,-0.26055958885932284,-40.826254552969786,-0.35367570513715285,-40.165988294414944,-0.44916760847055226,-39.47510359725466,-0.5467541294457339,-38.75442958657331,-0.6461581655818438,-38.00484095557674,-0.7471067693671396,-37.22725566294252,-0.8493312362951626,-36.42263263017021,-0.9525671929009152,-35.59196943893163,-1.0565546847970386,-34.736300028421105,-1.1610382647099866,-33.8566923927057,-1.265767080516201,-32.95424627807556,-1.3704949632782932,-32.030090880394084,-1.4749805152812125,-31.085382542448215,-1.5789871980684278,-30.12130245129873,-1.682283420478101,-29.111077515685828,-1.8085080054626894,-28.063328853077557,-1.9343829608072303,-26.980149789145084,-2.0594047520877687,-25.86385750980525,-2.1830740552461005,-24.716962908305263,-2.3048987725251715,-23.5421418403866,-2.424396839691042,-22.342207759956622,-2.5410988293683907,-21.12008570769642,-2.6545503553166183,-19.878787625033443,-2.764314282473528,-18.62138896590756,-2.8699727475936587,-17.3510065787589,-2.9711289953082307,-16.070777831166193,-3.0674090344337737,-14.78384094956412,-3.1584631193564174,-13.493316546468106,-3.2439670613189193,-12.202290307635277,-3.3236233744373678,-10.913796811589972,-3.397162261274672,-9.630804453942464,-3.464342442797787,-8.356201448929388,-3.5249518375457436,-7.0927828806044,-3.5788080948354564,-5.843238776107677,-3.625758986832391,-4.610143173442738,-3.665682664313045,-3.395944156189172,-3.6984877809463113,-2.202954827579825,-3.724113490920721,-1.0333451963709486,-3.7425293247445968,0.11086505306612082,-3.7537349480461275,1.227812934003154,-3.757759808200391,2.315797701534656,-3.7546626736103494,3.373285595250298,-3.744531070468817,4.398913807971617,-3.727480621828456,5.391493708124468,-3.7036542938067845,6.350013343318675,-3.6732215537532387,7.273639252706296,-3.6363774452053015,8.161717615690048,-3.593341584460725,9.013774764553173,-3.5443570835928497,9.829517088582485,-3.489689404736078,10.608830357255673,-3.429625150468465,11.351778490064692,-3.3644707951185024,12.058601800546445,-3.2945513618230926,12.729714742092263,-3.2202090501637173,13.365703183107776,-3.1418018192078545,13.96732123909435,-3.059701930782639,14.535487689223867,-2.974294457807785,15.071282004978055,-2.8859757625148337,15.575940018423946,-2.795151949379667,16.050849257696854,-2.7022372975953983,16.49754397726241,-2.6076526779125775,16.91769991052898,-2.511823958673804,17.313128772382093,-2.415180405869708,17.685772539212103,-2.318153082043356,18.037697534006817,-2.2211732488700937,18.368797445829934,-2.1238619933079432,18.67806119842421,-2.0257012049361514,18.966300049855946,-1.9269094090799508,19.23433891438392,-1.8277004337698297,19.483012669853892,-1.7282827632655924,19.71316246509312,-1.6288588915804223,19.92563202730495,-1.5296246760049497,20.121263969463293,-1.4307686906313097,20.300896097707188,-1.3324715798772153,20.46535771873537,-1.2349054120100098,20.61546594720072,-1.138233032670741,20.752022013104906,-1.0426074183982201,20.875807569192816,-0.948171030153085,20.987580998347163,-0.8550551668418642,21.088073720983026,-0.7633793188410445,21.177986502442295,-0.6732505215211326,21.257985760388316,-0.5847627087707152,21.32869987220038,-0.4979960665205312,21.390715482368257,-0.4130163862675278,21.44457380988669,-0.32987441859892574,21.490766955650038,-0.24860522671628904,21.529734209846687,-0.1692275399595815,21.561858359353685,-0.09174310733123625,21.58746199513123,-0.016136051020215314" fill="none" stroke="black" stroke-width="1.6666666666666665" stroke-linejoin="round" filter="url(#fuzzy)"></polyline><polyline id="rightLower" points="-45.438858933367236,2.547720513800604,-45.1587340214692,2.6102002452643127,-44.83622669540754,2.684243729168291,-44.47254204083791,2.7682489464249143,-44.06889613240303,2.8606956075706425,-43.626515093901,2.9601434506165916,-43.146634158453494,3.0652305388990935,-42.630496728674075,3.1746715589302656,-42.079353436836385,3.2872561182485756,-41.4944612050425,3.4018470432694077,-40.8770823053911,3.5173786771356284,-40.228483420145764,3.6328551775681506,-39.549934701903226,3.7473488147165064,-38.84270883376166,3.859998269009404,-38.108080089488894,3.9700069290052973,-37.347323393690694,4.076641189242954,-36.56171338197902,4.1792287480920205,-35.75252346114028,4.277156905603586,-34.921024869303594,4.369870861360749,-34.06848573610904,4.4568720123291845,-33.19617014287594,4.537716250707709,-32.305337182771105,4.612012261778849,-31.397240020977073,4.6794198217594,-30.4731249548604,4.739648095651003,-29.5342304741399,4.792453935090701,-28.581786321054913,4.837640176201508,-27.52600186177887,4.969015321818842,-26.445944769822344,5.083493169810078,-25.343730249459398,5.180755591935647,-24.221563255930782,5.260651176973119,-23.08172068451813,5.323180548336226,-21.92653446438409,5.368482299726361,-20.75837553891522,5.396819536857858,-19.579638714304483,5.408567013298341,-18.392728358110226,5.404198848465447,-17.20004492952846,5.384276815821247,-16.00397232311526,5.34943918930562,-14.806866007696224,5.300390136049931,-13.611041942199728,5.237889643412271,-12.418766250150892,5.1627439683756045,-11.232245634563082,5.075796597350073,-10.053618514963798,4.977919704420813,-8.884946868291784,4.870006096082532,-7.728208755402241,4.7529616305022016,-6.585291514916927,4.6276980993511145,-5.457985606156054,4.4951265602476544,-4.347979082888793,4.356151107852038,-3.256852679639227,4.211663071654363,-2.1860754922846404,4.062535628497245,-1.137001234682952,3.9096188178743496,-0.11086505306611905,3.7537349480461275,0.8912191200635462,3.5956743810140344,1.8682606907974346,3.436191684394565,2.8193940257081103,3.276002138234376,3.7438795890234218,3.115778584807815,4.641104613350361,2.956148609438152,5.5105833222118505,2.797692040383815,6.351956722659644,2.640938755830928,7.164991986226358,2.4863667860334564,7.949581436479978,2.3344006986422663,8.705741161443886,2.185410255264378,9.43360926914552,2.0397093272937448,10.133443804556947,1.8975550590548314,10.805620346190373,1.7591472663003134,11.45062930061188,1.624628058104182,12.069072913136381,1.4940816701915691,12.66166201296706,1.3675344977465884,13.229212511042483,1.2449553157394853,13.772641668854384,1.1262556748144192,14.292964156499437,1.0112904607791526,14.791287918228065,0.899858605737966,15.268809863753475,0.7917039389090974,15.726811403584122,0.6865161651679975,16.166653846642653,0.5839319593577164,16.58977367843449,0.4835361644077135,16.99767773802946,0.38486308130238966,17.39075468401382,0.2880513878634101,17.768774178222507,0.19345284710958688,18.132368716507827,0.10087786630162165,18.482174602374265,0.010129560867425225,18.81882950102039,-0.07899464398643352,19.14296999338076,-0.1667014116632819,19.4552291301678,-0.2531998925648984,19.756233985913838,-0.33870012248006964,20.04660321301285,-0.4234114209731372,20.326944595762555,-0.5075407897725583,20.59785260440617,-0.5912913111594571,20.859905949174447,-0.674860546356179,21.113665134327526,-0.7584389339148452,21.359670012196837,-0.8422081881059051,21.598437337227082,-0.926339697306694,21.83045832001811,-1.010992922389984,22.0561961813668,-1.0963137951125395,22.276083706309045,-1.1824331165036683,22.490520798161626,-1.26946495525378,22.699872032564123,-1.35750504610294,22.904464211520853,-1.44662918822942,23.10458391744279,-1.5368916436382525,23.30047506718943,-1.6283235355497883,23.492336466110785,-1.720931246788248" fill="none" stroke="black" stroke-width="2.2222222222222223" stroke-linejoin="round" filter="url(#fuzzy)"></polyline><!--[--><circle r="3.2651944932017387" cx="19.25626526995185" cy="0.7307906695915332" stroke="black" fill="none" stroke-width="1" filter="url(#fuzzy)" clip-path="url(#rightEyeClipPath)"></circle><circle r="3.3423936381535837" cx="19.309279786099005" cy="2.0204181831525423" stroke="black" fill="none" stroke-width="1" filter="url(#fuzzy)" clip-path="url(#rightEyeClipPath)"></circle><circle r="4.121504239014351" cx="15.19514938743881" cy="-0.6715341924510234" stroke="black" fill="none" stroke-width="1" filter="url(#fuzzy)" clip-path="url(#rightEyeClipPath)"></circle><circle r="4.786922480135599" cx="16.523911705374598" cy="1.7964541762869608" stroke="black" fill="none" stroke-width="1" filter="url(#fuzzy)" clip-path="url(#rightEyeClipPath)"></circle><circle r="3.988754994744523" cx="14.947234074057754" cy="-0.18693543803537693" stroke="black" fill="none" stroke-width="1" filter="url(#fuzzy)" clip-path="url(#rightEyeClipPath)"></circle><circle r="4.585775805711236" cx="16.32129670015934" cy="0.9082901493613114" stroke="black" fill="none" stroke-width="1" filter="url(#fuzzy)" clip-path="url(#rightEyeClipPath)"></circle><circle r="4.5005769224803664" cx="14.777484390183883" cy="0.8911838860152264" stroke="black" fill="none" stroke-width="1" filter="url(#fuzzy)" clip-path="url(#rightEyeClipPath)"></circle><circle r="4.239894352491838" cx="14.760113673567972" cy="2.4308472411728372" stroke="black" fill="none" stroke-width="1" filter="url(#fuzzy)" clip-path="url(#rightEyeClipPath)"></circle><circle r="3.845897503484011" cx="19.518809816901232" cy="1.9222665097694218" stroke="black" fill="none" stroke-width="1" filter="url(#fuzzy)" clip-path="url(#rightEyeClipPath)"></circle><circle r="3.460142190394015" cx="18.670039883019513" cy="-0.7011862493871148" stroke="black" fill="none" stroke-width="1" filter="url(#fuzzy)" clip-path="url(#rightEyeClipPath)"></circle><!--]--></g><g transform="translate(-42.98950184376854 -26.426537280147556)"><polyline id="leftUpper" points="46.037392095515905,0.7332319074433797,45.75849487128443,0.6885805012315723,45.43664389040609,0.6394601342158952,45.07287005704899,0.5858976830122196,44.66823011398796,0.5279349895986523,44.223805326972325,0.46562836190060974,43.74070016909354,0.3990480743758945,43.220041005152865,0.32827786859976915,42.662974776029074,0.2534144538500307,42.07066768304611,0.17456700769208555,41.4443038723408,0.09185667656402452,40.785084119230476,0.005416076361696831,40.09422451258071,-0.08461120697621438,39.37295513917301,-0.17807111688311705,38.62251876807244,-0.2747996255794365,37.84416953499535,-0.3746232334875401,37.03917162667703,-0.4773594686466618,36.20879796523941,-0.5828173861278305,35.35432889255874,-0.6907980674487906,34.47705085463325,-0.80109511998893,33.57825508595085,-0.9134951764042065,32.65923629385683,-1.0277783940420684,31.72129134292149,-1.143718954356387,30.765717939307883,-1.2610855623223762,29.793813315139438,-1.379641945851518,28.806872912867686,-1.4991473552064898,27.72436500297263,-1.6272164045307975,26.614046102260314,-1.7588424993198606,25.478187108148717,-1.893478471519824,24.319184650389328,-2.030542838787375,23.13953933545375,-2.169426819824204,21.941835060268378,-2.3095009630323093,20.728719374054602,-2.450121396806264,19.50288486703203,-2.5906357097785464,18.267051564742143,-2.7303884693340446,17.023950306749914,-2.8687263867098403,15.776307088480753,-3.0050031369963874,14.526828344950351,-3.1385838423561894,13.278187155144819,-3.2688492267760734,12.033010345808577,-3.3951994506691876,10.79386647339749,-3.5170576336428243,9.563254662954687,-3.6338730737481657,8.343594282666569,-3.7451241715280665,7.137215432856392,-3.8503210671789962,5.946350228172941,-3.949007999143227,4.773124851731762,-4.0407653924473905,3.6195523599664003,-4.125211685103492,2.4875262169470442,-4.202004900888539,1.3788145369241818,-4.270843976818805,0.2950550138546042,-4.331469853634939,-0.7622494833327771,-4.38366633761396,-1.7917346709737316,-4.427260742024254,-2.7921779876507493,-4.462124316539702,-3.7625011291629242,-4.48817247292904,-4.7017720027260275,-4.505364815336556,-5.609206121645496,-4.513704983470214,-6.484167461704775,-4.513240317013361,-7.326168800511546,-4.504061349576066,-8.134871561044516,-4.486301140502253,-8.91008518064302,-4.460134452848692,-9.65176602668237,-4.425776785851996,-10.360015880177077,-4.383483270199685,-11.035080008554786,-4.333547434421488,-11.67734484884338,-4.276299850716919,-12.28733532251367,-4.212106668535297,-12.865711803220371,-4.141368044224285,-13.413266758683847,-4.064516475063055,-13.930921087955124,-3.982015045996213,-14.419720175306733,-3.8943555973845627,-14.880829681991937,-3.8020568220888307,-15.315531097114924,-3.7056623002024645,-15.725217068854345,-3.6057384797495993,-16.111386537282925,-3.5028726116643125,-16.47563969002558,-3.3976706473672746,-16.819672761998532,-3.2907551072558854,-17.145272700472226,-3.1827629284240424,-17.45249065952339,-3.0731688538941335,-17.740616869997858,-2.9612180589787935,-18.010369086076693,-2.847211053630501,-18.262472674872164,-2.731445336910347,-18.497657771444928,-2.614214283223559,-18.716656433821264,-2.4958060285549974,-18.92019979801028,-2.3765023567046866,-19.109015233021168,-2.256577585523316,-19.283823495880327,-2.1362974531477623,-19.445335886648678,-2.0159180042366023,-19.594251403438804,-1.895684476205619,-19.731253897432218,-1.7758301854633292,-19.85700922789652,-1.6565754136464843,-19.97216241720269,-1.538126293855592,-20.077334805842206,-1.4206736968904266,-20.173121207444353,-1.3043921174855462,-20.26008706379335,-1.1894385605458022,-20.33876559984565,-1.0759514273818596,-20.409654978747092,-0.9640494019457049,-20.473215456850113,-0.8538303370661589,-20.529866538731035,-0.7453701406844004,-20.57998413220718,-0.6387216620894693,-20.623897703354153,-0.5339135781537871,-20.66188743152305,-0.4309492795686678" fill="none" stroke="black" stroke-width="2.2222222222222223" stroke-linejoin="round" filter="url(#fuzzy)"></polyline><polyline id="leftLower" points="46.02332281852621,2.6713106784113725,45.746585457908964,2.736481073012577,45.42660398776307,2.81363688528577,45.06467320487952,2.901190794061251,44.66209447657015,2.9976344642178026,44.2201748923127,3.101536924575833,43.740226415395874,3.211542945790522,43.22356503456436,3.3263714182449617,42.67150991566396,3.444813729943301,42.08538255328656,3.56573214440389,41.46650592241525,3.688058178552424,40.81620363006933,3.8107909806150855,40.13579906694943,3.9329957080116915,39.42661455908251,4.0538019052488306,38.68997051946691,4.172401881813014,37.92718459971749,4.288049090063813,37.13957084171057,4.400056503127006,36.328438829229086,4.507794992787724,35.495092839607565,4.610691707383589,34.64083099537724,4.7082284496978595,33.76694441591111,4.799940054852579,32.87471636906892,4.885412768201711,31.965421422842308,4.9642826232242925,31.04032459699981,5.036233819417566,30.100680514731923,5.100997100190137,29.147732554296176,5.158348130755105,28.087258164517095,5.301757919383316,27.003230516740796,5.428890581642959,25.897781644377847,5.5393652955427815,24.773126200105686,5.632961754122938,23.631544524146733,5.709606494436736,22.475366567117163,5.7693597920172,21.306956650349445,5.812403109970619,20.12869904659125,5.839027091839373,18.942984363983797,5.849620087376282,17.752196716222343,5.844657200372726,16.558701661801802,5.824689847682803,15.364834895250272,5.790335818585758,14.172891673253371,5.742269823628954,12.985116958572219,5.681214522093642,11.803696264657926,5.607932017225762,10.630747183865502,5.523215808374044,9.468311582169957,5.427883189177663,8.318348443287553,5.322768080945703,7.182727345104961,5.208714290370674,6.063222551319297,5.0865691807183335,4.961507701191806,4.957177745636088,3.879151080318101,4.821377074722208,2.817611455317813,4.679991199998113,1.7782344553465261,4.533826312425983,0.7622494833327771,4.38366633761396,-0.22923286015685918,4.230268859851165,-1.1952228575219301,4.074361383614821,-2.134853276298461,3.916637921691706,-3.047380509992834,3.757755899056203,-3.932185274676158,3.5983333616472013,-4.788772878436369,3.438946479186092,-5.616773080785173,3.280127331178131,-6.415939559117003,3.1223619652393984,-7.186148999317016,2.9660887168916314,-7.927399827615467,2.811696779967166,-8.63981060078537,2.659525016766251,-9.32361807178074,2.509860997108989,-9.979174947912576,2.3629402554241494,-10.606947358659554,2.218945755017117,-11.207512050210749,2.07800754865922,-11.781553323837407,1.940202624640705,-12.329859735191011,1.805554927429587,-12.853320571624604,1.674035542078669,-13.352922124634798,1.5455630315229387,-13.829743774521244,1.4200039159096283,-14.284953904361043,1.2971732831031815,-14.719805660394993,1.176835519507375,-15.135632575922948,1.0587051503468574,-15.533844075805327,0.9424477785503558,-15.915920878668103,0.8276811113777987,-16.282209188745192,0.7144681523228469,-16.632434280214326,0.6030530975880759,-16.967201256238887,0.4932837273092042,-17.287120203873677,0.3850003854440499,-17.592803904269466,0.27803743393499114,-17.884865542877584,0.17222470687142866,-18.163916419654576,0.0673889646522432,-18.430563659266788,-0.03664465185174337,-18.685407921294924,-0.14005116713530508,-18.929041110438753,-0.24300431689635338,-19.162044086721572,-0.34567509387347695,-19.384984375694984,-0.44823029368348033,-19.598413878643335,-0.5508310606589237,-19.80286658278846,-0.6536314336856615,-19.998856271494162,-0.7567768920403841,-20.18687423447095,-0.8604029012281558,-20.367386977980495,-0.9646334588199528,-20.540833935040375,-1.0695796402902067,-20.707625175628593,-1.175338144854341,-20.868139116888223,-1.2819898413063102,-21.02272023333198,-1.3895983138561432,-21.17167676704686,-1.4982084079674758,-21.315278437898733,-1.607844776195098,-21.453754153736938,-1.7185104240224893" fill="none" stroke="black" stroke-width="2.2222222222222223" stroke-linejoin="round" filter="url(#fuzzy)"></polyline><!--[--><circle r="4.022125725422921" cx="25.572112933705572" cy="2.7775201437221835" stroke="black" fill="none" stroke-width="1" filter="url(#fuzzy)" clip-path="url(#leftEyeClipPath)"></circle><circle r="3.433582465873177" cx="26.522934815687904" cy="1.583735117562835" stroke="black" fill="none" stroke-width="1" filter="url(#fuzzy)" clip-path="url(#leftEyeClipPath)"></circle><circle r="4.066337832815071" cx="25.97587987325241" cy="4.384635670654344" stroke="black" fill="none" stroke-width="1" filter="url(#fuzzy)" clip-path="url(#leftEyeClipPath)"></circle><circle r="3.991334180861266" cx="26.103557273404753" cy="4.421141716862769" stroke="black" fill="none" stroke-width="1" filter="url(#fuzzy)" clip-path="url(#leftEyeClipPath)"></circle><circle r="3.250633182136913" cx="24.192208455665806" cy="1.8702902498386003" stroke="black" fill="none" stroke-width="1" filter="url(#fuzzy)" clip-path="url(#leftEyeClipPath)"></circle><circle r="3.7363513477088204" cx="25.304043890247613" cy="0.4062088867941571" stroke="black" fill="none" stroke-width="1" filter="url(#fuzzy)" clip-path="url(#leftEyeClipPath)"></circle><circle r="4.446228487976808" cx="23.66939923915584" cy="1.4878524133300952" stroke="black" fill="none" stroke-width="1" filter="url(#fuzzy)" clip-path="url(#leftEyeClipPath)"></circle><circle r="3.91242310329735" cx="23.152104965769265" cy="2.503734920087844" stroke="black" fill="none" stroke-width="1" filter="url(#fuzzy)" clip-path="url(#leftEyeClipPath)"></circle><circle r="4.173184645603138" cx="25.342118937361153" cy="2.9336473444687368" stroke="black" fill="none" stroke-width="1" filter="url(#fuzzy)" clip-path="url(#leftEyeClipPath)"></circle><circle r="3.8525763699884514" cx="26.495787743472345" cy="2.5308223172727615" stroke="black" fill="none" stroke-width="1" filter="url(#fuzzy)" clip-path="url(#leftEyeClipPath)"></circle><!--]--></g><g id="hairs"><!--[--><!--]--></g><g id="pointNose"><g id="rightNose"><!--[--><circle r="1.7958474071360848" cx="8.810110738518047" cy="12.145468082456837" stroke="black" fill="none" stroke-width="1" filter="url(#fuzzy)"></circle><circle r="2.5496524001284078" cx="8.845434575065322" cy="11.284229592157255" stroke="black" fill="none" stroke-width="1" filter="url(#fuzzy)"></circle><circle r="1.154715358793314" cx="6.359516095235687" cy="9.426994380117419" stroke="black" fill="none" stroke-width="1" filter="url(#fuzzy)"></circle><circle r="1.0242762717833214" cx="7.458217726476434" cy="12.62542389674391" stroke="black" fill="none" stroke-width="1" filter="url(#fuzzy)"></circle><circle r="1.3971532160537647" cx="6.792246575144192" cy="9.734469032936708" stroke="black" fill="none" stroke-width="1" filter="url(#fuzzy)"></circle><circle r="1.0466334771975152" cx="6.455753158674138" cy="12.076170585360325" stroke="black" fill="none" stroke-width="1" filter="url(#fuzzy)"></circle><circle r="2.2990784226083085" cx="8.465715344619188" cy="9.406189521982077" stroke="black" fill="none" stroke-width="1" filter="url(#fuzzy)"></circle><circle r="2.4120017589775267" cx="6.458689862112449" cy="9.070957444071224" stroke="black" fill="none" stroke-width="1" filter="url(#fuzzy)"></circle><circle r="2.2313905190792234" cx="8.23575038334466" cy="10.634589334743914" stroke="black" fill="none" stroke-width="1" filter="url(#fuzzy)"></circle><circle r="1.972370584944989" cx="9.658938459132388" cy="12.063913342754436" stroke="black" fill="none" stroke-width="1" filter="url(#fuzzy)"></circle><!--]--></g><g id="leftNose"><!--[--><circle r="2.2203337088601307" cx="-9.365251765401675" cy="6.466731115892307" stroke="black" fill="none" stroke-width="1" filter="url(#fuzzy)"></circle><circle r="1.473913107426582" cx="-7.923743326538679" cy="6.08838193690463" stroke="black" fill="none" stroke-width="1" filter="url(#fuzzy)"></circle><circle r="1.2827466219008508" cx="-8.994122143186342" cy="5.475608948709872" stroke="black" fill="none" stroke-width="1" filter="url(#fuzzy)"></circle><circle r="1.899718228589913" cx="-8.735001167983386" cy="7.522621253055924" stroke="black" fill="none" stroke-width="1" filter="url(#fuzzy)"></circle><circle r="1.7119515959906626" cx="-9.526222066209247" cy="5.755362062205732" stroke="black" fill="none" stroke-width="1" filter="url(#fuzzy)"></circle><circle r="1.9398725875569345" cx="-8.322212114994764" cy="4.817175855825856" stroke="black" fill="none" stroke-width="1" filter="url(#fuzzy)"></circle><circle r="1.7440654102290154" cx="-8.000585602269933" cy="5.44020462521897" stroke="black" fill="none" stroke-width="1" filter="url(#fuzzy)"></circle><circle r="1.0217453412896345" cx="-8.787333261870346" cy="8.585653101345747" stroke="black" fill="none" stroke-width="1" filter="url(#fuzzy)"></circle><circle r="2.622188338909214" cx="-9.540781404024152" cy="5.154324139608447" stroke="black" fill="none" stroke-width="1" filter="url(#fuzzy)"></circle><circle r="1.1375701711989046" cx="-10.138821056808105" cy="8.126334054132037" stroke="black" fill="none" stroke-width="1" filter="url(#fuzzy)"></circle><!--]--></g></g><g id="mouth"><polyline points="-23.90792367017425,32.96443771882592,-23.675130202871994,34.39075957340926,-23.43669674364794,35.78071113219023,-23.192634675847714,37.134480269049035,-22.942955382816923,38.4522548578659,-22.687670247901202,39.73422277252104,-22.42679065444615,40.9805718868947,-22.1603279857974,42.19149007486709,-21.888293625300573,43.36716521031843,-21.610698956301267,44.50778516712895,-21.327555362145112,45.613537819178866,-21.038874226177725,46.684611040348386,-20.74466693174473,47.721192704517755,-20.444944862191733,48.72347068556719,-20.13971940086437,49.691632857376916,-19.829001931108234,50.625867093827154,-19.51280383626897,51.52636126879811,-19.19113649969218,52.393303256170036,-18.864011304723487,53.22688092982313,-18.531439634708505,54.027282163637636,-18.193432872992854,54.79469483149375,-17.850002402922154,55.529306807271716,-17.501159607842027,56.23130596485175,-17.146915871098088,56.900880178114065,-16.78728257603595,57.538217320938905,-16.422271106001244,58.14350526720647,-16.051892844339566,58.71693189079699,-15.676159174396552,59.2586850655907,-15.295081479517815,59.76895266546781,-14.908671143048979,60.24792256430854,-14.51693954833565,60.695782635993105,-14.119898078723455,61.112720754401764,-13.717558117558013,61.498924793414695,-13.30993104818494,61.85458262691214,-12.897028253949848,62.179882128774324,-12.478861118198363,62.475011172881466,-12.055441024276101,62.74015763311381,-11.626779355528681,62.97550938335155,-11.192887495301719,63.1812542974749,-10.753776826940836,63.35758024936411,-10.309458733791645,63.504675112899385,-9.859944599199771,63.62272676196097,-9.405245806510829,63.71192307042905,-8.945373739070435,63.77245191218389,-8.480339780224213,63.804501161105684,-8.010155313317771,63.80825869107466,-7.534831721696737,63.78391237597104,-7.0543803887067265,63.731650089675064,-6.568812697693358,63.65165970606694,-6.078140032002243,63.54412909902687,-5.582373774979011,63.409246142435094,-5.0815253099692725,63.24719871017185,-4.575606020318646,63.058174676117346,-4.064627289372751,62.84236191415181,-3.5486005004772077,62.59994829815546,-3.0275370369776313,62.33112170200851,-2.5014482822196396,62.03606999959119,-1.9703456195488558,61.71498106478375,-1.434240432310892,61.36804277146637,-0.8931441038513688,60.99544299351928,-0.3470680175159062,60.597369604822724,0.20397644334988208,60.174010479256914,0.7599778954003744,59.725553490702076,1.3209249552899518,59.2521865130384,1.8868062396729997,58.75409742014616,2.457610365203897,58.23147408590555,3.033325948537028,57.68450438419679,3.6139416063267724,57.11337618890011,4.199445955227514,56.51827737389574,4.78982761189363,55.89939581306388,5.385075192979507,55.25691938028478,5.985177315139527,54.59103594943865,6.590122595028069,53.90193339440571,7.199899649299516,53.18979958906617,7.8144970946082495,52.45482240730028,8.433903547608654,51.69718972298825,9.058107624955108,50.91708941001029,9.687097943301993,50.11470934224665,10.320863119303693,49.29023739357752,10.95939176961459,48.44386143788314,11.602672510889064,47.575769349043746,12.250693959781499,46.68614900093954,12.903444732946275,45.775188267450744,13.560913447037775,44.8430750224576,14.22308871871038,43.88999713984031,14.889959164618473,42.91614249347911,15.561513401416436,41.92169895725421,16.237740045758645,40.906854405045834,16.918627714299493,39.871796710734216,17.604165023693348,38.81671374819956,18.294340590594608,37.74179339132212,18.98914303165764,36.647223513982084,19.688560963536837,35.5331919900597,20.39258300288657,34.39988669343517,21.10119776636123,33.24749549798874,21.814393870615195,32.07620627760061,22.532159932302847,30.88620690615101,23.254484568078574,29.67768525752017,23.981356394596745,28.450829205588303,24.71276402851175,27.205826624235634,25.44869608647792,25.942865387342472,24.7127640285117,27.205826624235716,23.981356394596695,28.450829205588377,23.254484568078524,29.677685257520245,22.532159932302797,30.88620690615108,21.814393870615145,32.07620627760068,21.10119776636118,33.2474954979888,20.39258300288652,34.399886693435235,19.688560963536794,35.53319199005978,18.989143031657605,36.647223513982155,18.29434059059457,37.741793391322176,17.604165023693312,38.81671374819963,16.918627714299454,39.87179671073427,16.23774004575861,40.906854405045884,15.561513401416398,41.92169895725426,14.889959164618437,42.91614249347915,14.223088718710343,43.88999713984035,13.56091344703774,44.84307502245764,12.90344473294624,45.775188267450794,12.250693959781463,46.68614900093959,11.60267251088903,47.575769349043796,10.959391769614555,48.44386143788319,10.320863119303658,49.29023739357756,9.68709794330196,50.114709342246684,9.058107624955072,50.91708941001033,8.433903547608626,51.69718972298829,7.814497094608222,52.45482240730033,7.1998996492994864,53.18979958906621,6.59012259502804,53.90193339440575,5.985177315139497,54.59103594943869,5.385075192979479,55.25691938028482,4.789827611893601,55.89939581306393,4.1994459552274845,56.518277373895785,3.613941606326744,57.113376188900155,3.0333259485370014,57.68450438419683,2.4576103652038714,58.23147408590558,1.8868062396729732,58.7540974201462,1.3209249552899245,59.25218651303845,0.7599778954003469,59.7255534907021,0.2039764433498541,60.17401047925694,-0.3470680175159315,60.59736960482275,-0.893144103851395,60.99544299351931,-1.4342404323109177,61.368042771466385,-1.9703456195488813,61.714981064783764,-2.5014482822196666,62.03606999959123,-3.0275370369776566,62.33112170200854,-3.548600500477233,62.599948298155475,-4.064627289372777,62.84236191415182,-4.57560602031867,63.05817467611737,-5.081525309969296,63.247198710171865,-5.5823737749790325,63.409246142435094,-6.078140032002266,63.54412909902686,-6.568812697693378,63.65165970606692,-7.054380388706748,63.73165008967506,-7.53483172169676,63.78391237597104,-8.010155313317792,63.808258691074656,-8.48033978022423,63.80450116110566,-8.945373739070455,63.77245191218388,-9.405245806510848,63.711923070429044,-9.85994459919979,63.622726761960955,-10.309458733791665,63.50467511289937,-10.753776826940854,63.35758024936409,-11.192887495301736,63.18125429747487,-11.6267793555287,62.97550938335152,-12.05544102427612,62.74015763311378,-12.478861118198381,62.47501117288145,-12.897028253949866,62.1798821287743,-13.309931048184954,61.85458262691211,-13.717558117558031,61.498924793414666,-14.119898078723473,61.11272075440172,-14.516939548335667,60.69578263599308,-14.908671143048995,60.247922564308496,-15.295081479517833,59.76895266546777,-15.67615917439657,59.25868506559066,-16.051892844339584,58.71693189079696,-16.422271106001258,58.143505267206436,-16.78728257603597,57.53821732093887,-17.14691587109811,56.90088017811404,-17.50115960784205,56.23130596485171,-17.85000240292218,55.52930680727168,-18.193432872992876,54.794694831493715,-18.531439634708523,54.027282163637594,-18.864011304723505,53.22688092982309,-19.1911364996922,52.39330325616999,-19.51280383626899,51.52636126879808,-19.82900193110826,50.62586709382711,-20.139719400864383,49.691632857376874,-20.444944862191754,48.72347068556714,-20.744666931744746,47.721192704517705,-21.038874226177743,46.68461104034833,-21.32755536214513,45.6135378191788,-21.61069895630128,44.50778516712889,-21.888293625300584,43.36716521031836,-22.160327985797423,42.19149007486702,-22.426790654446176,40.98057188689464,-22.68767024790122,39.73422277252097,-22.942955382816947,38.45225485786582,-23.19263467584773,37.13448026904895,-23.436696743647957,35.78071113219014,-23.67513020287201,34.39075957340918" fill="rgb(215,127,140)" stroke="black" stroke-width="3" stroke-linejoin="round" filter="url(#fuzzy)"></polyline></g></svg>