<svg viewBox="-100 -100 200 200" xmlns="http://www.w3.org/2000/svg" width="400" height="400" id="face-svg"><defs><clipPath id="leftEyeClipPath"><polyline points="26.2060726094101,-2.6005456603474837,25.975090577400163,-2.9405204359130592,25.718535746908138,-3.2781232194740104,25.437074861920156,-3.612803857602567,25.13138052364851,-3.9440343738251706,24.802130611148804,-4.271308648872756,24.450007701937196,-4.594142100931055,24.075698492607557,-4.91207136589089,23.679893219448708,-5.224653977598467,23.26328507906159,-5.531468048105676,22.826569648976488,-5.83211194792038,22.370444308270187,-6.126203986256713,21.895607658183216,-6.413382091285383,21.402758942737037,-6.693303490383954,20.892597469351212,-6.9656443903871565,20.365822029460652,-7.230099657837168,19.806334242185653,-7.5687170720774155,19.221728913899007,-7.897020849296206,18.612832253772275,-8.214109368417752,17.9805680315578,-8.519143947146489,17.325948841668044,-8.811349096682157,16.650067623944878,-9.090012626025242,15.954089438268209,-9.354485600139071,15.239243490153285,-9.604182156234861,14.506815404486087,-9.838579182445965,13.758139744546234,-10.057215863157655,12.994592773466675,-10.259693095258664,12.217585455279696,-10.445672779580825,11.428556692698507,-10.614876991793055,10.62896679878386,-10.767087037016006,9.820291199645052,-10.902142392423606,9.004014365324696,-11.019939542097848,8.181623966016687,-11.120430708403049,7.3546052507667055,-11.20362248414591,6.524435645804619,-11.269574369787625,5.692579569658252,-11.318397219974349,4.860483462197827,-11.350251603652286,4.029571024760488,-11.365346082033726,3.2012386685043177,-11.36393540868024,2.376851168141186,-11.346318655969384,1.5577375181978443,-11.312837272211194,0.7451869889546514,-11.26387307368068,-0.05955462078870166,-11.199846175832727,-0.8552885369710772,-11.121212867965554,-1.640866372401994,-11.028463435599136,-2.415193300618566,-10.922119934834774,-3.1772310443179146,-10.802733922962178,-3.9260006812156147,-10.67088414958026,-4.660585270180887,-10.527174212498046,-5.380132300499009,-10.37223018268184,-6.083855967111732,-10.206698202515053,-6.771039274686168,-10.031242061636894,-7.441035973362843,-9.846540754626266,-8.093272329033521,-9.653286024797142,-8.727248730999413,-9.45217989837163,-9.342541139860362,-9.243932213297155,-9.938802378485647,-9.029258146973886,-10.515763268917027,-8.808875747158796,-11.073233618054608,-8.58350347031263,-11.61110305497617,-8.353857731656017,-12.129341722740588,-8.120650471201031,-12.628000827525913,-7.884586740024521,-13.10721304795278,-7.646362311049441,-13.567192807443725,-7.406661318600503,-14.008236412469035,-7.1661539310004,-14.43072205952976,-6.925494060472946,-14.835450809038864,-6.683966130202725,-15.222909461577135,-6.440655838122108,-15.593083093834142,-6.19589790256828,-15.945979027254566,-5.950016504299405,-16.28162644625927,-5.703324715117263,-16.60007601646646,-5.456123926489891,-16.90139950291279,-5.208703278174241,-17.185689388274493,-4.961339086838802,-17.453058491088502,-4.714294274686258,-17.703639583973587,-4.4678177980761316,-17.937585011851457,-4.222144076147421,-18.1550663101679,-3.9774924194412447,-18.356273823113895,-3.7340664585234866,-18.541416321846757,-3.4920535726074404,-19.89792175691126,0.25863844692762283,-19.66962047565111,0.4935520842726895,-19.429354671946296,0.7314691295712716,-19.177039937919158,0.9724912400622285,-18.91260723680485,1.216714887163817,-18.63600243542112,1.4642297956221397,-18.34718583663813,1.7151173826596047,-18.04613171184824,1.969449197123375,-17.732827833435874,2.2272853586338215,-17.407275007247215,2.4886729967329875,-17.06948660506012,2.7536446900330254,-16.719488097053873,3.0222169053646635,-16.357316584278987,3.294388436925654,-15.983020331127019,3.5701388454292315,-15.596658297800378,3.8494268972525614,-15.197364837360471,4.132386989880286,-14.784137832847396,4.4193049801474285,-14.356863230473508,4.71028522404866,-13.915458776722812,5.0053455534679125,-13.459873815373363,5.304417693386616,-12.990089042934986,5.607347841607228,-12.506116225993257,5.913897422646398,-12.007997883950598,6.223744027452136,-11.495806940655399,6.536482550599329,-10.969646348410006,6.851626536617993,-10.429648687848577,7.168609747108592,-9.875975747175591,7.486787960298763,-9.308818084255932,7.805441014695884,-8.728394575047474,8.123775108489738,-8.134951951867048,8.440925366359727,-7.528764334980623,8.755958685340921,-6.9101327610086924,9.067876871403366,-6.2793847116376655,9.375620078398905,-5.636873646128237,9.67807056103004,-4.982978541111539,9.974056753494999,-4.318103441164071,10.26235768546351,-3.6426770236521895,10.541707747037588,-2.9571521813371486,10.810801814351683,-2.2620056262315043,11.068300747466536,-1.5577375181978441,11.312837272211194,-0.8448711217806699,11.543022257627394,-0.1239524947623738,11.757451400670798,0.6044497880658317,11.954712329823389,1.3397448724271093,12.133392139271375,2.081319819885451,12.292085365302992,2.828539757484489,12.429402416580507,3.5807479782077634,12.543978469940889,4.337265988769567,12.634482843379349,5.097393501245476,12.699628857870259,5.860408365051649,12.738184199679722,6.625566435782054,12.748981794824164,7.392101377412657,12.730931207329311,8.159224394381768,12.68303057294394,8.926123890055559,12.604379079962689,9.691965048087955,12.494190008812389,10.455889333183922,12.351804342056159,11.217013907775339,12.17670495646972,11.974430961118458,11.968531408844218,12.727206947322191,11.727095327169963,13.474381728816226,11.452396418855416,14.214967621768125,11.14463910763579,14.947948339958504,10.804249810825599,15.67227783362339,10.431894868569582,16.386879019772927,10.028499136746266,17.090642400495398,9.595265255178601,17.69179205295768,9.337459973811146,18.283743901824394,9.064274393980543,18.86567716736553,8.776282688739991,19.43673749843203,8.474137969007664,19.99603633473898,8.158574861853904,20.54265026914884,7.830412088788446,21.075620409954663,7.4905550440476185,21.59395174316333,7.1399983728815695,22.09661249477874,6.779828549841465,22.58253349308506,6.411226457066713,23.050607530929945,6.035469962572163,23.499688728007737,5.653936498535334,23.928591893142695,5.268105639583613,24.33609188657223,4.879561681081478,24.72092298223011,4.4899962174177075"></polyline></clipPath><clipPath id="rightEyeClipPath"><polyline points="-26.182741177625612,-2.170506501723243,-25.794113524935664,-2.509543396540036,-25.380546011208168,-2.849011473020851,-24.942956157727668,-3.1881292325979107,-24.48225911084861,-3.5261455389867296,-23.999367139643702,-3.862339169165881,-23.495189133552213,-4.196018364356779,-22.970630100028323,-4.5265203810034516,-22.426590662189486,-4.8532110417523215,-21.863966556464735,-5.175484286431976,-21.283648130243034,-5.492761723032947,-20.68651983952161,-5.804492178687487,-20.073459746554292,-6.110151250649353,-19.445339017499858,-6.4092408572735655,-18.803021420070337,-6.7012887889962025,-18.1473628211794,-6.985848259314167,-17.426190536214403,-7.357519763127319,-16.68388997893685,-7.718687677006444,-15.921732031962069,-8.068233100248634,-15.141059981454838,-8.405115036718819,-14.343279679669145,-8.728370619138047,-13.529850102061456,-9.037115149233102,-12.702274292462956,-9.330541959037848,-11.862090689796382,-9.607922098637001,-11.010864829822786,-9.868603855642874,-10.15018141540391,-10.112012111695623,-9.281636748765514,-10.337647541277654,-8.40683151924732,-10.545085658132674,-7.52736394002492,-10.73397571458003,-6.6448232272893,-10.9040394590149,-5.760783415369349,-11.055069756884837,-4.876797501282969,-11.186929080433384,-3.994391912202227,-11.299547872501183,-3.1150612893180893,-11.39292278967525,-2.240263581590198,-11.467114830076973,-1.3714154428672432,-11.522247351079379,-0.5098879258634201,-11.55850398224425,0.34299753352355555,-11.576126438769737,1.185972848067311,-11.575412240738899,2.0178267337551024,-11.5567123434599,2.837407893532008,-11.520428684188342,3.643627936761491,-11.467011650522323,4.435464040916876,-11.396957475760829,5.2119613620182035,-11.310805566515981,5.972235200328973,-11.209135767869817,6.715472927827233,-11.092565571365988,7.440935683965585,-10.961747271127187,8.147959846234517,-10.817365073388682,8.83595828204363,-10.66013216473867,9.50442138843517,-10.490787744355906,10.15291792614449,-10.310094025535296,10.78109565452177,-10.11883321179194,11.388681773829646,-9.917804452834265,11.975483181431144,-9.707820785696757,12.541386548382466,-9.489706066322945,13.086358222945059,-9.26429189688914,13.610443967531566,-9.032414554159544,14.113768535600059,-8.794911924163294,14.59653509501107,-8.552620448484017,15.059024504361975,-8.306372087452473,15.501594448813133,-8.056991305532843,15.92467844192037,-7.805292084193286,16.328784699988194,-7.552074967551241,16.714494895458362,-7.298124146084203,17.08246279584818,-7.044204583696367,17.43341279475312,-6.791059193431889,17.76788734057047,-6.537926073702535,18.08602912558005,-6.28383090066886,18.38802659111437,-6.029170037288316,18.674083007096314,-5.774326332226532,18.9444155995621,-5.519668411298161,19.199254678184285,-5.265549968907744,19.438842763794703,-5.012309059490584,19.663433715907498,-4.760267388953587,19.87329186024204,-4.509729606116147,20.06869111624596,-4.260982594150991,20.249914124618055,-4.01429476202505,20.417251374831363,-3.7699153359403184,20.571000332656055,-3.5280736507747132,20.711464567682444,-3.288978441522943,19.313597516726585,1.139088562617729,18.986784104698984,1.3457835194789396,18.64796152922527,1.5554298057953144,18.29702295372038,1.7681701219342034,17.93387712439348,1.9841446088671704,17.5584483811123,2.203489080730332,17.170676668267575,2.426333257384702,16.770517545637315,2.652798996976533,16.357942199251255,2.8829985284976507,15.932937452255153,3.117032684345813,15.495505775775186,3.3549891328850294,15.045665299782321,3.5969406110059188,14.583449823956649,3.8429431566860437,14.108908828551762,4.093034341550253,13.62210748525914,4.347231503431027,13.122075755284285,4.605512488168483,12.607677493306312,4.868052987480224,12.078781120292682,5.135083990538434,11.535309073324271,5.406747215383915,10.977237532475005,5.6830951186636645,10.404596063644586,5.9640910717253695,9.817467177263193,6.249609716265658,9.215985802786975,6.539437512729042,8.600338678903345,6.833273494654375,7.970763659364811,7.1307302421657575,7.327548934370287,7.4313350878047615,6.671032167412819,7.734531567900814,6.001599547512492,8.039681132676698,5.319684756753488,8.34606512828599,4.625767853044129,8.652887063979332,3.9203740680187984,8.959275177596474,3.2040725200006177,9.264285312580864,2.477474841943774,9.566904119713762,1.7412337242743439,9.866052596764732,0.9960413725485155,10.160589979255366,0.24262787984710021,10.449317995533182,-0.5182404861748195,10.73098549935251,-1.2857630816642056,11.004293493159295,-2.0591067704534534,11.267900555276693,-2.837407893532008,11.520428684188342,-3.619774324187298,11.760469573116158,-4.405287608896117,11.986591328089606,-5.193005194047589,12.197345642703254,-5.9819627385787975,12.391275442759557,-6.771176512604258,12.566923013993694,-7.559645882120297,12.722838626077412,-8.346355879865484,12.857589666098683,-9.130279862418266,12.96977029471411,-9.910382253612848,13.05801163817096,-10.685621374354525,13.120992529395654,-11.454952358915545,13.157450811345697,-12.217330157792592,13.166195215821809,-12.97171262720709,13.146117830937268,-13.717063705329384,13.096207170441208,-14.452356675307911,13.015561858092902,-15.176577515184576,12.9034049402838,-15.888728334777312,12.75909884010423,-16.58783089961106,12.582160966051699,-17.272930241978234,12.372279988577628,-17.94309835920982,12.129332797669367,-18.597437999238192,11.853402154664494,-19.235086533532822,11.544795051494138,-19.855219917489926,11.20406179055233,-20.45705673835725,10.832015798388156,-21.03986235077507,10.42975418641771,-21.570838987266324,10.200367122711782,-22.088589242009327,9.955690392878537,-22.592483526134206,9.696258832896365,-23.08188218272858,9.422687143141008,-23.55613559957623,9.135672561113662,-24.014584321895754,8.835997534169103,-24.456559165079273,8.52453239224382,-24.881381327431097,8.202238020584115,-25.28836250290641,7.87016853247423,-25.676804993849938,7.529473941964466,-26.046001823734663,7.181402836599303,-26.395236849900453,6.827305050145517,-26.723784876292772,6.468634335320303,-27.030911766201367,6.106951036519388,-27.315874554998917,5.743924762545159"></polyline></clipPath><filter id="fuzzy"><feTurbulence id="turbulence" baseFrequency="0.05" numOctaves="3" type="noise" result="noise"></feTurbulence><feDisplacementMap in="SourceGraphic" in2="noise" scale="2"></feDisplacementMap></filter><linearGradient id="rainbowGradient" x1="0%" y1="0%" x2="100%" y2="0%"><stop offset="0%" style="stop-color: rgb(80, 68, 68);  stop-opacity: 1"></stop><stop offset="50%" style="stop-color: rgb(148, 0, 211);  stop-opacity: 1"></stop><stop offset="100%" style="stop-color: rgb(0, 191, 255);  stop-opacity: 1"></stop></linearGradient></defs><title>That&#39;s an ugly face</title><desc>CREATED BY XUAN TANG, MORE INFO AT TXSTC55.GITHUB.IO</desc><rect x="-100" y="-100" width="100%" height="100%" opacity="1" fill="rgb(72, 61, 139)"></rect><polyline id="faceContour" points="61,1,60,2,60,2,61,4,60,5,60,7,60,10,60,9,60,11,60,10,59,15,60,14,59,15,59,17,59,18,59,19,58,20,58,22,58,22,57,24,57,27,57,25,56,28,57,27,56,30,55,32,54,34,54,35,55,34,54,36,53,38,53,38,53,39,51,42,51,43,51,42,51,42,50,45,49,47,48,48,48,48,47,51,47,51,46,52,45,53,45,54,45,54,45,54,43,56,43,58,43,58,41,59,40,61,40,62,38,63,39,63,38,64,37,65,37,65,36,66,34,68,34,69,33,69,33,69,32,70,31,71,31,72,29,73,28,74,28,74,27,75,26,76,25,77,26,76,23,78,24,77,22,78,21,79,19,80,18,81,20,80,18,81,16,82,15,82,14,83,14,83,13,83,13,83,11,84,11,84,9,85,8,85,7,86,7,85,6,85,5,86,4,86,4,86,1,87,1,87,1,87,-2,87,-1,87,-3,87,-3,87,-5,87,-6,87,-5,87,-8,87,-9,87,-9,87,-9,87,-12,86,-12,86,-13,86,-13,86,-15,86,-16,85,-17,85,-18,85,-17,85,-19,84,-19,84,-21,83,-22,83,-22,83,-23,82,-25,82,-25,82,-25,81,-28,80,-26,81,-29,78,-30,78,-31,78,-30,78,-31,77,-32,76,-32,76,-33,75,-36,73,-36,73,-37,71,-36,72,-37,72,-38,71,-40,68,-40,68,-41,66,-41,66,-42,65,-43,64,-43,64,-44,62,-45,61,-45,61,-46,59,-46,59,-47,56,-48,56,-48,56,-49,54,-49,53,-49,52,-51,49,-51,50,-51,49,-51,47,-52,47,-53,42,-54,42,-54,41,-54,41,-55,37,-55,39,-55,37,-55,36,-56,32,-56,33,-57,32,-57,31,-58,28,-58,25,-58,23,-58,25,-58,23,-59,20,-59,19,-59,19,-59,16,-60,16,-60,15,-60,12,-60,11,-60,7,-60,7,-60,6,-60,4,-61,1,-60,2,-61,-2,-61,-2,-61,-4,-61,-7,-61,-4,-61,-8,-60,-9,-60,-10,-60,-14,-60,-12,-60,-15,-60,-14,-60,-18,-60,-20,-60,-20,-59,-22,-59,-25,-59,-23,-59,-25,-59,-28,-58,-30,-58,-31,-58,-31,-58,-31,-57,-36,-57,-35,-56,-39,-56,-37,-56,-40,-55,-43,-55,-42,-54,-44,-54,-45,-53,-47,-53,-48,-52,-50,-52,-50,-52,-51,-51,-53,-50,-54,-51,-53,-50,-56,-48,-58,-49,-57,-48,-58,-47,-61,-46,-61,-46,-63,-46,-63,-45,-63,-44,-66,-43,-67,-43,-66,-41,-69,-41,-69,-40,-70,-40,-70,-39,-72,-38,-73,-37,-73,-36,-74,-36,-75,-36,-74,-35,-76,-33,-78,-31,-78,-31,-78,-32,-78,-30,-79,-29,-80,-29,-80,-27,-81,-26,-82,-27,-81,-24,-83,-22,-84,-23,-83,-22,-84,-22,-84,-20,-84,-20,-85,-18,-85,-18,-85,-17,-85,-16,-86,-15,-86,-13,-86,-12,-87,-12,-87,-11,-87,-10,-87,-8,-87,-8,-87,-7,-87,-6,-87,-5,-87,-5,-87,-4,-87,-3,-87,-1,-87,0,-87,1,-87,3,-87,4,-87,4,-86,4,-86,5,-86,7,-86,9,-85,10,-85,10,-85,12,-84,13,-84,13,-84,14,-83,16,-83,15,-83,17,-82,17,-82,18,-82,19,-81,19,-81,22,-80,21,-80,23,-79,24,-78,26,-77,25,-78,27,-76,27,-76,28,-75,29,-75,29,-74,30,-73,32,-72,32,-71,34,-70,34,-70,34,-70,35,-70,36,-68,37,-66,37,-67,38,-66,40,-64,39,-64,41,-62,41,-62,43,-60,43,-60,44,-58,46,-56,44,-58,46,-55,47,-54,47,-54,47,-53,49,-51,49,-50,50,-48,50,-48,51,-46,51,-46,51,-45,52,-45,52,-44,53,-42,53,-41,54,-40,54,-38,55,-37,55,-36,55,-35,56,-33,56,-32,57,-32,57,-31,57,-29,58,-28,58,-25,58,-26,59,-25,59,-22,59,-22,59,-19,60,-18,60,-17,60,-15,60,-16,60,-13,60,-15,60,-11,60,-9,61,-9,60,-6,61,-7,61,-4,61,-4,61,-2,61,-3,61,1,60,2" fill="#ffc9a9" stroke="black" stroke-width="1.6666666666666665" stroke-linejoin="round" filter="url(#fuzzy)"></polyline><g transform="translate(30.966113242444777 -21.40084206121979)"><polyline id="rightCountour" points="-26.182741177625612,-2.170506501723243,-25.794113524935664,-2.509543396540036,-25.380546011208168,-2.849011473020851,-24.942956157727668,-3.1881292325979107,-24.48225911084861,-3.5261455389867296,-23.999367139643702,-3.862339169165881,-23.495189133552213,-4.196018364356779,-22.970630100028323,-4.5265203810034516,-22.426590662189486,-4.8532110417523215,-21.863966556464735,-5.175484286431976,-21.283648130243034,-5.492761723032947,-20.68651983952161,-5.804492178687487,-20.073459746554292,-6.110151250649353,-19.445339017499858,-6.4092408572735655,-18.803021420070337,-6.7012887889962025,-18.1473628211794,-6.985848259314167,-17.426190536214403,-7.357519763127319,-16.68388997893685,-7.718687677006444,-15.921732031962069,-8.068233100248634,-15.141059981454838,-8.405115036718819,-14.343279679669145,-8.728370619138047,-13.529850102061456,-9.037115149233102,-12.702274292462956,-9.330541959037848,-11.862090689796382,-9.607922098637001,-11.010864829822786,-9.868603855642874,-10.15018141540391,-10.112012111695623,-9.281636748765514,-10.337647541277654,-8.40683151924732,-10.545085658132674,-7.52736394002492,-10.73397571458003,-6.6448232272893,-10.9040394590149,-5.760783415369349,-11.055069756884837,-4.876797501282969,-11.186929080433384,-3.994391912202227,-11.299547872501183,-3.1150612893180893,-11.39292278967525,-2.240263581590198,-11.467114830076973,-1.3714154428672432,-11.522247351079379,-0.5098879258634201,-11.55850398224425,0.34299753352355555,-11.576126438769737,1.185972848067311,-11.575412240738899,2.0178267337551024,-11.5567123434599,2.837407893532008,-11.520428684188342,3.643627936761491,-11.467011650522323,4.435464040916876,-11.396957475760829,5.2119613620182035,-11.310805566515981,5.972235200328973,-11.209135767869817,6.715472927827233,-11.092565571365988,7.440935683965585,-10.961747271127187,8.147959846234517,-10.817365073388682,8.83595828204363,-10.66013216473867,9.50442138843517,-10.490787744355906,10.15291792614449,-10.310094025535296,10.78109565452177,-10.11883321179194,11.388681773829646,-9.917804452834265,11.975483181431144,-9.707820785696757,12.541386548382466,-9.489706066322945,13.086358222945059,-9.26429189688914,13.610443967531566,-9.032414554159544,14.113768535600059,-8.794911924163294,14.59653509501107,-8.552620448484017,15.059024504361975,-8.306372087452473,15.501594448813133,-8.056991305532843,15.92467844192037,-7.805292084193286,16.328784699988194,-7.552074967551241,16.714494895458362,-7.298124146084203,17.08246279584818,-7.044204583696367,17.43341279475312,-6.791059193431889,17.76788734057047,-6.537926073702535,18.08602912558005,-6.28383090066886,18.38802659111437,-6.029170037288316,18.674083007096314,-5.774326332226532,18.9444155995621,-5.519668411298161,19.199254678184285,-5.265549968907744,19.438842763794703,-5.012309059490584,19.663433715907498,-4.760267388953587,19.87329186024204,-4.509729606116147,20.06869111624596,-4.260982594150991,20.249914124618055,-4.01429476202505,20.417251374831363,-3.7699153359403184,20.571000332656055,-3.5280736507747132,20.711464567682444,-3.288978441522943,19.313597516726585,1.139088562617729,18.986784104698984,1.3457835194789396,18.64796152922527,1.5554298057953144,18.29702295372038,1.7681701219342034,17.93387712439348,1.9841446088671704,17.5584483811123,2.203489080730332,17.170676668267575,2.426333257384702,16.770517545637315,2.652798996976533,16.357942199251255,2.8829985284976507,15.932937452255153,3.117032684345813,15.495505775775186,3.3549891328850294,15.045665299782321,3.5969406110059188,14.583449823956649,3.8429431566860437,14.108908828551762,4.093034341550253,13.62210748525914,4.347231503431027,13.122075755284285,4.605512488168483,12.607677493306312,4.868052987480224,12.078781120292682,5.135083990538434,11.535309073324271,5.406747215383915,10.977237532475005,5.6830951186636645,10.404596063644586,5.9640910717253695,9.817467177263193,6.249609716265658,9.215985802786975,6.539437512729042,8.600338678903345,6.833273494654375,7.970763659364811,7.1307302421657575,7.327548934370287,7.4313350878047615,6.671032167412819,7.734531567900814,6.001599547512492,8.039681132676698,5.319684756753488,8.34606512828599,4.625767853044129,8.652887063979332,3.9203740680187984,8.959275177596474,3.2040725200006177,9.264285312580864,2.477474841943774,9.566904119713762,1.7412337242743439,9.866052596764732,0.9960413725485155,10.160589979255366,0.24262787984710021,10.449317995533182,-0.5182404861748195,10.73098549935251,-1.2857630816642056,11.004293493159295,-2.0591067704534534,11.267900555276693,-2.837407893532008,11.520428684188342,-3.619774324187298,11.760469573116158,-4.405287608896117,11.986591328089606,-5.193005194047589,12.197345642703254,-5.9819627385787975,12.391275442759557,-6.771176512604258,12.566923013993694,-7.559645882120297,12.722838626077412,-8.346355879865484,12.857589666098683,-9.130279862418266,12.96977029471411,-9.910382253612848,13.05801163817096,-10.685621374354525,13.120992529395654,-11.454952358915545,13.157450811345697,-12.217330157792592,13.166195215821809,-12.97171262720709,13.146117830937268,-13.717063705329384,13.096207170441208,-14.452356675307911,13.015561858092902,-15.176577515184576,12.9034049402838,-15.888728334777312,12.75909884010423,-16.58783089961106,12.582160966051699,-17.272930241978234,12.372279988577628,-17.94309835920982,12.129332797669367,-18.597437999238192,11.853402154664494,-19.235086533532822,11.544795051494138,-19.855219917489926,11.20406179055233,-20.45705673835725,10.832015798388156,-21.03986235077507,10.42975418641771,-21.570838987266324,10.200367122711782,-22.088589242009327,9.955690392878537,-22.592483526134206,9.696258832896365,-23.08188218272858,9.422687143141008,-23.55613559957623,9.135672561113662,-24.014584321895754,8.835997534169103,-24.456559165079273,8.52453239224382,-24.881381327431097,8.202238020584115,-25.28836250290641,7.87016853247423,-25.676804993849938,7.529473941964466,-26.046001823734663,7.181402836599303,-26.395236849900453,6.827305050145517,-26.723784876292772,6.468634335320303,-27.030911766201367,6.106951036519388,-27.315874554998917,5.743924762545159" fill="white" stroke="white" stroke-width="0" stroke-linejoin="round" filter="url(#fuzzy)"></polyline></g><g transform="translate(-25.123351300343966 -28.036766552475214)"><polyline id="leftCountour" points="26.2060726094101,-2.6005456603474837,25.975090577400163,-2.9405204359130592,25.718535746908138,-3.2781232194740104,25.437074861920156,-3.612803857602567,25.13138052364851,-3.9440343738251706,24.802130611148804,-4.271308648872756,24.450007701937196,-4.594142100931055,24.075698492607557,-4.91207136589089,23.679893219448708,-5.224653977598467,23.26328507906159,-5.531468048105676,22.826569648976488,-5.83211194792038,22.370444308270187,-6.126203986256713,21.895607658183216,-6.413382091285383,21.402758942737037,-6.693303490383954,20.892597469351212,-6.9656443903871565,20.365822029460652,-7.230099657837168,19.806334242185653,-7.5687170720774155,19.221728913899007,-7.897020849296206,18.612832253772275,-8.214109368417752,17.9805680315578,-8.519143947146489,17.325948841668044,-8.811349096682157,16.650067623944878,-9.090012626025242,15.954089438268209,-9.354485600139071,15.239243490153285,-9.604182156234861,14.506815404486087,-9.838579182445965,13.758139744546234,-10.057215863157655,12.994592773466675,-10.259693095258664,12.217585455279696,-10.445672779580825,11.428556692698507,-10.614876991793055,10.62896679878386,-10.767087037016006,9.820291199645052,-10.902142392423606,9.004014365324696,-11.019939542097848,8.181623966016687,-11.120430708403049,7.3546052507667055,-11.20362248414591,6.524435645804619,-11.269574369787625,5.692579569658252,-11.318397219974349,4.860483462197827,-11.350251603652286,4.029571024760488,-11.365346082033726,3.2012386685043177,-11.36393540868024,2.376851168141186,-11.346318655969384,1.5577375181978443,-11.312837272211194,0.7451869889546514,-11.26387307368068,-0.05955462078870166,-11.199846175832727,-0.8552885369710772,-11.121212867965554,-1.640866372401994,-11.028463435599136,-2.415193300618566,-10.922119934834774,-3.1772310443179146,-10.802733922962178,-3.9260006812156147,-10.67088414958026,-4.660585270180887,-10.527174212498046,-5.380132300499009,-10.37223018268184,-6.083855967111732,-10.206698202515053,-6.771039274686168,-10.031242061636894,-7.441035973362843,-9.846540754626266,-8.093272329033521,-9.653286024797142,-8.727248730999413,-9.45217989837163,-9.342541139860362,-9.243932213297155,-9.938802378485647,-9.029258146973886,-10.515763268917027,-8.808875747158796,-11.073233618054608,-8.58350347031263,-11.61110305497617,-8.353857731656017,-12.129341722740588,-8.120650471201031,-12.628000827525913,-7.884586740024521,-13.10721304795278,-7.646362311049441,-13.567192807443725,-7.406661318600503,-14.008236412469035,-7.1661539310004,-14.43072205952976,-6.925494060472946,-14.835450809038864,-6.683966130202725,-15.222909461577135,-6.440655838122108,-15.593083093834142,-6.19589790256828,-15.945979027254566,-5.950016504299405,-16.28162644625927,-5.703324715117263,-16.60007601646646,-5.456123926489891,-16.90139950291279,-5.208703278174241,-17.185689388274493,-4.961339086838802,-17.453058491088502,-4.714294274686258,-17.703639583973587,-4.4678177980761316,-17.937585011851457,-4.222144076147421,-18.1550663101679,-3.9774924194412447,-18.356273823113895,-3.7340664585234866,-18.541416321846757,-3.4920535726074404,-19.89792175691126,0.25863844692762283,-19.66962047565111,0.4935520842726895,-19.429354671946296,0.7314691295712716,-19.177039937919158,0.9724912400622285,-18.91260723680485,1.216714887163817,-18.63600243542112,1.4642297956221397,-18.34718583663813,1.7151173826596047,-18.04613171184824,1.969449197123375,-17.732827833435874,2.2272853586338215,-17.407275007247215,2.4886729967329875,-17.06948660506012,2.7536446900330254,-16.719488097053873,3.0222169053646635,-16.357316584278987,3.294388436925654,-15.983020331127019,3.5701388454292315,-15.596658297800378,3.8494268972525614,-15.197364837360471,4.132386989880286,-14.784137832847396,4.4193049801474285,-14.356863230473508,4.71028522404866,-13.915458776722812,5.0053455534679125,-13.459873815373363,5.304417693386616,-12.990089042934986,5.607347841607228,-12.506116225993257,5.913897422646398,-12.007997883950598,6.223744027452136,-11.495806940655399,6.536482550599329,-10.969646348410006,6.851626536617993,-10.429648687848577,7.168609747108592,-9.875975747175591,7.486787960298763,-9.308818084255932,7.805441014695884,-8.728394575047474,8.123775108489738,-8.134951951867048,8.440925366359727,-7.528764334980623,8.755958685340921,-6.9101327610086924,9.067876871403366,-6.2793847116376655,9.375620078398905,-5.636873646128237,9.67807056103004,-4.982978541111539,9.974056753494999,-4.318103441164071,10.26235768546351,-3.6426770236521895,10.541707747037588,-2.9571521813371486,10.810801814351683,-2.2620056262315043,11.068300747466536,-1.5577375181978441,11.312837272211194,-0.8448711217806699,11.543022257627394,-0.1239524947623738,11.757451400670798,0.6044497880658317,11.954712329823389,1.3397448724271093,12.133392139271375,2.081319819885451,12.292085365302992,2.828539757484489,12.429402416580507,3.5807479782077634,12.543978469940889,4.337265988769567,12.634482843379349,5.097393501245476,12.699628857870259,5.860408365051649,12.738184199679722,6.625566435782054,12.748981794824164,7.392101377412657,12.730931207329311,8.159224394381768,12.68303057294394,8.926123890055559,12.604379079962689,9.691965048087955,12.494190008812389,10.455889333183922,12.351804342056159,11.217013907775339,12.17670495646972,11.974430961118458,11.968531408844218,12.727206947322191,11.727095327169963,13.474381728816226,11.452396418855416,14.214967621768125,11.14463910763579,14.947948339958504,10.804249810825599,15.67227783362339,10.431894868569582,16.386879019772927,10.028499136746266,17.090642400495398,9.595265255178601,17.69179205295768,9.337459973811146,18.283743901824394,9.064274393980543,18.86567716736553,8.776282688739991,19.43673749843203,8.474137969007664,19.99603633473898,8.158574861853904,20.54265026914884,7.830412088788446,21.075620409954663,7.4905550440476185,21.59395174316333,7.1399983728815695,22.09661249477874,6.779828549841465,22.58253349308506,6.411226457066713,23.050607530929945,6.035469962572163,23.499688728007737,5.653936498535334,23.928591893142695,5.268105639583613,24.33609188657223,4.879561681081478,24.72092298223011,4.4899962174177075" fill="white" stroke="white" stroke-width="0" stroke-linejoin="round" filter="url(#fuzzy)"></polyline></g><g transform="translate(30.966113242444777 -21.40084206121979)"><polyline id="rightUpper" points="-28.49477829787182,1.0016097989761352,-28.40617622938905,0.7168678938099118,-28.283438983233957,0.4221111112720062,-28.127480200650563,0.11844926887535023,-27.939216171469415,-0.19304266835264539,-27.719565331755952,-0.5113241388498704,-27.469447761458824,-0.8353885354992885,-27.189784682058207,-1.1642627566087134,-26.88149795421418,-1.4970067568905874,-26.545509575415032,-1.8327130984417552,-26.182741177625612,-2.170506501723243,-25.794113524935664,-2.509543396540036,-25.380546011208168,-2.849011473020851,-24.942956157727668,-3.1881292325979107,-24.48225911084861,-3.5261455389867296,-23.999367139643702,-3.862339169165881,-23.495189133552213,-4.196018364356779,-22.970630100028323,-4.5265203810034516,-22.426590662189486,-4.8532110417523215,-21.863966556464735,-5.175484286431976,-21.283648130243034,-5.492761723032947,-20.68651983952161,-5.804492178687487,-20.073459746554292,-6.110151250649353,-19.445339017499858,-6.4092408572735655,-18.803021420070337,-6.7012887889962025,-18.1473628211794,-6.985848259314167,-17.426190536214403,-7.357519763127319,-16.68388997893685,-7.718687677006444,-15.921732031962069,-8.068233100248634,-15.141059981454838,-8.405115036718819,-14.343279679669145,-8.728370619138047,-13.529850102061456,-9.037115149233102,-12.702274292462956,-9.330541959037848,-11.862090689796382,-9.607922098637001,-11.010864829822786,-9.868603855642874,-10.15018141540391,-10.112012111695623,-9.281636748765514,-10.337647541277654,-8.40683151924732,-10.545085658132674,-7.52736394002492,-10.73397571458003,-6.6448232272893,-10.9040394590149,-5.760783415369349,-11.055069756884837,-4.876797501282969,-11.186929080433384,-3.994391912202227,-11.299547872501183,-3.1150612893180893,-11.39292278967525,-2.240263581590198,-11.467114830076973,-1.3714154428672432,-11.522247351079379,-0.5098879258634201,-11.55850398224425,0.34299753352355555,-11.576126438769737,1.185972848067311,-11.575412240738899,2.0178267337551024,-11.5567123434599,2.837407893532008,-11.520428684188342,3.643627936761491,-11.467011650522323,4.435464040916876,-11.396957475760829,5.2119613620182035,-11.310805566515981,5.972235200328973,-11.209135767869817,6.715472927827233,-11.092565571365988,7.440935683965585,-10.961747271127187,8.147959846234517,-10.817365073388682,8.83595828204363,-10.66013216473867,9.50442138843517,-10.490787744355906,10.15291792614449,-10.310094025535296,10.78109565452177,-10.11883321179194,11.388681773829646,-9.917804452834265,11.975483181431144,-9.707820785696757,12.541386548382466,-9.489706066322945,13.086358222945059,-9.26429189688914,13.610443967531566,-9.032414554159544,14.113768535600059,-8.794911924163294,14.59653509501107,-8.552620448484017,15.059024504361975,-8.306372087452473,15.501594448813133,-8.056991305532843,15.92467844192037,-7.805292084193286,16.328784699988194,-7.552074967551241,16.714494895458362,-7.298124146084203,17.08246279584818,-7.044204583696367,17.43341279475312,-6.791059193431889,17.76788734057047,-6.537926073702535,18.08602912558005,-6.28383090066886,18.38802659111437,-6.029170037288316,18.674083007096314,-5.774326332226532,18.9444155995621,-5.519668411298161,19.199254678184285,-5.265549968907744,19.438842763794703,-5.012309059490584,19.663433715907498,-4.760267388953587,19.87329186024204,-4.509729606116147,20.06869111624596,-4.260982594150991,20.249914124618055,-4.01429476202505,20.417251374831363,-3.7699153359403184,20.571000332656055,-3.5280736507747132,20.711464567682444,-3.288978441522943,20.83895288084397,-3.0528171347373654,20.953778431940187,-2.8197551399688496,21.056257867159697,-2.589935141207637,21.146710446603173,-2.3634763883242083,21.22545717180631,-2.1404739885101405,21.292819913262814,-1.9209981977189696,21.349120537947382,-1.705093712107057,21.39468003683865,-1.4927789594744456,21.42981765244223,-1.284045390705729,21.45485000631363,-1.078856771210908" fill="none" stroke="black" stroke-width="1.6666666666666665" stroke-linejoin="round" filter="url(#fuzzy)"></polyline><polyline id="rightLower" points="-28.776938406004454,2.4905871772482433,-28.756341216414526,2.7492655487550985,-28.705689546512215,3.0298945756647457,-28.625808439467942,3.3295650050616925,-28.517515237921888,3.6455035757182914,-28.381619471245283,3.975070345366626,-28.218922742801794,4.315756017970388,-28.030218617208735,4.665179270996758,-27.81629250759848,5.021084082688285,-27.577921562879748,5.381337059334775,-27.315874554998917,5.743924762545159,-27.030911766201367,6.106951036519388,-26.723784876292772,6.468634335320303,-26.395236849900453,6.827305050145517,-26.046001823734663,7.181402836599303,-25.676804993849938,7.529473941964466,-25.28836250290641,7.87016853247423,-24.881381327431097,8.202238020584115,-24.456559165079273,8.52453239224382,-24.014584321895754,8.835997534169103,-23.55613559957623,9.135672561113662,-23.08188218272858,9.422687143141008,-22.592483526134206,9.696258832896365,-22.088589242009327,9.955690392878537,-21.570838987266324,10.200367122711782,-21.03986235077507,10.42975418641771,-20.45705673835725,10.832015798388156,-19.855219917489926,11.20406179055233,-19.235086533532822,11.544795051494138,-18.597437999238192,11.853402154664494,-17.94309835920982,12.129332797669367,-17.272930241978234,12.372279988577628,-16.58783089961106,12.582160966051699,-15.888728334777312,12.75909884010423,-15.176577515184576,12.9034049402838,-14.452356675307911,13.015561858092902,-13.717063705329384,13.096207170441208,-12.97171262720709,13.146117830937268,-12.217330157792592,13.166195215821809,-11.454952358915545,13.157450811345697,-10.685621374354525,13.120992529395654,-9.910382253612848,13.05801163817096,-9.130279862418266,12.96977029471411,-8.346355879865484,12.857589666098683,-7.559645882120297,12.722838626077412,-6.771176512604258,12.566923013993694,-5.9819627385787975,12.391275442759557,-5.193005194047589,12.197345642703254,-4.405287608896117,11.986591328089606,-3.619774324187298,11.760469573116158,-2.837407893532008,11.520428684188342,-2.0591067704534534,11.267900555276693,-1.2857630816642056,11.004293493159295,-0.5182404861748195,10.73098549935251,0.24262787984710021,10.449317995533182,0.9960413725485155,10.160589979255366,1.7412337242743439,9.866052596764732,2.477474841943774,9.566904119713762,3.2040725200006177,9.264285312580864,3.9203740680187984,8.959275177596474,4.625767853044129,8.652887063979332,5.319684756753488,8.34606512828599,6.001599547512492,8.039681132676698,6.671032167412819,7.734531567900814,7.327548934370287,7.4313350878047615,7.970763659364811,7.1307302421657575,8.600338678903345,6.833273494654375,9.215985802786975,6.539437512729042,9.817467177263193,6.249609716265658,10.404596063644586,5.9640910717253695,10.977237532475005,5.6830951186636645,11.535309073324271,5.406747215383915,12.078781120292682,5.135083990538434,12.607677493306312,4.868052987480224,13.122075755284285,4.605512488168483,13.62210748525914,4.347231503431027,14.108908828551762,4.093034341550253,14.583449823956649,3.8429431566860437,15.045665299782321,3.5969406110059188,15.495505775775186,3.3549891328850294,15.932937452255153,3.117032684345813,16.357942199251255,2.8829985284976507,16.770517545637315,2.652798996976533,17.170676668267575,2.426333257384702,17.5584483811123,2.203489080730332,17.93387712439348,1.9841446088671704,18.29702295372038,1.7681701219342034,18.64796152922527,1.5554298057953144,18.986784104698984,1.3457835194789396,19.313597516726585,1.139088562617729,19.628524173823028,0.9352014428882048,19.931702045568755,0.7339796434504174,20.223284651745345,0.5352833903876064,20.503441051471164,0.33897742014585797,20.772355832336984,0.14493274697376424,21.030229099541632,-0.04697156963792204,21.277276465027622,-0.23684665751662348,21.51372903661678,-0.4247920643682832,21.7398334071459,-0.6108939903377042,21.955851643602365,-0.7952235205688938" fill="none" stroke="black" stroke-width="2.2222222222222223" stroke-linejoin="round" filter="url(#fuzzy)"></polyline><!--[--><circle r="4.3573294973553764" cx="-12.497223702697278" cy="1.8833958430963307" stroke="black" fill="none" stroke-width="1" filter="url(#fuzzy)" clip-path="url(#rightEyeClipPath)"></circle><circle r="4.2886226060486266" cx="-14.337426340875954" cy="4.740465050482932" stroke="black" fill="none" stroke-width="1" filter="url(#fuzzy)" clip-path="url(#rightEyeClipPath)"></circle><circle r="4.853384833721305" cx="-14.088669826552039" cy="3.0392516877443985" stroke="black" fill="none" stroke-width="1" filter="url(#fuzzy)" clip-path="url(#rightEyeClipPath)"></circle><circle r="3.7692375963709424" cx="-12.436145039025485" cy="2.5844203079731045" stroke="black" fill="none" stroke-width="1" filter="url(#fuzzy)" clip-path="url(#rightEyeClipPath)"></circle><circle r="3.663219912798716" cx="-11.566162833785627" cy="3.8817349915572255" stroke="black" fill="none" stroke-width="1" filter="url(#fuzzy)" clip-path="url(#rightEyeClipPath)"></circle><circle r="4.654195147038852" cx="-14.42651279017978" cy="3.619090214154843" stroke="black" fill="none" stroke-width="1" filter="url(#fuzzy)" clip-path="url(#rightEyeClipPath)"></circle><circle r="4.566402148034917" cx="-11.096239294509921" cy="2.9316172301937398" stroke="black" fill="none" stroke-width="1" filter="url(#fuzzy)" clip-path="url(#rightEyeClipPath)"></circle><circle r="4.306267465523626" cx="-12.299307970932034" cy="2.503343999082822" stroke="black" fill="none" stroke-width="1" filter="url(#fuzzy)" clip-path="url(#rightEyeClipPath)"></circle><circle r="4.886172168683885" cx="-12.534201431944993" cy="5.751625709646293" stroke="black" fill="none" stroke-width="1" filter="url(#fuzzy)" clip-path="url(#rightEyeClipPath)"></circle><circle r="4.765762426800039" cx="-14.175661907497492" cy="2.5797037193206798" stroke="black" fill="none" stroke-width="1" filter="url(#fuzzy)" clip-path="url(#rightEyeClipPath)"></circle><!--]--></g><g transform="translate(-25.123351300343966 -28.036766552475214)"><polyline id="leftUpper" points="26.968053177100643,0.7921312402905014,27.02776720069599,0.46380253416922557,27.05569059760174,0.13105420835874493,27.05239967348857,-0.20532422793739402,27.018482385081317,-0.544568639966893,26.954537760776162,-0.8859399476789963,26.86117532125786,-1.22872380597479,26.739014500116873,-1.572230284957494,26.58868406446664,-1.9157935501827563,26.410821535560746,-2.2587715429089545,26.2060726094101,-2.6005456603474837,25.975090577400163,-2.9405204359130592,25.718535746908138,-3.2781232194740104,25.437074861920156,-3.612803857602567,25.13138052364851,-3.9440343738251706,24.802130611148804,-4.271308648872756,24.450007701937196,-4.594142100931055,24.075698492607557,-4.91207136589089,23.679893219448708,-5.224653977598467,23.26328507906159,-5.531468048105676,22.826569648976488,-5.83211194792038,22.370444308270187,-6.126203986256713,21.895607658183216,-6.413382091285383,21.402758942737037,-6.693303490383954,20.892597469351212,-6.9656443903871565,20.365822029460652,-7.230099657837168,19.806334242185653,-7.5687170720774155,19.221728913899007,-7.897020849296206,18.612832253772275,-8.214109368417752,17.9805680315578,-8.519143947146489,17.325948841668044,-8.811349096682157,16.650067623944878,-9.090012626025242,15.954089438268209,-9.354485600139071,15.239243490153285,-9.604182156234861,14.506815404486087,-9.838579182445965,13.758139744546234,-10.057215863157655,12.994592773466675,-10.259693095258664,12.217585455279696,-10.445672779580825,11.428556692698507,-10.614876991793055,10.62896679878386,-10.767087037016006,9.820291199645052,-10.902142392423606,9.004014365324696,-11.019939542097848,8.181623966016687,-11.120430708403049,7.3546052507667055,-11.20362248414591,6.524435645804619,-11.269574369787625,5.692579569658252,-11.318397219974349,4.860483462197827,-11.350251603652286,4.029571024760488,-11.365346082033726,3.2012386685043177,-11.36393540868024,2.376851168141186,-11.346318655969384,1.5577375181978443,-11.312837272211194,0.7451869889546514,-11.26387307368068,-0.05955462078870166,-11.199846175832727,-0.8552885369710772,-11.121212867965554,-1.640866372401994,-11.028463435599136,-2.415193300618566,-10.922119934834774,-3.1772310443179146,-10.802733922962178,-3.9260006812156147,-10.67088414958026,-4.660585270180887,-10.527174212498046,-5.380132300499009,-10.37223018268184,-6.083855967111732,-10.206698202515053,-6.771039274686168,-10.031242061636894,-7.441035973362843,-9.846540754626266,-8.093272329033521,-9.653286024797142,-8.727248730999413,-9.45217989837163,-9.342541139860362,-9.243932213297155,-9.938802378485647,-9.029258146973886,-10.515763268917027,-8.808875747158796,-11.073233618054608,-8.58350347031263,-11.61110305497617,-8.353857731656017,-12.129341722740588,-8.120650471201031,-12.628000827525913,-7.884586740024521,-13.10721304795278,-7.646362311049441,-13.567192807443725,-7.406661318600503,-14.008236412469035,-7.1661539310004,-14.43072205952976,-6.925494060472946,-14.835450809038864,-6.683966130202725,-15.222909461577135,-6.440655838122108,-15.593083093834142,-6.19589790256828,-15.945979027254566,-5.950016504299405,-16.28162644625927,-5.703324715117263,-16.60007601646646,-5.456123926489891,-16.90139950291279,-5.208703278174241,-17.185689388274493,-4.961339086838802,-17.453058491088502,-4.714294274686258,-17.703639583973587,-4.4678177980761316,-17.937585011851457,-4.222144076147421,-18.1550663101679,-3.9774924194412447,-18.356273823113895,-3.7340664585234866,-18.541416321846757,-3.4920535726074404,-18.710720622711232,-3.2516243181764484,-18.864431205460658,-3.0129318576065507,-19.002809831478043,-2.7761113877891224,-19.126135161997233,-2.5412795687535255,-19.234702376324,-2.308533952289741,-19.3288227900572,-2.0779524105710188,-19.408823473309866,-1.8495925647765246,-19.47504686893035,-1.6234912137139759,-19.527850410723445,-1.3996637624422905,-19.56760614167151,-1.1781036508942253" fill="none" stroke="black" stroke-width="2.2222222222222223" stroke-linejoin="round" filter="url(#fuzzy)"></polyline><polyline id="leftLower" points="27.01368891070484,0.992190095793207,26.934546680703427,1.273483658988142,26.817705747876616,1.5771403304323495,26.664872775749842,1.9002537196973854,26.477707464377133,2.2400505182512265,26.257823188057866,2.593887921171062,26.006787633053555,2.9592510488560784,25.726123435304604,3.3337503687402474,25.417308818147127,3.7151191170051128,25.08177823002969,4.101210720292582,24.72092298223011,4.4899962174177075,24.33609188657223,4.879561681081478,23.928591893142695,5.268105639583613,23.499688728007737,5.653936498535334,23.050607530929945,6.035469962572163,22.58253349308506,6.411226457066713,22.09661249477874,6.779828549841465,21.59395174316333,7.1399983728815695,21.075620409954663,7.4905550440476185,20.54265026914884,7.830412088788446,19.99603633473898,8.158574861853904,19.43673749843203,8.474137969007664,18.86567716736553,8.776282688739991,18.283743901824394,9.064274393980543,17.69179205295768,9.337459973811146,17.090642400495398,9.595265255178601,16.386879019772927,10.028499136746266,15.67227783362339,10.431894868569582,14.947948339958504,10.804249810825599,14.214967621768125,11.14463910763579,13.474381728816226,11.452396418855416,12.727206947322191,11.727095327169963,11.974430961118458,11.968531408844218,11.217013907775339,12.17670495646972,10.455889333183922,12.351804342056159,9.691965048087955,12.494190008812389,8.926123890055559,12.604379079962689,8.159224394381768,12.68303057294394,7.392101377412657,12.730931207329311,6.625566435782054,12.748981794824164,5.860408365051649,12.738184199679722,5.097393501245476,12.699628857870259,4.337265988769567,12.634482843379349,3.5807479782077634,12.543978469940889,2.828539757484489,12.429402416580507,2.081319819885451,12.292085365302992,1.3397448724271093,12.133392139271375,0.6044497880658317,11.954712329823389,-0.1239524947623738,11.757451400670798,-0.8448711217806699,11.543022257627394,-1.5577375181978441,11.312837272211194,-2.2620056262315043,11.068300747466536,-2.9571521813371486,10.810801814351683,-3.6426770236521895,10.541707747037588,-4.318103441164071,10.26235768546351,-4.982978541111539,9.974056753494999,-5.636873646128237,9.67807056103004,-6.2793847116376655,9.375620078398905,-6.9101327610086924,9.067876871403366,-7.528764334980623,8.755958685340921,-8.134951951867048,8.440925366359727,-8.728394575047474,8.123775108489738,-9.308818084255932,7.805441014695884,-9.875975747175591,7.486787960298763,-10.429648687848577,7.168609747108592,-10.969646348410006,6.851626536617993,-11.495806940655399,6.536482550599329,-12.007997883950598,6.223744027452136,-12.506116225993257,5.913897422646398,-12.990089042934986,5.607347841607228,-13.459873815373363,5.304417693386616,-13.915458776722812,5.0053455534679125,-14.356863230473508,4.71028522404866,-14.784137832847396,4.4193049801474285,-15.197364837360471,4.132386989880286,-15.596658297800378,3.8494268972525614,-15.983020331127019,3.5701388454292315,-16.357316584278987,3.294388436925654,-16.719488097053873,3.0222169053646635,-17.06948660506012,2.7536446900330254,-17.407275007247215,2.4886729967329875,-17.732827833435874,2.2272853586338215,-18.04613171184824,1.969449197123375,-18.34718583663813,1.7151173826596047,-18.63600243542112,1.4642297956221397,-18.91260723680485,1.216714887163817,-19.177039937919158,0.9724912400622285,-19.429354671946296,0.7314691295712716,-19.66962047565111,0.4935520842726895,-19.89792175691126,0.25863844692762283,-20.114358762247385,0.026622935328152852,-20.319048044353327,-0.20260179685115343,-20.5121229296263,-0.4291435992016942,-20.693733985697108,-0.6531092637292872,-20.86404948896032,-0.8746029640026248,-21.023255892104476,-1.09372469430173,-21.171558291642295,-1.3105687087664046,-21.309180895440836,-1.525221960544688,-21.43636749025172,-1.7377625409413051,-21.553381909241327,-1.9482581185661296" fill="none" stroke="black" stroke-width="2.2222222222222223" stroke-linejoin="round" filter="url(#fuzzy)"></polyline><!--[--><circle r="4.247526194597832" cx="-7.611263503452032" cy="-6.888377418466284" stroke="black" fill="none" stroke-width="1" filter="url(#fuzzy)" clip-path="url(#leftEyeClipPath)"></circle><circle r="4.885664841378744" cx="-10.191623940823916" cy="-6.091089905779346" stroke="black" fill="none" stroke-width="1" filter="url(#fuzzy)" clip-path="url(#leftEyeClipPath)"></circle><circle r="4.322515139601163" cx="-10.266579405474278" cy="-6.353702566373222" stroke="black" fill="none" stroke-width="1" filter="url(#fuzzy)" clip-path="url(#leftEyeClipPath)"></circle><circle r="3.7596422225194446" cx="-8.329741753276029" cy="-7.742049256877588" stroke="black" fill="none" stroke-width="1" filter="url(#fuzzy)" clip-path="url(#leftEyeClipPath)"></circle><circle r="4.193219809554862" cx="-7.8877038423553465" cy="-6.45880087011764" stroke="black" fill="none" stroke-width="1" filter="url(#fuzzy)" clip-path="url(#leftEyeClipPath)"></circle><circle r="4.395772325789942" cx="-9.944927808062054" cy="-5.812530944822645" stroke="black" fill="none" stroke-width="1" filter="url(#fuzzy)" clip-path="url(#leftEyeClipPath)"></circle><circle r="3.3436893008519757" cx="-10.021436507513439" cy="-4.189748214873999" stroke="black" fill="none" stroke-width="1" filter="url(#fuzzy)" clip-path="url(#leftEyeClipPath)"></circle><circle r="4.444854190724462" cx="-6.302599903729725" cy="-8.266156438714232" stroke="black" fill="none" stroke-width="1" filter="url(#fuzzy)" clip-path="url(#leftEyeClipPath)"></circle><circle r="3.7560007042898818" cx="-8.18450631065442" cy="-7.331070564613999" stroke="black" fill="none" stroke-width="1" filter="url(#fuzzy)" clip-path="url(#leftEyeClipPath)"></circle><circle r="4.182160977900953" cx="-5.876968548485279" cy="-7.817046173720518" stroke="black" fill="none" stroke-width="1" filter="url(#fuzzy)" clip-path="url(#leftEyeClipPath)"></circle><!--]--></g><g id="hairs"><!--[--><polyline points="44,-58,45.23599405446517,-55.96668255111991,45.341043196417104,-54.999966532191884,44.63027202019966,-54.48677572531721,43.30143352768917,-54.134598330738505,41.38949400560373,-53.9022148811288,38.84376115674764,-53.86107015227403,35.59518453638662,-54.08893730722151,31.587642204242915,-54.62265440363535,26.793304342716706,-55.45992621577764,21.220834136879823,-56.58264662498052,14.905535170672014,-57.97305681420384,7.874387158249512,-59.61132319440438,0.10405528486749205,-61.46878493353081,-8.490235778996759,-63.51721863951021,-18.011402206765172,-65.73337503041492,-28.512905050209554,-68.01555878849938" fill="none" stroke="rgb(165, 42, 42)" stroke-width="2" stroke-linejoin="round" filter="url(#fuzzy)"></polyline><polyline points="51,-46,50.84220361215895,-45.9052875310047,50.411011388701844,-45.898014942116,49.614310116522,-46.052449184788884,48.347842729999684,-46.37760201655328,46.540323465644114,-46.94486547829912,44.14431111266036,-47.84906352016185,41.123409043397494,-49.16691625609518,37.43916320800781,-50.948516845703125,33.04466650449235,-53.224544871705774,27.893172861768893,-56.013394326413035,21.95774949087553,-59.32849155285494,15.243478940916248,-63.19138486776501,7.774031390908826,-67.64648435838893,-0.4515348937605488,-72.75698205961234,-9.548381735032265,-78.55729359512902" fill="none" stroke="rgb(165, 42, 42)" stroke-width="2" stroke-linejoin="round" filter="url(#fuzzy)"></polyline><polyline points="13,-84,13.337568569730658,-83.7575080618549,13.978900900254365,-83.4117597337344,14.546442375173527,-83.11901271818276,14.94386544113875,-82.86622445911803,15.17830760796345,-82.63817844653418,15.262662671540822,-82.42910224978742,15.195717169549237,-82.23379878890442,14.964110459865603,-82.04712760723443,14.545181049511369,-81.86609340255197,13.908153339881821,-81.6906723041267,13.014325022697449,-81.52505373954773,11.817823100183587,-81.37988072696987,10.270241900952986,-81.27252835995886,8.331066332916848,-81.22290105097926,5.979274059752006,-81.24714497416834,3.2155748309003584,-81.3547851390993,0.0484171188509297,-81.55025529462654,-3.5284509214452697,-81.83219346893517,-7.545578935375332,-82.18886561335434,-12.035919444722849,-82.61249611784105,-16.967342894482623,-83.16313082242533" fill="none" stroke="rgb(165, 42, 42)" stroke-width="2" stroke-linejoin="round" filter="url(#fuzzy)"></polyline><polyline points="0,-87,1.3067604630517717,-86.89712880953736,2.8312674797189192,-86.5452314847163,4.29576814966166,-85.9507612709613,5.782473974315483,-85.1933432944863,7.453119562304758,-84.34058931941051,9.38908155680946,-83.41980748984092,11.55332458883502,-82.43738882652747,13.835808014394885,-81.40149584268806,16.122697830200195,-80.33023834228516,18.33964027533544,-79.2502403896066,20.45451334010193,-78.19045550241194,22.459767567946052,-77.16856603059009,24.36052337434697,-76.17392959606161,26.168185040874853,-75.16986157136247,27.874430515971092,-74.13852485943295,29.409362942794807,-73.14932188447901,30.691739527206465,-72.37707637328428" fill="none" stroke="rgb(165, 42, 42)" stroke-width="2" stroke-linejoin="round" filter="url(#fuzzy)"></polyline><polyline points="50,-48,50.12698739025701,-47.603857048789536,50.11839924500793,-47.151081686438104,49.81031617987734,-46.99487447439635,49.221131473150166,-47.1168975258757,48.35665711669956,-47.44135409360464,47.1842168074343,-47.93306253140653,45.65372452632321,-48.61233041223473,43.717012799894185,-49.533922283883406,41.33631638848182,-50.76095233598912,38.487049138955534,-52.34862439101356,35.15952324265068,-54.33816430620293,31.357902858983778,-56.757110654342384,27.091315940699964,-59.624665968259336,22.35752010064182,-62.96004529927671,17.130970668972417,-66.78541523719814,11.370416462792686,-71.11389081585524,5.036791435584843,-75.93096519852737,-1.9507048764533712,-81.20971680006264" fill="none" stroke="rgb(165, 42, 42)" stroke-width="2" stroke-linejoin="round" filter="url(#fuzzy)"></polyline><polyline points="4,-86,4.32811369772784,-85.96171269705803,5.100634657735766,-85.77703884329861,5.9206056255854405,-85.41983043277652,6.495617698142419,-84.93032426988403,6.704159668821552,-84.34221617950689,6.528636269588277,-83.66712542232071,5.979756509804704,-82.9039127436827,5.062327363077499,-82.045800464391,3.77209303197779,-81.08309295179149,2.1013529796022077,-80.00485891465786,0.04349195957183838,-78.80077600479126,-2.4040329903391537,-77.4626374777771,-5.2388126844430545,-75.98373471763776,-8.457305384085936,-74.35438531785584,-12.063212282880198,-72.55606499635465,-16.074350278532993,-70.56285204278112,-20.52007692590851,-68.35811726245197,-25.429605537216563,-65.95812208170067,-30.82941444389539,-63.404316949809555,-36.78210822969376,-60.662259250251054,-43.46244459185655,-57.41093045049445" fill="none" stroke="rgb(165, 42, 42)" stroke-width="2" stroke-linejoin="round" filter="url(#fuzzy)"></polyline><polyline points="53,-42,53.12515482184778,-41.0722091076405,53.14657471494082,-40.17678586067663,52.864089738957375,-39.442255826310344,52.22574310953946,-38.954275829411195,51.22760229448794,-38.732833705805845,49.8780119056631,-38.785698121253645,48.17474743603053,-39.12414013348109,46.1008971720472,-39.749629383727054,43.63447611613884,-40.646942915512554,40.7585666436142,-41.796776309046,37.46263790130615,-43.19457495212555,33.73515537506767,-44.856242394635075,29.55532838681503,-46.805147288106916,24.893105220049318,-49.05313180644196,19.720089044859343,-51.594492158605995,14.02342465130115,-54.41978078700821,7.8086169260101475,-57.535806621775464,1.0849820309828715,-60.97053789795593,-6.154881462719336,-64.75679705726756,-13.952921466390624,-68.90338205084166,-22.444290531616062,-73.35290242119989" fill="none" stroke="rgb(165, 42, 42)" stroke-width="2" stroke-linejoin="round" filter="url(#fuzzy)"></polyline><polyline points="17,-82,17.387015724981037,-81.86333187709151,18.23597946344145,-81.41059552628165,19.332484896777096,-80.72845703408936,20.597600085733593,-79.8932855608412,21.97626200484571,-78.94043547796636,23.42405756329972,-77.89497284112582,24.900124443323385,-76.79094422141537,26.359770113469693,-75.67025325497009,27.75853944691729,-74.57143009874767,29.063071497420246,-73.52125045158485,30.25711464881897,-72.53484213352203,31.338518112371624,-71.62127190329846,32.31163813635427,-70.78871512795922,33.18053877720128,-70.04645004048686,33.94399069996386,-69.40504633738495,34.5909605367564,-68.87731569014257,35.097751470095545,-68.48255914870057,35.42924342493741,-68.25886226666512,35.54001588091257,-68.28527636439414,35.367688324224304,-68.67944858348363,34.84497937139954,-69.44376481342289" fill="none" stroke="rgb(165, 42, 42)" stroke-width="2" stroke-linejoin="round" filter="url(#fuzzy)"></polyline><polyline points="51,-45,51.64042448840143,-44.65948287058159,51.973702245043874,-43.89945855179037,52.146484722413106,-43.06903362205612,52.166545783229815,-42.34519436543459,52.01673210985002,-41.80010899621817,51.676868459760776,-41.47066149511416,51.13198090875002,-41.38190762221719,50.374472020670304,-41.552891907070475,49.399732875879145,-41.99975798444548,48.199018908929304,-42.7351560841299,46.75517832681026,-43.764073041871384,45.043729692697525,-45.08234331011772,43.03773368377436,-46.68310118162245,40.71386058552254,-48.56828634169476,38.05869508493121,-50.75564691901654,35.07463291821612,-53.273994919469786,31.78119508547033,-56.14977597361865,28.203951569130453,-59.39686819166054,24.34780883207632,-63.01878101983964,20.16794809514231,-67.01856805557516,15.570256599249657,-71.40308709751069,10.470983521398805,-76.18177560050455,4.898151566388388,-81.37476690973922" fill="none" stroke="rgb(165, 42, 42)" stroke-width="2" stroke-linejoin="round" filter="url(#fuzzy)"></polyline><polyline points="-5,-87,-4.007225548983547,-86.99293338004085,-2.9313326081640936,-86.96568244174853,-1.8995748325710178,-86.90914934819043,-1.0178301613627965,-86.80535024050444,-0.3591537531882145,-86.6294474791379,0.02459090887693005,-86.36414275703481,0.12076253718264907,-86.0094957524716,-0.03901028025235487,-85.57847068018926,-0.4054952322419272,-85.08346633239884,-0.9503660460712098,-84.52597347361365,-1.6868257412945047,-83.89680860205625,-2.6607342064380646,-83.18482819199562,-3.9248145160735834,-82.38591704168299,-5.518165554866732,-81.50495793739384,-7.463484452623199,-80.54947690968571,-9.776546251387156,-79.51995197283912,-12.473116214630613,-78.40430192858409,-15.564798126538891,-77.1817469351374,-19.049513753786584,-75.83570799345938,-22.91012105829683,-74.36820323285707,-27.131143469645817,-72.79795337390648,-31.738100112850574,-71.10925214431315,-36.87175139218925,-69.09878762660657" fill="none" stroke="rgb(165, 42, 42)" stroke-width="2" stroke-linejoin="round" filter="url(#fuzzy)"></polyline><polyline points="15,-83,16.41134788261883,-82.29374158653327,17.5012580929627,-81.74322267654756,18.64775951798765,-81.10871096503178,19.926120946853096,-80.35452138949675,21.312008131815674,-79.51409444171142,22.750371930092342,-78.6141820690563,24.183222943910657,-77.6722500967423,25.548173939128574,-76.72722078869703,26.76263907447275,-75.85731588736286,27.726918270964234,-75.16070139233136,28.36204251744172,-74.71123501102741,28.657725974295353,-74.52879678778245,28.683751348251207,-74.5884718863337,28.51909835723778,-74.82105993192914" fill="none" stroke="rgb(165, 42, 42)" stroke-width="2" stroke-linejoin="round" filter="url(#fuzzy)"></polyline><polyline points="-22,-84,-21.495183051124087,-84.05682980062582,-20.673609527013376,-84.25055190087369,-19.89815117699407,-84.45236043678383,-19.243899817821568,-84.58014132688228,-18.707533947787976,-84.62929743111405,-18.267712694602437,-84.6148442541594,-17.92397334848965,-84.53658969802115,-17.709128862515342,-84.37484852266027,-17.674368220072566,-84.09892984863373,-17.86425463607447,-83.67688960300443,-18.302061859868026,-83.08325268330161,-18.994152738568875,-82.30326789747168,-19.946149840566303,-81.33218343894845,-21.17576651801742,-80.17008743273298,-22.71236263636905,-78.81552665953508,-24.58568100895436,-77.26144747672419,-26.813906635049218,-75.4958686421611,-29.396990348095887,-73.50971106294021,-32.311600814086844,-71.31151337198568,-35.507243095627736,-68.93327214735118,-38.93051022862513,-66.39562303820351,-42.63434955356887,-63.67147853867249" fill="none" stroke="rgb(165, 42, 42)" stroke-width="2" stroke-linejoin="round" filter="url(#fuzzy)"></polyline><polyline points="5,-86,6.922948248941848,-85.6408471815812,8.70859742066872,-84.95252823456359,10.38443225991982,-84.10947582289529,12.079839846271533,-83.11074516445632,13.859261866581619,-81.9523378895251,15.730422123971302,-80.64715691553072,17.682942053894593,-79.21750492637187,19.70274661756551,-77.69118072058185,21.772230804611084,-76.09902120179481,23.87217903137207,-74.47062587738037,25.987089785224676,-72.82873528801338,28.108447529263387,-71.18469528649382,30.232424118235087,-69.53912949331706,32.352613380442385,-67.89076725863089,34.45287375265343,-66.24803055156144,36.50890997346764,-64.62883053286214,38.49724521721094,-63.04756675904056,40.371637233832644,-61.54501533698564,41.951837355226026,-60.35674678936805" fill="none" stroke="rgb(165, 42, 42)" stroke-width="2" stroke-linejoin="round" filter="url(#fuzzy)"></polyline><polyline points="-5,-87,-3.923822634384844,-86.98471397751617,-2.5842204735556242,-86.94255005892043,-1.1132457854910482,-86.87605724329258,0.3790438727699885,-86.77804404931656,1.8179697827581198,-86.63424166940996,3.1448951301276113,-86.4364811742088,4.334064660231981,-86.19324366444476,5.40538116395035,-85.92730121979636,6.405198771713781,-85.66398988842442,7.366058175145541,-85.42130604079307,8.274972594541406,-85.20883173970857,9.070917910110655,-85.03331302215479,9.668836632868537,-84.90392910250115,9.988874107013903,-84.83293266004006,9.970545872819676,-84.83256895213206,9.573133280021624,-84.9106898280283,8.786500172754373,-85.06620047821553,7.668866653485923,-85.2902425227029,6.377797864058477,-85.59199865465398,5.117766794174897,-86.06732172800099" fill="none" stroke="rgb(165, 42, 42)" stroke-width="2" stroke-linejoin="round" filter="url(#fuzzy)"></polyline><polyline points="-16,-86,-14.893976879585287,-86.04006818766399,-13.92107647551988,-86.17996856124098,-13.346226749190976,-86.28224667781043,-13.127283581579977,-86.22908673505022,-13.181751845860699,-85.98694550974052,-13.501958222721846,-85.56881967079751,-14.162115250519589,-84.98625005087459,-15.26966640063322,-84.22340630506915,-16.905312199258933,-83.24397312280495,-19.08667059681503,-82.02332172989438,-21.77525052253783,-80.57542211592448,-24.926882780099383,-78.93578547172474,-28.567467383745424,-77.10468428361641,-32.85202284799881,-75.0594240594498" fill="none" stroke="rgb(165, 42, 42)" stroke-width="2" stroke-linejoin="round" filter="url(#fuzzy)"></polyline><polyline points="52,-45,52.248093064239264,-43.8199387425481,52.64667151294881,-42.58753506284378,53.021430688054494,-41.4836570896272,53.32508391988307,-40.52860868099202,53.52632625516241,-39.74718814893702,53.60424168931054,-39.17092121555117,53.55140978246241,-38.82679267105712,53.36775192218434,-38.7394174581996,53.05013747938815,-38.93158747911392,52.586550763198744,-39.41727860188452,51.9582839012146,-40.1972736120224,51.146706005840834,-41.267601098211834,50.13854640682757,-42.636711869232045,48.92674091911928,-44.33429220044563,47.508729638930774,-46.397757288409906,45.88455622446192,-48.84393093650654,44.0519938637803,-51.65720281398987,41.993461942836845,-54.823814100276444,39.66070610395724,-58.39827995964513,36.9805132449353,-62.52990299676194,33.869777479350084,-67.38364562425471" fill="none" stroke="rgb(165, 42, 42)" stroke-width="2" stroke-linejoin="round" filter="url(#fuzzy)"></polyline><!--]--></g><g id="pointNose"><g id="rightNose"><!--[--><circle r="1.2231857887041748" cx="5.332302277932245" cy="28.239540089909134" stroke="black" fill="none" stroke-width="1" filter="url(#fuzzy)"></circle><circle r="2.6226434247167276" cx="5.988527344999255" cy="28.521629585242174" stroke="black" fill="none" stroke-width="1" filter="url(#fuzzy)"></circle><circle r="2.901890660829737" cx="8.45551870658571" cy="27.0094787561581" stroke="black" fill="none" stroke-width="1" filter="url(#fuzzy)"></circle><circle r="1.6493214254650135" cx="5.3995114567321325" cy="25.1077434144391" stroke="black" fill="none" stroke-width="1" filter="url(#fuzzy)"></circle><circle r="2.623482633844949" cx="7.5654376848229425" cy="28.25330806943307" stroke="black" fill="none" stroke-width="1" filter="url(#fuzzy)"></circle><circle r="2.474836265855247" cx="7.521072708840872" cy="25.58958249742283" stroke="black" fill="none" stroke-width="1" filter="url(#fuzzy)"></circle><circle r="2.7520352309009475" cx="8.65471253119546" cy="26.221774466727464" stroke="black" fill="none" stroke-width="1" filter="url(#fuzzy)"></circle><circle r="2.730941250257664" cx="6.534596827769139" cy="27.59983599867616" stroke="black" fill="none" stroke-width="1" filter="url(#fuzzy)"></circle><circle r="2.072790373830034" cx="5.382003268340711" cy="28.583324361943028" stroke="black" fill="none" stroke-width="1" filter="url(#fuzzy)"></circle><circle r="1.65651392085605" cx="7.792713066361831" cy="26.610939356901202" stroke="black" fill="none" stroke-width="1" filter="url(#fuzzy)"></circle><!--]--></g><g id="leftNose"><!--[--><circle r="2.7744616514425604" cx="-5.391654665007377" cy="27.20178669414046" stroke="black" fill="none" stroke-width="1" filter="url(#fuzzy)"></circle><circle r="2.698382819962016" cx="-5.824517930978498" cy="30.542749451874982" stroke="black" fill="none" stroke-width="1" filter="url(#fuzzy)"></circle><circle r="2.4494010567711886" cx="-5.6977256309956825" cy="28.448794838093022" stroke="black" fill="none" stroke-width="1" filter="url(#fuzzy)"></circle><circle r="1.565563012325498" cx="-7.230324115113121" cy="29.648635163490844" stroke="black" fill="none" stroke-width="1" filter="url(#fuzzy)"></circle><circle r="2.480709759202356" cx="-5.873992145201179" cy="27.99352069401248" stroke="black" fill="none" stroke-width="1" filter="url(#fuzzy)"></circle><circle r="2.0343000713505184" cx="-6.293794817846961" cy="30.833992619441986" stroke="black" fill="none" stroke-width="1" filter="url(#fuzzy)"></circle><circle r="1.2529529940188144" cx="-5.606735008312805" cy="30.327638103782796" stroke="black" fill="none" stroke-width="1" filter="url(#fuzzy)"></circle><circle r="1.342079859208647" cx="-7.933899961159475" cy="28.75670956001091" stroke="black" fill="none" stroke-width="1" filter="url(#fuzzy)"></circle><circle r="2.7061211510446785" cx="-7.716064560587771" cy="29.94866692969987" stroke="black" fill="none" stroke-width="1" filter="url(#fuzzy)"></circle><circle r="2.8335292839770174" cx="-8.959943061145383" cy="28.743441362447363" stroke="black" fill="none" stroke-width="1" filter="url(#fuzzy)"></circle><!--]--></g></g><g id="mouth"><polyline points="-38.50163253631567,48.868413273400705,-37.70651812543515,49.98349803146307,-36.90211136690554,51.06467228013154,-36.088701961498785,52.11216855694594,-35.26657960998682,53.126219399446114,-34.43603401314159,54.107057345171896,-33.59735487173502,55.05491493166313,-32.750831886539096,55.970024696459625,-31.89675475832574,56.85261917710128,-31.03541318786689,57.70293091112786,-30.167096875934494,58.52119243607925,-29.292095523300482,59.30763628949525,-28.41069883073682,60.062495008915725,-27.52319649901543,60.7860011318805,-26.629878228908275,61.47838719592941,-25.731033721187284,62.13988573860229,-24.82695267662441,62.770729297439,-23.91792479599159,63.37115040997937,-23.00423978006077,63.9413816137632,-22.08618732960389,64.48165544633036,-21.1640571453929,64.9922044452207,-20.23813892819974,65.473261147974,-19.30872237879635,65.92505809213017,-18.376097197954675,66.347827815229,-17.440553086446656,66.74180285481033,-16.50237974504425,67.10721574841402,-15.56186687451938,67.44429903357987,-14.619304175644004,67.75328524784773,-13.674981349190059,68.03440692875748,-12.72918809592949,68.28789661384889,-11.782214116634234,68.51398684066181,-10.834349112076245,68.71291014673614,-9.885882783027467,68.88489906961165,-8.93710483025983,69.03018614682819,-7.9883049545452876,69.1490039159256,-7.039772856655781,69.24158491444373,-6.091798237363253,69.30816167992242,-5.144670797439646,69.34896674990149,-4.198680237656907,69.36423266192078,-3.2541162587869765,69.35419195352011,-2.311268561601798,69.31907716223935,-1.370426846873316,69.25912082561833,-0.4318808153734697,69.17455548119685,0.5040798321257918,69.06561366651479,1.43716539485253,68.93252791911198,2.3670861720347993,68.77553077652824,3.293552462900653,68.59485477630341,4.216274566678153,68.39073245597733,5.1349627825953545,68.16339635308985,6.049327409880316,67.91307900518079,6.959078747761087,67.64001294978998,7.8639270954657325,67.3444307244573,8.763582752222307,67.02656486672252,9.657756017258865,66.68664791412553,10.546157189803466,66.32491240420615,11.42849656908416,65.94159087450421,12.304484454329016,65.53691586255957,13.173831144766076,65.11111990591203,14.03624693962341,64.66443554210144,14.891442138129069,64.19709530866767,15.739127039511105,63.70933174315051,16.57901194299758,63.20137738308981,17.410807147816556,62.673464766025425,18.234222953196078,62.12582642949718,19.048969658364207,61.55869491104491,19.854757562549,60.97230274820845,20.65129696497852,60.36688247852764,21.438298164880816,59.742666639542314,22.215471461483947,59.099887768792314,22.982527154015965,58.43877840381748,23.739175541704938,57.759571082157635,24.485126923778914,57.06249834135262,25.220091599465952,56.34779271894229,25.943779867994103,55.615686752466445,26.655902028591434,54.86641297946496,27.356168380485997,54.10020393747765,28.04428922290585,53.31729216404437,28.71997485507904,52.517910196704925,29.38293557623364,51.70229057299918,30.032881685597694,50.870665830466955,30.669523482399264,50.0232685066481,31.292571265866407,49.160331139082444,31.90173533522718,48.28208626530983,32.49672598970963,47.38876642287009,33.07725352854183,46.48060414930306,33.64302825095183,45.55783198214857,34.19376045616768,44.620682458946476,34.72916044341744,43.66938811723659,35.248938511929175,42.704181494558775,35.75280496093093,41.72529512845285,36.24047008965077,40.73296155645866,36.71164419731675,39.72741331611603,37.16603758315692,38.708882944964806,37.603360546399344,37.677602980544826,38.02332338627209,36.633805960395925,38.42563640200318,35.57772442205794,38.8100098928207,34.50959090307071,39.1761541579527,33.42963794097407,39.523779496627235,32.33809807330784,39.85259620807236,31.235203837611884,39.85259620807236,31.235203837611884,39.069053920628484,32.126765447964694,38.2855116331846,33.009562423126816,37.501969345740726,33.88341526330578,36.71842705829684,34.748144468709135,35.93488477085296,35.60357053954443,35.151342483409074,36.4495139760192,34.3678001959652,37.28579527834099,33.58425790852132,38.11223494671735,32.800715621077444,38.92865348135583,32.017173333633565,39.73487138246395,31.23363104618968,40.53070915024927,30.4500887587458,41.31598728491934,29.666546471301913,42.090526286681694,28.88300418385804,42.85414665574387,28.09946189641416,43.60666889231342,27.315919608970276,44.34791349659789,26.532377321526393,45.077700968804805,25.748835034082518,45.79585180914174,24.965292746638635,46.50218651781621,24.18175045919476,47.19652559503578,23.39820817175088,47.87868954100799,22.614665884306998,48.548498855940366,21.83112359686312,49.20577404004047,21.047581309419236,49.85033559351583,20.264039021975357,50.48200401657401,19.480496734531474,51.10059980942253,18.69695444708759,51.70594347226897,17.913412159643713,52.297855505320825,17.129869872199833,52.876156408785675,16.346327584755954,53.440666682871054,15.56278529731207,53.991206827784495,14.779243009868193,54.527597343733554,13.99570072242431,55.04965873092577,13.212158434980427,55.557211489568694,12.428616147536554,56.050076119869864,11.645073860092673,56.528073122036815,10.861531572648792,56.99102299627711,10.077989285204909,57.43874624279827,9.29444699776103,57.87106336180786,8.51090471031715,58.28779485351341,7.727362422873274,58.688761218122465,6.943820135429391,59.073782955842574,6.160277847985512,59.44268056688128,5.376735560541633,59.79527455144612,4.59319327309775,60.13138540974464,3.809650985653871,60.45083364198439,3.0261086982099883,60.75343974837291,2.242566410766109,61.03902422911775,1.45902412332223,61.307407584426436,0.6754818358783474,61.55841031450653,-0.10806045156553523,61.79185291956557,-0.8916027390094143,62.007555899811095,-1.675145026453297,62.20533975545065,-2.4586873138971725,62.38502498669179,-3.2422296013410588,62.54643209374203,-4.025771888784934,62.68938157680894,-4.809314176228813,62.81369393610006,-5.5928564636726925,62.919189671822934,-6.376398751116575,63.005689284185095,-7.1599410385604525,63.07301327339409,-7.943483326004337,63.12098213965748,-8.727025613448218,63.14941638318278,-9.510567900892095,63.15813650417755,-10.294110188335976,63.14696300284932,-11.07765247577986,63.11571637940567,-11.861194763223738,63.064217134054104,-12.64473705066762,62.992285767002194,-13.428279338111501,62.899742778457465,-14.211821625555373,62.78640866862745,-14.995363912999254,62.65210393771973,-15.77890620044314,62.49664908594183,-16.56244848788702,62.31986461350127,-17.345990775330897,62.12157102060563,-18.12953306277478,61.901588807462446,-18.913075350218662,61.65973847427923,-19.69661763766254,61.395840521263565,-20.48015992510642,61.10971544862298,-21.263702212550303,60.801183756565,-22.04724449999418,60.470065945297215,-22.83078678743806,60.11618251502712,-23.614329074881947,59.739353965962295,-24.39787136232582,59.339400798310265,-25.181413649769702,58.916143512278566,-25.96495593721358,58.46940260807476,-26.74849822465746,57.99899858590639,-27.532040512101347,57.50475194598099,-28.315582799545222,56.98648318850611,-29.099125086989098,56.44401281368927,-29.882667374432984,55.87716132173805,-30.66620966187687,55.28574921285997,-31.449751949320746,54.669596987262594,-32.23329423676462,54.028525145153424,-33.01683652420851,53.362354186740056,-33.800378811652386,52.670904612230004,-34.583921099096266,51.953996921830814,-35.367463386540145,51.21145161575004,-36.15100567398403,50.44308919419522,-36.9345479614279,49.6487301573739,-37.71809024887179,48.828195005493605" fill="rgb(215,127,140)" stroke="black" stroke-width="3" stroke-linejoin="round" filter="url(#fuzzy)"></polyline></g></svg>