<svg viewBox="-100 -100 200 200" xmlns="http://www.w3.org/2000/svg" width="400" height="400" id="face-svg"><defs><clipPath id="leftEyeClipPath"><polyline points="25.47406373504592,-0.735244849539251,25.42478708287366,-0.8434887922304473,25.353416413271052,-0.9523552078332778,25.258995444376,-1.0613359646311593,25.140674456670073,-1.1699517850399006,24.9977072823127,-1.277751593752092,24.829448294475373,-1.3843118658815,24.63534939667588,-1.4892359751074615,24.41495701211253,-1.5921535418192725,24.167909072998334,-1.6927197812605865,23.893932009895238,-1.7906148516738052,23.592837741048314,-1.88554320244447,23.264520661720013,-1.9772329222456582,22.908954633524342,-2.065435087182375,22.526189973761085,-2.149923108935946,22.116350444750026,-2.23049208290841,21.817913096880215,-2.360469944621695,21.47052131491764,-2.482845145251262,21.07401444219177,-2.597198696387033,20.628579343575343,-2.7031844477133538,20.134723418089944,-2.800524767066884,19.593248534865754,-2.88900634792092,19.005225877779846,-2.968476142392033,18.37197168409733,-3.0388374178649205,17.6950238624397,-3.1000459353313525,16.97611947540492,-3.1521062475391046,16.217173072163284,-3.195068115046758,15.420255856353776,-3.229023038280273,14.587575674605063,-3.2541009036871946,13.72145781100556,-3.2704667420844205,12.824326572846878,-3.2783175972953726,11.898687652965133,-3.2778795031724934,10.94711125400438,-3.2694045671009473,9.97221595992653,-3.2531681580794087,8.976653340092227,-3.229466197473836,7.963093271236898,-3.1986125505401057,6.934209962666453,-3.1609365168114074,5.892668669996959,-3.116780417446285,4.841113082762633,-3.066497277633207,3.7821533712165634,-3.0104486021475605,2.7183548776484834,-2.9490022421569577,1.6522274375439885,-2.882530351370727,0.5862153159095413,-2.8114074296295106,-0.4773122559123708,-2.7360084520308208,-1.5360699576135302,-2.65670708168647,-2.587864686151409,-2.5738739642077357,-3.6306033055173472,-2.487875102014187,-4.662299854717089,-2.399070306562021,-5.681082228639355,-2.3078117265878237,-6.685198346488061,-2.2144424504636335,-7.673021822453839,-2.119295180759197,-8.643057153300465,-2.0226909791073053,-9.59394443754187,-1.9249380794681,-10.52446364088533,-1.8263307678882403,-11.433538422616508,-1.7271483268508103,-12.320239537601946,-1.6276540423118615,-13.183787828584673,-1.5280942715194838,-14.023556823448587,-1.4286975697112803,-14.839074952127117,-1.3296738737861438,-15.630027397832016,-1.2312137410462196,-16.39625759727774,-1.1334876411049508,-17.137768404577095,-1.0366452990570767,-17.854722933483863,-0.940815088006492,-18.547445092657927,-0.8461034690478428,-19.216419828628613,-0.752594476797753,-19.862293091131907,-0.6603492485715681,-20.48599913013352,-0.5692172032540008,-21.08795745660772,-0.47906091479792323,-21.668193591845295,-0.38993871381742595,-22.22677292602526,-0.3019023284848441,-22.76379875272785,-0.2149971395457202,-23.279410303447616,-0.12926243533375859,-23.77378078210647,-0.044731666785786994,-24.247115399566766,0.038567297543287915,-24.699649408144296,0.12061191646551761,-25.13164613612143,0.20138472114495665,-25.543395022260082,0.2808730600827024,-25.93520965031485,0.3590688441019366,-26.30742578354602,0.43596829133296755,-26.660399399232652,0.511571672198269,-26.03192576106098,1.6410558177645869,-25.750405862855953,1.6984767752090795,-25.4525537449079,1.7554204591956561,-25.13822264702302,1.8118327763613697,-24.80728881318283,1.867657168223889,-24.459651647516452,1.9228348162061317,-24.09523387027309,1.9773048466609047,-23.713981673794365,2.031004535895535,-23.315864878486753,2.0838695151965068,-22.900877088793933,2.135833975854098,-22.469035849169206,2.186830874187012,-22.02038280004788,2.2367921365670203,-21.554983833819666,2.2856488644435853,-21.072929250801057,2.33333153936851,-20.574333915207735,2.3797702280205635,-20.05835620274332,2.425197364009115,-19.5239099716671,2.469780757793302,-18.970824574939126,2.5133557268645976,-18.39901238259812,2.5557610963698236,-17.80846785979902,2.596839624838042,-17.19926650868565,2.6364384253406223,-16.57156367293383,2.6744093805536364,-15.925593203800322,2.7106095501917205,-15.26166598651307,2.7449015692825633,-14.580168325838127,2.7771540357511713,-13.881560189658618,2.8072418857830472,-13.166373309401237,2.835046755435447,-12.435209136145609,2.86045732696585,-11.688736651251972,2.8833696583468096,-10.927690030342543,2.9036874944363134,-10.152866159472017,2.9213225582728155,-9.36512200232257,2.9361948209640927,-8.565371817258786,2.9482327486390547,-7.754584223077931,2.957373524931686,-6.933779112290939,2.9635632474662463,-6.104024410769565,2.9667570968128887,-5.266432682595062,2.966919476382837,-4.422157578943848,2.964024121732293,-3.5723901298454885,2.958054177744186,-2.718354877648483,2.9490022421569577,-1.8613058510292118,2.9368703739094917,-1.0025223783794637,2.9216700647713667,-0.14330473940794164,2.9034221727275646,0.7150303462088266,2.8821568155867956,1.571154394290791,2.857913223282575,2.4237319968984634,2.830739547336217,3.2714258295214123,2.8006926259508864,4.112901825875718,2.7678377032058545,4.946834521475039,2.732248100820117,5.771912567139791,2.694004840954519,6.586844413609161,2.6531962185215328,7.390364168420439,2.609917321471844,8.181237626220302,2.5642694975268956,8.95826847367265,2.516359765826532,9.7203046701276,2.4663001719609015,10.466245005216198,2.414207084855758,11.195045834535463,2.360200433980321,11.905727994588336,2.3044028853468284,12.597383898143185,2.246938954770955,13.269184811177368,2.187934056862221,13.920388312569557,2.1275134882135536,14.550345937705305,2.0658013432591487,15.158511007160566,2.0029193612697864,15.744446641627615,1.9389857029547366,16.307833964248122,1.8741136551394197,16.856822229359718,1.815662563067416,17.39273281689024,1.7558203652536815,17.915259261109323,1.6945925805463602,18.42410995463343,1.631982850594563,18.919008972534353,1.5679928249855204,19.399696896447626,1.5026220463817364,19.865931638680944,1.4358678356581442,20.317489266322628,1.3677251770392593,20.75416482535003,1.2981866032363336,21.175773164738008,1.2272420805845101,21.582149760567326,1.1548788941799768,21.9731515401331,1.0810815330171213,22.348657706053256,1.0058315751256846,22.708570560376923,0.9291075727079151,23.05281632869291,0.8508849372757245"></polyline></clipPath><clipPath id="rightEyeClipPath"><polyline points="-24.12159697611903,-0.8732415377037497,-24.08632292595611,-0.947100470926975,-24.02542888479579,-1.021014799511271,-23.938222669856383,-1.0946508643854962,-23.82410951203765,-1.167694895371604,-23.682589188512587,-1.2398525500165132,-23.513253155319138,-1.3108484524239805,-23.315781679951968,-1.3804257320864717,-23.0899409739542,-1.4483455627170336,-22.835580325509177,-1.514386701081164,-22.55262923203223,-1.578345025828685,-22.241094532762375,-1.6400330763256132,-21.90105754135412,-1.6992795914860332,-21.532671178469187,-1.7559290486039665,-21.136157104368273,-1.8098412021852446,-20.711802851502807,-1.8608906227793813,-20.38573938757342,-1.94541009515418,-20.010581022109115,-2.024438826354186,-19.58640729414315,-2.0977136780550323,-19.113631834033825,-2.165022530650794,-18.592975549666974,-2.226201057116689,-18.025440745535565,-2.281129599750038,-17.41228615974989,-2.329730148138806,-16.75500290403156,-2.3719634167070947,-16.055291291744894,-2.407826020186925,-15.315038539018953,-2.437347745365663,-14.536297324013631,-2.4605889174584386,-13.721265189383296,-2.477637859454906,-12.872264772991262,-2.488608442789692,-11.991724851928506,-2.4936377276858925,-11.082162184890063,-2.4928836915209516,-10.14616413796249,-2.4865230435642887,-9.186372078875701,-2.474749124436006,-8.205465524772736,-2.4577698886360433,-7.2061470285506495,-2.4358059684931197,-6.191127788826121,-2.4090888178828105,-5.163113968578967,-2.3778589340641143,-4.124793707527161,-2.3423641559838586,-3.078824813286582,-2.302858037398292,-2.0278231163689737,-2.2595982931612086,-0.9743514740714927,-2.2128453170279707,0.07909059168879118,-2.162860769324748,1.1300766375419937,-2.109906232832365,2.1762624377807986,-2.05424193523406,3.2153945343706516,-1.9961255364765522,4.245318212801425,-1.9358109793937213,5.263984918727148,-1.8735474019422873,6.269459130340401,-1.8095781093988128,7.259924701427997,-1.7441396048673923,8.23369069005452,-1.6774606764473783,9.189196687820402,-1.609761539410479,10.12501766464106,-1.5412530317365951,11.039868343993762,-1.4721358613577378,11.93260712357879,-1.4025999034593746,12.802239556341547,-1.332823546188556,13.64792140680218,-1.2629730831181722,14.46896129763933,-1.1932021508166908,15.264822961474666,-1.123651209872719,16.0351271128047,-1.054447067723752,16.779652955026656,-0.9857024416384412,17.498339337504795,-0.9175155602017453,18.19128557762403,-0.8499698016523076,18.858751962777227,-0.7831333674214078,19.501159947232942,-0.7170589892228447,20.11909205883013,-0.6517836680430904,20.71329153044652,-0.5873284433810732,21.28454862774231,-0.5235961676788465,21.833101078230207,-0.4605049557144132,22.359014080531207,-0.39808328681310967,22.86239202719346,-0.3363553391248568,23.343376502914502,-0.2753412106934126,23.802144282763418,-0.21505714052562508,24.238905330403124,-0.15551572966068877,24.653900796312584,-0.09672616223939434,25.047401016008997,-0.038694426573386675,25.419703508270054,0.018576463785584002,25.771130973356158,0.07508624897640778,26.102029291232633,0.13083720175936092,26.412765519791954,0.18583390644685271,26.703725893075976,0.24008303783417095,24.047026632368596,1.1239482737485993,23.709191653675454,1.1765663647034343,23.35569714531517,1.228803490029853,22.986604951671847,1.2805952610068214,22.60200984177028,1.331874107263316,22.202038317209194,1.3825695688697968,21.786847420094645,1.4326085884296897,21.356623540973274,1.4819158031708628,20.911581226765694,1.5304138370371048,20.451961988699754,1.578023592779604,19.978033110243885,1.6246645440484238,19.490086455040434,1.6702550274839854,18.988437274838958,1.7147125348085417,18.47342301742954,1.757954004917657,17.945402134576163,1.7998961159716864,17.402887616651988,1.84079099029538,16.84439441239185,1.8808148465110162,16.270335015231623,1.9197743600119757,15.681167989675375,1.9574818003331853,15.077395382621525,1.9937555633571826,14.459560062085515,2.0284206952522794,13.828242992219684,2.0613094059618726,13.184060453531174,2.09226157006395,12.527661217198611,2.121125212819846,11.859723682388305,2.1477569792312887,11.180952985470746,2.172022583924806,10.492078090038206,2.193797239682515,9.793848866624105,2.212966062438372,9.087033171025041,2.2294244505589154,8.372413930126122,2.2430784362275573,7.650786244130444,2.253845006751479,6.922954514093464,2.261652393610169,6.189729603663016,2.2664403270646667,5.451926043925743,2.268160254146552,4.710359290260703,2.2667755178457387,3.9658430401009417,2.262261495316116,3.2191866205037556,2.2546056929180938,2.47119245443044,2.243807795917097,1.7226536146362705,2.229879670657057,0.9743514740714936,2.2128453170279707,0.22705346169407914,2.1927407690465404,-0.5184890674049818,2.1696139413689823,-1.2615428386630994,2.14352441955503,-2.00139453259343,2.1145431919021953,-2.7373525183174117,2.0827523206693277,-3.4687484371816755,2.0482445505085334,-4.194938627558651,2.0111228519244913,-4.915305381930008,1.9714998975802303,-5.629258027352224,1.929497469268405,-6.336233820403525,1.8852457933671318,-7.035698647711399,1.8388828025994255,-7.727147523159893,1.790553321915292,-8.41010487287605,1.7404081763155324,-9.084124599094547,1.688603218436293,-9.748789913999937,1.6352982737134316,-10.403712934645615,1.5806560009457344,-11.048534030048781,1.5248406660760419,-11.682920911560657,1.46801682700933,-12.306567457611155,1.4103479272868027,-12.919192263927265,1.3519947964350378,-13.520536910324378,1.293114054809246,-14.110363935169804,1.2338564207496812,-14.688454508617632,1.1743649178702666,-15.254605795714351,1.1147729802984776,-15.808628000474258,1.0552024536855298,-16.309418364327442,0.9989777904944918,-16.80138135993215,0.9419266203876011,-17.284231945859446,0.8840646650955848,-17.75767381191222,0.8254043924679481,-18.221399062004792,0.7659548353353105,-18.675087897042502,0.7057214103717412,-19.11840829780128,0.6447057369570954,-19.551015707807252,0.5829054560393502,-19.972552716216345,0.52031404899694,-20.38264874069386,0.4569206565010936,-20.78091971029405,0.3927098973781687,-21.166967748339765,0.32766168747198887,-21.540380855301986,0.2617510585061787,-21.90073259167943,0.1949479769465008,-22.247581760878155,0.12721716286319126"></polyline></clipPath><filter id="fuzzy"><feTurbulence id="turbulence" baseFrequency="0.05" numOctaves="3" type="noise" result="noise"></feTurbulence><feDisplacementMap in="SourceGraphic" in2="noise" scale="2"></feDisplacementMap></filter><linearGradient id="rainbowGradient" x1="0%" y1="0%" x2="100%" y2="0%"><stop offset="0%" style="stop-color: rgb(145, 85, 61);  stop-opacity: 1"></stop><stop offset="50%" style="stop-color: rgb(64, 224, 208);  stop-opacity: 1"></stop><stop offset="100%" style="stop-color: rgb(145, 85, 61);  stop-opacity: 1"></stop></linearGradient></defs><title>That&#39;s an ugly face</title><desc>CREATED BY XUAN TANG, MORE INFO AT TXSTC55.GITHUB.IO</desc><rect x="-100" y="-100" width="100%" height="100%" opacity="1" fill="rgb(245, 245, 220)"></rect><polyline id="faceContour" points="63,2,63,1,63,3,63,5,62,5,62,8,62,8,62,10,61,13,61,13,61,15,61,17,61,18,61,19,60,22,60,22,59,24,59,24,59,24,59,26,59,26,58,30,58,31,57,33,57,34,57,34,56,35,55,38,55,38,54,41,54,41,53,43,54,42,52,46,53,45,52,46,51,50,50,51,50,50,49,51,49,53,49,53,47,56,47,56,47,57,45,59,44,61,44,62,44,61,43,64,43,63,42,64,40,67,40,66,38,69,38,69,37,70,38,70,37,71,36,71,35,73,35,74,34,74,32,76,31,77,30,78,31,77,29,78,27,80,27,80,27,80,26,81,26,81,24,82,23,83,21,84,21,84,20,85,20,85,18,86,19,85,17,86,16,87,16,86,14,87,13,87,12,88,13,87,11,88,11,88,10,88,9,88,6,89,6,89,5,89,4,89,4,89,2,90,2,90,0,89,-1,89,0,90,-2,89,-3,89,-5,89,-5,89,-6,89,-6,89,-8,88,-9,88,-9,88,-10,88,-10,88,-11,88,-13,87,-15,86,-15,86,-16,86,-16,86,-17,85,-19,84,-18,85,-20,84,-22,83,-21,83,-22,82,-24,82,-24,81,-26,80,-25,81,-27,79,-28,78,-28,78,-30,77,-30,76,-31,75,-32,74,-31,75,-32,74,-34,73,-35,72,-35,71,-36,70,-38,68,-39,67,-38,69,-39,67,-40,65,-41,64,-42,63,-42,62,-42,63,-44,60,-44,60,-45,58,-46,57,-47,55,-46,57,-48,52,-47,54,-49,51,-50,50,-50,49,-50,48,-51,48,-51,47,-52,45,-52,44,-53,43,-54,40,-54,41,-54,39,-55,38,-56,34,-56,36,-56,34,-56,33,-57,31,-57,31,-58,28,-58,27,-58,26,-59,23,-59,24,-60,22,-60,22,-60,18,-61,17,-60,17,-61,17,-61,14,-61,13,-62,10,-61,12,-62,9,-62,7,-62,7,-63,4,-62,5,-63,0,-63,-1,-63,-2,-63,-2,-63,-3,-63,-6,-63,-7,-63,-7,-63,-10,-63,-13,-63,-11,-63,-12,-63,-14,-63,-15,-63,-18,-62,-19,-62,-20,-62,-21,-62,-22,-62,-26,-61,-27,-61,-28,-61,-28,-61,-30,-61,-31,-60,-31,-60,-32,-59,-35,-59,-38,-58,-39,-59,-40,-58,-40,-57,-43,-57,-44,-57,-43,-57,-44,-56,-46,-56,-46,-56,-48,-54,-51,-54,-51,-53,-53,-53,-53,-53,-54,-52,-55,-51,-56,-51,-57,-50,-59,-50,-59,-49,-60,-47,-63,-47,-63,-47,-64,-47,-63,-46,-65,-44,-67,-43,-68,-43,-68,-43,-68,-41,-70,-41,-71,-41,-71,-39,-73,-39,-73,-37,-74,-37,-75,-37,-75,-35,-76,-33,-78,-34,-77,-31,-79,-31,-80,-31,-80,-29,-81,-28,-81,-28,-81,-25,-83,-25,-83,-24,-83,-25,-83,-22,-85,-22,-84,-19,-85,-20,-85,-17,-86,-17,-86,-16,-87,-16,-87,-15,-87,-13,-88,-12,-88,-10,-88,-11,-88,-8,-89,-8,-89,-6,-89,-6,-89,-4,-89,-2,-89,-1,-89,-2,-90,1,-89,1,-90,3,-89,3,-89,5,-90,4,-89,6,-89,8,-89,8,-89,10,-89,10,-89,14,-88,13,-88,14,-88,16,-87,15,-88,18,-87,18,-87,20,-86,21,-86,21,-86,23,-85,23,-85,25,-84,26,-83,26,-83,26,-83,29,-82,28,-82,31,-80,31,-80,32,-79,33,-79,34,-79,35,-78,36,-77,36,-77,37,-76,39,-74,39,-74,40,-73,41,-72,41,-72,43,-70,43,-70,44,-69,45,-68,45,-67,46,-67,48,-64,47,-64,47,-64,48,-63,49,-62,50,-60,51,-59,51,-58,51,-58,53,-56,53,-55,54,-53,54,-53,54,-52,55,-49,56,-49,56,-47,57,-46,57,-44,58,-42,58,-43,58,-41,58,-41,59,-40,59,-39,60,-36,60,-35,60,-34,60,-32,61,-32,62,-27,61,-28,62,-25,62,-25,62,-24,62,-25,62,-22,62,-21,63,-19,63,-17,63,-15,63,-12,63,-14,63,-12,63,-10,63,-9,63,-6,63,-6,63,-5,63,-4,63,-1,63,2,63,1" fill="#ffc9a9" stroke="black" stroke-width="1.6666666666666665" stroke-linejoin="round" filter="url(#fuzzy)"></polyline><g transform="translate(34.64493462678014 -27.459466779717168)"><polyline id="rightCountour" points="-24.12159697611903,-0.8732415377037497,-24.08632292595611,-0.947100470926975,-24.02542888479579,-1.021014799511271,-23.938222669856383,-1.0946508643854962,-23.82410951203765,-1.167694895371604,-23.682589188512587,-1.2398525500165132,-23.513253155319138,-1.3108484524239805,-23.315781679951968,-1.3804257320864717,-23.0899409739542,-1.4483455627170336,-22.835580325509177,-1.514386701081164,-22.55262923203223,-1.578345025828685,-22.241094532762375,-1.6400330763256132,-21.90105754135412,-1.6992795914860332,-21.532671178469187,-1.7559290486039665,-21.136157104368273,-1.8098412021852446,-20.711802851502807,-1.8608906227793813,-20.38573938757342,-1.94541009515418,-20.010581022109115,-2.024438826354186,-19.58640729414315,-2.0977136780550323,-19.113631834033825,-2.165022530650794,-18.592975549666974,-2.226201057116689,-18.025440745535565,-2.281129599750038,-17.41228615974989,-2.329730148138806,-16.75500290403156,-2.3719634167070947,-16.055291291744894,-2.407826020186925,-15.315038539018953,-2.437347745365663,-14.536297324013631,-2.4605889174584386,-13.721265189383296,-2.477637859454906,-12.872264772991262,-2.488608442789692,-11.991724851928506,-2.4936377276858925,-11.082162184890063,-2.4928836915209516,-10.14616413796249,-2.4865230435642887,-9.186372078875701,-2.474749124436006,-8.205465524772736,-2.4577698886360433,-7.2061470285506495,-2.4358059684931197,-6.191127788826121,-2.4090888178828105,-5.163113968578967,-2.3778589340641143,-4.124793707527161,-2.3423641559838586,-3.078824813286582,-2.302858037398292,-2.0278231163689737,-2.2595982931612086,-0.9743514740714927,-2.2128453170279707,0.07909059168879118,-2.162860769324748,1.1300766375419937,-2.109906232832365,2.1762624377807986,-2.05424193523406,3.2153945343706516,-1.9961255364765522,4.245318212801425,-1.9358109793937213,5.263984918727148,-1.8735474019422873,6.269459130340401,-1.8095781093988128,7.259924701427997,-1.7441396048673923,8.23369069005452,-1.6774606764473783,9.189196687820402,-1.609761539410479,10.12501766464106,-1.5412530317365951,11.039868343993762,-1.4721358613577378,11.93260712357879,-1.4025999034593746,12.802239556341547,-1.332823546188556,13.64792140680218,-1.2629730831181722,14.46896129763933,-1.1932021508166908,15.264822961474666,-1.123651209872719,16.0351271128047,-1.054447067723752,16.779652955026656,-0.9857024416384412,17.498339337504795,-0.9175155602017453,18.19128557762403,-0.8499698016523076,18.858751962777227,-0.7831333674214078,19.501159947232942,-0.7170589892228447,20.11909205883013,-0.6517836680430904,20.71329153044652,-0.5873284433810732,21.28454862774231,-0.5235961676788465,21.833101078230207,-0.4605049557144132,22.359014080531207,-0.39808328681310967,22.86239202719346,-0.3363553391248568,23.343376502914502,-0.2753412106934126,23.802144282763418,-0.21505714052562508,24.238905330403124,-0.15551572966068877,24.653900796312584,-0.09672616223939434,25.047401016008997,-0.038694426573386675,25.419703508270054,0.018576463785584002,25.771130973356158,0.07508624897640778,26.102029291232633,0.13083720175936092,26.412765519791954,0.18583390644685271,26.703725893075976,0.24008303783417095,24.047026632368596,1.1239482737485993,23.709191653675454,1.1765663647034343,23.35569714531517,1.228803490029853,22.986604951671847,1.2805952610068214,22.60200984177028,1.331874107263316,22.202038317209194,1.3825695688697968,21.786847420094645,1.4326085884296897,21.356623540973274,1.4819158031708628,20.911581226765694,1.5304138370371048,20.451961988699754,1.578023592779604,19.978033110243885,1.6246645440484238,19.490086455040434,1.6702550274839854,18.988437274838958,1.7147125348085417,18.47342301742954,1.757954004917657,17.945402134576163,1.7998961159716864,17.402887616651988,1.84079099029538,16.84439441239185,1.8808148465110162,16.270335015231623,1.9197743600119757,15.681167989675375,1.9574818003331853,15.077395382621525,1.9937555633571826,14.459560062085515,2.0284206952522794,13.828242992219684,2.0613094059618726,13.184060453531174,2.09226157006395,12.527661217198611,2.121125212819846,11.859723682388305,2.1477569792312887,11.180952985470746,2.172022583924806,10.492078090038206,2.193797239682515,9.793848866624105,2.212966062438372,9.087033171025041,2.2294244505589154,8.372413930126122,2.2430784362275573,7.650786244130444,2.253845006751479,6.922954514093464,2.261652393610169,6.189729603663016,2.2664403270646667,5.451926043925743,2.268160254146552,4.710359290260703,2.2667755178457387,3.9658430401009417,2.262261495316116,3.2191866205037556,2.2546056929180938,2.47119245443044,2.243807795917097,1.7226536146362705,2.229879670657057,0.9743514740714936,2.2128453170279707,0.22705346169407914,2.1927407690465404,-0.5184890674049818,2.1696139413689823,-1.2615428386630994,2.14352441955503,-2.00139453259343,2.1145431919021953,-2.7373525183174117,2.0827523206693277,-3.4687484371816755,2.0482445505085334,-4.194938627558651,2.0111228519244913,-4.915305381930008,1.9714998975802303,-5.629258027352224,1.929497469268405,-6.336233820403525,1.8852457933671318,-7.035698647711399,1.8388828025994255,-7.727147523159893,1.790553321915292,-8.41010487287605,1.7404081763155324,-9.084124599094547,1.688603218436293,-9.748789913999937,1.6352982737134316,-10.403712934645615,1.5806560009457344,-11.048534030048781,1.5248406660760419,-11.682920911560657,1.46801682700933,-12.306567457611155,1.4103479272868027,-12.919192263927265,1.3519947964350378,-13.520536910324378,1.293114054809246,-14.110363935169804,1.2338564207496812,-14.688454508617632,1.1743649178702666,-15.254605795714351,1.1147729802984776,-15.808628000474258,1.0552024536855298,-16.309418364327442,0.9989777904944918,-16.80138135993215,0.9419266203876011,-17.284231945859446,0.8840646650955848,-17.75767381191222,0.8254043924679481,-18.221399062004792,0.7659548353353105,-18.675087897042502,0.7057214103717412,-19.11840829780128,0.6447057369570954,-19.551015707807252,0.5829054560393502,-19.972552716216345,0.52031404899694,-20.38264874069386,0.4569206565010936,-20.78091971029405,0.3927098973781687,-21.166967748339765,0.32766168747198887,-21.540380855301986,0.2617510585061787,-21.90073259167943,0.1949479769465008,-22.247581760878155,0.12721716286319126" fill="white" stroke="white" stroke-width="0" stroke-linejoin="round" filter="url(#fuzzy)"></polyline></g><g transform="translate(-38.701634828341845 -27.11520399577575)"><polyline id="leftCountour" points="25.47406373504592,-0.735244849539251,25.42478708287366,-0.8434887922304473,25.353416413271052,-0.9523552078332778,25.258995444376,-1.0613359646311593,25.140674456670073,-1.1699517850399006,24.9977072823127,-1.277751593752092,24.829448294475373,-1.3843118658815,24.63534939667588,-1.4892359751074615,24.41495701211253,-1.5921535418192725,24.167909072998334,-1.6927197812605865,23.893932009895238,-1.7906148516738052,23.592837741048314,-1.88554320244447,23.264520661720013,-1.9772329222456582,22.908954633524342,-2.065435087182375,22.526189973761085,-2.149923108935946,22.116350444750026,-2.23049208290841,21.817913096880215,-2.360469944621695,21.47052131491764,-2.482845145251262,21.07401444219177,-2.597198696387033,20.628579343575343,-2.7031844477133538,20.134723418089944,-2.800524767066884,19.593248534865754,-2.88900634792092,19.005225877779846,-2.968476142392033,18.37197168409733,-3.0388374178649205,17.6950238624397,-3.1000459353313525,16.97611947540492,-3.1521062475391046,16.217173072163284,-3.195068115046758,15.420255856353776,-3.229023038280273,14.587575674605063,-3.2541009036871946,13.72145781100556,-3.2704667420844205,12.824326572846878,-3.2783175972953726,11.898687652965133,-3.2778795031724934,10.94711125400438,-3.2694045671009473,9.97221595992653,-3.2531681580794087,8.976653340092227,-3.229466197473836,7.963093271236898,-3.1986125505401057,6.934209962666453,-3.1609365168114074,5.892668669996959,-3.116780417446285,4.841113082762633,-3.066497277633207,3.7821533712165634,-3.0104486021475605,2.7183548776484834,-2.9490022421569577,1.6522274375439885,-2.882530351370727,0.5862153159095413,-2.8114074296295106,-0.4773122559123708,-2.7360084520308208,-1.5360699576135302,-2.65670708168647,-2.587864686151409,-2.5738739642077357,-3.6306033055173472,-2.487875102014187,-4.662299854717089,-2.399070306562021,-5.681082228639355,-2.3078117265878237,-6.685198346488061,-2.2144424504636335,-7.673021822453839,-2.119295180759197,-8.643057153300465,-2.0226909791073053,-9.59394443754187,-1.9249380794681,-10.52446364088533,-1.8263307678882403,-11.433538422616508,-1.7271483268508103,-12.320239537601946,-1.6276540423118615,-13.183787828584673,-1.5280942715194838,-14.023556823448587,-1.4286975697112803,-14.839074952127117,-1.3296738737861438,-15.630027397832016,-1.2312137410462196,-16.39625759727774,-1.1334876411049508,-17.137768404577095,-1.0366452990570767,-17.854722933483863,-0.940815088006492,-18.547445092657927,-0.8461034690478428,-19.216419828628613,-0.752594476797753,-19.862293091131907,-0.6603492485715681,-20.48599913013352,-0.5692172032540008,-21.08795745660772,-0.47906091479792323,-21.668193591845295,-0.38993871381742595,-22.22677292602526,-0.3019023284848441,-22.76379875272785,-0.2149971395457202,-23.279410303447616,-0.12926243533375859,-23.77378078210647,-0.044731666785786994,-24.247115399566766,0.038567297543287915,-24.699649408144296,0.12061191646551761,-25.13164613612143,0.20138472114495665,-25.543395022260082,0.2808730600827024,-25.93520965031485,0.3590688441019366,-26.30742578354602,0.43596829133296755,-26.660399399232652,0.511571672198269,-26.03192576106098,1.6410558177645869,-25.750405862855953,1.6984767752090795,-25.4525537449079,1.7554204591956561,-25.13822264702302,1.8118327763613697,-24.80728881318283,1.867657168223889,-24.459651647516452,1.9228348162061317,-24.09523387027309,1.9773048466609047,-23.713981673794365,2.031004535895535,-23.315864878486753,2.0838695151965068,-22.900877088793933,2.135833975854098,-22.469035849169206,2.186830874187012,-22.02038280004788,2.2367921365670203,-21.554983833819666,2.2856488644435853,-21.072929250801057,2.33333153936851,-20.574333915207735,2.3797702280205635,-20.05835620274332,2.425197364009115,-19.5239099716671,2.469780757793302,-18.970824574939126,2.5133557268645976,-18.39901238259812,2.5557610963698236,-17.80846785979902,2.596839624838042,-17.19926650868565,2.6364384253406223,-16.57156367293383,2.6744093805536364,-15.925593203800322,2.7106095501917205,-15.26166598651307,2.7449015692825633,-14.580168325838127,2.7771540357511713,-13.881560189658618,2.8072418857830472,-13.166373309401237,2.835046755435447,-12.435209136145609,2.86045732696585,-11.688736651251972,2.8833696583468096,-10.927690030342543,2.9036874944363134,-10.152866159472017,2.9213225582728155,-9.36512200232257,2.9361948209640927,-8.565371817258786,2.9482327486390547,-7.754584223077931,2.957373524931686,-6.933779112290939,2.9635632474662463,-6.104024410769565,2.9667570968128887,-5.266432682595062,2.966919476382837,-4.422157578943848,2.964024121732293,-3.5723901298454885,2.958054177744186,-2.718354877648483,2.9490022421569577,-1.8613058510292118,2.9368703739094917,-1.0025223783794637,2.9216700647713667,-0.14330473940794164,2.9034221727275646,0.7150303462088266,2.8821568155867956,1.571154394290791,2.857913223282575,2.4237319968984634,2.830739547336217,3.2714258295214123,2.8006926259508864,4.112901825875718,2.7678377032058545,4.946834521475039,2.732248100820117,5.771912567139791,2.694004840954519,6.586844413609161,2.6531962185215328,7.390364168420439,2.609917321471844,8.181237626220302,2.5642694975268956,8.95826847367265,2.516359765826532,9.7203046701276,2.4663001719609015,10.466245005216198,2.414207084855758,11.195045834535463,2.360200433980321,11.905727994588336,2.3044028853468284,12.597383898143185,2.246938954770955,13.269184811177368,2.187934056862221,13.920388312569557,2.1275134882135536,14.550345937705305,2.0658013432591487,15.158511007160566,2.0029193612697864,15.744446641627615,1.9389857029547366,16.307833964248122,1.8741136551394197,16.856822229359718,1.815662563067416,17.39273281689024,1.7558203652536815,17.915259261109323,1.6945925805463602,18.42410995463343,1.631982850594563,18.919008972534353,1.5679928249855204,19.399696896447626,1.5026220463817364,19.865931638680944,1.4358678356581442,20.317489266322628,1.3677251770392593,20.75416482535003,1.2981866032363336,21.175773164738008,1.2272420805845101,21.582149760567326,1.1548788941799768,21.9731515401331,1.0810815330171213,22.348657706053256,1.0058315751256846,22.708570560376923,0.9291075727079151,23.05281632869291,0.8508849372757245" fill="white" stroke="white" stroke-width="0" stroke-linejoin="round" filter="url(#fuzzy)"></polyline></g><g transform="translate(34.64493462678014 -27.459466779717168)"><polyline id="rightUpper" points="-23.292909518422967,-0.22624776313716288,-23.452284118421396,-0.2764962021442824,-23.598949137534518,-0.33133197333234254,-23.73108054871233,-0.390197164452192,-23.846980412668774,-0.452558363829058,-23.945074010473505,-0.517906199194419,-24.02390697614363,-0.5857548765178757,-24.082142429235446,-0.6556417188390221,-24.11855810743623,-0.7271267050993176,-24.132043499155948,-0.7997920089739587,-24.12159697611903,-0.8732415377037497,-24.08632292595611,-0.947100470926975,-24.02542888479579,-1.021014799511271,-23.938222669856383,-1.0946508643854962,-23.82410951203765,-1.167694895371604,-23.682589188512587,-1.2398525500165132,-23.513253155319138,-1.3108484524239805,-23.315781679951968,-1.3804257320864717,-23.0899409739542,-1.4483455627170336,-22.835580325509177,-1.514386701081164,-22.55262923203223,-1.578345025828685,-22.241094532762375,-1.6400330763256132,-21.90105754135412,-1.6992795914860332,-21.532671178469187,-1.7559290486039665,-21.136157104368273,-1.8098412021852446,-20.711802851502807,-1.8608906227793813,-20.38573938757342,-1.94541009515418,-20.010581022109115,-2.024438826354186,-19.58640729414315,-2.0977136780550323,-19.113631834033825,-2.165022530650794,-18.592975549666974,-2.226201057116689,-18.025440745535565,-2.281129599750038,-17.41228615974989,-2.329730148138806,-16.75500290403156,-2.3719634167070947,-16.055291291744894,-2.407826020186925,-15.315038539018953,-2.437347745365663,-14.536297324013631,-2.4605889174584386,-13.721265189383296,-2.477637859454906,-12.872264772991262,-2.488608442789692,-11.991724851928506,-2.4936377276858925,-11.082162184890063,-2.4928836915209516,-10.14616413796249,-2.4865230435642887,-9.186372078875701,-2.474749124436006,-8.205465524772736,-2.4577698886360433,-7.2061470285506495,-2.4358059684931197,-6.191127788826121,-2.4090888178828105,-5.163113968578967,-2.3778589340641143,-4.124793707527161,-2.3423641559838586,-3.078824813286582,-2.302858037398292,-2.0278231163689737,-2.2595982931612086,-0.9743514740714927,-2.2128453170279707,0.07909059168879118,-2.162860769324748,1.1300766375419937,-2.109906232832365,2.1762624377807986,-2.05424193523406,3.2153945343706516,-1.9961255364765522,4.245318212801425,-1.9358109793937213,5.263984918727148,-1.8735474019422873,6.269459130340401,-1.8095781093988128,7.259924701427997,-1.7441396048673923,8.23369069005452,-1.6774606764473783,9.189196687820402,-1.609761539410479,10.12501766464106,-1.5412530317365951,11.039868343993762,-1.4721358613577378,11.93260712357879,-1.4025999034593746,12.802239556341547,-1.332823546188556,13.64792140680218,-1.2629730831181722,14.46896129763933,-1.1932021508166908,15.264822961474666,-1.123651209872719,16.0351271128047,-1.054447067723752,16.779652955026656,-0.9857024416384412,17.498339337504795,-0.9175155602017453,18.19128557762403,-0.8499698016523076,18.858751962777227,-0.7831333674214078,19.501159947232942,-0.7170589892228447,20.11909205883013,-0.6517836680430904,20.71329153044652,-0.5873284433810732,21.28454862774231,-0.5235961676788465,21.833101078230207,-0.4605049557144132,22.359014080531207,-0.39808328681310967,22.86239202719346,-0.3363553391248568,23.343376502914502,-0.2753412106934126,23.802144282763418,-0.21505714052562508,24.238905330403124,-0.15551572966068877,24.653900796312584,-0.09672616223939434,25.047401016008997,-0.038694426573386675,25.419703508270054,0.018576463785584002,25.771130973356158,0.07508624897640778,26.102029291232633,0.13083720175936092,26.412765519791954,0.18583390644685271,26.703725893075976,0.24008303783417095,26.975313819498165,0.2935931401302289,27.22794788006579,0.3463744058883115,27.46205982660217,0.3984384549368205,27.67809257996892,0.4497981133100224,27.876498228288106,0.500467192178793,28.05773602516454,0.5504602667813657,28.222270387907972,0.5997924553540755,28.37056889575531,0.6484791980621064,28.503100288092845,0.6965360359302374,28.62033246267849,0.7439783897735892" fill="none" stroke="black" stroke-width="1.6666666666666665" stroke-linejoin="round" filter="url(#fuzzy)"></polyline><polyline id="rightLower" points="-24.865182811057302,-0.6129916617228285,-24.681098427790506,-0.5327594058204911,-24.478218104819202,-0.4541360837794891,-24.257148051286435,-0.3770239891432683,-24.018476548038514,-0.3013324732274414,-23.762774264745396,-0.22697776398212471,-23.490594577021117,-0.15388278485427326,-23.20247388354418,-0.08197697365001727,-22.898931923177972,-0.011196101396998448,-22.580472092091167,0.05851790879329491,-22.247581760878155,0.12721716286319126,-21.90073259167943,0.1949479769465008,-21.540380855301986,0.2617510585061787,-21.166967748339765,0.32766168747198887,-20.78091971029405,0.3927098973781687,-20.38264874069386,0.4569206565010936,-19.972552716216345,0.52031404899694,-19.551015707807252,0.5829054560393502,-19.11840829780128,0.6447057369570954,-18.675087897042502,0.7057214103717412,-18.221399062004792,0.7659548353353105,-17.75767381191222,0.8254043924679481,-17.284231945859446,0.8840646650955848,-16.80138135993215,0.9419266203876011,-16.309418364327442,0.9989777904944918,-15.808628000474258,1.0552024536855298,-15.254605795714351,1.1147729802984776,-14.688454508617632,1.1743649178702666,-14.110363935169804,1.2338564207496812,-13.520536910324378,1.293114054809246,-12.919192263927265,1.3519947964350378,-12.306567457611155,1.4103479272868027,-11.682920911560657,1.46801682700933,-11.048534030048781,1.5248406660760419,-10.403712934645615,1.5806560009457344,-9.748789913999937,1.6352982737134316,-9.084124599094547,1.688603218436293,-8.41010487287605,1.7404081763155324,-7.727147523159893,1.790553321915292,-7.035698647711399,1.8388828025994255,-6.336233820403525,1.8852457933671318,-5.629258027352224,1.929497469268405,-4.915305381930008,1.9714998975802303,-4.194938627558651,2.0111228519244913,-3.4687484371816755,2.0482445505085334,-2.7373525183174117,2.0827523206693277,-2.00139453259343,2.1145431919021953,-1.2615428386630994,2.14352441955503,-0.5184890674049818,2.1696139413689823,0.22705346169407914,2.1927407690465404,0.9743514740714936,2.2128453170279707,1.7226536146362705,2.229879670657057,2.47119245443044,2.243807795917097,3.2191866205037556,2.2546056929180938,3.9658430401009417,2.262261495316116,4.710359290260703,2.2667755178457387,5.451926043925743,2.268160254146552,6.189729603663016,2.2664403270646667,6.922954514093464,2.261652393610169,7.650786244130444,2.253845006751479,8.372413930126122,2.2430784362275573,9.087033171025041,2.2294244505589154,9.793848866624105,2.212966062438372,10.492078090038206,2.193797239682515,11.180952985470746,2.172022583924806,11.859723682388305,2.1477569792312887,12.527661217198611,2.121125212819846,13.184060453531174,2.09226157006395,13.828242992219684,2.0613094059618726,14.459560062085515,2.0284206952522794,15.077395382621525,1.9937555633571826,15.681167989675375,1.9574818003331853,16.270335015231623,1.9197743600119757,16.84439441239185,1.8808148465110162,17.402887616651988,1.84079099029538,17.945402134576163,1.7998961159716864,18.47342301742954,1.757954004917657,18.988437274838958,1.7147125348085417,19.490086455040434,1.6702550274839854,19.978033110243885,1.6246645440484238,20.451961988699754,1.578023592779604,20.911581226765694,1.5304138370371048,21.356623540973274,1.4819158031708628,21.786847420094645,1.4326085884296897,22.202038317209194,1.3825695688697968,22.60200984177028,1.331874107263316,22.986604951671847,1.2805952610068214,23.35569714531517,1.228803490029853,23.709191653675454,1.1765663647034343,24.047026632368596,1.1239482737485993,24.369174353717824,1.0710101321449104,24.675642398820358,1.017809089038982,24.96647484961413,0.9643982356530023,25.241753480944443,0.9108263131932547,25.501598952630633,0.85713742075864,25.74617200153279,0.8033707232491965,25.97567463361841,0.7495601592746255,26.190351316029048,0.6957341490628091,26.39049016914707,0.6419153023683355,26.576424158662267,0.5881201263810181" fill="none" stroke="black" stroke-width="2.2222222222222223" stroke-linejoin="round" filter="url(#fuzzy)"></polyline><!--[--><circle r="3.1340993136654887" cx="-2.337514058880321" cy="0.8560047057182434" stroke="black" fill="none" stroke-width="1" filter="url(#fuzzy)" clip-path="url(#rightEyeClipPath)"></circle><circle r="3.5026925337650927" cx="-4.3328168244488605" cy="-1.7321347652396257" stroke="black" fill="none" stroke-width="1" filter="url(#fuzzy)" clip-path="url(#rightEyeClipPath)"></circle><circle r="3.510780607329057" cx="-2.3208580934946608" cy="-1.2218588158839632" stroke="black" fill="none" stroke-width="1" filter="url(#fuzzy)" clip-path="url(#rightEyeClipPath)"></circle><circle r="3.3806329592021593" cx="-2.270053025358825" cy="1.9971666263165737" stroke="black" fill="none" stroke-width="1" filter="url(#fuzzy)" clip-path="url(#rightEyeClipPath)"></circle><circle r="3.4084541955096204" cx="-1.4834033656457963" cy="1.3077197071966191" stroke="black" fill="none" stroke-width="1" filter="url(#fuzzy)" clip-path="url(#rightEyeClipPath)"></circle><circle r="3.3959790046695715" cx="-2.7770826926125456" cy="-1.745038884930533" stroke="black" fill="none" stroke-width="1" filter="url(#fuzzy)" clip-path="url(#rightEyeClipPath)"></circle><circle r="3.125123470274417" cx="-1.2824724323068182" cy="1.2594648722998958" stroke="black" fill="none" stroke-width="1" filter="url(#fuzzy)" clip-path="url(#rightEyeClipPath)"></circle><circle r="3.8654137103767443" cx="-2.8991983466304188" cy="0.14733869462217442" stroke="black" fill="none" stroke-width="1" filter="url(#fuzzy)" clip-path="url(#rightEyeClipPath)"></circle><circle r="3.1136543793760967" cx="-3.409199838320027" cy="1.31582515625104" stroke="black" fill="none" stroke-width="1" filter="url(#fuzzy)" clip-path="url(#rightEyeClipPath)"></circle><circle r="4.025311093970929" cx="-3.0861733640173683" cy="-2.2558651538246934" stroke="black" fill="none" stroke-width="1" filter="url(#fuzzy)" clip-path="url(#rightEyeClipPath)"></circle><!--]--></g><g transform="translate(-38.701634828341845 -27.11520399577575)"><polyline id="leftUpper" points="25.044260736377762,0.17923387000136926,25.13773241445238,0.11197588672313374,25.225196169091664,0.03728372785250511,25.3044645083787,-0.04401008151166075,25.373486609398096,-0.1311083889589657,25.4303453075702,-0.22324876291186269,25.473254085985317,-0.3197028407700504,25.50055406473789,-0.41977567705486507,25.51071099026077,-0.5228050915536728,25.50231222465937,-0.6281610174642656,25.47406373504592,-0.735244849539251,25.42478708287366,-0.8434887922304473,25.353416413271052,-0.9523552078332778,25.258995444376,-1.0613359646311593,25.140674456670073,-1.1699517850399006,24.9977072823127,-1.277751593752092,24.829448294475373,-1.3843118658815,24.63534939667588,-1.4892359751074615,24.41495701211253,-1.5921535418192725,24.167909072998334,-1.6927197812605865,23.893932009895238,-1.7906148516738052,23.592837741048314,-1.88554320244447,23.264520661720013,-1.9772329222456582,22.908954633524342,-2.065435087182375,22.526189973761085,-2.149923108935946,22.116350444750026,-2.23049208290841,21.817913096880215,-2.360469944621695,21.47052131491764,-2.482845145251262,21.07401444219177,-2.597198696387033,20.628579343575343,-2.7031844477133538,20.134723418089944,-2.800524767066884,19.593248534865754,-2.88900634792092,19.005225877779846,-2.968476142392033,18.37197168409733,-3.0388374178649205,17.6950238624397,-3.1000459353313525,16.97611947540492,-3.1521062475391046,16.217173072163284,-3.195068115046758,15.420255856353776,-3.229023038280273,14.587575674605063,-3.2541009036871946,13.72145781100556,-3.2704667420844205,12.824326572846878,-3.2783175972953726,11.898687652965133,-3.2778795031724934,10.94711125400438,-3.2694045671009473,9.97221595992653,-3.2531681580794087,8.976653340092227,-3.229466197473836,7.963093271236898,-3.1986125505401057,6.934209962666453,-3.1609365168114074,5.892668669996959,-3.116780417446285,4.841113082762633,-3.066497277633207,3.7821533712165634,-3.0104486021475605,2.7183548776484834,-2.9490022421569577,1.6522274375439885,-2.882530351370727,0.5862153159095413,-2.8114074296295106,-0.4773122559123708,-2.7360084520308208,-1.5360699576135302,-2.65670708168647,-2.587864686151409,-2.5738739642077357,-3.6306033055173472,-2.487875102014187,-4.662299854717089,-2.399070306562021,-5.681082228639355,-2.3078117265878237,-6.685198346488061,-2.2144424504636335,-7.673021822453839,-2.119295180759197,-8.643057153300465,-2.0226909791073053,-9.59394443754187,-1.9249380794681,-10.52446364088533,-1.8263307678882403,-11.433538422616508,-1.7271483268508103,-12.320239537601946,-1.6276540423118615,-13.183787828584673,-1.5280942715194838,-14.023556823448587,-1.4286975697112803,-14.839074952127117,-1.3296738737861438,-15.630027397832016,-1.2312137410462196,-16.39625759727774,-1.1334876411049508,-17.137768404577095,-1.0366452990570767,-17.854722933483863,-0.940815088006492,-18.547445092657927,-0.8461034690478428,-19.216419828628613,-0.752594476797753,-19.862293091131907,-0.6603492485715681,-20.48599913013352,-0.5692172032540008,-21.08795745660772,-0.47906091479792323,-21.668193591845295,-0.38993871381742595,-22.22677292602526,-0.3019023284848441,-22.76379875272785,-0.2149971395457202,-23.279410303447616,-0.12926243533375859,-23.77378078210647,-0.044731666785786994,-24.247115399566766,0.038567297543287915,-24.699649408144296,0.12061191646551761,-25.13164613612143,0.20138472114495665,-25.543395022260082,0.2808730600827024,-25.93520965031485,0.3590688441019366,-26.30742578354602,0.43596829133296755,-26.660399399232652,0.511571672198269,-26.994504723185603,0.5858830543975253,-27.310132264260627,0.658910047892669,-27.607686848871403,0.7306635498929253,-27.887585655502583,0.8011574898398501,-28.150256249222895,0.8704085743923742,-28.396134616198147,0.9384360324118445,-28.62566319820432,1.0052613599470632,-28.839288927140593,1.0709080652193308,-29.037461259542432,1.1354014136074866,-29.220630211094644,1.198768172632951" fill="none" stroke="black" stroke-width="2.2222222222222223" stroke-linejoin="round" filter="url(#fuzzy)"></polyline><polyline id="leftLower" points="25.63610910691625,-0.021651249227951808,25.446739375034955,0.07368316200246561,25.242461911571457,0.16707504754290425,25.023065929576358,0.25858672024135243,24.788372806724237,0.3482762036270016,24.538235261205283,0.43619734677309385,24.272536527616843,0.5223999391597667,23.99118953285497,0.6069298255368991,23.694136072006007,0.6898290207869568,23.381345984238123,0.7711358247878395,23.05281632869291,0.8508849372757245,22.708570560376923,0.9291075727079151,22.348657706053256,1.0058315751256846,21.9731515401331,1.0810815330171213,21.582149760567326,1.1548788941799768,21.175773164738008,1.2272420805845101,20.75416482535003,1.2981866032363336,20.317489266322628,1.3677251770392593,19.865931638680944,1.4358678356581442,19.399696896447626,1.5026220463817364,18.919008972534353,1.5679928249855204,18.42410995463343,1.631982850594563,17.915259261109323,1.6945925805463602,17.39273281689024,1.7558203652536815,16.856822229359718,1.815662563067416,16.307833964248122,1.8741136551394197,15.744446641627615,1.9389857029547366,15.158511007160566,2.0029193612697864,14.550345937705305,2.0658013432591487,13.920388312569557,2.1275134882135536,13.269184811177368,2.187934056862221,12.597383898143185,2.246938954770955,11.905727994588336,2.3044028853468284,11.195045834535463,2.360200433980321,10.466245005216198,2.414207084855758,9.7203046701276,2.4663001719609015,8.95826847367265,2.516359765826532,8.181237626220302,2.5642694975268956,7.390364168420439,2.609917321471844,6.586844413609161,2.6531962185215328,5.771912567139791,2.694004840954519,4.946834521475039,2.732248100820117,4.112901825875718,2.7678377032058545,3.2714258295214123,2.8006926259508864,2.4237319968984634,2.830739547336217,1.571154394290791,2.857913223282575,0.7150303462088266,2.8821568155867956,-0.14330473940794164,2.9034221727275646,-1.0025223783794637,2.9216700647713667,-1.8613058510292118,2.9368703739094917,-2.718354877648483,2.9490022421569577,-3.5723901298454885,2.958054177744186,-4.422157578943848,2.964024121732293,-5.266432682595062,2.966919476382837,-6.104024410769565,2.9667570968128887,-6.933779112290939,2.9635632474662463,-7.754584223077931,2.957373524931686,-8.565371817258786,2.9482327486390547,-9.36512200232257,2.9361948209640927,-10.152866159472017,2.9213225582728155,-10.927690030342543,2.9036874944363134,-11.688736651251972,2.8833696583468096,-12.435209136145609,2.86045732696585,-13.166373309401237,2.835046755435447,-13.881560189658618,2.8072418857830472,-14.580168325838127,2.7771540357511713,-15.26166598651307,2.7449015692825633,-15.925593203800322,2.7106095501917205,-16.57156367293383,2.6744093805536364,-17.19926650868565,2.6364384253406223,-17.80846785979902,2.596839624838042,-18.39901238259812,2.5557610963698236,-18.970824574939126,2.5133557268645976,-19.5239099716671,2.469780757793302,-20.05835620274332,2.425197364009115,-20.574333915207735,2.3797702280205635,-21.072929250801057,2.33333153936851,-21.554983833819666,2.2856488644435853,-22.02038280004788,2.2367921365670203,-22.469035849169206,2.186830874187012,-22.900877088793933,2.135833975854098,-23.315864878486753,2.0838695151965068,-23.713981673794365,2.031004535895535,-24.09523387027309,1.9773048466609047,-24.459651647516452,1.9228348162061317,-24.80728881318283,1.867657168223889,-25.13822264702302,1.8118327763613697,-25.4525537449079,1.7554204591956561,-25.750405862855953,1.6984767752090795,-26.03192576106098,1.6410558177645869,-26.29728304791961,1.5832090100811076,-26.54667002405898,1.5249849002089135,-26.780301526364312,1.4664289560049886,-26.99841477200651,1.40758336010839,-27.20126920246979,1.3484868049156138,-27.389146327579283,1.28917428755596,-27.562349569528653,1.229676904866897,-27.721204106907678,1.170021648369426,-27.866056718729865,1.1102311992434464,-27.997275628460095,1.0503237233031195" fill="none" stroke="black" stroke-width="2.2222222222222223" stroke-linejoin="round" filter="url(#fuzzy)"></polyline><!--[--><circle r="4.906808484573457" cx="11.84570166162253" cy="2.2733592591527927" stroke="black" fill="none" stroke-width="1" filter="url(#fuzzy)" clip-path="url(#leftEyeClipPath)"></circle><circle r="4.594386233852509" cx="13.308052233081309" cy="-1.671826231681691" stroke="black" fill="none" stroke-width="1" filter="url(#fuzzy)" clip-path="url(#leftEyeClipPath)"></circle><circle r="3.4221316814175147" cx="13.703598580013338" cy="2.548446086090829" stroke="black" fill="none" stroke-width="1" filter="url(#fuzzy)" clip-path="url(#leftEyeClipPath)"></circle><circle r="4.135411737619128" cx="14.95946915011763" cy="-1.0792141785028664" stroke="black" fill="none" stroke-width="1" filter="url(#fuzzy)" clip-path="url(#leftEyeClipPath)"></circle><circle r="4.1468112240401" cx="12.241693673712803" cy="-1.7119610403741379" stroke="black" fill="none" stroke-width="1" filter="url(#fuzzy)" clip-path="url(#leftEyeClipPath)"></circle><circle r="3.731360284539473" cx="10.810358822094098" cy="-1.1022647132540748" stroke="black" fill="none" stroke-width="1" filter="url(#fuzzy)" clip-path="url(#leftEyeClipPath)"></circle><circle r="3.2915327229612212" cx="11.200948768802581" cy="0.13233554193263686" stroke="black" fill="none" stroke-width="1" filter="url(#fuzzy)" clip-path="url(#leftEyeClipPath)"></circle><circle r="3.423401956845988" cx="11.94926323231765" cy="2.525336766962364" stroke="black" fill="none" stroke-width="1" filter="url(#fuzzy)" clip-path="url(#leftEyeClipPath)"></circle><circle r="3.456035209843451" cx="11.273880929651833" cy="2.025493002138753" stroke="black" fill="none" stroke-width="1" filter="url(#fuzzy)" clip-path="url(#leftEyeClipPath)"></circle><circle r="3.3938002562632223" cx="12.051233350557242" cy="2.6884341033322805" stroke="black" fill="none" stroke-width="1" filter="url(#fuzzy)" clip-path="url(#leftEyeClipPath)"></circle><!--]--></g><g id="hairs"><!--[--><polyline points="-35,-76,7.620992311010338,-60.39314311086743,6.7137877163991,-69.39289367369072,2.371576558455788,-76.78159439571724,1.731990619795397,-78.42047390784137,4.681036990336983,-76.13676535122953,10.699332287578489,-72.13535525758773,18.33424656396546,-67.87851225565805,24.567337036132812,-64.46269226074219,26.499843885739175,-62.92489164261541,23.938750996675697,-63.96228382782813,20.284725058327837,-67.27356381066356,20.38719567586668,-71.13142432714812,26.549342903855575,-72.98161205656548,35.946809243675474,-71.59037369577807,42.14734446173685,-69.75342859997048,40,-73" fill="none" stroke="rgb(0, 0, 0)" stroke-width="2" stroke-linejoin="round" filter="url(#fuzzy)"></polyline><polyline points="-43,-68,-30.45503780669017,-72.45019548460124,-13.431107635968386,-74.64734552702151,0.01986847198497188,-73.63581439339161,8.86258910815936,-73.62190638705955,14.074501281131619,-75.66419571699595,17.02377193325541,-78.49956682965286,18.216981792101368,-80.76432189227683,17.24441649950594,-81.8437934298599,13.476949775693006,-81.72997942809043,6.834800679385967,-80.72901029952614,-1.7316912735592032,-79.31941300350586,-10.22151629484689,-78.04441129422038,-16.116556470754627,-77.3073684857616,-17.393242879487122,-77.14210276079146,-13.697244815024934,-77.16987023313901,-7.193672364688251,-76.87873755966065,-2.4232739035019804,-76.1087418624554,-4.090483811294762,-75.41385217813162,-11.640826822007947,-76.10401591491463,-12.439346331396518,-80.14079952337957,14,-88" fill="none" stroke="rgb(0, 0, 0)" stroke-width="2" stroke-linejoin="round" filter="url(#fuzzy)"></polyline><polyline points="-37,-75,-26.785114383689944,-72.80756465925306,-6.641809928120876,-74.1766262481585,6.571273888933378,-73.09017975792717,12.775985685547163,-71.71809296644086,13.592579510168434,-72.04505901386983,10.227648590513478,-73.81284394902099,4.597028718544995,-75.58223731780133,-0.6670475728207667,-76.24882270264418,-3.415378321970715,-75.62079290096479,-3.140827178955078,-74.18989372253418,-1.024455587158283,-72.71674879008081,1.2407611909306704,-71.86831595168574,2.8586618979192875,-71.79941320585641,4.284096895359344,-71.78977445565504,6.250631647522823,-70.48907263442197,8.735269163454127,-67.20451260393985,11.264963234002202,-63.69855551057973,13.596854668574773,-64.80151189272172,14.4530614964053,-75.2358523698258,21,-86" fill="none" stroke="rgb(0, 0, 0)" stroke-width="2" stroke-linejoin="round" filter="url(#fuzzy)"></polyline><polyline points="-16,-87,9.503245795996108,-81.97173331569616,26.845876742608766,-75.19318060410835,33.019018286043035,-72.10258438263989,30.371266461908817,-72.50859721982852,22.78494103950766,-74.64931582958371,14.90133521197788,-76.6524136215143,10.644465832697854,-77.2925846538825,11.40234375,-76.24429321289062,15.253027056087982,-74.10915090988172,18.16026204945922,-72.06572906482634,16.836109815226145,-70.96062132315932,11.551664747297764,-70.55124151194468,6.102940785186621,-70.29076816809084,2.561187646149506,-71.58606840036092,-6.480680293216066,-77.3625647878412,-28,-81" fill="none" stroke="rgb(0, 0, 0)" stroke-width="2" stroke-linejoin="round" filter="url(#fuzzy)"></polyline><polyline points="48,-63,22.06632152801877,-71.80486244509645,-1.0056734918090786,-72.03674555176978,-5.381755805286736,-69.41939166639202,2.364375980076249,-66.5818549349349,11.395070261127646,-65.21169215484574,16.582335445811133,-66.12011618658256,18.817087095823787,-68.73289726109033,20.5557221734875,-71.73331166307845,22.173392297768213,-74.18430478466014,21.62348628903451,-75.95790328631789,16.573430897589436,-77.28190067623312,6.8147300446291945,-78.12602228553831,-4.724193717098306,-78.0753164728644,-12.931380682579483,-76.4656402349036,-12.770195576329986,-71.90002075515957,1.6557090430430321,-61.18807169725098,58,-42" fill="none" stroke="rgb(0, 0, 0)" stroke-width="2" stroke-linejoin="round" filter="url(#fuzzy)"></polyline><polyline points="58,-42,33.07726003293128,-63.67530450700261,18.287169679410766,-74.36216830521286,15.529971129511628,-79.80251994724584,16.997927060350776,-82.47506956686266,17.840655711590255,-83.20039013118453,15.984798619055113,-82.20443322932326,11.525964934574505,-79.66434990220604,6.8074951171875,-75.93452453613281,5.52468608973709,-71.46131570744838,10.125456697371959,-66.60733645070307,18.99361505850855,-61.786473832734934,26.257476499304175,-57.87970885564573,25.87108226298411,-56.0778154261485,17.351980876736746,-56.41585236803438,3.1891153764836098,-57.22575822044425,-46,-65" fill="none" stroke="rgb(0, 0, 0)" stroke-width="2" stroke-linejoin="round" filter="url(#fuzzy)"></polyline><polyline points="15,-88,13.04095982669556,-84.03429984447055,21.78071696943055,-72.63512056915995,21.219839340437414,-62.66478967214268,8.939848358584957,-57.61939179178625,-6.44412336217995,-56.6610585403849,-15.692019323659173,-57.87535503535388,-15.188145503380186,-59.73010809657004,-7.735366596137918,-61.497031230618845,0.5212447802355349,-63.14280473175052,4.578458706188923,-64.82270588047895,3.7545061160846616,-66.38478605146656,1.6086433340737725,-67.41146670152979,2.8613690517877783,-67.79294204919749,9.96602351821694,-68.19194370665048,21.58248524013697,-69.9438417555416,31.07597100376455,-74.6794455926104,26,-83" fill="none" stroke="rgb(0, 0, 0)" stroke-width="2" stroke-linejoin="round" filter="url(#fuzzy)"></polyline><polyline points="23,-85,34.5226829027969,-76.26396947262542,38.5837740797454,-72.76573031142193,39.284734325591934,-71.53739621521062,38.75140002671722,-71.05097243439629,37.646255797152705,-71.13933246964119,36.33892079125356,-71.57556034181863,35.068483885041935,-71.94599739173319,33.885980024922866,-71.93223085143293,32.67104347043397,-71.43932141069315,31.093981839362062,-70.6461220426591,28.63213308520489,-70.02001495766291,24.90017275471468,-70.15953166278067,20.212094596330008,-71.44154165507948,15.855780148241957,-73.7032845486291,13.631070475196248,-76.2278564487837,14.835616530785211,-78.05611012779185,19.46134179296168,-78.39730663661425,26.2148921024369,-76.92435872038887,33.17280359661098,-73.92995987104847,38.32956797426023,-70.36427156248885,39.55683074156143,-67.78341400936512,33.08296652127361,-69.54358876555659,5,-90" fill="none" stroke="rgb(0, 0, 0)" stroke-width="2" stroke-linejoin="round" filter="url(#fuzzy)"></polyline><polyline points="-51,-56,-18.033303548967282,-76.52640247676398,-4.9903286171528425,-82.45332417744636,6.853691176308552,-81.58701369820336,19.181287422846495,-77.18048550369394,30.28209147422222,-71.14010195528542,38.63172932166551,-65.16691418997297,43.251374856762425,-60.794846170823895,43.64472681672897,-59.02245914135241,39.94388882963149,-60.01921626074405,33.136236256060506,-63.14832667369525,25.02290245332356,-67.31930384874131,17.673666964307632,-71.48353138249882,12.545425898125082,-75.0084286638877,9.834174939235039,-77.75791797827114,8.611417176190752,-79.8998999690363,7.71750082746947,-81.6226148923913,6.656556711402441,-82.96436806923973,5.568518572616818,-83.82338829163,4.118276796901319,-84.01290679322656,0.47598043067513773,-83.1950477814895,-7.325492525828727,-81.00980936777366,-14.95371433849914,-79.06518145406909,3,-89" fill="none" stroke="rgb(0, 0, 0)" stroke-width="2" stroke-linejoin="round" filter="url(#fuzzy)"></polyline><polyline points="44,-69,45.22042531887791,-58.27698296340285,31.022438684497946,-62.657249367682866,17.72437901609985,-67.02153462811586,8.898549861949817,-68.1670942646227,2.1941669840298346,-67.45566331504051,-4.170266688815368,-67.09957215907791,-9.517250481251704,-68.31862095319424,-11.88649746454318,-70.88579112239226,-9.920997773692328,-73.63264593283012,-3.84127140045166,-75.33272361755371,4.764685471743306,-75.39833800273072,13.713850915264302,-74.07586720623718,20.902491214883685,-72.1934544857554,24.7338755781725,-70.7298506243969,24.68123343914249,-70.34185685856755,22.345486755834262,-70.76515302902347,22.20791800453839,-70.36396188433665,29.127589765376992,-67.30520779848939,39.337086403155325,-64.60441721223218,31,-80" fill="none" stroke="rgb(0, 0, 0)" stroke-width="2" stroke-linejoin="round" filter="url(#fuzzy)"></polyline><polyline points="16,-87,19.004359562957514,-83.38071964265816,19.547165344910354,-81.07925433082238,25.017674751221996,-76.46769707664241,29.51097908616066,-70.69172583799809,28.238162430977702,-66.68535835085197,21.05215752456661,-66.49303423917428,11.427772202448297,-69.77110956534139,3.26220703125,-74.33074951171875,-1.5810227198581353,-77.84269457565001,-3.182101477958895,-79.14496630066769,-1.8899621059285783,-78.20786454421709,2.2506342232227325,-75.03040503244847,7.700759085901529,-68.8975221007008,10.39174453223768,-59.69048185368483,12.375009404504246,-50.53745487626193,58,-43" fill="none" stroke="rgb(0, 0, 0)" stroke-width="2" stroke-linejoin="round" filter="url(#fuzzy)"></polyline><polyline points="-4,-89,19.558869332292634,-77.04124537600798,17.087314912473563,-77.27216351305161,14.736452045298474,-74.21831712117796,17.672399688348744,-68.30416236317375,22.15308415527266,-63.73097393259451,24.292434567868995,-62.694935599726875,23.473124492097316,-64.61393461265136,21.145451302144863,-67.7194475961229,18.47319144331385,-70.6160120581475,15.378375881115721,-72.81231943227873,11.218840638748704,-74.4393107474732,5.855380234464227,-75.77249523172479,-0.05266552811638101,-76.94770012291686,-5.640825919649039,-77.90533746830805,-10.513343298063852,-78.45948316422056,-14.643396549972692,-78.45157029965532,-17.48471729537689,-77.98960133244393,-17.29411301998534,-77.64484697885217,-11.929833745430434,-78.30110388415682,-1.4057273616544457,-80.47832468096807,9.58976507044816,-83.63403961257562,13.618320884360235,-86.58107845726884,13,-88" fill="none" stroke="rgb(0, 0, 0)" stroke-width="2" stroke-linejoin="round" filter="url(#fuzzy)"></polyline><polyline points="-47,-63,-6.832641668563264,-73.69049492253993,5.01875671053045,-73.69652297173769,8.205605856336149,-72.28069010366568,8.569047151304703,-71.91227735781335,8.024370477707665,-71.92535950184646,6.638188619394376,-71.39012903883881,5.277739979159739,-69.60143213087886,5.895810344841743,-66.441151616071,9.43264389038086,-62.91604232788086,14.132303392315938,-60.98645991582843,16.440323816702485,-62.40920382678384,13.964302866284399,-67.41636232615463,7.837556490225294,-74.35148056538804,2.080110729586517,-80.60062139599464,0.26567032930621637,-83.99191472221989,3.1574057751683386,-83.33784626286344,12.674677290137911,-77.3679373032109,49,-62" fill="none" stroke="rgb(0, 0, 0)" stroke-width="2" stroke-linejoin="round" filter="url(#fuzzy)"></polyline><polyline points="-41,-71,5.435173860906163,-74.53567313337912,15.247151345844426,-79.30574902871255,16.501941302000297,-81.48766492816975,15.111333708977327,-82.48191715357825,12.381397871865074,-82.89297749826963,10.396024138033848,-82.04467078093164,11.297651642927834,-79.47030777065774,15.466049194335938,-75.92892456054688,21.055137786412544,-73.05399957259688,25.385968014902286,-72.00939053903782,26.96544580325887,-72.40954113444596,25.92968487343751,-72.78734741685912,21.89718279416977,-72.60850422753005,12.19071468408941,-73.72971591209323,-1.633879068182087,-78.64877106713392,10,-89" fill="none" stroke="rgb(0, 0, 0)" stroke-width="2" stroke-linejoin="round" filter="url(#fuzzy)"></polyline><polyline points="-17,-86,12.759737680486422,-80.40292617668278,23.25979532806283,-76.99011650435574,26.1626015405128,-75.89022761461652,26.769024533520668,-74.47122121975475,24.812672463021713,-73.03389740416523,19.931058407576547,-73.0179176698694,13.233071112728517,-74.94973691228066,6.283872850193812,-77.97626418196236,0.28656973079204817,-80.62546334290052,-3.760265380572666,-81.82902252403434,-4.991626125191585,-81.50065349888615,-3.6703154854248403,-80.44351655768187,-2.5512488096066477,-79.65469630886201,-6.411378159812031,-79.23567908315549,-18.232648266618373,-77.58814097312225,-34.09858713644424,-72.95132974834549,-41,-71" fill="none" stroke="rgb(0, 0, 0)" stroke-width="2" stroke-linejoin="round" filter="url(#fuzzy)"></polyline><polyline points="48,-63,9.752623390335383,-74.91151168976873,-10.607461015961814,-76.42814563431733,-18.376220224785346,-75.98856204933249,-17.933740731028436,-75.30603062740568,-11.853438976612546,-75.1865042389209,-3.5754101649741394,-75.5755059431461,3.5359904333857086,-75.9170588794265,7.733270283364081,-75.7864098376975,9.027310854522312,-75.26117007886161,8.361179901305132,-74.86625642087841,6.917347633206507,-75.17237860553377,5.927709429797353,-76.3095248151082,6.592257476631357,-77.73381188759373,9.68451965008111,-78.43998733756462,14.915850245453445,-77.51130570325452,20.51881065391121,-74.67969049032224,23.477271688119686,-70.6009222370978,20.570163096173783,-66.76679710539725,10.183358458544834,-65.12248698486242,-5.541968887441856,-67.28834512321896,-20.087374126906557,-72.90002400674774,-28.285874571479738,-76.88931548279109,-43,-68" fill="none" stroke="rgb(0, 0, 0)" stroke-width="2" stroke-linejoin="round" filter="url(#fuzzy)"></polyline><polyline points="8,-89,31.892423978947118,-71.20531911830102,38.87613851251298,-62.75056332333462,34.98126874386426,-61.415970727287764,28.070340637306796,-60.78755713095762,23.148659656049325,-59.6739245979452,22.264671364088333,-59.35399379330259,25.035166029529382,-60.47746861801866,29.55242501720728,-62.479296670697835,33.499062205273724,-64.46613997712187,35.01618382236292,-65.98903682421158,33.2004514606311,-67.05744542130118,28.439707138111807,-67.7176288817997,22.667794554107736,-67.76996607746275,19.079415434543314,-66.89692120359065,20.401139458317868,-65.24898562108145,25.495266714931088,-64.49239119786893,26.962222411333865,-68.42682702486843,16.456098429175306,-79.70697331742636,3,-89" fill="none" stroke="rgb(0, 0, 0)" stroke-width="2" stroke-linejoin="round" filter="url(#fuzzy)"></polyline><polyline points="-50,-59,-24.19416021088284,-74.11747654163567,-18.203244933832874,-78.83811351556992,-14.412265368058476,-81.47838566189235,-12.351127856903307,-82.17005620500976,-10.799031939716226,-81.26753120117336,-7.522006517080751,-79.97534364253072,-1.9446277595080634,-79.38008778766314,4.532106114039452,-79.87951173604161,10.076013165426712,-81.21239570869605,13.716697384006297,-82.8144835969519,15.430563412550445,-84.21354104821339,15.659048766899113,-85.20785817631992,15.271050660259903,-85.65438835423332,16.01701185521333,-84.91630712746483,20.501883796115774,-81.17336926447081,31.734774311579038,-70.20639733141869,58,-41" fill="none" stroke="rgb(0, 0, 0)" stroke-width="2" stroke-linejoin="round" filter="url(#fuzzy)"></polyline><polyline points="-22,-84,3.5491340669317326,-83.46191643278146,12.596727832897724,-81.32885394119818,8.624863134258867,-79.62664732774411,-1.3217370032767082,-78.08481686243421,-11.096061791216565,-77.21226552344396,-16.69824434437942,-77.27737363244135,-16.724671416814704,-77.95337342444047,-12.040535614792118,-78.6290265972106,-4.868488946929877,-78.76302907127236,2.4188509654337373,-78.01549946891046,8.271941623136218,-76.18778296835511,12.147119886738793,-73.16318879125976,13.93044515559692,-69.03981566960574,13.466388276984844,-64.4130818845353,11.148546335816889,-60.45013956860116,9.263853253491781,-58.4028645927443,11.979459917182192,-58.76148989861192,21.931643156586723,-60.84677187028935,35.566700280283655,-63.04531873405051,45.679518366158774,-61.69241035345327,56,-47" fill="none" stroke="rgb(0, 0, 0)" stroke-width="2" stroke-linejoin="round" filter="url(#fuzzy)"></polyline><polyline points="51,-59,35.347103265465186,-64.05745245015893,20.87666636035757,-70.67203581971722,14.995469032508842,-75.55697855738138,14.148451775672392,-78.78966046986781,15.319345660310056,-80.43464468003306,16.22078450083082,-80.90981670837266,15.619269167578151,-80.91881298277987,13.55543011627923,-80.9257349945623,11.03432182046418,-80.79377219089405,9.596329740277728,-79.91863739596437,10.801604355116787,-77.85262879798515,15.248294979214362,-75.09152741319018,21.53329938000976,-73.26612197704311,26.89754396782243,-73.73060947916441,30.764508448313464,-74.38649835585585,38.42923671410318,-67.1878580748954,59,-40" fill="none" stroke="rgb(0, 0, 0)" stroke-width="2" stroke-linejoin="round" filter="url(#fuzzy)"></polyline><polyline points="-6,-89,-26.20491073079823,-78.7606731690463,-28.20477792606609,-78.21644059343828,-24.66952038795286,-79.79130199875645,-21.428023948246434,-80.10847567165604,-18.773164996599917,-78.344878357358,-15.584908773804111,-75.17541826288239,-12.032761134814228,-72.14817361674474,-9.297465446752783,-70.82278404351572,-7.951364262147749,-71.70189833650232,-7.116804585215251,-73.6785063682813,-4.90101882421513,-74.56491561632102,0.7072897467593682,-72.55579599380285,10.812744007002838,-67.91772159368695,23.72682244991676,-63.95683936209526,32.77832727634009,-65.92469723142426,28.449266527620832,-76.29097691936047,8,-89" fill="none" stroke="rgb(0, 0, 0)" stroke-width="2" stroke-linejoin="round" filter="url(#fuzzy)"></polyline><polyline points="50,-60,6.6355345353620105,-74.95908565836896,-8.507279688711412,-80.66617934111473,-16.53829734183418,-81.67337502798338,-19.742008076316925,-80.67168400636676,-17.811605330925886,-78.80352177703571,-12.082298900413495,-76.7352447102284,-5.3660630673866025,-75.25128494524793,-0.09430123559379275,-75.03409125980764,3.067004262108245,-76.15286536379551,5.014925003051758,-77.98482322692871,6.860349381606262,-79.72243778905684,8.76655737325362,-80.98702689563864,10.003196721261947,-81.98420181575433,10.090518693299568,-83.0945207624164,9.78733636963625,-84.33216294293925,10.524795239909894,-85.25548981115497,12.19851177447195,-85.53579939893693,11.47513764288541,-85.74353142198851,4.416113632236038,-87.34503618907465,-2,-90" fill="none" stroke="rgb(0, 0, 0)" stroke-width="2" stroke-linejoin="round" filter="url(#fuzzy)"></polyline><polyline points="-1,-89,-2.1806284101319564,-87.21609719601234,-3.535797042564205,-85.59628646877569,-4.81304622003696,-85.06967099526707,-5.98677023683146,-85.18622720674985,-7.091039228814296,-85.46336199960497,-8.144259261053625,-85.56601884924655,-9.154814482980207,-85.34945235212786,-10.137310815270288,-84.84373689719894,-11.109876264219169,-84.18376751455189,-12.080015058784179,-83.52054117772641,-13.037219861535238,-82.95240085444979,-13.960731404212583,-82.49710395482728,-14.835928136868175,-82.10338762315041,-15.665860890591121,-81.68442637000258,-16.469335952333605,-81.1520376655703,-17.268214706545525,-80.4394914779849,-18.07450066126873,-79.51394587115871,-18.885584732766997,-78.3861986792604,-19.68532804314248,-77.12013740782204,-20.440059889617423,-75.8307099718643,-21.08643105184839,-74.65184390102347,-21.537544755039736,-73.67359944650242,-21.745157803285867,-72.86829492682394,-21.63683272229911,-71.83428463803304" fill="none" stroke="rgb(0, 0, 0)" stroke-width="2" stroke-linejoin="round" filter="url(#fuzzy)"></polyline><polyline points="63,-17,62.75828638301072,-18.84164192157059,62.4336479385745,-20.508209454608426,62.22583757572385,-21.951472858189,62.116769605935886,-23.131815708522996,62.04595013537376,-24.106520855947597,61.96474705266213,-25.01112491664946,61.84524457963536,-25.984044123284804,61.674424895520566,-27.11128730667136,61.44937439133163,-28.40994202208302,61.17798531780209,-29.84062972721462,60.8794091720922,-31.33649468993222,60.576687771345014,-32.83722231783634,60.28240851309305,-34.31363134250321,59.98848418150867,-35.76815225162058,59.67185543797515,-37.20675241673948,59.31607676524027,-38.59852525657472,58.934876884169995,-39.86154971786047,58.58371109855389,-40.92246359401954,58.35630807431883,-41.87566981288211,58.3195008248915,-43.236871301212666,63,-17,62.850349094550445,-18.867099226933327,62.60619791447752,-20.560080146672494,62.4360626671877,-22.018973325778838,62.33834703076836,-23.206382932973124,62.27529143448179,-24.182991104655457,62.207641327800296,-25.086872472037562,62.111674786465684,-26.06210655644605,61.982088923734835,-27.204491231699215,61.82587322101952,-28.541453839908066,61.65818422338539,-30.039607482559617,61.50291196219073,-31.632226409064643,61.38990894464856,-33.25779947877455,61.34132446177151,-34.89238636602267,61.35084073057876,-36.55207164314014,61.369684310260496,-38.25013438376477,61.31230826450272,-39.92180276767017,61.090236893860215,-41.37395560107058,60.705670683949506,-42.35697354237161,60.53720382252017,-42.79354063316081" fill="none" stroke="rgb(0, 0, 0)" stroke-width="2" stroke-linejoin="round" filter="url(#fuzzy)"></polyline><polyline points="68.31958856077487,-46.31836512594907,68.7513007140151,-44.78324192212451,68.54570655151048,-42.54496250255122,67.86905382470641,-40.264663363568324,67.11224700395555,-38.095604409702624,66.51676365953149,-36.018610308655106,66.12774576359051,-34.000280128710486,65.8638038584281,-32.05266503138549,65.59929384836991,-30.225405989606873,65.2326422424423,-28.573499646321938,64.74286503522544,-27.13607713523385,64.20924676294759,-25.919996181501432,63.75093353934001,-24.861609842718796,63.40844014307149,-23.78732509415417,63.11728487135698,-22.472450155818155,62.91599380096059,-20.85371314929626,63,-19" fill="none" stroke="rgb(0, 0, 0)" stroke-width="2" stroke-linejoin="round" filter="url(#fuzzy)"></polyline><polyline points="-39,-73,-40.6651329009017,-72.35886751193182,-41.37009754380874,-71.47254320623561,-42.054087578311425,-70.72746202626828,-42.90779760056036,-70.26946341120697,-43.88172629788596,-70.00288381465543,-44.920332346950026,-69.73396181700934,-45.989853006444854,-69.32353118373477,-47.03989614982025,-68.7490446763161,-47.995704710274666,-68.07178458470855,-48.797586071772976,-67.35656824833968,-49.45150541164055,-66.60678320174162,-50.04625858635345,-65.764630340708,-50.71243721341628,-64.78336472110053,-51.5339628141797,-63.719574322839755,-52.478817724302054,-62.7523914824805,-53.48538683826611,-62.032903668646476,-54.84575646344339,-61.29819840031908" fill="none" stroke="rgb(0, 0, 0)" stroke-width="2" stroke-linejoin="round" filter="url(#fuzzy)"></polyline><polyline points="62,-21,62.543111696761216,-19.099066252281414,62.66022884756904,-17.218658906142412,62.50111723304475,-15.510568998355396,62.092992113775466,-14.05695887176747,61.48129167907088,-12.775097028246009,60.772594307181585,-11.523946801934102,60.078341819348736,-10.218846708588238,59.45156282074772,-8.865191276025774,58.86916649592927,-7.522749683438106,58.26502143063275,-6.242807213915813,57.59507727446861,-5.015016240595747,56.896648752317155,-3.7529857219919283,56.28962700662804,-2.343987803127069,55.89280493358263,-0.7816907914691975,55.722880770733575,0.6113129163150168,55.796608070467364,0.8856604455629741" fill="none" stroke="rgb(0, 0, 0)" stroke-width="2" stroke-linejoin="round" filter="url(#fuzzy)"></polyline><polyline points="-43,-68,-42.8911177126806,-69.19603968744585,-42.37387360031434,-70.57610349480387,-41.9584500201404,-72.06292894987537,-41.54030967885934,-73.51579503958575,-41.056147566859956,-74.91413161157682,-40.57280222741487,-76.38909802997489,-40.179375711240574,-78.0983754211446,-39.8772725785115,-80.06453002902187,-39.56365864487596,-82.12518653967413,-39.10152126723166,-84.02450718403558,-38.40736586393795,-85.56015242638081,-37.49250944082346,-86.67833165404086,-36.44231368567007,-87.47197764473661,-35.362768214534654,-88.11490998260123,-34.335001335034534,-88.79493810291967,-33.39819277583122,-89.67989068220055,-32.55454688028898,-90.90415970704609,-31.77998116089095,-92.54910747717805,-31.038260803601464,-94.60960398822402,-30.31676620063344,-96.93050347505203,-29.652729179562677,-99.00941622566378,-28.777543630542908,-99.5223383889609,-44,-67,-45.27867532965739,-65.03312534608035,-45.53787083763285,-63.19491940226265,-45.57882512477902,-61.865366588422724,-45.888250003991395,-60.98739627577144,-46.49028153837894,-60.25281992790659,-47.195422227263066,-59.40249946619843,-47.8296813981783,-58.346285438082866,-48.338012768625305,-57.13873901147083,-48.767430323895745,-55.89634753005192,-49.18893029620989,-54.717201827356575,-49.63004871420817,-53.63803394500449,-50.061352007975735,-52.6373305225395,-50.431775150666176,-51.66465111831958,-50.714143022063894,-50.66222722010161,-50.92469727055857,-49.56075876375421,-51.108968169140454,-48.26282398583356,-51.30725918277864,-46.63932575086139,-51.49776767092106,-44.571919815208666,-51.45245661981711,-42.26451793770691" fill="none" stroke="rgb(0, 0, 0)" stroke-width="2" stroke-linejoin="round" filter="url(#fuzzy)"></polyline><polyline points="-50,-59,-51.16488082052936,-57.9246201004532,-52.79737445726289,-57.85684609825589,-54.33215670808359,-57.83234723172438,-55.80855287844738,-57.82175563100237,-57.43878915060402,-57.97963991738802,-59.173114476536405,-58.15078813173558,-60.79892882681467,-58.02567894805313,-62.17523212144087,-57.435948187866074,-63.3246806390915,-56.46276025827009,-64.38261203732202,-55.35495660631779,-65.50522286133061,-54.385521004035766,-66.80339143943168,-53.742901936130274,-68.31931775064066,-53.482879566399426,-70.04507423053246,-53.52753895029895,-71.95553124688043,-53.68986091918738,-73.97605551573315,-53.71143884852109,-75.83679682396465,-53.3479298481084,-77.05454466719277,-52.62409022051077,-77.5965813005454,-52.177011564159834" fill="none" stroke="rgb(0, 0, 0)" stroke-width="2" stroke-linejoin="round" filter="url(#fuzzy)"></polyline><polyline points="-53,-53,-52.71135332751302,-53.98261572410833,-52.13058923108734,-54.98091674663814,-51.51650527961262,-56.010797428146226,-50.92460525740899,-57.0731493403402,-50.32608397969996,-58.15707333673073,-49.69564912012006,-59.25701610995811,-49.04467395754744,-60.35767818526775,-48.40738475468324,-61.424541187995466,-47.806158387368505,-62.42294843629689,-47.228053106599,-63.34748608262873,-46.63104373771931,-64.23009146141204,-45.97455472811844,-65.11564894556334,-45.25100535389585,-66.02450259601696,-44.4940668135221,-66.93558348623813,-43.755846255993795,-67.80915101127867,-43.070030784367006,-68.63299921534204,-42.43397993035494,-69.44659093333875,-41.82883220440051,-70.30566069553969,-41.23962493091289,-71.21517225697006,-40.55959132171218,-72.16938876462416,-39.27758976611396,-73.51959110067484" fill="none" stroke="rgb(0, 0, 0)" stroke-width="2" stroke-linejoin="round" filter="url(#fuzzy)"></polyline><polyline points="-64.95457591103742,-15.465375216913671,-64.45448381396507,-17.659194363818308,-63.94248102055334,-19.110379253487004,-63.557268057214536,-20.36258676745284,-63.24114112168213,-21.6820741370241,-62.939313728950026,-23.124496653409565,-62.634513649611094,-24.60738551933748,-62.33303798436853,-26.01622652916679,-62.04628865687584,-27.285007759412366,-61.7797612194489,-28.419512771008282,-61.52849997326593,-29.478080375959127,-61.27602640556427,-30.541056178842986,-60.997023105295284,-31.686951177974148,-60.66609359491281,-32.973256757136234,-60.271609714516934,-34.41381314877404,-59.82642342631474,-35.95728076516164,-59.36284232732591,-37.48958027060926,-58.90602343621892,-38.885770713746375,-58.44101082520308,-40.10824731877023,-57.91613030506829,-41.28840778734647,-57.34002032813481,-42.6479533034516,-57,-44" fill="none" stroke="rgb(0, 0, 0)" stroke-width="2" stroke-linejoin="round" filter="url(#fuzzy)"></polyline><polyline points="-57,-43,-57.673858373885,-44.00470483297185,-58.20644562225009,-44.88139137062861,-58.63800661180503,-46.105276887009204,-58.71181912836005,-47.43447561597639,-58.35137540136454,-48.70531225467512,-57.66035881779167,-49.89300883987931,-56.831771691352245,-51.03090497685726,-56.048622313676695,-52.15387163355124,-55.41655787514274,-53.28181408369604,-54.95089773195305,-54.42693029117125,-54.60670111030654,-55.60356575429882,-54.31891036507268,-56.82503606404602,-54.02698028586612,-58.08883254536649,-53.68200180675607,-59.36912524642467,-53.249790372675726,-60.63564826456928,-52.7191559902049,-61.895239575885796,-52.11165436592205,-63.22042361212001,-51.488631632960214,-64.7127025242357,-50.9674147467488,-66.37599935713098,-50.75965307274013,-68.01447991889702,-51.18588604975118,-69.69992994008672" fill="none" stroke="rgb(0, 0, 0)" stroke-width="2" stroke-linejoin="round" filter="url(#fuzzy)"></polyline><polyline points="-64.47797141350648,-55.266832640148415,-63.78815195134412,-53.06785223700679,-63.21931943518836,-51.253128672083726,-62.96038392845219,-49.80290725644333,-62.78003701356275,-48.579442784501666,-62.56264996245133,-47.389120769325196,-62.26471062539144,-46.05672922908872,-61.83660872987806,-44.494067150130846,-61.25597144835738,-42.71850167907939,-60.59539650458826,-40.80657775416451,-60.020988893918535,-38.82258323887448,-59.702716780432404,-36.78989576725169,-59.70734586292564,-34.74757215931359,-59.96782030150885,-32.863796496121246,-60.37460141212221,-31.492316083385433,-61,-31" fill="none" stroke="rgb(0, 0, 0)" stroke-width="2" stroke-linejoin="round" filter="url(#fuzzy)"></polyline><polyline points="58,-41,59.171607272699205,-43.06034327141832,59.952511521935904,-44.68687810211467,59.710277806605774,-45.92198804809138,59.077726611056335,-47.129058009227876,58.510571855605434,-48.50562512091907,58.14901209322357,-50.08126438426661,57.955197535041485,-51.78512107308371,57.83745142269365,-53.50974776634479,57.72021828791968,-55.174096964569785,57.56600823675768,-56.76286170468826,57.36434888885352,-58.3144601273491,57.11447276866371,-59.86816021484595,56.82340866607025,-61.4161781793856,56.51097605331269,-62.90210807622206,56.196364585289466,-64.28254519775227,55.8871988974239,-65.66477705311333,55.6553872902964,-67.49603688366845,55.68315484975944,-70.45623674867521,51,-58,51.16228380619076,-57.028304754264404,51.78006276249645,-55.743063513861486,52.43898734638013,-54.54284152914716,52.99747433513866,-53.40059205542911,53.4622657463235,-52.23558912678273,53.87336309819725,-50.99283836355976,54.24626689395998,-49.65379397033493,54.57171758368729,-48.22931597791515,54.839314238127756,-46.75426248104532,55.052413789932245,-45.28240430042608,55.22504335593288,-43.87378278123342,55.37177741644165,-42.5747124951258,55.50441694093277,-41.40005800284462,55.637975636746425,-40.32766363867459,55.79586855990056,-39.30666948277955,56.00208339701816,-38.273480741440906,56.25936054867099,-37.16843017651459,56.529027776959154,-35.9509953868236,56.735792019235056,-34.612644975240755,56.80889597866111,-33.17816861929865,56.74396031454327,-31.677340478993766,56.649014147356674,-30.073242659819677,56.73895969565248,-28.119572402352155,57.199753943381474,-24.909570265666126,18.7834979743045,-76.92289646619938,20.122406753533603,-76.59849122885245,21.283229606605914,-76.8176212928721,22.346694369880588,-76.97192709633138,23.294462517754468,-77.02787368771565,24.184206177047614,-77.0342632199226,25.085628144143953,-76.98472714301477,26.03797836084087,-76.86423006516657,27.052636084549945,-76.70558379658752,28.1240119480564,-76.577506515937,29.231840448208253,-76.52618679319289,30.33982746703805,-76.52710570006239,31.40025657794818,-76.48444131593777,32.369359741715655,-76.27993562910235,33.23103991727256,-75.84527546312664,34.0180743064384,-75.2174593964754,34.81284981501174,-74.53780791473581,35.712506128044886,-73.97914163064411,36.76467030043901,-73.63290265561254,37.91453917557045,-73.43487880111958,39.02145836099375,-73.20650600083505,39.95623885801365,-72.80757681078896,40.66500979472718,-72.29417491714155,41,-72" fill="none" stroke="rgb(0, 0, 0)" stroke-width="2" stroke-linejoin="round" filter="url(#fuzzy)"></polyline><polyline points="37,-76,38.34360898413845,-74.7143352604955,39.19437819992193,-73.92373487931962,39.94254257821903,-73.207401917057,40.68628352921658,-72.47774115446343,41.443492900358514,-71.72294031291239,42.20746266910278,-70.9494633643285,42.965950833868106,-70.16580060902928,43.71049685482091,-69.37219404343593,44.43782113955511,-68.55893847026647,45.14433244486177,-67.7151182542642,45.81825394083077,-66.84277474265186,46.43808972892784,-65.9662194078737,46.98656485990919,-65.12407041317098,47.4784747687982,-64.33844473422602,47.98052747985505,-63.57565124724798,48.59073859356427,-62.73527412792364,49.371825068325045,-61.704410755912335,50.2971204721655,-60.479184370984754,51.29414632074307,-59.34028692007531,36,-77,36.4244047494715,-76.67893591441396,37.52705215146637,-76.31677008579929,39.093414223994465,-76.57874829849277,40.86050904446786,-77.3358195410568,42.564937714755,-78.09332991379392,44.063389969090025,-78.49617650842738,45.37924199393367,-78.5132750037793,46.665171307903684,-78.37859231946538,48.10074871962803,-78.3974816091784,49.7725688837159,-78.73217409968515,51.60773875940474,-79.29108733926552,53.40537896645337,-79.7875322901556,54.94845107673937,-79.92282291846045,56.13004158716941,-79.57131940783518,57.02464795982333,-78.85421528913126,57.86684059866139,-78.06610759719372,58.9418987674936,-77.50438118576855,60.43263396077053,-77.30041624668283,62.30076860480248,-77.35252292442202,64.29353643654449,-77.41739520981135,66.12307846934358,-77.32743674154952,67.75862103910009,-77.17251230032707,69.63982202094644,-77.14636274904515,72.3235005400069,-76.41728358944125,28,-82,29.77875883615013,-80.23359736017451,30.85212578098182,-79.44658912622944,31.716522593883195,-78.85273852314745,32.514622663446204,-78.23926822923733,33.24654620105562,-77.4888328432687,33.892812797477255,-76.54521657981614,34.47242095717698,-75.43765696803143,35.04021958504329,-74.26005024772539,35.65184610695344,-73.11924554822923,36.33415037269631,-72.09067709614693,37.081109631705225,-71.20131541307687,37.86889144690634,-70.43551164230452,38.671394771110464,-69.74893990152864,39.46477567966843,-69.08164582592893,40.22423300066884,-68.37138156026595,40.92297555076924,-67.56932785015385,41.53686535592645,-66.65068913835155,42.05004044976351,-65.60847733788128,42.46625136681369,-64.43774241960308,42.859846604423154,-63.14024875345466,43.48888665843458,-61.70700552124565,44.7713108777464,-59.695081170328535,36.478781454514404,-94.13879085035975,35.42778550862906,-94.1614102562649,33.96688305680641,-94.48389590129698,32.42256185064445,-94.1669368022374,30.91586958553137,-93.37572047651341,29.523783898417374,-92.48608615555094,28.270838538770207,-91.85323451767988,27.132302725674535,-91.63735373731406,26.05183519543274,-91.73397730488553,24.966761369076096,-91.87774718644468,23.8361639218939,-91.84938903830844,22.656925548307655,-91.62805730182666,21.45511385223523,-91.37800177485762,20.2607208346794,-91.29402120745847,19.08902901590246,-91.42875176450121,17.939159245252732,-91.60185468413489,16.79181056964748,-91.4131335832151,15.590340442224822,-90.43390776580834,14.263593506508453,-88.82475413768947,13,-88,10,-89,10.91001547530541,-88.55653145592164,12.141584527655825,-87.92812923607332,13.122767644603,-87.26288155333381,13.971526423381823,-86.67930582778837,14.809464624428825,-86.17897072693697,15.68801171540106,-85.70195081508245,16.616090857818953,-85.21257317575082,17.57752549958916,-84.71400849670364,18.540159547367445,-84.2060671933188,19.468646668633383,-83.6517694775372,20.33926788272996,-82.98877215995785,21.1466388633668,-82.16880427291959,21.89648336199586,-81.18692377315158,22.591331104174085,-80.08257043355533,23.225068787317547,-78.92354518252674,23.796788584606137,-77.78622811227173,24.334476334567803,-76.72534682007543,24.90145314355497,-75.7345475044138,25.57371113673539,-74.75751894556643,26.462863870255426,-73.77455280028008,28.08366414633001,-72.47397199052905,6,-89,7.406582716489683,-89.15229861094518,8.53306783392898,-89.50642477824455,9.788917613154146,-90.22079208690461,11.16822788491044,-91.26115761354544,12.532487979234928,-92.30714230686084,13.785700713489875,-93.07253724194669,14.928955188457655,-93.50438184543559,16.02511955392516,-93.7321570439079,17.141576549773507,-93.9152978519588,18.313662319925776,-94.14025018092826,19.537330950464895,-94.40711926925121,20.78221909856362,-94.66683818071279,22.013070747183082,-94.86145138675411,23.209004033791135,-94.94832611208743,24.37214976939684,-94.91226248170604,25.521261765741933,-94.77498061862698,26.67369100732029,-94.60804960997359,27.82894029899895,-94.54704590744242,28.97783404227151,-94.78559292351696,30.17627923171801,-95.50152630490592,31.726976545300538,-96.63675946108044,34.43143297556232,-97.35784496538312" fill="none" stroke="rgb(0, 0, 0)" stroke-width="2" stroke-linejoin="round" filter="url(#fuzzy)"></polyline><!--]--></g><g id="pointNose"><g id="rightNose"><!--[--><circle r="2.804632199329716" cx="9.838738180356863" cy="32.43285486595724" stroke="black" fill="none" stroke-width="1" filter="url(#fuzzy)"></circle><circle r="2.5401068144926224" cx="10.196795344598934" cy="32.54511621540774" stroke="black" fill="none" stroke-width="1" filter="url(#fuzzy)"></circle><circle r="1.0587422036410774" cx="11.167975963619295" cy="32.65563015774127" stroke="black" fill="none" stroke-width="1" filter="url(#fuzzy)"></circle><circle r="1.618676964132315" cx="8.980369078269765" cy="32.45236367488278" stroke="black" fill="none" stroke-width="1" filter="url(#fuzzy)"></circle><circle r="2.68173251504723" cx="10.550539842220344" cy="31.473399765328054" stroke="black" fill="none" stroke-width="1" filter="url(#fuzzy)"></circle><circle r="1.5470972323987224" cx="8.556886486832749" cy="32.002843320395606" stroke="black" fill="none" stroke-width="1" filter="url(#fuzzy)"></circle><circle r="2.9114856023680025" cx="9.142409897619682" cy="31.78545511623159" stroke="black" fill="none" stroke-width="1" filter="url(#fuzzy)"></circle><circle r="1.755176407517995" cx="8.684534201142437" cy="30.74007480117608" stroke="black" fill="none" stroke-width="1" filter="url(#fuzzy)"></circle><circle r="2.987163543848401" cx="10.927437462048799" cy="31.603100553100333" stroke="black" fill="none" stroke-width="1" filter="url(#fuzzy)"></circle><circle r="2.198189136468147" cx="9.050972394748438" cy="33.44007563152174" stroke="black" fill="none" stroke-width="1" filter="url(#fuzzy)"></circle><!--]--></g><g id="leftNose"><!--[--><circle r="1.467389119587119" cx="-9.929307473451313" cy="27.79564489271296" stroke="black" fill="none" stroke-width="1" filter="url(#fuzzy)"></circle><circle r="1.2652624732803948" cx="-7.246057656810853" cy="27.974971162575486" stroke="black" fill="none" stroke-width="1" filter="url(#fuzzy)"></circle><circle r="1.03477262217947" cx="-10.323878128947893" cy="27.213203913142777" stroke="black" fill="none" stroke-width="1" filter="url(#fuzzy)"></circle><circle r="1.5510932570520102" cx="-10.82877500316604" cy="29.619827524332724" stroke="black" fill="none" stroke-width="1" filter="url(#fuzzy)"></circle><circle r="2.423751399891606" cx="-10.881874305627727" cy="29.781543581919163" stroke="black" fill="none" stroke-width="1" filter="url(#fuzzy)"></circle><circle r="1.836335837360084" cx="-9.099352122025376" cy="28.10324106559381" stroke="black" fill="none" stroke-width="1" filter="url(#fuzzy)"></circle><circle r="1.1829594693847367" cx="-9.637900390188353" cy="28.18335750198003" stroke="black" fill="none" stroke-width="1" filter="url(#fuzzy)"></circle><circle r="2.463179203162918" cx="-8.8509011056472" cy="30.156955171196003" stroke="black" fill="none" stroke-width="1" filter="url(#fuzzy)"></circle><circle r="1.2978618023272648" cx="-9.068100068691011" cy="28.906308627058262" stroke="black" fill="none" stroke-width="1" filter="url(#fuzzy)"></circle><circle r="1.4235583025160126" cx="-8.518896708108914" cy="28.776419942126367" stroke="black" fill="none" stroke-width="1" filter="url(#fuzzy)"></circle><!--]--></g></g><g id="mouth"><polyline points="24.304733484824837,51.65271448742914,24.58027284832783,53.755774624364925,24.78684245001707,54.146452662098525,24.609273261944892,53.80998318522824,24.698673755489423,53.49014154918246,24.743981875246718,53.95075154253182,24.628026973980077,55.83610633217551,24.793237197954873,55.17211287548592,24.599442764788193,56.191008533135516,24.593091576948957,56.10930782730798,24.221480402158832,57.20057817766822,24.004713690287552,57.82531905440401,23.67691754682297,58.4795966915845,23.129948191967735,59.43413070442357,23.42534350565981,59.03548205967105,22.287413336006196,60.72479613257211,22.817877180185548,60.1694612071705,22.65791501056595,60.43901178159649,21.440506239447338,61.96878579998848,20.9994868593989,62.60593959411017,21.158970565712075,62.291743464054285,21.02982940484022,62.51770893961171,20.730925795709325,62.67645335778187,20.34190940905276,63.28877425731991,19.920280882703985,63.59745308114511,17.996112972959402,65.45789644362259,18.06032251642978,65.35822456581295,16.751668462353187,66.40264571660605,15.720113139846925,67.1717751743667,15.138210026947041,67.62151156700824,16.520794606458523,66.59524519402429,15.047364022377495,67.70177619558685,12.90276413376443,69.13338654024626,13.564000491747128,68.67082414095945,13.280525400455153,68.88572533348672,10.32817027170267,70.57990231181836,10.836548893199312,70.29668454584827,8.96152754877534,71.30819853655048,10.05488227335009,70.72852442190508,9.818831124061669,70.84752643065639,7.292701258747625,72.11602076105817,8.116116876799078,71.72751890432373,6.995633379164504,72.2809983289125,5.039369807129296,73.1202349844917,4.737047066466117,73.26991546576933,4.022356717251027,73.54347603008144,1.4785641608077302,74.50724748442123,1.7207576766120534,74.41538191793721,-0.8181430433180301,75.27273457932327,-0.01594026403930293,75.01602931578392,-1.3564732748790078,75.43797394299922,-3.114562988240859,75.94565931719046,-2.797173719154542,75.85398966569949,-4.505208012559084,76.30620563736873,-3.6073162329857134,76.08230127412283,-7.8110023260236,77.0627331800366,-5.6517569145305275,76.58401641276176,-7.781724133942039,77.03672084091406,-8.76416060930286,77.24313531445365,-10.051956667791107,77.44831007665827,-9.61526940921709,77.36342026666044,-11.053979764033475,77.60437443830031,-13.419985344071502,77.86868960756675,-12.082520232371039,77.70831339900866,-13.916166284685323,77.91368412728646,-16.19053497150785,78.09236074346414,-17.340620508028067,78.11825355160846,-18.482368170089984,78.15008568019105,-16.95422507233097,78.13067717010784,-18.02983818754236,78.08708895196015,-19.06737916523208,78.09237659848725,-21.406009102017443,77.98066876837247,-20.869903414676116,78.03144054331158,-23.0175039965363,77.87133654900752,-22.03159165882242,77.98846429161556,-24.677114414973957,77.58620814076698,-25.36287688169174,77.50149059767858,-25.99035036500498,77.29744084992743,-25.90928226227421,77.41293206904606,-26.0633406358049,77.33322920246718,-27.10621305637668,77.01490230833427,-28.09273053187892,76.79834908112855,-28.2197775697147,76.83858990362441,-30.074135437547838,76.07873422735123,-29.328953066029364,76.41189575242947,-31.16240139229417,75.58420686544696,-31.407964617374695,75.3237481164347,-31.04378109356596,75.55616410098843,-32.461166643136906,74.6547414957377,-32.57235401212615,74.64871596595465,-32.62810400887517,74.46470908268131,-32.445857504193846,74.52868758584484,-33.75577901769367,73.60127020395221,-33.803447616574,73.41638517165744,-34.005457716275394,73.10996407503953,-34.811463660653295,72.21917390878006,-35.016553741301465,72.0389453432499,-34.627045983967214,72.57456949868754,-34.81668180232036,72.0103420009559,-35.410642071477405,70.93517212282278,-35.27955204123487,70.85371168288766,-35.65899441528991,69.5039201392472,-35.88815210904681,69.16223053117935,-35.84695340198531,69.57689682031325,-35.874291481090815,68.85428626155144,-35.61682592086098,67.86376838655136,-35.85335869322126,67.47186050879927,-35.65255844827302,68.15500893641541,-35.49912015463787,66.28255162047407,-35.21165063636558,65.81945342690427,-35.37547940039854,65.72808614370739,-34.869981173743476,64.9491791953859,-34.62894069265154,64.30953735677778,-34.555925366232,64.306310166919,-34.72654096314967,64.60068978356463,-34.46681548434456,64.11419396107382,-33.82009856855341,62.92219160608072,-32.7747561485038,61.51390326206965,-33.362492528326726,62.05188444045579,-33.162469266881516,61.9827713563437,-31.565499653776058,59.999343614812396,-31.109144645502035,59.57470069879515,-31.656117353944886,60.24323808533397,-31.263362114144478,59.73034692319276,-30.674556231980233,59.08863458780304,-29.764222049528506,58.297332499072446,-29.592471878159415,58.11038474467681,-28.432780479392918,57.13714139041937,-28.6578536840667,57.39640277214103,-26.796646189700766,55.95250791091385,-25.49455915421853,55.035637993597284,-25.742192812668407,55.1867402769191,-24.1973581718648,54.1463728149033,-25.533853668022182,55.02701672592149,-22.93258791751507,53.39516352278517,-23.520386643954325,53.769534176178226,-21.7050550749779,52.736219081604936,-21.44298221807079,52.583392653293714,-21.343920344296812,52.51984290656161,-20.212419353501943,51.97714098449269,-19.08519147229495,51.384194006039934,-17.757362067975812,50.80083754135511,-16.591461982316922,50.27817407587435,-16.955671335992328,50.44344909572024,-15.277630098172109,49.72038319370415,-14.22469874167063,49.318319773339894,-13.63358052380923,49.08712037956619,-10.93567023140098,48.15115762355213,-12.757215979814257,48.77451017305703,-10.394170894890088,47.97671434917511,-9.04251203940676,47.56313381071375,-9.654012946315728,47.74676398149934,-6.4843892259441,46.85929809004179,-6.33726425299643,46.82304483536869,-6.648340028389149,46.911435846776804,-5.046275053153961,46.51828971993797,-2.4762856300818354,46.00073420917006,-2.5450549035877703,45.999145979886535,-2.296040121202757,45.951727071295764,-0.681701672562868,45.6902258836583,-1.6117926190998464,45.84034920567517,0.18783149509060504,45.525604335316814,3.121836218853021,45.217856709376115,1.685905804216631,45.34690351506825,2.2351988158707456,45.30634099735541,3.9420525749040873,45.11121582743704,6.032271869389907,45.02734369975433,5.545771966312538,45.059947723074174,8.228626180954393,44.98934323215322,8.59842352654373,45.01650271671532,7.745435974318147,45.0063097111043,10.66113062872621,45.14188382583124,11.750453133563111,45.18525638121467,10.099989764944628,45.059620357551076,12.384659273553408,45.260584005423375,13.392061490821758,45.46909133665346,13.601862700518195,45.46516685457751,13.665156405818573,45.43512078055974,13.69135443975871,45.47572400753066,16.553696129042386,46.10767641286344,15.355036335133667,45.85800268523638,15.762826638215985,45.94684722440803,18.346319916517956,46.78256501219312,18.451376285014092,46.79910568730516,19.186866277587917,47.170123585940246,19.76892450451163,47.37827050240482,19.534261459352727,47.24050649364601,20.55007934049437,47.890903484459386,20.744907660869224,47.92739265679137,21.22876541072715,48.28738121571725,22.025882010917023,48.72926665163671,22.139152218803318,48.84877676250943,22.286677455619163,48.9913538240318,23.34408444671407,50.27733089349036,23.187306231772993,50.06582554706769,23.486080998961185,50.482574267623676,23.815571571623217,50.95491082217454,24.284096589698535,51.69799304811588,24.472927609900438,52.31065529275403,24.04266462176078,51.290492635754724" fill="rgb(215,127,140)" stroke="black" stroke-width="3" stroke-linejoin="round" filter="url(#fuzzy)"></polyline></g></svg>