<svg viewBox="-100 -100 200 200" xmlns="http://www.w3.org/2000/svg" width="400" height="400" id="face-svg"><defs><clipPath id="leftEyeClipPath"><polyline points="30.70140202193496,2.458837986712693,30.411537781360803,2.054685078072543,30.081389098169275,1.6460128613158558,29.712580720633166,1.2343881319835557,29.306720831302787,0.8213047215402298,28.865400588381693,0.40818490849814815,28.39019366710236,-0.00361917045871607,27.882655801101865,-0.4128241093506677,27.344324323797654,-0.8182138217782615,26.776717709763155,-1.218638129798288,26.181335116103533,-1.6130113527997487,25.559655923831365,-2.0003108963798404,24.91313927924236,-2.3795758412199284,24.243223635291006,-2.749905531961531,23.551326292966337,-3.1104581660822888,22.838842942667583,-3.4604493827719622,22.041727766090204,-3.9600446764427346,21.215209634575274,-4.4409564736042295,20.361238439784024,-4.901517628891138,19.481839654261076,-5.340239941149109,18.57910106330414,-5.755808137221457,17.655160097604814,-6.147073858030936,16.712191755707433,-6.513049649484596,15.752397105332706,-6.852902960729715,14.777992352613229,-7.165950152288673,13.79119846828765,-7.451650516600921,12.794231359900426,-7.709600313499809,11.789292579054091,-7.939526823152434,10.778560552760924,-8.141282418990325,9.764182327940885,-8.31483866315909,8.74826581811278,-8.460280427014837,7.7328725413254995,-8.57780003919548,6.720010838376282,-8.667691463794839,5.711629560362873,-8.730344511167477,4.70961221461647,-8.76623908389232,3.7157715580623973,-8.775939460423029,2.7318446270553727,-8.76008861895296,1.7594881927362742,-8.719402604022921,0.8002746309573432,-8.65466493839945,-0.1443118041773399,-8.566721082751805,-1.0728783141091434,-8.456472945655477,-1.9841265079130608,-8.32487344645028,-2.8768549836298867,-8.17292113348098,-3.7499615497954597,-8.001654860248408,-4.60244509812013,-7.812148521999099,-5.433407138271441,-7.605505855281326,-6.242053005713268,-7.382855302995573,-7.0276927535543745,-7.145344947467436,-7.789741739359592,-6.8941375140708665,-8.527720917876636,-6.630405447929753,-9.241256850631771,-6.3553260662258495,-9.930081443347238,-6.070076788640961,-10.59403142213377,-5.775830448461386,-11.233047559411109,-5.473750686872663,-11.847173660509714,-5.1649874329724295,-12.43655532190677,-4.850672472029533,-13.001438472049479,-4.5319151045172745,-13.542167705718946,-4.209797898448732,-14.059184422887508,-3.8853725375423096,-14.55302478302281,-3.559655767745216,-15.024317485791624,-3.233625444643085,-15.473781389116485,-2.9082166842835644,-15.902222975538375,-2.5843181199419494,-16.31053367783843,-2.262768267356737,-16.699687074871683,-1.9443520009631055,-17.07073596856636,-1.6297971436523966,-17.42413994575795,-1.318320518251836,-17.75984277615364,-1.008994716295291,-18.078191914827777,-0.702269100997114,-18.379548003385096,-0.39856965034267944,-18.664283403027888,-0.09829861852056787,-18.93278072762305,0.19816580264525996,-19.1854313767693,0.4904698222632726,-19.422634068864284,0.7782843889421978,-19.644793374171673,1.0613055293588252,-19.85231824788835,1.339254686825834,-20.045620563211493,1.611879059859608,-20.225113644405756,1.878951940748058,-20.39121079987035,2.1402730541184365,-20.544323855206223,2.395668895505156,-18.670729548571728,3.1898397851747573,-18.428918741799635,3.3857394321888696,-18.175561609472375,3.576302572955221,-17.91048376603129,3.7616412458908046,-17.633519276839362,3.9418838072395834,-17.344510651746404,4.117173585124078,-17.043308838654337,4.28766753359696,-16.729773217082325,4.453534886692639,-16.40377159173205,4.61495581247885,-16.065180186052874,4.772120067108259,-15.713883635807097,4.925225648870034,-15.349774982635147,5.074477452241449,-14.972755667620781,5.220085921939468,-14.582735524856322,5.362265706972339,-14.179632775007857,5.5012343146911835,-13.762730948563092,5.636982346286189,-13.331083287503901,5.769592566508039,-12.88429504397164,5.89941146095866,-12.42200725970297,6.026769782329929,-11.94389783561893,6.1519805736024225,-11.449682556898484,6.275337220505703,-10.939116073584461,6.397111543289865,-10.411992836770004,6.517551937858139,-9.868147990413487,6.636881576310238,-9.307458218830071,6.755296676946262,-8.72984254990779,6.872964853780854,-8.135263114096404,6.990023555617379,-7.523725859216846,7.106578604731879,-6.895281221139523,7.222702845216543,-6.250024750379366,7.3384349110324365,-5.58809769465573,7.453778123821252,-4.9096875374652065,7.568699530525814,-4.215028492715348,7.6831290908691035,-3.504401955467431,7.796959024741524,-2.778136908836183,7.910043329546189,-2.03661028709465,8.022197477551963,-1.2802472950321508,8.133198303303985,-0.5095216836134373,8.242784091141468,0.2750440180129736,8.35065487287248,1.0728783141091451,8.456472945655477,1.883360597496802,8.559863620137333,2.705821048213026,8.660416208897605,3.5395405756245566,8.757685265248794,4.383750803952646,8.851192082442351,5.237634101160396,8.940426463330152,6.100323651154585,9.024848770531232,6.9709035692538635,9.10389226715348,7.848409060875348,9.176965758120083,8.731826623391516,9.243456542150435,9.62009429110937,9.302733684445288,10.512101923323835,9.354151620125862,11.406691535397322,9.397054098476698,12.30265767281743,9.430778478041969,13.198747828184734,9.454660382625011,14.093662901082602,9.468038728240836,14.986057700781021,9.470261131071348,15.874541491726362,9.460689706473023,16.757678581769014,9.438707269086812,17.63398895308093,9.403723944100001,18.50194893571493,9.355184199709774,19.359991923757768,9.292574310838233,20.206509134028963,9.21543026414864,21.03985040727723,9.123346114412588,21.85832505182656,9.015982802277886,22.660202729623894,8.893077443486904,23.335351382520145,8.809162857277634,23.995977851898143,8.714440709145684,24.640791474114078,8.608584215936997,25.26845391369249,8.491276897016506,25.877578405118143,8.362213286865092,26.466728994627886,8.221099647676516,27.034419782002487,8.067654681954371,27.57911416235854,7.901610245109025,28.0992240679403,7.722712058054565,28.593109209911532,7.530720419805744,29.05907632014741,7.325410920074921,29.495378393026346,7.106575151869012,29.900213927221863,6.874021424086431,30.271726167494457,6.627575474114034,30.608002346483453,6.367081180424071"></polyline></clipPath><clipPath id="rightEyeClipPath"><polyline points="-29.12253845061396,3.409616042751398,-29.04081539459558,3.1209883434527947,-28.90709403374922,2.8295704958969528,-28.72345335683792,2.53595715487661,-28.491944627065518,2.2407327866480813,-28.21459104945848,1.9444715308768599,-27.89338743824774,1.6477370625831975,-27.530299884250564,1.3510824540876953,-27.127265422252403,1.0550500369568976,-26.686191698388708,0.760171263948874,-26.20895663752685,0.46696657095881466,-25.697408110647885,0.17594523896461567,-25.153363602228477,-0.11239474402753125,-24.578609877622696,-0.39756682103755026,-23.974902650443905,-0.6790960041658902,-23.34396624994658,-0.9565190126479406,-22.631326444236112,-1.2950606024871707,-21.882527188528282,-1.6297704881853008,-21.099785397051146,-1.9595158919281115,-20.285396935062824,-2.2831856207105545,-19.441722614136097,-2.599696067102636,-18.571174811746708,-2.9079967604492243,-17.676204704018208,-3.2070754791670186,-16.759290100476044,-3.4959629348019483,-15.822923869663603,-3.773737038510248,-14.869602944473048,-4.039526760626513,-13.901817896043596,-4.292515593981934,-12.922043065080079,-4.531944631636009,-11.932727239444462,-4.757115269684993,-10.936284866873093,-4.967391545810351,-9.935087791672435,-5.162202124230415,-8.931457504246035,-5.341041937718623,-7.927657892305442,-5.503473497351459,-6.925888482617891,-5.649127880649477,-5.928278162143405,-5.777705408774603,-4.936879367414146,-5.88897602344699,-3.953662731008719,-5.982779374244659,-2.9805121739741915,-6.059024626949295,-2.0192204330485657,-6.117690003601274,-1.0714850115364705,-6.158822064927364,-0.13890454269078134,-6.182534745804267,0.7770244455470241,-6.1890081544212325,1.674910375595088,-6.178487145805105,2.553469086215184,-6.151279680370987,3.4115259305798133,-6.107754978161799,4.248017517569547,-6.048341479439989,5.061993107448004,-5.973524622294679,5.852615673061594,-5.8838444479274905,6.619162637711348,-5.779893044280286,7.361026300844042,-5.662311838668133,8.077713962709943,-5.531788750080741,8.768847759134335,-5.3890552118155775,9.434164217550109,-5.23488307510601,10.073513545438736,-5.0700814044076505,10.686858662326802,-4.8954931750062585,11.274273986485337,-4.7119918836103345,11.83594398747929,-4.520478082591815,12.372161515714279,-4.3218758485379585,12.88332592012802,-4.11712919577789,13.369940965173491,-3.9071984455468556,13.832612558241323,-3.6930565614515842,14.27204629866839,-3.475685461899971,14.68904485948013,-3.256072320158351,15.084505213013678,-3.0352058626996055,15.45941571156903,-2.81407267650539,15.814853034235743,-2.593653535985734,16.151211906719904,-2.37310698374694,16.46834152708159,-2.151287505663136,16.766577406695227,-1.9287046995886339,17.046270892854587,-1.7058556308067292,17.307787675837123,-1.4832234039144794,17.551506295968412,-1.2612757347074393,17.77781665068651,-1.0404635220644414,17.987118501606368,-0.8212194198323317,18.179819981584178,-0.603956408710749,18.35633610178186,-0.3890663681368727,18.517087258731344,-0.17691864817018033,18.66249774139904,0.03214135862278944,18.7929942382502,0.23779364528368152,18.909004344313306,0.43974501857756465,18.10532691435058,1.5768910265950664,17.864253652481878,1.736183738741727,17.613420746591707,1.8910095041269868,17.352739368388836,2.041502469599518,17.08212918309026,2.1878125663579304,16.80151768188442,2.3301040997434868,16.51083951439456,2.468554339032845,16.210035821141986,2.603352107230788,15.899053566009368,2.734696370862951,15.577844868704023,2.862794829768567,15.246366337221211,2.9878625068931832,14.904578400307454,3.1101203380814018,14.552444639923774,3.229793761869614,14.18993112370902,3.3471113092787244,13.817005737443171,3.462303193606892,13.43273559865781,3.5752444939948553,13.036072183544757,3.6859344266827745,12.626813709463448,3.794775528759853,12.204762901977201,3.9021496857666143,11.769727919352604,4.008416170189687,11.321523289435444,4.113909717615279,10.859970863887398,4.218938651070918,10.384900794767645,4.32378306408499,9.896152538443847,4.428693072993635,9.393575891816614,4.533887149024532,8.877032065841885,4.639550540687141,8.346394801335318,4.74583379699893,7.801551532043135,4.852851402077149,7.242404599963589,4.960680531625691,6.668872527903382,5.0693599418465904,6.0808913542532395,5.178889001305707,5.478416034967005,5.289226876282135,4.8614219177284514,5.400291880130904,4.229906293290174,5.511960997188494,3.5838900289686997,5.624069591750732,2.9234192892802415,5.736411312652614,2.2485673487012434,5.848738203979589,1.5594365015380998,5.960761032439862,0.8561600738902122,6.0721498419272715,0.13890454269077956,6.182534745804267,-0.5921282331905378,6.291506967434552,-1.3366986647986785,6.398620139494942,-2.094526962913796,6.5033918725959605,-2.865290540857062,6.60530560374076,-3.648621285297475,6.703812735151874,-4.444102690075331,6.7983350739953785,-5.251266848058102,6.888267583532001,-6.069591296044482,6.972981456224711,-6.898495707732266,7.051827519332366,-7.737338429765824,7.124139983518935,-8.585412855878921,7.1892405450078645,-9.441943634148537,7.246442851811129,-10.306082702375491,7.2950573445625055,-11.17690514660752,7.3343964824846335,-12.053404877820629,7.363780365019405,-12.934490121774335,7.382542759651219,-13.81897871705663,7.390037546452666,-14.70559321633429,7.385645589882176,-15.592955785824355,7.368782048363189,-16.479582898002437,7.338904132174388,-17.363879812563603,7.295519320180542,-18.24413484065155,7.238194045933511,-19.11851338737184,7.166562863672962,-19.98505176760486,7.08033810475633,-20.841650790134246,6.979320035047595,-21.520855354520688,6.920993557875384,-22.187058923133684,6.853229622249029,-22.83868129006015,6.775792130149982,-23.474063640199965,6.688460840342859,-24.091466790095737,6.591032237588234,-24.689069428762497,6.483320401855442,-25.2649663585175,6.365157877535393,-25.81716673580991,6.23639654265336,-26.34359231205057,6.096908478081795,-26.84207567444174,5.946586836753131,-27.31035848680683,5.785346712872581,-27.746089730420156,5.6131260111309444,-28.14682394483665,5.429886315917413,-28.510019468721634,5.235613760532369,-28.83303668068054,5.030319896400199"></polyline></clipPath><filter id="fuzzy"><feTurbulence id="turbulence" baseFrequency="0.05" numOctaves="3" type="noise" result="noise"></feTurbulence><feDisplacementMap in="SourceGraphic" in2="noise" scale="2"></feDisplacementMap></filter><linearGradient id="rainbowGradient" x1="0%" y1="0%" x2="100%" y2="0%"><stop offset="0%" style="stop-color: rgb(233, 236, 239);  stop-opacity: 1"></stop><stop offset="50%" style="stop-color: rgb(44, 34, 43);  stop-opacity: 1"></stop><stop offset="100%" style="stop-color: rgb(0, 191, 255);  stop-opacity: 1"></stop></linearGradient></defs><title>That&#39;s an ugly face</title><desc>CREATED BY XUAN TANG, MORE INFO AT TXSTC55.GITHUB.IO</desc><rect x="-100" y="-100" width="100%" height="100%" opacity="1" fill="rgb(0, 0, 139)"></rect><polyline id="faceContour" points="67,-1,67,2,67,4,67,2,67,5,67,6,67,6,67,9,67,11,67,12,67,13,67,11,66,15,66,15,66,16,66,20,66,20,65,21,65,22,65,23,65,23,64,25,63,28,63,29,63,28,62,32,63,31,62,32,61,35,61,35,61,37,60,38,60,38,59,39,59,40,58,42,58,42,57,43,56,45,56,46,54,48,54,49,54,49,53,51,53,50,51,53,52,52,51,53,51,54,49,56,48,57,48,58,48,58,47,58,45,61,45,61,45,61,44,62,42,64,41,65,40,65,39,67,38,68,38,68,36,69,36,69,34,71,34,71,33,72,31,73,32,72,29,74,30,74,30,74,27,75,26,76,25,77,24,77,23,78,24,77,20,79,19,79,20,79,18,80,17,80,16,81,16,81,14,82,13,82,13,82,11,82,11,82,7,83,7,83,5,84,5,84,5,84,3,84,2,84,2,84,-1,84,-3,85,-2,85,-4,85,-3,84,-7,84,-6,85,-8,85,-8,84,-10,84,-11,84,-11,84,-14,84,-15,84,-16,84,-17,83,-16,83,-19,83,-18,83,-20,83,-20,83,-22,82,-22,82,-25,81,-26,81,-25,81,-28,80,-28,80,-29,79,-30,79,-32,78,-32,77,-33,77,-35,76,-36,75,-37,74,-36,75,-38,74,-40,72,-41,71,-39,73,-41,71,-41,71,-43,70,-44,69,-44,68,-46,67,-46,66,-48,64,-49,63,-48,65,-49,62,-51,60,-50,62,-50,61,-52,59,-53,58,-53,57,-55,55,-54,55,-55,54,-55,53,-56,51,-57,50,-57,50,-59,47,-59,47,-58,47,-59,45,-61,41,-61,42,-61,40,-61,40,-62,38,-62,36,-62,36,-63,34,-63,34,-64,32,-64,29,-64,29,-65,27,-65,26,-65,23,-65,23,-66,21,-66,20,-66,18,-66,17,-66,16,-67,15,-67,13,-67,13,-67,8,-67,10,-67,7,-67,5,-67,4,-67,1,-67,2,-67,0,-67,-2,-67,-4,-67,-3,-67,-4,-67,-5,-66,-10,-66,-11,-66,-13,-66,-12,-66,-14,-66,-15,-66,-17,-65,-21,-65,-21,-65,-21,-65,-23,-64,-24,-64,-26,-63,-27,-63,-27,-63,-29,-62,-31,-62,-32,-61,-35,-61,-35,-61,-35,-60,-38,-60,-38,-60,-39,-59,-42,-58,-44,-58,-44,-58,-44,-57,-45,-56,-49,-55,-50,-56,-49,-55,-50,-54,-53,-53,-54,-53,-53,-52,-56,-52,-56,-51,-57,-50,-58,-49,-60,-48,-62,-47,-63,-47,-63,-46,-64,-46,-65,-45,-65,-46,-65,-43,-68,-43,-68,-42,-68,-42,-69,-40,-70,-38,-72,-38,-72,-38,-72,-37,-73,-36,-74,-36,-74,-35,-75,-32,-77,-33,-76,-32,-76,-32,-77,-29,-79,-28,-79,-27,-79,-28,-79,-26,-80,-25,-81,-23,-81,-24,-81,-21,-82,-21,-82,-19,-83,-20,-82,-19,-83,-17,-83,-17,-83,-16,-83,-14,-84,-13,-84,-13,-84,-11,-84,-10,-84,-9,-85,-9,-84,-8,-85,-4,-85,-6,-85,-5,-85,-2,-84,-2,-85,-2,-85,0,-84,1,-84,3,-84,4,-84,4,-84,4,-84,5,-84,6,-84,9,-83,10,-82,10,-83,11,-82,13,-81,13,-81,14,-81,15,-81,16,-80,17,-80,19,-79,18,-79,21,-78,21,-78,22,-78,25,-76,25,-76,25,-76,27,-75,26,-75,28,-74,29,-73,31,-72,31,-71,31,-72,33,-71,33,-70,34,-69,36,-68,37,-67,37,-68,37,-67,39,-65,40,-64,40,-65,41,-63,42,-62,43,-61,43,-61,44,-60,45,-59,46,-57,46,-57,47,-56,48,-55,50,-53,50,-52,51,-51,50,-51,51,-51,53,-48,53,-47,53,-48,55,-44,55,-44,55,-44,56,-43,56,-43,57,-40,57,-39,58,-39,58,-38,59,-35,59,-36,60,-34,60,-34,61,-30,62,-29,62,-29,62,-29,63,-26,63,-25,63,-25,64,-23,64,-22,64,-20,64,-22,65,-18,65,-16,65,-18,66,-15,66,-14,66,-12,66,-10,66,-10,66,-10,67,-7,67,-6,67,-4,67,-6,67,-2,67,-1,67,-1,67,2" fill="#ffc9a9" stroke="black" stroke-width="1.6666666666666665" stroke-linejoin="round" filter="url(#fuzzy)"></polyline><g transform="translate(37.96744304565949 -28.815521421940172)"><polyline id="rightCountour" points="-29.12253845061396,3.409616042751398,-29.04081539459558,3.1209883434527947,-28.90709403374922,2.8295704958969528,-28.72345335683792,2.53595715487661,-28.491944627065518,2.2407327866480813,-28.21459104945848,1.9444715308768599,-27.89338743824774,1.6477370625831975,-27.530299884250564,1.3510824540876953,-27.127265422252403,1.0550500369568976,-26.686191698388708,0.760171263948874,-26.20895663752685,0.46696657095881466,-25.697408110647885,0.17594523896461567,-25.153363602228477,-0.11239474402753125,-24.578609877622696,-0.39756682103755026,-23.974902650443905,-0.6790960041658902,-23.34396624994658,-0.9565190126479406,-22.631326444236112,-1.2950606024871707,-21.882527188528282,-1.6297704881853008,-21.099785397051146,-1.9595158919281115,-20.285396935062824,-2.2831856207105545,-19.441722614136097,-2.599696067102636,-18.571174811746708,-2.9079967604492243,-17.676204704018208,-3.2070754791670186,-16.759290100476044,-3.4959629348019483,-15.822923869663603,-3.773737038510248,-14.869602944473048,-4.039526760626513,-13.901817896043596,-4.292515593981934,-12.922043065080079,-4.531944631636009,-11.932727239444462,-4.757115269684993,-10.936284866873093,-4.967391545810351,-9.935087791672435,-5.162202124230415,-8.931457504246035,-5.341041937718623,-7.927657892305442,-5.503473497351459,-6.925888482617891,-5.649127880649477,-5.928278162143405,-5.777705408774603,-4.936879367414146,-5.88897602344699,-3.953662731008719,-5.982779374244659,-2.9805121739741915,-6.059024626949295,-2.0192204330485657,-6.117690003601274,-1.0714850115364705,-6.158822064927364,-0.13890454269078134,-6.182534745804267,0.7770244455470241,-6.1890081544212325,1.674910375595088,-6.178487145805105,2.553469086215184,-6.151279680370987,3.4115259305798133,-6.107754978161799,4.248017517569547,-6.048341479439989,5.061993107448004,-5.973524622294679,5.852615673061594,-5.8838444479274905,6.619162637711348,-5.779893044280286,7.361026300844042,-5.662311838668133,8.077713962709943,-5.531788750080741,8.768847759134335,-5.3890552118155775,9.434164217550109,-5.23488307510601,10.073513545438736,-5.0700814044076505,10.686858662326802,-4.8954931750062585,11.274273986485337,-4.7119918836103345,11.83594398747929,-4.520478082591815,12.372161515714279,-4.3218758485379585,12.88332592012802,-4.11712919577789,13.369940965173491,-3.9071984455468556,13.832612558241323,-3.6930565614515842,14.27204629866839,-3.475685461899971,14.68904485948013,-3.256072320158351,15.084505213013678,-3.0352058626996055,15.45941571156903,-2.81407267650539,15.814853034235743,-2.593653535985734,16.151211906719904,-2.37310698374694,16.46834152708159,-2.151287505663136,16.766577406695227,-1.9287046995886339,17.046270892854587,-1.7058556308067292,17.307787675837123,-1.4832234039144794,17.551506295968412,-1.2612757347074393,17.77781665068651,-1.0404635220644414,17.987118501606368,-0.8212194198323317,18.179819981584178,-0.603956408710749,18.35633610178186,-0.3890663681368727,18.517087258731344,-0.17691864817018033,18.66249774139904,0.03214135862278944,18.7929942382502,0.23779364528368152,18.909004344313306,0.43974501857756465,18.10532691435058,1.5768910265950664,17.864253652481878,1.736183738741727,17.613420746591707,1.8910095041269868,17.352739368388836,2.041502469599518,17.08212918309026,2.1878125663579304,16.80151768188442,2.3301040997434868,16.51083951439456,2.468554339032845,16.210035821141986,2.603352107230788,15.899053566009368,2.734696370862951,15.577844868704023,2.862794829768567,15.246366337221211,2.9878625068931832,14.904578400307454,3.1101203380814018,14.552444639923774,3.229793761869614,14.18993112370902,3.3471113092787244,13.817005737443171,3.462303193606892,13.43273559865781,3.5752444939948553,13.036072183544757,3.6859344266827745,12.626813709463448,3.794775528759853,12.204762901977201,3.9021496857666143,11.769727919352604,4.008416170189687,11.321523289435444,4.113909717615279,10.859970863887398,4.218938651070918,10.384900794767645,4.32378306408499,9.896152538443847,4.428693072993635,9.393575891816614,4.533887149024532,8.877032065841885,4.639550540687141,8.346394801335318,4.74583379699893,7.801551532043135,4.852851402077149,7.242404599963589,4.960680531625691,6.668872527903382,5.0693599418465904,6.0808913542532395,5.178889001305707,5.478416034967005,5.289226876282135,4.8614219177284514,5.400291880130904,4.229906293290174,5.511960997188494,3.5838900289686997,5.624069591750732,2.9234192892802415,5.736411312652614,2.2485673487012434,5.848738203979589,1.5594365015380998,5.960761032439862,0.8561600738902122,6.0721498419272715,0.13890454269077956,6.182534745804267,-0.5921282331905378,6.291506967434552,-1.3366986647986785,6.398620139494942,-2.094526962913796,6.5033918725959605,-2.865290540857062,6.60530560374076,-3.648621285297475,6.703812735151874,-4.444102690075331,6.7983350739953785,-5.251266848058102,6.888267583532001,-6.069591296044482,6.972981456224711,-6.898495707732266,7.051827519332366,-7.737338429765824,7.124139983518935,-8.585412855878921,7.1892405450078645,-9.441943634148537,7.246442851811129,-10.306082702375491,7.2950573445625055,-11.17690514660752,7.3343964824846335,-12.053404877820629,7.363780365019405,-12.934490121774335,7.382542759651219,-13.81897871705663,7.390037546452666,-14.70559321633429,7.385645589882176,-15.592955785824355,7.368782048363189,-16.479582898002437,7.338904132174388,-17.363879812563603,7.295519320180542,-18.24413484065155,7.238194045933511,-19.11851338737184,7.166562863672962,-19.98505176760486,7.08033810475633,-20.841650790134246,6.979320035047595,-21.520855354520688,6.920993557875384,-22.187058923133684,6.853229622249029,-22.83868129006015,6.775792130149982,-23.474063640199965,6.688460840342859,-24.091466790095737,6.591032237588234,-24.689069428762497,6.483320401855442,-25.2649663585175,6.365157877535393,-25.81716673580991,6.23639654265336,-26.34359231205057,6.096908478081795,-26.84207567444174,5.946586836753131,-27.31035848680683,5.785346712872581,-27.746089730420156,5.6131260111309444,-28.14682394483665,5.429886315917413,-28.510019468721634,5.235613760532369,-28.83303668068054,5.030319896400199" fill="white" stroke="white" stroke-width="0" stroke-linejoin="round" filter="url(#fuzzy)"></polyline></g><g transform="translate(-36.96697425848048 -28.390730509056475)"><polyline id="leftCountour" points="30.70140202193496,2.458837986712693,30.411537781360803,2.054685078072543,30.081389098169275,1.6460128613158558,29.712580720633166,1.2343881319835557,29.306720831302787,0.8213047215402298,28.865400588381693,0.40818490849814815,28.39019366710236,-0.00361917045871607,27.882655801101865,-0.4128241093506677,27.344324323797654,-0.8182138217782615,26.776717709763155,-1.218638129798288,26.181335116103533,-1.6130113527997487,25.559655923831365,-2.0003108963798404,24.91313927924236,-2.3795758412199284,24.243223635291006,-2.749905531961531,23.551326292966337,-3.1104581660822888,22.838842942667583,-3.4604493827719622,22.041727766090204,-3.9600446764427346,21.215209634575274,-4.4409564736042295,20.361238439784024,-4.901517628891138,19.481839654261076,-5.340239941149109,18.57910106330414,-5.755808137221457,17.655160097604814,-6.147073858030936,16.712191755707433,-6.513049649484596,15.752397105332706,-6.852902960729715,14.777992352613229,-7.165950152288673,13.79119846828765,-7.451650516600921,12.794231359900426,-7.709600313499809,11.789292579054091,-7.939526823152434,10.778560552760924,-8.141282418990325,9.764182327940885,-8.31483866315909,8.74826581811278,-8.460280427014837,7.7328725413254995,-8.57780003919548,6.720010838376282,-8.667691463794839,5.711629560362873,-8.730344511167477,4.70961221461647,-8.76623908389232,3.7157715580623973,-8.775939460423029,2.7318446270553727,-8.76008861895296,1.7594881927362742,-8.719402604022921,0.8002746309573432,-8.65466493839945,-0.1443118041773399,-8.566721082751805,-1.0728783141091434,-8.456472945655477,-1.9841265079130608,-8.32487344645028,-2.8768549836298867,-8.17292113348098,-3.7499615497954597,-8.001654860248408,-4.60244509812013,-7.812148521999099,-5.433407138271441,-7.605505855281326,-6.242053005713268,-7.382855302995573,-7.0276927535543745,-7.145344947467436,-7.789741739359592,-6.8941375140708665,-8.527720917876636,-6.630405447929753,-9.241256850631771,-6.3553260662258495,-9.930081443347238,-6.070076788640961,-10.59403142213377,-5.775830448461386,-11.233047559411109,-5.473750686872663,-11.847173660509714,-5.1649874329724295,-12.43655532190677,-4.850672472029533,-13.001438472049479,-4.5319151045172745,-13.542167705718946,-4.209797898448732,-14.059184422887508,-3.8853725375423096,-14.55302478302281,-3.559655767745216,-15.024317485791624,-3.233625444643085,-15.473781389116485,-2.9082166842835644,-15.902222975538375,-2.5843181199419494,-16.31053367783843,-2.262768267356737,-16.699687074871683,-1.9443520009631055,-17.07073596856636,-1.6297971436523966,-17.42413994575795,-1.318320518251836,-17.75984277615364,-1.008994716295291,-18.078191914827777,-0.702269100997114,-18.379548003385096,-0.39856965034267944,-18.664283403027888,-0.09829861852056787,-18.93278072762305,0.19816580264525996,-19.1854313767693,0.4904698222632726,-19.422634068864284,0.7782843889421978,-19.644793374171673,1.0613055293588252,-19.85231824788835,1.339254686825834,-20.045620563211493,1.611879059859608,-20.225113644405756,1.878951940748058,-20.39121079987035,2.1402730541184365,-20.544323855206223,2.395668895505156,-18.670729548571728,3.1898397851747573,-18.428918741799635,3.3857394321888696,-18.175561609472375,3.576302572955221,-17.91048376603129,3.7616412458908046,-17.633519276839362,3.9418838072395834,-17.344510651746404,4.117173585124078,-17.043308838654337,4.28766753359696,-16.729773217082325,4.453534886692639,-16.40377159173205,4.61495581247885,-16.065180186052874,4.772120067108259,-15.713883635807097,4.925225648870034,-15.349774982635147,5.074477452241449,-14.972755667620781,5.220085921939468,-14.582735524856322,5.362265706972339,-14.179632775007857,5.5012343146911835,-13.762730948563092,5.636982346286189,-13.331083287503901,5.769592566508039,-12.88429504397164,5.89941146095866,-12.42200725970297,6.026769782329929,-11.94389783561893,6.1519805736024225,-11.449682556898484,6.275337220505703,-10.939116073584461,6.397111543289865,-10.411992836770004,6.517551937858139,-9.868147990413487,6.636881576310238,-9.307458218830071,6.755296676946262,-8.72984254990779,6.872964853780854,-8.135263114096404,6.990023555617379,-7.523725859216846,7.106578604731879,-6.895281221139523,7.222702845216543,-6.250024750379366,7.3384349110324365,-5.58809769465573,7.453778123821252,-4.9096875374652065,7.568699530525814,-4.215028492715348,7.6831290908691035,-3.504401955467431,7.796959024741524,-2.778136908836183,7.910043329546189,-2.03661028709465,8.022197477551963,-1.2802472950321508,8.133198303303985,-0.5095216836134373,8.242784091141468,0.2750440180129736,8.35065487287248,1.0728783141091451,8.456472945655477,1.883360597496802,8.559863620137333,2.705821048213026,8.660416208897605,3.5395405756245566,8.757685265248794,4.383750803952646,8.851192082442351,5.237634101160396,8.940426463330152,6.100323651154585,9.024848770531232,6.9709035692538635,9.10389226715348,7.848409060875348,9.176965758120083,8.731826623391516,9.243456542150435,9.62009429110937,9.302733684445288,10.512101923323835,9.354151620125862,11.406691535397322,9.397054098476698,12.30265767281743,9.430778478041969,13.198747828184734,9.454660382625011,14.093662901082602,9.468038728240836,14.986057700781021,9.470261131071348,15.874541491726362,9.460689706473023,16.757678581769014,9.438707269086812,17.63398895308093,9.403723944100001,18.50194893571493,9.355184199709774,19.359991923757768,9.292574310838233,20.206509134028963,9.21543026414864,21.03985040727723,9.123346114412588,21.85832505182656,9.015982802277886,22.660202729623894,8.893077443486904,23.335351382520145,8.809162857277634,23.995977851898143,8.714440709145684,24.640791474114078,8.608584215936997,25.26845391369249,8.491276897016506,25.877578405118143,8.362213286865092,26.466728994627886,8.221099647676516,27.034419782002487,8.067654681954371,27.57911416235854,7.901610245109025,28.0992240679403,7.722712058054565,28.593109209911532,7.530720419805744,29.05907632014741,7.325410920074921,29.495378393026346,7.106575151869012,29.900213927221863,6.874021424086431,30.271726167494457,6.627575474114034,30.608002346483453,6.367081180424071" fill="white" stroke="white" stroke-width="0" stroke-linejoin="round" filter="url(#fuzzy)"></polyline></g><g transform="translate(37.96744304565949 -28.815521421940172)"><polyline id="rightUpper" points="-26.60332684407892,6.004602408580642,-27.16179301935999,5.778724974562631,-27.646019272418336,5.543580846827534,-28.058343553610975,5.299858972539649,-28.4010794139172,5.0482394908709685,-28.676515672320434,4.789393594946764,-28.886916083190094,4.52398339379118,-29.034519003663416,4.25266177427282,-29.121537061027308,3.9760722630503373,-29.150156820100214,3.6948488885180235,-29.12253845061396,3.409616042751398,-29.04081539459558,3.1209883434527947,-28.90709403374922,2.8295704958969528,-28.72345335683792,2.53595715487661,-28.491944627065518,2.2407327866480813,-28.21459104945848,1.9444715308768599,-27.89338743824774,1.6477370625831975,-27.530299884250564,1.3510824540876953,-27.127265422252403,1.0550500369568976,-26.686191698388708,0.760171263948874,-26.20895663752685,0.46696657095881466,-25.697408110647885,0.17594523896461567,-25.153363602228477,-0.11239474402753125,-24.578609877622696,-0.39756682103755026,-23.974902650443905,-0.6790960041658902,-23.34396624994658,-0.9565190126479406,-22.631326444236112,-1.2950606024871707,-21.882527188528282,-1.6297704881853008,-21.099785397051146,-1.9595158919281115,-20.285396935062824,-2.2831856207105545,-19.441722614136097,-2.599696067102636,-18.571174811746708,-2.9079967604492243,-17.676204704018208,-3.2070754791670186,-16.759290100476044,-3.4959629348019483,-15.822923869663603,-3.773737038510248,-14.869602944473048,-4.039526760626513,-13.901817896043596,-4.292515593981934,-12.922043065080079,-4.531944631636009,-11.932727239444462,-4.757115269684993,-10.936284866873093,-4.967391545810351,-9.935087791672435,-5.162202124230415,-8.931457504246035,-5.341041937718623,-7.927657892305442,-5.503473497351459,-6.925888482617891,-5.649127880649477,-5.928278162143405,-5.777705408774603,-4.936879367414146,-5.88897602344699,-3.953662731008719,-5.982779374244659,-2.9805121739741915,-6.059024626949295,-2.0192204330485657,-6.117690003601274,-1.0714850115364705,-6.158822064927364,-0.13890454269078134,-6.182534745804267,0.7770244455470241,-6.1890081544212325,1.674910375595088,-6.178487145805105,2.553469086215184,-6.151279680370987,3.4115259305798133,-6.107754978161799,4.248017517569547,-6.048341479439989,5.061993107448004,-5.973524622294679,5.852615673061594,-5.8838444479274905,6.619162637711348,-5.779893044280286,7.361026300844042,-5.662311838668133,8.077713962709943,-5.531788750080741,8.768847759134335,-5.3890552118155775,9.434164217550109,-5.23488307510601,10.073513545438736,-5.0700814044076505,10.686858662326802,-4.8954931750062585,11.274273986485337,-4.7119918836103345,11.83594398747929,-4.520478082591815,12.372161515714279,-4.3218758485379585,12.88332592012802,-4.11712919577789,13.369940965173491,-3.9071984455468556,13.832612558241323,-3.6930565614515842,14.27204629866839,-3.475685461899971,14.68904485948013,-3.256072320158351,15.084505213013678,-3.0352058626996055,15.45941571156903,-2.81407267650539,15.814853034235743,-2.593653535985734,16.151211906719904,-2.37310698374694,16.46834152708159,-2.151287505663136,16.766577406695227,-1.9287046995886339,17.046270892854587,-1.7058556308067292,17.307787675837123,-1.4832234039144794,17.551506295968412,-1.2612757347074393,17.77781665068651,-1.0404635220644414,17.987118501606368,-0.8212194198323317,18.179819981584178,-0.603956408710749,18.35633610178186,-0.3890663681368727,18.517087258731344,-0.17691864817018033,18.66249774139904,0.03214135862278944,18.7929942382502,0.23779364528368152,18.909004344313306,0.43974501857756465,19.010955068244485,0.6377305271081743,19.099271339391887,0.8315148894331506,19.17437451486007,1.0208939221792868,19.2366808865744,1.2056959681577597,19.286600188345453,1.385783324479383,19.324534102933395,1.5610536706698461,19.35087476911238,1.7314414967849503,19.36600328873493,1.8969195315258531,19.370288233796355,2.0575001703543094,19.36408415349912,2.2132369036079176" fill="none" stroke="black" stroke-width="1.6666666666666665" stroke-linejoin="round" filter="url(#fuzzy)"></polyline><polyline id="rightLower" points="-29.199121635854716,2.3936647100420254,-29.445875739767597,2.7023228588702657,-29.620280497058065,3.001664436831903,-29.726051884083798,3.2913759045583713,-29.766790325439977,3.57117783293314,-29.74598245312958,3.8408240338789073,-29.667002865733632,4.100100691144804,-29.53311588758144,4.3488254910935815,-29.347477327920885,4.58684675348881,-29.11313624008866,4.814042562282083,-28.83303668068054,5.030319896400199,-28.510019468721634,5.235613760532369,-28.14682394483665,5.429886315917413,-27.746089730420156,5.6131260111309444,-27.31035848680683,5.785346712872581,-26.84207567444174,5.946586836753131,-26.34359231205057,6.096908478081795,-25.81716673580991,6.23639654265336,-25.2649663585175,6.365157877535393,-24.689069428762497,6.483320401855442,-24.091466790095737,6.591032237588234,-23.474063640199965,6.688460840342859,-22.83868129006015,6.775792130149982,-22.187058923133684,6.853229622249029,-21.520855354520688,6.920993557875384,-20.841650790134246,6.979320035047595,-19.98505176760486,7.08033810475633,-19.11851338737184,7.166562863672962,-18.24413484065155,7.238194045933511,-17.363879812563603,7.295519320180542,-16.479582898002437,7.338904132174388,-15.592955785824355,7.368782048363189,-14.70559321633429,7.385645589882176,-13.81897871705663,7.390037546452666,-12.934490121774335,7.382542759651219,-12.053404877820629,7.363780365019405,-11.17690514660752,7.3343964824846335,-10.306082702375491,7.2950573445625055,-9.441943634148537,7.246442851811129,-8.585412855878921,7.1892405450078645,-7.737338429765824,7.124139983518935,-6.898495707732266,7.051827519332366,-6.069591296044482,6.972981456224711,-5.251266848058102,6.888267583532001,-4.444102690075331,6.7983350739953785,-3.648621285297475,6.703812735151874,-2.865290540857062,6.60530560374076,-2.094526962913796,6.5033918725959605,-1.3366986647986785,6.398620139494942,-0.5921282331905378,6.291506967434552,0.13890454269077956,6.182534745804267,0.8561600738902122,6.0721498419272715,1.5594365015380998,5.960761032439862,2.2485673487012434,5.848738203979589,2.9234192892802415,5.736411312652614,3.5838900289686997,5.624069591750732,4.229906293290174,5.511960997188494,4.8614219177284514,5.400291880130904,5.478416034967005,5.289226876282135,6.0808913542532395,5.178889001305707,6.668872527903382,5.0693599418465904,7.242404599963589,4.960680531625691,7.801551532043135,4.852851402077149,8.346394801335318,4.74583379699893,8.877032065841885,4.639550540687141,9.393575891816614,4.533887149024532,9.896152538443847,4.428693072993635,10.384900794767645,4.32378306408499,10.859970863887398,4.218938651070918,11.321523289435444,4.113909717615279,11.769727919352604,4.008416170189687,12.204762901977201,3.9021496857666143,12.626813709463448,3.794775528759853,13.036072183544757,3.6859344266827745,13.43273559865781,3.5752444939948553,13.817005737443171,3.462303193606892,14.18993112370902,3.3471113092787244,14.552444639923774,3.229793761869614,14.904578400307454,3.1101203380814018,15.246366337221211,2.9878625068931832,15.577844868704023,2.862794829768567,15.899053566009368,2.734696370862951,16.210035821141986,2.603352107230788,16.51083951439456,2.468554339032845,16.80151768188442,2.3301040997434868,17.08212918309026,2.1878125663579304,17.352739368388836,2.041502469599518,17.613420746591707,1.8910095041269868,17.864253652481878,1.736183738741727,18.10532691435058,1.5768910265950664,18.336738521533917,1.4130144153955193,18.558596291949645,1.2444555576160656,18.771018539633783,1.0711361207014187,18.97413474227742,0.8929991972752891,19.16808620876335,0.7100107153476527,19.35302674670282,0.522160848522021,19.529123329972236,0.3294654262027006,19.696556766249827,0.13196734380207698,19.855522364552424,-0.07026202705213347,20.006230602772114,-0.2771214283096075" fill="none" stroke="black" stroke-width="2.2222222222222223" stroke-linejoin="round" filter="url(#fuzzy)"></polyline><!--[--><circle r="4.1597537481787885" cx="7.563832482444715" cy="0.8786615637588295" stroke="black" fill="none" stroke-width="1" filter="url(#fuzzy)" clip-path="url(#rightEyeClipPath)"></circle><circle r="3.7359052665285963" cx="9.716610159677325" cy="3.5555279855239696" stroke="black" fill="none" stroke-width="1" filter="url(#fuzzy)" clip-path="url(#rightEyeClipPath)"></circle><circle r="3.8725667100026526" cx="10.594585408712888" cy="0.8246913138470156" stroke="black" fill="none" stroke-width="1" filter="url(#fuzzy)" clip-path="url(#rightEyeClipPath)"></circle><circle r="3.8909548201801987" cx="7.803814825096417" cy="3.8589658030781013" stroke="black" fill="none" stroke-width="1" filter="url(#fuzzy)" clip-path="url(#rightEyeClipPath)"></circle><circle r="4.9137955872436505" cx="10.26826627770795" cy="2.9784273598276894" stroke="black" fill="none" stroke-width="1" filter="url(#fuzzy)" clip-path="url(#rightEyeClipPath)"></circle><circle r="3.9423555484143407" cx="10.843055562739384" cy="3.5939658531089416" stroke="black" fill="none" stroke-width="1" filter="url(#fuzzy)" clip-path="url(#rightEyeClipPath)"></circle><circle r="4.8182226224552185" cx="11.95827442044693" cy="1.2141538056566126" stroke="black" fill="none" stroke-width="1" filter="url(#fuzzy)" clip-path="url(#rightEyeClipPath)"></circle><circle r="3.647524598590028" cx="7.6591298495440245" cy="4.608354128305118" stroke="black" fill="none" stroke-width="1" filter="url(#fuzzy)" clip-path="url(#rightEyeClipPath)"></circle><circle r="4.799549324215749" cx="9.79446440523919" cy="4.084032213152284" stroke="black" fill="none" stroke-width="1" filter="url(#fuzzy)" clip-path="url(#rightEyeClipPath)"></circle><circle r="4.246997212445272" cx="7.958950356043404" cy="1.0889864385421975" stroke="black" fill="none" stroke-width="1" filter="url(#fuzzy)" clip-path="url(#rightEyeClipPath)"></circle><!--]--></g><g transform="translate(-36.96697425848048 -28.390730509056475)"><polyline id="leftUpper" points="31.016029137994504,5.852115722829737,31.22168702116482,5.596390700575111,31.37000276160048,5.316154943311517,31.462741540462368,5.013782499164406,31.501656559431904,4.691560340942685,31.488488582086767,4.351689777262735,31.42496547527658,3.996287863672432,31.312801750498608,3.627388813775168,31.153698105273463,3.2469454103538693,30.94934096452078,2.856830416495022,30.70140202193496,2.458837986712693,30.411537781360803,2.054685078072543,30.081389098169275,1.6460128613158558,29.712580720633166,1.2343881319835557,29.306720831302787,0.8213047215402298,28.865400588381693,0.40818490849814815,28.39019366710236,-0.00361917045871607,27.882655801101865,-0.4128241093506677,27.344324323797654,-0.8182138217782615,26.776717709763155,-1.218638129798288,26.181335116103533,-1.6130113527997487,25.559655923831365,-2.0003108963798404,24.91313927924236,-2.3795758412199284,24.243223635291006,-2.749905531961531,23.551326292966337,-3.1104581660822888,22.838842942667583,-3.4604493827719622,22.041727766090204,-3.9600446764427346,21.215209634575274,-4.4409564736042295,20.361238439784024,-4.901517628891138,19.481839654261076,-5.340239941149109,18.57910106330414,-5.755808137221457,17.655160097604814,-6.147073858030936,16.712191755707433,-6.513049649484596,15.752397105332706,-6.852902960729715,14.777992352613229,-7.165950152288673,13.79119846828765,-7.451650516600921,12.794231359900426,-7.709600313499809,11.789292579054091,-7.939526823152434,10.778560552760924,-8.141282418990325,9.764182327940885,-8.31483866315909,8.74826581811278,-8.460280427014837,7.7328725413254995,-8.57780003919548,6.720010838376282,-8.667691463794839,5.711629560362873,-8.730344511167477,4.70961221461647,-8.76623908389232,3.7157715580623973,-8.775939460423029,2.7318446270553727,-8.76008861895296,1.7594881927362742,-8.719402604022921,0.8002746309573432,-8.65466493839945,-0.1443118041773399,-8.566721082751805,-1.0728783141091434,-8.456472945655477,-1.9841265079130608,-8.32487344645028,-2.8768549836298867,-8.17292113348098,-3.7499615497954597,-8.001654860248408,-4.60244509812013,-7.812148521999099,-5.433407138271441,-7.605505855281326,-6.242053005713268,-7.382855302995573,-7.0276927535543745,-7.145344947467436,-7.789741739359592,-6.8941375140708665,-8.527720917876636,-6.630405447929753,-9.241256850631771,-6.3553260662258495,-9.930081443347238,-6.070076788640961,-10.59403142213377,-5.775830448461386,-11.233047559411109,-5.473750686872663,-11.847173660509714,-5.1649874329724295,-12.43655532190677,-4.850672472029533,-13.001438472049479,-4.5319151045172745,-13.542167705718946,-4.209797898448732,-14.059184422887508,-3.8853725375423096,-14.55302478302281,-3.559655767745216,-15.024317485791624,-3.233625444643085,-15.473781389116485,-2.9082166842835644,-15.902222975538375,-2.5843181199419494,-16.31053367783843,-2.262768267356737,-16.699687074871683,-1.9443520009631055,-17.07073596856636,-1.6297971436523966,-17.42413994575795,-1.318320518251836,-17.75984277615364,-1.008994716295291,-18.078191914827777,-0.702269100997114,-18.379548003385096,-0.39856965034267944,-18.664283403027888,-0.09829861852056787,-18.93278072762305,0.19816580264525996,-19.1854313767693,0.4904698222632726,-19.422634068864284,0.7782843889421978,-19.644793374171673,1.0613055293588252,-19.85231824788835,1.339254686825834,-20.045620563211493,1.611879059859608,-20.225113644405756,1.878951940748058,-20.39121079987035,2.1402730541184365,-20.544323855206223,2.395668895505156,-20.68486168628315,2.6449930699176107,-20.813228752306895,2.8881266304079896,-20.929823628886318,3.1249784166390944,-21.03503754110054,3.355485393452165,-21.129252896566058,3.5796129894346898,-21.212841818503858,3.7973554354882335,-21.28616467880658,4.008736103396242,-21.349568631105612,4.213807844391869,-21.40338614383828,4.412653327725796,-21.44793353331492,4.605385379234045" fill="none" stroke="black" stroke-width="2.2222222222222223" stroke-linejoin="round" filter="url(#fuzzy)"></polyline><polyline id="leftLower" points="31.57040534710138,2.969530098088671,31.70455677126071,3.3745939673797576,31.781096988075152,3.765202808699968,31.802540587564657,4.141292139891203,31.771338565546607,4.502822745850201,31.68987908184399,4.849779965931598,31.56048821849352,5.182172981350973,31.385430737953772,5.500034102587907,31.166910841313317,5.80341805678904,30.907072926498873,6.092401275171122,30.608002346483453,6.367081180424071,30.271726167494457,6.627575474114034,29.900213927221863,6.874021424086431,29.495378393026346,7.106575151869012,29.05907632014741,7.325410920074921,28.593109209911532,7.530720419805744,28.0992240679403,7.722712058054565,27.57911416235854,7.901610245109025,27.034419782002487,8.067654681954371,26.466728994627886,8.221099647676516,25.877578405118143,8.362213286865092,25.26845391369249,8.491276897016506,24.640791474114078,8.608584215936997,23.995977851898143,8.714440709145684,23.335351382520145,8.809162857277634,22.660202729623894,8.893077443486904,21.85832505182656,9.015982802277886,21.03985040727723,9.123346114412588,20.206509134028963,9.21543026414864,19.359991923757768,9.292574310838233,18.50194893571493,9.355184199709774,17.63398895308093,9.403723944100001,16.757678581769014,9.438707269086812,15.874541491726362,9.460689706473023,14.986057700781021,9.470261131071348,14.093662901082602,9.468038728240836,13.198747828184734,9.454660382625011,12.30265767281743,9.430778478041969,11.406691535397322,9.397054098476698,10.512101923323835,9.354151620125862,9.62009429110937,9.302733684445288,8.731826623391516,9.243456542150435,7.848409060875348,9.176965758120083,6.9709035692538635,9.10389226715348,6.100323651154585,9.024848770531232,5.237634101160396,8.940426463330152,4.383750803952646,8.851192082442351,3.5395405756245566,8.757685265248794,2.705821048213026,8.660416208897605,1.883360597496802,8.559863620137333,1.0728783141091451,8.456472945655477,0.2750440180129736,8.35065487287248,-0.5095216836134373,8.242784091141468,-1.2802472950321508,8.133198303303985,-2.03661028709465,8.022197477551963,-2.778136908836183,7.910043329546189,-3.504401955467431,7.796959024741524,-4.215028492715348,7.6831290908691035,-4.9096875374652065,7.568699530525814,-5.58809769465573,7.453778123821252,-6.250024750379366,7.3384349110324365,-6.895281221139523,7.222702845216543,-7.523725859216846,7.106578604731879,-8.135263114096404,6.990023555617379,-8.72984254990779,6.872964853780854,-9.307458218830071,6.755296676946262,-9.868147990413487,6.636881576310238,-10.411992836770004,6.517551937858139,-10.939116073584461,6.397111543289865,-11.449682556898484,6.275337220505703,-11.94389783561893,6.1519805736024225,-12.42200725970297,6.026769782329929,-12.88429504397164,5.89941146095866,-13.331083287503901,5.769592566508039,-13.762730948563092,5.636982346286189,-14.179632775007857,5.5012343146911835,-14.582735524856322,5.362265706972339,-14.972755667620781,5.220085921939468,-15.349774982635147,5.074477452241449,-15.713883635807097,4.925225648870034,-16.065180186052874,4.772120067108259,-16.40377159173205,4.61495581247885,-16.729773217082325,4.453534886692639,-17.043308838654337,4.28766753359696,-17.344510651746404,4.117173585124078,-17.633519276839362,3.9418838072395834,-17.91048376603129,3.7616412458908046,-18.175561609472375,3.576302572955221,-18.428918741799635,3.3857394321888696,-18.670729548571728,3.1898397851747573,-18.901176872703747,2.9885092572712644,-19.120452020902018,2.781672483560558,-19.32875477009883,2.5692744547970054,-19.526293373887306,2.3512818633555765,-19.713284568956126,2.127684449180257,-19.889953581524342,1.8984963457324557,-20.056534133776164,1.663757425939414,-20.213268450295715,1.4235346481426205,-20.360407264501895,1.1779234020462148,-20.498209825083077,0.9270488546653963" fill="none" stroke="black" stroke-width="2.2222222222222223" stroke-linejoin="round" filter="url(#fuzzy)"></polyline><!--[--><circle r="4.126949712214158" cx="-14.758768257790436" cy="0.8086057444640158" stroke="black" fill="none" stroke-width="1" filter="url(#fuzzy)" clip-path="url(#leftEyeClipPath)"></circle><circle r="4.301835558289479" cx="-15.107562554221094" cy="2.5287830656000416" stroke="black" fill="none" stroke-width="1" filter="url(#fuzzy)" clip-path="url(#leftEyeClipPath)"></circle><circle r="4.235001542095146" cx="-14.233114952162097" cy="4.507091694213146" stroke="black" fill="none" stroke-width="1" filter="url(#fuzzy)" clip-path="url(#leftEyeClipPath)"></circle><circle r="3.0301579587698657" cx="-14.238160338744235" cy="2.4549613414894367" stroke="black" fill="none" stroke-width="1" filter="url(#fuzzy)" clip-path="url(#leftEyeClipPath)"></circle><circle r="3.908254907624446" cx="-17.733718335877626" cy="4.46906319930445" stroke="black" fill="none" stroke-width="1" filter="url(#fuzzy)" clip-path="url(#leftEyeClipPath)"></circle><circle r="3.719545578854074" cx="-13.457954971909247" cy="2.6675521982677335" stroke="black" fill="none" stroke-width="1" filter="url(#fuzzy)" clip-path="url(#leftEyeClipPath)"></circle><circle r="3.5369952567276695" cx="-14.988417339671727" cy="0.8919971294971134" stroke="black" fill="none" stroke-width="1" filter="url(#fuzzy)" clip-path="url(#leftEyeClipPath)"></circle><circle r="4.516933468367101" cx="-13.298111252870992" cy="3.0945015112734398" stroke="black" fill="none" stroke-width="1" filter="url(#fuzzy)" clip-path="url(#leftEyeClipPath)"></circle><circle r="4.196678092274244" cx="-16.547918038865745" cy="2.494654376585806" stroke="black" fill="none" stroke-width="1" filter="url(#fuzzy)" clip-path="url(#leftEyeClipPath)"></circle><circle r="3.857193622440443" cx="-17.841174329173324" cy="2.1674176939138015" stroke="black" fill="none" stroke-width="1" filter="url(#fuzzy)" clip-path="url(#leftEyeClipPath)"></circle><!--]--></g><g id="hairs"><!--[--><polyline points="18,-79,20.056441145397734,-78.27453763596885,21.548332996513587,-77.61041326943429,23.057969114539233,-76.7711897001819,24.584271268098615,-75.79472029959206,26.05904602724263,-74.75423230029287,27.48019262029727,-73.6792672436931,28.884812976757946,-72.57001838463216,30.303884314194974,-71.4267776843377,31.738316443803434,-70.26733561179512,33.156742572784424,-69.13031816482544,34.5093798601865,-68.06574601598739,35.74977303854315,-67.11562242499865,36.85215978740273,-66.29477083087139,37.81337580330283,-65.58875088421473,38.63707653225515,-64.9799288499787,39.30914218316605,-64.49070024281527,39.78165042491401,-64.20502837294016,39.99267234137765,-64.21257949694575,39.962889936229274,-64.40814447212026" fill="none" stroke="rgb(80, 68, 68)" stroke-width="2" stroke-linejoin="round" filter="url(#fuzzy)"></polyline><polyline points="-10,-84,-9.160812396614906,-84.40398781707212,-8.0522126709557,-84.42390295556454,-6.587887417615761,-84.35908995729584,-4.965054622340581,-84.19700083664402,-3.278508818446388,-83.92235024897332,-1.5308470378170513,-83.55248785651219,0.28677705765880823,-83.11459805162922,2.1687699506922256,-82.63023179817338,4.10102937253904,-82.11542716402388,6.062886674838802,-81.58550553433498,8.021758023659897,-81.05576845970154,9.933550998794413,-80.53866701600116,11.754813910912905,-80.04247813654857,13.459303328073524,-79.57317137297447,15.046622658938489,-79.13598996061712,16.536039985749213,-78.73341331744899,17.948061917113506,-78.36191810479254,19.28340460876429,-78.0139431076937,20.51214974734799,-77.68662101486777,21.58226932741843,-77.39058358142259,22.425802880489165,-77.16516645101643,22.841957915336554,-77.17019802205743" fill="none" stroke="rgb(80, 68, 68)" stroke-width="2" stroke-linejoin="round" filter="url(#fuzzy)"></polyline><polyline points="53,-48,52.995520913562764,-47.460095890406386,53.03852013713413,-46.948460333494914,52.884767515387445,-46.511865673793544,52.350997327551404,-46.39701276447347,51.39358114732273,-46.63464001324741,50.02291495480907,-47.14919768197205,48.24543241857891,-47.888067200861684,46.04868151493827,-48.8634698853946,43.40749163821327,-50.12754367411985,40.29252482184447,-51.730434129036446,36.67341229631769,-53.69845474344912,32.51994874440468,-56.03822713104951,27.808280374506538,-58.74914067775864,22.528073829145406,-61.82885413255977,16.672511598624443,-65.27831568682736,10.204227516381657,-69.12548255321434,3.0410198221033866,-73.46265924407754,-4.8355611589836265,-78.42537420048838" fill="none" stroke="rgb(80, 68, 68)" stroke-width="2" stroke-linejoin="round" filter="url(#fuzzy)"></polyline><polyline points="57,-39,57.590571238782125,-38.66699713005522,57.77708813215023,-38.00002105451562,57.700462162660344,-37.47114190500462,57.37257208671911,-37.20814134986661,56.7837697330217,-37.17788365756542,55.90976882010389,-37.38195521364878,54.71034878733846,-37.893640177693335,53.1379860411636,-38.801094888090795,51.1500714451377,-40.152468406687085,48.71719980239868,-41.94888973236084,45.8276541094679,-44.17195697740658,42.48997309286634,-46.809811064271074,38.72931267128731,-49.863525008069274,34.57002138296962,-53.342493259572066,30.005755883751362,-57.26299391227212,24.974751815513105,-61.64792555833638,19.36532007313673,-66.51856200875156,13.060972186049485,-71.90044591102735,5.985898380142347,-77.91748962763275" fill="none" stroke="rgb(80, 68, 68)" stroke-width="2" stroke-linejoin="round" filter="url(#fuzzy)"></polyline><polyline points="-28,-79,-26.40472403110131,-79.85932055034588,-25.20223455185075,-80.4313779641622,-24.2783737958583,-80.77918052392363,-23.556675656533436,-81.0040498917776,-23.028637726887734,-81.13000503412815,-22.73551933215732,-81.13044673535589,-22.709635644465852,-80.97626280763319,-22.94837844919912,-80.65693783182552,-23.433012008666992,-80.17485427856445,-24.1634360772601,-79.52951375989423,-25.178240451117055,-78.7058234890774,-26.547494050235088,-77.67384318437533,-28.343615935251794,-76.40258637576045,-30.607459397190873,-74.88281720712436,-33.33950303252461,-73.13580191029878,-36.56236140826656,-71.15808105458373,-40.507622664481616,-68.72883441551932" fill="none" stroke="rgb(80, 68, 68)" stroke-width="2" stroke-linejoin="round" filter="url(#fuzzy)"></polyline><polyline points="10,-83,11.130512122437427,-82.13030083244428,12.161527461600675,-81.55662706492191,12.994744822657944,-81.22476932898007,13.717048171444285,-80.99508401916954,14.376307157204218,-80.77330727150382,14.965306612950215,-80.52962923303137,15.446011691309176,-80.27589534866932,15.774317262676231,-80.03914902846347,15.9149047322225,-79.84430681423514,15.84314992235966,-79.70662477244771,15.536858439445496,-79.63225305080414,14.965738930134709,-79.62447240056437,14.088159705686648,-79.6905145295943,12.859930692381871,-79.84223533999679,11.249169971690266,-80.0880286339667,9.243534832284931,-80.42244321562896,6.843513585756652,-80.82594464452194,4.055418893017525,-81.28142419740385,0.8991617293870844,-81.79615500394584,-2.6010141200901966,-82.39986567713348,-6.507710226847449,-83.10550180029935" fill="none" stroke="rgb(80, 68, 68)" stroke-width="2" stroke-linejoin="round" filter="url(#fuzzy)"></polyline><polyline points="4,-84,4.0480049531113895,-84.00102516406191,4.335818870438485,-83.977888976913,4.8818587894743075,-83.87418835666213,5.522451711051511,-83.67047703695195,6.006351261923066,-83.40837572738705,6.126110969823232,-83.1476209533059,5.785587641198726,-82.92347556247543,4.966754517680409,-82.7464659496607,3.659925435547648,-82.62786788757995,1.832834143162728,-82.58977978833742,-0.553979731663401,-82.64164683320467,-3.5423939129507875,-82.74748669042361,-7.219773236684739,-82.83052582739185,-11.725543987121497,-82.8520862478313" fill="none" stroke="rgb(80, 68, 68)" stroke-width="2" stroke-linejoin="round" filter="url(#fuzzy)"></polyline><polyline points="21,-78,22.26767214754839,-77.49945777631694,23.24865974369404,-76.78974234198093,23.642229556641947,-76.2068400981026,23.586206339521578,-75.69106699398895,23.22046576103661,-75.15286988341641,22.61330341801732,-74.54953684491178,21.76346640543598,-73.88420230203498,20.620853876898657,-73.18560726220305,19.119356426776,-72.48264687107346,17.208444688270916,-71.78534075513672,14.867881971942523,-71.08173507738023,12.101093214283136,-70.35001919769107,8.916189600792341,-69.57540970218867,5.309608234742303,-68.76016500442223,1.2634072958366396,-67.9216681093327,-3.243350668328315,-67.08120286667888,-8.220050060753746,-66.25044320058169,-13.662434541240641,-65.42466843370066,-19.57051915613725,-64.59033275731242,-25.975270670484335,-63.73893154884877,-32.94982701582742,-62.842104119565576,-40.59473114315747,-61.73181561387585" fill="none" stroke="rgb(80, 68, 68)" stroke-width="2" stroke-linejoin="round" filter="url(#fuzzy)"></polyline><polyline points="15,-81,15.957698179727407,-80.32335567191446,16.884288288604438,-79.86154087603053,17.64410816284797,-79.4803382678345,18.20864032319514,-79.18048584094504,18.583473710153132,-78.96494191925612,18.75487169792016,-78.82132661633506,18.672090490499617,-78.74313154648459,18.24456024169922,-78.74871063232422,17.362335140207346,-78.87680693532064,15.93674251837611,-79.16572731584918,13.936842046282653,-79.63716057192337,11.39917337388033,-80.29251828946872,8.399558781323156,-81.11167363936562,4.960549527716437,-82.06153391592073,0.8238482733143266,-83.19353828175257" fill="none" stroke="rgb(80, 68, 68)" stroke-width="2" stroke-linejoin="round" filter="url(#fuzzy)"></polyline><polyline points="31,-72,32.283382062198676,-71.07277409460977,33.03631343584336,-70.22475970884746,33.63235120863131,-69.52450243618883,34.02383436366212,-69.02355288448778,34.127615024202136,-68.7027720134532,33.928775636716466,-68.50142171917953,33.448082717566905,-68.37537202109775,32.69513983125082,-68.32030196816164,31.654225456346445,-68.35592600538683,30.295901724598536,-68.50300168739263,28.592143535614014,-68.77532196044922,26.52193924671124,-69.18400281004656,24.06817037044992,-69.74088468359936,21.212896828712537,-70.4556995088892,17.935374066820927,-71.33261578726447,14.211517261210744,-72.37241774393226,10.013321312539636,-73.57855510984027,5.31387899472543,-74.96118062818678,0.10634931226297795,-76.54048623204054,-5.582350768312095,-78.35794900019259,-11.78376372562802,-80.4863889138894" fill="none" stroke="rgb(80, 68, 68)" stroke-width="2" stroke-linejoin="round" filter="url(#fuzzy)"></polyline><polyline points="15,-81,15.939366200760574,-80.32038060018468,16.787284744884566,-79.85459335582918,17.431951509318207,-79.45305101151999,17.878275149532378,-79.10074738101977,18.141722756010267,-78.79126471914947,18.196167348607204,-78.51310861067233,17.97894431312162,-78.26337472393644,17.41422866122562,-78.05351591826013,16.440623240596317,-77.89967252451903,15.03100061416626,-77.80981206893921,13.194040423382074,-77.7806195647438,10.957152189329154,-77.80559959798916,8.341053522422836,-77.88687711917558,5.339022767372155,-78.04212829908806,1.9086365559480782,-78.30020400827675,-2.0235247883239325,-78.68149934316413,-6.54531936844106,-79.16896132715755,-11.720203861566006,-79.70020593162229,-17.463727098892914,-80.23887122650176" fill="none" stroke="rgb(80, 68, 68)" stroke-width="2" stroke-linejoin="round" filter="url(#fuzzy)"></polyline><polyline points="1,-84,2.467493887313781,-84.00212943100196,3.2501712866950707,-84.00826082676852,3.6653176492634905,-84.00928884086174,3.9832327538663597,-83.97446328802084,4.3154385261384745,-83.86963678698301,4.617349266546006,-83.6867115395265,4.754548992842189,-83.4518108239748,4.583071057230758,-83.20646026142833,4.003764067447566,-82.98386698675766,2.971526295936207,-82.80129739324184,1.4691363177607375,-82.66652296005351,-0.5237757946436963,-82.58136517269655,-3.037537271188379,-82.53721351411991,-6.089798319767528,-82.5214292871101,-9.66845380559327,-82.55092760662066,-13.81631795697216,-82.69597767196703" fill="none" stroke="rgb(80, 68, 68)" stroke-width="2" stroke-linejoin="round" filter="url(#fuzzy)"></polyline><polyline points="31,-72,30.996239001393526,-71.56345797995927,31.068437441670966,-71.34863315072462,31.055055828464663,-70.9599937269002,30.817397399426962,-70.44265205901395,30.25950259048932,-69.92138733041816,29.288004255499313,-69.47944835544851,27.833105509998905,-69.13427370709012,25.870828940445428,-68.86124292790336,23.408172912096145,-68.63139993859514,20.44922924041748,-68.43354940414429,16.977378618981678,-68.2718416651211,12.965112385758966,-68.15334758419037,8.393574983080633,-68.08453601922668,3.2589348633132396,-68.0792290745549,-2.4380727852321797,-68.16267681198474,-8.708069990244311,-68.35536486047141,-15.596995062779147,-68.63533143892323,-23.242992521093996,-68.89919961406602,-31.942668395166795,-68.98877185548432" fill="none" stroke="rgb(80, 68, 68)" stroke-width="2" stroke-linejoin="round" filter="url(#fuzzy)"></polyline><polyline points="-16,-83,-14.363235643964574,-83.57929524828523,-12.974322083385065,-83.69689470358858,-11.49430495766067,-83.61228586356893,-9.841663992697384,-83.44284153720356,-8.042044611345155,-83.22734483782133,-6.117207605482912,-82.96813163640216,-4.074484399985283,-82.65692995324554,-1.92873531783541,-82.28487396737503,0.29155030315210073,-81.8456528273082,2.554249771452679,-81.33903090673329,4.83206492081728,-80.77454933284088,7.103256093868705,-80.17126361228685,9.350896481378337,-79.55178776939502,11.564302659392698,-78.93403295450732,13.737152375945513,-78.32652958941776,15.856616146105843,-77.73125356643203,17.88830927215943,-77.1536922286116,19.770370681976953,-76.61556198952375,21.427478220606996,-76.160094549474,22.808927720651205,-75.83437742594379,23.95516856725331,-75.63924369075471,25.10995464382335,-75.46178629375372" fill="none" stroke="rgb(80, 68, 68)" stroke-width="2" stroke-linejoin="round" filter="url(#fuzzy)"></polyline><polyline points="6,-84,-1.238363104485931,-83.80718721871155,-7.806047614110074,-82.3691695748157,-11.065832565490366,-80.02005588498857,-8.524695630440274,-77.76945376795408,-0.6869578892814747,-75.73855893148799,9.402777125708502,-73.30661038167247,18.503746466061223,-69.82275844185746,24.688122323344068,-65.1914831716303,27.638259887695312,-60.09022521972656,28.275060383015493,-55.719340830506674,27.944835261835888,-53.191938368996986,27.370518501410494,-52.8759956317127,26.241332113546825,-54.039029442039414,24.412088368941443,-55.122335669696064,23.718718194659175,-55.03275542234057,26.07083976956355,-55.59472203172423,23.643416118820703,-63.55227659293233,-8,-85" fill="none" stroke="rgb(80, 68, 68)" stroke-width="2" stroke-linejoin="round" filter="url(#fuzzy)"></polyline><polyline points="-40,-70,-15.46344407387193,-75.06189011299473,-1.780300501431367,-71.12862396446835,6.274895641083909,-68.18803158207699,6.217630636638167,-67.921749543502,-0.10142591348595376,-68.89569330960194,-7.407021506428929,-70.1379763856343,-10.285603171223215,-71.38023398029155,-6.409666420041816,-72.35310839092571,2.061991692566526,-72.77269451643288,9.808463320586021,-72.9657149495777,11.923622757996784,-74.02431057309775,8.081099930730494,-76.68619093127987,4.508829487218607,-79.70754066844793,10.093661737983414,-80.04326700169742,25,-76" fill="none" stroke="rgb(80, 68, 68)" stroke-width="2" stroke-linejoin="round" filter="url(#fuzzy)"></polyline><polyline points="-24,-81,-25.058733888687385,-74.47130197812932,-10.606087127061205,-76.16902295845244,1.6954778127085857,-76.62415504826406,8.339197368807877,-75.13851899201232,11.31966318427944,-72.32059398174728,13.789939838984672,-68.40980857254083,16.692428399570485,-63.81918850838969,18.316409390900887,-59.510789735367226,16.447675189766233,-56.600705189855034,10.786533962622254,-55.71375249402242,3.614190101623535,-56.69943118095398,-1.6196115644174163,-58.84706953832325,-2.536555550017101,-61.32088765167441,0.8062675671067231,-63.477500051568924,6.318454507794806,-64.9386682862223,11.530303308354041,-65.49949856280578,15.03400277693162,-64.99129196545454,16.48137744296962,-63.184028330974584,15.268496364381429,-59.962412591489056,9.974540258044492,-56.40209129542287,3.8478474335452404,-57.123758388122155,34,-69" fill="none" stroke="rgb(80, 68, 68)" stroke-width="2" stroke-linejoin="round" filter="url(#fuzzy)"></polyline><polyline points="25,-76,10.455856551358671,-68.1372617881472,4.229364010029667,-60.45894807425411,-5.272330045978555,-60.974008015153444,-11.738674193310192,-64.08256169235055,-11.82575156274967,-66.22568954444094,-6.475206113844649,-66.93438648702957,0.887590331623215,-66.93528342850863,6.7252806504845895,-66.91850696547272,9.101967163803268,-67.19551316794612,8.105237604775516,-67.73303797601572,5.1842151952070745,-68.26463455871277,2.082183837890625,-68.43715131282806,0.006999711655100552,-67.99276969985173,-0.6301238446763239,-66.91648910457417,0.08961176053416886,-65.44222030961402,2.2039849500899296,-63.87004084715315,6.321545042094274,-62.292244613159866,13.358681333502375,-60.486953163384,23.373050603643524,-58.238410052073846,34.33341170373957,-55.96080140012252,42.56779579287519,-54.867827544030206,45.498943488843665,-56.020680699857806,43.514437460236365,-59.596724804375285,37,-67" fill="none" stroke="rgb(80, 68, 68)" stroke-width="2" stroke-linejoin="round" filter="url(#fuzzy)"></polyline><polyline points="45,-59,29.285003002945295,-63.34665272494887,12.07256741335495,-71.60463059349253,3.7762914984263687,-77.75331871309828,-0.028920082412864062,-81.19299667318107,-2.913506373691043,-82.60716659464035,-5.856374620389376,-82.81001253158911,-8.165698351245226,-82.40811375700548,-8.521419516051388,-81.64630775728456,-5.966777977012224,-80.38204239331327,-1.0037531778552924,-78.27262877932097,3.5594570080901686,-75.14732933974616,3.4920281947832286,-71.14010291060734,-1.6446931879383477,-65.62500442364856,3.0557626780332505,-54.399856384115864,62,-29" fill="none" stroke="rgb(80, 68, 68)" stroke-width="2" stroke-linejoin="round" filter="url(#fuzzy)"></polyline><polyline points="3,-84,25.247852977331192,-69.49898296753103,26.813937400419583,-66.91126504026903,23.792772769166955,-66.96481033422845,21.71491668837428,-67.51786659595066,21.742789127284,-67.76453853204426,22.93644172229449,-67.69880219737803,24.074855808110875,-67.58985559388705,24.44003785247642,-67.59892365085693,23.923106112708478,-67.7209000896316,22.85031276502913,-67.89506080982908,21.71898677659122,-68.06666394093044,20.985238075256348,-68.11870092153549,20.962536371086085,-67.78418798651987,21.740220342951343,-66.71785837266546,23.02899626385385,-64.7659012761467,24.05714783564107,-62.24239474965327,23.812302468526998,-59.93793327746741,21.73684113830393,-58.75718811414725,18.520480997466926,-59.137473920580355,16.41037005601568,-60.456242772495244,18.83691258584741,-60.49790285838665,29.389632710426902,-55.332159671439605,48.215892491045906,-41.8745943051835,61,-30" fill="none" stroke="rgb(80, 68, 68)" stroke-width="2" stroke-linejoin="round" filter="url(#fuzzy)"></polyline><polyline points="25,-76,38.87131565289971,-56.996944203925054,36.78152728588944,-57.02566800656457,27.347605220868804,-59.978251875092504,11.083727086195722,-62.80935134436004,-7.668333678076548,-64.3642059052574,-23.19797400274737,-64.92647896109186,-31.6420292529299,-65.63160654218672,-31.860214233398438,-67.17851257324219,-24.75048472290393,-69.10562218751942,-12.339545262825222,-70.17418565916233,2.6996829368856035,-69.47821479176035,17.29048807383515,-67.35236147488467,28.589803392233094,-65.16820900785862,35.263693492317685,-63.99405873084386,38.646208697545,-63.236644557266374,46,-57" fill="none" stroke="rgb(80, 68, 68)" stroke-width="2" stroke-linejoin="round" filter="url(#fuzzy)"></polyline><polyline points="41,-63,39.25045945194511,-60.974237729894156,37.781606190567466,-55.97909104032416,28.769326909010335,-58.159723716475995,19.986034734747527,-63.36768231325359,17.041742316097274,-67.0137536836709,19.99159814778607,-67.30131556620042,25.92306513651668,-64.76002381502508,31.565513058230543,-61.18060780476023,34.59030928034108,-58.53568071335048,34.13724288427096,-58.00649692762921,30.933056592941284,-59.492186546325684,26.876923932964516,-61.90357097589175,24.015830037339406,-64.05134080140054,23.319485346345203,-65.49574917376329,24.031089175208088,-66.73136322523307,24.133900353733008,-68.56691015552308,21.651803172372905,-71.22091073755398,15.781249935653346,-73.99844408552724,7.142277137069867,-75.99910496649551,-2.434728728614899,-77.16504160965019,-11.268272756533563,-78.03236130365315,-32,-77" fill="none" stroke="rgb(80, 68, 68)" stroke-width="2" stroke-linejoin="round" filter="url(#fuzzy)"></polyline><polyline points="31,-72,11.168931416321401,-78.26453562553058,6.815745106384651,-75.11516844955881,12.275871573641004,-67.08614122904362,20.488605031659453,-59.50789414866712,26.266737770627824,-55.012034093424454,28.26034351012347,-53.56138692241447,27.34223186383353,-54.26027179649577,25.264195156252978,-56.21132165065174,24.018020629882812,-58.348934173583984,24.860730753659702,-59.528642870047236,27.131170228107365,-59.387712973449986,28.100892968002015,-59.118638425961,24.631656167203506,-60.903166767690685,15.888537824508273,-65.85453277553344,5.2784114272883365,-72.12055983410303,0.37822034346277533,-75.42341985451945,11.735377957917551,-71.46656749815,50,-53" fill="none" stroke="rgb(80, 68, 68)" stroke-width="2" stroke-linejoin="round" filter="url(#fuzzy)"></polyline><polyline points="-26,-80,-23.595577311683428,-78.9904419191593,-14.258678512556823,-77.86107075776935,-5.0366230345332506,-76.0401246742603,4.1403049966344545,-72.03211688892871,14.972927792074644,-65.91555933266102,26.24991064503469,-59.77086850358347,35.025180244418706,-55.88377707135362,39.13610688278395,-55.09876640237959,38.13695864561906,-56.72067246267852,32.89680841276395,-59.52144883631715,25.32078984506949,-62.56434402308612,18.62983594224231,-65.15828123108182,16.939520147111683,-66.47743588107264,22.693486785537836,-65.83995209469563,33.188532799697015,-63.595008879457815,41.043738769486325,-61.47939230469987,39,-65" fill="none" stroke="rgb(80, 68, 68)" stroke-width="2" stroke-linejoin="round" filter="url(#fuzzy)"></polyline><polyline points="-52,-56,-5.9244139727670655,-69.22705577257928,7.069106352907032,-73.01645421125986,10.955874339148448,-72.23098781527953,10.347808445180178,-70.82739253955887,6.325309332770303,-70.57678599342944,2.1327227614809234,-71.33166395597507,1.105075009266962,-72.29040015401179,4.0267831082418315,-72.9655906859348,9.048463870744119,-73.386462727497,13.502446174621582,-73.76151466369629,15.693072083630348,-74.08723758636782,15.416079266137258,-74.06441353838262,13.329613578394229,-73.35132156642989,10.236962167048265,-71.88483177189454,7.120925532600268,-69.95688265423996,5.396820034159651,-67.99762175429613,5.670661118619601,-66.35500662575407,5.288148627070275,-65.40846422858611,3.224998653143473,-66.13471705726106,33,-71" fill="none" stroke="rgb(80, 68, 68)" stroke-width="2" stroke-linejoin="round" filter="url(#fuzzy)"></polyline><polyline points="10,-82,27.63329880913961,-66.91331958086197,18.100012531087586,-70.30052418333746,5.843379747531231,-74.79604041370375,0.20294898374530124,-77.23135222615097,1.119901080610756,-78.02451722615648,4.724620031647323,-77.99419197986718,7.41913185815116,-77.66635924924537,7.35617861898063,-77.20904513740338,4.137157440185547,-76.59644317626953,-1.7349537911188408,-75.8216550395358,-8.91891799497923,-74.97885334899249,-15.276421929249071,-74.18921547538496,-18.550238877378547,-73.46081688829001,-17.248276795131,-72.51665519058825,-10.318504246219947,-70.62659119156865,4.223900099529757,-66.90854656671024,25.869274612111994,-62.78403278006917,31,-72" fill="none" stroke="rgb(80, 68, 68)" stroke-width="2" stroke-linejoin="round" filter="url(#fuzzy)"></polyline><polyline points="13,-81,31.333175507003517,-67.33127030704155,32.85133059809841,-63.46085434192691,24.57728116815219,-65.00290460317645,12.891493099060675,-68.86346791471081,3.884485905953001,-71.91596416659911,0.026037247480596784,-72.8574289370387,0.3153030229889494,-72.0085772670427,2.7357507215997514,-70.18557953152035,6.2709170378051775,-67.9311131786109,11.042785291249974,-65.48773279024826,17.118990659713745,-63.15829420089722,23.469288415998275,-61.49892502922884,28.009554429853775,-61.10507565029331,28.53445030019759,-62.21199088391339,23.76283509940069,-64.50927720066535,14.04808053080256,-67.34004331367183,1.8526011493152608,-70.08713921806226,-8.06678475449093,-72.38415253337595,-9.645628620019062,-73.80403944922801,1.4441048068854982,-72.54488260227318,24.784647126440618,-62.57826141681636,61,-30" fill="none" stroke="rgb(80, 68, 68)" stroke-width="2" stroke-linejoin="round" filter="url(#fuzzy)"></polyline><polyline points="60,-34,29.143394067028005,-58.89589199038171,10.395033985078086,-70.65937107277927,5.342121257744203,-74.37232588932295,8.455070920507293,-72.06234930559471,15.394439631594976,-66.13330638426942,21.760553195850953,-59.81723380031597,24.092676599889316,-55.78864550913559,21.73566271027356,-54.90383048360825,16.830598779606373,-56.2651794238969,12.361588672836278,-58.403416271926616,10.071804376344897,-60.46854812992894,9.801794802498348,-62.494813044203845,10.408850727064815,-64.7264252372724,11.357728115813215,-66.80493924779708,13.72481579260938,-67.71522769348056,19.24732019825692,-66.84876161428932,26.83051796354708,-65.69864635572837,30.806082897750475,-67.80110752923872,36,-68" fill="none" stroke="rgb(80, 68, 68)" stroke-width="2" stroke-linejoin="round" filter="url(#fuzzy)"></polyline><polyline points="18,-79,17.60834708820158,-78.11572424316552,15.823582684998557,-74.07073973768554,10.335033304295017,-70.9573946487545,5.612064531833859,-70.49705909666731,3.4592908854287487,-71.8485863292181,3.523311822968715,-73.29033917414363,5.304745545690146,-73.61116435801138,8.393965476232628,-72.57729112905403,12.066019209591731,-70.67481066399498,15.369181951879543,-68.59323093739164,17.557463666077208,-66.85134394288096,18.325671175753623,-65.68073962281036,17.77895224038341,-65.02309152749486,16.442315683892105,-64.50931670603248,15.385360008130581,-63.52284656887801,16.067817889695224,-61.57180609370789,19.49001884987139,-58.94016759657683,24.92161458640872,-57.09444908259591,29.45215853724539,-58.086113659357736,29.96431127898841,-62.645612699753364,27.784099117537497,-67.7741131215618,32.26755395145922,-65.84016143938847,53,-48" fill="none" stroke="rgb(80, 68, 68)" stroke-width="2" stroke-linejoin="round" filter="url(#fuzzy)"></polyline><polyline points="-37,-73,-26.018344825110447,-74.90378078502445,-16.496660240756075,-73.11105957480328,-8.651888390607612,-71.85796760715711,-2.70412227072346,-73.0975275648733,0.3912654212033256,-75.73652677605827,1.20120515963373,-78.12488698343435,1.309646798134435,-79.35569458165223,2.10511699342588,-79.3676120792662,4.057249941547835,-78.57491273968836,6.736869723291868,-77.46539559242612,9.35259222984314,-76.34154343605042,11.350923622638911,-75.26138749156225,12.714792623371245,-74.14835495006169,13.884404012179763,-72.95595866140732,15.438114889015756,-71.75205060272485,17.725124848992554,-70.65377779845637,20.66050833107125,-69.65994719694837,23.781152168589788,-68.58368532921239,26.033730097338815,-67.50989759893864,24.14399910065741,-68.12663167941375,10.911730471844175,-74.28006503026788,-16,-83" fill="none" stroke="rgb(80, 68, 68)" stroke-width="2" stroke-linejoin="round" filter="url(#fuzzy)"></polyline><polyline points="-52,-56,-6.534846472291362,-55.76381344043215,-10.906868267512682,-64.1760648660035,-18.47886686931049,-70.34892107129784,-19.419619457097724,-72.13785156141967,-13.582863023821368,-70.55998493567016,-3.27924662676698,-67.8392775876179,8.341945622417411,-65.99328904488803,18.299728393554688,-65.89178466796875,24.67047469956062,-67.23300189265464,26.781030560830896,-69.15048111246931,24.697609341461906,-70.80875118969813,18.70136365178041,-71.73453503381461,9.863574825631954,-72.01333976282814,2.8951709457371457,-72.04388035370236,10.345818531814144,-70.2638556047024,47,-56" fill="none" stroke="rgb(80, 68, 68)" stroke-width="2" stroke-linejoin="round" filter="url(#fuzzy)"></polyline><polyline points="-2,-85,18.40156723266971,-68.73351288112865,10.483378067406049,-71.85966411188124,2.0569383494685325,-75.680741599362,-1.9150887911846373,-77.8433854120731,-2.6680153175957457,-79.08332514027916,-1.7928141577712498,-79.54132301886602,-0.002914571919639259,-78.67517059475503,2.2675963079758668,-76.05708067468132,4.333474909915853,-72.00853550009677,5.397646903991699,-67.70204067230225,5.046142571192882,-64.6674953395682,3.6178914705111476,-63.93229178872685,2.1582775287137204,-65.32420521280748,1.8307553283202684,-67.54744838786971,2.9507162572726884,-69.22693219184202,4.464942755560524,-70.21058180407648,4.970278745099366,-71.64922889873296,4.189656998995804,-73.97609018413617,-1.4929346832434245,-74.9454468409322,-36,-74" fill="none" stroke="rgb(80, 68, 68)" stroke-width="2" stroke-linejoin="round" filter="url(#fuzzy)"></polyline><polyline points="25,-76,10.226646448409344,-63.00607695217487,24.065929453096214,-53.73255288158206,29.08451531814202,-54.75428333942792,25.463206307054303,-60.48105137758836,20.80544939754075,-65.30428538034445,19.29702886965702,-66.7531004715649,20.865713341473025,-65.12260438590855,23.731464733766224,-62.04685873846662,26.318673259264056,-59.21792092232154,27.718446036196433,-57.62732584050203,27.657498763120977,-57.30729494367498,26.56688923582007,-57.559393510793015,25.219552623244944,-57.6828084034785,23.439554737534536,-57.88238633005364,19.089794715472525,-59.520148381150946,10.100431538691986,-63.92739630592076,0.4919501419713672,-70.3119833888355,4.267158063414675,-75.08607102228854,31,-72" fill="none" stroke="rgb(80, 68, 68)" stroke-width="2" stroke-linejoin="round" filter="url(#fuzzy)"></polyline><polyline points="60,-34,7.8642595315498305,-57.460106706921394,6.3778761586726995,-67.62658425369494,15.217215420281613,-69.3435717455413,21.031235214277906,-68.3907963599281,21.286717770259347,-67.64209065642932,17.893730883593157,-67.51075472998693,13.902709445170398,-67.46276987936682,11.592573515657662,-67.03008339895668,11.415529776870832,-66.20735159217715,11.98615858506731,-65.42074247252091,11.19791579246521,-65.21980929374695,7.812441101111601,-65.88710228220461,2.418112586921488,-67.22041708164868,-2.9179635875423324,-68.65402534532204,-5.939263817171857,-69.62762568685837,-5.283624059111224,-69.86147203742375,-0.525678056557366,-69.23563848522022,8.208781311816306,-67.4582464101053,19.12343537974839,-64.35564199434715,25.192997595735008,-61.47144764526965,11.334210714339074,-63.17459752807065,-42,-69" fill="none" stroke="rgb(80, 68, 68)" stroke-width="2" stroke-linejoin="round" filter="url(#fuzzy)"></polyline><polyline points="-48,-62,-26.210131297733938,-70.84443172168638,-9.707288372082516,-71.09443453491417,0.7457788931252146,-66.59519362344389,5.61634189070771,-60.967295473745445,6.033977421734165,-56.827451986962224,5.228894191976094,-55.099059238701464,5.7461529790563715,-55.51852716893547,7.728965486345986,-57.384227544296785,9.669745503843702,-59.98465485135744,9.96930014825161,-62.76663532341007,7.929814100265503,-65.39945006370544,4.004784977604567,-67.76446364096843,-0.458243326318595,-69.86194360929704,-3.881105304849081,-71.67719373716605,-5.301803958862357,-73.0807189713414,-4.803512655930389,-73.822164121245,-3.0413893630930673,-73.6451365608639,-0.3273947433345986,-72.52605468471276,3.413432749272552,-71.05581906837757,7.242618338425262,-70.94555485291174,9.201389766934229,-74.63992659604624,22,-78" fill="none" stroke="rgb(80, 68, 68)" stroke-width="2" stroke-linejoin="round" filter="url(#fuzzy)"></polyline><polyline points="44,-60,19.389209327691354,-71.12257888522394,5.594846314703722,-72.73339403889972,-1.9580723668935622,-72.7372475654038,-5.95858487708219,-74.11628596550871,-6.689079784025325,-76.41799208519815,-5.266561316436964,-78.28655690614835,-3.1859096521695878,-78.73635259587144,-1.0235696580383598,-77.43142751995724,1.5849010619559978,-74.67397105430871,4.864627728467098,-71.3198676570458,8.069238775770867,-68.50031148577963,9.89172471102053,-67.13727720376039,9.860765203689288,-67.4850162382996,9.409107600520835,-68.94157282408268,11.259293490215525,-70.21770436342237,16.785867044420215,-70.04091351560547,22.363614033954725,-68.87935608718543,16.478002160626335,-71.25102344504813,-19,-83" fill="none" stroke="rgb(80, 68, 68)" stroke-width="2" stroke-linejoin="round" filter="url(#fuzzy)"></polyline><polyline points="1,-84,20.709060465345367,-71.04007683767809,38.387673499294394,-54.610070974895415,43.85474835886904,-46.72746100837586,37.299075133127225,-47.70927979079733,25.41021514739766,-52.716277414021896,16.464357237293058,-57.19861575870055,15.020571805251354,-59.50581772566198,19.933987207166513,-60.44358372716123,26.706094498054142,-61.15138406783386,31.4556514304539,-61.35832102054882,32.65668158727027,-59.57072619068989,29.143373587447797,-55.39807410729778,17.6036610987982,-52.6267409201633,-1.1537473738585478,-59.798831831884456,10,-82" fill="none" stroke="rgb(80, 68, 68)" stroke-width="2" stroke-linejoin="round" filter="url(#fuzzy)"></polyline><polyline points="57,-40,36.283922879162915,-55.36461305162843,23.349136796763837,-64.9052718583529,21.06714286706279,-69.24020867664655,21.561472440102357,-71.13592373866764,21.745428549945114,-71.87038818134498,21.54528058988855,-71.9529097388141,21.295079454919396,-71.75857511234902,21.108979456860308,-71.49146898789165,21.01669095760792,-71.09056887653183,20.971097813552905,-70.39455082869027,20.798099403588623,-69.38666934790548,20.307594537734985,-68.27463847398758,19.432493919169094,-67.39192861899696,18.151373302694008,-67.05997433303301,16.271673353789023,-67.48713821486953,13.46692831190081,-68.66456692106148,9.786880681047517,-70.24297216400669,6.2376339047002745,-71.50726818721475,4.561622368981274,-71.61151568287286,5.646992355972669,-70.10036963891336,7.175325669156967,-67.54058666725597,3.1249301643347516,-65.95182135796401,-8.432802217688184,-68.93745671153584,4,-84" fill="none" stroke="rgb(80, 68, 68)" stroke-width="2" stroke-linejoin="round" filter="url(#fuzzy)"></polyline><polyline points="-32,-76,22.6785191577606,-53.46670979715306,35.21785757089773,-52.57556158161602,34.98706766796726,-57.400114338092166,32.215471142807424,-60.55026315336448,27.657042822343243,-62.1787113376923,21.40955770698726,-64.15273489158416,15.240644032547042,-66.87230750091355,11.08852284359287,-69.22850835088384,9.373050462717032,-70.01918412451764,8.798675046945505,-69.1176815357363,7.400210808180443,-67.56835934553771,3.8710347882473184,-66.75449932428374,-1.482544522594191,-67.35918310732632,-6.3047332871919455,-68.83460882961718,-6.426164926180523,-69.6630465958121,2.465099900489037,-68.22690391840275,20.87184141124536,-63.862950456380204,41.14317563666141,-57.29098694188272,53,-48" fill="none" stroke="rgb(80, 68, 68)" stroke-width="2" stroke-linejoin="round" filter="url(#fuzzy)"></polyline><polyline points="-13,-84,4.194864675649914,-73.21189698850331,-3.145211887660013,-73.86272758363957,-9.506760597589999,-75.3990807015529,-11.868864546373887,-74.76097723555425,-10.517833583936525,-72.53088868647392,-6.343327143939021,-70.18076862069726,-0.7268842913816999,-68.54355794307266,4.657677568063056,-67.6723861715037,8.300408808164722,-67.38187594185924,9.478900512424254,-67.58989517557819,8.728024470949283,-68.17756729477776,7.674073934555054,-68.70383036136627,8.08617387740656,-68.42672282830016,10.64999822034295,-66.73679713399603,14.357073029020919,-63.670787525194534,17.130731498235075,-60.02000285720251,17.454005541866866,-56.84133559365087,15.79957162875614,-54.76278629628193,14.316918822250138,-53.857336573547904,14.34227234545427,-54.433544993374674,14.160045019543833,-57.76209622037783,12.068555454413932,-64.70014883001525,15.46798368138402,-71.70895465843677,34,-69" fill="none" stroke="rgb(80, 68, 68)" stroke-width="2" stroke-linejoin="round" filter="url(#fuzzy)"></polyline><polyline points="-5,-85,15.480921592547354,-69.63426175439064,13.504187208277095,-68.12356072380615,11.258521793815602,-66.25347731051507,8.92127374415464,-64.93172578779563,6.728634425450371,-65.38286951805189,5.302502374290597,-67.16099126524696,4.5731157408635354,-69.28023816620318,4.481498368334253,-70.85743288410393,5.51493843479893,-71.24707275744662,8.278147774461232,-70.15792366274786,12.784434453471057,-67.800265106602,18.198336362838745,-64.88115930557251,23.111106195798254,-62.36533114815511,26.051893831986487,-61.09881833575324,26.023421624970563,-61.46875543890611,23.016730483415003,-63.23053369344172,18.371185559254943,-65.53646530247381,14.58210137953175,-67.11963357874188,14.088120218793279,-66.61331735760314,16.99542051269761,-63.17908678003628,18.661821645306414,-57.74967103396654,9.623667329745263,-54.51908560742028,-16.581696707989202,-60.06700187241701,-35,-75" fill="none" stroke="rgb(80, 68, 68)" stroke-width="2" stroke-linejoin="round" filter="url(#fuzzy)"></polyline><polyline points="-27,-79,-20.673490248534545,-77.0475093484531,-3.6773094160289386,-77.64392657224631,8.828119825940488,-77.03063512940551,13.208162260256456,-75.84308936990838,10.026881559689539,-75.13072138525958,2.2688470517350376,-75.01909645279231,-5.973097238209026,-75.076351227201,-10.900387867550501,-74.94019975535423,-10.01947054915584,-74.35253756428287,-2.6430377589038696,-72.81342355902092,9.895324427883546,-69.58872566436443,24.13185592082433,-64.66490508558336,34.48447695087491,-60.74897097549519,33.69998659948223,-64.69615202216174,17,-80" fill="none" stroke="rgb(80, 68, 68)" stroke-width="2" stroke-linejoin="round" filter="url(#fuzzy)"></polyline><polyline points="-50,-58,-10.191384863557705,-72.85298417859094,8.216881947357821,-75.10660342862408,17.195093432929614,-73.01377237279446,20.50227543696485,-71.13340714370652,20.948090741678723,-70.11822423696171,20.38663496023965,-69.20383350545943,18.988010437379312,-68.09937788774997,16.18610935909084,-67.0906764231783,11.994881123814666,-66.43714018221782,7.320715316231463,-66.12754788243058,3.3267632040740245,-66.1076333569891,0.7411792692534014,-66.50011090143086,-0.26357133670242233,-67.44882076836687,0.25959256544257836,-68.69799568848045,2.27489276782365,-69.36476587042831,5.635468878655788,-68.28118393986041,9.921396519461677,-64.82202348092547,14.820350691834086,-59.64022275887854,20.87046486527487,-54.64555768391595,28.954189151814013,-52.1554130911984,36.85786198681635,-54.16480731287524,35.8365345645655,-62.772484558658746,18,-79" fill="none" stroke="rgb(80, 68, 68)" stroke-width="2" stroke-linejoin="round" filter="url(#fuzzy)"></polyline><polyline points="27,-75,21.16616466748523,-76.56767302345129,23.056174698035015,-74.1834064109825,22.576618736582677,-71.57774618021074,19.991935109680586,-69.18154792877613,16.4053025084071,-68.40249518656722,12.815971351953406,-70.00929697179238,9.9697945731696,-73.18747383068889,8.079190060093628,-76.19450907346277,7.045188398088194,-77.38323723426203,6.815858448312475,-75.83506332572927,7.0983537453752135,-71.79045079136571,6.716829403807743,-67.1005041380229,4.122644932932604,-64.92727763471225,-2.5680646092072568,-67.3876013820487,-36,-74" fill="none" stroke="rgb(80, 68, 68)" stroke-width="2" stroke-linejoin="round" filter="url(#fuzzy)"></polyline><!--]--></g><g id="lineNose"><path d="M -8.366256851098786 -4.6728960050536825, Q10.81969507687297 1.1747581862830327,1.2267191128870918 -5.458137236141768" fill="none" stroke="black" stroke-width="3" stroke-linejoin="round" filter="url(#fuzzy)"></path></g><g id="mouth"><polyline points="42.53475703310383,50.79897399232209,42.40299312255878,51.018802084247866,42.449741477228606,51.446412158063424,42.367289981065625,51.29708691892209,42.324422265954624,52.04923471309066,41.71331704896531,53.51470415278483,42.09616327993385,52.71881446273824,41.240164303929475,54.1835166968622,40.95836101996114,54.65828710045069,41.582739769889784,53.81682737514009,40.2695683847626,55.370923119995645,40.53809592808984,55.230661257495846,40.46137269094667,55.394078026072044,40.10888160532529,55.51012402997551,39.84603233134594,55.934785276079054,39.30508741214705,56.46620171744069,37.75148205141118,57.65851449439175,37.10971925318861,58.075188014799075,37.682049764586154,57.7562240147782,37.721796197710994,57.803337675517696,35.539326567064535,59.033677769301704,36.12931614186613,58.73032891670639,35.69876183532752,58.87677912590004,34.60127656637265,59.47837469662426,33.08499644141872,60.06141317059391,34.01443174846793,59.70776114108284,32.24425740993914,60.37482237417192,31.250716135391205,60.81226547611985,32.395830851666524,60.3634751444301,30.871537099691533,60.84148501537488,31.434492460396907,60.753287513805596,28.51644968353903,61.477285199281106,28.610974860457105,61.51631230530062,28.005063590067202,61.653479212134876,28.229944468027128,61.56620930568699,25.40281684567109,62.05773500281123,27.070418925750563,61.82114255075387,25.701721161741407,62.02132956169508,24.04259889929995,62.238573716391556,23.375938363606963,62.331791565497085,21.377988325681606,62.464491166163185,21.860660907387803,62.45355732437716,21.47792023191234,62.48424364147588,20.433285497133763,62.52717498616279,19.96585454860204,62.53635461148552,18.590670815053485,62.54943022829551,18.609093574631544,62.555355411545456,15.457033744360453,62.45148772608522,15.721867891571197,62.47024134002147,15.905811388487384,62.477060386261144,13.746609404934588,62.317265872904855,13.714711855607774,62.315059052482184,13.032314873229002,62.24659091010697,11.758134090438045,62.093023766904686,11.47772606048277,62.05463538788125,8.581670080440293,61.538879714560665,8.43478889425115,61.51251155036477,7.081258420364385,61.24293327482944,8.157174310986406,61.47799369225782,6.198244103736476,61.01779112519126,7.113560707334496,61.22006765816183,6.087745738945925,60.99605935303412,5.31841917438031,60.77183844915587,2.8300918363554466,59.98409004167541,1.6360163805907533,59.58746887417222,2.418335857374611,59.88648622641026,0.33188163641461976,59.06179703882208,0.8356817772972125,59.234975976325714,-0.9134746469297141,58.549611429301095,-1.8939713365336033,58.09479151375966,-0.3465347067933031,58.7323062463465,-2.8211808128931253,57.545276022297124,-3.0291730130099737,57.39680910847254,-2.381541803612393,57.77186640537952,-3.9762544685561316,56.88100425897564,-5.060376257340167,56.199161396992196,-5.807237041152206,55.705578873739896,-4.976196732072577,56.196210860034945,-6.270579413640203,55.43969583161805,-7.606239074945577,54.348726797081206,-7.969802173311475,53.931459610776024,-7.574498089771417,54.327129674004595,-8.43530660399852,53.47289459510607,-8.221426956145976,53.63547332032027,-8.385672193868078,53.58183415588139,-9.643548955757975,51.983687053344894,-9.68707630634415,51.815137164865284,-10.090116131940142,51.32363068659859,-10.230603022661224,51.13894026705838,-10.300921412145318,51.00615930226783,-10.941771118888752,49.837935894020355,-10.725847986399046,50.560488326149276,-10.881384817884168,50.22331015540275,-11.112595409726254,49.25454551381736,-11.255000584977747,49.17379054031437,-11.355696848511514,48.63283677001625,-11.368691048131986,48.36960783857671,-11.56118690656514,47.84837518197824,-11.838115821572114,46.43112745063823,-11.687235134214522,45.68386957870344,-11.828787753228056,45.90652587347765,-11.538236322945036,44.855317486594096,-11.651964313291653,44.95734315007351,-11.153338445313032,43.779918483892224,-11.220607525853605,43.818584729204076,-10.988019650007963,43.383907428740336,-10.951509629488928,42.79573642862399,-10.830835948739942,43.03850680967176,-10.630429446932599,42.26212471847118,-10.001084962057682,41.44757028881928,-10.298629371115542,41.93565919232896,-9.100713021532869,40.587829910787484,-8.780029054958767,40.22820726267669,-9.283779922046914,40.79112248651518,-8.394557853194119,39.91459671017577,-8.6289940296958,39.99807883300167,-7.921389228188062,39.329840246128974,-7.88170781354394,39.31316785269496,-7.811851413072144,39.26123242174553,-6.37535892348124,38.21943167856416,-5.005114614451603,37.585808958239575,-6.132225433923004,38.16209128011265,-5.577521709098534,37.89992931580964,-4.97744901390886,37.4653275206468,-3.9470213332432174,36.94144296284694,-2.1712947353608527,36.307819654023504,-2.6862741893958457,36.48065076091304,-1.6864885716141593,36.09404681924399,-0.2237357893813119,35.643122096721406,-0.49838043684142264,35.69334093385759,-0.8801377963982553,35.7509401694204,0.28411651493502177,35.453489479775264,0.6749464830326453,35.34151599760739,3.1742832977463316,34.787872017611534,4.4526669004456,34.509885824907336,5.5600011957986055,34.37753625857163,4.914564447567896,34.45253393495068,5.606307236693059,34.35261853671665,5.106920262140873,34.43936387291796,8.56223047351708,34.071866516758575,7.434946981817855,34.149019334125924,8.299758544379896,34.08383239564469,11.135714830211155,33.947986818959436,9.481020046698251,34.005130478747816,12.140004674913486,33.95771132793923,13.267424650612963,33.956165595477756,12.632624481438786,33.955911268623005,12.923424914552017,33.953209801823895,15.929573243926765,34.09641940315511,16.48458210862962,34.14037302939054,16.86745848272276,34.17372549665946,18.852892996709407,34.39582998137848,18.914366090222735,34.40603949595151,19.224833233517064,34.44760244324823,19.580207418460258,34.49465094063544,20.885284061250537,34.704313815700665,22.929396439177516,35.11211968513929,21.19474011866084,34.764273378621866,23.296479761412556,35.16730585634877,25.09682425237183,35.59522341007389,25.22146696609204,35.64481172696572,24.71073420626724,35.525180542886204,25.998121131979445,35.8668906041517,27.000919257798806,36.182902154994586,28.058129314218355,36.51024446046974,29.085761878232766,36.8473312180881,30.818614129066027,37.545332524080465,29.61235281083008,37.032667766622055,29.788360143163505,37.13334685699792,32.618703957440026,38.3210420064317,32.284852982081716,38.15405273646204,33.61627215928489,38.868423026942594,34.28519787322334,39.25371424472241,34.14766426064409,39.1510818919145,35.8049721384193,40.19966204218056,34.443553197886814,39.36044904604302,35.53544398866367,40.0445149014817,37.365247353179996,41.27938247791237,37.75349840638182,41.622060394382586,37.40824841544481,41.24694086628994,38.59610656635816,42.31486608365331,39.27647479212288,43.056546892022965,39.35329496109694,43.07387682123414,38.92737041868398,42.67602993118396,40.23521043657055,44.05059825019047,40.61192547611216,44.595360861050644,40.29185442186975,44.03616277691196,40.265118702413425,44.20984131488561,41.49527000211526,46.0919240887295,41.023104563391875,45.046915624408044,41.291146635976446,45.56300561203191,41.73699099376628,46.16029383581023,41.80925287877703,46.50916172110856,41.967257133369586,46.866139818618954,42.273160977211305,47.898632497414695,42.481485903119136,48.438479078214385,42.42141275591078,49.54560758716431,42.609285821714636,50.01504164616758,42.65081008256907,49.28268969791254,42.56925659895177,50.93912361757832" fill="rgb(215,127,140)" stroke="black" stroke-width="3" stroke-linejoin="round" filter="url(#fuzzy)"></polyline></g></svg>