<svg viewBox="-100 -100 200 200" xmlns="http://www.w3.org/2000/svg" width="400" height="400" id="face-svg"><defs><clipPath id="leftEyeClipPath"><polyline points="22.8763207796204,1.3308930248515352,22.78224280534698,0.7562314717956499,22.644143552542737,0.19332386759329512,22.46440567834203,-0.3579955962523168,22.245329356350442,-0.8978710446280207,21.989133714303286,-1.4264257309481885,21.69795827172408,-1.943762849292213,21.37386437758306,-2.4499663465420114,21.0188366479557,-2.9451017345195,20.634784403681163,-3.4292169021241024,20.223543108020856,-3.902342927470233,19.786875804316864,-4.364494890024784,19.32647455365051,-4.815672682744632,18.843961872500834,-5.255861824214113,18.340892170403055,-5.685034270782523,17.81875318760713,-6.103149228701611,17.16568559983451,-6.570433424572764,16.494419483567988,-7.02957120485969,15.806663158107622,-7.479707228582473,15.104047139788047,-7.919959505185776,14.388129358010726,-8.349428955212156,13.660400052035708,-8.767208400594132,12.922286356972819,-9.172390997193855,12.175156587411802,-9.564078122219536,11.420324227131275,-9.941386729147535,10.659051633326154,-10.303456182779165,9.892553463793238,-10.64945458706124,9.121999835514732,-10.978584618299337,8.34851922307939,-11.290088876392794,7.573201105380973,-11.583254766720497,6.7970983690337965,-11.857418925306378,6.021229476945023,-12.111971199893746,5.2465804104834515,-12.346358199557338,4.474106393684527,-12.560086425482215,3.70473340793124,-12.752724995538447,2.939359505550696,-12.923907975280612,2.178855930766011,-13.073336328001101,1.424068056443287,-13.200779496466307,0.6758161450733842,-13.306076628964606,-0.06510405757182136,-13.389137462295222,-0.7979208876689663,-13.449942874326975,-1.52188647901876,-13.488545118755864,-2.2362766207279394,-13.50506775469057,-2.9403907484578236,-13.499705283694839,-3.6335520607998033,-13.472722506915801,-4.315107752338021,-13.424453614927158,-4.9844293549595395,-13.355301022916354,-5.640913178972279,-13.265733963844642,-6.283980845591011,-13.156286852209137,-6.91307990235167,-13.027557431035785,-7.527684513014312,-12.880204714732363,-8.127296213514946,-12.714946740430369,-8.711444725526583,-12.532558140445005,-9.279688819189737,-12.333867548482095,-9.831617216572674,-12.119754852221034,-10.36684952742172,-11.891148304902751,-10.885037208761887,-11.64902150855171,-11.385864539908077,-11.394390281460957,-11.869049604447227,-11.128309422569215,-12.33434527075157,-10.851869385359036,-12.78154016258339,-10.56619287390505,-13.21045961135152,-10.272431373701249,-13.620966581579857,-9.971761629896422,-14.012962561148147,-9.665382085566664,-14.386388407865432,-9.354509292653985,-14.741225143936326,-9.040374308200091,-15.078454103546107,-8.721790278592861,-15.398914549163525,-8.397126303776385,-15.702416871081063,-8.066951303514246,-15.988788237655655,-7.731826468145181,-16.257873725627757,-7.392303567197778,-16.509537450440526,-7.048923258005143,-16.743663696558926,-6.702213394319624,-16.960158047788912,-6.35268733492745,-17.158948517596514,-6.000842252263472,-17.339986679427025,-5.6471574410258185,-17.503248797024103,-5.292092626790593,-17.64873695474893,-4.936086274626562,-17.776480187899352,-4.579553897709843,-17.88653561302899,-4.222886365938595,-19.334607626442025,1.107983788185522,-19.008454756048906,1.4141290830236735,-18.6700850082123,1.7222208806982735,-18.31964706489648,2.0322782483715134,-17.957317724659024,2.3443126141260127,-17.583299855803705,2.658326626135143,-17.19782034953343,2.9743130118333494,-16.801128073103087,3.2922534370864756,-16.393491822972543,3.6121173653620886,-15.975198277959429,3.933860916899806,-15.546549952392134,4.257425727881608,-15.107863149262695,4.582737809602176,-14.659465913379673,4.909706407639204,-14.201695984521056,5.238222861023728,-13.734898750587217,5.568159461410455,-13.257359486816767,5.899991052787311,-12.767499886110016,6.234240342262345,-12.26587057780577,6.570781309775561,-11.7530155871913,6.909415000489719,-11.229470580327465,7.249870360266903,-10.695761135766393,7.59180521045456,-10.152401058444678,7.934807370499158,-9.599890751035225,8.278395936905664,-9.038715658040893,8.62202272706108,-8.469344797913127,8.965073896440167,-7.89222939847856,9.306871737711626,-7.307801650956816,9.646676670262835,-6.716473597852668,9.983689428661433,-6.118636170005508,10.317053458571916,-5.514658388079494,10.64585752864537,-4.904886743777261,10.969138566900662,-4.28964477606051,11.285884730115189,-3.6692328576604725,11.59503871474337,-3.0439282071614597,11.89550131788119,-2.4139851419405485,12.186135256794858,-1.779635587246613,12.465769255531841,-1.1410898567017371,12.733202407132485,-0.49853771950820835,12.987208819960337,0.14785023035584066,13.226542556669484,0.7979208876689663,13.449942874326975,1.4515366169440371,13.656139774208647,2.1085728855678054,13.843859869786419,2.768915533819313,14.011832581425354,3.432457666483975,14.15879666630865,4.099096150780262,14.283507092108739,4.768727705315824,14.384742262922686,5.441244564789935,14.461311605990145,6.116529705159147,14.512063527711943,6.794451613983023,14.535893747487656,7.474858590666795,14.531754017890195,8.157572561317892,14.498661239695743,8.842382392933125,14.435706980287119,9.529036691633468,14.342067403948903,10.2172360696633,14.217013622572328,10.906624865870945,14.059922475288344,11.596782304387443,13.87028774554687,12.287213076220379,13.64773182416056,12.97733732847966,13.392017826831163,13.666480045952135,13.103062174676799,14.353859809741895,12.780947646278221,15.03857691769316,12.42593690976236,15.719600851312638,12.038486543441257,16.39575707390815,11.619261553524677,17.06571314466054,11.169150397424495,17.727964133345566,10.689280521169138,18.22653204426278,10.372270344107479,18.711269635379246,10.037766744291492,19.180799250222925,9.686181580161742,19.633657117779894,9.31799081711539,20.06829097755094,8.93373660928663,20.48305770460819,8.534029381327208,20.876220934651762,8.119549910186931,21.245948689066335,7.691051406894136,21.590310999977813,7.249361598336206,21.90727753530994,6.795384809040059,22.19471522384091,6.330104042952637,22.450385880259976,5.854583065221414,22.671943830224127,5.36996848397488,22.856933535414626,4.877491832103044,23.002787218593724,4.378471649037933"></polyline></clipPath><clipPath id="rightEyeClipPath"><polyline points="-26.815618191411602,0.3258557031192546,-26.56277695219286,-0.17316361330139385,-26.26394811286493,-0.671069566141064,-25.921859816967117,-1.1673999326637405,-25.539152020143966,-1.6616880927319575,-25.118377842851427,-2.153463651605918,-24.662004923063012,-2.642253062742607,-24.172416768975978,-3.1275802505949155,-23.651914111717467,-3.608967233410752,-23.102716258050673,-4.085934746032166,-22.526962443081015,-4.558002862694465,-21.92671318296228,-5.02469161982533,-21.3039516276028,-5.485521638843942,-20.660584913371608,-5.94001474896009,-19.9984455158046,-6.387694609973295,-19.319292602310696,-6.828087335071931,-18.47499130599288,-7.340531258541548,-17.614311245190265,-7.84810910213087,-16.73961054832217,-8.349370446002167,-15.853159951873138,-8.842854886205798,-14.95714460764729,-9.327103012996643,-14.053665812592484,-9.800666699757562,-13.14474266404502,-10.262118717923304,-12.232313643245387,-10.710061693298373,-11.318238129975766,-11.143136419162168,-10.40429785116992,-11.56002954155498,-9.492198266346037,-11.959480632138128,-8.58356989271323,-12.340288664021815,-7.679969572802298,-12.701317905954008,-6.78288168747133,-13.041503250263917,-5.893719317136868,-13.359854989953355,-5.013825354081187,-13.655463060329543,-4.144473568686367,-13.92750076057275,-3.2868696324457645,-14.175227970632166,-2.4421521006035096,-14.397993878843506,-1.6113933572726786,-14.595239235661785,-0.7956005258827687,-14.766498148902583,0.004283652192938803,-14.911399435885423,0.7873799679794082,-15.029667547872526,1.5528719213607314,-15.121123082196481,2.300004920809199,-15.18568289747026,3.0280855035318854,-15.22335984727294,3.736480573184215,-15.23426214770465,4.424616652299774,-15.218592394204146,5.09197914658583,-15.176646243022473,5.738111618233852,-15.10881077274607,6.362615065394452,-15.015562541262897,6.965147204966117,-14.897465353564831,7.545421755847057,-14.755167755780013,8.103207719799585,-14.589400270828294,8.63832865707639,-14.400972391093498,9.150661953958036,-14.190769343505687,9.640138079351136,-13.959748642427073,10.106739827596463,-13.708936445734876,10.550501544636486,-13.439423729494644,10.971508334691602,-13.152362296617376,11.369895244594485,-12.848960634894022,11.745846422931898,-12.530479639800667,12.099594251143394,-12.198228217467905,12.431418443726173,-11.853558783207838,12.74164511469559,-11.497862670992095,13.03064580745054,-11.132565469274338,13.298836485193263,-10.759122298550707,13.546676479052774,-10.379013046051597,13.77466739106135,-9.99373757295822,13.98335194913356,-9.604810909537434,14.173179600011562,-9.210776725030007,14.344268278961199,-8.809638935832956,14.496701874730704,-8.402104786833602,14.630575642652474,-7.988871006202091,14.745996586423853,-7.5706217437704915,14.843083839887896,-7.148026509411858,14.921969048814226,-6.721738111419338,14.982796752679779,-6.2923905948852195,15.025724766449624,-5.860597180080054,15.050924562357793,-5.4269482008317205,15.058581651688009,-4.992009042904502,15.04889596655456,-4.556318082378187,15.022082241683055,-4.120384624027133,14.978370396191224,-3.6846868396993644,15.175815281436314,3.6437301704253384,14.790812982811786,3.937696435943885,14.39906167659462,4.233758391972873,14.000915164606933,4.531886524605566,13.596753334956972,4.832040982143425,13.186978699183978,5.134170828864079,12.772012929403115,5.438213298789296,12.3522933954503,5.744093049452968,11.928269702027158,6.051721415669075,11.500400225845855,6.360995663299669,11.069148652774011,6.671798243022843,10.634980514979581,6.9839960441007065,10.198359728075758,7.2974396481473605,9.759745128265827,7.611962582896876,9.3195870094881,7.9273805759712594,8.87555788233032,8.244280422760182,8.425749482569707,8.563240944418723,7.971173063398162,8.88400500917733,7.5127587118998544,9.206253627080034,7.051352996532387,9.529607223306686,6.587716774671845,9.853627031104482,6.122523186077615,10.17781660990076,5.656355858133022,10.501623494168799,5.189707348717725,10.824440978618602,4.722977852567874,11.145610045284435,4.256474196980038,11.464421438081084,3.790409152714833,11.78011789040059,3.324901085956281,12.091896511321405,2.859973977182877,12.39891133600183,2.3955578328063165,12.700276045829542,1.9314895154339382,12.995066863899151,1.4675140186107711,13.282325631389595,1.003286211897258,13.561063070413267,0.5383730821385875,13.830262238908736,0.07225649678164636,14.088882183148929,-0.3956634849044507,14.335861793436624,-0.8660647268482213,14.570123868559161,-1.3396985315801464,14.790579394574156,-1.8173845301654232,14.99613204349819,-2.300004920809201,15.18568289747026,-2.7884980302782907,15.358135403961874,-3.2838511722833683,15.51240056760569,-3.7870927769657063,15.647402384214498,-4.299283765632399,15.762083522562516,-4.821508144884164,15.855411259500721,-5.3548627942796845,15.926383673978231,-5.900446421680508,15.974036105541495,-6.459347660420571,15.997447882883211,-7.032632282444291,15.995749328012815,-7.621329501557282,15.96812904162043,-8.226417340933725,15.913841475206091,-8.84880703902436,15.832214795546188,-9.489326468009143,15.722659047068928,-10.14870253893861,15.5846746177107,-10.827542567707885,15.41786101382523,-11.526314576007453,15.221925949717358,-12.24532650139461,14.996694757373346,-12.984704290629672,14.742120121959516,-13.744368850420937,14.458292148661167,-14.524011829722413,14.145448766433562,-15.323070207728335,13.803986474236908,-16.14069966170848,13.434471435327147,-16.97574668882828,13.037650925174471,-17.826719456097788,12.614465138581382,-18.69175735259349,12.166059361572188,-19.290085112183608,11.864201319838003,-19.885868966955805,11.547454006219867,-20.477584332288245,11.216261632127866,-21.063571147915965,10.871125158567713,-21.642029643301612,10.512604045502515,-22.211016103006205,10.141318001214533,-22.76843863205991,9.757948731666975,-23.31205292133277,9.363241689865765,-23.839458012905496,8.958007825221305,-24.34809206544019,8.543125332910263,-24.83522811955113,8.119541403237339,-25.29796986317551,7.688273970997038,-25.73324739694421,7.25041346483545,-26.137812999552537,6.807124556612017,-26.508236893131006,6.359647910761317"></polyline></clipPath><filter id="fuzzy"><feTurbulence id="turbulence" baseFrequency="0.05" numOctaves="3" type="noise" result="noise"></feTurbulence><feDisplacementMap in="SourceGraphic" in2="noise" scale="2"></feDisplacementMap></filter><linearGradient id="rainbowGradient" x1="0%" y1="0%" x2="100%" y2="0%"><stop offset="0%" style="stop-color: rgb(167, 133, 106);  stop-opacity: 1"></stop><stop offset="21.620620944563928%" style="stop-color: rgb(192, 192, 192);  stop-opacity: 1"></stop><stop offset="100%" style="stop-color: rgb(128, 128, 128);  stop-opacity: 1"></stop></linearGradient></defs><title>That&#39;s an ugly face</title><desc>CREATED BY XUAN TANG, MORE INFO AT TXSTC55.GITHUB.IO</desc><rect x="-100" y="-100" width="100%" height="100%" opacity="1" fill="rgb(245, 222, 179)"></rect><polyline id="faceContour" points="67,1,67,0,67,5,67,4,67,6,67,7,67,7,67,11,67,11,67,13,67,13,67,16,67,19,67,19,67,19,66,22,66,23,66,23,66,26,66,27,66,27,65,29,65,31,65,33,65,34,64,33,64,36,63,38,63,38,63,40,62,42,62,43,61,44,62,43,61,44,60,46,60,48,59,49,59,49,58,52,58,52,57,53,56,55,56,56,55,56,55,57,53,59,53,59,53,60,52,61,50,63,51,62,49,65,49,64,48,66,47,67,47,67,45,69,44,70,44,70,44,70,42,71,41,72,41,72,39,73,38,74,38,74,37,75,36,75,35,76,33,77,33,77,32,78,31,78,30,78,30,78,29,79,27,79,26,80,26,80,23,81,22,81,23,81,21,81,19,82,18,82,16,82,16,82,15,82,13,83,13,83,11,83,8,83,6,83,8,83,5,83,5,83,3,83,2,83,1,83,0,83,-2,83,-3,83,-3,83,-5,83,-5,82,-7,82,-9,82,-10,81,-11,81,-11,81,-14,80,-15,80,-15,80,-16,80,-17,80,-19,79,-20,79,-22,78,-21,79,-24,77,-26,76,-26,76,-27,76,-26,76,-29,75,-30,74,-31,73,-33,73,-33,73,-33,73,-36,70,-37,70,-36,70,-38,69,-38,69,-40,68,-42,66,-42,66,-41,66,-43,65,-44,64,-46,63,-46,62,-47,62,-48,60,-48,60,-49,59,-50,57,-50,58,-51,56,-51,56,-53,54,-53,54,-55,51,-55,50,-55,51,-56,49,-57,48,-57,48,-58,47,-58,46,-59,44,-60,42,-59,43,-60,41,-61,40,-61,39,-62,37,-63,35,-63,36,-63,35,-63,34,-63,34,-64,30,-65,30,-65,28,-65,28,-66,25,-65,25,-66,24,-66,23,-66,20,-66,22,-66,20,-67,19,-67,16,-67,16,-67,16,-67,13,-67,12,-67,11,-67,11,-67,7,-67,8,-67,6,-67,6,-67,3,-67,4,-67,1,-67,-1,-67,-2,-67,-2,-66,-5,-66,-6,-66,-5,-66,-7,-66,-9,-65,-10,-66,-10,-65,-13,-65,-14,-65,-15,-64,-16,-64,-16,-63,-20,-63,-20,-63,-20,-62,-23,-62,-23,-61,-25,-62,-24,-61,-27,-61,-27,-61,-28,-60,-31,-60,-30,-59,-31,-58,-34,-58,-34,-57,-37,-57,-37,-57,-38,-56,-38,-55,-40,-54,-42,-54,-42,-54,-43,-53,-45,-52,-46,-51,-47,-51,-48,-51,-47,-49,-50,-49,-50,-49,-50,-48,-52,-47,-54,-46,-54,-45,-56,-45,-56,-44,-57,-42,-59,-42,-59,-43,-59,-41,-60,-40,-61,-40,-61,-38,-64,-37,-65,-37,-65,-37,-65,-35,-66,-34,-68,-33,-68,-33,-68,-32,-70,-30,-70,-30,-71,-30,-71,-29,-72,-26,-73,-27,-73,-26,-73,-25,-74,-24,-74,-23,-75,-24,-75,-21,-77,-20,-77,-20,-77,-19,-78,-17,-78,-17,-79,-15,-79,-13,-80,-14,-80,-14,-80,-11,-81,-12,-80,-9,-81,-9,-82,-7,-82,-7,-82,-6,-82,-6,-82,-5,-83,-1,-83,-3,-83,0,-83,0,-83,1,-83,2,-83,3,-83,3,-83,5,-83,6,-83,7,-83,7,-83,9,-83,10,-83,12,-82,11,-83,14,-82,13,-82,15,-82,16,-82,15,-82,18,-81,18,-81,20,-81,20,-80,20,-80,22,-80,24,-79,25,-79,25,-78,25,-79,25,-78,28,-77,28,-77,31,-75,30,-76,32,-74,31,-75,32,-74,34,-73,34,-73,35,-72,36,-71,36,-71,39,-69,39,-68,40,-68,40,-68,41,-66,41,-66,42,-65,43,-64,45,-62,45,-62,46,-60,46,-61,47,-59,48,-58,49,-57,49,-57,49,-55,50,-55,51,-54,51,-53,53,-50,53,-50,53,-49,54,-47,55,-46,55,-45,56,-43,57,-42,58,-40,57,-41,58,-40,58,-40,59,-37,60,-34,59,-36,60,-33,61,-31,62,-28,62,-29,62,-28,62,-26,62,-26,64,-22,63,-23,64,-22,64,-20,64,-19,64,-17,65,-16,65,-15,66,-12,66,-12,66,-11,66,-9,66,-7,66,-5,67,-4,67,-3,67,-1,67,1,67,0" fill="#ffc9a9" stroke="black" stroke-width="1.6666666666666665" stroke-linejoin="round" filter="url(#fuzzy)"></polyline><g transform="translate(31.736042998729225 -21.84486639663894)"><polyline id="rightCountour" points="-26.815618191411602,0.3258557031192546,-26.56277695219286,-0.17316361330139385,-26.26394811286493,-0.671069566141064,-25.921859816967117,-1.1673999326637405,-25.539152020143966,-1.6616880927319575,-25.118377842851427,-2.153463651605918,-24.662004923063012,-2.642253062742607,-24.172416768975978,-3.1275802505949155,-23.651914111717467,-3.608967233410752,-23.102716258050673,-4.085934746032166,-22.526962443081015,-4.558002862694465,-21.92671318296228,-5.02469161982533,-21.3039516276028,-5.485521638843942,-20.660584913371608,-5.94001474896009,-19.9984455158046,-6.387694609973295,-19.319292602310696,-6.828087335071931,-18.47499130599288,-7.340531258541548,-17.614311245190265,-7.84810910213087,-16.73961054832217,-8.349370446002167,-15.853159951873138,-8.842854886205798,-14.95714460764729,-9.327103012996643,-14.053665812592484,-9.800666699757562,-13.14474266404502,-10.262118717923304,-12.232313643245387,-10.710061693298373,-11.318238129975766,-11.143136419162168,-10.40429785116992,-11.56002954155498,-9.492198266346037,-11.959480632138128,-8.58356989271323,-12.340288664021815,-7.679969572802298,-12.701317905954008,-6.78288168747133,-13.041503250263917,-5.893719317136868,-13.359854989953355,-5.013825354081187,-13.655463060329543,-4.144473568686367,-13.92750076057275,-3.2868696324457645,-14.175227970632166,-2.4421521006035096,-14.397993878843506,-1.6113933572726786,-14.595239235661785,-0.7956005258827687,-14.766498148902583,0.004283652192938803,-14.911399435885423,0.7873799679794082,-15.029667547872526,1.5528719213607314,-15.121123082196481,2.300004920809199,-15.18568289747026,3.0280855035318854,-15.22335984727294,3.736480573184215,-15.23426214770465,4.424616652299774,-15.218592394204146,5.09197914658583,-15.176646243022473,5.738111618233852,-15.10881077274607,6.362615065394452,-15.015562541262897,6.965147204966117,-14.897465353564831,7.545421755847057,-14.755167755780013,8.103207719799585,-14.589400270828294,8.63832865707639,-14.400972391093498,9.150661953958036,-14.190769343505687,9.640138079351136,-13.959748642427073,10.106739827596463,-13.708936445734876,10.550501544636486,-13.439423729494644,10.971508334691602,-13.152362296617376,11.369895244594485,-12.848960634894022,11.745846422931898,-12.530479639800667,12.099594251143394,-12.198228217467905,12.431418443726173,-11.853558783207838,12.74164511469559,-11.497862670992095,13.03064580745054,-11.132565469274338,13.298836485193263,-10.759122298550707,13.546676479052774,-10.379013046051597,13.77466739106135,-9.99373757295822,13.98335194913356,-9.604810909537434,14.173179600011562,-9.210776725030007,14.344268278961199,-8.809638935832956,14.496701874730704,-8.402104786833602,14.630575642652474,-7.988871006202091,14.745996586423853,-7.5706217437704915,14.843083839887896,-7.148026509411858,14.921969048814226,-6.721738111419338,14.982796752679779,-6.2923905948852195,15.025724766449624,-5.860597180080054,15.050924562357793,-5.4269482008317205,15.058581651688009,-4.992009042904502,15.04889596655456,-4.556318082378187,15.022082241683055,-4.120384624027133,14.978370396191224,-3.6846868396993644,15.175815281436314,3.6437301704253384,14.790812982811786,3.937696435943885,14.39906167659462,4.233758391972873,14.000915164606933,4.531886524605566,13.596753334956972,4.832040982143425,13.186978699183978,5.134170828864079,12.772012929403115,5.438213298789296,12.3522933954503,5.744093049452968,11.928269702027158,6.051721415669075,11.500400225845855,6.360995663299669,11.069148652774011,6.671798243022843,10.634980514979581,6.9839960441007065,10.198359728075758,7.2974396481473605,9.759745128265827,7.611962582896876,9.3195870094881,7.9273805759712594,8.87555788233032,8.244280422760182,8.425749482569707,8.563240944418723,7.971173063398162,8.88400500917733,7.5127587118998544,9.206253627080034,7.051352996532387,9.529607223306686,6.587716774671845,9.853627031104482,6.122523186077615,10.17781660990076,5.656355858133022,10.501623494168799,5.189707348717725,10.824440978618602,4.722977852567874,11.145610045284435,4.256474196980038,11.464421438081084,3.790409152714833,11.78011789040059,3.324901085956281,12.091896511321405,2.859973977182877,12.39891133600183,2.3955578328063165,12.700276045829542,1.9314895154339382,12.995066863899151,1.4675140186107711,13.282325631389595,1.003286211897258,13.561063070413267,0.5383730821385875,13.830262238908736,0.07225649678164636,14.088882183148929,-0.3956634849044507,14.335861793436624,-0.8660647268482213,14.570123868559161,-1.3396985315801464,14.790579394574156,-1.8173845301654232,14.99613204349819,-2.300004920809201,15.18568289747026,-2.7884980302782907,15.358135403961874,-3.2838511722833683,15.51240056760569,-3.7870927769657063,15.647402384214498,-4.299283765632399,15.762083522562516,-4.821508144884164,15.855411259500721,-5.3548627942796845,15.926383673978231,-5.900446421680508,15.974036105541495,-6.459347660420571,15.997447882883211,-7.032632282444291,15.995749328012815,-7.621329501557282,15.96812904162043,-8.226417340933725,15.913841475206091,-8.84880703902436,15.832214795546188,-9.489326468009143,15.722659047068928,-10.14870253893861,15.5846746177107,-10.827542567707885,15.41786101382523,-11.526314576007453,15.221925949717358,-12.24532650139461,14.996694757373346,-12.984704290629672,14.742120121959516,-13.744368850420937,14.458292148661167,-14.524011829722413,14.145448766433562,-15.323070207728335,13.803986474236908,-16.14069966170848,13.434471435327147,-16.97574668882828,13.037650925174471,-17.826719456097788,12.614465138581382,-18.69175735259349,12.166059361572188,-19.290085112183608,11.864201319838003,-19.885868966955805,11.547454006219867,-20.477584332288245,11.216261632127866,-21.063571147915965,10.871125158567713,-21.642029643301612,10.512604045502515,-22.211016103006205,10.141318001214533,-22.76843863205991,9.757948731666975,-23.31205292133277,9.363241689865765,-23.839458012905496,8.958007825221305,-24.34809206544019,8.543125332910263,-24.83522811955113,8.119541403237339,-25.29796986317551,7.688273970997038,-25.73324739694421,7.25041346483545,-26.137812999552537,6.807124556612017,-26.508236893131006,6.359647910761317" fill="white" stroke="white" stroke-width="0" stroke-linejoin="round" filter="url(#fuzzy)"></polyline></g><g transform="translate(-37.589942540550524 -20.598343825607166)"><polyline id="leftCountour" points="22.8763207796204,1.3308930248515352,22.78224280534698,0.7562314717956499,22.644143552542737,0.19332386759329512,22.46440567834203,-0.3579955962523168,22.245329356350442,-0.8978710446280207,21.989133714303286,-1.4264257309481885,21.69795827172408,-1.943762849292213,21.37386437758306,-2.4499663465420114,21.0188366479557,-2.9451017345195,20.634784403681163,-3.4292169021241024,20.223543108020856,-3.902342927470233,19.786875804316864,-4.364494890024784,19.32647455365051,-4.815672682744632,18.843961872500834,-5.255861824214113,18.340892170403055,-5.685034270782523,17.81875318760713,-6.103149228701611,17.16568559983451,-6.570433424572764,16.494419483567988,-7.02957120485969,15.806663158107622,-7.479707228582473,15.104047139788047,-7.919959505185776,14.388129358010726,-8.349428955212156,13.660400052035708,-8.767208400594132,12.922286356972819,-9.172390997193855,12.175156587411802,-9.564078122219536,11.420324227131275,-9.941386729147535,10.659051633326154,-10.303456182779165,9.892553463793238,-10.64945458706124,9.121999835514732,-10.978584618299337,8.34851922307939,-11.290088876392794,7.573201105380973,-11.583254766720497,6.7970983690337965,-11.857418925306378,6.021229476945023,-12.111971199893746,5.2465804104834515,-12.346358199557338,4.474106393684527,-12.560086425482215,3.70473340793124,-12.752724995538447,2.939359505550696,-12.923907975280612,2.178855930766011,-13.073336328001101,1.424068056443287,-13.200779496466307,0.6758161450733842,-13.306076628964606,-0.06510405757182136,-13.389137462295222,-0.7979208876689663,-13.449942874326975,-1.52188647901876,-13.488545118755864,-2.2362766207279394,-13.50506775469057,-2.9403907484578236,-13.499705283694839,-3.6335520607998033,-13.472722506915801,-4.315107752338021,-13.424453614927158,-4.9844293549595395,-13.355301022916354,-5.640913178972279,-13.265733963844642,-6.283980845591011,-13.156286852209137,-6.91307990235167,-13.027557431035785,-7.527684513014312,-12.880204714732363,-8.127296213514946,-12.714946740430369,-8.711444725526583,-12.532558140445005,-9.279688819189737,-12.333867548482095,-9.831617216572674,-12.119754852221034,-10.36684952742172,-11.891148304902751,-10.885037208761887,-11.64902150855171,-11.385864539908077,-11.394390281460957,-11.869049604447227,-11.128309422569215,-12.33434527075157,-10.851869385359036,-12.78154016258339,-10.56619287390505,-13.21045961135152,-10.272431373701249,-13.620966581579857,-9.971761629896422,-14.012962561148147,-9.665382085566664,-14.386388407865432,-9.354509292653985,-14.741225143936326,-9.040374308200091,-15.078454103546107,-8.721790278592861,-15.398914549163525,-8.397126303776385,-15.702416871081063,-8.066951303514246,-15.988788237655655,-7.731826468145181,-16.257873725627757,-7.392303567197778,-16.509537450440526,-7.048923258005143,-16.743663696558926,-6.702213394319624,-16.960158047788912,-6.35268733492745,-17.158948517596514,-6.000842252263472,-17.339986679427025,-5.6471574410258185,-17.503248797024103,-5.292092626790593,-17.64873695474893,-4.936086274626562,-17.776480187899352,-4.579553897709843,-17.88653561302899,-4.222886365938595,-19.334607626442025,1.107983788185522,-19.008454756048906,1.4141290830236735,-18.6700850082123,1.7222208806982735,-18.31964706489648,2.0322782483715134,-17.957317724659024,2.3443126141260127,-17.583299855803705,2.658326626135143,-17.19782034953343,2.9743130118333494,-16.801128073103087,3.2922534370864756,-16.393491822972543,3.6121173653620886,-15.975198277959429,3.933860916899806,-15.546549952392134,4.257425727881608,-15.107863149262695,4.582737809602176,-14.659465913379673,4.909706407639204,-14.201695984521056,5.238222861023728,-13.734898750587217,5.568159461410455,-13.257359486816767,5.899991052787311,-12.767499886110016,6.234240342262345,-12.26587057780577,6.570781309775561,-11.7530155871913,6.909415000489719,-11.229470580327465,7.249870360266903,-10.695761135766393,7.59180521045456,-10.152401058444678,7.934807370499158,-9.599890751035225,8.278395936905664,-9.038715658040893,8.62202272706108,-8.469344797913127,8.965073896440167,-7.89222939847856,9.306871737711626,-7.307801650956816,9.646676670262835,-6.716473597852668,9.983689428661433,-6.118636170005508,10.317053458571916,-5.514658388079494,10.64585752864537,-4.904886743777261,10.969138566900662,-4.28964477606051,11.285884730115189,-3.6692328576604725,11.59503871474337,-3.0439282071614597,11.89550131788119,-2.4139851419405485,12.186135256794858,-1.779635587246613,12.465769255531841,-1.1410898567017371,12.733202407132485,-0.49853771950820835,12.987208819960337,0.14785023035584066,13.226542556669484,0.7979208876689663,13.449942874326975,1.4515366169440371,13.656139774208647,2.1085728855678054,13.843859869786419,2.768915533819313,14.011832581425354,3.432457666483975,14.15879666630865,4.099096150780262,14.283507092108739,4.768727705315824,14.384742262922686,5.441244564789935,14.461311605990145,6.116529705159147,14.512063527711943,6.794451613983023,14.535893747487656,7.474858590666795,14.531754017890195,8.157572561317892,14.498661239695743,8.842382392933125,14.435706980287119,9.529036691633468,14.342067403948903,10.2172360696633,14.217013622572328,10.906624865870945,14.059922475288344,11.596782304387443,13.87028774554687,12.287213076220379,13.64773182416056,12.97733732847966,13.392017826831163,13.666480045952135,13.103062174676799,14.353859809741895,12.780947646278221,15.03857691769316,12.42593690976236,15.719600851312638,12.038486543441257,16.39575707390815,11.619261553524677,17.06571314466054,11.169150397424495,17.727964133345566,10.689280521169138,18.22653204426278,10.372270344107479,18.711269635379246,10.037766744291492,19.180799250222925,9.686181580161742,19.633657117779894,9.31799081711539,20.06829097755094,8.93373660928663,20.48305770460819,8.534029381327208,20.876220934651762,8.119549910186931,21.245948689066335,7.691051406894136,21.590310999977813,7.249361598336206,21.90727753530994,6.795384809040059,22.19471522384091,6.330104042952637,22.450385880259976,5.854583065221414,22.671943830224127,5.36996848397488,22.856933535414626,4.877491832103044,23.002787218593724,4.378471649037933" fill="white" stroke="white" stroke-width="0" stroke-linejoin="round" filter="url(#fuzzy)"></polyline></g><g transform="translate(31.736042998729225 -21.84486639663894)"><polyline id="rightUpper" points="-26.148758536463856,5.279985848229771,-26.52620971474979,4.793842416791021,-26.82524392796651,4.3045689944590055,-27.04954559743976,3.812549576003709,-27.202697429538894,3.318178781587756,-27.288181768383076,2.8218612339672857,-27.309381948547397,2.324010935692832,-27.269583647769085,1.8250506463102125,-27.171976239653624,1.3254112595614074,-27.019654146380958,0.8255311805854388,-26.815618191411602,0.3258557031192546,-26.56277695219286,-0.17316361330139385,-26.26394811286493,-0.671069566141064,-25.921859816967117,-1.1673999326637405,-25.539152020143966,-1.6616880927319575,-25.118377842851427,-2.153463651605918,-24.662004923063012,-2.642253062742607,-24.172416768975978,-3.1275802505949155,-23.651914111717467,-3.608967233410752,-23.102716258050673,-4.085934746032166,-22.526962443081015,-4.558002862694465,-21.92671318296228,-5.02469161982533,-21.3039516276028,-5.485521638843942,-20.660584913371608,-5.94001474896009,-19.9984455158046,-6.387694609973295,-19.319292602310696,-6.828087335071931,-18.47499130599288,-7.340531258541548,-17.614311245190265,-7.84810910213087,-16.73961054832217,-8.349370446002167,-15.853159951873138,-8.842854886205798,-14.95714460764729,-9.327103012996643,-14.053665812592484,-9.800666699757562,-13.14474266404502,-10.262118717923304,-12.232313643245387,-10.710061693298373,-11.318238129975766,-11.143136419162168,-10.40429785116992,-11.56002954155498,-9.492198266346037,-11.959480632138128,-8.58356989271323,-12.340288664021815,-7.679969572802298,-12.701317905954008,-6.78288168747133,-13.041503250263917,-5.893719317136868,-13.359854989953355,-5.013825354081187,-13.655463060329543,-4.144473568686367,-13.92750076057275,-3.2868696324457645,-14.175227970632166,-2.4421521006035096,-14.397993878843506,-1.6113933572726786,-14.595239235661785,-0.7956005258827687,-14.766498148902583,0.004283652192938803,-14.911399435885423,0.7873799679794082,-15.029667547872526,1.5528719213607314,-15.121123082196481,2.300004920809199,-15.18568289747026,3.0280855035318854,-15.22335984727294,3.736480573184215,-15.23426214770465,4.424616652299774,-15.218592394204146,5.09197914658583,-15.176646243022473,5.738111618233852,-15.10881077274607,6.362615065394452,-15.015562541262897,6.965147204966117,-14.897465353564831,7.545421755847057,-14.755167755780013,8.103207719799585,-14.589400270828294,8.63832865707639,-14.400972391093498,9.150661953958036,-14.190769343505687,9.640138079351136,-13.959748642427073,10.106739827596463,-13.708936445734876,10.550501544636486,-13.439423729494644,10.971508334691602,-13.152362296617376,11.369895244594485,-12.848960634894022,11.745846422931898,-12.530479639800667,12.099594251143394,-12.198228217467905,12.431418443726173,-11.853558783207838,12.74164511469559,-11.497862670992095,13.03064580745054,-11.132565469274338,13.298836485193263,-10.759122298550707,13.546676479052774,-10.379013046051597,13.77466739106135,-9.99373757295822,13.98335194913356,-9.604810909537434,14.173179600011562,-9.210776725030007,14.344268278961199,-8.809638935832956,14.496701874730704,-8.402104786833602,14.630575642652474,-7.988871006202091,14.745996586423853,-7.5706217437704915,14.843083839887896,-7.148026509411858,14.921969048814226,-6.721738111419338,14.982796752679779,-6.2923905948852195,15.025724766449624,-5.860597180080054,15.050924562357793,-5.4269482008317205,15.058581651688009,-4.992009042904502,15.04889596655456,-4.556318082378187,15.022082241683055,-4.120384624027133,14.978370396191224,-3.6846868396993644,14.918005915369722,-3.2496697066956477,14.841250232462968,-2.815742946148582,14.748381110449849,-2.383278961401669,14.639693023824623,-1.952610776388417,14.515497540377641,-1.5240299740114,14.376123702976201,-1.0977846345213522,14.22191841134531,-0.6740772738962613,14.053246803848495,-0.25306278222043366,13.870492639268601,0.16515363793641136,13.674058678588594,0.5805185331400591" fill="none" stroke="black" stroke-width="1.6666666666666665" stroke-linejoin="round" filter="url(#fuzzy)"></polyline><polyline id="rightLower" points="-27.441482529407303,1.9853389718480827,-27.644193713114614,2.388487289873561,-27.767520679599624,2.804418965839772,-27.816946676988174,3.2310371946633043,-27.797730550548906,3.666338657453612,-27.71491097732246,4.1084117721512445,-27.57331070075076,4.555434944166063,-27.377540765306197,5.00567481701548,-27.132004751120924,5.457484522962672,-26.84090300861607,5.9093019336548185,-26.508236893131006,6.359647910761317,-26.137812999552537,6.807124556612017,-25.73324739694421,7.25041346483545,-25.29796986317551,7.688273970997038,-24.83522811955113,8.119541403237339,-24.34809206544019,8.543125332910263,-23.839458012905496,8.958007825221305,-23.31205292133277,9.363241689865765,-22.76843863205991,9.757948731666975,-22.211016103006205,10.141318001214533,-21.642029643301612,10.512604045502515,-21.063571147915965,10.871125158567713,-20.477584332288245,11.216261632127866,-19.885868966955805,11.547454006219867,-19.290085112183608,11.864201319838003,-18.69175735259349,12.166059361572188,-17.826719456097788,12.614465138581382,-16.97574668882828,13.037650925174471,-16.14069966170848,13.434471435327147,-15.323070207728335,13.803986474236908,-14.524011829722413,14.145448766433562,-13.744368850420937,14.458292148661167,-12.984704290629672,14.742120121959516,-12.24532650139461,14.996694757373346,-11.526314576007453,15.221925949717358,-10.827542567707885,15.41786101382523,-10.14870253893861,15.5846746177107,-9.489326468009143,15.722659047068928,-8.84880703902436,15.832214795546188,-8.226417340933725,15.913841475206091,-7.621329501557282,15.96812904162043,-7.032632282444291,15.995749328012815,-6.459347660420571,15.997447882883211,-5.900446421680508,15.974036105541495,-5.3548627942796845,15.926383673978231,-4.821508144884164,15.855411259500721,-4.299283765632399,15.762083522562516,-3.7870927769657063,15.647402384214498,-3.2838511722833683,15.51240056760569,-2.7884980302782907,15.358135403961874,-2.300004920809201,15.18568289747026,-1.8173845301654232,14.99613204349819,-1.3396985315801464,14.790579394574156,-0.8660647268482213,14.570123868559161,-0.3956634849044507,14.335861793436624,0.07225649678164636,14.088882183148929,0.5383730821385875,13.830262238908736,1.003286211897258,13.561063070413267,1.4675140186107711,13.282325631389595,1.9314895154339382,12.995066863899151,2.3955578328063165,12.700276045829542,2.859973977182877,12.39891133600183,3.324901085956281,12.091896511321405,3.790409152714833,11.78011789040059,4.256474196980038,11.464421438081084,4.722977852567874,11.145610045284435,5.189707348717725,10.824440978618602,5.656355858133022,10.501623494168799,6.122523186077615,10.17781660990076,6.587716774671845,9.853627031104482,7.051352996532387,9.529607223306686,7.5127587118998544,9.206253627080034,7.971173063398162,8.88400500917733,8.425749482569707,8.563240944418723,8.87555788233032,8.244280422760182,9.3195870094881,7.9273805759712594,9.759745128265827,7.611962582896876,10.198359728075758,7.2974396481473605,10.634980514979581,6.9839960441007065,11.069148652774011,6.671798243022843,11.500400225845855,6.360995663299669,11.928269702027158,6.051721415669075,12.3522933954503,5.744093049452968,12.772012929403115,5.438213298789296,13.186978699183978,5.134170828864079,13.596753334956972,4.832040982143425,14.000915164606933,4.531886524605566,14.39906167659462,4.233758391972873,14.790812982811786,3.937696435943885,15.175815281436314,3.6437301704253384,15.553744319787313,3.3518795177641882,15.924308857180257,3.0621555549796318,16.28725412778205,2.774561259995136,16.642365303466192,2.4890922578704666,16.98947095666785,2.205737567033709,17.328446523238988,1.9244803455132846,17.6592177653035,1.6452986371699967,17.98176423411224,1.3681661179290392,18.29612273289826,1.09305284201203,18.602390779731817,0.8199259881690313" fill="none" stroke="black" stroke-width="2.2222222222222223" stroke-linejoin="round" filter="url(#fuzzy)"></polyline><!--[--><circle r="4.9202984134050185" cx="-6.578151905985752" cy="-5.829264439502739" stroke="black" fill="none" stroke-width="1" filter="url(#fuzzy)" clip-path="url(#rightEyeClipPath)"></circle><circle r="3.1261751129557545" cx="-6.794137255075051" cy="-6.265664733294387" stroke="black" fill="none" stroke-width="1" filter="url(#fuzzy)" clip-path="url(#rightEyeClipPath)"></circle><circle r="4.162464460759751" cx="-7.292728132192245" cy="-6.340669664354876" stroke="black" fill="none" stroke-width="1" filter="url(#fuzzy)" clip-path="url(#rightEyeClipPath)"></circle><circle r="4.418992849476581" cx="-6.420407620450845" cy="-6.638925068501761" stroke="black" fill="none" stroke-width="1" filter="url(#fuzzy)" clip-path="url(#rightEyeClipPath)"></circle><circle r="3.382518350619258" cx="-6.537204236419361" cy="-8.593478552373417" stroke="black" fill="none" stroke-width="1" filter="url(#fuzzy)" clip-path="url(#rightEyeClipPath)"></circle><circle r="3.5533432313734443" cx="-5.398631842086358" cy="-6.596367018471715" stroke="black" fill="none" stroke-width="1" filter="url(#fuzzy)" clip-path="url(#rightEyeClipPath)"></circle><circle r="4.061685509762624" cx="-3.7565472444635732" cy="-4.571996260280382" stroke="black" fill="none" stroke-width="1" filter="url(#fuzzy)" clip-path="url(#rightEyeClipPath)"></circle><circle r="3.4153166017662873" cx="-5.888927600656304" cy="-7.016594457174966" stroke="black" fill="none" stroke-width="1" filter="url(#fuzzy)" clip-path="url(#rightEyeClipPath)"></circle><circle r="4.805699895167415" cx="-7.413123567602596" cy="-8.231540209154376" stroke="black" fill="none" stroke-width="1" filter="url(#fuzzy)" clip-path="url(#rightEyeClipPath)"></circle><circle r="4.172464354332591" cx="-5.701751159901695" cy="-7.910914968320476" stroke="black" fill="none" stroke-width="1" filter="url(#fuzzy)" clip-path="url(#rightEyeClipPath)"></circle><!--]--></g><g transform="translate(-37.589942540550524 -20.598343825607166)"><polyline id="leftUpper" points="20.809891718210263,7.777583292026705,21.30624697379237,7.070911710614821,21.72990150054761,6.379023431820189,22.08414186211554,5.701491143484405,22.372157762021946,5.037917338433947,22.59704348133736,4.387933502342667,22.76179931633555,3.7511993015943075,22.86933301615201,3.1274017711450064,22.922461220442464,2.5162545023858147,22.923910897041363,1.9174968310051956,22.8763207796204,1.3308930248515352,22.78224280534698,0.7562314717956499,22.644143552542737,0.19332386759329512,22.46440567834203,-0.3579955962523168,22.245329356350442,-0.8978710446280207,21.989133714303286,-1.4264257309481885,21.69795827172408,-1.943762849292213,21.37386437758306,-2.4499663465420114,21.0188366479557,-2.9451017345195,20.634784403681163,-3.4292169021241024,20.223543108020856,-3.902342927470233,19.786875804316864,-4.364494890024784,19.32647455365051,-4.815672682744632,18.843961872500834,-5.255861824214113,18.340892170403055,-5.685034270782523,17.81875318760713,-6.103149228701611,17.16568559983451,-6.570433424572764,16.494419483567988,-7.02957120485969,15.806663158107622,-7.479707228582473,15.104047139788047,-7.919959505185776,14.388129358010726,-8.349428955212156,13.660400052035708,-8.767208400594132,12.922286356972819,-9.172390997193855,12.175156587411802,-9.564078122219536,11.420324227131275,-9.941386729147535,10.659051633326154,-10.303456182779165,9.892553463793238,-10.64945458706124,9.121999835514732,-10.978584618299337,8.34851922307939,-11.290088876392794,7.573201105380973,-11.583254766720497,6.7970983690337965,-11.857418925306378,6.021229476945023,-12.111971199893746,5.2465804104834515,-12.346358199557338,4.474106393684527,-12.560086425482215,3.70473340793124,-12.752724995538447,2.939359505550696,-12.923907975280612,2.178855930766011,-13.073336328001101,1.424068056443287,-13.200779496466307,0.6758161450733842,-13.306076628964606,-0.06510405757182136,-13.389137462295222,-0.7979208876689663,-13.449942874326975,-1.52188647901876,-13.488545118755864,-2.2362766207279394,-13.50506775469057,-2.9403907484578236,-13.499705283694839,-3.6335520607998033,-13.472722506915801,-4.315107752338021,-13.424453614927158,-4.9844293549595395,-13.355301022916354,-5.640913178972279,-13.265733963844642,-6.283980845591011,-13.156286852209137,-6.91307990235167,-13.027557431035785,-7.527684513014312,-12.880204714732363,-8.127296213514946,-12.714946740430369,-8.711444725526583,-12.532558140445005,-9.279688819189737,-12.333867548482095,-9.831617216572674,-12.119754852221034,-10.36684952742172,-11.891148304902751,-10.885037208761887,-11.64902150855171,-11.385864539908077,-11.394390281460957,-11.869049604447227,-11.128309422569215,-12.33434527075157,-10.851869385359036,-12.78154016258339,-10.56619287390505,-13.21045961135152,-10.272431373701249,-13.620966581579857,-9.971761629896422,-14.012962561148147,-9.665382085566664,-14.386388407865432,-9.354509292653985,-14.741225143936326,-9.040374308200091,-15.078454103546107,-8.721790278592861,-15.398914549163525,-8.397126303776385,-15.702416871081063,-8.066951303514246,-15.988788237655655,-7.731826468145181,-16.257873725627757,-7.392303567197778,-16.509537450440526,-7.048923258005143,-16.743663696558926,-6.702213394319624,-16.960158047788912,-6.35268733492745,-17.158948517596514,-6.000842252263472,-17.339986679427025,-5.6471574410258185,-17.503248797024103,-5.292092626790593,-17.64873695474893,-4.936086274626562,-17.776480187899352,-4.579553897709843,-17.88653561302899,-4.222886365938595,-17.978989558266413,-3.8664482145477033,-18.053958693634264,-3.5105759527234763,-18.11159116136839,-3.155576372218318,-18.152067706237002,-2.801724855965436,-18.175602805859768,-2.4492636866935165,-18.18244580102701,-2.0984003555414095,-18.17288202601882,-1.749305870672836,-18.147233938924153,-1.4021130658910552,-18.105862251960055,-1.0569149092535717,-18.04916706179072,-0.7137628116868087" fill="none" stroke="black" stroke-width="2.2222222222222223" stroke-linejoin="round" filter="url(#fuzzy)"></polyline><polyline id="leftLower" points="21.658926383679518,-0.615168320107637,22.072051315399623,-0.14386240616803053,22.41366682463933,0.3393287224182332,22.68759369971277,0.8321019628717492,22.897516740581235,1.3322620367600813,23.046987133796552,1.8377194082172659,23.139424827444483,2.346488202163318,23.17812090608808,2.8566841225237347,23.16623996571106,3.366522370448995,23.1068224886612,3.874315562534072,23.002787218593724,4.378471649037933,22.856933535414626,4.877491832103044,22.671943830224127,5.36996848397488,22.450385880259976,5.854583065221414,22.19471522384091,6.330104042952637,21.90727753530994,6.795384809040059,21.590310999977813,7.249361598336206,21.245948689066335,7.691051406894136,20.876220934651762,8.119549910186931,20.48305770460819,8.534029381327208,20.06829097755094,8.93373660928663,19.633657117779894,9.31799081711539,19.180799250222925,9.686181580161742,18.711269635379246,10.037766744291492,18.22653204426278,10.372270344107479,17.727964133345566,10.689280521169138,17.06571314466054,11.169150397424495,16.39575707390815,11.619261553524677,15.719600851312638,12.038486543441257,15.03857691769316,12.42593690976236,14.353859809741895,12.780947646278221,13.666480045952135,13.103062174676799,12.97733732847966,13.392017826831163,12.287213076220379,13.64773182416056,11.596782304387443,13.87028774554687,10.906624865870945,14.059922475288344,10.2172360696633,14.217013622572328,9.529036691633468,14.342067403948903,8.842382392933125,14.435706980287119,8.157572561317892,14.498661239695743,7.474858590666795,14.531754017890195,6.794451613983023,14.535893747487656,6.116529705159147,14.512063527711943,5.441244564789935,14.461311605990145,4.768727705315824,14.384742262922686,4.099096150780262,14.283507092108739,3.432457666483975,14.15879666630865,2.768915533819313,14.011832581425354,2.1085728855678054,13.843859869786419,1.4515366169440371,13.656139774208647,0.7979208876689663,13.449942874326975,0.14785023035584066,13.226542556669484,-0.49853771950820835,12.987208819960337,-1.1410898567017371,12.733202407132485,-1.779635587246613,12.465769255531841,-2.4139851419405485,12.186135256794858,-3.0439282071614597,11.89550131788119,-3.6692328576604725,11.59503871474337,-4.28964477606051,11.285884730115189,-4.904886743777261,10.969138566900662,-5.514658388079494,10.64585752864537,-6.118636170005508,10.317053458571916,-6.716473597852668,9.983689428661433,-7.307801650956816,9.646676670262835,-7.89222939847856,9.306871737711626,-8.469344797913127,8.965073896440167,-9.038715658040893,8.62202272706108,-9.599890751035225,8.278395936905664,-10.152401058444678,7.934807370499158,-10.695761135766393,7.59180521045456,-11.229470580327465,7.249870360266903,-11.7530155871913,6.909415000489719,-12.26587057780577,6.570781309775561,-12.767499886110016,6.234240342262345,-13.257359486816767,5.899991052787311,-13.734898750587217,5.568159461410455,-14.201695984521056,5.238222861023728,-14.659465913379673,4.909706407639204,-15.107863149262695,4.582737809602176,-15.546549952392134,4.257425727881608,-15.975198277959429,3.933860916899806,-16.393491822972543,3.6121173653620886,-16.801128073103087,3.2922534370864756,-17.19782034953343,2.9743130118333494,-17.583299855803705,2.658326626135143,-17.957317724659024,2.3443126141260127,-18.31964706489648,2.0322782483715134,-18.6700850082123,1.7222208806982735,-19.008454756048906,1.4141290830236735,-19.334607626442025,1.107983788185522,-19.648425100867797,0.8037594307717298,-19.949820871089848,0.5014250879499884,-20.238742886006396,0.20094562029744606,-20.51517539849735,-0.09771718736961826,-20.779141012271392,-0.39460348516611365,-21.030702728713102,-0.689754217308472,-21.269965993730025,-0.9832099812849586,-21.49708074459976,-1.2750098870260018,-21.712243456817102,-1.5651904160745174,-21.915699190941087,-1.8537842807562326" fill="none" stroke="black" stroke-width="2.2222222222222223" stroke-linejoin="round" filter="url(#fuzzy)"></polyline><!--[--><circle r="3.5948786373224078" cx="0.7149505696255312" cy="-0.8936703674511131" stroke="black" fill="none" stroke-width="1" filter="url(#fuzzy)" clip-path="url(#leftEyeClipPath)"></circle><circle r="4.968458474771186" cx="0.8810397709019568" cy="2.6003828947555627" stroke="black" fill="none" stroke-width="1" filter="url(#fuzzy)" clip-path="url(#leftEyeClipPath)"></circle><circle r="4.904782002312477" cx="4.668648663382234" cy="-0.8320883645439745" stroke="black" fill="none" stroke-width="1" filter="url(#fuzzy)" clip-path="url(#leftEyeClipPath)"></circle><circle r="3.8900349563817036" cx="0.013438701362309402" cy="0.7522335764086883" stroke="black" fill="none" stroke-width="1" filter="url(#fuzzy)" clip-path="url(#leftEyeClipPath)"></circle><circle r="3.0758471833632632" cx="0.4253829062274992" cy="0.1345628786848332" stroke="black" fill="none" stroke-width="1" filter="url(#fuzzy)" clip-path="url(#leftEyeClipPath)"></circle><circle r="3.811369639252769" cx="4.6245149715812275" cy="0.7058211530775078" stroke="black" fill="none" stroke-width="1" filter="url(#fuzzy)" clip-path="url(#leftEyeClipPath)"></circle><circle r="4.497148057646014" cx="1.8817793599250665" cy="0.9900209769993609" stroke="black" fill="none" stroke-width="1" filter="url(#fuzzy)" clip-path="url(#leftEyeClipPath)"></circle><circle r="4.943628669899423" cx="2.9503062014958186" cy="0.4669470680478107" stroke="black" fill="none" stroke-width="1" filter="url(#fuzzy)" clip-path="url(#leftEyeClipPath)"></circle><circle r="4.994071932951668" cx="1.3611724892011328" cy="0.9381190747296442" stroke="black" fill="none" stroke-width="1" filter="url(#fuzzy)" clip-path="url(#leftEyeClipPath)"></circle><circle r="3.189287441517899" cx="0.48788566735865224" cy="2.7866844725728406" stroke="black" fill="none" stroke-width="1" filter="url(#fuzzy)" clip-path="url(#leftEyeClipPath)"></circle><!--]--></g><g id="hairs"><!--[--><polyline points="32,-74,4.418264262701551,-76.51612014137434,-7.143553015419192,-75.82472947452293,-6.091895931994119,-76.15099923713237,-2.788111422869797,-76.8327864692309,-3.1435809013188263,-76.92453592458303,-6.8858097225564165,-76.37057352132199,-10.578262469076941,-75.68303541117459,-10.988493713616233,-75.21325439705429,-6.8689075876003844,-74.89677938563482,0.7522913069267194,-74.63463495860697,9.231425446452215,-74.5945339388992,16.179439268134917,-74.48456813392691,22.827669740783556,-71.69649539272697,36.14079855734813,-59.67429436633511,62,-28" fill="none" stroke="url(#rainbowGradient)" stroke-width="2" stroke-linejoin="round" filter="url(#fuzzy)"></polyline><polyline points="7,-83,6.2593438339493,-76.07718663303206,22.54843699712504,-66.07832738745606,32.613353311431,-57.955399611819686,32.43607629211562,-54.84367664527538,26.283203703000993,-56.40107071619804,19.565836963265745,-60.432166643715085,15.22902308166085,-64.4973214882562,13.523660858636703,-66.83043561480972,13.447416273233097,-66.66514884587245,14.12043133270118,-64.17768219755852,15.264258902354465,-60.23550567525413,16.895324110984802,-56.04700529575348,18.8523775851379,-52.732565946716385,20.688618504024188,-50.8933391735126,21.972042992216217,-50.38350455126949,22.615689892805168,-50.50155870269798,22.835245437051206,-50.59491455904035,22.635427654700514,-50.73326707218454,21.13604672489291,-51.901772403745284,16.565368282396427,-55.304585201152825,8.129199002091832,-60.980506390589625,-0.6627386983753869,-67.04379396261285,-4.629804188527649,-71.52990509070361,-25,-74" fill="none" stroke="url(#rainbowGradient)" stroke-width="2" stroke-linejoin="round" filter="url(#fuzzy)"></polyline><polyline points="7,-83,17.401944314345755,-73.97569644763107,26.67474616344396,-66.84114702837786,30.687463839796127,-64.5463946304385,30.632868924877055,-64.62400665753214,27.08643495339853,-66.25206668181235,22.25556215778967,-68.50322740758942,19.216765833531618,-69.99868108498373,19.523617233881577,-69.84896867391187,22.065808887701458,-68.25241745374495,24.083491014424293,-66.16792720949317,23.34503298914611,-64.47748912976446,19.80481048249833,-63.34681141323044,15.53352167633251,-62.21636669164387,12.96471997931184,-60.40315920403011,12.938286418789998,-57.97721416224055,14.531673193190905,-56.40210871013777,16.92912123033251,-58.1731113533948,21.496093940069887,-63.962370580846866,45,-62" fill="none" stroke="url(#rainbowGradient)" stroke-width="2" stroke-linejoin="round" filter="url(#fuzzy)"></polyline><polyline points="-46,-54,-21.14146422484278,-69.59907070314972,-13.112793715098073,-69.49573786920348,-4.047569227342082,-65.66844023698471,5.437724036890072,-63.358726059081754,12.144276451494079,-63.39618494748629,14.93758152415201,-65.00833188688762,14.634600602981372,-67.19274489167184,13.147632460851549,-69.04772274100013,12.574810144029316,-69.87916944705641,14.144493103027344,-69.437575340271,17.43191575760138,-68.13481392263394,20.561984310427484,-66.90209277000034,21.548152955274972,-66.59145004000902,19.90482149381104,-67.32027318616706,17.15894548999495,-68.43830342429192,15.4867592591051,-69.39438297775874,15.198472999575198,-70.7466502066312,13.66068634376671,-73.7349831017533,10.544348739223455,-77.59791053627858,25,-78" fill="none" stroke="url(#rainbowGradient)" stroke-width="2" stroke-linejoin="round" filter="url(#fuzzy)"></polyline><polyline points="59,-37,39.68965325670427,-60.91291301568277,27.33173777823439,-69.40039842416908,18.945564818858518,-71.31646016503277,14.822899192530299,-70.90884229509439,14.710248557790898,-70.44811449560966,17.103630233944727,-70.5992662926457,20.172783347040344,-70.9452530161203,22.873505418595208,-70.66043923379905,24.9223878525901,-69.12860069417268,25.94730062232774,-66.36687903845583,25.01483289975365,-63.11554618756672,21.164968138608053,-60.53222207439053,14.474057922511237,-59.64964163642765,6.695440100177539,-60.931591939759734,0.9406233790858657,-64.12754637239095,0.3579414288656808,-68.22002613137877,5.99432138915662,-71.134828659547,16.97220522594443,-69.41242614603446,49,-57" fill="none" stroke="url(#rainbowGradient)" stroke-width="2" stroke-linejoin="round" filter="url(#fuzzy)"></polyline><polyline points="-51,-48,-19.2544733793145,-67.44759037038946,-4.283579802837179,-71.18982797524568,5.952809242841998,-69.40898719165406,10.876797704682808,-65.92378284118294,11.57120587143191,-62.65975633050277,10.185124542093323,-60.626794111836546,8.459138119562855,-60.0241196495126,7.310268594824885,-60.39808560242633,6.980334549086606,-61.05196814795022,7.385925462097913,-61.48543693213047,8.460144261613813,-61.60671702174462,10.27085691690445,-61.66280263662338,12.83486166200937,-62.01377820919738,15.80372640386234,-62.90582698555413,18.31731362868964,-64.32597349555697,19.194670834131045,-65.95756374002758,17.42498239703043,-67.23466292156115,12.816576735410028,-67.48728719674766,6.573502160341636,-66.16553175115318,1.2257658858323697,-63.1440872433254,-1.244184846338782,-59.12648701155658,-3.975456045646383,-56.10790804312022,-18.50318485203553,-56.98161784971527,-44,-57" fill="none" stroke="url(#rainbowGradient)" stroke-width="2" stroke-linejoin="round" filter="url(#fuzzy)"></polyline><polyline points="59,-36,48.66140264163963,-52.13475579493635,35.23767531356976,-62.89406540105952,23.510320675757605,-68.75597342095982,18.54238877557111,-69.51788396639401,19.78892906016416,-67.30073668421832,23.071724292383802,-64.71979776173544,24.144036345346795,-63.30881307250924,20.87918523118319,-63.313180300570224,13.648656631720293,-64.20369739344419,4.495949749552108,-65.24311968423024,-4.114203127688249,-65.88277757959185,-10.33031564950943,-65.9729033112526,-13.368633788903882,-65.76786413263983,-13.376278212692425,-65.72454133932264,-10.987075792857185,-66.18854212374502,-6.934851760820573,-67.14283533839853,-1.9204254965760592,-68.17551820750944,3.321368899154887,-68.72277648107695,7.909092893744106,-68.5094143062906,10.743451830608608,-67.93938965325167,10.464401266702204,-67.96241700396594,4.937534588357931,-68.81766158130439,-11.39007419549616,-67.36084717244846,-48,-52" fill="none" stroke="url(#rainbowGradient)" stroke-width="2" stroke-linejoin="round" filter="url(#fuzzy)"></polyline><polyline points="-32,-70,-27.11456515968274,-71.498390819824,-28.658267264207005,-68.8244346772236,-26.701673110913124,-66.66043151596978,-21.412199690384824,-64.65762118611566,-14.800205609298166,-63.148362007942595,-8.144863309300494,-62.61846207300233,-1.6175368637944756,-62.925581307415804,4.897294042195118,-63.41251036456259,11.056690171883151,-63.38935310898555,16.141727809578224,-62.550718031047815,19.693599482645475,-61.160398055450365,21.952338529429998,-59.92157916873307,23.636969842884582,-59.568157012070884,25.237607433879194,-60.415473279705,26.427258685253936,-62.190141392277724,26.111820743107476,-64.25901114306173,23.070744417552294,-66.02413982995573,16.579610474638823,-67.07966943881361,6.538585999055657,-66.97700676485188,-6.18242916730166,-65.01202825139254,-16.93984335778771,-60.92449053139685,-10.488452523797566,-57.274465974374095,45,-62" fill="none" stroke="url(#rainbowGradient)" stroke-width="2" stroke-linejoin="round" filter="url(#fuzzy)"></polyline><polyline points="-49,-50,-8.318394503465823,-61.263429017345324,14.409082575009018,-63.26669397811864,20.06829306709894,-66.2188820523055,18.46316491069065,-68.92747414411221,16.036436478725868,-70.81749188494123,15.076218773417517,-71.9624276584029,15.647131772093259,-72.21904784752296,17.011453895684333,-71.2890295642321,18.073015005836588,-69.16378223438983,17.554338429041252,-66.37206346108681,14.519409656524658,-63.828317642211914,9.184377929326773,-62.35750424331359,3.400954563080625,-62.16006304495274,0.19913954334653855,-62.57846256403231,2.361346595622325,-62.42710989225264,10.72981021038572,-60.80563877063304,23.26280483960115,-57.89706217818202,35.567754942748095,-55.08836728521609,43.00676647687973,-54.098468945690826,43.791303599426406,-55.405234730783725,42.56024897423285,-55.591265850064836,59,-37" fill="none" stroke="url(#rainbowGradient)" stroke-width="2" stroke-linejoin="round" filter="url(#fuzzy)"></polyline><polyline points="-13,-80,18.09795876099119,-70.06534658905949,15.692569334019144,-71.09376064881651,6.964287757165512,-72.72105054914583,0.6805753577216561,-71.95129886187472,-1.4850506709312854,-68.97217800323101,0.39320009486197555,-65.34006593953322,4.749002793836001,-62.773022903644204,8.812931479627512,-62.3228850177734,10.167237842055526,-63.96495907381656,8.100157114133266,-66.71299072009681,3.6165151596069336,-69.19538068771362,-1.5760975705295583,-70.37622197420627,-6.089833057561114,-70.02482746620913,-9.308187140748993,-68.69002577019046,-11.393806391852651,-67.21125805282688,-13.06905571654896,-66.0797250268277,-14.97043023394008,-65.15132354598954,-16.54542311003261,-64.12271244327691,-15.884007454461559,-63.56692112306778,-12.746154178082392,-65.33375471142963,-11.963281850002726,-71.16740311010906,-5,-83" fill="none" stroke="url(#rainbowGradient)" stroke-width="2" stroke-linejoin="round" filter="url(#fuzzy)"></polyline><polyline points="34,-73,17.61381514033702,-72.82165645247714,0.46400586594526355,-72.44485409840158,-7.06748699449387,-71.90670276538822,-5.676281182594733,-71.26733020260257,0.5544250060065273,-70.6116474044336,6.4113828005811975,-70.04339350263956,8.377848801421873,-69.72800477747035,6.0132713598715855,-69.7751289686472,1.1746594543064246,-70.15188346035471,-3.817281606246344,-70.70476942416208,-7.601226182284696,-71.24133466179596,-10.056781470775604,-71.6135083436966,-11.663925679004588,-71.7630247136611,-12.679295398915377,-71.70035887999062,-12.781200238432495,-71.42320665567844,-11.362021348492632,-70.84253321226907,-8.18840367138927,-69.81372724440814,-3.999609701278171,-68.30142227037356,-0.7021275727493544,-66.55867115969586,-0.776838325032321,-65.0970106373972,-5.328504928256681,-64.27636045434296,-10.83389507038332,-63.635791380746554,-5.965847634472546,-62.43586015995585,39,-69" fill="none" stroke="url(#rainbowGradient)" stroke-width="2" stroke-linejoin="round" filter="url(#fuzzy)"></polyline><polyline points="62,-28,44.74998511052351,-55.25398954696882,33.024307021335666,-64.72023961298974,19.73857746396825,-69.39940991406048,8.752865740780598,-72.98521801490797,3.3446075337365517,-75.68423497552229,3.231393343306252,-76.87840010007322,6.080417716422866,-76.153216487538,9.650112641910495,-73.57495644140026,12.941510972570267,-69.74967831527621,16.094417009327387,-65.80165417092579,19.429534668519484,-63.14828840173166,22.425722499219116,-62.97961735745906,23.512875471381935,-65.61491275106056,21.07535275442461,-70.15916008207576,15.008378354703854,-74.83945809765301,7.278459060208181,-77.97929440499752,0.45527263932627626,-79.06160241187733,-3.5830105666829093,-79.37979999471786,6,-83" fill="none" stroke="url(#rainbowGradient)" stroke-width="2" stroke-linejoin="round" filter="url(#fuzzy)"></polyline><polyline points="25,-78,25.68248407169832,-64.9063923966481,8.018151774287366,-65.98364661885917,-1.0591331599974405,-67.79404871489952,-1.459434083544245,-68.57040281808099,0.08429959159955315,-68.93661245417513,0.002623739822078601,-69.53280174673101,-1.023754723065187,-70.5926628492018,-0.8898112445076224,-72.07934097958673,1.0910122005299208,-73.71199970407221,3.28262542924001,-74.85507404849722,3.2344782460764288,-74.68663150176089,0.7568633431654385,-73.00741646444133,0.525096333165473,-71.5232068231225,10.562356432553003,-73.95932119986456,25,-79" fill="none" stroke="url(#rainbowGradient)" stroke-width="2" stroke-linejoin="round" filter="url(#fuzzy)"></polyline><polyline points="0,-83,25.22912790041738,-72.34480237771498,31.57820792305241,-70.59613664222469,32.003319516750096,-70.80143239378192,29.318142554021776,-71.57811276745508,24.13723079477957,-72.68687820580625,17.767459770962112,-74.02960542946032,12.350821219025736,-75.28227290272383,9.275792352619684,-75.94135749823798,7.99361738502511,-75.62501295093315,6.675244450953094,-74.3866389143851,4.168713168297553,-72.84044974165187,1.2986679533529684,-71.94511692544332,-0.06328258475381898,-72.39645293724114,0.27083984361665814,-73.9186394869344,-1.4039687080147267,-75.15258613405962,-11.974009361355012,-74.3146181633098,-33,-68" fill="none" stroke="url(#rainbowGradient)" stroke-width="2" stroke-linejoin="round" filter="url(#fuzzy)"></polyline><polyline points="-40,-61,19.529403432698206,-50.02734473626649,29.885058341445855,-53.333974118761375,21.709462530391406,-61.31782366382431,13.1146457649751,-68.15152664035094,10.10386393583849,-71.81635083800302,11.082015814366152,-72.26514160410804,11.84753588607899,-70.39794420649831,9.121999449621779,-67.52560632935842,2.193349459333662,-64.93037604164074,-7.162962913513184,-63.47205448150635,-15.928542779684435,-63.40878764905598,-21.39870687725854,-64.54571241454433,-22.276957643758024,-66.56475639580542,-18.98414175107918,-69.20984556195118,-13.255285044614538,-72.15346924657297,-7.136596531296867,-74.78439152294764,-1.6817831240729515,-76.37472130154846,2.880313909719856,-76.56206338646689,1.265467129592345,-75.08287772393311,-30,-71" fill="none" stroke="url(#rainbowGradient)" stroke-width="2" stroke-linejoin="round" filter="url(#fuzzy)"></polyline><polyline points="14,-82,30.200938365615464,-62.83963417580137,17.17536321190346,-55.757313695225015,0.6985968456029942,-55.49484901064237,-7.0079950043768795,-57.38854867687134,-8.193156543812888,-59.104486322376445,-8.453249889940649,-60.41480396768593,-9.812177030658965,-61.69974199378464,-10.335097695499483,-63.026654642792614,-7.2276458740234375,-64.2275276184082,0.08770347818852949,-65.29963939573862,8.92687247445742,-66.48018125622681,14.618098471296905,-67.90221900215505,13.098489167067935,-69.18258633711528,3.334233522065457,-69.40861635545193,-11.410534208682536,-67.79970144833611,-23.26513007949325,-64.9620086223493,-19.362609338141667,-64.83530536466881,22,-80" fill="none" stroke="url(#rainbowGradient)" stroke-width="2" stroke-linejoin="round" filter="url(#fuzzy)"></polyline><polyline points="32,-74,29.209473653537795,-75.01959789763978,24.456714978604257,-73.91468953616439,17.00928457430314,-71.31765325469678,8.418618868460712,-68.75245375796155,2.511141173651425,-67.45904721936316,2.375545791668107,-67.40357839856237,8.071946401272971,-67.60772747273752,17.095057790532845,-67.0742078468864,26.167118102563226,-65.52642978923578,32.68443982134616,-63.54513822201699,35.31534856657828,-62.13723759355029,34.010603127964266,-62.100786381367506,29.67149863329689,-63.611398862280595,23.50317043687307,-66.22813371821093,16.239683503215353,-69.1658151491139,7.9095073553424555,-71.51105119509266,-1.076206130622695,-72.2834378259192,-7.638346292642095,-70.64238764992821,-4.323304802004313,-66.2697207279022,18.608467953134394,-57.72976237351006,61,-31" fill="none" stroke="url(#rainbowGradient)" stroke-width="2" stroke-linejoin="round" filter="url(#fuzzy)"></polyline><polyline points="53,-49,41.9550515619035,-57.3799013064613,39.120212944038904,-55.37142474932809,31.479160904102326,-57.61698770246442,22.86073991008265,-61.547952049582385,16.29288487163307,-64.55170217698978,12.408435252135517,-66.38890442957342,11.407304504763589,-67.63335302761105,13.309059888688731,-68.61710784892459,17.227872991449495,-69.38537000108121,21.358452434405674,-69.90945468644007,23.917650543780255,-70.09300735541018,24.196442715617085,-69.67602587377765,22.930403127734483,-68.33822028060949,21.795996300355522,-66.07241546707837,22.281043845990215,-63.53578344274308,24.40649254381186,-61.955618199258836,26.18468550311474,-62.44685117548322,25.176260756063062,-65.13509419750217,22.576811119396737,-68.83649043486601,25.35580852506313,-71.94842273754422,30,-76" fill="none" stroke="url(#rainbowGradient)" stroke-width="2" stroke-linejoin="round" filter="url(#fuzzy)"></polyline><polyline points="55,-46,50.43421549719581,-46.60437362436645,38.7236192364439,-57.182163598714396,27.438023225859023,-65.18538283338223,20.83105304581113,-69.3593952653464,20.884608289509547,-70.12786324494935,26.06514172623493,-68.3654356759805,32.925479253908435,-65.27184991187339,38.08576965332031,-62.30369567871094,39.0989886221855,-60.95988735530529,34.56304427471623,-62.2047211887259,24.29010361668052,-65.76318771409412,9.808382791699842,-70.059691950446,-5.136251489435594,-73.37118045688487,-14.83402808487521,-75.5311423032058,-13.72907683154884,-78.22931108749444,0,-83" fill="none" stroke="url(#rainbowGradient)" stroke-width="2" stroke-linejoin="round" filter="url(#fuzzy)"></polyline><polyline points="-43,-59,-25.655824833782955,-67.26741390559691,-7.304901518690873,-73.72229354058157,2.1238703741850586,-76.28787018296596,3.956642949294598,-76.70283058357649,2.2906364469091534,-76.56129758890796,0.9057880854618429,-76.38867864574925,1.9719080112501155,-75.92877925002112,5.7040821415033145,-74.68139803468534,10.763362884521484,-72.3907585144043,15.242068484059585,-69.34542027461355,17.771409618184656,-66.32222640615798,18.160858314852838,-64.09269624095695,17.223103564166127,-62.74466104145762,15.908155179409839,-61.53846854743284,14.580767590961825,-60.05003298947526,13.982607308908225,-60.112707339313104,16.50924097351781,-66.02534932007255,7,-83" fill="none" stroke="url(#rainbowGradient)" stroke-width="2" stroke-linejoin="round" filter="url(#fuzzy)"></polyline><polyline points="32,-74,35.55604966686152,-60.76608991042209,28.180243853862418,-61.75022852618214,21.18164155759814,-65.74881708728105,15.410258405609056,-70.58094255719334,12.054709800445671,-74.35779667710936,11.189337257265503,-76.16372812545569,11.39860722518539,-76.50395580205962,11.219284057617188,-76.54498291015625,10.400341016606912,-77.04215559036943,9.581515115980562,-77.76799989613892,8.740142434225936,-77.71777701904394,6.176462986273691,-75.84536828193814,-0.016565657731401062,-71.83677237564551,-6.9938617280409865,-66.43855643828603,0.4171950922561578,-60.5069331216437,53,-50" fill="none" stroke="url(#rainbowGradient)" stroke-width="2" stroke-linejoin="round" filter="url(#fuzzy)"></polyline><polyline points="-49,-50,-2.084452285821112,-64.24288471873729,0.19323260888392413,-68.38215438876342,-5.983342541324628,-68.65250720158403,-5.36687741453119,-67.65665902068429,2.044423408547118,-65.48282943432787,10.34205811517548,-62.40750317561934,14.821434435567747,-59.48760054742993,14.955122579644174,-57.76261134203753,13.387172054874442,-57.63189989728119,12.940302848815918,-58.91679763793945,14.355063142950382,-61.20517334902465,16.37865600091824,-64.01357045716462,17.620646142762205,-66.7206956515757,18.037128085364337,-68.54225464587694,18.36739663775643,-68.79630283912047,18.177036240358817,-67.48307111176572,15.491545571851919,-65.93918507354753,10.452561733864632,-66.95319386373072,8.777637042460954,-73.18792899827895,3,-83" fill="none" stroke="url(#rainbowGradient)" stroke-width="2" stroke-linejoin="round" filter="url(#fuzzy)"></polyline><polyline points="10,-83,27.96018405059923,-59.7998747286795,22.294590742960537,-60.47051947435924,13.635130557027429,-64.95260541991648,6.761450560615144,-70.00047054495771,3.610783780337928,-74.39256196063512,4.403064426533645,-77.06104555744241,8.11422933598333,-77.4656942620748,12.932405072002522,-75.76680395973408,16.784274822866998,-72.70609555515506,18.046862900227868,-69.37301314430375,16.128123385973957,-66.87920978375153,11.614783028808901,-65.86547346206008,6.330477987842004,-65.83649407440281,3.9742497477145147,-64.7245604662175,10.878117577024721,-59.74869476175694,33.20991552514678,-50.34576833367532,58,-40" fill="none" stroke="url(#rainbowGradient)" stroke-width="2" stroke-linejoin="round" filter="url(#fuzzy)"></polyline><polyline points="-43,-59,-31.930752186596248,-63.958952379877076,-17.511816505161008,-70.9545875132184,-8.205753017494013,-73.79646480248718,-1.0317430713795546,-73.86530353639154,4.494500061151962,-73.21308242071086,6.3858884809781005,-72.80442942190398,3.920850804236373,-72.51965442652634,-0.7967667397576008,-71.71153117050584,-4.025081634521484,-69.87909317016602,-2.658400875214069,-67.1630662275178,3.9199450557457443,-64.43587189630493,13.170255332056014,-62.89334622929559,20.288688276321054,-63.30446923686664,20.755256526217444,-65.41386739898103,13.928493817721112,-68.17767414712549,6.08480057921605,-71.05698426351674,9.875973965333639,-74.7940246551656,30,-76" fill="none" stroke="url(#rainbowGradient)" stroke-width="2" stroke-linejoin="round" filter="url(#fuzzy)"></polyline><polyline points="10,-83,23.61921578962504,-72.26643165532388,16.784873671989953,-67.06871661718202,8.207727064466981,-65.38409539915926,3.3994354802234055,-66.54199992998925,2.6092075230318303,-68.5368851742891,5.247371560509103,-69.1848439311128,10.2026393676628,-67.51136006713469,15.680641701511805,-64.25385280705946,19.732670003224797,-61.296421742238444,21.092383941337754,-60.466327908968495,19.542040219107317,-62.457530640935936,15.505672227915284,-66.48072048187599,9.448423501099521,-70.6876476179564,2.0442571500916205,-72.93569309132678,-4.60886125231361,-71.41986560329643,-5.667988519736262,-65.07232729882375,6.0361155917789535,-54.145767548299794,34.25223848498125,-42.07117393126278,57,-41" fill="none" stroke="url(#rainbowGradient)" stroke-width="2" stroke-linejoin="round" filter="url(#fuzzy)"></polyline><polyline points="51,-54,11.038065900685934,-62.34850540580047,3.509126959582051,-61.57835364134902,2.79868752042394,-60.25819818721287,1.3773216037903078,-61.40543608171464,-3.3783720251305565,-64.0686640452824,-9.804997340004354,-66.3876549853184,-14.56081109133244,-67.12289505453597,-15.291837172033823,-66.03756270028249,-11.502557966696449,-63.850100996505596,-3.9125740378692315,-61.89736416857395,6.60185179346455,-61.47061268243897,19.117262698020873,-63.04219598520319,30.949215887629215,-65.90143239125346,36.46229010450628,-69.01066098494447,32,-74" fill="none" stroke="url(#rainbowGradient)" stroke-width="2" stroke-linejoin="round" filter="url(#fuzzy)"></polyline><polyline points="-47,-54,-24.366446640174235,-66.65008357822414,-26.812299017149417,-66.13313203790293,-28.07344257302339,-63.29407330281626,-22.957283778041926,-60.84474588840233,-14.415562526802205,-60.15898299597393,-7.4365688492291335,-61.43488731829617,-4.592839218958549,-63.65301648926366,-4.551458448155503,-65.48880524364272,-3.706904760186183,-66.18871290882825,0.8977670669555664,-65.72249221801758,9.526386035389656,-64.43265811529446,19.658783677805598,-62.727435253681506,27.49365483188898,-61.03665382924991,29.83028000803354,-59.84344084279431,25.249546505133367,-59.58214618005513,14.362482265336672,-60.456400509601856,-0.42048982441066807,-62.27590128936802,-15.475559423004103,-64.17366908500972,-27.03215463188395,-65.25754999806256,-24,-74" fill="none" stroke="url(#rainbowGradient)" stroke-width="2" stroke-linejoin="round" filter="url(#fuzzy)"></polyline><polyline points="57,-42,19.679498263889165,-67.23374132393424,0.6322422316452194,-73.48171897214533,-3.0919222241927073,-72.32304986500296,3.1739217681583174,-69.19478676455937,11.062294309265221,-66.64955853685579,14.717654260120348,-65.61864250668903,13.492424797257202,-65.96325291610563,10.171738174801506,-66.98262059277431,7.503796709942284,-67.92432537246295,6.1249553804441605,-68.38491162218826,4.838974338731471,-68.41133032649877,2.2239253453193983,-68.09538494721986,-1.738335978887776,-66.78656292969136,-4.609480217608759,-62.838602574973,-2.3300344867925564,-55.6043930207017,2.4440183296529874,-51.1203534318882,-32,-70" fill="none" stroke="url(#rainbowGradient)" stroke-width="2" stroke-linejoin="round" filter="url(#fuzzy)"></polyline><polyline points="25,-78,31.964196335785296,-73.18836105894319,35.09421856090451,-70.21943685046529,32.02396017355324,-69.99133227941253,24.627128382446244,-70.34886223869398,16.722785822119203,-69.79143763874,11.420464655492726,-68.13545454551934,9.399738791392569,-66.07764551660001,9.537918090820312,-64.52737426757812,10.509210447412872,-64.085107165689,11.344568926307677,-64.89262176328033,11.079138125914211,-66.70562981852622,9.457961951615289,-68.64339927630499,9.282407361783687,-68.56049522560345,16.905681811187907,-63.727275689054416,34.66300423582388,-56.305283323940145,40,-68" fill="none" stroke="url(#rainbowGradient)" stroke-width="2" stroke-linejoin="round" filter="url(#fuzzy)"></polyline><polyline points="-29,-72,-10.198231912147769,-71.43732248186954,4.326513924484577,-62.75699965966156,17.19316692297706,-58.08373846662242,21.974997897097367,-58.01747234086887,19.14880789775716,-59.44414502102944,12.99190137963734,-60.250254463126275,7.966539372599821,-60.084842735687566,7.054930807876016,-59.388985659170345,11.113108736947481,-58.47615387476555,18.885695207589297,-57.29714535436704,27.728023228676662,-55.72679157625354,34.74820974485295,-53.954489592211054,37.83027294773693,-52.65202786492913,36.21922933618938,-52.78341902868536,30.636049853474145,-55.09221581720648,22.79271119828324,-59.47726254982177,14.01679027866408,-64.67252082561345,3.518319637804008,-68.68096860092038,-11.08665291145694,-69.86076151171473,-28.37798372024558,-67.43245073548539,-41,-60" fill="none" stroke="url(#rainbowGradient)" stroke-width="2" stroke-linejoin="round" filter="url(#fuzzy)"></polyline><polyline points="11,-83,-17.269557123153472,-65.45063243684672,-11.214703638680676,-57.713799957874635,1.4860483123989499,-55.836413173325795,9.854305882654906,-57.742267847252236,11.993070397454295,-61.65209050410242,9.84723359746484,-66.23188650804164,6.896836806322911,-70.34325956144681,6.165851942207918,-72.90351632453549,8.737468658829831,-73.09376264037802,13.39161111455557,-70.8050196626754,17.344041493703156,-66.97287109409629,17.80234775699211,-63.39252573195568,13.944708247071965,-61.88990273528737,8.349587055191199,-63.26560057919479,6.230142639792424,-66.76706937961212,11.553613922895979,-70.51837460712436,22.2941703498455,-72.61804079957967,30.263483160322536,-72.88807627024735,25,-78" fill="none" stroke="url(#rainbowGradient)" stroke-width="2" stroke-linejoin="round" filter="url(#fuzzy)"></polyline><polyline points="42,-65,16.96833512902018,-73.12337560934259,15.467510885146407,-76.06008162593282,12.846340581184378,-76.60924638856935,6.050344190735449,-74.88317667584799,-0.7726742332615686,-71.7099914832088,-3.323775839310556,-68.55345006761692,-0.7101974982361271,-66.55721653721797,4.557581836396428,-66.1057865260319,8.861790849662485,-66.99119804645171,9.856008529663086,-68.75635719299316,7.485204320526129,-70.89602890781076,3.58701054901318,-72.88375506128308,0.7993264453516972,-74.18498851548937,1.4401260460546048,-74.4086552344644,6.621352579399172,-73.52741023978342,15.697391978063758,-71.8153317733829,26.417868661327248,-69.22901124390197,36.22715171512306,-64.94698497173346,43.13952591053613,-59.93235858642725,39,-68" fill="none" stroke="url(#rainbowGradient)" stroke-width="2" stroke-linejoin="round" filter="url(#fuzzy)"></polyline><polyline points="55,-45,-4.6103200423668,-47.13851872301791,-4.786632662504381,-48.0844122927529,12.348270436165578,-50.956351193953736,25.60847801202908,-54.50896980171092,30.764829767092998,-56.95680793583864,31.263318193687645,-57.72332987928739,31.358803242470298,-57.39863153732094,32.394683837890625,-57.19404602050781,32.46197010805125,-58.314293672915085,28.75241659386806,-61.32542374272435,20.50271940794341,-65.72545565699804,9.974733086768538,-69.95330047910102,0.10084254895867906,-71.88885196905814,-9.546265705660481,-70.02873615512868,-21.248569428748667,-66.77960761914498,-17,-78" fill="none" stroke="url(#rainbowGradient)" stroke-width="2" stroke-linejoin="round" filter="url(#fuzzy)"></polyline><polyline points="-37,-65,4.947826596719839,-53.31286333904356,14.2017861139683,-53.575659879799225,21.0532949527757,-58.011026685034544,26.02380747166485,-63.04521942134984,28.78676083133024,-66.2240422911655,29.635878712279037,-66.87552035130574,27.888230341971347,-65.7745771525979,22.484623256854345,-64.09782221405287,14.012048319119359,-62.585100445417474,5.76732952551717,-61.44550083152676,1.7965939196833363,-60.910298211064756,2.637618522193922,-61.410358550626306,4.605366237848764,-61.745506441648544,11.848366741394809,-54.99344498279137,62,-28" fill="none" stroke="url(#rainbowGradient)" stroke-width="2" stroke-linejoin="round" filter="url(#fuzzy)"></polyline><polyline points="42,-65,26.43375850477881,-71.83141995574675,12.912028272616217,-75.57195024827392,11.016982351350967,-75.69681656810391,16.959079185319368,-73.5703584206315,24.525428744065103,-70.8139274450271,29.614734905351153,-68.49876181158136,30.712736012353602,-67.0554215283028,28.059080259149383,-66.49765990668155,22.861981164082838,-66.59875813112049,16.713227006727195,-66.99728336177775,11.031487703323364,-67.32620167732239,6.633516443380722,-67.34198356758911,3.7355982926554776,-66.96677313794223,2.404332252195241,-66.26879050512157,2.913580933406339,-65.5102630714839,5.315724866071047,-65.25977278175212,8.300241613996544,-66.26371451024579,8.614615453631712,-68.72262238937175,2.5174354304449627,-71.26972606406419,-10.900532862180652,-71.20136151305996,-25.915192699280656,-68.2968420963589,-24,-74" fill="none" stroke="url(#rainbowGradient)" stroke-width="2" stroke-linejoin="round" filter="url(#fuzzy)"></polyline><polyline points="55,-45,52.95435088719641,-48.74077319975225,49.255747853515494,-53.683268598671134,45.208958666367124,-58.323630101743554,41.48618344486716,-62.213304378742485,38.25875916687255,-65.1049215134808,35.578408158449406,-66.80723364586436,33.28050355671872,-67.3906285132119,30.699788578416413,-67.44208691234931,26.99214531242645,-67.79345313396448,21.93009376525879,-68.86354446411133,16.317804026715525,-70.26552432554918,11.531466837225029,-71.07129768818734,8.628422722293024,-70.51083715602525,7.8761650497775175,-68.54865902167624,8.920450067265847,-65.92793389506915,10.97927486909204,-63.670459250352216,13.072883869601151,-62.35187362343033,16.433761793710474,-61.456074295832934,29.41233384538174,-58.19548348989634,56,-43" fill="none" stroke="url(#rainbowGradient)" stroke-width="2" stroke-linejoin="round" filter="url(#fuzzy)"></polyline><polyline points="7,-83,18.55446958917254,-75.95856995075329,17.630629719831354,-69.12975524412211,14.831724744912204,-64.75076194663427,13.43719569444197,-62.703269320320594,12.717645291012559,-62.14338706812032,12.320026731176108,-62.33262216333572,12.270611019646628,-62.80173469689641,11.872215292485768,-63.335946669213264,9.826006344159252,-63.9938808091126,5.422331809997559,-65.02787685394287,-0.6365493344356697,-66.6408451904369,-6.701675681668983,-68.7245015574461,-11.496826481271135,-70.77669521681919,-15.025105177457572,-72.09309723764784,-18.115523982830382,-72.20159670479097,-20.818781448862232,-71.34723326937102,-21.045087427896743,-70.50076466245085,-14.916214075065536,-70.02493651038064,2.8397320774985175,-66.938941799964,50,-55" fill="none" stroke="url(#rainbowGradient)" stroke-width="2" stroke-linejoin="round" filter="url(#fuzzy)"></polyline><!--]--></g><g id="pointNose"><g id="rightNose"><!--[--><circle r="1.22604336919426" cx="12.381851170697605" cy="11.278036719079532" stroke="black" fill="none" stroke-width="1" filter="url(#fuzzy)"></circle><circle r="1.240431663178422" cx="9.714202402050049" cy="12.205123993367035" stroke="black" fill="none" stroke-width="1" filter="url(#fuzzy)"></circle><circle r="1.6553213532439428" cx="12.093177171599717" cy="11.788703604003139" stroke="black" fill="none" stroke-width="1" filter="url(#fuzzy)"></circle><circle r="2.9631810355574744" cx="10.431342465692694" cy="14.395958987606662" stroke="black" fill="none" stroke-width="1" filter="url(#fuzzy)"></circle><circle r="2.032718533587974" cx="10.05437685985499" cy="10.740230744209942" stroke="black" fill="none" stroke-width="1" filter="url(#fuzzy)"></circle><circle r="1.3239149188473667" cx="10.054681304936405" cy="12.134690786377748" stroke="black" fill="none" stroke-width="1" filter="url(#fuzzy)"></circle><circle r="2.5512423783969895" cx="9.206907872569081" cy="14.126147341626226" stroke="black" fill="none" stroke-width="1" filter="url(#fuzzy)"></circle><circle r="1.6580948964316542" cx="9.78495438052506" cy="11.276189908303989" stroke="black" fill="none" stroke-width="1" filter="url(#fuzzy)"></circle><circle r="2.8095203602058385" cx="12.162963763906527" cy="12.25949988381512" stroke="black" fill="none" stroke-width="1" filter="url(#fuzzy)"></circle><circle r="2.2433933447919014" cx="12.037567226461762" cy="11.72442614899805" stroke="black" fill="none" stroke-width="1" filter="url(#fuzzy)"></circle><!--]--></g><g id="leftNose"><!--[--><circle r="1.4319382057742267" cx="-8.710905144742586" cy="15.550824063516238" stroke="black" fill="none" stroke-width="1" filter="url(#fuzzy)"></circle><circle r="1.7492624044855922" cx="-7.0336682466345" cy="15.706219854502606" stroke="black" fill="none" stroke-width="1" filter="url(#fuzzy)"></circle><circle r="2.9327599417872845" cx="-9.945869222541921" cy="16.31262429159868" stroke="black" fill="none" stroke-width="1" filter="url(#fuzzy)"></circle><circle r="2.62638975264229" cx="-9.668792972653755" cy="16.074510573535534" stroke="black" fill="none" stroke-width="1" filter="url(#fuzzy)"></circle><circle r="1.3747090954225443" cx="-7.81747162330529" cy="17.869252285708896" stroke="black" fill="none" stroke-width="1" filter="url(#fuzzy)"></circle><circle r="2.8480335634665677" cx="-8.898749469268065" cy="17.161500340492637" stroke="black" fill="none" stroke-width="1" filter="url(#fuzzy)"></circle><circle r="2.534004297504695" cx="-9.283139229209937" cy="15.929186620665973" stroke="black" fill="none" stroke-width="1" filter="url(#fuzzy)"></circle><circle r="1.5859650395580098" cx="-8.34875077850386" cy="18.095458641900578" stroke="black" fill="none" stroke-width="1" filter="url(#fuzzy)"></circle><circle r="2.6794548586137275" cx="-8.30132059530001" cy="18.077252849693085" stroke="black" fill="none" stroke-width="1" filter="url(#fuzzy)"></circle><circle r="1.259133684438364" cx="-9.100411282716097" cy="18.55708526767235" stroke="black" fill="none" stroke-width="1" filter="url(#fuzzy)"></circle><!--]--></g></g><g id="mouth"><polyline points="-25.87772273990722,32.226592324512524,-25.619712431443922,33.50245871552088,-25.354180289882574,34.755313872267756,-25.081178899241102,35.98511558746907,-24.800760843537418,37.191821653840734,-24.512978706789447,38.37538986409867,-24.21788507301512,39.53577801095878,-23.915532526232344,40.672943887136995,-23.60597365045906,41.786845285349244,-23.289261029713174,42.877439998311424,-22.96544724801261,43.94468581873944,-22.634584889375287,44.98854053934922,-22.296726537819133,46.008961952856694,-21.951924777362066,47.005907851977774,-21.600232192022006,47.97933602942836,-21.241701365816883,48.929204277924384,-20.876384882764615,49.855470390181765,-20.50433532688312,50.758092158916426,-20.125605282190318,51.637027376844244,-19.740247332704136,52.49223383668118,-19.348314062442498,53.32366933114314,-18.949858055423316,54.13129165294601,-18.544931895664526,54.91505859480574,-18.133588167184037,55.67492794943825,-17.715879453999772,56.410857509559435,-17.29185834012966,57.12280506788524,-16.861577409591614,57.81072841713153,-16.425089246403566,58.47458535001427,-15.982446434583423,59.11433365924937,-15.533701558149124,59.72993113755272,-15.078907201118573,60.32133557764025,-14.618115947509704,60.88850477222789,-14.151380381340434,61.43139651403154,-13.678753086628689,61.94996859576714,-13.200286647392383,62.44417881015056,-12.716033647649446,62.91398494989777,-12.226046671417793,63.35934480772466,-11.73037830271535,63.78021617634716,-11.229081125560038,64.17655684848116,-10.722207723969774,64.54832461684259,-10.209810681962486,64.89547727414738,-9.691942583556095,65.21797261311143,-9.168656012768517,65.51576842645068,-8.640003553617682,65.788822506881,-8.106037790121501,66.03709264711836,-7.566811306297909,66.26053663987865,-7.022376686164816,66.4591122778778,-6.472786513740149,66.63277735383168,-5.91809337304183,66.78148966045627,-5.3583498480877765,66.90520699046745,-4.793608522895914,67.00388713658114,-4.2239219814841675,67.07748789151329,-3.6493428078704513,67.12596704797976,-3.0699235860726892,67.1492823986965,-2.4857169001088053,67.14739173637943,-1.89677533399672,67.12025285374445,-1.3031514717543526,67.06782354350752,-0.7048978973996309,66.99006159838449,-0.1020671949504699,66.88692481109132,0.5052880515752047,66.7583709743439,1.1171152581594734,66.60435788085819,1.7333618407844122,66.42484332335006,2.3539752154321016,66.21978509453544,2.9789027980846194,65.98914098713026,3.6080920047240443,65.73286879385043,4.241490251332452,65.45092630741186,4.879044953891926,65.14327132053047,5.52070352838454,64.8098616259222,6.166413390792373,64.45065501630293,6.816121957097504,64.06560928438859,7.469776643282013,63.6546822228951,8.127324865327974,63.21783162453838,8.788714039217469,62.755015282034336,9.453891580932579,62.26619098809889,10.122804906455375,61.751316535447955,10.795401431767942,61.21034971679745,11.471628572852353,60.64324832486331,12.151433745690689,60.049970152361425,12.83476436626503,59.430472992007715,13.521567850557453,58.78471463651812,14.211791614550032,58.11265287860853,14.90538307422485,57.41424551099486,15.602289645563987,56.68945032639304,16.30245874454952,55.938225117519,17.005837787163525,55.16052767708864,17.712374189388076,54.356315797817864,18.422015367205262,53.525547272422614,19.134708736597155,52.668179893618785,19.850401713545835,51.78417145412231,20.569041714033375,50.873479746649096,21.290576154041865,49.93606256391507,22.014952449553373,48.971877698636135,22.742118016549984,47.980882943528215,23.47202027101377,46.963036091307224,24.204606628926815,45.91829493468908,24.93982450627119,44.8466172663897,25.677621319028983,43.74796087912501,26.417944483182264,42.62228356561091,27.16074141471312,41.46954311856332,27.905959529603617,40.28969733069817,27.905959529603617,40.28969733069817,27.36812270690851,40.588428074491674,26.8302858842134,40.879001008156344,26.29244906151829,41.16142883468719,25.75461223882318,41.435724257079244,25.216775416128073,41.701899978327546,24.678938593432964,41.9599687014271,24.141101770737855,42.209943129372945,23.60326494804275,42.451835965160114,23.06542812534764,42.68565991178363,22.52759130265253,42.9114276722385,21.989754479957426,43.12915194951978,21.451917657262317,43.338845446622486,20.91408083456721,43.54052086654164,20.3762440118721,43.73419091227227,19.83840718917699,43.919868286809404,19.30057036648188,44.09756569314807,18.762733543786773,44.267295834283296,18.224896721091667,44.42907141321011,17.687059898396562,44.582905132923536,17.14922307570145,44.7288096964186,16.611386253006344,44.86679780669033,16.073549430311232,44.99688216673374,15.535712607616125,45.11907547954389,14.997875784921018,45.23339044811577,14.460038962225907,45.33983977544443,13.922202139530798,45.4384361645249,13.384365316835689,45.52919231835219,12.846528494140582,45.612120939921326,12.308691671445473,45.687234732227346,11.770854848750366,45.754546398265276,11.233018026055257,45.81406864103014,10.695181203360148,45.865814163516966,10.15734438066504,45.909795668720776,9.619507557969932,45.946025859636606,9.081670735274825,45.974517439259486,8.543833912579716,45.99528311058442,8.005997089884607,46.00833557660644,7.4681602671895,46.01368754032061,6.930323444494391,46.01135170472192,6.39248662179928,46.00134077280539,5.854649799104177,45.98366744756608,5.316812976409068,45.95834443199899,4.778976153713957,45.92538442909917,4.24113933101885,45.884800141861604,3.7033025083237394,45.83660427328138,3.165465685628634,45.78080952635347,2.627628862933525,45.717428604072936,2.089792040238418,45.64647420943479,1.5519552175433073,45.567959045434066,1.0141183948481984,45.48189581506578,0.4762815721530895,45.388297221324976,-0.06155525054201938,45.28717596720665,-0.5993920732371265,45.17854475570587,-1.1372288959322372,45.062416289817634,-1.6750657186273443,44.93880327253697,-2.2129025413224515,44.80771840685891,-2.7507393640175586,44.6691743957785,-3.2885761867126657,44.52318394229073,-3.8264130094077764,44.36975974939065,-4.364249832102885,44.208914520073286,-4.902086654797992,44.04066095733366,-5.439923477493103,43.86501176416681,-5.9777603001882085,43.68197964356773,-6.515597122883321,43.49157729853149,-7.053433945578428,43.29381743205309,-7.591270768273537,43.088712747127566,-8.129107590968646,42.87627594674994,-8.666944413663751,42.656519733915246,-9.20478123635886,42.4294568116185,-9.742618059053969,42.19509988285474,-10.280454881749074,41.95346165061899,-10.818291704444187,41.70455481790627,-11.35612852713929,41.44839208771161,-11.893965349834403,41.18498616303004,-12.431802172529512,40.91434974685659,-12.969638995224617,40.636495542186275,-13.50747581791973,40.351436252014125,-14.045312640614835,40.05918457933518,-14.583149463309944,39.75975322714446,-15.120986286005056,39.45315489843698,-15.658823108700165,39.139402296207784,-16.196659931395267,38.81850812345189,-16.734496754090376,38.49048508316432,-17.272333576785485,38.155345878340114,-17.810170399480597,37.813103211974294,-18.348007222175706,37.463769787061885,-18.88584404487081,37.1073583065979,-19.42368086756592,36.743881473577396,-19.961517690261026,36.37335199099537,-20.49935451295614,35.99578256184687,-21.037191335651247,35.61118588912691,-21.575028158346353,35.21957467583052,-22.11286498104146,34.82096162495273,-22.650701803736567,34.415359439488576,-23.188538626431676,34.00278082243306,-23.72637544912678,33.583238476781226,-24.264212271821894,33.156745105528096,-24.802049094517002,32.723313411668705,-25.33988591721211,32.28295609819807" fill="rgb(215,127,140)" stroke="black" stroke-width="3" stroke-linejoin="round" filter="url(#fuzzy)"></polyline></g></svg>