<svg viewBox="-100 -100 200 200" xmlns="http://www.w3.org/2000/svg" width="400" height="400" id="face-svg"><defs><clipPath id="leftEyeClipPath"><polyline points="26.465873428450468,-2.604038660409437,26.284145005189103,-2.759218691167801,26.079478239639645,-2.9149118352185934,25.85087708106948,-3.0702292285197577,25.59748117892454,-3.2243387864768587,25.318561776037978,-3.3764638227617705,25.01351760183888,-3.5258816681313614,24.681870765560937,-3.671922289246186,24.323262649451166,-3.813966907489174,23.93744980197859,-3.9514466177843146,23.52429983104295,-4.083841007415346,23.08378729718338,-4.210676774844446,22.61598960678712,-4.331526348530923,22.1210829052982,-4.446006505749899,21.599337970426145,-4.553776991410999,21.051116105354673,-4.654539136877041,20.617687063394445,-4.841799196255355,20.131052653139314,-5.014425441102093,19.59180433329394,-5.171853447920453,19.000955188220715,-5.313663083532948,18.359899623325443,-5.439567977516498,17.67037471351682,-5.549405380011423,16.934423174266012,-5.643126398053395,16.154357924792574,-5.720786603577597,15.332728212903032,-5.782537006244171,14.472287271008355,-5.828615384234141,13.575961472846586,-5.859337966164924,12.646820960436962,-5.8750914572746495,11.688051710791726,-5.87632540302433,10.702929011911962,-5.863544883267153,9.694792317593674,-5.8373035301339495,8.66702145057041,-5.79819686278403,7.623014123518723,-5.746855932170547,6.566164747452702,-5.6839412689695035,5.499844497033848,-5.610137127821584,4.427382602322631,-5.526146021035958,3.3520488364978824,-5.432683534905168,2.277037169070432,-5.330473421780308,1.2054505541171499,-5.220242961055602,0.14028682306174067,-5.102718582211548,-0.9155743484714938,-4.978621743065782,-1.9593834302045932,-4.84866505638079,-2.9885320136273616,-4.713548657977649,-4.000562805766964,-4.573956809504919,-4.993178670779439,-4.4305547290118685,-5.964250749836844,-4.283985642475136,-6.911825689783792,-4.134868049428022,-7.834132011037055,-3.98379319584155,-8.729585645202015,-3.8313227474064253,-9.596794672879618,-3.6779866563650687,-10.434563292137707,-3.5242812150428637,-11.24189504812023,-3.3706672892277623,-12.017995354268272,-3.2175687245474074,-12.762273335626507,-3.065370918992929,-13.474343024708865,-2.9144195547385383,-14.154023940397067,-2.765019482406093,-14.801341080345857,-2.617433750923787,-15.416524357368559,-2.471882776128082,-16.00000751027674,-2.328543641258085,-16.552426519647707,-2.187549522491459,-17.074617558993584,-2.048989232671068,-17.567614511805548,-1.9129068763714845,-18.03264608494725,-1.7793016094545024,-18.471132548870813,-1.6481274962628274,-18.884682135129346,-1.5192934576010733,-19.275087121659695,-1.3926633026532278,-19.64217108389405,-1.2681635104055817,-19.984840855289264,-1.1458272084930037,-20.303676521763055,-1.0256363159484974,-20.599291408245957,-0.9075627023700196,-20.872327997378495,-0.7915691054450215,-21.12345384820842,-0.6776100484749917,-21.353357514887996,-0.565632757900004,-21.562744465371196,-0.4555780808232533,-21.752333000110916,-0.3473814025356078,-21.92285017075627,-0.24097356404014716,-22.075027698849766,-0.1362817795767078,-22.209597894524578,-0.033230554146426144,-22.32728957520175,0.06825739896371774,-22.428823984287465,0.16826024065635634,-20.90726643137122,1.9856151442798107,-20.553779984056657,2.0894058733198357,-20.191331391735574,2.193814687694843,-19.819743246632417,2.2987216831127153,-19.43884437091611,2.403997873725189,-19.04847060123384,2.509505719737016,-18.64846557324489,2.615099655015148,-18.238681506154425,2.7206266146978977,-17.81897998724728,2.8259265628041157,-17.38923275642177,2.930833019842368,-16.949322490723485,3.035173590420094,-16.499143588879104,3.1387704908527945,-16.03860295583017,3.2414410767731905,-15.567620787266915,3.3429983707404016,-15.086131354162035,3.44325158984912,-14.593400656134346,3.5426969480428796,-14.088463173845735,3.6416996968008704,-13.570963222146268,3.7398697485977106,-13.040607358559377,3.836817669789174,-12.497164948081561,3.932156042136694,-11.940468626972034,4.025500827181421,-11.370414659674466,4.116472729528313,-10.786963183012855,4.204698555100807,-10.190138331803794,4.289812560426585,-9.580028240027264,4.371457789014919,-8.95678491169798,4.449287390886186,-8.320623955579673,4.522965921313974,-7.671824177884154,4.592170614840391,-7.010727027097615,4.656592630625028,-6.337735885076071,4.715938265188127,-5.653315198552226,4.769930128608474,-4.957989445195859,4.818308280236513,-4.252341928369903,4.860831319983205,-3.537013394724352,4.897277431245188,-2.8127004687701236,4.92744537152668,-2.0801538985750767,4.951155406818744,-1.340176606724262,4.968250185796313,-0.5936215406866374,4.978595549893624,0.1586106832696914,4.982081275318455,0.9155743484714937,4.978621743065782,1.6762814244015822,4.9681565329913155,2.439704577284965,4.950650938005454,3.204780410557856,4.926096394448161,3.970412941077361,4.89451082470533,4.7354773169297255,4.855938888127076,5.4988237826949735,4.81045213630853,6.259281898025818,4.758149068793669,7.015665015398634,4.699155085262618,7.766775022894451,4.633622330263032,8.511407357867686,4.561729426546039,9.2483562973606,4.483681093067238,9.976420531121235,4.399707643713317,10.69440902308271,4.310064362814774,11.40114716716176,4.21503075350528,12.095483243234352,4.114909654988187,12.776295179146178,4.010026224770707,13.442497624615989,3.900726781926288,14.093049342889497,3.787377507445679,14.726960926001805,3.6703629977372425,15.343302839506137,3.5500846673369852,15.941213802526772,3.4269589968888696,16.51990950899402,3.301415622455894,17.07869169591905,3.173895262222474,17.616957564566537,3.0448474766486378,18.134209560382814,2.9147282581365546,18.63522312437269,2.8081043205469363,19.1241000052939,2.7002292364685476,19.60045099411224,2.5912987353430883,20.063899315373153,2.481513314270919,20.514081468905673,2.3710781796595524,20.95064807152638,2.2602031888721323,21.37326469874336,2.149102791875929,21.781612726460164,2.037995972890819,22.17539017267975,1.9271061920377748,22.55431253920846,1.8166613269873524,22.918113653359956,1.7068936146081746,23.266546509659186,1.5980395926154207,23.59938411154634,1.4903400412193126,23.916420313080796,1.3840399247736008,24.217470660645084,1.2793883334240523"></polyline></clipPath><clipPath id="rightEyeClipPath"><polyline points="-25.8371450105537,-2.444843503678028,-25.66291501587161,-2.5596665405327776,-25.466751718971633,-2.674918961906024,-25.247633540162514,-2.7899299609182675,-25.004672001633562,-2.9040715768120853,-24.73710773616047,-3.0167576523453965,-24.44430649581123,-3.127442791184727,-24.125755160652023,-3.2356213152984745,-23.78105774745308,-3.3408262223501772,-23.409931418394592,-3.442628143091774,-23.012202489772594,-3.5406342987568733,-22.587802440704824,-3.634487458454016,-22.136763921836657,-3.723864896559948,-21.65921676404693,-3.8084773501128755,-21.15538398715388,-3.888067976205736,-20.625577808621,-3.9624113093794664,-20.210498212532915,-4.101764274217427,-19.743353222473917,-4.230114704805894,-19.224637108604448,-4.347038161450419,-18.65525839990863,-4.452218489484762,-18.036501243128143,-4.54543983270738,-17.3699883123947,-4.626578944211889,-16.65764524145431,-4.69559778924411,-15.901666550376222,-4.752536434718301,-15.10448303863952,-4.7975062200251655,-14.26873061649049,-4.830683203764236,-13.397220546463577,-4.852301881033217,-12.492911066959106,-4.862649165906906,-11.558880369770613,-4.8620586337382745,-10.598300903454922,-4.850905017914302,-9.614414974437791,-4.829598955699175,-8.610511617748301,-4.798581977797421,-7.5899047092748635,-4.75832173626961,-6.555912291435908,-4.709307465433194,-5.511837084158165,-4.652045670381072,-4.460948153055664,-4.587056037750517,-3.406463706702308,-4.514867563375016,-2.3515349948911037,-4.436014891451655,-1.2992312797730392,-4.351034859856615,-0.2525258517685518,-4.2604632462414,0.7857169378553627,-4.164831709542388,1.8127536558494297,-4.064664921536283,2.825972805394765,-3.960477883074093,3.8229049121709453,-3.852773419626204,4.801231706186483,-3.7420398507711665,5.758794427478668,-3.6287488282607834,6.693601283789889,-3.5133533372940837,7.603834088327275,-3.3962858556328035,8.48785410571286,-3.2779566651909446,9.344207134231059,-3.1587523107310345,10.171627852480686,-3.039034200299647,10.969043458538303,-2.919137342034821,11.735576629740075,-2.799369211977946,12.470547831189034,-2.6800087475227192,13.173477001094792,-2.5613054611337738,13.844084641052731,-2.4434786689675665,14.482292339369604,-2.3267168290281277,15.088222755542644,-2.2111769834902706,15.662199093999083,-2.0969842998228536,16.20474409520322,-1.9842317053446867,16.71657857223788,-1.872979609845693,17.1986195209674,-1.7632557109059017,17.651977831889088,-1.6550548765448914,18.0779556317802,-1.5483390998342579,18.478043283247295,-1.4430375201057228,18.853916070285308,-1.3390465053874603,19.20541536373604,-1.2362902795308517,19.531491407529717,-1.1347689152052802,19.832648262094892,-1.0344623540815752,20.109425522227095,-0.9353435143998052,20.362394552757845,-0.8373790098179834,20.592154724223644,-0.7405298682607655,20.799329648535004,-0.6447522507681545,20.984563414645486,-0.5499981703441988,21.148516824220653,-0.4562162108056994,21.291863627307148,-0.36335224563090757,21.415286758001653,-0.2713501568082277,21.519474570119943,-0.1801525536849204,21.60511707286587,-0.08970149181580223,21.672902166500396,0.000060808188050376355,20.16927554816911,1.4132684344826818,19.8068453303487,1.5016444116060113,19.435445209202562,1.5908563228716017,19.055027701234703,1.6808063632525825,18.665558425406694,1.7713884467679495,18.26701597035254,1.862488616532399,17.85939176159355,1.9539854548061688,17.442689928753214,2.0457504930448813,17.016927172772082,2.137648621949383,16.582132633122605,2.229538501515587,16.138347755024032,2.3212729710843103,15.685626156657298,2.412699459391119,15.224033496379844,2.5036603946161637,14.753647339940525,2.593993614434022,14.274557027694486,2.6835327760635455,13.785666593547107,2.772690275600173,13.285799413000273,2.86177465665617,12.77496125318558,2.95045804761992,12.25319572919865,3.038409724704252,11.720583792843078,3.1252973241842312,11.177243162967333,3.210788063371755,10.623327698385944,3.2945499672652074,10.059026714376474,3.376253097812498,9.484564243743758,3.4555707827257542,8.900198243442823,3.532180840785988,8.306219747752001,3.605766800576011,7.702951968987691,3.6760191095798946,7.090749346752182,3.742636330587281,6.469996546706066,3.805326322340834,5.841107409856661,3.863807401365114,5.204523853353917,3.917809481915193,4.5607147237852725,3.9670751909832855,3.9101746039609173,4.011360955301684,3.2534225741809415,4.050438057280338,2.591000928975781,4.084093656817298,1.9234738503115056,4.112131775920397,1.251426038251331,4.134374243078402,0.5754613000648622,4.150661594319968,-0.10379890122347502,4.160853927898661,-0.7857169378553628,4.164831709542388,-1.4696405469374159,4.162496525205462,-2.154904397626429,4.153771778261668,-2.840831694909599,4.13860332807657,-3.5267358189882514,4.116960066897386,-4.211921999273598,4.088834431998705,-4.895689022003107,4.054242850022355,-5.577330970485949,4.01322611044972,-6.256138996986138,3.9658496651447663,-6.931403125251846,3.912203850906126,-7.60241408269945,3.8524040319664827,-8.268465161260867,3.786590659377592,-8.928854105902664,3.714929244219203,-9.582885029825546,3.637610241570192,-10.2298703553527,3.5548488421801965,-10.869132779515594,3.4668846687800476,-11.500007263345683,3.37398137396929,-12.121843043880672,3.276426136619091,-12.734005667893744,3.174529053728823,-13.335879046354433,3.068622424674632,-13.926867528629552,2.9590599247882565,-14.506397995432774,2.8462156652044355,-15.073921969531437,2.730483135915147,-15.628917743219011,2.6122740289690167,-16.170892521561882,2.492016938754171,-16.699384580428898,2.370155936302827,-17.18123654163969,2.2743723045368602,-17.654160168979818,2.1773370003043766,-18.11775997996042,2.0792543602914515,-18.57163400145155,1.980336101180556,-19.01537381511849,1.8808013684843223,-19.4485646028582,1.780876785379302,-19.870785192235672,1.6807965015397348,-20.281608101920348,1.5808022419713044,-20.680599587122483,1.481143355844902,-21.067319685029567,1.382076865330392,-21.44132226024269,1.28386751443037,-21.802155050212935,1.186787817813926,-22.149359710677803,1.0911181096504083,-22.482471861097526,0.9971465924431848,-22.801021130091577,0.9051693858634038"></polyline></clipPath><filter id="fuzzy"><feTurbulence id="turbulence" baseFrequency="0.05" numOctaves="3" type="noise" result="noise"></feTurbulence><feDisplacementMap in="SourceGraphic" in2="noise" scale="2"></feDisplacementMap></filter><linearGradient id="rainbowGradient" x1="0%" y1="0%" x2="100%" y2="0%"><stop offset="0%" style="stop-color: rgb(145, 85, 61);  stop-opacity: 1"></stop><stop offset="50%" style="stop-color: rgb(192, 192, 192);  stop-opacity: 1"></stop><stop offset="100%" style="stop-color: rgb(145, 85, 61);  stop-opacity: 1"></stop></linearGradient></defs><title>That&#39;s an ugly face</title><desc>CREATED BY XUAN TANG, MORE INFO AT TXSTC55.GITHUB.IO</desc><rect x="-100" y="-100" width="100%" height="100%" opacity="1" fill="rgb(85, 107, 47)"></rect><polyline id="faceContour" points="55,0,55,1,55,3,55,4,54,5,54,7,55,7,54,10,55,9,54,10,54,13,54,12,54,15,54,16,54,19,54,17,54,19,53,21,53,24,53,21,53,24,53,26,52,27,52,28,52,30,51,30,51,33,51,32,50,34,50,34,50,36,49,38,49,39,49,40,48,41,48,41,47,44,48,42,47,45,46,47,46,47,45,49,44,50,45,49,44,50,43,51,43,52,42,53,42,53,41,55,41,56,39,58,39,58,39,58,38,59,38,59,36,61,36,61,35,63,36,62,34,64,34,64,33,64,32,65,30,66,29,68,29,67,28,68,28,68,26,70,27,69,25,70,24,71,24,71,23,71,21,72,22,72,20,73,20,73,18,74,17,74,16,74,16,74,16,74,15,75,15,75,14,75,13,75,11,76,10,76,10,76,9,76,7,76,7,76,6,76,5,76,5,76,2,76,2,76,1,76,-1,76,-1,76,-1,76,-4,76,-5,76,-5,75,-5,75,-8,75,-8,75,-8,75,-10,75,-11,74,-12,74,-12,74,-12,74,-13,73,-14,73,-15,73,-15,73,-17,72,-19,71,-20,71,-20,71,-21,70,-22,70,-22,69,-24,68,-24,68,-26,67,-25,67,-27,67,-26,67,-29,65,-28,65,-29,64,-30,64,-31,63,-32,62,-33,61,-33,61,-34,60,-34,60,-35,59,-36,58,-37,56,-38,56,-37,56,-38,55,-39,54,-40,53,-40,53,-40,53,-42,50,-42,49,-42,50,-43,49,-44,47,-44,47,-44,46,-45,45,-46,43,-47,41,-46,42,-47,41,-47,40,-48,39,-48,38,-49,35,-49,36,-50,33,-50,34,-50,33,-51,31,-50,32,-51,30,-52,27,-52,27,-52,27,-52,25,-52,24,-53,23,-53,21,-53,19,-53,20,-54,18,-54,16,-54,17,-54,15,-54,14,-54,12,-54,11,-54,9,-55,8,-54,9,-54,6,-54,7,-55,6,-54,4,-54,1,-54,1,-54,0,-54,-1,-54,-3,-54,-3,-54,-5,-54,-5,-54,-7,-54,-8,-54,-8,-54,-9,-53,-10,-53,-13,-53,-13,-53,-15,-53,-15,-52,-17,-52,-20,-52,-19,-51,-20,-51,-23,-51,-21,-51,-23,-50,-24,-50,-26,-50,-26,-49,-28,-48,-30,-48,-31,-48,-30,-48,-32,-47,-34,-47,-34,-47,-35,-46,-37,-45,-37,-45,-39,-45,-38,-43,-42,-44,-41,-43,-42,-43,-43,-42,-44,-41,-46,-41,-46,-40,-47,-40,-48,-40,-48,-39,-50,-37,-52,-37,-52,-37,-53,-37,-52,-36,-54,-35,-55,-34,-56,-34,-56,-34,-56,-33,-57,-32,-59,-31,-60,-30,-60,-30,-61,-29,-61,-29,-62,-28,-63,-27,-64,-27,-63,-25,-65,-25,-65,-24,-66,-23,-67,-24,-67,-23,-67,-21,-69,-20,-69,-21,-68,-20,-69,-18,-70,-18,-70,-16,-71,-16,-71,-15,-72,-14,-73,-13,-73,-13,-73,-11,-74,-11,-74,-10,-74,-9,-75,-9,-74,-8,-75,-8,-75,-7,-75,-5,-76,-4,-76,-4,-76,-4,-76,-2,-76,-1,-76,-1,-76,0,-76,1,-76,2,-76,3,-77,3,-76,4,-76,4,-76,6,-76,6,-76,7,-76,8,-76,9,-75,9,-76,10,-76,10,-75,13,-75,13,-75,14,-74,15,-74,14,-74,16,-73,17,-73,17,-73,17,-73,18,-72,19,-72,21,-72,21,-71,22,-71,23,-70,23,-70,24,-69,25,-68,25,-68,27,-67,27,-67,29,-65,28,-66,30,-64,29,-65,30,-64,31,-63,32,-62,32,-62,33,-61,34,-60,36,-58,35,-58,36,-57,36,-58,37,-56,38,-54,39,-53,39,-54,40,-52,41,-51,40,-51,41,-50,41,-50,42,-48,43,-46,44,-45,44,-44,43,-45,44,-43,46,-40,45,-42,46,-39,47,-37,47,-37,48,-35,48,-34,48,-33,49,-32,49,-33,49,-30,49,-31,50,-29,50,-27,50,-27,51,-24,51,-25,51,-23,52,-21,52,-20,52,-19,52,-17,53,-17,53,-15,53,-13,53,-12,53,-11,54,-11,54,-8,54,-8,54,-7,54,-6,54,-3,54,-3,54,-2,55,0,55,1" fill="#ffc9a9" stroke="black" stroke-width="1.6666666666666665" stroke-linejoin="round" filter="url(#fuzzy)"></polyline><g transform="translate(20.037656194867584 -18.899620365311293)"><polyline id="rightCountour" points="-25.8371450105537,-2.444843503678028,-25.66291501587161,-2.5596665405327776,-25.466751718971633,-2.674918961906024,-25.247633540162514,-2.7899299609182675,-25.004672001633562,-2.9040715768120853,-24.73710773616047,-3.0167576523453965,-24.44430649581123,-3.127442791184727,-24.125755160652023,-3.2356213152984745,-23.78105774745308,-3.3408262223501772,-23.409931418394592,-3.442628143091774,-23.012202489772594,-3.5406342987568733,-22.587802440704824,-3.634487458454016,-22.136763921836657,-3.723864896559948,-21.65921676404693,-3.8084773501128755,-21.15538398715388,-3.888067976205736,-20.625577808621,-3.9624113093794664,-20.210498212532915,-4.101764274217427,-19.743353222473917,-4.230114704805894,-19.224637108604448,-4.347038161450419,-18.65525839990863,-4.452218489484762,-18.036501243128143,-4.54543983270738,-17.3699883123947,-4.626578944211889,-16.65764524145431,-4.69559778924411,-15.901666550376222,-4.752536434718301,-15.10448303863952,-4.7975062200251655,-14.26873061649049,-4.830683203764236,-13.397220546463577,-4.852301881033217,-12.492911066959106,-4.862649165906906,-11.558880369770613,-4.8620586337382745,-10.598300903454922,-4.850905017914302,-9.614414974437791,-4.829598955699175,-8.610511617748301,-4.798581977797421,-7.5899047092748635,-4.75832173626961,-6.555912291435908,-4.709307465433194,-5.511837084158165,-4.652045670381072,-4.460948153055664,-4.587056037750517,-3.406463706702308,-4.514867563375016,-2.3515349948911037,-4.436014891451655,-1.2992312797730392,-4.351034859856615,-0.2525258517685518,-4.2604632462414,0.7857169378553627,-4.164831709542388,1.8127536558494297,-4.064664921536283,2.825972805394765,-3.960477883074093,3.8229049121709453,-3.852773419626204,4.801231706186483,-3.7420398507711665,5.758794427478668,-3.6287488282607834,6.693601283789889,-3.5133533372940837,7.603834088327275,-3.3962858556328035,8.48785410571286,-3.2779566651909446,9.344207134231059,-3.1587523107310345,10.171627852480686,-3.039034200299647,10.969043458538303,-2.919137342034821,11.735576629740075,-2.799369211977946,12.470547831189034,-2.6800087475227192,13.173477001094792,-2.5613054611337738,13.844084641052731,-2.4434786689675665,14.482292339369604,-2.3267168290281277,15.088222755542644,-2.2111769834902706,15.662199093999083,-2.0969842998228536,16.20474409520322,-1.9842317053446867,16.71657857223788,-1.872979609845693,17.1986195209674,-1.7632557109059017,17.651977831889088,-1.6550548765448914,18.0779556317802,-1.5483390998342579,18.478043283247295,-1.4430375201057228,18.853916070285308,-1.3390465053874603,19.20541536373604,-1.2362902795308517,19.531491407529717,-1.1347689152052802,19.832648262094892,-1.0344623540815752,20.109425522227095,-0.9353435143998052,20.362394552757845,-0.8373790098179834,20.592154724223644,-0.7405298682607655,20.799329648535004,-0.6447522507681545,20.984563414645486,-0.5499981703441988,21.148516824220653,-0.4562162108056994,21.291863627307148,-0.36335224563090757,21.415286758001653,-0.2713501568082277,21.519474570119943,-0.1801525536849204,21.60511707286587,-0.08970149181580223,21.672902166500396,0.000060808188050376355,20.16927554816911,1.4132684344826818,19.8068453303487,1.5016444116060113,19.435445209202562,1.5908563228716017,19.055027701234703,1.6808063632525825,18.665558425406694,1.7713884467679495,18.26701597035254,1.862488616532399,17.85939176159355,1.9539854548061688,17.442689928753214,2.0457504930448813,17.016927172772082,2.137648621949383,16.582132633122605,2.229538501515587,16.138347755024032,2.3212729710843103,15.685626156657298,2.412699459391119,15.224033496379844,2.5036603946161637,14.753647339940525,2.593993614434022,14.274557027694486,2.6835327760635455,13.785666593547107,2.772690275600173,13.285799413000273,2.86177465665617,12.77496125318558,2.95045804761992,12.25319572919865,3.038409724704252,11.720583792843078,3.1252973241842312,11.177243162967333,3.210788063371755,10.623327698385944,3.2945499672652074,10.059026714376474,3.376253097812498,9.484564243743758,3.4555707827257542,8.900198243442823,3.532180840785988,8.306219747752001,3.605766800576011,7.702951968987691,3.6760191095798946,7.090749346752182,3.742636330587281,6.469996546706066,3.805326322340834,5.841107409856661,3.863807401365114,5.204523853353917,3.917809481915193,4.5607147237852725,3.9670751909832855,3.9101746039609173,4.011360955301684,3.2534225741809415,4.050438057280338,2.591000928975781,4.084093656817298,1.9234738503115056,4.112131775920397,1.251426038251331,4.134374243078402,0.5754613000648622,4.150661594319968,-0.10379890122347502,4.160853927898661,-0.7857169378553628,4.164831709542388,-1.4696405469374159,4.162496525205462,-2.154904397626429,4.153771778261668,-2.840831694909599,4.13860332807657,-3.5267358189882514,4.116960066897386,-4.211921999273598,4.088834431998705,-4.895689022003107,4.054242850022355,-5.577330970485949,4.01322611044972,-6.256138996986138,3.9658496651447663,-6.931403125251846,3.912203850906126,-7.60241408269945,3.8524040319664827,-8.268465161260867,3.786590659377592,-8.928854105902664,3.714929244219203,-9.582885029825546,3.637610241570192,-10.2298703553527,3.5548488421801965,-10.869132779515594,3.4668846687800476,-11.500007263345683,3.37398137396929,-12.121843043880672,3.276426136619091,-12.734005667893744,3.174529053728823,-13.335879046354433,3.068622424674632,-13.926867528629552,2.9590599247882565,-14.506397995432774,2.8462156652044355,-15.073921969531437,2.730483135915147,-15.628917743219011,2.6122740289690167,-16.170892521561882,2.492016938754171,-16.699384580428898,2.370155936302827,-17.18123654163969,2.2743723045368602,-17.654160168979818,2.1773370003043766,-18.11775997996042,2.0792543602914515,-18.57163400145155,1.980336101180556,-19.01537381511849,1.8808013684843223,-19.4485646028582,1.780876785379302,-19.870785192235672,1.6807965015397348,-20.281608101920348,1.5808022419713044,-20.680599587122483,1.481143355844902,-21.067319685029567,1.382076865330392,-21.44132226024269,1.28386751443037,-21.802155050212935,1.186787817813926,-22.149359710677803,1.0911181096504083,-22.482471861097526,0.9971465924431848,-22.801021130091577,0.9051693858634038" fill="white" stroke="white" stroke-width="0" stroke-linejoin="round" filter="url(#fuzzy)"></polyline></g><g transform="translate(-35.6034524133471 -19.69851304002691)"><polyline id="leftCountour" points="26.465873428450468,-2.604038660409437,26.284145005189103,-2.759218691167801,26.079478239639645,-2.9149118352185934,25.85087708106948,-3.0702292285197577,25.59748117892454,-3.2243387864768587,25.318561776037978,-3.3764638227617705,25.01351760183888,-3.5258816681313614,24.681870765560937,-3.671922289246186,24.323262649451166,-3.813966907489174,23.93744980197859,-3.9514466177843146,23.52429983104295,-4.083841007415346,23.08378729718338,-4.210676774844446,22.61598960678712,-4.331526348530923,22.1210829052982,-4.446006505749899,21.599337970426145,-4.553776991410999,21.051116105354673,-4.654539136877041,20.617687063394445,-4.841799196255355,20.131052653139314,-5.014425441102093,19.59180433329394,-5.171853447920453,19.000955188220715,-5.313663083532948,18.359899623325443,-5.439567977516498,17.67037471351682,-5.549405380011423,16.934423174266012,-5.643126398053395,16.154357924792574,-5.720786603577597,15.332728212903032,-5.782537006244171,14.472287271008355,-5.828615384234141,13.575961472846586,-5.859337966164924,12.646820960436962,-5.8750914572746495,11.688051710791726,-5.87632540302433,10.702929011911962,-5.863544883267153,9.694792317593674,-5.8373035301339495,8.66702145057041,-5.79819686278403,7.623014123518723,-5.746855932170547,6.566164747452702,-5.6839412689695035,5.499844497033848,-5.610137127821584,4.427382602322631,-5.526146021035958,3.3520488364978824,-5.432683534905168,2.277037169070432,-5.330473421780308,1.2054505541171499,-5.220242961055602,0.14028682306174067,-5.102718582211548,-0.9155743484714938,-4.978621743065782,-1.9593834302045932,-4.84866505638079,-2.9885320136273616,-4.713548657977649,-4.000562805766964,-4.573956809504919,-4.993178670779439,-4.4305547290118685,-5.964250749836844,-4.283985642475136,-6.911825689783792,-4.134868049428022,-7.834132011037055,-3.98379319584155,-8.729585645202015,-3.8313227474064253,-9.596794672879618,-3.6779866563650687,-10.434563292137707,-3.5242812150428637,-11.24189504812023,-3.3706672892277623,-12.017995354268272,-3.2175687245474074,-12.762273335626507,-3.065370918992929,-13.474343024708865,-2.9144195547385383,-14.154023940397067,-2.765019482406093,-14.801341080345857,-2.617433750923787,-15.416524357368559,-2.471882776128082,-16.00000751027674,-2.328543641258085,-16.552426519647707,-2.187549522491459,-17.074617558993584,-2.048989232671068,-17.567614511805548,-1.9129068763714845,-18.03264608494725,-1.7793016094545024,-18.471132548870813,-1.6481274962628274,-18.884682135129346,-1.5192934576010733,-19.275087121659695,-1.3926633026532278,-19.64217108389405,-1.2681635104055817,-19.984840855289264,-1.1458272084930037,-20.303676521763055,-1.0256363159484974,-20.599291408245957,-0.9075627023700196,-20.872327997378495,-0.7915691054450215,-21.12345384820842,-0.6776100484749917,-21.353357514887996,-0.565632757900004,-21.562744465371196,-0.4555780808232533,-21.752333000110916,-0.3473814025356078,-21.92285017075627,-0.24097356404014716,-22.075027698849766,-0.1362817795767078,-22.209597894524578,-0.033230554146426144,-22.32728957520175,0.06825739896371774,-22.428823984287465,0.16826024065635634,-20.90726643137122,1.9856151442798107,-20.553779984056657,2.0894058733198357,-20.191331391735574,2.193814687694843,-19.819743246632417,2.2987216831127153,-19.43884437091611,2.403997873725189,-19.04847060123384,2.509505719737016,-18.64846557324489,2.615099655015148,-18.238681506154425,2.7206266146978977,-17.81897998724728,2.8259265628041157,-17.38923275642177,2.930833019842368,-16.949322490723485,3.035173590420094,-16.499143588879104,3.1387704908527945,-16.03860295583017,3.2414410767731905,-15.567620787266915,3.3429983707404016,-15.086131354162035,3.44325158984912,-14.593400656134346,3.5426969480428796,-14.088463173845735,3.6416996968008704,-13.570963222146268,3.7398697485977106,-13.040607358559377,3.836817669789174,-12.497164948081561,3.932156042136694,-11.940468626972034,4.025500827181421,-11.370414659674466,4.116472729528313,-10.786963183012855,4.204698555100807,-10.190138331803794,4.289812560426585,-9.580028240027264,4.371457789014919,-8.95678491169798,4.449287390886186,-8.320623955579673,4.522965921313974,-7.671824177884154,4.592170614840391,-7.010727027097615,4.656592630625028,-6.337735885076071,4.715938265188127,-5.653315198552226,4.769930128608474,-4.957989445195859,4.818308280236513,-4.252341928369903,4.860831319983205,-3.537013394724352,4.897277431245188,-2.8127004687701236,4.92744537152668,-2.0801538985750767,4.951155406818744,-1.340176606724262,4.968250185796313,-0.5936215406866374,4.978595549893624,0.1586106832696914,4.982081275318455,0.9155743484714937,4.978621743065782,1.6762814244015822,4.9681565329913155,2.439704577284965,4.950650938005454,3.204780410557856,4.926096394448161,3.970412941077361,4.89451082470533,4.7354773169297255,4.855938888127076,5.4988237826949735,4.81045213630853,6.259281898025818,4.758149068793669,7.015665015398634,4.699155085262618,7.766775022894451,4.633622330263032,8.511407357867686,4.561729426546039,9.2483562973606,4.483681093067238,9.976420531121235,4.399707643713317,10.69440902308271,4.310064362814774,11.40114716716176,4.21503075350528,12.095483243234352,4.114909654988187,12.776295179146178,4.010026224770707,13.442497624615989,3.900726781926288,14.093049342889497,3.787377507445679,14.726960926001805,3.6703629977372425,15.343302839506137,3.5500846673369852,15.941213802526772,3.4269589968888696,16.51990950899402,3.301415622455894,17.07869169591905,3.173895262222474,17.616957564566537,3.0448474766486378,18.134209560382814,2.9147282581365546,18.63522312437269,2.8081043205469363,19.1241000052939,2.7002292364685476,19.60045099411224,2.5912987353430883,20.063899315373153,2.481513314270919,20.514081468905673,2.3710781796595524,20.95064807152638,2.2602031888721323,21.37326469874336,2.149102791875929,21.781612726460164,2.037995972890819,22.17539017267975,1.9271061920377748,22.55431253920846,1.8166613269873524,22.918113653359956,1.7068936146081746,23.266546509659186,1.5980395926154207,23.59938411154634,1.4903400412193126,23.916420313080796,1.3840399247736008,24.217470660645084,1.2793883334240523" fill="white" stroke="white" stroke-width="0" stroke-linejoin="round" filter="url(#fuzzy)"></polyline></g><g transform="translate(20.037656194867584 -18.899620365311293)"><polyline id="rightUpper" points="-26.701019282852194,-1.5005290731044196,-26.657799238324458,-1.5639922757298577,-26.61106037662508,-1.6371788418645605,-26.55823057808131,-1.7189321600378686,-26.496910737842054,-1.8081488909685446,-26.42487077458378,-1.903777924958038,-26.340045639216395,-2.004819339283751,-26.240531323589124,-2.1103233555923024,-26.124580869196393,-2.2193892972927953,-25.990600375883748,-2.331164546950082,-25.8371450105537,-2.444843503678028,-25.66291501587161,-2.5596665405327776,-25.466751718971633,-2.674918961906024,-25.247633540162514,-2.7899299609182675,-25.004672001633562,-2.9040715768120853,-24.73710773616047,-3.0167576523453965,-24.44430649581123,-3.127442791184727,-24.125755160652023,-3.2356213152984745,-23.78105774745308,-3.3408262223501772,-23.409931418394592,-3.442628143091774,-23.012202489772594,-3.5406342987568733,-22.587802440704824,-3.634487458454016,-22.136763921836657,-3.723864896559948,-21.65921676404693,-3.8084773501128755,-21.15538398715388,-3.888067976205736,-20.625577808621,-3.9624113093794664,-20.210498212532915,-4.101764274217427,-19.743353222473917,-4.230114704805894,-19.224637108604448,-4.347038161450419,-18.65525839990863,-4.452218489484762,-18.036501243128143,-4.54543983270738,-17.3699883123947,-4.626578944211889,-16.65764524145431,-4.69559778924411,-15.901666550376222,-4.752536434718301,-15.10448303863952,-4.7975062200251655,-14.26873061649049,-4.830683203764236,-13.397220546463577,-4.852301881033217,-12.492911066959106,-4.862649165906906,-11.558880369770613,-4.8620586337382745,-10.598300903454922,-4.850905017914302,-9.614414974437791,-4.829598955699175,-8.610511617748301,-4.798581977797421,-7.5899047092748635,-4.75832173626961,-6.555912291435908,-4.709307465433194,-5.511837084158165,-4.652045670381072,-4.460948153055664,-4.587056037750517,-3.406463706702308,-4.514867563375016,-2.3515349948911037,-4.436014891451655,-1.2992312797730392,-4.351034859856615,-0.2525258517685518,-4.2604632462414,0.7857169378553627,-4.164831709542388,1.8127536558494297,-4.064664921536283,2.825972805394765,-3.960477883074093,3.8229049121709453,-3.852773419626204,4.801231706186483,-3.7420398507711665,5.758794427478668,-3.6287488282607834,6.693601283789889,-3.5133533372940837,7.603834088327275,-3.3962858556328035,8.48785410571286,-3.2779566651909446,9.344207134231059,-3.1587523107310345,10.171627852480686,-3.039034200299647,10.969043458538303,-2.919137342034821,11.735576629740075,-2.799369211977946,12.470547831189034,-2.6800087475227192,13.173477001094792,-2.5613054611337738,13.844084641052731,-2.4434786689675665,14.482292339369604,-2.3267168290281277,15.088222755542644,-2.2111769834902706,15.662199093999083,-2.0969842998228536,16.20474409520322,-1.9842317053446867,16.71657857223788,-1.872979609845693,17.1986195209674,-1.7632557109059017,17.651977831889088,-1.6550548765448914,18.0779556317802,-1.5483390998342579,18.478043283247295,-1.4430375201057228,18.853916070285308,-1.3390465053874603,19.20541536373604,-1.2362902795308517,19.531491407529717,-1.1347689152052802,19.832648262094892,-1.0344623540815752,20.109425522227095,-0.9353435143998052,20.362394552757845,-0.8373790098179834,20.592154724223644,-0.7405298682607655,20.799329648535004,-0.6447522507681545,20.984563414645486,-0.5499981703441988,21.148516824220653,-0.4562162108056994,21.291863627307148,-0.36335224563090757,21.415286758001653,-0.2713501568082277,21.519474570119943,-0.1801525536849204,21.60511707286587,-0.08970149181580223,21.672902166500396,0.000060808188050376355,21.72351187801059,0.08919124181060101,21.757618596778663,0.17774510178215008,21.77588131025096,0.2657753592306342,21.778941839606965,0.3533319448329233,21.767421075428356,0.44046102996611836,21.74191521336797,0.5272043078588533,21.70299198981886,0.6135982747425874,21.651186917583246,0.6996735110029073,21.586999521541625,0.7854539623308243,21.510889574321666,0.8709562208740722" fill="none" stroke="black" stroke-width="1.6666666666666665" stroke-linejoin="round" filter="url(#fuzzy)"></polyline><polyline id="rightLower" points="-25.07788115035716,0.16598927238332184,-24.932116619513817,0.2199600977236078,-24.766765993199574,0.2793326180584851,-24.582357052201775,0.3437288561820703,-24.37941204083086,0.4127792403938835,-24.15844762148394,0.48612255566508566,-23.919974829208446,0.5634058948047167,-23.66449902626569,0.6442846096259331,-23.392519856694527,0.7284222621122456,-23.10453120087492,0.8154905755837583,-22.801021130091577,0.9051693858634038,-22.482471861097526,0.9971465924431848,-22.149359710677803,1.0911181096504083,-21.802155050212935,1.186787817813926,-21.44132226024269,1.28386751443037,-21.067319685029567,1.382076865330392,-20.680599587122483,1.481143355844902,-20.281608101920348,1.5808022419713044,-19.870785192235672,1.6807965015397348,-19.4485646028582,1.780876785379302,-19.01537381511849,1.8808013684843223,-18.57163400145155,1.980336101180556,-18.11775997996042,2.0792543602914515,-17.654160168979818,2.1773370003043766,-17.18123654163969,2.2743723045368602,-16.699384580428898,2.370155936302827,-16.170892521561882,2.492016938754171,-15.628917743219011,2.6122740289690167,-15.073921969531437,2.730483135915147,-14.506397995432774,2.8462156652044355,-13.926867528629552,2.9590599247882565,-13.335879046354433,3.068622424674632,-12.734005667893744,3.174529053728823,-12.121843043880672,3.276426136619091,-11.500007263345683,3.37398137396929,-10.869132779515594,3.4668846687800476,-10.2298703553527,3.5548488421801965,-9.582885029825546,3.637610241570192,-8.928854105902664,3.714929244219203,-8.268465161260867,3.786590659377592,-7.60241408269945,3.8524040319664827,-6.931403125251846,3.912203850906126,-6.256138996986138,3.9658496651447663,-5.577330970485949,4.01322611044972,-4.895689022003107,4.054242850022355,-4.211921999273598,4.088834431998705,-3.5267358189882514,4.116960066897386,-2.840831694909599,4.13860332807657,-2.154904397626429,4.153771778261668,-1.4696405469374159,4.162496525205462,-0.7857169378553628,4.164831709542388,-0.10379890122347502,4.160853927898661,0.5754613000648622,4.150661594319968,1.251426038251331,4.134374243078402,1.9234738503115056,4.112131775920397,2.591000928975781,4.084093656817298,3.2534225741809415,4.050438057280338,3.9101746039609173,4.011360955301684,4.5607147237852725,3.9670751909832855,5.204523853353917,3.917809481915193,5.841107409856661,3.863807401365114,6.469996546706066,3.805326322340834,7.090749346752182,3.742636330587281,7.702951968987691,3.6760191095798946,8.306219747752001,3.605766800576011,8.900198243442823,3.532180840785988,9.484564243743758,3.4555707827257542,10.059026714376474,3.376253097812498,10.623327698385944,3.2945499672652074,11.177243162967333,3.210788063371755,11.720583792843078,3.1252973241842312,12.25319572919865,3.038409724704252,12.77496125318558,2.95045804761992,13.285799413000273,2.86177465665617,13.785666593547107,2.772690275600173,14.274557027694486,2.6835327760635455,14.753647339940525,2.593993614434022,15.224033496379844,2.5036603946161637,15.685626156657298,2.412699459391119,16.138347755024032,2.3212729710843103,16.582132633122605,2.229538501515587,17.016927172772082,2.137648621949383,17.442689928753214,2.0457504930448813,17.85939176159355,1.9539854548061688,18.26701597035254,1.862488616532399,18.665558425406694,1.7713884467679495,19.055027701234703,1.6808063632525825,19.435445209202562,1.5908563228716017,19.8068453303487,1.5016444116060113,20.16927554816911,1.4132684344826818,20.522796581402492,1.3258175055245007,20.867482516815357,1.2393716377005368,21.20342094198716,1.1540013328761975,21.53071307809546,1.0697671717633905,21.849473912700994,0.9867194038706797,22.159832332532865,0.9048975374534458,22.46193125627363,0.824329929464048,22.755927767344435,0.7450333755019791,23.04199324669016,0.6670126997640287,23.320313505564535,0.5902603449944395" fill="none" stroke="black" stroke-width="2.2222222222222223" stroke-linejoin="round" filter="url(#fuzzy)"></polyline><!--[--><circle r="4.758569922346529" cx="13.673792657129908" cy="3.009124479715269" stroke="black" fill="none" stroke-width="1" filter="url(#fuzzy)" clip-path="url(#rightEyeClipPath)"></circle><circle r="4.991661980909898" cx="11.586437167831795" cy="2.247533365770445" stroke="black" fill="none" stroke-width="1" filter="url(#fuzzy)" clip-path="url(#rightEyeClipPath)"></circle><circle r="4.474670979520755" cx="14.88953146419005" cy="2.3593525284245063" stroke="black" fill="none" stroke-width="1" filter="url(#fuzzy)" clip-path="url(#rightEyeClipPath)"></circle><circle r="4.6137419080238375" cx="10.684934493494234" cy="2.7434410774141638" stroke="black" fill="none" stroke-width="1" filter="url(#fuzzy)" clip-path="url(#rightEyeClipPath)"></circle><circle r="3.7724413453456367" cx="11.135649852968855" cy="2.1928512285389017" stroke="black" fill="none" stroke-width="1" filter="url(#fuzzy)" clip-path="url(#rightEyeClipPath)"></circle><circle r="3.760446988077303" cx="12.658957355594803" cy="2.5697940033961695" stroke="black" fill="none" stroke-width="1" filter="url(#fuzzy)" clip-path="url(#rightEyeClipPath)"></circle><circle r="3.5938535080687504" cx="10.259591949499598" cy="-1.3763588959911734" stroke="black" fill="none" stroke-width="1" filter="url(#fuzzy)" clip-path="url(#rightEyeClipPath)"></circle><circle r="3.0498199113186395" cx="12.705275410062594" cy="2.8733875890882734" stroke="black" fill="none" stroke-width="1" filter="url(#fuzzy)" clip-path="url(#rightEyeClipPath)"></circle><circle r="3.894885712312586" cx="13.710279755024015" cy="0.035511730362190796" stroke="black" fill="none" stroke-width="1" filter="url(#fuzzy)" clip-path="url(#rightEyeClipPath)"></circle><circle r="3.643421374952118" cx="10.677064159882589" cy="2.2246837504541688" stroke="black" fill="none" stroke-width="1" filter="url(#fuzzy)" clip-path="url(#rightEyeClipPath)"></circle><!--]--></g><g transform="translate(-35.6034524133471 -19.69851304002691)"><polyline id="leftUpper" points="27.345927420232396,-1.3193721031949546,27.30600923449942,-1.4070544556019964,27.261480217710528,-1.507565291229625,27.209761443826068,-1.6193719865874554,27.148450754897976,-1.741012509445838,27.07531865427843,-1.8710940376545466,26.988304199828615,-2.008291577961467,26.885510897127332,-2.1513465848312845,26.765202592679774,-2.2990655792641728,26.62579936712616,-2.450318767614484,26.465873428450468,-2.604038660409437,26.284145005189103,-2.759218691167801,26.079478239639645,-2.9149118352185934,25.85087708106948,-3.0702292285197577,25.59748117892454,-3.2243387864768587,25.318561776037978,-3.3764638227617705,25.01351760183888,-3.5258816681313614,24.681870765560937,-3.671922289246186,24.323262649451166,-3.813966907489174,23.93744980197859,-3.9514466177843146,23.52429983104295,-4.083841007415346,23.08378729718338,-4.210676774844446,22.61598960678712,-4.331526348530923,22.1210829052982,-4.446006505749899,21.599337970426145,-4.553776991410999,21.051116105354673,-4.654539136877041,20.617687063394445,-4.841799196255355,20.131052653139314,-5.014425441102093,19.59180433329394,-5.171853447920453,19.000955188220715,-5.313663083532948,18.359899623325443,-5.439567977516498,17.67037471351682,-5.549405380011423,16.934423174266012,-5.643126398053395,16.154357924792574,-5.720786603577597,15.332728212903032,-5.782537006244171,14.472287271008355,-5.828615384234141,13.575961472846586,-5.859337966164924,12.646820960436962,-5.8750914572746495,11.688051710791726,-5.87632540302433,10.702929011911962,-5.863544883267153,9.694792317593674,-5.8373035301339495,8.66702145057041,-5.79819686278403,7.623014123518723,-5.746855932170547,6.566164747452702,-5.6839412689695035,5.499844497033848,-5.610137127821584,4.427382602322631,-5.526146021035958,3.3520488364978824,-5.432683534905168,2.277037169070432,-5.330473421780308,1.2054505541171499,-5.220242961055602,0.14028682306174067,-5.102718582211548,-0.9155743484714938,-4.978621743065782,-1.9593834302045932,-4.84866505638079,-2.9885320136273616,-4.713548657977649,-4.000562805766964,-4.573956809504919,-4.993178670779439,-4.4305547290118685,-5.964250749836844,-4.283985642475136,-6.911825689783792,-4.134868049428022,-7.834132011037055,-3.98379319584155,-8.729585645202015,-3.8313227474064253,-9.596794672879618,-3.6779866563650687,-10.434563292137707,-3.5242812150428637,-11.24189504812023,-3.3706672892277623,-12.017995354268272,-3.2175687245474074,-12.762273335626507,-3.065370918992929,-13.474343024708865,-2.9144195547385383,-14.154023940397067,-2.765019482406093,-14.801341080345857,-2.617433750923787,-15.416524357368559,-2.471882776128082,-16.00000751027674,-2.328543641258085,-16.552426519647707,-2.187549522491459,-17.074617558993584,-2.048989232671068,-17.567614511805548,-1.9129068763714845,-18.03264608494725,-1.7793016094545024,-18.471132548870813,-1.6481274962628274,-18.884682135129346,-1.5192934576010733,-19.275087121659695,-1.3926633026532278,-19.64217108389405,-1.2681635104055817,-19.984840855289264,-1.1458272084930037,-20.303676521763055,-1.0256363159484974,-20.599291408245957,-0.9075627023700196,-20.872327997378495,-0.7915691054450215,-21.12345384820842,-0.6776100484749917,-21.353357514887996,-0.565632757900004,-21.562744465371196,-0.4555780808232533,-21.752333000110916,-0.3473814025356078,-21.92285017075627,-0.24097356404014716,-22.075027698849766,-0.1362817795767078,-22.209597894524578,-0.033230554146426144,-22.32728957520175,0.06825739896371774,-22.428823984287465,0.16826024065635634,-22.514910709870254,0.26685608849919107,-22.586243603418232,0.36412209920044986,-22.64349669847635,0.46013355108434134,-22.687320129363613,0.5549629265665132,-22.718336049870302,0.6486789946295072,-22.73713455195525,0.7413458932982184,-22.744269584443042,0.8330222121153469,-22.74025487172125,0.9237600746168584,-22.725559832437686,1.0136042208074383,-22.700605498197632,1.102591089635949" fill="none" stroke="black" stroke-width="2.2222222222222223" stroke-linejoin="round" filter="url(#fuzzy)"></polyline><polyline id="leftLower" points="26.325367474459473,0.3811742538476435,26.188946486135688,0.454774683306993,26.03607336031069,0.5327286205481004,25.866669333652872,0.6147489268382751,25.68068575219331,0.7005520057217087,25.478103229621848,0.7898578613709892,25.258930805583148,0.8823901569386139,25.023205103972675,0.9778762729085014,24.770989491232807,1.0760473654475071,24.502373234648854,1.1766384247569355,24.217470660645084,1.2793883334240523,23.916420313080796,1.3840399247736008,23.59938411154634,1.4903400412193126,23.266546509659186,1.5980395926154207,22.918113653359956,1.7068936146081746,22.55431253920846,1.8166613269873524,22.17539017267975,1.9271061920377748,21.781612726460164,2.037995972890819,21.37326469874336,2.149102791875929,20.95064807152638,2.2602031888721323,20.514081468905673,2.3710781796595524,20.063899315373153,2.481513314270919,19.60045099411224,2.5912987353430883,19.1241000052939,2.7002292364685476,18.63522312437269,2.8081043205469363,18.134209560382814,2.9147282581365546,17.616957564566537,3.0448474766486378,17.07869169591905,3.173895262222474,16.51990950899402,3.301415622455894,15.941213802526772,3.4269589968888696,15.343302839506137,3.5500846673369852,14.726960926001805,3.6703629977372425,14.093049342889497,3.787377507445679,13.442497624615989,3.900726781926288,12.776295179146178,4.010026224770707,12.095483243234352,4.114909654988187,11.40114716716176,4.21503075350528,10.69440902308271,4.310064362814774,9.976420531121235,4.399707643713317,9.2483562973606,4.483681093067238,8.511407357867686,4.561729426546039,7.766775022894451,4.633622330263032,7.015665015398634,4.699155085262618,6.259281898025818,4.758149068793669,5.4988237826949735,4.81045213630853,4.7354773169297255,4.855938888127076,3.970412941077361,4.89451082470533,3.204780410557856,4.926096394448161,2.439704577284965,4.950650938005454,1.6762814244015822,4.9681565329913155,0.9155743484714937,4.978621743065782,0.1586106832696914,4.982081275318455,-0.5936215406866374,4.978595549893624,-1.340176606724262,4.968250185796313,-2.0801538985750767,4.951155406818744,-2.8127004687701236,4.92744537152668,-3.537013394724352,4.897277431245188,-4.252341928369903,4.860831319983205,-4.957989445195859,4.818308280236513,-5.653315198552226,4.769930128608474,-6.337735885076071,4.715938265188127,-7.010727027097615,4.656592630625028,-7.671824177884154,4.592170614840391,-8.320623955579673,4.522965921313974,-8.95678491169798,4.449287390886186,-9.580028240027264,4.371457789014919,-10.190138331803794,4.289812560426585,-10.786963183012855,4.204698555100807,-11.370414659674466,4.116472729528313,-11.940468626972034,4.025500827181421,-12.497164948081561,3.932156042136694,-13.040607358559377,3.836817669789174,-13.570963222146268,3.7398697485977106,-14.088463173845735,3.6416996968008704,-14.593400656134346,3.5426969480428796,-15.086131354162035,3.44325158984912,-15.567620787266915,3.3429983707404016,-16.03860295583017,3.2414410767731905,-16.499143588879104,3.1387704908527945,-16.949322490723485,3.035173590420094,-17.38923275642177,2.930833019842368,-17.81897998724728,2.8259265628041157,-18.238681506154425,2.7206266146978977,-18.64846557324489,2.615099655015148,-19.04847060123384,2.509505719737016,-19.43884437091611,2.403997873725189,-19.819743246632417,2.2987216831127153,-20.191331391735574,2.193814687694843,-20.553779984056657,2.0894058733198357,-20.90726643137122,1.9856151442798107,-21.25197358686552,1.8825527957015606,-21.588088964602672,1.780318985937385,-21.91580395498888,1.6790032089559155,-22.235313040239657,1.5786837667329479,-22.546813009845952,1.4794272416422642,-22.85050217604043,1.3812879688464637,-23.146579589263638,1.284307508687795,-23.43524425363021,1.1885141190789759,-23.71669434239504,1.0939222278940277,-23.991126413419536,1.0005319053591009" fill="none" stroke="black" stroke-width="2.2222222222222223" stroke-linejoin="round" filter="url(#fuzzy)"></polyline><!--[--><circle r="3.885904896007946" cx="10.97710002924235" cy="3.241272437142424" stroke="black" fill="none" stroke-width="1" filter="url(#fuzzy)" clip-path="url(#leftEyeClipPath)"></circle><circle r="3.5835239163692343" cx="10.412323998935289" cy="0.5950483050180648" stroke="black" fill="none" stroke-width="1" filter="url(#fuzzy)" clip-path="url(#leftEyeClipPath)"></circle><circle r="4.630332968344796" cx="10.980167754839563" cy="0.5059711999884406" stroke="black" fill="none" stroke-width="1" filter="url(#fuzzy)" clip-path="url(#leftEyeClipPath)"></circle><circle r="3.023000895318922" cx="7.425370259695798" cy="-0.4213003876605588" stroke="black" fill="none" stroke-width="1" filter="url(#fuzzy)" clip-path="url(#leftEyeClipPath)"></circle><circle r="3.008612488776657" cx="11.90998190623679" cy="-0.5636330928916258" stroke="black" fill="none" stroke-width="1" filter="url(#fuzzy)" clip-path="url(#leftEyeClipPath)"></circle><circle r="4.282672127020875" cx="8.689205268799856" cy="3.8800704929940313" stroke="black" fill="none" stroke-width="1" filter="url(#fuzzy)" clip-path="url(#leftEyeClipPath)"></circle><circle r="3.96000768019951" cx="7.993773160269573" cy="-0.3243825316761404" stroke="black" fill="none" stroke-width="1" filter="url(#fuzzy)" clip-path="url(#leftEyeClipPath)"></circle><circle r="4.540622817167507" cx="11.253308366817244" cy="0.030732095775768187" stroke="black" fill="none" stroke-width="1" filter="url(#fuzzy)" clip-path="url(#leftEyeClipPath)"></circle><circle r="3.2248707225676907" cx="8.130778116307466" cy="1.5607442018619135" stroke="black" fill="none" stroke-width="1" filter="url(#fuzzy)" clip-path="url(#leftEyeClipPath)"></circle><circle r="3.3368299299835447" cx="11.822614126221186" cy="-0.06252614495972386" stroke="black" fill="none" stroke-width="1" filter="url(#fuzzy)" clip-path="url(#leftEyeClipPath)"></circle><!--]--></g><g id="hairs"><!--[--><!--]--></g><g id="lineNose"><path d="M -6.620955838184297 14.608748791017366, Q7.2433370244845205 27.08997326095292,0.311190593150112 -3.8791879820437574" fill="none" stroke="black" stroke-width="3" stroke-linejoin="round" filter="url(#fuzzy)"></path></g><g id="mouth"><polyline points="13.352815301958252,38.68799506399822,13.374990266968988,38.133692110908484,13.442219818015174,38.775464532632235,13.349633810319586,39.60955284512783,13.311723086673169,39.48393871672876,13.363590100179168,39.53442779183217,13.25102941459093,39.634528817999055,12.994170307239285,41.038958908287555,12.939952424017285,41.46976763977092,13.051201553779308,40.91948896457131,13.008099597692592,41.18488332055521,12.566743462737882,42.34668454851738,12.498250320296853,42.72459195963017,12.570053290601372,42.30826750288735,12.397445715347567,42.95235720822602,11.98240914379945,43.63698723616948,11.947639766205487,43.72927554051993,11.739932662920484,44.13303812101583,11.44598384014685,44.58192460967469,11.550117482071437,44.44314529604699,10.808373524164882,45.49904079658429,11.169495240349182,44.96225616406527,10.954475042951808,45.278761959029055,10.113039164963173,46.23335452673527,10.511740256214498,45.76410422825157,10.398966988588041,45.975448971894295,9.403963231342626,46.92034333176032,9.823462987658145,46.508192278854516,9.09096403791851,47.249116119255184,9.290078422235293,47.05954956365234,8.871897721878739,47.41121707148087,8.151916652105005,47.909162347417634,7.667910003405742,48.186607978912626,7.799743103606719,48.15275715607488,7.7921825314343875,48.11869332455565,6.447399686210164,48.83581166400744,6.781522161818104,48.68821607748312,6.86360462249738,48.67658639008209,6.467498015123429,48.86270524031926,5.933004345855119,49.08219796664296,4.863080385751468,49.4298135848627,4.866266303893265,49.43609357547552,5.116390403139337,49.356181380988275,4.610904364494344,49.51228913871226,4.46973246586491,49.55272746740079,3.8706560921720814,49.682414293296986,3.695796436213374,49.716178910415664,2.8261831804802098,49.832741334885625,2.5617337955629575,49.86129460220994,2.6774429701599756,49.85311578201221,1.6752331729974381,49.894533033693605,1.6068842076004504,49.89508513581097,1.3362602129399084,49.8890043114581,0.659992868226327,49.848399140382945,0.8419024144100409,49.86271435679318,-0.5613251383398561,49.67407978451006,-1.0194411587945993,49.58549245530414,-0.6780162214616783,49.65413441360723,-1.2630083225046813,49.51731546298301,-1.9418310342784775,49.334117672041785,-1.709772393911368,49.37648326232178,-2.7030751933055717,49.05426330728875,-2.561117604631283,49.08177730239508,-3.202578655583592,48.8034941572317,-3.109237137112265,48.85092540235797,-3.88935032424983,48.45080115874703,-3.967596872191499,48.43138179905732,-4.278302193948311,48.222518861752405,-4.157118336540653,48.30313276943388,-4.592347647506779,48.03204752854438,-5.6165982792521865,47.314387817467434,-5.8598135630887604,47.14263119811886,-6.152527835927495,46.813900688998416,-5.546066074252793,47.35384237836733,-6.702352156898792,46.38331503460643,-6.457039755350701,46.61593391056163,-6.942551685230063,46.04110146033804,-7.3631639481005955,45.56149769427796,-7.687404473637111,45.25089870793418,-7.601901612921601,45.322140838268325,-7.708092663950541,45.185595548555476,-8.256465488078552,44.41280810444686,-8.479993557165416,44.03473707001374,-8.54045365170945,43.79390216820259,-8.632941260863907,43.72058589446235,-8.689008419992817,43.68629099414985,-8.898584200123691,43.08656921330684,-8.895145855581742,43.283616614318305,-8.957702492025419,43.06104094292559,-9.255525570704618,42.266821633938065,-9.298690850453857,42.13349948776879,-9.510713081084667,41.46997966695126,-9.851221991765355,40.49518145399548,-9.906228454621024,40.06153231967099,-9.958341249818957,39.77561974452032,-9.807883139365249,40.273368371306155,-9.971133675761862,39.6813646811551,-10.017506806728724,38.765948060944524,-10.0480799542746,38.67998556459778,-9.994669820601153,38.794652336234925,-10.05671756517186,38.66764402643045,-10.097873199561375,37.53734901622903,-10.050736462401487,37.340597420917874,-10.008997870950443,36.94767948022639,-10.022313259681761,36.81058268416242,-9.97224134842065,36.91573092822393,-9.966360620362861,36.36196327410806,-9.903044463863708,35.77674060157272,-9.85000513630171,35.53686418676073,-9.554514825123329,34.63732006531075,-9.391004504480033,34.14007701179026,-9.45758221670197,34.11845576309195,-9.400819166485082,34.02047728647129,-8.998893292219469,33.14020413270984,-9.114519103950576,33.22451134404322,-8.998221833966554,33.03389026651527,-8.631049470437604,32.4473366933524,-8.678120938554933,32.350219361408435,-8.535229013026052,32.2759127447655,-7.949009569864691,31.24200166922531,-8.181623310593627,31.624048714469257,-8.110322291917498,31.412118942957036,-7.215090802787282,30.353921365738046,-7.167409120874227,30.267085382168254,-6.6404492274663784,29.66255751918379,-7.052225457753632,30.141087728240013,-6.635738105117785,29.71174177803852,-6.055364526412509,29.136903983898303,-6.167998704643946,29.27346440692891,-6.004289743190103,29.064561926340474,-5.467557466331672,28.70055268233029,-4.567434716131522,28.01203586782349,-4.094021666326989,27.790570109745566,-3.964432558246327,27.709032272693413,-3.804373070919948,27.5807750333969,-3.242606298180248,27.3372635509296,-2.9518822021741853,27.217659794274418,-2.817811796230443,27.161851680246293,-3.0995233215628817,27.260326479842732,-2.7882549202174527,27.14730900038614,-1.8948205243018066,26.82250664880262,-1.3947556647046304,26.660290073010472,-1.0008079246942558,26.57329132073336,-1.1079720002017446,26.60401337362792,-0.2440236921610337,26.417683513938314,-0.015361870886885676,26.381268334061872,-0.012095307546507117,26.378619654382113,1.026741926069842,26.284671760581055,0.7982591047662563,26.294704456287686,1.1723485532847586,26.2776730976056,2.030220380531172,26.270305835932092,1.804372422282289,26.26582765799237,2.292303773405585,26.279147281819185,2.2353851124439648,26.278519252118592,2.946571225182806,26.328895540761675,3.6866260826387656,26.432032816211283,4.371492307225319,26.586629954185142,3.9346002752691547,26.481024183851595,4.153074515023178,26.53494319589665,4.946842734641724,26.718889076634603,5.61797679218862,26.95514152454454,6.016053704824226,27.09427736031477,5.995706584033556,27.088085457687203,6.871993507673239,27.465469669727845,6.795457124006981,27.45646718895963,7.156437792488429,27.59838207373968,7.697306802160695,27.90395746162236,7.351371686555166,27.71358083619929,7.654513195676066,27.903708389228253,8.261210656509512,28.277637657922913,8.4839394312692,28.396178672816568,9.03906827759518,28.865969466408266,9.318112794594505,29.132367509299304,9.910759845310356,29.635132883953187,9.463038299895398,29.25442108042276,10.139421711709375,29.892343998528144,10.42684894776758,30.154250521765974,10.542853315593877,30.270923102977726,10.477852432340669,30.231983413860434,10.735557578518055,30.513655226465037,10.879659708157208,30.700083008685734,11.597896993703626,31.814480556550343,11.47548109549967,31.468706643154132,11.513149905373616,31.682771303990773,11.771478063152028,32.03019795522219,12.143035733211605,32.66781539549599,12.424290701192582,33.263829738932536,12.393550425679361,33.24801566662921,12.461616610978194,33.454353196347036,12.494211903378062,33.407254613909025,12.953774849601292,34.922869642521306,13.10639403998234,35.23720367465673,13.05142071198406,35.23468066284681,13.150476570071685,35.30304464960646,13.051702150204843,35.24490711393275,13.156814019640159,35.84033717962575,13.318477165808781,37.08465381773532,13.370661098987238,36.49864432272097,13.451916312838524,37.91689858929233,13.406735798256898,37.139733579953614" fill="rgb(215,127,140)" stroke="black" stroke-width="3" stroke-linejoin="round" filter="url(#fuzzy)"></polyline></g></svg>