<svg viewBox="-100 -100 200 200" xmlns="http://www.w3.org/2000/svg" width="400" height="400" id="face-svg"><defs><clipPath id="leftEyeClipPath"><polyline points="37.6608653675034,-4.530548200701105,37.25766253424439,-4.831690384378524,36.82219595186426,-5.136126465643506,36.35475026384702,-5.442730832268261,35.85567187198717,-5.750429112124012,35.325366608643435,-6.058197205003078,34.7642974089926,-6.3650603144409486,34.17298198328328,-6.6700919795383635,33.551990489089675,-6.972413106783385,32.901943203565416,-7.271191001873487,32.2235081956973,-7.565638401537622,31.517398998559074,-7.855012505358305,30.78437228156526,-8.138614007593691,30.025225522724902,-8.41578612899966,29.240794680895384,-8.685913648651873,28.431951868036172,-8.948421935767877,27.624198890428367,-9.318891899287587,26.772804043665904,-9.67613203326338,25.879043399572282,-10.018899252086609,24.9444541705841,-10.346068367431767,23.97080803891403,-10.656627778882275,22.960085549514922,-10.94967522681504,21.914451548166433,-11.224413607231082,20.83623164600572,-11.48014684821942,19.727889691823503,-11.716275847741494,18.592006233447,-11.932294472423376,17.431257949531144,-12.127785617042967,16.248398033079525,-12.302417324399503,15.046237508016473,-12.455938965252518,13.82762746013173,-12.588177478017634,12.595442163719083,-12.699033667906278,11.352563085230493,-12.7884785651967,10.10186374526706,-12.85654984232346,8.846195420228302,-12.903348289472662,7.588373664941128,-12.929034348370164,6.331165637590037,-12.933824703950041,5.077278208269838,-12.917988933590472,3.829346832482422,-12.881846213604424,2.589925170898994,-12.825762082672231,1.3614754367091662,-12.75014526190341,0.14635945187836796,-12.655444531214975,-1.0531696063649862,-12.54214566171337,-2.2349747874911827,-12.410768403767436,-3.397042296758263,-12.261863530459511,-4.537487790107075,-12.096009936102014,-5.6545620535408325,-11.913811789506672,-6.746656085667794,-11.715895741693716,-7.812305602085617,-11.502908187728226,-8.850194980285961,-11.27551258237092,-9.859160663757862,-11.034386809230575,-10.838194043968592,-10.780220603105441,-11.786443838900329,-10.513713025200675,-12.703217986821507,-10.235569990909337,-13.58798507397109,-9.946501849843917,-14.440375314834675,-9.647221017805824,-15.260181103690709,-9.338439660379983,-16.04735715610554,-9.02086742784183,-16.802020259055865,-8.695209241063923,-17.524448648357076,-8.362163128109483,-18.21508103207616,-8.022418111199974,-18.87451527860763,-7.676652143744129,-19.503506788091123,-7.325530097115551,-20.10296656584928,-6.969701796866165,-20.67395901652426,-6.609800108062823,-21.217699477591793,-6.24643906943419,-21.735551510931046,-5.880212076015303,-22.2280124796588,-5.510190505905874,-22.69483494304869,-5.135241956256153,-23.1363985794217,-4.7556309512750765,-23.55311292172895,-4.371613181570155,-23.945414855957516,-3.9834355460342357,-24.31376611953626,-3.5913361937322477,-24.658650799741793,-3.1955445657879737,-24.980572832104254,-2.7962814372707845,-25.28005349881319,-2.3937589590824158,-25.557628927123478,-1.9881806998437204,-25.813847587761106,-1.5797416877814143,-26.04926779332911,-1.1686284526148452,-26.264455196713392,-0.7550190674427399,-26.459980289488602,-0.33908319062996783,-26.42550850249266,2.490459093376095,-26.138810699274348,2.890030152781841,-25.835837148263728,3.287611886043484,-25.516216668753223,3.682848442771809,-25.179586122795214,4.075365200570075,-24.825591689815894,4.464770110729278,-24.45389014122927,4.8506550439234255,-24.064150115051035,5.232597135904796,-23.656053390512554,5.610160133199207,-23.22929616267476,5.982895738801294,-22.783590317042094,6.35034495786975,-22.31866470417647,6.712039443422627,-21.834266414311156,7.067502842032571,-21.330162051964724,7.416252139522104,-20.80613901055502,7.757799006658898,-20.261781593060135,8.093743750556403,-19.696186762370104,8.425268962946184,-19.108499224937102,8.751266556038267,-18.49796105698018,9.070644460091199,-17.863913351434263,9.382329984042087,-17.205797711878088,9.685273159986021,-16.52315758392345,9.978450061456916,-15.815639414548944,10.260866085461917,-15.08299362986094,10.531559188221584,-14.325075421764815,10.789603064567885,-13.541845334029087,11.034110260952257,-12.733369638225664,11.264235212015782,-11.899820490028727,11.479177190673685,-11.041475856355442,11.678183161666253,-10.158719203831225,11.860550528528341,-9.252038939062382,12.025629763929617,-8.322027591199243,12.172826913337646,-7.369380727272375,12.301605961955975,-6.394895590785039,12.41149105488941,-5.39946945404453,12.502068560488537,-4.384097674715463,12.5729889668257,-3.349871447077801,12.623968601254553,-2.2979752384724996,12.654791163005312,-1.229683901417709,12.665309058767875,-0.14635945187836796,12.655444531214975,0.9505524958279157,12.625190570417404,2.059526647005798,12.574611598103589,3.178962306955109,12.503843914715551,4.30718803325879,12.413095899213472,5.44246666950302,12.30264795158093,6.5830007699466595,12.172852167983018,7.726938424657086,12.024131738529443,8.872379494629563,11.856980057594768,10.017382266407292,11.671959536647924,11.159970535719172,11.469700109543158,12.298141129652501,11.250897420224538,13.42987187687765,11.016310682796128,14.553130035441844,10.766760203910088,15.665881187649223,10.503124557424671,16.76609861154421,10.22633740128444,17.851773138515362,9.937383926574665,18.920923506536866,9.637296928702222,19.971607218564635,9.327152490654985,21.001931915604303,9.00806526829196,22.01006727396817,8.681183367616217,22.99425743623812,8.347682803982858,23.95283398545184,8.008761533194054,24.884229472029205,7.665633044433393,25.786991502956155,7.319519504991612,26.659797402743095,6.9716444467358825,27.47493653154598,6.681811123151148,28.27206725312542,6.389052887683505,29.050277815248904,6.093885956942231,29.808660000089397,5.796836142936517,30.546310131240947,5.498438570482363,31.262330080734266,5.1992373946094705,31.955828276052376,4.899785517968166,32.62592070714615,4.6006443082362765,33.271731933449985,4.3023833155260505,33.89239609089731,4.005579989791057,34.48705789893628,3.7108193982330797,35.05487366754533,3.4186939427090213,35.59501230424877,3.1298030771378134,36.10665632113239,2.84475302490731,36.589002841859106,2.5641564962811896"></polyline></clipPath><clipPath id="rightEyeClipPath"><polyline points="-37.97870126997603,-2.39314948826771,-37.63750596426898,-2.7293545964051376,-37.26467089569565,-3.071573559122462,-36.86006561244693,-3.4185101401535176,-36.42364696952774,-3.7689193725173764,-35.9554561899911,-4.121606723234222,-35.455615926172165,-4.475427258041241,-34.92432732092231,-4.829284806108514,-34.361867068843075,-5.182131124754895,-33.76858447752025,-5.532965064163904,-33.14489852875793,-5.880831732099614,-32.4912949398125,-6.224821658622525,-31.80832322462673,-6.564069960805473,-31.096593755063758,-6.897755507449504,-30.356774822141148,-7.225100083799755,-29.589589697264937,-7.545367556261357,-28.862044015620693,-7.983325280064341,-28.084520728288442,-8.40933597143638,-27.25802644000989,-8.821838606659057,-26.383895802916488,-9.219384075756196,-25.46376053442808,-9.600633607733247,-24.49951962504873,-9.964357088815401,-23.49331071563729,-10.30943127717596,-22.44748262373013,-10.634837917646362,-21.36456899849355,-10.939661759899355,-20.247263083883308,-11.223088483596758,-19.098393569588755,-11.484402533993308,-17.920901509339103,-11.722984871487924,-16.71781828614924,-11.938310638614045,-15.49224460408259,-12.1299467479603,-14.247330486108522,-12.297549394513112,-12.986256257631766,-12.440861495912582,-11.712214495271287,-12.559710064113212,-10.428392920466187,-12.654003511940832,-9.137958217485982,-12.723728898037269,-7.84404075542286,-12.768949113684144,-6.549720193743289,-12.78980001499728,-5.258011950976562,-12.786487503983224,-3.971854516117641,-12.759284561949237,-2.6940975823219007,-12.70852823875832,-1.427490982469124,-12.634616601420674,-0.17467440617435326,-12.538005645513014,1.061832122177027,-12.419206172917285,2.2796370247924425,-12.278780639370176,3.4764852316560515,-12.117339975314902,4.650265541955942,-11.935540383546698,5.799017306177179,-11.734080117143499,6.920936449283142,-11.513696241173282,8.014380855407762,-11.275161381669463,9.077875134481078,-11.019280465365856,10.11011479121077,-10.746887453682675,11.10996981684202,-10.458842074454935,12.076487724118394,-10.156026554894826,13.00889604586614,-9.839342359279438,13.906604317624483,-9.509706934855348,14.769205564744444,-9.168050469451451,15.596477314378633,-8.815312664291561,16.388382152784654,-8.452439525498221,17.145067848364533,-8.08038017777918,17.866867060862784,-7.700083703787958,18.55429665714549,-7.312496012649988,19.20805665398317,-6.918556741145829,19.82902880825965,-6.519196191042803,20.418274875029738,-6.115332306066615,20.97703455384796,-5.707867692004359,21.506723143791174,-5.297686683430386,22.00776771947402,-4.883643824551632,22.47977678682478,-4.464295688535049,22.923097835196533,-4.04005576468625,23.33811601588342,-3.611325901369608,23.725251406961473,-3.1784958384024637,24.08495627812947,-2.741942739449314,24.417712355549888,-2.30203072441606,24.72402808668974,-1.8591104018441778,25.004435905161408,-1.4135184013049669,25.259489495563642,-0.9655769057937444,25.4897610583223,-0.5155931841240537,25.69583857453135,-0.06385912332188282,25.878323070793662,0.38934923898012785,26.03782588406193,0.8437721821484778,27.32661911800647,3.8673620257618024,27.008251229999143,4.219035710111901,26.674701050900797,4.567838544948152,26.325702813997605,4.9135027340217805,25.961001896875352,5.255749063002242,25.580355393108135,5.5942877757683025,25.18353268394705,5.9288194506991285,24.770316010008827,6.259035876965381,24.340501042964593,6.5846209308203,23.893897457228462,6.905251451890808,23.430329501646277,7.220598119468579,22.949636571184257,7.530326328801145,22.451673778617696,7.834097067382977,21.936312526219623,8.131567791246582,21.403441077449518,8.422393301253585,20.852311591245744,8.707854000449291,20.281820234634996,8.988906067674128,19.691387787073808,9.264725547966426,19.080507221378245,9.53450240699026,18.44874466617776,9.797442847332656,17.79574025953899,10.052771609985722,17.121208889490774,10.299734254470671,16.424940817181696,10.537599411060807,15.706802178401746,10.765660998560431,14.966735359199307,10.983240401096793,14.20475924132497,11.189688597382034,13.420969313233511,11.384388235902154,12.615537642375417,11.566755649490116,11.788712704509448,11.736242802739955,10.940819065767466,11.892339165719108,10.072256913203061,12.034573507435823,9.183501429555312,12.162515602518805,8.27510200795904,12.27577784456598,7.347681302333042,12.3740167596196,6.4019341091775654,12.456934413224516,5.438626076512525,12.52427970452679,4.458592235687812,12.57584954086957,3.462735351797081,12.611489886343367,2.452024088426383,12.63109667774761,1.427490982469124,12.634616601420674,0.39023022473862,12.622047724395273,-0.6586047578902465,12.59343997333632,-1.7178039230789892,12.548895454718231,-2.786103440631585,12.488568609698756,-3.8621887313773726,12.412666197146319,-4.944697721599304,12.3214470982779,-6.032224317276216,12.215221936364507,-7.123322102407682,12.094352504961233,-8.216508265690099,11.95925099811896,-9.31026775981258,11.810379036034703,-10.4030576976413,11.648246479597663,-11.493311989560842,11.473410027287922,-12.579446226241243,11.286471587884986,-13.659862811099243,11.088076422442953,-14.732956346722448,10.878911048989586,-15.797119279524942,10.65970090340614,-16.850747806902994,10.431207749945036,-17.89224805115943,10.19422683484241,-18.920042504465357,9.94958377648257,-19.93257674912775,9.698131185571338,-20.928326457431577,9.440745008775373,-21.90580467532507,9.178320589284457,-22.863569394216686,8.911768437753768,-23.80023141515247,8.642009707083204,-24.71446250964232,8.369971364490734,-25.53973011727891,8.145203537630913,-26.35067819223372,7.91762969864851,-27.14639352841105,7.687632335362246,-27.925949753865392,7.455602462070851,-28.68840764373385,7.22193946384627,-29.43281543316859,6.98705094082687,-30.158209130269324,6.751352552510655,-30.863612829015732,6.5152678620484705,-31.54803902219994,6.279228180537214,-32.21048891435894,6.04367241131305,-32.849952734707095,5.809046894244611,-33.465410050068535,5.575805250026215,-34.05583007780964,5.34440822447107,-34.620171998771475,5.115323532804487,-35.157385270202305,4.889025703957088"></polyline></clipPath><filter id="fuzzy"><feTurbulence id="turbulence" baseFrequency="0.05" numOctaves="3" type="noise" result="noise"></feTurbulence><feDisplacementMap in="SourceGraphic" in2="noise" scale="2"></feDisplacementMap></filter><linearGradient id="rainbowGradient" x1="0%" y1="0%" x2="100%" y2="0%"><stop offset="0%" style="stop-color: rgb(128, 128, 128);  stop-opacity: 1"></stop><stop offset="50%" style="stop-color: rgb(220, 20, 60);  stop-opacity: 1"></stop><stop offset="100%" style="stop-color: rgb(220, 208, 186);  stop-opacity: 1"></stop></linearGradient></defs><title>That&#39;s an ugly face</title><desc>CREATED BY XUAN TANG, MORE INFO AT TXSTC55.GITHUB.IO</desc><rect x="-100" y="-100" width="100%" height="100%" opacity="1" fill="rgb(0, 0, 139)"></rect><polyline id="faceContour" points="79,0,79,1,79,2,79,2,79,5,79,6,79,6,79,10,78,9,78,12,78,14,78,13,77,16,78,16,77,19,77,19,76,21,76,20,75,24,75,23,75,26,74,27,74,28,74,28,73,29,72,32,72,34,71,34,70,36,70,37,70,37,68,39,68,41,67,42,67,41,66,43,66,44,65,45,64,47,63,49,64,48,62,50,61,51,61,51,59,54,59,53,57,56,58,55,56,57,55,58,54,59,53,60,54,60,52,62,51,63,50,64,50,63,49,64,47,66,47,66,45,68,45,68,44,68,41,70,41,71,39,72,40,71,37,73,37,73,36,74,34,75,33,76,34,75,32,76,30,77,29,77,28,78,27,78,27,78,24,80,23,80,21,81,22,81,19,81,19,81,18,82,16,83,17,82,15,82,13,83,13,83,12,83,10,84,10,84,8,84,5,84,5,84,2,85,1,85,2,85,0,85,-2,85,-3,85,-4,85,-5,85,-6,85,-7,85,-9,84,-8,84,-9,84,-11,84,-14,84,-14,84,-16,84,-16,83,-19,83,-19,83,-19,83,-22,82,-21,82,-24,82,-24,82,-24,81,-28,80,-28,80,-29,80,-31,79,-31,79,-32,78,-32,78,-35,76,-36,76,-37,76,-37,76,-40,74,-40,74,-41,74,-42,72,-42,73,-45,70,-47,69,-46,69,-47,69,-48,68,-49,67,-49,67,-52,64,-52,64,-53,63,-54,62,-54,63,-56,60,-57,59,-57,59,-58,57,-59,57,-60,54,-60,56,-61,54,-62,53,-63,51,-63,51,-64,51,-65,47,-66,47,-66,46,-67,44,-67,44,-69,41,-69,40,-70,39,-70,39,-71,37,-71,35,-72,35,-73,32,-73,32,-73,32,-74,29,-74,28,-75,27,-75,25,-75,25,-76,23,-76,24,-77,20,-77,20,-78,16,-78,15,-78,14,-78,12,-78,12,-79,11,-79,9,-79,8,-79,7,-79,5,-80,3,-80,4,-80,2,-80,-1,-80,0,-80,-4,-80,-4,-80,-5,-80,-6,-80,-9,-79,-11,-79,-11,-79,-13,-79,-13,-79,-17,-79,-16,-79,-19,-79,-20,-78,-20,-78,-23,-78,-23,-77,-25,-77,-27,-77,-26,-76,-29,-76,-31,-76,-30,-75,-32,-75,-33,-74,-37,-75,-35,-73,-38,-73,-40,-72,-41,-72,-41,-72,-42,-71,-43,-70,-46,-70,-46,-69,-48,-68,-49,-67,-50,-67,-50,-66,-52,-65,-52,-64,-55,-65,-54,-65,-54,-63,-56,-62,-57,-62,-58,-61,-58,-58,-62,-58,-62,-58,-63,-58,-62,-56,-64,-54,-66,-55,-65,-53,-67,-52,-67,-52,-68,-49,-69,-49,-70,-49,-70,-48,-70,-45,-73,-44,-73,-42,-75,-43,-73,-43,-74,-41,-75,-40,-76,-38,-77,-37,-77,-35,-78,-35,-78,-34,-78,-32,-79,-32,-79,-29,-80,-27,-81,-28,-81,-27,-81,-25,-82,-23,-82,-21,-83,-20,-83,-19,-83,-18,-83,-17,-84,-17,-84,-16,-84,-13,-84,-10,-85,-11,-84,-9,-84,-9,-84,-6,-85,-6,-85,-4,-85,-1,-85,-2,-85,0,-85,1,-85,3,-85,5,-84,5,-85,7,-84,7,-84,9,-84,9,-84,12,-83,13,-83,14,-83,14,-83,17,-82,17,-82,18,-83,22,-81,23,-81,25,-80,25,-80,27,-80,26,-80,27,-79,30,-79,31,-78,33,-77,34,-77,35,-76,36,-75,37,-75,38,-74,40,-73,41,-73,41,-73,42,-73,45,-70,45,-70,45,-70,47,-69,48,-68,49,-67,51,-65,51,-66,53,-64,51,-65,53,-64,55,-62,56,-61,56,-61,57,-60,59,-59,60,-57,60,-57,62,-55,62,-55,63,-54,64,-52,65,-52,66,-50,65,-51,65,-50,67,-47,68,-46,67,-47,69,-45,70,-44,71,-41,71,-41,71,-41,72,-39,73,-36,73,-37,73,-35,74,-34,74,-33,75,-31,75,-32,76,-29,76,-28,77,-25,77,-25,77,-25,77,-24,77,-24,78,-19,79,-17,79,-19,79,-17,79,-16,79,-16,79,-12,80,-11,79,-11,79,-10,80,-8,80,-5,80,-6,80,-5,80,-1,80,0,79,0,79,1" fill="#ffc9a9" stroke="black" stroke-width="1.6666666666666665" stroke-linejoin="round" filter="url(#fuzzy)"></polyline><g transform="translate(32.41484151959112 -24.043891427930767)"><polyline id="rightCountour" points="-37.97870126997603,-2.39314948826771,-37.63750596426898,-2.7293545964051376,-37.26467089569565,-3.071573559122462,-36.86006561244693,-3.4185101401535176,-36.42364696952774,-3.7689193725173764,-35.9554561899911,-4.121606723234222,-35.455615926172165,-4.475427258041241,-34.92432732092231,-4.829284806108514,-34.361867068843075,-5.182131124754895,-33.76858447752025,-5.532965064163904,-33.14489852875793,-5.880831732099614,-32.4912949398125,-6.224821658622525,-31.80832322462673,-6.564069960805473,-31.096593755063758,-6.897755507449504,-30.356774822141148,-7.225100083799755,-29.589589697264937,-7.545367556261357,-28.862044015620693,-7.983325280064341,-28.084520728288442,-8.40933597143638,-27.25802644000989,-8.821838606659057,-26.383895802916488,-9.219384075756196,-25.46376053442808,-9.600633607733247,-24.49951962504873,-9.964357088815401,-23.49331071563729,-10.30943127717596,-22.44748262373013,-10.634837917646362,-21.36456899849355,-10.939661759899355,-20.247263083883308,-11.223088483596758,-19.098393569588755,-11.484402533993308,-17.920901509339103,-11.722984871487924,-16.71781828614924,-11.938310638614045,-15.49224460408259,-12.1299467479603,-14.247330486108522,-12.297549394513112,-12.986256257631766,-12.440861495912582,-11.712214495271287,-12.559710064113212,-10.428392920466187,-12.654003511940832,-9.137958217485982,-12.723728898037269,-7.84404075542286,-12.768949113684144,-6.549720193743289,-12.78980001499728,-5.258011950976562,-12.786487503983224,-3.971854516117641,-12.759284561949237,-2.6940975823219007,-12.70852823875832,-1.427490982469124,-12.634616601420674,-0.17467440617435326,-12.538005645513014,1.061832122177027,-12.419206172917285,2.2796370247924425,-12.278780639370176,3.4764852316560515,-12.117339975314902,4.650265541955942,-11.935540383546698,5.799017306177179,-11.734080117143499,6.920936449283142,-11.513696241173282,8.014380855407762,-11.275161381669463,9.077875134481078,-11.019280465365856,10.11011479121077,-10.746887453682675,11.10996981684202,-10.458842074454935,12.076487724118394,-10.156026554894826,13.00889604586614,-9.839342359279438,13.906604317624483,-9.509706934855348,14.769205564744444,-9.168050469451451,15.596477314378633,-8.815312664291561,16.388382152784654,-8.452439525498221,17.145067848364533,-8.08038017777918,17.866867060862784,-7.700083703787958,18.55429665714549,-7.312496012649988,19.20805665398317,-6.918556741145829,19.82902880825965,-6.519196191042803,20.418274875029738,-6.115332306066615,20.97703455384796,-5.707867692004359,21.506723143791174,-5.297686683430386,22.00776771947402,-4.883643824551632,22.47977678682478,-4.464295688535049,22.923097835196533,-4.04005576468625,23.33811601588342,-3.611325901369608,23.725251406961473,-3.1784958384024637,24.08495627812947,-2.741942739449314,24.417712355549888,-2.30203072441606,24.72402808668974,-1.8591104018441778,25.004435905161408,-1.4135184013049669,25.259489495563642,-0.9655769057937444,25.4897610583223,-0.5155931841240537,25.69583857453135,-0.06385912332188282,25.878323070793662,0.38934923898012785,26.03782588406193,0.8437721821484778,27.32661911800647,3.8673620257618024,27.008251229999143,4.219035710111901,26.674701050900797,4.567838544948152,26.325702813997605,4.9135027340217805,25.961001896875352,5.255749063002242,25.580355393108135,5.5942877757683025,25.18353268394705,5.9288194506991285,24.770316010008827,6.259035876965381,24.340501042964593,6.5846209308203,23.893897457228462,6.905251451890808,23.430329501646277,7.220598119468579,22.949636571184257,7.530326328801145,22.451673778617696,7.834097067382977,21.936312526219623,8.131567791246582,21.403441077449518,8.422393301253585,20.852311591245744,8.707854000449291,20.281820234634996,8.988906067674128,19.691387787073808,9.264725547966426,19.080507221378245,9.53450240699026,18.44874466617776,9.797442847332656,17.79574025953899,10.052771609985722,17.121208889490774,10.299734254470671,16.424940817181696,10.537599411060807,15.706802178401746,10.765660998560431,14.966735359199307,10.983240401096793,14.20475924132497,11.189688597382034,13.420969313233511,11.384388235902154,12.615537642375417,11.566755649490116,11.788712704509448,11.736242802739955,10.940819065767466,11.892339165719108,10.072256913203061,12.034573507435823,9.183501429555312,12.162515602518805,8.27510200795904,12.27577784456598,7.347681302333042,12.3740167596196,6.4019341091775654,12.456934413224516,5.438626076512525,12.52427970452679,4.458592235687812,12.57584954086957,3.462735351797081,12.611489886343367,2.452024088426383,12.63109667774761,1.427490982469124,12.634616601420674,0.39023022473862,12.622047724395273,-0.6586047578902465,12.59343997333632,-1.7178039230789892,12.548895454718231,-2.786103440631585,12.488568609698756,-3.8621887313773726,12.412666197146319,-4.944697721599304,12.3214470982779,-6.032224317276216,12.215221936364507,-7.123322102407682,12.094352504961233,-8.216508265690099,11.95925099811896,-9.31026775981258,11.810379036034703,-10.4030576976413,11.648246479597663,-11.493311989560842,11.473410027287922,-12.579446226241243,11.286471587884986,-13.659862811099243,11.088076422442953,-14.732956346722448,10.878911048989586,-15.797119279524942,10.65970090340614,-16.850747806902994,10.431207749945036,-17.89224805115943,10.19422683484241,-18.920042504465357,9.94958377648257,-19.93257674912775,9.698131185571338,-20.928326457431577,9.440745008775373,-21.90580467532507,9.178320589284457,-22.863569394216686,8.911768437753768,-23.80023141515247,8.642009707083204,-24.71446250964232,8.369971364490734,-25.53973011727891,8.145203537630913,-26.35067819223372,7.91762969864851,-27.14639352841105,7.687632335362246,-27.925949753865392,7.455602462070851,-28.68840764373385,7.22193946384627,-29.43281543316859,6.98705094082687,-30.158209130269324,6.751352552510655,-30.863612829015732,6.5152678620484705,-31.54803902219994,6.279228180537214,-32.21048891435894,6.04367241131305,-32.849952734707095,5.809046894244611,-33.465410050068535,5.575805250026215,-34.05583007780964,5.34440822447107,-34.620171998771475,5.115323532804487,-35.157385270202305,4.889025703957088" fill="white" stroke="white" stroke-width="0" stroke-linejoin="round" filter="url(#fuzzy)"></polyline></g><g transform="translate(-46.7450778011016 -26.532240749229405)"><polyline id="leftCountour" points="37.6608653675034,-4.530548200701105,37.25766253424439,-4.831690384378524,36.82219595186426,-5.136126465643506,36.35475026384702,-5.442730832268261,35.85567187198717,-5.750429112124012,35.325366608643435,-6.058197205003078,34.7642974089926,-6.3650603144409486,34.17298198328328,-6.6700919795383635,33.551990489089675,-6.972413106783385,32.901943203565416,-7.271191001873487,32.2235081956973,-7.565638401537622,31.517398998559074,-7.855012505358305,30.78437228156526,-8.138614007593691,30.025225522724902,-8.41578612899966,29.240794680895384,-8.685913648651873,28.431951868036172,-8.948421935767877,27.624198890428367,-9.318891899287587,26.772804043665904,-9.67613203326338,25.879043399572282,-10.018899252086609,24.9444541705841,-10.346068367431767,23.97080803891403,-10.656627778882275,22.960085549514922,-10.94967522681504,21.914451548166433,-11.224413607231082,20.83623164600572,-11.48014684821942,19.727889691823503,-11.716275847741494,18.592006233447,-11.932294472423376,17.431257949531144,-12.127785617042967,16.248398033079525,-12.302417324399503,15.046237508016473,-12.455938965252518,13.82762746013173,-12.588177478017634,12.595442163719083,-12.699033667906278,11.352563085230493,-12.7884785651967,10.10186374526706,-12.85654984232346,8.846195420228302,-12.903348289472662,7.588373664941128,-12.929034348370164,6.331165637590037,-12.933824703950041,5.077278208269838,-12.917988933590472,3.829346832482422,-12.881846213604424,2.589925170898994,-12.825762082672231,1.3614754367091662,-12.75014526190341,0.14635945187836796,-12.655444531214975,-1.0531696063649862,-12.54214566171337,-2.2349747874911827,-12.410768403767436,-3.397042296758263,-12.261863530459511,-4.537487790107075,-12.096009936102014,-5.6545620535408325,-11.913811789506672,-6.746656085667794,-11.715895741693716,-7.812305602085617,-11.502908187728226,-8.850194980285961,-11.27551258237092,-9.859160663757862,-11.034386809230575,-10.838194043968592,-10.780220603105441,-11.786443838900329,-10.513713025200675,-12.703217986821507,-10.235569990909337,-13.58798507397109,-9.946501849843917,-14.440375314834675,-9.647221017805824,-15.260181103690709,-9.338439660379983,-16.04735715610554,-9.02086742784183,-16.802020259055865,-8.695209241063923,-17.524448648357076,-8.362163128109483,-18.21508103207616,-8.022418111199974,-18.87451527860763,-7.676652143744129,-19.503506788091123,-7.325530097115551,-20.10296656584928,-6.969701796866165,-20.67395901652426,-6.609800108062823,-21.217699477591793,-6.24643906943419,-21.735551510931046,-5.880212076015303,-22.2280124796588,-5.510190505905874,-22.69483494304869,-5.135241956256153,-23.1363985794217,-4.7556309512750765,-23.55311292172895,-4.371613181570155,-23.945414855957516,-3.9834355460342357,-24.31376611953626,-3.5913361937322477,-24.658650799741793,-3.1955445657879737,-24.980572832104254,-2.7962814372707845,-25.28005349881319,-2.3937589590824158,-25.557628927123478,-1.9881806998437204,-25.813847587761106,-1.5797416877814143,-26.04926779332911,-1.1686284526148452,-26.264455196713392,-0.7550190674427399,-26.459980289488602,-0.33908319062996783,-26.42550850249266,2.490459093376095,-26.138810699274348,2.890030152781841,-25.835837148263728,3.287611886043484,-25.516216668753223,3.682848442771809,-25.179586122795214,4.075365200570075,-24.825591689815894,4.464770110729278,-24.45389014122927,4.8506550439234255,-24.064150115051035,5.232597135904796,-23.656053390512554,5.610160133199207,-23.22929616267476,5.982895738801294,-22.783590317042094,6.35034495786975,-22.31866470417647,6.712039443422627,-21.834266414311156,7.067502842032571,-21.330162051964724,7.416252139522104,-20.80613901055502,7.757799006658898,-20.261781593060135,8.093743750556403,-19.696186762370104,8.425268962946184,-19.108499224937102,8.751266556038267,-18.49796105698018,9.070644460091199,-17.863913351434263,9.382329984042087,-17.205797711878088,9.685273159986021,-16.52315758392345,9.978450061456916,-15.815639414548944,10.260866085461917,-15.08299362986094,10.531559188221584,-14.325075421764815,10.789603064567885,-13.541845334029087,11.034110260952257,-12.733369638225664,11.264235212015782,-11.899820490028727,11.479177190673685,-11.041475856355442,11.678183161666253,-10.158719203831225,11.860550528528341,-9.252038939062382,12.025629763929617,-8.322027591199243,12.172826913337646,-7.369380727272375,12.301605961955975,-6.394895590785039,12.41149105488941,-5.39946945404453,12.502068560488537,-4.384097674715463,12.5729889668257,-3.349871447077801,12.623968601254553,-2.2979752384724996,12.654791163005312,-1.229683901417709,12.665309058767875,-0.14635945187836796,12.655444531214975,0.9505524958279157,12.625190570417404,2.059526647005798,12.574611598103589,3.178962306955109,12.503843914715551,4.30718803325879,12.413095899213472,5.44246666950302,12.30264795158093,6.5830007699466595,12.172852167983018,7.726938424657086,12.024131738529443,8.872379494629563,11.856980057594768,10.017382266407292,11.671959536647924,11.159970535719172,11.469700109543158,12.298141129652501,11.250897420224538,13.42987187687765,11.016310682796128,14.553130035441844,10.766760203910088,15.665881187649223,10.503124557424671,16.76609861154421,10.22633740128444,17.851773138515362,9.937383926574665,18.920923506536866,9.637296928702222,19.971607218564635,9.327152490654985,21.001931915604303,9.00806526829196,22.01006727396817,8.681183367616217,22.99425743623812,8.347682803982858,23.95283398545184,8.008761533194054,24.884229472029205,7.665633044433393,25.786991502956155,7.319519504991612,26.659797402743095,6.9716444467358825,27.47493653154598,6.681811123151148,28.27206725312542,6.389052887683505,29.050277815248904,6.093885956942231,29.808660000089397,5.796836142936517,30.546310131240947,5.498438570482363,31.262330080734266,5.1992373946094705,31.955828276052376,4.899785517968166,32.62592070714615,4.6006443082362765,33.271731933449985,4.3023833155260505,33.89239609089731,4.005579989791057,34.48705789893628,3.7108193982330797,35.05487366754533,3.4186939427090213,35.59501230424877,3.1298030771378134,36.10665632113239,2.84475302490731,36.589002841859106,2.5641564962811896" fill="white" stroke="white" stroke-width="0" stroke-linejoin="round" filter="url(#fuzzy)"></polyline></g><g transform="translate(32.41484151959112 -24.043891427930767)"><polyline id="rightUpper" points="-39.74747454893184,0.3146378349229981,-39.694193305625426,0.12174073811485542,-39.616025220829975,-0.09313614912732815,-39.51180514246766,-0.3281379570588694,-39.380484612934325,-0.5814694380614469,-39.2211289303336,-0.851394131358989,-39.03291420971086,-1.1362335277335571,-38.815124444287335,-1.434366234241235,-38.56714856669406,-1.7442271389280135,-38.28847751020601,-2.0643065755456824,-37.97870126997603,-2.39314948826771,-37.63750596426898,-2.7293545964051376,-37.26467089569565,-3.071573559122462,-36.86006561244693,-3.4185101401535176,-36.42364696952774,-3.7689193725173764,-35.9554561899911,-4.121606723234222,-35.455615926172165,-4.475427258041241,-34.92432732092231,-4.829284806108514,-34.361867068843075,-5.182131124754895,-33.76858447752025,-5.532965064163904,-33.14489852875793,-5.880831732099614,-32.4912949398125,-6.224821658622525,-31.80832322462673,-6.564069960805473,-31.096593755063758,-6.897755507449504,-30.356774822141148,-7.225100083799755,-29.589589697264937,-7.545367556261357,-28.862044015620693,-7.983325280064341,-28.084520728288442,-8.40933597143638,-27.25802644000989,-8.821838606659057,-26.383895802916488,-9.219384075756196,-25.46376053442808,-9.600633607733247,-24.49951962504873,-9.964357088815401,-23.49331071563729,-10.30943127717596,-22.44748262373013,-10.634837917646362,-21.36456899849355,-10.939661759899355,-20.247263083883308,-11.223088483596758,-19.098393569588755,-11.484402533993308,-17.920901509339103,-11.722984871487924,-16.71781828614924,-11.938310638614045,-15.49224460408259,-12.1299467479603,-14.247330486108522,-12.297549394513112,-12.986256257631766,-12.440861495912582,-11.712214495271287,-12.559710064113212,-10.428392920466187,-12.654003511940832,-9.137958217485982,-12.723728898037269,-7.84404075542286,-12.768949113684144,-6.549720193743289,-12.78980001499728,-5.258011950976562,-12.786487503983224,-3.971854516117641,-12.759284561949237,-2.6940975823219007,-12.70852823875832,-1.427490982469124,-12.634616601420674,-0.17467440617435326,-12.538005645513014,1.061832122177027,-12.419206172917285,2.2796370247924425,-12.278780639370176,3.4764852316560515,-12.117339975314902,4.650265541955942,-11.935540383546698,5.799017306177179,-11.734080117143499,6.920936449283142,-11.513696241173282,8.014380855407762,-11.275161381669463,9.077875134481078,-11.019280465365856,10.11011479121077,-10.746887453682675,11.10996981684202,-10.458842074454935,12.076487724118394,-10.156026554894826,13.00889604586614,-9.839342359279438,13.906604317624483,-9.509706934855348,14.769205564744444,-9.168050469451451,15.596477314378633,-8.815312664291561,16.388382152784654,-8.452439525498221,17.145067848364533,-8.08038017777918,17.866867060862784,-7.700083703787958,18.55429665714549,-7.312496012649988,19.20805665398317,-6.918556741145829,19.82902880825965,-6.519196191042803,20.418274875029738,-6.115332306066615,20.97703455384796,-5.707867692004359,21.506723143791174,-5.297686683430386,22.00776771947402,-4.883643824551632,22.47977678682478,-4.464295688535049,22.923097835196533,-4.04005576468625,23.33811601588342,-3.611325901369608,23.725251406961473,-3.1784958384024637,24.08495627812947,-2.741942739449314,24.417712355549888,-2.30203072441606,24.72402808668974,-1.8591104018441778,25.004435905161408,-1.4135184013049669,25.259489495563642,-0.9655769057937444,25.4897610583223,-0.5155931841240537,25.69583857453135,-0.06385912332188282,25.878323070793662,0.38934923898012785,26.03782588406193,0.8437721821484778,26.174965926479544,1.2991667701545815,26.29036695022147,1.7553073191805728,26.384654812335107,2.2119858652250866,26.458454739581207,2.669012631709043,26.512388593274732,3.1262164970814394,26.54707213412572,3.5834454624251557,26.563112287080187,4.040567119062709,26.56110440616101,4.497469116162071,26.541629539308765,4.95405962834244,26.505251693222675,5.410267823280041" fill="none" stroke="black" stroke-width="1.6666666666666665" stroke-linejoin="round" filter="url(#fuzzy)"></polyline><polyline id="rightLower" points="-38.79999697679925,2.8882813095786215,-38.59376549574874,3.059223734236504,-38.349433985182515,3.2380388093180557,-38.06813301249591,3.424192432713007,-37.750986550815924,3.6171557589484955,-37.39911166606882,3.816405354895859,-37.01361820404764,4.021423355477425,-36.59560847747971,4.231697619373296,-36.14617695309427,4.446721884728149,-35.666409938689924,4.665995924858018,-35.157385270202305,4.889025703957088,-34.620171998771475,5.115323532804487,-34.05583007780964,5.34440822447107,-33.465410050068535,5.575805250026215,-32.849952734707095,5.809046894244611,-32.21048891435894,6.04367241131305,-31.54803902219994,6.279228180537214,-30.863612829015732,6.5152678620484705,-30.158209130269324,6.751352552510655,-29.43281543316859,6.98705094082687,-28.68840764373385,7.22193946384627,-27.925949753865392,7.455602462070851,-27.14639352841105,7.687632335362246,-26.35067819223372,7.91762969864851,-25.53973011727891,8.145203537630913,-24.71446250964232,8.369971364490734,-23.80023141515247,8.642009707083204,-22.863569394216686,8.911768437753768,-21.90580467532507,9.178320589284457,-20.928326457431577,9.440745008775373,-19.93257674912775,9.698131185571338,-18.920042504465357,9.94958377648257,-17.89224805115943,10.19422683484241,-16.850747806902994,10.431207749945036,-15.797119279524942,10.65970090340614,-14.732956346722448,10.878911048989586,-13.659862811099243,11.088076422442953,-12.579446226241243,11.286471587884986,-11.493311989560842,11.473410027287922,-10.4030576976413,11.648246479597663,-9.31026775981258,11.810379036034703,-8.216508265690099,11.95925099811896,-7.123322102407682,12.094352504961233,-6.032224317276216,12.215221936364507,-4.944697721599304,12.3214470982779,-3.8621887313773726,12.412666197146319,-2.786103440631585,12.488568609698756,-1.7178039230789892,12.548895454718231,-0.6586047578902465,12.59343997333632,0.39023022473862,12.622047724395273,1.427490982469124,12.634616601420674,2.452024088426383,12.63109667774761,3.462735351797081,12.611489886343367,4.458592235687812,12.57584954086957,5.438626076512525,12.52427970452679,6.4019341091775654,12.456934413224516,7.347681302333042,12.3740167596196,8.27510200795904,12.27577784456598,9.183501429555312,12.162515602518805,10.072256913203061,12.034573507435823,10.940819065767466,11.892339165719108,11.788712704509448,11.736242802739955,12.615537642375417,11.566755649490116,13.420969313233511,11.384388235902154,14.20475924132497,11.189688597382034,14.966735359199307,10.983240401096793,15.706802178401746,10.765660998560431,16.424940817181696,10.537599411060807,17.121208889490774,10.299734254470671,17.79574025953899,10.052771609985722,18.44874466617776,9.797442847332656,19.080507221378245,9.53450240699026,19.691387787073808,9.264725547966426,20.281820234634996,8.988906067674128,20.852311591245744,8.707854000449291,21.403441077449518,8.422393301253585,21.936312526219623,8.131567791246582,22.451673778617696,7.834097067382977,22.949636571184257,7.530326328801145,23.430329501646277,7.220598119468579,23.893897457228462,6.905251451890808,24.340501042964593,6.5846209308203,24.770316010008827,6.259035876965381,25.18353268394705,5.9288194506991285,25.580355393108135,5.5942877757683025,25.961001896875352,5.255749063002242,26.325702813997605,4.9135027340217805,26.674701050900797,4.567838544948152,27.008251229999143,4.219035710111901,27.32661911800647,3.8673620257618024,27.630081054247572,3.513072993773758,27.918923378969517,3.1564109453597142,28.193441861652918,2.797604164776569,28.453941129323344,2.4368660130350883,28.70073409486257,2.0743940516088086,28.93414138531993,1.7103691661429457,29.15449077022362,1.3449546901633136,29.362116589892015,0.9782955287852286,29.557359183745003,0.6105172824224234,29.74056431861533,0.24172537049595144" fill="none" stroke="black" stroke-width="2.2222222222222223" stroke-linejoin="round" filter="url(#fuzzy)"></polyline><!--[--><circle r="4.823151183763869" cx="16.04634702607278" cy="-3.3167352278742492" stroke="black" fill="none" stroke-width="1" filter="url(#fuzzy)" clip-path="url(#rightEyeClipPath)"></circle><circle r="4.606497942169831" cx="13.243664579642006" cy="-1.6427466634040888" stroke="black" fill="none" stroke-width="1" filter="url(#fuzzy)" clip-path="url(#rightEyeClipPath)"></circle><circle r="4.260740758990547" cx="11.326999842359518" cy="-6.11585080425521" stroke="black" fill="none" stroke-width="1" filter="url(#fuzzy)" clip-path="url(#rightEyeClipPath)"></circle><circle r="3.4339878093237926" cx="15.135752312420713" cy="-1.8852592662276564" stroke="black" fill="none" stroke-width="1" filter="url(#fuzzy)" clip-path="url(#rightEyeClipPath)"></circle><circle r="4.3413114903236965" cx="15.149070464081912" cy="-1.2862179722996734" stroke="black" fill="none" stroke-width="1" filter="url(#fuzzy)" clip-path="url(#rightEyeClipPath)"></circle><circle r="4.93257182631435" cx="14.939973541939334" cy="-2.2556240265690066" stroke="black" fill="none" stroke-width="1" filter="url(#fuzzy)" clip-path="url(#rightEyeClipPath)"></circle><circle r="3.176232403015737" cx="14.711760638043156" cy="-5.075868816430448" stroke="black" fill="none" stroke-width="1" filter="url(#fuzzy)" clip-path="url(#rightEyeClipPath)"></circle><circle r="3.0032228980485933" cx="13.14320212376788" cy="-4.888681198245153" stroke="black" fill="none" stroke-width="1" filter="url(#fuzzy)" clip-path="url(#rightEyeClipPath)"></circle><circle r="4.700353380446488" cx="13.424181627540268" cy="-1.741567876057018" stroke="black" fill="none" stroke-width="1" filter="url(#fuzzy)" clip-path="url(#rightEyeClipPath)"></circle><circle r="3.645199163638022" cx="14.72774557062203" cy="-6.192387692745708" stroke="black" fill="none" stroke-width="1" filter="url(#fuzzy)" clip-path="url(#rightEyeClipPath)"></circle><!--]--></g><g transform="translate(-46.7450778011016 -26.532240749229405)"><polyline id="leftUpper" points="39.90458327185665,-1.9865003843519695,39.824422154582635,-2.180829850627872,39.713059664590496,-2.3927405413578757,39.5700348362177,-2.6205411935383363,39.39497173957437,-2.8626014660438446,39.18757715279701,-3.1173509714493033,38.94763823430237,-3.3832783078520046,38.67502019504108,-3.6589300906937083,38.3696639707516,-3.9429099845827222,38.03158389421394,-4.233877735115977,37.6608653675034,-4.530548200701105,37.25766253424439,-4.831690384378524,36.82219595186426,-5.136126465643506,36.35475026384702,-5.442730832268261,35.85567187198717,-5.750429112124012,35.325366608643435,-6.058197205003078,34.7642974089926,-6.3650603144409486,34.17298198328328,-6.6700919795383635,33.551990489089675,-6.972413106783385,32.901943203565416,-7.271191001873487,32.2235081956973,-7.565638401537622,31.517398998559074,-7.855012505358305,30.78437228156526,-8.138614007593691,30.025225522724902,-8.41578612899966,29.240794680895384,-8.685913648651873,28.431951868036172,-8.948421935767877,27.624198890428367,-9.318891899287587,26.772804043665904,-9.67613203326338,25.879043399572282,-10.018899252086609,24.9444541705841,-10.346068367431767,23.97080803891403,-10.656627778882275,22.960085549514922,-10.94967522681504,21.914451548166433,-11.224413607231082,20.83623164600572,-11.48014684821942,19.727889691823503,-11.716275847741494,18.592006233447,-11.932294472423376,17.431257949531144,-12.127785617042967,16.248398033079525,-12.302417324399503,15.046237508016473,-12.455938965252518,13.82762746013173,-12.588177478017634,12.595442163719083,-12.699033667906278,11.352563085230493,-12.7884785651967,10.10186374526706,-12.85654984232346,8.846195420228302,-12.903348289472662,7.588373664941128,-12.929034348370164,6.331165637590037,-12.933824703950041,5.077278208269838,-12.917988933590472,3.829346832482422,-12.881846213604424,2.589925170898994,-12.825762082672231,1.3614754367091662,-12.75014526190341,0.14635945187836796,-12.655444531214975,-1.0531696063649862,-12.54214566171337,-2.2349747874911827,-12.410768403767436,-3.397042296758263,-12.261863530459511,-4.537487790107075,-12.096009936102014,-5.6545620535408325,-11.913811789506672,-6.746656085667794,-11.715895741693716,-7.812305602085617,-11.502908187728226,-8.850194980285961,-11.27551258237092,-9.859160663757862,-11.034386809230575,-10.838194043968592,-10.780220603105441,-11.786443838900329,-10.513713025200675,-12.703217986821507,-10.235569990909337,-13.58798507397109,-9.946501849843917,-14.440375314834675,-9.647221017805824,-15.260181103690709,-9.338439660379983,-16.04735715610554,-9.02086742784183,-16.802020259055865,-8.695209241063923,-17.524448648357076,-8.362163128109483,-18.21508103207616,-8.022418111199974,-18.87451527860763,-7.676652143744129,-19.503506788091123,-7.325530097115551,-20.10296656584928,-6.969701796866165,-20.67395901652426,-6.609800108062823,-21.217699477591793,-6.24643906943419,-21.735551510931046,-5.880212076015303,-22.2280124796588,-5.510190505905874,-22.69483494304869,-5.135241956256153,-23.1363985794217,-4.7556309512750765,-23.55311292172895,-4.371613181570155,-23.945414855957516,-3.9834355460342357,-24.31376611953626,-3.5913361937322477,-24.658650799741793,-3.1955445657879737,-24.980572832104254,-2.7962814372707845,-25.28005349881319,-2.3937589590824158,-25.557628927123478,-1.9881806998437204,-25.813847587761106,-1.5797416877814143,-26.04926779332911,-1.1686284526148452,-26.264455196713392,-0.7550190674427399,-26.459980289488602,-0.33908319062996783,-26.636415900324007,0.07901789230570766,-26.794334693389366,0.49913122680687316,-26.934306666760754,0.921112147389705,-27.056896650826484,1.3448242357572124,-27.1626618066929,1.7701392789124832,-27.25214912459034,2.196937227271938,-27.325892922278904,2.6251061527785513,-27.384412343454365,3.0545422070151114,-27.428208856154065,3.48514957931746,-27.457763751162688,3.9168404548877342" fill="none" stroke="black" stroke-width="2.2222222222222223" stroke-linejoin="round" filter="url(#fuzzy)"></polyline><polyline id="leftLower" points="39.63693628918326,0.1420036311043345,39.48778836545256,0.3431408005675085,39.30233936236591,0.5551532039607446,39.08119065463152,0.7773788048824928,38.82496829869063,1.0091592278760488,38.534322025702025,1.2498400410226542,38.209924234526355,1.498771038534589,37.8524689847106,1.755306523348274,37.462670989472386,2.0188055897173665,37.04126460868448,2.2886324058058625,36.589002841859106,2.5641564962811896,36.10665632113239,2.84475302490731,35.59501230424877,3.1298030771378134,35.05487366754533,3.4186939427090213,34.48705789893628,3.7108193982330797,33.89239609089731,4.005579989791057,33.271731933449985,4.3023833155260505,32.62592070714615,4.6006443082362765,31.955828276052376,4.899785517968166,31.262330080734266,5.1992373946094705,30.546310131240947,5.498438570482363,29.808660000089397,5.796836142936517,29.050277815248904,6.093885956942231,28.27206725312542,6.389052887683505,27.47493653154598,6.681811123151148,26.659797402743095,6.9716444467358825,25.786991502956155,7.319519504991612,24.884229472029205,7.665633044433393,23.95283398545184,8.008761533194054,22.99425743623812,8.347682803982858,22.01006727396817,8.681183367616217,21.001931915604303,9.00806526829196,19.971607218564635,9.327152490654985,18.920923506536866,9.637296928702222,17.851773138515362,9.937383926574665,16.76609861154421,10.22633740128444,15.665881187649223,10.503124557424671,14.553130035441844,10.766760203910088,13.42987187687765,11.016310682796128,12.298141129652501,11.250897420224538,11.159970535719172,11.469700109543158,10.017382266407292,11.671959536647924,8.872379494629563,11.856980057594768,7.726938424657086,12.024131738529443,6.5830007699466595,12.172852167983018,5.44246666950302,12.30264795158093,4.30718803325879,12.413095899213472,3.178962306955109,12.503843914715551,2.059526647005798,12.574611598103589,0.9505524958279157,12.625190570417404,-0.14635945187836796,12.655444531214975,-1.229683901417709,12.665309058767875,-2.2979752384724996,12.654791163005312,-3.349871447077801,12.623968601254553,-4.384097674715463,12.5729889668257,-5.39946945404453,12.502068560488537,-6.394895590785039,12.41149105488941,-7.369380727272375,12.301605961955975,-8.322027591199243,12.172826913337646,-9.252038939062382,12.025629763929617,-10.158719203831225,11.860550528528341,-11.041475856355442,11.678183161666253,-11.899820490028727,11.479177190673685,-12.733369638225664,11.264235212015782,-13.541845334029087,11.034110260952257,-14.325075421764815,10.789603064567885,-15.08299362986094,10.531559188221584,-15.815639414548944,10.260866085461917,-16.52315758392345,9.978450061456916,-17.205797711878088,9.685273159986021,-17.863913351434263,9.382329984042087,-18.49796105698018,9.070644460091199,-19.108499224937102,8.751266556038267,-19.696186762370104,8.425268962946184,-20.261781593060135,8.093743750556403,-20.80613901055502,7.757799006658898,-21.330162051964724,7.416252139522104,-21.834266414311156,7.067502842032571,-22.31866470417647,6.712039443422627,-22.783590317042094,6.35034495786975,-23.22929616267476,5.982895738801294,-23.656053390512554,5.610160133199207,-24.064150115051035,5.232597135904796,-24.45389014122927,4.8506550439234255,-24.825591689815894,4.464770110729278,-25.179586122795214,4.075365200570075,-25.516216668753223,3.682848442771809,-25.835837148263728,3.287611886043484,-26.138810699274348,2.890030152781841,-26.42550850249266,2.490459093376095,-26.696308506772183,2.08923444051267,-26.951594154498537,1.6866704634799288,-27.191753106975405,1.2830586224729095,-27.417175969810707,0.8786662228980535,-27.62825501830256,0.47373506967795054,-27.82538292282547,0.06848012155604882,-28.008951474216275,-0.3369118545985844,-28.179350309160284,-0.742283629486548,-28.336965635577343,-1.1475088570733607,-28.48217895800787,-1.5524934202847436" fill="none" stroke="black" stroke-width="2.2222222222222223" stroke-linejoin="round" filter="url(#fuzzy)"></polyline><!--[--><circle r="3.1261888126675323" cx="16.62975186390194" cy="-0.05793033586283558" stroke="black" fill="none" stroke-width="1" filter="url(#fuzzy)" clip-path="url(#leftEyeClipPath)"></circle><circle r="3.0703721291828643" cx="19.492009024936216" cy="-0.4236622760091717" stroke="black" fill="none" stroke-width="1" filter="url(#fuzzy)" clip-path="url(#leftEyeClipPath)"></circle><circle r="4.705658256972449" cx="18.630739217090365" cy="-0.023756541462577108" stroke="black" fill="none" stroke-width="1" filter="url(#fuzzy)" clip-path="url(#leftEyeClipPath)"></circle><circle r="4.508061575379426" cx="17.03139948935854" cy="-1.4401335162520632" stroke="black" fill="none" stroke-width="1" filter="url(#fuzzy)" clip-path="url(#leftEyeClipPath)"></circle><circle r="3.9621122770614763" cx="18.274477689578426" cy="0.5820280514138196" stroke="black" fill="none" stroke-width="1" filter="url(#fuzzy)" clip-path="url(#leftEyeClipPath)"></circle><circle r="3.963133024669759" cx="18.386548325244277" cy="-3.1107355444898" stroke="black" fill="none" stroke-width="1" filter="url(#fuzzy)" clip-path="url(#leftEyeClipPath)"></circle><circle r="3.1573212490328095" cx="18.113007886034875" cy="0.9352369266938605" stroke="black" fill="none" stroke-width="1" filter="url(#fuzzy)" clip-path="url(#leftEyeClipPath)"></circle><circle r="4.308493456522314" cx="15.271950372307959" cy="1.2408099658772493" stroke="black" fill="none" stroke-width="1" filter="url(#fuzzy)" clip-path="url(#leftEyeClipPath)"></circle><circle r="3.658686896279424" cx="18.781629309999943" cy="-2.224346196070229" stroke="black" fill="none" stroke-width="1" filter="url(#fuzzy)" clip-path="url(#leftEyeClipPath)"></circle><circle r="3.509719659159143" cx="19.844508374869957" cy="-3.157044557151886" stroke="black" fill="none" stroke-width="1" filter="url(#fuzzy)" clip-path="url(#leftEyeClipPath)"></circle><!--]--></g><g id="hairs"><!--[--><polyline points="-42,-75,-42.371426695607774,-74.11643956260252,-41.710619390407054,-74.42182304137555,-40.373543578914024,-75.20599089121856,-38.7120562699308,-76.11070016329664,-36.98863165442964,-76.96142249719796,-35.379256865049804,-77.68786624930773,-33.97715389373781,-78.27702239937717,-32.80754470859495,-78.74074654295283,-31.871995022691532,-79.09130979504292,-31.20504305078196,-79.32436115168912,-30.895966873344584,-79.41604872302335,-31.053433867455695,-79.3360790961455,-31.765829128071346,-79.05867916723861,-33.11577361770019,-78.56705181535736" fill="none" stroke="rgb(80, 68, 68)" stroke-width="2" stroke-linejoin="round" filter="url(#fuzzy)"></polyline><polyline points="66,-50,65.41870043736283,-50.25588779032628,65.38734229922693,-49.67013976836287,65.43147303681525,-49.02827569113261,65.24896788008061,-48.69292847159334,64.75433067176898,-48.6840774897563,63.92493211168297,-48.93485254381237,62.70769896323999,-49.43858285421189,61.019253797822934,-50.25659319789083,58.78193664550781,-51.46152687072754,55.946877280058544,-53.0939612207645,52.49458377021722,-55.16344747704871,48.42649935326472,-57.6761333687061,43.75798584213883,-60.65362678312086,38.51233986943468,-64.12613174307258,32.715768408534984,-68.11045790965186,26.393894789540795,-72.59292344221583,19.536733149425828,-77.54176996322846" fill="none" stroke="rgb(80, 68, 68)" stroke-width="2" stroke-linejoin="round" filter="url(#fuzzy)"></polyline><polyline points="51,-66,51.725699853948704,-64.93511303336747,51.652237557664414,-64.41163963909034,51.44196522772698,-63.82406962772515,50.95284795323077,-63.196573796775745,50.00188340568422,-62.63070949260408,48.512450188571584,-62.155780587051,46.46696705603908,-61.75438916075392,43.853692737040646,-61.41513359027557,40.65149916303813,-61.15322635669675,36.83358229046776,-60.99752053298137,32.36843795179343,-60.966061572893445,27.21651978495136,-61.05288859731334,21.333051902174763,-61.23684733479101,14.682072445344122,-61.50575470983931,7.252915004742825,-61.8743945014004,-0.9376106102991244,-62.37383408513039,-9.866552873946208,-63.011715627796576,-19.534320152888913,-63.743936197551186,-29.957850145417204,-64.52680559360272,-41.10491354559403,-65.47619434544252" fill="none" stroke="rgb(80, 68, 68)" stroke-width="2" stroke-linejoin="round" filter="url(#fuzzy)"></polyline><polyline points="-34,-78,-32.51176079408409,-78.71039754148389,-31.13849577247427,-79.29386510038526,-29.802735404095472,-79.85897903205287,-28.6524489081609,-80.35111069802923,-27.66675879203935,-80.74941311815842,-26.755912134262402,-81.06800498004962,-25.886513599312014,-81.31905146962856,-25.109803265848893,-81.4961250062145,-24.522374531441564,-81.57988861614311,-24.213418309827496,-81.55130293787671,-24.230259410485274,-81.40052162232601,-24.57000349097732,-81.12783440616644,-25.19396414260597,-80.73857675512431,-26.059245935986837,-80.23479654142096,-27.15829278778213,-79.60573408741061,-28.547625599730083,-78.82143169894755,-30.33947271192715,-77.83873231443619,-32.64182952380608,-76.62784288923086,-35.47326040498686,-75.20957848657957,-38.73106475418109,-73.66137184243983,-42.31080597299421,-72.03804070025251,-46.42085558336375,-70.22887232799657" fill="none" stroke="rgb(80, 68, 68)" stroke-width="2" stroke-linejoin="round" filter="url(#fuzzy)"></polyline><polyline points="3,-85,4.453472691180195,-84.53797141831862,5.653840879052996,-84.35347772893954,6.896467101194892,-84.14233040500841,8.227806696216437,-83.89707636003196,9.654764168982183,-83.62731252698654,11.147562118972955,-83.33870125608702,12.634818895820903,-83.04724348574472,14.026594067352999,-82.77709890162464,15.246153395102798,-82.54948394120412,16.24831485748291,-82.37485361099243,17.019247640225633,-82.2510121496658,17.562972743356685,-82.16600238630446,17.879464542360576,-82.10642153544472,17.94041751449297,-82.07031540764702,17.675759297598233,-82.0772107544451,16.982517667677236,-82.1664887151471,15.748309790619487,-82.38698561303634,13.878491986055367,-82.7884162765901,11.404290035996883,-83.38974265015514" fill="none" stroke="rgb(80, 68, 68)" stroke-width="2" stroke-linejoin="round" filter="url(#fuzzy)"></polyline><polyline points="-28,-81,-26.819952903600605,-81.2172414540455,-25.4943167332608,-81.52057987120112,-24.38936075655996,-81.69845509898681,-23.71579250349896,-81.67824055068195,-23.571624958978763,-81.43238598651769,-23.986041296519385,-80.96091636077544,-24.948158165064683,-80.26949139576719,-26.42205047607422,-79.34896850585938,-28.36615243180787,-78.17113523472213,-30.770778336039882,-76.69787979024076,-33.698352953337235,-74.89399472730317,-37.276332881709095,-72.7455152599141,-41.60117389016176,-70.29005115032336,-46.60838541682399,-67.62872028691129,-52.09815353893484,-64.84983467271431" fill="none" stroke="rgb(80, 68, 68)" stroke-width="2" stroke-linejoin="round" filter="url(#fuzzy)"></polyline><polyline points="62,-55,62.54023837876406,-54.0054800808908,62.202895037044875,-53.303128133212766,60.84055288732061,-53.050691298649745,58.395269974780085,-53.19094990924822,54.911211634447184,-53.61257000271871,50.4494391405445,-54.24931766310667,45.01882901575381,-55.12938434741251,38.57583588464672,-56.33532267080566,31.06182891841126,-57.923923962226276,22.41813526284615,-59.88991475099811,12.55930518280952,-62.204008515507205,1.3508658734694272,-64.87539742722622,-11.343692335925727,-67.95109802464822,-25.544666574797652,-71.40113080091261" fill="none" stroke="rgb(80, 68, 68)" stroke-width="2" stroke-linejoin="round" filter="url(#fuzzy)"></polyline><polyline points="5,-85,6.422035143162289,-84.36796748852487,7.55471095269212,-84.07785807581891,8.741150862044003,-83.86183946438943,9.999184142526376,-83.63018247833567,11.240419790848136,-83.39037000453936,12.369287752988162,-83.17033822654165,13.331873104632926,-82.98483849651895,14.115624624388577,-82.83590274973344,14.726279707809121,-82.72021905351336,15.164268493652344,-82.63163948059082,15.405700962323419,-82.5641117216954,15.389160432858729,-82.52030166939814,15.015802197363469,-82.52013631387763,14.1693868337127,-82.59823094516769,12.75075378314341,-82.78702394836546,10.712687948989581,-83.09514778788581,8.088415990288771,-83.49698079802842,5.018610510009819,-83.94895807966421,1.7887563387388346,-84.43731972677693" fill="none" stroke="rgb(80, 68, 68)" stroke-width="2" stroke-linejoin="round" filter="url(#fuzzy)"></polyline><polyline points="-25,-82,-23.18501833040113,-82.24409517141387,-21.70976019291267,-82.56961501154242,-20.587864527397404,-82.7952384159805,-19.75319355505053,-82.94962186297774,-19.133268552677176,-83.06534972274916,-18.655377050170912,-83.13744140405879,-18.26918753984885,-83.14038168692274,-17.979360009755226,-83.04744871524616,-17.851020626293007,-82.83948917718251,-17.976104381014473,-82.50915468078487,-18.425520539283752,-82.06381809711456,-19.22364857090637,-81.52245502455764,-20.362404822540633,-80.90179739571005,-21.841598832175656,-80.19624509760033,-23.703481152354122,-79.36601627596124,-26.032445839282488,-78.34876168868732,-28.911652563739292,-77.09668447080033,-32.357932837312646,-75.61800415650785,-36.29010237982359,-73.98067454251448,-40.61784995367148,-72.23905470007377,-45.53477371805182,-70.30947330511792" fill="none" stroke="rgb(80, 68, 68)" stroke-width="2" stroke-linejoin="round" filter="url(#fuzzy)"></polyline><polyline points="13,-83,13.945688616852532,-82.85759579770674,15.285731131017977,-82.42624170934933,17.027827252134415,-81.82730061877862,19.103778546794565,-81.10013656176203,21.452138847795887,-80.22792575218435,23.958122023855566,-79.22076915428282,26.481044266735708,-78.12840843251344,28.913168866094537,-77.00963348412324,31.21184765594573,-75.90342958041384,33.39443793197898,-74.82063435480313,35.5093389246838,-73.75296839259819,37.59929377150286,-72.68901573517545,39.670696945601804,-71.62887712868631,41.6806559708989,-70.59287949345293,43.54990724657472,-69.62002363941659,45.20219677515268,-68.75118639776161,46.617120204258526,-67.9998701082421,47.858852992700605,-67.33428415012116,49.01719506460144,-66.70454146297226,50.056051410272914,-66.06542394337384" fill="none" stroke="rgb(80, 68, 68)" stroke-width="2" stroke-linejoin="round" filter="url(#fuzzy)"></polyline><polyline points="-28,-81,-26.683430048082787,-81.264251619096,-24.9511879063041,-81.72314504059158,-23.179634808041097,-82.17946444670973,-21.593166579010564,-82.5681062847084,-20.27961129618969,-82.87448176946258,-19.242303868546447,-83.11330734561612,-18.452690151146214,-83.30196316448283,-17.879822709215816,-83.44209483145809,-17.50935919245957,-83.51850668164525,-17.369290611058037,-83.507460134172,-17.55197044118397,-83.38413633311953,-18.196191422950932,-83.12903782420207,-19.406851475592603,-82.73999570518377,-21.15219420968318,-82.24670574024124,-23.254726973511282,-81.69770915788493,-25.632383597879656,-81.06232604864908" fill="none" stroke="rgb(80, 68, 68)" stroke-width="2" stroke-linejoin="round" filter="url(#fuzzy)"></polyline><polyline points="45,-70,46.614627133911135,-69.01439250682401,47.94630336993601,-67.96623317771902,49.15688128044637,-66.95342825143841,50.220398063628,-66.0777690963303,51.101050157488544,-65.36241583169158,51.82216434713308,-64.76580487816608,52.444922798744045,-64.23048465039832,53.01086180468415,-63.7278993699722,53.50588785401078,-63.27731266304721,53.86943578720093,-62.93311595916748,54.029864336018804,-62.754980201908594,53.93254547520377,-62.78427610938898,53.54479221537373,-63.04087631285431,52.8458401870173,-63.537753254147674,51.81445762774433,-64.3015938421986,50.41398967975299,-65.38748139902972,48.57840016871278,-66.86980178446223,46.25041712730042,-68.77177591528104,43.55727484697934,-70.9200483705962" fill="none" stroke="rgb(80, 68, 68)" stroke-width="2" stroke-linejoin="round" filter="url(#fuzzy)"></polyline><polyline points="-45,-73,-43.910984592908925,-73.39052645512999,-43.06202876693822,-73.78875358001768,-42.35972823779859,-74.13942715868309,-41.54026611647612,-74.60923933177783,-40.52365546921345,-75.20985039996349,-39.37376203625796,-75.85928672262222,-38.204018829941965,-76.47026087383546,-37.11732215045555,-76.98859801048685,-36.18196152080026,-77.39464650606219,-35.43068823247279,-77.6901499922634,-34.87239192664377,-77.88406733828451,-34.50789522986404,-77.98285547523066,-34.34267895295463,-77.98649153267169,-34.39240920301451,-77.8886725946542,-34.68229482568354,-77.67716343879248,-35.24604799707529,-77.33016040582433,-36.129737018702315,-76.80956134476332,-37.39615508630736,-76.06136316213018,-39.11061246047586,-75.03900948598417,-41.28731126242142,-73.75272739339198,-43.81149923088089,-72.3037602234579,-46.43328828366194,-70.79448757493412" fill="none" stroke="rgb(80, 68, 68)" stroke-width="2" stroke-linejoin="round" filter="url(#fuzzy)"></polyline><polyline points="60,-57,61.16549078625334,-55.73454227214355,61.508577303188275,-55.03131183109351,61.40350132100239,-54.498116972723146,60.856392680030986,-54.13780126238706,59.79122683742662,-54.00841300459706,58.1692989062405,-54.11808495483368,56.003366507260004,-54.43602771016528,53.322376344617496,-54.93810528417142,50.140887013645624,-55.63186327944024,46.45419216156006,-56.54460906982422,42.24513791134954,-57.69737208072709,37.48268223528494,-59.09687618273459,32.11184042435573,-60.75204082439105,26.051459889660144,-62.6897374741107,19.210022099540765,-64.94195100127126,11.509211374426922,-67.51149267334793,2.8980176223753773,-70.36404438813285,-6.6378735702669385,-73.48631921892407,-17.032175146693863,-76.96741351109146" fill="none" stroke="rgb(80, 68, 68)" stroke-width="2" stroke-linejoin="round" filter="url(#fuzzy)"></polyline><polyline points="40,-73,40.77917890070819,-72.91846904651308,41.69247844314924,-72.50163411115423,42.867980541648045,-71.72750905069321,44.12408609197185,-70.79350794459624,45.33073494034686,-69.86422740696985,46.46238645481482,-68.99384612647239,47.529867756304206,-68.17662176040004,48.525000531524896,-67.41074592741289,49.405312736185294,-66.72633794014223,50.1033505424582,-66.17893569554661,50.547637234320405,-65.82667083788341,50.688136161218694,-65.70806993393668,50.51387807982532,-65.83092005466996,50.047327069330485,-66.1766607971613,49.31469017827631,-66.72052582142042,48.315239661360245,-67.4642506902825,47.00009862665049,-68.4845910795521,45.164216663676115,-70.05222283738793" fill="none" stroke="rgb(80, 68, 68)" stroke-width="2" stroke-linejoin="round" filter="url(#fuzzy)"></polyline><polyline points="45,-70,45.62333232610173,-69.6233415192102,46.8067794438521,-68.77494925864806,48.11576750868372,-67.7189154867251,49.40767899086491,-66.62991822755669,50.61327572323558,-65.60712619097843,51.71142303014073,-64.67164680972142,52.72502033178153,-63.79530869775379,53.69474974688144,-62.941578475329116,54.64586949143356,-62.09520389408181,55.572057175820525,-61.26995198839472,56.44185528882986,-60.498194794238,57.21491140127182,-59.81513437628746,57.85320265372897,-59.2494435808196,58.32331748835397,-58.82345877672327,58.595459771749134,-58.55806019255713,58.64428510087946,-58.47617108662565,58.450345101813085,-58.60279081848287,57.99994361573725,-58.961975790267516,57.28885814039596,-59.569222495171296,56.338168324618394,-60.4179703750354,55.20813953684204,-61.47133812089104,53.95621404089057,-62.683680779822716,52.52650397859103,-64.01241113543686" fill="none" stroke="rgb(80, 68, 68)" stroke-width="2" stroke-linejoin="round" filter="url(#fuzzy)"></polyline><polyline points="7,-84,8.587362129182415,-83.86381346930972,10.25210314365479,-83.43792406485358,12.133008180559107,-82.85359279558816,14.111644166239085,-82.19992052190752,16.156936495761734,-81.49489100463803,18.301247729269207,-80.7346325021612,20.579354600626246,-79.91595210579692,22.997035063244255,-79.03738833366255,25.51884235518594,-78.10214135630937,28.070029543607905,-77.12570153833279,30.55704217068791,-76.1368993473498,32.90010487090355,-75.16753137897771,35.057664514595686,-74.23969829326515,37.02636804035013,-73.36404148136934,38.81930765505331,-72.55201452924165,40.43932070445096,-71.83088824853613,41.86092728424884,-71.24391687212513,43.025727867858606,-70.82640293682834,43.86376679139789,-70.56829381895481,44.38708707347618,-70.38002211187711" fill="none" stroke="rgb(80, 68, 68)" stroke-width="2" stroke-linejoin="round" filter="url(#fuzzy)"></polyline><polyline points="-45,-73,-43.8788752558668,-73.39561997340218,-42.933305076401915,-73.81296831815821,-42.07452918237011,-74.20201320152614,-41.04192337879621,-74.73415161118282,-39.75368312178406,-75.42396566269737,-38.26815332188871,-76.18986901905251,-36.69362196172088,-76.94358266515523,-35.13152653289366,-77.63120230209324,-33.653218600486774,-78.23662584039823,-32.29853123120429,-78.76812106690754,-31.08701576526171,-79.2416045709996,-30.032959554238218,-79.66741833965378,-29.155667536471373,-80.0432908509902,-28.480744468292627,-80.35358805844507,-28.035008124849195,-80.57332791935005,-27.84251545206077,-80.6748084537324,-27.927425187008815,-80.6349199909561,-28.320614535976233,-80.44169757126713,-29.05874312533815,-80.0987679993227,-30.168700861895516,-79.62656228161413,-31.640938786903494,-79.06380553552255,-33.36918936101431,-78.48411421888065" fill="none" stroke="rgb(80, 68, 68)" stroke-width="2" stroke-linejoin="round" filter="url(#fuzzy)"></polyline><polyline points="33,-77,34.035131304273776,-76.60946278058029,35.232563290995195,-75.7892888175663,36.593658327065064,-74.8179377981046,38.11116070393983,-73.78285664128528,39.74717676535079,-72.71701788527162,41.445107559544375,-71.63667576985445,43.15627706219282,-70.53919701347391,44.84980239747962,-69.41179831447054,46.50195527117282,-68.25422185606497,48.08422517776489,-67.09336185455322,49.56423804095918,-65.97633324964376,50.91387777894671,-64.95068544322048,52.11003393144327,-64.05107412129175,53.12493215804817,-63.301529958520014,53.92049860984639,-62.7240626427797,54.46099449424651,-62.339212799040666,54.730322725174815,-62.16300338866486,54.70401930433564,-62.23557328758276,54.236831241924676,-62.721485573751686" fill="none" stroke="rgb(80, 68, 68)" stroke-width="2" stroke-linejoin="round" filter="url(#fuzzy)"></polyline><polyline points="-9,-84,-6.877687325422029,-84.61007116824818,-5.178173586060893,-84.8195770904553,-3.457512399233642,-84.86296240921479,-1.7714397008258336,-84.83749240745479,-0.15823927052461562,-84.77486608982684,1.4047772309153026,-84.68124319640664,2.926427385689097,-84.55976857730836,4.3651523091550555,-84.41992496512609,5.645244360647796,-84.27752631184632,6.693089254521764,-84.15003171778116,7.4649052595398855,-84.05117103131313,7.953627725392476,-83.98748215828019,8.174485992813517,-83.95879940024975,8.135859703859422,-83.9639298476686,7.807176647223901,-84.00905053642947,7.09784761604799,-84.1123088949871,5.854948020571815,-84.30377502070391,3.875457593679058,-84.62456362802338" fill="none" stroke="rgb(80, 68, 68)" stroke-width="2" stroke-linejoin="round" filter="url(#fuzzy)"></polyline><polyline points="69,-45,69.80035504171786,-43.70192743200211,70.18859966932959,-42.58917380147557,70.24820530378074,-41.88528454481642,70.08810658815233,-41.417361663728094,69.72214268245116,-41.12058493353715,69.1055927830274,-41.04371289224378,68.19276673857972,-41.251772731846685,66.96273588133272,-41.77867382072036,65.41581333707535,-42.63064447889558,63.55796480531164,-43.80281315788378,61.38448105099918,-45.29015005020332,58.86766757889998,-47.09613865784001,55.95173235631785,-49.24495955939307,52.55845718122195,-51.79047029995399,48.60658563428609,-54.805702633975315,44.04441139654505,-58.34533570132413,38.88440080438222,-62.401703715595225,33.207818167089044,-66.90321379044097,27.100278134046558,-71.79324068265555,20.582203379801435,-77.13097568596241" fill="none" stroke="rgb(80, 68, 68)" stroke-width="2" stroke-linejoin="round" filter="url(#fuzzy)"></polyline><polyline points="-27,-81,-25.026663986125737,-81.69442982422936,-23.062586549353078,-82.1683777914001,-21.236133699323574,-82.53592831257411,-19.56731614626757,-82.82378740198678,-18.01803639246236,-83.071041034587,-16.52779002305536,-83.30623942015323,-15.030120256471212,-83.53439412112117,-13.475907044622135,-83.74560195004437,-11.860034691431062,-83.9284565609186,-10.229672279399141,-84.07834761090164,-8.664445683034918,-84.20022158690563,-7.241767048835754,-84.30726379156113,-6.010477858164596,-84.41547221348962,-4.986912409817448,-84.53512346417926,-4.17101288178283,-84.66359941620186,-3.569758015377257,-84.78508884043927,-3.214294871258425,-84.87810800068553,-3.1606626762302774,-84.92464128716887,-3.469482443757833,-84.91227540290788,-4.173067789600584,-84.82769666519602,-5.2586231844247,-84.65341904686719,-6.696030430471507,-84.38987274321771,-8.50350057900559,-84.11415250164804" fill="none" stroke="rgb(80, 68, 68)" stroke-width="2" stroke-linejoin="round" filter="url(#fuzzy)"></polyline><polyline points="49,-67,50.17439018002216,-65.882136054482,50.425798812229374,-65.34719846416803,50.09041961697562,-64.87770272770466,49.36476911313317,-64.33067505578082,48.31956537560894,-63.67411012370847,46.91171978044758,-62.943619442895155,45.06410549951779,-62.188197122336625,42.71947066998805,-61.43348833662816,39.84595808794902,-60.68210048298481,36.42142726473226,-59.931617662452915,32.42162573654238,-59.185057465705015,27.817952107733127,-58.446647540013686,22.58049827519885,-57.713469819552444,16.682687070751395,-56.97602357889572,10.10564256089927,-56.22969841012729,2.8401987200436807,-55.48702544391518,-5.112653103719708,-54.77923365040626,-13.735115300102592,-54.145323718494026,-22.975172052901126,-53.61424746052655,-32.745428859724555,-53.17861762019234,-43.00700340062744,-52.75709700507686,-53.95605665159637,-52.232948198942196" fill="none" stroke="rgb(80, 68, 68)" stroke-width="2" stroke-linejoin="round" filter="url(#fuzzy)"></polyline><polyline points="17,-82,17.46425225184715,-82.10654919522902,18.65215060146064,-81.93541321277719,19.926366764666756,-81.50181209587677,20.85120733667036,-81.00310075226385,21.27257244939934,-80.54639244026514,21.203268196099916,-80.1465765198272,20.72638466563783,-79.76857172218799,19.928746234467063,-79.36549570932826,18.85750136218384,-78.90200218321112,17.504462148293474,-78.36298178146032,15.81937451625777,-77.7525680877256,13.739563196897507,-77.08858695626259,11.215737890912958,-76.39503989867666,8.219284038612031,-75.69304887631893,4.730650163368242,-74.9913903389135,0.7221040721239227,-74.2811047192297,-3.847051475509229,-73.54065821801822,-9.012829683430816,-72.75302736803965,-14.776108466351893,-71.92292470821721,-21.09170928203579,-71.0717460035288,-27.91696596731591,-70.19992557346353,-35.31683787736158,-69.25286253802544,-43.46411928985159,-68.17123880670505" fill="none" stroke="rgb(80, 68, 68)" stroke-width="2" stroke-linejoin="round" filter="url(#fuzzy)"></polyline><polyline points="68,-46,67.84525402246865,-46.134830713181934,68.29741405913933,-45.50267605378386,68.58893492437842,-44.82673620338363,68.45815493515693,-44.464422985271085,67.8748561696015,-44.52535591755186,66.87271977199984,-44.993426606391814,65.46177788196955,-45.857227340786096,63.614715576171875,-47.161903381347656,61.292703518393466,-48.98065242911733,58.46658737573563,-51.369754159524135,55.110411411939126,-54.35835285656364,51.17639997811057,-57.971255462558474,46.57713961022475,-62.24957199266857,41.18684294388996,-67.23482455612931,34.82027724308894,-72.89009349863034" fill="none" stroke="rgb(80, 68, 68)" stroke-width="2" stroke-linejoin="round" filter="url(#fuzzy)"></polyline><polyline points="38,-74,39.36054297321112,-73.41868622735365,39.923044013391575,-73.22385938536979,40.029350531957846,-73.0695400090878,39.78692561731441,-72.8554430755321,39.11502085036192,-72.66439311576433,37.902990913055355,-72.60989735175467,36.0879338286396,-72.74176769562989,33.64238739013672,-73.04953002929688,30.536956534766762,-73.51540449405539,26.724089985857535,-74.15883628921515,22.146971599933668,-75.0447367503778,16.751405877119396,-76.25485075614415,10.470431929104992,-77.83410457780887,3.1568927894965224,-79.73266460460036,-5.517216742861846,-81.79433750566245" fill="none" stroke="rgb(80, 68, 68)" stroke-width="2" stroke-linejoin="round" filter="url(#fuzzy)"></polyline><polyline points="-20,-83,-19.104591670750153,-83.05346436307217,-18.37878455631372,-83.23736297404726,-17.8002020840654,-83.42510797780736,-17.255485012734585,-83.5223844323193,-16.722738580016962,-83.50160964162218,-16.324232608324113,-83.3542002386629,-16.240336420211257,-83.07114566315406,-16.600196658725483,-82.65144478125288,-17.436697006225586,-82.10943031311035,-18.71520395198818,-81.46634183809725,-20.397355564073152,-80.7308169422069,-22.499618060554702,-79.87962312528427,-25.12375194129097,-78.84805386794689,-28.44274537231727,-77.54030114348564,-32.621808500464994,-75.87530772255516,-37.67254979017143,-73.87958386005958,-43.31064209164959,-71.79733442728994" fill="none" stroke="rgb(80, 68, 68)" stroke-width="2" stroke-linejoin="round" filter="url(#fuzzy)"></polyline><polyline points="45,-70,46.47372929785427,-69.07424616726802,47.373383904620496,-68.19823541185922,47.858790752533466,-67.45527948027896,47.90331092220179,-66.93083115688762,47.47479450152566,-66.6322209154694,46.59397593819024,-66.50728966105963,45.30590360859735,-66.49274461473463,43.633345043192165,-66.55237380386345,41.56111725600332,-66.68827374004071,39.053785525173424,-66.9261618410365,36.077737456624746,-67.29235084592162,32.603777160923556,-67.80218224723961,28.5925634521334,-68.46504305949583,23.98246174546502,-69.2940785271111,18.693983369955152,-70.3061094503859,12.649072412096576,-71.5110807375046,5.798215207230797,-72.90579920059446,-1.8417216274369181,-74.48747003616691,-10.129787296790754,-76.2890991715251,-18.725618319894014,-78.4191133181771" fill="none" stroke="rgb(80, 68, 68)" stroke-width="2" stroke-linejoin="round" filter="url(#fuzzy)"></polyline><polyline points="-48,-70,-45.56556576179896,-71.95269871277416,-43.5810205466091,-72.87641008992235,-41.74952661522117,-73.29165804987879,-39.79521495418578,-73.50682959150197,-37.49353300015897,-73.71323564897521,-34.75376685952982,-73.96618639292038,-31.603110098931904,-74.23298535920618,-28.12617205733629,-74.4578403252985,-24.41059823183639,-74.60303748418465,-20.515962856360424,-74.66016103432308,-16.46603010491832,-74.64222785159896,-12.260021954774857,-74.57015991210938,-7.895475854699232,-74.46277671849273,-3.3905515272154965,-74.3334025983527,1.2081815597906136,-74.19119447757679,5.839966041265271,-74.0430714085511,10.459128922460955,-73.89288643386715,15.058431488848193,-73.73753221982393,19.663897725691967,-73.56459504197247,24.294010031075324,-73.36212254102713,28.898182341597302,-73.15192129963475,33.306873034096185,-73.03310747181598,37.281526119968504,-73.12305946775525" fill="none" stroke="rgb(80, 68, 68)" stroke-width="2" stroke-linejoin="round" filter="url(#fuzzy)"></polyline><polyline points="53,-64,54.48394583109447,-62.51274722137375,55.382176916130184,-61.61984494105309,56.063411482621724,-60.95906327532135,56.66807744106158,-60.34886013008319,57.16135301105835,-59.774772636237536,57.46434895863092,-59.29661291104621,57.52067079048903,-58.9783293125066,57.300471567693954,-58.86076387389011,56.78137975891413,-58.96474155591919,55.93302844245022,-59.30495920568164,54.71552160297703,-59.89882443319945,53.09316157216602,-60.76300574136839,51.056472368302586,-61.901907423465225,48.635322605846056,-63.30149113327859,45.8829738245133,-64.94140983950433,42.82744692456894,-66.82464124956483,39.4192125451311,-69.00311525327324,35.5200658043583,-71.569865565371,30.931026485349825,-74.62125389936325,25.344882640504096,-78.2821386042298" fill="none" stroke="rgb(80, 68, 68)" stroke-width="2" stroke-linejoin="round" filter="url(#fuzzy)"></polyline><polyline points="-45,-73,-43.91778121691882,-73.38782725871467,-43.063263654269385,-73.79243516464763,-42.402615956872935,-74.12440892548913,-41.68869088997599,-74.55300323676784,-40.845733834006055,-75.09105834588101,-39.9567850345853,-75.63347412863152,-39.16073455618435,-76.06225685594927,-38.57716369628906,-76.30778503417969,-38.2819099671282,-76.3548995907155,-38.32468528785884,-76.21055367904013,-38.768078469065955,-75.85871177920203,-39.713768221554346,-75.23501370509621,-41.27608188556941,-74.25501265239248,-43.4879425979515,-72.91153260607925,-46.18555396022643,-71.3954856450272" fill="none" stroke="rgb(80, 68, 68)" stroke-width="2" stroke-linejoin="round" filter="url(#fuzzy)"></polyline><polyline points="65,-52,65.04723987362921,-51.04911266246162,64.07188767724085,-50.81722427161879,62.54823828503926,-50.694953912283985,60.42858586304704,-50.776502958020316,57.54173434023004,-51.239974422209805,53.765107393685106,-52.12978028656723,49.014125643628255,-53.40168828576406,43.194597882335806,-55.03126446728745,36.20997042290033,-57.060321183052594,28.017549884926197,-59.560906950380726,18.664870033241044,-62.57057504477358,8.232112447088213,-66.068362114184,-3.347882812238211,-70.01155013323603,-16.51187113983046,-74.36406059375675" fill="none" stroke="rgb(80, 68, 68)" stroke-width="2" stroke-linejoin="round" filter="url(#fuzzy)"></polyline><polyline points="-20,-83,-19.03845319264089,-83.06695996403715,-18.101767893945095,-83.30292778436844,-17.212139364234048,-83.58826014629567,-16.289094189709132,-83.82329880184045,-15.300275902547849,-83.98059952115754,-14.347408252154677,-84.05730783085855,-13.61957770141456,-84.0502613015035,-13.288032386255892,-83.96581117842265,-13.446386442646322,-83.82649098723,-14.136704070909374,-83.64901844672443,-15.417761567024073,-83.41025106452855,-17.394869865624372,-83.0426939438334,-20.16750398090427,-82.48041967099721,-23.740501145575582,-81.73204452870091" fill="none" stroke="rgb(80, 68, 68)" stroke-width="2" stroke-linejoin="round" filter="url(#fuzzy)"></polyline><polyline points="40,-73,37.15342813037451,-73.35677298132622,24.272243532767995,-72.57226018452101,7.38720756041187,-69.66380827579292,-2.314086306878408,-65.88762818700698,-1.4112479182011095,-62.61951968482151,5.876345421335159,-60.67683025147245,13.824707456772018,-60.335812394610784,19.226638436717863,-61.43843253817878,21.495303663162993,-63.55476760254693,21.082341541193852,-66.13566459303942,18.48165863171102,-68.5771255064612,14.287794351577759,-70.26258289813995,9.515412522264652,-70.71307494932424,5.480982496312889,-69.8331721601818,3.3506208486236226,-68.03237830450783,3.9076513475715915,-65.98332760561921,7.7067379527955095,-64.07868998191985,15.024648649384531,-62.08700939670622,24.941970759096254,-59.59706089474867,34.16730832432412,-57.124055308997086,37.955039278886495,-56.48987110547951,34.59825628585656,-58.99851270826551,26.952855401955944,-64.29098648677393,-6,-85" fill="none" stroke="rgb(80, 68, 68)" stroke-width="2" stroke-linejoin="round" filter="url(#fuzzy)"></polyline><polyline points="57,-60,-11.476093221751531,-63.28513767982923,-28.230116009865814,-69.6419097077024,-31.239989126981783,-72.69350931816987,-29.25778927375441,-72.78601592161411,-22.481151930270713,-71.74421035532148,-11.514326160696575,-70.90303361790066,1.2134015777709932,-70.6680318899716,12.766098077441168,-70.90407007277165,20.921254175767185,-71.49544751681178,24.59135150118764,-72.5422360530715,23.745195860863763,-74.13399368289534,19.135843232624236,-76.03709519056416,11.958549946460947,-77.63597679904083,3.5967142402997396,-78.1905240245539,-4.327707194918725,-77.21031500063282,-9.632666133002084,-74.67986596823066,-9.55554069994233,-70.98342525191343,-1.950713827989519,-66.61335533705757,11.914983610992056,-62.08036269736238,24.425503967351187,-58.65411821845218,22.741743119105916,-59.80341133369119,0.641889890239137,-70.23311241238393,-10,-85" fill="none" stroke="rgb(80, 68, 68)" stroke-width="2" stroke-linejoin="round" filter="url(#fuzzy)"></polyline><polyline points="-43,-73,-33.83746475309123,-72.59276926538706,-12.712234794015261,-68.11612204063245,9.005573781614013,-65.57040135491656,20.450008741712434,-65.23503680590332,21.808212054635973,-65.35264451566536,17.76896750366927,-64.92082771134513,12.231309587507734,-64.2473538831931,6.761199641909341,-64.00658380573235,1.3410859256642755,-64.37181116198325,-3.9166782891166667,-64.93686603311386,-7.353653330654942,-65.15238002048439,-5.986814212341157,-64.76741266648102,2.233773012293542,-64.04951317820613,15.613831276102598,-63.7677602262853,28.036484751609922,-64.87719975950148,31.949822131611423,-67.80470933060754,22.87751848560413,-71.38578031902456,-1.3085443511704362,-71.74072247520331,-58,-63" fill="none" stroke="rgb(80, 68, 68)" stroke-width="2" stroke-linejoin="round" filter="url(#fuzzy)"></polyline><polyline points="17,-82,11.018450658892336,-73.56169408234905,6.425093517280654,-69.20550990273182,11.012828486722416,-69.14847817924286,13.345761044246315,-71.22704905786395,10.680557358105073,-73.94538237598992,6.666057173635654,-76.39053122944563,4.976292045617498,-78.01918436374356,6.418129857819591,-78.58147136182791,9.420545858378777,-78.10237317320934,11.779234480095617,-76.84797170764152,12.124664783477783,-75.20878720283508,10.641461852810746,-73.4964423250629,9.021503626570336,-71.78585519249408,9.602215373866784,-69.99593297222133,13.810593216947831,-68.2326007824709,20.700991987267926,-67.0921831628794,26.959368088929995,-67.47368272412001,29.254523787428884,-69.76321902820331,27.949019819501622,-72.87998695817217,28.93784120397767,-74.09627168698478,39.08987907852939,-70.76794905089304,51,-66" fill="none" stroke="rgb(80, 68, 68)" stroke-width="2" stroke-linejoin="round" filter="url(#fuzzy)"></polyline><polyline points="-43,-74,-15.714808410310944,-76.42809771800881,-6.063817508585001,-75.02579709492353,-9.952804209181439,-73.86991848638971,-14.390410140552865,-73.42038391492062,-15.052460296157571,-73.30717351535515,-13.216554150805395,-73.19625718349664,-10.473623167243149,-73.12595999895281,-6.793064603162241,-73.33576838556378,-1.6834678649902344,-74.01729583740234,4.054141385478071,-75.25821589042536,8.177268709738533,-77.06987947126802,8.64221537080348,-79.31668551995453,5.307601925441768,-81.60706718335108,-0.08841876922562178,-83.38675855403979,-5.582469165092308,-84.2924176811803,-10.305269433392386,-84.4239383582543,-14.278441489149388,-84.09507274355995,-20,-83" fill="none" stroke="rgb(80, 68, 68)" stroke-width="2" stroke-linejoin="round" filter="url(#fuzzy)"></polyline><polyline points="57,-60,47.98171693247763,-59.879820667051376,21.625992147113376,-63.910226555457214,2.70671118275457,-67.97085372663311,-2.935345684190883,-71.40809621532438,-0.5791756624725992,-73.16975067560455,4.576322634297181,-72.37033415748371,10.68752518839771,-69.20338729337037,17.264341245812307,-65.23677184082595,22.892451996123384,-62.738228924922915,25.282981961636555,-63.3379360926047,23.01441957496021,-66.94952727365894,16.698550934323634,-71.77323884288744,8.22377180435198,-75.28972601285346,-0.7661748627438185,-75.2152107056806,-7.7045522584785875,-69.59823622733498,0.13640474083786458,-57.064553990623075,71,-41" fill="none" stroke="rgb(80, 68, 68)" stroke-width="2" stroke-linejoin="round" filter="url(#fuzzy)"></polyline><polyline points="-52,-67,-40.25931704916421,-68.19832622911237,-11.218825603699582,-69.93446985695617,15.41597265820201,-68.32506251297586,31.665353308520697,-65.56392473590027,37.084179293091864,-64.02624215096245,35.09599733801262,-64.53601329505423,29.948401057886954,-66.52367756304425,24.413917815831294,-68.99818936216431,19.229367876583975,-71.30035914718538,14.206402634306677,-73.2321408120366,9.699974298477173,-74.77993941307068,7.122859391862558,-75.80998241212097,8.233835045790729,-75.959490817021,13.936769942329303,-74.76994479081598,23.535672378651086,-71.9994725329545,34.86242440828491,-67.95863128521127,45.07766033100283,-63.63172967326412,51.786690028580644,-60.33868757545384,54.35979645021357,-58.75664447102389,55.42013876911427,-57.22136689275439,61.32570605047508,-50.02152185705428,75,-31" fill="none" stroke="rgb(80, 68, 68)" stroke-width="2" stroke-linejoin="round" filter="url(#fuzzy)"></polyline><polyline points="34,-77,-14.771673745960229,-74.93621518318037,-33.1256296765165,-73.56564494760582,-36.84708228443871,-73.30638621325701,-33.45111442175595,-73.39462739049709,-26.703259649955505,-73.80717607622995,-19.373322596884517,-74.54090168569014,-13.643905189205476,-75.28124052767575,-10.912016663321994,-75.66838552191197,-11.433794655490283,-75.63384307702785,-13.892973070208072,-75.44631579134733,-15.493155966875438,-75.48931490731671,-13.234350420885052,-76.02041499907968,-6.292676319017232,-77.09249156275305,1.6482828235105402,-78.56747545440979,2.3701348143105383,-79.94449866230278,-12.113957044095962,-79.57311660408654,-43,-73" fill="none" stroke="rgb(80, 68, 68)" stroke-width="2" stroke-linejoin="round" filter="url(#fuzzy)"></polyline><polyline points="41,-73,17.317136556392867,-77.94639462282753,20.95382997621513,-72.65305196041494,29.92888390512955,-66.00213111672156,32.998134598102205,-62.30690809728954,28.72493545836291,-61.88973168369724,18.935788388379724,-63.65317446193374,6.407298650083647,-66.12450847632395,-5.0692068738155465,-67.89228514488875,-11.237058903346812,-68.050988609335,-9.395006788057495,-66.54328485474888,-0.8111321142938839,-64.30512010093169,8.526887838628829,-63.146254014466415,10.591817603719514,-64.96586480225275,0.9898625808007613,-69.97278235260865,-16.843669946723956,-74.91007153215897,-35.87536858637593,-73.99893461961537,-56,-64" fill="none" stroke="rgb(80, 68, 68)" stroke-width="2" stroke-linejoin="round" filter="url(#fuzzy)"></polyline><polyline points="36,-75,37.28340536407952,-73.02113977636238,31.556704403520502,-74.02816850258583,27.452565860899348,-72.61713785960492,23.04274126856261,-70.0974377706682,15.327164015848776,-68.88423909494276,4.656141579568894,-69.79193565736877,-5.425649171493083,-71.95568124350156,-10.96219550593522,-73.85375605626024,-9.893571476927294,-74.15147738701327,-2.7743549172094917,-72.21063142351925,7.326260638274175,-68.56462317575198,15.307946652543505,-65.22191460233704,16.009395914780104,-65.06453349889725,8.485904866650296,-69.80886318652365,-0.7014541868894659,-77.5441590568531,-3.5604885952850176,-83.0857979393782,-9,-84" fill="none" stroke="rgb(80, 68, 68)" stroke-width="2" stroke-linejoin="round" filter="url(#fuzzy)"></polyline><polyline points="7,-84,7.418251549249997,-81.68629562199742,2.449405609234746,-77.98697555260308,-0.49521258423505676,-72.97339967354372,-2.189877963193484,-69.06090824104668,-3.1648112646568145,-67.4059689036369,-2.7308205822850793,-67.24027620093919,-0.43906419590415113,-67.22629039012945,2.689619345226476,-66.72904517279302,4.800888860919096,-65.969486066202,4.924897185115699,-65.37225421962009,3.947665013478108,-64.94987551733576,3.945288068147746,-64.25237265638474,6.552704295582587,-62.80267119102768,11.726711886647877,-60.57135353191024,17.72301192311257,-58.10595624704313,22.121438189022356,-56.24818519153031,23.22867629122429,-55.65200237930126,21.306687997583335,-56.39083577901563,19.251488138434873,-57.82747847968636,22.203652500155133,-58.672123728340516,35.17794165473506,-56.94264301164616,56.85054602302944,-50.32630558325235,71,-41" fill="none" stroke="rgb(80, 68, 68)" stroke-width="2" stroke-linejoin="round" filter="url(#fuzzy)"></polyline><polyline points="14,-83,-21.762941517348573,-76.74793606127527,-30.24093622295727,-76.54155295692355,-33.385951865481886,-74.82151729574537,-33.65302656381099,-70.7754200997105,-28.863453068103368,-65.6462659948198,-18.634653199984857,-60.67388681423356,-4.919585511611812,-56.68219759690699,9.280348527578301,-54.201439827735236,20.970169026618446,-53.42226229290597,28.11637296489805,-53.90259539465154,30.735336046044402,-54.44930970671696,31.233914691916187,-53.65058718592078,32.797162236530774,-51.020176675612205,35.999017061792294,-47.960086303428774,36.06673286533777,-47.40916214249346,24.394394500689877,-51.61886102693698,-3.9161987640608285,-59.01260296912049,-39.589800424513015,-63.62369865303238,-54,-66" fill="none" stroke="rgb(80, 68, 68)" stroke-width="2" stroke-linejoin="round" filter="url(#fuzzy)"></polyline><!--]--></g><g id="lineNose"><path d="M -11.354657162600747 8.921120591102746, Q9.388614877714222 10.643416116381374,-0.9830211424432624 -5.45689175021263" fill="none" stroke="black" stroke-width="3" stroke-linejoin="round" filter="url(#fuzzy)"></path></g><g id="mouth"><polyline points="-28.08146012778416,38.22292279020152,-27.552199974580155,37.75745320231474,-27.00894159108639,37.30837647248464,-26.452071082324206,36.87545858856505,-25.881974553314944,36.458465538409804,-25.29903810907994,36.05716330987273,-24.703647854640547,35.67131789080766,-24.096189895018078,35.30069526906842,-23.477050335233915,34.945061432508844,-22.846615280309358,34.60418236898276,-22.205270835265758,34.277824066344024,-21.553403105124453,33.965752512446436,-20.891398194906795,33.66773369514384,-20.21964220963412,33.383533602290065,-19.538521254327758,33.11291822173894,-18.84842143400905,32.855653541344296,-18.14972885369935,32.61150554895997,-17.442829618419992,32.38024023243978,-16.7281098331923,32.16162357963757,-16.005955603037634,31.95542157840717,-15.276753032977329,31.761400216602397,-14.54088822803272,31.5793254820771,-13.798747293225153,31.408963362685103,-13.05071633357596,31.250079846280233,-12.297181454106484,31.102440920716326,-11.538528759838073,30.965812573847206,-10.775144355792053,30.839960793526714,-10.007414346989771,30.724651567608674,-9.235724838452567,30.619650883946917,-8.460461935201774,30.524724730395278,-7.682011742258746,30.439639094807593,-6.900760364644814,30.364159965037675,-6.1170939073813155,30.298053328939368,-5.331398475489597,30.241085174366507,-4.544060173990991,30.193021489172914,-3.7554651079068453,30.153628261212415,-2.9659993822584907,30.122671478338855,-2.1760491020672754,30.099917128406055,-1.3860003723545367,30.08513119926786,-0.596239298141612,30.078079678778078,0.19284801555015618,30.078528554790562,0.98087546369943,30.086243815159122,1.7674569412848686,30.100991447737606,2.55220634328513,30.12253744037984,3.3347375646788793,30.150647780939654,4.114664500444772,30.185088457270883,4.891601045561471,30.22562545722735,5.665161095007633,30.272024768662888,6.434958543761922,30.324052379431333,7.200607286803,30.38147427738651,7.961721219109517,30.44405645038226,8.717914235660144,30.511564886272396,9.468800231433537,30.58376557291077,10.21399310140836,30.660424498151194,10.953106740563268,30.741307649847514,11.685755043876915,30.826181015853553,12.411551906327979,30.914810584023144,13.130111222895104,31.006962342210116,13.84104688855696,31.1024022782683,14.543972798292204,31.200896380051528,15.23850284707949,31.30221063541364,15.924250929897488,31.40611103220845,16.60083094172485,31.5123635582898,17.267856777540242,31.620734201511514,17.924942332322324,31.73098894972743,18.571701501049752,31.842893790791376,19.207748178701188,31.956214712557184,19.83269626025529,32.07071770287868,20.446159640690723,32.186168749609706,21.047752214986144,32.30233384060408,21.637087878120216,32.418978963715645,22.213780525071595,32.53587010679822,22.777444050818946,32.65277325770565,23.327692350340925,32.76945440429175,23.864139318616196,32.88567953441036,24.38639885062341,33.001214635915304,24.89408484134124,33.11582569666043,25.386811185748336,33.22927870449955,25.864191778823365,33.3413396472865,26.32584051554498,33.451774512875126,26.77137129089185,33.56034928911924,27.200397999842625,33.66682996387267,27.612534537375975,33.770982524989265,28.007394798470557,33.87257296032285,28.384592678105033,33.97136725772725,28.74374207125805,34.067131405056294,29.084456872908287,34.159631390163824,29.406350978034393,34.24863320090367,29.709038281615026,34.33390282512965,29.992132678628852,34.415206250695604,30.255248064054538,34.492309465455364,30.497998332870726,34.564978457262754,30.719997380056085,34.632979213971616,30.920859100589286,34.69607772343577,31.100197389448976,34.75403997350905,31.25762614161382,34.8066319520453,31.392759252062472,34.85361964689833,31.5052106157736,34.894769045921976,31.59459412772586,34.929846136970085,31.660523682897914,34.95861690789648,31.702613176268418,34.980847346554974,31.66052368289791,34.95861690789647,31.594594127725852,34.929846136970085,31.505210615773596,34.894769045921976,31.39275925206246,34.85361964689833,31.25762614161381,34.806631952045294,31.100197389448965,34.75403997350905,30.920859100589265,34.69607772343577,30.71999738005608,34.63297921397161,30.49799833287072,34.564978457262754,30.25524806405452,34.49230946545536,29.992132678628835,34.415206250695604,29.709038281615012,34.33390282512964,29.40635097803437,34.24863320090366,29.084456872908266,34.159631390163824,28.74374207125803,34.067131405056294,28.384592678105005,33.971367257727245,28.00739479847054,33.87257296032284,27.612534537375954,33.770982524989265,27.200397999842604,33.666829963872665,26.771371290891825,33.56034928911923,26.325840515544954,33.451774512875126,25.864191778823336,33.3413396472865,25.386811185748314,33.22927870449954,24.894084841341215,33.11582569666042,24.38639885062339,33.0012146359153,23.864139318616164,32.88567953441035,23.327692350340904,32.769454404291736,22.777444050818925,32.65277325770563,22.213780525071574,32.53587010679821,21.63708787812019,32.41897896371564,21.047752214986122,32.30233384060407,20.446159640690702,32.1861687496097,19.832696260255265,32.070717702878675,19.20774817870116,31.956214712557177,18.571701501049727,31.842893790791372,17.924942332322292,31.730988949727422,17.26785677754021,31.620734201511507,16.60083094172482,31.51236355828978,15.924250929897456,31.40611103220844,15.238502847079461,31.302210635413633,14.543972798292168,31.20089638005152,13.841046888556928,31.10240227826829,13.130111222895076,31.006962342210112,12.411551906327947,30.91481058402314,11.685755043876888,30.826181015853546,10.953106740563232,30.741307649847506,10.213993101408326,30.660424498151194,9.468800231433505,30.583765572910767,8.717914235660109,30.511564886272392,7.961721219109484,30.444056450382256,7.200607286802964,30.381474277386513,6.434958543761886,30.32405237943133,5.665161095007598,30.272024768662888,4.891601045561432,30.225625457227352,4.114664500444735,30.185088457270886,3.334737564678839,30.150647780939654,2.5522063432850954,30.122537440379844,1.7674569412848289,30.10099144773761,0.9808754636993932,30.08624381515913,0.1928480155501191,30.078528554790562,-0.5962392981416493,30.07807967877808,-1.3860003723545735,30.085131199267863,-2.1760491020673127,30.099917128406062,-2.9659993822585298,30.122671478338855,-3.755465107906881,30.153628261212422,-4.544060173991028,30.193021489172914,-5.331398475489633,30.24108517436651,-6.117093907381354,30.298053328939375,-6.900760364644848,30.364159965037683,-7.6820117422587835,30.4396390948076,-8.460461935201815,30.524724730395288,-9.235724838452601,30.61965088394692,-10.007414346989805,30.724651567608685,-10.775144355792087,30.83996079352672,-11.538528759838107,30.965812573847213,-12.297181454106523,31.10244092071633,-13.050716333575998,31.25007984628024,-13.79874729322519,31.40896336268511,-14.540888228032763,31.57932548207711,-15.276753032977371,31.761400216602404,-16.005955603037677,31.95542157840718,-16.72810983319234,32.16162357963758,-17.44282961842003,32.38024023243979,-18.149728853699393,32.611505548959975,-18.84842143400909,32.85565354134431,-19.538521254327794,33.11291822173895,-20.219642209634156,33.38353360229008,-20.89139819490683,33.66773369514386,-21.55340310512449,33.96575251244646,-22.205270835265793,34.277824066344046,-22.84661528030939,34.60418236898279,-23.477050335233947,34.945061432508865,-24.096189895018124,35.30069526906844,-24.703647854640586,35.67131789080768,-25.299038109079984,36.05716330987275,-25.881974553314986,36.458465538409826,-26.45207108232425,36.875458588565074,-27.00894159108643,37.30837647248467,-27.552199974580187,37.75745320231477" fill="rgb(215,127,140)" stroke="black" stroke-width="3" stroke-linejoin="round" filter="url(#fuzzy)"></polyline></g></svg>