<svg viewBox="-100 -100 200 200" xmlns="http://www.w3.org/2000/svg" width="400" height="400" id="face-svg"><defs><clipPath id="leftEyeClipPath"><polyline points="28.731262974485116,-3.861839126784348,28.35975572120189,-4.413635651600375,27.96957298485945,-4.970368170464326,27.561231737667526,-5.5286623712952245,27.1352481595417,-6.085351271541555,26.692137391316017,-6.637470265370972,26.2324132879557,-7.182252170860057,25.756588171769803,-7.7171222771840355,25.265172585623862,-8.239693391806526,24.758675046152586,-8.747760887669266,24.237601796972516,-9.239297750381848,23.70245656189469,-9.712449625411459,23.153740298137304,-10.16552986527261,22.591950949538408,-10.59701457671688,22.017583199768538,-11.005537667922646,21.43112822554341,-11.389885895684799,20.79620245191523,-12.092395427591882,20.142542973131242,-12.74349978026829,19.47073385390964,-13.340933156442134,18.781426017391638,-13.8829370524527,18.07533346204478,-14.368222786442434,17.353229458934955,-14.79593547431515,16.615942732631133,-15.165619426274162,15.864353629006736,-15.47718493675415,15.099390273201479,-15.730876440560365,14.322024721007807,-15.92724200802905,13.533269106945642,-16.067104152022647,12.734171792289612,-16.151531919573657,11.925813516312502,-16.181814240990768,11.109303554008964,-16.159434509241095,10.285775883563407,-16.086046362422152,9.456385366825987,-15.963450642137296,8.622303946060676,-15.793573500588511,7.7847168602292856,-15.57844562920005,6.944818884075418,-15.320182581586788,6.103810593272308,-15.020966163681084,5.262894658898419,-14.683026863831607,4.423272174504808,-14.308627295688257,3.58613901903815,-13.900046626686485,2.752682258883369,-13.459565964945078,1.9240765922898149,-12.989454677390938,1.1014808394449433,-12.491957611924693,0.2860344814593827,-11.969283196440756,-0.521145748472609,-11.42359238751569,-1.318969218473422,-10.856988441578537,-2.106374692679102,-10.271507481376805,-2.882333563969242,-9.669109830551896,-3.645853021465703,-9.051672089137742,-4.395979149536359,-8.420979922796253,-5.131799955039799,-7.77872153860341,-5.852448319547168,-7.1264818201996984,-6.5571048732770985,-6.465737095118616,-7.2450007874798965,-5.797850507106929,-7.9154204820069785,-5.124067966250546,-8.567704244801629,-4.4455146497195575,-9.201250760047195,-3.7631920259462746,-9.815519541708678,-3.077975375050018,-10.410033269203932,-2.3906117783222793,-10.984380021940357,-1.7017185495861273,-11.538215409453304,-1.01178208124343,-12.071264593882177,-0.32115707782373804,-12.583324201520284,0.3699338501514866,-13.074264120174565,1.061400259175568,-13.544029179071199,1.753283639820503,-13.992640708043137,2.445756905044327,-14.420197972735757,3.1391236269282023,-14.827667624568743,3.8342890218506165,-15.215774999309911,4.531955583008885,-15.584335844079256,5.232240850906106,-15.933191862850482,5.935286961154507,-16.26221115358541,6.641257003456878,-16.571288645368416,7.350331380588038,-16.86034653554089,8.062704167376262,-17.12933472683564,8.778579469684768,-17.378231264511356,9.498167783393114,-17.60704277348702,10.221682353378686,-17.81580489547636,10.949335532498132,-18.004582726122287,11.681335140568805,-18.173471252131293,12.417880823350227,-18.322595788407945,13.15916041152553,-20.79334031194745,15.637978955055683,-20.544174549029023,16.01766217570063,-20.281695215540417,16.38809875510491,-20.005947744061732,16.748039567680124,-19.717002211594608,17.096188471469482,-19.414951850315564,17.43121036956193,-19.099911558329378,17.75173927150633,-18.77201641042242,18.056386354725554,-18.431420168816082,18.34374802593068,-18.078293793920075,18.61241398253511,-17.71282395508584,18.860975274068707,-17.3352115413599,19.088032363591957,-16.945670172237215,19.292203189110097,-16.544424708414553,19.472131224987272,-16.13170976254388,19.62649354336068,-15.70621704243457,19.75919994968595,-15.266646640302149,19.87264116434524,-14.81326057298294,19.963432637270927,-14.346330855650322,20.028446461754875,-13.86613797756035,20.064820233136388,-13.37296937503148,20.069965461738043,-12.867117912777939,20.041575479857382,-12.348880384716526,19.977632782622585,-11.818556045366527,19.876415742520287,-11.276445182962451,19.736504637403584,-10.722847745399303,19.55678693178837,-10.15806203013014,19.336461751246084,-9.582383449135484,19.07504348970101,-8.99610338008451,18.772364489440232,-8.39950811480751,18.428576733644324,-7.792877916199504,18.044152491246898,-7.176486194674573,17.619883853931142,-6.550598815290726,17.156881105071378,-5.9154735466649635,16.656569860427922,-5.271359662798223,16.12068692040305,-4.618497708929989,15.551274773666561,-3.9571194425421785,14.950674691958705,-3.2874479606320985,14.321518355878787,-2.609698024374117,13.66671795146747,-1.9240765922898149,12.989454677390938,-1.230783573046267,12.293165602534955,-0.5300128090022089,11.581528813816998,0.17804669837823806,10.85844679402453,0.8932093101245341,10.128027969487539,1.6152910072517208,9.394566367393441,2.344107373025713,8.662519322552471,3.079471288882174,7.936483173421627,3.82119033287929,7.221166887195354,4.569063869564714,6.521363553770966,5.3228798201369685,5.841919688397042,6.082411101781626,5.187702282812772,6.847411725062524,4.563563544686469,7.61761253824833,3.974303265161297,8.392716607454748,3.4246287543163483,9.172394221482632,2.919112284351119,9.95627751023234,2.4621459803016137,10.743954665574595,2.0578940980960416,11.534963753558127,1.7102426297583273,12.328786106834428,1.422746175567469,13.124839286179899,1.1985720229808976,13.922469599995647,1.040441372129921,14.720944170665295,0.9505676476953742,15.519442536650988,0.9305918369715576,16.31704777920802,0.9815147939266113,17.11273716259827,1.1036264490674084,17.769053732371702,0.9359554498740241,18.421035299005588,0.798724675319618,19.06793546075839,0.691848424751802,19.708957687914115,0.615061879135526,20.34325391625451,0.5679135997594944,20.969923140531264,0.5497580269425715,21.588010007938237,0.559747978740182,22.19650341158364,0.5968271496507196,22.79433508396227,0.6597226093219621,23.38037819042769,0.7469373012574607,23.95344592266445,0.8567425415229639,24.512290092160306,0.987170517452812,25.055599723678377,1.1360067863563472,25.581999648729436,1.30078277422432,26.090049099044023,1.4787682744352963"></polyline></clipPath><clipPath id="rightEyeClipPath"><polyline points="-29.462348554990136,0.25003962308223215,-29.06696320601114,-0.31129806139929883,-28.65119263877334,-0.8771220096078043,-28.21553846231842,-1.4439145122059056,-27.760511737038822,-2.0083779907386017,-27.286632359552343,-2.5674296850723106,-26.794428447576767,-3.118196340833901,-26.284435724804478,-3.6580088968497453,-25.757196905777075,-4.18439717258474,-25.21326108076001,-4.69508455558138,-24.653183100617166,-5.187982688898755,-24.0775229616855,-5.661186158551631,-23.48684519064965,-6.1129671809494734,-22.881718229416563,-6.5417702903354975,-22.2627138199901,-6.9462070262256805,-21.630406389345662,-7.325050620847852,-20.95432487350487,-8.036640549835484,-20.256307151648347,-8.693464761243368,-19.537131266669878,-9.293265449857602,-18.797670722100573,-9.834333961582947,-18.03888626927763,-10.315470551661432,-17.261817913955934,-10.735945642632673,-16.46757714043151,-11.095462554868776,-15.65733935124592,-11.394121682516756,-14.832336520540807,-11.632386087681274,-13.993850059131596,-11.811048485680741,-13.143203889369477,-11.931199594209412,-12.281757727860835,-11.994197819238702,-11.410900574113157,-12.001640250490317,-10.532044403176542,-11.95533493931426,-9.646618060349962,-11.85727443180455,-8.756061356021311,-11.709610529985516,-7.861819358710394,-11.514630253901613,-6.965336884383973,-11.27473297744364,-6.068053180111899,-10.992408710744167,-5.171396800133543,-10.670217501975236,-4.2767806724035315,-10.310769931380987,-3.385597353685961,-9.91670867037835,-2.499214471266156,-9.490691078558482,-1.6189703493491048,-9.035372811421988,-0.7461698182136474,-8.553392411680749,0.1179197958084468,-8.047356856959214,0.9720725014594334,-7.519828036728137,1.8151072967194617,-6.973310131303604,2.645891647938253,-6.410237865744181,3.4633447958654733,-5.832965611479201,4.266440890510737,-5.243757308500944,5.054211956764064,-4.644777180953708,5.825750692707769,-4.038081218952588,6.580213102550604,-3.425609399464923,7.3168209661151,-2.809178619087218,8.034864146808964,-2.190476311550473,8.73370274001148,-1.571054722786851,9.412769063805737,-0.9523258163905126,10.071569493987635,-0.3355567823055132,10.709686145282546,0.2781338784263223,11.326778400700523,0.8877797200246391,11.922584290960938,1.4925691966041104,12.496921725917499,2.091848012249258,13.049689579914443,2.685121003697839,13.580868633004897,3.272053582799762,14.090522369962283,3.8524727659187015,14.57879763901557,4.426367817443529,15.045925172239397,4.9938905345766225,15.492219969529902,5.5553552005662485,15.918081548097138,6.111238233550013,16.324329294078,6.6620105177366264,16.71144544814213,7.207788398669624,17.079405144955018,7.748665805363894,17.428207131486772,8.284771181343643,17.757873508410118,8.816263846190184,18.068449471498383,9.343330357089721,18.360003053023537,9.866180870381129,18.632624863154213,10.38504550310376,18.886427831353657,10.9001706945452,19.121546947777794,11.411815567789066,19.338139004673227,11.920248291262805,19.536382337775226,12.425742440285452,19.71647656770575,12.928573358615443,19.878642341371467,13.429014519998383,21.128914224123807,17.63816253779411,20.77227389099556,17.84174510219885,20.405423615074277,18.034255460848847,20.02848929453975,18.21454591531128,19.64161939604208,18.381433773336497,19.244983158214666,18.533709273113782,18.83876879518716,18.67014350752715,18.42318170009844,18.78949634841115,17.998442648609597,18.890524370806624,17.564786002416856,18.971988777216506,17.122457912764574,19.032663321861616,16.67171452395822,19.07134223493645,16.212820176877305,19.08684814686493,15.74604561248838,19.078040012556237,15.271666175358,19.043821035660578,14.787997991674217,18.987526749987392,14.293481933426754,18.911070548124634,13.78857483180617,18.811467398867137,13.27372146671372,18.686014333269082,12.749352866921452,18.532297589933144,12.215884645083769,18.34819926227768,11.673715381013963,18.13190338861415,11.123225066639638,17.881901425866868,10.564773626050723,17.596997047767537,9.998699524053908,17.276310208356612,9.425318476647185,16.919280411623735,8.844922276828338,16.52566912811959,8.25777774915112,16.095561299371212,7.6641258464429365,15.629365870933157,7.064180902097646,15.127815294906625,6.458130051357524,14.591963942758818,5.846132834997852,14.023185369274756,5.2283209988281545,13.423168368473736,4.604798502423684,12.793911762322745,3.9756417505010138,12.137717863078912,3.3409000603515002,11.457184550093372,2.7005963787463223,10.75519590190864,2.0547282617269547,10.034911324481829,1.403269130694782,9.299753116365832,0.7461698182136476,8.553392411680749,0.08336041693910934,7.799733441707804,-0.5852475549118381,7.042896055937911,-1.2597586581368088,6.287196443407161,-1.9402906937560334,5.537125995151426,-2.626971507438613,4.7973282486123345,-3.319935423733217,4.0725738548268104,-4.019319296689442,3.367733509232412,-4.725258163456106,2.6877487869207126,-5.437880487442667,2.03760082317088,-6.15730297763001,1.4222767800957907,-6.883624970616853,0.8467340402327892,-7.61692236198795,0.3158620679113824,-8.357241073590387,-0.16555812076992993,-9.10459004330416,-0.5928969385254312,-9.85893372389324,-0.9617217171904588,-10.620184077523465,-1.267844766923755,-11.38819205253333,-1.5073740634718646,-12.16273852904403,-1.6767666226632336,-12.943524719994947,-1.772884621299859,-13.7301620141908,-1.7930543236141947,-14.522161247946677,-1.7351278724591648,-15.318921391917257,-1.5975480043989894,-16.11971763969632,-1.3794157478686824,-16.923688884772893,-1.080561163569909,-17.72982457243022,-0.7016171862710454,-18.379515155088633,-0.691212317602206,-19.02663452945385,-0.6456729365014464,-19.670428019087243,-0.5655436098497955,-20.310080510765854,-0.45157943918771615,-20.94471462071508,-0.30475431296560807,-21.573388860841384,-0.12626915879435607,-22.195095804965025,0.08243980430414766,-22.808760255052746,0.3196928136464532,-23.4132374074505,0.5835583106370397,-24.007311019116145,0.8718446885177631,-24.589691573852168,1.1820920401173343,-25.15901444853839,1.5115639056007826,-25.713838079364674,1.8572390202189215,-26.252642128063627,2.2158030620578177,-26.773825648143347,2.5836403997882424"></polyline></clipPath><filter id="fuzzy"><feTurbulence id="turbulence" baseFrequency="0.05" numOctaves="3" type="noise" result="noise"></feTurbulence><feDisplacementMap in="SourceGraphic" in2="noise" scale="2"></feDisplacementMap></filter><linearGradient id="rainbowGradient" x1="0%" y1="0%" x2="100%" y2="0%"><stop offset="0%" style="stop-color: rgb(145, 85, 61);  stop-opacity: 1"></stop><stop offset="50%" style="stop-color: rgb(233, 236, 239);  stop-opacity: 1"></stop><stop offset="100%" style="stop-color: rgb(233, 236, 239);  stop-opacity: 1"></stop></linearGradient></defs><title>That&#39;s an ugly face</title><desc>CREATED BY XUAN TANG, MORE INFO AT TXSTC55.GITHUB.IO</desc><rect x="-100" y="-100" width="100%" height="100%" opacity="1" fill="rgb(85, 107, 47)"></rect><polyline id="faceContour" points="65,1,65,0,65,3,65,4,65,6,65,7,65,5,64,9,64,9,64,9,64,10,64,12,63,14,63,14,63,16,63,16,62,18,62,19,62,20,62,21,62,20,61,22,60,25,61,24,60,25,60,26,59,27,58,30,59,28,57,31,57,32,56,32,56,34,56,34,55,36,54,37,53,39,54,38,53,39,53,39,52,41,51,43,51,42,49,44,48,45,48,46,47,47,46,48,45,49,45,50,45,49,44,51,43,51,42,52,42,53,40,54,40,55,40,55,39,56,38,56,37,57,36,58,36,58,36,58,34,60,34,60,32,61,32,62,29,63,29,63,28,64,27,64,28,64,25,66,25,66,23,66,23,67,22,67,21,67,21,68,20,68,18,69,19,68,17,69,16,70,15,70,14,70,12,71,13,70,11,71,9,72,10,72,8,72,6,72,7,72,6,72,4,72,4,73,1,73,1,73,0,73,-1,73,-3,73,-3,73,-3,73,-5,73,-6,73,-6,73,-7,73,-8,73,-9,73,-10,73,-11,73,-14,72,-13,72,-15,72,-14,72,-15,72,-17,71,-18,71,-19,71,-20,71,-22,70,-23,69,-22,70,-23,69,-25,69,-25,69,-27,68,-28,67,-28,67,-30,67,-30,66,-31,66,-32,65,-33,64,-33,64,-34,63,-35,63,-37,61,-37,62,-39,60,-39,60,-39,60,-40,59,-40,58,-42,57,-42,57,-42,57,-43,55,-44,55,-45,54,-48,51,-47,51,-47,51,-48,50,-49,49,-50,48,-51,47,-51,46,-51,46,-52,45,-52,44,-53,43,-54,41,-55,40,-55,39,-56,37,-57,36,-56,37,-57,35,-58,34,-58,33,-58,32,-60,30,-59,30,-60,29,-60,27,-60,27,-61,24,-61,24,-62,23,-62,22,-62,22,-63,18,-63,18,-63,18,-64,14,-64,15,-64,14,-64,12,-64,12,-65,9,-65,8,-65,8,-65,6,-65,5,-65,4,-65,2,-65,1,-66,-1,-65,0,-66,-2,-66,-4,-66,-4,-66,-7,-65,-8,-65,-9,-65,-10,-65,-11,-65,-14,-65,-13,-65,-14,-65,-15,-65,-15,-64,-18,-64,-21,-64,-21,-63,-23,-64,-22,-63,-24,-63,-25,-63,-27,-62,-28,-62,-30,-62,-30,-62,-30,-61,-33,-61,-32,-60,-35,-59,-36,-59,-37,-59,-37,-58,-38,-58,-39,-57,-40,-56,-42,-56,-43,-56,-43,-55,-45,-55,-44,-54,-46,-53,-48,-53,-48,-52,-49,-52,-50,-50,-52,-50,-52,-50,-52,-49,-53,-49,-53,-47,-55,-47,-56,-45,-57,-46,-56,-43,-59,-44,-58,-43,-59,-42,-60,-41,-61,-41,-60,-39,-62,-40,-62,-37,-64,-37,-63,-37,-64,-35,-65,-34,-65,-32,-67,-33,-66,-31,-67,-29,-68,-29,-68,-28,-68,-28,-68,-27,-69,-26,-69,-25,-70,-25,-70,-24,-70,-21,-71,-20,-71,-19,-71,-17,-72,-17,-72,-17,-72,-14,-72,-13,-73,-13,-73,-12,-73,-11,-73,-8,-73,-9,-73,-8,-73,-6,-73,-6,-73,-5,-73,-4,-73,-3,-73,-2,-73,1,-73,1,-73,2,-73,3,-73,4,-73,6,-72,5,-72,8,-72,8,-72,9,-72,11,-72,12,-71,12,-71,14,-71,14,-71,17,-70,17,-70,20,-69,18,-69,21,-68,22,-68,21,-68,23,-67,23,-67,26,-66,26,-67,27,-66,29,-65,30,-64,30,-64,31,-63,32,-63,32,-63,35,-61,35,-61,36,-61,37,-60,38,-59,38,-59,38,-59,41,-56,42,-56,43,-55,43,-55,43,-55,44,-53,45,-53,47,-51,46,-51,48,-50,48,-50,48,-49,50,-47,50,-48,51,-46,52,-45,52,-45,53,-44,53,-43,53,-43,54,-43,55,-40,55,-40,56,-38,57,-37,58,-35,57,-37,58,-35,59,-34,59,-34,59,-32,60,-30,61,-29,61,-29,61,-28,62,-26,61,-27,62,-24,63,-23,63,-23,63,-22,63,-21,63,-20,64,-20,64,-18,65,-15,64,-16,65,-13,65,-13,65,-12,65,-11,65,-10,65,-8,65,-8,65,-7,65,-4,66,-4,65,-3,66,-1,65,0,65,1,65,0" fill="#ffc9a9" stroke="black" stroke-width="1.6666666666666665" stroke-linejoin="round" filter="url(#fuzzy)"></polyline><g transform="translate(25.658584825323874 -24.712928590680377)"><polyline id="rightCountour" points="-29.462348554990136,0.25003962308223215,-29.06696320601114,-0.31129806139929883,-28.65119263877334,-0.8771220096078043,-28.21553846231842,-1.4439145122059056,-27.760511737038822,-2.0083779907386017,-27.286632359552343,-2.5674296850723106,-26.794428447576767,-3.118196340833901,-26.284435724804478,-3.6580088968497453,-25.757196905777075,-4.18439717258474,-25.21326108076001,-4.69508455558138,-24.653183100617166,-5.187982688898755,-24.0775229616855,-5.661186158551631,-23.48684519064965,-6.1129671809494734,-22.881718229416563,-6.5417702903354975,-22.2627138199901,-6.9462070262256805,-21.630406389345662,-7.325050620847852,-20.95432487350487,-8.036640549835484,-20.256307151648347,-8.693464761243368,-19.537131266669878,-9.293265449857602,-18.797670722100573,-9.834333961582947,-18.03888626927763,-10.315470551661432,-17.261817913955934,-10.735945642632673,-16.46757714043151,-11.095462554868776,-15.65733935124592,-11.394121682516756,-14.832336520540807,-11.632386087681274,-13.993850059131596,-11.811048485680741,-13.143203889369477,-11.931199594209412,-12.281757727860835,-11.994197819238702,-11.410900574113157,-12.001640250490317,-10.532044403176542,-11.95533493931426,-9.646618060349962,-11.85727443180455,-8.756061356021311,-11.709610529985516,-7.861819358710394,-11.514630253901613,-6.965336884383973,-11.27473297744364,-6.068053180111899,-10.992408710744167,-5.171396800133543,-10.670217501975236,-4.2767806724035315,-10.310769931380987,-3.385597353685961,-9.91670867037835,-2.499214471266156,-9.490691078558482,-1.6189703493491048,-9.035372811421988,-0.7461698182136474,-8.553392411680749,0.1179197958084468,-8.047356856959214,0.9720725014594334,-7.519828036728137,1.8151072967194617,-6.973310131303604,2.645891647938253,-6.410237865744181,3.4633447958654733,-5.832965611479201,4.266440890510737,-5.243757308500944,5.054211956764064,-4.644777180953708,5.825750692707769,-4.038081218952588,6.580213102550604,-3.425609399464923,7.3168209661151,-2.809178619087218,8.034864146808964,-2.190476311550473,8.73370274001148,-1.571054722786851,9.412769063805737,-0.9523258163905126,10.071569493987635,-0.3355567823055132,10.709686145282546,0.2781338784263223,11.326778400700523,0.8877797200246391,11.922584290960938,1.4925691966041104,12.496921725917499,2.091848012249258,13.049689579914443,2.685121003697839,13.580868633004897,3.272053582799762,14.090522369962283,3.8524727659187015,14.57879763901557,4.426367817443529,15.045925172239397,4.9938905345766225,15.492219969529902,5.5553552005662485,15.918081548097138,6.111238233550013,16.324329294078,6.6620105177366264,16.71144544814213,7.207788398669624,17.079405144955018,7.748665805363894,17.428207131486772,8.284771181343643,17.757873508410118,8.816263846190184,18.068449471498383,9.343330357089721,18.360003053023537,9.866180870381129,18.632624863154213,10.38504550310376,18.886427831353657,10.9001706945452,19.121546947777794,11.411815567789066,19.338139004673227,11.920248291262805,19.536382337775226,12.425742440285452,19.71647656770575,12.928573358615443,19.878642341371467,13.429014519998383,21.128914224123807,17.63816253779411,20.77227389099556,17.84174510219885,20.405423615074277,18.034255460848847,20.02848929453975,18.21454591531128,19.64161939604208,18.381433773336497,19.244983158214666,18.533709273113782,18.83876879518716,18.67014350752715,18.42318170009844,18.78949634841115,17.998442648609597,18.890524370806624,17.564786002416856,18.971988777216506,17.122457912764574,19.032663321861616,16.67171452395822,19.07134223493645,16.212820176877305,19.08684814686493,15.74604561248838,19.078040012556237,15.271666175358,19.043821035660578,14.787997991674217,18.987526749987392,14.293481933426754,18.911070548124634,13.78857483180617,18.811467398867137,13.27372146671372,18.686014333269082,12.749352866921452,18.532297589933144,12.215884645083769,18.34819926227768,11.673715381013963,18.13190338861415,11.123225066639638,17.881901425866868,10.564773626050723,17.596997047767537,9.998699524053908,17.276310208356612,9.425318476647185,16.919280411623735,8.844922276828338,16.52566912811959,8.25777774915112,16.095561299371212,7.6641258464429365,15.629365870933157,7.064180902097646,15.127815294906625,6.458130051357524,14.591963942758818,5.846132834997852,14.023185369274756,5.2283209988281545,13.423168368473736,4.604798502423684,12.793911762322745,3.9756417505010138,12.137717863078912,3.3409000603515002,11.457184550093372,2.7005963787463223,10.75519590190864,2.0547282617269547,10.034911324481829,1.403269130694782,9.299753116365832,0.7461698182136476,8.553392411680749,0.08336041693910934,7.799733441707804,-0.5852475549118381,7.042896055937911,-1.2597586581368088,6.287196443407161,-1.9402906937560334,5.537125995151426,-2.626971507438613,4.7973282486123345,-3.319935423733217,4.0725738548268104,-4.019319296689442,3.367733509232412,-4.725258163456106,2.6877487869207126,-5.437880487442667,2.03760082317088,-6.15730297763001,1.4222767800957907,-6.883624970616853,0.8467340402327892,-7.61692236198795,0.3158620679113824,-8.357241073590387,-0.16555812076992993,-9.10459004330416,-0.5928969385254312,-9.85893372389324,-0.9617217171904588,-10.620184077523465,-1.267844766923755,-11.38819205253333,-1.5073740634718646,-12.16273852904403,-1.6767666226632336,-12.943524719994947,-1.772884621299859,-13.7301620141908,-1.7930543236141947,-14.522161247946677,-1.7351278724591648,-15.318921391917257,-1.5975480043989894,-16.11971763969632,-1.3794157478686824,-16.923688884772893,-1.080561163569909,-17.72982457243022,-0.7016171862710454,-18.379515155088633,-0.691212317602206,-19.02663452945385,-0.6456729365014464,-19.670428019087243,-0.5655436098497955,-20.310080510765854,-0.45157943918771615,-20.94471462071508,-0.30475431296560807,-21.573388860841384,-0.12626915879435607,-22.195095804965025,0.08243980430414766,-22.808760255052746,0.3196928136464532,-23.4132374074505,0.5835583106370397,-24.007311019116145,0.8718446885177631,-24.589691573852168,1.1820920401173343,-25.15901444853839,1.5115639056007826,-25.713838079364674,1.8572390202189215,-26.252642128063627,2.2158030620578177,-26.773825648143347,2.5836403997882424" fill="white" stroke="white" stroke-width="0" stroke-linejoin="round" filter="url(#fuzzy)"></polyline></g><g transform="translate(-25.556426662577483 -26.218307650808903)"><polyline id="leftCountour" points="28.731262974485116,-3.861839126784348,28.35975572120189,-4.413635651600375,27.96957298485945,-4.970368170464326,27.561231737667526,-5.5286623712952245,27.1352481595417,-6.085351271541555,26.692137391316017,-6.637470265370972,26.2324132879557,-7.182252170860057,25.756588171769803,-7.7171222771840355,25.265172585623862,-8.239693391806526,24.758675046152586,-8.747760887669266,24.237601796972516,-9.239297750381848,23.70245656189469,-9.712449625411459,23.153740298137304,-10.16552986527261,22.591950949538408,-10.59701457671688,22.017583199768538,-11.005537667922646,21.43112822554341,-11.389885895684799,20.79620245191523,-12.092395427591882,20.142542973131242,-12.74349978026829,19.47073385390964,-13.340933156442134,18.781426017391638,-13.8829370524527,18.07533346204478,-14.368222786442434,17.353229458934955,-14.79593547431515,16.615942732631133,-15.165619426274162,15.864353629006736,-15.47718493675415,15.099390273201479,-15.730876440560365,14.322024721007807,-15.92724200802905,13.533269106945642,-16.067104152022647,12.734171792289612,-16.151531919573657,11.925813516312502,-16.181814240990768,11.109303554008964,-16.159434509241095,10.285775883563407,-16.086046362422152,9.456385366825987,-15.963450642137296,8.622303946060676,-15.793573500588511,7.7847168602292856,-15.57844562920005,6.944818884075418,-15.320182581586788,6.103810593272308,-15.020966163681084,5.262894658898419,-14.683026863831607,4.423272174504808,-14.308627295688257,3.58613901903815,-13.900046626686485,2.752682258883369,-13.459565964945078,1.9240765922898149,-12.989454677390938,1.1014808394449433,-12.491957611924693,0.2860344814593827,-11.969283196440756,-0.521145748472609,-11.42359238751569,-1.318969218473422,-10.856988441578537,-2.106374692679102,-10.271507481376805,-2.882333563969242,-9.669109830551896,-3.645853021465703,-9.051672089137742,-4.395979149536359,-8.420979922796253,-5.131799955039799,-7.77872153860341,-5.852448319547168,-7.1264818201996984,-6.5571048732770985,-6.465737095118616,-7.2450007874798965,-5.797850507106929,-7.9154204820069785,-5.124067966250546,-8.567704244801629,-4.4455146497195575,-9.201250760047195,-3.7631920259462746,-9.815519541708678,-3.077975375050018,-10.410033269203932,-2.3906117783222793,-10.984380021940357,-1.7017185495861273,-11.538215409453304,-1.01178208124343,-12.071264593882177,-0.32115707782373804,-12.583324201520284,0.3699338501514866,-13.074264120174565,1.061400259175568,-13.544029179071199,1.753283639820503,-13.992640708043137,2.445756905044327,-14.420197972735757,3.1391236269282023,-14.827667624568743,3.8342890218506165,-15.215774999309911,4.531955583008885,-15.584335844079256,5.232240850906106,-15.933191862850482,5.935286961154507,-16.26221115358541,6.641257003456878,-16.571288645368416,7.350331380588038,-16.86034653554089,8.062704167376262,-17.12933472683564,8.778579469684768,-17.378231264511356,9.498167783393114,-17.60704277348702,10.221682353378686,-17.81580489547636,10.949335532498132,-18.004582726122287,11.681335140568805,-18.173471252131293,12.417880823350227,-18.322595788407945,13.15916041152553,-20.79334031194745,15.637978955055683,-20.544174549029023,16.01766217570063,-20.281695215540417,16.38809875510491,-20.005947744061732,16.748039567680124,-19.717002211594608,17.096188471469482,-19.414951850315564,17.43121036956193,-19.099911558329378,17.75173927150633,-18.77201641042242,18.056386354725554,-18.431420168816082,18.34374802593068,-18.078293793920075,18.61241398253511,-17.71282395508584,18.860975274068707,-17.3352115413599,19.088032363591957,-16.945670172237215,19.292203189110097,-16.544424708414553,19.472131224987272,-16.13170976254388,19.62649354336068,-15.70621704243457,19.75919994968595,-15.266646640302149,19.87264116434524,-14.81326057298294,19.963432637270927,-14.346330855650322,20.028446461754875,-13.86613797756035,20.064820233136388,-13.37296937503148,20.069965461738043,-12.867117912777939,20.041575479857382,-12.348880384716526,19.977632782622585,-11.818556045366527,19.876415742520287,-11.276445182962451,19.736504637403584,-10.722847745399303,19.55678693178837,-10.15806203013014,19.336461751246084,-9.582383449135484,19.07504348970101,-8.99610338008451,18.772364489440232,-8.39950811480751,18.428576733644324,-7.792877916199504,18.044152491246898,-7.176486194674573,17.619883853931142,-6.550598815290726,17.156881105071378,-5.9154735466649635,16.656569860427922,-5.271359662798223,16.12068692040305,-4.618497708929989,15.551274773666561,-3.9571194425421785,14.950674691958705,-3.2874479606320985,14.321518355878787,-2.609698024374117,13.66671795146747,-1.9240765922898149,12.989454677390938,-1.230783573046267,12.293165602534955,-0.5300128090022089,11.581528813816998,0.17804669837823806,10.85844679402453,0.8932093101245341,10.128027969487539,1.6152910072517208,9.394566367393441,2.344107373025713,8.662519322552471,3.079471288882174,7.936483173421627,3.82119033287929,7.221166887195354,4.569063869564714,6.521363553770966,5.3228798201369685,5.841919688397042,6.082411101781626,5.187702282812772,6.847411725062524,4.563563544686469,7.61761253824833,3.974303265161297,8.392716607454748,3.4246287543163483,9.172394221482632,2.919112284351119,9.95627751023234,2.4621459803016137,10.743954665574595,2.0578940980960416,11.534963753558127,1.7102426297583273,12.328786106834428,1.422746175567469,13.124839286179899,1.1985720229808976,13.922469599995647,1.040441372129921,14.720944170665295,0.9505676476953742,15.519442536650988,0.9305918369715576,16.31704777920802,0.9815147939266113,17.11273716259827,1.1036264490674084,17.769053732371702,0.9359554498740241,18.421035299005588,0.798724675319618,19.06793546075839,0.691848424751802,19.708957687914115,0.615061879135526,20.34325391625451,0.5679135997594944,20.969923140531264,0.5497580269425715,21.588010007938237,0.559747978740182,22.19650341158364,0.5968271496507196,22.79433508396227,0.6597226093219621,23.38037819042769,0.7469373012574607,23.95344592266445,0.8567425415229639,24.512290092160306,0.987170517452812,25.055599723678377,1.1360067863563472,25.581999648729436,1.30078277422432,26.090049099044023,1.4787682744352963" fill="white" stroke="white" stroke-width="0" stroke-linejoin="round" filter="url(#fuzzy)"></polyline></g><g transform="translate(25.658584825323874 -24.712928590680377)"><polyline id="rightUpper" points="-32.192650248180435,4.674746580755199,-32.02618646726767,4.403972822306737,-31.83497652955492,4.080259744816052,-31.61939369868027,3.709618557296997,-31.379826840886384,3.2977872122714587,-31.116679809895146,2.850235718330328,-30.830370831782265,2.372171452694438,-30.52133188985184,1.8685444737755486,-30.19000810951107,1.344052833737278,-29.83685714314479,0.8031478910560903,-29.462348554990136,0.25003962308223215,-29.06696320601114,-0.31129806139929883,-28.65119263877334,-0.8771220096078043,-28.21553846231842,-1.4439145122059056,-27.760511737038822,-2.0083779907386017,-27.286632359552343,-2.5674296850723106,-26.794428447576767,-3.118196340833901,-26.284435724804478,-3.6580088968497453,-25.757196905777075,-4.18439717258474,-25.21326108076001,-4.69508455558138,-24.653183100617166,-5.187982688898755,-24.0775229616855,-5.661186158551631,-23.48684519064965,-6.1129671809494734,-22.881718229416563,-6.5417702903354975,-22.2627138199901,-6.9462070262256805,-21.630406389345662,-7.325050620847852,-20.95432487350487,-8.036640549835484,-20.256307151648347,-8.693464761243368,-19.537131266669878,-9.293265449857602,-18.797670722100573,-9.834333961582947,-18.03888626927763,-10.315470551661432,-17.261817913955934,-10.735945642632673,-16.46757714043151,-11.095462554868776,-15.65733935124592,-11.394121682516756,-14.832336520540807,-11.632386087681274,-13.993850059131596,-11.811048485680741,-13.143203889369477,-11.931199594209412,-12.281757727860835,-11.994197819238702,-11.410900574113157,-12.001640250490317,-10.532044403176542,-11.95533493931426,-9.646618060349962,-11.85727443180455,-8.756061356021311,-11.709610529985516,-7.861819358710394,-11.514630253901613,-6.965336884383973,-11.27473297744364,-6.068053180111899,-10.992408710744167,-5.171396800133543,-10.670217501975236,-4.2767806724035315,-10.310769931380987,-3.385597353685961,-9.91670867037835,-2.499214471266156,-9.490691078558482,-1.6189703493491048,-9.035372811421988,-0.7461698182136474,-8.553392411680749,0.1179197958084468,-8.047356856959214,0.9720725014594334,-7.519828036728137,1.8151072967194617,-6.973310131303604,2.645891647938253,-6.410237865744181,3.4633447958654733,-5.832965611479201,4.266440890510737,-5.243757308500944,5.054211956764064,-4.644777180953708,5.825750692707769,-4.038081218952588,6.580213102550604,-3.425609399464923,7.3168209661151,-2.809178619087218,8.034864146808964,-2.190476311550473,8.73370274001148,-1.571054722786851,9.412769063805737,-0.9523258163905126,10.071569493987635,-0.3355567823055132,10.709686145282546,0.2781338784263223,11.326778400700523,0.8877797200246391,11.922584290960938,1.4925691966041104,12.496921725917499,2.091848012249258,13.049689579914443,2.685121003697839,13.580868633004897,3.272053582799762,14.090522369962283,3.8524727659187015,14.57879763901557,4.426367817443529,15.045925172239397,4.9938905345766225,15.492219969529902,5.5553552005662485,15.918081548097138,6.111238233550013,16.324329294078,6.6620105177366264,16.71144544814213,7.207788398669624,17.079405144955018,7.748665805363894,17.428207131486772,8.284771181343643,17.757873508410118,8.816263846190184,18.068449471498383,9.343330357089721,18.360003053023537,9.866180870381129,18.632624863154213,10.38504550310376,18.886427831353657,10.9001706945452,19.121546947777794,11.411815567789066,19.338139004673227,11.920248291262805,19.536382337775226,12.425742440285452,19.71647656770575,12.928573358615443,19.878642341371467,13.429014519998383,20.023121073361736,13.92733388971483,20.15017468734665,14.4237902861281,20.260085357475006,14.918629742232023,20.353155249772367,15.412081867198754,20.429706263539007,15.904356207926547,20.490079772747986,16.395638610587543,20.534636367443117,16.886087582175545,20.563755595136964,17.37583065205383,20.57783570220891,17.864960733502887,20.577293375303107,18.353532485268268" fill="none" stroke="black" stroke-width="1.6666666666666665" stroke-linejoin="round" filter="url(#fuzzy)"></polyline><polyline id="rightLower" points="-30.603017464002498,5.744648921203025,-30.36513624018089,5.555126778158107,-30.08878814166762,5.320334104754573,-29.776481054400893,5.047353500253817,-29.430623918421496,4.7428837319966215,-29.053528561640068,4.413247987653676,-28.6474115336044,4.064402127476125,-28.214395939266705,3.7019429365460876,-27.75651327275094,3.331116377027209,-27.275705251120065,2.956825840415169,-26.773825648143347,2.5836403997882424,-26.252642128063627,2.2158030620578177,-25.713838079364674,1.8572390202189215,-25.15901444853839,1.5115639056007826,-24.589691573852168,1.1820920401173343,-24.007311019116145,0.8718446885177631,-23.4132374074505,0.5835583106370397,-22.808760255052746,0.3196928136464532,-22.195095804965025,0.08243980430414766,-21.573388860841384,-0.12626915879435607,-20.94471462071508,-0.30475431296560807,-20.310080510765854,-0.45157943918771615,-19.670428019087243,-0.5655436098497955,-19.02663452945385,-0.6456729365014464,-18.379515155088633,-0.691212317602206,-17.72982457243022,-0.7016171862710454,-16.923688884772893,-1.080561163569909,-16.11971763969632,-1.3794157478686824,-15.318921391917257,-1.5975480043989894,-14.522161247946677,-1.7351278724591648,-13.7301620141908,-1.7930543236141947,-12.943524719994947,-1.772884621299859,-12.16273852904403,-1.6767666226632336,-11.38819205253333,-1.5073740634718646,-10.620184077523465,-1.267844766923755,-9.85893372389324,-0.9617217171904588,-9.10459004330416,-0.5928969385254312,-8.357241073590387,-0.16555812076992993,-7.61692236198795,0.3158620679113824,-6.883624970616853,0.8467340402327892,-6.15730297763001,1.4222767800957907,-5.437880487442667,2.03760082317088,-4.725258163456106,2.6877487869207126,-4.019319296689442,3.367733509232412,-3.319935423733217,4.0725738548268104,-2.626971507438613,4.7973282486123345,-1.9402906937560334,5.537125995151426,-1.2597586581368088,6.287196443407161,-0.5852475549118381,7.042896055937911,0.08336041693910934,7.799733441707804,0.7461698182136476,8.553392411680749,1.403269130694782,9.299753116365832,2.0547282617269547,10.034911324481829,2.7005963787463223,10.75519590190864,3.3409000603515002,11.457184550093372,3.9756417505010138,12.137717863078912,4.604798502423684,12.793911762322745,5.2283209988281545,13.423168368473736,5.846132834997852,14.023185369274756,6.458130051357524,14.591963942758818,7.064180902097646,15.127815294906625,7.6641258464429365,15.629365870933157,8.25777774915112,16.095561299371212,8.844922276828338,16.52566912811959,9.425318476647185,16.919280411623735,9.998699524053908,17.276310208356612,10.564773626050723,17.596997047767537,11.123225066639638,17.881901425866868,11.673715381013963,18.13190338861415,12.215884645083769,18.34819926227768,12.749352866921452,18.532297589933144,13.27372146671372,18.686014333269082,13.78857483180617,18.811467398867137,14.293481933426754,18.911070548124634,14.787997991674217,18.987526749987392,15.271666175358,19.043821035660578,15.74604561248838,19.078040012556237,16.212820176877305,19.08684814686493,16.67171452395822,19.07134223493645,17.122457912764574,19.032663321861616,17.564786002416856,18.971988777216506,17.998442648609597,18.890524370806624,18.42318170009844,18.78949634841115,18.83876879518716,18.67014350752715,19.244983158214666,18.533709273113782,19.64161939604208,18.381433773336497,20.02848929453975,18.21454591531128,20.405423615074277,18.034255460848847,20.77227389099556,17.84174510219885,21.128914224123807,17.63816253779411,21.475243081236606,17.424612547994816,21.811185090555917,17.202149070832746,22.136692838235128,16.971767277755472,22.451748664846075,16.734395649370587,22.7563664618661,16.490888051189906,23.05059346816505,16.242015809373665,23.334512066492334,15.988459786474785,23.608241579963938,15.730802457183028,23.87194006854947,15.469519984069244,24.125806125559205,15.204974293329578" fill="none" stroke="black" stroke-width="2.2222222222222223" stroke-linejoin="round" filter="url(#fuzzy)"></polyline><!--[--><circle r="4.547164085584718" cx="10.695369981830929" cy="6.767468682784834" stroke="black" fill="none" stroke-width="1" filter="url(#fuzzy)" clip-path="url(#rightEyeClipPath)"></circle><circle r="3.050831614550499" cx="8.556696112096608" cy="7.684040163747687" stroke="black" fill="none" stroke-width="1" filter="url(#fuzzy)" clip-path="url(#rightEyeClipPath)"></circle><circle r="4.3401344304589236" cx="6.7598246855740385" cy="8.836255722560875" stroke="black" fill="none" stroke-width="1" filter="url(#fuzzy)" clip-path="url(#rightEyeClipPath)"></circle><circle r="3.133518593494597" cx="11.442232591261693" cy="7.081492406265488" stroke="black" fill="none" stroke-width="1" filter="url(#fuzzy)" clip-path="url(#rightEyeClipPath)"></circle><circle r="4.1697271457492855" cx="8.158998187393882" cy="8.327201759345838" stroke="black" fill="none" stroke-width="1" filter="url(#fuzzy)" clip-path="url(#rightEyeClipPath)"></circle><circle r="3.5469868941653857" cx="7.506010825850717" cy="5.968638964995719" stroke="black" fill="none" stroke-width="1" filter="url(#fuzzy)" clip-path="url(#rightEyeClipPath)"></circle><circle r="3.89886340853244" cx="8.352100889755754" cy="6.450947697394888" stroke="black" fill="none" stroke-width="1" filter="url(#fuzzy)" clip-path="url(#rightEyeClipPath)"></circle><circle r="4.497012042438725" cx="10.55729747395764" cy="8.003603010895104" stroke="black" fill="none" stroke-width="1" filter="url(#fuzzy)" clip-path="url(#rightEyeClipPath)"></circle><circle r="4.096068800611501" cx="7.476786798007112" cy="10.42172688563397" stroke="black" fill="none" stroke-width="1" filter="url(#fuzzy)" clip-path="url(#rightEyeClipPath)"></circle><circle r="4.257179373439814" cx="7.17255512079142" cy="5.904746418263324" stroke="black" fill="none" stroke-width="1" filter="url(#fuzzy)" clip-path="url(#rightEyeClipPath)"></circle><!--]--></g><g transform="translate(-25.556426662577483 -26.218307650808903)"><polyline id="leftUpper" points="31.305377630821745,0.48414165122130903,31.149056531442273,0.21644598715579466,30.968900943939673,-0.10242153414526278,30.765422190162173,-0.4667409007418408,30.539133267537103,-0.8710489583260124,30.290548602283653,-1.3101344574116922,30.020183802625485,-1.7790331005243516,29.728555412003413,-2.27302258939077,29.416180662288053,-2.7876176721287624,29.083577226992528,-3.3185651904369244,28.731262974485116,-3.861839126784348,28.35975572120189,-4.413635651600375,27.96957298485945,-4.970368170464326,27.561231737667526,-5.5286623712952245,27.1352481595417,-6.085351271541555,26.692137391316017,-6.637470265370972,26.2324132879557,-7.182252170860057,25.756588171769803,-7.7171222771840355,25.265172585623862,-8.239693391806526,24.758675046152586,-8.747760887669266,24.237601796972516,-9.239297750381848,23.70245656189469,-9.712449625411459,23.153740298137304,-10.16552986527261,22.591950949538408,-10.59701457671688,22.017583199768538,-11.005537667922646,21.43112822554341,-11.389885895684799,20.79620245191523,-12.092395427591882,20.142542973131242,-12.74349978026829,19.47073385390964,-13.340933156442134,18.781426017391638,-13.8829370524527,18.07533346204478,-14.368222786442434,17.353229458934955,-14.79593547431515,16.615942732631133,-15.165619426274162,15.864353629006736,-15.47718493675415,15.099390273201479,-15.730876440560365,14.322024721007807,-15.92724200802905,13.533269106945642,-16.067104152022647,12.734171792289612,-16.151531919573657,11.925813516312502,-16.181814240990768,11.109303554008964,-16.159434509241095,10.285775883563407,-16.086046362422152,9.456385366825987,-15.963450642137296,8.622303946060676,-15.793573500588511,7.7847168602292856,-15.57844562920005,6.944818884075418,-15.320182581586788,6.103810593272308,-15.020966163681084,5.262894658898419,-14.683026863831607,4.423272174504808,-14.308627295688257,3.58613901903815,-13.900046626686485,2.752682258883369,-13.459565964945078,1.9240765922898149,-12.989454677390938,1.1014808394449433,-12.491957611924693,0.2860344814593827,-11.969283196440756,-0.521145748472609,-11.42359238751569,-1.318969218473422,-10.856988441578537,-2.106374692679102,-10.271507481376805,-2.882333563969242,-9.669109830551896,-3.645853021465703,-9.051672089137742,-4.395979149536359,-8.420979922796253,-5.131799955039799,-7.77872153860341,-5.852448319547168,-7.1264818201996984,-6.5571048732770985,-6.465737095118616,-7.2450007874798965,-5.797850507106929,-7.9154204820069785,-5.124067966250546,-8.567704244801629,-4.4455146497195575,-9.201250760047195,-3.7631920259462746,-9.815519541708678,-3.077975375050018,-10.410033269203932,-2.3906117783222793,-10.984380021940357,-1.7017185495861273,-11.538215409453304,-1.01178208124343,-12.071264593882177,-0.32115707782373804,-12.583324201520284,0.3699338501514866,-13.074264120174565,1.061400259175568,-13.544029179071199,1.753283639820503,-13.992640708043137,2.445756905044327,-14.420197972735757,3.1391236269282023,-14.827667624568743,3.8342890218506165,-15.215774999309911,4.531955583008885,-15.584335844079256,5.232240850906106,-15.933191862850482,5.935286961154507,-16.26221115358541,6.641257003456878,-16.571288645368416,7.350331380588038,-16.86034653554089,8.062704167376262,-17.12933472683564,8.778579469684768,-17.378231264511356,9.498167783393114,-17.60704277348702,10.221682353378686,-17.81580489547636,10.949335532498132,-18.004582726122287,11.681335140568805,-18.173471252131293,12.417880823350227,-18.322595788407945,13.15916041152553,-18.452112415189283,13.905346279682893,-18.562208415179263,14.65659170529702,-18.65310271068319,15.413027227710549,-18.72504630074216,16.17475700711554,-18.77832269826749,16.94185518353489,-18.81324836717517,17.714362235803822,-18.830173159520257,18.492281340551283,-18.82948075263135,19.27557473118143,-18.81158908624502,20.064160056855066,-18.776950799640233,20.857906741471087" fill="none" stroke="black" stroke-width="2.2222222222222223" stroke-linejoin="round" filter="url(#fuzzy)"></polyline><polyline id="leftLower" points="29.794578760931913,3.182416091207412,29.564713931814445,3.085419431345609,29.298173521241324,2.9582901393516483,28.997131654312486,2.8067873191164727,28.663682791069743,2.6363334289829012,28.299843133024588,2.4520217830392266,27.907552029685984,2.258624052412803,27.488673385088152,2.0605977665636486,27.044997064318363,1.8620938145780315,26.57824030004473,1.6669639464620616,26.090049099044023,1.4787682744352963,25.581999648729436,1.30078277422432,25.055599723678377,1.1360067863563472,24.512290092160306,0.987170517452812,23.95344592266445,0.8567425415229639,23.38037819042769,0.7469373012574607,22.79433508396227,0.6597226093219621,22.19650341158364,0.5968271496507196,21.588010007938237,0.559747978740182,20.969923140531264,0.5497580269425715,20.34325391625451,0.5679135997594944,19.708957687914115,0.615061879135526,19.06793546075839,0.691848424751802,18.421035299005588,0.798724675319618,17.769053732371702,0.9359554498740241,17.11273716259827,1.1036264490674084,16.31704777920802,0.9815147939266113,15.519442536650988,0.9305918369715576,14.720944170665295,0.9505676476953742,13.922469599995647,1.040441372129921,13.124839286179899,1.1985720229808976,12.328786106834428,1.422746175567469,11.534963753558127,1.7102426297583273,10.743954665574595,2.0578940980960416,9.95627751023234,2.4621459803016137,9.172394221482632,2.919112284351119,8.392716607454748,3.4246287543163483,7.61761253824833,3.974303265161297,6.847411725062524,4.563563544686469,6.082411101781626,5.187702282812772,5.3228798201369685,5.841919688397042,4.569063869564714,6.521363553770966,3.82119033287929,7.221166887195354,3.079471288882174,7.936483173421627,2.344107373025713,8.662519322552471,1.6152910072517208,9.394566367393441,0.8932093101245341,10.128027969487539,0.17804669837823806,10.85844679402453,-0.5300128090022089,11.581528813816998,-1.230783573046267,12.293165602534955,-1.9240765922898149,12.989454677390938,-2.609698024374117,13.66671795146747,-3.2874479606320985,14.321518355878787,-3.9571194425421785,14.950674691958705,-4.618497708929989,15.551274773666561,-5.271359662798223,16.12068692040305,-5.9154735466649635,16.656569860427922,-6.550598815290726,17.156881105071378,-7.176486194674573,17.619883853931142,-7.792877916199504,18.044152491246898,-8.39950811480751,18.428576733644324,-8.99610338008451,18.772364489440232,-9.582383449135484,19.07504348970101,-10.15806203013014,19.336461751246084,-10.722847745399303,19.55678693178837,-11.276445182962451,19.736504637403584,-11.818556045366527,19.876415742520287,-12.348880384716526,19.977632782622585,-12.867117912777939,20.041575479857382,-13.37296937503148,20.069965461738043,-13.86613797756035,20.064820233136388,-14.346330855650322,20.028446461754875,-14.81326057298294,19.963432637270927,-15.266646640302149,19.87264116434524,-15.70621704243457,19.75919994968595,-16.13170976254388,19.62649354336068,-16.544424708414553,19.472131224987272,-16.945670172237215,19.292203189110097,-17.3352115413599,19.088032363591957,-17.71282395508584,18.860975274068707,-18.078293793920075,18.61241398253511,-18.431420168816082,18.34374802593068,-18.77201641042242,18.056386354725554,-19.099911558329378,17.75173927150633,-19.414951850315564,17.43121036956193,-19.717002211594608,17.096188471469482,-20.005947744061732,16.748039567680124,-20.281695215540417,16.38809875510491,-20.544174549029023,16.01766217570063,-20.79334031194745,15.637978955055683,-21.029173205383735,15.250243140975934,-21.25168155334072,14.855585642070572,-21.46090279198265,14.45506616633794,-21.65690495888186,14.04966515975143,-21.83978818226534,13.64027574484532,-22.009686170261446,13.227695659300608,-22.166767700146465,12.812619194530914,-22.311238107591297,12.395629134268294,-22.443340775908062,11.97718869314913,-22.563358625296758,11.557633455299953" fill="none" stroke="black" stroke-width="2.2222222222222223" stroke-linejoin="round" filter="url(#fuzzy)"></polyline><!--[--><circle r="4.637739445586371" cx="-12.299972426394637" cy="6.728043900965202" stroke="black" fill="none" stroke-width="1" filter="url(#fuzzy)" clip-path="url(#leftEyeClipPath)"></circle><circle r="3.037871149956966" cx="-11.621621362901042" cy="7.910852867525895" stroke="black" fill="none" stroke-width="1" filter="url(#fuzzy)" clip-path="url(#leftEyeClipPath)"></circle><circle r="3.5610475692195744" cx="-10.951737390503034" cy="9.336756266657009" stroke="black" fill="none" stroke-width="1" filter="url(#fuzzy)" clip-path="url(#leftEyeClipPath)"></circle><circle r="3.484993575299337" cx="-12.053590523507628" cy="10.494135858854552" stroke="black" fill="none" stroke-width="1" filter="url(#fuzzy)" clip-path="url(#leftEyeClipPath)"></circle><circle r="4.2170567777824175" cx="-9.901640683125208" cy="9.776759621955513" stroke="black" fill="none" stroke-width="1" filter="url(#fuzzy)" clip-path="url(#leftEyeClipPath)"></circle><circle r="4.1742651243166975" cx="-12.620419834650404" cy="9.862640558976906" stroke="black" fill="none" stroke-width="1" filter="url(#fuzzy)" clip-path="url(#leftEyeClipPath)"></circle><circle r="3.546237838114739" cx="-9.15928497915895" cy="9.686368922688281" stroke="black" fill="none" stroke-width="1" filter="url(#fuzzy)" clip-path="url(#leftEyeClipPath)"></circle><circle r="4.150436544793798" cx="-11.370962413792725" cy="10.177350606807964" stroke="black" fill="none" stroke-width="1" filter="url(#fuzzy)" clip-path="url(#leftEyeClipPath)"></circle><circle r="3.6084724395701135" cx="-9.549659372499484" cy="8.874760844957443" stroke="black" fill="none" stroke-width="1" filter="url(#fuzzy)" clip-path="url(#leftEyeClipPath)"></circle><circle r="3.8406081053996823" cx="-10.258771606931829" cy="11.158712383679267" stroke="black" fill="none" stroke-width="1" filter="url(#fuzzy)" clip-path="url(#leftEyeClipPath)"></circle><!--]--></g><g id="hairs"><!--[--><polyline points="-37,-63,-36.31313774450914,-63.90919823063649,-34.95145258558465,-64.69862245254048,-33.41519495903494,-65.40745481375605,-31.831729818839545,-66.04740545776409,-30.194989892700377,-66.62983033354651,-28.500931544125706,-67.16569862703551,-26.77880496019552,-67.65948885542713,-25.06470456711919,-68.11624048090039,-23.37527970859309,-68.54855409394098,-21.704855817058924,-68.97399417307787,-20.03819171363795,-69.40651173429967,-18.36330309510231,-69.84987717866898,-16.677296303605956,-70.29712563618618,-14.988595081074855,-70.73472360296311,-13.32164509072181,-71.14799585742499,-11.72415876591255,-71.5252205074379,-10.268494029893922,-71.85947243260688,-9.036622060458928,-72.14820487372742,-8.087349626852822,-72.39105493821992,-7.421586120811999,-72.58776166363901,-6.974168805318492,-72.73974597996384,-6.650872847031712,-72.85573761708454,-6.376043395861408,-72.94887789912885" fill="none" stroke="rgb(80, 68, 68)" stroke-width="2" stroke-linejoin="round" filter="url(#fuzzy)"></polyline><polyline points="-19,-71,-17.74542454848752,-71.61352721073484,-17.03780202886557,-71.8472061050478,-16.35579294644582,-71.96394504574164,-15.711548082300371,-72.04177992765247,-15.234313700582561,-72.05712131463565,-14.98726498010501,-71.96509585611605,-14.978370120472253,-71.73920928507002,-15.217148066131838,-71.37388985491445,-15.735701401421476,-70.87306314701503,-16.573411464691162,-70.24170732498169,-17.75796791644091,-69.48337521753537,-19.302685153054387,-68.59898233734808,-21.21467260098682,-67.58411424135302,-23.500042221159227,-66.4276437199079,-26.1644865350911,-65.11473959354885,-29.22081155220449,-63.63095232304328,-32.70853366529819,-61.963947889207134,-36.70559799982486,-60.12029621641017,-41.32696347452986,-58.168343534591756" fill="none" stroke="rgb(80, 68, 68)" stroke-width="2" stroke-linejoin="round" filter="url(#fuzzy)"></polyline><polyline points="9,-72,10.60416881433962,-71.6992238181518,11.88589028596618,-71.20601817807571,13.203127129593364,-70.69745362395008,14.697352590530093,-70.13598832963301,16.363156601265704,-69.47598338425743,18.129357393179802,-68.71204493322155,19.917583787356705,-67.86909584003355,21.674020967746294,-66.98268954149113,23.374113767987865,-66.08618716783698,25.012376548306293,-65.20589940550784,26.59247730134209,-64.36069248353411,28.123242878553484,-63.56285902535553,29.615841644799197,-62.81847068019103,31.07590133750994,-62.12717707757757,32.49057687909091,-61.48383642906235,33.817028766121915,-60.88598470587292,34.98081267286866,-60.34807410605298,35.892202130674576,-59.913179642009766,36.487455263656926,-59.64120260306983,36.791117992296606,-59.55785477105133,36.95070988526899,-59.59718781680852,37.11029828572837,-59.66831589993086" fill="none" stroke="rgb(80, 68, 68)" stroke-width="2" stroke-linejoin="round" filter="url(#fuzzy)"></polyline><polyline points="-29,-68,-28.024840738273188,-68.01404650413964,-26.610367092524513,-68.11586664796194,-24.612565977623678,-68.24237176996648,-22.094860933022574,-68.32178708026186,-19.109583780205487,-68.31909878303,-15.657504796923867,-68.22518955905022,-11.74395044315408,-68.04458225275175,-7.4344635009765625,-67.78660583496094,-2.854968366943554,-67.46019305497454,1.8526966706569539,-67.07328760170616,6.5776518342556205,-66.63556716972424,11.266678793122992,-66.1582540217787,15.936472145538183,-65.64316823149474,20.654794534149865,-65.07087528353816,25.418083442475186,-64.44847573023249" fill="none" stroke="rgb(80, 68, 68)" stroke-width="2" stroke-linejoin="round" filter="url(#fuzzy)"></polyline><polyline points="36,-61,36.912946626766455,-60.08527973538939,37.69905134413268,-59.30402985288952,38.5498667908194,-58.49474239345129,39.58477777695748,-57.563812916777515,40.734106044157365,-56.56922550908259,41.85633909556711,-55.60921589848173,42.853368998527095,-54.73775368774112,43.705253669446236,-53.95424910498829,44.44237180928643,-53.23548960591357,45.099363643975394,-52.56945314465102,45.6843478679657,-51.96965050697327,46.17436607935768,-51.46957787521303,46.52955080273548,-51.108299145311705,46.71170961932513,-50.91837777240576,46.69739340159197,-50.92092849844377,46.483792425278494,-51.12557934809588,46.08897408331686,-51.52988394074971,45.542796952894406,-52.116248602375954,44.85825603370872,-52.85666129839413,43.97970681274224,-53.74485300522336,42.74440509667781,-54.82684556339874" fill="none" stroke="rgb(80, 68, 68)" stroke-width="2" stroke-linejoin="round" filter="url(#fuzzy)"></polyline><polyline points="-8,-73,-6.776078442037411,-72.96801661617074,-6.238994019546971,-72.86119826171556,-5.970610810466161,-72.66903532421512,-5.879326343839085,-72.38308080796415,-5.985535337305383,-71.99220176117572,-6.363830404781034,-71.48222790388704,-7.111142460750029,-70.83715952439967,-8.311812655884843,-70.0384319334299,-10.017019271850586,-69.06377792358398,-12.250005854765753,-67.88867395483071,-15.025909753209078,-66.49104553003457,-18.364807924927966,-64.85859828561279,-22.28652365746375,-62.99808197802235,-26.79500208478978,-60.94292826944168,-31.869159223165163,-58.75100444644113,-37.4640371034292,-56.48915809895299,-43.513631105747365,-54.22204812365888" fill="none" stroke="rgb(80, 68, 68)" stroke-width="2" stroke-linejoin="round" filter="url(#fuzzy)"></polyline><polyline points="59,-34,58.909498163596425,-33.507875128918734,58.7109059371806,-32.697522104232505,58.274846612949304,-32.18179787828817,57.423132036320894,-32.162560462856334,56.05834976962201,-32.62880622675944,54.15732124691972,-33.52037248344499,51.730275612639346,-34.80143861582019,48.78781582891695,-36.47163949327357,45.319766608820636,-38.55706436372,41.284518829422666,-41.09707791430818,36.61442796229603,-44.12675353455126,31.241838967532917,-47.66209046784776,25.13693741056062,-51.701913889476955,18.33029924536084,-56.245054844605654,10.883571094254489,-61.299123815305094,2.8021435345286987,-66.87045733532695" fill="none" stroke="rgb(80, 68, 68)" stroke-width="2" stroke-linejoin="round" filter="url(#fuzzy)"></polyline><polyline points="57,-37,57.22908374096374,-36.19287757725567,56.774580492417556,-36.08505835677077,55.948838479736416,-35.97758347937603,54.68813439581805,-35.8520127097065,52.92393195398046,-35.782552356348056,50.62800161180913,-35.854821443781745,47.77244120693817,-36.157670580337964,44.31132174369305,-36.75569325781245,40.19555020049381,-37.66824422556097,35.39419445965795,-38.87626626361704,29.89955805285704,-40.34711320502946,23.714242294058955,-42.058082659218755,16.834995515484287,-44.00997453998848,9.249002365204184,-46.23010465573691,0.9425791451346512,-48.76059002198488,-8.09795847072796,-51.626381270025426,-17.90280210325556,-54.794364458237766,-28.44288416632571,-58.18388805886984" fill="none" stroke="rgb(80, 68, 68)" stroke-width="2" stroke-linejoin="round" filter="url(#fuzzy)"></polyline><polyline points="35,-61,35.979065061712554,-60.64043440970332,36.916685653033646,-59.93439356489759,37.80598841230926,-59.137873867186535,38.756767975748886,-58.2617407555024,39.829608952400434,-57.296080356543726,40.97837249168662,-56.28760935894788,42.104517336949534,-55.30575299165961,43.1301722933097,-54.39509556061576,44.03048262605918,-53.56270426159862,44.82057259556763,-52.79658309156068,45.522902614778125,-52.09096990131033,46.14260639034412,-51.45925102260766,46.66331513817774,-50.929794153194905,47.05853271237777,-50.532206445587825,47.30468423361863,-50.28642177698552,47.384854689447124,-50.20374504870904,47.282425106974195,-50.29899720732383,46.97371495757976,-50.60126975283921,46.433687598063216,-51.14694397837506,45.66552603070993,-51.95022799086165,44.74375249941742,-52.965141506172884,43.81742247943545,-54.05216941889572" fill="none" stroke="rgb(80, 68, 68)" stroke-width="2" stroke-linejoin="round" filter="url(#fuzzy)"></polyline><polyline points="12,-71,12.53580089300121,-70.98631493696197,13.525978016610358,-70.87661496464285,14.640503311734463,-70.63690325918768,15.72096293658713,-70.30993055943969,16.644849738453164,-69.95296084367338,17.345571276914765,-69.61152347648131,17.804839827962887,-69.31767588170104,18.025850296377893,-69.09220863435684,18.016112156385223,-68.945644473657,17.78311391752013,-68.87998730321611,17.330127592222716,-68.89186976394804,16.64554909160079,-68.97499251759166,15.692371730191093,-69.12044798661152,14.408769004674433,-69.3172616664335,12.723829099139772,-69.55761052747067,10.582200271562922,-69.8472323875275,7.965781349249633,-70.2128021070342,4.902217851931939,-70.6940191450627,1.4596495882578298,-71.32022249905637,-2.2505128371539116,-72.09465512049947" fill="none" stroke="rgb(80, 68, 68)" stroke-width="2" stroke-linejoin="round" filter="url(#fuzzy)"></polyline><polyline points="-50,-52,-12.366686360329807,-60.24273877163194,13.377985508005871,-57.06715469211982,23.23106080991475,-54.96616770845494,24.323079087565986,-54.996724013518616,22.360148573116142,-55.52711791279082,18.98528069329862,-56.14722017709295,14.449065297777782,-57.15029757084896,9.456131635727214,-58.518769073565565,4.824668884277344,-59.889984130859375,0.5928993103092685,-61.046679593747314,-3.9606040567787093,-62.15495823052471,-9.43856036999633,-63.49595168674727,-15.595440596620984,-65.0104653425568,-21.435453152357642,-66.19198075922738,-25.713726561869567,-66.60815895309283,-26.691418800079173,-66.75692785497995,-20.70327430405039,-68.43333245842351,-2,-73" fill="none" stroke="rgb(80, 68, 68)" stroke-width="2" stroke-linejoin="round" filter="url(#fuzzy)"></polyline><polyline points="51,-46,9.344511389017272,-50.529767925442485,10.662057089046549,-55.8864738247931,12.778496026607627,-60.26799928636217,8.770732858486241,-62.01616091487478,0.8302944607557946,-61.989186005596146,-5.989104571482113,-61.651372361711616,-7.309175758108258,-61.427595853710926,-1.8490693583427078,-60.564125387372165,8.588071942029307,-58.05790930085478,20.86285617434136,-53.806405602879735,31.90593627379113,-49.3035846084126,39.071074587869184,-47.216571028799486,41.11319936030663,-49.22611058452887,39.89961802266606,-53.70406693820931,32,-63" fill="none" stroke="rgb(80, 68, 68)" stroke-width="2" stroke-linejoin="round" filter="url(#fuzzy)"></polyline><polyline points="58,-35,-6.742795719479571,-47.21008147623601,-18.706693885904073,-55.34068496153748,-13.781686746252845,-57.88667152429185,-6.651623013960262,-57.611228078769386,-1.770548863230033,-57.828966970376314,0.9788740050719541,-59.721234690356894,2.7179175386345507,-62.599220182727386,3.811859222610178,-65.23481512970933,3.8921071867389525,-66.71017402511805,2.571225166320801,-66.59960460662842,-0.18883573240008444,-64.94047352799903,-4.12793687236687,-62.2720487888455,-8.616553351009765,-59.607721225567566,-12.338521341987848,-58.07743732862954,-13.519065135357778,-58.28141677476651,-11.500276170847817,-59.88169047848688,-8.513968429383917,-62.08625768437258,-7.744171616027233,-64.88065963051592,-5.421377177652689,-69.06701158215704,9,-72" fill="none" stroke="rgb(80, 68, 68)" stroke-width="2" stroke-linejoin="round" filter="url(#fuzzy)"></polyline><polyline points="-29,-68,-2.9374852010169925,-60.79620082184731,3.3464992756572216,-55.62029047685541,7.5424859861437925,-53.660539329909106,10.012378713614027,-53.61333685264117,12.644238874641616,-54.31889730559302,16.34164028019669,-55.07939626385366,20.091963188319117,-55.30404295414948,22.215542440648832,-54.6563093870667,21.640045790876894,-53.35118716398917,18.57043439208878,-52.068805179253786,14.545221212671878,-51.51934408393241,11.789631543065239,-52.05956506338565,11.966317238759292,-53.62935747908232,14.954189103229675,-55.923800297762085,18.725990770439697,-58.48833802631341,21.21261306208439,-60.49611910209616,23.111871852458947,-60.644296793459006,25.423107845787605,-59.702883407935026,9,-72" fill="none" stroke="rgb(80, 68, 68)" stroke-width="2" stroke-linejoin="round" filter="url(#fuzzy)"></polyline><polyline points="4,-73,21.983185707697018,-64.258390204849,21.71889423821258,-61.506573449879696,20.825581193429013,-59.90347910388127,24.175946372851236,-57.12511107244821,26.720913237503062,-54.35837280149635,23.229659989344256,-53.39702032272588,13.701661998238471,-54.55114496188498,3.1488831571752374,-56.57012196579202,-2.2696580896194543,-57.81233421136692,0.1789615055697265,-57.47962677575372,7.436864431579228,-56.07597425015486,12.60920341974221,-54.74034276804198,10.735664517936492,-53.8277456857845,0.15986713213180082,-52.71486508371926,-47,-56" fill="none" stroke="rgb(80, 68, 68)" stroke-width="2" stroke-linejoin="round" filter="url(#fuzzy)"></polyline><polyline points="52,-45,41.55532797198156,-49.42420646726693,24.520304898499695,-53.590996569826416,16.25347099626355,-55.982039805765844,15.930383567413381,-58.00608532835014,17.818934670326737,-60.096731853808464,19.457879273390745,-61.437754189092516,21.24063343191912,-61.08109499794493,23.300927609644503,-59.053856866698546,24.24506378173828,-56.53736877441406,22.40642428474206,-55.09365581246343,17.693810593889083,-55.65946682505015,11.817296405301894,-58.1001247794099,6.449800166255389,-61.52536578970277,1.3774883381656162,-64.88049647275147,-4.32813647885947,-67.19281520512777,-7.5143175020287325,-67.33615584103977,3.3056182424560987,-63.44444205147686,47,-51" fill="none" stroke="rgb(80, 68, 68)" stroke-width="2" stroke-linejoin="round" filter="url(#fuzzy)"></polyline><polyline points="38,-59,2.7049829451286116,-64.78526632553337,1.0725054984217337,-62.967325146759435,13.014097601376768,-58.70092884128339,24.027383073498758,-54.682988614307,28.699792418018824,-52.286312673715464,27.342046672879086,-51.79375968220499,22.962271781808813,-52.61469227216503,18.762566998867374,-53.812153719440275,16.397016635673157,-54.697436839856195,15.63878515402968,-55.07498296952231,15.250293919651504,-55.09234781122145,14.092165288413954,-54.98829062185527,11.802403816179698,-54.9679899898335,9.100079442126276,-55.15817677107933,7.782925934031205,-55.51605392147071,9.803222424930313,-55.80231131822948,14.912815005037508,-55.91650812028736,18.58549211205715,-56.48322457727265,15.004104772813626,-58.499981844365045,9.755899485233963,-60.468706310587436,41,-56" fill="none" stroke="rgb(80, 68, 68)" stroke-width="2" stroke-linejoin="round" filter="url(#fuzzy)"></polyline><polyline points="-52,-50,-29.621893103897314,-60.98954210285791,-17.386519585518098,-61.83740211261865,-9.20534182172319,-60.68320365978883,-1.6386722028786125,-58.433292522545074,7.5239302318000405,-55.514139458489886,16.387100879786345,-53.280949575616305,21.548489478285955,-53.0048385479934,21.582390740670533,-54.835802761234866,18.063553233771096,-57.73773714967115,14.151331147870609,-60.217537002205034,12.420923382355207,-61.18144900286539,13.531027970519999,-60.390860199963505,16.307580318440387,-58.39369284635176,18.749694386395188,-56.12797054650277,18.983969963076813,-54.501593678765126,15.644446270806736,-54.18691750904054,8.249124443734207,-55.65984576585557,-1.4139485108483987,-59.17011242996062,-8.19944616422666,-64.13279233369977,-9.766759179957466,-68.12916847659417,-28,-68" fill="none" stroke="rgb(80, 68, 68)" stroke-width="2" stroke-linejoin="round" filter="url(#fuzzy)"></polyline><polyline points="38,-59,0.6758325297359848,-62.27366790447833,-3.0343134641801774,-59.935222866818435,2.7896886924661106,-59.459481253624595,5.426448946762021,-61.17026783820384,4.202153847284218,-63.60911817266704,2.1227773061842434,-65.49545163317376,1.5841493079099496,-66.01160993673919,3.460995374077563,-64.73722081849708,7.4165191650390625,-61.68882751464844,12.519183178830534,-57.39885414715589,17.786070036312346,-52.86150866221636,22.24476597054731,-49.32783858780376,24.44014406546586,-48.04780534947762,22.216514587354176,-49.85975040376521,14.152258728103734,-54.2626942065362,2.918377701232184,-58.352197216007006,-0.3809581795776502,-58.543477785457526,38,-59" fill="none" stroke="rgb(80, 68, 68)" stroke-width="2" stroke-linejoin="round" filter="url(#fuzzy)"></polyline><polyline points="1,-73,-13.739872816713248,-65.8553716114143,-10.294396669956825,-59.96021388773429,-1.9840155567662532,-60.034642291475016,3.540599988993377,-63.12666677089611,7.082081704313579,-65.86415047455479,10.521965142425815,-66.7523512061084,13.627991263835648,-65.97508474372174,14.887065444596312,-64.49514011951179,13.606559513033359,-63.24952225332212,11.050423017845779,-62.70333439270077,9.743374383832302,-62.76901829999931,11.591265655783557,-62.973437378076355,16.356081122354997,-62.75800885362212,21.646011945944174,-61.876458080618924,24.213426202169664,-60.85371047257364,21.426703220172104,-61.210674148898214,12.851441629550285,-64.60799217172851,4.295332019075193,-69.89640702739649,14,-71" fill="none" stroke="rgb(80, 68, 68)" stroke-width="2" stroke-linejoin="round" filter="url(#fuzzy)"></polyline><polyline points="-46,-56,4.180097101495809,-55.367175136439656,10.927319919748996,-61.00257708839352,6.658881307181562,-63.183572311158926,0.21447501575084124,-62.044465563834876,-4.604166196422197,-59.80818861842632,-6.916429274197755,-58.25534065735492,-7.6441869763788315,-58.069351909787244,-7.483000228665285,-58.985309255425676,-6.044617996680023,-60.260285358590004,-2.664051333567304,-61.14441358673463,2.4014809291837453,-61.18692640909141,7.662797279157643,-60.35210681064329,11.197541819260955,-58.9889424341214,11.88455339849737,-57.688249403784724,10.239871229138632,-57.02437962040506,8.378981743098663,-57.214542510501154,9.059440059114094,-57.8864494465715,14.088289888859068,-58.27539352232226,22.754833489990148,-57.956605615694606,31.37214987597991,-57.5759122196817,34.84314221464004,-58.66697023313208,29.257497842823724,-62.76368834760274,11,-72" fill="none" stroke="rgb(80, 68, 68)" stroke-width="2" stroke-linejoin="round" filter="url(#fuzzy)"></polyline><polyline points="-50,-52,-6.4196861731796195,-43.754292651315914,-11.62448201951007,-50.38770711111507,-16.196762781347942,-57.25276678743229,-13.682800843760084,-60.12684107437654,-7.516010987417649,-59.672884447517454,-1.3923387021639417,-57.78634365706599,2.659320670152168,-55.75278388985695,4.103118361871023,-54.02844599921637,3.586854636761725,-52.72298373460637,2.4951270582709344,-51.99026590817964,1.9447024111940865,-52.11054474383351,1.7769720655200423,-53.37781501982347,0.7745665767076595,-55.884761478889615,-1.702771599480006,-59.239555382150215,-4.290939795988511,-62.36039705574088,-3.939903301840229,-63.651056908579825,3.3887557300873157,-61.74249331008727,23.391300409967307,-56.0840465233813,53,-44" fill="none" stroke="rgb(80, 68, 68)" stroke-width="2" stroke-linejoin="round" filter="url(#fuzzy)"></polyline><polyline points="9,-72,29.702462717721964,-53.36191913342577,18.611800062179363,-47.69590106502885,0.5463097452799915,-50.45292111673107,-9.502029199855066,-54.834353730757044,-10.156374635681248,-57.68866178770034,-6.091066551722831,-58.866318366037724,-2.311906332599234,-59.44489502151224,-1.618897823407626,-60.34704503868452,-3.9842185974121094,-61.721343994140625,-7.1543969674732,-63.09973339011109,-8.292512322653538,-63.99803776604932,-5.975998484168972,-64.38973802441305,-1.1649383129085986,-64.63423816539932,3.846172383658586,-64.966697575267,7.51853987879058,-65.24048033023065,9.298869440738118,-65.70239559921303,8.00241038382181,-68.07344706469779,14,-71" fill="none" stroke="rgb(80, 68, 68)" stroke-width="2" stroke-linejoin="round" filter="url(#fuzzy)"></polyline><polyline points="-13,-73,2.5591678477622404,-62.17175237563104,-3.4001095709970945,-60.902559575045615,-2.7203651646318914,-62.05940235798016,2.5185941542653425,-63.01541767585096,8.859608572746252,-62.49887878491549,15.656054029683824,-60.17391427922143,22.861439854005198,-56.78914333916071,29.572005679185192,-53.73992426617623,34.30073720254415,-52.26771924543905,35.940973515806164,-52.862844759213296,34.45182153190515,-55.13867358081794,30.935660598227866,-58.0980829025123,27.22493402315784,-60.570261894869915,25.218850951816965,-61.62133440663253,26.186274529634787,-60.81800376055579,30.257623885869293,-58.28301295146684,36.362066743681716,-54.53616850887893,42.73644244381536,-50.22419946659003,47.68546198335289,-46.03254341262125,49.75868644940444,-43.18680534764402,46.71551328043488,-44.518332276891684,34.26385313333544,-54.37488126905256,8,-72" fill="none" stroke="rgb(80, 68, 68)" stroke-width="2" stroke-linejoin="round" filter="url(#fuzzy)"></polyline><polyline points="-2,-73,-18.569099789030822,-65.42150961315912,-7.15213593035756,-57.972279353366446,8.924994346582023,-51.82906313074284,19.38097183760807,-48.487064974231856,25.869120135770643,-47.456238025655935,31.125725092773887,-47.677150542528516,34.42900570282651,-48.70665865051278,33.41706936692874,-50.53711605683676,27.47091702936372,-52.737732672421885,19.129050874746078,-54.018860182172766,12.523886829557034,-52.89909124285616,10.059298502672384,-49.185626499874814,10.126927293104213,-44.933806818167,5.555008438441542,-44.54250067423672,-39,-62" fill="none" stroke="rgb(80, 68, 68)" stroke-width="2" stroke-linejoin="round" filter="url(#fuzzy)"></polyline><polyline points="-50,-52,-9.04595710622922,-49.734030963005836,-7.032998199541512,-52.55944786605613,-3.7634597625022526,-54.83573981464921,1.2367713350905332,-55.17296377437547,4.702205641573324,-54.376297875025266,5.825760601129261,-53.40011958333814,5.113016928707486,-52.60416099496649,3.2457074654005584,-51.943716893785115,0.9369514977776132,-51.4171187523303,-1.0130039140095115,-51.27686075875856,-1.9405873280290653,-51.89160830602721,-1.625011682510376,-53.438068151474,-0.3481596552892924,-55.69751308270103,1.2982954757224987,-58.13985964393773,2.6362600514194723,-60.258043955796694,3.054138974250058,-61.89610252624561,2.2268549268463755,-63.26959904570791,0.5236441040730568,-64.59736285258889,-0.6509289416271999,-65.63219559826511,0.7101254152201176,-65.60195481076451,5.246496609923581,-63.885388222143725,8.568557523466882,-61.078289757898524,-2.9324415241133828,-58.730193354293476,-50,-52" fill="none" stroke="rgb(80, 68, 68)" stroke-width="2" stroke-linejoin="round" filter="url(#fuzzy)"></polyline><polyline points="-6,-73,-20.87845531384,-62.29390121786667,-18.033328321775798,-60.98146851517076,-12.761102156815536,-60.810030138208745,-5.162377428810955,-59.821234557505754,2.7226293596341327,-58.54647750202062,7.910849206759068,-58.2898343699173,9.352711312265805,-59.583282780683,8.477953703487469,-61.771700114022664,7.703575966433025,-63.62616131980819,8.594000564188471,-64.20985507280767,10.928519248962402,-63.36802387237549,12.990417900778613,-61.64550593880933,12.720960488359303,-59.80642284064613,9.083358533310085,-58.33926777738891,2.9303840979954625,-57.31437843910319,-3.1714331485043146,-56.67287806839987,-6.2565484228961346,-56.58655712951653,-4.690020499554169,-57.29881858548099,1.2674329363636685,-58.28054760279327,10.810075118320006,-57.873013281330834,20.562402944016846,-56.887695871134625,3,-73" fill="none" stroke="rgb(80, 68, 68)" stroke-width="2" stroke-linejoin="round" filter="url(#fuzzy)"></polyline><polyline points="62,-26,39.07729671058474,-51.70558334320678,29.109563517663826,-61.3646610404663,23.286937887935625,-64.07972289497154,16.547719089224085,-64.25243769242599,8.089495732466094,-64.1613224168689,0.30416025215058273,-64.48838721423424,-3.827030549662806,-64.80389651630257,-3.072250417022868,-64.46049968636478,1.3061458054323838,-63.29702808395519,6.49425467840061,-61.615542075328065,9.937393877927736,-59.60451618935531,10.787938113555551,-57.003177567680794,10.048995029950143,-53.68441827563372,9.75783260417129,-50.74898589948405,13.303585157421885,-50.21149275813159,27.783969763400535,-51.04530392084376,53,-44" fill="none" stroke="rgb(80, 68, 68)" stroke-width="2" stroke-linejoin="round" filter="url(#fuzzy)"></polyline><polyline points="-47,-55,10.28380764295204,-46.789925885011115,14.528753530545657,-54.8983779484204,7.001316763039423,-61.33659346824609,2.077519385921833,-63.91605862660901,0.7288084003098397,-64.08414251051465,-0.05715362407024216,-63.32812884655781,-1.687566542911932,-62.36714748452618,-3.1748456333968558,-61.28441738767796,-3.0726322381453794,-59.97414266407654,-1.2133838854990509,-58.536725866394804,1.2163962390496526,-57.36633903166331,2.817413032054901,-56.901754915714264,3.0280773981792226,-57.280019378847335,2.2566067793533353,-58.21745628010368,1.320048593233666,-59.23588475095719,0.9741693678256932,-60.01943614084914,1.9135747596026098,-60.54942688014842,4.803140345455045,-60.89380212232791,9.748102126932585,-60.93707513127473,15.556766933832439,-60.48543087453222,20.1644864992111,-59.768440006143344,22.835447922402793,-59.66035713732019,25.104987944832658,-61.26637154919594,17,-70" fill="none" stroke="rgb(80, 68, 68)" stroke-width="2" stroke-linejoin="round" filter="url(#fuzzy)"></polyline><polyline points="52,-45,47.9200615132557,-49.50625981509045,47.1308841384406,-49.944074796277434,44.28018517224998,-50.94048393207028,37.934130820303224,-53.68568447256126,29.964628219594783,-57.63501971670714,23.447627263746107,-61.51173769546514,20.325841620181745,-64.2343777245804,20.5817435748366,-65.4031391354813,22.82616573922247,-65.28331095622235,25.270447217245927,-64.51974038242686,26.37472222013303,-63.80582284268835,25.1260217454474,-63.585448503323015,21.16883896546649,-63.79470085144691,14.895751008723783,-63.7012330731089,7.5862159185923135,-62.00277071912464,1.929789958735872,-57.480057351729826,2.5593720851680724,-50.8178123928287,10.837198295146813,-48.88207734679513,-8,-73" fill="none" stroke="rgb(80, 68, 68)" stroke-width="2" stroke-linejoin="round" filter="url(#fuzzy)"></polyline><polyline points="36,-61,21.706261846565727,-66.48275755492627,15.232554345574798,-66.31850413176156,14.004443373022688,-63.758548322607254,15.24497731985207,-61.06444119799678,16.304145011808394,-59.336178190506466,16.022126087447482,-58.79343255496339,14.630284254667682,-59.18665084282253,12.846465697835134,-60.09433279862468,11.167184576100365,-61.092879242845065,9.82592189250616,-61.85090675343679,9.042887449264526,-62.204755544662476,9.040088122506422,-62.203894717451206,9.841060725419846,-62.05813267773976,11.250975413579095,-61.97804919097958,13.09013747324337,-62.038361338836786,15.215475603230823,-62.23314483321093,17.015069502667735,-62.70423658505891,16.99271099049986,-63.84075534324872,13.623999463900253,-65.93655191170765,7.832217802340779,-68.53571481021068,6.222675138468676,-69.92400845941954,23,-67" fill="none" stroke="rgb(80, 68, 68)" stroke-width="2" stroke-linejoin="round" filter="url(#fuzzy)"></polyline><polyline points="-37,-64,-1.9198431361352937,-55.834905697915886,2.586801347709181,-55.74407486321794,10.496140158821731,-55.40372535975106,18.64900037037144,-54.50022718741845,22.361310583999952,-54.22321528040786,21.22627312568389,-55.0030966018424,16.66013055848947,-56.58009447430388,9.981906803779157,-58.33603184909767,2.2648468017578125,-59.521636962890625,-5.29419575226688,-59.515086465116276,-11.390143330743236,-58.05288519287506,-14.90661288437948,-55.32395100559588,-15.106947777381125,-52.029126110986404,-11.951218488718766,-49.58614957470419,-6.900691980946096,-50.23580919800207,-2.2777067227462804,-55.94682524170634,5.082841749072462,-64.68276301518254,26,-66" fill="none" stroke="rgb(80, 68, 68)" stroke-width="2" stroke-linejoin="round" filter="url(#fuzzy)"></polyline><polyline points="63,-23,42.597000686641685,-48.877902811161945,32.91685846419297,-58.958335624284,28.2775269787273,-61.80894927039051,27.87055912626262,-60.36698402222972,29.487724247775326,-57.34470223338659,29.867690931544956,-55.50694652083829,27.18070140544351,-56.19281553822237,22.061191614360578,-58.78246260378603,16.751964569091797,-61.5175895690918,13.575506705765896,-62.79032164777787,13.759676938431378,-62.07564269749016,16.874797674936598,-60.20553945199321,20.85449367233844,-58.92246417540868,22.811183410298852,-59.67273082853642,20.905586145579015,-61.95752780845672,17.085077459622934,-62.22841616730753,21.16728546437869,-53.7485850007726,62,-24" fill="none" stroke="rgb(80, 68, 68)" stroke-width="2" stroke-linejoin="round" filter="url(#fuzzy)"></polyline><polyline points="61,-28,45.598759340891405,-46.32608715552986,38.68252513262986,-51.064295715718295,31.751210917264903,-53.47189625189909,21.756398060824722,-56.96766109438613,11.437291639690441,-60.263669475366584,4.634634976852247,-61.611646295539636,2.9555714574917387,-60.322237108944485,5.319915771484375,-57.053009033203125,9.661596627483416,-53.5606709340135,14.618493379879872,-51.82054969264022,19.406998557012756,-52.7785320112632,22.136650839354843,-55.608634245116264,18.69404906350106,-58.26444892110881,4.2047318197964145,-59.25940236852188,-21.443128196513527,-59.63486211925609,-37,-64" fill="none" stroke="rgb(80, 68, 68)" stroke-width="2" stroke-linejoin="round" filter="url(#fuzzy)"></polyline><polyline points="-32,-67,1.814246087077371,-65.33132467246217,2.6532761741262254,-67.1338119565527,-3.998859214623216,-67.98482303979056,-8.249293402863984,-67.86316595071813,-6.860733004123834,-67.00935040975244,-1.3707777233292344,-65.48983231818886,4.453325820743536,-63.584160710235786,7.390127678031181,-61.780073875126114,6.375802466748156,-60.41023509811078,2.5075340422065215,-59.38957582161725,-2.0287636779420684,-58.322121086292086,-5.243927508431626,-56.88136418727558,-6.219499202379635,-55.16137343299553,-5.332669270454631,-53.740040633899945,-3.848976840332854,-53.39435467352647,-3.0405848619605287,-54.61497456127994,-3.169154320478307,-57.203863678439625,-2.93944197950294,-60.27463513671399,-0.1786877492240665,-62.81498242629685,6.003334322387674,-64.45949986177818,13.275582171963027,-65.40905694389676,19.909775180961866,-64.40296914478617,43,-55" fill="none" stroke="rgb(80, 68, 68)" stroke-width="2" stroke-linejoin="round" filter="url(#fuzzy)"></polyline><polyline points="1,-73,23.027160380504817,-57.921094980123144,16.506832094170765,-51.58646176010055,1.858302575050754,-54.021436574957626,-5.491395382705024,-58.489623670997304,-3.0338084984452176,-61.15133863506123,4.648237784334338,-61.47844568163942,11.76534704556608,-60.72231576871536,14.620302188475444,-60.41117691842519,12.644073296625663,-61.227294315544576,7.795649731369786,-62.58660530728927,3.1605325638065285,-63.07192361366257,2.063347068469251,-61.253116957458424,7.633996986360715,-56.62863902325921,16.757597341176382,-53.12133731498541,-6,-73" fill="none" stroke="rgb(80, 68, 68)" stroke-width="2" stroke-linejoin="round" filter="url(#fuzzy)"></polyline><polyline points="42,-56,38.99236799137719,-46.79013143734646,23.94959988755291,-51.45461828840766,18.11944882934065,-53.8106148010475,17.82714657697481,-54.57810608635574,17.193628809263828,-55.53318477815901,15.132032927455338,-56.83656487331723,13.071243405705614,-58.04509912496993,12.132678921673717,-58.8125794129098,12.592311991110147,-58.938209267274004,14.405084609985352,-58.41198253631592,17.227445240729768,-57.61585524679596,19.880173659872504,-57.31053163593706,20.2458019297961,-58.14469915696215,16.258633757464132,-59.96539995832735,7.577113783156165,-61.580661973358474,-3.040966222283076,-61.40766208567808,-9.418118310034863,-58.75187296006929,-3.967383414783184,-54.9856251669258,13.024060685250097,-54.777349373918966,5,-72" fill="none" stroke="rgb(80, 68, 68)" stroke-width="2" stroke-linejoin="round" filter="url(#fuzzy)"></polyline><polyline points="63,-23,38.23560928637224,-48.888100337625595,21.222333548542753,-57.94553669711261,14.812422940415193,-60.673556270802436,15.81279250935475,-61.46995135724175,18.5325607619793,-61.39445437657529,19.396931795559222,-60.38744447835726,16.81487997944434,-58.63052529708967,10.315350294686947,-56.795693834701005,0.9908091185783597,-55.594884931419394,-8.060593838606007,-55.367398943439014,-13.184469983645199,-56.09186482847602,-13.249159726426491,-57.65975746785623,-11.561976533518937,-60.024458695771266,-13.669588347285352,-62.94822435091222,-21.74648082522134,-65.31383103919717,-32.18587975255739,-64.67848360668371,-43,-59" fill="none" stroke="rgb(80, 68, 68)" stroke-width="2" stroke-linejoin="round" filter="url(#fuzzy)"></polyline><polyline points="50,-47,1.2282204662858822,-54.95447587704458,-6.8369154386868765,-58.65644865678149,-2.565838818121103,-58.34189393785238,4.175541620399329,-56.50078436421166,8.279685653391535,-54.99095555577578,9.14161934724252,-54.516281486167216,8.550255894157887,-55.116335864462975,8.197607827268307,-56.518952852688884,8.56811610595861,-58.18533319596096,9.00299227555115,-59.435663061570516,8.278534412384033,-59.79853653907776,5.383926096145892,-59.328571830026405,0.2956039016734796,-58.59115825718909,-5.663518592250387,-58.30170580427815,-10.32060238938388,-58.9040557537678,-11.925986490713573,-60.38521212370276,-10.27769139872466,-62.324528625221845,-6.453254399377582,-63.87930823600482,-1.1152113457886976,-63.60401443053718,5.735835846086943,-59.95709726700353,7.488573725766903,-54.94283892642014,-33,-66" fill="none" stroke="rgb(80, 68, 68)" stroke-width="2" stroke-linejoin="round" filter="url(#fuzzy)"></polyline><polyline points="57,-37,52.526591372447214,-41.56181692193661,39.71547719440374,-49.341110169383576,23.417129267517353,-56.835239562126546,9.940428275813181,-61.874975943501525,2.444674234069507,-64.23282235781727,1.1897634486229336,-64.57560232138034,4.117547851841914,-63.852705931125335,7.866373886232904,-62.96869000936252,9.41304959695596,-62.495516025793414,7.494076039577984,-62.50740068387029,2.908968877286865,-62.682410494508204,-2.377139449119568,-62.62422066926956,-6.592877541431227,-62.186403665111044,-9.019966100347755,-61.59245790146754,-9.871565378250418,-61.296312218898855,-9.544997104353339,-61.689786640035464,-8.148906460478175,-62.84517095345119,-5.879666759079747,-64.45856899834341,-3.6837880399508336,-66.03435860300401,-2.7405685112632194,-67.1451867458663,-2.1366110375920337,-67.3967008684183,3.1150398461378854,-65.60925148897455,20.29229446135879,-57.60871878670248,59,-32" fill="none" stroke="rgb(80, 68, 68)" stroke-width="2" stroke-linejoin="round" filter="url(#fuzzy)"></polyline><!--]--></g><g id="pointNose"><g id="rightNose"><!--[--><circle r="1.6078042344487469" cx="7.03084999981705" cy="24.962602221995027" stroke="black" fill="none" stroke-width="1" filter="url(#fuzzy)"></circle><circle r="1.164122173468989" cx="7.39040741458752" cy="22.75124597697514" stroke="black" fill="none" stroke-width="1" filter="url(#fuzzy)"></circle><circle r="1.1263293980470943" cx="9.566872705386007" cy="24.873155642092915" stroke="black" fill="none" stroke-width="1" filter="url(#fuzzy)"></circle><circle r="1.6883443024371567" cx="8.182172858029833" cy="21.963706625137473" stroke="black" fill="none" stroke-width="1" filter="url(#fuzzy)"></circle><circle r="1.7335265131538184" cx="8.117274153911481" cy="25.017048628377676" stroke="black" fill="none" stroke-width="1" filter="url(#fuzzy)"></circle><circle r="1.258948203669694" cx="9.228524995548367" cy="25.34423158041095" stroke="black" fill="none" stroke-width="1" filter="url(#fuzzy)"></circle><circle r="2.353053560661442" cx="9.550356872649845" cy="23.505642758548273" stroke="black" fill="none" stroke-width="1" filter="url(#fuzzy)"></circle><circle r="2.9335333150865592" cx="9.17302947509129" cy="23.112345352248738" stroke="black" fill="none" stroke-width="1" filter="url(#fuzzy)"></circle><circle r="1.4969918299637428" cx="8.429437051758836" cy="22.096670101443145" stroke="black" fill="none" stroke-width="1" filter="url(#fuzzy)"></circle><circle r="2.9468625188172592" cx="10.360980246898695" cy="24.359472130216492" stroke="black" fill="none" stroke-width="1" filter="url(#fuzzy)"></circle><!--]--></g><g id="leftNose"><!--[--><circle r="1.5324485348578931" cx="-8.48644668891097" cy="20.896463881259628" stroke="black" fill="none" stroke-width="1" filter="url(#fuzzy)"></circle><circle r="1.0252270583225942" cx="-8.864805015923018" cy="22.315487881769673" stroke="black" fill="none" stroke-width="1" filter="url(#fuzzy)"></circle><circle r="2.44871401243317" cx="-6.869474908453502" cy="20.98767865575704" stroke="black" fill="none" stroke-width="1" filter="url(#fuzzy)"></circle><circle r="1.2199283653173023" cx="-5.705713037458697" cy="20.556056961485805" stroke="black" fill="none" stroke-width="1" filter="url(#fuzzy)"></circle><circle r="2.6679443229725353" cx="-7.916911380321336" cy="21.62516091951498" stroke="black" fill="none" stroke-width="1" filter="url(#fuzzy)"></circle><circle r="2.0121786737742173" cx="-5.951532822036476" cy="20.77147892763714" stroke="black" fill="none" stroke-width="1" filter="url(#fuzzy)"></circle><circle r="1.814017291676117" cx="-5.847168652653606" cy="22.5110397729831" stroke="black" fill="none" stroke-width="1" filter="url(#fuzzy)"></circle><circle r="1.5796796466011709" cx="-9.64608960912438" cy="20.6815416146335" stroke="black" fill="none" stroke-width="1" filter="url(#fuzzy)"></circle><circle r="1.122854241803312" cx="-8.719097409151312" cy="22.1957218217211" stroke="black" fill="none" stroke-width="1" filter="url(#fuzzy)"></circle><circle r="2.6768696615167857" cx="-9.515046298563082" cy="19.60468978081676" stroke="black" fill="none" stroke-width="1" filter="url(#fuzzy)"></circle><!--]--></g></g><g id="mouth"><polyline points="-31.066441119455842,47.9251357189073,-30.209373686332444,46.896179368649214,-29.36459018224389,45.9056228105926,-28.531866448486205,44.95289708647661,-27.710978326355384,44.03743323804044,-26.901701657147466,43.15866230702328,-26.103812282158447,42.31601533516431,-25.317086042684355,41.5089233642027,-24.541298780021208,40.73681743587764,-23.776226335465008,39.99912859192831,-23.021644550311773,39.295287874093894,-22.27732926585752,38.624726324113574,-21.543056323398282,37.98687498372653,-20.818601564230047,37.38116489467195,-20.10374082964884,36.80702709868901,-19.39824996095069,36.263892637516896,-18.70190479943159,35.75119255289478,-18.014481186387574,35.26835788656185,-17.335754963114645,34.81481968025729,-16.665501970908828,34.39000897572028,-16.00349805106614,33.99335681469,-15.349519044882578,33.62429423890565,-14.70334079365418,33.28225229010638,-14.06473913867695,32.96666201003139,-13.4334899212469,32.67695444041987,-12.809368982660063,32.41256062301098,-12.192152164212434,32.17291159954393,-11.581615307200035,31.95743841175788,-10.977534252918886,31.76557210139201,-10.379684842664997,31.596743710185514,-9.787842917734386,31.450384279877582,-9.20178431942307,31.325924852207372,-8.62128488902706,31.222796468914083,-8.046120467842375,31.140430171736888,-7.476066897165031,31.078257002414983,-6.910900018291039,31.035708002687535,-6.35039567251642,31.012214214293728,-5.794329701137184,31.007206678972747,-5.242477945449353,31.020116438463777,-4.694616246748938,31.050374534505995,-4.150520446331954,31.09741200883859,-3.6099663854944186,31.160659903200727,-3.0727299055323445,31.23954925933161,-2.53858684774175,31.333511118970407,-2.0073130534186507,31.44197652385631,-1.4786843638590594,31.564376515728483,-0.9524766203589955,31.70014213632613,-0.4284656642144702,31.848704427388412,0.09357266327849911,32.00949443065453,0.6138625208238977,32.18194318786366,1.1326280671257076,32.36548174075497,1.6500934608879168,32.55954113106766,2.166482860814509,32.7635524005409,2.6820204256094673,32.97694659091389,3.196930313976778,33.199154743925796,3.7114366846204234,33.4296079013158,4.225763696244392,33.66773710482309,4.740135507552664,33.912973396186835,5.254776277249226,34.164747817146235,5.769910164038061,34.42249140944046,6.285761326623157,34.6856352148087,6.802553923708496,34.953610274990126,7.3205121139980625,35.22584763172394,7.839860056195841,35.501778326749296,8.36082190900582,35.780833401805396,8.883621831131977,36.062443898631415,9.408483981278302,36.34604085896654,9.935632518148777,36.63105532454995,10.465291600447388,36.916918337120826,10.997685386878116,37.203060938418346,11.533038036144953,37.4889141701817,12.071573706951877,37.77390907415007,12.613516558002873,38.05747669206263,13.159090748001928,38.33904806565857,13.708520435653025,38.61805423667706,14.262029779660152,38.8939262468573,14.81984293872729,39.166095137938456,15.382184071558422,39.43399195165972,15.949277336857538,39.697047729760264,16.52134689332862,39.95469351397929,17.098616899675648,40.206360346055945,17.681311514602612,40.45147926772945,18.269654896813496,40.68948132073896,18.863871205012284,40.919797546823666,19.46418459790296,41.14185898772275,20.070819234189507,41.3550966851754,20.683999272575914,41.55894168092078,21.303948871766156,41.75282501669809,21.93089219046423,41.936177734246506,22.565053387374117,42.10843087530521,23.2066566211998,42.26901548161338,23.855926050645262,42.41736259491021,24.513085834414486,42.55290325693486,25.178360131211463,42.67506850942654,25.851973099740174,42.78328939412441,26.534148898704597,42.876996952767655,27.22511168680873,42.95562222709547,27.925085622756544,43.01859625884702,28.634294865252034,43.0653500897615,29.35296357299918,43.09531476157809,30.08131590470192,43.10792131603596,29.352963572999137,43.09531476157808,28.634294865251988,43.0653500897615,27.9250856227565,43.01859625884702,27.22511168680868,42.95562222709546,26.534148898704558,42.876996952767655,25.851973099740125,42.7832893941244,25.17836013121142,42.67506850942653,24.51308583441445,42.552903256934854,23.855926050645227,42.417362594910195,23.206656621199766,42.26901548161337,22.565053387374086,42.1084308753052,21.930892190464206,41.9361777342465,21.303948871766124,41.75282501669808,20.683999272575875,41.558941680920775,20.070819234189475,41.35509668517538,19.464184597902925,41.14185898772274,18.86387120501225,40.91979754682365,18.269654896813464,40.68948132073895,17.68131151460258,40.45147926772944,17.098616899675616,40.20636034605593,16.521346893328587,39.95469351397927,15.949277336857506,39.69704772976025,15.382184071558392,39.4339919516597,14.819842938727259,39.16609513793844,14.262029779660129,38.89392624685728,13.708520435653002,38.61805423667705,13.159090748001901,38.33904806565855,12.613516558002848,38.057476692062615,12.071573706951853,37.77390907415005,11.533038036144927,37.48891417018169,10.997685386878095,37.20306093841833,10.465291600447364,36.916918337120805,9.93563251814875,36.631055324549926,9.408483981278275,36.346040858966525,8.883621831131952,36.0624438986314,8.360821909005796,35.78083340180538,7.839860056195818,35.501778326749275,7.320512113998038,35.225847631723916,6.802553923708473,34.953610274990105,6.285761326623135,34.68563521480868,5.7699101640380395,34.42249140944044,5.254776277249203,34.164747817146214,4.7401355075526395,33.91297339618682,4.225763696244368,33.66773710482307,3.7114366846204003,33.429607901315784,3.196930313976754,33.19915474392578,2.682020425609444,32.976946590913876,2.1664828608144853,32.763552400540895,1.6500934608878914,32.559541131067654,1.1326280671256852,32.36548174075497,0.6138625208238733,32.18194318786365,0.09357266327847458,32.00949443065453,-0.4284656642144947,31.84870442738841,-0.9524766203590189,31.700142136326125,-1.478684363859085,31.564376515728487,-2.0073130534186774,31.441976523856304,-2.538586847741776,31.333511118970407,-3.0727299055323702,31.23954925933161,-3.609966385494443,31.16065990320073,-4.150520446331979,31.09741200883859,-4.694616246748962,31.050374534506,-5.2424779454493775,31.020116438463777,-5.79432970113721,31.00720667897275,-6.350395672516444,31.01221421429373,-6.910900018291064,31.03570800268754,-7.4760668971650555,31.078257002414986,-8.0461204678424,31.140430171736902,-8.621284889027086,31.222796468914098,-9.201784319423094,31.325924852207386,-9.78784291773441,31.45038427987759,-10.379684842665023,31.59674371018553,-10.977534252918911,31.765572101392024,-11.581615307200062,31.957438411757888,-12.19215216421246,32.172911599543944,-12.809368982660091,32.412560623011,-13.433489921246938,32.676954440419884,-14.064739138676984,32.966662010031406,-14.703340793654217,33.2822522901064,-15.349519044882616,33.62429423890566,-16.00349805106617,33.993356814690024,-16.665501970908863,34.390008975720306,-17.33575496311468,34.814819680257315,-18.01448118638761,35.26835788656187,-18.701904799431627,35.7511925528948,-19.398249960950725,36.26389263751692,-20.10374082964888,36.80702709868904,-20.818601564230082,37.38116489467198,-21.543056323398314,37.98687498372657,-22.277329265857563,38.62472632411361,-23.021644550311816,39.29528787409393,-23.77622633546505,39.999128591928354,-24.54129878002125,40.73681743587769,-25.317086042684405,41.50892336420275,-26.103812282158504,42.31601533516436,-26.90170165714752,43.158662307023334,-27.71097832635544,44.0374332380405,-28.531866448486255,44.95289708647667,-29.364590182243948,45.905622810592654,-30.209373686332505,46.896179368649285" fill="rgb(215,127,140)" stroke="black" stroke-width="3" stroke-linejoin="round" filter="url(#fuzzy)"></polyline></g></svg>