<svg viewBox="-100 -100 200 200" xmlns="http://www.w3.org/2000/svg" width="400" height="400" id="face-svg"><defs><clipPath id="leftEyeClipPath"><polyline points="32.26568048950171,1.8877128095086881,32.06719735920005,1.380982183808145,31.839601089194154,0.866584001165343,31.581256158432673,0.34773207623784685,31.290723553984584,-0.1725477187993789,30.9667549631453,-0.6914130787576127,30.608286965542803,-1.2062008899380192,30.214435225243847,-1.7144228546352984,29.78448868286,-2.213761115641315,29.317903747653887,-2.7020638807487742,28.814298489645253,-3.177341047254835,28.27344683171718,-3.6377598264647713,27.695272741722125,-4.081640368195615,27.07984442458816,-4.507451385279804,26.427368514425055,-4.9138057780688165,25.738184266630462,-5.299456258936839,25.227951384225257,-5.979190634425361,24.64358532274884,-6.614286617381033,23.98562399182508,-7.202458019937836,23.255209098830168,-7.74188669225164,22.45403085266841,-8.231192027181844,21.584274858514426,-8.669401450217983,20.64857116416392,-9.055921878834539,19.649945418635454,-9.39051213545703,18.591772103665622,-9.673256298222405,17.477729798739958,-9.90453797371702,16.311758440301784,-10.08501547587517,15.098018535781634,-10.21559789522136,13.840852293089359,-10.297422042639372,12.544746626211413,-10.331830251851319,11.21429799755555,-10.320349024789738,9.85417905768545,-10.264668504045854,8.469107043087469,-10.16662275657707,7.06381389261197,-10.028170852856977,5.643018043231558,-9.851378725650726,4.21139786575853,-9.638401792599137,2.773566701163996,-9.391468326794435,1.334049458140906,-9.112863559530926,-0.10273926744657014,-8.804914499413574,-1.5325155905850012,-8.469975452007638,-2.95114529196262,-8.110414224212533,-4.3546613690068785,-7.7285989975429565,-5.739280222466266,-7.326885854500414,-7.101416517894015,-6.907606942218294,-8.437696761391418,-6.473059257563552,-9.744971628968255,-6.0254940378781505,-11.020327088878194,-5.56710674154332,-12.261094356286538,-5.1000276025498685,-13.464858719628262,-4.626312743257468,-14.629467278013687,-4.147935829526244,-15.75303562903972,-3.666780252403587,-16.83395354636407,-3.1846318205494093,-17.87088968640024,-2.703171947582957,-18.862795363490854,-2.2239713185342573,-19.80890743291703,-1.7484840195833051,-20.708750321101405,-1.2780421152701198,-21.56213724236241,-0.8138506573588185,-22.36917064157759,-0.3569831095387226,-23.13024190211344,0.09162282785422171,-23.846030358379544,0.5311690089128458,-24.517501652364533,0.9610002648476037,-25.14590547351163,1.3806074741059433,-25.732772721291372,1.7896302957389807,-26.27991212982914,2.1878595818324342,-26.789406393945136,2.5752394848186597,-27.263607835964553,2.9518692754866827,-27.70213736053643,3.318036352586226,-28.10333731932632,3.6737460396302932,-28.467884844345257,4.018823890097961,-28.796510492305227,4.353136567927048,-29.08999297350594,4.6765897291809715,-29.349153880721484,4.989125903715617,-29.574852418087136,5.290722376846186,-29.767980129986086,5.581389071014081,-29.929455629936122,5.861166427453753,-30.06021932947641,6.130123287859554,-30.16122816705422,6.3883547760526245,-30.233450336911652,6.635980179647738,-30.277860017972362,6.8731408317201685,-30.295432102728316,7.099997992472553,-30.277415871273497,9.50525076781041,-29.756193592796503,9.528438415253914,-29.219638957838924,9.547681299983628,-28.667459432251142,9.56296518756197,-28.099376852538928,9.574284567265392,-27.51512911041788,9.581642773445093,-26.914471837367945,9.585052106887732,-26.297180089187783,9.584533956176129,-25.663050030549325,9.580118919049998,-25.01190061955218,9.571846923766635,-24.343575292278107,9.559767350461655,-23.657943647345487,9.543939152509683,-22.954903130463777,9.524430977885075,-22.234380718987957,9.501321290522638,-21.496334606473038,9.474698491678325,-20.739833188153213,9.44461912026136,-19.963540821605353,9.411090238558366,-19.16693141177616,9.37415698794662,-18.349608976042003,9.333894946610755,-17.511307866914187,9.290409079942677,-16.651892772555385,9.243832633929394,-15.771358482528916,9.194325970622678,-14.86982940620315,9.142075344784365,-13.947558831232767,9.087291620801107,-13.004927909539088,9.030208928962484,-12.042444358211295,8.971083260196238,-11.060740862750658,8.910190998354532,-10.060573170079708,8.847827389145042,-9.042817858738335,8.784304944800724,-8.008469773688846,8.7199517835821,-6.958639113151942,8.655109903205918,-5.894548154895633,8.590133387293987,-4.817527609399062,8.525386543936083,-3.729012587313256,8.4612419754607,-2.630538168640757,8.398078578507558,-1.5237345610561854,8.336279473495631,-0.410321834789666,8.276229862580617,0.707895778504831,8.218314815195608,1.8290360354743016,8.162916980268871,2.9511452919626198,8.110414224212533,4.072205587655592,8.061177193776022,5.19014221705316,8.015566802858121,6.302831799346739,7.973931642371465,7.40811085977972,7.936605312253291,8.503784935069119,7.903903674716342,9.587638215466407,7.876122027833706,10.65744373603551,7.853532198551463,11.71097412972598,7.836379554222984,12.746012954819374,7.824879931758688,13.760366609326784,7.819216483485137,14.751876844915643,7.819536438807278,15.71843389294365,7.8259477807677,16.657990215177964,7.838515836596714,17.5685748917776,7.857259781347133,18.44830865911707,7.882149053707547,19.29541961002922,7.91309968308798,20.108259569045384,7.949970527071741,20.88532115521063,7.9925594183273105,21.62525554505247,8.04059922007411,22.326890948280656,8.09375378919599,22.98925180879632,8.151613846096286,23.61157874358838,8.213692750388265,24.193349232095244,8.279422181514816,24.734299068609722,8.348147723391222,25.234444590305337,8.41912435216485,25.79952719872061,8.433335081452284,26.34282021383453,8.445390290122173,26.864193549129304,8.454715676145828,27.363576122885657,8.460700441261036,27.840958305898106,8.462696346674157,28.296394369190303,8.460016768762232,28.730004931730356,8.451935754775102,29.14197940814614,8.4376870785375,29.532578456440618,8.416463296151182,29.90213642570718,8.387414801697009,30.251063803844936,8.349648882937075,30.579849665274047,8.302228777016811,30.88906411865107,8.244172726167093,31.17936075458421,8.174453033406342,31.451479093348716,8.091995118242652"></polyline></clipPath><clipPath id="rightEyeClipPath"><polyline points="-31.715179460162748,1.4320568888602452,-31.49232451249929,0.9376226775967353,-31.240866555873612,0.4369520493855763,-30.959284352202094,-0.06682726928094773,-30.64624376858013,-0.5707752890348026,-30.300592223321875,-1.072135323122236,-29.921353132000075,-1.5683295528938341,-29.507720353485855,-2.056954593294556,-29.059052635988532,-2.5357770583537924,-28.574868063095433,-3.0027291266754013,-28.054838499811694,-3.455904106927754,-27.49878403860003,-3.89355200333379,-26.906667445420613,-4.314075081161057,-26.278588605770807,-4.716023432211756,-25.614778970725016,-5.098090540312793,-24.915596002974453,-5.459108846805812,-24.38230461039405,-6.109805109718415,-23.777611866896446,-6.715182852315191,-23.10209388150048,-7.273107296619031,-22.356906828337063,-7.781914627602312,-21.543734020393213,-8.240380238739846,-20.664735060686784,-8.647688039221844,-19.7224970339096,-9.003400805313657,-18.719987701576763,-9.307431558349204,-17.660510663719766,-9.560015951844996,-16.54766245016125,-9.761685650221605,-15.385291504409022,-9.913242681619419,-14.177459023207174,-10.015734747295678,-12.928401614781961,-10.070431470089531,-11.642495738820143,-10.078801564442099,-10.324223891217613,-10.042490910458351,-8.978142496635929,-9.96330151449775,-7.608851471904547,-9.84317133878039,-6.220965423306506,-9.684154982495794,-4.819086440785162,-9.488405196900871,-3.407778452109893,-9.25815521689428,-1.9915431000383048,-8.995701891553772,-0.5747971055128103,-8.703389596123642,0.8381489200707506,-8.383594907938964,2.2431102504847305,-8.038712028773624,3.6360464451437706,-7.671138936098995,5.013078411393689,-7.283264245740082,6.370504165577385,-6.877454768416072,7.7048133298400865,-6.456043742652167,9.012700401636149,-6.021319726549557,10.291076832899758,-5.575516130900372,11.53708195584171,-5.120801376134629,12.748092792334653,-4.659269655585852,13.921732783848961,-4.192932287562456,15.055879478901572,-3.7237096387115898,16.14867121498007,-3.2534236011624476,17.19851283190421,-2.783790605935838,18.204080453587263,-2.316415155106979,19.164325375159365,-1.852783855208278,20.078477092415206,-1.394259934359141,20.94604551054827,-0.94207822560948,21.766822369133955,-0.4973405989840014,22.54088192032382,-0.06101182471401678,23.268580897213234,0.36608414985627924,23.95055780934467,0.7832675272022112,24.587731602309006,1.1900056079028225,25.181299718406986,1.5859153777899753,25.73273559533321,1.9707657514755148,26.24378563984487,2.3444794897695687,26.716465713377502,2.7071348085031346,27.15305716657013,3.0589666962680653,27.553147964315354,3.4001508300036587,27.915065865876947,3.7305347760232115,28.239441827259725,4.05001102334442,28.526960692086053,4.358512096826959,28.778356241291497,4.6560082116651795,28.994406242820464,4.942504927880798,29.175927501321823,5.218040804815571,29.323770907844636,5.482685055624001,29.438816489533703,5.736535201766011,29.52196845932528,5.979714727499627,29.574150265642697,6.212370734373683,29.596299642092028,6.434671595720491,29.5893636571577,6.646804611148543,29.554293763898187,6.848973661035186,30.344554242336162,8.685451151781018,29.799479440130817,8.718638238844964,29.23887035932903,8.748020078941948,28.662459652711867,8.773575293206175,28.069996405508395,8.79529040103183,27.461247709078012,8.81315996137646,26.836000234592788,8.827186714064354,26.19406180671971,8.83738172108993,25.535262977303045,8.8437645079211,24.859458599046615,8.846363204802667,24.166529399196115,8.845214688059702,23.456383553221457,8.840364721400912,22.728958258499,8.83186809722204,21.984221307993923,8.81978877790923,21.222172663942533,8.804200037142412,20.441770136049534,8.785195808613102,19.64159460985463,8.762813652982507,18.82120351015003,8.737071802349043,17.980284722816158,8.708017755605107,17.118656530501855,8.675727401220016,16.236267324698886,8.640304085690268,15.333195082460273,8.601877626602082,14.40964659601251,8.560603269251141,13.465956443511397,8.516660585764466,12.502585689191331,8.470252315669375,11.520120301157968,8.421603146854444,10.519269275074,8.370958435867415,9.50086245198794,8.318582866494973,8.465848018555757,8.264759045569344,7.415289677905177,8.209786034946646,6.350363479392477,8.153977818601906,5.272354295501668,8.097661703785706,4.182651934135841,8.04117665518738,3.082746874550566,7.984871561049692,1.9742256151791238,7.929103430179943,0.8587656215994894,7.874235518802422,-0.2618701371071799,7.820635386197166,-1.3858390753566354,7.768672878069925,-2.5112253131704385,7.718718036598306,-3.636046445143771,7.671138936098995,-4.7582607680223585,7.626299443261024,-5.875774978638658,7.584556900889994,-6.986452353957452,7.5462597341082,-8.08812142498105,7.511744977955588,-9.178585156264198,7.48133572533648,-10.255630642788923,7.455338494257015,-11.317039335949445,7.4340405132982035,-12.360597810397284,7.417706924269584,-13.384109083496792,7.406577900988364,-14.38540449914122,7.4008656831290205,-15.362356187679499,7.400751524088261,-16.312890113703883,7.40638255181032,-17.234999723448638,7.417868541517473,-18.126760203549917,7.435278599290765,-18.986343362917033,7.458637755445821,-19.812033149465144,7.4879234666487395,-20.60224181345977,7.523062025716947,-21.355526729222984,7.563924878049995,-22.070607886951752,7.610324843635189,-22.746386066398326,7.662012243573031,-23.381961704163036,7.71867093006737,-23.97665446634951,7.779914218825223,-24.530023538332582,7.845280722811176,-25.041888643388983,7.914230086301342,-25.512351801941023,7.986138618181745,-26.052835821189174,8.006575390781222,-26.57092512437524,8.025908094270594,-27.066516251574324,8.04366568468561,-27.53956536186738,8.059345233193618,-27.99009066428904,8.072411074077461,-28.418174848775468,8.082293952719413,-28.823967517112212,8.088390173585067,-29.207687613882005,8.09006074820726,-29.569625857412635,8.086630543169985,-29.9101471707248,8.0773874280923,-30.229693112479925,8.061581423612237,-30.528784307927996,8.038423849370728,-30.808022879855425,8.007086471995496,-31.068094879532882,7.966700653084987,-31.30977271766314,7.916356497192272"></polyline></clipPath><filter id="fuzzy"><feTurbulence id="turbulence" baseFrequency="0.05" numOctaves="3" type="noise" result="noise"></feTurbulence><feDisplacementMap in="SourceGraphic" in2="noise" scale="2"></feDisplacementMap></filter><linearGradient id="rainbowGradient" x1="0%" y1="0%" x2="100%" y2="0%"><stop offset="0%" style="stop-color: rgb(233, 236, 239);  stop-opacity: 1"></stop><stop offset="50%" style="stop-color: rgb(192, 192, 192);  stop-opacity: 1"></stop><stop offset="100%" style="stop-color: rgb(0, 191, 255);  stop-opacity: 1"></stop></linearGradient></defs><title>That&#39;s an ugly face</title><desc>CREATED BY XUAN TANG, MORE INFO AT TXSTC55.GITHUB.IO</desc><rect x="-100" y="-100" width="100%" height="100%" opacity="1" fill="rgb(230, 230, 250)"></rect><polyline id="faceContour" points="71,2,71,1,71,2,71,3,71,7,71,7,71,9,71,10,71,14,71,11,71,14,70,17,70,16,70,18,70,20,70,20,69,25,69,26,69,24,69,26,68,28,68,29,68,32,67,33,67,33,66,36,66,37,66,37,65,39,65,41,64,41,64,42,64,43,63,44,62,46,61,48,61,48,61,50,60,51,59,52,60,52,58,53,58,55,58,55,56,58,55,58,56,58,54,60,52,62,52,62,52,63,52,63,50,65,48,67,48,67,47,68,47,67,46,68,44,70,45,70,42,72,42,72,41,73,39,74,39,74,39,75,38,75,36,76,36,76,35,77,33,77,31,79,32,78,29,79,29,80,27,80,28,80,26,80,25,81,24,81,22,82,21,82,20,82,21,82,17,83,17,83,16,83,15,83,13,83,13,83,11,84,9,84,11,84,7,84,7,84,5,84,3,84,3,84,1,84,0,84,-1,84,-2,83,-2,83,-2,83,-3,83,-7,82,-6,83,-8,82,-8,82,-11,81,-11,81,-13,81,-15,80,-16,80,-16,80,-16,80,-18,79,-18,79,-21,79,-23,78,-22,78,-23,77,-25,77,-26,76,-27,76,-28,75,-30,74,-32,73,-30,74,-32,72,-35,71,-35,71,-36,70,-36,70,-39,68,-37,70,-38,69,-39,68,-40,67,-43,65,-43,64,-43,65,-46,62,-45,63,-46,62,-47,60,-49,59,-50,58,-49,58,-51,56,-53,55,-53,54,-53,54,-54,52,-54,52,-55,51,-55,52,-58,48,-57,49,-59,46,-59,46,-59,45,-60,44,-60,44,-61,41,-62,41,-63,39,-63,38,-63,38,-64,37,-64,37,-64,36,-65,34,-66,31,-66,32,-67,29,-66,31,-67,27,-68,25,-68,24,-68,24,-69,23,-69,21,-69,21,-69,20,-70,19,-70,16,-70,16,-70,13,-71,13,-71,12,-71,11,-71,9,-71,8,-71,7,-71,7,-71,6,-71,4,-71,3,-71,1,-71,-2,-71,-1,-71,-3,-71,-3,-71,-5,-71,-6,-71,-8,-70,-10,-70,-10,-70,-10,-70,-13,-70,-13,-69,-15,-69,-15,-69,-16,-69,-17,-68,-21,-68,-20,-67,-23,-68,-22,-67,-24,-66,-27,-66,-27,-66,-28,-66,-28,-65,-31,-65,-31,-64,-32,-63,-35,-64,-34,-62,-37,-62,-36,-62,-37,-60,-41,-60,-40,-59,-41,-60,-41,-58,-44,-58,-43,-57,-45,-57,-45,-57,-46,-55,-49,-54,-50,-54,-50,-53,-52,-53,-52,-52,-52,-51,-53,-50,-55,-50,-55,-49,-56,-48,-58,-47,-59,-46,-60,-45,-61,-46,-60,-44,-62,-44,-62,-42,-64,-41,-65,-40,-65,-40,-65,-39,-67,-37,-68,-38,-67,-34,-70,-34,-70,-34,-70,-33,-71,-32,-71,-29,-73,-29,-73,-29,-73,-29,-74,-26,-75,-25,-76,-25,-75,-24,-77,-22,-77,-21,-78,-20,-78,-19,-78,-18,-79,-16,-79,-16,-79,-16,-80,-13,-81,-13,-81,-11,-81,-9,-82,-11,-81,-9,-81,-7,-82,-7,-82,-5,-82,-4,-83,-4,-83,-3,-83,-3,-83,1,-84,2,-84,2,-83,2,-84,6,-84,5,-84,6,-84,9,-84,10,-84,11,-83,11,-84,12,-83,13,-83,14,-83,15,-83,17,-83,19,-82,18,-83,20,-82,22,-82,23,-81,21,-82,24,-81,24,-80,26,-80,27,-80,28,-79,28,-79,29,-79,31,-77,31,-77,33,-77,35,-76,33,-76,36,-75,36,-75,37,-74,38,-74,39,-72,40,-72,41,-71,42,-71,42,-70,44,-69,44,-68,46,-67,47,-66,47,-65,48,-64,48,-65,49,-63,50,-63,50,-61,51,-61,52,-60,53,-58,54,-58,55,-56,56,-55,57,-53,57,-53,57,-53,59,-50,58,-50,59,-49,60,-46,60,-46,61,-44,61,-45,62,-44,62,-42,63,-41,64,-38,64,-37,65,-36,65,-35,66,-33,66,-31,66,-31,67,-29,67,-30,68,-26,68,-25,68,-26,68,-23,69,-21,69,-20,70,-17,70,-18,70,-15,70,-13,70,-12,70,-11,70,-10,71,-9,71,-8,71,-6,71,-4,71,-3,71,-3,71,2,71,1" fill="#ffc9a9" stroke="black" stroke-width="1.6666666666666665" stroke-linejoin="round" filter="url(#fuzzy)"></polyline><g transform="translate(34.02342098865729 -21.130710443400112)"><polyline id="rightCountour" points="-31.715179460162748,1.4320568888602452,-31.49232451249929,0.9376226775967353,-31.240866555873612,0.4369520493855763,-30.959284352202094,-0.06682726928094773,-30.64624376858013,-0.5707752890348026,-30.300592223321875,-1.072135323122236,-29.921353132000075,-1.5683295528938341,-29.507720353485855,-2.056954593294556,-29.059052635988532,-2.5357770583537924,-28.574868063095433,-3.0027291266754013,-28.054838499811694,-3.455904106927754,-27.49878403860003,-3.89355200333379,-26.906667445420613,-4.314075081161057,-26.278588605770807,-4.716023432211756,-25.614778970725016,-5.098090540312793,-24.915596002974453,-5.459108846805812,-24.38230461039405,-6.109805109718415,-23.777611866896446,-6.715182852315191,-23.10209388150048,-7.273107296619031,-22.356906828337063,-7.781914627602312,-21.543734020393213,-8.240380238739846,-20.664735060686784,-8.647688039221844,-19.7224970339096,-9.003400805313657,-18.719987701576763,-9.307431558349204,-17.660510663719766,-9.560015951844996,-16.54766245016125,-9.761685650221605,-15.385291504409022,-9.913242681619419,-14.177459023207174,-10.015734747295678,-12.928401614781961,-10.070431470089531,-11.642495738820143,-10.078801564442099,-10.324223891217613,-10.042490910458351,-8.978142496635929,-9.96330151449775,-7.608851471904547,-9.84317133878039,-6.220965423306506,-9.684154982495794,-4.819086440785162,-9.488405196900871,-3.407778452109893,-9.25815521689428,-1.9915431000383048,-8.995701891553772,-0.5747971055128103,-8.703389596123642,0.8381489200707506,-8.383594907938964,2.2431102504847305,-8.038712028773624,3.6360464451437706,-7.671138936098995,5.013078411393689,-7.283264245740082,6.370504165577385,-6.877454768416072,7.7048133298400865,-6.456043742652167,9.012700401636149,-6.021319726549557,10.291076832899758,-5.575516130900372,11.53708195584171,-5.120801376134629,12.748092792334653,-4.659269655585852,13.921732783848961,-4.192932287562456,15.055879478901572,-3.7237096387115898,16.14867121498007,-3.2534236011624476,17.19851283190421,-2.783790605935838,18.204080453587263,-2.316415155106979,19.164325375159365,-1.852783855208278,20.078477092415206,-1.394259934359141,20.94604551054827,-0.94207822560948,21.766822369133955,-0.4973405989840014,22.54088192032382,-0.06101182471401678,23.268580897213234,0.36608414985627924,23.95055780934467,0.7832675272022112,24.587731602309006,1.1900056079028225,25.181299718406986,1.5859153777899753,25.73273559533321,1.9707657514755148,26.24378563984487,2.3444794897695687,26.716465713377502,2.7071348085031346,27.15305716657013,3.0589666962680653,27.553147964315354,3.4001508300036587,27.915065865876947,3.7305347760232115,28.239441827259725,4.05001102334442,28.526960692086053,4.358512096826959,28.778356241291497,4.6560082116651795,28.994406242820464,4.942504927880798,29.175927501321823,5.218040804815571,29.323770907844636,5.482685055624001,29.438816489533703,5.736535201766011,29.52196845932528,5.979714727499627,29.574150265642697,6.212370734373683,29.596299642092028,6.434671595720491,29.5893636571577,6.646804611148543,29.554293763898187,6.848973661035186,30.344554242336162,8.685451151781018,29.799479440130817,8.718638238844964,29.23887035932903,8.748020078941948,28.662459652711867,8.773575293206175,28.069996405508395,8.79529040103183,27.461247709078012,8.81315996137646,26.836000234592788,8.827186714064354,26.19406180671971,8.83738172108993,25.535262977303045,8.8437645079211,24.859458599046615,8.846363204802667,24.166529399196115,8.845214688059702,23.456383553221457,8.840364721400912,22.728958258499,8.83186809722204,21.984221307993923,8.81978877790923,21.222172663942533,8.804200037142412,20.441770136049534,8.785195808613102,19.64159460985463,8.762813652982507,18.82120351015003,8.737071802349043,17.980284722816158,8.708017755605107,17.118656530501855,8.675727401220016,16.236267324698886,8.640304085690268,15.333195082460273,8.601877626602082,14.40964659601251,8.560603269251141,13.465956443511397,8.516660585764466,12.502585689191331,8.470252315669375,11.520120301157968,8.421603146854444,10.519269275074,8.370958435867415,9.50086245198794,8.318582866494973,8.465848018555757,8.264759045569344,7.415289677905177,8.209786034946646,6.350363479392477,8.153977818601906,5.272354295501668,8.097661703785706,4.182651934135841,8.04117665518738,3.082746874550566,7.984871561049692,1.9742256151791238,7.929103430179943,0.8587656215994894,7.874235518802422,-0.2618701371071799,7.820635386197166,-1.3858390753566354,7.768672878069925,-2.5112253131704385,7.718718036598306,-3.636046445143771,7.671138936098995,-4.7582607680223585,7.626299443261024,-5.875774978638658,7.584556900889994,-6.986452353957452,7.5462597341082,-8.08812142498105,7.511744977955588,-9.178585156264198,7.48133572533648,-10.255630642788923,7.455338494257015,-11.317039335949445,7.4340405132982035,-12.360597810397284,7.417706924269584,-13.384109083496792,7.406577900988364,-14.38540449914122,7.4008656831290205,-15.362356187679499,7.400751524088261,-16.312890113703883,7.40638255181032,-17.234999723448638,7.417868541517473,-18.126760203549917,7.435278599290765,-18.986343362917033,7.458637755445821,-19.812033149465144,7.4879234666487395,-20.60224181345977,7.523062025716947,-21.355526729222984,7.563924878049995,-22.070607886951752,7.610324843635189,-22.746386066398326,7.662012243573031,-23.381961704163036,7.71867093006737,-23.97665446634951,7.779914218825223,-24.530023538332582,7.845280722811176,-25.041888643388983,7.914230086301342,-25.512351801941023,7.986138618181745,-26.052835821189174,8.006575390781222,-26.57092512437524,8.025908094270594,-27.066516251574324,8.04366568468561,-27.53956536186738,8.059345233193618,-27.99009066428904,8.072411074077461,-28.418174848775468,8.082293952719413,-28.823967517112212,8.088390173585067,-29.207687613882005,8.09006074820726,-29.569625857412635,8.086630543169985,-29.9101471707248,8.0773874280923,-30.229693112479925,8.061581423612237,-30.528784307927996,8.038423849370728,-30.808022879855425,8.007086471995496,-31.068094879532882,7.966700653084987,-31.30977271766314,7.916356497192272" fill="white" stroke="white" stroke-width="0" stroke-linejoin="round" filter="url(#fuzzy)"></polyline></g><g transform="translate(-28.37629031596744 -18.372789910827034)"><polyline id="leftCountour" points="32.26568048950171,1.8877128095086881,32.06719735920005,1.380982183808145,31.839601089194154,0.866584001165343,31.581256158432673,0.34773207623784685,31.290723553984584,-0.1725477187993789,30.9667549631453,-0.6914130787576127,30.608286965542803,-1.2062008899380192,30.214435225243847,-1.7144228546352984,29.78448868286,-2.213761115641315,29.317903747653887,-2.7020638807487742,28.814298489645253,-3.177341047254835,28.27344683171718,-3.6377598264647713,27.695272741722125,-4.081640368195615,27.07984442458816,-4.507451385279804,26.427368514425055,-4.9138057780688165,25.738184266630462,-5.299456258936839,25.227951384225257,-5.979190634425361,24.64358532274884,-6.614286617381033,23.98562399182508,-7.202458019937836,23.255209098830168,-7.74188669225164,22.45403085266841,-8.231192027181844,21.584274858514426,-8.669401450217983,20.64857116416392,-9.055921878834539,19.649945418635454,-9.39051213545703,18.591772103665622,-9.673256298222405,17.477729798739958,-9.90453797371702,16.311758440301784,-10.08501547587517,15.098018535781634,-10.21559789522136,13.840852293089359,-10.297422042639372,12.544746626211413,-10.331830251851319,11.21429799755555,-10.320349024789738,9.85417905768545,-10.264668504045854,8.469107043087469,-10.16662275657707,7.06381389261197,-10.028170852856977,5.643018043231558,-9.851378725650726,4.21139786575853,-9.638401792599137,2.773566701163996,-9.391468326794435,1.334049458140906,-9.112863559530926,-0.10273926744657014,-8.804914499413574,-1.5325155905850012,-8.469975452007638,-2.95114529196262,-8.110414224212533,-4.3546613690068785,-7.7285989975429565,-5.739280222466266,-7.326885854500414,-7.101416517894015,-6.907606942218294,-8.437696761391418,-6.473059257563552,-9.744971628968255,-6.0254940378781505,-11.020327088878194,-5.56710674154332,-12.261094356286538,-5.1000276025498685,-13.464858719628262,-4.626312743257468,-14.629467278013687,-4.147935829526244,-15.75303562903972,-3.666780252403587,-16.83395354636407,-3.1846318205494093,-17.87088968640024,-2.703171947582957,-18.862795363490854,-2.2239713185342573,-19.80890743291703,-1.7484840195833051,-20.708750321101405,-1.2780421152701198,-21.56213724236241,-0.8138506573588185,-22.36917064157759,-0.3569831095387226,-23.13024190211344,0.09162282785422171,-23.846030358379544,0.5311690089128458,-24.517501652364533,0.9610002648476037,-25.14590547351163,1.3806074741059433,-25.732772721291372,1.7896302957389807,-26.27991212982914,2.1878595818324342,-26.789406393945136,2.5752394848186597,-27.263607835964553,2.9518692754866827,-27.70213736053643,3.318036352586226,-28.10333731932632,3.6737460396302932,-28.467884844345257,4.018823890097961,-28.796510492305227,4.353136567927048,-29.08999297350594,4.6765897291809715,-29.349153880721484,4.989125903715617,-29.574852418087136,5.290722376846186,-29.767980129986086,5.581389071014081,-29.929455629936122,5.861166427453753,-30.06021932947641,6.130123287859554,-30.16122816705422,6.3883547760526245,-30.233450336911652,6.635980179647738,-30.277860017972362,6.8731408317201685,-30.295432102728316,7.099997992472553,-30.277415871273497,9.50525076781041,-29.756193592796503,9.528438415253914,-29.219638957838924,9.547681299983628,-28.667459432251142,9.56296518756197,-28.099376852538928,9.574284567265392,-27.51512911041788,9.581642773445093,-26.914471837367945,9.585052106887732,-26.297180089187783,9.584533956176129,-25.663050030549325,9.580118919049998,-25.01190061955218,9.571846923766635,-24.343575292278107,9.559767350461655,-23.657943647345487,9.543939152509683,-22.954903130463777,9.524430977885075,-22.234380718987957,9.501321290522638,-21.496334606473038,9.474698491678325,-20.739833188153213,9.44461912026136,-19.963540821605353,9.411090238558366,-19.16693141177616,9.37415698794662,-18.349608976042003,9.333894946610755,-17.511307866914187,9.290409079942677,-16.651892772555385,9.243832633929394,-15.771358482528916,9.194325970622678,-14.86982940620315,9.142075344784365,-13.947558831232767,9.087291620801107,-13.004927909539088,9.030208928962484,-12.042444358211295,8.971083260196238,-11.060740862750658,8.910190998354532,-10.060573170079708,8.847827389145042,-9.042817858738335,8.784304944800724,-8.008469773688846,8.7199517835821,-6.958639113151942,8.655109903205918,-5.894548154895633,8.590133387293987,-4.817527609399062,8.525386543936083,-3.729012587313256,8.4612419754607,-2.630538168640757,8.398078578507558,-1.5237345610561854,8.336279473495631,-0.410321834789666,8.276229862580617,0.707895778504831,8.218314815195608,1.8290360354743016,8.162916980268871,2.9511452919626198,8.110414224212533,4.072205587655592,8.061177193776022,5.19014221705316,8.015566802858121,6.302831799346739,7.973931642371465,7.40811085977972,7.936605312253291,8.503784935069119,7.903903674716342,9.587638215466407,7.876122027833706,10.65744373603551,7.853532198551463,11.71097412972598,7.836379554222984,12.746012954819374,7.824879931758688,13.760366609326784,7.819216483485137,14.751876844915643,7.819536438807278,15.71843389294365,7.8259477807677,16.657990215177964,7.838515836596714,17.5685748917776,7.857259781347133,18.44830865911707,7.882149053707547,19.29541961002922,7.91309968308798,20.108259569045384,7.949970527071741,20.88532115521063,7.9925594183273105,21.62525554505247,8.04059922007411,22.326890948280656,8.09375378919599,22.98925180879632,8.151613846096286,23.61157874358838,8.213692750388265,24.193349232095244,8.279422181514816,24.734299068609722,8.348147723391222,25.234444590305337,8.41912435216485,25.79952719872061,8.433335081452284,26.34282021383453,8.445390290122173,26.864193549129304,8.454715676145828,27.363576122885657,8.460700441261036,27.840958305898106,8.462696346674157,28.296394369190303,8.460016768762232,28.730004931730356,8.451935754775102,29.14197940814614,8.4376870785375,29.532578456440618,8.416463296151182,29.90213642570718,8.387414801697009,30.251063803844936,8.349648882937075,30.579849665274047,8.302228777016811,30.88906411865107,8.244172726167093,31.17936075458421,8.174453033406342,31.451479093348716,8.091995118242652" fill="white" stroke="white" stroke-width="0" stroke-linejoin="round" filter="url(#fuzzy)"></polyline></g><g transform="translate(34.02342098865729 -21.130710443400112)"><polyline id="rightUpper" points="-32.85013505354051,5.202186308312971,-32.78450787998844,4.986614065551483,-32.717002734396445,4.722227006896399,-32.643921859080464,4.414274128129884,-32.561810141137414,4.067772342810319,-32.46744955848487,3.6875109167822613,-32.357853625901,3.278055902686388,-32.23026184106428,2.843754574469463,-32.08213413059333,2.3887398618942868,-31.911145296086705,1.9169347850496372,-31.715179460162748,1.4320568888602452,-31.49232451249929,0.9376226775967353,-31.240866555873612,0.4369520493855763,-30.959284352202094,-0.06682726928094773,-30.64624376858013,-0.5707752890348026,-30.300592223321875,-1.072135323122236,-29.921353132000075,-1.5683295528938341,-29.507720353485855,-2.056954593294556,-29.059052635988532,-2.5357770583537924,-28.574868063095433,-3.0027291266754013,-28.054838499811694,-3.455904106927754,-27.49878403860003,-3.89355200333379,-26.906667445420613,-4.314075081161057,-26.278588605770807,-4.716023432211756,-25.614778970725016,-5.098090540312793,-24.915596002974453,-5.459108846805812,-24.38230461039405,-6.109805109718415,-23.777611866896446,-6.715182852315191,-23.10209388150048,-7.273107296619031,-22.356906828337063,-7.781914627602312,-21.543734020393213,-8.240380238739846,-20.664735060686784,-8.647688039221844,-19.7224970339096,-9.003400805313657,-18.719987701576763,-9.307431558349204,-17.660510663719766,-9.560015951844996,-16.54766245016125,-9.761685650221605,-15.385291504409022,-9.913242681619419,-14.177459023207174,-10.015734747295678,-12.928401614781961,-10.070431470089531,-11.642495738820143,-10.078801564442099,-10.324223891217613,-10.042490910458351,-8.978142496635929,-9.96330151449775,-7.608851471904547,-9.84317133878039,-6.220965423306506,-9.684154982495794,-4.819086440785162,-9.488405196900871,-3.407778452109893,-9.25815521689428,-1.9915431000383048,-8.995701891553772,-0.5747971055128103,-8.703389596123642,0.8381489200707506,-8.383594907938964,2.2431102504847305,-8.038712028773624,3.6360464451437706,-7.671138936098995,5.013078411393689,-7.283264245740082,6.370504165577385,-6.877454768416072,7.7048133298400865,-6.456043742652167,9.012700401636149,-6.021319726549557,10.291076832899758,-5.575516130900372,11.53708195584171,-5.120801376134629,12.748092792334653,-4.659269655585852,13.921732783848961,-4.192932287562456,15.055879478901572,-3.7237096387115898,16.14867121498007,-3.2534236011624476,17.19851283190421,-2.783790605935838,18.204080453587263,-2.316415155106979,19.164325375159365,-1.852783855208278,20.078477092415206,-1.394259934359141,20.94604551054827,-0.94207822560948,21.766822369133955,-0.4973405989840014,22.54088192032382,-0.06101182471401678,23.268580897213234,0.36608414985627924,23.95055780934467,0.7832675272022112,24.587731602309006,1.1900056079028225,25.181299718406986,1.5859153777899753,25.73273559533321,1.9707657514755148,26.24378563984487,2.3444794897695687,26.716465713377502,2.7071348085031346,27.15305716657013,3.0589666962680653,27.553147964315354,3.4001508300036587,27.915065865876947,3.7305347760232115,28.239441827259725,4.05001102334442,28.526960692086053,4.358512096826959,28.778356241291497,4.6560082116651795,28.994406242820464,4.942504927880798,29.175927501321823,5.218040804815571,29.323770907844636,5.482685055624001,29.438816489533703,5.736535201766011,29.52196845932528,5.979714727499627,29.574150265642697,6.212370734373683,29.596299642092028,6.434671595720491,29.5893636571577,6.646804611148543,29.554293763898187,6.848973661035186,29.492040849641608,7.041396861019316,29.403550285681444,7.224304216494065,29.289756976972104,7.397935277099487,29.15158041182463,7.562536791215242,28.989919711602326,7.718360360453293,28.805648680416404,7.865660094150586,28.59961085482165,8.004690263861736,28.372614553512015,8.13570295785172,28.125427927016357,8.258945735588558,27.858774007394008,8.374659282236008" fill="none" stroke="black" stroke-width="1.6666666666666665" stroke-linejoin="round" filter="url(#fuzzy)"></polyline><polyline id="rightLower" points="-32.95141632000578,6.633824882269471,-32.83046030592749,6.843482399050298,-32.70411881462009,7.031626043344774,-32.570622138928584,7.199625141938391,-32.42831124060848,7.348799244410388,-32.27563531937791,7.48041897514984,-32.111149381969895,7.595706885371753,-31.93351181118442,7.695838305133137,-31.741481934940605,7.781942195349105,-31.53391759532887,7.855101999808957,-31.30977271766314,7.916356497192272,-31.068094879532882,7.966700653084987,-30.808022879855425,8.007086471995496,-30.528784307927996,8.038423849370728,-30.229693112479925,8.061581423612237,-29.9101471707248,8.0773874280923,-29.569625857412635,8.086630543169985,-29.207687613882005,8.09006074820726,-28.823967517112212,8.088390173585067,-28.418174848775468,8.082293952719413,-27.99009066428904,8.072411074077461,-27.53956536186738,8.059345233193618,-27.066516251574324,8.04366568468561,-26.57092512437524,8.025908094270594,-26.052835821189174,8.006575390781222,-25.512351801941023,7.986138618181745,-25.041888643388983,7.914230086301342,-24.530023538332582,7.845280722811176,-23.97665446634951,7.779914218825223,-23.381961704163036,7.71867093006737,-22.746386066398326,7.662012243573031,-22.070607886951752,7.610324843635189,-21.355526729222984,7.563924878049995,-20.60224181345977,7.523062025716947,-19.812033149465144,7.4879234666487395,-18.986343362917033,7.458637755445821,-18.126760203549917,7.435278599290765,-17.234999723448638,7.417868541517473,-16.312890113703883,7.40638255181032,-15.362356187679499,7.400751524088261,-14.38540449914122,7.4008656831290205,-13.384109083496792,7.406577900988364,-12.360597810397284,7.417706924269584,-11.317039335949445,7.4340405132982035,-10.255630642788923,7.455338494257015,-9.178585156264198,7.48133572533648,-8.08812142498105,7.511744977955588,-6.986452353957452,7.5462597341082,-5.875774978638658,7.584556900889994,-4.7582607680223585,7.626299443261024,-3.636046445143771,7.671138936098995,-2.5112253131704385,7.718718036598306,-1.3858390753566354,7.768672878069925,-0.2618701371071799,7.820635386197166,0.8587656215994894,7.874235518802422,1.9742256151791238,7.929103430179943,3.082746874550566,7.984871561049692,4.182651934135841,8.04117665518738,5.272354295501668,8.097661703785706,6.350363479392477,8.153977818601906,7.415289677905177,8.209786034946646,8.465848018555757,8.264759045569344,9.50086245198794,8.318582866494973,10.519269275074,8.370958435867415,11.520120301157968,8.421603146854444,12.502585689191331,8.470252315669375,13.465956443511397,8.516660585764466,14.40964659601251,8.560603269251141,15.333195082460273,8.601877626602082,16.236267324698886,8.640304085690268,17.118656530501855,8.675727401220016,17.980284722816158,8.708017755605107,18.82120351015003,8.737071802349043,19.64159460985463,8.762813652982507,20.441770136049534,8.785195808613102,21.222172663942533,8.804200037142412,21.984221307993923,8.81978877790923,22.728958258499,8.83186809722204,23.456383553221457,8.840364721400912,24.166529399196115,8.845214688059702,24.859458599046615,8.846363204802667,25.535262977303045,8.8437645079211,26.19406180671971,8.83738172108993,26.836000234592788,8.827186714064354,27.461247709078012,8.81315996137646,28.069996405508395,8.79529040103183,28.662459652711867,8.773575293206175,29.23887035932903,8.748020078941948,29.799479440130817,8.718638238844964,30.344554242336162,8.685451151781018,30.87437697192974,8.648487953572513,31.38924311997963,8.607785395695059,31.889459888955,8.563387703974119,32.37534461904382,8.515346437281611,32.84722321447053,8.463720346232531,33.30542856981377,8.40857523188157,33.750298996324034,8.349983804419747,34.18217664824135,8.288025541871008,34.60140594911303,8.22278654878886,35.00833201811132,8.154359414952985" fill="none" stroke="black" stroke-width="2.2222222222222223" stroke-linejoin="round" filter="url(#fuzzy)"></polyline><!--[--><circle r="4.235659379577271" cx="8.902535889553292" cy="-5.529007942246382" stroke="black" fill="none" stroke-width="1" filter="url(#fuzzy)" clip-path="url(#rightEyeClipPath)"></circle><circle r="4.875736394652426" cx="8.814321881071315" cy="-1.3201543213874256" stroke="black" fill="none" stroke-width="1" filter="url(#fuzzy)" clip-path="url(#rightEyeClipPath)"></circle><circle r="4.60281680690275" cx="10.408841894039242" cy="-4.714115288224228" stroke="black" fill="none" stroke-width="1" filter="url(#fuzzy)" clip-path="url(#rightEyeClipPath)"></circle><circle r="4.733896314616406" cx="6.691957946739464" cy="-1.8611768142905913" stroke="black" fill="none" stroke-width="1" filter="url(#fuzzy)" clip-path="url(#rightEyeClipPath)"></circle><circle r="3.5761966815943413" cx="8.678478659905798" cy="-3.5983172493007762" stroke="black" fill="none" stroke-width="1" filter="url(#fuzzy)" clip-path="url(#rightEyeClipPath)"></circle><circle r="3.767184785674299" cx="9.38752410804391" cy="-4.248814685633526" stroke="black" fill="none" stroke-width="1" filter="url(#fuzzy)" clip-path="url(#rightEyeClipPath)"></circle><circle r="4.298765609931069" cx="8.567866324696656" cy="-5.205951050190814" stroke="black" fill="none" stroke-width="1" filter="url(#fuzzy)" clip-path="url(#rightEyeClipPath)"></circle><circle r="4.235701222872781" cx="8.45681312171709" cy="-1.2579597786798402" stroke="black" fill="none" stroke-width="1" filter="url(#fuzzy)" clip-path="url(#rightEyeClipPath)"></circle><circle r="3.5300026937083024" cx="7.269980725219062" cy="-5.697058711923074" stroke="black" fill="none" stroke-width="1" filter="url(#fuzzy)" clip-path="url(#rightEyeClipPath)"></circle><circle r="3.026751385076488" cx="9.214990228554326" cy="-1.0239366296318808" stroke="black" fill="none" stroke-width="1" filter="url(#fuzzy)" clip-path="url(#rightEyeClipPath)"></circle><!--]--></g><g transform="translate(-28.37629031596744 -18.372789910827034)"><polyline id="leftUpper" points="33.16123444960532,5.683125591267105,33.116544627945665,5.474306167220114,33.071182560361024,5.214381593914334,33.021228210434714,4.908685763132817,32.963016128809,4.56232086921247,32.893129645291175,4.180161784540406,32.808395060959704,3.7668604350503028,32.70587584027036,3.3268501757187607,32.5828668031624,2.864350166061646,32.43688831716465,2.3833697456304623,32.26568048950171,1.8877128095086881,32.06719735920005,1.380982183808145,31.839601089194154,0.866584001165343,31.581256158432673,0.34773207623784685,31.290723553984584,-0.1725477187993789,30.9667549631453,-0.6914130787576127,30.608286965542803,-1.2062008899380192,30.214435225243847,-1.7144228546352984,29.78448868286,-2.213761115641315,29.317903747653887,-2.7020638807487742,28.814298489645253,-3.177341047254835,28.27344683171718,-3.6377598264647713,27.695272741722125,-4.081640368195615,27.07984442458816,-4.507451385279804,26.427368514425055,-4.9138057780688165,25.738184266630462,-5.299456258936839,25.227951384225257,-5.979190634425361,24.64358532274884,-6.614286617381033,23.98562399182508,-7.202458019937836,23.255209098830168,-7.74188669225164,22.45403085266841,-8.231192027181844,21.584274858514426,-8.669401450217983,20.64857116416392,-9.055921878834539,19.649945418635454,-9.39051213545703,18.591772103665622,-9.673256298222405,17.477729798739958,-9.90453797371702,16.311758440301784,-10.08501547587517,15.098018535781634,-10.21559789522136,13.840852293089359,-10.297422042639372,12.544746626211413,-10.331830251851319,11.21429799755555,-10.320349024789738,9.85417905768545,-10.264668504045854,8.469107043087469,-10.16662275657707,7.06381389261197,-10.028170852856977,5.643018043231558,-9.851378725650726,4.21139786575853,-9.638401792599137,2.773566701163996,-9.391468326794435,1.334049458140906,-9.112863559530926,-0.10273926744657014,-8.804914499413574,-1.5325155905850012,-8.469975452007638,-2.95114529196262,-8.110414224212533,-4.3546613690068785,-7.7285989975429565,-5.739280222466266,-7.326885854500414,-7.101416517894015,-6.907606942218294,-8.437696761391418,-6.473059257563552,-9.744971628968255,-6.0254940378781505,-11.020327088878194,-5.56710674154332,-12.261094356286538,-5.1000276025498685,-13.464858719628262,-4.626312743257468,-14.629467278013687,-4.147935829526244,-15.75303562903972,-3.666780252403587,-16.83395354636407,-3.1846318205494093,-17.87088968640024,-2.703171947582957,-18.862795363490854,-2.2239713185342573,-19.80890743291703,-1.7484840195833051,-20.708750321101405,-1.2780421152701198,-21.56213724236241,-0.8138506573588185,-22.36917064157759,-0.3569831095387226,-23.13024190211344,0.09162282785422171,-23.846030358379544,0.5311690089128458,-24.517501652364533,0.9610002648476037,-25.14590547351163,1.3806074741059433,-25.732772721291372,1.7896302957389807,-26.27991212982914,2.1878595818324342,-26.789406393945136,2.5752394848186597,-27.263607835964553,2.9518692754866827,-27.70213736053643,3.318036352586226,-28.10333731932632,3.6737460396302932,-28.467884844345257,4.018823890097961,-28.796510492305227,4.353136567927048,-29.08999297350594,4.6765897291809715,-29.349153880721484,4.989125903715617,-29.574852418087136,5.290722376846186,-29.767980129986086,5.581389071014081,-29.929455629936122,5.861166427453753,-30.06021932947641,6.130123287859554,-30.16122816705422,6.3883547760526245,-30.233450336911652,6.635980179647738,-30.277860017972362,6.8731408317201685,-30.295432102728316,7.099997992472553,-30.28713692612651,7.316730730901758,-30.253934994455726,7.52353380646573,-30.1967717142332,7.720615550750375,-30.11657212109147,7.908195749136401,-30.014235608664997,8.086503522466199,-29.89063065747695,8.2557752087107,-29.746589563825978,8.416252244636228,-29.582903168672846,8.568179047471371,-29.400315586527267,8.711800896573843,-29.19951893433457,8.847361815097347" fill="none" stroke="black" stroke-width="2.2222222222222223" stroke-linejoin="round" filter="url(#fuzzy)"></polyline><polyline id="leftLower" points="33.40189063525764,6.29499383195222,33.250227009844366,6.574925443467455,33.093044919071026,6.8285866890558635,32.92861092164963,7.057572920696783,32.75530198311243,7.263423163880285,32.57160302809655,7.447621061905089,32.37610449262869,7.611595820176437,32.167499876409806,7.7567231505039995,31.944583295099804,7.884326215399751,31.70624703260217,7.995676572375877,31.451479093348716,8.091995118242652,31.17936075458421,8.174453033406342,30.88906411865107,8.244172726167093,30.579849665274047,8.302228777016811,30.251063803844936,8.349648882937075,29.90213642570718,8.387414801697009,29.532578456440618,8.416463296151182,29.14197940814614,8.4376870785375,28.730004931730356,8.451935754775102,28.296394369190303,8.460016768762232,27.840958305898106,8.462696346674157,27.363576122885657,8.460700441261036,26.864193549129304,8.454715676145828,26.34282021383453,8.445390290122173,25.79952719872061,8.433335081452284,25.234444590305337,8.41912435216485,24.734299068609722,8.348147723391222,24.193349232095244,8.279422181514816,23.61157874358838,8.213692750388265,22.98925180879632,8.151613846096286,22.326890948280656,8.09375378919599,21.62525554505247,8.04059922007411,20.88532115521063,7.9925594183273105,20.108259569045384,7.949970527071741,19.29541961002922,7.91309968308798,18.44830865911707,7.882149053707547,17.5685748917776,7.857259781347133,16.657990215177964,7.838515836596714,15.71843389294365,7.8259477807677,14.751876844915643,7.819536438807278,13.760366609326784,7.819216483485137,12.746012954819374,7.824879931758688,11.71097412972598,7.836379554222984,10.65744373603551,7.853532198551463,9.587638215466407,7.876122027833706,8.503784935069119,7.903903674716342,7.40811085977972,7.936605312253291,6.302831799346739,7.973931642371465,5.19014221705316,8.015566802858121,4.072205587655592,8.061177193776022,2.9511452919626198,8.110414224212533,1.8290360354743016,8.162916980268871,0.707895778504831,8.218314815195608,-0.410321834789666,8.276229862580617,-1.5237345610561854,8.336279473495631,-2.630538168640757,8.398078578507558,-3.729012587313256,8.4612419754607,-4.817527609399062,8.525386543936083,-5.894548154895633,8.590133387293987,-6.958639113151942,8.655109903205918,-8.008469773688846,8.7199517835821,-9.042817858738335,8.784304944800724,-10.060573170079708,8.847827389145042,-11.060740862750658,8.910190998354532,-12.042444358211295,8.971083260196238,-13.004927909539088,9.030208928962484,-13.947558831232767,9.087291620801107,-14.86982940620315,9.142075344784365,-15.771358482528916,9.194325970622678,-16.651892772555385,9.243832633929394,-17.511307866914187,9.290409079942677,-18.349608976042003,9.333894946610755,-19.16693141177616,9.37415698794662,-19.963540821605353,9.411090238558366,-20.739833188153213,9.44461912026136,-21.496334606473038,9.474698491678325,-22.234380718987957,9.501321290522638,-22.954903130463777,9.524430977885075,-23.657943647345487,9.543939152509683,-24.343575292278107,9.559767350461655,-25.01190061955218,9.571846923766635,-25.663050030549325,9.580118919049998,-26.297180089187783,9.584533956176129,-26.914471837367945,9.585052106887732,-27.51512911041788,9.581642773445093,-28.099376852538928,9.574284567265392,-28.667459432251142,9.56296518756197,-29.219638957838924,9.547681299983628,-29.756193592796503,9.528438415253914,-30.277415871273497,9.50525076781041,-30.78361101352045,9.478141194444017,-31.275095241334355,9.447141012938244,-31.75219409350421,9.412289900708501,-32.21524074125656,9.373635773441379,-32.66457430370101,9.331234663733943,-33.10053816327577,9.285150599733015,-33.52347828119325,9.23545548377447,-33.933741512885504,9.182228971022514,-34.33167392344982,9.125558348108981,-34.717619103094265,9.065538411772614" fill="none" stroke="black" stroke-width="2.2222222222222223" stroke-linejoin="round" filter="url(#fuzzy)"></polyline><!--[--><circle r="3.1392895879838263" cx="24.047854686718345" cy="-3.4256546352347708" stroke="black" fill="none" stroke-width="1" filter="url(#fuzzy)" clip-path="url(#leftEyeClipPath)"></circle><circle r="3.686926858392288" cx="25.807490441558638" cy="-3.8109629999994254" stroke="black" fill="none" stroke-width="1" filter="url(#fuzzy)" clip-path="url(#leftEyeClipPath)"></circle><circle r="4.807909446924375" cx="24.521132738218547" cy="-2.598854234672194" stroke="black" fill="none" stroke-width="1" filter="url(#fuzzy)" clip-path="url(#leftEyeClipPath)"></circle><circle r="3.208370649836771" cx="21.0528244659473" cy="-4.877070800688001" stroke="black" fill="none" stroke-width="1" filter="url(#fuzzy)" clip-path="url(#leftEyeClipPath)"></circle><circle r="3.3595151498970823" cx="23.922431371857233" cy="-2.786955721857417" stroke="black" fill="none" stroke-width="1" filter="url(#fuzzy)" clip-path="url(#leftEyeClipPath)"></circle><circle r="4.675818634706776" cx="24.9288503573828" cy="-3.9291316888105534" stroke="black" fill="none" stroke-width="1" filter="url(#fuzzy)" clip-path="url(#leftEyeClipPath)"></circle><circle r="4.47155880649152" cx="22.657423666931205" cy="-2.4675908260456016" stroke="black" fill="none" stroke-width="1" filter="url(#fuzzy)" clip-path="url(#leftEyeClipPath)"></circle><circle r="3.727206165814528" cx="21.196884316031433" cy="-4.200888265952618" stroke="black" fill="none" stroke-width="1" filter="url(#fuzzy)" clip-path="url(#leftEyeClipPath)"></circle><circle r="4.618068633619053" cx="21.42776552052207" cy="-3.5611124183892686" stroke="black" fill="none" stroke-width="1" filter="url(#fuzzy)" clip-path="url(#leftEyeClipPath)"></circle><circle r="4.514350991272634" cx="21.28404151260064" cy="-3.7056501113724356" stroke="black" fill="none" stroke-width="1" filter="url(#fuzzy)" clip-path="url(#leftEyeClipPath)"></circle><!--]--></g><g id="hairs"><!--[--><!--]--></g><g id="pointNose"><g id="rightNose"><!--[--><circle r="1.6706442331798383" cx="9.293865527003078" cy="-0.7285694094375024" stroke="black" fill="none" stroke-width="1" filter="url(#fuzzy)"></circle><circle r="1.8937245761724877" cx="8.540239882737186" cy="-1.6262942820050426" stroke="black" fill="none" stroke-width="1" filter="url(#fuzzy)"></circle><circle r="1.294253759810726" cx="9.864248134874462" cy="-1.455357751154126" stroke="black" fill="none" stroke-width="1" filter="url(#fuzzy)"></circle><circle r="2.5482459581959165" cx="11.43306283873575" cy="1.8791188336123956" stroke="black" fill="none" stroke-width="1" filter="url(#fuzzy)"></circle><circle r="2.074731020443562" cx="9.479125293552894" cy="-0.9509161908339152" stroke="black" fill="none" stroke-width="1" filter="url(#fuzzy)"></circle><circle r="1.9427457534368395" cx="11.219808774177187" cy="-1.365741869338898" stroke="black" fill="none" stroke-width="1" filter="url(#fuzzy)"></circle><circle r="2.600186379668333" cx="11.075639403155241" cy="-0.1958101363920992" stroke="black" fill="none" stroke-width="1" filter="url(#fuzzy)"></circle><circle r="1.8955331994501976" cx="8.112229158097454" cy="0.6865456273379249" stroke="black" fill="none" stroke-width="1" filter="url(#fuzzy)"></circle><circle r="1.7755481937894362" cx="10.890511302053548" cy="-0.41336148555400554" stroke="black" fill="none" stroke-width="1" filter="url(#fuzzy)"></circle><circle r="2.437806902487261" cx="9.882781588616217" cy="0.8117149339185179" stroke="black" fill="none" stroke-width="1" filter="url(#fuzzy)"></circle><!--]--></g><g id="leftNose"><!--[--><circle r="2.91050839874626" cx="-9.18247374887978" cy="8.127763433809053" stroke="black" fill="none" stroke-width="1" filter="url(#fuzzy)"></circle><circle r="2.4579954602657192" cx="-8.166047404809806" cy="9.123244716858032" stroke="black" fill="none" stroke-width="1" filter="url(#fuzzy)"></circle><circle r="1.7560792877074973" cx="-7.748767135793306" cy="6.931548985264795" stroke="black" fill="none" stroke-width="1" filter="url(#fuzzy)"></circle><circle r="2.0993739020653734" cx="-8.006452998047086" cy="6.941883656976444" stroke="black" fill="none" stroke-width="1" filter="url(#fuzzy)"></circle><circle r="2.098233254616491" cx="-8.722136744661654" cy="8.554282570042863" stroke="black" fill="none" stroke-width="1" filter="url(#fuzzy)"></circle><circle r="1.0871576854287477" cx="-7.090220496447481" cy="7.370575158973821" stroke="black" fill="none" stroke-width="1" filter="url(#fuzzy)"></circle><circle r="1.874102545727355" cx="-8.012478019052224" cy="5.953993603218365" stroke="black" fill="none" stroke-width="1" filter="url(#fuzzy)"></circle><circle r="2.1345069024983205" cx="-9.005548034462695" cy="8.307694722604564" stroke="black" fill="none" stroke-width="1" filter="url(#fuzzy)"></circle><circle r="2.3609898398316638" cx="-8.789843700702868" cy="7.449808911208315" stroke="black" fill="none" stroke-width="1" filter="url(#fuzzy)"></circle><circle r="2.657968268048009" cx="-8.748542994407346" cy="7.996081777954071" stroke="black" fill="none" stroke-width="1" filter="url(#fuzzy)"></circle><!--]--></g></g><g id="mouth"><polyline points="32.01088810742904,55.63259573357258,31.81926356926993,56.090836522472614,31.676536054084238,55.850544577602726,31.40880258920591,56.9797219098824,31.095434815385893,57.356349437809335,31.16018488312244,57.03910231414349,30.998796295416312,57.637560328927684,30.148089776786968,58.49989440145903,30.217737245246468,58.67387874043691,29.911841212658352,58.79213723731962,29.96617040342902,58.772502502613186,28.762928762710914,59.94004821309214,28.906993787713297,59.637677904560775,28.502631623100093,59.88737813610636,28.788111340376812,59.77529159795075,28.43331686049924,60.075464755962486,27.766351541288827,60.36562449918175,25.748234086800693,61.422016842635024,26.427102434182345,61.17584938525368,25.01398887638383,61.86841357944866,25.346969415283173,61.750931522449726,24.49774412380464,62.04453218826873,23.2821694002437,62.439461717831186,22.40741992587028,62.64583209934518,23.31076181699019,62.43002867407614,20.429295372833277,63.11662653579333,21.322905415528115,62.96223448095552,20.52417863490682,63.153279147052835,19.154988816008853,63.34195336571545,17.896475641107084,63.599998857149444,18.8048687593643,63.47579841600875,16.52636025858217,63.74654605272015,16.794664496914034,63.706837022486795,16.77485425835255,63.76459551611309,13.913022576040035,63.939809013511336,14.25069816920698,63.97700504021999,11.73784783062351,64.05947702033232,11.426213659537886,64.04851071631998,9.839759833730056,64.03673017106894,10.794787421280168,64.06000884578663,8.840500690068694,64.01450428284896,8.550307324334014,63.993289409406714,8.801002332741565,64.01202262501907,4.572637845889918,63.73088870865844,5.100008107544658,63.783778213766425,3.63988089799518,63.62582832303442,3.5347547731043845,63.61038387379751,1.8254839443997883,63.39820092146708,2.086350608248491,63.42922699651306,-0.23090225915479268,63.0747564987214,-1.762515230675748,62.79526465121168,-1.706357196263927,62.807145059032244,-1.0087161563381724,62.93504850783141,-3.5539961453173783,62.41124438297851,-3.0613271681577148,62.528046839261535,-3.7703690226824698,62.3621290572327,-5.046602933403781,62.07708851755204,-5.954596071403156,61.83275684449824,-6.870523530420263,61.578342355313964,-8.79955525909331,61.0398449603497,-8.852966993421456,60.98654482009219,-11.438408244569564,60.108571415168754,-12.517489041417528,59.74289702843036,-13.001136593181373,59.52919524917267,-12.718585387573155,59.67781877774685,-14.059173152770022,59.098156845573484,-12.95507205597313,59.53883416609397,-15.654989639698496,58.41093455320221,-15.233368450735615,58.585559540837856,-17.50167742280264,57.477300741244576,-17.89535780238443,57.327897930771485,-18.480989170165874,56.98727153798654,-19.693986257510858,56.331121065435106,-20.229368165135114,55.93234309755481,-20.946220140230707,55.49554123928704,-21.026250136847004,55.442229219662295,-20.624893313041355,55.70325367397283,-21.667747644212124,54.97813843007647,-22.722640301821944,54.17803061381867,-22.40630199574984,54.48082744100384,-23.97413776830617,53.23547310711386,-23.4511432818193,53.63450105058449,-24.643562438735533,52.53388673902575,-24.67656280354235,52.466100323053375,-25.978975083777808,51.02470026409068,-25.34240843339249,51.83602649652225,-25.55670998506057,51.503911728075046,-26.694242046023888,49.96091856683882,-26.622842740784915,50.1741284845747,-26.60848944666322,50.12975454083808,-26.926005333093475,49.49661863053005,-27.528772606477055,48.73482196010256,-27.945731493493955,47.68808343692824,-27.679193717262528,48.136406922543486,-27.922315824276918,47.83497040638676,-28.092702663157873,47.14038842711621,-27.979601666490968,46.43070761606368,-28.057915123112107,45.71158186985133,-28.05636850615183,45.599418024143915,-28.148969929943526,45.316014060314025,-28.083697043580834,45.07381417016093,-28.177561028233967,44.71615872045526,-28.047786936820973,44.121549757901406,-27.68087892772603,43.59323632657954,-27.30444898282864,42.55145718271502,-27.31202896214016,42.969943527015424,-27.05379428424525,42.36897670705867,-26.892963371518437,42.230993687946146,-26.68109722671043,41.96545714711796,-26.432433335724852,41.572124966764086,-25.31628306682931,40.59905978181487,-25.19892277298099,40.44399460633397,-25.84325088825947,40.853039363676025,-25.247041056721482,40.427319310495534,-23.747260231920038,39.348684395832166,-24.561970613725514,39.93237785373148,-22.537438280684604,38.731961427797046,-23.179648964836503,39.187871833731634,-22.432645984770726,38.68891600002124,-21.402387030419217,38.26466101037153,-21.46480714124498,38.233110740929675,-19.777448327009807,37.641182656207775,-19.071684734875483,37.52216969520627,-20.223408310792852,37.89668808349638,-17.339180958316017,37.0924769530273,-16.72836296573474,36.91663813180013,-15.983027591587714,36.76883277541691,-15.824659060964734,36.69517127200183,-16.060577439160596,36.79208961374206,-14.00860841772846,36.42287697008826,-13.410911192394483,36.3307337724153,-14.317975435160477,36.51141063395808,-12.819917445732312,36.303070475848415,-12.649008695048012,36.28597377046519,-10.581554189026988,36.14609336084849,-10.709921166080797,36.13598443239964,-8.570218844715985,36.02903438895197,-9.42050638968217,36.037405266043834,-6.439848485322395,36.032373057465186,-5.1829883660007825,36.034969109453165,-4.858593313239419,36.04623135872819,-5.2809794138816155,36.04490351048933,-2.636722795822962,36.178549716549924,-2.21645214648526,36.22974887592865,-0.04938232737867709,36.42775189316065,-0.7275924157132749,36.357292025831114,1.8911319847702734,36.67447757054594,1.0834454670371194,36.55852107048479,3.011060489329344,36.83710966007091,4.197938855402734,37.033111936235784,4.996498162004578,37.177495879283995,6.17030072875237,37.40013388904636,6.108756707384068,37.39208595803043,6.556017697655614,37.479962313427336,8.126429044639593,37.8268993550432,8.667077067021282,37.96191512829491,11.145001262220607,38.62031486122772,11.942480286776165,38.82276980257036,12.899824846669,39.130788635338504,13.056718903307182,39.18318600861569,14.468599844149715,39.634355171681634,14.825519019322302,39.757735627305635,13.632817663648865,39.353667955981855,14.979256669908718,39.82700961259053,17.89859707630899,40.908642480709375,17.249823751448552,40.64624037411368,17.926389150906477,40.93469956287621,20.145813180963334,41.937499931707926,20.865097942708992,42.29901693732239,20.15110821138392,41.93887469131402,22.064208987664774,42.86857461831272,23.116921724264476,43.45680849684028,22.100506135257984,42.96042257218041,24.481201672531345,44.305070819490176,24.352279314432305,44.161092790131576,24.370296690595634,44.29717619926299,24.99024800672477,44.6852105103527,25.525522826871022,45.0496504528721,27.179505392396052,46.26412492099616,27.979297782360813,46.90307165432254,26.681418585517914,45.890769686204614,27.886884989790627,46.76823733676442,28.182568524353226,47.0803844703556,28.759037753432587,47.766747487197534,29.735033584042455,48.83950488306747,29.133287445553762,48.07506814767675,29.554348137466345,48.4533273729626,30.042619120722513,49.11264318950984,30.274634416260042,49.3258935343568,30.641090910564923,49.849829485513325,31.31194033439092,51.41760508765134,31.53867458764436,51.97502181982842,31.75191494879849,52.52536220815188,31.597641577294553,51.808259543785844,31.720530519390113,52.59190942089946,31.9341553230467,53.13028422626194,31.97619892747062,53.5660975652557,32.09251974690693,54.33311715966926,31.96999464717992,54.367857270687196,32.09684626941918,54.29584536828215" fill="rgb(215,127,140)" stroke="black" stroke-width="3" stroke-linejoin="round" filter="url(#fuzzy)"></polyline></g></svg>