<svg viewBox="-100 -100 200 200" xmlns="http://www.w3.org/2000/svg" width="400" height="400" id="face-svg"><defs><clipPath id="leftEyeClipPath"><polyline points="20.91636734549412,-2.681316644372431,20.848465087101243,-3.194529660635599,20.746177844397767,-3.6819094036798545,20.61095176921894,-4.144566396237487,20.444201434917307,-4.583572251243553,20.247310069206794,-4.999960405636466,20.0216297870068,-5.394726854158595,19.76848182328633,-5.768830883156859,19.489156765908078,-6.123195804383329,19.18491478847256,-6.458709688795821,18.856985883162196,-6.776226100358501,18.50657009358541,-7.076564829842477,18.134837747620768,-7.360512628626399,17.742929690261057,-7.628823942497055,17.3319575164574,-7.882221645449972,16.903003803963365,-8.121397773490013,16.40865258887657,-8.360247393177325,15.892164731209455,-8.5869457022297,15.354798637468496,-8.801912443322948,14.797832761055501,-9.005532751388586,14.222561522070798,-9.198159946471646,13.630291358727499,-9.380118205903214,13.022336909110496,-9.551705118283381,12.400017322013762,-9.713194121770472,11.764652695589666,-9.864836829172228,11.117560642543912,-10.006865242334769,10.460052980609712,-10.139493858325086,9.79343254703489,-10.262921669902816,9.118990135815514,-10.377334062777088,8.438001556409702,-10.482904612144186,7.751724812665233,-10.57979678100181,7.061397400694641,-10.668165522735716,6.368233724431361,-10.74815879047444,5.673422627600653,-10.819918955707964,4.978125040838846,-10.883584138666011,4.283471742694631,-10.93928945295178,3.5905612332459715,-10.987168166926871,2.9004577190663077,-11.027352784343178,2.214189208273691,-11.059976046717491,1.532745714396468,-11.085171859944616,0.8570775677891653,-11.103076147644739,0.18809383333222263,-11.113827633740826,-0.4733391668508071,-11.1175685567618,-1.1263992269249457,-11.114445318367313,-1.7703095283907189,-11.104609068589806,-2.4043398099126856,-11.088216230289689,-3.0278074371959587,-11.065428965319375,-3.6400783741770386,-11.036415584891934,-4.240568056795347,-11.001350906650154,-4.828742170611816,-10.960416560931748,-5.404117333540892,-10.9138012487265,-5.966261684962321,-10.861700953821105,-6.514795382479061,-10.804319111627452,-7.04939100758771,-10.741866737190163,-7.569773881527805,-10.674562514869104,-8.07572229257631,-10.602632852192658,-8.567067636053727,-10.526311900377543,-9.043694468308123,-10.445841544010893,-9.505540475943505,-10.361471362390441,-9.952596361558824,-10.273458565018483,-10.384905647264034,-10.182067903745478,-10.802564397239546,-10.087571564058978,-11.205720860605421,-9.990249038013703,-11.59457503586672,-9.8903869812985,-11.969378158201234,-9.78827905693597,-12.33043211085623,-9.684225768110513,-12.678490917721355,-9.577869879280643,-13.014088036276757,-9.468729615800928,-13.337242080948833,-9.356923872736221,-13.647984844224112,-9.242571511193585,-13.946361127047222,-9.125791024067832,-14.232428569218907,-9.006700201787057,-14.506257479794026,-8.885415798058178,-14.767930667479561,-8.762053195612463,-15.0175432710326,-8.636726071951077,-15.255202589658388,-8.509546065090616,-15.481027913408255,-8.380622439308631,-15.695150353577706,-8.250061750889179,-15.897712673104337,-8.117967513868352,-16.088869116965892,-7.984439865779812,-15.256254556551685,-4.311225121277746,-15.098548392845046,-4.003790177431669,-14.930144776706083,-3.689631407541058,-14.750993924834056,-3.3686766031162856,-14.561060785620775,-3.0408702992274668,-14.360324327303086,-2.7061754213865568,-14.148776826115423,-2.3645749324294565,-13.9264231544423,-2.0160734793981128,-13.69328006897085,-1.6606990404226192,-13.449375498843338,-1.298504571603301,-13.194747833809672,-0.9295696538928526,-12.92944521237995,-0.5540021399783948,-12.65352480997694,-0.1719398011636155,-12.36705212708862,0.21644802574916433,-12.070100277420728,0.6109587915768602,-11.761916806234346,1.011950634453565,-11.441657270630587,1.4199323095055592,-11.109275607366774,1.8348083637861725,-10.764743703171971,2.2563607082914308,-10.408051276715927,2.6842503934914026,-10.039205743512692,3.118019616451238,-9.658232069073907,3.5570939718384507,-9.26517261562698,4.00078495911328,-8.860086987713194,4.448292758198783,-8.443051881980967,4.8987092859274375,-8.014160946489344,5.3510215455609265,-7.573524654836811,5.804115281679809,-7.121270200430642,6.256778952739885,-6.65754141621184,6.707708033591863,-6.18249872515085,7.155509660261148,-5.696319126829106,7.598707629284395,-5.199196225421627,8.035747763899593,-4.691340304395677,8.465003659386369,-4.172978453240784,8.884782819853257,-3.644354751545028,9.293333198768654,-3.1057305157329314,9.68885015553214,-2.557384613779945,10.069483840382958,-1.9996138532187224,10.433347019942232,-1.4327334477522742,10.778523355685902,-0.8570775677891653,11.103076147644739,-0.2729999802158556,11.40505755562851,0.3191252172786774,11.68251831027078,0.9189027620109211,11.933517926191119,1.5259152869282415,12.156135429571556,2.139722270736668,12.34848061244383,2.759858872215869,12.508705825984219,3.3858346434062003,12.635018325112764,4.017132116352734,12.725693176693412,4.653205258091078,12.779086743632032,5.293477788559915,12.79365075716877,5.937341356125112,12.76794698966172,6.584153565400242,12.700662540158397,7.233235852048465,12.590625745051906,7.883871199250551,12.436822726118432,8.535301690523982,12.23841458823281,9.186725893577988,11.994755279058882,9.837296069889376,11.705410123011358,10.486115204684022,11.370175041785867,11.132233852008936,10.989096473754042,11.774646789579727,10.562492004520191,12.41228947808835,10.090971720936402,13.044034319656054,9.575460300872702,13.668686710116308,9.017219851039119,14.284980879812686,8.417873505156216,14.891575517596497,7.779429794770924,15.382381461971946,7.393639705377551,15.862371420809275,6.988372183340844,16.330484021784024,6.5646446834715535,16.785606993191166,6.123588793238906,17.22657603035264,5.6664537630868645,17.652173662024907,5.194610036750382,18.061128116806522,4.709552781571673,18.45211218954564,4.212905418816457,18.823742107747613,3.706423153990227,19.17457639798249,3.191996507154504,19.503114752292635,2.6716548432430907,19.80779689460019,2.1475699023783443,20.08700144711471,1.6220593301874198,20.339044796740634,1.0975902081185351,20.56217996148491,0.5767825837572369"></polyline></clipPath><clipPath id="rightEyeClipPath"><polyline points="-17.83084616300144,-0.9242142598149865,-17.8900735135197,-1.6817723074537767,-17.90246684706087,-2.3991833906884343,-17.8705007338025,-3.0781588438053724,-17.796570158741538,-3.720354684657943,-17.68299178352067,-4.32737256726561,-17.53200520825461,-4.90076073441319,-17.345774233356508,-5.442014970250052,-17.126388121364215,-5.952579552889352,-16.875862858766652,-6.433848207007236,-16.596142417830148,-6.887165056442068,-16.28910001842474,-7.3138255767936355,-15.95653938985056,-7.715077548022381,-15.60019603266411,-8.09212200704861,-15.221738480504643,-8.446114200351706,-14.822769561920476,-8.778164536569358,-14.307653091795922,-9.108863805757352,-13.772697028712926,-9.419919796267852,-13.219765732737448,-9.712108033971623,-12.650654975672255,-9.98616226581055,-12.067094130681626,-10.242776512808618,-11.470748248764792,-10.482607066137476,-10.8632200255516,-10.706274427211472,-10.246051661893784,-10.91436519278707,-9.6207266217254,-11.107433886041525,-8.988671290665819,-11.286004734605733,-8.351256538838781,-11.450573396526146,-7.709799191380975,-11.601608635130649,-7.06556341011359,-11.739553943773295,-6.419761989850308,-11.864829121432788,-5.773557572815214,-11.97783180013964,-5.128063784644083,-12.078938925206842,-4.484346295442503,-12.168508189239029,-3.8434238093743085,-12.246879420894942,-3.206268986253776,-12.314375929378162,-2.5738092986150622,-12.371305805630975,-1.9469278277323396,-12.417963181206257,-1.3264640020640917,-12.454629445792321,-0.7132142815950484,-12.481574424365554,-0.1079327915492021,-12.499057514945822,0.4886680910526069,-12.50732878792946,1.075917194517082,-12.506630047974813,1.6531840498113741,-12.497195859415164,2.2198784246310383,-12.479254536174016,2.77544989072957,-12.45302909715754,3.3193874210360406,-12.41873818809916,3.8512190130874124,-12.376596970831145,4.370511335302016,-12.326817980958081,4.876869392620771,-12.269611954907166,5.369936208042649,-12.205188627330184,5.849392516580936,-12.133757499832086,6.314956468166814,-12.055528582001052,6.76638333602682,-11.970713105714943,7.203465227060688,-11.879524213699035,7.626030790746135,-11.782177623309943,8.033944923097119,-11.67889226652062,8.427108462202067,-11.56989090708132,8.805457871868702,-11.455400735831443,9.168964909901877,-11.33565394513717,9.517636277541074,-11.210888283429712,9.85151324658401,-11.081347590819188,10.170671260722937,-10.947282316758901,10.475219507620157,-10.808950020735022,10.765300458249285,-10.6666158569565,11.041089370028788,-10.520553044020135,11.30279375027437,-10.371043320525692,11.551059348865012,-10.21764047419273,11.786354660146712,-10.05976199709938,12.008652616511297,-9.897493288127189,12.217936474788205,-9.730921571010832,12.414200281440676,-9.560135763771555,12.597449337761924,-9.385226348150606,12.767700665071336,-9.206285239042664,12.924983469910638,-9.023405653929276,13.06933960924009,-8.836681982312289,13.200824055634678,-8.64620965514729,13.319505362480266,-8.452085014277026,13.425466129169836,-8.254405181864852,13.518803466299607,-8.053267929828158,13.599629460865264,-7.848771549271795,13.147698692308092,-4.372713527140994,12.957204503388832,-4.013156354602356,12.757115603045824,-3.6463827959649837,12.547527617309855,-3.2723955688073634,12.328556180536848,-2.891219890966351,12.10033525062918,-2.5029047566895626,11.86301542425713,-2.10752421278778,11.616762252080216,-1.7051786347873374,11.361754553968622,-1.2959960030825268,11.098182734224528,-0.8801331790879772,10.826247096803542,-0.4577771813910747,10.546156160536068,-0.02914646190433956,10.258124974348684,0.4055078179821674,9.962373432485522,0.8459005112484554,9.659124589729672,1.2917112090922132,9.347190766917311,1.7435883621833668,9.025469701183853,2.2022495954347825,8.69430435940254,2.6673590580824413,8.354024252505805,3.138460170814989,8.004944592111393,3.6149782189973685,7.647365486002343,4.096223176155352,7.281571185040416,4.581392767249687,6.907829394092726,5.069575781268352,6.526390659551186,5.5597556426655945,6.137487846024495,6.050814251176297,5.741335714782325,6.54153609953438,5.338130616531419,7.030612678623667,4.928050311103213,7.516647179590079,4.511253926632746,7.998159502443427,4.0878820708084795,8.473591580677775,3.658057106772725,8.941313031438645,3.221883606252371,9.399627140765913,2.779448992499554,9.846777193440856,2.3308243856220274,10.280953156966008,1.876065662882799,10.700298729206443,1.4152147465488296,11.102918759221085,0.948301131868396,11.48688705081256,0.47534366775683257,11.850254558324378,-0.003647397229686433,12.191057984213833,-0.4886680910526078,12.507328787929461,-0.9797181039020764,12.797102615621368,-1.4767978708809082,13.058429160213398,-1.9799053390817885,13.289382461365344,-2.4890324064780156,13.488071654854165,-3.004161020048123,13.652652180902583,-3.525258920554678,13.78133746098373,-4.052275021397586,13.872411052630552,-4.585134408962224,13.924239291778312,-5.123732951882728,13.935284432169139,-5.667931506640721,13.904118291346952,-6.217549706919856,13.829436412771512,-6.772359324136444,13.710072753580102,-7.332077186566507,13.545014907525582,-7.896357644489585,13.333419872619269,-8.464784568769593,13.074630373007354,-9.03686287029308,12.768191744609405,-9.612009527685174,12.413869394047593,-10.189544110723547,12.011666840395213,-10.768678786870742,11.561844349273157,-11.348507798345146,11.064938168822861,-11.927996397150945,10.52178037708442,-12.505969225487389,9.933519350308428,-13.081098128957667,9.301640861730123,-13.651889389997725,8.627989820334529,-14.216670368945367,7.914792659141076,-14.621181978262396,7.46371605048798,-15.012750486797092,6.992190121599087,-15.389919662639274,6.50130303427647,-15.751145000426154,5.992256708725169,-16.094791371764586,5.4663702292365794,-16.419130675653292,4.92508324987188,-16.722339488905135,4.369959400145483,-17.002496716569347,3.8026896907084176,-17.257581242353773,3.2250959190317783,-17.48546957904714,2.639134075090137,-17.683933518941274,2.046897747044971,-17.850637784253365,1.4506215269280833,-17.983137677548193,0.8526844163250278,-18.0788767321604,0.2556132320585274,-18.135184362616712,-0.3379139881280988"></polyline></clipPath><filter id="fuzzy"><feTurbulence id="turbulence" baseFrequency="0.05" numOctaves="3" type="noise" result="noise"></feTurbulence><feDisplacementMap in="SourceGraphic" in2="noise" scale="2"></feDisplacementMap></filter><linearGradient id="rainbowGradient" x1="0%" y1="0%" x2="100%" y2="0%"><stop offset="0%" style="stop-color: rgb(145, 85, 61);  stop-opacity: 1"></stop><stop offset="50%" style="stop-color: rgb(220, 208, 186);  stop-opacity: 1"></stop><stop offset="100%" style="stop-color: rgb(167, 133, 106);  stop-opacity: 1"></stop></linearGradient></defs><title>That&#39;s an ugly face</title><desc>CREATED BY XUAN TANG, MORE INFO AT TXSTC55.GITHUB.IO</desc><rect x="-100" y="-100" width="100%" height="100%" opacity="1" fill="rgb(211, 211, 211)"></rect><polyline id="faceContour" points="53,0,54,0,54,4,54,5,54,7,54,8,54,8,54,11,54,12,54,12,54,15,54,15,54,16,54,19,53,22,53,23,53,22,53,25,53,27,53,28,53,29,52,31,52,32,52,33,52,35,51,38,52,37,51,39,51,40,51,40,51,42,50,45,50,44,49,47,49,47,49,48,48,51,48,50,47,54,47,53,47,55,46,57,45,59,45,59,45,59,44,61,43,63,43,62,42,64,41,66,41,66,41,67,40,69,39,70,38,70,38,71,37,71,37,72,35,74,36,74,34,75,34,76,33,77,34,76,33,77,31,79,31,79,30,79,30,79,28,81,27,82,26,82,26,83,26,83,25,83,24,84,22,85,22,85,20,86,20,86,20,86,18,87,18,86,16,88,15,88,13,88,13,88,12,89,12,89,10,89,10,89,8,89,7,90,6,90,6,89,5,90,4,90,3,89,2,89,1,89,0,90,-2,89,-2,89,-4,89,-3,89,-5,89,-6,88,-6,89,-8,88,-9,88,-10,88,-12,87,-10,87,-12,87,-14,86,-14,86,-14,86,-16,85,-16,85,-18,84,-19,84,-21,83,-20,84,-22,81,-23,81,-23,81,-24,81,-25,80,-26,79,-26,79,-27,78,-29,77,-29,76,-29,76,-31,75,-30,75,-32,74,-33,73,-33,72,-35,71,-35,71,-36,70,-36,69,-38,67,-37,67,-38,66,-39,65,-39,65,-39,65,-41,61,-41,62,-42,60,-42,60,-43,58,-44,57,-44,57,-44,55,-45,55,-45,53,-46,52,-46,51,-47,50,-48,47,-47,49,-49,44,-48,45,-49,44,-49,42,-50,40,-50,39,-50,38,-50,38,-51,37,-51,36,-52,33,-51,34,-52,32,-52,30,-52,28,-52,28,-53,27,-53,25,-53,25,-53,22,-53,21,-53,20,-54,17,-54,18,-54,16,-54,14,-54,14,-54,12,-54,11,-54,10,-54,9,-54,9,-54,4,-54,4,-54,3,-54,2,-54,-1,-53,-3,-53,-3,-53,-4,-53,-6,-53,-6,-53,-9,-53,-9,-53,-10,-52,-12,-52,-15,-52,-15,-52,-15,-51,-18,-51,-19,-51,-19,-51,-22,-50,-24,-50,-24,-50,-26,-50,-25,-49,-27,-49,-29,-48,-31,-48,-31,-47,-34,-47,-34,-47,-35,-47,-37,-46,-38,-47,-37,-45,-40,-44,-43,-45,-41,-43,-46,-44,-44,-43,-47,-42,-48,-42,-48,-42,-49,-41,-52,-40,-53,-41,-52,-40,-54,-38,-56,-39,-55,-38,-57,-37,-59,-37,-59,-36,-60,-36,-62,-35,-62,-35,-63,-34,-64,-33,-64,-33,-66,-33,-66,-32,-68,-31,-68,-30,-70,-29,-70,-28,-72,-29,-71,-27,-73,-27,-74,-26,-74,-25,-75,-25,-76,-24,-77,-24,-77,-23,-78,-21,-79,-21,-80,-20,-80,-19,-81,-19,-81,-19,-81,-18,-82,-17,-83,-16,-84,-16,-83,-16,-84,-14,-84,-13,-85,-14,-85,-11,-86,-11,-86,-10,-87,-10,-87,-9,-87,-9,-87,-8,-88,-6,-88,-6,-88,-6,-88,-5,-89,-4,-89,-3,-89,-1,-90,-1,-89,1,-90,2,-90,2,-90,2,-90,3,-90,3,-89,5,-90,5,-89,6,-89,7,-89,9,-89,8,-89,10,-89,10,-89,11,-88,12,-88,12,-88,13,-87,14,-87,14,-87,16,-86,16,-86,18,-85,16,-86,18,-85,19,-85,20,-84,20,-84,21,-83,22,-82,23,-81,23,-81,24,-80,25,-80,26,-78,26,-78,27,-78,27,-77,29,-75,29,-75,30,-74,30,-74,30,-74,31,-73,32,-72,33,-70,33,-70,34,-68,34,-68,34,-68,36,-65,36,-65,38,-62,37,-64,38,-61,39,-60,39,-59,39,-59,40,-57,41,-55,41,-55,42,-53,42,-53,43,-50,42,-52,44,-49,44,-48,44,-47,45,-46,45,-44,46,-42,46,-42,47,-39,47,-39,48,-37,48,-35,48,-34,48,-33,49,-33,50,-29,49,-30,50,-28,50,-25,51,-23,51,-23,51,-22,52,-19,52,-18,52,-18,52,-16,52,-14,52,-14,53,-11,53,-11,53,-11,53,-7,53,-6,53,-5,53,-4,54,0,53,0,54,0" fill="#ffc9a9" stroke="black" stroke-width="1.6666666666666665" stroke-linejoin="round" filter="url(#fuzzy)"></polyline><g transform="translate(23.42531435271366 -26.714640262001858)"><polyline id="rightCountour" points="-17.83084616300144,-0.9242142598149865,-17.8900735135197,-1.6817723074537767,-17.90246684706087,-2.3991833906884343,-17.8705007338025,-3.0781588438053724,-17.796570158741538,-3.720354684657943,-17.68299178352067,-4.32737256726561,-17.53200520825461,-4.90076073441319,-17.345774233356508,-5.442014970250052,-17.126388121364215,-5.952579552889352,-16.875862858766652,-6.433848207007236,-16.596142417830148,-6.887165056442068,-16.28910001842474,-7.3138255767936355,-15.95653938985056,-7.715077548022381,-15.60019603266411,-8.09212200704861,-15.221738480504643,-8.446114200351706,-14.822769561920476,-8.778164536569358,-14.307653091795922,-9.108863805757352,-13.772697028712926,-9.419919796267852,-13.219765732737448,-9.712108033971623,-12.650654975672255,-9.98616226581055,-12.067094130681626,-10.242776512808618,-11.470748248764792,-10.482607066137476,-10.8632200255516,-10.706274427211472,-10.246051661893784,-10.91436519278707,-9.6207266217254,-11.107433886041525,-8.988671290665819,-11.286004734605733,-8.351256538838781,-11.450573396526146,-7.709799191380975,-11.601608635130649,-7.06556341011359,-11.739553943773295,-6.419761989850308,-11.864829121432788,-5.773557572815214,-11.97783180013964,-5.128063784644083,-12.078938925206842,-4.484346295442503,-12.168508189239029,-3.8434238093743085,-12.246879420894942,-3.206268986253776,-12.314375929378162,-2.5738092986150622,-12.371305805630975,-1.9469278277323396,-12.417963181206257,-1.3264640020640917,-12.454629445792321,-0.7132142815950484,-12.481574424365554,-0.1079327915492021,-12.499057514945822,0.4886680910526069,-12.50732878792946,1.075917194517082,-12.506630047974813,1.6531840498113741,-12.497195859415164,2.2198784246310383,-12.479254536174016,2.77544989072957,-12.45302909715754,3.3193874210360406,-12.41873818809916,3.8512190130874124,-12.376596970831145,4.370511335302016,-12.326817980958081,4.876869392620771,-12.269611954907166,5.369936208042649,-12.205188627330184,5.849392516580936,-12.133757499832086,6.314956468166814,-12.055528582001052,6.76638333602682,-11.970713105714943,7.203465227060688,-11.879524213699035,7.626030790746135,-11.782177623309943,8.033944923097119,-11.67889226652062,8.427108462202067,-11.56989090708132,8.805457871868702,-11.455400735831443,9.168964909901877,-11.33565394513717,9.517636277541074,-11.210888283429712,9.85151324658401,-11.081347590819188,10.170671260722937,-10.947282316758901,10.475219507620157,-10.808950020735022,10.765300458249285,-10.6666158569565,11.041089370028788,-10.520553044020135,11.30279375027437,-10.371043320525692,11.551059348865012,-10.21764047419273,11.786354660146712,-10.05976199709938,12.008652616511297,-9.897493288127189,12.217936474788205,-9.730921571010832,12.414200281440676,-9.560135763771555,12.597449337761924,-9.385226348150606,12.767700665071336,-9.206285239042664,12.924983469910638,-9.023405653929276,13.06933960924009,-8.836681982312289,13.200824055634678,-8.64620965514729,13.319505362480266,-8.452085014277026,13.425466129169836,-8.254405181864852,13.518803466299607,-8.053267929828158,13.599629460865264,-7.848771549271795,13.147698692308092,-4.372713527140994,12.957204503388832,-4.013156354602356,12.757115603045824,-3.6463827959649837,12.547527617309855,-3.2723955688073634,12.328556180536848,-2.891219890966351,12.10033525062918,-2.5029047566895626,11.86301542425713,-2.10752421278778,11.616762252080216,-1.7051786347873374,11.361754553968622,-1.2959960030825268,11.098182734224528,-0.8801331790879772,10.826247096803542,-0.4577771813910747,10.546156160536068,-0.02914646190433956,10.258124974348684,0.4055078179821674,9.962373432485522,0.8459005112484554,9.659124589729672,1.2917112090922132,9.347190766917311,1.7435883621833668,9.025469701183853,2.2022495954347825,8.69430435940254,2.6673590580824413,8.354024252505805,3.138460170814989,8.004944592111393,3.6149782189973685,7.647365486002343,4.096223176155352,7.281571185040416,4.581392767249687,6.907829394092726,5.069575781268352,6.526390659551186,5.5597556426655945,6.137487846024495,6.050814251176297,5.741335714782325,6.54153609953438,5.338130616531419,7.030612678623667,4.928050311103213,7.516647179590079,4.511253926632746,7.998159502443427,4.0878820708084795,8.473591580677775,3.658057106772725,8.941313031438645,3.221883606252371,9.399627140765913,2.779448992499554,9.846777193440856,2.3308243856220274,10.280953156966008,1.876065662882799,10.700298729206443,1.4152147465488296,11.102918759221085,0.948301131868396,11.48688705081256,0.47534366775683257,11.850254558324378,-0.003647397229686433,12.191057984213833,-0.4886680910526078,12.507328787929461,-0.9797181039020764,12.797102615621368,-1.4767978708809082,13.058429160213398,-1.9799053390817885,13.289382461365344,-2.4890324064780156,13.488071654854165,-3.004161020048123,13.652652180902583,-3.525258920554678,13.78133746098373,-4.052275021397586,13.872411052630552,-4.585134408962224,13.924239291778312,-5.123732951882728,13.935284432169139,-5.667931506640721,13.904118291346952,-6.217549706919856,13.829436412771512,-6.772359324136444,13.710072753580102,-7.332077186566507,13.545014907525582,-7.896357644489585,13.333419872619269,-8.464784568769593,13.074630373007354,-9.03686287029308,12.768191744609405,-9.612009527685174,12.413869394047593,-10.189544110723547,12.011666840395213,-10.768678786870742,11.561844349273157,-11.348507798345146,11.064938168822861,-11.927996397150945,10.52178037708442,-12.505969225487389,9.933519350308428,-13.081098128957667,9.301640861730123,-13.651889389997725,8.627989820334529,-14.216670368945367,7.914792659141076,-14.621181978262396,7.46371605048798,-15.012750486797092,6.992190121599087,-15.389919662639274,6.50130303427647,-15.751145000426154,5.992256708725169,-16.094791371764586,5.4663702292365794,-16.419130675653292,4.92508324987188,-16.722339488905135,4.369959400145483,-17.002496716569347,3.8026896907084176,-17.257581242353773,3.2250959190317783,-17.48546957904714,2.639134075090137,-17.683933518941274,2.046897747044971,-17.850637784253365,1.4506215269280833,-17.983137677548193,0.8526844163250278,-18.0788767321604,0.2556132320585274,-18.135184362616712,-0.3379139881280988" fill="white" stroke="white" stroke-width="0" stroke-linejoin="round" filter="url(#fuzzy)"></polyline></g><g transform="translate(-27.58302408406243 -23.67896729929829)"><polyline id="leftCountour" points="20.91636734549412,-2.681316644372431,20.848465087101243,-3.194529660635599,20.746177844397767,-3.6819094036798545,20.61095176921894,-4.144566396237487,20.444201434917307,-4.583572251243553,20.247310069206794,-4.999960405636466,20.0216297870068,-5.394726854158595,19.76848182328633,-5.768830883156859,19.489156765908078,-6.123195804383329,19.18491478847256,-6.458709688795821,18.856985883162196,-6.776226100358501,18.50657009358541,-7.076564829842477,18.134837747620768,-7.360512628626399,17.742929690261057,-7.628823942497055,17.3319575164574,-7.882221645449972,16.903003803963365,-8.121397773490013,16.40865258887657,-8.360247393177325,15.892164731209455,-8.5869457022297,15.354798637468496,-8.801912443322948,14.797832761055501,-9.005532751388586,14.222561522070798,-9.198159946471646,13.630291358727499,-9.380118205903214,13.022336909110496,-9.551705118283381,12.400017322013762,-9.713194121770472,11.764652695589666,-9.864836829172228,11.117560642543912,-10.006865242334769,10.460052980609712,-10.139493858325086,9.79343254703489,-10.262921669902816,9.118990135815514,-10.377334062777088,8.438001556409702,-10.482904612144186,7.751724812665233,-10.57979678100181,7.061397400694641,-10.668165522735716,6.368233724431361,-10.74815879047444,5.673422627600653,-10.819918955707964,4.978125040838846,-10.883584138666011,4.283471742694631,-10.93928945295178,3.5905612332459715,-10.987168166926871,2.9004577190663077,-11.027352784343178,2.214189208273691,-11.059976046717491,1.532745714396468,-11.085171859944616,0.8570775677891653,-11.103076147644739,0.18809383333222263,-11.113827633740826,-0.4733391668508071,-11.1175685567618,-1.1263992269249457,-11.114445318367313,-1.7703095283907189,-11.104609068589806,-2.4043398099126856,-11.088216230289689,-3.0278074371959587,-11.065428965319375,-3.6400783741770386,-11.036415584891934,-4.240568056795347,-11.001350906650154,-4.828742170611816,-10.960416560931748,-5.404117333540892,-10.9138012487265,-5.966261684962321,-10.861700953821105,-6.514795382479061,-10.804319111627452,-7.04939100758771,-10.741866737190163,-7.569773881527805,-10.674562514869104,-8.07572229257631,-10.602632852192658,-8.567067636053727,-10.526311900377543,-9.043694468308123,-10.445841544010893,-9.505540475943505,-10.361471362390441,-9.952596361558824,-10.273458565018483,-10.384905647264034,-10.182067903745478,-10.802564397239546,-10.087571564058978,-11.205720860605421,-9.990249038013703,-11.59457503586672,-9.8903869812985,-11.969378158201234,-9.78827905693597,-12.33043211085623,-9.684225768110513,-12.678490917721355,-9.577869879280643,-13.014088036276757,-9.468729615800928,-13.337242080948833,-9.356923872736221,-13.647984844224112,-9.242571511193585,-13.946361127047222,-9.125791024067832,-14.232428569218907,-9.006700201787057,-14.506257479794026,-8.885415798058178,-14.767930667479561,-8.762053195612463,-15.0175432710326,-8.636726071951077,-15.255202589658388,-8.509546065090616,-15.481027913408255,-8.380622439308631,-15.695150353577706,-8.250061750889179,-15.897712673104337,-8.117967513868352,-16.088869116965892,-7.984439865779812,-15.256254556551685,-4.311225121277746,-15.098548392845046,-4.003790177431669,-14.930144776706083,-3.689631407541058,-14.750993924834056,-3.3686766031162856,-14.561060785620775,-3.0408702992274668,-14.360324327303086,-2.7061754213865568,-14.148776826115423,-2.3645749324294565,-13.9264231544423,-2.0160734793981128,-13.69328006897085,-1.6606990404226192,-13.449375498843338,-1.298504571603301,-13.194747833809672,-0.9295696538928526,-12.92944521237995,-0.5540021399783948,-12.65352480997694,-0.1719398011636155,-12.36705212708862,0.21644802574916433,-12.070100277420728,0.6109587915768602,-11.761916806234346,1.011950634453565,-11.441657270630587,1.4199323095055592,-11.109275607366774,1.8348083637861725,-10.764743703171971,2.2563607082914308,-10.408051276715927,2.6842503934914026,-10.039205743512692,3.118019616451238,-9.658232069073907,3.5570939718384507,-9.26517261562698,4.00078495911328,-8.860086987713194,4.448292758198783,-8.443051881980967,4.8987092859274375,-8.014160946489344,5.3510215455609265,-7.573524654836811,5.804115281679809,-7.121270200430642,6.256778952739885,-6.65754141621184,6.707708033591863,-6.18249872515085,7.155509660261148,-5.696319126829106,7.598707629284395,-5.199196225421627,8.035747763899593,-4.691340304395677,8.465003659386369,-4.172978453240784,8.884782819853257,-3.644354751545028,9.293333198768654,-3.1057305157329314,9.68885015553214,-2.557384613779945,10.069483840382958,-1.9996138532187224,10.433347019942232,-1.4327334477522742,10.778523355685902,-0.8570775677891653,11.103076147644739,-0.2729999802158556,11.40505755562851,0.3191252172786774,11.68251831027078,0.9189027620109211,11.933517926191119,1.5259152869282415,12.156135429571556,2.139722270736668,12.34848061244383,2.759858872215869,12.508705825984219,3.3858346434062003,12.635018325112764,4.017132116352734,12.725693176693412,4.653205258091078,12.779086743632032,5.293477788559915,12.79365075716877,5.937341356125112,12.76794698966172,6.584153565400242,12.700662540158397,7.233235852048465,12.590625745051906,7.883871199250551,12.436822726118432,8.535301690523982,12.23841458823281,9.186725893577988,11.994755279058882,9.837296069889376,11.705410123011358,10.486115204684022,11.370175041785867,11.132233852008936,10.989096473754042,11.774646789579727,10.562492004520191,12.41228947808835,10.090971720936402,13.044034319656054,9.575460300872702,13.668686710116308,9.017219851039119,14.284980879812686,8.417873505156216,14.891575517596497,7.779429794770924,15.382381461971946,7.393639705377551,15.862371420809275,6.988372183340844,16.330484021784024,6.5646446834715535,16.785606993191166,6.123588793238906,17.22657603035264,5.6664537630868645,17.652173662024907,5.194610036750382,18.061128116806522,4.709552781571673,18.45211218954564,4.212905418816457,18.823742107747613,3.706423153990227,19.17457639798249,3.191996507154504,19.503114752292635,2.6716548432430907,19.80779689460019,2.1475699023783443,20.08700144711471,1.6220593301874198,20.339044796740634,1.0975902081185351,20.56217996148491,0.5767825837572369" fill="white" stroke="white" stroke-width="0" stroke-linejoin="round" filter="url(#fuzzy)"></polyline></g><g transform="translate(23.42531435271366 -26.714640262001858)"><polyline id="rightUpper" points="-14.05886670456207,9.277401155108281,-14.740946530179091,8.01139935395412,-15.34679185031662,6.80590983571617,-15.879742487406642,5.658615708820161,-16.343046060437203,4.567264924117071,-16.739859246778742,3.529669322283926,-17.07324904401041,2.5437036812245744,-17.34619403174642,1.6073047634704825,-17.56158563346237,0.718470363581508,-17.722229378321586,-0.12474164445331226,-17.83084616300144,-0.9242142598149865,-17.8900735135197,-1.6817723074537767,-17.90246684706087,-2.3991833906884343,-17.8705007338025,-3.0781588438053724,-17.796570158741538,-3.720354684657943,-17.68299178352067,-4.32737256726561,-17.53200520825461,-4.90076073441319,-17.345774233356508,-5.442014970250052,-17.126388121364215,-5.952579552889352,-16.875862858766652,-6.433848207007236,-16.596142417830148,-6.887165056442068,-16.28910001842474,-7.3138255767936355,-15.95653938985056,-7.715077548022381,-15.60019603266411,-8.09212200704861,-15.221738480504643,-8.446114200351706,-14.822769561920476,-8.778164536569358,-14.307653091795922,-9.108863805757352,-13.772697028712926,-9.419919796267852,-13.219765732737448,-9.712108033971623,-12.650654975672255,-9.98616226581055,-12.067094130681626,-10.242776512808618,-11.470748248764792,-10.482607066137476,-10.8632200255516,-10.706274427211472,-10.246051661893784,-10.91436519278707,-9.6207266217254,-11.107433886041525,-8.988671290665819,-11.286004734605733,-8.351256538838781,-11.450573396526146,-7.709799191380975,-11.601608635130649,-7.06556341011359,-11.739553943773295,-6.419761989850308,-11.864829121432788,-5.773557572815214,-11.97783180013964,-5.128063784644083,-12.078938925206842,-4.484346295442503,-12.168508189239029,-3.8434238093743085,-12.246879420894942,-3.206268986253776,-12.314375929378162,-2.5738092986150622,-12.371305805630975,-1.9469278277323396,-12.417963181206257,-1.3264640020640917,-12.454629445792321,-0.7132142815950484,-12.481574424365554,-0.1079327915492021,-12.499057514945822,0.4886680910526069,-12.50732878792946,1.075917194517082,-12.506630047974813,1.6531840498113741,-12.497195859415164,2.2198784246310383,-12.479254536174016,2.77544989072957,-12.45302909715754,3.3193874210360406,-12.41873818809916,3.8512190130874124,-12.376596970831145,4.370511335302016,-12.326817980958081,4.876869392620771,-12.269611954907166,5.369936208042649,-12.205188627330184,5.849392516580936,-12.133757499832086,6.314956468166814,-12.055528582001052,6.76638333602682,-11.970713105714943,7.203465227060688,-11.879524213699035,7.626030790746135,-11.782177623309943,8.033944923097119,-11.67889226652062,8.427108462202067,-11.56989090708132,8.805457871868702,-11.455400735831443,9.168964909901877,-11.33565394513717,9.517636277541074,-11.210888283429712,9.85151324658401,-11.081347590819188,10.170671260722937,-10.947282316758901,10.475219507620157,-10.808950020735022,10.765300458249285,-10.6666158569565,11.041089370028788,-10.520553044020135,11.30279375027437,-10.371043320525692,11.551059348865012,-10.21764047419273,11.786354660146712,-10.05976199709938,12.008652616511297,-9.897493288127189,12.217936474788205,-9.730921571010832,12.414200281440676,-9.560135763771555,12.597449337761924,-9.385226348150606,12.767700665071336,-9.206285239042664,12.924983469910638,-9.023405653929276,13.06933960924009,-8.836681982312289,13.200824055634678,-8.64620965514729,13.319505362480266,-8.452085014277026,13.425466129169836,-8.254405181864852,13.518803466299607,-8.053267929828158,13.599629460865264,-7.848771549271795,13.668071641458132,-7.641014719921525,13.724273443461348,-7.430096379557443,13.768394674246048,-7.216115593447408,13.800611978367579,-6.999171423780487,13.821119302761636,-6.779362799100383,13.830128361940469,-6.556788383738864,13.8278691031891,-6.3315464472492025,13.814590171761429,-6.103734733839612,13.790559376076496,-5.873450331806671,13.756064152914627,-5.640789542968763" fill="none" stroke="black" stroke-width="1.6666666666666665" stroke-linejoin="round" filter="url(#fuzzy)"></polyline><polyline id="rightLower" points="-15.855704732170826,-5.374158725633793,-16.367379630136544,-4.999066888306484,-16.80612380767299,-4.584584308480414,-17.175878265108956,-4.1350885456930975,-17.480446388187794,-3.654771881727225,-17.723496297645166,-3.147644726294092,-17.908563198786794,-2.617539022717013,-18.039051731066223,-2.0681116536147526,-18.118238317662552,-1.5028478465849453,-18.149273515058212,-0.925064579887513,-18.135184362616712,-0.3379139881280988,-18.0788767321604,0.2556132320585274,-17.983137677548193,0.8526844163250278,-17.850637784253365,1.4506215269280833,-17.683933518941274,2.046897747044971,-17.48546957904714,2.639134075090137,-17.257581242353773,3.2250959190317783,-17.002496716569347,3.8026896907084176,-16.722339488905135,4.369959400145483,-16.419130675653292,4.92508324987188,-16.094791371764586,5.4663702292365794,-15.751145000426154,5.992256708725169,-15.389919662639274,6.50130303427647,-15.012750486797092,6.992190121599087,-14.621181978262396,7.46371605048798,-14.216670368945367,7.914792659141076,-13.651889389997725,8.627989820334529,-13.081098128957667,9.301640861730123,-12.505969225487389,9.933519350308428,-11.927996397150945,10.52178037708442,-11.348507798345146,11.064938168822861,-10.768678786870742,11.561844349273157,-10.189544110723547,12.011666840395213,-9.612009527685174,12.413869394047593,-9.03686287029308,12.768191744609405,-8.464784568769593,13.074630373007354,-7.896357644489585,13.333419872619269,-7.332077186566507,13.545014907525582,-6.772359324136444,13.710072753580102,-6.217549706919856,13.829436412771512,-5.667931506640721,13.904118291346952,-5.123732951882728,13.935284432169139,-4.585134408962224,13.924239291778312,-4.052275021397586,13.872411052630552,-3.525258920554678,13.78133746098373,-3.004161020048123,13.652652180902583,-2.4890324064780156,13.488071654854165,-1.9799053390817885,13.289382461365344,-1.4767978708809082,13.058429160213398,-0.9797181039020764,12.797102615621368,-0.4886680910526078,12.507328787929461,-0.003647397229686433,12.191057984213833,0.47534366775683257,11.850254558324378,0.948301131868396,11.48688705081256,1.4152147465488296,11.102918759221085,1.876065662882799,10.700298729206443,2.3308243856220274,10.280953156966008,2.779448992499554,9.846777193440856,3.221883606252371,9.399627140765913,3.658057106772725,8.941313031438645,4.0878820708084795,8.473591580677775,4.511253926632746,7.998159502443427,4.928050311103213,7.516647179590079,5.338130616531419,7.030612678623667,5.741335714782325,6.54153609953438,6.137487846024495,6.050814251176297,6.526390659551186,5.5597556426655945,6.907829394092726,5.069575781268352,7.281571185040416,4.581392767249687,7.647365486002343,4.096223176155352,8.004944592111393,3.6149782189973685,8.354024252505805,3.138460170814989,8.69430435940254,2.6673590580824413,9.025469701183853,2.2022495954347825,9.347190766917311,1.7435883621833668,9.659124589729672,1.2917112090922132,9.962373432485522,0.8459005112484554,10.258124974348684,0.4055078179821674,10.546156160536068,-0.02914646190433956,10.826247096803542,-0.4577771813910747,11.098182734224528,-0.8801331790879772,11.361754553968622,-1.2959960030825268,11.616762252080216,-1.7051786347873374,11.86301542425713,-2.10752421278778,12.10033525062918,-2.5029047566895626,12.328556180536848,-2.891219890966351,12.547527617309855,-3.2723955688073634,12.757115603045824,-3.6463827959649837,12.957204503388832,-4.013156354602356,13.147698692308092,-4.372713527140994,13.32852423687652,-4.72507282010839,13.499630582049386,-5.0702726879856055,13.6609922354429,-5.408370257054887,13.812610452112851,-5.739440049247266,13.954514919333212,-6.063572705990157,14.086765441374764,-6.380873712054981,14.209453624283695,-6.691462119404744,14.322704560660233,-6.995469271041659,14.426678514437258,-7.29303752485474,14.52157260565892,-7.584318977467413" fill="none" stroke="black" stroke-width="2.2222222222222223" stroke-linejoin="round" filter="url(#fuzzy)"></polyline><!--[--><circle r="3.431542194785306" cx="4.728198018090414" cy="-2.6687978645637798" stroke="black" fill="none" stroke-width="1" filter="url(#fuzzy)" clip-path="url(#rightEyeClipPath)"></circle><circle r="4.866433493657724" cx="4.474091793793382" cy="-4.27183503598554" stroke="black" fill="none" stroke-width="1" filter="url(#fuzzy)" clip-path="url(#rightEyeClipPath)"></circle><circle r="4.406453173074267" cx="1.8395949238315188" cy="-4.434243187085485" stroke="black" fill="none" stroke-width="1" filter="url(#fuzzy)" clip-path="url(#rightEyeClipPath)"></circle><circle r="3.360010188860005" cx="1.830051948345952" cy="-2.373408571474671" stroke="black" fill="none" stroke-width="1" filter="url(#fuzzy)" clip-path="url(#rightEyeClipPath)"></circle><circle r="3.1493267227812405" cx="5.168330078532587" cy="-4.257743182567094" stroke="black" fill="none" stroke-width="1" filter="url(#fuzzy)" clip-path="url(#rightEyeClipPath)"></circle><circle r="3.822682520739348" cx="4.550363665848447" cy="-2.118218949316449" stroke="black" fill="none" stroke-width="1" filter="url(#fuzzy)" clip-path="url(#rightEyeClipPath)"></circle><circle r="4.12836350860054" cx="1.4826416537054894" cy="-4.788627257422566" stroke="black" fill="none" stroke-width="1" filter="url(#fuzzy)" clip-path="url(#rightEyeClipPath)"></circle><circle r="3.5836222822998645" cx="3.600927138234276" cy="-5.350741441277428" stroke="black" fill="none" stroke-width="1" filter="url(#fuzzy)" clip-path="url(#rightEyeClipPath)"></circle><circle r="4.561354621616141" cx="3.5788879994065494" cy="-3.7476584132677226" stroke="black" fill="none" stroke-width="1" filter="url(#fuzzy)" clip-path="url(#rightEyeClipPath)"></circle><circle r="4.388032490525749" cx="4.785386992426836" cy="-2.6037016021896835" stroke="black" fill="none" stroke-width="1" filter="url(#fuzzy)" clip-path="url(#rightEyeClipPath)"></circle><!--]--></g><g transform="translate(-27.58302408406243 -23.67896729929829)"><polyline id="leftUpper" points="19.363017619533853,4.145248120229199,19.72561730492155,3.30353879868007,20.03758244539288,2.5010694526526,20.300687784036175,1.736300102409202,20.516674157015974,1.0077370160155086,20.687248726417153,0.31393197553977714,20.814085213089015,-0.3465184567477202,20.898824129489384,-0.974973672175274,20.94307301252874,-1.5727497494703568,20.948406656414292,-2.1411201885602065,20.91636734549412,-2.681316644372431,20.848465087101243,-3.194529660635599,20.746177844397767,-3.6819094036798545,20.61095176921894,-4.144566396237487,20.444201434917307,-4.583572251243553,20.247310069206794,-4.999960405636466,20.0216297870068,-5.394726854158595,19.76848182328633,-5.768830883156859,19.489156765908078,-6.123195804383329,19.18491478847256,-6.458709688795821,18.856985883162196,-6.776226100358501,18.50657009358541,-7.076564829842477,18.134837747620768,-7.360512628626399,17.742929690261057,-7.628823942497055,17.3319575164574,-7.882221645449972,16.903003803963365,-8.121397773490013,16.40865258887657,-8.360247393177325,15.892164731209455,-8.5869457022297,15.354798637468496,-8.801912443322948,14.797832761055501,-9.005532751388586,14.222561522070798,-9.198159946471646,13.630291358727499,-9.380118205903214,13.022336909110496,-9.551705118283381,12.400017322013762,-9.713194121770472,11.764652695589666,-9.864836829172228,11.117560642543912,-10.006865242334769,10.460052980609712,-10.139493858325086,9.79343254703489,-10.262921669902816,9.118990135815514,-10.377334062777088,8.438001556409702,-10.482904612144186,7.751724812665233,-10.57979678100181,7.061397400694641,-10.668165522735716,6.368233724431361,-10.74815879047444,5.673422627600653,-10.819918955707964,4.978125040838846,-10.883584138666011,4.283471742694631,-10.93928945295178,3.5905612332459715,-10.987168166926871,2.9004577190663077,-11.027352784343178,2.214189208273691,-11.059976046717491,1.532745714396468,-11.085171859944616,0.8570775677891653,-11.103076147644739,0.18809383333222263,-11.113827633740826,-0.4733391668508071,-11.1175685567618,-1.1263992269249457,-11.114445318367313,-1.7703095283907189,-11.104609068589806,-2.4043398099126856,-11.088216230289689,-3.0278074371959587,-11.065428965319375,-3.6400783741770386,-11.036415584891934,-4.240568056795347,-11.001350906650154,-4.828742170611816,-10.960416560931748,-5.404117333540892,-10.9138012487265,-5.966261684962321,-10.861700953821105,-6.514795382479061,-10.804319111627452,-7.04939100758771,-10.741866737190163,-7.569773881527805,-10.674562514869104,-8.07572229257631,-10.602632852192658,-8.567067636053727,-10.526311900377543,-9.043694468308123,-10.445841544010893,-9.505540475943505,-10.361471362390441,-9.952596361558824,-10.273458565018483,-10.384905647264034,-10.182067903745478,-10.802564397239546,-10.087571564058978,-11.205720860605421,-9.990249038013703,-11.59457503586672,-9.8903869812985,-11.969378158201234,-9.78827905693597,-12.33043211085623,-9.684225768110513,-12.678490917721355,-9.577869879280643,-13.014088036276757,-9.468729615800928,-13.337242080948833,-9.356923872736221,-13.647984844224112,-9.242571511193585,-13.946361127047222,-9.125791024067832,-14.232428569218907,-9.006700201787057,-14.506257479794026,-8.885415798058178,-14.767930667479561,-8.762053195612463,-15.0175432710326,-8.636726071951077,-15.255202589658388,-8.509546065090616,-15.481027913408255,-8.380622439308631,-15.695150353577706,-8.250061750889179,-15.897712673104337,-8.117967513868352,-16.088869116965892,-7.984439865779812,-16.26878524257827,-7.849575233400329,-16.4376377501935,-7.713465998495319,-16.595614313297734,-7.576200163564373,-16.7429134090093,-7.437861017586801,-16.879744148476657,-7.2985268017671645,-17.00632610727642,-7.158270375280809,-17.12288915581136,-7.017158881019407,-17.2296732897084,-6.8752534113364865,-17.32692846021661,-6.732608673792973,-17.414914404605256,-6.589272656902725" fill="none" stroke="black" stroke-width="2.2222222222222223" stroke-linejoin="round" filter="url(#fuzzy)"></polyline><polyline id="leftLower" points="20.7716671881452,-3.737062335785302,20.948449557893902,-3.4331490320401388,21.07511924312726,-3.0901839476024335,21.154119262398385,-2.7125109588251544,21.187817929438328,-2.304285672761374,21.17850998674858,-1.8694789574805064,21.128417739193516,-1.411880472384584,21.039692187592806,-0.9351021985245014,20.914414162313907,-0.44258196891629,20.754595456864486,0.06241300114264181,20.56217996148491,0.5767825837572369,20.339044796740634,1.0975902081185351,20.08700144711471,1.6220593301874198,19.80779689460019,2.1475699023783443,19.503114752292635,2.6716548432430907,19.17457639798249,3.191996507154504,18.823742107747613,3.706423153990227,18.45211218954564,4.212905418816457,18.061128116806522,4.709552781571673,17.652173662024907,5.194610036750382,17.22657603035264,5.6664537630868645,16.785606993191166,6.123588793238906,16.330484021784024,6.5646446834715535,15.862371420809275,6.988372183340844,15.382381461971946,7.393639705377551,14.891575517596497,7.779429794770924,14.284980879812686,8.417873505156216,13.668686710116308,9.017219851039119,13.044034319656054,9.575460300872702,12.41228947808835,10.090971720936402,11.774646789579727,10.562492004520191,11.132233852008936,10.989096473754042,10.486115204684022,11.370175041785867,9.837296069889376,11.705410123011358,9.186725893577988,11.994755279058882,8.535301690523982,12.23841458823281,7.883871199250551,12.436822726118432,7.233235852048465,12.590625745051906,6.584153565400242,12.700662540158397,5.937341356125112,12.76794698966172,5.293477788559915,12.79365075716877,4.653205258091078,12.779086743632032,4.017132116352734,12.725693176693412,3.3858346434062003,12.635018325112764,2.759858872215869,12.508705825984219,2.139722270736668,12.34848061244383,1.5259152869282415,12.156135429571556,0.9189027620109211,11.933517926191119,0.3191252172786774,11.68251831027078,-0.2729999802158556,11.40505755562851,-0.8570775677891653,11.103076147644739,-1.4327334477522742,10.778523355685902,-1.9996138532187224,10.433347019942232,-2.557384613779945,10.069483840382958,-3.1057305157329314,9.68885015553214,-3.644354751545028,9.293333198768654,-4.172978453240784,8.884782819853257,-4.691340304395677,8.465003659386369,-5.199196225421627,8.035747763899593,-5.696319126829106,7.598707629284395,-6.18249872515085,7.155509660261148,-6.65754141621184,6.707708033591863,-7.121270200430642,6.256778952739885,-7.573524654836811,5.804115281679809,-8.014160946489344,5.3510215455609265,-8.443051881980967,4.8987092859274375,-8.860086987713194,4.448292758198783,-9.26517261562698,4.00078495911328,-9.658232069073907,3.5570939718384507,-10.039205743512692,3.118019616451238,-10.408051276715927,2.6842503934914026,-10.764743703171971,2.2563607082914308,-11.109275607366774,1.8348083637861725,-11.441657270630587,1.4199323095055592,-11.761916806234346,1.011950634453565,-12.070100277420728,0.6109587915768602,-12.36705212708862,0.21644802574916433,-12.65352480997694,-0.1719398011636155,-12.92944521237995,-0.5540021399783948,-13.194747833809672,-0.9295696538928526,-13.449375498843338,-1.298504571603301,-13.69328006897085,-1.6606990404226192,-13.9264231544423,-2.0160734793981128,-14.148776826115423,-2.3645749324294565,-14.360324327303086,-2.7061754213865568,-14.561060785620775,-3.0408702992274668,-14.750993924834056,-3.3686766031162856,-14.930144776706083,-3.689631407541058,-15.098548392845046,-4.003790177431669,-15.256254556551685,-4.311225121277746,-15.403328494666738,-4.612023544246561,-15.53985158941845,-4.906286201300921,-15.665922090270033,-5.19412565031708,-15.781655825767164,-5.475664605202622,-15.887186915385424,-5.751034289014377,-15.98266848137786,-6.020372787076311,-16.068273360622374,-6.2838234000974245,-16.144194816469252,-6.541532997289655,-16.210647250588643,-6.793650369485774,-16.267866914818036,-7.04032458225729" fill="none" stroke="black" stroke-width="2.2222222222222223" stroke-linejoin="round" filter="url(#fuzzy)"></polyline><!--[--><circle r="4.37627761077146" cx="22.89210044451718" cy="-1.2125799495652942" stroke="black" fill="none" stroke-width="1" filter="url(#fuzzy)" clip-path="url(#leftEyeClipPath)"></circle><circle r="3.0826776301452288" cx="22.149622036627136" cy="0.8801170985134381" stroke="black" fill="none" stroke-width="1" filter="url(#fuzzy)" clip-path="url(#leftEyeClipPath)"></circle><circle r="3.3313442053761384" cx="21.451942987668424" cy="-1.6331134099834965" stroke="black" fill="none" stroke-width="1" filter="url(#fuzzy)" clip-path="url(#leftEyeClipPath)"></circle><circle r="3.4131329961411394" cx="22.661781978959475" cy="-2.40245060400547" stroke="black" fill="none" stroke-width="1" filter="url(#fuzzy)" clip-path="url(#leftEyeClipPath)"></circle><circle r="4.395078126773236" cx="20.992811943158415" cy="-3.3917099132306" stroke="black" fill="none" stroke-width="1" filter="url(#fuzzy)" clip-path="url(#leftEyeClipPath)"></circle><circle r="4.264452875033841" cx="19.419960720961722" cy="0.7873415797015348" stroke="black" fill="none" stroke-width="1" filter="url(#fuzzy)" clip-path="url(#leftEyeClipPath)"></circle><circle r="3.538379209655226" cx="22.521325095094795" cy="0.022553460615723164" stroke="black" fill="none" stroke-width="1" filter="url(#fuzzy)" clip-path="url(#leftEyeClipPath)"></circle><circle r="4.638707345735347" cx="19.075639379299744" cy="-0.9968765031206654" stroke="black" fill="none" stroke-width="1" filter="url(#fuzzy)" clip-path="url(#leftEyeClipPath)"></circle><circle r="4.936763881871132" cx="21.769206246921232" cy="-0.3918878491400606" stroke="black" fill="none" stroke-width="1" filter="url(#fuzzy)" clip-path="url(#leftEyeClipPath)"></circle><circle r="3.1931869990182005" cx="21.24849418134136" cy="-3.509087033773869" stroke="black" fill="none" stroke-width="1" filter="url(#fuzzy)" clip-path="url(#leftEyeClipPath)"></circle><!--]--></g><g id="hairs"><!--[--><polyline points="-16,-83,-15.44670621668729,-83.69280493840877,-14.55881902264865,-84.19349776842155,-13.750170729911833,-84.64944353489228,-13.032186727801761,-85.06707585228635,-12.405104959886557,-85.42148900812799,-11.908893011108049,-85.68104628708247,-11.57599537507027,-85.82253318628173,-11.408821442115189,-85.83889939427496,-11.394119729339423,-85.7343745629319,-11.529253959655762,-85.5113296508789,-11.838129108817835,-85.16025005597658,-12.366698376919308,-84.66118714229086,-13.160147755304312,-83.99453472630785,-14.235933628487825,-83.14972850175789,-15.57477446010762,-82.1210488490683,-17.14546185387276,-80.89226525531086,-18.955156601050916,-79.42919740509147,-21.09185659922256,-77.70737255204969,-23.725287899770134,-75.79271570949932" fill="none" stroke="rgb(165, 42, 42)" stroke-width="2" stroke-linejoin="round" filter="url(#fuzzy)"></polyline><polyline points="-19,-81,-17.997585905911762,-81.93630002395888,-17.003794126151227,-82.69137951697377,-16.059377883598415,-83.21922153052988,-15.088369679645785,-83.62757050456213,-14.022746722000708,-84.02345240592223,-12.851699005777006,-84.4571303235675,-11.602611646310692,-84.93290820320054,-10.315323855549822,-85.43249770902855,-9.030347594867571,-85.93063551777435,-7.783523581187893,-86.40329967603267,-6.600591863463031,-86.8332284115645,-5.493858307600021,-87.21407771110535,-4.464891119426783,-87.55124642825734,-3.5126423951119334,-87.85792693753045,-2.641724046830262,-88.14833096412664,-1.864445489351612,-88.4324089017199,-1.1933602477133909,-88.71470412142935,-0.6281445494894458,-88.99527210324484,-0.1491812231325984,-89.26777092787533,0.26638917196000444,-89.51333521554787,0.598742920584033,-89.69567898425059,0.7189214091140599,-89.75898674784051,0.32951218852529285,-89.603564372608" fill="none" stroke="rgb(165, 42, 42)" stroke-width="2" stroke-linejoin="round" filter="url(#fuzzy)"></polyline><polyline points="2,-90,2.343827889238076,-89.89761999786224,3.095309055256151,-89.60921387163019,4.098932954565086,-89.24198903075245,5.271308613188324,-88.83516367236827,6.5589651556043345,-88.39563636382135,7.925467580261959,-87.93181175640254,9.33166105812486,-87.45312495442073,10.734269016150005,-86.96432551041302,12.097509698972319,-86.46496828080541,13.400845793564523,-85.95273778873087,14.636000629073251,-85.42828136714243,15.797784532347094,-84.90000485771684,16.876428098388192,-84.3864168107961,17.856043308661754,-83.91324704098842,18.719108525441875,-83.50552389072308,19.45234018995486,-83.18057742760755,20.04534988953308,-82.95177567236934,20.473596695344266,-82.84797616689237,20.671519369492337,-82.93575880280466,20.537083504618174,-83.30578124760304" fill="none" stroke="rgb(165, 42, 42)" stroke-width="2" stroke-linejoin="round" filter="url(#fuzzy)"></polyline><polyline points="-20,-80,-19.2200555146144,-80.65175922718579,-18.42163667239826,-81.07849188762708,-17.31362393306693,-81.5775467291214,-15.859325939265545,-82.19237336673541,-14.151763546125249,-82.84728810291134,-12.28899717730815,-83.46951271388566,-10.31748347777992,-84.0429393443403,-8.244422912597656,-84.59761810302734,-6.077336905531408,-85.17177715876566,-3.8470481709076116,-85.78334344144497,-1.602455669682298,-86.42610052212666,0.6020017426344566,-87.08051448973129,2.7080811909675213,-87.71738542251066,4.668129743179952,-88.28587814748465,6.555380197885912,-88.71674387071123" fill="none" stroke="rgb(165, 42, 42)" stroke-width="2" stroke-linejoin="round" filter="url(#fuzzy)"></polyline><polyline points="-8,-88,-6.655331340409759,-87.97772131067605,-5.787924110208508,-87.98251848241091,-4.845311130705913,-88.0392367473569,-3.6486367723697954,-88.09269279045202,-2.197557958670003,-88.08971699643648,-0.5615888443391093,-88.00928326697769,1.1714090720082702,-87.85659999318119,2.9189943483700644,-87.64725670548182,4.617035371641437,-87.3935479200442,6.228399049032729,-87.0991864977363,7.745942115783691,-86.76366519927979,9.185905267642191,-86.39116831395002,10.572614756822052,-85.99608929758769,11.921906380309045,-85.6011822546066,13.231613110538753,-85.23191160684219,14.481431664891772,-84.91406311226937,15.637816190909685,-84.67601695963556,16.66032506675709,-84.54622995615243,17.514529306075413,-84.53430871062695,18.197905408513908,-84.6058811350304,18.742497110665944,-84.71100826302877" fill="none" stroke="rgb(165, 42, 42)" stroke-width="2" stroke-linejoin="round" filter="url(#fuzzy)"></polyline><polyline points="-14,-85,-11.880995618538154,-85.56357726294738,-10.339886641628052,-85.67408442090452,-8.784083275582978,-85.45634506618877,-7.002441361127536,-84.94954195486262,-4.914125985035775,-84.21319635482945,-2.501393293435882,-83.30369860383888,0.20622648371303054,-82.25220795468844,3.1524795939722194,-81.06950533787742,6.2866692420285455,-79.76345928790657,9.586069458951235,-78.34987868113558,13.050933863017676,-76.84795717853399,16.67767601386358,-75.26639822763349,20.42913170551838,-73.60006520144692,24.214773581761634,-71.8599758206159,27.890144589351184,-70.13585005131223,31.278255197758913,-68.6578907422842" fill="none" stroke="rgb(165, 42, 42)" stroke-width="2" stroke-linejoin="round" filter="url(#fuzzy)"></polyline><polyline points="-27,-73,-26.563405512828624,-73.6781422413175,-25.617767864163525,-74.20309567086525,-24.439997095835004,-74.74871960302292,-23.0779734884258,-75.27962675234639,-21.502622433513167,-75.75820664477187,-19.692535351684427,-76.17862257013584,-17.66386063147307,-76.54425134329257,-15.46425279564728,-76.85133930644162,-13.15014381103968,-77.09144875940368,-10.764348340525343,-77.26129648129883,-8.324304482875988,-77.36858005843669,-5.824146866798401,-77.43058243393898,-3.247990882330827,-77.46783346768359,-0.5868567776585145,-77.49644280724979,2.1509755735929303,-77.52235058837577,4.943507269444504,-77.53960246200708,7.7706138039358805,-77.53244211083495,10.629277256496026,-77.47902231880215,13.532822334226942,-77.35623228237623,16.48869835131468,-77.15019198167383,19.467858122150602,-76.87709673630435,22.383494876440004,-76.60836974602404,25.052722316189254,-76.5027588181287" fill="none" stroke="rgb(165, 42, 42)" stroke-width="2" stroke-linejoin="round" filter="url(#fuzzy)"></polyline><polyline points="18,-85,18.7786537455029,-84.70875448471394,19.16962885968773,-84.13937605491641,19.27058630638808,-83.40449848530605,19.129532924067625,-82.52797394839159,18.722383254603223,-81.55201243469872,18.013620008693827,-80.51161539444671,16.983729586720102,-79.4153069080964,15.621610824479244,-78.25352703796639,13.911239410276398,-77.01551798241417,11.830718509657416,-75.6962387641771,9.361080876327277,-74.29128710951616,6.492180435283743,-72.79068498764963,3.21799766662258,-71.18159454725613,-0.4744459044885101,-69.4581441150533,-4.611087136027345,-67.62584179268997,-9.22333661587384,-65.69077514599972,-14.328630244085822,-63.64226164538512,-19.910204706566425,-61.45919360286377,-25.922208349131203,-59.160977918545754,-32.406693265450215,-56.80817081315085" fill="none" stroke="rgb(165, 42, 42)" stroke-width="2" stroke-linejoin="round" filter="url(#fuzzy)"></polyline><polyline points="39,-59,39.12909099584401,-58.448953110316864,39.16497626069677,-57.4757849472436,38.81029838089064,-56.62426621202051,37.96659373710911,-56.0249405420453,36.60985461971397,-55.668972794876524,34.74017781319084,-55.53268568267873,32.367677187855485,-55.59586368679171,29.499819457877205,-55.83446431459925,26.128564834594727,-56.226348876953125,22.228792979759532,-56.76403928684489,17.770263924009726,-57.457219545565614,12.732323038461363,-58.32526384616003,7.108723525483702,-59.394509090457845,0.8972904184047472,-60.702412744456915,-5.925742842717387,-62.28571536927105,-13.440168755650973,-64.13818304034467,-21.780394768772023,-66.16629848366107" fill="none" stroke="rgb(165, 42, 42)" stroke-width="2" stroke-linejoin="round" filter="url(#fuzzy)"></polyline><polyline points="-4,-89,-2.871124409404127,-89.18402133607547,-1.7953721433549623,-89.35966621842925,-0.8979324271657643,-89.45538719875789,-0.21826846954527301,-89.48806977102039,0.21428627029088132,-89.44020105808606,0.4175935659346246,-89.29099502273255,0.4421599478653233,-89.03368578364062,0.33408765571283405,-88.67326436674641,0.11225506257376683,-88.2188592780233,-0.23231412231931925,-87.67859310437495,-0.7249071422584428,-87.05789775839371,-1.3955672085285187,-86.35879418253899,-2.2732637726499005,-85.57814836832756,-3.384660704683826,-84.70575326464994,-4.753807676531896,-83.72485148058047,-6.400725633452342,-82.61638217898425,-8.33929529357991,-81.36525537911461,-10.575472175603585,-79.96553115982414,-13.106827406370654,-78.42240413780098,-15.927309579251073,-76.74917051761477,-19.04665092080741,-74.95424601898804,-22.528122741200086,-73.01283987250153,-26.498259718654673,-70.82048106666282" fill="none" stroke="rgb(165, 42, 42)" stroke-width="2" stroke-linejoin="round" filter="url(#fuzzy)"></polyline><polyline points="-21,-80,-20.116565548629147,-80.25704562085194,-19.47728834126184,-80.65235143812093,-18.974583198375438,-81.06105571952332,-18.472569766223735,-81.5145058182398,-17.934966312812225,-81.99536052155561,-17.393207898826326,-82.44372426240373,-16.88820485591304,-82.80939538111701,-16.44398764472436,-83.0755611191631,-16.073127162744488,-83.24858562240318,-15.7908417011297,-83.33658789146526,-15.620935981957109,-83.33594417325389,-15.592149908009855,-83.23023504053765,-15.731805290455055,-82.99598698185142,-16.06200401180274,-82.60857131455725,-16.598763143477388,-82.04619674845763,-17.3524799872925,-81.29344773707416,-18.329127176498957,-80.34411765929198,-19.532439647431037,-79.19868940366885,-20.966389413094632,-77.85409860362103,-22.633835145129932,-76.29915367429363,-24.521461462574006,-74.53811528302022,-26.58491403480106,-72.58301536941543" fill="none" stroke="rgb(165, 42, 42)" stroke-width="2" stroke-linejoin="round" filter="url(#fuzzy)"></polyline><polyline points="20,-84,20.882539871993323,-83.06380902117176,21.540724090578212,-82.24069546092844,21.945819649517944,-81.56176725399897,22.1409321466098,-80.97462700671555,22.149913746410224,-80.42478633183383,21.95985639712971,-79.89145074461693,21.546880142958326,-79.37559057829682,20.895791655967628,-78.87794972826079,19.999866208388873,-78.39397043109005,18.851087483777125,-77.92474601331907,17.433766994707504,-77.4861315822893,15.726220958386817,-77.10262804746196,13.707190638490486,-76.78889827430096,11.360830773281364,-76.53365629499191,8.676162721072224,-76.29970642046291,5.641846042470508,-76.04281964100157,2.2423947163305655,-75.73929739720805,-1.5366497110285398,-75.40452362551636,-5.694836285385238,-75.08591057761632,-10.21001771530983,-74.82544818846138,-15.05951257932563,-74.61109940235869,-20.266177686271586,-74.36402518021015" fill="none" stroke="rgb(165, 42, 42)" stroke-width="2" stroke-linejoin="round" filter="url(#fuzzy)"></polyline><polyline points="16,-86,16.94979364353915,-85.51107400281909,17.48091531771975,-85.22423093819843,18.259904624095093,-84.78794536788523,19.215586793655376,-84.19156038042402,20.202026100029943,-83.48679223275867,21.14327912310356,-82.72726087150814,22.012140195272305,-81.96592975183023,22.79114884717086,-81.25668031102187,23.457468027089305,-80.64880099805424,23.98388435039469,-80.18034963081651,24.339747287733957,-79.8765815832398,24.489357525702435,-79.75389317410202,24.39728961962146,-79.82788769958506,24.041404161137365,-80.12489116835238,23.40710589693664,-80.6933374737703,22.43275768762636,-81.61313080985227" fill="none" stroke="rgb(165, 42, 42)" stroke-width="2" stroke-linejoin="round" filter="url(#fuzzy)"></polyline><polyline points="40,-57,40.53277779619883,-55.71825072693566,40.549560741811774,-54.99475459281235,40.17092502318012,-54.518432512875926,39.38861510078305,-54.275650216167016,38.197422431548084,-54.27801601783258,36.599025189054146,-54.51031332177861,34.58363868053899,-54.954710957344304,32.12935826806203,-55.61481902063076,29.213781356811523,-56.51279067993164,25.81895968563243,-57.67347732722807,21.9262775831586,-59.116813126693955,17.51436013321777,-60.8642309011523,12.568891530462858,-62.95043201551309,7.092545352075126,-65.42718771061583,1.0889801455682822,-68.34684468968811,-5.491104605149623,-71.72592922641564,-12.800810730180647,-75.54857195576822" fill="none" stroke="rgb(165, 42, 42)" stroke-width="2" stroke-linejoin="round" filter="url(#fuzzy)"></polyline><polyline points="39,-59,39.21804709697442,-58.413061961601095,39.50915277036798,-57.36482901462819,39.58260397372109,-56.402873228147,39.35693135688464,-55.6539568075653,38.82220647730581,-55.11104455516197,37.9857174995179,-54.74747352094505,36.858778850148646,-54.53746054126932,35.44987783816452,-54.457718665055765,33.75803826607187,-54.49235418594278,31.77072817051369,-54.636395530354264,29.467241375953076,-54.894027331801986,26.824238152914397,-55.27508935579738,23.820536421731376,-55.7939305202472,20.440655596409247,-56.46968448560395,16.676980884959825,-57.324146704273716,12.528612187793895,-58.37616667709463,7.994681203081626,-59.636822811836424,3.0642435515479054,-61.11204448865154,-2.2884980571089653,-62.81363303458287,-8.0946435836981,-64.76229564439046,-14.376917554408426,-66.94328829738542,-21.200891105531607,-69.18058156449939" fill="none" stroke="rgb(165, 42, 42)" stroke-width="2" stroke-linejoin="round" filter="url(#fuzzy)"></polyline><polyline points="14,-87,-4.516131680805225,-80.94557117427937,-6.754712234321662,-77.04247965873415,-2.654636972501689,-77.65555437889196,0.28648321493528783,-78.58935377886519,1.4049010581178905,-77.72783330090847,2.0123857284673043,-75.79426834846132,2.688774699593068,-74.40640019934544,3.3746185302734375,-74.05624389648438,3.994133743522485,-73.54609588553805,4.464949258882168,-71.12574503960481,4.452533562411631,-66.35143910151673,3.329810203751549,-61.15893448283896,0.26550303403950215,-58.97689590543925,-4.604408087832756,-61.72299731248235,-3.787466610940582,-66.7859230542705,31,-73" fill="none" stroke="rgb(165, 42, 42)" stroke-width="2" stroke-linejoin="round" filter="url(#fuzzy)"></polyline><polyline points="31,-73,29.876811545829916,-64.42936293275928,14.169104510920029,-67.43709386700164,1.5750262260695067,-71.164083756925,-1.8436113547083839,-73.37935862003394,1.5280188937038903,-73.86168883804189,6.718947568156673,-72.9096427897815,10.121562377754573,-70.67544916631773,10.711120111298964,-67.54669405039112,9.29564425161933,-64.93151273195932,7.106244050505036,-65.05494286080467,4.652511253192784,-69.33391197659934,1.336090651754494,-76.52388495455027,-3.8908465544539093,-82.42191147588544,-12.13542210719177,-81.72909835081872,-29,-70" fill="none" stroke="rgb(165, 42, 42)" stroke-width="2" stroke-linejoin="round" filter="url(#fuzzy)"></polyline><polyline points="48,-34,7.872098866714635,-60.8577634953795,-1.0897159954208062,-67.17882744928323,0.4042987554706918,-69.44651611332341,2.03620836540832,-71.00216171837923,3.5541204381753686,-72.40408564202117,6.200620790954437,-73.53492889181874,8.978240120542475,-74.27103249320668,9.683814445984511,-74.73146742655888,7.21984188956632,-75.10872304916225,2.690953137534305,-75.39145300280863,-1.3456807916744729,-75.36503142598325,-2.7771565676525407,-74.93834380669314,-1.677686336477411,-74.45880405048922,-0.6185809156680779,-74.57449263545794,-2.9416915619845647,-75.50256922382722,-9.7880791892942,-76.24928661028582,-18.201238062455307,-75.21722286369211,-21.96951562099467,-74.11812022080994,-10,-87" fill="none" stroke="rgb(165, 42, 42)" stroke-width="2" stroke-linejoin="round" filter="url(#fuzzy)"></polyline><polyline points="36,-65,13.557300246144818,-79.86068187653314,-0.64701805264367,-82.38466771165811,-10.414697595697776,-80.53481741348966,-16.559192281914875,-77.9165878649801,-19.469467355224598,-76.12485340406248,-19.625204273130702,-75.75594327444749,-17.897652384235794,-76.70440754738382,-15.312789916992188,-78.3997802734375,-12.465506864230582,-80.08795342538443,-9.237205456904075,-81.03048934429907,-5.21387086500944,-80.51277293258079,-0.5115900307428092,-77.73871407471597,3.7673076532085576,-71.93695223053062,6.408774922553494,-62.96803781785647,11.110170736399057,-51.47185555222292,49,-33" fill="none" stroke="rgb(165, 42, 42)" stroke-width="2" stroke-linejoin="round" filter="url(#fuzzy)"></polyline><polyline points="13,-87,20.259986617860367,-80.77926093093267,24.128363998172745,-73.96192718736344,23.352140391233892,-71.25136277318842,19.567558714454425,-72.49619183862022,16.32322158498144,-74.38332365221582,15.531093438947934,-74.60650878844474,16.748800611099593,-72.91073379843098,18.330305387516965,-70.17450545784719,18.8392847510498,-67.28840282434011,17.87451632577205,-64.7199262590599,16.100301027297974,-62.71522092819214,14.649069735438282,-61.62970649604634,14.303852642537315,-61.971402323786755,14.96343456231513,-64.1082819789445,15.738640598252545,-67.88370235207289,15.642092292062568,-72.4330737359864,14.417422209021904,-76.37864018540344,12.891219207189069,-78.428241266779,12.60176179880038,-78.13609964040613,15.417353877053806,-76.03126658823417,23.96062222091663,-72.13453564821144,36,-65" fill="none" stroke="rgb(165, 42, 42)" stroke-width="2" stroke-linejoin="round" filter="url(#fuzzy)"></polyline><polyline points="-38,-56,6.76294394721446,-61.33728835093467,16.945312127585993,-63.110222660227244,13.37995952890965,-67.30994871442982,9.866563497111201,-71.52577547775581,9.645513515095871,-74.40743842717005,10.757411873463269,-75.54091708969167,11.022832488847333,-75.02856645843303,9.7288818359375,-73.61380004882812,7.124682395033084,-72.58846866558467,3.6585494180257854,-73.11562774061508,0.0016061643795289293,-75.32725165726583,-2.4794681686908007,-77.98989696847275,-2.039845408163934,-79.27621666143683,1.9443060249381858,-78.05849634064293,9.919679874965246,-73.68074471248673,38,-62" fill="none" stroke="rgb(165, 42, 42)" stroke-width="2" stroke-linejoin="round" filter="url(#fuzzy)"></polyline><polyline points="25,-80,6.824250965567819,-64.78166426344457,17.60116401355321,-59.21906524312291,27.274587771621533,-58.991944006293465,31.77447492873073,-60.512531192402605,32.604569563247274,-62.38177959407072,31.682642007779705,-63.81853714952751,30.10452234119249,-64.30915988555414,27.96982083461597,-63.855581575437675,24.86236818337526,-62.963436943220756,20.711337948281177,-62.32508425329693,16.41570869001281,-62.616876509598384,13.653735586335648,-64.47822328715515,13.836465730801239,-68.18877229713071,16.907334077570408,-72.87753107493329,20.939481687058215,-76.50208991941275,21.974948415214516,-78.88497080682856,11,-88" fill="none" stroke="rgb(165, 42, 42)" stroke-width="2" stroke-linejoin="round" filter="url(#fuzzy)"></polyline><polyline points="-17,-83,14.945384681053907,-69.71354877407808,22.227464972142954,-63.06706980188983,22.01275050371584,-60.5173109893699,20.322593729011714,-59.14057931257412,18.31956873878789,-57.96001730139073,16.63575212134758,-56.815903793965845,15.558989537931197,-55.886433464091496,14.86785888671875,-55.443328857421875,13.950427003247409,-55.76812912822447,11.581212218950824,-57.19778721249439,6.051101476115505,-60.01829155272529,-3.201466132886708,-64.13430160237476,-13.538128633265176,-68.92640929616236,-20.202814893358735,-73.5548280349244,-21.609088670558243,-77.1525904637268,-19,-81" fill="none" stroke="rgb(165, 42, 42)" stroke-width="2" stroke-linejoin="round" filter="url(#fuzzy)"></polyline><polyline points="34,-68,-2.766706192952233,-68.43063719334259,-1.7155777537359584,-69.67469696094494,7.752297542662959,-67.58452430832469,13.807020053370323,-64.20163772964115,15.127902383807427,-61.405233937004084,13.996276982382886,-60.12530337370058,12.539985922978229,-60.421186510101506,11.610630293746404,-61.67613481259664,11.019142715756466,-63.079740853250456,10.071442842924501,-64.17866487560741,7.994147028477394,-65.08945148782605,4.365397181594708,-66.21388407646553,-0.3817360982148519,-67.71416016757262,-4.738217905661667,-69.25341811137312,-6.7136729221265,-70.31545123373343,-5.363932527155996,-70.81310292543215,-2.527680493794391,-71.1969806253633,-3.1158394726957392,-71.63433921613,-11.74154217143101,-71.21562483401297,-25.07639952983901,-69.57294786357936,-27,-74" fill="none" stroke="rgb(165, 42, 42)" stroke-width="2" stroke-linejoin="round" filter="url(#fuzzy)"></polyline><polyline points="33,-70,20.13238410831696,-74.65477306118522,22.592935047471016,-69.0344222741793,20.398723301956483,-67.63582386343212,13.139984815981562,-70.61928497846893,5.455512646216165,-74.69941884735482,0.5924965898635096,-77.9191757146333,-0.6378729900870705,-79.50125546679193,1.0675526740724541,-78.94679024018575,4.260596211530212,-76.00389437808923,6.997750762298305,-71.1460453976127,7.32830354762222,-65.74105577007118,4.420496511348971,-61.56237943718131,-0.41041932069259107,-59.9446196168572,-4.072096156135137,-61.17846766402467,-3.7423142637088285,-64.50497018095541,0.9900013610706219,-68.57118137431823,7.350671377763904,-71.96506308383616,7.011574593332131,-73.9409449301227,-23,-78" fill="none" stroke="rgb(165, 42, 42)" stroke-width="2" stroke-linejoin="round" filter="url(#fuzzy)"></polyline><polyline points="-21,-79,4.089868362376815,-80.3191120054623,8.53758671878258,-83.77183702633464,10.851552104381573,-84.8397802208959,13.568865125268282,-83.62503221922094,14.99860208566682,-81.29073101911605,14.0731218736609,-78.90689547499059,11.605790339350097,-77.0891998196597,9.436165814760553,-75.95539369106226,8.860022789025237,-75.28130719460339,9.70378101424637,-74.73218117538627,10.626417636871338,-74.03774619102478,10.195513957416452,-73.07126526172165,7.7982728413118805,-71.88429087948789,3.807572087002521,-70.72691192380847,-0.7951687422179217,-69.98142766027583,-4.702955702193362,-69.93193542412716,-6.227504455637946,-70.48767639271259,-3.55884232226744,-71.16829107332529,3.748554121792918,-71.43078493126976,12.884994263009144,-70.70271989142887,20.834268332712035,-66.60288255111695,45,-46" fill="none" stroke="rgb(165, 42, 42)" stroke-width="2" stroke-linejoin="round" filter="url(#fuzzy)"></polyline><polyline points="33,-70,20.905649854629534,-76.1925168358365,10.041835784421245,-80.04885793977608,4.97286749296612,-80.71077228541462,1.4304909580387175,-80.23890601005405,-2.3532585828050854,-79.6701853053546,-5.256262155987507,-78.85343812844529,-5.964748636848275,-77.62110410064084,-4.573577880859375,-76.44964599609375,-2.1481587434404235,-76.13276696450902,0.7504320503374302,-76.92343170056482,4.787752507855106,-78.0121525388831,10.66942502791062,-78.0259370347485,16.68570057196219,-76.31833783644427,17.09447857385684,-73.43294824651274,2.5387497148231866,-68.33721847014544,-41,-52" fill="none" stroke="rgb(165, 42, 42)" stroke-width="2" stroke-linejoin="round" filter="url(#fuzzy)"></polyline><!--]--></g><g id="lineNose"><path d="M -7.504576062475918 8.210684618007292, Q5.96356683461832 7.182447451231415,-0.7705046139287988 -5.008887607053467" fill="none" stroke="black" stroke-width="3" stroke-linejoin="round" filter="url(#fuzzy)"></path></g><g id="mouth"><polyline points="-29.203817201419866,58.46850296015842,-28.42474932568468,57.5892770355285,-27.646680215131024,56.73495702359055,-26.869729321187428,55.90533518427604,-26.094016095282395,55.10020377751641,-25.319659988844442,54.31935506324311,-24.54678045330209,53.562581301387596,-23.775496940083833,52.8296747518813,-23.005928900618205,52.12042767465568,-22.2381957863337,51.43463232964219,-21.472417048658837,50.77208097677227,-20.708712139022126,50.13256587597739,-19.94720050885209,49.515879287188966,-19.18800160957724,48.92181347033848,-18.43123489262608,48.35016068535735,-17.67701980942713,47.80071319217705,-16.9254758114089,47.27326325072901,-16.176722349999906,46.76760312094469,-15.430878876628656,46.28352506275554,-14.688064842723671,45.820821336093005,-13.948399699713459,45.37928420088853,-13.212002899026528,44.958705917073566,-12.478993892091399,44.558878744579566,-11.749492130336582,44.17959494333798,-11.023617065190587,43.82064677328025,-10.301488148081937,43.481826494337824,-9.583224830439136,43.16292636644217,-8.868946563690693,42.86373864952472,-8.158772799265126,42.584055603516916,-7.452822988590953,42.323669488350234,-6.7512165830966815,42.0823725639561,-6.054073034210825,41.85995709026596,-5.361511793361894,41.65621532721128,-4.673652311978406,41.4709395347235,-3.9906140414888736,41.30392197273407,-3.3125164333218065,41.154954901174435,-2.6394789389057194,41.02383057997604,-1.9716210096691236,40.91034126907035,-1.3090620970405369,40.814279228388806,-0.6519216524484672,40.735436717862854,-0.00031912732143046796,40.67360599742395,0.6456260269120606,40.628579327003536,1.2857943588234972,40.60014896653307,1.920066416984362,40.58810717594398,2.5483227499661423,40.592246215167734,3.170443906340328,40.61235834413577,3.786310434678402,40.648235822779554,4.395802883551855,40.69967091103052,4.9988018015321725,40.76645586882013,5.5951877371908445,40.84838295607981,6.184841239099349,40.945244432741035,6.767642855829182,41.05683255873523,7.343473135951831,41.18293959399386,7.912212628038779,41.32335779844837,8.473741880661516,41.4778794320302,9.027941442391523,41.64629675467083,9.574691861800291,41.82840202630166,10.113873687459312,42.023987506854176,10.645367467940066,42.23284545625982,11.169053751814042,42.45476813445004,11.684813087652726,42.68954780135627,12.192526024027607,42.93697671690998,12.692073109510178,43.1968471410426,13.183334892671915,43.4689513336856,13.666191922084312,43.75308155477041,14.14052474631885,44.049030064228496,14.606213913947023,44.35658912199129,15.063139973540313,44.67555098799025,15.511183473670211,45.00570792215683,15.950224962908198,45.34685218442247,16.38014498982577,45.69877603471861,16.800824102994408,46.061271732976714,17.212142850985597,46.43413153912824,17.613981782370832,46.81714771310462,18.006221445721593,47.210112514837306,18.38874238960937,47.61281820425774,18.761425162605647,48.02505704129739,19.124150313281916,48.44662128588769,19.476798390209666,48.87730319796009,19.81924994196038,49.316895037446045,20.15138551710554,49.765189064276996,20.47308566421663,50.22197753838441,20.784230931865164,50.68705271969971,21.0847018686226,51.16020686815436,21.37437902306043,51.64123224367981,21.653142943750154,52.129921106207505,21.92087417926325,52.626065715668894,22.1774532781712,53.12945833199543,22.422760789045505,53.63989121511855,22.65667726045764,54.157156624969716,22.879083240979096,54.68104682148037,23.08985927918137,55.21135406458197,23.288885923635927,55.74787061420596,23.47604372291427,56.29038873028378,23.651213225587888,56.83870067274688,23.81427498022826,57.39259870152672,23.965109535406878,57.95187507655476,24.103597439695218,58.51632205776241,24.229619241664782,59.085731905081154,24.343055489887053,59.659896878442424,24.44378673293351,60.23860923777764,24.343055489887046,59.65989687844239,24.229619241664775,59.08573190508112,24.103597439695207,58.51632205776238,23.96510953540686,57.95187507655472,23.814274980228248,57.392598701526694,23.65121322558787,56.83870067274685,23.476043722914255,56.29038873028375,23.288885923635917,55.74787061420592,23.089859279181358,55.21135406458194,22.879083240979085,54.68104682148034,22.656677260457624,54.157156624969694,22.422760789045498,53.639891215118524,22.177453278171186,53.1294583319954,21.920874179263233,52.62606571566887,21.653142943750137,52.12992110620748,21.374379023060406,51.641232243679795,21.08470186862258,51.16020686815434,20.784230931865146,50.687052719699686,20.47308566421661,50.22197753838438,20.15138551710552,49.765189064276974,19.81924994196036,49.316895037446024,19.476798390209648,48.87730319796007,19.124150313281902,48.446621285887666,18.761425162605633,48.025057041297366,18.388742389609362,47.61281820425772,18.00622144572158,47.21011251483728,17.613981782370814,46.8171477131046,17.212142850985582,46.43413153912822,16.80082410299439,46.06127173297669,16.380144989825748,45.69877603471859,15.95022496290818,45.34685218442244,15.51118347367019,45.0057079221568,15.063139973540292,44.67555098799023,14.606213913947006,44.35658912199127,14.140524746318828,44.049030064228475,13.666191922084291,43.75308155477039,13.18333489267189,43.46895133368558,12.692073109510156,43.19684714104259,12.19252602402759,42.93697671690996,11.684813087652705,42.689547801356255,11.16905375181402,42.45476813445002,10.64536746794004,42.2328454562598,10.113873687459288,42.02398750685416,9.574691861800268,41.82840202630165,9.027941442391496,41.64629675467081,8.473741880661487,41.47787943203019,7.9122126280387555,41.323357798448356,7.343473135951806,41.182939593993844,6.7676428558291555,41.05683255873522,6.184841239099322,40.94524443274103,5.595187737190816,40.84838295607981,4.998801801532142,40.76645586882013,4.395802883551825,40.69967091103053,3.7863104346783745,40.648235822779554,3.1704439063402967,40.61235834413579,2.5483227499661094,40.59224621516774,1.920066416984331,40.58810717594399,1.2857943588234653,40.60014896653307,0.6456260269120317,40.62857932700354,-0.00031912732146377465,40.67360599742396,-0.6519216524485003,40.73543671786287,-1.30906209704057,40.81427922838882,-1.9716210096691573,40.91034126907036,-2.639478938905752,41.023830579976064,-3.3125164333218375,41.15495490117444,-3.9906140414889055,41.303921972734074,-4.67365231197844,41.47093953472351,-5.361511793361928,41.65621532721129,-6.054073034210855,41.85995709026597,-6.751216583096714,42.08237256395611,-7.452822988590985,42.32366948835025,-8.158772799265162,42.58405560351694,-8.868946563690725,42.86373864952475,-9.583224830439168,43.16292636644219,-10.301488148081972,43.48182649433785,-11.023617065190628,43.820646773280274,-11.749492130336618,44.179594943337996,-12.47899389209144,44.55887874457959,-13.212002899026569,44.95870591707358,-13.948399699713494,45.37928420088855,-14.688064842723708,45.820821336093026,-15.430878876628697,46.28352506275556,-16.176722349999945,46.76760312094471,-16.925475811408944,47.27326325072903,-17.677019809427172,47.80071319217707,-18.43123489262612,48.35016068535738,-19.18800160957728,48.921813470338506,-19.947200508852134,49.515879287189,-20.70871213902217,50.13256587597742,-21.47241704865888,50.772080976772315,-22.238195786333737,51.434632329642234,-23.005928900618247,52.12042767465573,-23.775496940083883,52.82967475188134,-24.54678045330214,53.56258130138763,-25.319659988844496,54.31935506324316,-26.09401609528245,55.10020377751646,-26.869729321187485,55.90533518427609,-27.646680215131077,56.7349570235906,-28.424749325684722,57.58927703552855" fill="rgb(215,127,140)" stroke="black" stroke-width="3" stroke-linejoin="round" filter="url(#fuzzy)"></polyline></g></svg>