<svg viewBox="-100 -100 200 200" xmlns="http://www.w3.org/2000/svg" width="400" height="400" id="face-svg"><defs><clipPath id="leftEyeClipPath"><polyline points="27.49853374769231,-8.13450151814385,27.02675091392673,-8.341131863605487,26.536049189900776,-8.547781049421836,26.027710353498147,-8.753230750419107,25.502965555831313,-8.95634334281208,24.962996298237634,-9.15605990578645,24.408935409275454,-9.351398223081151,23.841868021720213,-9.541450784570712,23.262832549560546,-9.725382787847574,22.672821664994398,-9.902430139804443,22.072783275425127,-10.07189745821662,21.463621500457595,-10.233156073324338,20.8461976488943,-10.38564202941511,20.221331195731445,-10.52885408640605,19.589800759155093,-10.662351721426225,18.952345077537213,-10.785753130398984,18.19473790258342,-11.02904992929814,17.43148844051462,-11.25119223747488,16.663627320174594,-11.451465031581783,15.892116428876252,-11.629361239069228,15.117853993791591,-11.784566143570995,14.34167939296822,-11.916942367377697,13.564377702456262,-12.026515420726426,12.786683986029365,-12.11345980763512,12.009287333983606,-12.17808567801002,11.232834657498135,-12.220826015754712,10.457934245041224,-12.242224352609135,9.685159087305614,-12.242922997447033,8.915049977156848,-12.223651770760263,8.148118391078425,-12.185217234058422,7.384849158597525,-12.128492403912166,6.625702926175093,-12.054406940368757,5.871118422044062,-11.963937799468166,5.121514528479505,-11.858100339588258,4.377292167984449,-11.737939871347425,3.638836009875195,-11.604523640793175,2.9065160037498665,-11.45893323560501,2.180688746323994,-11.302257404040152,1.4616986881169152,-11.135585276350463,0.7498791864727492,-10.959999978399015,0.04555341139973379,-10.776572627204777,-0.6509648892882653,-10.586356698143815,-1.339370759044372,-10.390382753535466,-2.019367529391568,-10.189653522341903,-2.690666437972129,-9.985139320709562,-3.3529863613597524,-9.777773803080814,-4.006053656150703,-9.56845003360436,-4.649602101850094,-9.358016867572776,-5.283372939069629,-9.147275632615626,-5.9071149965529095,-8.936977099376604,-6.520584900544668,-8.727818731403124,-7.123547360019998,-8.520442203976796,-7.715775521289926,-8.31543118161323,-8.297051385499493,-8.113309343959603,-8.867166282534559,-7.914538649818411,-9.425921394853562,-7.7195178290258735,-9.973128324760486,-7.528581091913381,-10.508609698635205,-7.341997046080461,-11.03219980163744,-7.159967810207691,-11.5437452364006,-6.982628314637965,-12.043105599231648,-6.810045778454592,-12.53015416733328,-6.6422193527846325,-13.004778590564612,-6.479079920055916,-13.466881581256573,-6.3204900389361836,-13.916381595598267,-6.166244024682783,-14.353213500110542,-6.016068154631352,-14.778583353358105,-5.869959833879082,-15.193647835528264,-5.728106723021428,-15.598286056960617,-5.59045760939662,-15.992385308001491,-5.4569463458487855,-16.37584192736709,-5.327493226383855,-16.74856217050672,-5.202006361825479,-17.110463077965953,-5.0803830554709375,-17.46147334374983,-4.962511178747049,-17.801534183686023,-4.848270546866089,-18.130600203788056,-4.737534294481694,-18.448640268618483,-4.630170251344779,-18.75563836965206,-4.526042317959448,-19.051594493638923,-4.4250118412389,-19.336525490967826,-4.326938990161351,-16.675871591165855,-0.521609338676134,-16.48051208362885,-0.31334319647672615,-16.271827220015382,-0.09887547275895692,-16.049878630847743,0.12184205390436897,-15.814753373111056,0.3488421084194062,-15.566562250371991,0.5821407631525712,-15.305438132897446,0.8217362819118552,-15.031534277773215,1.067607963928137,-14.745022649022772,1.3197149878364804,-14.44609223772584,1.5779952556574592,-14.134947382137167,1.842364236778451,-13.811806087805206,2.1127138119349524,-13.476898347690785,2.3889111171918875,-13.130464462285818,2.6707973879249183,-12.772753359732018,2.958186802801749,-12.40253371767415,3.251329987792655,-12.018599726335818,3.5505930645889734,-11.621247430933906,3.85586901017264,-11.21077608686561,4.166954054739936,-10.787486529088653,4.483549326036,-10.351679551035442,4.805262676217502,-9.903654305604322,5.131610699875036,-9.443706740770962,5.4620209518468545,-8.972128082363032,5.79583437345555,-8.489203376541303,6.1323079357992665,-7.995210104530209,6.470617508729138,-7.490416882141101,6.809860964144388,-6.975082256631186,7.14906152223689,-6.449453613441333,7.487171349316661,-5.913766205355866,7.823075415849937,-5.368242316627413,8.15559562334147,-4.813090574609966,8.48349520869259,-4.248505421443225,8.805483434666655,-3.674666758331412,9.120220575093574,-3.0917397749595557,9.426323203444854,-2.499874976590486,9.722369793410968,-1.899208421385552,10.006906640112456,-1.2898621804922366,10.278454110576517,-0.6719450334417489,10.53551323211062,-0.04555341139973468,10.776572627204777,0.5892273991868024,11.000115803594035,1.2323217800032489,11.204628808112869,1.8836620187986886,11.38860825297298,2.5431862492916295,11.550569723096242,3.210836080507081,11.689056573134264,3.8865539030018352,11.802649122806235,4.570279859434838,11.889974259186728,5.261948466939564,11.94971545457488,5.96148487875525,11.9806232085768,6.668800772573888,11.981525923032605,7.3837898530598665,11.95134121841979,8.106322955999143,11.889087700364515,8.836242741534823,11.793897184892435,9.573357963946057,11.665027391050641,10.317437305427108,11.501875109532369,11.06820276132352,11.303989855936003,11.825322564282224,11.071088017290094,12.588403634772504,10.803067500475878,13.356983545434694,10.500022891179006,14.130521986713497,10.162261132002005,14.9083917212328,9.790317728369136,15.68986901436891,9.384973490855236,16.474123528479037,8.94727182257014,17.260207668241957,8.478536560230301,18.047045364567726,7.980390377549217,18.684907523178254,7.679329612434952,19.319684653879364,7.363943903073329,19.95060172333972,7.0350763066441235,20.576827378270348,6.693659571130805,21.197472317545877,6.340718869549823,21.811587664325735,5.977374534179878,22.418163338175393,5.604844790791223,23.01612642718756,5.224448492874943,23.604339560103426,4.8376078558722355,24.18159927843386,4.445851191403712,24.746634408580636,4.050815641498657,25.298104433957665,3.654249912824339,25.8345978671122,3.2580170109152835,26.354630621846052,2.8640969744025604,26.85664438533682,2.4745896092430772"></polyline></clipPath><clipPath id="rightEyeClipPath"><polyline points="-30.18542579013998,-8.387373653362083,-29.815812137720346,-8.69239953879119,-29.423815519264515,-8.997616486709155,-29.00984763596377,-9.301218896553692,-28.574345594976915,-9.601520593777058,-28.117770775493106,-9.89695187321946,-27.640607694794706,-10.186056542482454,-27.143362874320157,-10.467488965302339,-26.626563705726845,-10.740011104923557,-26.09075731695396,-11.002489567472104,-25.536509438285343,-11.253892645328909,-24.964403268412354,-11.493287360503253,-24.375038340496747,-11.719836508006155,-23.769029388233506,-11.932795699223789,-23.147005211913715,-12.131510405290854,-22.509607544487437,-12.31541300046401,-21.844842930168515,-12.676665301860602,-21.153432600269095,-13.006779947624743,-20.436306805272107,-13.30469914870594,-19.694534896902024,-13.569672336182714,-18.92931137329758,-13.801233092155888,-18.141942438766222,-13.999176935807736,-17.333833069895263,-14.163539949383559,-16.506474579794613,-14.294578228852242,-15.661432672246018,-14.392748144002361,-14.800335977533818,-14.458687392730436,-13.924865061732001,-14.493196834277835,-13.036741901222651,-14.497223086172959,-12.137719814220592,-14.4718418696352,-11.229573841079194,-14.418242088197367,-10.31409156515229,-14.337710624302956,-9.39306436598712,-14.231617838634998,-8.468279096623204,-14.101403756932989,-7.541510176772123,-13.948564929054433,-6.614512093653074,-13.774641945037622,-5.68901230225919,-13.581207592922187,-4.766704516829503,-13.369855643083984,-3.8492423853015008,-13.142190243840899,-2.9382335385192078,-12.89981591308613,-2.03523400597171,-12.644328110705482,-1.1417429898370433,-12.37730437653532,-0.25919798910640957,-12.100296018617646,0.6110297344364142,-11.814820336508921,1.467639356605467,-11.522353364399228,2.3094043657979526,-11.22432311879825,3.1351761207995317,-10.922103335544719,3.9438870996347095,-10.617007680895865,4.734553847687327,-10.310284421453405,5.506279633316284,-10.003111537682694,6.25825681919148,-9.696592265781554,6.989768957575194,-9.391751052655382,7.7001926177737765,-9.089529908755068,8.388998953984915,-8.790785143534325,9.055755021765435,-8.496284468282974,9.700124851344716,-8.206704451092758,10.321870286008851,-7.922628308712237,10.920851593780547,-7.6445440200473636,11.497027860619912,-7.372842746064249,12.05045717337115,-7.107817540850758,12.581296600680236,-6.849662338593431,13.089801980108689,-6.598471201226333,13.576327519668464,-6.354237811508398,14.041325222003056,-6.1168551962858135,14.485344139439928,-5.886115664696037,14.909029468139181,-5.6617109460699835,15.31312148956383,-5.443232512288972,15.698207339076692,-5.230686263048325,16.064423188368167,-5.0243597932909845,16.411920488494538,-4.824174533044015,16.74087248799701,-4.6300299845634045,17.051473131329526,-4.441805763865441,17.343935957286607,-4.2593636422580765,17.61849299743124,-4.082549587872313,17.87539367452267,-3.911195807193562,18.11490370094426,-3.745122786593029,18.337303977131388,-3.5841413338590815,18.542889489999208,-3.4280546197286195,18.731968211370585,-3.2766602194184538,18.90485999640385,-3.129752154156675,19.061895482020727,-2.987122932714029,16.9605597628473,0.9523891777524138,16.608987939366575,1.162494161829644,16.250860654129028,1.3789168403287606,15.88655214474241,1.601704612419784,15.516463680930812,1.830889056880694,15.141019971482585,2.066484778349386,14.760665571198427,2.3084882535756153,14.375861287839264,2.5568766776729275,13.987080589074331,2.8116068103706127,13.594806009429096,3.0726138222656534,13.199525557233262,3.3398101410746506,12.80172912156878,3.6130842978857807,12.401904879217806,3.8922997734107385,12.000535701610684,4.177293844236672,11.59809556177396,4.46787642907814,11.192299410990824,4.76430551178187,10.781303431436893,5.066954495850433,10.366172048832922,5.375711116243721,9.94788382760933,5.6903655217827485,9.527328537037963,6.010611944013961,9.105304383632278,6.336050550132853,8.682515436644053,6.666189488581448,8.259569273484733,7.000447135934358,7.836974871899562,7.338154553688062,7.415140775722611,7.678558163568022,6.994373561040803,8.020822649968364,6.574876629595094,8.36403409813868,6.156749356246912,8.707203376732666,5.739986617337962,9.049269773333268,5.324478726771536,9.389104891568884,4.910011806643473,9.725516818435421,4.496268619250822,10.057254570438722,4.082829887306408,10.383012827172102,3.6691761291873703,10.701436960943624,3.2546900360458135,11.011128371067738,2.838659417609687,11.310650131435985,2.420280743502044,11.598532959981375,1.998663306906722,11.873281518651105,1.5728340374086844,12.133381052502287,1.1417429898370433,12.37730437653532,0.7042695359389235,12.603519218879542,0.2592292857123102,12.810495928945866,-0.19461823477405016,12.996715559160972,-0.6585611222455077,13.160678328897832,-1.1339258249430593,13.300912479217054,-1.6220670343734649,13.415983527033838,-2.124356713259744,13.50450392732516,-2.6421722328640342,13.565143151991755,-3.1768835928546046,13.596638193989676,-3.7298396968889316,13.597804505346016,-4.302353657084736,13.56754737767341,-4.895687100550823,13.504873773798053,-5.5110334511496255,13.408904619115827,-6.149500159663335,13.278887561291185,-6.812089855535458,13.114210206913537,-7.499680393359755,12.914413843725601,-8.213003767288345,12.679207657038596,-8.952623866530926,12.408483448948772,-9.718913045116945,12.102330868969965,-10.512027479092643,11.761053164696879,-11.331881284324792,11.385183461113694,-12.178119368083074,10.975501577162646,-13.050088987572893,10.533051388187314,-13.94680998859059,10.059158742865122,-14.866943697472877,9.555449943243874,-15.530147886667407,9.250017320805618,-16.200385198224023,8.929934101515405,-16.876690256765862,8.596037913625949,-17.557981529103618,8.24925619962092,-18.243057399170908,7.890608957648787,-18.93059224295965,7.5212114829566765,-19.619132503455443,7.142277109324258,-20.307092765572932,6.755119950497578,-20.992751831091184,6.361157641622933,-21.674248793589058,5.961914080680735,-22.3495791133806,5.559022169919363,-23.016590692450386,5.154226557289029,-23.672979949388917,4.749386377875643,-24.316287894327996,4.346477995334668,-24.943896203876072,3.9475977433249874"></polyline></clipPath><filter id="fuzzy"><feTurbulence id="turbulence" baseFrequency="0.05" numOctaves="3" type="noise" result="noise"></feTurbulence><feDisplacementMap in="SourceGraphic" in2="noise" scale="2"></feDisplacementMap></filter><linearGradient id="rainbowGradient" x1="0%" y1="0%" x2="100%" y2="0%"><stop offset="0%" style="stop-color: rgb(145, 85, 61);  stop-opacity: 1"></stop><stop offset="50%" style="stop-color: rgb(255, 165, 0);  stop-opacity: 1"></stop><stop offset="100%" style="stop-color: rgb(50, 205, 50);  stop-opacity: 1"></stop></linearGradient></defs><title>That&#39;s an ugly face</title><desc>CREATED BY XUAN TANG, MORE INFO AT TXSTC55.GITHUB.IO</desc><rect x="-100" y="-100" width="100%" height="100%" opacity="1" fill="rgb(245, 255, 250)"></rect><polyline id="faceContour" points="63,1,63,3,63,3,63,4,63,5,62,8,62,9,62,11,62,14,62,11,62,13,61,18,61,18,61,19,61,22,61,23,61,21,60,23,60,25,59,29,59,29,59,30,58,33,58,32,58,34,57,37,57,36,56,39,56,40,55,42,55,42,55,43,54,45,54,46,53,47,52,50,52,51,51,52,51,52,50,54,50,54,49,55,48,57,48,57,48,58,46,61,47,60,46,62,45,63,43,65,43,66,42,67,42,67,40,69,40,69,41,68,40,70,38,71,37,72,37,73,35,75,35,75,33,76,33,76,32,77,31,78,31,78,30,79,30,79,27,81,28,80,27,81,26,82,25,82,24,82,22,84,22,83,20,84,21,84,20,85,19,84,17,85,16,86,16,86,15,86,14,86,14,86,12,87,11,87,11,87,9,87,8,87,8,87,7,87,7,87,5,87,4,87,3,87,2,87,2,87,0,87,0,87,-2,87,-3,87,-3,87,-4,87,-6,86,-7,86,-7,86,-8,85,-9,85,-10,85,-11,85,-12,84,-13,84,-14,83,-15,83,-16,82,-17,82,-18,81,-19,81,-19,81,-19,81,-23,79,-23,79,-24,78,-24,78,-24,78,-26,77,-27,76,-28,75,-27,76,-30,73,-30,73,-32,72,-31,73,-33,70,-34,70,-33,71,-36,68,-36,68,-36,67,-37,66,-38,66,-39,65,-39,64,-41,62,-41,61,-41,61,-43,59,-43,59,-44,58,-44,57,-45,57,-46,54,-47,53,-47,53,-48,52,-49,51,-49,49,-50,49,-50,47,-52,45,-52,45,-51,46,-52,44,-53,41,-53,42,-54,40,-55,37,-55,36,-55,37,-56,35,-56,35,-57,33,-57,32,-58,29,-58,30,-58,28,-59,25,-59,25,-60,23,-60,22,-60,22,-60,21,-60,20,-61,19,-61,17,-61,15,-62,14,-61,14,-62,12,-62,12,-62,11,-62,6,-62,8,-63,5,-63,5,-63,1,-63,1,-63,0,-63,-1,-63,-2,-63,-4,-63,-5,-63,-6,-63,-7,-63,-11,-62,-11,-63,-10,-63,-13,-62,-15,-62,-17,-62,-17,-62,-17,-62,-18,-61,-20,-61,-21,-61,-23,-61,-22,-61,-25,-60,-25,-60,-27,-59,-30,-59,-30,-59,-31,-58,-34,-58,-33,-58,-35,-58,-35,-57,-37,-56,-41,-56,-40,-55,-42,-55,-43,-55,-42,-54,-44,-54,-46,-54,-46,-53,-48,-53,-48,-52,-49,-52,-49,-50,-52,-50,-53,-49,-54,-48,-56,-47,-57,-47,-57,-46,-59,-46,-59,-46,-58,-44,-61,-43,-63,-43,-63,-42,-63,-41,-65,-41,-66,-40,-66,-40,-66,-38,-68,-37,-69,-37,-69,-36,-69,-34,-72,-33,-73,-33,-73,-32,-73,-32,-74,-30,-75,-29,-76,-28,-76,-29,-76,-26,-77,-26,-78,-26,-78,-24,-80,-23,-79,-23,-80,-21,-81,-21,-81,-19,-82,-18,-82,-17,-83,-16,-83,-15,-84,-14,-84,-12,-84,-12,-85,-11,-85,-11,-85,-10,-85,-8,-85,-8,-86,-7,-86,-7,-86,-5,-86,-3,-87,-2,-87,-2,-87,0,-87,1,-87,2,-87,3,-87,5,-87,5,-87,6,-87,8,-87,9,-87,9,-87,9,-87,11,-87,11,-87,14,-86,14,-87,15,-86,15,-86,18,-86,17,-86,19,-85,22,-84,21,-85,23,-84,23,-84,25,-83,25,-83,26,-82,27,-82,27,-82,29,-81,29,-81,30,-80,32,-79,33,-79,34,-78,34,-78,34,-78,35,-77,37,-75,37,-75,38,-74,39,-74,39,-73,42,-71,43,-70,43,-69,43,-69,44,-68,44,-67,46,-66,46,-65,47,-63,47,-64,48,-62,48,-62,50,-59,50,-60,50,-59,51,-58,51,-57,52,-54,53,-52,53,-53,54,-50,55,-49,54,-50,55,-48,55,-48,56,-46,57,-45,57,-42,57,-41,58,-39,58,-38,58,-39,59,-35,60,-33,60,-33,60,-30,60,-30,61,-27,61,-29,61,-26,61,-26,62,-23,62,-20,62,-21,62,-18,62,-17,62,-18,62,-15,62,-14,63,-11,63,-11,63,-8,63,-7,63,-8,63,-4,63,-5,63,-2,63,1,63,3" fill="#ffc9a9" stroke="black" stroke-width="1.6666666666666665" stroke-linejoin="round" filter="url(#fuzzy)"></polyline><g transform="translate(39.78699938270009 -20.837502247347395)"><polyline id="rightCountour" points="-30.18542579013998,-8.387373653362083,-29.815812137720346,-8.69239953879119,-29.423815519264515,-8.997616486709155,-29.00984763596377,-9.301218896553692,-28.574345594976915,-9.601520593777058,-28.117770775493106,-9.89695187321946,-27.640607694794706,-10.186056542482454,-27.143362874320157,-10.467488965302339,-26.626563705726845,-10.740011104923557,-26.09075731695396,-11.002489567472104,-25.536509438285343,-11.253892645328909,-24.964403268412354,-11.493287360503253,-24.375038340496747,-11.719836508006155,-23.769029388233506,-11.932795699223789,-23.147005211913715,-12.131510405290854,-22.509607544487437,-12.31541300046401,-21.844842930168515,-12.676665301860602,-21.153432600269095,-13.006779947624743,-20.436306805272107,-13.30469914870594,-19.694534896902024,-13.569672336182714,-18.92931137329758,-13.801233092155888,-18.141942438766222,-13.999176935807736,-17.333833069895263,-14.163539949383559,-16.506474579794613,-14.294578228852242,-15.661432672246018,-14.392748144002361,-14.800335977533818,-14.458687392730436,-13.924865061732001,-14.493196834277835,-13.036741901222651,-14.497223086172959,-12.137719814220592,-14.4718418696352,-11.229573841079194,-14.418242088197367,-10.31409156515229,-14.337710624302956,-9.39306436598712,-14.231617838634998,-8.468279096623204,-14.101403756932989,-7.541510176772123,-13.948564929054433,-6.614512093653074,-13.774641945037622,-5.68901230225919,-13.581207592922187,-4.766704516829503,-13.369855643083984,-3.8492423853015008,-13.142190243840899,-2.9382335385192078,-12.89981591308613,-2.03523400597171,-12.644328110705482,-1.1417429898370433,-12.37730437653532,-0.25919798910640957,-12.100296018617646,0.6110297344364142,-11.814820336508921,1.467639356605467,-11.522353364399228,2.3094043657979526,-11.22432311879825,3.1351761207995317,-10.922103335544719,3.9438870996347095,-10.617007680895865,4.734553847687327,-10.310284421453405,5.506279633316284,-10.003111537682694,6.25825681919148,-9.696592265781554,6.989768957575194,-9.391751052655382,7.7001926177737765,-9.089529908755068,8.388998953984915,-8.790785143534325,9.055755021765435,-8.496284468282974,9.700124851344716,-8.206704451092758,10.321870286008851,-7.922628308712237,10.920851593780547,-7.6445440200473636,11.497027860619912,-7.372842746064249,12.05045717337115,-7.107817540850758,12.581296600680236,-6.849662338593431,13.089801980108689,-6.598471201226333,13.576327519668464,-6.354237811508398,14.041325222003056,-6.1168551962858135,14.485344139439928,-5.886115664696037,14.909029468139181,-5.6617109460699835,15.31312148956383,-5.443232512288972,15.698207339076692,-5.230686263048325,16.064423188368167,-5.0243597932909845,16.411920488494538,-4.824174533044015,16.74087248799701,-4.6300299845634045,17.051473131329526,-4.441805763865441,17.343935957286607,-4.2593636422580765,17.61849299743124,-4.082549587872313,17.87539367452267,-3.911195807193562,18.11490370094426,-3.745122786593029,18.337303977131388,-3.5841413338590815,18.542889489999208,-3.4280546197286195,18.731968211370585,-3.2766602194184538,18.90485999640385,-3.129752154156675,19.061895482020727,-2.987122932714029,16.9605597628473,0.9523891777524138,16.608987939366575,1.162494161829644,16.250860654129028,1.3789168403287606,15.88655214474241,1.601704612419784,15.516463680930812,1.830889056880694,15.141019971482585,2.066484778349386,14.760665571198427,2.3084882535756153,14.375861287839264,2.5568766776729275,13.987080589074331,2.8116068103706127,13.594806009429096,3.0726138222656534,13.199525557233262,3.3398101410746506,12.80172912156878,3.6130842978857807,12.401904879217806,3.8922997734107385,12.000535701610684,4.177293844236672,11.59809556177396,4.46787642907814,11.192299410990824,4.76430551178187,10.781303431436893,5.066954495850433,10.366172048832922,5.375711116243721,9.94788382760933,5.6903655217827485,9.527328537037963,6.010611944013961,9.105304383632278,6.336050550132853,8.682515436644053,6.666189488581448,8.259569273484733,7.000447135934358,7.836974871899562,7.338154553688062,7.415140775722611,7.678558163568022,6.994373561040803,8.020822649968364,6.574876629595094,8.36403409813868,6.156749356246912,8.707203376732666,5.739986617337962,9.049269773333268,5.324478726771536,9.389104891568884,4.910011806643473,9.725516818435421,4.496268619250822,10.057254570438722,4.082829887306408,10.383012827172102,3.6691761291873703,10.701436960943624,3.2546900360458135,11.011128371067738,2.838659417609687,11.310650131435985,2.420280743502044,11.598532959981375,1.998663306906722,11.873281518651105,1.5728340374086844,12.133381052502287,1.1417429898370433,12.37730437653532,0.7042695359389235,12.603519218879542,0.2592292857123102,12.810495928945866,-0.19461823477405016,12.996715559160972,-0.6585611222455077,13.160678328897832,-1.1339258249430593,13.300912479217054,-1.6220670343734649,13.415983527033838,-2.124356713259744,13.50450392732516,-2.6421722328640342,13.565143151991755,-3.1768835928546046,13.596638193989676,-3.7298396968889316,13.597804505346016,-4.302353657084736,13.56754737767341,-4.895687100550823,13.504873773798053,-5.5110334511496255,13.408904619115827,-6.149500159663335,13.278887561291185,-6.812089855535458,13.114210206913537,-7.499680393359755,12.914413843725601,-8.213003767288345,12.679207657038596,-8.952623866530926,12.408483448948772,-9.718913045116945,12.102330868969965,-10.512027479092643,11.761053164696879,-11.331881284324792,11.385183461113694,-12.178119368083074,10.975501577162646,-13.050088987572893,10.533051388187314,-13.94680998859059,10.059158742865122,-14.866943697472877,9.555449943243874,-15.530147886667407,9.250017320805618,-16.200385198224023,8.929934101515405,-16.876690256765862,8.596037913625949,-17.557981529103618,8.24925619962092,-18.243057399170908,7.890608957648787,-18.93059224295965,7.5212114829566765,-19.619132503455443,7.142277109324258,-20.307092765572932,6.755119950497578,-20.992751831091184,6.361157641622933,-21.674248793589058,5.961914080680735,-22.3495791133806,5.559022169919363,-23.016590692450386,5.154226557289029,-23.672979949388917,4.749386377875643,-24.316287894327996,4.346477995334668,-24.943896203876072,3.9475977433249874" fill="white" stroke="white" stroke-width="0" stroke-linejoin="round" filter="url(#fuzzy)"></polyline></g><g transform="translate(-29.999638609980313 -24.253423814157372)"><polyline id="leftCountour" points="27.49853374769231,-8.13450151814385,27.02675091392673,-8.341131863605487,26.536049189900776,-8.547781049421836,26.027710353498147,-8.753230750419107,25.502965555831313,-8.95634334281208,24.962996298237634,-9.15605990578645,24.408935409275454,-9.351398223081151,23.841868021720213,-9.541450784570712,23.262832549560546,-9.725382787847574,22.672821664994398,-9.902430139804443,22.072783275425127,-10.07189745821662,21.463621500457595,-10.233156073324338,20.8461976488943,-10.38564202941511,20.221331195731445,-10.52885408640605,19.589800759155093,-10.662351721426225,18.952345077537213,-10.785753130398984,18.19473790258342,-11.02904992929814,17.43148844051462,-11.25119223747488,16.663627320174594,-11.451465031581783,15.892116428876252,-11.629361239069228,15.117853993791591,-11.784566143570995,14.34167939296822,-11.916942367377697,13.564377702456262,-12.026515420726426,12.786683986029365,-12.11345980763512,12.009287333983606,-12.17808567801002,11.232834657498135,-12.220826015754712,10.457934245041224,-12.242224352609135,9.685159087305614,-12.242922997447033,8.915049977156848,-12.223651770760263,8.148118391078425,-12.185217234058422,7.384849158597525,-12.128492403912166,6.625702926175093,-12.054406940368757,5.871118422044062,-11.963937799468166,5.121514528479505,-11.858100339588258,4.377292167984449,-11.737939871347425,3.638836009875195,-11.604523640793175,2.9065160037498665,-11.45893323560501,2.180688746323994,-11.302257404040152,1.4616986881169152,-11.135585276350463,0.7498791864727492,-10.959999978399015,0.04555341139973379,-10.776572627204777,-0.6509648892882653,-10.586356698143815,-1.339370759044372,-10.390382753535466,-2.019367529391568,-10.189653522341903,-2.690666437972129,-9.985139320709562,-3.3529863613597524,-9.777773803080814,-4.006053656150703,-9.56845003360436,-4.649602101850094,-9.358016867572776,-5.283372939069629,-9.147275632615626,-5.9071149965529095,-8.936977099376604,-6.520584900544668,-8.727818731403124,-7.123547360019998,-8.520442203976796,-7.715775521289926,-8.31543118161323,-8.297051385499493,-8.113309343959603,-8.867166282534559,-7.914538649818411,-9.425921394853562,-7.7195178290258735,-9.973128324760486,-7.528581091913381,-10.508609698635205,-7.341997046080461,-11.03219980163744,-7.159967810207691,-11.5437452364006,-6.982628314637965,-12.043105599231648,-6.810045778454592,-12.53015416733328,-6.6422193527846325,-13.004778590564612,-6.479079920055916,-13.466881581256573,-6.3204900389361836,-13.916381595598267,-6.166244024682783,-14.353213500110542,-6.016068154631352,-14.778583353358105,-5.869959833879082,-15.193647835528264,-5.728106723021428,-15.598286056960617,-5.59045760939662,-15.992385308001491,-5.4569463458487855,-16.37584192736709,-5.327493226383855,-16.74856217050672,-5.202006361825479,-17.110463077965953,-5.0803830554709375,-17.46147334374983,-4.962511178747049,-17.801534183686023,-4.848270546866089,-18.130600203788056,-4.737534294481694,-18.448640268618483,-4.630170251344779,-18.75563836965206,-4.526042317959448,-19.051594493638923,-4.4250118412389,-19.336525490967826,-4.326938990161351,-16.675871591165855,-0.521609338676134,-16.48051208362885,-0.31334319647672615,-16.271827220015382,-0.09887547275895692,-16.049878630847743,0.12184205390436897,-15.814753373111056,0.3488421084194062,-15.566562250371991,0.5821407631525712,-15.305438132897446,0.8217362819118552,-15.031534277773215,1.067607963928137,-14.745022649022772,1.3197149878364804,-14.44609223772584,1.5779952556574592,-14.134947382137167,1.842364236778451,-13.811806087805206,2.1127138119349524,-13.476898347690785,2.3889111171918875,-13.130464462285818,2.6707973879249183,-12.772753359732018,2.958186802801749,-12.40253371767415,3.251329987792655,-12.018599726335818,3.5505930645889734,-11.621247430933906,3.85586901017264,-11.21077608686561,4.166954054739936,-10.787486529088653,4.483549326036,-10.351679551035442,4.805262676217502,-9.903654305604322,5.131610699875036,-9.443706740770962,5.4620209518468545,-8.972128082363032,5.79583437345555,-8.489203376541303,6.1323079357992665,-7.995210104530209,6.470617508729138,-7.490416882141101,6.809860964144388,-6.975082256631186,7.14906152223689,-6.449453613441333,7.487171349316661,-5.913766205355866,7.823075415849937,-5.368242316627413,8.15559562334147,-4.813090574609966,8.48349520869259,-4.248505421443225,8.805483434666655,-3.674666758331412,9.120220575093574,-3.0917397749595557,9.426323203444854,-2.499874976590486,9.722369793410968,-1.899208421385552,10.006906640112456,-1.2898621804922366,10.278454110576517,-0.6719450334417489,10.53551323211062,-0.04555341139973468,10.776572627204777,0.5892273991868024,11.000115803594035,1.2323217800032489,11.204628808112869,1.8836620187986886,11.38860825297298,2.5431862492916295,11.550569723096242,3.210836080507081,11.689056573134264,3.8865539030018352,11.802649122806235,4.570279859434838,11.889974259186728,5.261948466939564,11.94971545457488,5.96148487875525,11.9806232085768,6.668800772573888,11.981525923032605,7.3837898530598665,11.95134121841979,8.106322955999143,11.889087700364515,8.836242741534823,11.793897184892435,9.573357963946057,11.665027391050641,10.317437305427108,11.501875109532369,11.06820276132352,11.303989855936003,11.825322564282224,11.071088017290094,12.588403634772504,10.803067500475878,13.356983545434694,10.500022891179006,14.130521986713497,10.162261132002005,14.9083917212328,9.790317728369136,15.68986901436891,9.384973490855236,16.474123528479037,8.94727182257014,17.260207668241957,8.478536560230301,18.047045364567726,7.980390377549217,18.684907523178254,7.679329612434952,19.319684653879364,7.363943903073329,19.95060172333972,7.0350763066441235,20.576827378270348,6.693659571130805,21.197472317545877,6.340718869549823,21.811587664325735,5.977374534179878,22.418163338175393,5.604844790791223,23.01612642718756,5.224448492874943,23.604339560103426,4.8376078558722355,24.18159927843386,4.445851191403712,24.746634408580636,4.050815641498657,25.298104433957665,3.654249912824339,25.8345978671122,3.2580170109152835,26.354630621846052,2.8640969744025604,26.85664438533682,2.4745896092430772" fill="white" stroke="white" stroke-width="0" stroke-linejoin="round" filter="url(#fuzzy)"></polyline></g><g transform="translate(39.78699938270009 -20.837502247347395)"><polyline id="rightUpper" points="-32.580360329172635,-5.83616412651706,-32.45081982473252,-6.011583644911987,-32.29642613672621,-6.212469120070863,-32.117274540127354,-6.4356580768229,-31.91349705524851,-6.678137032277862,-31.68526131380398,-6.937038539199463,-31.432769424972694,-7.209638229378772,-31.15625684146105,-7.493351857007607,-30.855991225565752,-7.785732342051932,-30.53227131523674,-8.08446681362527,-30.18542579013998,-8.387373653362083,-29.815812137720346,-8.69239953879119,-29.423815519264515,-8.997616486709155,-29.00984763596377,-9.301218896553692,-28.574345594976915,-9.601520593777058,-28.117770775493106,-9.89695187321946,-27.640607694794706,-10.186056542482454,-27.143362874320157,-10.467488965302339,-26.626563705726845,-10.740011104923557,-26.09075731695396,-11.002489567472104,-25.536509438285343,-11.253892645328909,-24.964403268412354,-11.493287360503253,-24.375038340496747,-11.719836508006155,-23.769029388233506,-11.932795699223789,-23.147005211913715,-12.131510405290854,-22.509607544487437,-12.31541300046401,-21.844842930168515,-12.676665301860602,-21.153432600269095,-13.006779947624743,-20.436306805272107,-13.30469914870594,-19.694534896902024,-13.569672336182714,-18.92931137329758,-13.801233092155888,-18.141942438766222,-13.999176935807736,-17.333833069895263,-14.163539949383559,-16.506474579794613,-14.294578228852242,-15.661432672246018,-14.392748144002361,-14.800335977533818,-14.458687392730436,-13.924865061732001,-14.493196834277835,-13.036741901222651,-14.497223086172959,-12.137719814220592,-14.4718418696352,-11.229573841079194,-14.418242088197367,-10.31409156515229,-14.337710624302956,-9.39306436598712,-14.231617838634998,-8.468279096623204,-14.101403756932989,-7.541510176772123,-13.948564929054433,-6.614512093653074,-13.774641945037622,-5.68901230225919,-13.581207592922187,-4.766704516829503,-13.369855643083984,-3.8492423853015008,-13.142190243840899,-2.9382335385192078,-12.89981591308613,-2.03523400597171,-12.644328110705482,-1.1417429898370433,-12.37730437653532,-0.25919798910640957,-12.100296018617646,0.6110297344364142,-11.814820336508921,1.467639356605467,-11.522353364399228,2.3094043657979526,-11.22432311879825,3.1351761207995317,-10.922103335544719,3.9438870996347095,-10.617007680895865,4.734553847687327,-10.310284421453405,5.506279633316284,-10.003111537682694,6.25825681919148,-9.696592265781554,6.989768957575194,-9.391751052655382,7.7001926177737765,-9.089529908755068,8.388998953984915,-8.790785143534325,9.055755021765435,-8.496284468282974,9.700124851344716,-8.206704451092758,10.321870286008851,-7.922628308712237,10.920851593780547,-7.6445440200473636,11.497027860619912,-7.372842746064249,12.05045717337115,-7.107817540850758,12.581296600680236,-6.849662338593431,13.089801980108689,-6.598471201226333,13.576327519668464,-6.354237811508398,14.041325222003056,-6.1168551962858135,14.485344139439928,-5.886115664696037,14.909029468139181,-5.6617109460699835,15.31312148956383,-5.443232512288972,15.698207339076692,-5.230686263048325,16.064423188368167,-5.0243597932909845,16.411920488494538,-4.824174533044015,16.74087248799701,-4.6300299845634045,17.051473131329526,-4.441805763865441,17.343935957286607,-4.2593636422580765,17.61849299743124,-4.082549587872313,17.87539367452267,-3.911195807193562,18.11490370094426,-3.745122786593029,18.337303977131388,-3.5841413338590815,18.542889489999208,-3.4280546197286195,18.731968211370585,-3.2766602194184538,18.90485999640385,-3.129752154156675,19.061895482020727,-2.987122932714029,19.203414985334128,-2.8485655929352895,19.32976740207603,-2.713875743270629,19.44130910502528,-2.5828536043069934,19.538402842435506,-2.4553060502994777,19.62141663646289,-2.3310486507026944,19.690722681594064,-2.209907711702147,19.74669624307394,-2.0917223177456075,19.789714555333557,-1.9763463730744841,19.82015572041791,-1.8636506432551987,19.838397606413857,-1.7535247967105563" fill="none" stroke="black" stroke-width="1.6666666666666665" stroke-linejoin="round" filter="url(#fuzzy)"></polyline><polyline id="rightLower" points="-29.65868675814949,0.7328027104360664,-29.36994238538675,0.9477497799319345,-29.029688285316624,1.194889782185295,-28.642351995118396,1.47077590464073,-28.212162467801775,1.7721087190848523,-27.74315399727149,2.0957334402124435,-27.239170143391934,2.438637184192591,-26.70386765705179,2.797946227234828,-26.140720405228656,3.1709232641552676,-25.553023296053652,3.5549646669427535,-24.943896203876072,3.9475977433249874,-24.316287894327996,4.346477995334668,-23.672979949388917,4.749386377875643,-23.016590692450386,5.154226557289029,-22.3495791133806,5.559022169919363,-21.674248793589058,5.961914080680735,-20.992751831091184,6.361157641622933,-20.307092765572932,6.755119950497578,-19.619132503455443,7.142277109324258,-18.93059224295965,7.5212114829566765,-18.243057399170908,7.890608957648787,-17.557981529103618,8.24925619962092,-16.876690256765862,8.596037913625949,-16.200385198224023,8.929934101515405,-15.530147886667407,9.250017320805618,-14.866943697472877,9.555449943243874,-13.94680998859059,10.059158742865122,-13.050088987572893,10.533051388187314,-12.178119368083074,10.975501577162646,-11.331881284324792,11.385183461113694,-10.512027479092643,11.761053164696879,-9.718913045116945,12.102330868969965,-8.952623866530926,12.408483448948772,-8.213003767288345,12.679207657038596,-7.499680393359755,12.914413843725601,-6.812089855535458,13.114210206913537,-6.149500159663335,13.278887561291185,-5.5110334511496255,13.408904619115827,-4.895687100550823,13.504873773798053,-4.302353657084736,13.56754737767341,-3.7298396968889316,13.597804505346016,-3.1768835928546046,13.596638193989676,-2.6421722328640342,13.565143151991755,-2.124356713259744,13.50450392732516,-1.6220670343734649,13.415983527033838,-1.1339258249430593,13.300912479217054,-0.6585611222455077,13.160678328897832,-0.19461823477405016,12.996715559160972,0.2592292857123102,12.810495928945866,0.7042695359389235,12.603519218879542,1.1417429898370433,12.37730437653532,1.5728340374086844,12.133381052502287,1.998663306906722,11.873281518651105,2.420280743502044,11.598532959981375,2.838659417609687,11.310650131435985,3.2546900360458135,11.011128371067738,3.6691761291873703,10.701436960943624,4.082829887306408,10.383012827172102,4.496268619250822,10.057254570438722,4.910011806643473,9.725516818435421,5.324478726771536,9.389104891568884,5.739986617337962,9.049269773333268,6.156749356246912,8.707203376732666,6.574876629595094,8.36403409813868,6.994373561040803,8.020822649968364,7.415140775722611,7.678558163568022,7.836974871899562,7.338154553688062,8.259569273484733,7.000447135934358,8.682515436644053,6.666189488581448,9.105304383632278,6.336050550132853,9.527328537037963,6.010611944013961,9.94788382760933,5.6903655217827485,10.366172048832922,5.375711116243721,10.781303431436893,5.066954495850433,11.192299410990824,4.76430551178187,11.59809556177396,4.46787642907814,12.000535701610684,4.177293844236672,12.401904879217806,3.8922997734107385,12.80172912156878,3.6130842978857807,13.199525557233262,3.3398101410746506,13.594806009429096,3.0726138222656534,13.987080589074331,2.8116068103706127,14.375861287839264,2.5568766776729275,14.760665571198427,2.3084882535756153,15.141019971482585,2.066484778349386,15.516463680930812,1.830889056880694,15.88655214474241,1.601704612419784,16.250860654129028,1.3789168403287606,16.608987939366575,1.162494161829644,16.9605597628473,0.9523891777524138,17.305232512131802,0.7485398222830781,17.642696793000997,0.5508705167117269,17.97268102250817,0.35929332318058504,18.294955022031004,0.17370909843207682,18.609333610323528,-0.005991352443126541,18.915680196568196,-0.17992612225804683,19.213910373427872,-0.34822104798134257,19.503995510097834,-0.5110085569892457,19.78596634535782,-0.6684265133175176,20.059916580624005,-0.8206170639133825" fill="none" stroke="black" stroke-width="2.2222222222222223" stroke-linejoin="round" filter="url(#fuzzy)"></polyline><!--[--><circle r="3.7464316016412784" cx="-26.783286601972925" cy="-1.7108498473210094" stroke="black" fill="none" stroke-width="1" filter="url(#fuzzy)" clip-path="url(#rightEyeClipPath)"></circle><circle r="4.155591884865654" cx="-22.393325873589223" cy="-5.904177094822141" stroke="black" fill="none" stroke-width="1" filter="url(#fuzzy)" clip-path="url(#rightEyeClipPath)"></circle><circle r="4.578454364948162" cx="-22.50770154624859" cy="-6.245289225530223" stroke="black" fill="none" stroke-width="1" filter="url(#fuzzy)" clip-path="url(#rightEyeClipPath)"></circle><circle r="4.406314097131162" cx="-25.069695971614145" cy="-1.9240687052918313" stroke="black" fill="none" stroke-width="1" filter="url(#fuzzy)" clip-path="url(#rightEyeClipPath)"></circle><circle r="4.748906548570353" cx="-27.089889992903704" cy="-2.0983946338678265" stroke="black" fill="none" stroke-width="1" filter="url(#fuzzy)" clip-path="url(#rightEyeClipPath)"></circle><circle r="3.1817161272941306" cx="-23.084208636724703" cy="-4.0727816839946005" stroke="black" fill="none" stroke-width="1" filter="url(#fuzzy)" clip-path="url(#rightEyeClipPath)"></circle><circle r="3.1585414108908156" cx="-26.983055647811156" cy="-6.4933948571036915" stroke="black" fill="none" stroke-width="1" filter="url(#fuzzy)" clip-path="url(#rightEyeClipPath)"></circle><circle r="3.0583775663480512" cx="-26.648174061678432" cy="-4.443099193419696" stroke="black" fill="none" stroke-width="1" filter="url(#fuzzy)" clip-path="url(#rightEyeClipPath)"></circle><circle r="3.48505816161241" cx="-23.416789352108353" cy="-4.454233519318837" stroke="black" fill="none" stroke-width="1" filter="url(#fuzzy)" clip-path="url(#rightEyeClipPath)"></circle><circle r="3.457299145164936" cx="-26.080151034635435" cy="-4.107304075888627" stroke="black" fill="none" stroke-width="1" filter="url(#fuzzy)" clip-path="url(#rightEyeClipPath)"></circle><!--]--></g><g transform="translate(-29.999638609980313 -24.253423814157372)"><polyline id="leftUpper" points="30.85567789898788,-6.398968146259129,30.65541819331346,-6.519219029500837,30.42042240698132,-6.656550233092329,30.152532320373176,-6.8088265050026635,29.85352931713846,-6.974013278766096,29.52513536119043,-7.150174675064417,29.1690139737023,-7.335471503309287,28.7867712101033,-7.528159263224573,28.379956637074816,-7.7265861464286925,27.950064309546484,-7.929191038016945,27.49853374769231,-8.13450151814385,27.02675091392673,-8.341131863605487,26.536049189900776,-8.547781049421836,26.027710353498147,-8.753230750419107,25.502965555831313,-8.95634334281208,24.962996298237634,-9.15605990578645,24.408935409275454,-9.351398223081151,23.841868021720213,-9.541450784570712,23.262832549560546,-9.725382787847574,22.672821664994398,-9.902430139804443,22.072783275425127,-10.07189745821662,21.463621500457595,-10.233156073324338,20.8461976488943,-10.38564202941511,20.221331195731445,-10.52885408640605,19.589800759155093,-10.662351721426225,18.952345077537213,-10.785753130398984,18.19473790258342,-11.02904992929814,17.43148844051462,-11.25119223747488,16.663627320174594,-11.451465031581783,15.892116428876252,-11.629361239069228,15.117853993791591,-11.784566143570995,14.34167939296822,-11.916942367377697,13.564377702456262,-12.026515420726426,12.786683986029365,-12.11345980763512,12.009287333983606,-12.17808567801002,11.232834657498135,-12.220826015754712,10.457934245041224,-12.242224352609135,9.685159087305614,-12.242922997447033,8.915049977156848,-12.223651770760263,8.148118391078425,-12.185217234058422,7.384849158597525,-12.128492403912166,6.625702926175093,-12.054406940368757,5.871118422044062,-11.963937799468166,5.121514528479505,-11.858100339588258,4.377292167984449,-11.737939871347425,3.638836009875195,-11.604523640793175,2.9065160037498665,-11.45893323560501,2.180688746323994,-11.302257404040152,1.4616986881169152,-11.135585276350463,0.7498791864727492,-10.959999978399015,0.04555341139973379,-10.776572627204777,-0.6509648892882653,-10.586356698143815,-1.339370759044372,-10.390382753535466,-2.019367529391568,-10.189653522341903,-2.690666437972129,-9.985139320709562,-3.3529863613597524,-9.777773803080814,-4.006053656150703,-9.56845003360436,-4.649602101850094,-9.358016867572776,-5.283372939069629,-9.147275632615626,-5.9071149965529095,-8.936977099376604,-6.520584900544668,-8.727818731403124,-7.123547360019998,-8.520442203976796,-7.715775521289926,-8.31543118161323,-8.297051385499493,-8.113309343959603,-8.867166282534559,-7.914538649818411,-9.425921394853562,-7.7195178290258735,-9.973128324760486,-7.528581091913381,-10.508609698635205,-7.341997046080461,-11.03219980163744,-7.159967810207691,-11.5437452364006,-6.982628314637965,-12.043105599231648,-6.810045778454592,-12.53015416733328,-6.6422193527846325,-13.004778590564612,-6.479079920055916,-13.466881581256573,-6.3204900389361836,-13.916381595598267,-6.166244024682783,-14.353213500110542,-6.016068154631352,-14.778583353358105,-5.869959833879082,-15.193647835528264,-5.728106723021428,-15.598286056960617,-5.59045760939662,-15.992385308001491,-5.4569463458487855,-16.37584192736709,-5.327493226383855,-16.74856217050672,-5.202006361825479,-17.110463077965953,-5.0803830554709375,-17.46147334374983,-4.962511178747049,-17.801534183686023,-4.848270546866089,-18.130600203788056,-4.737534294481694,-18.448640268618483,-4.630170251344779,-18.75563836965206,-4.526042317959448,-19.051594493638923,-4.4250118412389,-19.336525490967826,-4.326938990161351,-19.610465944029283,-4.231684131425937,-19.87346903557877,-4.139109205108628,-20.12560741709991,-4.049079100318143,-20.366974077167672,-3.9614630308518564,-20.597683209811535,-3.876135910851715,-20.817871082878693,-3.792979730460144,-21.027696906397257,-3.711884931475964,-21.227343700939397,-3.6327517830102996,-21.41701916598458,-3.5554917571424927,-21.59695654828272,-3.4800289045760127" fill="none" stroke="black" stroke-width="2.2222222222222223" stroke-linejoin="round" filter="url(#fuzzy)"></polyline><polyline id="leftLower" points="30.48657763131339,-0.6247222424063397,30.267954776141227,-0.42313470403086484,30.011289203838324,-0.18894770136959593,29.7189710268022,0.07439090375154844,29.393299852018316,0.3635803591253346,29.03648640893891,0.6754642879339325,28.650654177361776,1.007027954519626,28.237841015308984,1.3553955301555263,27.800000786905734,1.7178273588162938,27.339004990259106,2.091717222948848,26.85664438533682,2.4745896092430772,26.354630621846052,2.8640969744025604,25.8345978671122,3.2580170109152835,25.298104433957665,3.654249912824339,24.746634408580636,4.050815641498657,24.18159927843386,4.445851191403712,23.604339560103426,4.8376078558722355,23.01612642718756,5.224448492874943,22.418163338175393,5.604844790791223,21.811587664325735,5.977374534179878,21.197472317545877,6.340718869549823,20.576827378270348,6.693659571130805,19.95060172333972,7.0350763066441235,19.319684653879364,7.363943903073329,18.684907523178254,7.679329612434952,18.047045364567726,7.980390377549217,17.260207668241957,8.478536560230301,16.474123528479037,8.94727182257014,15.68986901436891,9.384973490855236,14.9083917212328,9.790317728369136,14.130521986713497,10.162261132002005,13.356983545434694,10.500022891179006,12.588403634772504,10.803067500475878,11.825322564282224,11.071088017290094,11.06820276132352,11.303989855936003,10.317437305427108,11.501875109532369,9.573357963946057,11.665027391050641,8.836242741534823,11.793897184892435,8.106322955999143,11.889087700364515,7.3837898530598665,11.95134121841979,6.668800772573888,11.981525923032605,5.96148487875525,11.9806232085768,5.261948466939564,11.94971545457488,4.570279859434838,11.889974259186728,3.8865539030018352,11.802649122806235,3.210836080507081,11.689056573134264,2.5431862492916295,11.550569723096242,1.8836620187986886,11.38860825297298,1.2323217800032489,11.204628808112869,0.5892273991868024,11.000115803594035,-0.04555341139973468,10.776572627204777,-0.6719450334417489,10.53551323211062,-1.2898621804922366,10.278454110576517,-1.899208421385552,10.006906640112456,-2.499874976590486,9.722369793410968,-3.0917397749595557,9.426323203444854,-3.674666758331412,9.120220575093574,-4.248505421443225,8.805483434666655,-4.813090574609966,8.48349520869259,-5.368242316627413,8.15559562334147,-5.913766205355866,7.823075415849937,-6.449453613441333,7.487171349316661,-6.975082256631186,7.14906152223689,-7.490416882141101,6.809860964144388,-7.995210104530209,6.470617508729138,-8.489203376541303,6.1323079357992665,-8.972128082363032,5.79583437345555,-9.443706740770962,5.4620209518468545,-9.903654305604322,5.131610699875036,-10.351679551035442,4.805262676217502,-10.787486529088653,4.483549326036,-11.21077608686561,4.166954054739936,-11.621247430933906,3.85586901017264,-12.018599726335818,3.5505930645889734,-12.40253371767415,3.251329987792655,-12.772753359732018,2.958186802801749,-13.130464462285818,2.6707973879249183,-13.476898347690785,2.3889111171918875,-13.811806087805206,2.1127138119349524,-14.134947382137167,1.842364236778451,-14.44609223772584,1.5779952556574592,-14.745022649022772,1.3197149878364804,-15.031534277773215,1.067607963928137,-15.305438132897446,0.8217362819118552,-15.566562250371991,0.5821407631525712,-15.814753373111056,0.3488421084194062,-16.049878630847743,0.12184205390436897,-16.271827220015382,-0.09887547275895692,-16.48051208362885,-0.31334319647672615,-16.675871591165855,-0.521609338676134,-16.857871218448267,-0.7237364612867259,-17.02650522752342,-0.9198003107217096,-17.181798346545392,-1.1098886618592614,-17.32380744965635,-1.294100162023835,-17.452623236867826,-1.472543174967473,-17.56837191394205,-1.6453346248511123,-17.671216872273245,-1.8125988402258932,-17.761360368768905,-1.9744663980144699,-17.839045205731168,-2.131072967492318,-17.90455641073806,-2.282558154269043" fill="none" stroke="black" stroke-width="2.2222222222222223" stroke-linejoin="round" filter="url(#fuzzy)"></polyline><!--[--><circle r="3.6115711723989126" cx="-3.180768501072819" cy="8.182813208593213" stroke="black" fill="none" stroke-width="1" filter="url(#fuzzy)" clip-path="url(#leftEyeClipPath)"></circle><circle r="4.350130296387942" cx="0.19329710176121973" cy="7.772432230324439" stroke="black" fill="none" stroke-width="1" filter="url(#fuzzy)" clip-path="url(#leftEyeClipPath)"></circle><circle r="4.1936576062254485" cx="-3.5192429610113316" cy="3.641552857719234" stroke="black" fill="none" stroke-width="1" filter="url(#fuzzy)" clip-path="url(#leftEyeClipPath)"></circle><circle r="3.8511960344102665" cx="-3.695024581355404" cy="5.287554635336031" stroke="black" fill="none" stroke-width="1" filter="url(#fuzzy)" clip-path="url(#leftEyeClipPath)"></circle><circle r="4.991563987093226" cx="-3.6378461466194265" cy="5.5950399764879215" stroke="black" fill="none" stroke-width="1" filter="url(#fuzzy)" clip-path="url(#leftEyeClipPath)"></circle><circle r="4.288471487556911" cx="-2.4124197275240578" cy="7.01682424188753" stroke="black" fill="none" stroke-width="1" filter="url(#fuzzy)" clip-path="url(#leftEyeClipPath)"></circle><circle r="4.575954779520194" cx="-0.5320776326513315" cy="7.031621949794822" stroke="black" fill="none" stroke-width="1" filter="url(#fuzzy)" clip-path="url(#leftEyeClipPath)"></circle><circle r="4.329944575436429" cx="-1.8039116098924008" cy="4.811674351705381" stroke="black" fill="none" stroke-width="1" filter="url(#fuzzy)" clip-path="url(#leftEyeClipPath)"></circle><circle r="3.1130344407822435" cx="-1.5824191385935449" cy="8.2295726381365" stroke="black" fill="none" stroke-width="1" filter="url(#fuzzy)" clip-path="url(#leftEyeClipPath)"></circle><circle r="3.519890826988497" cx="0.047607810009588025" cy="8.424978442631115" stroke="black" fill="none" stroke-width="1" filter="url(#fuzzy)" clip-path="url(#leftEyeClipPath)"></circle><!--]--></g><g id="hairs"><!--[--><polyline points="58,-39,43.341460422680676,-54.44091964481561,21.171485124894588,-64.37755045865973,4.790568891726326,-69.94632659091914,-2.9622556779378084,-73.20244623051819,-4.525949705107297,-74.90152242470478,-3.44698262718883,-75.5695128788091,-2.3539313634945076,-75.84477649484359,-2.115671299771076,-76.24533556597311,-2.336963653564453,-76.93675231933594,-2.494636681184152,-77.73502645385602,-2.4060048816256154,-78.27763591367093,-1.7332605297496286,-78.2012264999232,0.2798922076591387,-77.27553024545558,3.686443224169281,-75.60360438818753,6.431915523003655,-73.80133739646095,6.638446753882899,-72.13243068971707,12.671369767210372,-66.74304136925555,57,-45" fill="none" stroke="rgb(220, 208, 186)" stroke-width="2" stroke-linejoin="round" filter="url(#fuzzy)"></polyline><polyline points="-52,-49,-28.06066030191248,-53.66042820339241,-2.7630513243657653,-63.1057735337693,8.010259182835096,-70.28773590967873,10.00478215788551,-72.93097776937749,8.607844778356746,-72.41784205862541,5.836098030641737,-70.87171015110961,2.352272754469081,-69.59214122977221,-0.7387246876007255,-68.94570634557891,-1.8768905975504802,-68.83981113774881,-0.29344680163067133,-69.1325669949751,3.0173817174739304,-69.7823463851387,5.894668411374269,-70.74020402029879,7.075374907308112,-71.68834671620402,7.99809083298511,-71.94116917757238,12.12356176559361,-70.90768009105963,21.007514490292092,-69.01042131388658,29.29134931923583,-68.15933893041704,23.288724572952752,-71.36126921080215,-15,-84" fill="none" stroke="rgb(220, 208, 186)" stroke-width="2" stroke-linejoin="round" filter="url(#fuzzy)"></polyline><polyline points="57,-41,39.64822493251685,-63.18702405337096,31.4560352707941,-67.178978219419,22.649356826534902,-67.29325808476158,16.780566960243778,-66.7335883331459,14.003986139194188,-66.68139737755546,11.604937862852745,-67.80546331023275,7.658632186356017,-70.05139380125951,2.209475778455832,-72.71292062515954,-3.4267134720960444,-74.96021130960467,-7.583469681518566,-76.3688091118235,-8.819975408474303,-77.07508499036392,-6.412269465007009,-77.4722735301559,-0.9501554564478873,-77.65962108251709,5.287983617549555,-77.12471448380211,8.819004374990886,-75.18136042931127,6.751630636876143,-72.19376992080056,-0.43862095730990536,-70.52454975914534,-9.001646780470075,-72.68639091196474,-34,-72" fill="none" stroke="rgb(220, 208, 186)" stroke-width="2" stroke-linejoin="round" filter="url(#fuzzy)"></polyline><polyline points="-47,-57,-41.0021374936082,-63.971956620173025,-34.84436642025178,-66.35572965538822,-24.823128871836595,-65.13830865591285,-13.103346061294703,-61.751169990416855,-2.9608012197332028,-58.6264981105624,4.356979782721989,-57.520593211159415,9.494219496958994,-58.76849146811746,13.43492127243969,-61.68803488962067,16.41054798299871,-65.40352460405903,17.978944189780343,-69.36530915271689,17.828355515456945,-73.32322148474206,16.335099963540845,-77.02487640210308,14.301426124758772,-80.04653027613328,12.226272959150291,-81.89426066371423,10.035226129751107,-82.19156889923524,7.808076597241142,-80.76599665324618,6.912000438709001,-77.77564255827353,9.92982237015138,-74.2568011773247,17.756734678529224,-72.96623092057139,24.627598889705162,-77.49783331628714,23,-84" fill="none" stroke="rgb(220, 208, 186)" stroke-width="2" stroke-linejoin="round" filter="url(#fuzzy)"></polyline><polyline points="1,-87,-5.0891348683507145,-82.80468802761634,2.8373304653607536,-79.34392771535829,6.1655018275143725,-76.31260011701869,5.366120703939059,-73.84377040909098,6.750400919038645,-71.30043152415728,12.323058027495426,-68.39836797989682,18.71984918946373,-65.74458294773628,21.570446623524997,-64.27649400484086,19.672659943653375,-64.27491734490317,15.60123924421561,-65.15752837480933,12.96886502164882,-66.3546947170144,13.015676615032831,-68.02206831434137,12.327606674834616,-70.09957360934354,-0.3346797668066337,-69.80763954557683,-47,-57" fill="none" stroke="rgb(220, 208, 186)" stroke-width="2" stroke-linejoin="round" filter="url(#fuzzy)"></polyline><polyline points="14,-87,9.91006720704979,-86.04543440967443,8.364800510991408,-81.7334157372292,13.459333033122796,-75.08589776030334,20.162850602650884,-68.54047149954769,22.412716256708336,-63.96866924638198,18.476281065966962,-61.64701939361065,10.941893729333293,-60.40336002758325,4.202309330476368,-58.84048515309804,1.6359724627149066,-56.583790040818336,3.7329931259155273,-54.58352088928223,8.006256856033481,-54.37320265664716,10.85668395431956,-56.93491470321541,10.330578853329179,-61.95745665206274,7.785027995958625,-67.87473738968329,6.967141191772498,-72.54263922204882,10.871173995118111,-74.20719515653411,18.398049339448345,-72.69728877140614,22.65898922193609,-70.8903308184046,11.80765800134724,-74.46542929751399,-23,-80" fill="none" stroke="rgb(220, 208, 186)" stroke-width="2" stroke-linejoin="round" filter="url(#fuzzy)"></polyline><polyline points="-33,-73,-20.420995250035787,-73.2007180468673,2.9323100289785455,-67.78195076988739,20.565462247658797,-61.72147438486405,28.71774971790372,-58.50117396521576,29.184973461121476,-57.853669185330425,23.807740088239758,-58.69831118473179,14.365284894548475,-60.23430446157854,3.6976402675264146,-61.97136464961111,-4.665053032132921,-63.701419202761244,-8.086356655689372,-65.47638358302358,-6.11959171295166,-67.43723368644714,-0.5102039263008086,-69.5469242182741,5.990843605693175,-71.41860789863672,11.097784474304502,-72.38395794510635,13.806717893105331,-71.81553317874337,14.287514955619432,-69.58589028367956,13.383685007417887,-66.42375407718025,12.44613319599108,-63.82001443258051,13.412414161722106,-63.15572856963553,17.249152876484324,-64.3108222890252,16.256953079164816,-66.37713352898818,-23,-79" fill="none" stroke="rgb(220, 208, 186)" stroke-width="2" stroke-linejoin="round" filter="url(#fuzzy)"></polyline><polyline points="-41,-66,-10.411922534068788,-78.76005335501803,5.565832628238713,-81.15659466259386,16.929688094872134,-78.5172359906663,25.64964997054481,-74.48194416542323,29.442415859666486,-71.51995392945715,26.796170715689772,-70.63449547966482,19.04402939941937,-71.42547900421724,9.83465877162318,-72.62642758388967,3.1995697021484375,-72.88093948364258,1.662840938421374,-71.42326857337258,5.496483296380884,-68.36641017202,13.313106883719819,-64.45213225158054,23.198217886088916,-60.47959885704907,33.17039507224514,-57.11021815582155,40.52153511917672,-55.679753391560965,41.71852879560148,-59.076767713581624,36.8068691471511,-68.69536409374442,42,-71" fill="none" stroke="rgb(220, 208, 186)" stroke-width="2" stroke-linejoin="round" filter="url(#fuzzy)"></polyline><polyline points="-5,-86,8.445300062991693,-65.50894146687821,0.16061147177371282,-59.81797436257105,-2.9710355922308684,-58.20559437498559,-5.203233083244413,-58.624055119464174,-8.098428718615773,-60.83211157185899,-9.030276075128391,-63.42936381528196,-6.794375350525004,-64.94695567360634,-3.565277099609375,-65.32191467285156,-2.3963993116164186,-65.94922635333802,-3.858972222099588,-68.42710480179747,-5.412552861781513,-73.08538118331742,-4.081943591590971,-78.48496733815409,0.532197049484455,-82.39099968231947,6.342514131787006,-83.61944217374278,10.010146112814335,-83.55099355143497,-3,-87" fill="none" stroke="rgb(220, 208, 186)" stroke-width="2" stroke-linejoin="round" filter="url(#fuzzy)"></polyline><polyline points="-46,-59,-30.581675771656133,-71.20579968432617,-27.63167270030259,-72.31574046746749,-21.035677410539265,-71.61903422943733,-11.376628673868254,-70.62350022397004,-2.539758197318622,-69.33110636939946,4.53264621813231,-67.90185728288333,11.105620807677319,-67.0008243875903,17.569381713867188,-67.36595153808594,22.30326500327216,-69.07203985988838,23.202311727925814,-71.21866846631036,19.95432704792206,-72.3182872968825,14.942273595137522,-71.10944394371472,11.598969561918704,-67.71747568331566,10.348108681420978,-65.51464218563564,7.04111178156802,-71.8453982566373,15,-86" fill="none" stroke="rgb(220, 208, 186)" stroke-width="2" stroke-linejoin="round" filter="url(#fuzzy)"></polyline><polyline points="3,-87,-0.42789079657636475,-85.22075264242024,-2.722011796072639,-82.97132424950883,-6.6022574749949445,-79.53631723586817,-7.297857145459556,-75.7608530741394,-4.299629937604829,-73.31024509480204,0.06875114694634267,-73.02445594910716,4.220241510129178,-74.23889352548102,8.246940237673357,-75.43556518221747,12.515074803804525,-75.35039347239328,16.27899904604623,-73.63618899331989,17.95975049315464,-70.80517168664457,16.835222173044667,-67.75083229456303,14.423016810889536,-65.35449068011583,13.776108714752,-64.45190379858482,16.558730951877276,-65.8447547052418,20.52411701431509,-69.51094898725766,21.825994022103146,-72.60927767948381,24.63065761057765,-67.68318577361862,57,-42" fill="none" stroke="rgb(220, 208, 186)" stroke-width="2" stroke-linejoin="round" filter="url(#fuzzy)"></polyline><polyline points="57,-42,2.9693771076637896,-59.34852433997643,-7.566807154350013,-61.92647574696045,-3.2510824192803294,-62.34358592710376,3.3411522238319264,-64.36813436524804,8.359577209931022,-68.25653747541618,11.161108564204646,-72.82667236734677,12.141212726625609,-76.82340163601475,11.390225768072026,-79.57994828496969,8.340177727478391,-80.93413376631274,2.654504588170893,-80.80472452455336,-4.4925823833821354,-78.93969844078791,-9.830671692344632,-75.06557925769702,-8.592898625930713,-69.27094779100742,3.411907040584472,-62.27578629232396,25.60353284871837,-55.495933421937465,47.408665167368426,-51.31061221110748,53,-53" fill="none" stroke="rgb(220, 208, 186)" stroke-width="2" stroke-linejoin="round" filter="url(#fuzzy)"></polyline><polyline points="44,-68,11.333540706928867,-73.20564757159583,15.62231142152079,-73.4440729550698,22.94715167010915,-71.10093929631994,25.115884499818993,-70.45893778500002,22.780956888649488,-72.49833326262176,18.401409071091887,-75.74361974872741,14.05020845319673,-78.30673859752065,10.967150257100087,-79.01420313544298,9.335019647029357,-77.69188813306954,8.318389076464536,-75.00329804555203,6.762209806245349,-71.9857876583483,4.2138421910439385,-69.41756936001585,1.2335721185752537,-67.34989366622797,-1.5181557140004358,-65.1772745950506,-4.085560036160664,-62.30485657240664,-5.356547970643613,-59.01015576339658,0.9937390986901766,-56.9579842439424,22.720776183187855,-59.62084614745295,37,-75" fill="none" stroke="rgb(220, 208, 186)" stroke-width="2" stroke-linejoin="round" filter="url(#fuzzy)"></polyline><polyline points="-46,-58,-7.967891787388409,-71.15252358545742,9.544096643265572,-73.38875714324932,9.811190188296125,-74.32887904666524,5.661589589934701,-75.26485162855361,4.710962316484539,-75.93674360272911,8.34961152136966,-75.82135358460991,14.926214786057272,-74.57425455445214,22.168739412383328,-72.31258116259323,28.284757179238913,-69.54322491750199,32.37649324734543,-66.80893594701497,34.39686984615777,-64.41702890741513,34.63335361247472,-62.51239644270387,33.070688683082736,-61.37892456398183,29.363011970180036,-61.55683449592595,23.81347993251287,-63.44481012085546,18.62743556131917,-66.5509250755325,17.65638289233768,-69.16738984050377,23.378472413834466,-69.41655059737379,32.9249068078471,-67.66145453962582,39.4718124146943,-67.16111448914684,48,-62" fill="none" stroke="rgb(220, 208, 186)" stroke-width="2" stroke-linejoin="round" filter="url(#fuzzy)"></polyline><polyline points="43,-70,-3.1689964117990517,-71.22856605461844,-21.82498921365156,-67.382653970477,-21.060565219788437,-64.57151521535177,-10.902466308508615,-63.680881568792465,-0.12158739238639985,-65.1846945950629,6.137745972838683,-68.4436336847245,6.708991839247075,-72.0256495118111,3.2643649477801433,-74.67905799820196,-1.3538858710653654,-75.88109617955207,-4.595224754483106,-75.7696916756381,-4.974524569742423,-74.81390778034869,-2.1549364869664682,-73.56373913490232,3.212148898308812,-72.55057149042543,9.603410996314453,-72.17823198216682,15.07178694757771,-72.43353969067688,18.445869978713,-72.56610670896634,20.211155480135478,-71.54897966714842,19.304539855569356,-71.11615605880935,-5,-86" fill="none" stroke="rgb(220, 208, 186)" stroke-width="2" stroke-linejoin="round" filter="url(#fuzzy)"></polyline><polyline points="9,-87,35.60366269240995,-68.29202951574099,46.75418275805555,-58.0694735018834,51.712058885490535,-50.96886177485645,52.271879615671196,-47.47294123469949,47.90188708005085,-48.353770887677115,38.577341918683366,-52.935164745773584,25.85743681123436,-59.39830543803991,12.47509600249297,-65.7623886004855,1.2502430284039063,-70.72742799131582,-5.829679309436034,-73.95800331124853,-8.025117635726929,-75.77601337432861,-5.844502828624237,-76.59191835238457,-0.7912341765212629,-76.54743575874566,5.056921438612288,-75.6424755152352,9.575948260921807,-74.18180443309376,11.196839411340608,-73.02540924345365,9.581431016630571,-73.20104784264178,6.058942889689529,-75.00698513246594,2.6085620020095455,-77.38355061871084,-1.9475830722778662,-78.2888895770115,-15.458961555099782,-75.60706751902423,-41,-66" fill="none" stroke="rgb(220, 208, 186)" stroke-width="2" stroke-linejoin="round" filter="url(#fuzzy)"></polyline><polyline points="16.941740431901728,-85.7052751260911,16.814490027575694,-85.74068931298548,15.92667121995126,-85.82662920270778,15.005738914166601,-85.96419122214121,14.090254039289528,-86.12322951733131,13.132781807718159,-86.28542947525453,12.144720890098284,-86.44073731070435,11.177308452314268,-86.57884784325861,10.270650045860384,-86.69039367388837,9.424973786909181,-86.77104914412214,8.60510584427341,-86.82275983990182,7.765779215340981,-86.8520392062486,6.87682537987669,-86.86738750702061,5.932431991026188,-86.8770357677489,4.94288678543513,-86.88712226931553,3.920198315438494,-86.90028059148409,2.87075704560713,-86.91502392233252,1.798497902678464,-86.92651913014639,0.7125718296649567,-86.92937643349454,-0.36299489911098837,-86.92329097862695,-1.3714917115244358,-86.92118491214856,-2.2235719920858465,-86.9499951893357,-3,-87" fill="none" stroke="rgb(220, 208, 186)" stroke-width="2" stroke-linejoin="round" filter="url(#fuzzy)"></polyline><polyline points="-8,-86,-7.112728137925645,-84.59089478814086,-6.131715392380827,-83.71470454153783,-4.959356192106752,-83.24261305214884,-3.766349102007834,-83.08777689012764,-2.6448901333910255,-83.05409750187647,-1.592905436556058,-83.0343498454211,-0.5760182845669899,-82.98022645076448,0.4290964489287114,-82.82832419055707,1.423914760127678,-82.48594036566615,2.395491568437926,-81.86497023143342,3.328999143341174,-80.93071411640207,4.21866217074923,-79.74091986596774,5.070806538452962,-78.4517459947704,5.8920831081057665,-77.2751187729625,6.66544870623888,-76.39462973902675,7.3385788210031375,-75.85966182044186,7.869060307909117,-75.47527244918156,8.36627487951446,-74.81046024140697,9.346413176249612,-73.9216314848833" fill="none" stroke="rgb(220, 208, 186)" stroke-width="2" stroke-linejoin="round" filter="url(#fuzzy)"></polyline><polyline points="5.279483990430735,-91.86302143349478,3.639779723463193,-91.90685827486807,2.3738094780448926,-91.84710147159164,1.2298320209316238,-91.53325188587979,0.12600741137181387,-90.94007150493107,-0.9505295090546729,-90.14421885472491,-2.0186675970572936,-89.27115310382835,-3.1108275049090297,-88.4370585851857,-4.235059435971292,-87.71495655040393,-5.347372786772727,-87.13049820844698,-6.371996646008998,-86.67145922047082,-7.262234118114272,-86.29522707016379,-8.058365923941121,-85.94089536417775,-8.893839499430495,-85.57280505197275,-9.911782631404218,-85.24628777657338,-11,-85,-27.616426118220037,-96.0571343242436,-27.59933008588761,-93.97023191190758,-27.91280823110133,-91.4987334061171,-28.43359493071298,-89.37995216975828,-28.956250606176148,-87.48826766882087,-29.382895725553396,-85.55502673917111,-29.698925776704883,-83.4796446925608,-29.968505445194012,-81.38984780229366,-30.309107736862586,-79.50954713392954,-30.8268516347233,-78.00452998593967,-31.54963236944119,-76.92701098218257,-32.40479232000503,-76.24755446728697,-33.257372735137075,-75.8873154594215,-33.97284080351882,-75.66600675944377,-34.39336763582381,-75.02354947227839,-34,-72" fill="none" stroke="rgb(220, 208, 186)" stroke-width="2" stroke-linejoin="round" filter="url(#fuzzy)"></polyline><polyline points="-13.85794986290679,-83.14769917744073,-14.816037993779641,-82.93550388543306,-15.785567372019743,-82.55162208506918,-16.78522862965132,-82.14653826143933,-17.820554799042192,-81.7231569194922,-18.873809580227842,-81.27586335917734,-19.917114936107964,-80.80823439410045,-20.93017489137537,-80.32964153252479,-21.906585277228295,-79.84734102798382,-22.84916057098972,-79.36048293187301,-23.76245746693962,-78.86129084664454,-24.648949419302603,-78.34281979723394,-25.509784559723006,-77.80669759360018,-26.347405622029942,-77.26391862300454,-27.167621793626232,-76.72718457191966,-27.980516055269693,-76.2000978322481,-28.799300127976597,-75.67200216368781,-29.634452795751425,-75.124876227577,-30.482359599017695,-74.55046266540872,-31.31629532492597,-73.9646974750903,-32.09632883417677,-73.39880051875919,-32.80989127477081,-72.85014534171451,-33.53251062891199,-72.19579487514955,-34.47854765218448,-71.10304111793478,-36,-69" fill="none" stroke="rgb(220, 208, 186)" stroke-width="2" stroke-linejoin="round" filter="url(#fuzzy)"></polyline><polyline points="56.058941780142526,-56.058941780142526,56.75309214798385,-53.699075718705316,57.10685893323755,-52.46221705217341,57.25849291056851,-51.50710319383146,57.414642433898486,-50.474028993528435,57.635330347641364,-49.23963589079775,57.90752993759119,-47.803133315998195,58.20781627660512,-46.233471028928165,58.520636056296986,-44.62261598817187,58.83697821778385,-43.043293487996664,59.15131342263474,-41.52362369145728,59.460625228747915,-40.046300554373865,59.76364964324135,-38.570389480253965,60.05870969492203,-37.063141521284386,60.340358858938814,-35.523190816697394,60.596887585115674,-33.98210958046472,60.81174841948099,-32.486838361978506,60.97041835053421,-31.078033821636545,61.07007182551508,-29.7763801153588,61.12653896731887,-28.573540493110784,61.17548638966175,-27.415969166191314,61.26917366997664,-26.182939842370853,61.46447048539968,-24.68017273529874,61.77303261970028,-22.66652643568181,62,-20" fill="none" stroke="rgb(220, 208, 186)" stroke-width="2" stroke-linejoin="round" filter="url(#fuzzy)"></polyline><polyline points="-54,-46,-53.773325912098926,-46.53363333472173,-53.349951519611,-47.35920858490939,-52.854271903411096,-48.18114409990573,-52.28700958725922,-49.078440827932,-51.65527136192009,-50.13622520400681,-50.98635567583216,-51.35773562371261,-50.30884065163016,-52.68141918146283,-49.64119950975121,-54.02164408206662,-48.99415663080839,-55.299133075167994,-48.37571335241205,-56.45706760878775,-47.789946240571865,-57.4697272615961,-47.23036340937591,-58.34940254240293,-46.6748023350304,-59.151049816720565,-46.08934394367781,-59.96530995463664,-45.445237007861955,-60.884312063406526,-44.7435648189065,-61.93560841929231,-44.02459852092522,-63.02275179556153,-43.32634388570159,-63.97393472579112,-42.600154542661485,-64.81227662108206,-41.76282311137532,-66.20935371315599" fill="none" stroke="rgb(220, 208, 186)" stroke-width="2" stroke-linejoin="round" filter="url(#fuzzy)"></polyline><polyline points="-54,-44,-54.522569842558845,-42.81961660610565,-54.59837580579333,-42.02016298565153,-54.740415840029364,-41.13854582502409,-55.05142449487284,-40.088550648574966,-55.46005623783315,-38.85244159817186,-55.891564886460934,-37.499473050073014,-56.29534906539313,-36.14229501448237,-56.636160225695114,-34.859127787548665,-56.895508843831536,-33.657630160414506,-57.07893069105555,-32.49353309235264,-57.215284196159566,-31.311476600053016,-57.34318741911854,-30.07346055843332,-57.490431210438345,-28.76448325809689,-57.65885965387213,-27.388349263081444,-57.82587907860721,-25.969964085137793,-57.96190061271108,-24.56304460059535,-58.04711755274491,-23.243635966024346,-58.069197754386174,-22.073031761062666,-58.00951270146978,-21.03789126264121,-57.85832022155371,-20.007720301154126,-57.684137125066215,-18.912831844284007,-51.716000287197026,-75.76995390914914,-51.35446077134651,-73.77475999518205,-51.852319032193265,-71.67418474091937,-52.20513152583328,-69.59197536243899,-52.310706308384525,-67.73249299192665,-52.2804039666268,-66.03547154206733,-52.21919625766964,-64.35750045000009,-52.24342895751497,-62.655502152023956,-52.4885577853013,-61.01161904741823,-53.04179117031323,-59.53268944932704,-53.86413211036123,-58.237685276286854,-54.78226394282529,-57.02813477640447,-55.568678830344155,-55.75602209035257,-56.05572782299151,-54.32455475469976,-56.203770900530515,-52.737580320463564,-56.083433193063314,-51.0653708456635,-55.80382736335451,-49.372052240071554,-55.45917471744135,-47.68304003272401,-55.133174175588735,-46.026298296014154,-54.91996110789957,-44.501242128612304,-54.88380519393879,-43.2941318361854,-54.96433963342013,-42.56674338450136,-55,-42,-45.21949315428711,-57.99891513267259,-45.47422690076833,-57.48775660147484,-46.003990205917034,-56.71557360869988,-46.64754305794173,-55.86277534832877,-47.37456959768755,-54.8886660977298,-48.15641094885519,-53.794297192827464,-48.96763380383546,-52.631612738269176,-49.78354377661763,-51.46842765465691,-50.574671464156246,-50.36099526795301,-51.31036969619682,-49.33683297838272,-51.968189441376666,-48.38881469032605,-52.54030110672732,-47.48340003703572,-53.033442201372175,-46.58064727818196,-53.46450734425717,-45.656857488747576,-53.85467153063304,-44.717910004634916,-54.22329486931863,-43.79396575417011,-54.58325996983731,-42.914183761127255,-54.941722888951276,-42.072517036661665,-55.30920387620686,-41.205438379927415,-55.71285954985725,-40.193682397564345,-56.206979128349516,-38.87033053590818,-56.894131729336436,-37.05110204450746,-58,-35,-57.79979633814562,-67.43309572783656,-58.43878123137917,-65.03446889613707,-58.925131752955096,-62.96734378836628,-59.106243349203304,-60.69097551076816,-59.495512067348784,-58.76699942224419,-60.2291773281704,-57.43128509886868,-61.08260130082861,-56.46639418007725,-61.73421469782719,-55.49434314190613,-61.95851541299073,-54.23035361408525,-61.69027768723415,-52.57925617048474,-61.00512952888686,-50.61430646664665,-60.069254692299914,-48.50350419579279,-59.08449776461646,-46.42482637224818,-58.23794497272249,-44.49504187626995,-57.666729341102275,-42.73541778700104,-57.44905428742334,-41.090618432030055,-57.60932508307767,-39.491183954463146,-58.090180695420344,-37.91935500131293,-58.65232041377105,-36.41840671549574,-58.78552370338982,-34.9534096016797,-58,-33" fill="none" stroke="rgb(220, 208, 186)" stroke-width="2" stroke-linejoin="round" filter="url(#fuzzy)"></polyline><polyline points="56.656214603835004,-58.83529978090558,57.218929222923805,-57.32892666691252,57.40226485566504,-55.955665608426244,57.38021815031399,-54.42994402935973,57.29080054599512,-53.00180325673241,57.257706369950505,-51.74989753458371,57.362079337333256,-50.59375074556917,57.62232244808365,-49.41449298504766,58.0014203709325,-48.127960466705964,58.435787512999006,-46.71078519248792,58.865077749773256,-45.197194653783306,59.24361096872244,-43.65189555213883,59.535059607285504,-42.12682182429523,59.71590101008024,-40.624313673389956,59.80693142861357,-39.09511652719788,59.9014575451427,-37.48165889747542,60.10657198419565,-35.779745346852145,60.36068824114494,-34.04977971902118,60.32844408521127,-32.273714622407226,60,-30,60,-33,60.47778550237881,-32.4508351879889,61.13543059611781,-31.44042541514775,62.116852223938366,-30.588049616622637,63.44872620507455,-29.97638113159443,64.838808157925,-29.376393463818882,65.96685607454182,-28.535026562235604,66.67644321434406,-27.345275570434545,67.0169052555514,-25.87189718318053,67.1718912698676,-24.279893864158023,67.33857966433142,-22.732488572223,67.6389242579451,-21.317415442153624,68.10898261518194,-20.02925699400931,68.74338587363353,-18.799080591029178,69.53148645673136,-17.54231669395615,70.44429962273063,-16.197892332349543,71.39375313779641,-14.74669398688775,72.23073433107591,-13.212633407891879,72.82865681824045,-11.655971368678696,73.20976054562595,-10.160112483796688,73.56788495434017,-8.792337002115367,74.05320969987643,-7.527564741508026,74.49471855202201,-6.298907087388905,74.9512279240834,-5.9485101527050315" fill="none" stroke="rgb(220, 208, 186)" stroke-width="2" stroke-linejoin="round" filter="url(#fuzzy)"></polyline><polyline points="42.83356045039203,-61.45684760273639,43.00632995071531,-60.36983132303338,43.62474635239244,-59.79291709148198,44.37217263389022,-59.421070481991194,45.11044850962843,-58.93708017224657,45.808442264366676,-58.293401190458354,46.495182351838615,-57.61117504644911,47.20267611514078,-56.99198397158203,47.933840516057934,-56.41386766896458,48.67260352292099,-55.76170486233966,49.420046496709475,-54.9408675613889,50.2149199348165,-53.97149457688155,51.10473763429016,-52.978814798297414,52.08156760977777,-52.07762521871071,53.04612563952593,-51.25779210968839,53.84417066227792,-50.44003711843198,54.293956665913065,-49.786725412544826,54,-50,29.677852025173628,-79.14093873379633,31.22186791364279,-78.44593059198598,32.296719012770886,-78.02900660609242,33.06300425115935,-77.67297494826823,33.69091295862421,-77.26693913444042,34.32651559115546,-76.75330458321199,35.03840256560892,-76.13649331353703,35.829066139697744,-75.45876746070944,36.677061342315525,-74.75778572423039,37.5671619186051,-74.04092471395836,38.49363972011944,-73.2904030912064,39.44609539437857,-72.48789809476627,40.39653911697708,-71.63648650356652,41.30189157017375,-70.7636609283091,42.12302324569938,-69.90431596149541,42.84784902282451,-69.07643287091972,43.50076612309125,-68.2667327960264,44.128524275931795,-67.43701555740954,44.76925687484121,-66.54931423428029,45.42557762631663,-65.59799112694901,46.06400133066073,-64.6340552687665,46.64980176595395,-63.76057105034605,47.212751005781,-63.02919496995273,48,-62,33,-79,33.93893867410847,-79.03546305875803,34.89846880533293,-79.81600578250941,36.06892331535681,-80.5994999749239,37.39078721383234,-81.10177441308949,38.716080812309,-81.2740291012703,39.91627629333661,-81.06820127830328,40.97296794209143,-80.48888179841428,41.97885777285115,-79.6685792607743,43.059804975372465,-78.83220055311517,44.286238513638345,-78.18463548318137,45.63694063088026,-77.81558141566845,47.02834647242935,-77.6792444042208,48.37405063745987,-77.64130877411685,49.627964639351724,-77.55015553640698,50.79024941362522,-77.29665503481496,51.88772415919722,-76.84997964740319,52.95049131490634,-76.26443767784164,53.99327113025856,-75.64379906943583,55.00192695969654,-75.0586305768561,55.94724312840569,-74.46533461576882,56.87721830968947,-73.7299388516527,58.1219178506731,-72.78311646430883,60.687009754138444,-71.61067150988336" fill="none" stroke="rgb(220, 208, 186)" stroke-width="2" stroke-linejoin="round" filter="url(#fuzzy)"></polyline><polyline points="27,-82,27.507484748023977,-81.71743383923159,28.321080762466355,-81.14035532080716,29.11055268304588,-80.25092220254815,29.794492835200852,-78.94901270150831,30.33724282633695,-77.33387967419222,30.76875592283788,-75.67688337157735,31.159834279946587,-74.21919998078428,31.572166674607377,-73.029850043947,32.034784158448694,-72.02633921762295,32.547553086498574,-71.08174030537407,33.090978946634976,-70.10196424960101,33.63524561676025,-69.0343660511653,34.15281894844563,-67.84526915940256,34.63178866105166,-66.51153087328753,35.077386999845615,-65.03367331153724,35.49687262329625,-63.452563628182666,35.88370092075455,-61.85690431866263,36.22281414893108,-60.37422308137872,36.51203627824243,-59.12068027241101,36.76285658078266,-58.088843191139006,36.973748522859424,-57.05489233867551,37.18590974803282,-55.73450225057728,37.81584477975579,-54.25751642312787,27,-82,27.463038741641174,-81.65546455802934,28.157680079684148,-80.83047083769785,28.80740922742863,-79.64241790992808,29.506713306403647,-78.38358213506709,30.30065843874044,-77.3242114130997,31.10903220849085,-76.51364056602341,31.81778832724662,-75.82654564258262,32.384847384245184,-75.11808032571636,32.87093332554588,-74.32449038654282,33.38597987345196,-73.46436291072771,34.00285544576974,-72.59162611971962,34.705686487314814,-71.7561395298228,35.40533925174967,-70.97429916361551,35.99173803824455,-70.18635844226509,36.34901151567503,-69.23468893737059,36.31592179104507,-67.9759561729818" fill="none" stroke="rgb(220, 208, 186)" stroke-width="2" stroke-linejoin="round" filter="url(#fuzzy)"></polyline><polyline points="9,-87,9.354746066903862,-85.30599209867654,10.337768723424873,-85.23490504200291,11.476337195639113,-85.472503763203,12.580999790277135,-85.59310061035302,13.588303892427168,-85.5128508155255,14.520391832303059,-85.25696315891774,15.429966552030159,-84.8680875315618,16.356985978734826,-84.36930745295513,17.31137130361135,-83.7637152195462,18.276537747519985,-83.05706388364797,19.224247628961134,-82.27937853738676,20.13154040591987,-81.48594678824541,20.991050434493847,-80.73710585683514,21.810030279226293,-80.0737184160887,22.60089779708898,-79.50669144148787,23.371231052676062,-79.02304429987699,24.119312194750858,-78.5931925717094,24.8359637234908,-78.1660531541408,25.511473022260528,-77.66550230125694,26.146282180374612,-77.0240820953681,26.754791938035968,-76.258408002778,27.34517218391747,-75.4832158369361,27.95856609759042,-74.55617626024112,9,-87,8.61252204846178,-87.09303993578285,7.712172208426533,-87.30223889846829,6.662236377595194,-87.5562325013858,5.617585193772581,-87.85827822505654,4.586538782423489,-88.20393745541682,3.5421356010631513,-88.56095956721312,2.472037132332033,-88.8964666321449,1.381117965103914,-89.19589569346647,0.2790651523158632,-89.45564946918346,-0.8303633040298368,-89.66555356064926,-1.9524814537844113,-89.80280136682039,-3.094631028894524,-89.84415842556537,-4.251592314667582,-89.78722180080926,-5.394881399463737,-89.66536714292972,-6.48090052418463,-89.54419851417587,-7.481887866346709,-89.4969041995433,-8.42015503902288,-89.57033515674303,-9.366106937003822,-89.76440238100929,-10.363072823868169,-90.03483432875812,-11.279735535975194,-90.29478168115665,-11.704123852218775,-90.44095703987234" fill="none" stroke="rgb(220, 208, 186)" stroke-width="2" stroke-linejoin="round" filter="url(#fuzzy)"></polyline><polyline points="-14.324961668239734,-80.2197853421425,-13.276796288729363,-80.42514263719961,-12.33887508296731,-80.915798526,-11.602187620968095,-81.42854660542537,-10.96767763076167,-81.9511039061051,-10.33240427339532,-82.51152695863048,-9.64750505303958,-83.11418919055056,-8.915473870208864,-83.72857421583086,-8.152965941488137,-84.30349683471125,-7.354056012781549,-84.7946970933342,-6.4832949169675125,-85.189380855533,-5.5043562042731065,-85.5124151889412,-4.422614022887994,-85.81030674295963,-3.302605240374344,-86.12135366491867,-2.2265816853954847,-86.44542093790709,-1.202298884322848,-86.73008405781374,-0.11963487518637557,-86.90451532675955,1,-87,1,-87,-0.11484239981382494,-86.80681486197676,-1.1915581675184994,-86.62581083758957,-2.200406967630653,-86.249601849802,-3.253976876046212,-85.70190029225189,-4.3501091513970325,-85.09307963347565,-5.402901405076506,-84.45992281386499,-6.337467705750615,-83.7433279721592,-7.141957225918015,-82.86216388712474,-7.8557957877215125,-81.78407908775746,-8.523052235373406,-80.54712321587377,-9.154962969789148,-79.24730533635636,-9.732721749201277,-78.01899386761211,-10.250725293201143,-77.00837582857488,-10.767992611018045,-76.31737542596383,-11.436596630484715,-75.9040338730457,-12.582639550385824,-75.49583730231495" fill="none" stroke="rgb(220, 208, 186)" stroke-width="2" stroke-linejoin="round" filter="url(#fuzzy)"></polyline><!--]--></g><g id="pointNose"><g id="rightNose"><!--[--><circle r="2.664915685154224" cx="9.99760301020212" cy="20.383225056354263" stroke="black" fill="none" stroke-width="1" filter="url(#fuzzy)"></circle><circle r="1.4542689721575641" cx="7.701384798964753" cy="21.480191210161234" stroke="black" fill="none" stroke-width="1" filter="url(#fuzzy)"></circle><circle r="2.2912026745806378" cx="9.49110141312795" cy="20.079863338819248" stroke="black" fill="none" stroke-width="1" filter="url(#fuzzy)"></circle><circle r="1.4496097372399772" cx="10.92860727644663" cy="21.66386401356483" stroke="black" fill="none" stroke-width="1" filter="url(#fuzzy)"></circle><circle r="2.190440347864896" cx="9.750599220662753" cy="23.290115026932124" stroke="black" fill="none" stroke-width="1" filter="url(#fuzzy)"></circle><circle r="1.6275366182310675" cx="8.76632934762921" cy="21.861016926543446" stroke="black" fill="none" stroke-width="1" filter="url(#fuzzy)"></circle><circle r="1.535069252445612" cx="8.190034702195332" cy="20.977653794324887" stroke="black" fill="none" stroke-width="1" filter="url(#fuzzy)"></circle><circle r="1.4087511704329165" cx="11.256014016384327" cy="22.287029634343092" stroke="black" fill="none" stroke-width="1" filter="url(#fuzzy)"></circle><circle r="1.4955018395828448" cx="9.66625627014016" cy="22.27190569330782" stroke="black" fill="none" stroke-width="1" filter="url(#fuzzy)"></circle><circle r="2.3562662911960066" cx="9.113967393259665" cy="21.33352498556816" stroke="black" fill="none" stroke-width="1" filter="url(#fuzzy)"></circle><!--]--></g><g id="leftNose"><!--[--><circle r="2.996208062406629" cx="-10.229626451053212" cy="21.398019804650623" stroke="black" fill="none" stroke-width="1" filter="url(#fuzzy)"></circle><circle r="1.57177595207893" cx="-8.524712912966192" cy="22.49989526787376" stroke="black" fill="none" stroke-width="1" filter="url(#fuzzy)"></circle><circle r="1.9496953160738562" cx="-9.753390390253724" cy="22.446822766437304" stroke="black" fill="none" stroke-width="1" filter="url(#fuzzy)"></circle><circle r="1.3232458003020708" cx="-8.984954220068367" cy="23.50685337213452" stroke="black" fill="none" stroke-width="1" filter="url(#fuzzy)"></circle><circle r="2.781122576545541" cx="-8.172275560992045" cy="22.136225862044288" stroke="black" fill="none" stroke-width="1" filter="url(#fuzzy)"></circle><circle r="2.3380618016137937" cx="-7.707321143343426" cy="24.889037630628884" stroke="black" fill="none" stroke-width="1" filter="url(#fuzzy)"></circle><circle r="2.1355850785770594" cx="-8.242228554030902" cy="22.416755548030586" stroke="black" fill="none" stroke-width="1" filter="url(#fuzzy)"></circle><circle r="1.0220809847335532" cx="-10.085117488630598" cy="22.151556850386733" stroke="black" fill="none" stroke-width="1" filter="url(#fuzzy)"></circle><circle r="1.441624872890399" cx="-7.547406106270193" cy="23.31690273269298" stroke="black" fill="none" stroke-width="1" filter="url(#fuzzy)"></circle><circle r="1.7780023598092058" cx="-9.674896430002207" cy="24.105824376304383" stroke="black" fill="none" stroke-width="1" filter="url(#fuzzy)"></circle><!--]--></g></g><g id="mouth"><polyline points="17.1270802341213,56.057604291310085,17.10265006486938,57.188699135171156,17.234015218438763,56.74843028982046,17.13943461270032,57.86030893850508,17.16814480854839,58.59845538091734,16.900508557480208,59.00154092643936,17.00187547486241,58.901388670069466,16.826876376801316,59.63392994380239,16.77474494387102,59.477943744188444,16.572951845719196,60.27723723458797,16.78470005819282,60.021083865787645,16.174902482995364,61.30113734208073,15.766613223411676,61.76261101547372,16.02744977623548,61.302270926181336,15.217497742271318,62.75328856542959,15.373175322036124,62.46045718202085,15.369838012573494,62.42929854800451,14.761494567226672,63.28627695214796,14.475098410379273,63.57830590214232,14.442832200099014,63.808798133792465,14.147685749424307,63.968742284727654,12.951662031174065,65.25569772478642,12.962481509343911,65.11815767164177,12.603422170811426,65.45744091584316,10.980511450600025,66.69007080619717,11.153641055502506,66.64966582150217,10.51722844865571,66.99369867652275,10.543431742094418,67.06968763048741,9.862854707087397,67.46711293099162,10.171326084611765,67.28310009854081,9.061208281818171,67.90404043749355,7.345586414387169,68.86041499144314,8.718760196881979,68.13016080904723,6.388670881524325,69.29938348772734,6.580806475345522,69.22810507434245,6.938569753780065,69.04430125557597,4.22542143623749,70.1627880454929,4.5412259318662205,70.01807664705883,4.259736551972301,70.16342042305834,4.304670461341212,70.15030912339067,2.5299987647759767,70.71238042550674,1.4618730180486263,71.03806254983999,1.6937721478069268,70.987301136138,0.7944727280501978,71.20851041161703,1.2332366877834886,71.11952876092421,-0.782363609712232,71.5849459152861,-1.553635204078355,71.75495615821018,-2.4545177787218844,71.91684063343813,-3.39759776294239,72.06523977966347,-3.0457234990937216,72.01530196843248,-5.002867777856049,72.27209430856784,-4.805271128194322,72.24918595067284,-5.552439859324405,72.32791335093737,-7.512677845767847,72.46746096097141,-7.643436195350965,72.47123915408534,-8.62405561879762,72.50729749066672,-8.470034374195034,72.48446802531076,-9.104042798036602,72.50629565154094,-11.406921648637258,72.45997676880475,-11.132475677565491,72.46501579655569,-11.96871437376786,72.41637212266964,-11.329061214743573,72.44275070494632,-13.643937371006688,72.2549856525477,-12.753362846928372,72.33699564679098,-13.443267639797245,72.27449753902485,-14.660014511983004,72.14584040560848,-16.30784895058773,71.8459601415112,-15.639859841987132,71.92901746971785,-17.810077106912843,71.51720519984615,-16.436773827833036,71.77381959674659,-18.238917400456835,71.37747687683795,-18.323834354945454,71.3407498942718,-18.440566232156847,71.3217271973279,-20.917759231335946,70.50738506297765,-20.957769738377095,70.52479589654996,-20.314662718506305,70.69056867547714,-22.11369216085761,69.90872016946672,-22.66680492793676,69.65235329647865,-23.418740575165344,69.26695149208044,-23.159669654461574,69.41737622331098,-23.033964546700687,69.46409754017905,-23.737611655066225,69.16678253943077,-24.53221236144715,68.56292125831685,-24.33297765515988,68.79637631492274,-24.557090550384082,68.57245258409179,-26.085836147878666,67.34910318875751,-25.951317392038618,67.51879260497974,-25.913428254633274,67.49010109729323,-26.341065374868755,67.13855372928718,-27.026445668939346,66.41777625067098,-27.53881211537999,65.83913917110887,-27.585215956682077,65.6101837666371,-28.085900489489177,64.85260426860256,-27.71365258720688,65.48583472260626,-28.345421236763364,64.42364504942337,-28.188794944801536,64.71523493598121,-28.349655189153367,64.42650172031952,-28.58555897040422,63.476597154705175,-28.71216633060739,63.64320114334124,-28.972908728812442,62.183037559458725,-29.051594843618894,62.20602116827774,-29.026543507792304,61.765687663547624,-29.07522956176178,61.41447595066477,-29.014968769218356,61.588438811308706,-29.078092411208026,61.178455026129555,-28.95957840092416,60.04080318291795,-28.9176630897988,59.38097077610387,-28.91995623803585,59.561146659472946,-28.729926712576876,58.97800199444326,-28.44179159381771,57.89960715967126,-28.375459642512062,58.197072266866044,-28.48046100019539,58.236932664842136,-27.886341832741792,57.198947324122464,-27.74161963748569,56.60570115515427,-27.768079352751315,56.7212340047859,-27.39394708589969,56.16543747745642,-26.791324910355996,55.42219752814818,-26.844464169545645,55.37133659474808,-26.898320225194304,55.4828385442715,-26.369176495087608,54.94983442158093,-25.494309046717767,54.03744918686106,-25.83104406450093,54.35870851275376,-24.83878291604342,53.299543761237594,-24.58875661514419,53.17998535068129,-23.29260799122055,52.11811053771404,-22.987815025501583,51.97008219145434,-23.226958849311032,52.05481037404374,-21.905371252233433,51.185910430556945,-21.85212720170464,51.22676210058122,-21.309921561643158,50.90942851104281,-20.76093940579988,50.54289418288989,-19.703594754133125,50.03007566190418,-19.475397662384758,49.89055179040527,-18.9247110386316,49.6475197976992,-17.668116667178623,49.04826538009481,-18.71754013229046,49.56485993735984,-17.58105396801226,49.05001466530955,-17.55027184226633,49.02772654388022,-16.07904036147833,48.44190271734562,-16.00704722596326,48.44177667406527,-15.280749917265135,48.19170867949459,-13.64891894872693,47.67585285341076,-12.255938979441078,47.31887503596979,-12.198984596623632,47.31446091570752,-12.336640204744427,47.33763623041566,-10.514224407735592,46.92953506399641,-10.219089297225686,46.873167172258505,-9.514845986869393,46.74136819808845,-9.02890639171357,46.66142099784756,-8.438772174050131,46.57624013538587,-6.51834242327874,46.3387143844534,-6.031592058085987,46.288057142835754,-7.355521715909418,46.429835296696226,-5.6505831572286835,46.255600794666385,-3.813419270407151,46.15472779569046,-3.3157497710635333,46.14270956995277,-2.560871353478083,46.13521854932685,-1.6323870461510106,46.14657943848776,-0.6498523193762837,46.16545960163339,-0.2290961671071674,46.18267522439949,0.8968415692903884,46.28520960277487,0.01225094155891604,46.217077297844234,-0.058128556155886635,46.206575864658085,1.1860353797577838,46.315754008062264,1.3285058394559695,46.32333870894557,2.1278065340804524,46.38678901771956,3.238185784167573,46.56840225986019,5.250733865721921,46.95676021784658,5.273631061827109,46.919196511171634,6.1733725616162545,47.18654689968005,7.28275942545771,47.44603117913485,8.14597773054001,47.71367863525988,6.75465929351067,47.28919339971333,9.243519557555558,48.13359455418457,8.927771389996193,48.05620438489473,8.89198395110757,47.96508029007999,9.944056917499063,48.41398511070783,9.716538027425207,48.370956538613456,11.59589725600951,49.22854455893083,10.676896811830387,48.805313261579144,12.519613966572143,49.79381460053682,11.81149113853944,49.41779250796933,12.537285022443614,49.80535542716572,13.279054646110756,50.316015788542636,13.003294314748166,50.17538893622332,14.311692313195723,51.171830148863776,14.733030633485965,51.558550057635436,14.729067690438763,51.553964180595884,14.875618467629925,51.724230151511875,15.631595053448072,52.53272581394875,15.614304412132777,52.68633244829974,15.358148406870272,52.3993618634881,15.771798292424842,52.8345791015588,16.45079099054221,54.26991945736885,16.357202359065425,53.80060168245524,16.884290047896364,54.868660563765886,16.917359956945788,55.44522069003962,16.79517847577894,54.97416986903643,17.052616591216996,56.37386671176946,17.109897332495265,56.107620272041096" fill="rgb(215,127,140)" stroke="black" stroke-width="3" stroke-linejoin="round" filter="url(#fuzzy)"></polyline></g></svg>