<svg viewBox="-100 -100 200 200" xmlns="http://www.w3.org/2000/svg" width="400" height="400" id="face-svg"><defs><clipPath id="leftEyeClipPath"><polyline points="31.074441385226155,-8.328519154995382,30.7842119060347,-8.562831405731652,30.46923487826198,-8.799427179699007,30.129438679499742,-9.037603971896075,29.76481946982956,-9.276686090343826,29.37543888416166,-9.516024251510117,28.961421724573675,-9.754995175734233,28.522953652649463,-9.993001182651424,28.0602788818179,-10.229469786617454,27.57369786969168,-10.463853292133145,27.063565010406087,-10.6956283892689,26.530286326957818,-10.924295749089282,25.974317163543752,-11.149379619077514,25.39615987789977,-11.370427418560059,24.796361533639526,-11.587009334131132,24.175511592593264,-11.798717915077262,23.581559131112567,-12.079814664020208,22.948845154940454,-12.353536943539078,22.27822149837373,-12.618953568726145,21.570793777969318,-12.875191605508363,20.827896718204943,-13.121436006795308,20.05107045038872,-13.35692917556873,19.24203776771853,-13.580970456930924,18.40268231939215,-13.792915561129192,17.53502772666933,-13.99217591957365,16.641217603786625,-14.178217975865653,15.723496466626091,-14.350562413854025,14.784191512038877,-14.508783324736445,13.825695250724637,-14.652507315223136,12.850448976567872,-14.781412558780204,11.86092705533212,-14.895227791969809,10.85962201561307,-14.993731257904475,9.849030424951573,-15.07674959883272,8.831639534007596,-15.144156699873363,7.809914671696067,-15.195872485915668,6.786287374185694,-15.23186167370261,5.763144230661712,-15.252132481114526,4.742816428753604,-15.256735295670413,3.727569982528774,-15.245761304264065,2.7195966259532165,-15.21934108615238,1.7210053547201571,-15.177643171213074,0.7338145993477156,-15.120872565488941,-0.24005498755345744,-15.04926924603614,-1.1987871469414806,-14.963106627093516,-2.140676049032572,-14.862689999590387,-3.064131766117276,-14.74835494600994,-3.9676851996026947,-14.620465732625558,-4.8499924783796295,-14.479413681127301,-5.709838845613687,-14.325615521655784,-6.5461420510592525,-14.159511729260714,-7.357955265995454,-13.98156484580138,-8.144469537882953,-13.792257789306245,-8.90501580184068,-13.59209215280903,-9.639066466041417,-13.381586494678414,-10.346236588125297,-13.161274622458699,-11.026284659730123,-12.931703872238629,-11.679113016237547,-12.693433385565646,-12.304767888834153,-12.447032385922839,-12.903439115986263,-12.193078456785821,-13.475459531427656,-11.932155823276808,-14.021304045759095,-11.664853639433117,-14.541588438758584,-11.39176428310737,-15.037067879501553,-11.113481660516673,-15.508635191389647,-10.830599522457945,-15.957318879187468,-10.543709794206734,-16.38428093516598,-10.25340092111674,-16.78986927521205,-9.958852978649425,-17.173788224093272,-9.65902326912364,-17.536354872034714,-9.354159182221077,-17.877913528474508,-9.044503488700862,-18.1988334320205,-8.730294070231768,-18.49950646040691,-8.41176364922443,-18.780344840451015,-8.089139518663584,-19.041778858009863,-7.762643271940274,-19.28425456793689,-7.432490532684082,-19.508231504038683,-7.098890684595367,-19.714180389031565,-6.7620466012774605,-19.902580844498353,-6.42215437606891,-20.07391910084498,-6.079403051875698,-20.228685707257213,-5.733974351003458,-20.00252974323379,-0.024713999246626983,-19.735550714035547,0.4166418627833286,-19.459145366895843,0.8614202631745238,-19.17325055528399,1.3093323454470012,-18.877813534968396,1.7600601850611062,-18.572791358925812,2.2132574137055565,-18.25815027225061,2.6685498435855246,-17.93386510706405,3.1255360917107042,-17.599918677423545,3.5837882041833913,-17.256301174231936,4.04285228048657,-16.903009560146756,4.5022490977719665,-16.540046964489505,4.961474735148147,-16.16742207815492,5.420001197968566,-15.785148548520215,5.877277042119677,-15.3932443743544,6.332727998308983,-14.990720974535627,6.78788047819127,-14.576499999684579,7.243967724149043,-14.150475644246605,7.699920970952912,-13.71255280226191,8.154624134104438,-13.262647190010647,8.606918077850406,-12.80068546545904,9.055604984288344,-12.326605349024387,9.49945281890184,-11.840355750176954,9.93719988786427,-11.34189690439689,10.367559482449682,-10.831200525004009,10.789224605889423,-10.308249974378631,11.20087277801317,-9.773040459091307,11.60117091301304,-9.225579253459594,11.988780265669345,-8.665885956049797,12.362361441376777,-8.093992783641735,12.720579465309559,-7.509944907174514,13.062108906064228,-6.913800834191337,13.38563904911879,-6.30563284230133,13.6898791154467,-5.685527468176483,13.973563520624612,-5.0535860566015565,14.235457169772207,-4.409925374095163,14.474360783663034,-3.754678291619843,14.68911625134485,-3.0879945408993077,14.878612004608186,-2.410041548860721,15.04178840964169,-1.721005354720158,15.177643171213074,-1.0210916142291513,15.28523674471408,-0.3105266956003838,15.363697751408331,0.4104411283694729,15.412228392220587,1.1415403874617414,15.430109855406084,1.882475015964581,15.416707713438633,2.6329228448506368,15.371477304456082,3.3925339796854788,15.293969093601842,4.16092905974888,15.183834009601071,4.937697393850842,15.04082875191023,5.722394968324416,14.864821063778553,6.514542322677293,14.655794966560268,7.313622288384135,14.413855950615943,8.119077586301657,14.139236118141952,8.930308278188448,13.832299273266301,9.746669067811501,13.493545954749912,10.567466447121467,13.12361840663159,11.391955682978608,12.723305482155649,12.21933763991143,12.293547476320647,13.048755434390005,11.835440882387974,13.879290916095952,11.35024306768889,14.7099609716711,10.839376864068722,15.539713646426758,10.304435068306809,16.367424079495656,9.747184847850853,17.191890247908486,9.169572047204397,18.01182851507709,8.573725390305956,18.69622048441648,8.148336786846809,19.37540825607241,7.712768551131805,20.04853095315245,7.268052102251878,20.714682729063917,6.815283291180967,21.372911730392616,6.355623814674572,22.022219059781623,5.890302629168274,22.66155773881002,5.42061736467631,23.289831670871678,4.947935738690091,23.90589460405399,4.473696970076754,24.508549094016644,3.9994131929777224,25.096545466870378,3.5266708707072167,25.66858078205574,3.057132209650825,26.22329779522185,2.592536573164039,26.75928392110513,2.1347018954708012,27.27507019640811,1.6855260955620404"></polyline></clipPath><clipPath id="rightEyeClipPath"><polyline points="-30.07417738137447,-8.393408149762259,-29.72233637842284,-8.619998609615108,-29.347189990431716,-8.850868641123776,-28.94892679738618,-9.085421035529835,-28.52778180577505,-9.323069477206785,-28.084034713942735,-9.563238641015543,-27.618008177441048,-9.805364289659916,-27.130066074381,-10.048893371042094,-26.620611770784592,-10.293284115618103,-26.09008638593668,-10.538006133753314,-25.53896705773675,-10.782540513077894,-24.967765208050693,-11.026379915842302,-24.377024808062707,-11.269028676272775,-23.767320643627023,-11.510002897926778,-23.13925658061975,-11.748830551048517,-22.493463830290672,-11.985051569924392,-21.84401227332478,-12.275358019300738,-21.16233935947365,-12.563314228518347,-20.449391822043438,-12.847873100858887,-19.706310370673492,-13.128002630363191,-18.93440995297256,-13.402690985040035,-18.13516080025623,-13.670951238395318,-17.310170243664786,-13.931825757255837,-16.461165286940606,-14.184390253861956,-15.589975922144303,-14.427757510203332,-14.698519174588771,-14.661080782572025,-13.788783863270185,-14.883556894307116,-12.862816063075318,-15.094429024705196,-11.922705255044157,-15.29298920207086,-10.970571150967055,-15.478580508881496,-10.008551178595557,-15.6505990070406,-9.038788613746101,-15.808495391193837,-8.063421345575694,-15.951776378082094,-7.084571261308777,-16.080005839905763,-6.104334236694395,-16.192805689674522,-5.12477071847287,-16.28985652651678,-4.147896885131114,-16.370898048923067,-3.175676372225741,-16.435729243897647,-2.210012548553159,-16.484208359992486,-1.2527413294457879,-16.51625267219791,-0.3056245134735458,-16.531838046664166,0.6296563711701779,-16.530998313228064,1.5515057243189867,-16.51382445371902,2.458419049241134,-16.48046361401868,3.3489876595252923,-16.431117947848406,4.221902931165168,-16.36604330025882,5.075960113563951,-16.285547738795643,5.910061713179287,-16.189989940316124,6.723220463529712,-16.07977744143024,7.514561895283332,-15.955364760540881,8.283326520149664,-15.81725139945738,9.028871642295357,-15.665979732556426,9.750672811004744,-15.502132791464845,10.448324928306018,-15.326331953238217,11.121543025283884,-15.13923454000982,11.770162720799485,-14.941531338083948,12.3941403763385,-14.73394404444792,12.993552960708255,-14.517222648677034,13.568597638304594,-14.292142758206676,14.119591094669468,-14.059502874945782,14.646968613060052,-13.820121631205993,15.151282915750121,-13.574834992920632,15.633202783784698,-13.324493438127792,16.093511468908694,-13.0699591186918,16.533104911390375,-12.81210301323721,16.952989777460658,-12.551802079269656,17.35362696434911,-12.288149212635421,17.734924968676303,-12.019923595865802,18.097161562594295,-11.747530183980505,18.440636947113234,-11.471367463006445,18.765671914488863,-11.191826381999556,19.072606010610095,-10.909289285066611,19.361795697386505,-10.624128843387055,19.633612515135923,-10.336706987234813,19.888441244971936,-10.047373838000125,20.126678071191428,-9.756466640211363,20.34872874366215,-9.464308693556852,20.555006740210246,-9.1712082849067,20.745931429007747,-8.877457620334605,20.921926230960196,-8.58333175713969,18.923757542932712,-2.58491797705333,18.642950575015632,-2.1017084697965194,18.351849926614918,-1.614554487692379,18.050460486846482,-1.12351542807093,17.738803391394242,-0.6286696755853578,17.416914984990655,-0.1301157928536094,17.08484578389737,0.37202628890001854,16.742659438385736,0.8776140792032789,16.390431695217465,1.3864813376943843,16.02824936012516,1.8984368834804268,15.656209260292895,2.413263404495754,15.274417206836874,2.9307162668604123,14.88298695728592,3.4505223242385226,14.482039178062129,3.9723787271967046,14.071700406961414,4.495951732562486,13.650772491684295,5.022227655178328,13.218038908563491,5.5521724384214055,12.773607694399795,6.085317789040848,12.317593378955406,6.621090594146168,11.850116306386772,7.158815574073915,11.37130195967084,7.697718139391497,10.881280295771377,8.236927460928275,10.380185099292252,8.775479761724071,9.868153362364462,9.312321839785199,9.345324698513737,9.846314830538134,8.811840798255473,10.376238217871006,8.267844934163898,10.900794102652927,7.713481523162217,11.418611737621408,7.148895753780547,11.928252337527848,6.574233286128511,12.428214173431396,5.9896400323292145,12.916937960031124,5.395262025161513,13.39281254492677,4.791245382657296,13.854180908698051,4.177736376400652,14.299346484692869,3.554881611275724,14.726579807414296,2.9228283244100375,15.134125498396621,2.2817248110601254,15.520209598460553,1.6317209851862824,15.883047255237635,0.9729690824632344,16.220850774854082,0.30562451347354536,16.531838046664166,-0.37015312516942833,16.814241349923137,-1.054198874022224,17.066316551290004,-1.7463410605887972,17.28635270205012,-2.4463997679280403,17.472682043947845,-3.1541851143445276,17.62369043251928,-3.869495336415658,17.737828186815296,-4.592114667608356,17.81362137440491,-5.321811004738564,17.84968354054919,-6.058333354526698,17.844727890435763,-6.801409052502226,17.797579933364116,-7.55074074651061,17.707190597771703,-8.306003137075756,17.572649825991103,-9.06683946687118,17.39320065762828,-9.832857751553078,17.168253810452104,-10.603626744208484,16.897402767685218,-11.378671625671704,16.580439380586427,-12.157469412962227,16.217369995214675,-12.939444078097269,15.808432112264772,-13.72396136953218,15.35411158886501,-14.51032332848187,14.855160391226729,-15.297762492376469,14.312614907036043,-16.08543577770439,13.727814826477744,-16.872418034495944,13.102422600781612,-17.657695264700845,12.438443487181221,-18.440157496712565,11.738246189175292,-19.087827467511378,11.295973767634607,-19.730935915067946,10.83568634154988,-20.36870225702954,10.358589902800485,-21.000298630816026,9.86600391588421,-21.62484865834525,9.35936459792632,-22.241426210758405,8.840228198688656,-22.84905417314539,8.31027428057875,-23.446703209270204,7.771308998658854,-24.033290526296298,7.2252683806550815,-24.60767863951196,6.674221606966465,-25.16867413705568,6.120374290674053,-25.71502644464151,5.56607175755,-26.24542659028446,5.013802326066643,-26.758505969025833,4.4662005874056065,-27.252835107658647,3.9260506854668753"></polyline></clipPath><filter id="fuzzy"><feTurbulence id="turbulence" baseFrequency="0.05" numOctaves="3" type="noise" result="noise"></feTurbulence><feDisplacementMap in="SourceGraphic" in2="noise" scale="2"></feDisplacementMap></filter><linearGradient id="rainbowGradient" x1="0%" y1="0%" x2="100%" y2="0%"><stop offset="0%" style="stop-color: rgb(233, 236, 239);  stop-opacity: 1"></stop><stop offset="50%" style="stop-color: rgb(0, 0, 0);  stop-opacity: 1"></stop><stop offset="100%" style="stop-color: rgb(50, 205, 50);  stop-opacity: 1"></stop></linearGradient></defs><title>That&#39;s an ugly face</title><desc>CREATED BY XUAN TANG, MORE INFO AT TXSTC55.GITHUB.IO</desc><rect x="-100" y="-100" width="100%" height="100%" opacity="1" fill="rgb(135, 206, 235)"></rect><polyline id="faceContour" points="62,0,62,2,62,1,62,3,62,7,62,8,62,6,62,11,62,11,62,13,62,14,62,15,62,16,62,17,61,19,61,20,61,21,61,22,61,23,61,25,60,27,61,25,60,28,59,31,59,31,59,30,59,32,59,34,58,35,58,37,58,37,57,39,56,42,56,42,55,44,56,43,55,44,54,47,54,46,53,49,53,49,52,50,51,52,52,52,51,53,50,55,50,55,49,56,48,57,47,59,47,59,46,61,45,62,45,62,44,63,43,64,42,65,42,65,41,66,39,68,39,68,39,69,37,71,37,70,37,70,34,73,34,73,33,74,34,73,32,74,30,76,31,75,29,77,29,77,26,78,26,78,25,79,23,80,23,79,23,80,20,81,20,81,18,82,18,82,16,82,16,82,14,83,14,83,14,83,11,84,11,84,10,84,7,85,7,85,5,85,6,85,4,85,4,85,2,85,2,85,-1,85,-2,85,-3,85,-3,85,-4,85,-6,85,-6,85,-8,85,-9,85,-9,85,-11,85,-11,85,-14,84,-12,84,-15,84,-16,83,-18,83,-17,83,-19,82,-21,82,-20,82,-21,82,-24,80,-24,81,-24,80,-27,79,-27,79,-27,79,-29,78,-29,78,-32,76,-32,76,-33,76,-33,75,-34,74,-35,74,-36,73,-37,72,-38,72,-39,70,-39,70,-39,70,-40,69,-41,68,-42,67,-43,66,-45,64,-45,63,-45,63,-46,62,-47,61,-47,61,-48,60,-49,57,-49,58,-50,56,-50,56,-52,53,-52,53,-52,52,-52,52,-53,51,-54,48,-54,47,-55,46,-55,46,-56,44,-56,43,-56,42,-57,41,-57,40,-58,38,-58,37,-59,36,-59,33,-59,34,-59,32,-59,33,-60,30,-60,29,-60,27,-61,25,-61,25,-61,24,-61,23,-61,18,-62,19,-62,17,-62,17,-62,13,-62,13,-62,13,-62,13,-62,9,-62,9,-62,6,-62,3,-62,5,-62,2,-62,1,-62,-2,-62,-2,-62,-3,-62,-4,-62,-5,-61,-7,-61,-8,-61,-9,-61,-11,-61,-12,-61,-13,-60,-17,-60,-15,-60,-18,-59,-20,-59,-20,-59,-21,-58,-24,-59,-23,-58,-25,-58,-26,-57,-29,-57,-30,-57,-31,-56,-32,-56,-33,-55,-35,-55,-36,-54,-39,-54,-38,-54,-39,-53,-40,-52,-44,-53,-42,-51,-45,-51,-45,-51,-46,-50,-47,-49,-49,-50,-49,-48,-52,-47,-52,-47,-53,-47,-54,-46,-55,-46,-55,-45,-57,-44,-59,-44,-59,-42,-60,-43,-60,-41,-63,-40,-64,-40,-63,-39,-65,-38,-66,-38,-67,-37,-67,-36,-68,-35,-70,-35,-69,-34,-71,-34,-71,-32,-73,-32,-73,-30,-75,-30,-74,-29,-75,-28,-76,-27,-76,-26,-77,-26,-77,-25,-78,-25,-78,-24,-79,-23,-79,-21,-80,-21,-80,-20,-81,-19,-81,-18,-82,-16,-83,-16,-83,-15,-83,-14,-83,-13,-83,-12,-84,-12,-84,-11,-84,-10,-85,-10,-85,-8,-85,-7,-85,-5,-85,-6,-85,-4,-85,-3,-86,-2,-85,-3,-85,0,-85,1,-85,0,-85,3,-85,4,-85,5,-85,5,-85,5,-85,6,-85,7,-85,8,-84,10,-84,12,-83,12,-84,12,-83,13,-83,14,-83,15,-82,15,-82,16,-82,17,-82,19,-80,20,-80,20,-79,21,-79,21,-79,21,-79,23,-78,23,-77,25,-76,25,-76,27,-75,28,-75,28,-74,28,-74,29,-73,31,-72,31,-72,32,-71,34,-69,34,-69,34,-69,35,-67,36,-66,37,-66,37,-65,38,-65,39,-64,40,-62,40,-63,41,-60,42,-60,42,-59,44,-57,45,-55,44,-56,45,-54,46,-54,46,-54,46,-53,48,-50,48,-50,49,-48,49,-48,50,-45,50,-45,51,-44,52,-42,51,-43,53,-40,53,-38,53,-39,55,-35,54,-36,54,-36,56,-32,56,-31,57,-29,57,-29,57,-28,58,-26,58,-25,58,-25,58,-23,59,-23,59,-20,59,-19,60,-18,60,-18,60,-18,60,-16,60,-14,61,-11,61,-10,61,-9,61,-8,61,-6,62,-5,62,-5,62,-1,62,-2,62,0,62,2" fill="#ffc9a9" stroke="black" stroke-width="1.6666666666666665" stroke-linejoin="round" filter="url(#fuzzy)"></polyline><g transform="translate(22.454771569544306 -25.61871552489995)"><polyline id="rightCountour" points="-30.07417738137447,-8.393408149762259,-29.72233637842284,-8.619998609615108,-29.347189990431716,-8.850868641123776,-28.94892679738618,-9.085421035529835,-28.52778180577505,-9.323069477206785,-28.084034713942735,-9.563238641015543,-27.618008177441048,-9.805364289659916,-27.130066074381,-10.048893371042094,-26.620611770784592,-10.293284115618103,-26.09008638593668,-10.538006133753314,-25.53896705773675,-10.782540513077894,-24.967765208050693,-11.026379915842302,-24.377024808062707,-11.269028676272775,-23.767320643627023,-11.510002897926778,-23.13925658061975,-11.748830551048517,-22.493463830290672,-11.985051569924392,-21.84401227332478,-12.275358019300738,-21.16233935947365,-12.563314228518347,-20.449391822043438,-12.847873100858887,-19.706310370673492,-13.128002630363191,-18.93440995297256,-13.402690985040035,-18.13516080025623,-13.670951238395318,-17.310170243664786,-13.931825757255837,-16.461165286940606,-14.184390253861956,-15.589975922144303,-14.427757510203332,-14.698519174588771,-14.661080782572025,-13.788783863270185,-14.883556894307116,-12.862816063075318,-15.094429024705196,-11.922705255044157,-15.29298920207086,-10.970571150967055,-15.478580508881496,-10.008551178595557,-15.6505990070406,-9.038788613746101,-15.808495391193837,-8.063421345575694,-15.951776378082094,-7.084571261308777,-16.080005839905763,-6.104334236694395,-16.192805689674522,-5.12477071847287,-16.28985652651678,-4.147896885131114,-16.370898048923067,-3.175676372225741,-16.435729243897647,-2.210012548553159,-16.484208359992486,-1.2527413294457879,-16.51625267219791,-0.3056245134735458,-16.531838046664166,0.6296563711701779,-16.530998313228064,1.5515057243189867,-16.51382445371902,2.458419049241134,-16.48046361401868,3.3489876595252923,-16.431117947848406,4.221902931165168,-16.36604330025882,5.075960113563951,-16.285547738795643,5.910061713179287,-16.189989940316124,6.723220463529712,-16.07977744143024,7.514561895283332,-15.955364760540881,8.283326520149664,-15.81725139945738,9.028871642295357,-15.665979732556426,9.750672811004744,-15.502132791464845,10.448324928306018,-15.326331953238217,11.121543025283884,-15.13923454000982,11.770162720799485,-14.941531338083948,12.3941403763385,-14.73394404444792,12.993552960708255,-14.517222648677034,13.568597638304594,-14.292142758206676,14.119591094669468,-14.059502874945782,14.646968613060052,-13.820121631205993,15.151282915750121,-13.574834992920632,15.633202783784698,-13.324493438127792,16.093511468908694,-13.0699591186918,16.533104911390375,-12.81210301323721,16.952989777460658,-12.551802079269656,17.35362696434911,-12.288149212635421,17.734924968676303,-12.019923595865802,18.097161562594295,-11.747530183980505,18.440636947113234,-11.471367463006445,18.765671914488863,-11.191826381999556,19.072606010610095,-10.909289285066611,19.361795697386505,-10.624128843387055,19.633612515135923,-10.336706987234813,19.888441244971936,-10.047373838000125,20.126678071191428,-9.756466640211363,20.34872874366215,-9.464308693556852,20.555006740210246,-9.1712082849067,20.745931429007747,-8.877457620334605,20.921926230960196,-8.58333175713969,18.923757542932712,-2.58491797705333,18.642950575015632,-2.1017084697965194,18.351849926614918,-1.614554487692379,18.050460486846482,-1.12351542807093,17.738803391394242,-0.6286696755853578,17.416914984990655,-0.1301157928536094,17.08484578389737,0.37202628890001854,16.742659438385736,0.8776140792032789,16.390431695217465,1.3864813376943843,16.02824936012516,1.8984368834804268,15.656209260292895,2.413263404495754,15.274417206836874,2.9307162668604123,14.88298695728592,3.4505223242385226,14.482039178062129,3.9723787271967046,14.071700406961414,4.495951732562486,13.650772491684295,5.022227655178328,13.218038908563491,5.5521724384214055,12.773607694399795,6.085317789040848,12.317593378955406,6.621090594146168,11.850116306386772,7.158815574073915,11.37130195967084,7.697718139391497,10.881280295771377,8.236927460928275,10.380185099292252,8.775479761724071,9.868153362364462,9.312321839785199,9.345324698513737,9.846314830538134,8.811840798255473,10.376238217871006,8.267844934163898,10.900794102652927,7.713481523162217,11.418611737621408,7.148895753780547,11.928252337527848,6.574233286128511,12.428214173431396,5.9896400323292145,12.916937960031124,5.395262025161513,13.39281254492677,4.791245382657296,13.854180908698051,4.177736376400652,14.299346484692869,3.554881611275724,14.726579807414296,2.9228283244100375,15.134125498396621,2.2817248110601254,15.520209598460553,1.6317209851862824,15.883047255237635,0.9729690824632344,16.220850774854082,0.30562451347354536,16.531838046664166,-0.37015312516942833,16.814241349923137,-1.054198874022224,17.066316551290004,-1.7463410605887972,17.28635270205012,-2.4463997679280403,17.472682043947845,-3.1541851143445276,17.62369043251928,-3.869495336415658,17.737828186815296,-4.592114667608356,17.81362137440491,-5.321811004738564,17.84968354054919,-6.058333354526698,17.844727890435763,-6.801409052502226,17.797579933364116,-7.55074074651061,17.707190597771703,-8.306003137075756,17.572649825991103,-9.06683946687118,17.39320065762828,-9.832857751553078,17.168253810452104,-10.603626744208484,16.897402767685218,-11.378671625671704,16.580439380586427,-12.157469412962227,16.217369995214675,-12.939444078097269,15.808432112264772,-13.72396136953218,15.35411158886501,-14.51032332848187,14.855160391226729,-15.297762492376469,14.312614907036043,-16.08543577770439,13.727814826477744,-16.872418034495944,13.102422600781612,-17.657695264700845,12.438443487181221,-18.440157496712565,11.738246189175292,-19.087827467511378,11.295973767634607,-19.730935915067946,10.83568634154988,-20.36870225702954,10.358589902800485,-21.000298630816026,9.86600391588421,-21.62484865834525,9.35936459792632,-22.241426210758405,8.840228198688656,-22.84905417314539,8.31027428057875,-23.446703209270204,7.771308998658854,-24.033290526296298,7.2252683806550815,-24.60767863951196,6.674221606966465,-25.16867413705568,6.120374290674053,-25.71502644464151,5.56607175755,-26.24542659028446,5.013802326066643,-26.758505969025833,4.4662005874056065,-27.252835107658647,3.9260506854668753" fill="white" stroke="white" stroke-width="0" stroke-linejoin="round" filter="url(#fuzzy)"></polyline></g><g transform="translate(-38.65777122068433 -24.619451577753605)"><polyline id="leftCountour" points="31.074441385226155,-8.328519154995382,30.7842119060347,-8.562831405731652,30.46923487826198,-8.799427179699007,30.129438679499742,-9.037603971896075,29.76481946982956,-9.276686090343826,29.37543888416166,-9.516024251510117,28.961421724573675,-9.754995175734233,28.522953652649463,-9.993001182651424,28.0602788818179,-10.229469786617454,27.57369786969168,-10.463853292133145,27.063565010406087,-10.6956283892689,26.530286326957818,-10.924295749089282,25.974317163543752,-11.149379619077514,25.39615987789977,-11.370427418560059,24.796361533639526,-11.587009334131132,24.175511592593264,-11.798717915077262,23.581559131112567,-12.079814664020208,22.948845154940454,-12.353536943539078,22.27822149837373,-12.618953568726145,21.570793777969318,-12.875191605508363,20.827896718204943,-13.121436006795308,20.05107045038872,-13.35692917556873,19.24203776771853,-13.580970456930924,18.40268231939215,-13.792915561129192,17.53502772666933,-13.99217591957365,16.641217603786625,-14.178217975865653,15.723496466626091,-14.350562413854025,14.784191512038877,-14.508783324736445,13.825695250724637,-14.652507315223136,12.850448976567872,-14.781412558780204,11.86092705533212,-14.895227791969809,10.85962201561307,-14.993731257904475,9.849030424951573,-15.07674959883272,8.831639534007596,-15.144156699873363,7.809914671696067,-15.195872485915668,6.786287374185694,-15.23186167370261,5.763144230661712,-15.252132481114526,4.742816428753604,-15.256735295670413,3.727569982528774,-15.245761304264065,2.7195966259532165,-15.21934108615238,1.7210053547201571,-15.177643171213074,0.7338145993477156,-15.120872565488941,-0.24005498755345744,-15.04926924603614,-1.1987871469414806,-14.963106627093516,-2.140676049032572,-14.862689999590387,-3.064131766117276,-14.74835494600994,-3.9676851996026947,-14.620465732625558,-4.8499924783796295,-14.479413681127301,-5.709838845613687,-14.325615521655784,-6.5461420510592525,-14.159511729260714,-7.357955265995454,-13.98156484580138,-8.144469537882953,-13.792257789306245,-8.90501580184068,-13.59209215280903,-9.639066466041417,-13.381586494678414,-10.346236588125297,-13.161274622458699,-11.026284659730123,-12.931703872238629,-11.679113016237547,-12.693433385565646,-12.304767888834153,-12.447032385922839,-12.903439115986263,-12.193078456785821,-13.475459531427656,-11.932155823276808,-14.021304045759095,-11.664853639433117,-14.541588438758584,-11.39176428310737,-15.037067879501553,-11.113481660516673,-15.508635191389647,-10.830599522457945,-15.957318879187468,-10.543709794206734,-16.38428093516598,-10.25340092111674,-16.78986927521205,-9.958852978649425,-17.173788224093272,-9.65902326912364,-17.536354872034714,-9.354159182221077,-17.877913528474508,-9.044503488700862,-18.1988334320205,-8.730294070231768,-18.49950646040691,-8.41176364922443,-18.780344840451015,-8.089139518663584,-19.041778858009863,-7.762643271940274,-19.28425456793689,-7.432490532684082,-19.508231504038683,-7.098890684595367,-19.714180389031565,-6.7620466012774605,-19.902580844498353,-6.42215437606891,-20.07391910084498,-6.079403051875698,-20.228685707257213,-5.733974351003458,-20.00252974323379,-0.024713999246626983,-19.735550714035547,0.4166418627833286,-19.459145366895843,0.8614202631745238,-19.17325055528399,1.3093323454470012,-18.877813534968396,1.7600601850611062,-18.572791358925812,2.2132574137055565,-18.25815027225061,2.6685498435855246,-17.93386510706405,3.1255360917107042,-17.599918677423545,3.5837882041833913,-17.256301174231936,4.04285228048657,-16.903009560146756,4.5022490977719665,-16.540046964489505,4.961474735148147,-16.16742207815492,5.420001197968566,-15.785148548520215,5.877277042119677,-15.3932443743544,6.332727998308983,-14.990720974535627,6.78788047819127,-14.576499999684579,7.243967724149043,-14.150475644246605,7.699920970952912,-13.71255280226191,8.154624134104438,-13.262647190010647,8.606918077850406,-12.80068546545904,9.055604984288344,-12.326605349024387,9.49945281890184,-11.840355750176954,9.93719988786427,-11.34189690439689,10.367559482449682,-10.831200525004009,10.789224605889423,-10.308249974378631,11.20087277801317,-9.773040459091307,11.60117091301304,-9.225579253459594,11.988780265669345,-8.665885956049797,12.362361441376777,-8.093992783641735,12.720579465309559,-7.509944907174514,13.062108906064228,-6.913800834191337,13.38563904911879,-6.30563284230133,13.6898791154467,-5.685527468176483,13.973563520624612,-5.0535860566015565,14.235457169772207,-4.409925374095163,14.474360783663034,-3.754678291619843,14.68911625134485,-3.0879945408993077,14.878612004608186,-2.410041548860721,15.04178840964169,-1.721005354720158,15.177643171213074,-1.0210916142291513,15.28523674471408,-0.3105266956003838,15.363697751408331,0.4104411283694729,15.412228392220587,1.1415403874617414,15.430109855406084,1.882475015964581,15.416707713438633,2.6329228448506368,15.371477304456082,3.3925339796854788,15.293969093601842,4.16092905974888,15.183834009601071,4.937697393850842,15.04082875191023,5.722394968324416,14.864821063778553,6.514542322677293,14.655794966560268,7.313622288384135,14.413855950615943,8.119077586301657,14.139236118141952,8.930308278188448,13.832299273266301,9.746669067811501,13.493545954749912,10.567466447121467,13.12361840663159,11.391955682978608,12.723305482155649,12.21933763991143,12.293547476320647,13.048755434390005,11.835440882387974,13.879290916095952,11.35024306768889,14.7099609716711,10.839376864068722,15.539713646426758,10.304435068306809,16.367424079495656,9.747184847850853,17.191890247908486,9.169572047204397,18.01182851507709,8.573725390305956,18.69622048441648,8.148336786846809,19.37540825607241,7.712768551131805,20.04853095315245,7.268052102251878,20.714682729063917,6.815283291180967,21.372911730392616,6.355623814674572,22.022219059781623,5.890302629168274,22.66155773881002,5.42061736467631,23.289831670871678,4.947935738690091,23.90589460405399,4.473696970076754,24.508549094016644,3.9994131929777224,25.096545466870378,3.5266708707072167,25.66858078205574,3.057132209650825,26.22329779522185,2.592536573164039,26.75928392110513,2.1347018954708012,27.27507019640811,1.6855260955620404" fill="white" stroke="white" stroke-width="0" stroke-linejoin="round" filter="url(#fuzzy)"></polyline></g><g transform="translate(22.454771569544306 -25.61871552489995)"><polyline id="rightUpper" points="-32.30597135288139,-6.5018596028241475,-32.18610199521668,-6.6504809845466335,-32.04397653297125,-6.809931729560348,-31.87922387544198,-6.979511052338846,-31.691536704911414,-7.1585280869328285,-31.480669741999577,-7.346301984325622,-31.24643801101581,-7.542162009788656,-30.988715105310533,-7.7454476402369465,-30.707431452627084,-7.955508661584563,-30.40257258045353,-8.171705266100123,-30.07417738137447,-8.393408149762259,-29.72233637842284,-8.619998609615108,-29.347189990431716,-8.850868641123776,-28.94892679738618,-9.085421035529835,-28.52778180577505,-9.323069477206785,-28.084034713942735,-9.563238641015543,-27.618008177441048,-9.805364289659916,-27.130066074381,-10.048893371042094,-26.620611770784592,-10.293284115618103,-26.09008638593668,-10.538006133753314,-25.53896705773675,-10.782540513077894,-24.967765208050693,-11.026379915842302,-24.377024808062707,-11.269028676272775,-23.767320643627023,-11.510002897926778,-23.13925658061975,-11.748830551048517,-22.493463830290672,-11.985051569924392,-21.84401227332478,-12.275358019300738,-21.16233935947365,-12.563314228518347,-20.449391822043438,-12.847873100858887,-19.706310370673492,-13.128002630363191,-18.93440995297256,-13.402690985040035,-18.13516080025623,-13.670951238395318,-17.310170243664786,-13.931825757255837,-16.461165286940606,-14.184390253861956,-15.589975922144303,-14.427757510203332,-14.698519174588771,-14.661080782572025,-13.788783863270185,-14.883556894307116,-12.862816063075318,-15.094429024705196,-11.922705255044157,-15.29298920207086,-10.970571150967055,-15.478580508881496,-10.008551178595557,-15.6505990070406,-9.038788613746101,-15.808495391193837,-8.063421345575694,-15.951776378082094,-7.084571261308777,-16.080005839905763,-6.104334236694395,-16.192805689674522,-5.12477071847287,-16.28985652651678,-4.147896885131114,-16.370898048923067,-3.175676372225741,-16.435729243897647,-2.210012548553159,-16.484208359992486,-1.2527413294457879,-16.51625267219791,-0.3056245134735458,-16.531838046664166,0.6296563711701779,-16.530998313228064,1.5515057243189867,-16.51382445371902,2.458419049241134,-16.48046361401868,3.3489876595252923,-16.431117947848406,4.221902931165168,-16.36604330025882,5.075960113563951,-16.285547738795643,5.910061713179287,-16.189989940316124,6.723220463529712,-16.07977744143024,7.514561895283332,-15.955364760540881,8.283326520149664,-15.81725139945738,9.028871642295357,-15.665979732556426,9.750672811004744,-15.502132791464845,10.448324928306018,-15.326331953238217,11.121543025283884,-15.13923454000982,11.770162720799485,-14.941531338083948,12.3941403763385,-14.73394404444792,12.993552960708255,-14.517222648677034,13.568597638304594,-14.292142758206676,14.119591094669468,-14.059502874945782,14.646968613060052,-13.820121631205993,15.151282915750121,-13.574834992920632,15.633202783784698,-13.324493438127792,16.093511468908694,-13.0699591186918,16.533104911390375,-12.81210301323721,16.952989777460658,-12.551802079269656,17.35362696434911,-12.288149212635421,17.734924968676303,-12.019923595865802,18.097161562594295,-11.747530183980505,18.440636947113234,-11.471367463006445,18.765671914488863,-11.191826381999556,19.072606010610095,-10.909289285066611,19.361795697386505,-10.624128843387055,19.633612515135923,-10.336706987234813,19.888441244971936,-10.047373838000125,20.126678071191428,-9.756466640211363,20.34872874366215,-9.464308693556852,20.555006740210246,-9.1712082849067,20.745931429007747,-8.877457620334605,20.921926230960196,-8.58333175713969,21.083416782094112,-8.289087535868328,21.230829095944586,-7.994962512335947,21.36458772594277,-7.701173889648871,21.48511392780346,-7.407917450226131,21.592823821912603,-7.115366487821295,21.688126555714867,-6.823670739544276,21.771422466101157,-6.532955317883175,21.84310124179614,-6.243319642726085,21.903540085745853,-5.954836373382928,21.953101877505155,-5.667550340607263" fill="none" stroke="black" stroke-width="1.6666666666666665" stroke-linejoin="round" filter="url(#fuzzy)"></polyline><polyline id="rightLower" points="-30.804385365124865,-0.33958888437271906,-30.59045388995125,-0.062332068694114895,-30.339857928523486,0.25916502421598064,-30.054703576636292,0.6204423227741191,-29.73702370908979,1.0172221082060897,-29.388779214964117,1.445405734537836,-29.011860232894094,1.9010703485863667,-28.608087386343804,2.380465609950668,-28.179213018881242,2.880010411002613,-27.726922429452948,3.396289596877886,-27.252835107658647,3.9260506854668753,-26.758505969025833,4.4662005874056065,-26.24542659028446,5.013802326066643,-25.71502644464151,5.56607175755,-25.16867413705568,6.120374290674053,-24.60767863951196,6.674221606966465,-24.033290526296298,7.2252683806550815,-23.446703209270204,7.771308998658854,-22.84905417314539,8.31027428057875,-22.241426210758405,8.840228198688656,-21.62484865834525,9.35936459792632,-21.000298630816026,9.86600391588421,-20.36870225702954,10.358589902800485,-19.730935915067946,10.83568634154988,-19.087827467511378,11.295973767634607,-18.440157496712565,11.738246189175292,-17.657695264700845,12.438443487181221,-16.872418034495944,13.102422600781612,-16.08543577770439,13.727814826477744,-15.297762492376469,14.312614907036043,-14.51032332848187,14.855160391226729,-13.72396136953218,15.35411158886501,-12.939444078097269,15.808432112264772,-12.157469412962227,16.217369995214675,-11.378671625671704,16.580439380586427,-10.603626744208484,16.897402767685218,-9.832857751553078,17.168253810452104,-9.06683946687118,17.39320065762828,-8.306003137075756,17.572649825991103,-7.55074074651061,17.707190597771703,-6.801409052502226,17.797579933364116,-6.058333354526698,17.844727890435763,-5.321811004738564,17.84968354054919,-4.592114667608356,17.81362137440491,-3.869495336415658,17.737828186815296,-3.1541851143445276,17.62369043251928,-2.4463997679280403,17.472682043947845,-1.7463410605887972,17.28635270205012,-1.054198874022224,17.066316551290004,-0.37015312516942833,16.814241349923137,0.30562451347354536,16.531838046664166,0.9729690824632344,16.220850774854082,1.6317209851862824,15.883047255237635,2.2817248110601254,15.520209598460553,2.9228283244100375,15.134125498396621,3.554881611275724,14.726579807414296,4.177736376400652,14.299346484692869,4.791245382657296,13.854180908698051,5.395262025161513,13.39281254492677,5.9896400323292145,12.916937960031124,6.574233286128511,12.428214173431396,7.148895753780547,11.928252337527848,7.713481523162217,11.418611737621408,8.267844934163898,10.900794102652927,8.811840798255473,10.376238217871006,9.345324698513737,9.846314830538134,9.868153362364462,9.312321839785199,10.380185099292252,8.775479761724071,10.881280295771377,8.236927460928275,11.37130195967084,7.697718139391497,11.850116306386772,7.158815574073915,12.317593378955406,6.621090594146168,12.773607694399795,6.085317789040848,13.218038908563491,5.5521724384214055,13.650772491684295,5.022227655178328,14.071700406961414,4.495951732562486,14.482039178062129,3.9723787271967046,14.88298695728592,3.4505223242385226,15.274417206836874,2.9307162668604123,15.656209260292895,2.413263404495754,16.02824936012516,1.8984368834804268,16.390431695217465,1.3864813376943843,16.742659438385736,0.8776140792032789,17.08484578389737,0.37202628890001854,17.416914984990655,-0.1301157928536094,17.738803391394242,-0.6286696755853578,18.050460486846482,-1.12351542807093,18.351849926614918,-1.614554487692379,18.642950575015632,-2.1017084697965194,18.923757542932712,-2.58491797705333,19.194283225337635,-3.0641414088143675,19.45455833880871,-3.539353770471165,19.704632959050457,-4.010545482813646,19.944577558413066,-4.4777211913885235,20.174484043411766,-4.940898575857712,20.394466792246284,-5.400107159356747,20.604663692320237,-5.855387117853159,20.805237177760525,-6.30678808950491,20.996375266936823,-6.754367984018788,21.178292599980892,-7.198191792008816" fill="none" stroke="black" stroke-width="2.2222222222222223" stroke-linejoin="round" filter="url(#fuzzy)"></polyline><!--[--><circle r="4.123375015096711" cx="3.530603094725981" cy="4.0708363402914225" stroke="black" fill="none" stroke-width="1" filter="url(#fuzzy)" clip-path="url(#rightEyeClipPath)"></circle><circle r="3.167721756304551" cx="2.157997086285775" cy="1.9875559754048835" stroke="black" fill="none" stroke-width="1" filter="url(#fuzzy)" clip-path="url(#rightEyeClipPath)"></circle><circle r="3.985401798211428" cx="-0.3957247139862172" cy="2.776434307250134" stroke="black" fill="none" stroke-width="1" filter="url(#fuzzy)" clip-path="url(#rightEyeClipPath)"></circle><circle r="3.593153832013825" cx="3.016237848473181" cy="4.535663063746453" stroke="black" fill="none" stroke-width="1" filter="url(#fuzzy)" clip-path="url(#rightEyeClipPath)"></circle><circle r="3.163232870944408" cx="0.019463444494509652" cy="1.4352301249599018" stroke="black" fill="none" stroke-width="1" filter="url(#fuzzy)" clip-path="url(#rightEyeClipPath)"></circle><circle r="4.445259731633315" cx="2.1684339417215623" cy="3.1326989822293" stroke="black" fill="none" stroke-width="1" filter="url(#fuzzy)" clip-path="url(#rightEyeClipPath)"></circle><circle r="4.479793968555081" cx="0.02198584013777527" cy="4.84831044035618" stroke="black" fill="none" stroke-width="1" filter="url(#fuzzy)" clip-path="url(#rightEyeClipPath)"></circle><circle r="3.309918396823048" cx="3.679775426799175" cy="1.3065935340568924" stroke="black" fill="none" stroke-width="1" filter="url(#fuzzy)" clip-path="url(#rightEyeClipPath)"></circle><circle r="4.672103510951288" cx="1.7345072163250919" cy="3.039186848354234" stroke="black" fill="none" stroke-width="1" filter="url(#fuzzy)" clip-path="url(#rightEyeClipPath)"></circle><circle r="3.3873605694598714" cx="2.774757220167775" cy="2.834082084961941" stroke="black" fill="none" stroke-width="1" filter="url(#fuzzy)" clip-path="url(#rightEyeClipPath)"></circle><!--]--></g><g transform="translate(-38.65777122068433 -24.619451577753605)"><polyline id="leftUpper" points="32.68446235295339,-6.2855227966849245,32.62120700159471,-6.452173903667391,32.53815604814349,-6.629697306724175,32.43443312392684,-6.817100118980307,32.3092527193737,-7.013420312337739,32.161917876353776,-7.217726312899883,31.991817880516173,-7.429116596396156,31.798425953628318,-7.646719283606521,31.581296945914687,-7.869691735786029,31.34006502839563,-8.097220150089365,31.074441385226155,-8.328519154995382,30.7842119060347,-8.562831405731652,30.46923487826198,-8.799427179699007,30.129438679499742,-9.037603971896075,29.76481946982956,-9.276686090343826,29.37543888416166,-9.516024251510117,28.961421724573675,-9.754995175734233,28.522953652649463,-9.993001182651424,28.0602788818179,-10.229469786617454,27.57369786969168,-10.463853292133145,27.063565010406087,-10.6956283892689,26.530286326957818,-10.924295749089282,25.974317163543752,-11.149379619077514,25.39615987789977,-11.370427418560059,24.796361533639526,-11.587009334131132,24.175511592593264,-11.798717915077262,23.581559131112567,-12.079814664020208,22.948845154940454,-12.353536943539078,22.27822149837373,-12.618953568726145,21.570793777969318,-12.875191605508363,20.827896718204943,-13.121436006795308,20.05107045038872,-13.35692917556873,19.24203776771853,-13.580970456930924,18.40268231939215,-13.792915561129192,17.53502772666933,-13.99217591957365,16.641217603786625,-14.178217975865653,15.723496466626091,-14.350562413854025,14.784191512038877,-14.508783324736445,13.825695250724637,-14.652507315223136,12.850448976567872,-14.781412558780204,11.86092705533212,-14.895227791969809,10.85962201561307,-14.993731257904475,9.849030424951573,-15.07674959883272,8.831639534007596,-15.144156699873363,7.809914671696067,-15.195872485915668,6.786287374185694,-15.23186167370261,5.763144230661712,-15.252132481114526,4.742816428753604,-15.256735295670413,3.727569982528774,-15.245761304264065,2.7195966259532165,-15.21934108615238,1.7210053547201571,-15.177643171213074,0.7338145993477156,-15.120872565488941,-0.24005498755345744,-15.04926924603614,-1.1987871469414806,-14.963106627093516,-2.140676049032572,-14.862689999590387,-3.064131766117276,-14.74835494600994,-3.9676851996026947,-14.620465732625558,-4.8499924783796295,-14.479413681127301,-5.709838845613687,-14.325615521655784,-6.5461420510592525,-14.159511729260714,-7.357955265995454,-13.98156484580138,-8.144469537882953,-13.792257789306245,-8.90501580184068,-13.59209215280903,-9.639066466041417,-13.381586494678414,-10.346236588125297,-13.161274622458699,-11.026284659730123,-12.931703872238629,-11.679113016237547,-12.693433385565646,-12.304767888834153,-12.447032385922839,-12.903439115986263,-12.193078456785821,-13.475459531427656,-11.932155823276808,-14.021304045759095,-11.664853639433117,-14.541588438758584,-11.39176428310737,-15.037067879501553,-11.113481660516673,-15.508635191389647,-10.830599522457945,-15.957318879187468,-10.543709794206734,-16.38428093516598,-10.25340092111674,-16.78986927521205,-9.958852978649425,-17.173788224093272,-9.65902326912364,-17.536354872034714,-9.354159182221077,-17.877913528474508,-9.044503488700862,-18.1988334320205,-8.730294070231768,-18.49950646040691,-8.41176364922443,-18.780344840451015,-8.089139518663584,-19.041778858009863,-7.762643271940274,-19.28425456793689,-7.432490532684082,-19.508231504038683,-7.098890684595367,-19.714180389031565,-6.7620466012774605,-19.902580844498353,-6.42215437606891,-20.07391910084498,-6.079403051875698,-20.228685707257213,-5.733974351003458,-20.367373241657297,-5.386042404989713,-20.490474020660685,-5.035773484436079,-20.598477809532643,-4.683325728840506,-20.691869532145006,-4.328848876429499,-20.771126980932806,-3.9724839939903305,-20.83671852685096,-3.6143632067032683,-20.889100829330964,-3.2546094279738096,-20.928716546237546,-2.8933360892648903,-20.955992043825397,-2.5306468699291225,-20.97133510669578,-2.166635427040999" fill="none" stroke="black" stroke-width="2.2222222222222223" stroke-linejoin="round" filter="url(#fuzzy)"></polyline><polyline id="leftLower" points="30.956382631098954,-1.8524317140908715,30.73653255211002,-1.6128378227250701,30.478464031027357,-1.3408956438012947,30.18426685315591,-1.0393807084003068,29.855964054554292,-0.7109744238504376,29.495512959156013,-0.3582654876261264,29.104806215890772,0.016248698753523527,28.685672835805597,0.41016061582621166,28.239879229186204,0.8211512122878881,27.76913024267814,1.2469884910942204,27.27507019640811,1.6855260955620404,26.75928392110513,2.1347018954708012,26.22329779522185,2.592536573164039,25.66858078205574,3.057132209650825,25.096545466870378,3.5266708707072167,24.508549094016644,3.9994131929777224,23.90589460405399,4.473696970076754,23.289831670871678,4.947935738690091,22.66155773881002,5.42061736467631,22.022219059781623,5.890302629168274,21.372911730392616,6.355623814674572,20.714682729063917,6.815283291180967,20.04853095315245,7.268052102251878,19.37540825607241,7.712768551131805,18.69622048441648,8.148336786846809,18.01182851507709,8.573725390305956,17.191890247908486,9.169572047204397,16.367424079495656,9.747184847850853,15.539713646426758,10.304435068306809,14.7099609716711,10.839376864068722,13.879290916095952,11.35024306768889,13.048755434390005,11.835440882387974,12.21933763991143,12.293547476320647,11.391955682978608,12.723305482155649,10.567466447121467,13.12361840663159,9.746669067811501,13.493545954749912,8.930308278188448,13.832299273266301,8.119077586301657,14.139236118141952,7.313622288384135,14.413855950615943,6.514542322677293,14.655794966560268,5.722394968324416,14.864821063778553,4.937697393850842,15.04082875191023,4.16092905974888,15.183834009601071,3.3925339796854788,15.293969093601842,2.6329228448506368,15.371477304456082,1.882475015964581,15.416707713438633,1.1415403874617414,15.430109855406084,0.4104411283694729,15.412228392220587,-0.3105266956003838,15.363697751408331,-1.0210916142291513,15.28523674471408,-1.721005354720158,15.177643171213074,-2.410041548860721,15.04178840964169,-3.0879945408993077,14.878612004608186,-3.754678291619843,14.68911625134485,-4.409925374095163,14.474360783663034,-5.0535860566015565,14.235457169772207,-5.685527468176483,13.973563520624612,-6.30563284230133,13.6898791154467,-6.913800834191337,13.38563904911879,-7.509944907174514,13.062108906064228,-8.093992783641735,12.720579465309559,-8.665885956049797,12.362361441376777,-9.225579253459594,11.988780265669345,-9.773040459091307,11.60117091301304,-10.308249974378631,11.20087277801317,-10.831200525004009,10.789224605889423,-11.34189690439689,10.367559482449682,-11.840355750176954,9.93719988786427,-12.326605349024387,9.49945281890184,-12.80068546545904,9.055604984288344,-13.262647190010647,8.606918077850406,-13.71255280226191,8.154624134104438,-14.150475644246605,7.699920970952912,-14.576499999684579,7.243967724149043,-14.990720974535627,6.78788047819127,-15.3932443743544,6.332727998308983,-15.785148548520215,5.877277042119677,-16.16742207815492,5.420001197968566,-16.540046964489505,4.961474735148147,-16.903009560146756,4.5022490977719665,-17.256301174231936,4.04285228048657,-17.599918677423545,3.5837882041833913,-17.93386510706405,3.1255360917107042,-18.25815027225061,2.6685498435855246,-18.572791358925812,2.2132574137055565,-18.877813534968396,1.7600601850611062,-19.17325055528399,1.3093323454470012,-19.459145366895843,0.8614202631745238,-19.735550714035547,0.4166418627833286,-20.00252974323379,-0.024713999246626983,-20.260156608411044,-0.4623881587831642,-20.508517075968363,-0.8961517683299576,-20.747709129878032,-1.3258069213146086,-20.977843576774383,-1.7511872763767147,-21.199044651044442,-2.1721586816559637,-21.411450619918742,-2.588619799080198,-21.615214388561988,-3.0005027286534838,-21.810504105163826,-3.407773632744198,-21.997503766029553,-3.8104333603730987,-22.176413820670877,-4.208518071501398" fill="none" stroke="black" stroke-width="2.2222222222222223" stroke-linejoin="round" filter="url(#fuzzy)"></polyline><!--[--><circle r="3.0602387508928635" cx="1.2160251036518872" cy="0.1230357682933283" stroke="black" fill="none" stroke-width="1" filter="url(#fuzzy)" clip-path="url(#leftEyeClipPath)"></circle><circle r="3.867755538639757" cx="1.651176756234337" cy="-1.3641174284183624" stroke="black" fill="none" stroke-width="1" filter="url(#fuzzy)" clip-path="url(#leftEyeClipPath)"></circle><circle r="3.1757997980852766" cx="-0.34217188624606987" cy="-3.5693758387976864" stroke="black" fill="none" stroke-width="1" filter="url(#fuzzy)" clip-path="url(#leftEyeClipPath)"></circle><circle r="3.1341291074645925" cx="-0.4305536671798573" cy="-3.671575694003899" stroke="black" fill="none" stroke-width="1" filter="url(#fuzzy)" clip-path="url(#leftEyeClipPath)"></circle><circle r="4.18503858228185" cx="-1.2190178824423592" cy="-1.679187701303107" stroke="black" fill="none" stroke-width="1" filter="url(#fuzzy)" clip-path="url(#leftEyeClipPath)"></circle><circle r="3.844179890630983" cx="-0.8938949923123252" cy="-0.7287856710745517" stroke="black" fill="none" stroke-width="1" filter="url(#fuzzy)" clip-path="url(#leftEyeClipPath)"></circle><circle r="3.6439249376181113" cx="2.4493018111798186" cy="-2.9111526336191633" stroke="black" fill="none" stroke-width="1" filter="url(#fuzzy)" clip-path="url(#leftEyeClipPath)"></circle><circle r="3.6273066932605116" cx="-1.630078201399113" cy="-2.356053568862668" stroke="black" fill="none" stroke-width="1" filter="url(#fuzzy)" clip-path="url(#leftEyeClipPath)"></circle><circle r="3.108331356133383" cx="-1.9216702827702206" cy="-2.8335506274606077" stroke="black" fill="none" stroke-width="1" filter="url(#fuzzy)" clip-path="url(#leftEyeClipPath)"></circle><circle r="3.1786816798637028" cx="1.9047401125644114" cy="-1.5725648996976975" stroke="black" fill="none" stroke-width="1" filter="url(#fuzzy)" clip-path="url(#leftEyeClipPath)"></circle><!--]--></g><g id="hairs"><!--[--><polyline points="-21.949515286916174,-68.48248769517846,-21.401321695004544,-70.23928474845458,-20.621696669435792,-71.32072760805909,-19.78829878639703,-72.04683439190572,-18.981688471176913,-72.67783464447943,-18.199798997745642,-73.39837284271823,-17.429825478145585,-74.2879841156456,-16.66717381444097,-75.29828502898317,-15.91194508763204,-76.30929670829046,-15.165372891677158,-77.22252475797274,-14.430277854232978,-78.01646288119518,-13.712327110979869,-78.73596681072485,-13.018582039616284,-79.44181379947926,-12.352697403320489,-80.16804376154711,-11.70939311656858,-80.9169323983656,-11.071426329787862,-81.68302551047132,-10.409508689043106,-82.46858434722097,-9.683467614497633,-83.26108593010605,-8.847675081984917,-83.9922341889217,-7.875615109267796,-84.54474894203788,-6.825512616934613,-84.84546376524527,-5.962491467368218,-84.95845691567534,-6,-85" fill="none" stroke="rgb(165, 42, 42)" stroke-width="2" stroke-linejoin="round" filter="url(#fuzzy)"></polyline><polyline points="-14,-83,-13.167332254172214,-83.55877897787741,-12.559052101849646,-84.74149980314917,-12.108852872404881,-86.78545779773087,-11.69987861483934,-89.57481967411947,-11.201079280121453,-92.48249124719695,-10.523902717566347,-94.91176918354859,-9.653793863697102,-96.5455089087628,-8.640537838439446,-97.34566168165328,-7.5636435807174855,-97.52893053664127,-6.494745028194743,-97.52008755194365,-5.476055881517103,-97.80152171363228,-4.523062090698214,-98.70987953507058,-3.6343555113191073,-100.33584703719255,-2.7671422123920304,-102.56911500379542,-1.7630270807517854,-105.09435021563542,-0.3553737797151965,-107.13590418072916,1.262426461518571,-107.30624922907853" fill="none" stroke="rgb(165, 42, 42)" stroke-width="2" stroke-linejoin="round" filter="url(#fuzzy)"></polyline><polyline points="-55.95411755628995,-78.07551286924179,-54.46578821287309,-81.4797495506117,-52.37214648555664,-81.5258378290899,-50.49774561035376,-81.03533434426626,-49.04543690590678,-81.01694635539963,-47.729279704727254,-81.14804260013881,-46.27674249017432,-80.98177809857566,-44.640995979438806,-80.44151024679383,-42.9272959035072,-79.69620965466046,-41.25639749671919,-78.92694010666958,-39.701749199692614,-78.25644422738846,-38.288289607327116,-77.78126375022717,-36.9953765783346,-77.56417105996665,-35.764264051694894,-77.59206427548828,-34.54798875235699,-77.80099535246221,-33.35926812212203,-78.09831304680544,-32.16343374035677,-78.0890121871751,-30.67407320796757,-76.7757111346031,-29,-75" fill="none" stroke="rgb(165, 42, 42)" stroke-width="2" stroke-linejoin="round" filter="url(#fuzzy)"></polyline><polyline points="60,-18,59.19171972771642,-19.020111133902947,58.72858823759035,-20.31461799260113,58.436260016284294,-21.66002405592393,58.182864482879296,-22.885245158719123,57.904823386527426,-23.96759193920289,57.56325280196047,-24.950936715242776,57.13376959627254,-25.883797277208416,56.6080835992562,-26.800700243229574,55.995036307919875,-27.731908120665093,55.321031293415814,-28.71356974233972,54.62620946278158,-29.777813683451548,53.950540478683095,-30.9262645096142,53.312867258367206,-32.11200241632343,52.69751657319076,-33.25462908155444,52.063347053942266,-34.28793345279865,51.37481165828459,-35.208636572261106,50.634253819895385,-36.08576988891682,49.887849507907085,-37.014939942859556,49.19862024777125,-38.03941376461955,48.618888254930624,-39.08333872597562,48.175353262783005,-39.99558859849168,47.58728336204535,-41.055695449607754,60,-18,62.32870328491204,-18.54327462845412,62.11920873054486,-17.72803812730898,61.92860676299488,-16.306778453258186,62.32713101436096,-14.678293935425089,63.25030428307854,-13.082137739700835,64.51464183336927,-11.634312827744138,65.99949598286437,-10.343902619576506,67.67096884199177,-9.155425574423463,69.53090770667205,-7.9984265579530005,71.56628421616034,-6.814470386700838,73.74428313395582,-5.559598725035363,76.00354981423877,-4.216893803800941,78.10130236594838,-2.848391386072581,79.31560978154312,-1.5805887488153338,78.77510245001126,0" fill="none" stroke="rgb(165, 42, 42)" stroke-width="2" stroke-linejoin="round" filter="url(#fuzzy)"></polyline><polyline points="-39,-65,-38.36493828690639,-66.0115436489409,-37.81339741198417,-66.86578324812328,-37.238300215333915,-67.80082110139894,-36.67094629894479,-68.84682834889354,-36.13142864070653,-69.94033437591527,-35.608636430137075,-71.05222717544456,-35.075697228233395,-72.19784845692094,-34.506433716419664,-73.38946734975845,-33.88654771764663,-74.60659374709923,-33.219419683158534,-75.80929628189944,-32.52573972075971,-76.97584890418256,-31.835768134194357,-78.12777469410074,-31.175200044854428,-79.31352006759639,-30.550774464620073,-80.55405482434945,-29.947276458964378,-81.79589381442652,-29.346284132014507,-82.93520838323869,-28.76126169791435,-83.93147962528917,-28.25716589330654,-84.92360784594257,-27.912379088363007,-86.19193376199817,-27.718979773249565,-87.94637715714103,-27.433803573054046,-90.3029367613029,-43,-60,-42.60401637760746,-63.79034283486771,-41.60522744286722,-64.84193116186022,-41.00319480835291,-65.93128652634898,-40.778218405210254,-67.55728341505038,-40.67586131200493,-69.42622322126147,-40.524311619640905,-71.26947453939741,-40.307189102918194,-73.06861969300533,-40.089296127282395,-74.92935053359699,-39.90944943119501,-76.89734821060125,-39.72965404533558,-78.89389889326476,-39.45957783011064,-80.77882516676841,-39.01893760470124,-82.45188315461782,-38.38874386125414,-83.91042834593054,-37.622383413425446,-85.23693467282988,-36.81400683409452,-86.53761106719881,-36.04304822962795,-87.87714424606324,-35.327649700399846,-89.2558928295351,-34.61795257251129,-90.64021203903022,-33.83928561987063,-92.00372244152297,-32.98204461857648,-93.40844778398268,-32.1695779398742,-95.27144236039666,-44,-59,-42.901812024120424,-59.88950630797185,-42.31038517459803,-61.07419860985011,-41.68211696820823,-62.33349968253888,-41.024181491176,-63.47114941627327,-40.420314726587534,-64.54938501778396,-39.90427898198439,-65.68295040145524,-39.45314009767991,-66.89862265821421,-39.012832576868036,-68.13850527225176,-38.53022663280923,-69.32518193570678,-37.97946560899724,-70.40859318010993,-37.37119798260732,-71.37531063843797,-36.74062206376574,-72.24807122275097,-36.12362287641642,-73.10255280599128,-35.53721459775084,-74.08290374056817,-34.97505750970694,-75.34628198275163,-34.4416736626503,-76.86029631870271,-34.179396415819255,-77.97174807358768" fill="none" stroke="rgb(165, 42, 42)" stroke-width="2" stroke-linejoin="round" filter="url(#fuzzy)"></polyline><polyline points="-71.50128035566799,-42.13468306673292,-69.26084484839527,-43.39738412429864,-67.95531394827236,-44.74908627493975,-66.68130636234778,-45.704194971091546,-65.43674265869258,-46.419464049453595,-64.30687482230752,-47.16497499684079,-63.22774627149651,-47.988324374352295,-62.07163670772768,-48.77233662429836,-60.78240799729104,-49.42021442956858,-59.4344493648199,-49.96580563473839,-58.18256220354279,-50.54719384757637,-57.14231587317692,-51.291685254758704,-56.293281947800125,-52.21364330329964,-55.48377076952969,-53.20310490992056,-54.527470141376476,-54.09576758989179,-53.29871590147484,-54.7394776031341,-51.759249216338944,-55.00622473090104,-49.98080135230033,-54.84095982075174,-48.255620695079095,-54.47260351986884,-47.03486184266977,-54.50363717306593,-46,-55,-47.383680949596986,-94.76736189919397,-47.97946482469976,-91.46400554708038,-48.50278936491938,-89.09011760791225,-48.59456890190039,-86.51823838952394,-48.595081463213056,-84.00073006924036,-48.65469659286948,-81.66729239727623,-48.68967737495736,-79.3445122512101,-48.581296518488166,-76.8099985544213,-48.34407846079565,-74.05611005824848,-48.16002872440855,-71.35412285060033,-48.276853172735116,-69.09072770023698,-48.8453608932362,-67.50793663229449,-49.804735387354555,-66.53310395975205,-50.894660088155106,-65.81443846673939,-51.791379672883195,-64.93297539038615,-52.276564841761854,-63.63714515614429,-52.3190029832562,-61.928605223631294,-52.02194000138464,-59.950072901899446,-51.522635828905834,-57.811338725387735,-50.98275767697287,-55.55805349314572,-50.633112726057995,-53.2980262617259,-50.48582824769612,-51.19682934497558,-49,-49,-46.26839461084271,-83.78330916017464,-46.66969317014397,-82.52980854177278,-46.8397842143723,-80.64513120832787,-47.22752032017656,-78.95521451368178,-47.55613905607231,-77.1611823423066,-47.71572238670138,-75.08373489636875,-47.792958372592125,-72.8298726951464,-47.931171982895556,-70.64287054493904,-48.22586246630842,-68.71393781020927,-48.68322008090631,-67.08177240508111,-49.22169931007858,-65.63814907768766,-49.70259007512785,-64.20087576262675,-49.987962649953,-62.61008606996106,-50.017384717756315,-60.81451115434049,-49.87150723381567,-58.91665015960708,-49.7749337560961,-57.145891970509844,-50.00302071256423,-55.744719918954544,-50.6984018336445,-54.79129494991471,-51.66651642286773,-54.0356497681711,-52.31278724747345,-52.89217501846183,-51.99626162056676,-50.78828742242261,-50.98509115987525,-47.965628573898584,-51,-46" fill="none" stroke="rgb(165, 42, 42)" stroke-width="2" stroke-linejoin="round" filter="url(#fuzzy)"></polyline><polyline points="-54,-39,-55.10871024659083,-41.96442434534269,-54.39359583088483,-43.3104637745589,-53.89471473640048,-44.47852420924997,-53.920187138463966,-45.9479873187316,-54.17059425736113,-47.58816216685751,-54.30515092792749,-49.170533537846694,-54.17860664694266,-50.61010893857727,-53.82621761925487,-51.95305157069987,-53.3505282766581,-53.27558239929206,-52.84699461664998,-54.62014257316192,-52.40038989233792,-55.9979339430601,-52.098194523256595,-57.42136911914559,-52.00703431523241,-58.919987328363,-52.122044099362476,-60.521275483089724,-52.35289052276814,-62.230686767648486,-52.6019657021658,-64.1472962179135,-52.93912596780231,-67.05622622588292" fill="none" stroke="rgb(165, 42, 42)" stroke-width="2" stroke-linejoin="round" filter="url(#fuzzy)"></polyline><polyline points="45,-54,45.305563504173335,-53.51198496171491,45.04694296145739,-52.21504442827236,44.87824275439649,-50.536542416540904,45.101240044170865,-48.99586800750938,45.66986600460736,-47.77829113640999,46.36152658713765,-46.7624287976891,46.96028550678058,-45.73984736872293,47.35419401321621,-44.58284340164636,47.53414615910616,-43.28011829549178,47.53749152829754,-41.87921455729282,47.39994602418354,-40.4162338274235,47.163462154509354,-38.894321606719025,46.92704750353258,-37.32392225653889,46.83217398629591,-35.79806361685347,46.82167588214079,-34.56388813730671,46.16952029845005,-33.97379795546325,40,-62,40.74909411291709,-62.570986178412255,41.44321089787161,-61.74165826520383,42.16945764981704,-60.64832622221757,43.04018987239472,-59.642982869491654,43.99944162895628,-58.78619541880075,44.90631678814344,-58.05040543375184,45.67724491117316,-57.40465615166874,46.334897796778975,-56.83715484197011,46.95200512442424,-56.32618624960429,47.5744850964318,-55.789777602629066,48.20788004885364,-55.08141688858986,48.871162581888086,-54.08911893944419,49.63705598387161,-52.89952929518802,50.593926717700285,-51.817332850688715,51.879136884823865,-50.820378989215214,65.61491841847891,-64.27583845075485,63.650867701810675,-65.17598938738715,60.5845201088776,-64.48315675855504,57.94421849814564,-64.03287112622964,55.968575351789035,-63.88876471835318,54.43632922913158,-63.838683002439936,53.05794892787752,-63.7191295182994,51.62645908729298,-63.46509888830011,50.06866964875726,-63.13422403444355,48.44060791115198,-62.88575284005958,46.86848915457223,-62.886465958783766,45.460095587486684,-63.19990795214928,44.24137857576178,-63.7476309439708,43.16124238515363,-64.37660502807307,42.14950941692223,-64.97431066357825,41.14581397092659,-65.50356429001,40.023629539405846,-65.8493570896123,38.5479769737142,-65.63818571881193,37,-65" fill="none" stroke="rgb(165, 42, 42)" stroke-width="2" stroke-linejoin="round" filter="url(#fuzzy)"></polyline><polyline points="28,-74,28.823553489229596,-74.75956932196962,30.88116217538228,-77.01041570059942,32.824333913275105,-78.62823033195743,34.089038124866754,-78.61298902578505,34.89232355761464,-77.52501750748253,35.61885084011529,-76.32161445970372,36.50072462539322,-75.58872914852576,37.59935450424926,-75.42311727514591,38.89401810493734,-75.66519005259423,40.34351011582165,-76.1460195852152,41.90319940196478,-76.78606845612566,43.54482708258995,-77.57227836374626,45.30828417192646,-78.5161820120009,47.354815757190316,-79.65002373090041,49.998798169058794,-81.10152672501245,53.893842358872774,-83.5354556562528" fill="none" stroke="rgb(165, 42, 42)" stroke-width="2" stroke-linejoin="round" filter="url(#fuzzy)"></polyline><polyline points="21,-79,21.929374552814288,-80.16473466358093,22.85597544587174,-79.50714145919005,23.90144431402493,-78.9092128791505,25.124190632429972,-78.84700616226831,26.46343693461391,-79.24099809512816,27.772861680797114,-79.75304778842147,28.92364816382018,-80.03925564446686,29.8969351506449,-79.96145189444047,30.790814462497853,-79.63197979269044,31.754864230219997,-79.30393699122038,32.916374653057154,-79.22743927952689,34.34297710453997,-79.56637644452611,36.04059617768897,-80.3805191349465,37.96328141202111,-81.62701454187481,40.02296696307594,-83.15697065909735,42.107164024576065,-84.73269516832411,44.111825583760414,-86.10016261699633,45.9728248704453,-87.0938230322367,47.6637536835661,-87.68202547773924,49.15749799060467,-87.88414843759689,50.416457409339685,-87.64258000960123,51.489613754829904,-86.85742089544232,52.618410134836964,-85.56402797157506,53.859992320731216,-83.48298809713339" fill="none" stroke="rgb(165, 42, 42)" stroke-width="2" stroke-linejoin="round" filter="url(#fuzzy)"></polyline><polyline points="-1.7341225433161342,-73.7002080909357,-1.5883992503726683,-74.74042463531642,-0.7045381257219404,-75.527469727223,0.21867190994224803,-76.08551056229767,1.1355677888200222,-76.61461666255742,2.052532611265624,-77.25968890053835,2.9264198054753363,-78.01104495026046,3.7186626072156046,-78.75093690507941,4.438551341963153,-79.35804370699194,5.140476838817496,-79.78277565309014,5.892658479582618,-80.05616360614998,6.742659448891218,-80.25021608476601,7.696443040161845,-80.4315936176876,8.717237618822956,-80.63654927057311,9.742297444491312,-80.8666034771033,10.70939871406824,-81.0897650396672,11.580521481168283,-81.23970282198073,12.350402031132898,-81.22118641235072,13.036349117613698,-80.93734284413432,13.662060435601674,-80.34972401878214,14.260759595327405,-79.56734838683077,14.911183456027127,-78.9138410941388,15.77219805471392,-78.81367449212604,17.045974429773022,-79.31777806943978,19,-80,16,-82,15.382823693149776,-82.48616278344788,14.79652481531668,-82.7549489914534,14.163657473848334,-83.28135950955237,13.563677011624652,-84.23183373122988,13.032510219930145,-85.5413012867947,12.500092931789316,-86.97419311947806,11.840790890047032,-88.3083387020362,10.969624483453112,-89.49526675443123,9.904780717357855,-90.63867735922538,8.755252727364256,-91.80803622240694,7.656251763164836,-92.88986576386827,6.717207028520046,-93.69580400182967,6.028562826416168,-94.3132491845148,5.69136018473585,-95.33520984888044,5.742124353826639,-97.61611401505286,15,-82,14.558079027523444,-85.56627505072626,13.886159690096168,-86.96961875470718,13.32175459258353,-88.24130174432307,12.754593660853564,-89.39642120835519,11.984831375815224,-90.08471699384043,10.955329894930523,-90.37614034067049,9.768173163045578,-90.67874786013455,8.591301599250334,-91.402483173479,7.566386813670047,-92.76965499184561,6.7646886920949925,-94.84043759542874,6.179518785806578,-97.63008704709732,5.724618535960863,-101.1647783428794,5.223523281058851,-105.3756080777471,4.397179615289049,-109.79815942921802,2.849676801861316,-113.22439882043807,0,-114.28183949165171,25.42664846232425,-77.29701132546572,24.02923476335132,-78.22631279791528,23.05444749274199,-78.99530833003197,22.252590514116445,-79.48016666075718,21.59050630797862,-79.73146834775618,21.003280365073074,-79.8841109533863,20.402452596912294,-80.07025023304983,19.714681452564687,-80.36837048056117,18.90758927287646,-80.78476284831062,17.99982638151316,-81.263093263351,17.051402069174234,-81.71959376832378,16.133458755594237,-82.09177087391936,15.289527484266214,-82.37368216066008,14.51180840240721,-82.60998709802628,13.755510584921073,-82.84890180779654,12.998229338799275,-83.10332389080509,12.324389152227422,-83.4041093044776,12,-84,5,-85,5.345874883053977,-85.14434568091716,6.177922053076482,-85.86050228056759,7.307862053890269,-86.86469224903173,8.573813170454295,-87.58813908670616,9.835368757685977,-87.93984494245579,11.011151827782184,-88.21458280280349,12.090815077842132,-88.72383533794348,13.113016791561908,-89.59146076311755,14.132453576495365,-90.78023663575851,15.195697828435991,-92.20304418708055,16.32860309009293,-93.7631205110385,17.53180453523819,-95.30221023780142,18.786143563988162,-96.57412344769038,20.07037441628697,-97.36174065482464,21.380596962091687,-97.69547844512982,22.728167770033913,-97.95606010146362,24.105084343772393,-98.66852130608879,25.4477602657532,-100.09744021589877,26.659559335694684,-102.09958456357997,27.683976932999105,-104.4964037120601,28.367283300537473,-106.71501813059335" fill="none" stroke="rgb(165, 42, 42)" stroke-width="2" stroke-linejoin="round" filter="url(#fuzzy)"></polyline><!--]--></g><g id="lineNose"><path d="M -8.709597424759979 36.485204140814766, Q9.765986463865442 49.724915327456664,0.5281945195527316 -5.415436266960683" fill="none" stroke="black" stroke-width="3" stroke-linejoin="round" filter="url(#fuzzy)"></path></g><g id="mouth"><polyline points="-20.18357164769813,48.318086413314624,-19.80970985870861,49.645503122310814,-19.428850005717752,50.943636550942614,-19.041181217057844,52.21255379399793,-18.646892621061156,53.45232194626462,-18.24617334605999,54.663008102530576,-17.839212520386617,55.84467935758368,-17.426199272373324,56.99740280621178,-17.007322730352403,58.12124554320282,-16.58277202265613,59.216274663344606,-16.152736277616782,60.28255726142504,-15.717404623566653,61.320160432232,-15.276966188838026,62.32915127055338,-14.83161010176318,63.30959687117704,-14.381525490674408,64.26156432889088,-13.926901483903983,65.18512073848275,-13.467927209784193,66.08033319474056,-13.004791796647329,66.94726879245216,-12.537684372825662,67.78599462640545,-12.066794066651488,68.5965777913883,-11.592310006457083,69.37908538218858,-11.114421320574731,70.13358449359419,-10.633317137336723,70.86014222039297,-10.149186585075334,71.55882565737284,-9.662218792122854,72.22970189932164,-9.17260288681157,72.87283804102731,-8.680527997473753,73.48830117727765,-8.186183252441698,74.07615840286059,-7.689757780047684,74.63647681256398,-7.191440708623996,75.16932350117574,-6.691421166502918,75.67476556348369,-6.189888282016737,76.15287009427577,-5.68703118349773,76.60370418833982,-5.183038999278187,77.02733494046372,-4.67810085769039,77.42382944543535,-4.172405887066623,77.7932547980426,-3.6661432157391673,78.13567809307332,-3.15950197204031,78.45116642531545,-2.652671284302336,78.73978688955681,-2.1458402808575228,79.00160658058529,-1.6391980900381624,79.23669259318876,-1.1329338401765345,79.44511202215516,-0.6272366596049217,79.6269319622723,-0.1222956766556107,79.78221950832805,0.38169998033911456,79.91104175511035,0.8845611830469744,80.01346579740706,1.3860988031356798,80.08955873000603,1.886123712272949,80.13938764769516,2.384446782126499,80.16301964526231,2.8808788843640447,80.16052181749538,3.3752308906533015,80.13196125918223,3.867313672661987,80.07740506511075,4.356938102057817,79.99692033006882,4.8439150505085085,79.89057414884431,5.328055389681777,79.75843361622512,5.809169991245335,79.6005658269991,6.287069726866907,79.41703787595414,6.761565468214199,79.20791685787813,7.2324680869549365,78.97326986755891,7.69958845475683,78.7131639997844,8.162737443287595,78.42766634934247,8.621725924214951,78.11684401102099,9.076364769206613,77.78076407960783,9.526464849930296,77.41949364989088,9.971837038053717,77.03309981665805,10.41229220524459,76.62164967469715,10.847641223170637,76.18521031879611,11.277694963499567,75.72384884374277,11.702264297899102,75.23763234432505,12.121160098036952,74.72662791533081,12.53419323558084,74.19090265154793,12.941174582198478,73.63052364776428,13.341915009557582,73.04555799876775,13.736225389325867,72.4360727993462,14.123916593171055,71.80213514428752,14.504799492760856,71.14381212837961,14.878684959762989,70.46117084641031,15.24538386584517,69.75427839316754,15.604707082675112,69.02320186343914,15.956465481920535,68.268008352013,16.300469935249154,67.488764953677,16.636531314328685,66.68553876321903,16.964460490826845,65.85839687542695,17.284068336411348,65.00740638508864,17.59516572274991,64.13263438699201,17.897563521510254,63.2341479759249,18.191072604360084,62.312014246675204,18.475503842967125,61.3663002940308,18.75066810899909,60.39707321277956,19.016376274123697,59.40440009770937,19.272439210008663,58.38834804360812,19.5186677883217,57.34898414526366,19.754872880730524,56.28637549746388,19.980865358902854,55.20058919499667,20.19645609450641,54.09169233264989,20.4014559592089,52.959752005211435,20.595675824678043,51.804835307469176,20.77892656258156,50.627009334210996,20.95101904458716,49.42634118022476,21.11176414236256,48.20289794029836,21.26097272757547,46.95674670921976,21.111764142362553,48.20289794029845,20.951019044587145,49.42634118022484,20.778926562581546,50.62700933421107,20.595675824678032,51.80483530746925,20.401455959208885,52.9597520052115,20.196456094506395,54.09169233264996,19.98086535890284,55.200589194996724,19.75487288073051,56.28637549746395,19.518667788321686,57.34898414526372,19.27243921000865,58.38834804360818,19.016376274123687,59.404400097709434,18.75066810899908,60.397073212779624,18.475503842967107,61.36630029403085,18.191072604360066,62.312014246675254,17.897563521510232,63.23414797592494,17.595165722749893,64.13263438699205,17.28406833641133,65.0074063850887,16.964460490826824,65.85839687542699,16.636531314328664,66.68553876321906,16.300469935249136,67.48876495367703,15.956465481920517,68.26800835201303,15.604707082675093,69.02320186343917,15.245383865845147,69.75427839316757,14.878684959762966,70.46117084641035,14.50479949276084,71.14381212837965,14.123916593171037,71.80213514428758,13.736225389325853,72.43607279934625,13.341915009557566,73.04555799876779,12.94117458219846,73.63052364776432,12.534193235580823,74.19090265154796,12.121160098036933,74.72662791533085,11.702264297899083,75.23763234432509,11.27769496349955,75.72384884374281,10.847641223170617,76.18521031879614,10.412292205244572,76.62164967469718,9.971837038053698,77.03309981665807,9.526464849930276,77.41949364989092,9.076364769206593,77.78076407960788,8.62172592421493,78.11684401102103,8.162737443287574,78.42766634934249,7.6995884547568085,78.71316399978444,7.232468086954914,78.97326986755893,6.761565468214179,79.20791685787815,6.287069726866885,79.41703787595414,5.809169991245315,79.60056582699912,5.3280553896817535,79.75843361622513,4.843915050508487,79.89057414884434,4.356938102057796,79.99692033006883,3.867313672661963,80.07740506511077,3.3752308906532784,80.13196125918222,2.8808788843640203,80.16052181749536,2.384446782126476,80.1630196452623,1.886123712272925,80.13938764769513,1.3860988031356554,80.08955873000602,0.8845611830469506,80.01346579740704,0.3816999803390906,79.91104175511035,-0.12229567665563401,79.78221950832805,-0.6272366596049466,79.62693196227227,-1.132933840176558,79.44511202215513,-1.6391980900381866,79.23669259318876,-2.1458402808575494,79.00160658058526,-2.652671284302359,78.73978688955678,-3.1595019720403346,78.45116642531542,-3.666143215739192,78.13567809307331,-4.172405887066646,77.79325479804258,-4.6781008576904135,77.42382944543533,-5.183038999278212,77.02733494046367,-5.687031183497755,76.60370418833978,-6.18988828201676,76.15287009427573,-6.691421166502941,75.67476556348366,-7.19144070862402,75.1693235011757,-7.689757780047707,74.63647681256397,-8.186183252441719,74.07615840286056,-8.680527997473776,73.4883011772776,-9.172602886811593,72.87283804102725,-9.662218792122882,72.22970189932161,-10.14918658507536,71.55882565737281,-10.633317137336748,70.86014222039293,-11.114421320574758,70.13358449359414,-11.592310006457108,69.37908538218855,-12.066794066651513,68.59657779138826,-12.537684372825689,67.78599462640541,-13.004791796647353,66.94726879245212,-13.467927209784222,66.08033319474052,-13.926901483904008,65.18512073848271,-14.381525490674433,64.26156432889084,-14.831610101763207,63.30959687117699,-15.276966188838049,62.329151270553325,-15.717404623566676,61.320160432231944,-16.152736277616807,60.28255726142497,-16.58277202265615,59.216274663344535,-17.007322730352428,58.12124554320275,-17.426199272373353,56.997402806211724,-17.839212520386646,55.844679357583615,-18.24617334606002,54.66300810253051,-18.646892621061188,53.45232194626455,-19.04118121705787,52.212553793997856,-19.42885000571778,50.943636550942536,-19.809709858708636,49.64550312231072" fill="rgb(215,127,140)" stroke="black" stroke-width="3" stroke-linejoin="round" filter="url(#fuzzy)"></polyline></g></svg>