<svg viewBox="-100 -100 200 200" xmlns="http://www.w3.org/2000/svg" width="400" height="400" id="face-svg"><defs><clipPath id="leftEyeClipPath"><polyline points="24.339698324658357,-1.566863364790783,24.438800230116385,-2.0969547812002673,24.503853119457162,-2.6115335685275847,24.53498450065714,-3.1108902819979445,24.53236792284138,-3.5953021659744824,24.496221427527296,-4.06503355906363,24.426805999868257,-4.520336299220494,24.324424019897307,-4.961450128854247,24.18941771377085,-5.3886030999335,24.022167605012307,-5.802011979091686,23.823090965755803,-6.2018826527324435,23.59264026798983,-6.588410532134996,23.331301634800965,-6.961780958559535,23.039593291617507,-7.3221696083526,22.71806401745318,-7.669742898052459,22.367291596150814,-8.004658389494494,22.070116981126645,-8.385224390051778,21.72862195651168,-8.753789654944914,21.34304517053323,-9.10990807983434,20.91385698902198,-9.45313725031683,20.44174410516225,-9.783042325537721,19.92759450446853,-10.099199660427026,19.372482782530852,-10.40120017255827,18.777655813071433,-10.688652459629147,18.144518763854897,-10.961185673562852,17.47462145799475,-11.218452157229159,16.76964507819835,-11.460129849784124,16.031389211492964,-11.685924466627473,15.261759231975303,-11.895571459976576,14.462754019126963,-12.088837766056017,13.636454009238284,-12.265523344901698,12.785009577482993,-12.425462518778495,11.910629748186205,-12.568525115210381,11.015571230828089,-12.694617420622041,10.102127779325743,-12.803682950590883,9.1726198721357,-12.895703042708519,8.229384710719504,-12.970697278050547,7.274766533914848,-13.028723737253745,6.311107245754645,-13.069879097199543,5.340737354276568,-13.094298574302794,4.365967218865448,-13.102155720404827,3.389078603671013,-13.093662077269684,2.4123165346434003,-13.069066695682618,1.437881457728893,-13.028655525149688,0.4679216957683465,-12.97275068019757,-0.4954737983592663,-12.901709589272432,-1.4502823948057397,-12.81592403223691,-2.394554448492465,-12.715819072464132,-3.3264196719768293,-12.601851889527769,-4.244093221903636,-12.47451051848709,-5.145881501499192,-12.334312501765964,-6.030187681565552,-12.181803459624795,-6.895516942432482,-12.017555585224407,-7.740481439324714,-11.842166070280754,-8.563804993602007,-11.656255467309506,-9.364327512329613,-11.460465994459433,-10.141009138636637,-11.255459788933617,-10.892934135319894,-11.041917114997371,-11.6193145041508,-10.820534532571944,-12.319493343342803,-10.592023032412879,-12.992947945636999,-10.357106143872063,-13.639292639463376,-10.116518021242433,-14.25828137563532,-9.871001514684266,-14.849810062034889,-9.621306231732076,-15.41391864874639,-9.368186595381049,-15.950792966095907,-9.112399904752014,-16.46140599466962,-8.853104886783893,-16.946338872944388,-8.5891847861859,-17.405333473202386,-8.320981059576807,-17.83817595722875,-8.048829698813933,-18.244696447175343,-7.773060427559559,-18.62476869642454,-7.493995897847394,-18.978309760453012,-7.211950886648995,-19.30527966769555,-6.927231492440191,-19.60568109040878,-6.640134331767552,-19.879559015535037,-6.350945735814799,-20.127000415566073,-6.059940946969246,-20.348133919406905,-5.767383315388243,-20.543129483239575,-5.4735234955656065,-20.712198061386914,-5.178598642898059,-25.779735047268296,-0.8870696551176236,-25.437727756985524,-0.6058695852673863,-25.082754522839593,-0.3192588240257286,-24.714937289773687,-0.02714014278784882,-24.33442668959276,0.2705718314635015,-23.941400240443002,0.5739489020155601,-23.53606054629153,0.8830475882831159,-23.11863349640584,1.1979074116660575,-22.68936646483352,1.5185491814069252,-22.24852650988167,1.8449732804484746,-21.79639857359662,2.177157951291215,-21.333283681243415,2.515057581850974,-20.859497140785415,2.8586009913164423,-20.375366742363873,3.207689716006735,-19.881230957777504,3.5621962952289428,-19.375411178847365,3.922361894831342,-18.856327651011057,4.288595343757656,-18.324479682234255,4.6609129887175085,-17.780372303844217,5.039218690073818,-17.224514042583714,5.423304899203997,-16.657414695233392,5.812853947192857,-16.079583119246344,6.207439557656154,-15.491525052838867,6.6065285964936935,-14.89374097798119,7.009483071370933,-14.286724039732176,7.4155623937280355,-13.670958035361757,7.8239259161152725,-13.046915486705117,8.23363575765368,-12.415055809192397,8.64365993041999,-11.775823590997884,9.052875779554675,-11.12964699575252,9.46007374989209,-10.476936302263661,9.86396149191162,-9.818082594685928,10.26316831980877,-9.153456616587064,10.65625003448509,-8.483407802352696,11.04169412425599,-7.808263499373827,11.417925356075191,-7.128328394461026,11.783311770074885,-6.443884157929132,12.136171090220486,-5.755189318796398,12.474777563878895,-5.062479384541953,12.797369243099201,-4.365967218865448,13.102155720404827,-3.6658436908928103,13.387326331895899,-2.9622786092719497,13.651058840460934,-2.255421954602329,13.891528611896646,-1.5454054236422814,14.106918296734904,-0.832344298737957,14.295428030575714,-0.11633965591777518,14.455286165725099,0.602519074903709,14.584760546936991,1.3241511841686648,14.682170344057848,2.0484813779216626,14.745898454373084,2.775436080614295,14.774404487454138,3.5049393320248656,14.766238345305219,4.236908264849225,14.720054410608522,4.971248149518905,14.634626355867013,5.707846992802661,14.508862586243506,6.446569676747494,14.34182232889519,7.187251624515341,14.132732381602374,7.929691979671485,13.881004533490373,8.673646285480801,13.586253670643636,9.418818650768001,13.24831657941084,10.164853388897962,12.867271460200023,10.91132611643222,12.443458164562607,11.657734298017813,11.97749916836527,12.403487224064532,11.470321293848635,13.147895407766699,10.923178193371605,13.890159388025625,10.337673607640419,14.50098500345497,9.977965543247187,15.106848470707265,9.597898531871806,15.707089072228625,9.198208514386081,16.30099627796684,8.779730104129328,16.887808231096564,8.343399767304781,17.466710233744486,7.8902590033759905,18.03683323271452,7.421457525463254,18.597252305212997,6.938256440740013,19.14698514457387,6.442031430829258,19.684990545983865,5.934275932199964,20.21016689220769,5.416604316563473,20.721350639313243,4.890755071269921,21.217314802396757,4.3585939797046445,21.696767441308005,3.8221173016845915,22.15835014637552,3.2834549538547373"></polyline></clipPath><clipPath id="rightEyeClipPath"><polyline points="-24.5027548792959,-1.777626806511047,-24.83109459275248,-2.398676607674225,-25.113693453838003,-2.9984019064449896,-25.351340848602327,-3.5768425862825595,-25.544841773567775,-4.134060313873633,-25.69501596911269,-4.67013787005448,-25.80269705285503,-5.185178480733038,-25.868731653035987,-5.679305147811014,-25.89397854190352,-6.152659980105971,-25.879307769096002,-6.605403524273437,-25.825599795025816,-7.037714095728994,-25.73374462426287,-7.449787109570373,-25.604640938918287,-7.841834411499564,-25.439195232027934,-8.214083608744904,-25.238320940936028,-8.566777400983167,-25.00293758067874,-8.90017291126168,-24.806657184349106,-9.322508423427355,-24.563602690914053,-9.720111639184667,-24.274217006848545,-10.092678787720603,-23.93912102387757,-10.440015952428546,-23.559102255598603,-10.762032119462258,-23.135103701032875,-11.058732439966201,-22.668212934524604,-11.330211702771251,-22.159651421407375,-11.576648014344887,-21.61076405885688,-11.798296682784901,-21.023008941349083,-11.995484302645743,-20.397947350143028,-12.168603037386495,-19.73723396620752,-12.318105096229614,-19.042607306010716,-12.44449740221946,-18.315880379591945,-12.54833644826972,-17.558931570334686,-12.630223337988735,-16.773695735860244,-12.690799008071863,-15.96215552946086,-12.730739629049909,-15.126332941491777,-12.75075218118268,-14.268281060141211,-12.751570202286771,-13.390076050997513,-12.733949704286617,-12.493809354832567,-12.698665255277879,-11.581580103020771,-12.646506223892246,-10.655487750012577,-12.578273182752723,-9.717624922281866,-12.494774467808446,-8.770070483166322,-12.396822890338122,-7.814882813019924,-12.285232598411147,-6.854093304096757,-12.160816084595456,-5.889700069585295,-12.024381336701198,-4.923661866212334,-11.8767291283493,-3.9578922298357346,-11.71865044615396,-2.994253823445126,-11.550924050308154,-2.0345529969897793,-11.374314165361262,-1.0805345584527526,-11.18956829797778,-0.13387675559055445,-10.997415178466309,0.8038135322425837,-10.798562822867803,1.7310053927666236,-10.593696712392145,2.646248270524639,-10.383478086992195,3.5481761482896106,-10.168542349864268,4.43551152070992,-9.949497579664207,5.307069160774343,-9.726923147228055,6.16175967967744,-9.501368433586412,6.9985928806660995,-9.273351646061553,7.816680907448136,-9.04335872923638,8.615241187743731,-8.811842367584234,9.39359917256058,-8.579221076548697,10.151190871773544,-8.345878378862386,10.887565186589715,-8.112162062893859,11.602386039479596,-7.878383519811681,12.295434302155355,-7.6448171563546845,12.96660952217698,-7.411699879997565,13.617349670704307,-7.178564566835506,14.248874085220102,-6.9449044571359,14.860872308087838,-6.7108601671608366,15.45307115664785,-6.476561405276014,16.025234645427133,-6.242127401986373,16.577163908349114,-6.007667339971729,17.108697120943503,-5.7732807841224165,17.619709422556042,-5.539058111574921,18.110112838558315,-5.305080941747514,18.57985620255758,-5.071422566375901,19.0289250786065,-4.83814837954885,19.457341683413013,-4.605316307743824,19.86516480855007,-4.372977239862632,20.25248974266549,-4.141175457267052,25.407953434412143,-0.07517299369835362,25.199716358523055,0.17768459068003706,24.980362288143915,0.43618871310276486,24.749896605515012,0.7003713915993375,24.508341077758928,0.9702491881698387,24.255732441406494,1.2458220545602483,23.992120986922906,1.5270721780377698,23.717569143233717,1.8139628271661614,23.43215006225089,2.1064371975810454,23.135946203398873,2.4044172577652567,22.82904791814056,2.7078025948241375,22.511552034503445,3.016469260260891,22.183560441605557,3.3302686157518853,21.845178674181554,3.6490261789219893,21.49651449710877,3.9725404691198953,21.13643463996913,4.301180898127808,20.763788861470175,4.63540970647114,20.378653708726347,4.975070469348864,19.9810965434729,5.319910148001105,19.571175056508324,5.669580544606738,19.148936817047655,6.023639939338128,18.714418867555707,6.381554918191258,18.26764737462876,6.742702400209458,17.808637346493924,7.106371872718922,17.337392427694873,7.47176784319425,16.85390478153277,7.838012516372181,16.358155070831486,8.204148705231832,15.850112547595698,8.569142984459482,15.329735262130928,8.931889095016297,14.796970402194372,9.291211608427089,14.251754772745322,9.645869859408348,13.694015426864112,9.994562155453782,13.123670458408421,10.335930271995519,12.540629966975875,10.66856424175926,11.944797205741708,10.991007446931544,11.336069922740467,11.301762022757345,10.714341906160568,11.599294581186173,10.079504744220584,11.882042263185005,9.43144981019614,12.148419128336116,8.770070483166322,12.396822890338122,8.095264615048414,12.625642007028386,7.40693725448987,12.83326313354504,6.705003638186375,13.018078947246812,5.989392460194912,13.17849635300888,5.260049429810644,13.312945077512913,4.516941128576514,13.419886661149627,3.7600591769944534,13.497823856151937,2.989424721507036,13.545310439576989,2.205093252318464,13.560961449755267,1.4071597626237835,13.543463854824987,0.5957642598151347,13.491587661969989,-0.2289023607659979,13.404197475979325,-1.0665920689617483,13.280264515746774,-1.9169930692471224,13.118879097328486,-2.7797227759266807,12.919263592176973,-3.654320383509802,12.680785869169616,-4.540239021695612,12.402973229049985,-5.436837484398735,12.085526839900092,-6.343371522246999,11.728336682261846,-7.258984687982197,11.331497012525892,-8.182698724195074,10.895322353206064,-9.113403482825602,10.420364018717647,-10.049846365859741,9.907427185277678,-10.990621276653785,9.357588513545464,-11.934157071317394,8.772214332621571,-12.690616337746137,8.383135165582697,-13.444766987554077,7.97313532727839,-14.195561947340805,7.5427182171346825,-14.941883454357209,7.0924641330157225,-15.682541141127897,6.62303275756331,-16.41627012007364,6.135165644536469,-17.141729068133834,5.629688705151006,-17.857498311388902,5.107514694419072,-18.562077909682756,4.569645697488706,-19.253885741245234,4.017175615983431,-19.931255587314546,3.4512926543417723,-20.592435216759696,2.8732818061568492,-21.235584470702932,2.2845273405159174,-21.858773347142183,1.6865152883399395,-22.459980085573513,1.0808359287231442"></polyline></clipPath><filter id="fuzzy"><feTurbulence id="turbulence" baseFrequency="0.05" numOctaves="3" type="noise" result="noise"></feTurbulence><feDisplacementMap in="SourceGraphic" in2="noise" scale="2"></feDisplacementMap></filter><linearGradient id="rainbowGradient" x1="0%" y1="0%" x2="100%" y2="0%"><stop offset="0%" style="stop-color: rgb(220, 208, 186);  stop-opacity: 1"></stop><stop offset="50%" style="stop-color: rgb(50, 205, 50);  stop-opacity: 1"></stop><stop offset="100%" style="stop-color: rgb(167, 133, 106);  stop-opacity: 1"></stop></linearGradient></defs><title>That&#39;s an ugly face</title><desc>CREATED BY XUAN TANG, MORE INFO AT TXSTC55.GITHUB.IO</desc><rect x="-100" y="-100" width="100%" height="100%" opacity="1" fill="rgb(245, 255, 250)"></rect><polyline id="faceContour" points="68,1,68,0,68,3,68,4,68,6,69,7,68,10,68,7,68,11,68,10,68,14,68,13,68,18,68,16,68,19,68,19,68,20,68,21,67,24,67,24,67,24,67,25,67,30,67,28,66,30,66,32,66,33,65,36,65,37,65,37,64,39,64,41,64,40,63,41,63,42,62,44,62,45,62,45,61,46,60,48,59,50,60,49,59,51,58,53,58,53,57,54,55,56,55,57,55,57,54,59,54,58,52,61,51,62,52,61,50,63,50,63,49,64,48,65,47,66,47,66,46,68,44,69,43,70,43,70,40,72,41,71,39,73,37,74,39,73,37,74,36,75,34,76,34,76,33,76,31,77,31,78,28,79,30,78,27,79,26,80,24,81,24,80,22,81,23,81,21,82,19,82,17,82,15,83,16,83,13,83,14,83,12,84,8,84,8,84,8,85,5,85,4,85,4,85,4,85,2,85,-1,85,-2,85,-2,85,-5,85,-3,85,-5,85,-7,85,-10,85,-8,85,-12,84,-13,84,-13,84,-16,84,-16,84,-17,83,-19,83,-21,82,-21,82,-23,82,-23,82,-25,81,-26,81,-26,81,-27,81,-30,79,-30,79,-32,79,-32,78,-34,77,-36,77,-36,76,-37,76,-38,75,-39,75,-40,74,-40,74,-42,73,-44,71,-43,72,-45,71,-46,70,-48,68,-48,68,-47,68,-49,67,-50,65,-50,65,-51,65,-53,63,-52,62,-53,62,-55,60,-54,61,-56,57,-56,59,-57,57,-58,55,-59,54,-59,53,-59,53,-59,52,-60,50,-61,49,-61,49,-62,47,-62,47,-62,45,-64,43,-64,40,-64,42,-64,40,-65,38,-66,35,-66,36,-66,35,-66,33,-66,32,-67,29,-67,29,-67,29,-67,27,-67,27,-67,26,-68,22,-68,21,-68,20,-68,19,-68,17,-68,18,-68,14,-68,13,-68,14,-68,11,-68,11,-68,9,-68,6,-68,5,-68,2,-68,3,-68,1,-68,0,-67,-3,-67,-4,-67,-3,-67,-5,-67,-7,-66,-8,-66,-11,-66,-10,-66,-12,-65,-14,-65,-16,-65,-15,-64,-18,-64,-21,-64,-22,-64,-21,-64,-22,-63,-24,-62,-26,-62,-28,-62,-27,-61,-30,-61,-30,-60,-34,-60,-34,-60,-33,-59,-35,-58,-37,-57,-39,-57,-39,-56,-42,-57,-40,-55,-44,-55,-44,-54,-45,-54,-46,-54,-47,-52,-50,-51,-52,-52,-51,-50,-52,-50,-53,-49,-55,-49,-56,-47,-57,-47,-57,-47,-58,-45,-61,-45,-61,-44,-62,-43,-63,-43,-63,-42,-65,-42,-64,-41,-66,-40,-66,-39,-67,-38,-68,-37,-70,-37,-70,-36,-71,-35,-71,-35,-72,-32,-74,-33,-73,-31,-74,-30,-76,-30,-75,-29,-76,-28,-77,-27,-77,-27,-77,-25,-78,-24,-79,-24,-79,-23,-80,-20,-81,-20,-81,-19,-82,-19,-82,-18,-82,-18,-82,-16,-83,-15,-83,-15,-83,-14,-83,-13,-83,-12,-84,-11,-84,-9,-84,-8,-85,-9,-84,-7,-85,-4,-85,-4,-85,-3,-85,-2,-85,-1,-85,-1,-85,2,-85,1,-85,2,-85,3,-85,4,-85,5,-84,7,-84,7,-84,7,-84,8,-84,9,-84,10,-84,12,-83,13,-83,14,-82,16,-81,14,-82,16,-82,18,-81,18,-81,18,-81,19,-80,22,-78,21,-79,23,-78,23,-78,24,-78,26,-76,26,-76,27,-76,28,-75,29,-74,29,-74,30,-73,32,-71,33,-71,32,-71,33,-71,36,-68,36,-68,35,-69,37,-67,38,-66,40,-65,39,-65,39,-64,42,-63,42,-62,43,-60,44,-60,44,-59,45,-59,46,-57,46,-56,47,-56,48,-54,49,-52,49,-53,50,-51,50,-51,51,-48,53,-46,53,-46,53,-46,54,-44,55,-42,55,-43,55,-43,56,-40,58,-37,57,-38,57,-37,59,-34,59,-33,59,-34,59,-33,60,-30,61,-29,61,-30,62,-26,61,-27,62,-26,62,-25,63,-21,63,-23,64,-18,64,-18,65,-16,65,-16,65,-16,66,-11,66,-9,66,-10,66,-9,66,-9,67,-6,67,-6,67,-4,67,-2,67,-2,68,1,68,0" fill="#ffc9a9" stroke="black" stroke-width="1.6666666666666665" stroke-linejoin="round" filter="url(#fuzzy)"></polyline><g transform="translate(35.39974901164777 -30.278541353517134)"><polyline id="rightCountour" points="-24.5027548792959,-1.777626806511047,-24.83109459275248,-2.398676607674225,-25.113693453838003,-2.9984019064449896,-25.351340848602327,-3.5768425862825595,-25.544841773567775,-4.134060313873633,-25.69501596911269,-4.67013787005448,-25.80269705285503,-5.185178480733038,-25.868731653035987,-5.679305147811014,-25.89397854190352,-6.152659980105971,-25.879307769096002,-6.605403524273437,-25.825599795025816,-7.037714095728994,-25.73374462426287,-7.449787109570373,-25.604640938918287,-7.841834411499564,-25.439195232027934,-8.214083608744904,-25.238320940936028,-8.566777400983167,-25.00293758067874,-8.90017291126168,-24.806657184349106,-9.322508423427355,-24.563602690914053,-9.720111639184667,-24.274217006848545,-10.092678787720603,-23.93912102387757,-10.440015952428546,-23.559102255598603,-10.762032119462258,-23.135103701032875,-11.058732439966201,-22.668212934524604,-11.330211702771251,-22.159651421407375,-11.576648014344887,-21.61076405885688,-11.798296682784901,-21.023008941349083,-11.995484302645743,-20.397947350143028,-12.168603037386495,-19.73723396620752,-12.318105096229614,-19.042607306010716,-12.44449740221946,-18.315880379591945,-12.54833644826972,-17.558931570334686,-12.630223337988735,-16.773695735860244,-12.690799008071863,-15.96215552946086,-12.730739629049909,-15.126332941491777,-12.75075218118268,-14.268281060141211,-12.751570202286771,-13.390076050997513,-12.733949704286617,-12.493809354832567,-12.698665255277879,-11.581580103020771,-12.646506223892246,-10.655487750012577,-12.578273182752723,-9.717624922281866,-12.494774467808446,-8.770070483166322,-12.396822890338122,-7.814882813019924,-12.285232598411147,-6.854093304096757,-12.160816084595456,-5.889700069585295,-12.024381336701198,-4.923661866212334,-11.8767291283493,-3.9578922298357346,-11.71865044615396,-2.994253823445126,-11.550924050308154,-2.0345529969897793,-11.374314165361262,-1.0805345584527526,-11.18956829797778,-0.13387675559055445,-10.997415178466309,0.8038135322425837,-10.798562822867803,1.7310053927666236,-10.593696712392145,2.646248270524639,-10.383478086992195,3.5481761482896106,-10.168542349864268,4.43551152070992,-9.949497579664207,5.307069160774343,-9.726923147228055,6.16175967967744,-9.501368433586412,6.9985928806660995,-9.273351646061553,7.816680907448136,-9.04335872923638,8.615241187743731,-8.811842367584234,9.39359917256058,-8.579221076548697,10.151190871773544,-8.345878378862386,10.887565186589715,-8.112162062893859,11.602386039479596,-7.878383519811681,12.295434302155355,-7.6448171563546845,12.96660952217698,-7.411699879997565,13.617349670704307,-7.178564566835506,14.248874085220102,-6.9449044571359,14.860872308087838,-6.7108601671608366,15.45307115664785,-6.476561405276014,16.025234645427133,-6.242127401986373,16.577163908349114,-6.007667339971729,17.108697120943503,-5.7732807841224165,17.619709422556042,-5.539058111574921,18.110112838558315,-5.305080941747514,18.57985620255758,-5.071422566375901,19.0289250786065,-4.83814837954885,19.457341683413013,-4.605316307743824,19.86516480855007,-4.372977239862632,20.25248974266549,-4.141175457267052,25.407953434412143,-0.07517299369835362,25.199716358523055,0.17768459068003706,24.980362288143915,0.43618871310276486,24.749896605515012,0.7003713915993375,24.508341077758928,0.9702491881698387,24.255732441406494,1.2458220545602483,23.992120986922906,1.5270721780377698,23.717569143233717,1.8139628271661614,23.43215006225089,2.1064371975810454,23.135946203398873,2.4044172577652567,22.82904791814056,2.7078025948241375,22.511552034503445,3.016469260260891,22.183560441605557,3.3302686157518853,21.845178674181554,3.6490261789219893,21.49651449710877,3.9725404691198953,21.13643463996913,4.301180898127808,20.763788861470175,4.63540970647114,20.378653708726347,4.975070469348864,19.9810965434729,5.319910148001105,19.571175056508324,5.669580544606738,19.148936817047655,6.023639939338128,18.714418867555707,6.381554918191258,18.26764737462876,6.742702400209458,17.808637346493924,7.106371872718922,17.337392427694873,7.47176784319425,16.85390478153277,7.838012516372181,16.358155070831486,8.204148705231832,15.850112547595698,8.569142984459482,15.329735262130928,8.931889095016297,14.796970402194372,9.291211608427089,14.251754772745322,9.645869859408348,13.694015426864112,9.994562155453782,13.123670458408421,10.335930271995519,12.540629966975875,10.66856424175926,11.944797205741708,10.991007446931544,11.336069922740467,11.301762022757345,10.714341906160568,11.599294581186173,10.079504744220584,11.882042263185005,9.43144981019614,12.148419128336116,8.770070483166322,12.396822890338122,8.095264615048414,12.625642007028386,7.40693725448987,12.83326313354504,6.705003638186375,13.018078947246812,5.989392460194912,13.17849635300888,5.260049429810644,13.312945077512913,4.516941128576514,13.419886661149627,3.7600591769944534,13.497823856151937,2.989424721507036,13.545310439576989,2.205093252318464,13.560961449755267,1.4071597626237835,13.543463854824987,0.5957642598151347,13.491587661969989,-0.2289023607659979,13.404197475979325,-1.0665920689617483,13.280264515746774,-1.9169930692471224,13.118879097328486,-2.7797227759266807,12.919263592176973,-3.654320383509802,12.680785869169616,-4.540239021695612,12.402973229049985,-5.436837484398735,12.085526839900092,-6.343371522246999,11.728336682261846,-7.258984687982197,11.331497012525892,-8.182698724195074,10.895322353206064,-9.113403482825602,10.420364018717647,-10.049846365859741,9.907427185277678,-10.990621276653785,9.357588513545464,-11.934157071317394,8.772214332621571,-12.690616337746137,8.383135165582697,-13.444766987554077,7.97313532727839,-14.195561947340805,7.5427182171346825,-14.941883454357209,7.0924641330157225,-15.682541141127897,6.62303275756331,-16.41627012007364,6.135165644536469,-17.141729068133834,5.629688705151006,-17.857498311388902,5.107514694419072,-18.562077909682756,4.569645697488706,-19.253885741245234,4.017175615983431,-19.931255587314546,3.4512926543417723,-20.592435216759696,2.8732818061568492,-21.235584470702932,2.2845273405159174,-21.858773347142183,1.6865152883399395,-22.459980085573513,1.0808359287231442" fill="white" stroke="white" stroke-width="0" stroke-linejoin="round" filter="url(#fuzzy)"></polyline></g><g transform="translate(-44.67161088775161 -25.093169387769112)"><polyline id="leftCountour" points="24.339698324658357,-1.566863364790783,24.438800230116385,-2.0969547812002673,24.503853119457162,-2.6115335685275847,24.53498450065714,-3.1108902819979445,24.53236792284138,-3.5953021659744824,24.496221427527296,-4.06503355906363,24.426805999868257,-4.520336299220494,24.324424019897307,-4.961450128854247,24.18941771377085,-5.3886030999335,24.022167605012307,-5.802011979091686,23.823090965755803,-6.2018826527324435,23.59264026798983,-6.588410532134996,23.331301634800965,-6.961780958559535,23.039593291617507,-7.3221696083526,22.71806401745318,-7.669742898052459,22.367291596150814,-8.004658389494494,22.070116981126645,-8.385224390051778,21.72862195651168,-8.753789654944914,21.34304517053323,-9.10990807983434,20.91385698902198,-9.45313725031683,20.44174410516225,-9.783042325537721,19.92759450446853,-10.099199660427026,19.372482782530852,-10.40120017255827,18.777655813071433,-10.688652459629147,18.144518763854897,-10.961185673562852,17.47462145799475,-11.218452157229159,16.76964507819835,-11.460129849784124,16.031389211492964,-11.685924466627473,15.261759231975303,-11.895571459976576,14.462754019126963,-12.088837766056017,13.636454009238284,-12.265523344901698,12.785009577482993,-12.425462518778495,11.910629748186205,-12.568525115210381,11.015571230828089,-12.694617420622041,10.102127779325743,-12.803682950590883,9.1726198721357,-12.895703042708519,8.229384710719504,-12.970697278050547,7.274766533914848,-13.028723737253745,6.311107245754645,-13.069879097199543,5.340737354276568,-13.094298574302794,4.365967218865448,-13.102155720404827,3.389078603671013,-13.093662077269684,2.4123165346434003,-13.069066695682618,1.437881457728893,-13.028655525149688,0.4679216957683465,-12.97275068019757,-0.4954737983592663,-12.901709589272432,-1.4502823948057397,-12.81592403223691,-2.394554448492465,-12.715819072464132,-3.3264196719768293,-12.601851889527769,-4.244093221903636,-12.47451051848709,-5.145881501499192,-12.334312501765964,-6.030187681565552,-12.181803459624795,-6.895516942432482,-12.017555585224407,-7.740481439324714,-11.842166070280754,-8.563804993602007,-11.656255467309506,-9.364327512329613,-11.460465994459433,-10.141009138636637,-11.255459788933617,-10.892934135319894,-11.041917114997371,-11.6193145041508,-10.820534532571944,-12.319493343342803,-10.592023032412879,-12.992947945636999,-10.357106143872063,-13.639292639463376,-10.116518021242433,-14.25828137563532,-9.871001514684266,-14.849810062034889,-9.621306231732076,-15.41391864874639,-9.368186595381049,-15.950792966095907,-9.112399904752014,-16.46140599466962,-8.853104886783893,-16.946338872944388,-8.5891847861859,-17.405333473202386,-8.320981059576807,-17.83817595722875,-8.048829698813933,-18.244696447175343,-7.773060427559559,-18.62476869642454,-7.493995897847394,-18.978309760453012,-7.211950886648995,-19.30527966769555,-6.927231492440191,-19.60568109040878,-6.640134331767552,-19.879559015535037,-6.350945735814799,-20.127000415566073,-6.059940946969246,-20.348133919406905,-5.767383315388243,-20.543129483239575,-5.4735234955656065,-20.712198061386914,-5.178598642898059,-25.779735047268296,-0.8870696551176236,-25.437727756985524,-0.6058695852673863,-25.082754522839593,-0.3192588240257286,-24.714937289773687,-0.02714014278784882,-24.33442668959276,0.2705718314635015,-23.941400240443002,0.5739489020155601,-23.53606054629153,0.8830475882831159,-23.11863349640584,1.1979074116660575,-22.68936646483352,1.5185491814069252,-22.24852650988167,1.8449732804484746,-21.79639857359662,2.177157951291215,-21.333283681243415,2.515057581850974,-20.859497140785415,2.8586009913164423,-20.375366742363873,3.207689716006735,-19.881230957777504,3.5621962952289428,-19.375411178847365,3.922361894831342,-18.856327651011057,4.288595343757656,-18.324479682234255,4.6609129887175085,-17.780372303844217,5.039218690073818,-17.224514042583714,5.423304899203997,-16.657414695233392,5.812853947192857,-16.079583119246344,6.207439557656154,-15.491525052838867,6.6065285964936935,-14.89374097798119,7.009483071370933,-14.286724039732176,7.4155623937280355,-13.670958035361757,7.8239259161152725,-13.046915486705117,8.23363575765368,-12.415055809192397,8.64365993041999,-11.775823590997884,9.052875779554675,-11.12964699575252,9.46007374989209,-10.476936302263661,9.86396149191162,-9.818082594685928,10.26316831980877,-9.153456616587064,10.65625003448509,-8.483407802352696,11.04169412425599,-7.808263499373827,11.417925356075191,-7.128328394461026,11.783311770074885,-6.443884157929132,12.136171090220486,-5.755189318796398,12.474777563878895,-5.062479384541953,12.797369243099201,-4.365967218865448,13.102155720404827,-3.6658436908928103,13.387326331895899,-2.9622786092719497,13.651058840460934,-2.255421954602329,13.891528611896646,-1.5454054236422814,14.106918296734904,-0.832344298737957,14.295428030575714,-0.11633965591777518,14.455286165725099,0.602519074903709,14.584760546936991,1.3241511841686648,14.682170344057848,2.0484813779216626,14.745898454373084,2.775436080614295,14.774404487454138,3.5049393320248656,14.766238345305219,4.236908264849225,14.720054410608522,4.971248149518905,14.634626355867013,5.707846992802661,14.508862586243506,6.446569676747494,14.34182232889519,7.187251624515341,14.132732381602374,7.929691979671485,13.881004533490373,8.673646285480801,13.586253670643636,9.418818650768001,13.24831657941084,10.164853388897962,12.867271460200023,10.91132611643222,12.443458164562607,11.657734298017813,11.97749916836527,12.403487224064532,11.470321293848635,13.147895407766699,10.923178193371605,13.890159388025625,10.337673607640419,14.50098500345497,9.977965543247187,15.106848470707265,9.597898531871806,15.707089072228625,9.198208514386081,16.30099627796684,8.779730104129328,16.887808231096564,8.343399767304781,17.466710233744486,7.8902590033759905,18.03683323271452,7.421457525463254,18.597252305212997,6.938256440740013,19.14698514457387,6.442031430829258,19.684990545983865,5.934275932199964,20.21016689220769,5.416604316563473,20.721350639313243,4.890755071269921,21.217314802396757,4.3585939797046445,21.696767441308005,3.8221173016845915,22.15835014637552,3.2834549538547373" fill="white" stroke="white" stroke-width="0" stroke-linejoin="round" filter="url(#fuzzy)"></polyline></g><g transform="translate(35.39974901164777 -30.278541353517134)"><polyline id="rightUpper" points="-18.542842387192167,5.597578696126931,-19.367952922434043,4.7663609815272725,-20.140477976400078,3.955521329262523,-20.861003166513292,3.1652744874328658,-21.53013838683323,2.395806730131979,-22.14851694143956,1.6472765265249443,-22.716794677815656,0.9198152099261385,-23.235649120232182,0.21352764687714654,-23.705778603130696,-0.47150709377533717,-24.127901404507234,-1.135235071801607,-24.5027548792959,-1.777626806511047,-24.83109459275248,-2.398676607674225,-25.113693453838003,-2.9984019064449896,-25.351340848602327,-3.5768425862825595,-25.544841773567775,-4.134060313873633,-25.69501596911269,-4.67013787005448,-25.80269705285503,-5.185178480733038,-25.868731653035987,-5.679305147811014,-25.89397854190352,-6.152659980105971,-25.879307769096002,-6.605403524273437,-25.825599795025816,-7.037714095728994,-25.73374462426287,-7.449787109570373,-25.604640938918287,-7.841834411499564,-25.439195232027934,-8.214083608744904,-25.238320940936028,-8.566777400983167,-25.00293758067874,-8.90017291126168,-24.806657184349106,-9.322508423427355,-24.563602690914053,-9.720111639184667,-24.274217006848545,-10.092678787720603,-23.93912102387757,-10.440015952428546,-23.559102255598603,-10.762032119462258,-23.135103701032875,-11.058732439966201,-22.668212934524604,-11.330211702771251,-22.159651421407375,-11.576648014344887,-21.61076405885688,-11.798296682784901,-21.023008941349083,-11.995484302645743,-20.397947350143028,-12.168603037386495,-19.73723396620752,-12.318105096229614,-19.042607306010716,-12.44449740221946,-18.315880379591945,-12.54833644826972,-17.558931570334686,-12.630223337988735,-16.773695735860244,-12.690799008071863,-15.96215552946086,-12.730739629049909,-15.126332941491777,-12.75075218118268,-14.268281060141211,-12.751570202286771,-13.390076050997513,-12.733949704286617,-12.493809354832567,-12.698665255277879,-11.581580103020771,-12.646506223892246,-10.655487750012577,-12.578273182752723,-9.717624922281866,-12.494774467808446,-8.770070483166322,-12.396822890338122,-7.814882813019924,-12.285232598411147,-6.854093304096757,-12.160816084595456,-5.889700069585295,-12.024381336701198,-4.923661866212334,-11.8767291283493,-3.9578922298357346,-11.71865044615396,-2.994253823445126,-11.550924050308154,-2.0345529969897793,-11.374314165361262,-1.0805345584527526,-11.18956829797778,-0.13387675559055445,-10.997415178466309,0.8038135322425837,-10.798562822867803,1.7310053927666236,-10.593696712392145,2.646248270524639,-10.383478086992195,3.5481761482896106,-10.168542349864268,4.43551152070992,-9.949497579664207,5.307069160774343,-9.726923147228055,6.16175967967744,-9.501368433586412,6.9985928806660995,-9.273351646061553,7.816680907448136,-9.04335872923638,8.615241187743731,-8.811842367584234,9.39359917256058,-8.579221076548697,10.151190871773544,-8.345878378862386,10.887565186589715,-8.112162062893859,11.602386039479596,-7.878383519811681,12.295434302155355,-7.6448171563546845,12.96660952217698,-7.411699879997565,13.617349670704307,-7.178564566835506,14.248874085220102,-6.9449044571359,14.860872308087838,-6.7108601671608366,15.45307115664785,-6.476561405276014,16.025234645427133,-6.242127401986373,16.577163908349114,-6.007667339971729,17.108697120943503,-5.7732807841224165,17.619709422556042,-5.539058111574921,18.110112838558315,-5.305080941747514,18.57985620255758,-5.071422566375901,19.0289250786065,-4.83814837954885,19.457341683413013,-4.605316307743824,19.86516480855007,-4.372977239862632,20.25248974266549,-4.141175457267052,20.619448193691703,-3.909949063814481,20.966208211055587,-3.6793304158935585,21.292974107888234,-3.449346552459815,21.5999863832348,-3.2200196250713047,21.887521644264233,-2.9913673279242428,22.15589252847913,-2.763403327888638,22.405447625925504,-2.5361376945439393,22.636571401402577,-2.3095773302146654,22.849684116672627,-2.0837264000060465,23.045241752670712,-1.858586761839658" fill="none" stroke="black" stroke-width="1.6666666666666665" stroke-linejoin="round" filter="url(#fuzzy)"></polyline><polyline id="rightLower" points="-26.74880065386403,-4.968283080277766,-26.500168488597858,-4.3981083273385835,-26.203868479617697,-3.813417446665251,-25.862945318212134,-3.2169799477604353,-25.480332783392207,-2.6114362285579418,-25.058855657269078,-1.9993000617622698,-24.60123164043153,-1.382961081188168,-24.110073267323536,-0.7646872681002068,-23.58788982162185,-0.14662743755233354,-23.037089251613523,0.4691862752725755,-22.459980085573513,1.0808359287231442,-21.858773347142183,1.6865152883399395,-21.235584470702932,2.2845273405159174,-20.592435216759696,2.8732818061568492,-19.931255587314546,3.4512926543417723,-19.253885741245234,4.017175615983431,-18.562077909682756,4.569645697488706,-17.857498311388902,5.107514694419072,-17.141729068133834,5.629688705151006,-16.41627012007364,6.135165644536469,-15.682541141127897,6.62303275756331,-14.941883454357209,7.0924641330157225,-14.195561947340805,7.5427182171346825,-13.444766987554077,7.97313532727839,-12.690616337746137,8.383135165582697,-11.934157071317394,8.772214332621571,-10.990621276653785,9.357588513545464,-10.049846365859741,9.907427185277678,-9.113403482825602,10.420364018717647,-8.182698724195074,10.895322353206064,-7.258984687982197,11.331497012525892,-6.343371522246999,11.728336682261846,-5.436837484398735,12.085526839900092,-4.540239021695612,12.402973229049985,-3.654320383509802,12.680785869169616,-2.7797227759266807,12.919263592176973,-1.9169930692471224,13.118879097328486,-1.0665920689617483,13.280264515746774,-0.2289023607659979,13.404197475979325,0.5957642598151347,13.491587661969989,1.4071597626237835,13.543463854824987,2.205093252318464,13.560961449755267,2.989424721507036,13.545310439576989,3.7600591769944534,13.497823856151937,4.516941128576514,13.419886661149627,5.260049429810644,13.312945077512913,5.989392460194912,13.17849635300888,6.705003638186375,13.018078947246812,7.40693725448987,12.83326313354504,8.095264615048414,12.625642007028386,8.770070483166322,12.396822890338122,9.43144981019614,12.148419128336116,10.079504744220584,11.882042263185005,10.714341906160568,11.599294581186173,11.336069922740467,11.301762022757345,11.944797205741708,10.991007446931544,12.540629966975875,10.66856424175926,13.123670458408421,10.335930271995519,13.694015426864112,9.994562155453782,14.251754772745322,9.645869859408348,14.796970402194372,9.291211608427089,15.329735262130928,8.931889095016297,15.850112547595698,8.569142984459482,16.358155070831486,8.204148705231832,16.85390478153277,7.838012516372181,17.337392427694873,7.47176784319425,17.808637346493924,7.106371872718922,18.26764737462876,6.742702400209458,18.714418867555707,6.381554918191258,19.148936817047655,6.023639939338128,19.571175056508324,5.669580544606738,19.9810965434729,5.319910148001105,20.378653708726347,4.975070469348864,20.763788861470175,4.63540970647114,21.13643463996913,4.301180898127808,21.49651449710877,3.9725404691198953,21.845178674181554,3.6490261789219893,22.183560441605557,3.3302686157518853,22.511552034503445,3.016469260260891,22.82904791814056,2.7078025948241375,23.135946203398873,2.4044172577652567,23.43215006225089,2.1064371975810454,23.717569143233717,1.8139628271661614,23.992120986922906,1.5270721780377698,24.255732441406494,1.2458220545602483,24.508341077758928,0.9702491881698387,24.749896605515012,0.7003713915993375,24.980362288143915,0.43618871310276486,25.199716358523055,0.17768459068003706,25.407953434412143,-0.07517299369835362,25.60508593392707,-0.3224303598666656,25.791145491013907,-0.5641469752392334,25.966184370922853,-0.8003943005857908,26.130276885682193,-1.0312546358067958,26.283520809572245,-1.256819965708757,26.426038794599343,-1.4771908057795622,26.557979785969792,-1.692475047963792,26.679520437563788,-1.9027868064380553,26.79086652740944,-2.1082452633863085,26.892254373156682,-2.3089735147751833" fill="none" stroke="black" stroke-width="2.2222222222222223" stroke-linejoin="round" filter="url(#fuzzy)"></polyline><!--[--><circle r="4.2027696669281775" cx="-6.757915717640958" cy="4.645916791729567" stroke="black" fill="none" stroke-width="1" filter="url(#fuzzy)" clip-path="url(#rightEyeClipPath)"></circle><circle r="4.818367475576885" cx="-5.22161456078332" cy="7.159434635640466" stroke="black" fill="none" stroke-width="1" filter="url(#fuzzy)" clip-path="url(#rightEyeClipPath)"></circle><circle r="4.5250281062834325" cx="-8.101150524373638" cy="4.778070410171453" stroke="black" fill="none" stroke-width="1" filter="url(#fuzzy)" clip-path="url(#rightEyeClipPath)"></circle><circle r="3.6276989037217824" cx="-7.33717256852049" cy="3.431708205672928" stroke="black" fill="none" stroke-width="1" filter="url(#fuzzy)" clip-path="url(#rightEyeClipPath)"></circle><circle r="3.9691412351021444" cx="-9.220235429737441" cy="7.462671117109551" stroke="black" fill="none" stroke-width="1" filter="url(#fuzzy)" clip-path="url(#rightEyeClipPath)"></circle><circle r="4.337244511295184" cx="-5.1732974418614095" cy="7.211689690075023" stroke="black" fill="none" stroke-width="1" filter="url(#fuzzy)" clip-path="url(#rightEyeClipPath)"></circle><circle r="4.1215993913221" cx="-8.0541397384722" cy="3.951680528840698" stroke="black" fill="none" stroke-width="1" filter="url(#fuzzy)" clip-path="url(#rightEyeClipPath)"></circle><circle r="3.6564382523932957" cx="-6.97834705427902" cy="7.482254943742031" stroke="black" fill="none" stroke-width="1" filter="url(#fuzzy)" clip-path="url(#rightEyeClipPath)"></circle><circle r="4.458735769205498" cx="-6.2785744678262345" cy="5.536621830871196" stroke="black" fill="none" stroke-width="1" filter="url(#fuzzy)" clip-path="url(#rightEyeClipPath)"></circle><circle r="4.106918284885257" cx="-7.413943250233745" cy="3.4935796848380276" stroke="black" fill="none" stroke-width="1" filter="url(#fuzzy)" clip-path="url(#rightEyeClipPath)"></circle><!--]--></g><g transform="translate(-44.67161088775161 -25.093169387769112)"><polyline id="leftUpper" points="21.48395166023878,4.661495835734509,21.919320252104853,3.957079551110305,22.322237737654746,3.2719026684189396,22.69228603178089,2.6055192430183878,23.029108578087545,1.9575006921825162,23.332408800134544,1.3274353899957116,23.601948552680902,0.7149282622474935,23.837546572928517,0.11960038132713224,24.03907693176584,-0.45891143888172614,24.20646748501158,-1.0209550481064453,24.339698324658357,-1.566863364790783,24.438800230116385,-2.0969547812002673,24.503853119457162,-2.6115335685275847,24.53498450065714,-3.1108902819979445,24.53236792284138,-3.5953021659744824,24.496221427527296,-4.06503355906363,24.426805999868257,-4.520336299220494,24.324424019897307,-4.961450128854247,24.18941771377085,-5.3886030999335,24.022167605012307,-5.802011979091686,23.823090965755803,-6.2018826527324435,23.59264026798983,-6.588410532134996,23.331301634800965,-6.961780958559535,23.039593291617507,-7.3221696083526,22.71806401745318,-7.669742898052459,22.367291596150814,-8.004658389494494,22.070116981126645,-8.385224390051778,21.72862195651168,-8.753789654944914,21.34304517053323,-9.10990807983434,20.91385698902198,-9.45313725031683,20.44174410516225,-9.783042325537721,19.92759450446853,-10.099199660427026,19.372482782530852,-10.40120017255827,18.777655813071433,-10.688652459629147,18.144518763854897,-10.961185673562852,17.47462145799475,-11.218452157229159,16.76964507819835,-11.460129849784124,16.031389211492964,-11.685924466627473,15.261759231975303,-11.895571459976576,14.462754019126963,-12.088837766056017,13.636454009238284,-12.265523344901698,12.785009577482993,-12.425462518778495,11.910629748186205,-12.568525115210381,11.015571230828089,-12.694617420622041,10.102127779325743,-12.803682950590883,9.1726198721357,-12.895703042708519,8.229384710719504,-12.970697278050547,7.274766533914848,-13.028723737253745,6.311107245754645,-13.069879097199543,5.340737354276568,-13.094298574302794,4.365967218865448,-13.102155720404827,3.389078603671013,-13.093662077269684,2.4123165346434003,-13.069066695682618,1.437881457728893,-13.028655525149688,0.4679216957683465,-12.97275068019757,-0.4954737983592663,-12.901709589272432,-1.4502823948057397,-12.81592403223691,-2.394554448492465,-12.715819072464132,-3.3264196719768293,-12.601851889527769,-4.244093221903636,-12.47451051848709,-5.145881501499192,-12.334312501765964,-6.030187681565552,-12.181803459624795,-6.895516942432482,-12.017555585224407,-7.740481439324714,-11.842166070280754,-8.563804993602007,-11.656255467309506,-9.364327512329613,-11.460465994459433,-10.141009138636637,-11.255459788933617,-10.892934135319894,-11.041917114997371,-11.6193145041508,-10.820534532571944,-12.319493343342803,-10.592023032412879,-12.992947945636999,-10.357106143872063,-13.639292639463376,-10.116518021242433,-14.25828137563532,-9.871001514684266,-14.849810062034889,-9.621306231732076,-15.41391864874639,-9.368186595381049,-15.950792966095907,-9.112399904752014,-16.46140599466962,-8.853104886783893,-16.946338872944388,-8.5891847861859,-17.405333473202386,-8.320981059576807,-17.83817595722875,-8.048829698813933,-18.244696447175343,-7.773060427559559,-18.62476869642454,-7.493995897847394,-18.978309760453012,-7.211950886648995,-19.30527966769555,-6.927231492440191,-19.60568109040878,-6.640134331767552,-19.879559015535037,-6.350945735814799,-20.127000415566073,-6.059940946969246,-20.348133919406905,-5.767383315388243,-20.543129483239575,-5.4735234955656065,-20.712198061386914,-5.178598642898059,-20.855591277176387,-4.882831610251662,-20.97360109380383,-4.586430144528253,-21.06655948519726,-4.289586083231884,-21.13483810688065,-3.9924745510352624,-21.178847966837722,-3.6952531563461744,-21.199039096375756,-3.398061187873929,-21.195900220989344,-3.1010188111957997,-21.169958431224174,-2.804226265323451,-21.12177885354086,-2.507763059269383,-21.051964321178673,-2.2116871686133606" fill="none" stroke="black" stroke-width="2.2222222222222223" stroke-linejoin="round" filter="url(#fuzzy)"></polyline><polyline id="leftLower" points="25.441923422038514,-1.6528669164392686,25.24945858850949,-1.2411717715833375,25.021550760293515,-0.8023123173359172,24.76030632738943,-0.3399299604247914,24.467750067526637,0.14249935321438745,24.145826660440015,0.641661958041682,23.796402202144662,1.1544032885164661,23.421265719210716,1.6777246987010122,23.022130683038178,2.2087802818640716,22.600636524131723,2.7448736900844812,22.15835014637552,3.2834549538547373,21.696767441308005,3.8221173016845915,21.217314802396757,4.3585939797046445,20.721350639313243,4.890755071269921,20.21016689220769,5.416604316563473,19.684990545983865,5.934275932199964,19.14698514457387,6.442031430829258,18.597252305212997,6.938256440740013,18.03683323271452,7.421457525463254,17.466710233744486,7.8902590033759905,16.887808231096564,8.343399767304781,16.30099627796684,8.779730104129328,15.707089072228625,9.198208514386081,15.106848470707265,9.597898531871806,14.50098500345497,9.977965543247187,13.890159388025625,10.337673607640419,13.147895407766699,10.923178193371605,12.403487224064532,11.470321293848635,11.657734298017813,11.97749916836527,10.91132611643222,12.443458164562607,10.164853388897962,12.867271460200023,9.418818650768001,13.24831657941084,8.673646285480801,13.586253670643636,7.929691979671485,13.881004533490373,7.187251624515341,14.132732381602374,6.446569676747494,14.34182232889519,5.707846992802661,14.508862586243506,4.971248149518905,14.634626355867013,4.236908264849225,14.720054410608522,3.5049393320248656,14.766238345305219,2.775436080614295,14.774404487454138,2.0484813779216626,14.745898454373084,1.3241511841686648,14.682170344057848,0.602519074903709,14.584760546936991,-0.11633965591777518,14.455286165725099,-0.832344298737957,14.295428030575714,-1.5454054236422814,14.106918296734904,-2.255421954602329,13.891528611896646,-2.9622786092719497,13.651058840460934,-3.6658436908928103,13.387326331895899,-4.365967218865448,13.102155720404827,-5.062479384541953,12.797369243099201,-5.755189318796398,12.474777563878895,-6.443884157929132,12.136171090220486,-7.128328394461026,11.783311770074885,-7.808263499373827,11.417925356075191,-8.483407802352696,11.04169412425599,-9.153456616587064,10.65625003448509,-9.818082594685928,10.26316831980877,-10.476936302263661,9.86396149191162,-11.12964699575252,9.46007374989209,-11.775823590997884,9.052875779554675,-12.415055809192397,8.64365993041999,-13.046915486705117,8.23363575765368,-13.670958035361757,7.8239259161152725,-14.286724039732176,7.4155623937280355,-14.89374097798119,7.009483071370933,-15.491525052838867,6.6065285964936935,-16.079583119246344,6.207439557656154,-16.657414695233392,5.812853947192857,-17.224514042583714,5.423304899203997,-17.780372303844217,5.039218690073818,-18.324479682234255,4.6609129887175085,-18.856327651011057,4.288595343757656,-19.375411178847365,3.922361894831342,-19.881230957777504,3.5621962952289428,-20.375366742363873,3.207689716006735,-20.859497140785415,2.8586009913164423,-21.333283681243415,2.515057581850974,-21.79639857359662,2.177157951291215,-22.24852650988167,1.8449732804484746,-22.68936646483352,1.5185491814069252,-23.11863349640584,1.1979074116660575,-23.53606054629153,0.8830475882831159,-23.941400240443002,0.5739489020155601,-24.33442668959276,0.2705718314635015,-24.714937289773687,-0.02714014278784882,-25.082754522839593,-0.3192588240257286,-25.437727756985524,-0.6058695852673863,-25.779735047268296,-0.8870696551176236,-26.108684936126835,-1.1629664036263587,-26.42451825390267,-1.433675628146172,-26.72720991936027,-1.699319839189866,-27.016770740207605,-1.9600265462880109,-27.293249213616413,-2.2159265438465043,-27.55673332674276,-2.467152197004127,-27.80735235724738,-2.7138357274900837,-28.04527867381615,-2.9561074994815693,-28.27072953668047,-3.194094305461315,-28.48396889813774,-3.4279176520751453" fill="none" stroke="black" stroke-width="2.2222222222222223" stroke-linejoin="round" filter="url(#fuzzy)"></polyline><!--[--><circle r="3.3953312223395593" cx="21.011876434461563" cy="-4.935642997742049" stroke="black" fill="none" stroke-width="1" filter="url(#fuzzy)" clip-path="url(#leftEyeClipPath)"></circle><circle r="4.162253077008355" cx="21.393769340045118" cy="-6.038523140793744" stroke="black" fill="none" stroke-width="1" filter="url(#fuzzy)" clip-path="url(#leftEyeClipPath)"></circle><circle r="3.9060431372352684" cx="21.579108453972232" cy="-4.31336647062052" stroke="black" fill="none" stroke-width="1" filter="url(#fuzzy)" clip-path="url(#leftEyeClipPath)"></circle><circle r="3.487674949803421" cx="22.488055137778883" cy="-6.6608550733099525" stroke="black" fill="none" stroke-width="1" filter="url(#fuzzy)" clip-path="url(#leftEyeClipPath)"></circle><circle r="4.992029635398154" cx="19.873646835686277" cy="-4.888758365461434" stroke="black" fill="none" stroke-width="1" filter="url(#fuzzy)" clip-path="url(#leftEyeClipPath)"></circle><circle r="3.6933191273688633" cx="22.79551094459484" cy="-4.905730927215984" stroke="black" fill="none" stroke-width="1" filter="url(#fuzzy)" clip-path="url(#leftEyeClipPath)"></circle><circle r="3.351971172627513" cx="20.036857084862305" cy="-3.012139987073711" stroke="black" fill="none" stroke-width="1" filter="url(#fuzzy)" clip-path="url(#leftEyeClipPath)"></circle><circle r="3.5022757155673774" cx="20.9961055201869" cy="-3.9527793521126826" stroke="black" fill="none" stroke-width="1" filter="url(#fuzzy)" clip-path="url(#leftEyeClipPath)"></circle><circle r="3.007303503969551" cx="24.007872306308293" cy="-2.922426486483319" stroke="black" fill="none" stroke-width="1" filter="url(#fuzzy)" clip-path="url(#leftEyeClipPath)"></circle><circle r="4.656720246122012" cx="22.9551440340391" cy="-3.318313083668958" stroke="black" fill="none" stroke-width="1" filter="url(#fuzzy)" clip-path="url(#leftEyeClipPath)"></circle><!--]--></g><g id="hairs"><!--[--><polyline points="14,-82,35.10101170657805,-64.60084871297074,40.19869252662138,-58.37259312266545,33.551167199570294,-60.019727342403286,21.507476536857663,-64.27536005639114,10.557641446196577,-67.99026208555938,4.0272858621750585,-70.5822365265796,1.4491710005215195,-72.548489890318,0.6105099448107143,-74.22363764594644,0.03951782256073465,-75.41536407939844,-0.01297592328459989,-75.66241608722274,1.5631839844164694,-74.68591647073866,5.084481690118049,-72.71636906636662,9.110862560057432,-70.52392819596464,11.080213605670542,-69.0985339363784,9.255014568791882,-69.05440735794853,4.541511180944773,-70.00251057590842,0.535141737654507,-70.28671239912866,1.6444918871893206,-67.46409895732431,11.671980335676965,-59.612566306896845,34.16295682600597,-47.004804163022065,59,-33" fill="none" stroke="rgb(167, 133, 106)" stroke-width="2" stroke-linejoin="round" filter="url(#fuzzy)"></polyline><polyline points="60,-30,37.04699227779805,-59.34109211755088,26.589314259584715,-67.2976210582304,21.074486831940124,-66.92573947405047,19.006922997385818,-65.5149285651793,18.884083694926776,-65.94169966605743,18.803638911312213,-67.91164897837922,17.352477549401172,-69.82059412759159,13.897702662026365,-70.39853410138939,8.722705841064453,-69.39827346801758,2.966536210528493,-67.48804094470422,-2.0555987633077186,-65.80757518310618,-5.744012697273734,-65.36556473656199,-8.117773134669804,-66.32048159704225,-8.24495329821736,-67.50540104417135,-2.720622800793324,-66.78876879513973,12.805622752475646,-62.34414543661602,36.33027375542985,-54.763630682464225,46,-56" fill="none" stroke="rgb(167, 133, 106)" stroke-width="2" stroke-linejoin="round" filter="url(#fuzzy)"></polyline><polyline points="-47,-58,-36.931231725972445,-66.16271329381061,-21.95429653299804,-72.54321427150904,-7.701925123169065,-73.80618073702357,1.252523354937935,-72.62608762138966,3.622758152140061,-71.96011033170866,1.933625029923241,-72.57996380182593,0.08874173965670569,-73.52188529883675,0.95652918309135,-73.47641957285207,5.3489101652754,-71.7847544699384,12.14552969948383,-68.72003989475168,18.98249513749181,-65.23135428951316,23.189442516632692,-62.43938435781425,22.833143155977314,-61.15263235599644,17.657892929939127,-61.60210168055037,9.551912157417153,-63.463224011333764,2.110279490013837,-66.06913726357787,-0.9024160087991261,-68.60307247104527,2.2501107735324486,-70.11233233118026,9.667707148502926,-69.49767111208618,16.304745046696254,-66.04706848319441,17.343336136033816,-60.91226867633458,15.951241696999803,-57.64351207092502,49,-52" fill="none" stroke="rgb(167, 133, 106)" stroke-width="2" stroke-linejoin="round" filter="url(#fuzzy)"></polyline><polyline points="-38,-68,4.874200904000991,-61.8623414354056,14.346110308371086,-60.59666310883857,17.250400177773376,-60.87462070679236,18.217638724644285,-62.79712023633068,17.807878983147976,-65.10900036842902,15.933130880255526,-66.48250992426775,12.603662960748705,-66.38983768796936,7.956262520881181,-65.32572268105345,2.514984441684945,-64.39594439738565,-2.431982705522894,-64.54179395403277,-5.026698393666045,-65.95935623717773,-3.8257286219855007,-68.08297225182426,1.0002314591188441,-70.04186685051593,7.140337781383803,-71.21595254167441,10.861461213435668,-71.54583238344824,8.91761866982566,-71.43721173580398,0.9742715768058647,-71.33662970705315,-8.817891667142206,-71.34997375277864,-13.634987649550382,-71.32184324532369,-13.723374816408178,-70.75201481194479,-41,-66" fill="none" stroke="rgb(167, 133, 106)" stroke-width="2" stroke-linejoin="round" filter="url(#fuzzy)"></polyline><polyline points="29,-74,28.940564027760185,-58.80010965551191,15.13078660820387,-62.09593780189575,4.8375890846239304,-66.44708220193462,-1.6319104344372142,-69.16721671357062,-4.227172118353903,-70.80468111340977,-2.8578513794680536,-72.10946873228058,1.2893228124677745,-73.35822478152811,5.844930934726921,-74.44889740691379,8.45233663104741,-75.20521080898114,7.824248733024701,-75.5842702339675,3.9177144221016476,-75.6846263113264,-2.5431221032043543,-75.6113463782065,-10.497740498590888,-75.33558779134991,-18.604452581628887,-74.69132001269904,-25.331644794743195,-73.52564888086782,-29.782441901067198,-71.72358505086197,-33.260679194349855,-68.67664698041068,-39.61435369941326,-62.88114312057354,-47,-57" fill="none" stroke="rgb(167, 133, 106)" stroke-width="2" stroke-linejoin="round" filter="url(#fuzzy)"></polyline><polyline points="53,-46,48.904742725990495,-44.9044647098086,40.1301486189356,-50.720506616094,34.4643214736198,-53.4231906371991,32.75869975774398,-53.402221761505345,33.020718566872965,-52.41547379663004,33.1235804528597,-51.993955031339624,32.69916715419172,-52.59195456679862,32.54505253747554,-53.828838360603854,33.07755673994137,-55.2716984943998,33.60254292115557,-56.86427353750852,32.7364509129846,-58.77335712423064,29.315044462680817,-61.01607030630112,23.107900145784576,-63.274776836637166,15.044337954112258,-65.01881280317622,6.911230825833971,-65.80469364892814,0.6088388524355668,-65.56694220399208,-2.7040408633291975,-64.76016301978896,-2.9704383520411817,-64.25981881755388,-0.7531292335633079,-64.98481880905172,3.333367318251852,-67.37055272646775,7.617839050832058,-71.07027398414148,6.869182462702656,-75.12289282772409,-6.742898882896845,-77.5077874914236,-35,-72" fill="none" stroke="rgb(167, 133, 106)" stroke-width="2" stroke-linejoin="round" filter="url(#fuzzy)"></polyline><polyline points="59,-33,31.84640814734625,-61.50691783291948,27.60576007462463,-69.10689540248231,25.373886913749036,-71.71392391578108,21.867404312282435,-72.7893899111276,18.34457548585083,-72.78645964006697,16.011156635570504,-72.00038774599687,14.803553077807534,-71.0427721363281,13.723310755133246,-70.55735152526307,11.81898555701451,-70.87002064624352,9.068347781792754,-71.81039658803572,6.5860056135836915,-72.75922401813035,6.008759558200836,-72.91485506296158,8.415002147289764,-71.70065370880009,13.428773895096734,-69.13616934422883,19.088838812780473,-65.95214905500114,22.678819871638662,-63.32211066102898,22.208855949610996,-62.28679537309922,17.81930789512194,-63.129796090204366,12.159515591473493,-65.00804199732443,8.842806043310404,-66.12377191063969,8.667736601306633,-64.84808588319935,5.254775544234515,-62.122009730687665,-13.580991172424815,-62.85606429811779,-43,-63" fill="none" stroke="rgb(167, 133, 106)" stroke-width="2" stroke-linejoin="round" filter="url(#fuzzy)"></polyline><polyline points="2,-85,-5.88669342151394,-75.33454996008302,9.777683455501144,-68.61344781676597,20.461372595722185,-65.95063609558464,21.48147114540676,-67.31927784756016,17.245805002668064,-70.34831430990874,13.237792413462206,-72.80931055028161,12.604780337167375,-73.60745751588756,15.64322703391498,-72.70696338372493,20.827793582265066,-70.65277458339872,26.14658000389949,-68.1372829438272,29.937120139889203,-65.84910723776677,31.13910189585976,-64.49521107472614,29.395131512210018,-64.66723598656301,25.30779327222686,-66.4374615023217,20.524926271556044,-69.06829523521962,16.91733686934114,-71.39162267230968,14.775452029430628,-72.78418503510125,11.776939014283355,-73.60154110749366,6.146404384465393,-73.76852396138233,6.405975577777946,-70.34084947057988,45,-59" fill="none" stroke="rgb(167, 133, 106)" stroke-width="2" stroke-linejoin="round" filter="url(#fuzzy)"></polyline><polyline points="-27,-77,2.22127302349752,-67.18878381773013,29.657358572054704,-51.39603151828184,41.092715283680946,-44.12304214555207,37.01134696136112,-45.11799325468525,23.094342007261975,-50.663686738072634,7.071055393315766,-57.39065391927025,-4.647315567972441,-63.46177673102408,-9.690779535898598,-68.39050925361238,-9.923727788153588,-72.28470475611138,-9.137865801755007,-75.23674052109341,-10.174022041396366,-77.1338593349814,-13.575523454001502,-77.75402564662348,-18.152734230806107,-77.01545736902708,-21.68596326700396,-75.40620249315754,-19.849899082413565,-74.28278558500897,-4.653845084760771,-74.55882410708733,33,-71" fill="none" stroke="rgb(167, 133, 106)" stroke-width="2" stroke-linejoin="round" filter="url(#fuzzy)"></polyline><polyline points="51,-48,0.8936813113277849,-60.88862401245956,-4.200247924381419,-71.70551544421433,-0.5365265468556017,-77.19246076592319,1.8519855997773071,-78.6545932594084,2.0927347832319008,-77.30827450208078,2.119986074122364,-73.80619843661512,3.419896098706209,-68.86263879610851,5.630252463390387,-63.66834615146886,7.259377587368483,-59.64288593717722,7.428094728717071,-57.77060697713336,6.843313217163086,-58.10235261917114,7.187650393857983,-59.831628545425126,9.611127460033426,-61.89682918003509,13.650789153433093,-63.69209672729713,17.384472651263618,-65.39611111634268,18.668148526778985,-67.63511940576576,16.692921685462448,-70.58620777148957,12.963582342816542,-73.08529593645727,10.814719601126447,-72.60718555759803,12.325718114705861,-66.95229991093426,9.82819044008622,-59.0346867292794,-36,-71" fill="none" stroke="rgb(167, 133, 106)" stroke-width="2" stroke-linejoin="round" filter="url(#fuzzy)"></polyline><polyline points="36,-68,31.195832980303347,-58.39129554690687,14.022299773806399,-59.943564840465484,8.137667888175477,-60.33035359411841,8.43491985858418,-61.380627343431115,7.105693992415305,-63.820096631703166,2.7368991492623174,-65.99535004934788,-2.0539243038180204,-66.23778568172459,-4.8284759521484375,-64.4517822265625,-4.653059725685088,-61.86365723765302,-1.0840730856374101,-59.77854733875975,6.317382698180562,-58.75284579533312,16.505614200839773,-58.80151228047907,25.67637216575363,-59.8476830167506,29.738969216680207,-61.39999997530086,27.502155866913757,-63.961969332613364,5,-84" fill="none" stroke="rgb(167, 133, 106)" stroke-width="2" stroke-linejoin="round" filter="url(#fuzzy)"></polyline><polyline points="-38,-68,-16.484133631876375,-73.65306623152601,-18.06978061090205,-72.02940469947166,-17.043866926862048,-71.09133957686417,-11.11228718121574,-71.38723667374553,-3.1341349745128175,-71.21258755985059,4.502481058293836,-69.45362111587822,10.820563348026521,-66.23535059673648,15.800774168747584,-62.64477104523131,19.50322969172156,-60.13275062852978,21.47991390644618,-59.85042546054435,20.959803581237793,-62.13188934326172,17.611905056442417,-66.33167049036884,12.188706891189714,-71.10026812034636,6.500042182054222,-74.95205811189551,2.7379303249657747,-76.82466717938784,2.561713899846464,-76.40138096437207,6.273374208107321,-74.19311164910428,12.284020859137133,-71.4571960606548,17.627626364439113,-69.73269475907168,21.205286443143436,-69.3144712945402,29.25283849314295,-66.43208059937757,49,-53" fill="none" stroke="rgb(167, 133, 106)" stroke-width="2" stroke-linejoin="round" filter="url(#fuzzy)"></polyline><polyline points="-30,-76,-20.84532672151842,-74.30431433752585,-0.5599019810382395,-73.32569472236173,12.825067053514763,-72.32409060602681,15.733242637131644,-72.40546012213873,11.569454593301094,-73.13971935283998,5.6218743816847345,-73.67544972745114,2.7393190488191435,-73.37888264163773,5.752199615510267,-71.8544835759248,14.152240390078461,-69.20975382849126,24.17279587915651,-66.50246795801242,31.03283188833169,-65.42573350000731,32.145165716226046,-66.73445501127884,28.072004221462397,-68.87029855330846,17.11533515993745,-70.52546528299781,-20,-81" fill="none" stroke="rgb(167, 133, 106)" stroke-width="2" stroke-linejoin="round" filter="url(#fuzzy)"></polyline><polyline points="-23,-80,-12.591610437258238,-77.61584171142593,-19.502374738816158,-73.39569919882811,-24.304474907287734,-71.48735470376491,-26.549653322421516,-70.64636818477165,-27.135991829774834,-69.50400804619574,-25.382581810618426,-68.06591744896603,-20.933668963753828,-67.02285627639074,-14.77059893842813,-66.90816076449671,-8.384646014704607,-67.7300860549322,-2.509572110422041,-68.99515573192346,3.2367117518694606,-69.94591434906337,9.645864605903625,-69.89413332939148,16.94901777115462,-68.52623213207268,24.43110137820702,-66.03172117620313,30.827937893471997,-62.9715083128152,35.016276869676155,-59.98167849100886,36.322087237062185,-57.564374844520394,34.20637566406816,-56.15555758580693,27.820128295554753,-56.33775069277273,16.329226408645653,-58.73064425160932,0.3035484032220559,-63.12802181210118,-17.37415075071508,-67.0731570784024,-33.89680557669638,-65.54670926854607,-47,-57" fill="none" stroke="rgb(167, 133, 106)" stroke-width="2" stroke-linejoin="round" filter="url(#fuzzy)"></polyline><polyline points="-3,-85,15.09392022580663,-77.58624813300138,13.197434018738694,-78.84140070012124,9.36923611858873,-80.44423621961496,7.711037246725297,-80.2530700034987,7.279126909960554,-78.4060830344955,6.12312625171125,-75.93029615407865,3.191028915683957,-73.84132755713135,-0.937476895734307,-72.6128937058628,-4.5680541089248745,-72.14800687473192,-6.14056214510271,-72.08855254926881,-5.21225918947434,-72.14914587333807,-2.5673213882127826,-72.25173623361114,0.4008086213444789,-72.43092356280552,2.4662014463699258,-72.6433561945486,3.0171472936035597,-72.6727940285773,1.9891808708796688,-72.25221464160828,-0.5828224137156469,-71.35218176679597,-4.897293540848634,-70.39296280740272,-10.834135859236193,-70.08748754161272,-16.352155643968878,-70.94089926729187,-16.938150563131735,-73.11677301058145,-11.108660017170223,-77.23388426361555,-19,-82" fill="none" stroke="rgb(167, 133, 106)" stroke-width="2" stroke-linejoin="round" filter="url(#fuzzy)"></polyline><polyline points="1,-85,-2.234895213772613,-65.49040801878283,16.772540516958884,-57.05365587724487,28.009484326750627,-55.950126730671144,29.97057520679416,-57.53364248232069,27.011019660234695,-59.22389183894435,23.20655012905115,-60.36716725376911,20.602946372322176,-61.701188357964455,19.307407502192625,-64.11416277762346,18.644184112548828,-67.48113632202148,18.306363373103736,-70.53266189187816,18.578176479127002,-71.8358343185239,19.695493433234503,-71.03839538285236,21.322428514143795,-69.28487597610462,22.94643921769811,-68.29386727143114,24.822172744173344,-68.58063186869106,28.47272869947705,-67.86795984149087,37.39863169661261,-59.89133407302224,59,-33" fill="none" stroke="rgb(167, 133, 106)" stroke-width="2" stroke-linejoin="round" filter="url(#fuzzy)"></polyline><polyline points="55,-42,9.421996506122948,-66.5753190304565,-6.268788298117674,-75.32848475712129,-6.510995262485748,-78.9873115018009,-2.2140186707064653,-79.80794408428999,0.9092985148445576,-78.67299837349174,1.7294173038749845,-76.41602942169536,1.8521966710669455,-73.75040639778445,2.94265882277089,-71.12686014073677,4.936532954657231,-68.77263618576754,6.301529766636148,-66.84722786308093,5.750222193001405,-65.5515548549189,3.585765983402855,-65.07996697727764,1.2182151866422601,-65.48360240882774,-0.7845964969321111,-66.63795590628291,-3.68792816151573,-68.40350992117712,-8.053428926757443,-70.7865373449246,-8.789935619209931,-73.61585752454785,4.857906263126479,-74.94092806603875,37,-67" fill="none" stroke="rgb(167, 133, 106)" stroke-width="2" stroke-linejoin="round" filter="url(#fuzzy)"></polyline><polyline points="16,-81,-2.8490056018435546,-65.90829037592897,-2.2394069839331063,-60.97513469155897,-0.10641957398521744,-62.027442407026605,4.368821598996647,-64.23645603972152,7.866935312774388,-66.21465222841171,6.786448863666871,-68.04371004495346,0.7958140085367886,-69.69498451204662,-7.572751560026235,-70.94642020955192,-15.028878488258838,-71.74104302562142,-19.290690376437336,-72.2190661053915,-19.7684066804015,-72.47795255513786,-17.269876671945884,-72.42849828545704,-13.184762708841657,-71.904176615529,-8.691934403119719,-70.87564640919848,-4.442014850811956,-69.54767541376307,-0.8470344552673058,-68.2764415388272,1.3930543909924988,-67.4320985138789,1.2613080826704959,-67.36811218443616,-1.6235160960834096,-68.54214118811953,-5.605309632995829,-71.61505264106708,-6.944700822079811,-76.96785640985424,-3.5396928600323383,-82.90638329154558,-1,-85" fill="none" stroke="rgb(167, 133, 106)" stroke-width="2" stroke-linejoin="round" filter="url(#fuzzy)"></polyline><polyline points="-15,-83,-25.688723306969617,-77.40449063433853,-29.02165076354008,-74.74983430414783,-26.6792262771728,-73.87418910217637,-20.031689326945365,-74.09612209423092,-11.962816665508734,-74.86462660874912,-5.343026991695657,-75.60949406124294,-1.1803440959018043,-75.95749554057073,1.2312509982744004,-75.90026455323903,2.9117730510681747,-75.71445908848115,4.238838942740695,-75.67451657201269,5.15604829788208,-75.76760339736938,5.981079409904871,-75.61178130117972,7.783230672908617,-74.62461973445987,11.78722002209005,-72.34017798677161,18.145553667354307,-68.72427366276693,25.006740339977274,-64.3578445751106,28.680795792163508,-60.37890796376908,25.00952963668768,-58.1293396577048,11.488127535889477,-58.620623758628966,-10.100362392013455,-61.976800221517884,-31.124557202057453,-66.1591623690497,-43,-63" fill="none" stroke="rgb(167, 133, 106)" stroke-width="2" stroke-linejoin="round" filter="url(#fuzzy)"></polyline><polyline points="18,-81,16.875822830653245,-80.13916649544898,17.281395651452247,-76.76908476246618,15.221558974439416,-73.93885165972938,12.606493439737923,-72.0346177807736,10.986004198433339,-71.10464151655535,10.196857526986701,-71.45393595790567,9.925906055564399,-72.78971468894873,10.497565576249732,-74.02651799979107,12.508661669827225,-73.9447526383553,16.144145572038422,-71.99290302808149,20.707148798808113,-68.70304410980586,24.588683153271017,-65.54281326907449,25.86385651274929,-64.22236498931896,23.47432883925727,-65.6799697723362,18.357182698964774,-69.27333021766681,13.376812195883371,-72.84269563066327,11.220281227847751,-73.94356731256363,10.818037827797802,-71.74379852663107,5.0334644254199885,-68.39052164416597,-14.829371975076793,-68.14316617181692,-37,-70" fill="none" stroke="rgb(167, 133, 106)" stroke-width="2" stroke-linejoin="round" filter="url(#fuzzy)"></polyline><polyline points="-50,-52,-39.803660897677034,-63.48922343390608,-32.24020409757767,-68.17960251875587,-22.211682339880383,-69.50839657764755,-8.660659855830726,-69.89207601699513,4.602280615701955,-70.06212575617032,13.88332079054041,-70.20794032520516,17.90487264489633,-70.42969284012975,17.60044090859616,-70.73854166079717,15.291684490699556,-70.8783319346706,13.695744699340281,-70.30744850124432,14.418241778479794,-68.68229280330877,16.55910911971099,-66.70086463907538,17.238628478253222,-66.39623197124403,14.890782083969262,-69.76999570496089,12.384148331228321,-76.06657057733372,13.56077885776299,-81.08226137806079,13,-83" fill="none" stroke="rgb(167, 133, 106)" stroke-width="2" stroke-linejoin="round" filter="url(#fuzzy)"></polyline><polyline points="61,-29,15.815571627826555,-63.38839577555608,3.3777092866074883,-76.02478337332722,3.4343786545361534,-79.53911590703551,8.939168585956343,-79.02425071486172,15.349574984678839,-76.73067697787155,19.595532870898584,-74.07259361406129,20.475405931193947,-72.12264027716986,18.747623189627664,-71.38872814365081,16.391335698489538,-71.63459361135963,15.184030532836914,-72.1495189666748,15.504110058721755,-72.27309160124317,16.329520633463574,-71.70511425920336,16.494716202150094,-70.4326091424562,16.093647999398293,-68.60694222761892,16.582981394591116,-66.73514650381367,19.271803020458993,-65.8340599543909,23.94008369930426,-66.39981270675386,30.247848909803707,-65.6938850578439,41.27795682323277,-55.99439348993731,61,-29" fill="none" stroke="rgb(167, 133, 106)" stroke-width="2" stroke-linejoin="round" filter="url(#fuzzy)"></polyline><polyline points="26,-76,26.141777469185392,-62.387074847460596,17.387638343721072,-63.858080327195374,14.382682372866055,-66.1748845612565,11.117555799238353,-68.86432880283152,5.603674969807814,-72.41438285159981,-0.16250576411033632,-75.76450285725286,-3.933974410664295,-77.70146102589477,-4.513266958624797,-78.03572017850044,-1.4595514670448646,-77.41080359491994,5.08470310665474,-76.25034129777272,14.274450089806903,-73.9265613634778,24.71544077726516,-69.24292160762674,34.06675626911875,-62.92379127147414,35.61641866277762,-61.88706468211335,13,-83" fill="none" stroke="rgb(167, 133, 106)" stroke-width="2" stroke-linejoin="round" filter="url(#fuzzy)"></polyline><polyline points="-24,-79,1.0168240288675805,-78.61276919918497,11.61844397034314,-76.48682825272134,16.030544452494627,-74.38373767300699,18.267975928521437,-71.42005296997425,18.33500482044333,-68.15973172555165,16.63479095920987,-65.72518311235046,14.718188327160457,-64.6560236296608,13.98572140925117,-64.72620712045786,14.89069825747133,-65.32425258226273,17.169335931298708,-65.85296271611745,20.25404701619023,-65.9851892984239,23.320019442360937,-65.7592123464612,25.23237640283765,-65.47163718607588,24.74235475734447,-65.46859608547098,20.833244132764587,-66.07333932578015,13.267244154366715,-67.51600365286988,3.639462848242606,-69.25434597664494,-6.787105433692885,-69.26640905601748,-41,-66" fill="none" stroke="rgb(167, 133, 106)" stroke-width="2" stroke-linejoin="round" filter="url(#fuzzy)"></polyline><polyline points="-4,-85,5.317355976997841,-75.313469610351,13.876501808680299,-69.87848970056295,10.029547993089459,-70.98853180239409,1.5781302145319969,-73.1269474787763,-4.0925319660151125,-73.38275505666368,-4.291261839306883,-71.74273955034933,-0.4076362461693022,-69.46617241715677,4.34408377411241,-67.62138260486888,7.399059972924921,-66.43984865312302,8.241619496127859,-65.54606703982391,8.084530115127563,-64.60183429718018,8.386237442742484,-63.728162262019076,9.571180920423295,-63.374533732476024,11.016591767558149,-63.832478150351406,12.140789972595162,-64.90374411246,13.263376241549361,-66.08247652270933,14.946553379285833,-67.1217846050125,16.1771863143923,-68.391614356465,14.044327948231032,-70.2736482018928,8.235230437740213,-71.14918631594512,10.581583861418306,-64.92453510615215,55,-42" fill="none" stroke="rgb(167, 133, 106)" stroke-width="2" stroke-linejoin="round" filter="url(#fuzzy)"></polyline><polyline points="-14,-83,-11.201744501119368,-79.81283753182706,-0.1932047574564848,-72.22526741410113,11.2756991377557,-65.93564246540959,20.673420858569443,-61.86066455952823,27.267471429247298,-59.30038649301754,29.61746002660489,-58.29457855260918,27.134330800521937,-58.981052100098836,21.51397705078125,-60.6810302734375,16.251746824489114,-62.10287081726835,14.777574384541325,-62.19119196599169,18.49729810023701,-60.62300374806401,26.052391749806702,-57.60494829528034,34.51105498287094,-53.5905166880453,40.92594391344933,-50.31584030322958,39.64647976103789,-54.60704139521151,16,-81" fill="none" stroke="rgb(167, 133, 106)" stroke-width="2" stroke-linejoin="round" filter="url(#fuzzy)"></polyline><polyline points="-27,-77,-27.20211584654613,-68.93601493561106,-6.90498194978658,-62.098487604175816,13.3625945082455,-58.896459955081745,25.1035126928243,-60.29906950246537,29.453008161556678,-64.02342790003162,29.634460582527083,-67.74844330663272,27.530863010635535,-70.47482422468151,23.56392593597846,-72.20952795967928,17.81222932313431,-73.23173198189015,11.02896394723577,-73.65060994024307,4.916264807355629,-73.37532279216074,1.530508041381836,-72.32565951347351,2.159708280005848,-70.66869242079798,6.352375982390009,-68.9303882240376,11.783377613577715,-67.89620462346312,15.223406952262033,-68.28200789022773,14.209602872542229,-70.28190944493608,8.498791958556978,-73.25424232709297,0.417643357652376,-75.82634649694947,-6.09395427096961,-76.46218788532806,-6.973912850782955,-74.25299776214584,1.0473636686364518,-69.86450332563165,18.582301446658025,-67.2386903740219,27,-76" fill="none" stroke="rgb(167, 133, 106)" stroke-width="2" stroke-linejoin="round" filter="url(#fuzzy)"></polyline><polyline points="-40,-66,-11.524568131966777,-67.3692744676821,-10.790516152728244,-69.49196053548263,-5.0810486642198995,-71.93603529868948,6.206996637396514,-71.93484971299767,17.253881718907465,-69.48574450550626,23.274495630660155,-66.57480904398841,22.287844194680673,-65.166047236612,15.60858154296875,-65.814697265625,7.358829808526484,-67.68006218897033,2.3968733054294233,-69.60960488498137,3.3007970179403863,-71.18625149098914,8.646219479851425,-72.78802016749978,14.747473674464292,-74.60808038627127,19.905869266085162,-75.6421874332446,24.895334627749794,-74.8743516544074,22,-78" fill="none" stroke="rgb(167, 133, 106)" stroke-width="2" stroke-linejoin="round" filter="url(#fuzzy)"></polyline><polyline points="4,-85,4.183004423135776,-83.86278446102631,2.1222836454670513,-81.75946690860944,4.472430715120818,-78.93737119680519,10.743447825391147,-76.16916135827094,17.588149351946637,-73.8783235660133,22.810895009252036,-71.88319785056169,25.664053771053172,-69.87516695816495,26.093908150073755,-67.89163944001291,24.477285238244683,-66.33552683312064,21.626312072302337,-65.64908910052822,18.477334524901806,-65.96082363451235,15.514903833782535,-66.94515835137095,12.505603027706567,-67.97407872578104,8.89058657477534,-68.50802998731209,4.510513412500122,-68.56412564064074,0.051678200696168006,-68.95697687373648,-2.939171089746988,-70.87972880546508,-2.2105526058718654,-74.59878287185617,4.517537540925224,-78.0117814261172,17.49385964047121,-77.26102490737168,32,-71" fill="none" stroke="rgb(167, 133, 106)" stroke-width="2" stroke-linejoin="round" filter="url(#fuzzy)"></polyline><polyline points="-27,-77,7.001073550595292,-55.00922139747747,12.599902988276902,-49.93665403014071,16.40187554945481,-51.04780381503462,18.691014230440704,-54.09682641948651,19.711656682865396,-57.49457694304874,19.648750615746064,-61.21034924119108,18.424706280262686,-65.30288793225688,16.562648898960884,-69.33625431712471,15.12753836545247,-72.69611034081889,14.851962089538574,-75.04322814941406,15.574650505560527,-76.42877938397929,16.490020855989933,-77.1005186748861,16.780290124154263,-77.22704189816784,16.006162573241603,-76.68403358474782,14.159026701311632,-74.92741915944498,11.834999465594583,-71.0118151617824,10.999438318634027,-64.02285921364148,16.11318238115892,-54.44183420373614,32.47328557645993,-47.22945640002716,44,-59" fill="none" stroke="rgb(167, 133, 106)" stroke-width="2" stroke-linejoin="round" filter="url(#fuzzy)"></polyline><polyline points="5,-84,18.982929779230552,-76.18895061613625,13.43995106128753,-73.25139328091622,3.4736355028881873,-70.20458837338579,-3.46433980576694,-67.42298833373934,-7.540076952420013,-66.39086618934054,-10.190024870732458,-67.11490433212306,-11.453118369128584,-68.503488688029,-10.6912841796875,-69.70269775390625,-7.552998989151567,-70.67901258315192,-1.9539437785333291,-71.73668733041553,6.039944376732749,-72.73506462774812,15.506351130083203,-72.99589053634554,23.657955249511847,-72.30084109381816,25.787852117299764,-72.2805766643943,16.3246189748758,-76.24061521917146,-9,-84" fill="none" stroke="rgb(167, 133, 106)" stroke-width="2" stroke-linejoin="round" filter="url(#fuzzy)"></polyline><polyline points="39,-64,1.7381030228213425,-72.97889862678942,-4.6091590422200674,-72.67087365794221,0.19176740360683786,-69.3092076403555,5.515864331250424,-65.88728737794668,10.754503636153459,-62.82984335833953,17.11497111999894,-59.95778100647401,23.497624144796603,-57.96645009216457,27.558910817865947,-57.95199586673583,28.107754649003947,-60.15063642178912,25.940473556518555,-63.47856044769287,22.889441373099874,-66.29100719912772,20.488452885170737,-67.5863943424774,19.48834271213147,-67.59619048236611,20.200453276938234,-67.33323705718601,22.678220468193103,-67.60054087046501,26.10946034372613,-68.42559515550089,28.260641959263516,-69.43534775457381,26.920216777021363,-70.43099643385472,25.33838401853769,-69.8267124740484,46,-57" fill="none" stroke="rgb(167, 133, 106)" stroke-width="2" stroke-linejoin="round" filter="url(#fuzzy)"></polyline><polyline points="7,-84,23.17831798183544,-72.24760444340828,30.425790767503557,-66.03784059742182,30.21784788512388,-66.32531917600137,26.94906221342182,-68.46460178036503,21.606185396696034,-70.84502617843897,14.696500402075397,-73.1264212093266,7.934258626869061,-74.9679045296575,3.576735176137426,-76.01546061921965,3.083546407186348,-76.0417668326297,6.430028033219312,-74.87374683435831,12.28696677705105,-72.37624268870259,18.592201973138636,-68.71851187057729,23.118823455908043,-64.74871307818778,24.123107392648148,-61.98990668116544,21.331235541417406,-61.87409245670553,16.95111625881429,-64.44111888080343,15.432995084785336,-67.55834328332065,20.59479857089958,-68.0365646939712,30.735247472271766,-65.06086991336079,35.77590370722531,-64.26606942534221,21,-79" fill="none" stroke="rgb(167, 133, 106)" stroke-width="2" stroke-linejoin="round" filter="url(#fuzzy)"></polyline><polyline points="24,-78,24.493949495916723,-74.70755720915265,24.835986458050986,-65.25257826005576,22.8728339953043,-56.83892302177466,22.176782151916917,-52.91445104346118,24.27433884182718,-52.625655724851974,27.98237234483654,-53.74622847002854,31.14485804045773,-54.850465746104085,31.822460399113652,-55.9489101677175,28.940091590919785,-57.85039468039756,22.643975012034065,-61.10861586065792,14.210004118138388,-65.41904061201869,5.426891284570972,-69.80121946001518,-2.2145591761767376,-73.26438087737583,-8.012549122521069,-75.37165100684969,-11.965684351886335,-76.32340232993458,-14.283897011943349,-76.62000050469332,-14.931386609380267,-76.64094772774006,-13.550760267330656,-76.38151591205336,-9.768752902340578,-75.30655927832807,-3.3831144658861394,-72.35035946421485,6.1226972158212885,-66.99623647407651,17.884399059757285,-63.84302640016249,8,-84" fill="none" stroke="rgb(167, 133, 106)" stroke-width="2" stroke-linejoin="round" filter="url(#fuzzy)"></polyline><polyline points="46,-57,-3.4644244005377076,-68.0501081917257,-18.526185106385487,-73.60611131255318,-21.02471740380121,-75.87916912135077,-19.225589659040896,-76.23764723810261,-15.89567783607176,-75.8831094515096,-11.592524504935636,-75.72347652758245,-6.399436332911555,-76.12275256152068,-0.6428474177211848,-76.93988621447134,5.136553509631639,-77.74774324887463,10.529316866553733,-78.0342945975632,15.49309770822303,-77.34098568042721,20.252537548542023,-75.38799977302551,24.925601257022443,-72.19849198114495,29.155499058678284,-68.15770188330892,32.05559519630262,-63.93647526613543,32.62016349022257,-60.28811324810738,30.507352094643437,-57.80749777297108,26.824556078883166,-56.73500550524126,24.255547611235666,-56.838424596097475,25.764394384184186,-57.465965030029224,31.901473803436748,-57.94852008676589,39.215165134830045,-57.89839986126478,44.85178800569181,-54.940091803139666,57,-38" fill="none" stroke="rgb(167, 133, 106)" stroke-width="2" stroke-linejoin="round" filter="url(#fuzzy)"></polyline><!--]--></g><g id="pointNose"><g id="rightNose"><!--[--><circle r="2.51621274509004" cx="8.4373038469269" cy="4.223482146735031" stroke="black" fill="none" stroke-width="1" filter="url(#fuzzy)"></circle><circle r="2.8003141075009452" cx="10.63763416360101" cy="6.966540718172048" stroke="black" fill="none" stroke-width="1" filter="url(#fuzzy)"></circle><circle r="2.2417922312882776" cx="7.039100531712151" cy="4.670946199846004" stroke="black" fill="none" stroke-width="1" filter="url(#fuzzy)"></circle><circle r="2.282757316327788" cx="9.17669455080797" cy="5.815329458621472" stroke="black" fill="none" stroke-width="1" filter="url(#fuzzy)"></circle><circle r="2.1923614589354563" cx="7.647826494597565" cy="7.334285769638889" stroke="black" fill="none" stroke-width="1" filter="url(#fuzzy)"></circle><circle r="2.692707446453281" cx="7.908711554155525" cy="3.4488828077608895" stroke="black" fill="none" stroke-width="1" filter="url(#fuzzy)"></circle><circle r="1.6646722264136595" cx="7.003556247815901" cy="6.204723502355424" stroke="black" fill="none" stroke-width="1" filter="url(#fuzzy)"></circle><circle r="2.8899810278996214" cx="7.044147087896951" cy="5.234372518234571" stroke="black" fill="none" stroke-width="1" filter="url(#fuzzy)"></circle><circle r="1.8286412754208399" cx="7.465813226637266" cy="4.618123429562599" stroke="black" fill="none" stroke-width="1" filter="url(#fuzzy)"></circle><circle r="1.7320104040810798" cx="7.247064718631421" cy="7.101996579445082" stroke="black" fill="none" stroke-width="1" filter="url(#fuzzy)"></circle><!--]--></g><g id="leftNose"><!--[--><circle r="1.4605030752728436" cx="-9.072863350956325" cy="5.067689869574476" stroke="black" fill="none" stroke-width="1" filter="url(#fuzzy)"></circle><circle r="1.0246632102283173" cx="-8.974112906997409" cy="5.565156436932489" stroke="black" fill="none" stroke-width="1" filter="url(#fuzzy)"></circle><circle r="2.3172438686699737" cx="-8.949734787000576" cy="3.631634286347854" stroke="black" fill="none" stroke-width="1" filter="url(#fuzzy)"></circle><circle r="2.4425948061292684" cx="-7.630443323445682" cy="4.031574195910444" stroke="black" fill="none" stroke-width="1" filter="url(#fuzzy)"></circle><circle r="2.8865934080224713" cx="-6.44235124910196" cy="6.04080628803545" stroke="black" fill="none" stroke-width="1" filter="url(#fuzzy)"></circle><circle r="2.9756867030961596" cx="-7.322749830284524" cy="6.079161476319074" stroke="black" fill="none" stroke-width="1" filter="url(#fuzzy)"></circle><circle r="2.359584583749718" cx="-9.930101930538001" cy="5.879683701693288" stroke="black" fill="none" stroke-width="1" filter="url(#fuzzy)"></circle><circle r="1.689360469260344" cx="-7.596458608494878" cy="4.409460129707195" stroke="black" fill="none" stroke-width="1" filter="url(#fuzzy)"></circle><circle r="2.4367384846777282" cx="-9.218887696256925" cy="6.444877222863337" stroke="black" fill="none" stroke-width="1" filter="url(#fuzzy)"></circle><circle r="1.1314169770235223" cx="-9.931101239231818" cy="3.324840508602076" stroke="black" fill="none" stroke-width="1" filter="url(#fuzzy)"></circle><!--]--></g></g><g id="mouth"><polyline points="-16.147273873144748,75.12161026618303,-16.09228456003667,74.0941899361229,-16.0218848885632,73.08766123087463,-15.936395475229801,72.10204007244707,-15.83613693654193,71.13734238284908,-15.721429889005044,70.1935840840896,-15.592594949124601,69.27078109817741,-15.449952733406056,68.36894934712141,-15.293823858354886,67.48810475293051,-15.124528940476521,66.62826323761354,-14.942388596276434,65.78944072317937,-14.747723442260083,64.97165313163691,-14.540854094932925,64.17491638499499,-14.322101170800414,63.39924640526248,-14.091785286368017,62.644659114448274,-13.850227058141188,61.911170434561235,-13.59774710262538,61.19879628761024,-13.33466603632606,60.50755259560413,-13.061304475748683,59.83745528055181,-12.7779830373987,59.188520264462134,-12.485022337781581,58.56076346934396,-12.182742993402782,57.95420081720619,-11.87146562076775,57.36884823005768,-11.551510836381958,56.80472162990729,-11.223199256750853,56.2618369387639,-10.886851498379903,55.74021007863637,-10.542788177774558,55.239856971533605,-10.191329911440274,54.76079353946444,-9.832797315882521,54.303035704437754,-9.467511007606745,53.86659938846241,-9.095791603118412,53.45150051354731,-8.717959718922977,53.05775500170128,-8.334335971525899,52.685378774933234,-7.945240977432639,52.33438775525201,-7.550995353148648,52.00479786466649,-7.1519197151793925,51.696625025185554,-6.748334680030324,51.40988515881806,-6.340560864206907,51.14459418757287,-5.9289188842145935,50.900768033458874,-5.513729356558845,50.678422618484944,-5.09531289774512,50.47757386465994,-4.673990124278875,50.29823769399272,-4.2500816526655685,50.14043002849218,-3.82390809941066,50.00416679016719,-3.3957900810196087,49.889463901026595,-2.966048213997869,49.79633728307927,-2.535003114850901,49.72480285833411,-2.102975400084166,49.67487654879998,-1.6702856862031186,49.64657427648572,-1.237254589713214,49.63991196340024,-0.8042027271199191,49.654905531552394,-0.3714507149286871,49.691570902951035,0.06068083035502725,49.74992399960505,0.491871292225762,49.829980743523336,0.9218000541780591,49.93175705671471,1.3501464997064572,50.055268861188075,1.7765900123055047,50.2005320789523,2.2008099754697366,50.367562632016245,2.6224857726937003,50.5563764423888,3.0412967874719357,50.766989432078816,3.4569224032989823,50.99941752309517,3.869042003669387,51.25367663744673,4.2773349720776865,51.529782697142366,4.6814806920184235,51.827751624190945,5.081158546986143,52.14759934060135,5.476047920475382,52.48934176838245,5.865828195980686,52.85299482954312,6.250178756996597,53.238574446092215,6.628778987017655,53.646096540038606,7.0013082695384,54.07557703339118,7.367445988053378,54.52703184815879,7.7268715260571295,55.00047690635031,8.079264267044193,55.495928129974615,8.424303594509116,56.013401441040585,8.761668891946435,56.552912761557074,9.091039542850696,57.11447801353295,9.412094930716437,57.69811311897711,9.724514439038204,58.3038339998984,10.027977451310534,58.93165657830569,10.32216335102797,59.58159677620787,10.606751521685059,60.253670515613784,10.881421346776335,60.94789371853233,11.145852209796345,61.66428230697236,11.399723494239632,62.402852202942746,11.642714583600732,63.16361932845237,11.87450486137419,63.94659960551009,12.094773711054549,64.75180895612478,12.303200516136348,65.57926330230532,12.499464660114132,66.42897856606056,12.68324552648244,67.30097066939939,12.854222498735817,68.19525553433067,13.012074960368798,69.11184908286329,13.156482294875934,70.0507672370061,13.287123885751761,71.01202591876796,13.403679116490823,71.99564105015776,13.505827370587658,73.00162855318437,13.593248031536813,74.03000434985667,13.665620482832827,75.0807843621835,13.72262410797024,76.15398451217375,13.763938290443598,77.2496207218363,13.78924241374744,78.36770891317991,13.763938290443596,77.24962072183622,13.722624107970233,76.15398451217368,13.665620482832821,75.08078436218344,13.593248031536806,74.0300043498566,13.50582737058765,73.00162855318432,13.403679116490812,71.9956410501577,13.287123885751749,71.0120259187679,13.156482294875927,70.05076723700603,13.012074960368793,69.11184908286323,12.854222498735808,68.19525553433063,12.683245526482429,67.30097066939935,12.499464660114121,66.42897856606052,12.303200516136334,65.57926330230526,12.094773711054538,64.75180895612475,11.874504861374175,63.94659960551005,11.642714583600718,63.163619328452334,11.399723494239616,62.402852202942704,11.145852209796333,61.664282306972325,10.881421346776317,60.94789371853229,10.606751521685045,60.25367051561375,10.322163351027957,59.58159677620783,10.027977451310516,58.931656578305656,9.724514439038185,58.303833999898366,9.412094930716421,57.69811311897707,9.091039542850682,57.114478013532924,8.761668891946423,56.552912761557046,8.4243035945091,56.01340144104056,8.079264267044177,55.49592812997458,7.726871526057112,55.00047690635028,7.367445988053362,54.52703184815876,7.001308269538384,54.07557703339115,6.628778987017638,53.64609654003858,6.250178756996579,53.23857444609218,5.8658281959806695,52.85299482954311,5.476047920475364,52.48934176838244,5.081158546986125,52.14759934060134,4.681480692018403,51.827751624190924,4.277334972077667,51.52978269714234,3.8690420036693673,51.253676637446695,3.4569224032989636,50.99941752309514,3.041296787471916,50.76698943207879,2.6224857726936803,50.556376442388775,2.200809975469717,50.36756263201623,1.7765900123054834,50.200532078952286,1.3501464997064372,50.05526886118806,0.9218000541780373,49.931757056714694,0.491871292225742,49.829980743523315,0.06068083035500815,49.749923999605045,-0.3714507149287063,49.69157090295102,-0.8042027271199391,49.654905531552394,-1.2372545897132352,49.63991196340024,-1.6702856862031379,49.64657427648573,-2.1029754000841865,49.67487654879998,-2.535003114850923,49.72480285833412,-2.966048213997889,49.796337283079296,-3.3957900810196295,49.8894639010266,-3.82390809941068,50.00416679016719,-4.250081652665591,50.1404300284922,-4.673990124278895,50.298237693992746,-5.0953128977451385,50.47757386465995,-5.513729356558864,50.678422618484966,-5.928918884214611,50.9007680334589,-6.3405608642069256,51.1445941875729,-6.748334680030345,51.40988515881807,-7.151919715179411,51.696625025185575,-7.550995353148667,52.004797864666514,-7.945240977432657,52.33438775525203,-8.334335971525917,52.685378774933255,-8.717959718922994,53.05775500170132,-9.095791603118428,53.45150051354733,-9.467511007606761,53.866599388462454,-9.832797315882535,54.30303570443778,-10.191329911440288,54.760793539464466,-10.54278817777457,55.239856971533634,-10.886851498379917,55.74021007863641,-11.223199256750869,56.26183693876393,-11.551510836381974,56.80472162990731,-11.871465620767768,57.3688482300577,-12.182742993402796,57.95420081720622,-12.485022337781599,58.560763469343996,-12.777983037398718,59.188520264462156,-13.061304475748697,59.83745528055184,-13.334666036326075,60.50755259560416,-13.597747102625398,61.198796287610264,-13.850227058141202,61.91117043456127,-14.091785286368031,62.64465911444832,-14.322101170800426,63.39924640526252,-14.540854094932936,64.17491638499502,-14.747723442260092,64.97165313163694,-14.942388596276444,65.78944072317942,-15.12452894047653,66.6282632376136,-15.293823858354889,67.48810475293055,-15.449952733406072,68.36894934712147,-15.592594949124612,69.27078109817745,-15.721429889005053,70.19358408408964,-15.836136936541939,71.13734238284916,-15.93639547522981,72.10204007244712,-16.021884888563207,73.08766123087469,-16.092284560036674,74.09418993612297" fill="rgb(215,127,140)" stroke="black" stroke-width="3" stroke-linejoin="round" filter="url(#fuzzy)"></polyline></g></svg>