<svg viewBox="-100 -100 200 200" xmlns="http://www.w3.org/2000/svg" width="400" height="400" id="face-svg"><defs><clipPath id="leftEyeClipPath"><polyline points="30.500358486295916,-3.4100123577493897,30.16156923955726,-3.712433179602987,29.797418371989444,-4.019155312815176,29.40831230717808,-4.327924411558099,28.994687778223803,-4.636626839274536,28.557010539192575,-4.943286263572022,28.095774076566002,-5.246060251116944,27.611498320691695,-5.543236862528678,27.10472835723359,-5.833231247273687,26.576033138622265,-6.114582238559635,26.026004195505266,-6.385948948229512,25.455254348197435,-6.646107361655735,24.864416418131277,-6.893946932634277,24.254141939307228,-7.128467178278765,23.625099869744005,-7.3487742739146125,22.977975302928964,-7.554077647973111,22.311656331954886,-7.965474705274801,21.614649984566157,-8.343308462097657,20.887883365473655,-8.68619589508364,20.13244232993076,-8.993102146491442,19.34955585790649,-9.263314681499217,18.540581011467907,-9.496418414627165,17.706988465837536,-9.692271787689588,16.850348604591495,-9.850983781686237,15.972318169464033,-9.9728918450426,15.074627455224215,-10.05854072060886,14.159068040090453,-10.10866215382721,13.227481042148629,-10.124155464477308,12.281745892239462,-10.106068964409486,11.323769613780913,-10.055582203675526,10.355476599991265,-9.973989027466644,9.378798878978658,-9.862681426268406,8.395666857162732,-9.723134161642328,7.408000531494174,-9.55689015004383,6.417701160937785,-9.365546587086277,5.426643387684857,-9.150741794660824,4.4366677985605545,-8.914142773321746,3.4495739170919872,-8.657433442347024,2.467113616702731,-8.382303549883826,1.4909849454994855,-8.090438235588662,0.5228263531165771,-7.783508228171899,-0.4357886899159378,-7.463160660256323,-1.3833566898149123,-7.131010482959518,-2.3184487537317335,-6.788632462609703,-3.239714850019237,-6.4375537420048445,-4.14588771411217,-6.0792469486246095,-5.035786409555554,-5.715123832205014,-5.9083195537151365,-5.346529414085412,-6.762488217704309,-4.974736630737512,-7.597388510061704,-4.600941453886209,-8.412213853713832,-4.226258469631896,-9.206256965756939,-3.8517168989839283,-9.978911549592492,-3.478257042215073,-10.729673708950484,-3.1067271294465297,-11.458143093334886,-2.7378805598733247,-12.164023784425524,-2.372373512039713,-12.847124932970653,-2.0107629075743936,-13.507361155704553,-1.653504710795151,-14.144752701824371,-1.300952546592741,-14.75942539856056,-0.9533566190036251,-15.351610385375151,-0.6108629128813567,-15.921643646322151,-0.2735126610762628,-16.469965350104403,0.05875794046679017,-16.997119007361107,0.3861177872829291,-17.503750454720354,0.7088407082243049,-17.99060667515095,1.0273051121499566,-18.45844518046511,1.3417053009104798,-18.9075685091184,1.6519771769924154,-19.338134107162496,1.9582075846045834,-19.750322197672467,2.2605053518310507,-20.144334503833527,2.558998934789093,-20.520392972027803,2.8538340617871514,-20.878738494921134,3.1451713774827863,-21.21962963454983,3.4331840870406483,-21.54334134540745,3.718055600290419,-21.85016369753157,3.999977175884777,-22.140400599590574,4.279145565457358,-22.414368521970427,4.55576065778071,-22.672395219861407,4.830023122924249,-22.914818456344946,5.102132056412222,-23.695868699142295,9.183527476654213,-23.369274420442977,9.375150261155998,-23.03074017771265,9.562671009776887,-22.680077056702935,9.745421493689499,-22.31710596699364,9.922706372845738,-21.941658031269135,10.093807522634954,-21.553574974594746,10.257988360542097,-21.15270951369311,10.414498172805875,-20.738925746220627,10.562576441076912,-20.312099540043782,10.701457169075903,-19.87211892251556,10.830373209251771,-19.418884469751845,10.948560589439834,-18.9523096959078,11.055262839519946,-18.472321442454223,11.149735318074654,-17.978860267453992,11.23124953904738,-17.471108560839816,11.301881350883164,-16.9479950334557,11.362900854990466,-16.40913255499809,11.412481710101583,-15.854190956688123,11.44892963841421,-15.282897648136172,11.470687248926577,-14.69503814817926,11.476338631542486,-14.090456526784633,11.464613689640556,-13.469055755112857,11.434392178801954,-12.830797960833964,11.384707419390875,-12.175704585789918,11.314749650682119,-11.503856443096907,11.223868994229953,-10.8153936707808,11.111577994172658,-10.110515579039218,10.97755370216694,-9.389480388223562,10.82163927464657,-8.652604854634482,10.643845050099497,-7.9002637812241066,10.44434907405773,-7.132889410298498,10.22349703949429,-6.350970695313704,9.98180161032147,-5.555052448858833,9.719941095684765,-4.745734363919496,9.438757442746676,-3.923669905515139,9.13925351565475,-3.089565069803512,8.822589628388066,-2.244177007745821,8.490079299176527,-1.3883125104258505,8.143184194187182,-0.5228263531165771,7.783508228171899,0.35138050481245964,7.412790789770673,1.2333628670535002,7.032899059164835,2.1221333974912997,6.645819385774464,3.0166648702128147,6.253647693694294,3.915892575302443,5.858578882562372,4.818716883329444,5.4628951915557895,5.724005971434075,5.068953494207749,6.630598713919111,4.679171491740262,7.5373077402532935,4.296012772606753,8.44292266339332,3.921970705938873,9.346213481330997,3.5595511365917867,10.2459341547721,3.211253849482241,11.140826363853593,2.8795527709136923,12.029623446805763,2.5668748745827616,12.911054523465904,2.275577759961328,13.783848806550095,2.0079258707485375,14.64674010358975,1.7660653210870052,15.498471512439428,1.5519972972375142,16.337800313262616,1.3675500024064693,17.163503059901974,1.21434911242042,17.97438087354074,1.0937867099419232,18.769264941561822,1.006988664921038,19.547022224511185,0.9547804289767226,20.306561374072142,0.9376512114024451,21.046838864957166,0.9557165044902756,21.715367066456274,0.8245499290631666,22.37122787848083,0.7070414848677946,23.013666102706317,0.6030559161760127,23.641914678458576,0.5123604663172867,24.255194883066192,0.43462086147133805,24.852716532212817,0.3693972944607755,25.43367818028958,0.31614040854374315,25.997267320747426,0.27418728120656066,26.542660586449486,0.24275740795635725,27.06902395002345,0.22094868611371998,27.57551292421391,0.20773339860532714,28.061272762234754,0.2019541977565953,28.525438658121494,0.20232008908431354,28.967135947083648,0.20740241508928703,29.38548030585713,0.21563083904897828"></polyline></clipPath><clipPath id="rightEyeClipPath"><polyline points="-28.767851016072388,-4.8523738876996045,-28.478738099101626,-5.237437974308293,-28.164606631792743,-5.627859067200504,-27.825199230960884,-6.020714049469021,-27.46033755886588,-6.413263748351092,-27.0699197559454,-6.802948463898208,-26.65391787354813,-7.187383497645921,-26.212375306666992,-7.564354681283634,-25.745404226672264,-7.931813905324388,-25.253183014044808,-8.28787464777469,-24.735953691109223,-8.630807502804288,-24.194019354767036,-8.959035709415978,-23.62774160922988,-9.271130680115412,-23.037537998752654,-9.56580752958089,-22.423879440366733,-9.84192060333315,-21.787287656613135,-10.09845900640519,-21.192491471818542,-10.622417092837393,-20.555251239620326,-11.102438389323115,-19.87627286691488,-11.53676975225656,-19.156545165480956,-11.924116745472503,-18.39731333606752,-12.263609666426355,-17.600053486690612,-12.554770829117114,-16.76644816700712,-12.79748308127309,-15.898362900633138,-12.991959533320752,-14.997823697274647,-13.138714476656848,-14.066995526538395,-13.238535468743933,-13.108161735290611,-13.292456562549518,-12.12370439043143,-13.30173265784908,-11.116085528952711,-13.267814951912946,-10.087829297147076,-13.192327467097485,-9.041504960835855,-13.077044632860495,-7.979710768483813,-12.923869899721264,-6.905058649068308,-12.734815362685218,-5.820159726570739,-12.511982371653552,-4.727610632957981,-12.257543106337874,-3.6299806015216127,-11.97372309320016,-2.5297993224426882,-11.662784641938075,-1.4295455424498005,-11.327011179035996,-0.3316363904382431,-10.968692455901753,0.7615825890820123,-10.590110609109413,1.8478467128417224,-10.193527050268203,2.924980764103413,-9.781170163037768,3.9909069445203,-9.35522378480998,5.043652190695293,-8.917816450577417,6.081354873572368,-8.471011376508802,7.102270898792466,-8.016797160751413,8.104779226146269,-7.557079178980828,9.087386826255946,-7.093671652218074,10.048733092618239,-6.628290364434388,10.987593727141025,-6.162546007463787,11.90288411730566,-5.697938130743593,12.793662223087283,-5.235849673403152,13.659130991765348,-4.77754205622087,14.498640318756618,-4.324150810969785,15.311688572602863,-3.8766817246718333,16.097923702245442,-3.436007476281019,16.857143944719095,-3.002864743315631,17.589298151397124,-2.5778517559597187,18.294485750920163,-2.1614262761540113,18.972956366940874,-1.7539039791964326,19.625109108816726,-1.3554572153724118,20.251491553383076,-0.9661141291351871,20.852798435938894,-0.5857581133562428,21.42987006857727,-0.21412757616610012,21.98369050399288,0.149184002094362,22.515385462898912,0.5047277442919187,23.02553315491489,0.8525909008570314,23.514074606257132,1.192474611888684,23.981308066899814,1.5244844105049244,24.42756105384602,1.8487573443026646,24.85318792270335,2.165458964667702,25.258567439259558,2.4747803160847566,25.644100351058192,2.776934925447497,26.01020695897423,3.0721557913685817,26.357324688789667,3.360692373489673,26.685905662769198,3.6428075817914807,26.996414271235803,3.9187747659037893,27.289324744146423,4.188874704415486,27.565118722667542,4.4533925941846,27.824282830750853,4.7126150396483215,25.662837361314587,12.114607619075302,25.21332368297003,12.380321281326456,24.750665769581204,12.640478758787259,24.274759589102416,12.89414810168176,23.78551984109847,13.14035915695892,23.282880139332057,13.378109602819466,22.766793194351187,13.60637098324271,22.23723099607652,13.824094742513424,21.694184996388838,14.030218259748638,21.13766629171637,14.223670883424527,20.567705805622225,14.403379965903206,19.984354471391786,14.568276897959612,19.38768341462009,14.71730314330831,18.77778413579922,14.849416273130355,18.154768692905733,14.96359600060013,17.51737925822229,15.062735475289392,16.864189204913814,15.148605488636813,16.19512642147982,15.218655558076756,15.510189650934118,15.270518295739409,14.80944779430037,15.302016187230192,14.0930390984303,15.311168052776924,13.361170226781022,15.296195145686841,12.614115211788288,15.255526843055664,11.85221428747234,15.187805883670991,11.075872600912932,15.091893108052162,10.285558801230357,14.966871655568765,9.48180350470905,14.812050573580088,8.66519763470049,14.626967793537567,7.836390634942064,14.411392428992578,6.996088554928611,14.165326350451702,6.145052005973266,13.889004992021617,5.284093986594347,13.582897344785929,4.414077575864921,13.24770509185601,3.535913493361768,12.884360840038205,2.650557524350355,12.494025403059423,1.7590078088426224,12.078084091293459,0.8623019931641097,11.638141962930156,-0.03848575733275439,11.176017991529697,-0.9422478857726235,10.693738104904094,-1.8478467128417224,10.193527050268202,-2.754117848816204,9.677799040602412,-3.659873749897667,9.149147137169177,-4.563907420219202,8.610331323125639,-5.4649962608852185,8.06426522317453,-6.361906067408426,7.514001424195522,-7.2533951769072615,6.9627153517992735,-8.138218766427098,6.4136876577463315,-9.015133303748534,5.870285073173106,-9.882901152046115,5.335939682567119,-10.740295329760745,4.814126573433716,-11.586104427049207,4.308339816596459,-12.419137680173996,3.822066732073367,-13.238230205196883,3.3587603954712497,-14.04224839233944,2.921810339840296,-14.830095462373965,2.514511407931119,-15.600717186407962,2.140030709796496,-16.35310777042568,1.8013726406799444,-17.086315905949842,1.5013419141333961,-17.79945098818706,1.2425045653061,-18.491689503020115,1.0271468793470246,-19.162281584210533,0.8572321998629047,-19.810557742174645,0.7343555723741679,-20.43593576569662,0.6596961777108996,-21.03792779794163,0.6339675102911064,-21.61614758813257,0.6573652562234082,-22.17211207664775,0.47481480922267405,-22.71326396792105,0.3115154871561252,-23.239192422305294,0.16730711960105538,-23.7494949142974,0.04189512466657597,-24.243777865010493,-0.0651550547189208,-24.72165727464606,-0.15442351452029612,-25.18275935496608,-0.22664145330820595,-25.62672116176518,-0.2826967359716379,-26.053191227342744,-0.32363945743045175,-26.461830192975086,-0.35068750634791623,-26.852311441387563,-0.3652321288432452,-27.224321729226727,-0.36884349220414414,-27.577561819532445,-0.3632762485993357,-27.91174711421008,-0.3504750987911125,-28.226608286502568,-0.33258035584786505"></polyline></clipPath><filter id="fuzzy"><feTurbulence id="turbulence" baseFrequency="0.05" numOctaves="3" type="noise" result="noise"></feTurbulence><feDisplacementMap in="SourceGraphic" in2="noise" scale="2"></feDisplacementMap></filter><linearGradient id="rainbowGradient" x1="0%" y1="0%" x2="100%" y2="0%"><stop offset="0%" style="stop-color: rgb(233, 236, 239);  stop-opacity: 1"></stop><stop offset="50%" style="stop-color: rgb(165, 42, 42);  stop-opacity: 1"></stop><stop offset="100%" style="stop-color: rgb(192, 192, 192);  stop-opacity: 1"></stop></linearGradient></defs><title>That&#39;s an ugly face</title><desc>CREATED BY XUAN TANG, MORE INFO AT TXSTC55.GITHUB.IO</desc><rect x="-100" y="-100" width="100%" height="100%" opacity="1" fill="rgb(85, 107, 47)"></rect><polyline id="faceContour" points="67,0,67,1,67,1,67,3,67,5,66,6,66,9,66,9,66,12,66,11,66,13,65,15,65,17,65,19,64,21,65,20,64,20,64,23,63,24,63,28,63,27,62,30,62,29,61,33,61,33,60,35,60,36,60,36,59,38,58,40,58,40,58,41,57,44,58,42,57,44,56,45,55,48,54,49,54,50,53,51,52,52,52,53,51,55,50,56,51,55,50,56,48,59,48,59,48,60,47,60,46,61,46,62,44,64,44,64,43,66,42,67,41,68,41,67,40,69,39,70,38,70,38,71,35,73,36,72,34,74,33,74,34,74,32,76,31,76,31,76,28,78,29,78,26,79,26,79,26,79,25,80,23,81,24,80,21,81,21,81,19,82,19,82,17,83,16,83,15,83,15,83,14,84,14,83,11,84,11,84,11,84,10,84,7,84,6,85,5,84,6,85,6,84,4,85,1,85,2,85,-2,85,-1,84,-3,84,-3,84,-3,84,-4,84,-5,84,-7,84,-8,83,-8,83,-10,83,-12,82,-13,82,-15,81,-15,81,-14,82,-16,81,-18,80,-18,81,-20,79,-20,79,-22,78,-22,78,-23,77,-22,78,-24,77,-25,77,-27,75,-27,75,-27,75,-29,73,-30,73,-32,72,-32,71,-32,71,-34,70,-34,70,-35,69,-36,68,-37,67,-37,68,-37,67,-39,66,-41,63,-41,63,-41,63,-43,61,-44,60,-45,58,-45,58,-45,59,-47,56,-47,56,-47,56,-49,54,-50,52,-50,52,-51,51,-50,52,-52,49,-53,47,-53,46,-54,45,-54,44,-55,44,-56,42,-56,42,-56,42,-58,38,-57,39,-57,39,-59,35,-60,34,-60,33,-61,31,-61,31,-62,29,-61,30,-62,29,-62,27,-62,26,-63,23,-63,23,-64,20,-64,21,-65,18,-65,17,-65,18,-65,16,-66,12,-65,14,-66,11,-66,10,-66,9,-66,6,-66,6,-67,6,-67,3,-67,3,-67,1,-67,-1,-67,-1,-67,-2,-67,-4,-67,-5,-67,-7,-67,-6,-67,-9,-67,-10,-67,-11,-67,-12,-67,-13,-66,-15,-66,-17,-66,-18,-66,-19,-66,-19,-65,-23,-65,-23,-65,-24,-65,-25,-64,-27,-64,-29,-64,-29,-64,-31,-63,-30,-62,-34,-62,-34,-62,-35,-62,-35,-61,-38,-61,-38,-60,-40,-60,-41,-59,-42,-59,-42,-59,-42,-58,-45,-58,-44,-57,-47,-57,-47,-56,-49,-54,-51,-56,-49,-54,-52,-54,-52,-52,-54,-52,-54,-51,-57,-50,-58,-50,-58,-50,-58,-48,-59,-47,-61,-46,-62,-46,-62,-45,-63,-44,-64,-43,-65,-43,-65,-40,-67,-41,-68,-40,-68,-38,-69,-38,-69,-37,-71,-36,-71,-35,-72,-34,-73,-34,-73,-31,-74,-30,-75,-32,-74,-28,-76,-29,-76,-26,-77,-25,-78,-27,-77,-25,-78,-24,-78,-22,-79,-20,-80,-20,-80,-19,-80,-17,-81,-18,-81,-16,-81,-14,-82,-13,-83,-12,-83,-10,-83,-11,-83,-10,-83,-6,-83,-7,-83,-6,-84,-3,-84,-3,-84,-2,-84,-2,-84,1,-85,2,-85,3,-85,5,-84,3,-84,5,-85,5,-85,7,-84,9,-84,8,-84,13,-84,13,-84,13,-84,15,-83,17,-83,16,-83,18,-83,19,-83,19,-83,21,-82,24,-81,22,-82,24,-81,26,-80,26,-80,27,-80,28,-79,29,-79,31,-78,32,-78,32,-77,34,-76,35,-76,35,-75,35,-75,36,-74,37,-74,40,-72,40,-72,41,-71,41,-71,42,-70,43,-69,44,-68,44,-68,46,-67,45,-67,47,-65,48,-64,49,-63,50,-62,52,-59,51,-60,52,-59,52,-59,53,-58,54,-55,55,-54,55,-55,56,-53,56,-52,57,-50,57,-51,59,-47,58,-47,59,-46,60,-44,60,-44,60,-43,61,-41,61,-41,63,-37,62,-37,63,-36,63,-35,64,-33,63,-33,63,-34,64,-29,65,-29,65,-27,65,-27,66,-23,66,-22,66,-23,66,-20,66,-19,67,-18,67,-15,66,-16,67,-14,67,-12,67,-10,67,-9,67,-8,67,-5,67,-5,67,-7,67,-1,67,-2,67,0,67,1" fill="#ffc9a9" stroke="black" stroke-width="1.6666666666666665" stroke-linejoin="round" filter="url(#fuzzy)"></polyline><g transform="translate(30.512452076826687 -26.17149636222467)"><polyline id="rightCountour" points="-28.767851016072388,-4.8523738876996045,-28.478738099101626,-5.237437974308293,-28.164606631792743,-5.627859067200504,-27.825199230960884,-6.020714049469021,-27.46033755886588,-6.413263748351092,-27.0699197559454,-6.802948463898208,-26.65391787354813,-7.187383497645921,-26.212375306666992,-7.564354681283634,-25.745404226672264,-7.931813905324388,-25.253183014044808,-8.28787464777469,-24.735953691109223,-8.630807502804288,-24.194019354767036,-8.959035709415978,-23.62774160922988,-9.271130680115412,-23.037537998752654,-9.56580752958089,-22.423879440366733,-9.84192060333315,-21.787287656613135,-10.09845900640519,-21.192491471818542,-10.622417092837393,-20.555251239620326,-11.102438389323115,-19.87627286691488,-11.53676975225656,-19.156545165480956,-11.924116745472503,-18.39731333606752,-12.263609666426355,-17.600053486690612,-12.554770829117114,-16.76644816700712,-12.79748308127309,-15.898362900633138,-12.991959533320752,-14.997823697274647,-13.138714476656848,-14.066995526538395,-13.238535468743933,-13.108161735290611,-13.292456562549518,-12.12370439043143,-13.30173265784908,-11.116085528952711,-13.267814951912946,-10.087829297147076,-13.192327467097485,-9.041504960835855,-13.077044632860495,-7.979710768483813,-12.923869899721264,-6.905058649068308,-12.734815362685218,-5.820159726570739,-12.511982371653552,-4.727610632957981,-12.257543106337874,-3.6299806015216127,-11.97372309320016,-2.5297993224426882,-11.662784641938075,-1.4295455424498005,-11.327011179035996,-0.3316363904382431,-10.968692455901753,0.7615825890820123,-10.590110609109413,1.8478467128417224,-10.193527050268203,2.924980764103413,-9.781170163037768,3.9909069445203,-9.35522378480998,5.043652190695293,-8.917816450577417,6.081354873572368,-8.471011376508802,7.102270898792466,-8.016797160751413,8.104779226146269,-7.557079178980828,9.087386826255946,-7.093671652218074,10.048733092618239,-6.628290364434388,10.987593727141025,-6.162546007463787,11.90288411730566,-5.697938130743593,12.793662223087283,-5.235849673403152,13.659130991765348,-4.77754205622087,14.498640318756618,-4.324150810969785,15.311688572602863,-3.8766817246718333,16.097923702245442,-3.436007476281019,16.857143944719095,-3.002864743315631,17.589298151397124,-2.5778517559597187,18.294485750920163,-2.1614262761540113,18.972956366940874,-1.7539039791964326,19.625109108816726,-1.3554572153724118,20.251491553383076,-0.9661141291351871,20.852798435938894,-0.5857581133562428,21.42987006857727,-0.21412757616610012,21.98369050399288,0.149184002094362,22.515385462898912,0.5047277442919187,23.02553315491489,0.8525909008570314,23.514074606257132,1.192474611888684,23.981308066899814,1.5244844105049244,24.42756105384602,1.8487573443026646,24.85318792270335,2.165458964667702,25.258567439259558,2.4747803160847566,25.644100351058192,2.776934925447497,26.01020695897423,3.0721557913685817,26.357324688789667,3.360692373489673,26.685905662769198,3.6428075817914807,26.996414271235803,3.9187747659037893,27.289324744146423,4.188874704415486,27.565118722667542,4.4533925941846,27.824282830750853,4.7126150396483215,25.662837361314587,12.114607619075302,25.21332368297003,12.380321281326456,24.750665769581204,12.640478758787259,24.274759589102416,12.89414810168176,23.78551984109847,13.14035915695892,23.282880139332057,13.378109602819466,22.766793194351187,13.60637098324271,22.23723099607652,13.824094742513424,21.694184996388838,14.030218259748638,21.13766629171637,14.223670883424527,20.567705805622225,14.403379965903206,19.984354471391786,14.568276897959612,19.38768341462009,14.71730314330831,18.77778413579922,14.849416273130355,18.154768692905733,14.96359600060013,17.51737925822229,15.062735475289392,16.864189204913814,15.148605488636813,16.19512642147982,15.218655558076756,15.510189650934118,15.270518295739409,14.80944779430037,15.302016187230192,14.0930390984303,15.311168052776924,13.361170226781022,15.296195145686841,12.614115211788288,15.255526843055664,11.85221428747234,15.187805883670991,11.075872600912932,15.091893108052162,10.285558801230357,14.966871655568765,9.48180350470905,14.812050573580088,8.66519763470049,14.626967793537567,7.836390634942064,14.411392428992578,6.996088554928611,14.165326350451702,6.145052005973266,13.889004992021617,5.284093986594347,13.582897344785929,4.414077575864921,13.24770509185601,3.535913493361768,12.884360840038205,2.650557524350355,12.494025403059423,1.7590078088426224,12.078084091293459,0.8623019931641097,11.638141962930156,-0.03848575733275439,11.176017991529697,-0.9422478857726235,10.693738104904094,-1.8478467128417224,10.193527050268202,-2.754117848816204,9.677799040602412,-3.659873749897667,9.149147137169177,-4.563907420219202,8.610331323125639,-5.4649962608852185,8.06426522317453,-6.361906067408426,7.514001424195522,-7.2533951769072615,6.9627153517992735,-8.138218766427098,6.4136876577463315,-9.015133303748534,5.870285073173106,-9.882901152046115,5.335939682567119,-10.740295329760745,4.814126573433716,-11.586104427049207,4.308339816596459,-12.419137680173996,3.822066732073367,-13.238230205196883,3.3587603954712497,-14.04224839233944,2.921810339840296,-14.830095462373965,2.514511407931119,-15.600717186407962,2.140030709796496,-16.35310777042568,1.8013726406799444,-17.086315905949842,1.5013419141333961,-17.79945098818706,1.2425045653061,-18.491689503020115,1.0271468793470246,-19.162281584210533,0.8572321998629047,-19.810557742174645,0.7343555723741679,-20.43593576569662,0.6596961777108996,-21.03792779794163,0.6339675102911064,-21.61614758813257,0.6573652562234082,-22.17211207664775,0.47481480922267405,-22.71326396792105,0.3115154871561252,-23.239192422305294,0.16730711960105538,-23.7494949142974,0.04189512466657597,-24.243777865010493,-0.0651550547189208,-24.72165727464606,-0.15442351452029612,-25.18275935496608,-0.22664145330820595,-25.62672116176518,-0.2826967359716379,-26.053191227342744,-0.32363945743045175,-26.461830192975086,-0.35068750634791623,-26.852311441387563,-0.3652321288432452,-27.224321729226727,-0.36884349220414414,-27.577561819532445,-0.3632762485993357,-27.91174711421008,-0.3504750987911125,-28.226608286502568,-0.33258035584786505" fill="white" stroke="white" stroke-width="0" stroke-linejoin="round" filter="url(#fuzzy)"></polyline></g><g transform="translate(-32.73124270613615 -28.393768123619065)"><polyline id="leftCountour" points="30.500358486295916,-3.4100123577493897,30.16156923955726,-3.712433179602987,29.797418371989444,-4.019155312815176,29.40831230717808,-4.327924411558099,28.994687778223803,-4.636626839274536,28.557010539192575,-4.943286263572022,28.095774076566002,-5.246060251116944,27.611498320691695,-5.543236862528678,27.10472835723359,-5.833231247273687,26.576033138622265,-6.114582238559635,26.026004195505266,-6.385948948229512,25.455254348197435,-6.646107361655735,24.864416418131277,-6.893946932634277,24.254141939307228,-7.128467178278765,23.625099869744005,-7.3487742739146125,22.977975302928964,-7.554077647973111,22.311656331954886,-7.965474705274801,21.614649984566157,-8.343308462097657,20.887883365473655,-8.68619589508364,20.13244232993076,-8.993102146491442,19.34955585790649,-9.263314681499217,18.540581011467907,-9.496418414627165,17.706988465837536,-9.692271787689588,16.850348604591495,-9.850983781686237,15.972318169464033,-9.9728918450426,15.074627455224215,-10.05854072060886,14.159068040090453,-10.10866215382721,13.227481042148629,-10.124155464477308,12.281745892239462,-10.106068964409486,11.323769613780913,-10.055582203675526,10.355476599991265,-9.973989027466644,9.378798878978658,-9.862681426268406,8.395666857162732,-9.723134161642328,7.408000531494174,-9.55689015004383,6.417701160937785,-9.365546587086277,5.426643387684857,-9.150741794660824,4.4366677985605545,-8.914142773321746,3.4495739170919872,-8.657433442347024,2.467113616702731,-8.382303549883826,1.4909849454994855,-8.090438235588662,0.5228263531165771,-7.783508228171899,-0.4357886899159378,-7.463160660256323,-1.3833566898149123,-7.131010482959518,-2.3184487537317335,-6.788632462609703,-3.239714850019237,-6.4375537420048445,-4.14588771411217,-6.0792469486246095,-5.035786409555554,-5.715123832205014,-5.9083195537151365,-5.346529414085412,-6.762488217704309,-4.974736630737512,-7.597388510061704,-4.600941453886209,-8.412213853713832,-4.226258469631896,-9.206256965756939,-3.8517168989839283,-9.978911549592492,-3.478257042215073,-10.729673708950484,-3.1067271294465297,-11.458143093334886,-2.7378805598733247,-12.164023784425524,-2.372373512039713,-12.847124932970653,-2.0107629075743936,-13.507361155704553,-1.653504710795151,-14.144752701824371,-1.300952546592741,-14.75942539856056,-0.9533566190036251,-15.351610385375151,-0.6108629128813567,-15.921643646322151,-0.2735126610762628,-16.469965350104403,0.05875794046679017,-16.997119007361107,0.3861177872829291,-17.503750454720354,0.7088407082243049,-17.99060667515095,1.0273051121499566,-18.45844518046511,1.3417053009104798,-18.9075685091184,1.6519771769924154,-19.338134107162496,1.9582075846045834,-19.750322197672467,2.2605053518310507,-20.144334503833527,2.558998934789093,-20.520392972027803,2.8538340617871514,-20.878738494921134,3.1451713774827863,-21.21962963454983,3.4331840870406483,-21.54334134540745,3.718055600290419,-21.85016369753157,3.999977175884777,-22.140400599590574,4.279145565457358,-22.414368521970427,4.55576065778071,-22.672395219861407,4.830023122924249,-22.914818456344946,5.102132056412222,-23.695868699142295,9.183527476654213,-23.369274420442977,9.375150261155998,-23.03074017771265,9.562671009776887,-22.680077056702935,9.745421493689499,-22.31710596699364,9.922706372845738,-21.941658031269135,10.093807522634954,-21.553574974594746,10.257988360542097,-21.15270951369311,10.414498172805875,-20.738925746220627,10.562576441076912,-20.312099540043782,10.701457169075903,-19.87211892251556,10.830373209251771,-19.418884469751845,10.948560589439834,-18.9523096959078,11.055262839519946,-18.472321442454223,11.149735318074654,-17.978860267453992,11.23124953904738,-17.471108560839816,11.301881350883164,-16.9479950334557,11.362900854990466,-16.40913255499809,11.412481710101583,-15.854190956688123,11.44892963841421,-15.282897648136172,11.470687248926577,-14.69503814817926,11.476338631542486,-14.090456526784633,11.464613689640556,-13.469055755112857,11.434392178801954,-12.830797960833964,11.384707419390875,-12.175704585789918,11.314749650682119,-11.503856443096907,11.223868994229953,-10.8153936707808,11.111577994172658,-10.110515579039218,10.97755370216694,-9.389480388223562,10.82163927464657,-8.652604854634482,10.643845050099497,-7.9002637812241066,10.44434907405773,-7.132889410298498,10.22349703949429,-6.350970695313704,9.98180161032147,-5.555052448858833,9.719941095684765,-4.745734363919496,9.438757442746676,-3.923669905515139,9.13925351565475,-3.089565069803512,8.822589628388066,-2.244177007745821,8.490079299176527,-1.3883125104258505,8.143184194187182,-0.5228263531165771,7.783508228171899,0.35138050481245964,7.412790789770673,1.2333628670535002,7.032899059164835,2.1221333974912997,6.645819385774464,3.0166648702128147,6.253647693694294,3.915892575302443,5.858578882562372,4.818716883329444,5.4628951915557895,5.724005971434075,5.068953494207749,6.630598713919111,4.679171491740262,7.5373077402532935,4.296012772606753,8.44292266339332,3.921970705938873,9.346213481330997,3.5595511365917867,10.2459341547721,3.211253849482241,11.140826363853593,2.8795527709136923,12.029623446805763,2.5668748745827616,12.911054523465904,2.275577759961328,13.783848806550095,2.0079258707485375,14.64674010358975,1.7660653210870052,15.498471512439428,1.5519972972375142,16.337800313262616,1.3675500024064693,17.163503059901974,1.21434911242042,17.97438087354074,1.0937867099419232,18.769264941561822,1.006988664921038,19.547022224511185,0.9547804289767226,20.306561374072142,0.9376512114024451,21.046838864957166,0.9557165044902756,21.715367066456274,0.8245499290631666,22.37122787848083,0.7070414848677946,23.013666102706317,0.6030559161760127,23.641914678458576,0.5123604663172867,24.255194883066192,0.43462086147133805,24.852716532212817,0.3693972944607755,25.43367818028958,0.31614040854374315,25.997267320747426,0.27418728120656066,26.542660586449486,0.24275740795635725,27.06902395002345,0.22094868611371998,27.57551292421391,0.20773339860532714,28.061272762234754,0.2019541977565953,28.525438658121494,0.20232008908431354,28.967135947083648,0.20740241508928703,29.38548030585713,0.21563083904897828" fill="white" stroke="white" stroke-width="0" stroke-linejoin="round" filter="url(#fuzzy)"></polyline></g><g transform="translate(30.512452076826687 -26.17149636222467)"><polyline id="rightUpper" points="-30.401241378964567,-2.0799257531378386,-30.328932296604,-2.2069836341417357,-30.239090793911238,-2.379730311090289,-30.130527833579606,-2.5931573024707273,-30.002159096415244,-2.842484784216735,-29.853002414070428,-3.1231571183782654,-29.682175201776623,-3.4308383817913173,-29.488891891077728,-3.761407894747755,-29.272461362563217,-4.110955749665088,-29.032284378601364,-4.475778339756296,-28.767851016072388,-4.8523738876996045,-28.478738099101626,-5.237437974308293,-28.164606631792743,-5.627859067200504,-27.825199230960884,-6.020714049469021,-27.46033755886588,-6.413263748351092,-27.0699197559454,-6.802948463898208,-26.65391787354813,-7.187383497645921,-26.212375306666992,-7.564354681283634,-25.745404226672264,-7.931813905324388,-25.253183014044808,-8.28787464777469,-24.735953691109223,-8.630807502804288,-24.194019354767036,-8.959035709415978,-23.62774160922988,-9.271130680115412,-23.037537998752654,-9.56580752958089,-22.423879440366733,-9.84192060333315,-21.787287656613135,-10.09845900640519,-21.192491471818542,-10.622417092837393,-20.555251239620326,-11.102438389323115,-19.87627286691488,-11.53676975225656,-19.156545165480956,-11.924116745472503,-18.39731333606752,-12.263609666426355,-17.600053486690612,-12.554770829117114,-16.76644816700712,-12.79748308127309,-15.898362900633138,-12.991959533320752,-14.997823697274647,-13.138714476656848,-14.066995526538395,-13.238535468743933,-13.108161735290611,-13.292456562549518,-12.12370439043143,-13.30173265784908,-11.116085528952711,-13.267814951912946,-10.087829297147076,-13.192327467097485,-9.041504960835855,-13.077044632860495,-7.979710768483813,-12.923869899721264,-6.905058649068308,-12.734815362685218,-5.820159726570739,-12.511982371653552,-4.727610632957981,-12.257543106337874,-3.6299806015216127,-11.97372309320016,-2.5297993224426882,-11.662784641938075,-1.4295455424498005,-11.327011179035996,-0.3316363904382431,-10.968692455901753,0.7615825890820123,-10.590110609109413,1.8478467128417224,-10.193527050268203,2.924980764103413,-9.781170163037768,3.9909069445203,-9.35522378480998,5.043652190695293,-8.917816450577417,6.081354873572368,-8.471011376508802,7.102270898792466,-8.016797160751413,8.104779226146269,-7.557079178980828,9.087386826255946,-7.093671652218074,10.048733092618239,-6.628290364434388,10.987593727141025,-6.162546007463787,11.90288411730566,-5.697938130743593,12.793662223087283,-5.235849673403152,13.659130991765348,-4.77754205622087,14.498640318756618,-4.324150810969785,15.311688572602863,-3.8766817246718333,16.097923702245442,-3.436007476281019,16.857143944719095,-3.002864743315631,17.589298151397124,-2.5778517559597187,18.294485750920163,-2.1614262761540113,18.972956366940874,-1.7539039791964326,19.625109108816726,-1.3554572153724118,20.251491553383076,-0.9661141291351871,20.852798435938894,-0.5857581133562428,21.42987006857727,-0.21412757616610012,21.98369050399288,0.149184002094362,22.515385462898912,0.5047277442919187,23.02553315491489,0.8525909008570314,23.514074606257132,1.192474611888684,23.981308066899814,1.5244844105049244,24.42756105384602,1.8487573443026646,24.85318792270335,2.165458964667702,25.258567439259558,2.4747803160847566,25.644100351058192,2.776934925447497,26.01020695897423,3.0721557913685817,26.357324688789667,3.360692373489673,26.685905662769198,3.6428075817914807,26.996414271235803,3.9187747659037893,27.289324744146423,4.188874704415486,27.565118722667542,4.4533925941846,27.824282830750853,4.7126150396483215,28.067306246708853,4.9668270421330405,28.29467827479053,5.216308989164378,28.506885916756907,5.461333643777211,28.70441144345676,5.702163133825707,28.88772996640219,5.9390459412933545,29.05730700934427,6.1722138916030005,29.2135960798487,6.401879142926865,29.357036240871363,6.6282311754965875,29.488049682334047,6.851433780913248,29.607039292700016,7.071622051457405" fill="none" stroke="black" stroke-width="1.6666666666666665" stroke-linejoin="round" filter="url(#fuzzy)"></polyline><polyline id="rightLower" points="-30.265326607305383,-0.4953555303994355,-30.15470771864909,-0.3994562241241537,-30.023050507476107,-0.3318491489917834,-29.87043680119978,-0.28813186468330976,-29.69697002329243,-0.26415318031120183,-29.502774560813275,-0.2560075907068686,-29.287995131936224,-0.2600297127081408,-29.052796153477754,-0.27278872144670707,-28.79736110842481,-0.2910827866355925,-28.52189191346261,-0.3119335088566215,-28.226608286502568,-0.33258035584786505,-27.91174711421008,-0.3504750987911125,-27.577561819532445,-0.3632762485993357,-27.224321729226727,-0.36884349220414414,-26.852311441387563,-0.3652321288432452,-26.461830192975086,-0.35068750634791623,-26.053191227342744,-0.32363945743045175,-25.62672116176518,-0.2826967359716379,-25.18275935496608,-0.22664145330820595,-24.72165727464606,-0.15442351452029612,-24.243777865010493,-0.0651550547189208,-23.7494949142974,0.04189512466657597,-23.239192422305294,0.16730711960105538,-22.71326396792105,0.3115154871561252,-22.17211207664775,0.47481480922267405,-21.61614758813257,0.6573652562234082,-21.03792779794163,0.6339675102911064,-20.43593576569662,0.6596961777108996,-19.810557742174645,0.7343555723741679,-19.162281584210533,0.8572321998629047,-18.491689503020115,1.0271468793470246,-17.79945098818706,1.2425045653061,-17.086315905949842,1.5013419141333961,-16.35310777042568,1.8013726406799444,-15.600717186407962,2.140030709796496,-14.830095462373965,2.514511407931119,-14.04224839233944,2.921810339840296,-13.238230205196883,3.3587603954712497,-12.419137680173996,3.822066732073367,-11.586104427049207,4.308339816596459,-10.740295329760745,4.814126573433716,-9.882901152046115,5.335939682567119,-9.015133303748534,5.870285073173106,-8.138218766427098,6.4136876577463315,-7.2533951769072615,6.9627153517992735,-6.361906067408426,7.514001424195522,-5.4649962608852185,8.06426522317453,-4.563907420219202,8.610331323125639,-3.659873749897667,9.149147137169177,-2.754117848816204,9.677799040602412,-1.8478467128417224,10.193527050268202,-0.9422478857726235,10.693738104904094,-0.03848575733275439,11.176017991529697,0.8623019931641097,11.638141962930156,1.7590078088426224,12.078084091293459,2.650557524350355,12.494025403059423,3.535913493361768,12.884360840038205,4.414077575864921,13.24770509185601,5.284093986594347,13.582897344785929,6.145052005973266,13.889004992021617,6.996088554928611,14.165326350451702,7.836390634942064,14.411392428992578,8.66519763470049,14.626967793537567,9.48180350470905,14.812050573580088,10.285558801230357,14.966871655568765,11.075872600912932,15.091893108052162,11.85221428747234,15.187805883670991,12.614115211788288,15.255526843055664,13.361170226781022,15.296195145686841,14.0930390984303,15.311168052776924,14.80944779430037,15.302016187230192,15.510189650934118,15.270518295739409,16.19512642147982,15.218655558076756,16.864189204913814,15.148605488636813,17.51737925822229,15.062735475289392,18.154768692905733,14.96359600060013,18.77778413579922,14.849416273130355,19.38768341462009,14.71730314330831,19.984354471391786,14.568276897959612,20.567705805622225,14.403379965903206,21.13766629171637,14.223670883424527,21.694184996388838,14.030218259748638,22.23723099607652,13.824094742513424,22.766793194351187,13.60637098324271,23.282880139332057,13.378109602819466,23.78551984109847,13.14035915695892,24.274759589102416,12.89414810168176,24.750665769581204,12.640478758787259,25.21332368297003,12.380321281326456,25.662837361314587,12.114607619075302,26.099329385683685,11.844225484007834,26.52294070358185,11.570012315769318,26.933830446361902,11.29274924714942,27.332175746637628,11.013155069555362,27.7181715556963,10.731880198485076,28.092030460911356,10.449500639000368,28.45398250315496,10.166511951200086,28.804274994210616,9.883323215693256,29.14317233418578,9.600250999072276,29.470955828924478,9.317513319386034" fill="none" stroke="black" stroke-width="2.2222222222222223" stroke-linejoin="round" filter="url(#fuzzy)"></polyline><!--[--><circle r="4.275788128293888" cx="-17.069901585989438" cy="-2.16930689464727" stroke="black" fill="none" stroke-width="1" filter="url(#fuzzy)" clip-path="url(#rightEyeClipPath)"></circle><circle r="3.5660276270193823" cx="-15.37778019272524" cy="-3.757349804948169" stroke="black" fill="none" stroke-width="1" filter="url(#fuzzy)" clip-path="url(#rightEyeClipPath)"></circle><circle r="3.2554679842517857" cx="-15.985087671772664" cy="-3.0515779980377133" stroke="black" fill="none" stroke-width="1" filter="url(#fuzzy)" clip-path="url(#rightEyeClipPath)"></circle><circle r="4.198035763909876" cx="-16.074593061513102" cy="-0.47429801346259604" stroke="black" fill="none" stroke-width="1" filter="url(#fuzzy)" clip-path="url(#rightEyeClipPath)"></circle><circle r="3.9137814384696465" cx="-19.083761463462825" cy="-4.879083226597125" stroke="black" fill="none" stroke-width="1" filter="url(#fuzzy)" clip-path="url(#rightEyeClipPath)"></circle><circle r="4.241330155081281" cx="-19.959190323134997" cy="-4.227206106122401" stroke="black" fill="none" stroke-width="1" filter="url(#fuzzy)" clip-path="url(#rightEyeClipPath)"></circle><circle r="3.7730160815874827" cx="-18.538151923062475" cy="-5.342317731035704" stroke="black" fill="none" stroke-width="1" filter="url(#fuzzy)" clip-path="url(#rightEyeClipPath)"></circle><circle r="4.089701267244174" cx="-20.006056582961666" cy="-4.829943982961671" stroke="black" fill="none" stroke-width="1" filter="url(#fuzzy)" clip-path="url(#rightEyeClipPath)"></circle><circle r="3.2759574295256306" cx="-18.027932828808208" cy="-1.7534215338756742" stroke="black" fill="none" stroke-width="1" filter="url(#fuzzy)" clip-path="url(#rightEyeClipPath)"></circle><circle r="3.7587884256188993" cx="-19.324384276172893" cy="-4.381575506128785" stroke="black" fill="none" stroke-width="1" filter="url(#fuzzy)" clip-path="url(#rightEyeClipPath)"></circle><!--]--></g><g transform="translate(-32.73124270613615 -28.393768123619065)"><polyline id="leftUpper" points="32.42819959891697,-1.2257564965513486,32.35779045136166,-1.3277844940389474,32.25990595137428,-1.4651453943435038,32.13457855715841,-1.6339904781070866,31.981883921929366,-1.8306457863012615,31.80193960536449,-2.0516087151212035,31.594903785053557,-2.2935446108798057,31.360973967949015,-2.5532833649018003,31.100385701816364,-2.827816008417867,30.813411286684474,-3.1142913074587564,30.500358486295916,-3.4100123577493897,30.16156923955726,-3.712433179602987,29.797418371989444,-4.019155312815176,29.40831230717808,-4.327924411558099,28.994687778223803,-4.636626839274536,28.557010539192575,-4.943286263572022,28.095774076566002,-5.246060251116944,27.611498320691695,-5.543236862528678,27.10472835723359,-5.833231247273687,26.576033138622265,-6.114582238559635,26.026004195505266,-6.385948948229512,25.455254348197435,-6.646107361655735,24.864416418131277,-6.893946932634277,24.254141939307228,-7.128467178278765,23.625099869744005,-7.3487742739146125,22.977975302928964,-7.554077647973111,22.311656331954886,-7.965474705274801,21.614649984566157,-8.343308462097657,20.887883365473655,-8.68619589508364,20.13244232993076,-8.993102146491442,19.34955585790649,-9.263314681499217,18.540581011467907,-9.496418414627165,17.706988465837536,-9.692271787689588,16.850348604591495,-9.850983781686237,15.972318169464033,-9.9728918450426,15.074627455224215,-10.05854072060886,14.159068040090453,-10.10866215382721,13.227481042148629,-10.124155464477308,12.281745892239462,-10.106068964409486,11.323769613780913,-10.055582203675526,10.355476599991265,-9.973989027466644,9.378798878978658,-9.862681426268406,8.395666857162732,-9.723134161642328,7.408000531494174,-9.55689015004383,6.417701160937785,-9.365546587086277,5.426643387684857,-9.150741794660824,4.4366677985605545,-8.914142773321746,3.4495739170919872,-8.657433442347024,2.467113616702731,-8.382303549883826,1.4909849454994855,-8.090438235588662,0.5228263531165771,-7.783508228171899,-0.4357886899159378,-7.463160660256323,-1.3833566898149123,-7.131010482959518,-2.3184487537317335,-6.788632462609703,-3.239714850019237,-6.4375537420048445,-4.14588771411217,-6.0792469486246095,-5.035786409555554,-5.715123832205014,-5.9083195537151365,-5.346529414085412,-6.762488217704309,-4.974736630737512,-7.597388510061704,-4.600941453886209,-8.412213853713832,-4.226258469631896,-9.206256965756939,-3.8517168989839283,-9.978911549592492,-3.478257042215073,-10.729673708950484,-3.1067271294465297,-11.458143093334886,-2.7378805598733247,-12.164023784425524,-2.372373512039713,-12.847124932970653,-2.0107629075743936,-13.507361155704553,-1.653504710795151,-14.144752701824371,-1.300952546592741,-14.75942539856056,-0.9533566190036251,-15.351610385375151,-0.6108629128813567,-15.921643646322151,-0.2735126610762628,-16.469965350104403,0.05875794046679017,-16.997119007361107,0.3861177872829291,-17.503750454720354,0.7088407082243049,-17.99060667515095,1.0273051121499566,-18.45844518046511,1.3417053009104798,-18.9075685091184,1.6519771769924154,-19.338134107162496,1.9582075846045834,-19.750322197672467,2.2605053518310507,-20.144334503833527,2.558998934789093,-20.520392972027803,2.8538340617871514,-20.878738494921134,3.1451713774827863,-21.21962963454983,3.4331840870406483,-21.54334134540745,3.718055600290419,-21.85016369753157,3.999977175884777,-22.140400599590574,4.279145565457358,-22.414368521970427,4.55576065778071,-22.672395219861407,4.830023122924249,-22.914818456344946,5.102132056412222,-23.141984725480363,5.372282623381656,-23.35424797539165,5.64066370274033,-23.551968331354242,5.90745553132472,-23.735510818881792,6.17282734805796,-23.905244086812964,6.436935038107801,-24.061539130398167,6.6999187770445765,-24.204768014386385,6.961900674999144,-24.33530259611188,7.2229824208208555,-24.453513248581054,7.483242926235512,-24.559767583559147,7.74273597000332" fill="none" stroke="black" stroke-width="2.2222222222222223" stroke-linejoin="round" filter="url(#fuzzy)"></polyline><polyline id="leftLower" points="32.08345691190113,0.016135295371950686,31.949261246797864,0.09685542900251676,31.78238228033546,0.1563423704593765,31.583789901134285,0.19780414010328862,31.35444634286469,0.22426691699807044,31.095305983894708,0.23857905511795963,30.80731514693764,0.2434150995549711,30.491411898699706,0.24127980272626148,30.14852584952769,0.2345121405814834,29.779577953056563,0.2252893288101463,29.38548030585713,0.21563083904897828,28.967135947083648,0.20740241508928703,28.525438658121494,0.20232008908431354,28.061272762234754,0.2019541977565953,27.57551292421391,0.20773339860532714,27.06902395002345,0.22094868611371998,26.542660586449486,0.24275740795635725,25.997267320747426,0.27418728120656066,25.43367818028958,0.31614040854374315,24.852716532212817,0.3693972944607755,24.255194883066192,0.43462086147133805,23.641914678458576,0.5123604663172867,23.013666102706317,0.6030559161760127,22.37122787848083,0.7070414848677946,21.715367066456274,0.8245499290631666,21.046838864957166,0.9557165044902756,20.306561374072142,0.9376512114024451,19.547022224511185,0.9547804289767226,18.769264941561822,1.006988664921038,17.97438087354074,1.0937867099419232,17.163503059901974,1.21434911242042,16.337800313262616,1.3675500024064693,15.498471512439428,1.5519972972375142,14.64674010358975,1.7660653210870052,13.783848806550095,2.0079258707485375,12.911054523465904,2.275577759961328,12.029623446805763,2.5668748745827616,11.140826363853593,2.8795527709136923,10.2459341547721,3.211253849482241,9.346213481330997,3.5595511365917867,8.44292266339332,3.921970705938873,7.5373077402532935,4.296012772606753,6.630598713919111,4.679171491740262,5.724005971434075,5.068953494207749,4.818716883329444,5.4628951915557895,3.915892575302443,5.858578882562372,3.0166648702128147,6.253647693694294,2.1221333974912997,6.645819385774464,1.2333628670535002,7.032899059164835,0.35138050481245964,7.412790789770673,-0.5228263531165771,7.783508228171899,-1.3883125104258505,8.143184194187182,-2.244177007745821,8.490079299176527,-3.089565069803512,8.822589628388066,-3.923669905515139,9.13925351565475,-4.745734363919496,9.438757442746676,-5.555052448858833,9.719941095684765,-6.350970695313704,9.98180161032147,-7.132889410298498,10.22349703949429,-7.9002637812241066,10.44434907405773,-8.652604854634482,10.643845050099497,-9.389480388223562,10.82163927464657,-10.110515579039218,10.97755370216694,-10.8153936707808,11.111577994172658,-11.503856443096907,11.223868994229953,-12.175704585789918,11.314749650682119,-12.830797960833964,11.384707419390875,-13.469055755112857,11.434392178801954,-14.090456526784633,11.464613689640556,-14.69503814817926,11.476338631542486,-15.282897648136172,11.470687248926577,-15.854190956688123,11.44892963841421,-16.40913255499809,11.412481710101583,-16.9479950334557,11.362900854990466,-17.471108560839816,11.301881350883164,-17.978860267453992,11.23124953904738,-18.472321442454223,11.149735318074654,-18.9523096959078,11.055262839519946,-19.418884469751845,10.948560589439834,-19.87211892251556,10.830373209251771,-20.312099540043782,10.701457169075903,-20.738925746220627,10.562576441076912,-21.15270951369311,10.414498172805875,-21.553574974594746,10.257988360542097,-21.941658031269135,10.093807522634954,-22.31710596699364,9.922706372845738,-22.680077056702935,9.745421493689499,-23.03074017771265,9.562671009776887,-23.369274420442977,9.375150261155998,-23.695868699142295,9.183527476654213,-24.010721362610756,8.988439447220042,-24.31403980492391,8.790487199264973,-24.606040076156336,8.590231668005304,-24.886946493105228,8.388189370803998,-25.156991250014013,8.18482808051251,-25.41641402929598,7.9805624988126524,-25.665461612257886,7.775749929558412,-25.90438748982353,7.570685952117815,-26.13345147325744,7.365600094714761,-26.352919304888434,7.160651507770863" fill="none" stroke="black" stroke-width="2.2222222222222223" stroke-linejoin="round" filter="url(#fuzzy)"></polyline><!--[--><circle r="3.8970190840446133" cx="13.877422726351867" cy="-0.16222638356057972" stroke="black" fill="none" stroke-width="1" filter="url(#fuzzy)" clip-path="url(#leftEyeClipPath)"></circle><circle r="4.076577232970582" cx="12.85826825256576" cy="0.6573793987934069" stroke="black" fill="none" stroke-width="1" filter="url(#fuzzy)" clip-path="url(#leftEyeClipPath)"></circle><circle r="4.87470623776777" cx="16.33500300665733" cy="1.595572191892531" stroke="black" fill="none" stroke-width="1" filter="url(#fuzzy)" clip-path="url(#leftEyeClipPath)"></circle><circle r="4.897431153205778" cx="16.982357885626712" cy="-0.7730513421736331" stroke="black" fill="none" stroke-width="1" filter="url(#fuzzy)" clip-path="url(#leftEyeClipPath)"></circle><circle r="3.6329031396407334" cx="14.403699603404942" cy="3.0835024111196105" stroke="black" fill="none" stroke-width="1" filter="url(#fuzzy)" clip-path="url(#leftEyeClipPath)"></circle><circle r="3.1347136734105128" cx="13.103843495284178" cy="0.14492870698556937" stroke="black" fill="none" stroke-width="1" filter="url(#fuzzy)" clip-path="url(#leftEyeClipPath)"></circle><circle r="3.9414297067951134" cx="17.496261067428087" cy="3.7198478142137184" stroke="black" fill="none" stroke-width="1" filter="url(#fuzzy)" clip-path="url(#leftEyeClipPath)"></circle><circle r="3.3931381864138097" cx="15.942385575961907" cy="-0.2622215019172618" stroke="black" fill="none" stroke-width="1" filter="url(#fuzzy)" clip-path="url(#leftEyeClipPath)"></circle><circle r="4.630264698140139" cx="16.332698575832765" cy="-0.27589339011671976" stroke="black" fill="none" stroke-width="1" filter="url(#fuzzy)" clip-path="url(#leftEyeClipPath)"></circle><circle r="3.55794787025961" cx="15.496958988441904" cy="-0.33493490822868077" stroke="black" fill="none" stroke-width="1" filter="url(#fuzzy)" clip-path="url(#leftEyeClipPath)"></circle><!--]--></g><g id="hairs"><!--[--><polyline points="13,-84,13.685915029620773,-83.71879588486482,14.97466770373185,-83.28845181320195,16.304218133677104,-82.9189011495775,17.605599628905562,-82.59549273048094,18.935357444771157,-82.25676996445785,20.32393135560135,-81.85810406401544,21.75110735592373,-81.39190940192074,23.16511437354974,-80.88148911478112,24.513260265765158,-80.36117059330738,25.763362667291062,-79.8598594279522,26.90244630321989,-79.39792601871605,27.918764143069694,-78.99333453515905,28.787385904594593,-78.66610249959449,29.47194873457213,-78.43546759657792,29.934366032754056,-78.31374314571784,30.13514734873059,-78.30441295165397,30.02362364143406,-78.40740828095922,29.544312273277253,-78.62776030165448,28.681660691284314,-78.9800926052678,27.49479492238528,-79.47439866261742" fill="none" stroke="rgb(80, 68, 68)" stroke-width="2" stroke-linejoin="round" filter="url(#fuzzy)"></polyline><polyline points="21,-82,22.568499646684703,-81.52699144305008,23.37295071397768,-81.24572806439676,24.29312285100718,-80.84472146711683,25.318979679354996,-80.38591421256127,26.359785153126214,-79.93181180229304,27.382250867238355,-79.49722595966102,28.374912504652016,-79.07776344206077,29.312531913828174,-78.67103588739718,30.151755375690108,-78.28229314606651,30.844227261220194,-77.92376861213663,31.34987698113288,-77.61288100429395,31.643215119838715,-77.36948040127754,31.714381409120985,-77.21188312813598,31.567905065126634,-77.15311334440736,31.21770125218481,-77.19964308466955,30.67423209890022,-77.35424627797406,29.925136985005423,-77.62248851022403,28.92236719475411,-78.01855592361346,27.59533842159783,-78.5620236087345,25.894752107274314,-79.25960240783411,23.834502390309712,-80.08314466680012,21.48667321132399,-80.97856460317172,19.00034372258494,-81.9277527914437" fill="none" stroke="rgb(80, 68, 68)" stroke-width="2" stroke-linejoin="round" filter="url(#fuzzy)"></polyline><polyline points="52,-59,52.832959955326366,-57.61473033837525,53.33126904330883,-56.30448402161373,53.4357206638469,-55.43390066400857,53.16487406148311,-54.833709274257835,52.555467566309964,-54.339751639178836,51.63208210336321,-53.897611831736036,50.397839983740866,-53.51865971003172,48.83577132670246,-53.235059606840466,46.917063900694124,-53.080819519144505,44.61155813501121,-53.08502400654796,41.89664682850237,-53.26714523885376,38.76303359866142,-53.63424900174141,35.215620590670724,-54.18216598783646,31.26652369322575,-54.900443465462786,26.920120515843887,-55.779323537525116,22.158153315088338,-56.81687697233887,16.938907193446635,-58.02414313200153,11.218184825993887,-59.425511940141895,4.979453480624596,-61.05252714821857,-1.7602400469844675,-62.932491260229526,-8.998548634489964,-65.07514596173253,-16.823849320322466,-67.46115607951576,-25.3404898802333,-70.06199134250262" fill="none" stroke="rgb(80, 68, 68)" stroke-width="2" stroke-linejoin="round" filter="url(#fuzzy)"></polyline><polyline points="2,-85,2.989245870252822,-84.76629974862168,3.59992900281269,-84.51921933779025,3.975248431683246,-84.4406955676091,4.352109577166602,-84.42112979177153,4.788241727605675,-84.35668964133663,5.226397703107784,-84.22867319734938,5.571849295462956,-84.06668941839118,5.72396197595997,-83.8953940412482,5.580877492940146,-83.71019140383342,5.047403954299634,-83.4843792858029,4.0525176498818265,-83.19209523963211,2.562115066804023,-82.82873038736912,0.5760774419069952,-82.41467810229646,-1.8870428160486803,-81.97874496269603,-4.810486239048412,-81.53381689431345,-8.198416586825886,-81.0679108218155,-12.080038951450183,-80.55592177094312,-16.531804654555117,-79.94126145575974" fill="none" stroke="rgb(80, 68, 68)" stroke-width="2" stroke-linejoin="round" filter="url(#fuzzy)"></polyline><polyline points="17,-83,17.02995701598904,-82.9392957033058,18.032375414784077,-82.73904460145661,19.378965024813176,-82.354066076414,20.923189293921347,-81.78285266782186,22.579645429408203,-81.08208506549406,24.25622003435138,-80.32097190915484,25.8932634076047,-79.54663184602595,27.47060810740495,-78.78430041115703,28.98006820678711,-78.05196189880371,30.40216018911024,-77.36849342381983,31.70024503342013,-76.7540832163836,32.821765239679934,-76.23046844845626,33.70313661933215,-75.82083052593414,34.29165914181602,-75.54221106697716,34.59187381190008,-75.3932053634118,34.708649338904515,-75.36062286960666,34.821988976506816,-75.47903881047763" fill="none" stroke="rgb(80, 68, 68)" stroke-width="2" stroke-linejoin="round" filter="url(#fuzzy)"></polyline><polyline points="59,-46,59.356040262640605,-44.85039410412055,58.864215971736094,-44.46396527989456,57.76923079930024,-44.39874540667537,56.10153818708487,-44.58881691887528,53.787553435254715,-45.106800794420586,50.72798369263781,-46.07636753826446,46.84691877683909,-47.61261620467651,42.110712733356166,-49.78043250644586,36.51179959585341,-52.591741913930136,30.033954572289023,-56.02511610582373,22.634124324479277,-60.02848039270278,14.253669002372702,-64.50567435915102,4.814437427645121,-69.36386322638043,-5.849930678535717,-74.70601360216858" fill="none" stroke="rgb(80, 68, 68)" stroke-width="2" stroke-linejoin="round" filter="url(#fuzzy)"></polyline><polyline points="61,-41,61.29690401367908,-40.162380404338236,61.4190027328155,-39.13643254916814,61.07734661403266,-38.6569664787549,60.2978597806518,-38.73170176390962,59.094324607619185,-39.28777343962048,57.46033245427157,-40.28603483934818,55.400192111988574,-41.6968418561311,52.92283491762099,-43.49770512217969,50.01345515601177,-45.69961186128134,46.6166618964519,-48.35517353619263,42.64661193029674,-51.532878453468584,38.01798560264095,-55.29110269205758,32.67955806997821,-59.6882708270127,26.625202142349245,-64.81317578915831,19.87303107852142,-70.76789816227496,12.503016493911751,-77.5617145466709" fill="none" stroke="rgb(80, 68, 68)" stroke-width="2" stroke-linejoin="round" filter="url(#fuzzy)"></polyline><polyline points="17,-83,16.79152095356374,-82.97499833483731,17.08056502092728,-82.8616100983133,17.23919952015709,-82.58894938670547,17.114030669460487,-82.13528819046068,16.609861613267576,-81.53630131288911,15.630695228064386,-80.83550428330607,14.118600096026192,-80.0498438217135,12.054892443168496,-79.17403648484016,9.430196762084961,-78.20008087158203,6.226116410133509,-77.12659704698538,2.419170964731073,-75.95469137325628,-2.0114792836025384,-74.67989578372557,-7.089356282046376,-73.2857666991516,-12.8586410377306,-71.74035392628579,-19.39729354680152,-70.00623680888006,-26.78556638959688,-68.08488638653026,-34.99916170945981,-66.07298319652288" fill="none" stroke="rgb(80, 68, 68)" stroke-width="2" stroke-linejoin="round" filter="url(#fuzzy)"></polyline><polyline points="50,-62,50.93191071153153,-60.37761165475025,50.924623549234624,-59.90858796629398,50.56717092154318,-59.70052575482056,49.97476277352544,-59.48250936764093,49.114009154874175,-59.254040606699945,47.900317062293716,-59.12642633687401,46.24806640623892,-59.20385616521895,44.09831959677991,-59.52959447422557,41.42335776959953,-60.1005292840635,38.21654922167181,-60.90701143178368,34.47809349737082,-61.955649587570164,30.200310033977594,-63.2658319519346,25.354052706261946,-64.85555868768716,19.883541126433585,-66.7312973240432,13.717394066790488,-68.88657680714695,6.794307171969741,-71.3171989472388,-0.8861318954684947,-74.06477465313395,-9.103947302627782,-77.25464703653573" fill="none" stroke="rgb(80, 68, 68)" stroke-width="2" stroke-linejoin="round" filter="url(#fuzzy)"></polyline><polyline points="60,-43,60.701301083469026,-41.57438874110854,61.20816636515206,-40.38805996736032,61.51585992474485,-39.4316435809711,61.572409008455,-38.891761781822424,61.368146704064955,-38.827690772452,60.896138936842334,-39.236080857794505,60.15162262323928,-40.10461253052634,59.149879455566406,-41.410545349121094,57.920685977594744,-43.123923186614164,56.47489016297382,-45.244422099633944,54.77546410689771,-47.837768238451126,52.746230586839374,-51.02312827069545,50.316488885889626,-54.913684932944165,47.468541754802416,-59.56807560440124,44.275551640734456,-64.983540360502" fill="none" stroke="rgb(80, 68, 68)" stroke-width="2" stroke-linejoin="round" filter="url(#fuzzy)"></polyline><polyline points="35,-75,35.27751978141835,-74.75256788032637,35.91420301283514,-74.28560259252937,36.621033771591584,-73.7561531237367,37.11473482567624,-73.26751470788935,37.22720918059417,-72.88775827750169,36.91506983919668,-72.63093513190552,36.20153174049212,-72.47994007401482,35.1188786766802,-72.4207641269962,33.67858740271801,-72.45857478562493,31.866663455963135,-72.60985660552979,29.652856672074968,-72.8844809837542,27.003554530007666,-73.27689166358468,23.89011042119622,-73.7760970692729,20.287850845203607,-74.38742995596482,16.171371513617714,-75.14706731413253,11.521596099677131,-76.11397576661682,6.341353456429979,-77.34545517647794,0.6199051782346565,-78.88530928792471,-5.791490263288241,-80.77658307092322" fill="none" stroke="rgb(80, 68, 68)" stroke-width="2" stroke-linejoin="round" filter="url(#fuzzy)"></polyline><polyline points="54,-55,54.61921323177677,-54.55229707128158,54.893768889207436,-54.28316748816504,54.96430030666958,-53.91543289851868,54.84773284813855,-53.591314287506975,54.522885370231016,-53.458229829861935,53.93798141603622,-53.60500197616034,53.02780529321178,-54.09898549189186,51.73515319824219,-55.00755310058594,50.01627361432055,-56.38824304629922,47.83443937165617,-58.275009049203376,45.16291217523215,-60.677472679511965,42.00212031311821,-63.58879330090713,38.38397297068184,-66.99725533157961,34.328162494145694,-70.91144291008767,29.722739587103213,-75.43332874613293" fill="none" stroke="rgb(80, 68, 68)" stroke-width="2" stroke-linejoin="round" filter="url(#fuzzy)"></polyline><polyline points="-35,-72,-33.99905084836855,-72.72553982013102,-32.51243682135847,-73.35858003504482,-30.692996031005293,-74.02720067470149,-28.7123482762292,-74.72346459325168,-26.562662332282084,-75.45505190035645,-24.209692467590017,-76.22823163421633,-21.68551509285763,-77.02625657776449,-19.07268352868708,-77.81837506749089,-16.44513511657715,-78.58108901977539,-13.831424657263799,-79.31123159062696,-11.22787291487678,-80.02347650271574,-8.642685998124035,-80.73696108691524,-6.1268026502661215,-81.46205294714838,-3.7636296218588665,-82.1962824464932,-1.6271894882920872,-82.92634396573858,0.2632847280088155,-83.61148767604055,1.9224787200962785,-84.10362572730358" fill="none" stroke="rgb(80, 68, 68)" stroke-width="2" stroke-linejoin="round" filter="url(#fuzzy)"></polyline><polyline points="37,-74,38.868944249464434,-72.71417446939412,39.63642959885917,-72.05112904592247,39.91717497048119,-71.60543104264535,39.93128399648763,-71.24359299601959,39.73793752859183,-70.94068284718105,39.32481150331548,-70.72076020198328,38.657033696873434,-70.61421960865974,37.699103381851735,-70.63314588873601,36.418795920798665,-70.76841293323183,34.7846155166626,-71.00219917297363,32.76407200539139,-71.32534556961673,30.32389894438227,-71.75043268868774,27.42906224374417,-72.31546923355822,24.037275324416722,-73.07668121392504,20.093377065280038,-74.09031825780676,15.540962639588194,-75.38563362044631,10.364865097267788,-76.94260037970011,4.614586378037176,-78.70934200113481,-1.801330676217967,-80.68908013373509" fill="none" stroke="rgb(80, 68, 68)" stroke-width="2" stroke-linejoin="round" filter="url(#fuzzy)"></polyline><polyline points="-34,-73,-31.649433117369746,-73.7623205382783,-29.685775558820918,-74.13981325176604,-27.332202674773118,-74.33689747071372,-24.313869481207803,-74.47267842356814,-20.69764471536643,-74.54921021043454,-16.641049635340504,-74.53278064769326,-12.246310460633806,-74.4057379051401,-7.5161590576171875,-74.1835708618164,-2.391823956007679,-73.90174448857874,3.1676046907439606,-73.58506926787953,9.123735809926442,-73.22615545835048,15.359094983665273,-72.79624517966295,21.73645962989615,-72.288014618835,28.165635503277386,-71.75957411598574,34.60859839153035,-71.32084000372103" fill="none" stroke="rgb(80, 68, 68)" stroke-width="2" stroke-linejoin="round" filter="url(#fuzzy)"></polyline><polyline points="16,-83,17.385383239159136,-82.98324098796951,18.070015925868972,-82.84579253774399,18.385365650328435,-82.5395698723444,18.36322319478495,-82.13062504271511,17.892068290512437,-81.69330123181302,16.887667722070876,-81.25088944617558,15.314510472596092,-80.79139773494668,13.140907287597656,-80.30252075195312,10.327072322389334,-79.78663869880404,6.856618163847216,-79.25676193571955,2.757549246894266,-78.72864901738322,-1.936125572246965,-78.2117081064498,-7.278303405351197,-77.69091333694736,-13.471103330212538,-77.11450362722513,-20.654055271173256,-76.46180889535565" fill="none" stroke="rgb(80, 68, 68)" stroke-width="2" stroke-linejoin="round" filter="url(#fuzzy)"></polyline><polyline points="-6,-84,-4.237195134672435,-83.92884311595209,-3.701855015901142,-83.72363606644483,-3.725471346032644,-83.39871797236864,-4.095059331081334,-82.92491784512063,-4.851742064163265,-82.22160421928545,-6.14635301732352,-81.20518276224122,-8.126374991749115,-79.8364254214247,-10.87596463315672,-78.12271645531396,-14.407975113031677,-76.07968458966958,-18.69009567534772,-73.69703081449573,-23.680443400713102,-70.95381175867594,-29.350916170383364,-67.87720331492065,-35.70449367977318,-64.56215393682768,-42.83252329042916,-61.0402375890113" fill="none" stroke="rgb(80, 68, 68)" stroke-width="2" stroke-linejoin="round" filter="url(#fuzzy)"></polyline><polyline points="57,-51,58.00956952772179,-48.52570961035923,58.27036364641526,-47.42591879968317,58.30870756297281,-46.901858189685576,58.14563748667532,-46.76077543241837,57.7299457489457,-46.96998884072963,57.033656184661616,-47.522146493707055,56.0266029975612,-48.43593615169492,54.65538048317437,-49.77261778544049,52.86433661992305,-51.626786793435954,50.6358510558795,-54.09292454586727,48.001913720336525,-57.228793844642226,44.99180997528126,-61.046568267461424,41.526638514707194,-65.55117843153234,37.33186421933471,-70.8050480179242" fill="none" stroke="rgb(80, 68, 68)" stroke-width="2" stroke-linejoin="round" filter="url(#fuzzy)"></polyline><polyline points="-12,-83,-10.75751245953912,-82.99847260628333,-9.644170133831071,-83.00396264061092,-8.096312623018806,-83.0408092856157,-6.251407529702972,-83.13601834284754,-4.309662029774583,-83.29256764992628,-2.3795640092065793,-83.48425298388584,-0.5285101435805748,-83.67583235017605,1.1759207042099202,-83.8453278438314,2.6709584501342203,-83.9905957093376,3.909158609316607,-84.12009116791961,4.850020577763798,-84.24088861167843,5.438783071112399,-84.36050742185164,5.598020717815131,-84.50848991682116,5.317897718395637,-84.74150576084004" fill="none" stroke="rgb(80, 68, 68)" stroke-width="2" stroke-linejoin="round" filter="url(#fuzzy)"></polyline><polyline points="-22,-79,-20.5475411456893,-79.63448386718721,-19.320215077688083,-79.97598056170804,-17.95082600833141,-80.27886958257082,-16.388171516402313,-80.60176510621417,-14.620492491728498,-80.95498060025884,-12.662991281503345,-81.336820540162,-10.574335418292609,-81.72648214633466,-8.437499639349387,-82.08863004685179,-6.324324986963227,-82.39255262594612,-4.27151781409799,-82.62738054472868,-2.2814002723985665,-82.80327195843066,-0.34420402872421807,-82.94275325736156,1.5346210622564307,-83.07093576448716,3.3209813812695836,-83.2087620701667,4.959095843830476,-83.36825852257104,6.388067565445144,-83.54826844726688,7.549537789053343,-83.73194297232091,8.371980418278035,-83.88989639504935,8.743612930691617,-83.99342771663389,8.631274725360253,-84.03313028447705" fill="none" stroke="rgb(80, 68, 68)" stroke-width="2" stroke-linejoin="round" filter="url(#fuzzy)"></polyline><polyline points="52,-59,51.628245848006365,-59.37001738719049,51.82406788397495,-59.11674154707575,52.226664378901454,-58.52307846516901,52.69349295296708,-57.75147454239403,53.11641828086454,-56.99350521730025,53.415560620405856,-56.386080413264125,53.54943739289979,-55.97391645520587,53.506179180426074,-55.74657402821518,53.28280215163583,-55.69038953665403,52.866938110969755,-55.815014701104204,52.23175477726474,-56.15330242975857,51.34659963719784,-56.749441447494505,50.19509877145288,-57.64630887787063,48.78470846551458,-58.876307691698,47.13508361876397,-60.458179238672116,45.248993659609766,-62.40150759036774,43.08912214702577,-64.7173394794706,40.59112029173465,-67.42953346695344,37.725275113357654,-70.57357456370514,34.552265517667834,-74.14754164317317" fill="none" stroke="rgb(80, 68, 68)" stroke-width="2" stroke-linejoin="round" filter="url(#fuzzy)"></polyline><polyline points="-30,-75,-30.181966942345227,-74.90576364612463,-28.929769023532852,-75.52359474020882,-27.375082484878806,-76.2520164559225,-25.81667935840388,-76.93341414842092,-24.30389193657652,-77.54215863311492,-22.761741590316632,-78.11006798408827,-21.09605173947979,-78.68219225888501,-19.276450547042103,-79.28430899128216,-17.357849783549955,-79.91231130153056,-15.448534488677979,-80.54007053375244,-13.659081726858902,-81.13421427268753,-12.062171329113598,-81.66709999527465,-10.677242144159505,-82.12527038910558,-9.482165207794848,-82.51282729654335,-8.450098042030504,-82.84606385245661,-7.600714109380826,-83.13334451451635,-7.024024938124171,-83.34352715031335,-6.793261540052029,-83.392818151163,-6.703281750867951,-83.21361652857676" fill="none" stroke="rgb(80, 68, 68)" stroke-width="2" stroke-linejoin="round" filter="url(#fuzzy)"></polyline><polyline points="7,-84,8.43746742040288,-83.93583149472046,10.034096254825567,-83.74264570854402,11.865710690311012,-83.40205153953674,13.717832035082893,-82.90463727517437,15.549346688585723,-82.2748205650659,17.386498279899033,-81.55713294034511,19.247752655631402,-80.79011839109123,21.13785724351321,-79.99356083236812,23.055159070327974,-79.1727027089768,24.989645417682013,-78.33006810518927,26.917685389518738,-77.47483241558075,28.80347841255275,-76.62441091730985,30.609654441129138,-75.79835415337666,32.31041077968514,-75.00959813566018,33.895927123416726,-74.26098814895441,35.362204479483395,-73.55242562468425,36.694901372399386,-72.89528039172828,37.86493371824723,-72.32196265358336,38.8431492130356,-71.87779459223813,39.62503188860106,-71.58711490514858,40.27138457227251,-71.3837122285475" fill="none" stroke="rgb(80, 68, 68)" stroke-width="2" stroke-linejoin="round" filter="url(#fuzzy)"></polyline><polyline points="24,-81,25.409518481730714,-80.2967420158108,26.51096852072666,-79.7585296330538,27.71542584613861,-79.15048567830704,29.09276194899651,-78.43384863972865,30.586466619400134,-77.63769824504531,32.10432316186094,-76.79611840059998,33.56573637536286,-75.93585735049795,34.914444138157094,-75.08593763165682,36.10859512802643,-74.28609257707978,37.113911608830506,-73.58252687558735,37.91502843732471,-73.0131340052775,38.532003648301384,-72.59354943960585,39.010367357398366,-72.31744478023026,39.36268112682281,-72.1809414534765,39.469675148748536,-72.23474561950373,38.959607566731364,-72.6696773632081" fill="none" stroke="rgb(80, 68, 68)" stroke-width="2" stroke-linejoin="round" filter="url(#fuzzy)"></polyline><polyline points="61,-41,61.22140110514319,-40.09760702686775,61.11044507267805,-38.904251024607106,60.40520856784228,-38.127039097644094,59.13534610956094,-37.752304701983,57.309664871218274,-37.69315519334373,54.92771869828039,-37.890167832909086,52.00766579203402,-38.2926977607806,48.57118879274138,-38.862103926168324,44.61527077029703,-39.592278108344416,40.10517644882202,-40.51295042037964,34.99232675777303,-41.670981232800685,29.236657369772598,-43.11013034618015,22.81519360830038,-44.86380070193993,15.717173093985679,-46.95503727346713,7.937340322027694,-49.393776235756604,-0.5274111482106214,-52.1782971391115,-9.679441482837984,-55.315160703690964,-19.497216074761127,-58.83869855411641,-29.809807552197288,-62.77188812160736" fill="none" stroke="rgb(80, 68, 68)" stroke-width="2" stroke-linejoin="round" filter="url(#fuzzy)"></polyline><polyline points="1,-85,1.9534016299958648,-84.93434003053662,2.7751996745050547,-84.73003817105271,3.2910252800125015,-84.5405742062347,3.573620746831794,-84.43671748506213,3.7515229128269345,-84.37076754039707,3.87332929073304,-84.2764979417552,3.9021576938843294,-84.13151713585826,3.7534012361733904,-83.95060850103738,3.318030434760795,-83.74753438121671,2.47126510195932,-83.50857019357574,1.09199148897825,-83.19750382958226,-0.8991097816755991,-82.78579504696879,-3.5100228036657475,-82.28295525584934,-6.696771945984422,-81.73411801221211,-10.44285728011059,-81.16887296123383,-14.845775141973917,-80.55993136439002" fill="none" stroke="rgb(80, 68, 68)" stroke-width="2" stroke-linejoin="round" filter="url(#fuzzy)"></polyline><polyline points="42,-70,42.918473360951445,-69.08833563881208,43.74662725056437,-68.3197584576445,44.54244922942834,-67.6016190168271,45.34679586332262,-66.82653945912284,46.17841565222034,-65.96077015528499,47.0236431023716,-65.04018600422147,47.83151095367559,-64.13768319136192,48.52902781629359,-63.33520942088042,49.04516044127214,-62.70820060521082,49.33157253265381,-62.31290054321289,49.37290686682633,-62.17274306295971,49.18213749084272,-62.274715626602315,48.78216326945778,-62.588129940981126,48.183610939076786,-63.10080119184399,47.373833848193044,-63.84600583603242,46.32704836712362,-64.88964962879345,45.02992724123759,-66.27485101514075,43.498255802548606,-67.97382882298295,41.76993270947778,-69.91859710055111" fill="none" stroke="rgb(80, 68, 68)" stroke-width="2" stroke-linejoin="round" filter="url(#fuzzy)"></polyline><polyline points="-38,-69,-36.92796564604726,-70.34632997353863,-35.65588431121953,-71.21626184846832,-34.19588194426218,-71.98721716188027,-32.53523871736402,-72.72618014498258,-30.692249644735845,-73.4429142727733,-28.714015296000163,-74.1453789561658,-26.639131565252985,-74.84620213056374,-24.484978422423453,-75.5571323624053,-22.26384552068742,-76.28002472635856,-19.99819423303782,-77.0025564475797,-17.716600327922926,-77.70392214732297,-15.437588661909103,-78.36766394972801,-13.160607274603311,-78.9926216753129,-10.875735061719492,-79.5936520061815,-8.58667048251709,-80.1906646889679,-6.329945860980928,-80.79289919761419,-4.1757990127230284,-81.3895925114914,-2.2090701083207627,-81.95508071397796,-0.4997612425508864,-82.46714828543679,0.9242143182899403,-82.9279276495011,2.087629013024781,-83.37470232295848,3.0474583110025075,-83.87365416560321,3.8906190820043878,-84.4748607360619" fill="none" stroke="rgb(80, 68, 68)" stroke-width="2" stroke-linejoin="round" filter="url(#fuzzy)"></polyline><polyline points="9,-84,9.698457576233848,-83.95282501344234,11.431704482056569,-83.79165681008311,13.085912350775063,-83.4884892806621,14.636919583340624,-83.06466530273175,16.167756860984255,-82.57847028865966,17.704650288451692,-82.07788954273632,19.25152351846415,-81.57634240096424,20.814907122827755,-81.06020162101882,22.398467456829216,-80.51094581300548,23.99078891558002,-79.92329123846832,25.562351360007128,-79.30999954078612,27.072877243879987,-78.695283543499,28.48111958894723,-78.10557599514749,29.74922907317154,-77.56506921698838,30.84250782629295,-77.09585410668684,31.73407451438176,-76.71657493891783,32.42042674544922,-76.43635013150468,32.93598249215154,-76.25007667063025,33.338632694822984,-76.14525505592582,33.64688758564682,-76.11987228008688,33.74720968548389,-76.19546149570068,33.33666348694411,-76.42365087380716" fill="none" stroke="rgb(80, 68, 68)" stroke-width="2" stroke-linejoin="round" filter="url(#fuzzy)"></polyline><polyline points="2,-85,2.8945775406930063,-84.74083402056641,3.2258267694973086,-84.40226964608784,3.126432489423687,-84.16543033495624,2.836552772858931,-83.91867517563905,2.4117214673268035,-83.54349850548971,1.7827360356964883,-83.0025178141029,0.8420215722532207,-82.31125696463242,-0.5169573397251686,-81.48600428408442,-2.3943187645480988,-80.51738468368622,-4.878298929658051,-79.37661329074032,-8.030660981995904,-78.03930395069308,-11.883019810393689,-76.50673936491654,-16.452385716795632,-74.80576084515332,-21.745237954400004,-72.95337032123399,-27.741875298260023,-70.88679177165231,-34.527807062112934,-68.38106302238646" fill="none" stroke="rgb(80, 68, 68)" stroke-width="2" stroke-linejoin="round" filter="url(#fuzzy)"></polyline><polyline points="5,-85,5.529496093711613,-84.7231343671834,6.42137341684426,-84.29304456798113,7.21236039457078,-83.89949833739368,7.779065075314213,-83.51392303131637,8.027019525439385,-83.06628169583166,7.874458205195508,-82.50141542608642,7.280600337487484,-81.79506453879738,6.235238796111953,-80.94964925247167,4.738209238688449,-79.97752611068756,2.7921778790259744,-78.8827533207253,0.4026660742906092,-77.65201050183485,-2.427388527225782,-76.25820296217297,-5.710189080798388,-74.67248682987844,-9.482562717724699,-72.87766350072835,-13.79814440014028,-70.87815090495441,-18.696795498020347,-68.70401258941041,-24.17093789950506,-66.40307849057001,-30.176118766299513,-64.00488283020039,-36.71701612497239,-61.43148641715565,-43.935418859682855,-58.345803980863444" fill="none" stroke="rgb(80, 68, 68)" stroke-width="2" stroke-linejoin="round" filter="url(#fuzzy)"></polyline><polyline points="49,-63,50.06803554236167,-61.682755878537854,50.895917024526874,-60.498965397561946,51.440775956789935,-59.696437512634255,51.87554089381592,-59.068937779346015,52.301419224576165,-58.440619687396065,52.720072743387604,-57.78943167168761,53.0625492142249,-57.22706725343426,53.23072052001953,-56.907997131347656,53.13727383392069,-56.94053061601252,52.7308173517408,-57.36046305374005,51.999835353729324,-58.16843873999527,50.96182200027397,-59.37258519540774,49.64390055236655,-60.98180712911519,48.04476345676738,-62.975256482566714,46.100398501988494,-65.33506714535227" fill="none" stroke="rgb(80, 68, 68)" stroke-width="2" stroke-linejoin="round" filter="url(#fuzzy)"></polyline><polyline points="59,-46,59.63051626738539,-44.672875419525006,59.96398846476038,-43.778908560816525,60.27647177640694,-42.8772758168748,60.61807000795717,-41.922071309966704,60.93664343667743,-41.001415647387326,61.16121658490616,-40.238324894693925,61.24325016188468,-39.731179875883505,61.16328852953147,-39.52757565714792,60.92061144610298,-39.63242028314286,60.52159145221724,-40.03166251655384,59.97124173747988,-40.71392695647735,59.26574938180303,-41.684783780117606,58.386666324196426,-42.97341084553011,57.30264153576498,-44.62854271295362,55.98255341767401,-46.70216168806441,54.41328728845527,-49.229805606551906,52.60539480251861,-52.22345245381621,50.57465764592301,-55.68174675561348,48.3162170682493,-59.59978932374498,45.815935100307556,-63.97650222960489" fill="none" stroke="rgb(80, 68, 68)" stroke-width="2" stroke-linejoin="round" filter="url(#fuzzy)"></polyline><polyline points="-6,-83,-5.935297831469912,-83.13195133369334,-4.394016903813213,-83.15026118441534,-2.1190722727116804,-82.87493449343967,0.5203348857170464,-82.36103779911012,3.452542575774821,-81.70474111140784,6.69650587241677,-80.96048540181462,10.230360401222487,-80.12728816566951,13.96875594758406,-79.17469247509644,17.80542474397286,-78.08136372485488,21.66383762424088,-76.86339312580859,25.523250014496174,-75.57682690559966,29.408746327048192,-74.29313470306057,33.33775295643742,-73.06861977611075,37.24879467752122,-71.94471082664836" fill="none" stroke="rgb(80, 68, 68)" stroke-width="2" stroke-linejoin="round" filter="url(#fuzzy)"></polyline><polyline points="-40,-68,-38.65331423641795,-68.7735339554002,-37.75966832574295,-69.54264096380011,-36.91599591385506,-70.34210666313773,-36.06072013566093,-71.0992647115862,-35.20905355974476,-71.77599406435569,-34.38712794509709,-72.35469484580915,-33.62963614366229,-72.82567996973778,-32.97678492196185,-73.18472337192898,-32.46154696681907,-73.43158954225142,-32.10341619164242,-73.5645432960589,-31.91697640027001,-73.572720368854,-31.924985998299825,-73.43287094081992,-32.159710930764206,-73.11520135694184,-32.64809034009902,-72.5958828536839,-33.39386345471458,-71.86745668381852,-34.376547305866175,-70.93826281008401,-35.57584718616978,-69.81813366921952,-37.008654129464524,-68.49579011109974,-38.75138677467927,-66.92124723751377,-40.92356148527268,-65.01649407739343,-43.621436614521066,-62.747438574041325,-46.793769764430806,-60.266896569653014" fill="none" stroke="rgb(80, 68, 68)" stroke-width="2" stroke-linejoin="round" filter="url(#fuzzy)"></polyline><polyline points="59,-47,58.61022273596612,-46.71615801161062,58.68875369481947,-46.173872172988986,58.691174323471934,-45.738774497797046,58.450195185045715,-45.52730543824734,57.95073365239668,-45.53592437261663,57.19536063394249,-45.7656104476189,56.158674505545584,-46.26514312178589,54.79246889217271,-47.119457180670864,53.04665756225586,-48.4156494140625,50.88400647821601,-50.21383102318587,48.28105931768564,-52.53908510104817,45.219513270674405,-55.39209526680453,41.68001671572221,-58.762016988666474,37.650788081137584,-62.63010204959375,33.145157900119,-66.97321999978053,28.17645333606601,-71.78585958955661,22.61298579444355,-77.10593871133314" fill="none" stroke="rgb(80, 68, 68)" stroke-width="2" stroke-linejoin="round" filter="url(#fuzzy)"></polyline><polyline points="18,-83,18.72404573543921,-82.91349837937902,19.45095051128854,-82.5820532683706,20.14145594447562,-82.12911061537238,20.58415103449116,-81.66389601627232,20.717470651086643,-81.20315727739339,20.557763190421184,-80.73111021012564,20.114706002036367,-80.23703225301107,19.378424962830792,-79.71645916254644,18.334727538756873,-79.16413424880395,16.969937143899347,-78.57288202331652,15.262900336231077,-77.93632038938709,13.178802825396897,-77.25066181950851,10.673960990677163,-76.51483277029641,7.707858636448385,-75.73013134881393,4.252744153444457,-74.89937512350296,0.2961322860564941,-74.02466873598536,-4.160327294429662,-73.1049731906513,-9.102641982148192,-72.13753810263185,-14.513276863280941,-71.126412292241,-20.391361890725896,-70.09403408250213,-26.749323126850932,-69.08080065790271,-33.48171561387734,-68.10611396133797" fill="none" stroke="rgb(80, 68, 68)" stroke-width="2" stroke-linejoin="round" filter="url(#fuzzy)"></polyline><polyline points="61,-41,61.25651873668801,-40.11055399963321,61.24907486290946,-38.95713168200134,60.70404948385885,-38.245575557013304,59.646079113081896,-37.962328697666464,58.087765570694955,-38.02506850831537,56.034184060367934,-38.380428363855245,53.505632085524226,-38.981595049767584,50.521752043174324,-39.79082318944134,47.07411660047566,-40.80156682938228,43.11892795562744,-42.04377222061157,38.59604578856913,-43.56764627655825,33.45929059496713,-45.42718438562245,27.69811103980318,-47.67553545547418,21.33708692662006,-50.36016001257204,14.408761848452286,-53.50265763943867,6.907243825663837,-57.07473363409695,-1.2484199956312985,-61.004829846814175,-10.200034992167867,-65.22251787337478,-20.156096166085117,-69.6580188984553" fill="none" stroke="rgb(80, 68, 68)" stroke-width="2" stroke-linejoin="round" filter="url(#fuzzy)"></polyline><polyline points="52,-59,52.80174160099429,-57.627342793079805,53.20868239200795,-56.335654677279905,53.159634681158444,-55.49789759513452,52.67522894151201,-54.95207791513689,51.79113250711695,-54.53297396249867,50.52433584962101,-54.18276132734354,48.86670116803028,-53.90973347854087,46.79317065502626,-53.744914790883776,44.2771362986484,-53.72586866555292,41.302444742122724,-53.890447693769346,37.86350619792938,-54.26723754405975,33.95516008818185,-54.864838175447275,29.56303052106771,-55.66869264424771,24.664114856824078,-56.650861206095286,19.236903994485413,-57.790403808984095,13.269507275681192,-59.09411097118837,6.752816233850279,-60.602593779536704,-0.3418718093959079,-62.370312194630614,-8.075876078277247,-64.42635467410625,-16.49437967135925,-66.75313804100787,-25.502133636972907,-69.31559935052749" fill="none" stroke="rgb(80, 68, 68)" stroke-width="2" stroke-linejoin="round" filter="url(#fuzzy)"></polyline><polyline points="13,-84,13.174034392244,-83.93092003284336,13.851239283194557,-83.69844029381892,14.802044884043099,-83.42962312395193,15.748437576906952,-83.22110344468892,16.575023743138903,-83.08532627862456,17.265519250841702,-82.9892055717615,17.817551416207102,-82.8940824800979,18.199882714351983,-82.78053624376851,18.3447208404541,-82.6566047668457,18.1674695758863,-82.55064658426548,17.60152231659227,-82.49632138296813,16.621045081072108,-82.52042632331373,15.234541167675276,-82.63653452333898,13.469032851280971,-82.83764613471082,11.378454071595453,-83.09278127541782,9.05428918797067,-83.39069111526638,6.502584059924371,-83.88026246241444" fill="none" stroke="rgb(80, 68, 68)" stroke-width="2" stroke-linejoin="round" filter="url(#fuzzy)"></polyline><polyline points="35,-75,35.39361324111848,-74.68755267678719,36.37463535388258,-74.04069735230004,37.64747286693216,-73.23037803769205,38.93716653903021,-72.36142024011505,40.09782170365269,-71.50193459991121,41.106172385727504,-70.67859034292579,41.993595879939804,-69.89863940340312,42.79063933951866,-69.17157291806043,43.50676804509101,-68.5141938516696,44.135603264461416,-67.94208194080477,44.66757542895651,-67.45975674041193,45.09704220733828,-67.06022922783193,45.42006966593326,-66.73590144008814,45.62659483491538,-66.49343985277314,45.693960161747455,-66.3618432771431,45.587183503046674,-66.38802301556291,45.265859558019656,-66.62392560570889,44.6912465778138,-67.1152513418144,43.82381850128634,-67.89843160524156,42.60422611265621,-69.0035144991592,40.92435676486003,-70.45412057420273,38.652141009415125,-72.23069971151415" fill="none" stroke="rgb(80, 68, 68)" stroke-width="2" stroke-linejoin="round" filter="url(#fuzzy)"></polyline><polyline points="44,-68,44.95839514135498,-67.22899008434977,45.1233723342133,-66.3877379691474,44.98117694730753,-65.38833680934032,44.48667354232071,-64.31491470546797,43.52338504718478,-63.23911044846771,41.9973769584651,-62.223031430588236,39.85550337609702,-61.311511996529234,37.08859323337037,-60.50724318084124,33.71811986142462,-59.76679458003689,29.771106243953355,-59.0301677831728,25.25930963986466,-58.26236902994029,20.174103429969456,-57.473590093261755,14.494671211390148,-56.70057037050006,8.198065868821644,-55.96342182659534,1.26225547790089,-55.23615635955983,-6.337103874021846,-54.46253468207455,-14.629955968093945,-53.60827315747429,-23.653630405774813,-52.695231023269244,-33.45876870048385,-51.76074915699209,-44.13611340294624,-50.72545159061058" fill="none" stroke="rgb(80, 68, 68)" stroke-width="2" stroke-linejoin="round" filter="url(#fuzzy)"></polyline><polyline points="28,-79,29.242752619455995,-78.6874902571334,30.598907988238143,-78.07650762004921,31.871182285726377,-77.31883951559111,33.08077563891619,-76.47559191238152,34.236066158163865,-75.60204996284371,35.335391792284426,-74.72847534254319,36.40321200676772,-73.85899729017082,37.48128188258768,-72.98999782406837,38.5911438404881,-72.12856981290584,39.708263060634394,-71.2992536333919,40.76870022864533,-70.53768931750409,41.70054635633406,-69.8771615034254,42.456385648178255,-69.3368905006137,43.02607057286126,-68.91910510532065,43.424830796218615,-68.61675810329125,43.668224841340496,-68.42767663305372,43.75248161668517,-68.36650436696195,43.65321132704009,-68.46516631513045,43.34269447881418,-68.75736213953581,42.81557504993072,-69.25315953187099,42.10469120786544,-69.92658263859003,41.236882938281845,-70.76776755187691" fill="none" stroke="rgb(80, 68, 68)" stroke-width="2" stroke-linejoin="round" filter="url(#fuzzy)"></polyline><!--]--></g><g id="lineNose"><path d="M -7.942023916317237 8.718730089588025, Q8.616540298588628 1.805032407288328,0.33725819113569555 -5.323158465818725" fill="none" stroke="black" stroke-width="3" stroke-linejoin="round" filter="url(#fuzzy)"></path></g><g id="mouth"><polyline points="-59.47264340802714,36.50359003591346,-58.16386369258001,37.36740352033004,-56.87062998203113,38.21832219298962,-55.59258096678957,39.05615088894107,-54.329355337264246,39.88069444323331,-53.08059178386419,40.69175769091524,-51.84592899699838,41.489145467035755,-50.625005667075804,42.27266260664375,-49.41746048450547,43.04211394478816,-48.222932139696354,43.79730431651785,-47.04105932305742,44.53803855688173,-45.871480724997674,45.2641215009287,-44.71383503592614,45.97535798370769,-43.567760946251745,46.67155284026755,-42.432897146383525,47.352510905657226,-41.30888232673046,48.0180370149256,-40.195355177701536,48.66793600312159,-39.091954389705755,49.302012705294075,-37.998318653152076,49.92007195649195,-36.91408665844952,50.521918591764155,-35.83889709600705,51.10735744615956,-34.77238865623369,51.67619335472708,-33.7142000295384,52.228231152515605,-32.663969906330166,52.76327567457405,-31.62133697701801,53.2811317559513,-30.585939932010902,53.781604231696285,-29.557417461717822,54.264497936857865,-28.53540825654777,54.72961770648497,-27.519551006909737,55.176768375626516,-26.509484403212706,55.60575477933137,-25.504847135865667,56.01638175264843,-24.505277895277622,56.40845413062664,-23.51041537185755,56.78177674831486,-22.51989825601444,57.13615444076202,-21.533365238157288,57.47139204301699,-20.550455008695078,57.78729439012871,-19.5708062580368,58.08366631714607,-18.59405767659144,58.36031265911795,-17.619847954767998,58.61703825109326,-16.64781578297546,58.853647928120914,-15.677599851622809,59.06994652524978,-14.708838851119047,59.265738877528825,-13.741171471873148,59.44082982000689,-12.774236404294106,59.5950241877329,-11.807672338790926,59.72812681575576,-10.841117965772575,59.83994253912436,-9.874211975648059,59.93027619288761,-8.90659305882636,59.99893261209441,-7.937899905716469,60.04571663179365,-6.967771206727374,60.07043308703424,-5.9958456522680725,60.07288681286509,-5.021761932747542,60.05288264433509,-4.045158738574778,60.01022541649316,-3.065674760158773,59.94471996438817,-2.0829486879085124,59.85617112306905,-1.096619212232989,59.744383727584676,-0.10632502354118678,59.60916261298397,0.8882951877578975,59.45031261431584,1.8876027312552797,59.26763856662916,2.8919589165419675,59.060945304972854,3.901725053208973,58.8300376643958,4.9172624508473035,58.57472047994693,5.938932419047974,58.29479858667513,6.967096267401991,57.990076819629294,8.002115305500368,57.660360013858345,9.044350842934115,57.30545300441115,10.094164189294236,56.925160626336655,11.151916654171753,56.51928771468371,12.217969547157669,56.087639104501264,13.292684177842993,55.63001963083819,14.376421855818737,55.1462341287434,15.469543890675919,54.6360874332658,16.572411592005537,54.09938437945428,17.685386269398606,53.53592980235774,18.80882923244614,52.94552853702509,19.94310179073915,52.327985418505236,21.08856525386864,51.68310528184706,22.245580931425625,51.0106929620995,23.414510133001116,50.31055329431141,24.595714168186117,49.582491113531724,25.789554346571645,48.82631125480934,26.996391977748708,48.04181855319314,28.216588371308323,47.22881784373205,29.45050483684149,46.38711396147496,30.698502683939225,45.51651174147078,31.960943222192537,44.61681601876839,33.238187761192435,43.6878316284167,34.53059761052994,42.72936340546463,35.83853407979604,41.74121618496107,37.16235847858176,40.72319480195492,38.50243211647812,39.67510409149507,39.859116303076114,38.596748888630444,41.23277234796676,37.487934028409924,42.623761560741066,36.34846434588242,44.032445250990044,35.178144676096835,45.4591847283047,33.97677985410208,46.90434130227605,32.74417471494702,48.3682762824951,31.480134093680604,49.85135097855287,30.1844628253517,51.35392670004036,28.85696574500922,51.35392670004036,28.856965745009216,50.245660998959686,29.037774917971763,49.13739529787901,29.215929641197768,48.029129596798334,29.39144619252966,46.92086389571766,29.564340849809867,45.81259819463698,29.7346298908808,44.70433249355631,29.902329593584902,43.59606679247563,30.067456235764595,42.48780109139496,30.230026095262303,41.37953539031429,30.39005544992045,40.27126968923361,30.54756057758146,39.16300398815294,30.702557756087757,38.05473828707226,30.855063263281775,36.946472585991586,31.005093377005934,35.83820688491091,31.15266437510266,34.729941183830235,31.297792535414384,33.62167548274956,31.440494135783524,32.513409781668884,31.58078545405251,31.405144080588215,31.718682768063765,30.29687837950754,31.85420235565972,29.188612678426864,31.987360494682793,28.08034697734619,32.11817346297541,26.972081276265516,32.246657538380006,25.86381557518484,32.372828998739,24.75554987410416,32.496704121894815,23.647284173023486,32.618299185689885,22.539018471942807,32.737630467966625,21.43075277086213,32.854714246567475,20.322487069781456,32.96956679933484,19.21422136870078,33.08220440411117,18.10595566762011,33.19264333873887,16.997689966539433,33.300899881060374,15.889424265458757,33.40699030891811,14.781158564378082,33.510930900154506,13.672892863297406,33.61273793261198,12.564627162216738,33.712427684132955,11.456361461136062,33.81001643255987,10.34809576005539,33.905520455735136,9.23983005897471,33.99895603150119,8.131564357894035,34.09033943770045,7.02329865681336,34.179686952175345,5.915032955732691,34.267014852768305,4.806767254652016,34.352339417321744,3.6985015535713437,34.4356769236781,2.590235852490668,34.51704364967979,1.481970151409989,34.59645587316925,0.37370445032931343,34.67392987198889,-0.7345612507513621,34.74948192398115,-1.8428269518320413,34.823128306988444,-2.951092652912717,34.894885298853204,-4.059358353993392,34.964769177417864,-5.167624055074064,35.03279622052484,-6.27588975615474,35.09898270601655,-7.3841554572354156,35.16334491173543,-8.492421158316091,35.22589911552391,-9.600686859396767,35.2866615952244,-10.708952560477446,35.34564862867934,-11.817218261558114,35.402876493731156,-12.92548396263879,35.458361468222265,-14.033749663719465,35.5121198299951,-15.142015364800134,35.56416785689208,-16.25028106588081,35.61452182675562,-17.358546766961485,35.66319801742817,-18.466812468042164,35.71021270675216,-19.57507816912284,35.75558217256998,-20.683343870203515,35.799322692724076,-21.79160957128419,35.84145054505688,-22.899875272364866,35.88198200741082,-24.008140973445542,35.9209333576283,-25.11640667452621,35.95832087355176,-26.224672375606886,35.99416083302363,-27.33293807668756,36.02846951388633,-28.441203777768237,36.06126319398228,-29.549469478848916,36.09255815115391,-30.657735179929585,36.12237066324365,-31.766000881010267,36.15071700809393,-32.87426658209094,36.17761346354716,-33.98253228317162,36.20307630744577,-35.09079798425229,36.227121817632195,-36.19906368533297,36.24976627194886,-37.30732938641364,36.271025948238176,-38.41559508749432,36.290917124342585,-39.523860788574986,36.3094560781045,-40.63212648965566,36.32665908736636,-41.74039219073634,36.34254242997058,-42.84865789181701,36.35712238375959,-43.95692359289768,36.370415226575815,-45.065189293978364,36.38243723626168,-46.17345499505903,36.39320469065961,-47.281720696139715,36.40273386761203,-48.38998639722038,36.411041044961365,-49.498252098301066,36.41814250055005,-50.606517799381734,36.4240545122205,-51.71478350046242,36.42879335781514,-52.823049201543085,36.432375315176415,-53.93131490262376,36.43481666214672,-55.039580603704444,36.4361336765685,-56.14784630478511,36.43634263628419,-57.256112005865795,36.435459819136184,-58.36437770694646,36.433501502966934" fill="rgb(215,127,140)" stroke="black" stroke-width="3" stroke-linejoin="round" filter="url(#fuzzy)"></polyline></g></svg>