<svg viewBox="-100 -100 200 200" xmlns="http://www.w3.org/2000/svg" width="400" height="400" id="face-svg"><defs><clipPath id="leftEyeClipPath"><polyline points="26.65162230983931,3.217941491224719,26.425476303153403,3.0035941559197057,26.151121781897075,2.7847942935045036,25.830944334528482,2.5623627857754476,25.467274971582157,2.337090470568514,25.06239051270707,2.109738582669012,24.618513973704786,1.8810391947212626,24.137814953567563,1.6516956581382818,23.62241002151645,1.4223830440114682,23.074363104039456,1.193748584020284,22.495685871929616,0.9664121113419348,21.88833812732311,0.7409665015610649,21.25422819073742,0.5179781135794279,20.5952132881094,0.29798723052557463,19.913099937833415,0.0815085006645404,19.209644337799464,-0.13096862169247636,18.37867616598129,-0.4164225282520402,17.521643606772876,-0.6953030158159059,16.64092821993976,-0.9665827291165723,15.738908647239278,-1.2293015596066272,14.817952689459998,-1.4825669871400802,13.880409801651757,-1.7255542523846454,12.928603998685858,-1.9575063647695714,11.964827163284792,-2.1777339507736926,10.991332748660895,-2.38561494735832,10.010329867903407,-2.5805941453496146,9.023977762253294,-2.762182587575067,8.034380640405317,-2.9299568265587563,7.043582880976714,-3.0835580465799772,6.0535645902819395,-3.2226910548999044,5.066237507552899,-3.3471231469609286,4.083441249744061,-3.4566828503632827,3.1069398880618913,-3.5512585524236098,2.1384188483580484,-3.6307970161201233,1.1794821275256995,-3.695301789228953,0.23164981803845563,-3.7448315114563755,-0.703644067228721,-3.779498124371486,-1.6250534777571737,-3.7994649889440453,-2.5313219235813715,-3.8049449154920545,-3.4212837967854526,-3.796198110843722,-4.293865424160115,-3.7735300475185127,-5.148085858880368,-3.7372892597317886,-5.983057419064767,-3.687865071027856,-6.797985981076733,-3.6256852583458645,-7.592171035428477,-3.55121365732335,-8.365005513148121,-3.4649477136419975,-9.115975390470668,-3.3674159852201946,-9.844659079713269,-3.2591756000571657,-10.550726614195538,-3.1408096745331804,-11.233938635065291,-3.0129246969705488,-11.894145187890457,-2.876147881260014,-12.531284336877677,-2.731124495357177,-13.145380604578174,-2.578515169453631,-13.736543244941421,-2.4189931886273826,-14.30496435757731,-2.2532417747772318,-14.850916851087272,-2.0819513626457375,-15.374752263325002,-1.9058168747354216,-15.876898446447354,-1.725534999922818,-16.35785712461599,-1.5418014805750442,-16.8182013322103,-1.3553084129734776,-17.258572740412333,-1.1667415658492386,-17.67967888002405,-0.9767777218350622,-18.08229026837781,-0.7860820466382217,-18.467237448200407,-0.5953054907391468,-18.83540794629127,-0.4050822284203379,-19.18774315987565,-0.21602713893028191,-19.524783370335577,-0.02755592650955574,-19.84663571528999,0.16108442577836346,-20.153636285225595,0.34955661121627557,-20.446128204515873,0.5375352129562252,-20.724460578664917,0.7247073474976604,-20.988987441551224,0.9107733081656102,-21.240066702671605,1.0954472085888227,-21.478059094384996,1.2784576261779428,-21.703327119156235,1.4595482456036644,-21.91623399680001,1.638478502274893,-22.117142611724603,1.8150242258169094,-22.306414460175766,1.9889782835495282,-22.484408597480552,2.1601512239652525,-22.651480585291175,2.328371920207447,-16.64452035588745,1.460677457177443,-16.276125972399797,1.5487711169844722,-15.896962519047838,1.6326156532571874,-15.50717956875245,1.7123615993316683,-15.106951628709274,1.7881766230706155,-14.696476157252507,1.8602442397234178,-14.275971580718915,1.9287625247862223,-13.845675310311597,1.9939428268620114,-13.405841758963964,2.056008480520674,-12.956740358203541,2.115193519159072,-12.49865357501592,2.171741387861119,-12.031874928708602,2.2259036562578487,-11.556707007774898,2.27793873138749,-11.07345948675779,2.3281105705555305,-10.582447143113862,2.3766873941948017,-10.081880298284359,2.423389410859528,-9.570118751032384,2.4680789188063077,-9.04769529455635,2.5112320778587227,-8.51512973527082,2.553313088473698,-7.972927409957407,2.5947719525630117,-7.42157774127589,2.6360422541395314,-6.86155284644296,2.677538969398859,-6.293306213885856,2.719656315847005,-5.717271462678509,2.7627656500847446,-5.133861199567457,2.807213423859305,-4.543465988394992,2.8533192079940224,-3.946453446727034,2.9013737938066133,-3.3431674844930193,2.9516373816267127,-2.733927699445296,3.0043378660233135,-2.1190289442454446,3.059669227352758,-1.4987410799849066,3.1177900392379256,-0.873308930947367,3.1788221015892626,-0.24295245542028354,3.242849208778298,0.3921328526369994,3.3099160625742803,1.0317753162611645,3.380027339454606,1.6758261676813913,3.4531469218996507,2.3241583652370537,3.5291973032826744,2.9766651202091294,3.608059175965439,3.633258118757997,3.6895712122101676,4.293865424160116,3.773530047518513,4.958429044536258,3.859690476008171,5.626902151263806,3.947765867437772,6.2992459332657615,4.037428815490718,6.975426072368967,4.128312026928588,7.655408824924231,4.220009461224771,8.339156694880838,4.312077730288972,9.026623683508097,4.404037767893213,9.717750100956472,4.495376778410012,10.412456924850915,4.585550474473356,11.11063969110893,4.673985613173111,11.812161902176019,4.7600828403935385,12.516847937871042,4.843219852906548,13.224475454034092,4.922754887830314,13.934767254169474,4.9980305490639365,14.647382619276366,5.068377980308767,15.361908081059743,5.133121394287049,16.077847623714174,5.191582967768518,16.794612299473,5.243088112015608,17.511509243115583,5.2869711282579095,18.227730070625128,5.322581257806524,18.94233864718972,5.34928913641895,19.654258209739076,5.36649366252516,20.362257829209685,5.3736292889255095,21.064938197730903,5.370173747571111,21.76071672592452,5.355656217037336,22.284460334473494,5.355540534121896,22.794795714660182,5.347921225849504,23.29030505831971,5.332428541713934,23.769481355553488,5.308696828841841,24.23072593842509,5.276365073369369,24.6723460246561,5.235077441818774,25.092552261322027,5.184483822475029,25.489456268548118,5.124240366762445,25.861068183205276,5.054010030621286,26.20529420260592,4.973463115884381,26.519934128199836,4.882277811653737,26.802678909270078,4.780140735677159,27.05110818662881,4.666747475724858,27.262687836313198,4.54180313096607,27.434767513281287,4.405022853345674"></polyline></clipPath><clipPath id="rightEyeClipPath"><polyline points="-26.64025782664382,1.7152616899891164,-26.4839008486393,1.529102357284457,-26.27308495801451,1.3407027478830522,-26.010416776221234,1.1508851890373384,-25.69844775730288,0.9604304054319419,-25.33967445270323,0.770078387912366,-24.936538776075167,0.5805292622136733,-24.49142826808943,0.39244415768917396,-24.00667636124335,0.20644607603911425,-23.484562644669595,0.02312076003935637,-22.927313128944924,-0.15698243772992715,-22.337100510898914,-0.33334968615557514,-21.71604443842272,-0.5055018068627533,-21.066211775277807,-0.6729934054862561,-20.38961686590469,-0.835412002941835,-19.688221800231688,-0.9923771666975032,-18.86034277258466,-1.2269434982669019,-18.001917911450747,-1.4511775157991327,-17.1155841525071,-1.6643018758570678,-16.203990088848187,-1.8656417324659085,-15.26978541384062,-2.054619998992938,-14.31561091947292,-2.230752697733303,-13.344089039494147,-2.3936443966609637,-12.357814926635157,-2.542983732803963,-11.359348053206347,-2.67853902170315,-10.351204324365733,-2.800153952413546,-9.335848693351195,-2.9077433675074413,-8.315688267970696,-3.001289127538443,-7.293065897644353,-3.0808360594255557,-6.270254230292144,-3.1464879882165064,-5.2494502283611535,-3.1984038516894024,-4.232770133286104,-3.2367938972519257,-3.222244867677091,-3.261915960597171,-2.2198158645283206,-3.274071825575314,-1.2273313127416623,-3.2736036647402242,-0.2465428082588872,-3.2608905600302007,0.7208975999035658,-3.2363451030419466,1.6734399794235273,-3.2004100743569843,2.6096387109517973,-3.153555201379599,3.528154321606893,-3.096273994145502,4.427754966391909,-3.029080658560363,5.307317568239688,-2.95250708652732,6.165828627392518,-2.8670999224226703,7.002384710822437,-2.7734177053788542,7.8161926323983835,-2.6720280868339046,8.606569334506268,-2.56350512280648,9.37294148182827,-2.4484266403556694,10.114844777987368,-2.327371677684696,10.831923015763387,-2.2009179973476627,11.52392687158667,-2.069639672018508,12.190712455015557,-1.9341047422813196,12.83223962390382,-1.7948729459011208,13.448570075964263,-1.6524935180343396,14.039865227434557,-1.5075030618380572,14.606383889551651,-1.360423488937208,15.148479753540688,-1.2117600292088717,15.666598694824778,-1.0619993093428324,16.161275907161734,-0.9116074996375021,16.63313287741394,-0.7610285284904208,17.082874211657447,-0.6106823640424288,17.51128432333661,-0.46096336243470226,17.919223994170277,-0.3122386821377603,18.307626818515782,-0.16484676381163688,18.67749554189695,-0.019095875156334152,19.029898304402057,0.1247372797882873,19.365964799658297,0.2664088874340127,19.68610496510788,0.40621516004562164,19.990223512057387,0.5444790888569635,20.278742182792662,0.6810311547070405,20.5520896591063,0.815713372196496,20.810700128436213,0.9483792172522709,21.05501185000426,1.0788935546922498,21.28546572095481,1.2071325657899026,21.502503842493393,1.3329836758389444,21.706568086025243,1.4563454817179688,21.898098659293943,1.5771276794551055,22.07753267252,1.6952509917926637,22.24530270453944,1.810647095751777,22.401835368942443,1.9232585501970596,22.547549880211896,2.0330387234012424,17.959960690212625,2.072844731010141,17.59840100418132,2.1003600800651707,17.22605715491706,2.126156695356451,16.842895272199865,2.150331190510506,16.448896779136827,2.172989080758932,16.04405771082254,2.1942440303181208,15.628388032999563,2.2142170997689874,15.20191096071887,2.2330359934366952,14.764662277000323,2.2508343067703827,14.316689651493057,2.2677507737228884,13.858051959136006,2.2839285141304777,13.388818598818315,2.2995142810925664,12.909068812039784,2.314657708351453,12.418891001571346,2.329510557672035,11.918382050115497,2.344225966221545,11.406249688684145,2.3585825207350335,10.88113818962059,2.3724574758667476,10.343071831220296,2.386145280109608,9.792097287336944,2.3999295425571954,9.228283878530831,2.4140816118210466,8.65172380052071,2.4288591724991164,8.062532335026162,2.444504864814968,7.460848048088067,2.4612449330472552,6.84683298095435,2.479287908369069,6.220672838618414,2.4988233317166992,5.582577181097584,2.5200205223073953,4.932779622538861,2.5430273974256665,4.271538043239385,2.567969349097714,3.599134819668871,2.594948183273537,2.915877077581426,2.624041127136283,2.2220969733039997,2.6552999101584183,1.5181520082888937,2.688749924524271,0.8044253820175964,2.7243894705385143,0.08132638834331374,2.762189092640153,-0.6507091396405063,2.8020910116415916,-1.3912183311182407,2.844008658812324,-2.1397107203695285,2.8878263174268297,-2.895667625798626,2.9333988773962396,-3.6585414600884585,2.98055170860332,-4.42775496639191,3.029080658560363,-5.202700375473142,3.0787521800095226,-5.982738478711492,3.1293035940851883,-6.767197611880727,3.1804434946579385,-7.555372544616189,3.231852299479645,-8.346523270482633,3.2831829537493045,-9.139873692555316,3.334061791719142,-9.934610199427052,3.3840895619605718,-10.729880126553898,3.4328426219095594,-11.524790097852108,3.4798743073109706,-12.318404242459053,3.524716482181452,-13.109742281570746,3.566881274910428,-13.89777748026865,3.605863006118758,-14.681434459248429,3.6411403138946374,-15.459586861363306,3.6721784820262937,-16.2310548678947,3.698431976851049,-16.994602559462805,3.719347198340314,-17.74893511648976,3.734365451040073,-18.49269585412808,3.7429261404864294,-19.22446308656705,3.744470200715778,-19.942746815629693,3.738443758489157,-20.645985238572994,3.724302039850365,-21.332541070004076,3.701513524637386,-22.00069767282495,3.6695643545667025,-22.648654993118488,3.627963000510053,-23.274525293888416,3.576245194583205,-23.767280003277495,3.5315333007497074,-24.237090050299674,3.4786128829696414,-24.68225521082473,3.4170537142470407,-25.101001662076413,3.3464205564340377,-25.491480442090428,3.2662733558287815,-25.851765909172435,3.17616743877336,-26.179854201356044,3.075653707251717,-26.473661695860763,2.9642788344875703,-26.731023468550053,2.8415854605423325,-26.949691753389267,2.707112387913031,-27.127334401903653,2.560394777130225,-27.26153334263635,2.400964342355927,-27.34978304060638,2.2283495469815175,-27.38948895676661,2.042075799225671,-27.377966007461783,1.8416656477322721"></polyline></clipPath><filter id="fuzzy"><feTurbulence id="turbulence" baseFrequency="0.05" numOctaves="3" type="noise" result="noise"></feTurbulence><feDisplacementMap in="SourceGraphic" in2="noise" scale="2"></feDisplacementMap></filter><linearGradient id="rainbowGradient" x1="0%" y1="0%" x2="100%" y2="0%"><stop offset="0%" style="stop-color: rgb(220, 208, 186);  stop-opacity: 1"></stop><stop offset="50%" style="stop-color: rgb(165, 42, 42);  stop-opacity: 1"></stop><stop offset="100%" style="stop-color: rgb(0, 0, 0);  stop-opacity: 1"></stop></linearGradient></defs><title>That&#39;s an ugly face</title><desc>CREATED BY XUAN TANG, MORE INFO AT TXSTC55.GITHUB.IO</desc><rect x="-100" y="-100" width="100%" height="100%" opacity="1" fill="rgb(25, 25, 112)"></rect><polyline id="faceContour" points="68,1,68,2,68,3,67,5,67,5,67,7,67,9,67,10,67,10,66,13,66,12,66,14,66,15,66,17,65,19,65,20,64,22,64,23,64,25,64,24,64,25,62,29,62,29,62,29,61,32,62,31,61,33,60,34,59,37,60,35,59,38,59,38,57,41,58,40,57,43,56,43,55,45,55,46,55,46,54,47,53,49,53,49,52,51,51,52,50,54,50,53,49,55,49,55,47,57,48,56,46,58,46,58,44,60,43,62,43,62,42,63,41,65,40,65,40,65,38,67,39,66,37,68,37,68,35,69,35,69,33,70,33,71,32,71,30,73,30,73,29,73,28,73,28,74,26,75,25,76,25,75,23,76,24,76,21,77,22,77,19,78,19,78,17,79,16,79,16,79,14,79,14,80,13,80,12,80,12,80,10,80,9,80,8,81,8,80,6,81,6,81,3,81,4,81,2,81,0,81,-1,81,-1,81,-3,81,-4,81,-3,80,-6,80,-5,80,-7,80,-9,80,-8,80,-8,80,-11,79,-12,79,-14,79,-14,79,-14,78,-15,78,-16,78,-17,78,-20,76,-19,77,-20,76,-23,75,-22,75,-23,75,-23,74,-24,74,-26,73,-28,72,-28,72,-30,70,-30,70,-31,70,-32,69,-32,69,-34,67,-35,67,-35,67,-37,66,-37,65,-37,65,-40,62,-39,63,-41,61,-42,60,-43,60,-44,58,-43,59,-46,56,-44,58,-46,56,-48,54,-48,54,-48,53,-49,52,-50,51,-49,51,-51,50,-52,48,-52,48,-52,48,-54,46,-55,43,-55,43,-55,43,-56,41,-56,40,-57,40,-57,38,-59,36,-59,35,-59,35,-60,33,-60,34,-61,30,-61,30,-62,29,-63,26,-63,26,-63,25,-63,24,-63,24,-65,20,-64,21,-65,20,-65,20,-66,17,-66,16,-66,17,-66,14,-66,11,-67,11,-67,9,-67,10,-67,6,-67,5,-67,5,-67,3,-68,1,-68,1,-68,0,-68,-1,-68,-4,-68,-3,-68,-6,-68,-6,-68,-9,-68,-10,-68,-11,-68,-12,-68,-13,-68,-14,-67,-14,-67,-17,-67,-18,-67,-20,-67,-19,-66,-20,-66,-23,-66,-22,-66,-24,-65,-27,-65,-27,-65,-27,-64,-29,-64,-31,-64,-30,-64,-31,-63,-33,-63,-35,-62,-36,-62,-37,-61,-38,-61,-39,-61,-39,-60,-42,-59,-43,-60,-42,-58,-44,-58,-45,-58,-45,-56,-48,-57,-47,-56,-49,-55,-50,-54,-51,-54,-52,-53,-53,-53,-53,-52,-54,-50,-57,-51,-56,-49,-58,-49,-58,-47,-60,-46,-61,-46,-61,-45,-62,-45,-62,-43,-63,-42,-64,-41,-65,-40,-66,-39,-67,-38,-68,-37,-68,-37,-68,-36,-70,-35,-70,-34,-70,-33,-71,-32,-72,-32,-71,-31,-72,-28,-74,-27,-74,-28,-74,-26,-75,-26,-75,-23,-76,-21,-77,-23,-76,-21,-77,-20,-77,-18,-78,-18,-78,-15,-78,-13,-79,-13,-79,-14,-79,-12,-79,-10,-80,-10,-80,-8,-80,-6,-80,-5,-81,-5,-80,-4,-80,-2,-80,-1,-81,0,-81,0,-81,3,-81,4,-81,4,-81,5,-81,7,-81,7,-81,10,-80,10,-81,13,-80,12,-80,14,-80,15,-80,17,-79,16,-79,18,-79,19,-79,20,-78,23,-77,22,-78,25,-77,25,-77,26,-76,28,-76,30,-75,29,-75,29,-75,32,-74,31,-74,32,-73,34,-73,35,-72,35,-72,36,-71,38,-70,40,-69,39,-69,41,-68,42,-67,42,-67,42,-67,43,-66,44,-66,46,-64,47,-63,47,-63,48,-61,50,-59,49,-60,51,-58,50,-59,51,-57,53,-55,53,-55,55,-53,54,-53,56,-51,56,-52,56,-51,58,-47,58,-48,59,-47,60,-44,60,-43,59,-45,61,-41,62,-39,61,-41,61,-41,63,-38,63,-36,63,-35,63,-35,64,-32,65,-31,64,-32,65,-29,65,-29,66,-27,66,-26,66,-24,66,-24,67,-22,67,-19,67,-18,67,-18,67,-18,67,-16,68,-13,68,-13,68,-13,68,-12,68,-8,68,-6,68,-6,68,-7,68,-5,68,-2,68,-3,68,1,68,2" fill="#ffc9a9" stroke="black" stroke-width="1.6666666666666665" stroke-linejoin="round" filter="url(#fuzzy)"></polyline><g transform="translate(42.75274088045796 -20.102393448184564)"><polyline id="rightCountour" points="-26.64025782664382,1.7152616899891164,-26.4839008486393,1.529102357284457,-26.27308495801451,1.3407027478830522,-26.010416776221234,1.1508851890373384,-25.69844775730288,0.9604304054319419,-25.33967445270323,0.770078387912366,-24.936538776075167,0.5805292622136733,-24.49142826808943,0.39244415768917396,-24.00667636124335,0.20644607603911425,-23.484562644669595,0.02312076003935637,-22.927313128944924,-0.15698243772992715,-22.337100510898914,-0.33334968615557514,-21.71604443842272,-0.5055018068627533,-21.066211775277807,-0.6729934054862561,-20.38961686590469,-0.835412002941835,-19.688221800231688,-0.9923771666975032,-18.86034277258466,-1.2269434982669019,-18.001917911450747,-1.4511775157991327,-17.1155841525071,-1.6643018758570678,-16.203990088848187,-1.8656417324659085,-15.26978541384062,-2.054619998992938,-14.31561091947292,-2.230752697733303,-13.344089039494147,-2.3936443966609637,-12.357814926635157,-2.542983732803963,-11.359348053206347,-2.67853902170315,-10.351204324365733,-2.800153952413546,-9.335848693351195,-2.9077433675074413,-8.315688267970696,-3.001289127538443,-7.293065897644353,-3.0808360594255557,-6.270254230292144,-3.1464879882165064,-5.2494502283611535,-3.1984038516894024,-4.232770133286104,-3.2367938972519257,-3.222244867677091,-3.261915960597171,-2.2198158645283206,-3.274071825575314,-1.2273313127416623,-3.2736036647402242,-0.2465428082588872,-3.2608905600302007,0.7208975999035658,-3.2363451030419466,1.6734399794235273,-3.2004100743569843,2.6096387109517973,-3.153555201379599,3.528154321606893,-3.096273994145502,4.427754966391909,-3.029080658560363,5.307317568239688,-2.95250708652732,6.165828627392518,-2.8670999224226703,7.002384710822437,-2.7734177053788542,7.8161926323983835,-2.6720280868339046,8.606569334506268,-2.56350512280648,9.37294148182827,-2.4484266403556694,10.114844777987368,-2.327371677684696,10.831923015763387,-2.2009179973476627,11.52392687158667,-2.069639672018508,12.190712455015557,-1.9341047422813196,12.83223962390382,-1.7948729459011208,13.448570075964263,-1.6524935180343396,14.039865227434557,-1.5075030618380572,14.606383889551651,-1.360423488937208,15.148479753540688,-1.2117600292088717,15.666598694824778,-1.0619993093428324,16.161275907161734,-0.9116074996375021,16.63313287741394,-0.7610285284904208,17.082874211657447,-0.6106823640424288,17.51128432333661,-0.46096336243470226,17.919223994170277,-0.3122386821377603,18.307626818515782,-0.16484676381163688,18.67749554189695,-0.019095875156334152,19.029898304402057,0.1247372797882873,19.365964799658297,0.2664088874340127,19.68610496510788,0.40621516004562164,19.990223512057387,0.5444790888569635,20.278742182792662,0.6810311547070405,20.5520896591063,0.815713372196496,20.810700128436213,0.9483792172522709,21.05501185000426,1.0788935546922498,21.28546572095481,1.2071325657899026,21.502503842493393,1.3329836758389444,21.706568086025243,1.4563454817179688,21.898098659293943,1.5771276794551055,22.07753267252,1.6952509917926637,22.24530270453944,1.810647095751777,22.401835368942443,1.9232585501970596,22.547549880211896,2.0330387234012424,17.959960690212625,2.072844731010141,17.59840100418132,2.1003600800651707,17.22605715491706,2.126156695356451,16.842895272199865,2.150331190510506,16.448896779136827,2.172989080758932,16.04405771082254,2.1942440303181208,15.628388032999563,2.2142170997689874,15.20191096071887,2.2330359934366952,14.764662277000323,2.2508343067703827,14.316689651493057,2.2677507737228884,13.858051959136006,2.2839285141304777,13.388818598818315,2.2995142810925664,12.909068812039784,2.314657708351453,12.418891001571346,2.329510557672035,11.918382050115497,2.344225966221545,11.406249688684145,2.3585825207350335,10.88113818962059,2.3724574758667476,10.343071831220296,2.386145280109608,9.792097287336944,2.3999295425571954,9.228283878530831,2.4140816118210466,8.65172380052071,2.4288591724991164,8.062532335026162,2.444504864814968,7.460848048088067,2.4612449330472552,6.84683298095435,2.479287908369069,6.220672838618414,2.4988233317166992,5.582577181097584,2.5200205223073953,4.932779622538861,2.5430273974256665,4.271538043239385,2.567969349097714,3.599134819668871,2.594948183273537,2.915877077581426,2.624041127136283,2.2220969733039997,2.6552999101584183,1.5181520082888937,2.688749924524271,0.8044253820175964,2.7243894705385143,0.08132638834331374,2.762189092640153,-0.6507091396405063,2.8020910116415916,-1.3912183311182407,2.844008658812324,-2.1397107203695285,2.8878263174268297,-2.895667625798626,2.9333988773962396,-3.6585414600884585,2.98055170860332,-4.42775496639191,3.029080658560363,-5.202700375473142,3.0787521800095226,-5.982738478711492,3.1293035940851883,-6.767197611880727,3.1804434946579385,-7.555372544616189,3.231852299479645,-8.346523270482633,3.2831829537493045,-9.139873692555316,3.334061791719142,-9.934610199427052,3.3840895619605718,-10.729880126553898,3.4328426219095594,-11.524790097852108,3.4798743073109706,-12.318404242459053,3.524716482181452,-13.109742281570746,3.566881274910428,-13.89777748026865,3.605863006118758,-14.681434459248429,3.6411403138946374,-15.459586861363306,3.6721784820262937,-16.2310548678947,3.698431976851049,-16.994602559462805,3.719347198340314,-17.74893511648976,3.734365451040073,-18.49269585412808,3.7429261404864294,-19.22446308656705,3.744470200715778,-19.942746815629693,3.738443758489157,-20.645985238572994,3.724302039850365,-21.332541070004076,3.701513524637386,-22.00069767282495,3.6695643545667025,-22.648654993118488,3.627963000510053,-23.274525293888416,3.576245194583205,-23.767280003277495,3.5315333007497074,-24.237090050299674,3.4786128829696414,-24.68225521082473,3.4170537142470407,-25.101001662076413,3.3464205564340377,-25.491480442090428,3.2662733558287815,-25.851765909172435,3.17616743877336,-26.179854201356044,3.075653707251717,-26.473661695860763,2.9642788344875703,-26.731023468550053,2.8415854605423325,-26.949691753389267,2.707112387913031,-27.127334401903653,2.560394777130225,-27.26153334263635,2.400964342355927,-27.34978304060638,2.2283495469815175,-27.38948895676661,2.042075799225671,-27.377966007461783,1.8416656477322721" fill="white" stroke="white" stroke-width="0" stroke-linejoin="round" filter="url(#fuzzy)"></polyline></g><g transform="translate(-34.74423002130923 -25.793624453223007)"><polyline id="leftCountour" points="26.65162230983931,3.217941491224719,26.425476303153403,3.0035941559197057,26.151121781897075,2.7847942935045036,25.830944334528482,2.5623627857754476,25.467274971582157,2.337090470568514,25.06239051270707,2.109738582669012,24.618513973704786,1.8810391947212626,24.137814953567563,1.6516956581382818,23.62241002151645,1.4223830440114682,23.074363104039456,1.193748584020284,22.495685871929616,0.9664121113419348,21.88833812732311,0.7409665015610649,21.25422819073742,0.5179781135794279,20.5952132881094,0.29798723052557463,19.913099937833415,0.0815085006645404,19.209644337799464,-0.13096862169247636,18.37867616598129,-0.4164225282520402,17.521643606772876,-0.6953030158159059,16.64092821993976,-0.9665827291165723,15.738908647239278,-1.2293015596066272,14.817952689459998,-1.4825669871400802,13.880409801651757,-1.7255542523846454,12.928603998685858,-1.9575063647695714,11.964827163284792,-2.1777339507736926,10.991332748660895,-2.38561494735832,10.010329867903407,-2.5805941453496146,9.023977762253294,-2.762182587575067,8.034380640405317,-2.9299568265587563,7.043582880976714,-3.0835580465799772,6.0535645902819395,-3.2226910548999044,5.066237507552899,-3.3471231469609286,4.083441249744061,-3.4566828503632827,3.1069398880618913,-3.5512585524236098,2.1384188483580484,-3.6307970161201233,1.1794821275256995,-3.695301789228953,0.23164981803845563,-3.7448315114563755,-0.703644067228721,-3.779498124371486,-1.6250534777571737,-3.7994649889440453,-2.5313219235813715,-3.8049449154920545,-3.4212837967854526,-3.796198110843722,-4.293865424160115,-3.7735300475185127,-5.148085858880368,-3.7372892597317886,-5.983057419064767,-3.687865071027856,-6.797985981076733,-3.6256852583458645,-7.592171035428477,-3.55121365732335,-8.365005513148121,-3.4649477136419975,-9.115975390470668,-3.3674159852201946,-9.844659079713269,-3.2591756000571657,-10.550726614195538,-3.1408096745331804,-11.233938635065291,-3.0129246969705488,-11.894145187890457,-2.876147881260014,-12.531284336877677,-2.731124495357177,-13.145380604578174,-2.578515169453631,-13.736543244941421,-2.4189931886273826,-14.30496435757731,-2.2532417747772318,-14.850916851087272,-2.0819513626457375,-15.374752263325002,-1.9058168747354216,-15.876898446447354,-1.725534999922818,-16.35785712461599,-1.5418014805750442,-16.8182013322103,-1.3553084129734776,-17.258572740412333,-1.1667415658492386,-17.67967888002405,-0.9767777218350622,-18.08229026837781,-0.7860820466382217,-18.467237448200407,-0.5953054907391468,-18.83540794629127,-0.4050822284203379,-19.18774315987565,-0.21602713893028191,-19.524783370335577,-0.02755592650955574,-19.84663571528999,0.16108442577836346,-20.153636285225595,0.34955661121627557,-20.446128204515873,0.5375352129562252,-20.724460578664917,0.7247073474976604,-20.988987441551224,0.9107733081656102,-21.240066702671605,1.0954472085888227,-21.478059094384996,1.2784576261779428,-21.703327119156235,1.4595482456036644,-21.91623399680001,1.638478502274893,-22.117142611724603,1.8150242258169094,-22.306414460175766,1.9889782835495282,-22.484408597480552,2.1601512239652525,-22.651480585291175,2.328371920207447,-16.64452035588745,1.460677457177443,-16.276125972399797,1.5487711169844722,-15.896962519047838,1.6326156532571874,-15.50717956875245,1.7123615993316683,-15.106951628709274,1.7881766230706155,-14.696476157252507,1.8602442397234178,-14.275971580718915,1.9287625247862223,-13.845675310311597,1.9939428268620114,-13.405841758963964,2.056008480520674,-12.956740358203541,2.115193519159072,-12.49865357501592,2.171741387861119,-12.031874928708602,2.2259036562578487,-11.556707007774898,2.27793873138749,-11.07345948675779,2.3281105705555305,-10.582447143113862,2.3766873941948017,-10.081880298284359,2.423389410859528,-9.570118751032384,2.4680789188063077,-9.04769529455635,2.5112320778587227,-8.51512973527082,2.553313088473698,-7.972927409957407,2.5947719525630117,-7.42157774127589,2.6360422541395314,-6.86155284644296,2.677538969398859,-6.293306213885856,2.719656315847005,-5.717271462678509,2.7627656500847446,-5.133861199567457,2.807213423859305,-4.543465988394992,2.8533192079940224,-3.946453446727034,2.9013737938066133,-3.3431674844930193,2.9516373816267127,-2.733927699445296,3.0043378660233135,-2.1190289442454446,3.059669227352758,-1.4987410799849066,3.1177900392379256,-0.873308930947367,3.1788221015892626,-0.24295245542028354,3.242849208778298,0.3921328526369994,3.3099160625742803,1.0317753162611645,3.380027339454606,1.6758261676813913,3.4531469218996507,2.3241583652370537,3.5291973032826744,2.9766651202091294,3.608059175965439,3.633258118757997,3.6895712122101676,4.293865424160116,3.773530047518513,4.958429044536258,3.859690476008171,5.626902151263806,3.947765867437772,6.2992459332657615,4.037428815490718,6.975426072368967,4.128312026928588,7.655408824924231,4.220009461224771,8.339156694880838,4.312077730288972,9.026623683508097,4.404037767893213,9.717750100956472,4.495376778410012,10.412456924850915,4.585550474473356,11.11063969110893,4.673985613173111,11.812161902176019,4.7600828403935385,12.516847937871042,4.843219852906548,13.224475454034092,4.922754887830314,13.934767254169474,4.9980305490639365,14.647382619276366,5.068377980308767,15.361908081059743,5.133121394287049,16.077847623714174,5.191582967768518,16.794612299473,5.243088112015608,17.511509243115583,5.2869711282579095,18.227730070625128,5.322581257806524,18.94233864718972,5.34928913641895,19.654258209739076,5.36649366252516,20.362257829209685,5.3736292889255095,21.064938197730903,5.370173747571111,21.76071672592452,5.355656217037336,22.284460334473494,5.355540534121896,22.794795714660182,5.347921225849504,23.29030505831971,5.332428541713934,23.769481355553488,5.308696828841841,24.23072593842509,5.276365073369369,24.6723460246561,5.235077441818774,25.092552261322027,5.184483822475029,25.489456268548118,5.124240366762445,25.861068183205276,5.054010030621286,26.20529420260592,4.973463115884381,26.519934128199836,4.882277811653737,26.802678909270078,4.780140735677159,27.05110818662881,4.666747475724858,27.262687836313198,4.54180313096607,27.434767513281287,4.405022853345674" fill="white" stroke="white" stroke-width="0" stroke-linejoin="round" filter="url(#fuzzy)"></polyline></g><g transform="translate(42.75274088045796 -20.102393448184564)"><polyline id="rightUpper" points="-24.595155849085824,3.241242772365161,-25.139078345227126,3.1324879114406476,-25.59938324884593,3.0107902397545585,-25.979243419958692,2.877435890315157,-26.281773903086037,2.7336607062760394,-26.51003219206156,2.580651109664817,-26.667018494840512,2.419544970111803,-26.75567599830856,2.2514324735787006,-26.778891133090525,2.077356991087287,-26.73949383835915,1.898315947448098,-26.64025782664382,1.7152616899891164,-26.4839008486393,1.529102357284457,-26.27308495801451,1.3407027478830522,-26.010416776221234,1.1508851890373384,-25.69844775730288,0.9604304054319419,-25.33967445270323,0.770078387912366,-24.936538776075167,0.5805292622136733,-24.49142826808943,0.39244415768917396,-24.00667636124335,0.20644607603911425,-23.484562644669595,0.02312076003935637,-22.927313128944924,-0.15698243772992715,-22.337100510898914,-0.33334968615557514,-21.71604443842272,-0.5055018068627533,-21.066211775277807,-0.6729934054862561,-20.38961686590469,-0.835412002941835,-19.688221800231688,-0.9923771666975032,-18.86034277258466,-1.2269434982669019,-18.001917911450747,-1.4511775157991327,-17.1155841525071,-1.6643018758570678,-16.203990088848187,-1.8656417324659085,-15.26978541384062,-2.054619998992938,-14.31561091947292,-2.230752697733303,-13.344089039494147,-2.3936443966609637,-12.357814926635157,-2.542983732803963,-11.359348053206347,-2.67853902170315,-10.351204324365733,-2.800153952413546,-9.335848693351195,-2.9077433675074413,-8.315688267970696,-3.001289127538443,-7.293065897644353,-3.0808360594255557,-6.270254230292144,-3.1464879882165064,-5.2494502283611535,-3.1984038516894024,-4.232770133286104,-3.2367938972519257,-3.222244867677091,-3.261915960597171,-2.2198158645283206,-3.274071825575314,-1.2273313127416623,-3.2736036647402242,-0.2465428082588872,-3.2608905600302007,0.7208975999035658,-3.2363451030419466,1.6734399794235273,-3.2004100743569843,2.6096387109517973,-3.153555201379599,3.528154321606893,-3.096273994145502,4.427754966391909,-3.029080658560363,5.307317568239688,-2.95250708652732,6.165828627392518,-2.8670999224226703,7.002384710822437,-2.7734177053788542,7.8161926323983835,-2.6720280868339046,8.606569334506268,-2.56350512280648,9.37294148182827,-2.4484266403556694,10.114844777987368,-2.327371677684696,10.831923015763387,-2.2009179973476627,11.52392687158667,-2.069639672018508,12.190712455015557,-1.9341047422813196,12.83223962390382,-1.7948729459011208,13.448570075964263,-1.6524935180343396,14.039865227434557,-1.5075030618380572,14.606383889551651,-1.360423488937208,15.148479753540688,-1.2117600292088717,15.666598694824778,-1.0619993093428324,16.161275907161734,-0.9116074996375021,16.63313287741394,-0.7610285284904208,17.082874211657447,-0.6106823640424288,17.51128432333661,-0.46096336243470226,17.919223994170277,-0.3122386821377603,18.307626818515782,-0.16484676381163688,18.67749554189695,-0.019095875156334152,19.029898304402057,0.1247372797882873,19.365964799658297,0.2664088874340127,19.68610496510788,0.40621516004562164,19.990223512057387,0.5444790888569635,20.278742182792662,0.6810311547070405,20.5520896591063,0.815713372196496,20.810700128436213,0.9483792172522709,21.05501185000426,1.0788935546922498,21.28546572095481,1.2071325657899026,21.502503842493393,1.3329836758389444,21.706568086025243,1.4563454817179688,21.898098659293943,1.5771276794551055,22.07753267252,1.6952509917926637,22.24530270453944,1.810647095751777,22.401835368942443,1.9232585501970596,22.547549880211896,2.0330387234012424,22.68285661986202,2.13995172060983,22.808155702576975,2.243972311605743,22.92383554234943,2.345085858273965,23.030271418619215,2.4432882421661954,23.127824042411845,2.53858579206549,23.216838122477178,2.630995211550915,23.297640931428035,2.720543506562187,23.37054087187869,2.8072679129643294,23.435826042583614,2.8912158241123116,23.49376280457595,2.9724447184156997" fill="none" stroke="black" stroke-width="1.6666666666666665" stroke-linejoin="round" filter="url(#fuzzy)"></polyline><polyline id="rightLower" points="-23.786606949747828,-1.0466303800538554,-24.47911945607236,-0.6781071126568134,-25.088233387688867,-0.3286090076297441,-25.617624004144652,0.002359224245815028,-26.070860614958743,0.31529196859273334,-26.45140812016396,0.6106825118403592,-26.76262855084889,0.8890228456266049,-27.007782609699884,1.1508034712000277,-27.190031211543097,1.396513203821907,-27.31243702388647,1.6266389771683318,-27.377966007461783,1.8416656477322721,-27.38948895676661,2.042075799225671,-27.34978304060638,2.2283495469815175,-27.26153334263635,2.400964342355927,-27.127334401903653,2.560394777130225,-26.949691753389267,2.707112387913031,-26.731023468550053,2.8415854605423325,-26.473661695860763,2.9642788344875703,-26.179854201356044,3.075653707251717,-25.851765909172435,3.17616743877336,-25.491480442090428,3.2662733558287815,-25.101001662076413,3.3464205564340377,-24.68225521082473,3.4170537142470407,-24.237090050299674,3.4786128829696414,-23.767280003277495,3.5315333007497074,-23.274525293888416,3.576245194583205,-22.648654993118488,3.627963000510053,-22.00069767282495,3.6695643545667025,-21.332541070004076,3.701513524637386,-20.645985238572994,3.724302039850365,-19.942746815629693,3.738443758489157,-19.22446308656705,3.744470200715778,-18.49269585412808,3.7429261404864294,-17.74893511648976,3.734365451040073,-16.994602559462805,3.719347198340314,-16.2310548678947,3.698431976851049,-15.459586861363306,3.6721784820262937,-14.681434459248429,3.6411403138946374,-13.89777748026865,3.605863006118758,-13.109742281570746,3.566881274910428,-12.318404242459053,3.524716482181452,-11.524790097852108,3.4798743073109706,-10.729880126553898,3.4328426219095594,-9.934610199427052,3.3840895619605718,-9.139873692555316,3.334061791719142,-8.346523270482633,3.2831829537493045,-7.555372544616189,3.231852299479645,-6.767197611880727,3.1804434946579385,-5.982738478711492,3.1293035940851883,-5.202700375473142,3.0787521800095226,-4.42775496639191,3.029080658560363,-3.6585414600884585,2.98055170860332,-2.895667625798626,2.9333988773962396,-2.1397107203695285,2.8878263174268297,-1.3912183311182407,2.844008658812324,-0.6507091396405063,2.8020910116415916,0.08132638834331374,2.762189092640153,0.8044253820175964,2.7243894705385143,1.5181520082888937,2.688749924524271,2.2220969733039997,2.6552999101584183,2.915877077581426,2.624041127136283,3.599134819668871,2.594948183273537,4.271538043239385,2.567969349097714,4.932779622538861,2.5430273974256665,5.582577181097584,2.5200205223073953,6.220672838618414,2.4988233317166992,6.84683298095435,2.479287908369069,7.460848048088067,2.4612449330472552,8.062532335026162,2.444504864814968,8.65172380052071,2.4288591724991164,9.228283878530831,2.4140816118210466,9.792097287336944,2.3999295425571954,10.343071831220296,2.386145280109608,10.88113818962059,2.3724574758667476,11.406249688684145,2.3585825207350335,11.918382050115497,2.344225966221545,12.418891001571346,2.329510557672035,12.909068812039784,2.314657708351453,13.388818598818315,2.2995142810925664,13.858051959136006,2.2839285141304777,14.316689651493057,2.2677507737228884,14.764662277000323,2.2508343067703827,15.20191096071887,2.2330359934366952,15.628388032999563,2.2142170997689874,16.04405771082254,2.1942440303181208,16.448896779136827,2.172989080758932,16.842895272199865,2.150331190510506,17.22605715491706,2.126156695356451,17.59840100418132,2.1003600800651707,17.959960690212625,2.072844731010141,18.310786057897577,2.0435236887901826,18.65094360812893,2.0123204008497337,18.98051717914515,1.9791694740991277,19.29960862786997,1.9440174275348632,19.608338511251933,1.906823444859882,19.906846767603945,1.8675601271038378,20.195293397942823,1.8262142452433774,20.473859147328838,1.7827874928224086,20.74274618620528,1.7372972385723773,21.002178791737997,1.6897772790325423" fill="none" stroke="black" stroke-width="2.2222222222222223" stroke-linejoin="round" filter="url(#fuzzy)"></polyline><!--[--><circle r="3.8583427788621325" cx="5.094267123355077" cy="3.0672343812033507" stroke="black" fill="none" stroke-width="1" filter="url(#fuzzy)" clip-path="url(#rightEyeClipPath)"></circle><circle r="4.022579236857966" cx="4.125905280560568" cy="3.3998554196974506" stroke="black" fill="none" stroke-width="1" filter="url(#fuzzy)" clip-path="url(#rightEyeClipPath)"></circle><circle r="4.88124011020552" cx="4.587832339030476" cy="1.3582315723985374" stroke="black" fill="none" stroke-width="1" filter="url(#fuzzy)" clip-path="url(#rightEyeClipPath)"></circle><circle r="4.326418186854252" cx="3.628732818785867" cy="-0.2871367745283795" stroke="black" fill="none" stroke-width="1" filter="url(#fuzzy)" clip-path="url(#rightEyeClipPath)"></circle><circle r="4.384749905636909" cx="3.6995186546207925" cy="2.977617820201541" stroke="black" fill="none" stroke-width="1" filter="url(#fuzzy)" clip-path="url(#rightEyeClipPath)"></circle><circle r="4.716653145866117" cx="5.489238322312677" cy="0.5934209319118526" stroke="black" fill="none" stroke-width="1" filter="url(#fuzzy)" clip-path="url(#rightEyeClipPath)"></circle><circle r="4.99818968704289" cx="2.1661684030101753" cy="0.8727241709317113" stroke="black" fill="none" stroke-width="1" filter="url(#fuzzy)" clip-path="url(#rightEyeClipPath)"></circle><circle r="3.9051898290848577" cx="5.429765042146739" cy="0.25534287337120576" stroke="black" fill="none" stroke-width="1" filter="url(#fuzzy)" clip-path="url(#rightEyeClipPath)"></circle><circle r="3.289765021812432" cx="2.337174433133433" cy="0.32949048554646243" stroke="black" fill="none" stroke-width="1" filter="url(#fuzzy)" clip-path="url(#rightEyeClipPath)"></circle><circle r="3.0828085549054354" cx="5.950724139798126" cy="2.0754785495693664" stroke="black" fill="none" stroke-width="1" filter="url(#fuzzy)" clip-path="url(#rightEyeClipPath)"></circle><!--]--></g><g transform="translate(-34.74423002130923 -25.793624453223007)"><polyline id="leftUpper" points="25.69698654880726,4.913567725181719,26.096416928481595,4.79581908147852,26.420695974817356,4.663659674751948,26.672776342605644,4.518235076434473,26.855552238332713,4.360656404901373,26.971859807218124,4.192000766380426,27.024477520252894,4.013311695861578,27.01612656123752,3.8255995980066446,26.949471213820196,3.6298421880589826,26.827119248534842,3.426984932753175,26.65162230983931,3.217941491224719,26.425476303153403,3.0035941559197057,26.151121781897075,2.7847942935045036,25.830944334528482,2.5623627857754476,25.467274971582157,2.337090470568514,25.06239051270707,2.109738582669012,24.618513973704786,1.8810391947212626,24.137814953567563,1.6516956581382818,23.62241002151645,1.4223830440114682,23.074363104039456,1.193748584020284,22.495685871929616,0.9664121113419348,21.88833812732311,0.7409665015610649,21.25422819073742,0.5179781135794279,20.5952132881094,0.29798723052557463,19.913099937833415,0.0815085006645404,19.209644337799464,-0.13096862169247636,18.37867616598129,-0.4164225282520402,17.521643606772876,-0.6953030158159059,16.64092821993976,-0.9665827291165723,15.738908647239278,-1.2293015596066272,14.817952689459998,-1.4825669871400802,13.880409801651757,-1.7255542523846454,12.928603998685858,-1.9575063647695714,11.964827163284792,-2.1777339507736926,10.991332748660895,-2.38561494735832,10.010329867903407,-2.5805941453496146,9.023977762253294,-2.762182587575067,8.034380640405317,-2.9299568265587563,7.043582880976714,-3.0835580465799772,6.0535645902819395,-3.2226910548999044,5.066237507552899,-3.3471231469609286,4.083441249744061,-3.4566828503632827,3.1069398880618913,-3.5512585524236098,2.1384188483580484,-3.6307970161201233,1.1794821275256995,-3.695301789228953,0.23164981803845563,-3.7448315114563755,-0.703644067228721,-3.779498124371486,-1.6250534777571737,-3.7994649889440453,-2.5313219235813715,-3.8049449154920545,-3.4212837967854526,-3.796198110843722,-4.293865424160115,-3.7735300475185127,-5.148085858880368,-3.7372892597317886,-5.983057419064767,-3.687865071027856,-6.797985981076733,-3.6256852583458645,-7.592171035428477,-3.55121365732335,-8.365005513148121,-3.4649477136419975,-9.115975390470668,-3.3674159852201946,-9.844659079713269,-3.2591756000571657,-10.550726614195538,-3.1408096745331804,-11.233938635065291,-3.0129246969705488,-11.894145187890457,-2.876147881260014,-12.531284336877677,-2.731124495357177,-13.145380604578174,-2.578515169453631,-13.736543244941421,-2.4189931886273826,-14.30496435757731,-2.2532417747772318,-14.850916851087272,-2.0819513626457375,-15.374752263325002,-1.9058168747354216,-15.876898446447354,-1.725534999922818,-16.35785712461599,-1.5418014805750442,-16.8182013322103,-1.3553084129734776,-17.258572740412333,-1.1667415658492386,-17.67967888002405,-0.9767777218350622,-18.08229026837781,-0.7860820466382217,-18.467237448200407,-0.5953054907391468,-18.83540794629127,-0.4050822284203379,-19.18774315987565,-0.21602713893028191,-19.524783370335577,-0.02755592650955574,-19.84663571528999,0.16108442577836346,-20.153636285225595,0.34955661121627557,-20.446128204515873,0.5375352129562252,-20.724460578664917,0.7247073474976604,-20.988987441551224,0.9107733081656102,-21.240066702671605,1.0954472085888227,-21.478059094384996,1.2784576261779428,-21.703327119156235,1.4595482456036644,-21.91623399680001,1.638478502274893,-22.117142611724603,1.8150242258169094,-22.306414460175766,1.9889782835495282,-22.484408597480552,2.1601512239652525,-22.651480585291175,2.328371920207447,-22.807981438828797,2.493488213548491,-22.954256574127406,2.6553675568679385,-23.090644755277644,2.8138976581306836,-23.217477041670655,2.968987123865114,-23.335075735241894,3.1205661026412788,-23.443753327714965,3.268586928549051,-23.543811447845513,3.413024764676276,-23.635539808664987,3.5538782465869474,-23.719215154724516,3.691170125799355,-23.79510020933877,3.8249479132642525" fill="none" stroke="black" stroke-width="2.2222222222222223" stroke-linejoin="round" filter="url(#fuzzy)"></polyline><polyline id="leftLower" points="26.311974281886897,2.3318487681895013,26.707988204251322,2.600056322537997,27.031066157219144,2.854251468988954,27.285155793350732,3.0945887521273097,27.474063981086054,3.3212381830797897,27.60145926104876,3.5343846981382843,27.670874302350363,3.7342276173832416,27.68570835889433,3.9209801033070524,27.64922972568023,4.0948686194374275,27.564578195107828,4.256132388960793,27.434767513281287,4.405022853345674,27.262687836313198,4.54180313096607,27.05110818662881,4.666747475724858,26.802678909270078,4.780140735677159,26.519934128199836,4.882277811653737,26.20529420260592,4.973463115884381,25.861068183205276,5.054010030621286,25.489456268548118,5.124240366762445,25.092552261322027,5.184483822475029,24.6723460246561,5.235077441818774,24.23072593842509,5.276365073369369,23.769481355553488,5.308696828841841,23.29030505831971,5.332428541713934,22.794795714660182,5.347921225849504,22.284460334473494,5.355540534121896,21.76071672592452,5.355656217037336,21.064938197730903,5.370173747571111,20.362257829209685,5.3736292889255095,19.654258209739076,5.36649366252516,18.94233864718972,5.34928913641895,18.227730070625128,5.322581257806524,17.511509243115583,5.2869711282579095,16.794612299473,5.243088112015608,16.077847623714174,5.191582967768518,15.361908081059743,5.133121394287049,14.647382619276366,5.068377980308767,13.934767254169474,4.9980305490639365,13.224475454034092,4.922754887830314,12.516847937871042,4.843219852906548,11.812161902176019,4.7600828403935385,11.11063969110893,4.673985613173111,10.412456924850915,4.585550474473356,9.717750100956472,4.495376778410012,9.026623683508097,4.404037767893213,8.339156694880838,4.312077730288972,7.655408824924231,4.220009461224771,6.975426072368967,4.128312026928588,6.2992459332657615,4.037428815490718,5.626902151263806,3.947765867437772,4.958429044536258,3.859690476008171,4.293865424160116,3.773530047518513,3.633258118757997,3.6895712122101676,2.9766651202091294,3.608059175965439,2.3241583652370537,3.5291973032826744,1.6758261676813913,3.4531469218996507,1.0317753162611645,3.380027339454606,0.3921328526369994,3.3099160625742803,-0.24295245542028354,3.242849208778298,-0.873308930947367,3.1788221015892626,-1.4987410799849066,3.1177900392379256,-2.1190289442454446,3.059669227352758,-2.733927699445296,3.0043378660233135,-3.3431674844930193,2.9516373816267127,-3.946453446727034,2.9013737938066133,-4.543465988394992,2.8533192079940224,-5.133861199567457,2.807213423859305,-5.717271462678509,2.7627656500847446,-6.293306213885856,2.719656315847005,-6.86155284644296,2.677538969398859,-7.42157774127589,2.6360422541395314,-7.972927409957407,2.5947719525630117,-8.51512973527082,2.553313088473698,-9.04769529455635,2.5112320778587227,-9.570118751032384,2.4680789188063077,-10.081880298284359,2.423389410859528,-10.582447143113862,2.3766873941948017,-11.07345948675779,2.3281105705555305,-11.556707007774898,2.27793873138749,-12.031874928708602,2.2259036562578487,-12.49865357501592,2.171741387861119,-12.956740358203541,2.115193519159072,-13.405841758963964,2.056008480520674,-13.845675310311597,1.9939428268620114,-14.275971580718915,1.9287625247862223,-14.696476157252507,1.8602442397234178,-15.106951628709274,1.7881766230706155,-15.50717956875245,1.7123615993316683,-15.896962519047838,1.6326156532571874,-16.276125972399797,1.5487711169844722,-16.64452035588745,1.460677457177443,-17.00202301400077,1.3682025621665614,-17.348540191776685,1.271234029088764,-17.684009017935203,1.1696804510273857,-18.008399488015556,1.0634727041520948,-18.32171644751225,0.9525652348588132,-18.624001575011256,0.8369373469096493,-18.915335365326072,0.716594488572821,-19.195839112633863,0.5915695397625944,-19.465676893611572,0.46192409917919797,-19.72505755057204,0.32774977144875983" fill="none" stroke="black" stroke-width="2.2222222222222223" stroke-linejoin="round" filter="url(#fuzzy)"></polyline><!--[--><circle r="4.794844455352414" cx="-1.841290150134009" cy="-0.44059545054129634" stroke="black" fill="none" stroke-width="1" filter="url(#fuzzy)" clip-path="url(#leftEyeClipPath)"></circle><circle r="3.6406772837264247" cx="-4.864336429705796" cy="-0.8121628385832158" stroke="black" fill="none" stroke-width="1" filter="url(#fuzzy)" clip-path="url(#leftEyeClipPath)"></circle><circle r="3.1122192574233063" cx="-2.1934351126307314" cy="-1.9418310532132201" stroke="black" fill="none" stroke-width="1" filter="url(#fuzzy)" clip-path="url(#leftEyeClipPath)"></circle><circle r="3.963610848150643" cx="-2.5745460976740144" cy="-1.3193619675357826" stroke="black" fill="none" stroke-width="1" filter="url(#fuzzy)" clip-path="url(#leftEyeClipPath)"></circle><circle r="4.215948197359188" cx="-4.87379929132849" cy="-0.5559738670024807" stroke="black" fill="none" stroke-width="1" filter="url(#fuzzy)" clip-path="url(#leftEyeClipPath)"></circle><circle r="3.0513215109364644" cx="-2.7511725414551536" cy="1.3903281377122978" stroke="black" fill="none" stroke-width="1" filter="url(#fuzzy)" clip-path="url(#leftEyeClipPath)"></circle><circle r="4.847536493697044" cx="-6.125158656096493" cy="-0.11600193542120163" stroke="black" fill="none" stroke-width="1" filter="url(#fuzzy)" clip-path="url(#leftEyeClipPath)"></circle><circle r="4.8849114537189955" cx="-6.097273534624632" cy="0.6141549122642469" stroke="black" fill="none" stroke-width="1" filter="url(#fuzzy)" clip-path="url(#leftEyeClipPath)"></circle><circle r="3.864200690689405" cx="-5.440251765455328" cy="-0.3567452255433059" stroke="black" fill="none" stroke-width="1" filter="url(#fuzzy)" clip-path="url(#leftEyeClipPath)"></circle><circle r="3.154626524647844" cx="-3.9831800954979544" cy="0.3493351628337771" stroke="black" fill="none" stroke-width="1" filter="url(#fuzzy)" clip-path="url(#leftEyeClipPath)"></circle><!--]--></g><g id="hairs"><!--[--><polyline points="-14,-79,-12.070508087137602,-79.20319283761728,-10.157181672698346,-79.42437007842688,-8.098007883548341,-79.480771705535,-5.818776658856541,-79.39166006043209,-3.379813981132269,-79.19397530959537,-0.8509641841202003,-78.91323492100256,1.7443442480280211,-78.58168739875642,4.407873643666637,-78.2418669798969,7.131864547729492,-77.92707061767578,9.890505750421156,-77.64161227046233,12.650845985616343,-77.3620909373076,15.37873192693568,-77.05944091236056,18.033791109290153,-76.72298001744318,20.570646046914153,-76.36756343054532,22.95244097411972,-76.02145482875922,25.14112265862145,-75.70773892028966,27.068289931855336,-75.41982193755035" fill="none" stroke="rgb(185, 55, 55)" stroke-width="2" stroke-linejoin="round" filter="url(#fuzzy)"></polyline><polyline points="-10,-80,-8.054136836187135,-79.9796416043278,-6.23895770001876,-79.88896236830007,-4.5180768065958175,-79.61842816526381,-2.704187586285422,-79.18276208276473,-0.6821792363558821,-78.6559022339659,1.5605068151671335,-78.08314386179151,3.9884765451578117,-77.46407589364742,6.563803957119492,-76.77622071688559,9.257267338696431,-76.00000592014783,12.04296420011671,-75.12907273127779,14.895885130452886,-74.16953351295217,17.795428268913884,-73.13654627043204,20.727064032966048,-72.0520004717246,23.677535176730558,-70.94227725595148,26.628183031867394,-69.83374257746645,29.55446741439564,-68.74492057181777,32.433514832888775,-67.67745083680241,35.251784636071704,-66.61332778640275,38.00127609181731,-65.53029685811615,40.658268497688375,-64.44268850826404,43.14576121136384,-63.46150922442169,45.29539528413953,-62.85758802218999" fill="none" stroke="rgb(185, 55, 55)" stroke-width="2" stroke-linejoin="round" filter="url(#fuzzy)"></polyline><polyline points="-26,-75,-25.02238113537418,-75.29964233985241,-23.32526793760377,-75.78719089980181,-21.661992084971434,-76.18164045680443,-19.99449323917729,-76.49015377298166,-18.155269971734647,-76.77919312328555,-16.077112824379917,-77.08080187714816,-13.792923380377642,-77.39187367275758,-11.38964631998666,-77.69723793116549,-8.97196175292587,-77.98520608159038,-6.630705278825235,-78.25235010151485,-4.414413664640299,-78.5024588754042,-2.3186277589623225,-78.74250179876701,-0.30405470301903925,-78.97712834343348,1.6652745001323188,-79.20532805712372,3.5869971445967153,-79.4227975681057,5.407628317949009,-79.6271608732676,7.038535719995934,-79.81703931334187,8.400683996850466,-79.98488980893677,9.477252213123819,-80.13237322453865,10.24127170200436,-80.35660545573208" fill="none" stroke="rgb(185, 55, 55)" stroke-width="2" stroke-linejoin="round" filter="url(#fuzzy)"></polyline><polyline points="-28,-74,-27.230540845344063,-74.02908845504567,-26.017870692876667,-74.18729148738791,-24.041872355236144,-74.42849997428449,-21.40815809778636,-74.67331055853587,-18.320712374776356,-74.85077231361596,-14.935841327009808,-74.91996364608032,-11.306724058881805,-74.88482880147599,-7.41752847618786,-74.781160532099,-3.253173645730456,-74.64740523951261,1.1548017179203605,-74.50593430073408,5.724613616680312,-74.3653828860011,10.349153668768716,-74.23022004382791,14.934392211485662,-74.09786586530166,19.438529926091547,-73.94575124323342,23.872785474929437,-73.73815814338698,28.186799942018023,-73.45684724122992" fill="none" stroke="rgb(185, 55, 55)" stroke-width="2" stroke-linejoin="round" filter="url(#fuzzy)"></polyline><polyline points="-34,-70,-32.98073467721102,-70.82998508039024,-31.82008551353325,-71.37609598293257,-30.34982868448756,-71.89678052394936,-28.55333707639804,-72.51545332156871,-26.553756143204453,-73.18918565323948,-24.46025067001351,-73.85066216563901,-22.30494305965418,-74.47408510245297,-20.07571280900222,-75.0661615906593,-17.769764257659308,-75.63715576110474,-15.414602134905756,-76.18650937268382,-13.052377104759216,-76.70748043060303,-10.714312038888899,-77.19809747173657,-8.411166369796035,-77.66502120942391,-6.14516726652757,-78.11732400915785,-3.9308591923540366,-78.55801755088049,-1.8111000950891976,-78.98249545401058,0.13657536871961806,-79.38433172067236,1.8078568627013896,-79.76088477050686,3.110690216736718,-80.1147288234609,4.043150632766997,-80.4532301918465,4.725048863763904,-80.76987940076839" fill="none" stroke="rgb(185, 55, 55)" stroke-width="2" stroke-linejoin="round" filter="url(#fuzzy)"></polyline><polyline points="4,-81,5.270257489836215,-80.9326938270981,6.842480327831487,-80.70382386671001,8.61998750077618,-80.33619905709092,10.549328030634404,-79.88529095652612,12.54688648245532,-79.3824835256024,14.556020723195077,-78.83532881338641,16.562445525991222,-78.242725989554,18.56812540564193,-77.60619377004822,20.562427911967667,-76.93749886496916,22.516582817380577,-76.26064039112485,24.39656366941645,-75.60553136030019,26.172023998510635,-74.9984833986167,27.80999581726571,-74.45945855029316,29.26743369518804,-74.00787198262356,30.503834205076565,-73.66426606145556,31.503388584183675,-73.43529847019782,32.245390392784614,-73.29569436736024,32.56144665995441,-73.19698400569376" fill="none" stroke="rgb(185, 55, 55)" stroke-width="2" stroke-linejoin="round" filter="url(#fuzzy)"></polyline><polyline points="25,-77,25.41786382063975,-76.734842579552,26.40444918378963,-76.28856564087971,27.48580126537849,-75.85055135470897,28.38625318973533,-75.4657208233743,29.070214656490386,-75.13339966016596,29.600486137272636,-74.83754306859194,30.02888241413711,-74.5672255300162,30.364835366180216,-74.32420941822139,30.585102205833557,-74.11954226977537,30.652295420990722,-73.9661970065475,30.53083872795105,-73.87395334243774,30.19519916032578,-73.84995962917476,29.625781526834853,-73.90435412799806,28.795446272143177,-74.05572019477782,27.66017198429448,-74.32990763594933,26.16668367642646,-74.7513507358841,24.272560242088478,-75.33491190229853,21.95517534871034,-76.08705685379275,19.190817274814663,-77.01021178227899,15.921039307249977,-78.09216235272362,12.022762617748542,-79.31934874842965" fill="none" stroke="rgb(185, 55, 55)" stroke-width="2" stroke-linejoin="round" filter="url(#fuzzy)"></polyline><polyline points="-28,-74,-26.37587733327696,-74.68651914155421,-24.6102132691314,-75.19022634694565,-22.649038750541596,-75.61265477668947,-20.64290482090675,-75.9314687062749,-18.565295027317667,-76.17127385229054,-16.31374182735119,-76.37640589981733,-13.827877588064286,-76.57212275202632,-11.121136288516134,-76.7599762341957,-8.26039286604719,-76.93105787873526,-5.332386283087096,-77.07704909464314,-2.4113222725243695,-77.19369660623363,0.4651682987241905,-77.28100644874556,3.2992044419740676,-77.34397578018948,6.107217609600254,-77.39294740874408,8.880915022856055,-77.44106030717697,11.569810416571151,-77.49945052192892,14.105875792536676,-77.57357425250682,16.440532005728695,-77.6593235415472,18.546761466166803,-77.72445106125427,20.48013453418875,-77.64331042267241" fill="none" stroke="rgb(185, 55, 55)" stroke-width="2" stroke-linejoin="round" filter="url(#fuzzy)"></polyline><polyline points="-20,-77,-18.21106507532575,-77.4975628603647,-15.881484673471503,-77.44698645361579,-12.936100258971653,-77.11487006832726,-9.624636629442081,-76.55718007610527,-6.026067862404669,-75.76739410651051,-2.053558367420413,-74.76134261736735,2.3904643391730893,-73.58052980153818,7.314242391617995,-72.26542891158662,12.640617066201086,-70.84335915379589,18.265706974521933,-69.33261813367852,24.10904610400115,-67.73614275642565,30.131134190714885,-66.01646133134622,36.331452790443436,-64.09411568175132,42.783969475345806,-61.88426012088994" fill="none" stroke="rgb(185, 55, 55)" stroke-width="2" stroke-linejoin="round" filter="url(#fuzzy)"></polyline><polyline points="-27,-74,-26.82864024485297,-74.19989763371629,-25.26969699431772,-74.49156832969373,-22.883921879086824,-74.71696761950824,-19.996904070088878,-74.82098177549676,-16.80656702622327,-74.78498074865742,-13.353399368934504,-74.63379224414734,-9.59172747796039,-74.41200696311616,-5.48759581089061,-74.15134310064032,-1.060808239698055,-73.85609858322292,3.6298455891763837,-73.50806120679755,8.514353499409973,-73.07990659295004,13.523907829028092,-72.54997229605684,18.595198594693688,-71.91926739601246,23.68384858402186,-71.22954937476624,28.790634612955056,-70.5567933606921,34.035898405996136,-69.91374859281015" fill="none" stroke="rgb(185, 55, 55)" stroke-width="2" stroke-linejoin="round" filter="url(#fuzzy)"></polyline><polyline points="-13,-79,-13.039279269063362,-79.04477521587111,-12.229324456981473,-79.20168645549428,-11.324442437363262,-79.3377698258653,-10.546239716979342,-79.35581801345202,-9.977314546840281,-79.22610892820661,-9.683091849455929,-78.94438973669898,-9.703691260763293,-78.51606330231843,-10.042719248075354,-77.95624546987993,-10.68551811813089,-77.28262348820726,-11.625984739907395,-76.49989347992909,-12.878920674324036,-75.58940505981445,-14.47486488241801,-74.51390922765393,-16.44859916108333,-73.23391692374693,-18.831513353895698,-71.72271244754046,-21.649137030485143,-69.9689076793213,-24.920086312380384,-67.96694942693156,-28.654788183898013,-65.70891632481676,-32.85473257972238,-63.19365913209215,-37.5113914378209,-60.45064649942394,-42.60909297846106,-57.53618876649747,-48.14120372536426,-54.443255010328784" fill="none" stroke="rgb(185, 55, 55)" stroke-width="2" stroke-linejoin="round" filter="url(#fuzzy)"></polyline><polyline points="63,-38,62.83314999892614,-36.64825929538936,62.39832929922966,-36.029416075993986,61.71175665404193,-35.83742668874331,60.66804786521243,-36.06266514910385,59.15095519787622,-36.773152457488024,57.097253242287714,-37.98651569404009,54.48022949062566,-39.68493953358818,51.272193908691406,-41.864349365234375,47.43251934226535,-44.553187184054885,42.924520119696055,-47.79916392947074,37.73801169705176,-51.6452877059965,31.89236448513111,-56.1143633951433,25.402907177411507,-61.21724055567534,18.196463630611376,-66.99245984142897,9.96564433311822,-73.54922860356778" fill="none" stroke="rgb(185, 55, 55)" stroke-width="2" stroke-linejoin="round" filter="url(#fuzzy)"></polyline><polyline points="-37,-68,-35.92233982063738,-69.27588054255826,-34.628528366861616,-69.9267235278101,-33.1637703451774,-70.4560569264604,-31.5515248141595,-70.99551590478985,-29.7780950864586,-71.5699252057073,-27.82771906586023,-72.19379403661588,-25.72010726643911,-72.86870671275591,-23.507037919238876,-73.5740862618068,-21.23928866667412,-74.27958896247296,-18.942366359687572,-74.9633258336552,-16.62211700623367,-75.61797125531272,-14.28895801574862,-76.2437807518821,-11.974542041806355,-76.8394890888635,-9.726052620019747,-77.40063041216257,-7.5864091312487645,-77.92516680713263,-5.581150407155853,-78.41851558749713,-3.7235307933953035,-78.89102951710663,-2.0284115318668388,-79.34923179357733,-0.516618189522883,-79.78859112586531,0.7932482163399373,-80.19295098661573,1.8958302415897283,-80.53913342472623,2.8517661904715568,-80.8068127669521" fill="none" stroke="rgb(185, 55, 55)" stroke-width="2" stroke-linejoin="round" filter="url(#fuzzy)"></polyline><polyline points="-28,-74,-26.53189224686048,-74.70078297170512,-25.226325738287596,-75.23908544548486,-24.028009141752765,-75.70010204475604,-23.094806913862783,-76.03956454085194,-22.40780683940625,-76.26115967367946,-21.86564711607537,-76.39657184373718,-21.404699996683288,-76.46373479627285,-21.03610604078279,-76.4554526174269,-20.829321300426898,-76.34961050969711,-20.879149913787842,-76.12161779403687,-21.270158579547044,-75.75079043531287,-22.046894907061613,-75.22273106438722,-23.20575365211016,-74.52941984498135,-24.71972149051219,-73.66301598555407,-26.581899102174475,-72.60159675769523,-28.830694951361107,-71.29915134485766,-31.53344748825994,-69.70060576842855,-34.755271004919635,-67.77982689993617,-38.55959967495002,-65.55123419073844" fill="none" stroke="rgb(185, 55, 55)" stroke-width="2" stroke-linejoin="round" filter="url(#fuzzy)"></polyline><polyline points="-57,-47,-12.416953274517025,-57.836349986185624,12.949736661860067,-58.66161377208395,20.27251531509381,-60.74524378247747,16.529455613448846,-63.17297815134564,7.969977911722438,-64.87008656438505,-0.08791617758067005,-65.38742728988592,-4.709821251612195,-64.63423493205399,-5.891362960435049,-62.91437537639198,-5.535117307991198,-60.95707438761787,-5.772357567431925,-59.67748444676431,-7.678598003095222,-59.7397782005433,-10.888456404209137,-61.20853114128113,-14.039301783436942,-63.53836923166298,-15.609627300973385,-65.92034425666854,-14.643185105433748,-67.75482187795343,-11.051588952981133,-68.93494909974744,-5.5019138185015235,-69.75562455706053,0.9472927544475702,-70.5145247901342,7.396468540069655,-71.09161845447024,13.782501479706815,-70.87856576361656,21.010280584809028,-69.334440442154,29.26283649702014,-67.02384855484051,36.35930095150657,-65.43849030020756,51,-58" fill="none" stroke="rgb(185, 55, 55)" stroke-width="2" stroke-linejoin="round" filter="url(#fuzzy)"></polyline><polyline points="-56,-49,-30.468847618411655,-63.263275951115055,-18.64944258183272,-67.22850239380516,-4.1082053762524104,-69.76787316598292,9.40051190139136,-70.56657044387198,17.689079931245463,-69.53595279387724,19.63735131726605,-67.41991678968748,16.395421133666,-65.2880321890045,10.324353854641052,-64.00977354386485,4.4261016845703125,-63.73470687866211,1.6331805349013175,-63.770292870221404,3.6211315320616415,-63.106553603344345,9.86254449748526,-61.23658268626058,18.05640010881399,-58.61075792552541,26.02638081544643,-56.37133905845541,33.3236820146287,-55.58457365390528,40.352461259041796,-56.450501853613126,45.72973240637199,-58.34903247946326,42,-67" fill="none" stroke="rgb(185, 55, 55)" stroke-width="2" stroke-linejoin="round" filter="url(#fuzzy)"></polyline><polyline points="-23,-76,-0.22848493574274303,-76.28853004179406,9.234388357252424,-74.61229406910698,15.736866973732086,-73.48749625871311,20.369615440135686,-72.42372337318581,24.208350706552665,-70.38011253978311,26.655328986757826,-67.5787419516899,25.820281400616835,-65.06638325809085,20.754158293155914,-63.68091627336104,12.942195769202968,-63.63927403494967,5.719038009643555,-64.71938610076904,2.1476833567118367,-66.4959096868231,2.999821327935282,-68.40198112566756,6.283415165990547,-69.83653681394512,8.638202500684748,-70.52518221531108,7.773575589961183,-70.8860514023354,4.5968555826778665,-71.81427197967517,3.507839778674354,-73.69712000607451,9.060156993219627,-75.62296622758845,18.22058886887119,-76.6307218624292,13,-80" fill="none" stroke="rgb(185, 55, 55)" stroke-width="2" stroke-linejoin="round" filter="url(#fuzzy)"></polyline><polyline points="35,-72,22.910186009134687,-72.83714345978547,10.94218035676344,-67.95529144770737,4.701348822428419,-63.62704462684871,6.547533390682944,-61.37724452624904,11.544062810408645,-61.17705750215423,15.089424355949973,-62.18644102780716,15.299334459092828,-63.498118680698035,12.007054988306246,-64.78932923267703,6.039604911498439,-66.2293632153615,-0.8862940116549853,-67.88073744575583,-6.702759637045579,-69.3030176341937,-9.718382416485388,-69.75568738293107,-8.23737573527641,-68.8258822160758,0.5072666582747503,-66.88507150535305,18.56205092463054,-64.59906293059986,40.71455076201555,-60.99863225580209,56,-51" fill="none" stroke="rgb(185, 55, 55)" stroke-width="2" stroke-linejoin="round" filter="url(#fuzzy)"></polyline><polyline points="17,-79,-10.621103196207782,-72.85029957671904,-19.672053677414045,-70.3924561316774,-25.838506839662212,-68.72588975772271,-29.626573831156634,-67.86368781451895,-31.09688220997505,-67.50262763194176,-30.48879368029038,-67.38662529654692,-28.16901350954034,-67.35769918770988,-24.890373493271802,-67.28386180335184,-21.51459363404453,-67.15220045571623,-18.398936026848993,-67.14723208962288,-15.154102253688917,-67.50753396535234,-10.991538224614986,-68.1916101810713,-5.227873886144068,-68.58510949897908,2.455199350214319,-67.5798394862322,11.60787893914221,-64.34740575983008,19.6172504728654,-59.81683967449649,20.59959544023837,-57.891473777301755,12.766187880630003,-63.622618662817096,32,-73" fill="none" stroke="rgb(185, 55, 55)" stroke-width="2" stroke-linejoin="round" filter="url(#fuzzy)"></polyline><polyline points="-56,-48,-38.49409369020341,-56.94932995315225,-23.279361735520816,-63.212849023932925,-16.971106420949006,-65.73651028898617,-14.811784565276932,-66.49618719293723,-11.386484071574243,-66.44583291256961,-3.4109815125442497,-65.70389612829081,8.515750338298846,-64.36181137733546,21.02038713592861,-62.71238855718908,31.040057780371455,-60.77524409263719,37.73350597366058,-58.02589395833426,41.175573146187276,-54.24271164065604,39.19638152950579,-51.10834909072589,26.89666512171202,-52.879344896387,4.66141228009155,-64.18668907942774,3,-81" fill="none" stroke="rgb(185, 55, 55)" stroke-width="2" stroke-linejoin="round" filter="url(#fuzzy)"></polyline><polyline points="-18,-78,-0.21365327232011516,-70.71476077546164,15.751414550611177,-60.54336333526279,17.76799089193045,-55.58094733059629,14.534516063483984,-55.27906603492558,11.548607916664228,-57.07230893945089,9.77356860704045,-59.410075712381285,9.198226359731901,-61.866015689231624,9.829336846805361,-64.44636432423762,11.092956814717217,-67.09431260724902,11.845622439988134,-69.5365224211512,11.326693851568304,-71.35124518087355,10.016018804719732,-72.13355198631953,9.464341514766382,-71.68315953351234,11.117860952975425,-70.1677145404691,15.042472967605674,-68.19318965348684,19.642927967291037,-66.66770442838869,22.77128690080708,-66.3670020918787,23.35820410059378,-67.29423371496813,21.85186327610936,-68.21859579392704,18.68728082525828,-66.86654650034748,13.55973440900561,-60.77470894955572,13.651883713674684,-48.03008966516229,66,-27" fill="none" stroke="rgb(185, 55, 55)" stroke-width="2" stroke-linejoin="round" filter="url(#fuzzy)"></polyline><polyline points="-26,-75,-7.870478211365857,-78.41769133117008,-0.7049721711008986,-77.12089611597864,1.5721035776529735,-72.98209424621153,2.702284887375499,-68.75248586489377,3.2518340933921026,-66.02023644449208,3.2869072494593676,-64.91529995697081,3.3141382787003995,-64.92494054396931,3.6557279808218412,-65.53077952562627,4.521150687390719,-66.33095077261189,6.638334725739845,-66.9128869647902,10.66082293823844,-66.78925278253435,15.026839560149357,-65.54877098206009,14.643510096137081,-63.183302941650595,3.448571468588913,-60.37113038535187,-18.860146606408854,-58.40581296350379,-41.029292260884034,-58.28911517883826,-50,-57" fill="none" stroke="rgb(185, 55, 55)" stroke-width="2" stroke-linejoin="round" filter="url(#fuzzy)"></polyline><polyline points="-4,-80,0.19798907538930705,-78.14019960211229,-0.8166388280049524,-74.11421463463881,0.26255748038200244,-68.72514056908011,9.207245355389075,-62.48642722309235,21.871146519936,-56.990626275217885,31.171123336791805,-54.1659963970459,32.94555810842797,-54.883516164453084,27.57852404992943,-58.3678588856702,18.661750448378147,-62.75482203153983,10.510079648023396,-66.23032113609685,5.967602447942681,-67.91335762043725,5.395859855154681,-67.97787923695988,7.052395697503912,-67.13223022603967,8.497369579382235,-66.04869233876234,8.537410601573306,-65.29626002593463,9.100738921797161,-65.68313027204287,15.067488612327057,-67.9591681660794,28.499300892723554,-70.46454222068263,44,-66" fill="none" stroke="rgb(185, 55, 55)" stroke-width="2" stroke-linejoin="round" filter="url(#fuzzy)"></polyline><polyline points="12,-80,-0.6525625745462093,-61.634959910130064,19.26217325325328,-55.55460891960853,30.662879084201332,-56.508988545595585,29.820681520252045,-60.86329156036448,22.35991153469713,-65.75633846321193,13.555487520681012,-69.23763077387437,6.174234192194216,-70.41751230840035,1.1719541726800535,-69.38434941787095,-1.462856421499795,-66.92147582280903,-2.362125178378344,-64.08806131168436,-2.394270980398544,-61.77863224019036,-1.987642526626587,-60.41249722242355,-0.6988871289786759,-59.86851472251234,2.328351776695623,-59.68394511510519,7.171390211133086,-59.41793842204134,12.25668564813467,-58.98586099310733,14.881937978060234,-58.75736798408984,13.151291896763027,-59.31386716024774,8.012420775412147,-60.933704318005375,3.6810742737710105,-63.0207309637623,5.82575592425523,-63.83418283097893,18.301098125116482,-61.28364741582614,37.67079220710562,-56.82753505624291,39,-69" fill="none" stroke="rgb(185, 55, 55)" stroke-width="2" stroke-linejoin="round" filter="url(#fuzzy)"></polyline><polyline points="49,-60,42.29635440041064,-56.910998236710036,28.754911917672334,-60.42501352105124,18.889515526089294,-62.69736767484208,14.365014905342832,-63.968635505763814,13.771995919474152,-64.73206364295358,14.047075728931905,-65.37739732215286,13.544670300022265,-66.16743261578573,12.910781860351562,-66.99552917480469,13.511003925786703,-67.32375175576759,15.683454164694158,-66.46963726923158,17.999828091474125,-64.25451865459254,17.18260015011765,-61.67514713737182,9.34242279355912,-60.72752060054386,-4.469487358416782,-62.78480898878239,-7.772205618825808,-67.04775277630944,34,-73" fill="none" stroke="rgb(185, 55, 55)" stroke-width="2" stroke-linejoin="round" filter="url(#fuzzy)"></polyline><polyline points="-13,-79,6.494186335830589,-73.74491247402845,4.054988892892266,-66.90412777417771,-6.949162662531786,-63.02120612062926,-10.897155045896834,-61.19802716413004,-4.923004155466835,-60.51429207944007,6.06390974626073,-60.386880563415765,16.849828824153015,-60.36704181092747,25.22010722466442,-60.24245636696138,31.16823508110821,-60.10033232758728,34.82005646738512,-60.12640011853514,35.22738603781764,-60.407484951527636,30.473732390640553,-61.048396446326905,18.787078130817427,-62.39359642843821,0.5877695781814898,-64.73239950971153,-19.23829339689141,-67.36996895276718,-32.99321704852814,-68.08352472616569,-45,-62" fill="none" stroke="rgb(185, 55, 55)" stroke-width="2" stroke-linejoin="round" filter="url(#fuzzy)"></polyline><polyline points="-34,-70,7.607723708881885,-58.613189031529956,10.143857764028402,-63.69039266865929,9.227878552684563,-69.82905977008237,8.868503233823423,-73.67081368869624,7.7552281218384715,-75.14731713225805,5.051966763705697,-75.00926963833886,1.4433589948733703,-74.20000180540266,-1.6010933530436133,-73.54191079778337,-3.042304909062128,-73.45123021661836,-2.7610151268189593,-73.78965627881718,-1.0922126707183621,-73.93365511955507,1.70715900951135,-73.05593016048262,5.169906645874907,-70.6072782621021,7.84127742622639,-66.92402442976982,7.522308762179754,-63.545543829842096,3.638325360268139,-62.30604844120471,0.5939157517620348,-62.419964663805835,10.060174347298785,-57.123802708076354,63,-36" fill="none" stroke="rgb(185, 55, 55)" stroke-width="2" stroke-linejoin="round" filter="url(#fuzzy)"></polyline><polyline points="49,-60,-0.2730322112854919,-67.98232325552712,-11.378244673463605,-70.83885285350107,-3.9544822994989826,-71.73764828795272,7.457168388339603,-70.95162452690478,15.713550190769134,-68.82879180861043,19.186619658367228,-65.6648607340578,18.30592859532529,-61.91357703115227,13.738779045803527,-58.38896421737045,6.6556890477558,-56.00775272987892,-0.74026505100732,-55.339452664642906,-5.86493824257978,-56.39236717968217,-7.154799706951553,-58.720242165859695,-4.722236771229878,-61.63394058358534,0.4229239727518167,-64.34965144857163,7.55069128822499,-66.15575029114476,16.096536619463702,-66.75813614539508,24.0919372588451,-66.63462248257972,27.579388273749082,-66.69502295397709,24.354882471132818,-66.47488871341648,23.383696376382204,-61.16556905329558,62,-39" fill="none" stroke="rgb(185, 55, 55)" stroke-width="2" stroke-linejoin="round" filter="url(#fuzzy)"></polyline><polyline points="-5,-81,11.392209145504415,-75.89251732611955,9.787311746142679,-69.9621746603929,11.798230122324396,-65.16363368743728,17.867498952870662,-63.83830008700121,22.48811297384841,-65.61584677073361,22.61465360380999,-68.8075865476911,18.250412374826954,-71.87663446458498,10.853796613646697,-73.95545825081311,2.0956241532521473,-74.72884476685718,-6.694803509469686,-74.20949583305749,-14.477079072196727,-72.6498473890414,-19.98555055022037,-70.53057658849423,-21.235917310015424,-68.46165511443142,-15.804895045129872,-66.92106670569245,-2.358111898647908,-65.93643158003856,17.04924234388782,-64.98972317279886,35.90541570219669,-63.43029160897055,46.988901993643125,-60.93819822660725,53,-55" fill="none" stroke="rgb(185, 55, 55)" stroke-width="2" stroke-linejoin="round" filter="url(#fuzzy)"></polyline><polyline points="65,-31,-3.3288801858520305,-49.06776416793143,-13.611340270534809,-61.560378912360726,-3.2976418092156976,-66.18131520203636,9.01382425491022,-66.1027020689506,15.19712838480321,-64.73479965572947,15.141192217468815,-63.81542792872592,12.555707803451027,-63.76900188529493,10.781712015844107,-64.55741530006804,10.953136465740586,-66.04937947911722,12.40036619136102,-67.98200628377187,13.72464632987976,-69.9225332736969,13.431632527716822,-71.39273605090968,10.173707248826016,-72.03200858557003,3.148118264825814,-71.65297934045269,-7.228389868826453,-70.2095222181291,-18.866543772595563,-67.8017772819052,-28.287275161987633,-64.73772724794202,-31.50397482517773,-61.45831326141054,-24.817803847673353,-58.17690173573491,-5.566225455875484,-54.91818216979597,23.53742291916405,-54.626236547397724,32,-74" fill="none" stroke="rgb(185, 55, 55)" stroke-width="2" stroke-linejoin="round" filter="url(#fuzzy)"></polyline><polyline points="61,-41,9.016476585688153,-57.327338921452316,-1.9741169023027336,-66.21771633420967,-10.95847647330305,-68.53921464631301,-18.416802473265694,-67.99190006642004,-18.82983944352,-67.54404060183825,-10.954751721963515,-68.13699418800127,1.8632759085580093,-69.14689888298714,14.564023123516986,-69.47987534269782,22.91106959245312,-68.55507921846272,24.619323757551708,-66.74681639514426,19.959476350454082,-65.02081013615178,13.28719671148544,-63.72904261730304,14.664481947962711,-61.29722083604054,34.80080054011526,-55.09572816873501,59,-47" fill="none" stroke="rgb(185, 55, 55)" stroke-width="2" stroke-linejoin="round" filter="url(#fuzzy)"></polyline><polyline points="-41,-65,-2.634316386700294,-53.95803708594908,-3.727354248772228,-54.49764892778287,-1.8011887483620435,-56.91812473803195,2.2759030016850663,-59.33903332763055,4.538089889062292,-61.17673496524756,5.045040087128509,-62.060559473903425,5.8513594219516625,-61.99441671864761,8.633612455902044,-61.21076984608524,13.643417593797771,-59.984410871707915,19.769199609477543,-58.64066459709905,25.32110868541276,-57.59789469973296,29.055816113948822,-57.25249284505844,30.817701059726648,-57.743979930935986,31.367080537255806,-58.80825494219051,31.557887038884736,-59.884362787545626,31.597446399460956,-60.447285420112216,31.124137672302393,-60.35978907312035,30.100632258242708,-60.00802912667331,29.512250121231006,-60.13863716374476,30.56795255991205,-61.535273489842744,32.46613899536018,-64.73059240787491,31.632883630536764,-69.66068407954724,26.795034275770842,-74.7304514434948,29,-75" fill="none" stroke="rgb(185, 55, 55)" stroke-width="2" stroke-linejoin="round" filter="url(#fuzzy)"></polyline><polyline points="60,-43,37.284870733911085,-63.632390096796556,31.22306407393683,-70.0918149221261,29.108773038297375,-71.72989763231348,29.47162795563129,-70.0073718685732,31.112881336317603,-65.97062192299899,32.49244837610483,-61.137185462161874,32.34968157486897,-57.03553588967742,30.09830104761131,-54.71856764812489,26.192813392655967,-54.430559598262604,21.96895246559467,-55.688520360283945,18.6069466729112,-57.8572327388429,16.08659786389856,-60.73318265556428,13.518822154680409,-64.48973246306097,10.877193262846406,-68.98627310085755,10.05612445903135,-73.28328409201752,13.080157722537072,-76.1566500075938,18.60422104719566,-77.24886000430071,21.615005837670978,-77.55573633961599,18,-79" fill="none" stroke="rgb(185, 55, 55)" stroke-width="2" stroke-linejoin="round" filter="url(#fuzzy)"></polyline><polyline points="-49,-58,-2.657234875079292,-57.09215047154596,-5.715036327785182,-62.167239635725444,-16.766807773418936,-64.4110922182757,-24.553681656275906,-64.42283337810188,-25.308139169629612,-64.54650312929698,-19.67081665022253,-65.53768497382737,-11.233672750806862,-66.55388220254785,-4.320795191176151,-66.5345523890119,-1.8798410807142885,-65.35725780017803,-4.249646186828613,-63.961164474487305,-9.201846765088433,-63.561521833134506,-13.313091485581264,-64.68249407665051,-14.073009840145486,-66.72597448053499,-11.423257775657321,-68.29079316520084,-7.424989729098343,-67.90805710310633,-3.988761356701873,-64.7118805980883,-0.6583473042801011,-58.88181117462716,4.73655822223051,-51.83749858154688,15.730416257175346,-44.59052238306671,66,-27" fill="none" stroke="rgb(185, 55, 55)" stroke-width="2" stroke-linejoin="round" filter="url(#fuzzy)"></polyline><polyline points="65,-29,28.555103763508153,-58.37028628954538,4.283540013541294,-63.83011799028609,-12.125702236831,-64.34349659961934,-16.70098959593348,-65.79221112441853,-11.12237544361381,-68.10580066431939,-0.24578825187851194,-69.95523309720892,11.223116649889269,-70.69273677435386,20.103416246076552,-70.59476804413596,24.769954301583894,-70.36873306680125,24.772905359897685,-70.56608005228071,20.518875773893186,-71.26467760734285,13.07081264257431,-72.12705028057098,3.9488478283397104,-72.70786423018865,-5.162955652403498,-72.75477639308569,-12.775276637972633,-72.29946767356351,-17.87682802640105,-71.53664060587444,-20.029891662683323,-70.6746371510838,-19.382550773066928,-69.93142592308749,-16.882447131740605,-69.62485643526398,-14.618704656786988,-70.10527407871871,-15.139338830017877,-71.44998748904,-18.123185002069164,-73.4092834500488,-16.21308264881735,-76.26005966521623,0,-81" fill="none" stroke="rgb(185, 55, 55)" stroke-width="2" stroke-linejoin="round" filter="url(#fuzzy)"></polyline><polyline points="-37,-68,-30.71351870479731,-63.34789913139128,-6.414154528163145,-57.19242115971337,9.533889023508486,-51.412791120691246,10.562311761501553,-50.65997326630199,4.124879616266251,-54.90024515456128,-1.9589178669465623,-61.36995987456001,-5.597288051839906,-67.26086779432815,-8.546437066895798,-71.03774470756025,-12.234895901655038,-72.56793579192319,-15.663801779466548,-72.5918728165149,-16.0229587331791,-71.88119936505825,-10.460678808698873,-70.4883361284096,1.5278050320255105,-67.93792018025741,11.431261786016854,-65.98194105386575,-18,-78" fill="none" stroke="rgb(185, 55, 55)" stroke-width="2" stroke-linejoin="round" filter="url(#fuzzy)"></polyline><polyline points="32,-74,-20.510702136818118,-60.985648013664395,-28.8343824434156,-60.365535178101375,-18.662383440961342,-62.39140997477612,-6.869144537112319,-64.4172584505733,-0.5436903715917651,-66.19818376328294,1.4751708984468033,-67.48969596577385,3.5454920183169993,-67.58875166110948,8.813253045641485,-65.95320062803593,17.477786389401533,-62.800393284769186,27.473034858703613,-59.08882713317871,36.21310483794222,-55.98020002086032,42.00053460840291,-54.271311055496064,44.42500494012504,-54.16321299505048,44.048197917026314,-55.322642728039625,42.06169309933921,-57.02374454512574,40.03471778505706,-58.491498421234866,39.125241360930765,-59.76487358985348,38.74680239090014,-62.34676075736599,36.340662578115825,-67.55822090844697,25,-77" fill="none" stroke="rgb(185, 55, 55)" stroke-width="2" stroke-linejoin="round" filter="url(#fuzzy)"></polyline><polyline points="63,-35,13.521941762460337,-53.31466105696075,-3.4179161865369596,-57.83649426594509,-14.993943222890058,-59.33148163370921,-18.316575018585297,-60.840934985139896,-12.392495778611808,-62.255161446085545,-0.6548422797926249,-63.35786829056555,12.150733303793745,-64.51286655957739,22.467139717264736,-66.0389988608482,28.732020819571527,-67.75485342076209,30.885782649239463,-69.11350111996043,29.509813763733323,-69.48360356768745,25.365519998818378,-68.23842814976067,19.372947495973623,-64.92720082421626,12.148168737393782,-60.07100448543659,1.7620612311352044,-56.489312094119114,-18.74228861385795,-58.80615244834294,-45,-62" fill="none" stroke="rgb(185, 55, 55)" stroke-width="2" stroke-linejoin="round" filter="url(#fuzzy)"></polyline><polyline points="-49,-58,-12.43752039225938,-69.67769393703347,-4.112260044452795,-71.08506312103674,2.3963108114920857,-68.57072004848403,8.902472529751387,-65.64917447848815,13.883609051877857,-62.92280436875359,17.181685496254737,-60.35303083072482,19.74989210681669,-58.25838411189059,22.645372264286063,-57.00476785211562,26.175004833825238,-56.65845206166465,29.60470261906119,-57.096485726164566,31.604149365663645,-58.24251499113484,31.15642488002777,-60.0424821972847,28.33681139865652,-62.22734187908078,24.40380807512975,-64.22288851904723,21.058249195466203,-65.44076742526126,19.294469300485485,-65.76739575914569,18.60746799574839,-65.77570023636515,17.1272010773965,-66.33788086571984,12.64478693089879,-67.85943135167604,4.0693512240891385,-69.84686787294305,-6.984847242581917,-71.45220121595032,-14.94156053929764,-72.85538493910569,-12.553933679674817,-75.98816035092361,-6,-80" fill="none" stroke="rgb(185, 55, 55)" stroke-width="2" stroke-linejoin="round" filter="url(#fuzzy)"></polyline><polyline points="-28,-74,-18.19759618741667,-72.76825138418315,0.7495723199260899,-67.14513813487021,11.11930861621287,-62.24090317100728,8.491810704639956,-60.72701518066382,-0.9830557541497353,-61.78374166936258,-9.638799575555257,-63.879658817794606,-13.091933543292296,-66.03330257605379,-10.924745550459015,-67.82070372925608,-5.3620037450629665,-69.15517167684992,0.5443018226153584,-70.15535385296477,4.440904137631252,-70.98782924190611,5.56200498342514,-71.65232634544373,4.8582023021987,-71.856049100172,4.37963381198345,-71.10914058920555,6.074486099846864,-69.01742321209599,10.403471899567649,-65.63000415710759,15.48163474090978,-61.67060868227883,17.60727966049853,-58.456800380561035,13.618306117114916,-57.27923031080239,4.243991869376247,-58.204657640462514,-4.259440236819628,-58.984216992144404,-4.472817817670835,-55.85012945259063,-2.9274287657641587,-48.6349816531802,-53,-53" fill="none" stroke="rgb(185, 55, 55)" stroke-width="2" stroke-linejoin="round" filter="url(#fuzzy)"></polyline><polyline points="-34,-70,21.05967738142283,-59.21791023270516,33.534875979205744,-58.35289414974288,31.336623193424106,-59.908290489717984,29.1240833716303,-59.657073970860324,28.895275855088478,-58.06921800560136,27.633655861325344,-57.40776319537484,23.538708168194,-58.991765693962435,17.516804265747023,-62.41774709419565,11.718663787210689,-66.3245143362565,7.832476063026921,-69.46247431761374,6.40983247756958,-71.2379994392395,7.042950245125054,-71.6836456307636,8.725322612220033,-71.22714721357377,10.046492851893278,-70.52573211317984,9.402297329962273,-70.31028920337431,5.599922792089597,-71.07494584676613,-1.195191495371677,-72.69474076032927,-9.05431246933963,-74.34659594074387,-15.478985831685494,-74.9769893504963,-19.318240784237716,-74.11273732696576,-18.402714882353376,-73.28196262117893,5,-81" fill="none" stroke="rgb(185, 55, 55)" stroke-width="2" stroke-linejoin="round" filter="url(#fuzzy)"></polyline><polyline points="66,-26,34.97315191439357,-50.7503427428726,19.79931431598023,-56.15365898160917,15.30572006646368,-59.57070245709402,12.186487769009545,-64.61314015067182,9.591891671087902,-69.21789972547258,10.18503506083319,-71.32331758676196,15.32053294734126,-70.43852427442879,23.250808715820312,-67.57810974121094,29.97585656342912,-64.75035052937524,31.548497614820764,-64.0028343840147,26.419728207296217,-66.15713089509767,16.469259609701112,-70.07406234717928,5.601226374228907,-73.35183343019855,-4.505214369921685,-74.09686410818267,-19.058911716717077,-71.53210607195732,-43,-63" fill="none" stroke="rgb(185, 55, 55)" stroke-width="2" stroke-linejoin="round" filter="url(#fuzzy)"></polyline><polyline points="-46,-61,-21.99510518270802,-56.339367720362944,-1.572452489639676,-57.29266131235921,3.50085844918292,-62.828915930415,1.8198306128542059,-67.64502711805096,-2.112804809811678,-69.80573171413289,-6.666736091751095,-69.624031430715,-10.47547255049857,-68.04891469484829,-12.696495350738951,-65.96951258554478,-13.759409492652347,-64.16532804433992,-14.875382423400879,-63.31669330596924,-16.82521094672365,-63.77093068588892,-19.34167963266565,-65.24314300637661,-21.493012023363978,-66.86132727522629,-22.30276623322006,-67.73033234488545,-20.854486668548816,-67.6730268669171,-16.2449784635718,-67.44298719349197,-8.11246122717,-67.88541670262688,3.6315239269040616,-68.27849457909892,23.085804481048488,-64.63000684736001,58,-47" fill="none" stroke="rgb(185, 55, 55)" stroke-width="2" stroke-linejoin="round" filter="url(#fuzzy)"></polyline><polyline points="65,-29,38.78813631441341,-36.85285585911612,15.07656714306456,-50.08473106408657,10.011156788002026,-59.32968189846,15.372846756896175,-63.64478850694923,23.038260301463612,-65.3678392018788,28.65114773150623,-66.2728022749157,30.679681910511036,-66.8052011278913,29.109277991731744,-66.73970849721702,24.869357431647824,-65.86585113164759,19.63363524637765,-64.29211924155584,15.300605841318086,-62.45324482161024,13.07109039703,-60.94971316938774,12.771827037113834,-60.293924413855464,13.104162603242449,-60.651832593577154,12.747594555268424,-61.69796572467552,11.44592867371952,-62.666609186440695,10.172446249544363,-62.62291160554699,10.25048643772259,-60.96619821921357,11.97315467785957,-58.1125530780105,13.058070528748688,-55.954395283706326,7.760671386760347,-57.25770198793794,-6.5347029588316845,-64.09685444105628,4,-81" fill="none" stroke="rgb(185, 55, 55)" stroke-width="2" stroke-linejoin="round" filter="url(#fuzzy)"></polyline><polyline points="-10,-80,-0.8525048023784376,-66.49437422500492,16.549086725428204,-58.65067576909965,20.811313685063773,-59.32913312807445,19.234527417760106,-63.6634906384091,18.346061293236744,-67.72816242792123,19.8311695841651,-69.70519497732906,23.331057546685784,-69.15620970390206,28.17025941131087,-66.41875436598559,33.44434415338508,-62.33705744848499,37.81616687774658,-58.05527591705322,39.742867155188144,-54.715873533953484,38.04836961268281,-53.12483021567339,32.48899111069409,-53.56310198733508,24.053988362515113,-55.844535147582725,14.926829125103723,-59.47331086934082,8.220259586694308,-63.589931164056345,7.731948147903422,-66.56376228747008,17.590915507096973,-65.3473804445824,39.74829725343895,-54.550767825491725,66,-26" fill="none" stroke="rgb(185, 55, 55)" stroke-width="2" stroke-linejoin="round" filter="url(#fuzzy)"></polyline><polyline points="16,-79,3.9455818236709814,-73.19285679328178,-0.18188919648101215,-69.2077594936226,6.427210683775935,-68.56527888423253,13.91094911704279,-67.58698611180783,17.35842570256781,-65.19196577704537,16.876220830163774,-62.314220851866956,14.47601392378712,-59.98314994272721,11.699827847017906,-58.55987955374223,9.1396215199487,-58.019805175898185,7.14415162033951,-58.39414915158828,6.306510222882642,-59.8549821376649,7.101152058883097,-62.47724361136667,9.215245110981586,-65.92616152262688,11.454913109690752,-69.28205427665439,12.298410327752785,-71.17639104115446,10.147155148645213,-70.3937659874882,3.3016702013023442,-67.02769124880038,-4.373278568958465,-64.6941968855009,25,-77" fill="none" stroke="rgb(185, 55, 55)" stroke-width="2" stroke-linejoin="round" filter="url(#fuzzy)"></polyline><polyline points="-14,-79,29.589457954527216,-56.86703625544126,35.4088722864683,-58.57066688555461,29.372990494375603,-62.660971464883076,20.84667692747928,-64.83419462213115,14.826340076294937,-65.47276633165177,13.302266420214425,-65.50619407912203,14.722608482988688,-65.50733770135393,15.779285420121719,-65.66415052230043,14.279925437165582,-65.92791811774278,10.723432042463807,-66.17356399986888,7.61812949180603,-66.30921006202698,7.340682434524702,-66.29964170325984,10.200760871853934,-66.11549269299822,14.028005308977178,-65.67391495550743,15.425136575317373,-64.86737780567795,11.72163180715514,-63.741798431601964,2.461945763472797,-62.716423252314655,-9.97517200502228,-62.45827005089929,-20.27202934005667,-62.95889592209301,-20.29739487376373,-62.00442502797493,1.4603075640263121,-54.00637812764962,66,-27" fill="none" stroke="rgb(185, 55, 55)" stroke-width="2" stroke-linejoin="round" filter="url(#fuzzy)"></polyline><polyline points="30,-75,40.91974620225874,-59.803457045234865,32.97764607430737,-61.6199212859782,19.330821528051832,-65.21442519732702,7.42865932361036,-68.5654043981164,1.8449193154796022,-71.49239709586591,2.396097948758722,-73.69030388581237,5.76419197262999,-74.83482882822565,8.514701748662889,-74.82223414926199,9.217994689941406,-73.73320007324219,8.743115512213297,-71.68606489360631,8.85748013122234,-68.86082799684311,10.222609961137081,-65.73662065405117,11.38498273965627,-63.23644003999869,9.544844577730542,-62.353506032062235,1.967688945887436,-63.176286148092665,-13.448031442011107,-63.955966151169896,-35.54007559312908,-61.70184815375441,-49,-58" fill="none" stroke="rgb(185, 55, 55)" stroke-width="2" stroke-linejoin="round" filter="url(#fuzzy)"></polyline><polyline points="34,-73,10.948067428780572,-77.54021937437268,9.381936969517932,-78.81599342504435,12.256766060190518,-78.49823553560901,13.281631108006476,-77.10226913974975,11.428910343826828,-74.70701995275249,8.148436696764062,-71.55555678754277,5.083660773630485,-68.27280020159162,2.683915109682959,-65.6744064925297,0.47593506681909503,-64.26070736494424,-1.6677865982055664,-63.7844934463501,-2.7562497331893177,-63.364922872208176,-1.2798040634891463,-62.2141445765128,3.2444718734647755,-60.436199098373514,9.126022076504883,-59.14520336463774,12.986250951266811,-59.65009960660336,11.846706500080026,-62.34579121652205,5.117778139741565,-66.41019556129594,-4.972692944003814,-70.71082819290484,-11.483661130480241,-74.90950811789477,5,-81" fill="none" stroke="rgb(185, 55, 55)" stroke-width="2" stroke-linejoin="round" filter="url(#fuzzy)"></polyline><polyline points="-5,-80,16.007010947557596,-74.5655225665216,8.738516554516746,-74.00354839147666,-2.624344796626944,-72.85017662665528,-5.777078986482607,-71.1109860381856,0.9631123820093017,-69.22959874225965,12.613993882615812,-67.53797098641815,23.133101841965416,-66.40114209142092,29.416151225213834,-65.7297960170693,31.906139324219392,-64.75482048816743,32.60726513873148,-62.79592933454793,33.07166948106176,-60.29950177023121,34.24667146921574,-58.80528406695117,36.67650570766265,-59.950644466719304,37.00635350387831,-65.52735283456626,26,-76" fill="none" stroke="rgb(185, 55, 55)" stroke-width="2" stroke-linejoin="round" filter="url(#fuzzy)"></polyline><polyline points="5,-81,-4.4027483710411905,-61.189706540785856,10.59429427681927,-54.20916198232005,13.094114609699218,-54.48610257377515,8.435222102852071,-57.678659747871976,5.377901170823432,-61.268732135782344,6.685086731805301,-64.09696563767687,11.087085376021424,-65.72352895625266,16.227901129982268,-66.16671544208992,20.125983259819254,-65.69111698183164,21.693002145853974,-64.5358502223675,20.80004357598508,-62.79013152545213,17.975109329412803,-60.51384920741939,13.944468101310688,-57.95032957158656,9.381861205686095,-55.659909105365614,4.945697825662783,-54.54889984785599,1.3139605483494252,-55.73851423769852,-0.9266916813566931,-59.99829253469798,-1.2893044275860088,-66.66052383402227,0.4187862425136668,-73.05391937742554,1.5946020418492157,-76.45289403371885,-15,-78" fill="none" stroke="rgb(185, 55, 55)" stroke-width="2" stroke-linejoin="round" filter="url(#fuzzy)"></polyline><!--]--></g><g id="lineNose"><path d="M -9.45442177085141 13.124868789342562, Q9.013444910730346 15.346055615117645,-0.22048843006053165 -4.625165408102991" fill="none" stroke="black" stroke-width="3" stroke-linejoin="round" filter="url(#fuzzy)"></path></g><g id="mouth"><polyline points="20.10429319265871,56.49243750273894,19.99899066147199,56.12736984002944,20.202227593090758,56.990019300634714,20.01640953766958,56.45038948898459,20.19884134027835,57.085215552998754,20.21593091473035,57.20663693025805,20.158092376406536,57.524059841751466,20.091683039320603,57.9865541522403,19.922941678914604,58.87805109659881,20.11041767198043,58.57096971642233,20.057915656083537,58.80612969761303,19.72559615743846,59.557779088090584,19.809333948178043,59.430730720529525,19.818438303525454,59.306781633596394,19.48265299775352,60.226231039080034,19.17485300803542,60.81910743783946,19.452817003706045,60.28743336462398,19.379949741558733,60.544913362322866,18.501276383368428,61.860743995539494,18.391131895060838,62.044753764456104,18.7215269116296,61.5487973947871,18.030058763685844,62.50226293182983,18.351803451399253,62.03152696288237,17.950349002919616,62.54881019467744,16.894563508214,63.61082041447127,17.607871026639216,62.89504353266147,17.09790542184808,63.44646394141029,16.0703236828761,64.36698244377844,16.347938472754343,64.14411972159225,15.907700628860114,64.506116094908,15.2128465547737,65.07216145554494,15.35251934124823,64.91376273092315,15.154710083915583,65.1101513136563,13.934545157447536,65.96030159488257,14.268652361023776,65.71064735805206,13.605609826610495,66.12126339908339,12.895680064163026,66.54107923394952,12.538424861600525,66.75196538141573,13.067520260519167,66.45847221299438,12.305514674553535,66.8705213353833,11.332511056561078,67.37118063695257,10.686510980060497,67.68330814872948,11.190313800358684,67.45162958932804,10.535975406150412,67.74152334977752,9.859673605875418,68.02179372214724,8.5938761691941,68.50624498338715,8.957848601148566,68.37835202616843,8.411928419615858,68.57348739554565,8.313153625273355,68.60743668295473,7.436893681539677,68.89447533012894,6.262888573655751,69.2270837157661,6.9152085900732025,69.0496045208719,6.393850744822721,69.19448459789521,5.592954386356934,69.39857973588906,5.545666204371867,69.41076702064444,3.9663092416841046,69.73679675562376,3.3498571002245066,69.83790038206779,2.9721949487167976,69.89119933533456,3.3453707304203295,69.83803881096041,3.120290631011656,69.86391008255606,1.453048852143339,70.06104461184431,2.0987594091043427,69.98981840551734,1.7903102896975391,70.03187437097003,0.091148567406238,70.14055570973743,-0.09638741738396739,70.1295639098077,0.3161693891376398,70.11842382474984,-0.3855904574867006,70.11974468381241,-2.032934136664415,70.10785171090969,-2.244331614059382,70.08044620661296,-2.2254341500130277,70.09087161849686,-2.509525884886962,70.04161988829924,-2.7639306180610177,70.01899953087717,-3.695750254611685,69.92937660180272,-3.3841384218990296,69.94801153967079,-4.0630468255015675,69.84527968785113,-4.645964151742358,69.73417276557049,-4.629490353908697,69.69109521646557,-5.555229317051909,69.47951336371142,-5.622203850763123,69.48231584535803,-6.666172338874922,69.09739456782434,-6.546026726452697,69.1752645615435,-7.1837812376315195,68.92577875558175,-7.330670506621214,68.85301793492783,-7.64761289501136,68.62795323293133,-7.57730493599982,68.73935877004482,-8.305416367776822,68.35718485577628,-8.183172153025838,68.3651552851803,-9.228520084720241,67.63249395256337,-8.938716338527543,67.88989937960626,-9.63033903036078,67.36870503480614,-9.802297526028365,67.16851768831546,-9.459079806529017,67.47644758055516,-10.114505212422609,66.83853553778998,-10.2055666825789,66.63995578082253,-10.02074697296059,66.82512281736606,-10.699939935337023,65.93169233850985,-10.534529368475514,66.1760994841066,-10.757809378186163,65.69492111522621,-10.915858930719791,65.26423410943116,-10.940272799721532,65.33534047809279,-10.870943836108651,65.42905553372356,-11.160847263557427,64.4607600245539,-11.164702383967281,64.82837912038828,-11.262310538146316,63.932226894234894,-11.225559106824024,63.63173352650195,-11.250501848369353,63.109203081815984,-11.279606178477554,63.50110340086647,-11.29151221838825,63.43533723098308,-11.257187722175127,63.04896164473613,-11.231076507750291,62.903171141515,-11.161187522497517,62.17784677765012,-10.96474076261654,61.55519144822035,-11.066084666055009,61.987044801936456,-10.96230842695713,61.73611834671531,-10.541507562157838,60.67638836541562,-10.331552934396454,60.39908526477898,-10.308517619756513,60.23963673834614,-10.07974163875876,59.85426495246001,-10.22803950558462,60.0828984699222,-9.864270917264738,59.472485369466845,-9.356445292060355,58.908194729532866,-9.473180050413129,59.01091823000236,-8.969807440115572,58.410206794867825,-9.174375971093951,58.580312586722684,-8.199393987982422,57.611341724291435,-8.706381152366548,58.136105358673866,-7.712341028089359,57.14398642489181,-7.888180724928148,57.22740658678809,-7.111996376904582,56.57027673775843,-7.596732807142402,57.015876753192565,-6.069267016491574,55.79132490008282,-5.729652107769377,55.54012107089599,-5.523303356449006,55.44764592375506,-5.798348177343357,55.63236860748662,-4.534277346937593,54.80572370304755,-4.233128394210256,54.626406147142454,-3.882986004987078,54.40873261134005,-4.191405150159685,54.57997204176162,-2.815196686068056,53.850352610388875,-3.1936413755226107,54.05086926107719,-2.6905506267333408,53.80633977290104,-3.0908660147425993,53.98698543216411,-2.485219427405708,53.68301364457295,-1.7067371491301184,53.33178049042932,-0.5146040953866873,52.84736026701208,-0.23621343274095175,52.74005537244037,0.6553977260233834,52.423502726592496,-0.01589569977471683,52.657620392732305,0.5443747188631107,52.459174753230016,1.726861064114154,52.07726646544746,2.289161171169055,51.916827788590524,3.1513468573688,51.689892897397314,2.106103260845603,51.967909631793226,3.4616317066330664,51.62158761377979,3.4153087876485353,51.62750804954351,3.9415333678040527,51.51149630115688,4.20526802545578,51.453899880098106,6.100691234674565,51.119886640875826,5.31571640236054,51.255364615818586,5.978378549339421,51.14989194265184,7.251578487699874,50.9853769950939,6.514621283606119,51.08498650723171,7.78252693965443,50.94574988400408,7.900446293661696,50.96304430663753,9.50145852385622,50.88170308862554,8.63751833300207,50.89152332015428,9.18380732604575,50.90992648210626,10.00332906706898,50.89431455602405,11.419011865762682,50.98493165015184,10.463427307688884,50.92506574062237,11.305987185798871,50.98019339845081,11.348316454793204,50.98703384713494,11.929964491234884,51.001835020659996,12.231697622300693,51.036142006600244,13.409588937004894,51.24233541575149,14.376418419402004,51.47661504831769,14.081835835427254,51.397158316074425,13.80400323562274,51.368443000755136,15.268490986194632,51.76476957710778,15.08440587855687,51.70209611905333,15.337493620396414,51.82837292400427,15.392671252669704,51.82198776046866,16.370748825848636,52.25622267660595,17.052109678046243,52.5228643242385,16.955807336319495,52.537724508871506,16.64698273008165,52.413896290094286,17.182675373071767,52.671857984801676,17.871076587628984,53.14898987839902,17.977547286180833,53.16561636941324,18.101907420606388,53.38231732859617,18.162527166938148,53.342105744022625,18.489722432277908,53.69086066663866,19.109400551338812,54.25646606816581,18.927335909324714,54.206267142777605,18.969573483295264,54.13015084047157,19.530031989815882,55.09196393571224,19.39980260603886,54.76759792035273,19.754678705828656,55.34842535400554,19.64978679412939,55.37207126212645,19.807341582847048,55.71776665366973" fill="rgb(215,127,140)" stroke="black" stroke-width="3" stroke-linejoin="round" filter="url(#fuzzy)"></polyline></g></svg>