<svg viewBox="-100 -100 200 200" xmlns="http://www.w3.org/2000/svg" width="400" height="400" id="face-svg"><defs><clipPath id="leftEyeClipPath"><polyline points="33.66702871463287,5.60750159509071,33.37053658403494,5.427264188543167,33.04514919766015,5.239937833396618,32.6910536556729,5.045875900022048,32.3084829462214,4.845447388790172,31.897714296424883,4.6390360563005215,31.459067523360662,4.427039541610535,30.992903385051466,4.209868492464633,30.499621931452413,3.9879456915233185,29.979660855438322,3.7617051825922543,29.43349384379079,3.5315913968513506,28.86162892818541,3.298058279083854,28.26460683617888,3.06156841390543,27.642999342196216,2.822592151993253,26.99740761851788,2.581606736315086,26.32846058626696,2.3390954283583785,25.665762638500443,2.07432435218273,24.96399206232948,1.8034175389428029,24.223843776676926,1.5274539580625301,23.44623416528096,1.2475650432308347,22.63228389359806,0.9649215091132968,21.78330120450727,0.6807209453410303,20.900765687635513,0.39617617044339326,19.986312517123714,0.1125043283910685,19.041717152653362,-0.16908328958383656,18.068880498553362,-0.4473907152241381,17.069814515806772,-0.7212460828737512,16.04662828177727,-0.9895097358271094,15.00151449247504,-1.2510816767352484,13.93673640218175,-1.5049083794019733,12.854615195254384,-1.7499889793034864,11.75751778492775,-1.9853808601649376,10.647845033935203,-2.2102046539272653,9.528020391767491,-2.4236486714377676,8.40047894338932,-2.624972781197801,7.267656864233463,-2.813511753501034,6.131981276292055,-2.9886780872956393,4.995860500124885,-3.1499643371038815,3.8616746976043315,-3.2969449573324585,2.731766900216739,-3.429277681307065,1.6084344177399148,-3.5467044523645317,0.4939206221164989,-3.649051924336005,-0.6095928986570828,-3.736231548754544,-1.6999938218063326,-3.8082392661205766,-2.775246211399364,-3.865154818558578,-3.8333972854927882,-3.9071407011984522,-4.87258383398313,-3.9344407696149624,-5.89103829234397,-3.9473785206586705,-6.887094476429186,-3.946355064011769,-7.859192983522448,-3.931846801802223,-8.805886264813353,-3.904402833609673,-9.725843374480402,-3.8646421041964114,-10.617854400561091,-3.8132503112969705,-11.480834582789436,-3.750976590799656,-12.313828122581173,-3.6786299966534344,-13.11601169034689,-3.5970757928336337,-13.88669763531339,-3.507231574699837,-14.625336903033585,-3.4100632370793598,-15.331521665765079,-3.3065808064098103,-16.004987670897894,-3.197834154274018,-16.645616312611413,-3.0849086096608644,-17.253436431940983,-2.9689204872853274,-17.828625850434342,-2.8510125493012435,-18.371512642578168,-2.7323494177401155,-18.88257615217506,-2.614112955009423,-19.362447757851182,-2.497497629783881,-19.811848833335983,-2.3817347275720344,-20.230932946190944,-2.2656772476692435,-20.619626596661284,-2.149951556084506,-20.977899021514,-2.035172364734027,-21.3057615002514,-1.9219404100020885,-21.60326666132454,-1.8108401313019193,-21.870507788346774,-1.7024373496366003,-22.10761812630723,-1.597276946159914,-22.314770187784276,-1.4958805407372555,-22.492175059159084,-1.3987441705064825,-22.64008170682904,-1.3063359684388214,-22.758776283421312,-1.2190938418997348,-22.848581434006295,-1.1374231512097968,-22.909855602311154,-1.0616943882055825,-23.590820025175695,-0.4657540286870443,-23.280672448079283,-0.3537240060007498,-22.953347212546227,-0.2474109860696707,-22.609086168393652,-0.14649251796067198,-22.248173451256225,-0.0506167477633257,-21.87093237553704,0.04059500478894407,-21.477722327358734,0.12754566969769598,-21.068935657514405,0.21065985007832033,-20.644994574418682,0.2903812455388861,-20.206348037058667,0.3671700755589882,-19.753468647945,0.4415005028685899,-19.286849546062825,0.5138580568268649,-18.807001299822815,0.5847370568010559,-18.314448800012144,0.6546380355453074,-17.80972815274554,0.7240651625795138,-17.290738315691307,0.7923132413595724,-16.75559641264358,0.8590074092911193,-16.205163384684003,0.925122287862032,-15.640285318744702,0.9915944929297931,-15.061789834934196,1.0593188863755367,-14.470482516788142,1.1291448935622341,-13.867143407643962,1.2018729058358613,-13.252523596338794,1.278250787308294,-12.627341915429957,1.3589705051607126,-11.992281775137364,1.4446649027062595,-11.347988156207016,1.535904634450775,-10.695064784895028,1.6331952823903055,-10.034071513271417,1.736974672784254,-9.36552192804291,1.8476104126428385,-8.689881211094178,1.9653976651677088,-8.00756427494669,2.0905571833844663,-7.3189341963345464,2.223233621205833,-6.624300971096599,2.3634941411643107,-5.923920613584087,2.511327338052986,-5.2179946237831665,2.6666424977134,-4.506669845351603,2.8292692102091124,-3.7900387377689038,2.9989573566238388,-3.068140085799227,3.175377488722856,-2.3409601694663333,3.358121620716508,-1.6084344177399148,3.546704452364531,-0.8704495691325634,3.7405650426600108,-0.12684636240670455,3.939068953331709,0.6225772194092245,4.141510881403572,1.3780621284960266,4.347117800050137,2.139883832011157,4.555052626986661,2.908347268948976,4.764418439632709,3.6837811608945508,4.974263256287994,4.466531653471712,5.183585402559218,5.256955265286053,5.39133948227671,6.055411121163579,5.59644297213961,6.862252446485727,5.797783459328391,7.677817299421398,5.994226541323471,8.5024185178568,6.184624407168695,9.336332857823676,6.367825119418467,10.179789300226757,6.542682616007284,11.032956502671013,6.708067451280462,11.895929373189515,6.862878295424808,12.76871474267249,7.006054211538032,13.651216112798389,7.136587729575644,14.543217456267598,7.253538736414123,15.444366046139498,7.356049201269134,16.35415429107359,7.443358755707544,17.271900553275398,7.514821147492029,18.1967289259478,7.56992158749704,19.12754794704858,7.608295008934878,19.859623502576152,7.698969170878648,20.589438902415676,7.7823352580488905,21.316108893298487,7.858243788297193,22.038664954597632,7.92658160594951,22.75605259819117,7.98727360056336,23.46712866832546,8.040284425685014,24.170658641478465,8.085620217606692,24.865313926223028,8.12333031412375,25.54966916309016,8.15350897329188,26.2221995244324,8.176297092184294,26.881278014287023,8.191883925648924,27.5251727682394,8.20050880506561,28.152044353286247,8.202462857103294,28.75994306769896,8.198090722477215,29.346806240886867,8.187792274706096"></polyline></clipPath><clipPath id="rightEyeClipPath"><polyline points="-32.79894309196275,5.83823143237127,-32.4815580253876,5.698506668279771,-32.138693319622966,5.553954606933385,-31.770691730184865,5.4049702501903845,-31.37791775440334,5.251947785247688,-30.960756743436058,5.095280291144214,-30.519614014281927,4.935359445264234,-30.05491396179476,4.772575229840722,-29.567099170696906,4.60731563845871,-29.05662952759282,4.4399663825586355,-28.52398133298277,4.270910597939705,-27.969646413276422,4.100528551263233,-27.394131232806483,3.929197346556004,-26.797956005842316,3.7572906317136203,-26.18165380860359,3.5851783050038595,-25.545769691273904,3.413226221570018,-24.891877610473756,3.211254688263038,-24.206921101577645,3.007916866009511,-23.49142201580253,2.8039945476163686,-22.746052987015737,2.600271936524093,-21.97162820153725,2.397528963878803,-21.169094277512986,2.1965350752927355,-20.339521256085384,1.9980434760831116,-19.48409370658767,1.8027858237793133,-18.604101947988426,1.6114673566883386,-17.70093338881267,1.4247624473084928,-16.776063987766058,1.2433105693812436,-15.831049837288575,1.0677126673712252,-14.867518872264093,0.8985279171643237,-13.88716270611237,0.7362708667737925,-12.891728596489749,0.5814089458443892,-11.883011542825162,0.43436033274441144,-10.862846517917717,0.2954921680356817,-9.833100835822467,0.1651191031113468,-8.795666658250607,0.043502172791498595,-7.752453641710709,-0.06915201933345294,-6.705381727617301,-0.17269181402169043,-5.656374077593316,-0.26702071917125103,-4.60735015619275,-0.3520973534936527,-3.560218963270063,-0.4279351222799619,-2.5168724182226936,-0.49460163646935307,-1.479178898333119,-0.5522178862301494,-0.44897693343693934,-0.6009571802634994,0.571930940856626,-0.6410438620396004,1.581784169165378,-0.6727518141766584,2.5788699993294504,-0.696402762172502,3.5615291401749416,-0.7123643886990081,4.52816125181933,-0.7210482696692804,5.4772302662923185,-0.7229076432877353,6.407269536245634,-0.7184350232930434,7.31688680952537,-0.7081596676040576,8.204769027380406,-0.6926449135787145,9.069686944080518,-0.6724853910959663,9.910499565717698,-0.648304124670851,10.726158405964293,-0.6207495358126423,11.515711556561481,-0.5904923568362097,12.27830757031168,-0.5582224673366163,13.013199154348499,-0.5246456645369797,13.71974667145767,-0.4904803787196652,14.397421447222674,-0.4564543449508385,15.045808880768528,-0.4233012423084688,15.664611356877346,-0.39175731182375273,16.253650957249217,-0.36255796434608634,16.812871968682,-0.33643438954158533,17.342343185943502,-0.31411017723520374,17.842260007109807,-0.29629796230652516,18.313635150527034,-0.28269497029594604,18.75709319752807,-0.27282680843794616,19.172373837738988,-0.2671290787805871,19.55925752214151,-0.26602365871917844,19.917565761256135,-0.2699171996506893,20.247161423325206,-0.2791996256281557,20.547949032496057,-0.2942426320151119,20.81987506700408,-0.3153981841399851,21.06292825735586,-0.34299701595052134,21.277139884512284,-0.37734712866819464,21.462584078071593,-0.41873228944261776,21.619378114452562,-0.4674105300059672,21.747682715077566,-0.5236126453273826,21.84770234455565,-0.5875406922673889,24.466964215236704,0.5308681159515833,24.11319542746373,0.4414817669411102,23.74390935340765,0.350244944780953,23.359425848646886,0.25761046388469033,22.960107648699054,0.1640604422927634,22.54635681021426,0.0701033477288826,22.118611152168576,-0.023728956343588514,21.67734069705728,-0.11688416466522789,21.223044112088306,-0.20879248412417262,20.756245150375552,-0.29886958769971006,20.277489092132285,-0.3865195684058911,19.78733918586445,-0.4711378932351362,19.286373089564083,-0.5521143571018357,18.77517931190263,-0.6288360367859518,18.25435365342434,-0.7006902448766397,17.72152742200381,-0.769040037282867,17.17465308478044,-0.8347406007510383,16.614787347695845,-0.8964610093627527,16.042951476090884,-0.9529293870221984,15.46012731916506,-1.0029372930208922,14.86725341322375,-1.0453440086678256,14.265221190285798,-1.0790807029287102,13.654871318623831,-1.1031544550183163,13.036990201809699,-1.1166521118897315,12.412306662837503,-1.1187439585644636,11.781488839896648,-1.108687179247287,11.145141320367284,-1.085829087169662,10.503802539610605,-1.049610101105655,9.857942471126428,-0.9995664465042804,9.207960634650433,-0.9353325591820685,8.55418444876356,-0.8566431695198276,7.8968679545858915,-0.7633350451074339,7.236190937127528,-0.6553483697805511,6.572258470868858,-0.5327277369932091,5.905100916142585,-0.39562273547005233,5.234674392890032,-0.2442881050822061,4.560861758364067,-0.07908344089063402,3.883474115351117,0.09952757669914192,3.202252877484666,0.2909784477270545,2.516872418222694,0.4946016364693522,1.8269433300614302,0.7096308952864252,1.1320163205579035,0.9352041505837105,0.4315867717336497,1.1703669729417747,-0.274900010567946,1.4140766534716995,-0.9880428307982787,1.6652069084518857,-1.7084778947217063,1.922553234302371,-2.4368713307628327,2.184838934952789,-3.173910915110509,2.4507218436600775,-3.9202969740060953,2.7188017613320454,-4.6767324366435705,2.9876286334129096,-5.443912012109092,3.2557114873869217,-6.222510463787524,3.5215281529561935,-7.013169954663592,3.7835357869488226,-7.816486436945162,4.040182225013448,-8.632995059436261,4.28991818215634,-9.463154566087443,4.531210324177133,-10.30733065915101,4.7625552320593165,-11.165778300368697,4.982494281371599,-12.038622923619442,5.189629458736253,-12.925840532454748,5.38264013742056,-13.827236655949232,5.560300834107456,-14.742424136294005,5.721499968901501,-15.670799721560325,5.865259650626282,-16.611519437061254,5.990756509469355,-17.563472708738793,6.09734359903085,-18.294353766707516,6.253446973192469,-19.025394488320664,6.40165310784665,-19.755691739859785,6.541695776458561,-20.484246470395924,6.67334862916641,-21.209960501807203,6.7964272139207065,-21.931633318796447,6.910790997623519,-22.64795885890883,7.016345387267743,-23.35752230254947,7.113043751076349,-24.058796863001042,7.200889439641656,-24.750140576441428,7.279937807064581,-25.429793091961294,7.350298232093906,-26.09587246158177,7.412136139265536,-26.746371930271998,7.465675020041759,-27.379156725966794,7.511198453950507,-27.99196084958426,7.549052129724614"></polyline></clipPath><filter id="fuzzy"><feTurbulence id="turbulence" baseFrequency="0.05" numOctaves="3" type="noise" result="noise"></feTurbulence><feDisplacementMap in="SourceGraphic" in2="noise" scale="2"></feDisplacementMap></filter><linearGradient id="rainbowGradient" x1="0%" y1="0%" x2="100%" y2="0%"><stop offset="0%" style="stop-color: rgb(165, 42, 42);  stop-opacity: 1"></stop><stop offset="50%" style="stop-color: rgb(185, 55, 55);  stop-opacity: 1"></stop><stop offset="100%" style="stop-color: rgb(0, 191, 255);  stop-opacity: 1"></stop></linearGradient></defs><title>That&#39;s an ugly face</title><desc>CREATED BY XUAN TANG, MORE INFO AT TXSTC55.GITHUB.IO</desc><rect x="-100" y="-100" width="100%" height="100%" opacity="1" fill="rgb(60, 20, 20)"></rect><polyline id="faceContour" points="79,2,79,2,79,1,79,4,79,6,79,6,78,9,78,12,77,12,77,14,78,13,77,16,76,18,76,18,75,21,75,21,75,23,74,24,74,25,74,26,73,28,72,31,72,31,72,32,70,36,70,37,69,38,69,38,69,39,67,42,67,41,66,45,67,43,65,46,65,46,63,50,62,51,61,52,61,54,60,54,59,55,59,56,58,57,58,57,56,60,56,61,56,60,54,62,54,62,54,62,51,66,52,65,51,66,49,68,48,68,48,69,46,71,45,72,44,72,45,71,43,73,41,74,40,75,40,75,39,76,37,77,37,77,36,77,36,78,33,79,34,79,32,80,31,80,29,81,30,81,28,82,26,82,26,83,26,82,23,83,23,83,19,84,20,84,20,84,18,85,16,85,15,85,15,85,15,85,13,85,12,86,10,86,9,86,8,86,7,86,4,86,5,86,3,86,4,86,0,86,-1,86,-2,86,-1,86,-2,86,-5,85,-7,85,-6,85,-7,85,-9,85,-11,84,-11,84,-12,83,-13,83,-13,83,-17,82,-16,82,-18,82,-18,81,-19,81,-21,81,-22,80,-24,79,-25,78,-25,79,-26,78,-27,78,-28,77,-29,76,-31,75,-32,74,-32,75,-34,73,-34,74,-36,72,-36,72,-37,71,-39,69,-39,70,-42,67,-42,67,-43,67,-44,66,-46,64,-45,65,-46,64,-47,63,-48,62,-50,60,-51,59,-50,59,-51,59,-54,55,-55,54,-54,56,-56,53,-56,53,-57,52,-57,52,-60,49,-58,51,-61,47,-62,46,-62,46,-62,46,-63,44,-64,43,-65,41,-66,39,-67,38,-67,37,-68,36,-68,35,-69,33,-70,32,-69,33,-70,32,-72,28,-71,29,-72,28,-73,25,-72,27,-73,24,-74,23,-74,23,-75,20,-74,20,-75,18,-76,15,-77,15,-77,14,-77,14,-77,13,-78,9,-78,9,-78,8,-79,6,-79,6,-79,3,-79,1,-79,1,-80,-1,-80,-1,-80,-3,-80,-4,-80,-5,-80,-6,-80,-7,-80,-8,-80,-10,-80,-9,-80,-13,-80,-13,-80,-15,-80,-17,-80,-17,-80,-18,-80,-20,-80,-21,-80,-21,-79,-25,-79,-25,-79,-25,-79,-26,-79,-29,-78,-30,-77,-31,-77,-34,-77,-35,-76,-35,-77,-35,-76,-37,-75,-39,-75,-40,-74,-40,-74,-42,-73,-43,-73,-44,-72,-44,-71,-47,-71,-47,-69,-50,-69,-50,-69,-50,-69,-50,-67,-53,-67,-53,-66,-54,-65,-55,-64,-56,-64,-57,-63,-58,-62,-59,-61,-60,-60,-61,-60,-61,-59,-63,-59,-63,-56,-64,-55,-66,-54,-66,-53,-67,-51,-69,-52,-68,-52,-68,-48,-70,-49,-70,-46,-72,-47,-71,-44,-73,-45,-73,-40,-75,-41,-75,-40,-75,-37,-77,-36,-77,-38,-76,-35,-78,-34,-79,-31,-79,-30,-80,-29,-80,-28,-80,-26,-81,-25,-81,-23,-82,-21,-82,-23,-82,-20,-83,-19,-83,-16,-84,-15,-84,-15,-84,-10,-85,-10,-85,-10,-85,-10,-85,-7,-85,-3,-86,-4,-86,-2,-86,1,-86,1,-86,3,-86,5,-86,8,-86,6,-86,9,-86,11,-86,13,-86,14,-86,17,-86,17,-86,17,-86,21,-85,20,-85,23,-85,23,-85,24,-85,26,-84,28,-84,30,-83,32,-83,32,-83,33,-83,34,-83,36,-82,36,-82,38,-81,40,-80,41,-80,43,-79,42,-80,44,-78,45,-78,47,-77,49,-76,49,-76,51,-75,51,-74,53,-74,53,-73,55,-72,56,-71,57,-70,59,-69,59,-68,60,-68,61,-66,61,-67,62,-65,63,-65,64,-63,64,-64,66,-61,66,-60,66,-61,67,-59,68,-58,70,-55,70,-55,71,-54,72,-53,72,-52,72,-51,73,-50,73,-50,74,-47,75,-45,75,-45,75,-44,75,-43,77,-40,76,-41,77,-38,77,-37,78,-35,78,-33,78,-33,78,-31,79,-30,79,-29,79,-26,79,-26,79,-26,80,-23,80,-21,80,-22,80,-21,80,-16,80,-15,80,-12,80,-12,80,-13,80,-9,80,-8,80,-9,80,-6,80,-2,80,-5,80,-1,79,2,79,2" fill="#ffc9a9" stroke="black" stroke-width="1.6666666666666665" stroke-linejoin="round" filter="url(#fuzzy)"></polyline><g transform="translate(50.13983292339551 -24.24927166560651)"><polyline id="rightCountour" points="-32.79894309196275,5.83823143237127,-32.4815580253876,5.698506668279771,-32.138693319622966,5.553954606933385,-31.770691730184865,5.4049702501903845,-31.37791775440334,5.251947785247688,-30.960756743436058,5.095280291144214,-30.519614014281927,4.935359445264234,-30.05491396179476,4.772575229840722,-29.567099170696906,4.60731563845871,-29.05662952759282,4.4399663825586355,-28.52398133298277,4.270910597939705,-27.969646413276422,4.100528551263233,-27.394131232806483,3.929197346556004,-26.797956005842316,3.7572906317136203,-26.18165380860359,3.5851783050038595,-25.545769691273904,3.413226221570018,-24.891877610473756,3.211254688263038,-24.206921101577645,3.007916866009511,-23.49142201580253,2.8039945476163686,-22.746052987015737,2.600271936524093,-21.97162820153725,2.397528963878803,-21.169094277512986,2.1965350752927355,-20.339521256085384,1.9980434760831116,-19.48409370658767,1.8027858237793133,-18.604101947988426,1.6114673566883386,-17.70093338881267,1.4247624473084928,-16.776063987766058,1.2433105693812436,-15.831049837288575,1.0677126673712252,-14.867518872264093,0.8985279171643237,-13.88716270611237,0.7362708667737925,-12.891728596489749,0.5814089458443892,-11.883011542825162,0.43436033274441144,-10.862846517917717,0.2954921680356817,-9.833100835822467,0.1651191031113468,-8.795666658250607,0.043502172791498595,-7.752453641710709,-0.06915201933345294,-6.705381727617301,-0.17269181402169043,-5.656374077593316,-0.26702071917125103,-4.60735015619275,-0.3520973534936527,-3.560218963270063,-0.4279351222799619,-2.5168724182226936,-0.49460163646935307,-1.479178898333119,-0.5522178862301494,-0.44897693343693934,-0.6009571802634994,0.571930940856626,-0.6410438620396004,1.581784169165378,-0.6727518141766584,2.5788699993294504,-0.696402762172502,3.5615291401749416,-0.7123643886990081,4.52816125181933,-0.7210482696692804,5.4772302662923185,-0.7229076432877353,6.407269536245634,-0.7184350232930434,7.31688680952537,-0.7081596676040576,8.204769027380406,-0.6926449135787145,9.069686944080518,-0.6724853910959663,9.910499565717698,-0.648304124670851,10.726158405964293,-0.6207495358126423,11.515711556561481,-0.5904923568362097,12.27830757031168,-0.5582224673366163,13.013199154348499,-0.5246456645369797,13.71974667145767,-0.4904803787196652,14.397421447222674,-0.4564543449508385,15.045808880768528,-0.4233012423084688,15.664611356877346,-0.39175731182375273,16.253650957249217,-0.36255796434608634,16.812871968682,-0.33643438954158533,17.342343185943502,-0.31411017723520374,17.842260007109807,-0.29629796230652516,18.313635150527034,-0.28269497029594604,18.75709319752807,-0.27282680843794616,19.172373837738988,-0.2671290787805871,19.55925752214151,-0.26602365871917844,19.917565761256135,-0.2699171996506893,20.247161423325206,-0.2791996256281557,20.547949032496057,-0.2942426320151119,20.81987506700408,-0.3153981841399851,21.06292825735586,-0.34299701595052134,21.277139884512284,-0.37734712866819464,21.462584078071593,-0.41873228944261776,21.619378114452562,-0.4674105300059672,21.747682715077566,-0.5236126453273826,21.84770234455565,-0.5875406922673889,24.466964215236704,0.5308681159515833,24.11319542746373,0.4414817669411102,23.74390935340765,0.350244944780953,23.359425848646886,0.25761046388469033,22.960107648699054,0.1640604422927634,22.54635681021426,0.0701033477288826,22.118611152168576,-0.023728956343588514,21.67734069705728,-0.11688416466522789,21.223044112088306,-0.20879248412417262,20.756245150375552,-0.29886958769971006,20.277489092132285,-0.3865195684058911,19.78733918586445,-0.4711378932351362,19.286373089564083,-0.5521143571018357,18.77517931190263,-0.6288360367859518,18.25435365342434,-0.7006902448766397,17.72152742200381,-0.769040037282867,17.17465308478044,-0.8347406007510383,16.614787347695845,-0.8964610093627527,16.042951476090884,-0.9529293870221984,15.46012731916506,-1.0029372930208922,14.86725341322375,-1.0453440086678256,14.265221190285798,-1.0790807029287102,13.654871318623831,-1.1031544550183163,13.036990201809699,-1.1166521118897315,12.412306662837503,-1.1187439585644636,11.781488839896648,-1.108687179247287,11.145141320367284,-1.085829087169662,10.503802539610605,-1.049610101105655,9.857942471126428,-0.9995664465042804,9.207960634650433,-0.9353325591820685,8.55418444876356,-0.8566431695198276,7.8968679545858915,-0.7633350451074339,7.236190937127528,-0.6553483697805511,6.572258470868858,-0.5327277369932091,5.905100916142585,-0.39562273547005233,5.234674392890032,-0.2442881050822061,4.560861758364067,-0.07908344089063402,3.883474115351117,0.09952757669914192,3.202252877484666,0.2909784477270545,2.516872418222694,0.4946016364693522,1.8269433300614302,0.7096308952864252,1.1320163205579035,0.9352041505837105,0.4315867717336497,1.1703669729417747,-0.274900010567946,1.4140766534716995,-0.9880428307982787,1.6652069084518857,-1.7084778947217063,1.922553234302371,-2.4368713307628327,2.184838934952789,-3.173910915110509,2.4507218436600775,-3.9202969740060953,2.7188017613320454,-4.6767324366435705,2.9876286334129096,-5.443912012109092,3.2557114873869217,-6.222510463787524,3.5215281529561935,-7.013169954663592,3.7835357869488226,-7.816486436945162,4.040182225013448,-8.632995059436261,4.28991818215634,-9.463154566087443,4.531210324177133,-10.30733065915101,4.7625552320593165,-11.165778300368697,4.982494281371599,-12.038622923619442,5.189629458736253,-12.925840532454748,5.38264013742056,-13.827236655949232,5.560300834107456,-14.742424136294005,5.721499968901501,-15.670799721560325,5.865259650626282,-16.611519437061254,5.990756509469355,-17.563472708738793,6.09734359903085,-18.294353766707516,6.253446973192469,-19.025394488320664,6.40165310784665,-19.755691739859785,6.541695776458561,-20.484246470395924,6.67334862916641,-21.209960501807203,6.7964272139207065,-21.931633318796447,6.910790997623519,-22.64795885890883,7.016345387267743,-23.35752230254947,7.113043751076349,-24.058796863001042,7.200889439641656,-24.750140576441428,7.279937807064581,-25.429793091961294,7.350298232093906,-26.09587246158177,7.412136139265536,-26.746371930271998,7.465675020041759,-27.379156725966794,7.511198453950507,-27.99196084958426,7.549052129724614" fill="white" stroke="white" stroke-width="0" stroke-linejoin="round" filter="url(#fuzzy)"></polyline></g><g transform="translate(-39.638340500340796 -25.695180787823443)"><polyline id="leftCountour" points="33.66702871463287,5.60750159509071,33.37053658403494,5.427264188543167,33.04514919766015,5.239937833396618,32.6910536556729,5.045875900022048,32.3084829462214,4.845447388790172,31.897714296424883,4.6390360563005215,31.459067523360662,4.427039541610535,30.992903385051466,4.209868492464633,30.499621931452413,3.9879456915233185,29.979660855438322,3.7617051825922543,29.43349384379079,3.5315913968513506,28.86162892818541,3.298058279083854,28.26460683617888,3.06156841390543,27.642999342196216,2.822592151993253,26.99740761851788,2.581606736315086,26.32846058626696,2.3390954283583785,25.665762638500443,2.07432435218273,24.96399206232948,1.8034175389428029,24.223843776676926,1.5274539580625301,23.44623416528096,1.2475650432308347,22.63228389359806,0.9649215091132968,21.78330120450727,0.6807209453410303,20.900765687635513,0.39617617044339326,19.986312517123714,0.1125043283910685,19.041717152653362,-0.16908328958383656,18.068880498553362,-0.4473907152241381,17.069814515806772,-0.7212460828737512,16.04662828177727,-0.9895097358271094,15.00151449247504,-1.2510816767352484,13.93673640218175,-1.5049083794019733,12.854615195254384,-1.7499889793034864,11.75751778492775,-1.9853808601649376,10.647845033935203,-2.2102046539272653,9.528020391767491,-2.4236486714377676,8.40047894338932,-2.624972781197801,7.267656864233463,-2.813511753501034,6.131981276292055,-2.9886780872956393,4.995860500124885,-3.1499643371038815,3.8616746976043315,-3.2969449573324585,2.731766900216739,-3.429277681307065,1.6084344177399148,-3.5467044523645317,0.4939206221164989,-3.649051924336005,-0.6095928986570828,-3.736231548754544,-1.6999938218063326,-3.8082392661205766,-2.775246211399364,-3.865154818558578,-3.8333972854927882,-3.9071407011984522,-4.87258383398313,-3.9344407696149624,-5.89103829234397,-3.9473785206586705,-6.887094476429186,-3.946355064011769,-7.859192983522448,-3.931846801802223,-8.805886264813353,-3.904402833609673,-9.725843374480402,-3.8646421041964114,-10.617854400561091,-3.8132503112969705,-11.480834582789436,-3.750976590799656,-12.313828122581173,-3.6786299966534344,-13.11601169034689,-3.5970757928336337,-13.88669763531339,-3.507231574699837,-14.625336903033585,-3.4100632370793598,-15.331521665765079,-3.3065808064098103,-16.004987670897894,-3.197834154274018,-16.645616312611413,-3.0849086096608644,-17.253436431940983,-2.9689204872853274,-17.828625850434342,-2.8510125493012435,-18.371512642578168,-2.7323494177401155,-18.88257615217506,-2.614112955009423,-19.362447757851182,-2.497497629783881,-19.811848833335983,-2.3817347275720344,-20.230932946190944,-2.2656772476692435,-20.619626596661284,-2.149951556084506,-20.977899021514,-2.035172364734027,-21.3057615002514,-1.9219404100020885,-21.60326666132454,-1.8108401313019193,-21.870507788346774,-1.7024373496366003,-22.10761812630723,-1.597276946159914,-22.314770187784276,-1.4958805407372555,-22.492175059159084,-1.3987441705064825,-22.64008170682904,-1.3063359684388214,-22.758776283421312,-1.2190938418997348,-22.848581434006295,-1.1374231512097968,-22.909855602311154,-1.0616943882055825,-23.590820025175695,-0.4657540286870443,-23.280672448079283,-0.3537240060007498,-22.953347212546227,-0.2474109860696707,-22.609086168393652,-0.14649251796067198,-22.248173451256225,-0.0506167477633257,-21.87093237553704,0.04059500478894407,-21.477722327358734,0.12754566969769598,-21.068935657514405,0.21065985007832033,-20.644994574418682,0.2903812455388861,-20.206348037058667,0.3671700755589882,-19.753468647945,0.4415005028685899,-19.286849546062825,0.5138580568268649,-18.807001299822815,0.5847370568010559,-18.314448800012144,0.6546380355453074,-17.80972815274554,0.7240651625795138,-17.290738315691307,0.7923132413595724,-16.75559641264358,0.8590074092911193,-16.205163384684003,0.925122287862032,-15.640285318744702,0.9915944929297931,-15.061789834934196,1.0593188863755367,-14.470482516788142,1.1291448935622341,-13.867143407643962,1.2018729058358613,-13.252523596338794,1.278250787308294,-12.627341915429957,1.3589705051607126,-11.992281775137364,1.4446649027062595,-11.347988156207016,1.535904634450775,-10.695064784895028,1.6331952823903055,-10.034071513271417,1.736974672784254,-9.36552192804291,1.8476104126428385,-8.689881211094178,1.9653976651677088,-8.00756427494669,2.0905571833844663,-7.3189341963345464,2.223233621205833,-6.624300971096599,2.3634941411643107,-5.923920613584087,2.511327338052986,-5.2179946237831665,2.6666424977134,-4.506669845351603,2.8292692102091124,-3.7900387377689038,2.9989573566238388,-3.068140085799227,3.175377488722856,-2.3409601694663333,3.358121620716508,-1.6084344177399148,3.546704452364531,-0.8704495691325634,3.7405650426600108,-0.12684636240670455,3.939068953331709,0.6225772194092245,4.141510881403572,1.3780621284960266,4.347117800050137,2.139883832011157,4.555052626986661,2.908347268948976,4.764418439632709,3.6837811608945508,4.974263256287994,4.466531653471712,5.183585402559218,5.256955265286053,5.39133948227671,6.055411121163579,5.59644297213961,6.862252446485727,5.797783459328391,7.677817299421398,5.994226541323471,8.5024185178568,6.184624407168695,9.336332857823676,6.367825119418467,10.179789300226757,6.542682616007284,11.032956502671013,6.708067451280462,11.895929373189515,6.862878295424808,12.76871474267249,7.006054211538032,13.651216112798389,7.136587729575644,14.543217456267598,7.253538736414123,15.444366046139498,7.356049201269134,16.35415429107359,7.443358755707544,17.271900553275398,7.514821147492029,18.1967289259478,7.56992158749704,19.12754794704858,7.608295008934878,19.859623502576152,7.698969170878648,20.589438902415676,7.7823352580488905,21.316108893298487,7.858243788297193,22.038664954597632,7.92658160594951,22.75605259819117,7.98727360056336,23.46712866832546,8.040284425685014,24.170658641478465,8.085620217606692,24.865313926223028,8.12333031412375,25.54966916309016,8.15350897329188,26.2221995244324,8.176297092184294,26.881278014287023,8.191883925648924,27.5251727682394,8.20050880506561,28.152044353286247,8.202462857103294,28.75994306769896,8.198090722477215,29.346806240886867,8.187792274706096" fill="white" stroke="white" stroke-width="0" stroke-linejoin="round" filter="url(#fuzzy)"></polyline></g><g transform="translate(50.13983292339551 -24.24927166560651)"><polyline id="rightUpper" points="-34.51333053449004,6.883082412867934,-34.46417530385634,6.8133250989251355,-34.38750403564441,6.734810232032723,-34.2833932279799,6.647924818346897,-34.15195000066614,6.553057984328971,-33.99331120719783,6.450600683248739,-33.80764254677461,6.340945401687819,-33.595137676314735,6.224485866043006,-33.356017322468674,6.10161674902963,-33.09052839363274,5.972733376184902,-32.79894309196275,5.83823143237127,-32.4815580253876,5.698506668279771,-32.138693319622966,5.553954606933385,-31.770691730184865,5.4049702501903845,-31.37791775440334,5.251947785247688,-30.960756743436058,5.095280291144214,-30.519614014281927,4.935359445264234,-30.05491396179476,4.772575229840722,-29.567099170696906,4.60731563845871,-29.05662952759282,4.4399663825586355,-28.52398133298277,4.270910597939705,-27.969646413276422,4.100528551263233,-27.394131232806483,3.929197346556004,-26.797956005842316,3.7572906317136203,-26.18165380860359,3.5851783050038595,-25.545769691273904,3.413226221570018,-24.891877610473756,3.211254688263038,-24.206921101577645,3.007916866009511,-23.49142201580253,2.8039945476163686,-22.746052987015737,2.600271936524093,-21.97162820153725,2.397528963878803,-21.169094277512986,2.1965350752927355,-20.339521256085384,1.9980434760831116,-19.48409370658767,1.8027858237793133,-18.604101947988426,1.6114673566883386,-17.70093338881267,1.4247624473084928,-16.776063987766058,1.2433105693812436,-15.831049837288575,1.0677126673712252,-14.867518872264093,0.8985279171643237,-13.88716270611237,0.7362708667737925,-12.891728596489749,0.5814089458443892,-11.883011542825162,0.43436033274441144,-10.862846517917717,0.2954921680356817,-9.833100835822467,0.1651191031113468,-8.795666658250607,0.043502172791498595,-7.752453641710709,-0.06915201933345294,-6.705381727617301,-0.17269181402169043,-5.656374077593316,-0.26702071917125103,-4.60735015619275,-0.3520973534936527,-3.560218963270063,-0.4279351222799619,-2.5168724182226936,-0.49460163646935307,-1.479178898333119,-0.5522178862301494,-0.44897693343693934,-0.6009571802634994,0.571930940856626,-0.6410438620396004,1.581784169165378,-0.6727518141766584,2.5788699993294504,-0.696402762172502,3.5615291401749416,-0.7123643886990081,4.52816125181933,-0.7210482696692804,5.4772302662923185,-0.7229076432877353,6.407269536245634,-0.7184350232930434,7.31688680952537,-0.7081596676040576,8.204769027380406,-0.6926449135787145,9.069686944080518,-0.6724853910959663,9.910499565717698,-0.648304124670851,10.726158405964293,-0.6207495358126423,11.515711556561481,-0.5904923568362097,12.27830757031168,-0.5582224673366163,13.013199154348499,-0.5246456645369797,13.71974667145767,-0.4904803787196652,14.397421447222674,-0.4564543449508385,15.045808880768528,-0.4233012423084688,15.664611356877346,-0.39175731182375273,16.253650957249217,-0.36255796434608634,16.812871968682,-0.33643438954158533,17.342343185943502,-0.31411017723520374,17.842260007109807,-0.29629796230652516,18.313635150527034,-0.28269497029594604,18.75709319752807,-0.27282680843794616,19.172373837738988,-0.2671290787805871,19.55925752214151,-0.26602365871917844,19.917565761256135,-0.2699171996506893,20.247161423325206,-0.2791996256281557,20.547949032496057,-0.2942426320151119,20.81987506700408,-0.3153981841399851,21.06292825735586,-0.34299701595052134,21.277139884512284,-0.37734712866819464,21.462584078071593,-0.41873228944261776,21.619378114452562,-0.4674105300059672,21.747682715077566,-0.5236126453273826,21.84770234455565,-0.5875406922673889,21.919685508865715,-0.65936648823231,21.963925053539583,-0.739230109828684,21.980758461845063,-0.8272383915176675,21.970568152969125,-0.9234634242694604,21.933781780200974,-1.0279410542177132,21.870872529115125,-1.140669381313943,21.78235941575458,-1.261607257981952,21.668807584813855,-1.3906727877722265,21.530828607822162,-1.527741824016367,21.369080781326442,-1.672646468481494" fill="none" stroke="black" stroke-width="1.6666666666666665" stroke-linejoin="round" filter="url(#fuzzy)"></polyline><polyline id="rightLower" points="-32.42229162181205,7.630258113589398,-32.16508924955148,7.634979999205852,-31.857322532351574,7.6393496709229805,-31.50274628849231,7.642289185299597,-31.104952009413154,7.642802919492022,-30.66737106969541,7.639975550114818,-30.193277937044652,7.6329700321015395,-29.685793382273047,7.621025577565461,-29.14788768928178,7.603455634660325,-28.58238386504341,7.579645866441078,-27.99196084958426,7.549052129724614,-27.379156725966794,7.511198453950507,-26.746371930271998,7.465675020041759,-26.09587246158177,7.412136139265536,-25.429793091961294,7.350298232093906,-24.750140576441428,7.279937807064581,-24.058796863001042,7.200889439641656,-23.35752230254947,7.113043751076349,-22.64795885890883,7.016345387267743,-21.931633318796447,6.910790997623519,-21.209960501807203,6.7964272139207065,-20.484246470395924,6.67334862916641,-19.755691739859785,6.541695776458561,-19.025394488320664,6.40165310784665,-18.294353766707516,6.253446973192469,-17.563472708738793,6.09734359903085,-16.611519437061254,5.990756509469355,-15.670799721560325,5.865259650626282,-14.742424136294005,5.721499968901501,-13.827236655949232,5.560300834107456,-12.925840532454748,5.38264013742056,-12.038622923619442,5.189629458736253,-11.165778300368697,4.982494281371599,-10.30733065915101,4.7625552320593165,-9.463154566087443,4.531210324177133,-8.632995059436261,4.28991818215634,-7.816486436945162,4.040182225013448,-7.013169954663592,3.7835357869488226,-6.222510463787524,3.5215281529561935,-5.443912012109092,3.2557114873869217,-4.6767324366435705,2.9876286334129096,-3.9202969740060953,2.7188017613320454,-3.173910915110509,2.4507218436600775,-2.4368713307628327,2.184838934952789,-1.7084778947217063,1.922553234302371,-0.9880428307982787,1.6652069084518857,-0.274900010567946,1.4140766534716995,0.4315867717336497,1.1703669729417747,1.1320163205579035,0.9352041505837105,1.8269433300614302,0.7096308952864252,2.516872418222694,0.4946016364693522,3.202252877484666,0.2909784477270545,3.883474115351117,0.09952757669914192,4.560861758364067,-0.07908344089063402,5.234674392890032,-0.2442881050822061,5.905100916142585,-0.39562273547005233,6.572258470868858,-0.5327277369932091,7.236190937127528,-0.6553483697805511,7.8968679545858915,-0.7633350451074339,8.55418444876356,-0.8566431695198276,9.207960634650433,-0.9353325591820685,9.857942471126428,-0.9995664465042804,10.503802539610605,-1.049610101105655,11.145141320367284,-1.085829087169662,11.781488839896648,-1.108687179247287,12.412306662837503,-1.1187439585644636,13.036990201809699,-1.1166521118897315,13.654871318623831,-1.1031544550183163,14.265221190285798,-1.0790807029287102,14.86725341322375,-1.0453440086678256,15.46012731916506,-1.0029372930208922,16.042951476090884,-0.9529293870221984,16.614787347695845,-0.8964610093627527,17.17465308478044,-0.8347406007510383,17.72152742200381,-0.769040037282867,18.25435365342434,-0.7006902448766397,18.77517931190263,-0.6288360367859518,19.286373089564083,-0.5521143571018357,19.78733918586445,-0.4711378932351362,20.277489092132285,-0.3865195684058911,20.756245150375552,-0.29886958769971006,21.223044112088306,-0.20879248412417262,21.67734069705728,-0.11688416466522789,22.118611152168576,-0.023728956343588514,22.54635681021426,0.0701033477288826,22.960107648699054,0.1640604422927634,23.359425848646886,0.25761046388469033,23.74390935340765,0.350244944780953,24.11319542746373,0.4414817669411102,24.466964215236704,0.5308681159515833,24.804942299893966,0.6179834349692728,25.126906262155387,0.7024423786651504,25.4326862390999,0.78389776716788,25.722169482972184,0.862043540007404,25.9953039199893,0.9366177100585675,26.25210170914732,1.00740531748471,26.492642801027944,1.0742413836812705,26.71707849660519,1.1370138652194068,26.92563500605199,1.1956666077895788,27.118617007546852,1.2502023001451725" fill="none" stroke="black" stroke-width="2.2222222222222223" stroke-linejoin="round" filter="url(#fuzzy)"></polyline><!--[--><circle r="4.748840373286162" cx="-14.092722951410174" cy="4.464085484596465" stroke="black" fill="none" stroke-width="1" filter="url(#fuzzy)" clip-path="url(#rightEyeClipPath)"></circle><circle r="4.312077950553887" cx="-16.47789506018698" cy="5.989549893797406" stroke="black" fill="none" stroke-width="1" filter="url(#fuzzy)" clip-path="url(#rightEyeClipPath)"></circle><circle r="4.3796807326121385" cx="-15.941780994579403" cy="2.8509751224639146" stroke="black" fill="none" stroke-width="1" filter="url(#fuzzy)" clip-path="url(#rightEyeClipPath)"></circle><circle r="3.046562746628955" cx="-13.600167631716905" cy="4.700645149796614" stroke="black" fill="none" stroke-width="1" filter="url(#fuzzy)" clip-path="url(#rightEyeClipPath)"></circle><circle r="3.2358419513306083" cx="-12.500938178366926" cy="7.018464455232696" stroke="black" fill="none" stroke-width="1" filter="url(#fuzzy)" clip-path="url(#rightEyeClipPath)"></circle><circle r="3.150271709019657" cx="-15.157445155518465" cy="2.965649487111105" stroke="black" fill="none" stroke-width="1" filter="url(#fuzzy)" clip-path="url(#rightEyeClipPath)"></circle><circle r="4.7614142586676085" cx="-12.804654213444731" cy="6.410078415667634" stroke="black" fill="none" stroke-width="1" filter="url(#fuzzy)" clip-path="url(#rightEyeClipPath)"></circle><circle r="4.948668054632" cx="-16.14974508355546" cy="4.359304312051533" stroke="black" fill="none" stroke-width="1" filter="url(#fuzzy)" clip-path="url(#rightEyeClipPath)"></circle><circle r="3.4953629474545127" cx="-12.549138105990329" cy="4.370277492997174" stroke="black" fill="none" stroke-width="1" filter="url(#fuzzy)" clip-path="url(#rightEyeClipPath)"></circle><circle r="3.2538458996505364" cx="-15.326375549663634" cy="4.098320235225113" stroke="black" fill="none" stroke-width="1" filter="url(#fuzzy)" clip-path="url(#rightEyeClipPath)"></circle><!--]--></g><g transform="translate(-39.638340500340796 -25.695180787823443)"><polyline id="leftUpper" points="35.037660148856595,6.955166745181074,35.029136684447984,6.861190848883632,34.99273358455329,6.757644179863558,34.9280883737926,6.6446757510942716,34.834900954898174,6.522458943258061,34.71293195970165,6.391190630975171,34.56200110012122,6.251090309032883,34.38198551914871,6.102399218614611,34.17281814183681,5.945379473528978,33.93448602628623,5.780313186438907,33.66702871463287,5.60750159509071,33.37053658403494,5.427264188543167,33.04514919766015,5.239937833396618,32.6910536556729,5.045875900022048,32.3084829462214,4.845447388790172,31.897714296424883,4.6390360563005215,31.459067523360662,4.427039541610535,30.992903385051466,4.209868492464633,30.499621931452413,3.9879456915233185,29.979660855438322,3.7617051825922543,29.43349384379079,3.5315913968513506,28.86162892818541,3.298058279083854,28.26460683617888,3.06156841390543,27.642999342196216,2.822592151993253,26.99740761851788,2.581606736315086,26.32846058626696,2.3390954283583785,25.665762638500443,2.07432435218273,24.96399206232948,1.8034175389428029,24.223843776676926,1.5274539580625301,23.44623416528096,1.2475650432308347,22.63228389359806,0.9649215091132968,21.78330120450727,0.6807209453410303,20.900765687635513,0.39617617044339326,19.986312517123714,0.1125043283910685,19.041717152653362,-0.16908328958383656,18.068880498553362,-0.4473907152241381,17.069814515806772,-0.7212460828737512,16.04662828177727,-0.9895097358271094,15.00151449247504,-1.2510816767352484,13.93673640218175,-1.5049083794019733,12.854615195254384,-1.7499889793034864,11.75751778492775,-1.9853808601649376,10.647845033935203,-2.2102046539272653,9.528020391767491,-2.4236486714377676,8.40047894338932,-2.624972781197801,7.267656864233463,-2.813511753501034,6.131981276292055,-2.9886780872956393,4.995860500124885,-3.1499643371038815,3.8616746976043315,-3.2969449573324585,2.731766900216739,-3.429277681307065,1.6084344177399148,-3.5467044523645317,0.4939206221164989,-3.649051924336005,-0.6095928986570828,-3.736231548754544,-1.6999938218063326,-3.8082392661205766,-2.775246211399364,-3.865154818558578,-3.8333972854927882,-3.9071407011984522,-4.87258383398313,-3.9344407696149624,-5.89103829234397,-3.9473785206586705,-6.887094476429186,-3.946355064011769,-7.859192983522448,-3.931846801802223,-8.805886264813353,-3.904402833609673,-9.725843374480402,-3.8646421041964114,-10.617854400561091,-3.8132503112969705,-11.480834582789436,-3.750976590799656,-12.313828122581173,-3.6786299966534344,-13.11601169034689,-3.5970757928336337,-13.88669763531339,-3.507231574699837,-14.625336903033585,-3.4100632370793598,-15.331521665765079,-3.3065808064098103,-16.004987670897894,-3.197834154274018,-16.645616312611413,-3.0849086096608644,-17.253436431940983,-2.9689204872853274,-17.828625850434342,-2.8510125493012435,-18.371512642578168,-2.7323494177401155,-18.88257615217506,-2.614112955009423,-19.362447757851182,-2.497497629783881,-19.811848833335983,-2.3817347275720344,-20.230932946190944,-2.2656772476692435,-20.619626596661284,-2.149951556084506,-20.977899021514,-2.035172364734027,-21.3057615002514,-1.9219404100020885,-21.60326666132454,-1.8108401313019193,-21.870507788346774,-1.7024373496366003,-22.10761812630723,-1.597276946159914,-22.314770187784276,-1.4958805407372555,-22.492175059159084,-1.3987441705064825,-22.64008170682904,-1.3063359684388214,-22.758776283421312,-1.2190938418997348,-22.848581434006295,-1.1374231512097968,-22.909855602311154,-1.0616943882055825,-22.94299233693325,-0.9922408548005475,-22.948419597553738,-0.929356341545903,-22.926599061150927,-0.8732928061914969,-22.878025428213917,-0.8242580522466962,-22.803225728955987,-0.7824134075412665,-22.702758629528148,-0.7478714027862505,-22.577213738232622,-0.7206934501348492,-22.42721091173631,-0.700887521743299,-22.253399561284354,-0.6884058283317618,-22.056457958913562,-0.6831424977451945" fill="none" stroke="black" stroke-width="2.2222222222222223" stroke-linejoin="round" filter="url(#fuzzy)"></polyline><polyline id="leftLower" points="33.51851726541243,7.889765154529965,33.282240134352456,7.923953562061773,32.997493438673594,7.959630322409944,32.66761804510569,7.995748702375291,32.29581485014953,8.03133438913404,31.885147480213508,8.065483771480634,31.43854499175035,8.097362221070552,30.958804571393767,8.126202373663101,30.448594236095204,8.15130241036423,29.910455533260563,8.172024338869342,29.346806240886867,8.187792274706096,28.75994306769896,8.198090722477215,28.152044353286247,8.202462857103294,27.5251727682394,8.20050880506561,26.881278014287023,8.191883925648924,26.2221995244324,8.176297092184294,25.54966916309016,8.15350897329188,24.865313926223028,8.12333031412375,24.170658641478465,8.085620217606692,23.46712866832546,8.040284425685014,22.75605259819117,7.98727360056336,22.038664954597632,7.92658160594951,21.316108893298487,7.858243788297193,20.589438902415676,7.7823352580488905,19.859623502576152,7.698969170878648,19.12754794704858,7.608295008934878,18.1967289259478,7.56992158749704,17.271900553275398,7.514821147492029,16.35415429107359,7.443358755707544,15.444366046139498,7.356049201269134,14.543217456267598,7.253538736414123,13.651216112798389,7.136587729575644,12.76871474267249,7.006054211538032,11.895929373189515,6.862878295424808,11.032956502671013,6.708067451280462,10.179789300226757,6.542682616007284,9.336332857823676,6.367825119418467,8.5024185178568,6.184624407168695,7.677817299421398,5.994226541323471,6.862252446485727,5.797783459328391,6.055411121163579,5.59644297213961,5.256955265286053,5.39133948227671,4.466531653471712,5.183585402559218,3.6837811608945508,4.974263256287994,2.908347268948976,4.764418439632709,2.139883832011157,4.555052626986661,1.3780621284960266,4.347117800050137,0.6225772194092245,4.141510881403572,-0.12684636240670455,3.939068953331709,-0.8704495691325634,3.7405650426600108,-1.6084344177399148,3.546704452364531,-2.3409601694663333,3.358121620716508,-3.068140085799227,3.175377488722856,-3.7900387377689038,2.9989573566238388,-4.506669845351603,2.8292692102091124,-5.2179946237831665,2.6666424977134,-5.923920613584087,2.511327338052986,-6.624300971096599,2.3634941411643107,-7.3189341963345464,2.223233621205833,-8.00756427494669,2.0905571833844663,-8.689881211094178,1.9653976651677088,-9.36552192804291,1.8476104126428385,-10.034071513271417,1.736974672784254,-10.695064784895028,1.6331952823903055,-11.347988156207016,1.535904634450775,-11.992281775137364,1.4446649027062595,-12.627341915429957,1.3589705051607126,-13.252523596338794,1.278250787308294,-13.867143407643962,1.2018729058358613,-14.470482516788142,1.1291448935622341,-15.061789834934196,1.0593188863755367,-15.640285318744702,0.9915944929297931,-16.205163384684003,0.925122287862032,-16.75559641264358,0.8590074092911193,-17.290738315691307,0.7923132413595724,-17.80972815274554,0.7240651625795138,-18.314448800012144,0.6546380355453074,-18.807001299822815,0.5847370568010559,-19.286849546062825,0.5138580568268649,-19.753468647945,0.4415005028685899,-20.206348037058667,0.3671700755589882,-20.644994574418682,0.2903812455388861,-21.068935657514405,0.21065985007832033,-21.477722327358734,0.12754566969769598,-21.87093237553704,0.04059500478894407,-22.248173451256225,-0.0506167477633257,-22.609086168393652,-0.14649251796067198,-22.953347212546227,-0.2474109860696707,-23.280672448079283,-0.3537240060007498,-23.590820025175695,-0.4657540286870443,-23.883593486884777,-0.5837915254632406,-24.15884487617134,-0.7080924114444187,-24.416477842964643,-0.838875468904904,-24.656450751207448,-0.9763197706571045,-24.87877978590493,-1.1205621034303626,-25.083542060173762,-1.271694391249797,-25.270878722291055,-1.4297611188151595,-25.440998062743365,-1.5947567548796613,-25.594178621275688,-1.7666231756288262,-25.73077229394046,-1.945247088059352" fill="none" stroke="black" stroke-width="2.2222222222222223" stroke-linejoin="round" filter="url(#fuzzy)"></polyline><!--[--><circle r="4.300818248818043" cx="-19.519801038058628" cy="-2.644064162603137" stroke="black" fill="none" stroke-width="1" filter="url(#fuzzy)" clip-path="url(#leftEyeClipPath)"></circle><circle r="4.803205503466868" cx="-23.199862496690958" cy="-1.2706429164405115" stroke="black" fill="none" stroke-width="1" filter="url(#fuzzy)" clip-path="url(#leftEyeClipPath)"></circle><circle r="4.23156362008637" cx="-23.6167473710198" cy="-0.01779693922309633" stroke="black" fill="none" stroke-width="1" filter="url(#fuzzy)" clip-path="url(#leftEyeClipPath)"></circle><circle r="4.600173996367172" cx="-19.30723879389985" cy="-2.085832083219942" stroke="black" fill="none" stroke-width="1" filter="url(#fuzzy)" clip-path="url(#leftEyeClipPath)"></circle><circle r="4.180971707554895" cx="-20.946158983686384" cy="-1.6394176495552444" stroke="black" fill="none" stroke-width="1" filter="url(#fuzzy)" clip-path="url(#leftEyeClipPath)"></circle><circle r="3.835277478939783" cx="-22.4345261966213" cy="-0.5402374522994435" stroke="black" fill="none" stroke-width="1" filter="url(#fuzzy)" clip-path="url(#leftEyeClipPath)"></circle><circle r="4.535693457778406" cx="-20.576258298846266" cy="1.146109887984366" stroke="black" fill="none" stroke-width="1" filter="url(#fuzzy)" clip-path="url(#leftEyeClipPath)"></circle><circle r="3.1376644352325735" cx="-21.34942998998357" cy="-0.0030864757866249093" stroke="black" fill="none" stroke-width="1" filter="url(#fuzzy)" clip-path="url(#leftEyeClipPath)"></circle><circle r="3.3666936065403714" cx="-19.917806025619807" cy="-0.26434773323207983" stroke="black" fill="none" stroke-width="1" filter="url(#fuzzy)" clip-path="url(#leftEyeClipPath)"></circle><circle r="3.0085348038585407" cx="-23.183662078576752" cy="-1.9791320791649711" stroke="black" fill="none" stroke-width="1" filter="url(#fuzzy)" clip-path="url(#leftEyeClipPath)"></circle><!--]--></g><g id="hairs"><!--[--><polyline points="68,-58,69.10791595753045,-56.17944425604009,69.25973231694415,-55.45575020741484,68.75350824544078,-55.20216876214249,67.59006243891781,-55.25448150164448,65.7488203355836,-55.5997703785392,63.241629738866834,-56.2495170202159,60.078669391574174,-57.205331628876564,56.231727600097656,-58.474822998046875,51.631086022682915,-60.09989835385585,46.1925880847173,-62.15960578419275,39.85036786860237,-64.73394571558907,32.57537648343714,-67.85686561861075,24.379315284595787,-71.5071352729999,15.291909731149916,-75.64861640044882,5.179484480351603,-80.23832303034945" fill="none" stroke="rgb(185, 55, 55)" stroke-width="2" stroke-linejoin="round" filter="url(#fuzzy)"></polyline><polyline points="-40,-75,-37.97717207820083,-76.20764039115339,-37.01626270610477,-76.69632005455827,-36.25030881451006,-77.1055998322833,-35.33133922909812,-77.5815921814038,-34.31584477055629,-78.0381788233599,-33.39732770130634,-78.36684605840078,-32.74208224361181,-78.50878257790883,-32.4350979357976,-78.45246443652985,-32.499053955078125,-78.20864868164062,-32.94318411956063,-77.78516258832522,-33.80205500667028,-77.17268770618212,-35.13787463281703,-76.34958380754783,-37.00155838348772,-75.30419854386737,-39.37776791010607,-74.0542508282123,-42.17946221506255,-72.6247403888671,-45.375249873930336,-70.95521641090127,-49.20492029204405,-68.80373007102645" fill="none" stroke="rgb(185, 55, 55)" stroke-width="2" stroke-linejoin="round" filter="url(#fuzzy)"></polyline><polyline points="-16,-84,-14.880531965705663,-84.01308284330746,-13.037970650727939,-84.08189799458218,-10.861321026276485,-84.08695855939209,-8.616013821568094,-83.95870625031934,-6.233605422250378,-83.7139550848585,-3.5815895852205566,-83.39549064063517,-0.6214906245378664,-83.02719222181236,2.593604216343282,-82.60633902609504,5.981591053958333,-82.11929414522345,9.476073021628569,-81.55886488816807,13.035397138129387,-80.93071678128354,16.63217929005623,-80.24924919009209,20.242239464489483,-79.53015262017493,23.841685396605982,-78.78575451167487,27.411183689078644,-78.02482623695427,30.94020572005529,-77.25545107266258,34.422290177768694,-76.48886542454511,37.838388429567736,-75.74245354432647,41.13809009988223,-75.04044413594765,44.236931934268554,-74.4115429635662,47.03974861402104,-73.88324142381876,49.47677399565367,-73.47289790047058,51.50845596357708,-73.18086770129018" fill="none" stroke="rgb(185, 55, 55)" stroke-width="2" stroke-linejoin="round" filter="url(#fuzzy)"></polyline><polyline points="6,-86,8.377713797076753,-85.98378687358091,10.028632163327844,-85.92836329399924,11.07524688810573,-85.82372234180524,11.53675540119165,-85.65371865738805,11.389480825467281,-85.39248244385868,10.621476022273209,-85.01251586699198,9.239330829631667,-84.50012825491615,7.247426271104075,-83.86405715779587,4.6353384533282735,-83.12808509916552,1.3781166998131198,-82.31062628873028,-2.563135222955337,-81.40515469143361,-7.241589167402772,-80.37902263199388,-12.720677696186627,-79.19663745655083,-19.083772856247272,-77.84387717209572,-26.480099833170165,-76.31471887124204,-35.056467341435095,-74.60245429853266" fill="none" stroke="rgb(185, 55, 55)" stroke-width="2" stroke-linejoin="round" filter="url(#fuzzy)"></polyline><polyline points="34,-83,35.46112276852913,-82.26576227506665,36.78718250455323,-81.60850094850181,38.270921567423116,-80.91005430135837,39.797122267657734,-80.2277082019808,41.24318818287099,-79.59542746560159,42.574124207021775,-79.00219807263704,43.81908861855375,-78.42198025129021,45.015849725535524,-77.841234136585,46.17052572919275,-77.26779854335174,47.24929344152399,-76.72491139168855,48.19450495492944,-76.24043727648089,48.94763243198395,-75.8388241827488,49.46531108871913,-75.53800186798945,49.72464547077354,-75.34959940689839,49.7210540693797,-75.28008112016279,49.46215158320187,-75.33203359328405,48.95712781992157,-75.50688472458422,48.19945552153221,-75.81088179198892,47.14661922726894,-76.2644519456421,45.71228911870574,-76.9109972764856,43.79458451738881,-77.81446912922638,41.35747982500789,-79.02748917407109,38.5660366934491,-80.5099772870467" fill="none" stroke="rgb(185, 55, 55)" stroke-width="2" stroke-linejoin="round" filter="url(#fuzzy)"></polyline><polyline points="-7,-85,-4.751217548312341,-85.5626965562997,-3.8586475957812825,-85.6219591127732,-3.377715941527344,-85.39172293751015,-3.2555198792510183,-84.94911162410978,-3.5993044738219666,-84.30893297775332,-4.505112678957476,-83.46292926848864,-6.056596318266205,-82.39638798970658,-8.314142588897482,-81.09481754439548,-11.291332894034944,-79.54594546736982,-14.966993531109953,-77.73840024130942,-19.338008604603374,-75.65848949019671,-24.4656009317331,-73.28639981158642,-30.46885655854981,-70.59329114589531,-37.46773404514519,-67.5432902731822,-45.51095318263218,-64.10421863829488,-54.491180978668694,-60.25915068563822" fill="none" stroke="rgb(185, 55, 55)" stroke-width="2" stroke-linejoin="round" filter="url(#fuzzy)"></polyline><polyline points="-10,-85,-9.527228656706583,-84.96015509400158,-7.8084462596758435,-84.91289114580724,-5.163402738792391,-84.88706699825813,-2.0848254855501667,-84.82453344594829,1.180676458481499,-84.66724820099085,4.577539548618805,-84.39940453694474,8.100205260077177,-84.04119355876077,11.72176784231151,-83.62714941905524,15.381448667059292,-83.19060247068637,18.99484559452739,-82.758614375808,22.481424776675418,-82.35162239951624,25.8072108498885,-81.98075076165912,29.007863103380412,-81.64050316746929,32.14024957910143,-81.30239465579284,35.159573211054024,-80.92652418501117,37.83187854704208,-80.50572445309774" fill="none" stroke="rgb(185, 55, 55)" stroke-width="2" stroke-linejoin="round" filter="url(#fuzzy)"></polyline><polyline points="-30,-80,-28.789855282481227,-80.06675287921915,-27.02462712221325,-80.32697662280702,-24.827574848476523,-80.708076010953,-22.35565244766037,-81.12581449612047,-19.724307504924987,-81.53608697988645,-16.969954596729377,-81.928037835722,-14.062955763091084,-82.3063490418549,-10.968838297891189,-82.67536690209059,-7.705985424381595,-83.03383528390195,-4.357058625555091,-83.37921782134964,-1.0363014943965343,-83.71265227509514,2.1533653878794965,-84.03664721302003,5.144439295936941,-84.34602169328622,7.908794569077424,-84.62155966872811,10.456150852258181,-84.83806943291758,12.824172678915938,-84.99031560420075,15.01981279373533,-85.12661431257152,16.81353041317082,-85.37763921306049" fill="none" stroke="rgb(185, 55, 55)" stroke-width="2" stroke-linejoin="round" filter="url(#fuzzy)"></polyline><polyline points="-41,-75,-39.557287524492736,-75.49553767616729,-38.07048684460238,-76.1773025487372,-36.91588674723303,-76.73101493593518,-35.87010845935754,-77.25939178615572,-34.75227025192769,-77.81851231203203,-33.58393679500694,-78.3589584915664,-32.50467684924882,-78.79923375608526,-31.6501802296901,-79.08624371736177,-31.09108543395996,-79.21023368835449,-30.84626262777938,-79.18710673613197,-30.93404906727807,-79.02927751016635,-31.410697394306716,-78.72514051177781,-32.36763929542409,-78.23927413220082,-33.89971329842808,-77.52700551960675,-36.07469293629689,-76.54226670559626,-38.9087757767773,-75.22909786938699,-42.382987731580656,-73.49504264240603" fill="none" stroke="rgb(185, 55, 55)" stroke-width="2" stroke-linejoin="round" filter="url(#fuzzy)"></polyline><polyline points="-40,-75,-40.03928532509317,-75.15489380657402,-38.83994557639798,-75.66097236541418,-37.21527361557786,-76.28446492992829,-35.4747374498663,-76.9179160552393,-33.59099585528768,-77.58353554215533,-31.495649187334173,-78.29896548308366,-29.20659697600746,-79.03799880277418,-26.811351427019595,-79.75773004193397,-24.40719836648874,-80.42996050601315,-22.06445310654039,-81.05078586727042,-19.826037287712097,-81.63187599182129,-17.725288510947376,-82.18620983861211,-15.800006097675865,-82.71826860033863,-14.092443669965265,-83.22220588342913,-12.638698176288113,-83.68549128831934,-11.46053801070626,-84.0925708849131,-10.574986410820253,-84.42538934670554,-10.020905251679327,-84.66483859609674,-9.856584195044675,-84.80283733261533,-10.044945498004145,-84.86560337708941,-10.252043637346588,-84.91745034469821" fill="none" stroke="rgb(185, 55, 55)" stroke-width="2" stroke-linejoin="round" filter="url(#fuzzy)"></polyline><polyline points="64,-64,65.05323145650482,-61.95084739006252,65.05144812373192,-60.9521593118791,64.5519890535838,-60.23745013025602,63.70570777349416,-59.479584755806705,62.46076663802302,-58.673626804300525,60.70595907384781,-57.92278708147119,58.345832784133535,-57.3090109081591,55.32487825708819,-56.8582384213529,51.624247786581705,-56.556592983767345,47.24885617236626,-56.37542011736431,42.21402657032013,-56.28740346431732,36.535216131586424,-56.275854443705455,30.22147992948698,-56.34248005496257,23.271161730615876,-56.51040701253308,15.667814157963608,-56.81362461577123,7.3774485046843274,-57.272527000097256,-1.6485188517402314,-57.8732449420043,-11.465235808919495,-58.574752339518774,-22.133355346137446,-59.3459959719273,-33.72171412012952,-60.2088106738391,-46.21082737125773,-61.293707704902275" fill="none" stroke="rgb(185, 55, 55)" stroke-width="2" stroke-linejoin="round" filter="url(#fuzzy)"></polyline><polyline points="-16,-84,-14.932425876979385,-84.06114539059311,-13.249623104241515,-84.2692504788787,-11.348464782160764,-84.50097249793184,-9.499449584704523,-84.68189991014015,-7.635213199667897,-84.81965345731409,-5.6231598731175945,-84.94545481660734,-3.42746388636135,-85.0732256671306,-1.10844783274073,-85.19348810307136,1.240260211837302,-85.28818077674126,3.5377302256586276,-85.34719003459895,5.7270064189469645,-85.37497149488526,7.768325477838516,-85.38625904917717,9.632147781874849,-85.39667801551892,11.29784172047936,-85.41519442577156,12.754775318556199,-85.44255572626203,13.999996008085128,-85.4758701870406,15.029106273268198,-85.51589262103047,15.823762630882623,-85.57125050328457,16.34675049079877,-85.6540002655729,16.551868408658216,-85.76571952903136,16.39086400624162,-85.8838190094157,15.779212765155377,-85.96805915479749,14.574129146302006,-85.99793345888388" fill="none" stroke="rgb(185, 55, 55)" stroke-width="2" stroke-linejoin="round" filter="url(#fuzzy)"></polyline><polyline points="-26,-81,-24.77017748163529,-81.24846351901316,-23.51568169105835,-81.6110919262839,-22.510371312502286,-81.9337075367081,-21.618766619501468,-82.234914152602,-20.718072434835104,-82.51991207973944,-19.823911318593918,-82.76185738650378,-19.033091586388082,-82.92492250948975,-18.44924176391036,-82.98221809111811,-18.15389424872144,-82.91924328789727,-18.208000384492802,-82.72841747266756,-18.653130945650325,-82.4034006320985,-19.50642857964715,-81.93751435954377,-20.766384479222133,-81.32380025569907,-22.43899192709379,-80.55213226719823,-24.563862940929717,-79.60463218879153,-27.205983502836688,-78.45836908434867,-30.411495145843272,-77.10111274492593,-34.18058756321867,-75.54603531962175,-38.499489241247424,-73.81404646286452,-43.3157116593111,-71.89814743458597" fill="none" stroke="rgb(185, 55, 55)" stroke-width="2" stroke-linejoin="round" filter="url(#fuzzy)"></polyline><polyline points="64,-64,65.14958286795533,-61.99525937295506,65.42660136837858,-61.11951978183779,65.3574300457348,-60.64298987686954,65.09533435488906,-60.2426109463717,64.59247534034336,-59.92020540147886,63.73090733464028,-59.80093503521447,62.39918851691918,-59.996643811589486,60.52169626965639,-60.55931421612734,58.059940338134766,-61.49244689941406,55.00149399516748,-62.77820815617163,51.34176867796455,-64.39541347667405,47.062366977705196,-66.32670689236572,42.11660616799397,-68.56636397689947,36.43335695133435,-71.1369042821548,29.944289050548896,-74.10458063503549,22.660605386570683,-77.56130954584292,14.911770432313247,-81.54827916169694" fill="none" stroke="rgb(185, 55, 55)" stroke-width="2" stroke-linejoin="round" filter="url(#fuzzy)"></polyline><polyline points="75,-43,75.72441034283447,-41.24470805218388,75.08598999706716,-40.23629761715088,73.63999121396151,-39.31285731772541,71.45938276608953,-38.49470433824676,68.50568354863718,-37.89302594817019,64.73723084123378,-37.56945732283177,60.129032513405605,-37.52552983392561,54.66327884768705,-37.732642859523565,48.321126254143905,-38.166453418457984,41.08836782625947,-38.82558185238751,32.967140181146576,-39.727778906757095,23.97586874744468,-40.89117752389278,14.129223915493398,-42.31911453539971,3.411179443485956,-44.00348958612055,-8.231686562909097,-45.939325878418735,-20.85783903356143,-48.12195799342562,-34.46896051884972,-50.519028464971136,-48.949499517456935,-53.09072285133064" fill="none" stroke="rgb(185, 55, 55)" stroke-width="2" stroke-linejoin="round" filter="url(#fuzzy)"></polyline><polyline points="-45,-73,-41.7826098281454,-74.31375258059694,-39.622392363899145,-75.1335076801798,-37.31814767360739,-75.91756929621037,-34.739660552161794,-76.73507922665512,-31.975363884278224,-77.57436089034523,-29.025436902837452,-78.45551819968347,-25.83618387132539,-79.39825024386917,-22.420574474624978,-80.3802750910702,-18.909284972416206,-81.34721751800873,-15.497334094273988,-82.25236716636326,-12.339893649092762,-83.0833035766753,-9.498924518034633,-83.85873509692867,-7.0269242942972,-84.60480145696732,-5.131656609915059,-85.3245815033668" fill="none" stroke="rgb(185, 55, 55)" stroke-width="2" stroke-linejoin="round" filter="url(#fuzzy)"></polyline><polyline points="62,-65,62.7055019135832,-64.59545263660466,62.897020983502955,-64.0049335046979,62.59930458222276,-63.44203784131303,61.79289756159333,-62.98364832196725,60.46410943746599,-62.684757423378215,58.61924095934704,-62.535633783928276,56.25158077807546,-62.50535095889309,53.318083443193096,-62.599189386242315,49.74627091772928,-62.86689162124401,45.46124336102749,-63.36967963064812,40.413342897957854,-64.14638947530908,34.58955265021464,-65.20537327656814,28.00005247286134,-66.53802944951319,20.64546695937903,-68.13216980232102,12.488399001494118,-69.97136294673689,3.4609354943578303,-72.03067125510483,-6.487147085758247,-74.29792577603848,-17.348556417191652,-76.84780448370651" fill="none" stroke="rgb(185, 55, 55)" stroke-width="2" stroke-linejoin="round" filter="url(#fuzzy)"></polyline><polyline points="-15,-84,-13.665748303169638,-84.24357698277969,-11.683083567236295,-84.57090612100727,-9.964437128955401,-84.79579679669335,-8.328437838610846,-84.953960800524,-6.523624633763486,-85.10636140783761,-4.500456187542705,-85.2764347471128,-2.357141404103061,-85.45128740690899,-0.2207406399901335,-85.60687059265254,1.818700474630263,-85.72887369031451,3.711837286860697,-85.81771351087033,5.425051278866965,-85.88166884952564,6.915973374407945,-85.92839775981535,8.123997340084806,-85.96160492269289,8.981102568383957,-85.98277315486678,9.438561232940657,-85.99394977022979,9.491585028541266,-85.99847914913981,9.178324716228394,-85.9997624681937,8.537987269292396,-85.99998224250837,7.514948462793983,-85.99999964584579,5.808776723704813,-85.99999999970879" fill="none" stroke="rgb(185, 55, 55)" stroke-width="2" stroke-linejoin="round" filter="url(#fuzzy)"></polyline><polyline points="-30,-80,-28.82465896205341,-80.08996015327574,-27.154828652467476,-80.41508273298157,-25.12693335966354,-80.89686261915324,-22.91497325537383,-81.4383770393179,-20.68115947786129,-81.98294882901773,-18.525927170415006,-82.51277712236217,-16.46321695745378,-83.03258956069313,-14.46962905004726,-83.54666056900717,-12.56629335494492,-84.04115573255045,-10.857658356835124,-84.48058526920087,-9.507983231666984,-84.81785142933013,-8.705670847699352,-85.01355721963603,-8.637087919119248,-85.06272455592472,-9.322925397078452,-85.02302922040869" fill="none" stroke="rgb(185, 55, 55)" stroke-width="2" stroke-linejoin="round" filter="url(#fuzzy)"></polyline><polyline points="66,-60,66.12071643328031,-60.0329869702969,66.22243349550291,-59.09755182120977,66.00626853585793,-57.89218356213595,65.26855035415304,-56.73887463119669,63.90472552314661,-55.745438567130215,61.87953253005566,-54.90303684811055,59.196573629200685,-54.16517380170515,55.87880010868787,-53.48656683037963,51.95291355415384,-52.832175087871605,47.43565557584578,-52.17854568424583,42.326252367768156,-51.51848071466376,36.6081119262507,-50.865038420132095,30.257692803120104,-50.24643287482109,23.254522660791555,-49.691305654951734,15.586262074182287,-49.21427979399243,7.2466060596457815,-48.812672536324015,-1.7702272695464032,-48.47501952813255,-11.470370058895845,-48.19318199741274,-21.849557966650014,-47.97673023251191,-32.87154437344478,-47.88400746856158,-44.45195858506982,-48.06793609403916,-56.49161146706336,-48.74998936376567" fill="none" stroke="rgb(185, 55, 55)" stroke-width="2" stroke-linejoin="round" filter="url(#fuzzy)"></polyline><polyline points="-20,-83,-18.46871260019107,-83.25191255828663,-16.58989206043213,-83.62637233252956,-14.667031098373918,-83.96630364250771,-12.713686237131922,-84.2734774774472,-10.795398310122994,-84.54713660270963,-8.954599853685483,-84.78460884286656,-7.159748457018889,-84.9953957713502,-5.355803751643126,-85.19471952353403,-3.5320408819064517,-85.38960669257935,-1.7403921203927797,-85.57323825023548,-0.06517587932393676,-85.7307516305871,1.4180017016275024,-85.8497582871776,2.662893596737982,-85.927382397511,3.6461755803233316,-85.97034025290921,4.345839376733665,-85.99008879623547,4.722969200670705,-85.99740995894237,4.723299719396168,-85.99950478959747,4.301218811755971,-85.99993757305575,3.4421135454140277,-85.9999956466886,2.147776199237691,-85.999999879336,0.41706021219250955,-85.9999999993683,-1.5891838575379134,-85.99999999999994" fill="none" stroke="rgb(185, 55, 55)" stroke-width="2" stroke-linejoin="round" filter="url(#fuzzy)"></polyline><polyline points="64,-63,64.50361840801278,-62.81417281856136,65.2402554870911,-61.81514612633411,65.870063844509,-60.86369194757334,66.46009782005412,-59.9965836350584,67.0775483439984,-59.12948151306095,67.69396804755299,-58.285459881808215,68.21871161619605,-57.572058517836155,68.55627527585608,-57.09645147713682,68.64071464538574,-56.916656494140625,68.44282670974718,-57.04458596528715,67.96320492600336,-57.47342857362677,67.21972423783365,-58.19995876624894,66.22965390127808,-59.232379206528435,64.98815590026837,-60.593155650717435,63.4494372945657,-62.33286273300409,61.51113801732002,-64.55909368782577,59.02006364877545,-67.43274553055967" fill="none" stroke="rgb(185, 55, 55)" stroke-width="2" stroke-linejoin="round" filter="url(#fuzzy)"></polyline><polyline points="-23,-82,-22.06085559419751,-82.05604437224524,-21.496967665570043,-82.273233272845,-20.678827474917806,-82.56391447063436,-19.780559190650738,-82.81498647651824,-19.078201287387266,-82.94659249423441,-18.750239297051035,-82.91590318733397,-18.885997339331706,-82.70809922267745,-19.55889291146044,-82.31750558368788,-20.861018152475033,-81.72964666367672,-22.864890336246518,-80.92016072490168,-25.57313575610774,-79.87111602101237,-28.96585492313539,-78.57580447840337,-33.17020276365291,-76.99954913161056,-38.451172530023925,-75.06343351241254" fill="none" stroke="rgb(185, 55, 55)" stroke-width="2" stroke-linejoin="round" filter="url(#fuzzy)"></polyline><polyline points="63,-65,63.57980776865044,-63.87348377690941,63.739449250321584,-63.20522981405673,63.45586411755189,-62.68336352743181,62.65803772082718,-62.39237175266108,61.36590666543262,-62.32461450699465,59.60054255700582,-62.43222648273896,57.31788194075719,-62.72464965128886,54.417756270817904,-63.276316952901055,50.79125562935874,-64.17434077622639,46.35694199211772,-65.46984673014984,41.067200348848424,-67.16689089754473,34.89519150161634,-69.24165770280104,27.810672636511217,-71.66491333291512,19.7421020693014,-74.41288935137435,10.574987239228703,-77.48199802761773,0.37611219358854253,-80.9393662922184" fill="none" stroke="rgb(185, 55, 55)" stroke-width="2" stroke-linejoin="round" filter="url(#fuzzy)"></polyline><polyline points="30,-83,31.393725202925395,-82.96656473404782,32.46107663463096,-82.85213675507308,33.609669049304344,-82.6177603818388,34.878066477540415,-82.25230410066433,36.196754355285094,-81.78639115157542,37.49566088476638,-81.27393526491068,38.7102348037346,-80.77581036673244,39.754234313964844,-80.35073852539062,40.51295432190516,-80.04837733658023,40.87198804075332,-79.90385678441164,40.7617293045279,-79.93677616647423,40.18118861649418,-80.15646772808395,39.16998592830831,-80.57103358770406,37.724370452773144,-81.19393537173787,35.710437516534206,-82.03601769580052" fill="none" stroke="rgb(185, 55, 55)" stroke-width="2" stroke-linejoin="round" filter="url(#fuzzy)"></polyline><polyline points="80,-12,80.04292491083386,-11.985681262936222,80.24022303156396,-11.365934380329767,80.69135179083843,-10.321942033089739,81.34462794330501,-9.154004657534525,82.07234153047618,-7.916367152720559,82.83253781123888,-6.579015902102206,83.71156943544642,-5.148379713993057,84.83128571926072,-3.655843827580587,86.22790322458118,-2.128172428399947,87.79697444061712,-0.6159387939046731,89.32092423385564,0.7770191055136967,90.54619208661644,1.9790891240065323,91.30137679845166,3.1542602351094198,91.69703386338458,4.769569505291038,92.34140846249535,7.013271528797115" fill="none" stroke="rgb(185, 55, 55)" stroke-width="2" stroke-linejoin="round" filter="url(#fuzzy)"></polyline><polyline points="-3,-86,-6.091221775078157,-83.85610332935174,-8.043679787818308,-83.1725584290247,-9.26671714764055,-82.93946470178558,-10.293810269106242,-82.79529061546235,-11.391984299396277,-82.40372907859519,-12.593213334749414,-81.57698795826585,-13.84802649652047,-80.37530067181346,-15.12287649414819,-79.05287769598392,-16.404496680434526,-77.8943879331545,-17.666368510501982,-77.05034839896265,-18.859029566642736,-76.46971275083403,-19.939149219182216,-75.95765671982912,-20.906752069133578,-75.30769674756687,-21.811709103385475,-74.42161161453983,-22.71967890313749,-73.35216919701944,-23.66420975627325,-72.25613643645389,-24.620364036310797,-71.28732236475686,-25.507257514768465,-70.46207250976767,-26.198100153843193,-69.49472212877825,-26.549701860865806,-67.65891764543221" fill="none" stroke="rgb(185, 55, 55)" stroke-width="2" stroke-linejoin="round" filter="url(#fuzzy)"></polyline><polyline points="-10,-85,-9.017440670900811,-85.12951322478852,-7.120507175597792,-85.44540978214607,-5.2394902066429525,-85.81197429609225,-3.559186827812377,-86.13255316294223,-1.998006699915376,-86.38494119673571,-0.4723836941224803,-86.57407874216787,1.051587135899394,-86.70425012641982,2.5730753793450485,-86.78393088397624,4.074843423868144,-86.83777745212593,5.5437715354135815,-86.90619202755448,6.993305771510424,-87.03113501744384,8.46929442577958,-87.2374230299464,10.02424202967686,-87.51922398718493,11.673294340454364,-87.83792093225331,13.366521627374745,-88.13502396053613,14.993411511773896,-88.36116057803204,16.38699371021054,-88.51141397837944,17.300457694947198,-88.63516583972154,17.55507979850921,-88.80805074539954" fill="none" stroke="rgb(185, 55, 55)" stroke-width="2" stroke-linejoin="round" filter="url(#fuzzy)"></polyline><polyline points="-15,-84,-16.523336787578057,-83.94164577866626,-18.575760621554352,-84.65780141333578,-20.641035256325882,-86.18652722206275,-22.412550376632623,-87.62704551271642,-23.849696513477458,-88.31887938298925,-25.10549206361047,-88.23977767624788,-26.381820509348685,-87.81791546546519,-27.821126330540046,-87.54801557276373,-29.46142593136528,-87.68600569697885,-31.248714211296615,-88.15562095049351,-33.08797909703742,-88.66766356746129,-34.900666010147184,-88.9445727347872,-36.65475948410738,-88.89963973456031,-38.35602461428268,-88.66750788294584,-40.022865610098286,-88.49122115288144,-41.680054832360966,-88.5639562631661,-43.37549209219738,-88.93233574889788,-45.17020657081225,-89.4919567993743,-47.051216833660845,-90.01852742141298,-48.870162600661736,-90.18138432331777,-50.756928202739886,-89.6650916545842,-54.79390513914813,-88.88789055906253,-25.605846174024876,-111.85711749705604,-26.847864397187642,-109.74495096076113,-27.81347292065458,-107.53991258032177,-28.4402125261826,-105.07223985917722,-29.326199361662983,-103.21278060888771,-30.564732756119042,-101.96585528098932,-31.891731595780215,-100.73719229221079,-33.01947552997464,-98.95423981181798,-33.84905519895345,-96.46101805612045,-34.512595087590626,-93.57516841243493,-35.244855966022534,-90.80205706118134,-36.157914246394554,-88.3776072398333,-37.09881478097108,-86.05186070249273,-37.758778203164866,-83.47733537114868,-37.954997637376735,-80.9252053676332,-37.691940466473305,-79.09837133984927,-37,-77" fill="none" stroke="rgb(185, 55, 55)" stroke-width="2" stroke-linejoin="round" filter="url(#fuzzy)"></polyline><polyline points="-63.278520250541895,-28.762963750246318,-63.55512552343218,-30.762680105748636,-63.63939573875624,-32.32675182681194,-63.80207675512075,-33.66439919388391,-64.01658192429085,-34.92887040901986,-64.23302681158222,-36.19155772070932,-64.40183598573445,-37.47019238593665,-64.51069671114941,-38.78227838027456,-64.57486240462276,-40.14226326720187,-64.60401620849736,-41.53286913158024,-64.58921581392356,-42.89988795216769,-64.51271668461885,-44.17853291749174,-64.3579912626263,-45.326946241250575,-64.10985624626342,-46.3434729474207,-63.756175557264356,-47.26344364010834,-63.3024881104553,-48.14533025463773,-62.79164212644474,-49.057101049274145,-62.30852194083967,-50.06761804336609,-61.95969012218781,-51.24131806346603,-61.83265181360383,-52.62649450037931,-61.93861122649553,-54.222275827795755,-62.148126693071205,-55.92991266128765,-62.18814175629786,-57.553199827640576,-61.80844635186666,-58.9206502535261,-61,-60,-65,-55,-64.32344855135658,-55.98228444544315,-63.75699600689119,-56.98525645775019,-63.13677798825815,-58.0252575331539,-62.49479348092788,-59.084175306300644,-61.851811948739694,-60.112322431860974,-61.19041277870649,-61.07916045835352,-60.4766389981275,-61.99871988211865,-59.68432436751978,-62.91745276078312,-58.810621695441185,-63.88431291996007,-57.87904052506597,-64.92358861495187,-56.93049740201592,-66.02232224139348,-56.00895626326971,-67.13652062122446,-55.14897052842723,-68.21283700391835,-54.36530096698304,-69.21445195324547,-53.63985161891723,-70.13590223930494,-52.910317516529844,-70.99678783416361,-52.08282527561947,-71.81886064790801,-51.089863434027905,-72.60771410921888,-49.96970262195677,-73.36475991915144,-48.87229960563854,-74.13309814335472,-47.85359243457215,-75.06028245591986,-46.20825450890348,-76.66369498068077" fill="none" stroke="rgb(185, 55, 55)" stroke-width="2" stroke-linejoin="round" filter="url(#fuzzy)"></polyline><polyline points="72.68951267028994,-51.48840480812204,73.36123242693908,-50.60591453817827,73.89018637706671,-49.423111675418575,74.40204883378453,-48.02387649903975,74.83648102944036,-46.65302807901121,75.18831615045461,-45.38870096051968,75.50693323078048,-44.19037141018008,75.83860633087471,-42.99518284790534,76.19560665461988,-41.76099213006154,76.56357154145111,-40.46751991722159,76.92379922981729,-39.11047820036113,77.26667892090063,-37.7033903504673,77.5900672583907,-36.279615118142814,77.89224414354781,-34.88279707889108,78.17116800016959,-33.54515346422974,78.43071468031226,-32.26607473661617,78.68083070401917,-31.006121207959925,78.9163785435418,-29.70127490222473,79.082491911075,-28.29721300619893,79.08942405023811,-26.857609058179175,79,-26" fill="none" stroke="rgb(185, 55, 55)" stroke-width="2" stroke-linejoin="round" filter="url(#fuzzy)"></polyline><polyline points="78,-33,77.5632343299827,-33.4610503836528,76.89357740487452,-34.56930572087346,76.3033886038338,-35.937896774091726,75.7850230165702,-37.32524664445696,75.23187430654656,-38.59967588231384,74.55360430567879,-39.712789851931205,73.73564924326814,-40.67089342556993,72.82350368351788,-41.505851111540025,71.86803765148179,-42.26301689103761,70.88855522062147,-42.99899903619474,69.87874199040654,-43.765326281339256,68.84102179014371,-44.57451661750463,67.81694594847542,-45.3810815476376,66.87943475970404,-46.110687215476155,66.05495097052133,-46.70564423058787,65.17045135054158,-47.07310226096436,63.70602115395642,-46.894710016106814" fill="none" stroke="rgb(185, 55, 55)" stroke-width="2" stroke-linejoin="round" filter="url(#fuzzy)"></polyline><polyline points="78,-33,78.11462229012812,-33.716539499669096,78.56819958959873,-35.368800409890085,79.07135218774545,-37.29158461535159,79.30046546657073,-39.09407447181312,79.27639077405045,-40.71499240964747,79.20728775314902,-42.25629104213876,79.23679907356116,-43.79693922603927,79.36007724774979,-45.335796203213526,79.49592331171782,-46.85282468275384,79.59158591844584,-48.38188217956649,79.66666903987065,-50.00575069486998,79.78292802477037,-51.77361554288865,79.98733314807981,-53.62640984196442,80.29221157441653,-55.4298374754799,80.72308003797218,-57.12134763773511,81.3312286551233,-58.773356109778476,81.68431541369688,-60.12873217952687" fill="none" stroke="rgb(185, 55, 55)" stroke-width="2" stroke-linejoin="round" filter="url(#fuzzy)"></polyline><polyline points="64.11572775619122,-69.3711152771905,64.43413509370717,-69.49496198402568,64.70285391420612,-68.42209861538282,64.96261830762141,-67.05939225012484,65.30938667053576,-65.74277745448107,65.77376525927758,-64.54868893839875,66.32176535653169,-63.47046971049747,66.9081335863652,-62.48272829660207,67.52396522787691,-61.53313107137709,68.19305278917201,-60.5300625259379,68.91914387189328,-59.37164361076707,69.64010370933015,-58.01503522300069,70.25821254643165,-56.54431811086307,70.75401418272772,-55.161217090495654,71.26976797947883,-54.01590974955935,72,-53,89.48604528802998,-48.27536653696354,88.63815567117479,-47.91764765870877,86.42936102597741,-48.230619912572436,84.71657176846703,-48.869799012112274,83.65048597220952,-49.77334464008643,82.87792490073237,-50.86869841449578,82.10470487013038,-52.041991539555845,81.24292717517442,-53.186510860112215,80.33416070918543,-54.23713026916765,79.42722828509925,-55.169434047576466,78.51109037914762,-55.979981662487475,77.51561696009054,-56.668701701515346,76.34692573623302,-57.234160751945225,74.92915633757735,-57.68519802664985,73.24871658708636,-58.06560264060164,71.39824064926763,-58.47032809787282,69.58815454785072,-59.01148294292118,68.07583204858908,-59.70965084479703,67.01204203352765,-60.37574776457675,66.33399022627465,-60.70005474181705,66,-61,60,-68,59.55493165191929,-68.74643604720575,60.12807243199672,-71.27754160404511,61.114452819537476,-74.75537292888784,61.77976161007691,-78.04961750685527,61.8216283426977,-80.61798213161158,61.28556079666298,-82.40912916490161,60.34583060126518,-83.5988010197316,59.210846315440335,-84.47819937014053,58.07952992583842,-85.37541442743915,57.07194023247974,-86.51973176704979,56.17729613549157,-87.93327903515502,55.2889052964019,-89.46204457521948,54.31340213225892,-90.93172406754829,53.26127268378871,-92.29415314343863,52.235819655382045,-93.64218090943469,51.32924695265049,-95.09788572414396,50.522984375421515,-96.69815334437959,49.69389265323327,-98.3997741912276,48.73692124394782,-100.19552382541235,47.69319706676656,-102.17932101470961,46.720784377571306,-104.39062782889587,45.850733514075614,-106.61238904084912,44.70846317152713,-109.14124833049269" fill="none" stroke="rgb(185, 55, 55)" stroke-width="2" stroke-linejoin="round" filter="url(#fuzzy)"></polyline><polyline points="70.68161327548665,-65.32694560310131,69.99312876217653,-64.59838996711898,69.1614443450235,-65.06113112399242,68.24732731433191,-65.89049574506109,67.24336370257,-66.64130906594671,66.1754458342043,-67.24107320124511,65.07207280779234,-67.71264226873029,63.945668976337544,-68.06503810712321,62.81502318971104,-68.32820160437373,61.72250262993637,-68.59083782663754,60.71085727859329,-68.96819901741985,59.77414793005302,-69.52951653385766,58.82885448083183,-70.25036125058757,57.74048340041942,-71.00715063469913,56.41375720019654,-71.59987851717985,55,-72,53,-74,53.48459171434038,-72.96901579247479,54.165864184349175,-71.58027786094134,54.66109073119561,-69.88247190419652,55.05219945595937,-68.15413663501579,55.44063879483315,-66.60342332212835,55.87897521476174,-65.32034829939253,56.387625918267695,-64.30702260565906,56.946839341602995,-63.48854871679455,57.49907359024873,-62.73337574213432,57.9874970967013,-61.91155031916811,58.39699006335805,-60.95993154088648,58.7460071220036,-59.887397421685286,59.02469940883888,-58.68490615151668,59.16070010915277,-57.2201068855094,59.14448635811222,-55.37792966013805,59.25667384611594,-53.869703496469036,47,-77,45.10057469047955,-77.2494128368425,43.88626525483249,-77.9405124025614,42.91004709427823,-78.56280112930045,41.91034715877499,-78.94930851560177,40.73098592905796,-79.10709112605414,39.36073282078653,-79.13086123452102,37.895980604876264,-79.14517414278916,36.45770968999554,-79.24172423188476,35.12423557717006,-79.43639564740147,33.90888038862435,-79.67082076359041,32.77331776110417,-79.85334998452058,31.65185221120425,-79.9133143991599,30.471623709286234,-79.84172129402293,29.170954152133923,-79.7019253424582,27.723162434514137,-79.60466343013682,26.16192754187327,-79.65155276833063,24.591808021724,-79.86388685422367,23.174203077996975,-80.12729213009199,22.102469308384286,-80.18494225023059,21.57231836032053,-79.72378524466282,41,-80,42.16840991376833,-79.50434398155822,43.033561698753786,-79.18888499401864,44.1910824240799,-78.84970975548825,45.58965299500402,-78.48785647845638,47.05984595490931,-78.0907833331662,48.48499627237149,-77.65966975798723,49.823872364995154,-77.20600096338256,51.085078476125204,-76.73448044699603,52.30376030610398,-76.24364234362626,53.53065392487857,-75.74082206462798,54.8218999418252,-75.25161834855206,56.219163505867954,-74.81005334646,57.72436855268613,-74.43380818696949,59.28606771064347,-74.10421690213114,60.81283162806971,-73.77021949751823,62.212689658252756,-73.37801746833154,63.43860070453207,-72.90696485116217,64.51321366869536,-72.38458315178615,65.51740226622577,-71.86621231881496,66.54750942584887,-71.389874317767,67.65998860833518,-70.9419157059203,68.81728190943537,-70.48275229695406,69.82734522974901,-70.07802670182167,70.31792486021853,-70.31792486021853" fill="none" stroke="rgb(185, 55, 55)" stroke-width="2" stroke-linejoin="round" filter="url(#fuzzy)"></polyline><polyline points="32,-83,31.83739074908958,-88.16677858207673,30.62883355725672,-90.69260563870121,29.00038672718836,-91.69323700382743,27.341476336804867,-91.8955196300263,25.7981215738101,-91.70747584634856,24.38665785559631,-91.4612561047716,23.07396417144231,-91.41774267519878,21.826508646523894,-91.72291495000779,20.641849752270296,-92.44408238562103,19.547797146137448,-93.63829911606096,18.547122871050586,-95.32661526752035,17.537247100513696,-97.33545537924488,16.31600858957499,-99.17748647065608,14.7562989388002,-100.27851400000489,12.858193065617675,-100.52769124028364" fill="none" stroke="rgb(185, 55, 55)" stroke-width="2" stroke-linejoin="round" filter="url(#fuzzy)"></polyline><polyline points="21,-85,22.099442016808005,-89.08537139995832,22.972583970819347,-88.65792094802413,23.93949665925378,-87.73520097130134,25.245612374778386,-87.36379457139837,26.886874420733598,-87.50993687659404,28.69493276016589,-87.85913886431305,30.495342614009648,-88.21917967252402,32.20627282232694,-88.62083995847115,33.84056299120916,-89.19207782756695,35.443619827573634,-89.96427142500794,37.029293738655866,-90.7728651044429,38.56782734810939,-91.32994900548158,40.03891454303841,-91.42341133808858,41.506131384932,-91.10350012611634,43.13619937905476,-90.71816176575393,45.12637470250363,-90.77046892218446,47.63245474828944,-91.695907003065,50.9440643424288,-93.59490890818316" fill="none" stroke="rgb(185, 55, 55)" stroke-width="2" stroke-linejoin="round" filter="url(#fuzzy)"></polyline><!--]--></g><g id="lineNose"><path d="M -10.360482207471694 13.045493297975316, Q9.696770004533708 9.778083377505652,-0.33185610146899336 -5.537220596176694" fill="none" stroke="black" stroke-width="3" stroke-linejoin="round" filter="url(#fuzzy)"></path></g><g id="mouth"><polyline points="-10.20938045026013,46.054894709363005,-9.934576268097898,46.6725919132496,-9.6607553873118,47.29208806289226,-9.387884400919228,47.912839443271714,-9.115929901937578,48.53430233936864,-8.844858483384233,49.155933036163745,-8.574636738276594,49.77718781863773,-8.305231259632045,50.39752297177128,-8.036608640467982,51.01639478054514,-7.768735473801793,51.63325952993996,-7.501578352650868,52.247573504936476,-7.235103870032599,52.85879299051536,-6.969278618964383,53.466374271657344,-6.704069192463603,54.06977363334308,-6.439442183547654,54.66844736055333,-6.175364185233929,55.26185173826877,-5.9118017905398155,55.84944305147008,-5.648721592482707,56.43067758513801,-5.386090184079995,57.0050116242532,-5.123874158349071,57.571901453796386,-4.862040108307324,58.130803358748274,-4.600554626972147,58.681173624089546,-4.339384307360931,59.22246853480092,-4.078495742491067,59.754144375863085,-3.817855525379945,60.27565743225673,-3.5574302490449607,60.7864639889626,-3.2971865065034986,61.28602033096135,-3.0370908907729555,61.77378274323369,-2.77710999487072,62.24920751076034,-2.517210411814184,62.71175091852198,-2.2573587346207384,63.160869251499314,-1.9975215563077744,63.59601879467307,-1.7376654698926841,64.01665583302392,-1.4777570683928576,64.42223665153257,-1.2177629448256873,64.81221753517971,-0.9576496922085637,65.18605476894606,-0.697383903558878,65.54320463781232,-0.4369321718940212,65.88312342675921,-0.1762610902313856,66.20526742076737,0.08466274841163823,66.50909290481756,0.34587275101765913,66.79405616389045,0.6074023245692852,67.05961348296674,0.8692848760491272,67.30522114702715,1.1315538124397915,67.53033544105239,1.3942425407238874,67.73441265002312,1.6573844678840253,67.91690905892007,1.9210130009028126,68.07728095272392,2.185161546762857,68.2149846164154,2.449863512446769,68.3294763349752,2.715152304937158,68.420212393384,2.9810613312166296,68.48664907662253,3.2476239982677955,68.52824266967147,3.514873713073264,68.54444945751155,3.7828438826156434,68.53472572512342,4.051567913877543,68.49852775748784,4.3210792138415695,68.43531183958545,4.591411189490335,68.34453425639701,4.862597247806445,68.22565129290318,5.134670795772511,68.07811923408468,5.40766524037114,67.9013943649222,5.681613988584941,67.69493297039645,5.956550447396523,67.45819133548812,6.232508023788495,67.19062574517794,6.5095201247434655,66.89169248444657,6.787620157244044,66.56084783827474,7.066841528272837,66.19754809164313,7.347217644812456,65.80124952953246,7.6287819138455095,65.37140843692342,7.911567742354605,64.90748109879671,8.19560853732235,64.40892380013302,8.480937705731357,63.875192825913096,8.767588654564232,63.305744461117584,9.055594790803585,62.700034990727225,9.344989521432023,62.057520699722694,9.635806253432158,61.3776578730847,9.928078393786594,60.65990279579395,10.221839349477944,59.903711752831136,10.517122527488816,59.108541029176976,10.813961334801817,58.27384690981215,11.112389178399557,57.39908567971735,11.412439465264644,56.483713623873314,11.714145602379688,55.527187027260716,12.017540996727297,54.52896217486026,12.32265905529008,53.48849535165266,12.629533185050647,52.405242842618605,12.938196792991604,51.278660932738795,13.248683286095561,50.10820590699393,13.561026071345129,48.893334050364714,13.875258555722912,47.63350164783186,14.191414146211521,46.328164984376045,14.50952624979357,44.976780344977996,14.829628273451657,43.578804014618385,15.151753624168402,42.133692278277934,15.475935708926404,40.64090142093734,15.80220793470828,39.099887727577304,16.130603708496633,37.51010748317852,16.461156437274074,35.8710169727217,16.79389952802321,34.18207248118753,17.128866387726656,32.44273029355673,17.466090423367014,30.65244669480998,17.466090423367014,30.65244669480998,17.189335714630744,31.083070073469734,16.91258100589447,31.50508213987261,16.6358262971582,31.91857480548529,16.359071588421926,32.323639981774434,16.082316879685656,32.72036958020672,15.805562170949383,33.10885551224882,15.528807462213113,33.4891896893674,15.252052753476843,33.86146402302913,14.975298044740573,34.22577042470069,14.6985433360043,34.58220080584873,14.421788627268029,34.93084707793994,14.145033918531757,35.271801152440986,13.868279209795485,35.60515494081853,13.591524501059213,35.93100035453926,13.314769792322942,36.249429305069825,13.03801508358667,36.560533703876914,12.761260374850398,36.864405462427186,12.484505666114128,37.16113649218731,12.207750957377858,37.45081870462397,11.930996248641586,37.73354401120383,11.654241539905314,38.00940432339357,11.377486831169042,38.27849155265983,11.10073212243277,38.5408976104693,10.8239774136965,38.796714408288665,10.547222704960227,39.046033857584575,10.270467996223957,39.28894786982371,9.993713287487683,39.52554835647274,9.716958578751413,39.755927228998324,9.44020387001514,39.980176398867144,9.16344916127887,40.198387777545875,8.886694452542597,40.41065327650118,8.609939743806327,40.61706480719973,8.333185035070056,40.817714281108195,8.056430326333784,41.01269360969326,7.779675617597514,41.202094704421576,7.502920908861242,41.38600947675981,7.22616620012497,41.56452983817465,6.949411491388698,41.73774770013276,6.672656782652426,41.905754974100816,6.395902073916155,42.068643571545465,6.119147365179885,42.226505403933416,5.8423926564436135,42.37943238273131,5.565637947707342,42.52751641940583,5.288883238971072,42.67084942542363,5.0121285302348,42.809523312251414,4.735373821498529,42.94362999135582,4.458619112762257,43.07326137420353,4.181864404025985,43.19850937226122,3.9051096952897133,43.31946589699555,3.6283549865534415,43.436222859873205,3.3516002778171696,43.548872172360845,3.074845569080898,43.65750574592515,2.798090860344626,43.76221549203277,2.521336151608354,43.8630933221504,2.244581442872083,43.960231147744686,1.9678267341358113,44.05372088028232,1.6910720253995413,44.143654431229976,1.4143173166632694,44.230123712054294,1.1375626079269994,44.313220634221985,0.8608078991907284,44.39303710919969,0.5840531904544566,44.469665048454075,0.30729848171818475,44.54319636345185,0.03054377298191291,44.61372296565963,-0.24621093575435893,44.68133676654413,-0.5229656444906308,44.746129677572014,-0.7997203532269017,44.80819361020994,-1.0764750619631736,44.867620475924575,-1.3532297706994454,44.92450218618259,-1.6299844794357154,44.978930652450686,-1.9067391881719864,45.0309977861955,-2.1834938969082582,45.08079549888372,-2.460248605644529,45.12841570198199,-2.737003314380801,45.17395030695702,-3.013758023117073,45.21749122527545,-3.2905127318533447,45.259130368403966,-3.5672674405896165,45.298959647809234,-3.8440221493258884,45.337070974957925,-4.120776858062159,45.373556261316715,-4.397531566798433,45.40850741835226,-4.674286275534703,45.44201635753124,-4.951040984270974,45.474174990320336,-5.227795693007244,45.5050752281862,-5.504550401743515,45.53480898259551,-5.781305110479787,45.56346816501494,-6.058059819216059,45.59114468691116,-6.3348145279523305,45.61793045975082,-6.611569236688602,45.64391739500063,-6.888323945424874,45.66919740412724,-7.165078654161146,45.69386239859732,-7.441833362897418,45.71800428987753,-7.718588071633688,45.741714989434556,-7.995342780369959,45.76508640873506,-8.272097489106232,45.788210459245725,-8.5488521978425,45.811179052433204,-8.825606906578772,45.83408409976418,-9.102361615315044,45.85701751270532,-9.379116324051315,45.8800712027233,-9.655871032787587,45.90333708128479,-9.932625741523859,45.92690705985643" fill="rgb(215,127,140)" stroke="black" stroke-width="3" stroke-linejoin="round" filter="url(#fuzzy)"></polyline></g></svg>