<svg viewBox="-100 -100 200 200" xmlns="http://www.w3.org/2000/svg" width="400" height="400" id="face-svg"><defs><clipPath id="leftEyeClipPath"><polyline points="34.02893253727716,5.983402902378575,33.894542384285415,5.627877922823497,33.7285729414027,5.2722082546350775,33.529414888046134,4.916180796513637,33.29564351130851,4.559633974081243,33.02601336820359,4.202455928714853,32.71945294791145,3.844582706379457,32.37505933402383,3.48599644646122,31.992092866789566,3.1267235706006273,31.569971805359852,2.766832971525624,31.10826699003366,2.4064342018847587,30.606696504503024,2.0456756630803294,30.0651203380985,1.6847427941015187,29.48353504803443,1.3238562603575454,28.86206842165433,0.9632701425108019,28.20097413867627,0.6032701253099946,27.720224267926366,0.24280961005712243,27.16365979070068,-0.12613265551600517,26.531408452445003,-0.502497565651808,25.824174831033968,-0.8850953112472775,25.043190623448414,-1.2726261824493825,24.190166826759782,-1.6637002765794868,23.267247780243654,-2.0568561346465906,22.276967035444283,-2.450578329709243,21.222205021012112,-2.8433140303459776,20.10614846913627,-3.233488562494127,18.932251570393895,-3.6195199929168282,17.70419882383847,-3.999832757558094,16.425869549148835,-4.372870358045786,15.101304027661165,-4.73710714960232,13.734671239105545,-5.091059243622974,12.330238160869392,-5.4332945481816175,10.892340596609486,-5.762441969723723,9.425355501034701,-6.077199799206486,7.933674767681294,-6.376343305945943,6.421680446502826,-6.658731562430866,4.893721358096531,-6.9233135233633245,3.3540910713882788,-7.169133382185757,1.8070072115979077,-7.395335228354373,0.25659206530703127,-7.601167028618731,-1.2931455505487746,-7.785983955567396,-2.8383271889414865,-7.949251086699423,-4.375220475443797,-8.090545497281582,-5.900253646532019,-8.209557770251157,-7.4100289566767845,-8.306092946424155,-8.901334987399506,-8.380070938268734,-10.371157891472755,-8.4315264305038,-11.816691605442422,-8.46060829078248,-13.235347063649922,-8.467578513720419,-14.624760446932227,-8.452810721528696,-15.982800499178015,-8.416788244511249,-17.30757494491778,-8.360101804686547,-18.59743604112603,-8.283446825793527,-19.85098529641361,-8.187620392941461,-21.067077390788185,-8.07351788516372,-22.244823329160866,-7.942129304135236,-23.38359286177706,-7.79453532231347,-24.483016204749706,-7.631903073762825,-25.542985093872602,-7.4554817109222515,-26.563653204892244,-7.266597750575945,-27.545435973415962,-7.066650232286969,-28.489009847634485,-6.857105712553619,-29.395311007036977,-6.6394931179484455,-30.26553358029652,-6.415398480499686,-31.10112739550415,-6.186459578575004,-31.903795295929513,-5.9543605065274186,-32.6742075069626,-5.717803793740028,-33.412020837510724,-5.474875859427284,-34.1176490556457,-5.22636548724992,-34.79155984358756,-4.973055503988666,-35.43427035421736,-4.7157196643865,-36.04634276758995,-4.4551195359908835,-36.62837984744675,-4.192001383996056,-37.181020497728554,-3.9270930560852637,-37.70493531908828,-3.6611008672730474,-38.20082216540379,-3.394706484747486,-38.66940170029069,-3.1285638127124606,-39.11141295361503,-2.863295877229909,-39.52760887800616,-2.599491711062102,-39.91875190536952,-2.33770323851388,-36.97120813378696,2.341357848383913,-36.33977095411544,2.3025605373815767,-35.689724613619475,2.2678551101789703,-35.02092210989288,2.2377454796737832,-34.333245132241586,2.2127523099787765,-33.62660466509837,2.1934094153642776,-32.900941591437686,2.180260159200701,-32.15622729619027,2.1738538529010554,-31.392464269658024,2.1747421548634525,-30.609686710928617,2.1834754694136187,-29.807961131290305,2.2005993457474036,-28.987386957646656,2.2266508768732916,-28.14809713593126,2.2621550985549135,-27.290258734522475,2.3076213882535574,-26.414073547658194,2.3635398640706704,-25.517881241268764,2.4285330686740676,-24.599770630963885,2.5018422692547047,-23.659684852192505,2.584777125644732,-22.697687551989556,2.6785219324998155,-21.713961343631034,2.7841323116152887,-20.70880605613162,2.9025321260338255,-19.68263677407933,3.034510642832569,-18.63598166330162,3.1807199714776186,-17.569479577857535,3.341672804633746,-16.483877443850393,3.517740488317246,-15.380027415555412,3.709151448279842,-14.258883799356973,3.915989999511481,-13.12149974098979,4.138195565750004,-11.969023671578695,4.375562335885492,-10.802695507971414,4.627739384147249,-9.62384260285888,4.894231280961307,-8.4338754401776,5.174399221366315,-7.234283071288541,5.467462697875759,-6.0266282874270996,5.772501744674354,-4.812542523918558,6.088459780036568,-3.593720491653666,6.414147073855098,-2.371914531318703,6.748244867167269,-1.1489286858746697,7.089310170567194,0.07338751322002679,7.435781268391631,1.2931455505487746,7.785983955567397,2.5084247265433994,8.138138534008272,3.7172792570637654,8.490367595449266,4.917745677255754,8.84070461760614,6.107850554193217,9.187103400548096,7.2856185128093,9.527448370171529,8.449080579622711,9.859565775662702,9.596282848764407,10.181235807837316,10.725295474810139,10.490205665244773,11.834221996924498,10.78420359492511,12.921208998821736,11.060953934706461,13.984456109049141,11.318193183930951,15.022226346098126,11.553687129496911,16.03285681284889,11.765249054105311,17.01476974485383,11.950759053598336,17.966483916965416,12.108184490277957,18.88662641281395,12.23560160909241,19.77394476164063,12.331218343578499,20.627319446991596,12.39339833844759,21.44577679177824,12.420686215703196,22.22850222420949,12.411834111178077,22.974853929101375,12.365829508378718,23.68437688906951,12.281924396525078,24.3568173201099,12.159665779673565,24.992137506073636,11.998927563811042,25.590531036540906,11.799943848807839,26.227665907975197,11.76831417069035,26.844378822409833,11.718675810691193,27.440598926000728,11.651182294132548,28.016301737550993,11.566078825079643,28.571510963388466,11.46370594329012,29.106300312243103,11.34450318116343,29.620795310124695,11.209012720690204,30.115175115200213,11.057883050401625,30.589674332671397,10.891872622318813,31.04458482965229,10.7118535089022,31.48025755004669,10.518815060000911,31.897104329425783,10.313867559802134,32.2955997099055,10.098245883780512,32.676282755024175,9.873313155647509,33.03975886462,9.640564404300791"></polyline></clipPath><clipPath id="rightEyeClipPath"><polyline points="-33.08217619153893,5.300299303832948,-32.98616477230217,4.936309432231557,-32.861025714914405,4.573483588460717,-32.70499901396114,4.2114607442377,-32.51650818362902,3.8499392259739116,-32.29415508043271,3.488674724521994,-32.03671472594163,3.127478304922938,-31.743130129506845,2.7662144161531765,-31.41250711098781,2.4047989008717052,-31.04410912347921,2.0431970051671735,-30.637352076037715,1.6814213883049964,-30.191799156408855,1.3195301324744637,-29.707155653753766,0.957624752535831,-29.18326378137604,0.5958482057674397,-28.620097499448498,0.23438290161281383,-28.017757337740015,-0.12655128857223463,-27.604523070458917,-0.47881044605143597,-27.11678318445579,-0.8405043845527898,-26.554351292141682,-1.2106560420478711,-25.917608929768477,-1.588140881032964,-25.207458738685098,-1.9717089077564607,-24.425279371023812,-2.360005551938433,-23.572882090360523,-2.751591431049559,-22.652469037892864,-3.1449610232165943,-21.666593134679783,-3.5385602728216137,-20.61811959048675,-3.93080315286221,-19.510188989780076,-4.320087208139825,-18.346181925414413,-4.704808103343466,-17.129685150557222,-5.083373200095962,-15.864459219393918,-5.454214187029955,-14.55440758715769,-5.815798786960888,-13.203547140027695,-6.166641565224098,-11.815980125439534,-6.505313863243299,-10.395867453351855,-6.830452881397576,-8.947403339012784,-7.1407699352541725,-7.474791257770217,-7.4350579092342075,-5.982221182469608,-7.712197931778523,-4.473848073983216,-7.971165296080925,-2.9537715954145796,-8.211034650455918,-1.4260170205220675,-8.430984482408238,0.10548269309464864,-8.630300920471313,1.636903695501398,-8.80838087788183,3.164546930085761,-8.964734562157737,4.684852742818887,-9.09898737464669,6.194414444579111,-9.210881224112335,7.689990855993493,-9.300275278425445,9.168517864253475,-9.367146178427301,10.627119021360805,-9.4115877380323,12.063115213259938,-9.433810154637225,13.474033429312984,-9.43413875390415,14.857614661573537,-9.41301229298438,16.211820963315375,-9.370980846250443,17.534841696272338,-9.308703297603486,18.825098996045433,-9.226944463423191,20.0812524851335,-9.126571870227426,21.30220326304342,-9.008552211108825,22.48709720293614,-8.87394750501553,23.63532758426472,-8.723910982943245,24.746537090860436,-8.559682725105855,25.82061920392327,-8.38258507315173,26.857719019372798,-8.194017841493054,27.858233519015787,-7.995453351815153,28.822811324986592,-7.788431314833317,29.7523519669165,-7.574553583364028,30.648004691288268,-7.355478800777964,31.511166842431955,-7.132916968901969,32.34277285411696,-6.905565245202401,33.14285130539422,-6.671488480577158,33.911669919541254,-6.431481719809704,34.64955227794744,-6.186335126637776,35.35687387509134,-5.936830760467733,36.034058173518005,-5.683739353088915,36.6815726588164,-5.427817085388015,37.29992489459673,-5.169802364063449,37.88965857746774,-4.910412598339707,38.4513495920142,-4.650340976681719,38.98560206577409,-4.390253243509238,39.49304442421608,-4.130784475911178,39.97432544571681,-3.8725358603599913,40.43011031653828,-3.616071469426033,38.468791618382525,1.211229257816263,37.81833004172596,1.1756293887203348,37.14928232963052,1.1459953669910385,36.46154255539648,1.12292379575215,35.75503576571788,1.1070282094549926,35.02971833925824,1.0989347523778146,34.28557834522601,1.099277857125165,33.52263590195015,1.1086959231272684,32.740943535455756,1.1278269951394027,31.940586538039483,1.1573044417412763,31.12168332684523,1.197752633836405,30.284385802439616,1.2497826231514786,29.42887970738758,1.3139878207357545,28.555384984827896,1.39093967546042,27.664156137048778,1.4811833525179727,26.75338972084186,1.5831112375827203,25.8210790332418,1.6958581064830427,24.867287187159423,1.8209432335435958,23.892192375266383,1.959726633002267,22.896085948546897,2.1134054808174048,21.87937029867726,2.2830108195522536,20.842556541555552,2.469404578603843,19.786261999304323,2.6732769420435405,18.71120747806875,2.8951440963364385,17.618214338933022,3.1353463902068066,16.508201359277518,3.3940469389168255,15.382181381899484,3.671230705225748,14.241257749219741,3.9667040892967877,13.086620519898144,4.280095059818833,11.91954246518041,4.610853858610276,10.741374842298924,4.958254310972119,9.553542942250186,5.321395774057569,8.357541409271539,5.699205755525341,7.154929329339784,6.0904432347438275,5.947325085014325,6.493702718813433,4.7364009739475295,6.9074190656741585,3.523877588384856,7.32987310656574,2.3115179529774554,7.759198100107486,1.101121418229857,8.193387050265045,-0.10548269309464864,8.630300920471313,-1.3064416892882456,9.067677776168658,-2.499886365409857,9.503142888039687,-3.683938114070763,9.934219828193758,-4.856716293971994,10.358342591576443,-6.016345858870766,10.772868774869144,-7.160965249653435,11.175093845146044,-8.28873455219227,11.562266530555657,-9.39784392366338,11.931605365294107,-10.486522290003268,12.280316421137403,-11.553046317181249,12.60561225779988,-12.595749658965175,12.904732124386015,-13.613032483857815,13.174963444202849,-14.603371283881255,13.413664615200155,-15.565328967886646,13.618289158305647,-16.497565242066745,13.786411245922373,-17.398847280348505,13.915752642855487,-18.2680606873432,14.004211091935677,-19.104220756531326,14.049890176606333,-19.906484026359735,14.051130692741825,-20.67416013692833,14.006543561963927,-21.406723989943668,13.915044318723695,-22.10382821461691,13.775889203415982,-22.765315942183342,13.588712893793787,-23.39123389172099,13.353567906949625,-23.98184576994558,13.070965704131186,-24.607545352495812,13.008273154741815,-25.213561277237623,12.923668113915234,-25.799856348168255,12.817481196562376,-26.36643685613201,12.690162845896438,-26.913354231409677,12.542287971605862,-27.44070669630819,12.374560588027311,-27.948640917750247,12.187818452318638,-28.437353659863824,11.983037702631858,-28.907093436571834,11.761337496286139,-29.35816216418165,11.52398464794075,-29.790916813974768,11.272398267768065,-30.20577106479633,11.008154399626513,-30.60319695564474,10.732990659233568,-30.98372653826126,10.448810872338717,-31.347953529719575,10.157689712896438"></polyline></clipPath><filter id="fuzzy"><feTurbulence id="turbulence" baseFrequency="0.05" numOctaves="3" type="noise" result="noise"></feTurbulence><feDisplacementMap in="SourceGraphic" in2="noise" scale="2"></feDisplacementMap></filter><linearGradient id="rainbowGradient" x1="0%" y1="0%" x2="100%" y2="0%"><stop offset="0%" style="stop-color: rgb(128, 128, 128);  stop-opacity: 1"></stop><stop offset="50%" style="stop-color: rgb(220, 208, 186);  stop-opacity: 1"></stop><stop offset="100%" style="stop-color: rgb(128, 128, 128);  stop-opacity: 1"></stop></linearGradient></defs><title>That&#39;s an ugly face</title><desc>CREATED BY XUAN TANG, MORE INFO AT TXSTC55.GITHUB.IO</desc><rect x="-100" y="-100" width="100%" height="100%" opacity="1" fill="rgb(25, 25, 112)"></rect><polyline id="faceContour" points="85,1,85,2,85,4,85,4,85,6,85,8,85,8,85,9,84,13,85,13,85,12,85,14,84,17,84,18,84,19,84,21,84,22,83,24,83,24,83,25,83,26,82,28,82,29,82,29,82,31,81,32,81,33,81,34,79,37,79,37,78,40,77,41,78,40,77,42,76,43,76,44,75,46,75,45,74,48,73,48,72,51,71,51,71,52,69,54,70,53,68,55,67,57,67,57,66,58,66,58,63,61,62,62,62,62,62,62,60,64,59,64,57,65,57,66,57,66,53,69,53,69,52,70,51,70,52,69,50,71,47,72,46,73,46,73,46,73,43,75,42,75,40,76,39,76,39,76,37,77,34,78,35,78,33,79,31,79,31,79,28,80,29,80,25,81,26,81,22,81,21,82,20,82,20,82,16,82,15,83,15,83,14,83,13,83,11,83,8,83,8,83,5,83,4,83,4,83,0,84,-1,83,0,83,-3,83,-3,83,-6,83,-10,83,-11,83,-11,83,-10,83,-12,82,-15,82,-16,82,-17,82,-18,81,-20,81,-22,81,-24,80,-24,80,-25,80,-26,79,-28,79,-30,79,-31,78,-33,77,-35,77,-35,76,-38,75,-38,76,-39,75,-42,74,-42,73,-43,73,-45,72,-47,71,-46,71,-49,70,-48,70,-49,70,-51,68,-53,67,-55,65,-56,65,-55,66,-56,65,-58,64,-59,62,-60,61,-61,61,-63,59,-64,59,-64,58,-66,56,-65,57,-66,56,-68,53,-69,52,-70,52,-70,50,-71,51,-71,51,-73,47,-74,45,-74,46,-75,45,-75,44,-76,42,-76,42,-76,41,-78,39,-78,39,-79,36,-79,35,-80,33,-81,32,-80,34,-80,32,-82,30,-82,30,-82,27,-83,26,-83,24,-83,24,-83,21,-83,22,-84,20,-84,19,-84,17,-84,16,-85,15,-85,12,-85,13,-85,14,-85,11,-85,9,-85,8,-85,7,-85,5,-85,5,-85,3,-85,2,-85,-1,-85,-1,-84,-4,-84,-3,-84,-4,-84,-6,-84,-6,-83,-7,-83,-10,-83,-12,-83,-13,-82,-13,-81,-15,-82,-15,-81,-19,-81,-19,-80,-21,-80,-22,-80,-23,-80,-22,-78,-27,-78,-26,-78,-26,-76,-29,-76,-31,-76,-30,-75,-33,-74,-34,-74,-36,-73,-37,-72,-38,-72,-38,-71,-40,-70,-41,-71,-41,-69,-43,-68,-44,-67,-45,-67,-45,-67,-47,-66,-48,-65,-48,-64,-49,-63,-52,-61,-53,-60,-54,-61,-54,-59,-56,-59,-55,-57,-57,-58,-57,-56,-59,-53,-61,-53,-61,-53,-61,-52,-63,-50,-64,-49,-64,-49,-65,-46,-67,-46,-67,-46,-67,-45,-68,-44,-69,-44,-69,-42,-70,-40,-71,-41,-71,-37,-73,-36,-74,-37,-73,-34,-75,-34,-74,-33,-75,-32,-75,-30,-76,-27,-78,-28,-77,-28,-77,-25,-78,-24,-79,-23,-79,-21,-79,-20,-80,-18,-81,-17,-81,-18,-81,-15,-81,-15,-81,-13,-82,-11,-82,-11,-82,-9,-82,-7,-83,-7,-83,-7,-83,-5,-83,-2,-83,-2,-83,-2,-83,0,-83,0,-83,3,-83,4,-83,5,-83,6,-83,5,-83,8,-83,10,-83,11,-83,14,-83,13,-83,16,-82,17,-82,16,-82,17,-82,20,-81,20,-81,23,-80,22,-80,25,-80,27,-79,28,-79,28,-79,30,-78,30,-77,30,-78,33,-77,34,-76,34,-76,36,-75,37,-75,37,-75,40,-73,41,-72,41,-72,42,-72,44,-70,45,-70,46,-69,46,-69,48,-67,48,-67,50,-66,51,-66,53,-64,54,-63,54,-63,55,-61,56,-61,57,-59,58,-59,58,-58,61,-56,59,-58,61,-55,62,-54,64,-52,63,-53,65,-51,66,-49,67,-48,67,-48,68,-46,68,-46,69,-45,70,-44,70,-43,71,-41,73,-39,72,-39,72,-39,74,-36,74,-35,75,-35,76,-32,77,-31,76,-32,77,-30,78,-28,78,-27,78,-26,80,-23,80,-22,80,-21,81,-20,81,-17,81,-17,82,-15,82,-14,82,-15,83,-11,83,-11,83,-11,84,-7,84,-7,84,-5,84,-3,84,-1,84,-2,85,1,85,2" fill="#ffc9a9" stroke="black" stroke-width="1.6666666666666665" stroke-linejoin="round" filter="url(#fuzzy)"></polyline><g transform="translate(32.44981334670693 -22.135338283068933)"><polyline id="rightCountour" points="-33.08217619153893,5.300299303832948,-32.98616477230217,4.936309432231557,-32.861025714914405,4.573483588460717,-32.70499901396114,4.2114607442377,-32.51650818362902,3.8499392259739116,-32.29415508043271,3.488674724521994,-32.03671472594163,3.127478304922938,-31.743130129506845,2.7662144161531765,-31.41250711098781,2.4047989008717052,-31.04410912347921,2.0431970051671735,-30.637352076037715,1.6814213883049964,-30.191799156408855,1.3195301324744637,-29.707155653753766,0.957624752535831,-29.18326378137604,0.5958482057674397,-28.620097499448498,0.23438290161281383,-28.017757337740015,-0.12655128857223463,-27.604523070458917,-0.47881044605143597,-27.11678318445579,-0.8405043845527898,-26.554351292141682,-1.2106560420478711,-25.917608929768477,-1.588140881032964,-25.207458738685098,-1.9717089077564607,-24.425279371023812,-2.360005551938433,-23.572882090360523,-2.751591431049559,-22.652469037892864,-3.1449610232165943,-21.666593134679783,-3.5385602728216137,-20.61811959048675,-3.93080315286221,-19.510188989780076,-4.320087208139825,-18.346181925414413,-4.704808103343466,-17.129685150557222,-5.083373200095962,-15.864459219393918,-5.454214187029955,-14.55440758715769,-5.815798786960888,-13.203547140027695,-6.166641565224098,-11.815980125439534,-6.505313863243299,-10.395867453351855,-6.830452881397576,-8.947403339012784,-7.1407699352541725,-7.474791257770217,-7.4350579092342075,-5.982221182469608,-7.712197931778523,-4.473848073983216,-7.971165296080925,-2.9537715954145796,-8.211034650455918,-1.4260170205220675,-8.430984482408238,0.10548269309464864,-8.630300920471313,1.636903695501398,-8.80838087788183,3.164546930085761,-8.964734562157737,4.684852742818887,-9.09898737464669,6.194414444579111,-9.210881224112335,7.689990855993493,-9.300275278425445,9.168517864253475,-9.367146178427301,10.627119021360805,-9.4115877380323,12.063115213259938,-9.433810154637225,13.474033429312984,-9.43413875390415,14.857614661573537,-9.41301229298438,16.211820963315375,-9.370980846250443,17.534841696272338,-9.308703297603486,18.825098996045433,-9.226944463423191,20.0812524851335,-9.126571870227426,21.30220326304342,-9.008552211108825,22.48709720293614,-8.87394750501553,23.63532758426472,-8.723910982943245,24.746537090860436,-8.559682725105855,25.82061920392327,-8.38258507315173,26.857719019372798,-8.194017841493054,27.858233519015787,-7.995453351815153,28.822811324986592,-7.788431314833317,29.7523519669165,-7.574553583364028,30.648004691288268,-7.355478800777964,31.511166842431955,-7.132916968901969,32.34277285411696,-6.905565245202401,33.14285130539422,-6.671488480577158,33.911669919541254,-6.431481719809704,34.64955227794744,-6.186335126637776,35.35687387509134,-5.936830760467733,36.034058173518005,-5.683739353088915,36.6815726588164,-5.427817085388015,37.29992489459673,-5.169802364063449,37.88965857746774,-4.910412598339707,38.4513495920142,-4.650340976681719,38.98560206577409,-4.390253243509238,39.49304442421608,-4.130784475911178,39.97432544571681,-3.8725358603599913,40.43011031653828,-3.616071469426033,38.468791618382525,1.211229257816263,37.81833004172596,1.1756293887203348,37.14928232963052,1.1459953669910385,36.46154255539648,1.12292379575215,35.75503576571788,1.1070282094549926,35.02971833925824,1.0989347523778146,34.28557834522601,1.099277857125165,33.52263590195015,1.1086959231272684,32.740943535455756,1.1278269951394027,31.940586538039483,1.1573044417412763,31.12168332684523,1.197752633836405,30.284385802439616,1.2497826231514786,29.42887970738758,1.3139878207357545,28.555384984827896,1.39093967546042,27.664156137048778,1.4811833525179727,26.75338972084186,1.5831112375827203,25.8210790332418,1.6958581064830427,24.867287187159423,1.8209432335435958,23.892192375266383,1.959726633002267,22.896085948546897,2.1134054808174048,21.87937029867726,2.2830108195522536,20.842556541555552,2.469404578603843,19.786261999304323,2.6732769420435405,18.71120747806875,2.8951440963364385,17.618214338933022,3.1353463902068066,16.508201359277518,3.3940469389168255,15.382181381899484,3.671230705225748,14.241257749219741,3.9667040892967877,13.086620519898144,4.280095059818833,11.91954246518041,4.610853858610276,10.741374842298924,4.958254310972119,9.553542942250186,5.321395774057569,8.357541409271539,5.699205755525341,7.154929329339784,6.0904432347438275,5.947325085014325,6.493702718813433,4.7364009739475295,6.9074190656741585,3.523877588384856,7.32987310656574,2.3115179529774554,7.759198100107486,1.101121418229857,8.193387050265045,-0.10548269309464864,8.630300920471313,-1.3064416892882456,9.067677776168658,-2.499886365409857,9.503142888039687,-3.683938114070763,9.934219828193758,-4.856716293971994,10.358342591576443,-6.016345858870766,10.772868774869144,-7.160965249653435,11.175093845146044,-8.28873455219227,11.562266530555657,-9.39784392366338,11.931605365294107,-10.486522290003268,12.280316421137403,-11.553046317181249,12.60561225779988,-12.595749658965175,12.904732124386015,-13.613032483857815,13.174963444202849,-14.603371283881255,13.413664615200155,-15.565328967886646,13.618289158305647,-16.497565242066745,13.786411245922373,-17.398847280348505,13.915752642855487,-18.2680606873432,14.004211091935677,-19.104220756531326,14.049890176606333,-19.906484026359735,14.051130692741825,-20.67416013692833,14.006543561963927,-21.406723989943668,13.915044318723695,-22.10382821461691,13.775889203415982,-22.765315942183342,13.588712893793787,-23.39123389172099,13.353567906949625,-23.98184576994558,13.070965704131186,-24.607545352495812,13.008273154741815,-25.213561277237623,12.923668113915234,-25.799856348168255,12.817481196562376,-26.36643685613201,12.690162845896438,-26.913354231409677,12.542287971605862,-27.44070669630819,12.374560588027311,-27.948640917750247,12.187818452318638,-28.437353659863824,11.983037702631858,-28.907093436571834,11.761337496286139,-29.35816216418165,11.52398464794075,-29.790916813974768,11.272398267768065,-30.20577106479633,11.008154399626513,-30.60319695564474,10.732990659233568,-30.98372653826126,10.448810872338717,-31.347953529719575,10.157689712896438" fill="white" stroke="white" stroke-width="0" stroke-linejoin="round" filter="url(#fuzzy)"></polyline></g><g transform="translate(-32.62147218522499 -28.018166840608863)"><polyline id="leftCountour" points="34.02893253727716,5.983402902378575,33.894542384285415,5.627877922823497,33.7285729414027,5.2722082546350775,33.529414888046134,4.916180796513637,33.29564351130851,4.559633974081243,33.02601336820359,4.202455928714853,32.71945294791145,3.844582706379457,32.37505933402383,3.48599644646122,31.992092866789566,3.1267235706006273,31.569971805359852,2.766832971525624,31.10826699003366,2.4064342018847587,30.606696504503024,2.0456756630803294,30.0651203380985,1.6847427941015187,29.48353504803443,1.3238562603575454,28.86206842165433,0.9632701425108019,28.20097413867627,0.6032701253099946,27.720224267926366,0.24280961005712243,27.16365979070068,-0.12613265551600517,26.531408452445003,-0.502497565651808,25.824174831033968,-0.8850953112472775,25.043190623448414,-1.2726261824493825,24.190166826759782,-1.6637002765794868,23.267247780243654,-2.0568561346465906,22.276967035444283,-2.450578329709243,21.222205021012112,-2.8433140303459776,20.10614846913627,-3.233488562494127,18.932251570393895,-3.6195199929168282,17.70419882383847,-3.999832757558094,16.425869549148835,-4.372870358045786,15.101304027661165,-4.73710714960232,13.734671239105545,-5.091059243622974,12.330238160869392,-5.4332945481816175,10.892340596609486,-5.762441969723723,9.425355501034701,-6.077199799206486,7.933674767681294,-6.376343305945943,6.421680446502826,-6.658731562430866,4.893721358096531,-6.9233135233633245,3.3540910713882788,-7.169133382185757,1.8070072115979077,-7.395335228354373,0.25659206530703127,-7.601167028618731,-1.2931455505487746,-7.785983955567396,-2.8383271889414865,-7.949251086699423,-4.375220475443797,-8.090545497281582,-5.900253646532019,-8.209557770251157,-7.4100289566767845,-8.306092946424155,-8.901334987399506,-8.380070938268734,-10.371157891472755,-8.4315264305038,-11.816691605442422,-8.46060829078248,-13.235347063649922,-8.467578513720419,-14.624760446932227,-8.452810721528696,-15.982800499178015,-8.416788244511249,-17.30757494491778,-8.360101804686547,-18.59743604112603,-8.283446825793527,-19.85098529641361,-8.187620392941461,-21.067077390788185,-8.07351788516372,-22.244823329160866,-7.942129304135236,-23.38359286177706,-7.79453532231347,-24.483016204749706,-7.631903073762825,-25.542985093872602,-7.4554817109222515,-26.563653204892244,-7.266597750575945,-27.545435973415962,-7.066650232286969,-28.489009847634485,-6.857105712553619,-29.395311007036977,-6.6394931179484455,-30.26553358029652,-6.415398480499686,-31.10112739550415,-6.186459578575004,-31.903795295929513,-5.9543605065274186,-32.6742075069626,-5.717803793740028,-33.412020837510724,-5.474875859427284,-34.1176490556457,-5.22636548724992,-34.79155984358756,-4.973055503988666,-35.43427035421736,-4.7157196643865,-36.04634276758995,-4.4551195359908835,-36.62837984744675,-4.192001383996056,-37.181020497728554,-3.9270930560852637,-37.70493531908828,-3.6611008672730474,-38.20082216540379,-3.394706484747486,-38.66940170029069,-3.1285638127124606,-39.11141295361503,-2.863295877229909,-39.52760887800616,-2.599491711062102,-39.91875190536952,-2.33770323851388,-36.97120813378696,2.341357848383913,-36.33977095411544,2.3025605373815767,-35.689724613619475,2.2678551101789703,-35.02092210989288,2.2377454796737832,-34.333245132241586,2.2127523099787765,-33.62660466509837,2.1934094153642776,-32.900941591437686,2.180260159200701,-32.15622729619027,2.1738538529010554,-31.392464269658024,2.1747421548634525,-30.609686710928617,2.1834754694136187,-29.807961131290305,2.2005993457474036,-28.987386957646656,2.2266508768732916,-28.14809713593126,2.2621550985549135,-27.290258734522475,2.3076213882535574,-26.414073547658194,2.3635398640706704,-25.517881241268764,2.4285330686740676,-24.599770630963885,2.5018422692547047,-23.659684852192505,2.584777125644732,-22.697687551989556,2.6785219324998155,-21.713961343631034,2.7841323116152887,-20.70880605613162,2.9025321260338255,-19.68263677407933,3.034510642832569,-18.63598166330162,3.1807199714776186,-17.569479577857535,3.341672804633746,-16.483877443850393,3.517740488317246,-15.380027415555412,3.709151448279842,-14.258883799356973,3.915989999511481,-13.12149974098979,4.138195565750004,-11.969023671578695,4.375562335885492,-10.802695507971414,4.627739384147249,-9.62384260285888,4.894231280961307,-8.4338754401776,5.174399221366315,-7.234283071288541,5.467462697875759,-6.0266282874270996,5.772501744674354,-4.812542523918558,6.088459780036568,-3.593720491653666,6.414147073855098,-2.371914531318703,6.748244867167269,-1.1489286858746697,7.089310170567194,0.07338751322002679,7.435781268391631,1.2931455505487746,7.785983955567397,2.5084247265433994,8.138138534008272,3.7172792570637654,8.490367595449266,4.917745677255754,8.84070461760614,6.107850554193217,9.187103400548096,7.2856185128093,9.527448370171529,8.449080579622711,9.859565775662702,9.596282848764407,10.181235807837316,10.725295474810139,10.490205665244773,11.834221996924498,10.78420359492511,12.921208998821736,11.060953934706461,13.984456109049141,11.318193183930951,15.022226346098126,11.553687129496911,16.03285681284889,11.765249054105311,17.01476974485383,11.950759053598336,17.966483916965416,12.108184490277957,18.88662641281395,12.23560160909241,19.77394476164063,12.331218343578499,20.627319446991596,12.39339833844759,21.44577679177824,12.420686215703196,22.22850222420949,12.411834111178077,22.974853929101375,12.365829508378718,23.68437688906951,12.281924396525078,24.3568173201099,12.159665779673565,24.992137506073636,11.998927563811042,25.590531036540906,11.799943848807839,26.227665907975197,11.76831417069035,26.844378822409833,11.718675810691193,27.440598926000728,11.651182294132548,28.016301737550993,11.566078825079643,28.571510963388466,11.46370594329012,29.106300312243103,11.34450318116343,29.620795310124695,11.209012720690204,30.115175115200213,11.057883050401625,30.589674332671397,10.891872622318813,31.04458482965229,10.7118535089022,31.48025755004669,10.518815060000911,31.897104329425783,10.313867559802134,32.2955997099055,10.098245883780512,32.676282755024175,9.873313155647509,33.03975886462,9.640564404300791" fill="white" stroke="white" stroke-width="0" stroke-linejoin="round" filter="url(#fuzzy)"></polyline></g><g transform="translate(32.44981334670693 -22.135338283068933)"><polyline id="rightUpper" points="-32.96905289258403,9.130068865329292,-33.023441494462546,8.720101096342866,-33.077535090503495,8.318610001828551,-33.12745372925477,7.924531542653055,-33.169552751597394,7.536880936906167,-33.20041761347234,7.154750669647871,-33.216858708607326,6.777308502655435,-33.2159061912436,6.403795484170534,-33.19480479886278,6.033523958646343,-33.15100867491365,5.665875576494648,-33.08217619153893,5.300299303832948,-32.98616477230217,4.936309432231557,-32.861025714914405,4.573483588460717,-32.70499901396114,4.2114607442377,-32.51650818362902,3.8499392259739116,-32.29415508043271,3.488674724521994,-32.03671472594163,3.127478304922938,-31.743130129506845,2.7662144161531765,-31.41250711098781,2.4047989008717052,-31.04410912347921,2.0431970051671735,-30.637352076037715,1.6814213883049964,-30.191799156408855,1.3195301324744637,-29.707155653753766,0.957624752535831,-29.18326378137604,0.5958482057674397,-28.620097499448498,0.23438290161281383,-28.017757337740015,-0.12655128857223463,-27.604523070458917,-0.47881044605143597,-27.11678318445579,-0.8405043845527898,-26.554351292141682,-1.2106560420478711,-25.917608929768477,-1.588140881032964,-25.207458738685098,-1.9717089077564607,-24.425279371023812,-2.360005551938433,-23.572882090360523,-2.751591431049559,-22.652469037892864,-3.1449610232165943,-21.666593134679783,-3.5385602728216137,-20.61811959048675,-3.93080315286221,-19.510188989780076,-4.320087208139825,-18.346181925414413,-4.704808103343466,-17.129685150557222,-5.083373200095962,-15.864459219393918,-5.454214187029955,-14.55440758715769,-5.815798786960888,-13.203547140027695,-6.166641565224098,-11.815980125439534,-6.505313863243299,-10.395867453351855,-6.830452881397576,-8.947403339012784,-7.1407699352541725,-7.474791257770217,-7.4350579092342075,-5.982221182469608,-7.712197931778523,-4.473848073983216,-7.971165296080925,-2.9537715954145796,-8.211034650455918,-1.4260170205220675,-8.430984482408238,0.10548269309464864,-8.630300920471313,1.636903695501398,-8.80838087788183,3.164546930085761,-8.964734562157737,4.684852742818887,-9.09898737464669,6.194414444579111,-9.210881224112335,7.689990855993493,-9.300275278425445,9.168517864253475,-9.367146178427301,10.627119021360805,-9.4115877380323,12.063115213259938,-9.433810154637225,13.474033429312984,-9.43413875390415,14.857614661573537,-9.41301229298438,16.211820963315375,-9.370980846250443,17.534841696272338,-9.308703297603486,18.825098996045433,-9.226944463423191,20.0812524851335,-9.126571870227426,21.30220326304342,-9.008552211108825,22.48709720293614,-8.87394750501553,23.63532758426472,-8.723910982943245,24.746537090860436,-8.559682725105855,25.82061920392327,-8.38258507315173,26.857719019372798,-8.194017841493054,27.858233519015787,-7.995453351815153,28.822811324986592,-7.788431314833317,29.7523519669165,-7.574553583364028,30.648004691288268,-7.355478800777964,31.511166842431955,-7.132916968901969,32.34277285411696,-6.905565245202401,33.14285130539422,-6.671488480577158,33.911669919541254,-6.431481719809704,34.64955227794744,-6.186335126637776,35.35687387509134,-5.936830760467733,36.034058173518005,-5.683739353088915,36.6815726588164,-5.427817085388015,37.29992489459673,-5.169802364063449,37.88965857746774,-4.910412598339707,38.4513495920142,-4.650340976681719,38.98560206577409,-4.390253243509238,39.49304442421608,-4.130784475911178,39.97432544571681,-3.8725358603599913,40.43011031653828,-3.616071469426033,40.86107668580522,-3.3619150384919276,41.267910720482384,-3.110546742466923,41.65130316035192,-2.8623999725012608,42.01194537299077,-2.6178581127005485,42.35052540874797,-2.3772513168401055,42.66772405572202,-2.1408532850793414,42.96421089473823,-1.9088780406761217,43.24064035432609,-1.6814767067011145,43.49764776569661,-1.458734282752184,43.73584541771968,-1.2406664216687204" fill="none" stroke="black" stroke-width="1.6666666666666665" stroke-linejoin="round" filter="url(#fuzzy)"></polyline><polyline id="rightLower" points="-34.271597883863926,7.45257298721231,-34.022994390242246,7.6580979058582095,-33.76778063919288,7.887845240830263,-33.50465536789039,8.137776736610498,-33.23239550473765,8.404071367615678,-32.94985451677626,8.683120700024329,-32.655960757097006,8.97152425360376,-32.34971581225019,9.266084863537097,-32.03019284965609,9.563804042250293,-31.696534965015402,9.861877341239172,-31.347953529719575,10.157689712896438,-30.98372653826126,10.448810872338717,-30.60319695564474,10.732990659233568,-30.20577106479633,11.008154399626513,-29.790916813974768,11.272398267768065,-29.35816216418165,11.52398464794075,-28.907093436571834,11.761337496286139,-28.437353659863824,11.983037702631858,-27.948640917750247,12.187818452318638,-27.44070669630819,12.374560588027311,-26.913354231409677,12.542287971605862,-26.36643685613201,12.690162845896438,-25.799856348168255,12.817481196562376,-25.213561277237623,12.923668113915234,-24.607545352495812,13.008273154741815,-23.98184576994558,13.070965704131186,-23.39123389172099,13.353567906949625,-22.765315942183342,13.588712893793787,-22.10382821461691,13.775889203415982,-21.406723989943668,13.915044318723695,-20.67416013692833,14.006543561963927,-19.906484026359735,14.051130692741825,-19.104220756531326,14.049890176606333,-18.2680606873432,14.004211091935677,-17.398847280348505,13.915752642855487,-16.497565242066745,13.786411245922373,-15.565328967886646,13.618289158305647,-14.603371283881255,13.413664615200155,-13.613032483857815,13.174963444202849,-12.595749658965175,12.904732124386015,-11.553046317181249,12.60561225779988,-10.486522290003268,12.280316421137403,-9.39784392366338,11.931605365294107,-8.28873455219227,11.562266530555657,-7.160965249653435,11.175093845146044,-6.016345858870766,10.772868774869144,-4.856716293971994,10.358342591576443,-3.683938114070763,9.934219828193758,-2.499886365409857,9.503142888039687,-1.3064416892882456,9.067677776168658,-0.10548269309464864,8.630300920471313,1.101121418229857,8.193387050265045,2.3115179529774554,7.759198100107486,3.523877588384856,7.32987310656574,4.7364009739475295,6.9074190656741585,5.947325085014325,6.493702718813433,7.154929329339784,6.0904432347438275,8.357541409271539,5.699205755525341,9.553542942250186,5.321395774057569,10.741374842298924,4.958254310972119,11.91954246518041,4.610853858610276,13.086620519898144,4.280095059818833,14.241257749219741,3.9667040892967877,15.382181381899484,3.671230705225748,16.508201359277518,3.3940469389168255,17.618214338933022,3.1353463902068066,18.71120747806875,2.8951440963364385,19.786261999304323,2.6732769420435405,20.842556541555552,2.469404578603843,21.87937029867726,2.2830108195522536,22.896085948546897,2.1134054808174048,23.892192375266383,1.959726633002267,24.867287187159423,1.8209432335435958,25.8210790332418,1.6958581064830427,26.75338972084186,1.5831112375827203,27.664156137048778,1.4811833525179727,28.555384984827896,1.39093967546042,29.42887970738758,1.3139878207357545,30.284385802439616,1.2497826231514786,31.12168332684523,1.197752633836405,31.940586538039483,1.1573044417412763,32.740943535455756,1.1278269951394027,33.52263590195015,1.1086959231272684,34.28557834522601,1.099277857125165,35.02971833925824,1.0989347523778146,35.75503576571788,1.1070282094549926,36.46154255539648,1.12292379575215,37.14928232963052,1.1459953669910385,37.81833004172596,1.1756293887203348,38.468791618382525,1.211229257816263,39.100803601118315,1.25221962398322,39.71453278769414,1.2980507112543953,40.31017587353797,1.3482026394924018,40.88795909316947,1.4021897458898906,41.448137861624325,1.4595649064701828,41.99099641587874,1.5199238575878895,42.516847456273915,1.5829095174295338,43.026031787940425,1.6482163075141791,43.5189179622227,1.7155944741940492,43.99590191810347,1.784854410155151" fill="none" stroke="black" stroke-width="2.2222222222222223" stroke-linejoin="round" filter="url(#fuzzy)"></polyline><!--[--><circle r="3.2051961413842625" cx="5.002996575916666" cy="3.2694110869017052" stroke="black" fill="none" stroke-width="1" filter="url(#fuzzy)" clip-path="url(#rightEyeClipPath)"></circle><circle r="4.3184283691907694" cx="7.693971241782467" cy="2.801667234619119" stroke="black" fill="none" stroke-width="1" filter="url(#fuzzy)" clip-path="url(#rightEyeClipPath)"></circle><circle r="4.510138658472912" cx="5.380843248847418" cy="0.9157495653504064" stroke="black" fill="none" stroke-width="1" filter="url(#fuzzy)" clip-path="url(#rightEyeClipPath)"></circle><circle r="4.709760726950849" cx="7.039264128365678" cy="0.26467713140282845" stroke="black" fill="none" stroke-width="1" filter="url(#fuzzy)" clip-path="url(#rightEyeClipPath)"></circle><circle r="4.171587658502767" cx="5.16521746218551" cy="0.9770111612871766" stroke="black" fill="none" stroke-width="1" filter="url(#fuzzy)" clip-path="url(#rightEyeClipPath)"></circle><circle r="3.518687999281043" cx="7.219770341849827" cy="3.253727285679946" stroke="black" fill="none" stroke-width="1" filter="url(#fuzzy)" clip-path="url(#rightEyeClipPath)"></circle><circle r="3.3464313127636025" cx="6.5254567558835745" cy="2.555008553930347" stroke="black" fill="none" stroke-width="1" filter="url(#fuzzy)" clip-path="url(#rightEyeClipPath)"></circle><circle r="3.1450693923535358" cx="3.5824022781378595" cy="1.3618318927154713" stroke="black" fill="none" stroke-width="1" filter="url(#fuzzy)" clip-path="url(#rightEyeClipPath)"></circle><circle r="3.4511595655840437" cx="8.168686334819432" cy="2.447958576799862" stroke="black" fill="none" stroke-width="1" filter="url(#fuzzy)" clip-path="url(#rightEyeClipPath)"></circle><circle r="3.8074925941299225" cx="8.423555527473294" cy="2.2590581806348684" stroke="black" fill="none" stroke-width="1" filter="url(#fuzzy)" clip-path="url(#rightEyeClipPath)"></circle><!--]--></g><g transform="translate(-32.62147218522499 -28.018166840608863)"><polyline id="leftUpper" points="34.13270432428237,9.618044814122953,34.18116425493692,9.239615242331483,34.225465829709776,8.866404432308183,34.2618600747565,8.49758439935875,34.28683600145462,8.132396797379197,34.297115268649165,7.770151107689005,34.28964684489789,7.410222827864256,34.261601670716715,7.0520516605707835,34.210367320825,6.695139702397311,34.13354266639101,6.339049632688597,34.02893253727716,5.983402902378575,33.894542384285415,5.627877922823497,33.7285729414027,5.2722082546350775,33.529414888046134,4.916180796513637,33.29564351130851,4.559633974081243,33.02601336820359,4.202455928714853,32.71945294791145,3.844582706379457,32.37505933402383,3.48599644646122,31.992092866789566,3.1267235706006273,31.569971805359852,2.766832971525624,31.10826699003366,2.4064342018847587,30.606696504503024,2.0456756630803294,30.0651203380985,1.6847427941015187,29.48353504803443,1.3238562603575454,28.86206842165433,0.9632701425108019,28.20097413867627,0.6032701253099946,27.720224267926366,0.24280961005712243,27.16365979070068,-0.12613265551600517,26.531408452445003,-0.502497565651808,25.824174831033968,-0.8850953112472775,25.043190623448414,-1.2726261824493825,24.190166826759782,-1.6637002765794868,23.267247780243654,-2.0568561346465906,22.276967035444283,-2.450578329709243,21.222205021012112,-2.8433140303459776,20.10614846913627,-3.233488562494127,18.932251570393895,-3.6195199929168282,17.70419882383847,-3.999832757558094,16.425869549148835,-4.372870358045786,15.101304027661165,-4.73710714960232,13.734671239105545,-5.091059243622974,12.330238160869392,-5.4332945481816175,10.892340596609486,-5.762441969723723,9.425355501034701,-6.077199799206486,7.933674767681294,-6.376343305945943,6.421680446502826,-6.658731562430866,4.893721358096531,-6.9233135233633245,3.3540910713882788,-7.169133382185757,1.8070072115979077,-7.395335228354373,0.25659206530703127,-7.601167028618731,-1.2931455505487746,-7.785983955567396,-2.8383271889414865,-7.949251086699423,-4.375220475443797,-8.090545497281582,-5.900253646532019,-8.209557770251157,-7.4100289566767845,-8.306092946424155,-8.901334987399506,-8.380070938268734,-10.371157891472755,-8.4315264305038,-11.816691605442422,-8.46060829078248,-13.235347063649922,-8.467578513720419,-14.624760446932227,-8.452810721528696,-15.982800499178015,-8.416788244511249,-17.30757494491778,-8.360101804686547,-18.59743604112603,-8.283446825793527,-19.85098529641361,-8.187620392941461,-21.067077390788185,-8.07351788516372,-22.244823329160866,-7.942129304135236,-23.38359286177706,-7.79453532231347,-24.483016204749706,-7.631903073762825,-25.542985093872602,-7.4554817109222515,-26.563653204892244,-7.266597750575945,-27.545435973415962,-7.066650232286969,-28.489009847634485,-6.857105712553619,-29.395311007036977,-6.6394931179484455,-30.26553358029652,-6.415398480499686,-31.10112739550415,-6.186459578575004,-31.903795295929513,-5.9543605065274186,-32.6742075069626,-5.717803793740028,-33.412020837510724,-5.474875859427284,-34.1176490556457,-5.22636548724992,-34.79155984358756,-4.973055503988666,-35.43427035421736,-4.7157196643865,-36.04634276758995,-4.4551195359908835,-36.62837984744675,-4.192001383996056,-37.181020497728554,-3.9270930560852637,-37.70493531908828,-3.6611008672730474,-38.20082216540379,-3.394706484747486,-38.66940170029069,-3.1285638127124606,-39.11141295361503,-2.863295877229909,-39.52760887800616,-2.599491711062102,-39.91875190536952,-2.33770323851388,-40.28560950339937,-2.0784421602749346,-40.62894973209161,-1.822176838262057,-40.94953680025657,-1.5693291804614002,-41.24812662203175,-1.3202715257707398,-41.525462373394674,-1.0753235288417367,-41.7822700486756,-0.8347490449221855,-42.01925401707037,-0.5987530146982945,-42.23709257915311,-0.36747834913692845,-42.43643352338914,-0.14100281432787565,-42.61788968264763,0.08066408367389144" fill="none" stroke="black" stroke-width="2.2222222222222223" stroke-linejoin="round" filter="url(#fuzzy)"></polyline><polyline id="leftLower" points="35.91239031041651,7.313735392355687,35.67179494155343,7.510783926698009,35.42409440509583,7.723026040907594,35.16792011994343,7.947446522008959,34.901987990070936,8.181198631706602,34.62509658965061,8.421600449435626,34.33612534817473,8.666131215412364,34.03403273557804,8.912427673684991,33.71785444736024,9.158280415184157,33.38670158970851,9.401630220773605,33.03975886462,9.640564404300791,32.676282755024175,9.873313155647509,32.2955997099055,10.098245883780512,31.897104329425783,10.313867559802134,31.48025755004669,10.518815060000911,31.04458482965229,10.7118535089022,30.589674332671397,10.891872622318813,30.115175115200213,11.057883050401625,29.620795310124695,11.209012720690204,29.106300312243103,11.34450318116343,28.571510963388466,11.46370594329012,28.016301737550993,11.566078825079643,27.440598926000728,11.651182294132548,26.844378822409833,11.718675810691193,26.227665907975197,11.76831417069035,25.590531036540906,11.799943848807839,24.992137506073636,11.998927563811042,24.3568173201099,12.159665779673565,23.68437688906951,12.281924396525078,22.974853929101375,12.365829508378718,22.22850222420949,12.411834111178077,21.44577679177824,12.420686215703196,20.627319446991596,12.39339833844759,19.77394476164063,12.331218343578499,18.88662641281395,12.23560160909241,17.966483916965416,12.108184490277957,17.01476974485383,11.950759053598336,16.03285681284889,11.765249054105311,15.022226346098126,11.553687129496911,13.984456109049141,11.318193183930951,12.921208998821736,11.060953934706461,11.834221996924498,10.78420359492511,10.725295474810139,10.490205665244773,9.596282848764407,10.181235807837316,8.449080579622711,9.859565775662702,7.2856185128093,9.527448370171529,6.107850554193217,9.187103400548096,4.917745677255754,8.84070461760614,3.7172792570637654,8.490367595449266,2.5084247265433994,8.138138534008272,1.2931455505487746,7.785983955567397,0.07338751322002679,7.435781268391631,-1.1489286858746697,7.089310170567194,-2.371914531318703,6.748244867167269,-3.593720491653666,6.414147073855098,-4.812542523918558,6.088459780036568,-6.0266282874270996,5.772501744674354,-7.234283071288541,5.467462697875759,-8.4338754401776,5.174399221366315,-9.62384260285888,4.894231280961307,-10.802695507971414,4.627739384147249,-11.969023671578695,4.375562335885492,-13.12149974098979,4.138195565750004,-14.258883799356973,3.915989999511481,-15.380027415555412,3.709151448279842,-16.483877443850393,3.517740488317246,-17.569479577857535,3.341672804633746,-18.63598166330162,3.1807199714776186,-19.68263677407933,3.034510642832569,-20.70880605613162,2.9025321260338255,-21.713961343631034,2.7841323116152887,-22.697687551989556,2.6785219324998155,-23.659684852192505,2.584777125644732,-24.599770630963885,2.5018422692547047,-25.517881241268764,2.4285330686740676,-26.414073547658194,2.3635398640706704,-27.290258734522475,2.3076213882535574,-28.14809713593126,2.2621550985549135,-28.987386957646656,2.2266508768732916,-29.807961131290305,2.2005993457474036,-30.609686710928617,2.1834754694136187,-31.392464269658024,2.1747421548634525,-32.15622729619027,2.1738538529010554,-32.900941591437686,2.180260159200701,-33.62660466509837,2.1934094153642776,-34.333245132241586,2.2127523099787765,-35.02092210989288,2.2377454796737832,-35.689724613619475,2.2678551101789703,-36.33977095411544,2.3025605373815767,-36.97120813378696,2.341357848383913,-37.5842112433377,2.383763482560836,-38.17898285835392,2.42931783261725,-38.755752435889846,2.477588845645588,-39.31477571105289,2.5281756241833087,-39.85633409358891,2.580712027270381,-40.38073406446752,2.63487027150678,-40.88830657246727,2.690364532109965,-41.379406430760966,2.7469545439723855,-41.85441171350095,2.804449202718955,-42.31372315240432,2.8627101657645544" fill="none" stroke="black" stroke-width="2.2222222222222223" stroke-linejoin="round" filter="url(#fuzzy)"></polyline><!--[--><circle r="4.321839124615939" cx="10.443292176924043" cy="1.4996554389423298" stroke="black" fill="none" stroke-width="1" filter="url(#fuzzy)" clip-path="url(#leftEyeClipPath)"></circle><circle r="4.047431990127959" cx="12.002416291209926" cy="-1.3850603009365523" stroke="black" fill="none" stroke-width="1" filter="url(#fuzzy)" clip-path="url(#leftEyeClipPath)"></circle><circle r="4.288009272230717" cx="11.97783651092488" cy="-0.769370936995627" stroke="black" fill="none" stroke-width="1" filter="url(#fuzzy)" clip-path="url(#leftEyeClipPath)"></circle><circle r="3.0235505261027815" cx="11.95585083315924" cy="1.6525045700761218" stroke="black" fill="none" stroke-width="1" filter="url(#fuzzy)" clip-path="url(#leftEyeClipPath)"></circle><circle r="4.834340248464586" cx="10.183068369790348" cy="2.275546148833695" stroke="black" fill="none" stroke-width="1" filter="url(#fuzzy)" clip-path="url(#leftEyeClipPath)"></circle><circle r="4.879488296970922" cx="11.826649828992746" cy="0.7806174871150438" stroke="black" fill="none" stroke-width="1" filter="url(#fuzzy)" clip-path="url(#leftEyeClipPath)"></circle><circle r="3.154760016491438" cx="11.6098436384822" cy="-1.1683848540149016" stroke="black" fill="none" stroke-width="1" filter="url(#fuzzy)" clip-path="url(#leftEyeClipPath)"></circle><circle r="3.8662221082363786" cx="8.984961382125805" cy="-1.9711013409968046" stroke="black" fill="none" stroke-width="1" filter="url(#fuzzy)" clip-path="url(#leftEyeClipPath)"></circle><circle r="4.589641741832293" cx="9.89187914977876" cy="-1.8576319483492545" stroke="black" fill="none" stroke-width="1" filter="url(#fuzzy)" clip-path="url(#leftEyeClipPath)"></circle><circle r="3.2268187860527755" cx="9.150473233809214" cy="0.42636714750622584" stroke="black" fill="none" stroke-width="1" filter="url(#fuzzy)" clip-path="url(#leftEyeClipPath)"></circle><!--]--></g><g id="hairs"><!--[--><polyline points="28,-79,-18.543974234364352,-71.62619666033146,-32.081940594278876,-69.88169264815025,-28.698767617446997,-70.18073382241283,-14.993043921755959,-70.63866727215664,2.8118244852989838,-69.46143066066438,19.417731249624236,-65.92360395270687,31.67280528272969,-60.79064099579084,38.80264031231764,-55.788090438874654,41.97705078125,-52.58582305908203,43.22991520557055,-52.045913221166245,43.90064304501962,-54.146670558150994,43.58678663481838,-58.347063732605015,40.732193747333106,-63.85544605949959,34.790885320812706,-69.55577275170504,28.465077713878234,-73.76417067165922,28.143746933562703,-74.06130819417349,40.75138545937948,-67.50486479966025,64,-52" fill="none" stroke="rgb(80, 68, 68)" stroke-width="2" stroke-linejoin="round" filter="url(#fuzzy)"></polyline><polyline points="-56,-59,-2.6671486151795882,-65.4209652711247,16.103507074102147,-64.47901030178956,20.675526767706128,-66.52582375063557,24.679140467873818,-68.93649641342444,30.8612729178606,-69.08147944648333,37.17806543542682,-66.97497987301375,40.334367396180795,-64.73220360154772,37.91711117908906,-64.67575782998102,30.132265809117182,-67.43323490975743,20.003605152643342,-71.41415976840607,10.820670081652374,-74.02306648414533,1.8255924991098809,-73.38138698825729,-13.594140404145584,-68.86080575769748,-40.30181234224216,-60.906933495326044,-59,-56" fill="none" stroke="rgb(80, 68, 68)" stroke-width="2" stroke-linejoin="round" filter="url(#fuzzy)"></polyline><polyline points="20,-81,37.95487949580546,-58.82823413737246,24.81137037512151,-58.18514701891663,17.27681668454626,-59.05046017473197,18.274672641617617,-59.07082409021014,23.281514821568635,-58.53283972801541,29.360237764999976,-57.87220583445606,34.43928531434828,-57.67106524633858,36.37505456979822,-58.531371075843545,33.78376474772239,-60.65334969654601,27.02849199389101,-63.58205783248726,18.055688847911085,-66.42307981647903,9.25031267035527,-68.40582357972924,2.3346153208001685,-69.37354613930768,-1.889149089949776,-69.80937210961882,-3.0396482960632696,-70.34660551086249,-0.7345135964213063,-71.13260726817968,4.991196716450195,-71.59471700502063,12.622766969131707,-70.86739177498966,18.83030566932407,-68.4851708799979,20.44843615292301,-64.52905031112063,18.050110548483126,-59.305005373608424,12.517954969146787,-55.96137327181856,-34,-75" fill="none" stroke="rgb(80, 68, 68)" stroke-width="2" stroke-linejoin="round" filter="url(#fuzzy)"></polyline><polyline points="-37,-73,10.170439181250646,-62.06300057597512,4.324612382475461,-67.18268561086387,-6.382347875057086,-70.09291131201185,-9.823378214845434,-68.51566819474101,-7.0853605443163215,-64.81053565777594,-2.5829706457001613,-61.77835432192313,0.40608365550648723,-60.85612163149404,0.5486907958984375,-61.885009765625,-1.725369763618607,-64.02281699572728,-4.131828744420918,-66.70684043256205,-3.402771828147687,-69.75265679101084,1.8117260688450187,-72.74907390400767,8.05956819442729,-74.822012454669,8.540583286380151,-75.65421221438754,1.9387886113683876,-77.20154409762065,14,-83" fill="none" stroke="rgb(80, 68, 68)" stroke-width="2" stroke-linejoin="round" filter="url(#fuzzy)"></polyline><polyline points="46,-69,39.34952891581853,-58.35643770237428,23.46680513718916,-57.47071489126009,15.991517622792083,-57.809787248789696,16.544272175254047,-58.77611673490488,21.14060852708916,-60.57249968365185,24.957298971241745,-63.26832224226075,25.758970139977894,-66.22633507536146,24.786564296451598,-68.20488425916469,24.58957722011961,-68.2656429266928,26.21840368615498,-66.65401919542951,28.294986875097013,-64.79491270072619,28.65269221627056,-64.29420553757735,27.0057318836386,-65.69196978893879,25.990311566566756,-68.02277228449317,29.005357764563204,-69.6498871613961,36.344897817474056,-69.69039027024557,43.780728572932375,-68.75163822278098,46.094544476830244,-68.63844091436975,41,-72" fill="none" stroke="rgb(80, 68, 68)" stroke-width="2" stroke-linejoin="round" filter="url(#fuzzy)"></polyline><polyline points="-28,-77,9.192767496854584,-66.07241700713438,2.5181661434967437,-68.64115470355394,-5.813978146078726,-71.5000709630526,-11.32113124546362,-72.45843164537335,-14.098911087792274,-71.86675249898832,-11.938685294018557,-70.4730534713426,-3.660759422172493,-68.97085533383778,8.068344143631498,-67.85088021647142,17.839973476597752,-67.38964873399499,21.17197344717615,-67.6493361480425,17.832009791940965,-68.23842091352608,12.836812870123518,-68.06159167052185,14.999722888066277,-66.07913855160066,32.24353854468317,-63.635809907821326,50,-66" fill="none" stroke="rgb(80, 68, 68)" stroke-width="2" stroke-linejoin="round" filter="url(#fuzzy)"></polyline><polyline points="-65,-48,-49.527662387854235,-59.39568156881961,-28.046591698841915,-68.78814710727403,-8.694025186082216,-72.47984188681339,6.914906931259949,-71.3891452105443,18.811196121831916,-68.1628230156984,26.04478727975083,-65.11697833206951,27.543789324002613,-63.2945287725979,23.70990465650191,-62.73960417295446,16.83579077345083,-63.206884805766116,10.128328467550514,-64.54953486632971,6.192987588153472,-66.62084852328653,6.0634758849626476,-68.98136346338241,9.312168197172536,-70.77369893259909,14.879051868664423,-70.93648762061144,21.72606359471264,-68.68129542712258,28.733815594416573,-63.98069860975766,34.20345043888658,-57.771020816508376,36.1069915718569,-51.7024026225391,33.9367803343322,-47.5629120956495,31.168176208862754,-46.7289269030831,34.64050367612514,-49.54385757913647,47.683040735482486,-52.53637251069986,74,-36" fill="none" stroke="rgb(80, 68, 68)" stroke-width="2" stroke-linejoin="round" filter="url(#fuzzy)"></polyline><polyline points="-18,-81,12.501106404895406,-77.66369240152417,34.43394131930949,-68.78836368440693,48.4863263936477,-60.054047392688645,53.24955885602141,-55.4193649980543,49.38894644937093,-55.10618585851762,39.65405811565123,-57.23503207647858,27.853446406098183,-59.77355124106716,17.971280167779213,-61.56587274333952,13.325580596923828,-62.430274963378906,15.462173062578378,-62.75850312253924,23.291289463430214,-63.025290389476446,33.46211527289667,-63.46669766605967,42.1328058513601,-64.0782197521883,46.85633320657734,-64.9109007609637,46.97061623522214,-66.34088929233718,42.081128768927414,-68.97118823180827,29.112844994244856,-73.68734919378807,-2,-83" fill="none" stroke="rgb(80, 68, 68)" stroke-width="2" stroke-linejoin="round" filter="url(#fuzzy)"></polyline><polyline points="27,-79,47.87104371984416,-62.88312510153251,47.92783249345412,-60.90545275367136,42.11193464861867,-61.81990307028313,37.63532190847839,-62.6057328210842,35.847089261821125,-62.36339007526408,35.72061495993479,-60.834522334396475,36.97283953425069,-58.07757929259338,40.10212611853898,-54.53826307602514,44.57390756211514,-51.11605236888056,47.82968651424546,-49.022901483348065,46.59669816504796,-49.32478548751008,39.87713188983122,-52.110964759562656,31.29879016107577,-55.62202304126021,27.472426220838887,-56.53721867743991,29.089936690467937,-52.989520355283176,15.515410078661493,-49.18689712557843,-63,-52" fill="none" stroke="rgb(80, 68, 68)" stroke-width="2" stroke-linejoin="round" filter="url(#fuzzy)"></polyline><polyline points="-25,-78,6.905892688376037,-72.78628221233859,17.836807183648578,-66.23757397657076,21.699915502320977,-62.76065503468952,19.43396761105396,-63.124426590511575,15.721266931390518,-65.00022694901755,13.67749392794244,-66.58629978323623,13.198640205410571,-67.46594507418314,13.528213500976562,-67.86537170410156,15.114586211431005,-67.97224557492089,19.141185146930955,-67.69403155072749,26.302937260576577,-66.5321274609855,36.0540476499591,-63.702975960681215,45.56987467286611,-59.266504845702116,47.64406397982256,-56.29430979637712,29.119987960733344,-61.40720185804243,-28,-77" fill="none" stroke="rgb(80, 68, 68)" stroke-width="2" stroke-linejoin="round" filter="url(#fuzzy)"></polyline><polyline points="17,-82,24.486043080390704,-71.60811084651702,35.494232916073145,-63.67749892991495,35.32081163145943,-63.429471356413366,28.036988543710567,-66.49548234170379,19.457655780042987,-69.56682787517505,12.771616013596555,-71.06208795547599,8.37294000239586,-70.62736988248899,5.123487889074216,-68.71315222279708,1.781672156249648,-66.24257187379797,-1.9987614455879112,-64.24631341326952,-5.533860021962059,-63.460827183152084,-7.862999582936764,-64.05403685287378,-8.719028065752635,-65.64117463535847,-8.79200955377839,-67.56007204586564,-8.984966040308626,-69.18575239070556,-9.33691449132319,-70.07362058244443,-8.655609116125904,-69.91934604513503,-5.247064683782584,-68.51510450282535,1.935455868915609,-65.89408742807768,12.580249992337603,-62.71512940943802,23.586963028626013,-60.801367102155,21.929004626144202,-63.68082838956721,-28,-77" fill="none" stroke="rgb(80, 68, 68)" stroke-width="2" stroke-linejoin="round" filter="url(#fuzzy)"></polyline><polyline points="55,-61,18.85348879523542,-70.00852684913713,-12.85276789569337,-69.40531005800115,-28.608486270173877,-67.08013495696275,-29.338728696744088,-65.98802916082755,-21.14959975254078,-66.53662976611758,-10.91978318133187,-68.14520440570725,-2.9903449300773106,-70.07940930432936,1.5711733769654135,-71.79407315720844,3.577089287031765,-72.97854430557057,4.050522804260254,-73.49547672271729,3.4852944351192487,-73.35117063711782,1.9875482974218515,-72.73190686790866,-0.29895302773046317,-72.01592500065082,-2.9706069366815115,-71.6260188415975,-5.556501951991777,-71.74101458364112,-7.853221225536747,-72.13870980660312,-9.343786742305584,-72.34670224899796,-6.71607318557175,-71.43191876102254,9.813924450696499,-66.00905561420835,67,-48" fill="none" stroke="rgb(80, 68, 68)" stroke-width="2" stroke-linejoin="round" filter="url(#fuzzy)"></polyline><polyline points="-57,-57,-36.145407914112056,-66.18450006016917,-21.843793823869706,-68.99032811070292,-10.128694716947404,-68.37357770271105,3.2669110993058275,-66.41994542874518,15.694023217074497,-64.46412806394126,24.555298407438585,-63.32139291706072,29.751841106884306,-63.19783587679163,32.36362277781951,-63.915199425544586,33.14306873628028,-65.25335554365456,32.19770794733576,-67.10454658186116,29.473489999771118,-69.39841032028198,25.29852835438274,-71.9459085539379,20.547965306026317,-74.36615393412697,16.304014240999525,-76.17206034070244,13.142480595958657,-76.9772243866125,10.487001523072804,-76.70758292782699,6.696272261016336,-75.70695124268715,0.3398159065710023,-74.70678346445239,-7.743787179815521,-74.64800258753023,-13.647287174360596,-76.11736006185082,-15.794482324600096,-77.90671518702513,-34,-75" fill="none" stroke="rgb(80, 68, 68)" stroke-width="2" stroke-linejoin="round" filter="url(#fuzzy)"></polyline><polyline points="-46,-67,4.461970382176606,-70.7520954374759,11.425592061802705,-75.23243868322577,11.255516053351107,-76.21416706186444,11.95936410635694,-75.03620470683185,11.486620717450478,-73.61579638234771,8.405159007140547,-72.60240650233456,4.14384037996651,-71.70453327565545,0.9783261359319736,-70.57523375629819,0.17719734670982568,-69.24990312649959,1.8381393238255883,-67.99379535471785,5.523325681686401,-66.94296979904175,10.47249579778167,-65.99478650893624,15.281621952065167,-65.08587768960854,17.8993553956205,-64.54013326505292,16.592751714059652,-64.98717930580786,11.421939718411483,-66.71317914377153,4.9513294413617635,-68.98722916493115,1.5050237475827717,-70.19083981372569,5.8506703138608875,-68.8315808640505,22.143207965026512,-64.14942138842147,49.63587212430427,-55.25477260721958,70,-44" fill="none" stroke="rgb(80, 68, 68)" stroke-width="2" stroke-linejoin="round" filter="url(#fuzzy)"></polyline><polyline points="-24,-79,7.627738612255068,-56.5189895334516,-5.116562769423372,-57.193875739801335,-6.841985337470514,-60.83466453663191,4.35858346982551,-62.086936322338026,16.807614190635455,-62.0569086796811,22.06504207370408,-63.08317477757358,19.31896678904983,-65.95226390693985,12.97428104957386,-69.64141331319615,8.051868438720703,-72.4682502746582,6.906603265503434,-73.3268184317912,8.852217627942355,-72.2510143092916,12.144325325034632,-70.11740093849296,16.16426699036611,-67.72489154801522,21.280560753735493,-64.99390954113666,25.682954743888263,-61.46281307347495,23.263516212420527,-58.6438953668115,13.58020609932138,-61.72928555803129,42,-72" fill="none" stroke="rgb(80, 68, 68)" stroke-width="2" stroke-linejoin="round" filter="url(#fuzzy)"></polyline><polyline points="34,-76,8.770044782240058,-67.46534246445006,24.717588778859625,-62.80737010947783,36.98598822499602,-61.06259746823596,39.54211372317734,-61.122941104786044,36.96122189153084,-61.976980726592956,33.86934557904974,-62.83058974619738,31.382005799221492,-63.45907889344169,27.808326280255958,-64.28398622015723,21.307168357909973,-65.86280730362039,11.939356803894043,-68.2586841583252,1.7860604132934637,-70.90240718878272,-6.448548345415402,-73.0092023103999,-10.966164046956878,-74.07209792117278,-11.327152522157864,-73.97409821542792,-7.524686404210115,-72.72193399369462,1.4468126668929853,-70.11190561282378,17.559666627936714,-65.47850215954725,40.37818003082656,-57.74550235364947,61.94346482848627,-47.769018456285835,67,-48" fill="none" stroke="rgb(80, 68, 68)" stroke-width="2" stroke-linejoin="round" filter="url(#fuzzy)"></polyline><polyline points="78,-28,44.025145611908464,-43.70475180239722,14.133111606648773,-54.62414444946841,2.2276315220206104,-60.37554401151973,-0.2436996720773681,-62.97378956820075,-1.7000399357457354,-64.31707566193472,-5.738088186841572,-65.03331009608016,-12.033517987712855,-65.04181929099872,-18.99148879029869,-64.31443565354239,-25.155539606379293,-63.18724569369412,-28.94271469116211,-62.23074913024902,-28.2180159440386,-61.89238595294074,-20.977440770281508,-62.18036351041042,-6.913014251248384,-62.62570995896356,11.453219594573543,-62.576010569325824,29.190133168031025,-61.6171949006075,40.74318967380162,-59.85083406789515,41.31155306188161,-58.03239070016666,25.9148701078931,-57.65855016433815,-11.464868660021043,-59.029192427291356,-65,-48" fill="none" stroke="rgb(80, 68, 68)" stroke-width="2" stroke-linejoin="round" filter="url(#fuzzy)"></polyline><polyline points="75,-35,39.017754594265384,-56.73115586774475,7.038959519142954,-67.74928147502808,-9.205418665946654,-71.74118761852696,-10.45411581955813,-71.61393430038086,-0.4600665569236139,-69.35757607397092,14.648307352456989,-66.25605157972755,28.31043668493743,-63.35323056480431,35.77864464288534,-61.527309941849204,35.274212454031684,-61.20840936142212,28.066734012456866,-62.171276668328574,17.866295290955176,-63.68607329696473,9.578604795973341,-64.93233525417703,7.344877409180842,-65.41933822209708,12.2174725320128,-65.31192453417208,20.512294830221382,-65.62713643166566,24.33688633846232,-67.8287757528924,15.40298900488311,-71.88867273988745,-9.683975061345425,-73.01788789672933,-53,-61" fill="none" stroke="rgb(80, 68, 68)" stroke-width="2" stroke-linejoin="round" filter="url(#fuzzy)"></polyline><polyline points="-49,-64,-32.99854631660809,-71.4584021805545,-24.48713115453945,-71.15164930588821,-12.194911816892681,-69.78994204648069,0.02929946697030399,-69.00813437663135,10.38517556634204,-69.02871444651473,19.24758031538846,-69.24206100353562,26.516215856009232,-69.05789305138458,30.813997853145203,-68.61489468882996,30.495190834809453,-68.66929229602361,25.34610141694889,-69.84651714313799,17.61630397676383,-72.07339436041164,11.17484272787476,-74.73583028788867,8.713150369586648,-77.2496280541943,8.889627083734569,-79.30656976704151,6.7059376889371105,-80.7057077821386,-0.62000823325111,-81.58712516726004,-2,-83" fill="none" stroke="rgb(80, 68, 68)" stroke-width="2" stroke-linejoin="round" filter="url(#fuzzy)"></polyline><polyline points="74,-35,66.65402427889533,-42.44073842845135,56.78053340487408,-51.67384787099772,49.76748302253564,-57.06224177960349,44.578726349740876,-59.86704231471559,38.518766738982094,-61.617699465717486,30.011161094427965,-63.4176199833105,19.866700057859838,-65.79597090195723,10.234379135995423,-68.68750049280729,2.895303045995707,-71.57843024129153,-1.577928357296617,-73.79292775009462,-3.6563884766004375,-74.80825731429515,-4.310098588466644,-74.46783185005188,-4.5406007006915905,-73.01924064919973,-5.049414863031729,-70.99155607637006,-6.0368780324515505,-68.99395451433851,-7.2804280942348525,-67.53494801466759,-8.550408853769234,-66.91736739586072,-9.965082028190064,-67.19350430191005,-11.627543901571762,-68.14852070994417,-12.630839410580284,-69.34552111864552,-11.124705854573046,-70.28719173364588,-7.061671221608751,-70.68863725041939,-1.9719230728143131,-71.377529308057,30,-78" fill="none" stroke="rgb(80, 68, 68)" stroke-width="2" stroke-linejoin="round" filter="url(#fuzzy)"></polyline><polyline points="-61,-53,-27.196748801022864,-66.62326864089617,0.6057932929829216,-65.32553497601575,16.300060563451147,-60.418145412177964,21.926599303257262,-56.641749412371496,20.467871919658908,-54.923526064269524,15.390365517305156,-55.12382195196309,10.477157357295969,-56.77218540840004,8.097132611568698,-59.27740679897025,8.366470922780149,-62.11175319438357,10.078936043238263,-64.89309458889815,12.075598239898682,-67.3259060382843,13.721166499957224,-69.11059847474607,14.509463489538833,-69.94314386811529,13.697309281386813,-69.63444753652804,10.54636222785167,-68.29664390062618,4.891889505605515,-66.50967093350765,-2.604751597682009,-65.33143257033583,-10.705426400581699,-65.92246379169094,-18.011029015203942,-68.63191168099371,-23.639094278739584,-71.98532069193841,-29.517794954795406,-72.62911354993507,-50,-64" fill="none" stroke="rgb(80, 68, 68)" stroke-width="2" stroke-linejoin="round" filter="url(#fuzzy)"></polyline><polyline points="74,-36,60.78095741776824,-48.19007867996235,47.294221491837824,-54.34361095585306,38.8560821590035,-59.54578461606346,38.88501167969652,-60.74623926593849,42.87000886573607,-58.57630395887501,44.95966090228866,-55.88328534422548,42.40935327524897,-55.05631990504917,36.114948209579296,-56.84631398045029,28.662698675694962,-60.560538588806935,22.057728649463098,-64.91109914081497,16.765119791030884,-68.82270836830139,12.281269118343324,-71.78611065215202,8.175132682822085,-73.74399831473272,4.387761111150009,-74.7926142114936,0.5913408013102505,-74.99326264570766,-4.370929363086317,-74.37120371805565,-11.681381616165734,-73.00061173152864,-20.238388977264343,-71.12060249879958,-24.51380504328327,-69.29051090230134,-15.167433103345154,-68.08320703228709,16.090485758713296,-65.39079971741651,67,-48" fill="none" stroke="rgb(80, 68, 68)" stroke-width="2" stroke-linejoin="round" filter="url(#fuzzy)"></polyline><polyline points="50,-66,13.257511606479138,-73.7934647204445,6.163538199032665,-73.26242933678877,16.71352358493725,-69.4246670100855,27.668348712380975,-64.80729122809134,31.196475972195554,-61.528222091165844,28.520505769857174,-60.42146174503756,23.89267986372984,-61.263066891508025,19.525726318359375,-63.45628356933594,15.178631177944949,-66.22494976898713,11.273002970358412,-68.41982541829663,11.134509345276648,-68.63466903686273,18.88267139857635,-66.07499081245624,33.909130858365664,-61.895991515054696,47.375685567343645,-59.95071843420493,46.802803607107094,-65.27923441218583,28,-79" fill="none" stroke="rgb(80, 68, 68)" stroke-width="2" stroke-linejoin="round" filter="url(#fuzzy)"></polyline><polyline points="-9,-82,1.1727052561126738,-79.21169063277276,-6.210002698679093,-73.00839692861594,-17.038284189796176,-68.83900562561068,-19.63789227182786,-67.80401835826692,-13.396924338784629,-68.30518358538484,-2.682503208429572,-68.91285083008077,7.870515220630963,-69.46353176249,15.025254172796144,-70.49367009827508,17.3392273603427,-72.26902308929722,15.226134300231934,-74.37014865875244,10.60672755563094,-75.9678761737407,5.990901835476513,-76.34670356944068,3.2015688451845765,-75.21456969249618,2.2546306458548515,-72.70388492544785,1.1068846164553179,-69.30752177782506,-2.8524622983468104,-65.94573697733274,-8.93462381238712,-63.88329455632219,-8.140523705225233,-63.709354488896494,16.38372944967847,-62.38362104063707,69,-45" fill="none" stroke="rgb(80, 68, 68)" stroke-width="2" stroke-linejoin="round" filter="url(#fuzzy)"></polyline><polyline points="53,-64,42.761243567192565,-65.94966328152718,49.75798507484271,-56.59252929289732,48.86848807867634,-52.35295778235106,38.715391511470095,-55.2890177725607,26.121029181212297,-61.62389860747957,16.041268047608735,-67.56252847742356,9.032364203233655,-71.28046759331858,3.495317382964506,-72.6488539678495,-1.4988766739308033,-72.30320168827507,-5.178929498343686,-70.92158745358918,-5.900453004067845,-68.97229184879284,-2.665283562009639,-66.8286106832184,3.904457042763517,-64.95480606253437,11.796657901787821,-63.8671324756895,18.867188072964975,-63.805685114073476,24.16934253559531,-64.39243788996866,28.18407334565334,-64.70388502186259,31.614649573573576,-63.918846079891885,33.978716528105124,-62.13966853568235,34.03858885561322,-60.64679793586257,32.456149624678844,-61.21377295804015,32.00277244975949,-65.51778975041313,16,-82" fill="none" stroke="rgb(80, 68, 68)" stroke-width="2" stroke-linejoin="round" filter="url(#fuzzy)"></polyline><polyline points="-45,-68,-7.058796796781319,-72.43438957922592,12.532434379043858,-67.18547369017591,23.45497623089032,-62.52128303549104,25.088704332239498,-61.5187401878052,20.994210411434533,-62.3422660443324,14.41625885491598,-62.92775831044006,6.942520661269125,-62.648673168039366,-0.11918760428072245,-61.90469791992627,-5.34971630172995,-61.32166696439366,-8.09759179574008,-61.25999348750336,-8.876605913120512,-61.666657725256634,-8.527726565810735,-62.20104678739997,-7.2268938261060995,-62.56063607550958,-4.668081072539287,-62.80249963333864,-1.1185083399670268,-63.37418200799335,2.494287236268115,-64.74611156964701,6.392462359747309,-66.86792961782733,13.200732897011974,-68.8266383749523,24.120180983504962,-69.21124598653508,29.657772505009156,-69.05676982619157,0,-83" fill="none" stroke="rgb(80, 68, 68)" stroke-width="2" stroke-linejoin="round" filter="url(#fuzzy)"></polyline><polyline points="-46,-67,-6.044286419472208,-72.177829605816,15.711916143017723,-72.44600069045109,19.665004782768047,-73.507615319752,17.14247316737057,-73.63752373893782,16.313215815851184,-72.00988420624356,19.82776247680449,-69.41479580276726,26.323601376252967,-66.9802085938474,33.216922372210604,-65.17185447882574,38.888783590494604,-63.69956786175819,43.13396850191829,-62.05373311011842,46.222741949798895,-60.083127085485565,47.878819520142955,-58.20750843510385,47.225013474772794,-57.21155211104389,43.7310639612779,-57.738599667106264,38.210611855352425,-59.58645967236908,32.408953120828194,-61.07005498397725,25.820137508741972,-59.22942231255517,8.086284836926573,-52.27939870179715,-64,-49" fill="none" stroke="rgb(80, 68, 68)" stroke-width="2" stroke-linejoin="round" filter="url(#fuzzy)"></polyline><polyline points="-50,-64,9.698638570130601,-53.94764034503907,21.157674409129207,-58.065149980897324,24.229911722950675,-60.648046468694076,22.628148714901005,-61.61102872960274,20.831932007085985,-61.65042194503044,24.03801296587981,-60.5258525693051,32.66514940842386,-58.56187328626424,42.23929621916642,-57.09135689507977,47.357219014868996,-57.531564487770105,45.31982958702012,-60.1348932012731,37.23454560974503,-63.46479915848217,27.63787377239654,-65.13088777381478,24.909073119598244,-63.218234624498955,40.81771881920315,-56.38598173640494,71,-41" fill="none" stroke="rgb(80, 68, 68)" stroke-width="2" stroke-linejoin="round" filter="url(#fuzzy)"></polyline><polyline points="37,-75,53.084912551007605,-59.61223216178561,53.77265447089364,-56.436333386658426,48.019087426007566,-58.732395607068426,41.6606690380671,-61.978945819925144,36.79536457934088,-64.42045001505619,33.38646465613054,-65.45405960363634,31.144443916293422,-65.02288207744097,30.260878513592345,-63.53798880624467,30.766441931160838,-61.80361870668176,31.80518976534372,-60.71339809257399,31.946824077357004,-60.808656068126474,30.320032764123876,-61.97621981942122,27.413785877493037,-63.50228801742197,24.700404095220097,-64.47259372013572,23.37782128734636,-64.29742821219266,23.40009812265083,-63.06569774889396,23.682065957546747,-61.51368848936667,23.025627395802427,-60.612708794581486,20.24051687643351,-61.09588988699754,13.057641740301332,-63.412294274554824,-0.5882116626701126,-68.01899972897189,-12.803104066048784,-74.70987185657586,6,-83" fill="none" stroke="rgb(80, 68, 68)" stroke-width="2" stroke-linejoin="round" filter="url(#fuzzy)"></polyline><polyline points="68,-46,35.559195670354335,-64.55920387731008,34.47179981482564,-67.74614468698184,30.974841577105153,-69.45405853133856,21.37299274345349,-71.80920918779255,9.679318749338378,-73.83770641836976,-0.3690897939619841,-74.75858253156571,-6.421459430106795,-74.67576050379778,-7.341649107393201,-74.15659911994156,-3.5857224287870384,-73.63974839814848,2.5055801574252956,-73.21417578559462,7.343218072351214,-72.78323481826453,7.676789529584852,-72.2692150975812,2.5129900133594028,-71.61537558238054,-5.574771257805012,-70.73680445175579,-11.054422365094943,-69.7155460665633,-9.434472600083355,-69.07428788557867,-4.716194636003702,-69.29616235758422,-15.019585146451469,-68.63816674662718,-58,-57" fill="none" stroke="rgb(80, 68, 68)" stroke-width="2" stroke-linejoin="round" filter="url(#fuzzy)"></polyline><polyline points="16,-82,42.73941698217848,-62.618067136489145,33.76291523303147,-63.61444080638776,16.09857986870276,-68.7632377509895,4.771499502992783,-72.59931841668,2.073868775673597,-74.18799766650142,3.562427158462169,-74.10675137292213,4.441022183858605,-73.21468500094772,3.1483061197217244,-72.16293350315507,1.3094909173751554,-71.29896921070137,1.3452814001886062,-70.68515876149631,4.17544530439044,-70.05948968581151,8.829141197005132,-68.85686763621236,13.910298320000706,-66.50816728357081,19.275577044098966,-62.96199290461842,26.069721907718932,-59.09198930598699,34.283922856831005,-56.85697501936838,38.968388115844085,-59.45002842693739,30.926020739485345,-70.1766777501085,16,-82" fill="none" stroke="rgb(80, 68, 68)" stroke-width="2" stroke-linejoin="round" filter="url(#fuzzy)"></polyline><polyline points="37,-75,34.080764524548684,-70.60992182666602,16.677709915064835,-68.42959112752722,4.843702367684052,-64.24926964141122,0.020236858008809505,-59.72439155466799,-0.9123984587333929,-56.804866307677166,-0.006966310474933374,-56.29689578481629,1.9684947957144845,-57.70807185808747,4.506307922625089,-59.98530945687723,6.9321558489721085,-62.3950335028526,8.687778556726652,-64.82739566606685,9.647341966629028,-67.47521233558655,10.005981810138143,-70.38278668427661,9.924257819111512,-73.3116210743639,9.389452968445255,-75.93252362123451,8.395982768861344,-78.04041355031691,7.035050666484616,-79.57407929136016,5.139838626573647,-80.52218066494223,1.9165940353666457,-80.91597677370484,-3.3196169218546054,-80.91240496009489,-8.903113893422837,-80.7922495321008,-8.96061718467926,-81.00371694609942,6,-83" fill="none" stroke="rgb(80, 68, 68)" stroke-width="2" stroke-linejoin="round" filter="url(#fuzzy)"></polyline><polyline points="-7,-83,6.619385289943958,-67.16802193838953,-4.1473256111879655,-65.26610212999984,-4.282007629657731,-67.8187651210818,3.3466193163972253,-69.58796576533284,10.545043988328347,-70.30134472237742,13.282926692588605,-71.07669432678898,12.333432068809639,-72.34569188277837,10.448629972530282,-73.75085198109471,9.763944974035455,-74.81083718557362,10.729122378986627,-75.34717841206829,11.963439840072207,-75.43644715437199,10.606410081792012,-75.18098316694851,3.9446644042213843,-74.64868834646227,-7.111806396829468,-74.14768683483389,-14.954295711783582,-74.78210070514264,-8.864890123044173,-78.43195367518749,6,-83" fill="none" stroke="rgb(80, 68, 68)" stroke-width="2" stroke-linejoin="round" filter="url(#fuzzy)"></polyline><polyline points="34,-76,-0.7558035313965563,-71.76653973126504,6.080695925546667,-70.85078821526217,15.94218646137716,-68.06407328191793,21.68312491220422,-64.55662417621352,23.97995092229714,-62.490648191622164,23.619834953681636,-62.917870478285096,20.33599624972302,-65.36301566281477,13.482254028320312,-68.40834045410156,3.1686698331673187,-70.61752120111927,-8.790782417611393,-71.32946105054842,-18.737814153757217,-70.93072138241092,-22.09176197904162,-70.40223206789233,-14.961158076288257,-70.42978736888182,3.6822719845169622,-70.87467594954708,26.876201488945057,-71.71644375548095,27,-79" fill="none" stroke="rgb(80, 68, 68)" stroke-width="2" stroke-linejoin="round" filter="url(#fuzzy)"></polyline><polyline points="61,-56,24.366277267793247,-69.83212433692194,17.95247676214472,-68.628629235988,21.879776367675568,-65.0846885938161,26.66540967409281,-62.727190526625435,29.244211892116933,-61.58783414882245,28.88501976000824,-61.244438336225485,25.727654482627674,-61.45079506036956,20.146140258325673,-62.243194639527054,12.718707352397741,-63.80533980651049,4.4017072423488415,-66.1336832062898,-3.6511483192443848,-68.83009362220764,-10.589806511739443,-71.2557933474408,-16.15328214600473,-72.91410409735208,-20.407557721498744,-73.73569849749761,-23.204286884412745,-74.06456242662478,-23.93008727276681,-74.3833370371542,-21.78928348479944,-74.94410182534828,-16.201731999119698,-75.47863823082467,-6.667846540463987,-75.20621980949844,7.206051252254799,-73.5264156902848,20.65274020657884,-72.27065517050559,3,-83" fill="none" stroke="rgb(80, 68, 68)" stroke-width="2" stroke-linejoin="round" filter="url(#fuzzy)"></polyline><polyline points="48,-67,23.62242428321225,-60.681956318321305,37.78839290846779,-51.92138236947516,48.505411817439274,-48.99465037335761,52.65695488959072,-48.46725296648721,53.02861284138231,-48.544831045319384,51.64642134694299,-49.464368820813824,49.76828028451758,-51.63672206656892,47.46681349569477,-55.20419143071882,43.38441975948903,-60.16420576893338,36.03807063492712,-66.04998631603091,25.9723439385884,-71.56471650779255,16.83721671068876,-74.93650879279924,13.329748456458898,-75.01832364803356,12.345809925598646,-73.34046559975164,-20,-80" fill="none" stroke="rgb(80, 68, 68)" stroke-width="2" stroke-linejoin="round" filter="url(#fuzzy)"></polyline><polyline points="65,-51,40.918646497813235,-68.39013429580339,31.66938152302131,-72.1705429966729,24.762474901807472,-70.05028878443574,19.7450515280208,-65.94997920669698,19.06083665170309,-62.78103580989506,21.934981138800868,-62.22427861836709,25.533302831984095,-64.01787787543206,27.86032730956299,-66.54998343835541,28.64447021484375,-68.27581405639648,28.3244557747727,-68.77196094752887,27.004048324386172,-68.75291697181862,24.578287001749153,-69.22995584521087,21.541621742658005,-70.58055726981524,19.082640246186383,-72.20846100705232,17.91197822827244,-72.7083649509131,16.228252168514246,-69.9619490622422,3.742183576981777,-62.11514847390596,-61,-54" fill="none" stroke="rgb(80, 68, 68)" stroke-width="2" stroke-linejoin="round" filter="url(#fuzzy)"></polyline><polyline points="41,-72,50.19631934847319,-57.59705185274164,46.38081093379641,-56.77875122967365,38.74598404825832,-58.08965159349778,27.86722698606064,-61.11032057842106,17.009904274159314,-64.70467504731747,8.616980847730877,-67.38532804999215,3.726665689897273,-68.46175405169797,3.078794498057216,-68.15093456037147,6.785303598346896,-67.15255705580654,13.264572097041524,-66.23984621122794,19.730675660908464,-65.94718225225769,24.477256452266893,-66.23751711877343,28.52635508686043,-66.31897727196504,34.20222303787552,-65.206185827072,40.82165736081437,-63.59804364239833,39.682362015111266,-66.60955922328569,13,-83" fill="none" stroke="rgb(80, 68, 68)" stroke-width="2" stroke-linejoin="round" filter="url(#fuzzy)"></polyline><polyline points="13,-83,-5.869692704217833,-68.15936122785457,-1.237652013030755,-67.29366878379295,-4.015862480932385,-71.02884774593997,-11.58084681743381,-73.72233908213296,-18.641092232883572,-73.87204458088864,-21.689063780622075,-71.96855832563234,-19.440143371514438,-68.91221935864118,-12.964917026217076,-65.39449451991958,-4.988345601894811,-61.94339112281567,1.6069389735210688,-59.177809911901996,5.094164657075992,-57.86431816675888,5.224192761466438,-58.61342305684151,2.649450274690108,-61.39976675209844,-1.8128394721472163,-65.31629395659901,-7.455348735148437,-68.88822556145797,-13.437211394751632,-70.90434863806726,-18.321120775941502,-71.30934425533206,-19.512577943439243,-71.46093617989114,-12.610706009474882,-72.92738453278835,8.34111864186419,-74.01405095868294,51,-66" fill="none" stroke="rgb(80, 68, 68)" stroke-width="2" stroke-linejoin="round" filter="url(#fuzzy)"></polyline><polyline points="34,-76,17.65491345072722,-78.68374165104312,-2.4821088746210047,-77.3461579938375,-20.243690290513868,-72.856242243549,-30.591310119355477,-67.68330078531204,-30.83974330853542,-63.616602250261806,-22.020206273334605,-61.133157725450985,-8.181367981935372,-59.92112794200178,6.035038752530277,-59.50017800115791,17.67100421433573,-59.48130046203027,26.179795338636747,-59.55094777336784,32.58782837730466,-59.393655075724496,38.05322104692459,-58.694902420043945,42.83721233429693,-57.26961056044905,46.14254350017231,-55.2611961674002,46.6848693299789,-53.253909085276824,43.56096341564354,-52.11816216745533,36.874616208823355,-52.55955788453667,27.578421199569185,-54.62669656553254,16.389810658478726,-57.61563833930303,2.84583363226226,-60.62405539246386,-13.209802812702033,-63.46906473311158,-27.237588159813583,-67.1795325873307,-30.300161769595242,-72.92501974916362,-30,-76" fill="none" stroke="rgb(80, 68, 68)" stroke-width="2" stroke-linejoin="round" filter="url(#fuzzy)"></polyline><!--]--></g><g id="pointNose"><g id="rightNose"><!--[--><circle r="2.5699498033692545" cx="9.979084313659138" cy="10.880101696166022" stroke="black" fill="none" stroke-width="1" filter="url(#fuzzy)"></circle><circle r="1.8704007179534234" cx="12.643438318652592" cy="11.359305560308869" stroke="black" fill="none" stroke-width="1" filter="url(#fuzzy)"></circle><circle r="1.6042803394814453" cx="12.283732861841013" cy="13.087925710163098" stroke="black" fill="none" stroke-width="1" filter="url(#fuzzy)"></circle><circle r="2.8548321718329475" cx="11.127295414741406" cy="10.589174520886454" stroke="black" fill="none" stroke-width="1" filter="url(#fuzzy)"></circle><circle r="1.0946750797902849" cx="9.835515439748448" cy="11.892996335762575" stroke="black" fill="none" stroke-width="1" filter="url(#fuzzy)"></circle><circle r="1.6290726257106745" cx="9.877098308002475" cy="13.35829500004954" stroke="black" fill="none" stroke-width="1" filter="url(#fuzzy)"></circle><circle r="2.3159830770788634" cx="10.47103054975512" cy="11.462297749887137" stroke="black" fill="none" stroke-width="1" filter="url(#fuzzy)"></circle><circle r="1.793384910058803" cx="10.676482693297688" cy="11.343636109821142" stroke="black" fill="none" stroke-width="1" filter="url(#fuzzy)"></circle><circle r="2.523408000041608" cx="10.50969961091274" cy="10.266676875484645" stroke="black" fill="none" stroke-width="1" filter="url(#fuzzy)"></circle><circle r="2.9954835259825123" cx="13.156206760250338" cy="10.787433129857446" stroke="black" fill="none" stroke-width="1" filter="url(#fuzzy)"></circle><!--]--></g><g id="leftNose"><!--[--><circle r="2.3412289211160004" cx="-11.596161239401008" cy="13.673392044047514" stroke="black" fill="none" stroke-width="1" filter="url(#fuzzy)"></circle><circle r="2.7152647539916077" cx="-11.599626186121988" cy="13.68235029477516" stroke="black" fill="none" stroke-width="1" filter="url(#fuzzy)"></circle><circle r="1.5602194550277568" cx="-11.021572488224905" cy="16.364399288260195" stroke="black" fill="none" stroke-width="1" filter="url(#fuzzy)"></circle><circle r="2.3844128966893248" cx="-13.805272356039174" cy="15.225533427994886" stroke="black" fill="none" stroke-width="1" filter="url(#fuzzy)"></circle><circle r="2.2716564886676927" cx="-13.912347601065633" cy="15.50353818272913" stroke="black" fill="none" stroke-width="1" filter="url(#fuzzy)"></circle><circle r="1.5957161770218358" cx="-12.498573055589333" cy="13.895720034905956" stroke="black" fill="none" stroke-width="1" filter="url(#fuzzy)"></circle><circle r="2.8827060542305363" cx="-12.405629395984773" cy="13.69579030887085" stroke="black" fill="none" stroke-width="1" filter="url(#fuzzy)"></circle><circle r="1.0879697716493129" cx="-12.560063955398867" cy="12.755818157770207" stroke="black" fill="none" stroke-width="1" filter="url(#fuzzy)"></circle><circle r="2.06027692556924" cx="-13.966443296596202" cy="13.136137106324812" stroke="black" fill="none" stroke-width="1" filter="url(#fuzzy)"></circle><circle r="1.5951874167994458" cx="-12.363639448646023" cy="12.674127379133866" stroke="black" fill="none" stroke-width="1" filter="url(#fuzzy)"></circle><!--]--></g></g><g id="mouth"><polyline points="-23.367239014287282,56.19393269419312,-22.73817469433563,55.93727260853476,-22.107028173501572,55.66749776972118,-21.473963898278477,55.38520779688692,-20.839146315159706,55.09100230916658,-20.202739870638627,54.785480925694756,-19.564909011208606,54.46924326560602,-18.925818183363003,54.14288894803495,-18.2856318335952,53.80701759211613,-17.644514408398546,53.46222881698415,-17.00263035426641,53.10912224177359,-16.36014411769216,52.748297485619034,-15.717220145169167,52.38035416765505,-15.074022883190786,52.00589190701624,-14.430716778250389,51.62551032283718,-13.787466276841338,51.239809034252445,-13.144435825457009,50.84938766039662,-12.501789870590757,50.45484582040429,-11.859692858735952,50.05678313341005,-11.218309236385958,49.65579921854846,-10.577803450034143,49.252493694954104,-9.938339946173869,48.84746618176158,-9.300083171298507,48.44131629810547,-8.663197571901417,48.034643663120335,-8.027847594475967,47.62804789594078,-7.394197685515529,47.22212861570138,-6.76241229151346,46.81748544153671,-6.132655858963127,46.41471799258137,-5.5050928343578995,46.01442588796992,-4.879887664191138,45.617208746836965,-4.257204794956213,45.223666188317075,-3.63720867314649,44.83439783154483,-3.020063745255333,44.45000329565481,-2.4059344577761075,44.071082199781614,-1.7949852572021803,43.698234163059816,-1.1873805900269154,43.33205880462399,-0.5832849027436805,42.97315574360873,0.017137358154159663,42.6221245991486,0.6137217461732383,42.27956499037821,1.206303814820192,41.94607653643212,1.794719117601651,41.62225885644494,2.3788032080242525,41.30871156955121,2.9583916395946313,41.006034294885545,3.53331996581942,40.71482665158251,4.103423740205254,40.43568825877671,4.668538516258768,40.1692187356027,5.228499847486595,39.916017701195074,5.78314328739537,39.67668477468842,6.332304389491726,39.45181957521732,6.875818707282299,39.24202172191635,7.413521794273717,39.0478908339201,7.945249203972626,38.87002653036314,8.47083648988565,38.709028430380066,8.990119205519433,38.56549615310544,9.5029329043806,38.44002931767387,10.009113139975787,38.33322754321993,10.508495465811636,38.24569044887819,11.000915435394772,38.17801765378325,11.486208602231832,38.130808777069674,11.96421051982945,38.10466343787206,12.434756741694263,38.10018125532499,12.897682821332904,38.11796184856304,13.352824312252006,38.15860483672079,13.800016767958203,38.222709838932815,14.239095741958131,38.310876474333725,14.669896787758423,38.42370436205808,15.092255458865717,38.56179312124047,15.506007308786641,38.72574237101548,15.910987891027833,38.91615173051768,16.307032759095925,39.133620818881674,16.693977466497554,39.37874925524202,17.071657566739358,39.65213665873332,17.43990861332796,39.95438264849014,17.798566159770004,40.28608684364708,18.14746575957212,40.647848863338695,18.486442966240944,41.040268326699604,18.815333333283107,41.46394485286436,19.13397241420525,41.919478060967556,19.442195762514,42.40746757014378,19.739838931715997,42.928512999527605,20.026737475317866,43.48321396825362,20.302726946826258,44.07217009545641,20.567642899747785,44.69598100027054,20.821320887589106,45.35524630183062,21.063596463856836,46.050565619271204,21.29430518205762,46.78253857172689,21.513282595698083,47.55176477833226,21.720364258284867,48.358843858221896,21.915385723324604,49.204375430530376,22.098182544323926,50.08895911439229,22.268590274789474,51.01319452894221,22.426444468227874,51.97768129331473,22.571580678145764,52.98301902664442,22.70383445804978,54.02980734806587,22.823041361446553,55.118645876713664,22.92903694184272,56.250134231722384,23.021656752744914,57.4248720322266,23.10073634765977,58.643458897360915,23.166111280093915,59.9064944462599,23.217617103553994,61.21457829805813,23.255089371546635,62.56831007189011,23.217617103553994,61.21457829805804,23.166111280093908,59.90649444625981,23.10073634765976,58.64345889736084,23.0216567527449,57.42487203222653,22.929036941842707,56.25013423172231,22.823041361446545,55.11864587671359,22.703834458049766,54.0298073480658,22.571580678145754,52.98301902664436,22.426444468227867,51.97768129331467,22.26859027478946,51.01319452894216,22.098182544323915,50.08895911439224,21.915385723324594,49.20437543053033,21.720364258284857,48.35884385822185,21.51328259569807,47.55176477833222,21.294305182057602,46.78253857172686,21.063596463856822,46.05056561927117,20.821320887589092,45.35524630183058,20.567642899747778,44.695981000270514,20.30272694682624,44.07217009545638,20.026737475317855,43.483213968253594,19.73983893171598,42.928512999527584,19.44219576251398,42.40746757014376,19.133972414205232,41.919478060967535,18.815333333283093,41.463944852864344,18.486442966240933,41.040268326699575,18.147465759572107,40.64784886333868,17.79856615976999,40.28608684364705,17.439908613327948,39.95438264849012,17.071657566739344,39.65213665873329,16.69397746649754,39.378749255242006,16.30703275909591,39.13362081888166,15.910987891027819,38.91615173051767,15.506007308786621,38.725742371015464,15.092255458865697,38.56179312124046,14.669896787758407,38.423704362058075,14.239095741958115,38.31087647433371,13.800016767958185,38.22270983893281,13.352824312251988,38.15860483672077,12.897682821332884,38.11796184856302,12.43475674169424,38.10018125532498,11.96421051982943,38.10466343787205,11.486208602231809,38.130808777069674,11.000915435394747,38.17801765378324,10.508495465811611,38.245690448878186,10.009113139975769,38.33322754321993,9.502932904380577,38.44002931767387,8.990119205519411,38.56549615310544,8.47083648988563,38.709028430380066,7.945249203972601,38.87002653036314,7.413521794273695,39.04789083392011,6.875818707282273,39.24202172191636,6.332304389491699,39.45181957521733,5.783143287395341,39.67668477468843,5.228499847486567,39.916017701195095,4.668538516258741,40.16921873560271,4.103423740205225,40.43568825877673,3.5333199658193934,40.71482665158253,2.958391639594604,41.00603429488556,2.3788032080242245,41.30871156955123,1.7947191176016228,41.62225885644495,1.206303814820162,41.94607653643215,0.6137217461732092,42.27956499037824,0.01713735815412888,42.62212459914863,-0.5832849027437091,42.97315574360875,-1.1873805900269438,43.33205880462401,-1.7949852572022085,43.69823416305984,-2.4059344577761363,44.07108219978164,-3.0200637452553623,44.45000329565484,-3.6372086731465187,44.834397831544855,-4.257204794956243,45.2236661883171,-4.879887664191169,45.617208746836994,-5.505092834357929,46.01442588796995,-6.132655858963156,46.414717992581394,-6.762412291513489,46.81748544153674,-7.39419768551556,47.2221286157014,-8.027847594476002,47.6280478959408,-8.66319757190145,48.034643663120356,-9.30008317129854,48.44131629810549,-9.938339946173903,48.847466181761604,-10.577803450034176,49.252493694954126,-11.218309236385991,49.655799218548474,-11.859692858735986,50.056783133410065,-12.501789870590791,50.454845820404316,-13.144435825457045,50.84938766039664,-13.787466276841377,51.23980903425246,-14.430716778250423,51.6255103228372,-15.074022883190821,52.00589190701626,-15.717220145169199,52.38035416765507,-16.360144117692194,52.74829748561905,-17.002630354266447,53.10912224177361,-17.64451440839858,53.46222881698417,-18.285631833595236,53.80701759211615,-18.925818183363045,54.142888948034965,-19.564909011208645,54.46924326560603,-20.20273987063867,54.78548092569477,-20.83914631515975,55.0910023091666,-21.47396389827852,55.38520779688693,-22.107028173501615,55.66749776972119,-22.738174694335676,55.93727260853479" fill="rgb(215,127,140)" stroke="black" stroke-width="3" stroke-linejoin="round" filter="url(#fuzzy)"></polyline></g></svg>