<svg viewBox="-100 -100 200 200" xmlns="http://www.w3.org/2000/svg" width="400" height="400" id="face-svg"><defs><clipPath id="leftEyeClipPath"><polyline points="37.4688572786844,3.213183798699066,37.11380234330383,2.781256385168877,36.707402170477636,2.3556372301191457,36.25176892191973,1.9356194027960214,35.74899755093572,1.5205705206322713,35.20116502321289,1.1099304401465453,34.610329537610035,0.7032089478426453,33.978529746947466,0.2999834511087789,33.30778397879682,-0.10010333088316337,32.60008945627106,-0.4973456762783539,31.857421518814313,-0.8919771696397611,31.08173284299187,-1.2841730110488845,30.274952663279997,-1.6740523252064947,29.438985992855933,-2.0616804705333642,28.575712844387738,-2.4470713482710065,27.68698745082426,-2.8301897115824133,26.691753774414906,-3.1913563994477983,25.65945891708571,-3.5615809400593106,24.592803285334526,-3.94007016522726,23.494592578047296,-4.3258572746838695,22.367718097626913,-4.717825612232217,21.215137995848636,-5.114731241199378,20.03985943667834,-5.515224344333531,18.84492165828948,-5.917869473284743,17.633379916514958,-6.321164672809154,16.40829029197003,-6.723559504836295,15.172695343082164,-7.1234719975392995,13.929610587264095,-7.519304544547655,12.682011792466106,-7.909458779442341,11.432823061343566,-8.292349450672951,10.184905690275873,-8.66641732203664,8.941047785472875,-9.030141123858575,7.7039546184048024,-9.382048580013578,6.4762397027918865,-9.720726535928787,5.260416575389625,-10.044830212706975,4.0588912628058935,-10.353091612510305,2.873955416585911,-10.644327100344224,1.7077800988011624,-10.917444187381244,0.5624102003783804,-11.171447540964312,-0.5602405255953489,-11.40544424642954,-1.6583938333553192,-11.618648345887976,-2.7304107744935546,-11.810384679106175,-3.774794926308898,-11.980092051625288,-4.790195076236531,-12.127325755258386,-5.775407380121093,-12.251759466105808,-6.729377012097016,-12.353186545228137,-7.651199323840304,-12.431520767116691,-8.54012053095545,-12.486796501101095,-9.395537944261514,-12.519168370833828,-10.216999763741194,-12.528910416991307,-11.004204452916996,-12.516414788331392,-11.75699971141812,-12.482189986246892,-12.475381063502292,-12.42685868795495,-13.159490080296218,-12.351155173461894,-13.80961225351878,-12.255922381443412,-14.426174538450637,-12.142108619179657,-15.009742583914464,-12.0107639516851,-15.561017667029448,-11.863036295172833,-16.0808333505042,-11.700167239993037,-16.570151880231784,-11.523487628185359,-17.03006034095101,-11.334412910784906,-17.461766587737642,-11.134438310021611,-17.866594971089768,-10.925133811552707,-18.245981873370873,-10.70813901186797,-18.601471074374857,-10.485157846007542,-18.93470896377675,-10.257953220732036,-19.245821818019337,-10.02516722745184,-19.53417711647853,-9.784777474639508,-19.800368965521137,-9.53759077655751,-20.04500543004368,-9.284410800213918,-20.268706154376254,-9.026034698434474,-20.472099983186382,-8.76324974293467,-20.65582258238303,-8.496829957391846,-20.82051406002042,-8.22753275051725,-20.966816587201947,-7.956095549128156,-21.09537201898413,-7.683232431219917,-21.206819515280408,-7.409630759038059,-21.30179316176521,-7.135947812150368,-21.38091959077768,-6.862807420518969,-21.444815602225695,-6.5907965975724085,-20.914424671166273,-2.265866972185683,-20.613715172707067,-1.976337959911338,-20.302800718561066,-1.6859440379073969,-19.981405705501892,-1.3943719535818326,-19.649253118578663,-1.1012979771638949,-19.306065083375465,-0.80639111151826,-18.951563418270958,-0.5093163019591689,-18.585470186697854,-0.2097376460645728,-18.20750824940248,0.09267839650972332,-17.817401816704297,0.39825979421593116,-17.41487700075544,0.7073257338001162,-16.999662367800234,1.0201834104880683,-16.571489490434743,1.3371248181711584,-16.130093499866298,1.658423539592192,-15.675213638173036,1.9843315365312697,-15.20620828190311,2.3145031243540846,-14.722108654522787,2.6489733426680817,-14.222192078145005,2.9884581514591955,-13.705771813908369,3.3335534522620085,-13.172199629968164,3.684733426761747,-12.620868329301404,4.0423490968459275,-12.051214233202243,4.406627130072275,-11.46271961634436,4.777668914519516,-10.854915089286616,5.15544992698767,-10.227381924298632,5.53981941851443,-9.579754320382568,5.930500441174297,-8.911721603367722,6.3270902401269895,-8.223030356954242,6.72906103488184,-7.513486480582623,7.13576121374472,-6.782957170005259,7.546416965414142,-6.0313728164366065,7.960134371693142,-5.258728820158423,8.375901985283534,-4.465087314456488,8.792593916629187,-3.6505787957653855,9.208973453774911,-2.8154036558976276,9.62369723920756,-1.9598336122337443,10.035320027645996,-1.0842130317497567,10.442300048746477,-0.18896014475841483,10.843004998690134,0.7254318557591848,11.235718684619105,1.6583938333553192,11.618648345887976,2.6092798499740564,11.989932676097103,3.5773664345900524,12.347650569874466,4.561851982751202,12.689830618372616,5.561856291148633,13.014461377447429,6.5764202313377025,13.319502432485102,7.604505566733438,13.602896283844222,8.644994917003956,13.862581076879332,9.696691873985495,14.09650420051272,10.75832127324248,14.302636778321002,11.828529625396214,14.478989076103092,12.90588571134579,14.623626849896237,13.988881345504605,14.734688658406663,15.075932311176201,14.810404163821449,16.16537947219282,14.849113444968301,17.25549006494031,14.849287346789794,18.344459174892858,14.80954889009865,19.430411401781132,14.728695765580785,20.51140271751732,14.605723936012595,21.585422521000655,14.439852370659223,22.650395893926948,14.23054893582032,23.704186061725636,13.977557465489964,24.744597063747946,13.680926036097347,25.769376636829595,13.341036469294824,26.776219316351757,12.958635086759926,27.762769758923653,12.534864740978021,28.589833875105775,12.333592703063694,29.399287682519144,12.112551572930027,30.18943622650434,11.872350180237792,30.958524825511354,11.61370817472243,31.704738235209035,11.337459931135378,32.426199812594504,11.044558454185388,33.12097068010257,10.736079283479835,33.78704888971516,10.413224398466049,34.42236858707073,10.077326123372613,35.02479917557369,9.729851032150696,35.59214448050385,9.372403853415369,36.1221419131258,9.006731375386915,36.61246163479836,8.634726350832153,37.06070572108398,8.258431402005751,37.464407325858204,7.880042925591557"></polyline></clipPath><clipPath id="rightEyeClipPath"><polyline points="-34.241046703384235,3.411000371146984,-33.87824139192825,2.7364645562940346,-33.46520889088248,2.087414053707639,-33.003928231954184,1.4623984896433573,-32.496368856939256,0.860051071014527,-31.944489655420064,0.2790864310869159,-31.35023800246328,-0.281701524826627,-30.71554879631774,-0.8234417736715411,-30.042343496112316,-1.34718832895689,-29.332529159553715,-1.8539223950607326,-28.587997480624388,-2.3445545215354713,-27.810623827280324,-2.8199267574132025,-27.00226627914894,-3.2808148055110853,-26.16476466522692,-3.7279301767366833,-25.299939601578025,-4.161922344393324,-24.40959152903102,-4.5833808984854585,-23.421271944735253,-4.982224879018751,-22.394921003405457,-5.377920134974438,-21.33318411942968,-5.770402596796685,-20.238831959629604,-6.159461940136911,-19.114739628761548,-6.544759592853095,-17.96386680504446,-6.925845841741975,-16.789238808121652,-7.30217605802285,-15.59392858186316,-7.67312606059173,-14.381039574415635,-8.038006636064539,-13.153689497906562,-8.396077234628098,-11.91499495020966,-8.746558860717647,-10.668056881178366,-9.088646177539577,-9.415946885754199,-9.421518844458149,-8.161694306356905,-9.744352106264888,-6.908274126963191,-10.056326653349402,-5.658595641280954,-10.356637771790336,-4.415491877425804,-10.64450380238521,-3.1817097615067995,-10.919173927637807,-1.9599010025281647,-11.179935305721944,-0.7526136810139175,-11.426119570440221,0.4377154762377504,-11.657108716196582,1.608768152863556,-11.872340387001376,2.7583508487007027,-12.071312588527586,3.884400652202208,-12.253587842237064,4.984990397095066,-12.418796800595409,6.058333220874379,-12.566641342394252,7.102786542726653,-12.696897167199655,8.11685547847541,-12.80941590794534,9.099195710142189,-12.904126780689573,10.048615827716104,-12.981037790554229,10.964079160725246,-13.04023651286499,11.84470511720279,-13.081890468511215,12.68977004764128,-13.106247112544349,13.49870765152797,-13.113633455033476,14.271108944054534,-13.104455333196878,15.00672180059417,-13.079196353828127,15.705450096539431,-13.0384165250357,16.367352460093656,-12.982750596314585,16.992640655609407,-12.912906125968775,17.581677615066916,-12.82966129490331,18.13497513528565,-12.733862485804575,18.65319125846238,-12.626421646727636,19.13712735362855,-12.508313458109306,19.587724916620367,-12.380572322225646,20.006062106154694,-12.244289194112671,20.393350033603753,-12.100608272968959,20.750928824062008,-11.950723573058905,21.080263466298213,-11.795875393135312,21.38293946918578,-11.637346703400095,21.660658342204734,-11.476459469021783,21.913373808842735,-11.312225996975343,22.140222314409392,-11.14317258754983,22.341778856682858,-10.969917818387412,22.51863681143942,-10.793076370393305,22.67140557622851,-10.613256480585019,22.800708214147726,-10.4310573949416,22.90717909761795,-10.247066821252897,22.991461552158356,-10.061858381968781,23.054205500161473,-9.875989067048426,23.096065104668263,-9.689996686809529,23.117696413143136,-9.504397324777582,23.119755001249068,-9.319682790535108,23.102893616622545,-9.136318072570901,23.06775982264876,-8.954738791129298,22.42871006033976,-3.5460856821696503,22.026927058586452,-3.324444297220124,21.612379849564107,-3.0959296118968505,21.184811553830357,-2.86008154804729,20.743972491148043,-2.6164358422655143,20.289620979821144,-2.364528233765125,19.821524136030817,-2.1038986522521532,19.339458673171286,-1.8340954057979746,18.843211701185922,-1.5546793687122171,18.3325815259031,-1.265228169415658,17.807378448372262,-0.9653403783131485,17.267425564199847,-0.6546396956665146,16.712559562885296,-0.3327791394674606,16.142631527156972,0.0005547666895120429,15.557507732308204,0.34563780573420777,14.956315710010296,0.7016540751574825,14.337852574460035,1.0683877868122962,13.701553227377017,1.4468459141557424,13.04692381689622,1.8378496918630445,12.373543412613513,2.242033033249525,11.68106557317295,2.6598412872034505,10.969219800427217,3.0915303658991817,10.23781287420294,3.5371662745601125,9.48673006170249,3.996625074540809,8.715936195573919,4.4695933109978245,7.925476614680585,4.955568936418683,7.115477961602165,5.453862761278336,6.286148830898663,5.963600463092759,5.437780262168991,6.483725185138948,4.5707460719358135,7.013000756110858,3.68550301838825,7.55001556198076,2.7825907930140286,8.093187101335374,1.862631833152788,8.640767255456304,0.9263309495020806,9.190848304414203,-0.02552523739224455,9.74136972044614,-0.9920690576296991,10.290125769885574,-1.9723527554011824,10.834773954914418,-2.9653496613557966,11.37284432640664,-3.969955579856798,11.901749699132871,-4.984990397095066,12.418796800595409,-6.009199916028467,12.921198384763162,-7.041257924115497,13.40608634197589,-8.079768499811559,13.870525836287243,-9.12326856379626,14.311530501516081,-10.170230680900112,14.726078727275432,-11.219066118699002,15.111131066248621,-12.268128168744799,15.463648793982017,-13.315715736400488,15.780613652463757,-14.360077205248217,16.059048808758067,-15.399414582038577,16.296041059964427,-16.43188792814959,16.488764315771213,-17.455620083523634,16.63450438987315,-18.468701689050853,16.730685131522087,-19.469196513367287,16.77489592848049,-20.455147090036164,16.76492061264721,-21.424580671080726,16.698767799624804,-22.37551550283694,16.574702693498065,-23.305967430094462,16.39128038809301,-24.213956834494333,16.147380695985998,-25.097515913151597,15.842244536532142,-25.95469630347135,15.47551191418281,-26.78357706012666,15.047261518361346,-27.58227299016646,14.558051976166674,-28.348943352222115,14.008964789174158,-29.081800925780847,13.401648985603156,-29.73070597584131,13.110685877403235,-30.35352123818113,12.792002741328474,-30.94873934769479,12.446488288690972,-31.514820076904293,12.075188720565428,-32.05019033433576,11.679313253105299,-32.55324416289603,11.260239642859027,-33.02234273824928,10.819519712086226,-33.455814367193646,10.358884874073887,-33.85195448603783,9.880251658452558,-34.20902565897772,9.385727236512565,-34.52525757647297,8.877614946520183,-34.79884705362365,8.358419819033848,-35.02795802854686,7.830854102220365,-35.21072156075329,7.297842787171084,-35.345235829523915,6.762529133218112"></polyline></clipPath><filter id="fuzzy"><feTurbulence id="turbulence" baseFrequency="0.05" numOctaves="3" type="noise" result="noise"></feTurbulence><feDisplacementMap in="SourceGraphic" in2="noise" scale="2"></feDisplacementMap></filter><linearGradient id="rainbowGradient" x1="0%" y1="0%" x2="100%" y2="0%"><stop offset="0%" style="stop-color: rgb(44, 34, 43);  stop-opacity: 1"></stop><stop offset="50%" style="stop-color: rgb(0, 0, 0);  stop-opacity: 1"></stop><stop offset="100%" style="stop-color: rgb(128, 128, 128);  stop-opacity: 1"></stop></linearGradient></defs><title>That&#39;s an ugly face</title><desc>CREATED BY XUAN TANG, MORE INFO AT TXSTC55.GITHUB.IO</desc><rect x="-100" y="-100" width="100%" height="100%" opacity="1" fill="rgb(105, 105, 105)"></rect><polyline id="faceContour" points="77,0,77,1,77,2,77,5,77,3,76,8,76,9,76,11,76,12,76,14,75,13,75,15,74,17,75,18,74,20,73,22,74,21,73,24,72,27,72,26,71,29,71,30,70,31,71,30,69,33,68,36,68,36,68,36,68,36,67,39,66,41,66,41,65,44,65,43,63,46,63,46,62,47,61,49,61,50,60,51,59,53,59,54,59,53,58,55,57,57,56,57,55,58,53,60,53,61,53,61,51,63,51,63,50,64,50,65,47,67,47,67,46,68,45,69,44,69,42,71,42,71,41,72,40,73,41,72,39,74,38,75,36,76,35,77,35,77,35,77,32,78,32,78,29,80,29,80,28,80,27,81,25,81,25,82,24,82,24,82,22,83,20,83,19,83,20,83,18,84,17,84,16,84,13,85,14,85,12,85,11,85,10,85,11,85,7,86,8,85,7,85,5,86,3,86,2,86,1,86,-1,86,-2,85,-1,86,-3,86,-4,86,-7,85,-8,85,-7,85,-9,84,-10,84,-11,84,-11,84,-14,83,-15,83,-14,83,-15,82,-18,82,-19,81,-20,81,-21,81,-22,80,-25,79,-23,80,-25,79,-27,79,-27,78,-28,78,-30,76,-31,76,-31,76,-33,75,-34,74,-34,74,-36,73,-38,71,-38,71,-39,71,-41,69,-41,69,-41,69,-42,68,-44,66,-45,65,-44,66,-46,64,-48,63,-48,62,-49,62,-50,60,-50,60,-52,58,-51,59,-53,57,-55,54,-55,55,-55,54,-56,53,-57,53,-58,51,-59,50,-59,50,-60,47,-62,45,-61,47,-63,44,-63,43,-64,41,-63,42,-65,40,-66,37,-66,38,-67,36,-68,35,-68,33,-68,33,-69,32,-69,30,-70,30,-71,27,-71,26,-72,24,-72,25,-72,23,-73,22,-73,21,-74,19,-73,19,-74,17,-74,17,-75,13,-75,12,-76,11,-76,9,-76,9,-77,6,-76,6,-77,6,-77,5,-77,3,-77,2,-77,0,-77,-3,-77,-2,-78,-5,-78,-7,-78,-8,-78,-9,-78,-10,-78,-9,-78,-11,-78,-15,-77,-14,-77,-16,-77,-17,-77,-19,-77,-19,-77,-21,-77,-21,-76,-25,-76,-22,-76,-25,-76,-27,-76,-28,-75,-29,-74,-32,-74,-32,-74,-34,-74,-33,-72,-37,-73,-37,-72,-38,-71,-41,-72,-39,-71,-42,-70,-42,-70,-43,-70,-43,-68,-47,-68,-47,-68,-46,-67,-49,-67,-49,-66,-50,-65,-52,-64,-52,-63,-53,-62,-55,-62,-56,-61,-57,-59,-59,-59,-59,-58,-60,-58,-60,-57,-61,-56,-63,-55,-64,-54,-64,-53,-65,-50,-67,-52,-66,-50,-68,-49,-69,-47,-69,-47,-70,-47,-70,-45,-71,-44,-72,-44,-72,-41,-74,-41,-73,-39,-75,-39,-74,-36,-77,-35,-77,-36,-77,-32,-78,-34,-78,-31,-78,-29,-79,-27,-80,-25,-81,-25,-81,-23,-81,-23,-82,-22,-82,-18,-83,-20,-82,-20,-82,-18,-83,-14,-84,-12,-84,-13,-84,-10,-84,-10,-85,-10,-85,-7,-85,-3,-85,-4,-85,-2,-86,-1,-86,0,-85,2,-85,2,-86,4,-86,6,-86,6,-86,8,-85,10,-86,11,-85,13,-85,14,-85,15,-85,18,-85,19,-84,18,-84,21,-84,23,-84,24,-83,24,-83,27,-83,25,-83,28,-82,29,-82,31,-81,32,-81,34,-80,34,-80,37,-79,38,-78,39,-78,38,-78,39,-77,40,-78,42,-76,44,-75,45,-75,45,-74,47,-73,47,-73,49,-72,49,-72,51,-70,52,-69,54,-68,52,-69,55,-67,55,-67,57,-65,58,-64,59,-63,59,-63,61,-61,60,-61,61,-61,62,-59,64,-57,64,-56,64,-55,65,-55,65,-55,67,-52,67,-52,68,-50,68,-50,70,-48,70,-46,70,-45,71,-43,71,-43,72,-42,73,-40,72,-40,73,-39,74,-36,74,-37,74,-36,75,-34,75,-31,76,-29,76,-28,76,-27,76,-27,76,-25,77,-22,77,-21,77,-22,77,-20,77,-18,78,-16,78,-14,78,-12,78,-12,78,-11,78,-12,78,-8,78,-6,78,-4,78,-4,77,-4,77,0,77,0,77,1" fill="#ffc9a9" stroke="black" stroke-width="1.6666666666666665" stroke-linejoin="round" filter="url(#fuzzy)"></polyline><g transform="translate(31.649029305730295 -24.66075049740968)"><polyline id="rightCountour" points="-34.241046703384235,3.411000371146984,-33.87824139192825,2.7364645562940346,-33.46520889088248,2.087414053707639,-33.003928231954184,1.4623984896433573,-32.496368856939256,0.860051071014527,-31.944489655420064,0.2790864310869159,-31.35023800246328,-0.281701524826627,-30.71554879631774,-0.8234417736715411,-30.042343496112316,-1.34718832895689,-29.332529159553715,-1.8539223950607326,-28.587997480624388,-2.3445545215354713,-27.810623827280324,-2.8199267574132025,-27.00226627914894,-3.2808148055110853,-26.16476466522692,-3.7279301767366833,-25.299939601578025,-4.161922344393324,-24.40959152903102,-4.5833808984854585,-23.421271944735253,-4.982224879018751,-22.394921003405457,-5.377920134974438,-21.33318411942968,-5.770402596796685,-20.238831959629604,-6.159461940136911,-19.114739628761548,-6.544759592853095,-17.96386680504446,-6.925845841741975,-16.789238808121652,-7.30217605802285,-15.59392858186316,-7.67312606059173,-14.381039574415635,-8.038006636064539,-13.153689497906562,-8.396077234628098,-11.91499495020966,-8.746558860717647,-10.668056881178366,-9.088646177539577,-9.415946885754199,-9.421518844458149,-8.161694306356905,-9.744352106264888,-6.908274126963191,-10.056326653349402,-5.658595641280954,-10.356637771790336,-4.415491877425804,-10.64450380238521,-3.1817097615067995,-10.919173927637807,-1.9599010025281647,-11.179935305721944,-0.7526136810139175,-11.426119570440221,0.4377154762377504,-11.657108716196582,1.608768152863556,-11.872340387001376,2.7583508487007027,-12.071312588527586,3.884400652202208,-12.253587842237064,4.984990397095066,-12.418796800595409,6.058333220874379,-12.566641342394252,7.102786542726653,-12.696897167199655,8.11685547847541,-12.80941590794534,9.099195710142189,-12.904126780689573,10.048615827716104,-12.981037790554229,10.964079160725246,-13.04023651286499,11.84470511720279,-13.081890468511215,12.68977004764128,-13.106247112544349,13.49870765152797,-13.113633455033476,14.271108944054534,-13.104455333196878,15.00672180059417,-13.079196353828127,15.705450096539431,-13.0384165250357,16.367352460093656,-12.982750596314585,16.992640655609407,-12.912906125968775,17.581677615066916,-12.82966129490331,18.13497513528565,-12.733862485804575,18.65319125846238,-12.626421646727636,19.13712735362855,-12.508313458109306,19.587724916620367,-12.380572322225646,20.006062106154694,-12.244289194112671,20.393350033603753,-12.100608272968959,20.750928824062008,-11.950723573058905,21.080263466298213,-11.795875393135312,21.38293946918578,-11.637346703400095,21.660658342204734,-11.476459469021783,21.913373808842735,-11.312225996975343,22.140222314409392,-11.14317258754983,22.341778856682858,-10.969917818387412,22.51863681143942,-10.793076370393305,22.67140557622851,-10.613256480585019,22.800708214147726,-10.4310573949416,22.90717909761795,-10.247066821252897,22.991461552158356,-10.061858381968781,23.054205500161473,-9.875989067048426,23.096065104668263,-9.689996686809529,23.117696413143136,-9.504397324777582,23.119755001249068,-9.319682790535108,23.102893616622545,-9.136318072570901,23.06775982264876,-8.954738791129298,22.42871006033976,-3.5460856821696503,22.026927058586452,-3.324444297220124,21.612379849564107,-3.0959296118968505,21.184811553830357,-2.86008154804729,20.743972491148043,-2.6164358422655143,20.289620979821144,-2.364528233765125,19.821524136030817,-2.1038986522521532,19.339458673171286,-1.8340954057979746,18.843211701185922,-1.5546793687122171,18.3325815259031,-1.265228169415658,17.807378448372262,-0.9653403783131485,17.267425564199847,-0.6546396956665146,16.712559562885296,-0.3327791394674606,16.142631527156972,0.0005547666895120429,15.557507732308204,0.34563780573420777,14.956315710010296,0.7016540751574825,14.337852574460035,1.0683877868122962,13.701553227377017,1.4468459141557424,13.04692381689622,1.8378496918630445,12.373543412613513,2.242033033249525,11.68106557317295,2.6598412872034505,10.969219800427217,3.0915303658991817,10.23781287420294,3.5371662745601125,9.48673006170249,3.996625074540809,8.715936195573919,4.4695933109978245,7.925476614680585,4.955568936418683,7.115477961602165,5.453862761278336,6.286148830898663,5.963600463092759,5.437780262168991,6.483725185138948,4.5707460719358135,7.013000756110858,3.68550301838825,7.55001556198076,2.7825907930140286,8.093187101335374,1.862631833152788,8.640767255456304,0.9263309495020806,9.190848304414203,-0.02552523739224455,9.74136972044614,-0.9920690576296991,10.290125769885574,-1.9723527554011824,10.834773954914418,-2.9653496613557966,11.37284432640664,-3.969955579856798,11.901749699132871,-4.984990397095066,12.418796800595409,-6.009199916028467,12.921198384763162,-7.041257924115497,13.40608634197589,-8.079768499811559,13.870525836287243,-9.12326856379626,14.311530501516081,-10.170230680900112,14.726078727275432,-11.219066118699002,15.111131066248621,-12.268128168744799,15.463648793982017,-13.315715736400488,15.780613652463757,-14.360077205248217,16.059048808758067,-15.399414582038577,16.296041059964427,-16.43188792814959,16.488764315771213,-17.455620083523634,16.63450438987315,-18.468701689050853,16.730685131522087,-19.469196513367287,16.77489592848049,-20.455147090036164,16.76492061264721,-21.424580671080726,16.698767799624804,-22.37551550283694,16.574702693498065,-23.305967430094462,16.39128038809301,-24.213956834494333,16.147380695985998,-25.097515913151597,15.842244536532142,-25.95469630347135,15.47551191418281,-26.78357706012666,15.047261518361346,-27.58227299016646,14.558051976166674,-28.348943352222115,14.008964789174158,-29.081800925780847,13.401648985603156,-29.73070597584131,13.110685877403235,-30.35352123818113,12.792002741328474,-30.94873934769479,12.446488288690972,-31.514820076904293,12.075188720565428,-32.05019033433576,11.679313253105299,-32.55324416289603,11.260239642859027,-33.02234273824928,10.819519712086226,-33.455814367193646,10.358884874073887,-33.85195448603783,9.880251658452558,-34.20902565897772,9.385727236512565,-34.52525757647297,8.877614946520183,-34.79884705362365,8.358419819033848,-35.02795802854686,7.830854102220365,-35.21072156075329,7.297842787171084,-35.345235829523915,6.762529133218112" fill="white" stroke="white" stroke-width="0" stroke-linejoin="round" filter="url(#fuzzy)"></polyline></g><g transform="translate(-43.509874420174114 -21.126951337363785)"><polyline id="leftCountour" points="37.4688572786844,3.213183798699066,37.11380234330383,2.781256385168877,36.707402170477636,2.3556372301191457,36.25176892191973,1.9356194027960214,35.74899755093572,1.5205705206322713,35.20116502321289,1.1099304401465453,34.610329537610035,0.7032089478426453,33.978529746947466,0.2999834511087789,33.30778397879682,-0.10010333088316337,32.60008945627106,-0.4973456762783539,31.857421518814313,-0.8919771696397611,31.08173284299187,-1.2841730110488845,30.274952663279997,-1.6740523252064947,29.438985992855933,-2.0616804705333642,28.575712844387738,-2.4470713482710065,27.68698745082426,-2.8301897115824133,26.691753774414906,-3.1913563994477983,25.65945891708571,-3.5615809400593106,24.592803285334526,-3.94007016522726,23.494592578047296,-4.3258572746838695,22.367718097626913,-4.717825612232217,21.215137995848636,-5.114731241199378,20.03985943667834,-5.515224344333531,18.84492165828948,-5.917869473284743,17.633379916514958,-6.321164672809154,16.40829029197003,-6.723559504836295,15.172695343082164,-7.1234719975392995,13.929610587264095,-7.519304544547655,12.682011792466106,-7.909458779442341,11.432823061343566,-8.292349450672951,10.184905690275873,-8.66641732203664,8.941047785472875,-9.030141123858575,7.7039546184048024,-9.382048580013578,6.4762397027918865,-9.720726535928787,5.260416575389625,-10.044830212706975,4.0588912628058935,-10.353091612510305,2.873955416585911,-10.644327100344224,1.7077800988011624,-10.917444187381244,0.5624102003783804,-11.171447540964312,-0.5602405255953489,-11.40544424642954,-1.6583938333553192,-11.618648345887976,-2.7304107744935546,-11.810384679106175,-3.774794926308898,-11.980092051625288,-4.790195076236531,-12.127325755258386,-5.775407380121093,-12.251759466105808,-6.729377012097016,-12.353186545228137,-7.651199323840304,-12.431520767116691,-8.54012053095545,-12.486796501101095,-9.395537944261514,-12.519168370833828,-10.216999763741194,-12.528910416991307,-11.004204452916996,-12.516414788331392,-11.75699971141812,-12.482189986246892,-12.475381063502292,-12.42685868795495,-13.159490080296218,-12.351155173461894,-13.80961225351878,-12.255922381443412,-14.426174538450637,-12.142108619179657,-15.009742583914464,-12.0107639516851,-15.561017667029448,-11.863036295172833,-16.0808333505042,-11.700167239993037,-16.570151880231784,-11.523487628185359,-17.03006034095101,-11.334412910784906,-17.461766587737642,-11.134438310021611,-17.866594971089768,-10.925133811552707,-18.245981873370873,-10.70813901186797,-18.601471074374857,-10.485157846007542,-18.93470896377675,-10.257953220732036,-19.245821818019337,-10.02516722745184,-19.53417711647853,-9.784777474639508,-19.800368965521137,-9.53759077655751,-20.04500543004368,-9.284410800213918,-20.268706154376254,-9.026034698434474,-20.472099983186382,-8.76324974293467,-20.65582258238303,-8.496829957391846,-20.82051406002042,-8.22753275051725,-20.966816587201947,-7.956095549128156,-21.09537201898413,-7.683232431219917,-21.206819515280408,-7.409630759038059,-21.30179316176521,-7.135947812150368,-21.38091959077768,-6.862807420518969,-21.444815602225695,-6.5907965975724085,-20.914424671166273,-2.265866972185683,-20.613715172707067,-1.976337959911338,-20.302800718561066,-1.6859440379073969,-19.981405705501892,-1.3943719535818326,-19.649253118578663,-1.1012979771638949,-19.306065083375465,-0.80639111151826,-18.951563418270958,-0.5093163019591689,-18.585470186697854,-0.2097376460645728,-18.20750824940248,0.09267839650972332,-17.817401816704297,0.39825979421593116,-17.41487700075544,0.7073257338001162,-16.999662367800234,1.0201834104880683,-16.571489490434743,1.3371248181711584,-16.130093499866298,1.658423539592192,-15.675213638173036,1.9843315365312697,-15.20620828190311,2.3145031243540846,-14.722108654522787,2.6489733426680817,-14.222192078145005,2.9884581514591955,-13.705771813908369,3.3335534522620085,-13.172199629968164,3.684733426761747,-12.620868329301404,4.0423490968459275,-12.051214233202243,4.406627130072275,-11.46271961634436,4.777668914519516,-10.854915089286616,5.15544992698767,-10.227381924298632,5.53981941851443,-9.579754320382568,5.930500441174297,-8.911721603367722,6.3270902401269895,-8.223030356954242,6.72906103488184,-7.513486480582623,7.13576121374472,-6.782957170005259,7.546416965414142,-6.0313728164366065,7.960134371693142,-5.258728820158423,8.375901985283534,-4.465087314456488,8.792593916629187,-3.6505787957653855,9.208973453774911,-2.8154036558976276,9.62369723920756,-1.9598336122337443,10.035320027645996,-1.0842130317497567,10.442300048746477,-0.18896014475841483,10.843004998690134,0.7254318557591848,11.235718684619105,1.6583938333553192,11.618648345887976,2.6092798499740564,11.989932676097103,3.5773664345900524,12.347650569874466,4.561851982751202,12.689830618372616,5.561856291148633,13.014461377447429,6.5764202313377025,13.319502432485102,7.604505566733438,13.602896283844222,8.644994917003956,13.862581076879332,9.696691873985495,14.09650420051272,10.75832127324248,14.302636778321002,11.828529625396214,14.478989076103092,12.90588571134579,14.623626849896237,13.988881345504605,14.734688658406663,15.075932311176201,14.810404163821449,16.16537947219282,14.849113444968301,17.25549006494031,14.849287346789794,18.344459174892858,14.80954889009865,19.430411401781132,14.728695765580785,20.51140271751732,14.605723936012595,21.585422521000655,14.439852370659223,22.650395893926948,14.23054893582032,23.704186061725636,13.977557465489964,24.744597063747946,13.680926036097347,25.769376636829595,13.341036469294824,26.776219316351757,12.958635086759926,27.762769758923653,12.534864740978021,28.589833875105775,12.333592703063694,29.399287682519144,12.112551572930027,30.18943622650434,11.872350180237792,30.958524825511354,11.61370817472243,31.704738235209035,11.337459931135378,32.426199812594504,11.044558454185388,33.12097068010257,10.736079283479835,33.78704888971516,10.413224398466049,34.42236858707073,10.077326123372613,35.02479917557369,9.729851032150696,35.59214448050385,9.372403853415369,36.1221419131258,9.006731375386915,36.61246163479836,8.634726350832153,37.06070572108398,8.258431402005751,37.464407325858204,7.880042925591557" fill="white" stroke="white" stroke-width="0" stroke-linejoin="round" filter="url(#fuzzy)"></polyline></g><g transform="translate(31.649029305730295 -24.66075049740968)"><polyline id="rightUpper" points="-34.66628715717542,11.941206007752932,-34.91602221998294,10.91211844124815,-35.09542403747527,9.928090807810708,-35.20651461385516,8.986718440323777,-35.25131598643553,8.085701795381862,-35.23184926333723,7.222844298985456,-35.150133661187006,6.396050192235669,-35.008185542815205,5.6033223770288805,-34.80801745495375,4.842760261751395,-34.551637165933926,4.1125576069740735,-34.241046703384235,3.411000371146984,-33.87824139192825,2.7364645562940346,-33.46520889088248,2.087414053707639,-33.003928231954184,1.4623984896433573,-32.496368856939256,0.860051071014527,-31.944489655420064,0.2790864310869159,-31.35023800246328,-0.281701524826627,-30.71554879631774,-0.8234417736715411,-30.042343496112316,-1.34718832895689,-29.332529159553715,-1.8539223950607326,-28.587997480624388,-2.3445545215354713,-27.810623827280324,-2.8199267574132025,-27.00226627914894,-3.2808148055110853,-26.16476466522692,-3.7279301767366833,-25.299939601578025,-4.161922344393324,-24.40959152903102,-4.5833808984854585,-23.421271944735253,-4.982224879018751,-22.394921003405457,-5.377920134974438,-21.33318411942968,-5.770402596796685,-20.238831959629604,-6.159461940136911,-19.114739628761548,-6.544759592853095,-17.96386680504446,-6.925845841741975,-16.789238808121652,-7.30217605802285,-15.59392858186316,-7.67312606059173,-14.381039574415635,-8.038006636064539,-13.153689497906562,-8.396077234628098,-11.91499495020966,-8.746558860717647,-10.668056881178366,-9.088646177539577,-9.415946885754199,-9.421518844458149,-8.161694306356905,-9.744352106264888,-6.908274126963191,-10.056326653349402,-5.658595641280954,-10.356637771790336,-4.415491877425804,-10.64450380238521,-3.1817097615067995,-10.919173927637807,-1.9599010025281647,-11.179935305721944,-0.7526136810139175,-11.426119570440221,0.4377154762377504,-11.657108716196582,1.608768152863556,-11.872340387001376,2.7583508487007027,-12.071312588527586,3.884400652202208,-12.253587842237064,4.984990397095066,-12.418796800595409,6.058333220874379,-12.566641342394252,7.102786542726653,-12.696897167199655,8.11685547847541,-12.80941590794534,9.099195710142189,-12.904126780689573,10.048615827716104,-12.981037790554229,10.964079160725246,-13.04023651286499,11.84470511720279,-13.081890468511215,12.68977004764128,-13.106247112544349,13.49870765152797,-13.113633455033476,14.271108944054534,-13.104455333196878,15.00672180059417,-13.079196353828127,15.705450096539431,-13.0384165250357,16.367352460093656,-12.982750596314585,16.992640655609407,-12.912906125968775,17.581677615066916,-12.82966129490331,18.13497513528565,-12.733862485804575,18.65319125846238,-12.626421646727636,19.13712735362855,-12.508313458109306,19.587724916620367,-12.380572322225646,20.006062106154694,-12.244289194112671,20.393350033603753,-12.100608272968959,20.750928824062008,-11.950723573058905,21.080263466298213,-11.795875393135312,21.38293946918578,-11.637346703400095,21.660658342204734,-11.476459469021783,21.913373808842735,-11.312225996975343,22.140222314409392,-11.14317258754983,22.341778856682858,-10.969917818387412,22.51863681143942,-10.793076370393305,22.67140557622851,-10.613256480585019,22.800708214147726,-10.4310573949416,22.90717909761795,-10.247066821252897,22.991461552158356,-10.061858381968781,23.054205500161473,-9.875989067048426,23.096065104668263,-9.689996686809529,23.117696413143136,-9.504397324777582,23.119755001249068,-9.319682790535108,23.102893616622545,-9.136318072570901,23.06775982264876,-8.954738791129298,23.014993642236533,-8.775348651059405,22.94522520159348,-8.598516894664357,22.85907237400096,-8.424575754550567,22.757138423589232,-8.253817906476968,22.64000964911242,-8.086493922204266,22.508253027723654,-7.922809722344184,22.362413858750024,-7.762924029208717,22.20301340746773,-7.606945819659377,22.03054654887707,-7.454931777956442,21.845479411477534,-7.3068837486082" fill="none" stroke="black" stroke-width="1.6666666666666665" stroke-linejoin="round" filter="url(#fuzzy)"></polyline><polyline id="rightLower" points="-33.5947558557705,2.141404482212809,-34.05456917217466,2.474892647890477,-34.445306248170546,2.850731390790262,-34.7691977960611,3.263290876781687,-35.02844163168563,3.7072147931369983,-35.2252026760432,4.177414823214978,-35.361612956916055,4.669065121144727,-35.439771610492905,5.177596786509491,-35.461744882992406,5.698692339030441,-35.429566132286524,6.228280193250497,-35.345235829523915,6.762529133218112,-35.21072156075329,7.297842787171084,-35.02795802854686,7.830854102220365,-34.79884705362365,8.358419819033848,-34.52525757647297,8.877614946520183,-34.20902565897772,9.385727236512565,-33.85195448603783,9.880251658452558,-33.455814367193646,10.358884874073887,-33.02234273824928,10.819519712086226,-32.55324416289603,11.260239642859027,-32.05019033433576,11.679313253105299,-31.514820076904293,12.075188720565428,-30.94873934769479,12.446488288690972,-30.35352123818113,12.792002741328474,-29.73070597584131,13.110685877403235,-29.081800925780847,13.401648985603156,-28.348943352222115,14.008964789174158,-27.58227299016646,14.558051976166674,-26.78357706012666,15.047261518361346,-25.95469630347135,15.47551191418281,-25.097515913151597,15.842244536532142,-24.213956834494333,16.147380695985998,-23.305967430094462,16.39128038809301,-22.37551550283694,16.574702693498065,-21.424580671080726,16.698767799624804,-20.455147090036164,16.76492061264721,-19.469196513367287,16.77489592848049,-18.468701689050853,16.730685131522087,-17.455620083523634,16.63450438987315,-16.43188792814959,16.488764315771213,-15.399414582038577,16.296041059964427,-14.360077205248217,16.059048808758067,-13.315715736400488,15.780613652463757,-12.268128168744799,15.463648793982017,-11.219066118699002,15.111131066248621,-10.170230680900112,14.726078727275432,-9.12326856379626,14.311530501516081,-8.079768499811559,13.870525836287243,-7.041257924115497,13.40608634197589,-6.009199916028467,12.921198384763162,-4.984990397095066,12.418796800595409,-3.969955579856798,11.901749699132871,-2.9653496613557966,11.37284432640664,-1.9723527554011824,10.834773954914418,-0.9920690576296991,10.290125769885574,-0.02552523739224455,9.74136972044614,0.9263309495020806,9.190848304414203,1.862631833152788,8.640767255456304,2.7825907930140286,8.093187101335374,3.68550301838825,7.55001556198076,4.5707460719358135,7.013000756110858,5.437780262168991,6.483725185138948,6.286148830898663,5.963600463092759,7.115477961602165,5.453862761278336,7.925476614680585,4.955568936418683,8.715936195573919,4.4695933109978245,9.48673006170249,3.996625074540809,10.23781287420294,3.5371662745601125,10.969219800427217,3.0915303658991817,11.68106557317295,2.6598412872034505,12.373543412613513,2.242033033249525,13.04692381689622,1.8378496918630445,13.701553227377017,1.4468459141557424,14.337852574460035,1.0683877868122962,14.956315710010296,0.7016540751574825,15.557507732308204,0.34563780573420777,16.142631527156972,0.0005547666895120429,16.712559562885296,-0.3327791394674606,17.267425564199847,-0.6546396956665146,17.807378448372262,-0.9653403783131485,18.3325815259031,-1.265228169415658,18.843211701185922,-1.5546793687122171,19.339458673171286,-1.8340954057979746,19.821524136030817,-2.1038986522521532,20.289620979821144,-2.364528233765125,20.743972491148043,-2.6164358422655143,21.184811553830357,-2.86008154804729,21.612379849564107,-3.0959296118968505,22.026927058586452,-3.324444297220124,22.42871006033976,-3.5460856821696503,22.81799213413563,-3.7613054717716836,23.19504215981887,-3.9705428100532743,23.560133818431588,-4.174220092169367,23.913544792877182,-4.37273877652989,24.255555968584396,-4.566475196926845,24.586450634171285,-4.755776374661409,24.906513682109313,-4.940955830671008,25.216030809387327,-5.122289397656427,25.51528771817562,-5.300011032208889,25.80456931648994,-5.4743086269371535" fill="none" stroke="black" stroke-width="2.2222222222222223" stroke-linejoin="round" filter="url(#fuzzy)"></polyline><!--[--><circle r="3.0167882395318997" cx="-23.1672206187377" cy="8.689776840481207" stroke="black" fill="none" stroke-width="1" filter="url(#fuzzy)" clip-path="url(#rightEyeClipPath)"></circle><circle r="3.0064572565435417" cx="-20.301619440040426" cy="12.605051673194339" stroke="black" fill="none" stroke-width="1" filter="url(#fuzzy)" clip-path="url(#rightEyeClipPath)"></circle><circle r="3.2482646764019734" cx="-24.045348509948937" cy="10.090349949769656" stroke="black" fill="none" stroke-width="1" filter="url(#fuzzy)" clip-path="url(#rightEyeClipPath)"></circle><circle r="3.651739902840175" cx="-20.56749712640646" cy="9.99342730637334" stroke="black" fill="none" stroke-width="1" filter="url(#fuzzy)" clip-path="url(#rightEyeClipPath)"></circle><circle r="3.214372925025144" cx="-21.777618371394944" cy="11.445086262770095" stroke="black" fill="none" stroke-width="1" filter="url(#fuzzy)" clip-path="url(#rightEyeClipPath)"></circle><circle r="4.704896671905697" cx="-22.64312707390968" cy="10.573174703556079" stroke="black" fill="none" stroke-width="1" filter="url(#fuzzy)" clip-path="url(#rightEyeClipPath)"></circle><circle r="4.920408124517154" cx="-23.762288446429675" cy="10.685658240099022" stroke="black" fill="none" stroke-width="1" filter="url(#fuzzy)" clip-path="url(#rightEyeClipPath)"></circle><circle r="4.0139892840406635" cx="-23.284276505070565" cy="8.397695780861078" stroke="black" fill="none" stroke-width="1" filter="url(#fuzzy)" clip-path="url(#rightEyeClipPath)"></circle><circle r="3.0545155390013186" cx="-24.374034471780664" cy="11.964449536806692" stroke="black" fill="none" stroke-width="1" filter="url(#fuzzy)" clip-path="url(#rightEyeClipPath)"></circle><circle r="3.1460695875545155" cx="-24.28494150121852" cy="9.759520447124444" stroke="black" fill="none" stroke-width="1" filter="url(#fuzzy)" clip-path="url(#rightEyeClipPath)"></circle><!--]--></g><g transform="translate(-43.509874420174114 -21.126951337363785)"><polyline id="leftUpper" points="37.71999896260609,8.092861689381213,37.99779401055282,7.5409188915017,38.202347167679385,7.0069618120672414,38.335899823227564,6.489411037917296,38.40068395013172,5.986784795085302,38.39892132580877,5.4976966396979465,38.33282275294806,5.020853148874418,38.204587280301254,4.555051611625686,38.016401423472296,4.099177719753753,37.77043838570728,3.652203258750922,37.4688572786844,3.213183798699066,37.11380234330383,2.781256385168877,36.707402170477636,2.3556372301191457,36.25176892191973,1.9356194027960214,35.74899755093572,1.5205705206322713,35.20116502321289,1.1099304401465453,34.610329537610035,0.7032089478426453,33.978529746947466,0.2999834511087789,33.30778397879682,-0.10010333088316337,32.60008945627106,-0.4973456762783539,31.857421518814313,-0.8919771696397611,31.08173284299187,-1.2841730110488845,30.274952663279997,-1.6740523252064947,29.438985992855933,-2.0616804705333642,28.575712844387738,-2.4470713482710065,27.68698745082426,-2.8301897115824133,26.691753774414906,-3.1913563994477983,25.65945891708571,-3.5615809400593106,24.592803285334526,-3.94007016522726,23.494592578047296,-4.3258572746838695,22.367718097626913,-4.717825612232217,21.215137995848636,-5.114731241199378,20.03985943667834,-5.515224344333531,18.84492165828948,-5.917869473284743,17.633379916514958,-6.321164672809154,16.40829029197003,-6.723559504836295,15.172695343082164,-7.1234719975392995,13.929610587264095,-7.519304544547655,12.682011792466106,-7.909458779442341,11.432823061343566,-8.292349450672951,10.184905690275873,-8.66641732203664,8.941047785472875,-9.030141123858575,7.7039546184048024,-9.382048580013578,6.4762397027918865,-9.720726535928787,5.260416575389625,-10.044830212706975,4.0588912628058935,-10.353091612510305,2.873955416585911,-10.644327100344224,1.7077800988011624,-10.917444187381244,0.5624102003783804,-11.171447540964312,-0.5602405255953489,-11.40544424642954,-1.6583938333553192,-11.618648345887976,-2.7304107744935546,-11.810384679106175,-3.774794926308898,-11.980092051625288,-4.790195076236531,-12.127325755258386,-5.775407380121093,-12.251759466105808,-6.729377012097016,-12.353186545228137,-7.651199323840304,-12.431520767116691,-8.54012053095545,-12.486796501101095,-9.395537944261514,-12.519168370833828,-10.216999763741194,-12.528910416991307,-11.004204452916996,-12.516414788331392,-11.75699971141812,-12.482189986246892,-12.475381063502292,-12.42685868795495,-13.159490080296218,-12.351155173461894,-13.80961225351878,-12.255922381443412,-14.426174538450637,-12.142108619179657,-15.009742583914464,-12.0107639516851,-15.561017667029448,-11.863036295172833,-16.0808333505042,-11.700167239993037,-16.570151880231784,-11.523487628185359,-17.03006034095101,-11.334412910784906,-17.461766587737642,-11.134438310021611,-17.866594971089768,-10.925133811552707,-18.245981873370873,-10.70813901186797,-18.601471074374857,-10.485157846007542,-18.93470896377675,-10.257953220732036,-19.245821818019337,-10.02516722745184,-19.53417711647853,-9.784777474639508,-19.800368965521137,-9.53759077655751,-20.04500543004368,-9.284410800213918,-20.268706154376254,-9.026034698434474,-20.472099983186382,-8.76324974293467,-20.65582258238303,-8.496829957391846,-20.82051406002042,-8.22753275051725,-20.966816587201947,-7.956095549128156,-21.09537201898413,-7.683232431219917,-21.206819515280408,-7.409630759038059,-21.30179316176521,-7.135947812150368,-21.38091959077768,-6.862807420518969,-21.444815602225695,-6.5907965975724085,-21.494085784489748,-6.3204621732777415,-21.529320135326813,-6.052307427212617,-21.551091682774285,-5.786788721637352,-21.55995410605386,-5.524312134567026,-21.556439356475458,-5.265230092843559,-21.541055278341105,-5.009838005207786,-21.514283229848843,-4.758370895371563,-21.47657570399666,-4.511000035089828,-21.428353949486336,-4.267829577232701,-21.370005591627404,-4.028893188857553" fill="none" stroke="black" stroke-width="2.2222222222222223" stroke-linejoin="round" filter="url(#fuzzy)"></polyline><polyline id="leftLower" points="38.45792828399484,4.581987823939454,38.65108846406932,4.823887351161087,38.77106311267914,5.094973998327507,38.821054266799905,5.391298852690714,38.80418668281449,5.70910582534505,38.72350867240368,6.044827746285888,38.58199293843666,6.395082459468313,38.382537410861644,6.7566689178657935,38.127966082596444,7.126563278528885,37.821029845419055,7.50191499764389,37.464407325858204,7.880042925591557,37.06070572108398,8.258431402005751,36.61246163479836,8.634726350832153,36.1221419131258,9.006731375386915,35.59214448050385,9.372403853415369,35.02479917557369,9.729851032150696,34.42236858707073,10.077326123372613,33.78704888971516,10.413224398466049,33.12097068010257,10.736079283479835,32.426199812594504,11.044558454185388,31.704738235209035,11.337459931135378,30.958524825511354,11.61370817472243,30.18943622650434,11.872350180237792,29.399287682519144,12.112551572930027,28.589833875105775,12.333592703063694,27.762769758923653,12.534864740978021,26.776219316351757,12.958635086759926,25.769376636829595,13.341036469294824,24.744597063747946,13.680926036097347,23.704186061725636,13.977557465489964,22.650395893926948,14.23054893582032,21.585422521000655,14.439852370659223,20.51140271751732,14.605723936012595,19.430411401781132,14.728695765580785,18.344459174892858,14.80954889009865,17.25549006494031,14.849287346789794,16.16537947219282,14.849113444968301,15.075932311176201,14.810404163821449,13.988881345504605,14.734688658406663,12.90588571134579,14.623626849896237,11.828529625396214,14.478989076103092,10.75832127324248,14.302636778321002,9.696691873985495,14.09650420051272,8.644994917003956,13.862581076879332,7.604505566733438,13.602896283844222,6.5764202313377025,13.319502432485102,5.561856291148633,13.014461377447429,4.561851982751202,12.689830618372616,3.5773664345900524,12.347650569874466,2.6092798499740564,11.989932676097103,1.6583938333553192,11.618648345887976,0.7254318557591848,11.235718684619105,-0.18896014475841483,10.843004998690134,-1.0842130317497567,10.442300048746477,-1.9598336122337443,10.035320027645996,-2.8154036558976276,9.62369723920756,-3.6505787957653855,9.208973453774911,-4.465087314456488,8.792593916629187,-5.258728820158423,8.375901985283534,-6.0313728164366065,7.960134371693142,-6.782957170005259,7.546416965414142,-7.513486480582623,7.13576121374472,-8.223030356954242,6.72906103488184,-8.911721603367722,6.3270902401269895,-9.579754320382568,5.930500441174297,-10.227381924298632,5.53981941851443,-10.854915089286616,5.15544992698767,-11.46271961634436,4.777668914519516,-12.051214233202243,4.406627130072275,-12.620868329301404,4.0423490968459275,-13.172199629968164,3.684733426761747,-13.705771813908369,3.3335534522620085,-14.222192078145005,2.9884581514591955,-14.722108654522787,2.6489733426680817,-15.20620828190311,2.3145031243540846,-15.675213638173036,1.9843315365312697,-16.130093499866298,1.658423539592192,-16.571489490434743,1.3371248181711584,-16.999662367800234,1.0201834104880683,-17.41487700075544,0.7073257338001162,-17.817401816704297,0.39825979421593116,-18.20750824940248,0.09267839650972332,-18.585470186697854,-0.2097376460645728,-18.951563418270958,-0.5093163019591689,-19.306065083375465,-0.80639111151826,-19.649253118578663,-1.1012979771638949,-19.981405705501892,-1.3943719535818326,-20.302800718561066,-1.6859440379073969,-20.613715172707067,-1.976337959911338,-20.914424671166273,-2.265866972185683,-21.205202853180992,-2.554830640329602,-21.486320841749986,-2.843511633135262,-21.75804669136884,-3.132172512773682,-22.020644835770526,-3.421052524980592,-22.274375535665804,-3.7103643892422937,-22.519494326483738,-4.000291088981517,-22.75625146611214,-4.290982661743275,-22.98489138263801,-4.582552989380722,-23.205652122088082,-4.87507658824101,-23.4187647961692,-5.168585399351155" fill="none" stroke="black" stroke-width="2.2222222222222223" stroke-linejoin="round" filter="url(#fuzzy)"></polyline><!--[--><circle r="4.955212851489783" cx="-5.032921399993665" cy="5.6638987967263965" stroke="black" fill="none" stroke-width="1" filter="url(#fuzzy)" clip-path="url(#leftEyeClipPath)"></circle><circle r="3.3284271490100514" cx="-1.0893717156687557" cy="4.57324489308202" stroke="black" fill="none" stroke-width="1" filter="url(#fuzzy)" clip-path="url(#leftEyeClipPath)"></circle><circle r="4.245969646322413" cx="-2.067434532734624" cy="3.1919505459589246" stroke="black" fill="none" stroke-width="1" filter="url(#fuzzy)" clip-path="url(#leftEyeClipPath)"></circle><circle r="3.802697740214697" cx="-0.9096865675914994" cy="6.260099427911442" stroke="black" fill="none" stroke-width="1" filter="url(#fuzzy)" clip-path="url(#leftEyeClipPath)"></circle><circle r="3.588921137695107" cx="-2.4900068319615904" cy="5.7556598424111325" stroke="black" fill="none" stroke-width="1" filter="url(#fuzzy)" clip-path="url(#leftEyeClipPath)"></circle><circle r="3.137957137561491" cx="-4.064457894094848" cy="6.574356767481428" stroke="black" fill="none" stroke-width="1" filter="url(#fuzzy)" clip-path="url(#leftEyeClipPath)"></circle><circle r="3.978612030433767" cx="-0.5145030413629876" cy="3.0040289301801364" stroke="black" fill="none" stroke-width="1" filter="url(#fuzzy)" clip-path="url(#leftEyeClipPath)"></circle><circle r="4.514545846849007" cx="-2.880456505662251" cy="5.8818133810961335" stroke="black" fill="none" stroke-width="1" filter="url(#fuzzy)" clip-path="url(#leftEyeClipPath)"></circle><circle r="3.9277896354007336" cx="-1.4065574309865587" cy="4.737053495763403" stroke="black" fill="none" stroke-width="1" filter="url(#fuzzy)" clip-path="url(#leftEyeClipPath)"></circle><circle r="4.415289493150191" cx="-4.225143020619213" cy="5.449575875650596" stroke="black" fill="none" stroke-width="1" filter="url(#fuzzy)" clip-path="url(#leftEyeClipPath)"></circle><!--]--></g><g id="hairs"><!--[--><polyline points="-7,-85,-4.667941208442732,-85.05304563261595,-3.6242787911470637,-85.2155196090609,-2.9386696747676684,-85.3198676737216,-2.4547738576691986,-85.28091956560877,-2.2090632414513567,-85.13482190393188,-2.2720016561311844,-84.93363627796117,-2.7155071633864427,-84.67794332505707,-3.608225051955397,-84.32528415447845,-5.006936726306758,-83.83437944178644,-6.945290740054549,-83.1956418639444,-9.437244454457595,-82.42702641460625,-12.502540594787956,-81.54628872744702,-16.197368240475058,-80.54356065508524,-20.62940287173167,-79.36763979680231,-25.951203655830696,-77.9330048310589,-32.25437515607224,-76.23730130845874" fill="none" stroke="rgb(165, 42, 42)" stroke-width="2" stroke-linejoin="round" filter="url(#fuzzy)"></polyline><polyline points="-3,-85,-3.020230043537587,-85.23489968903098,-2.136795610439561,-85.47423623941064,-1.0092078030355123,-85.54205197150206,0.15663796088043183,-85.54402090362161,1.293245712220213,-85.56930357157155,2.3728434029511694,-85.625088335227,3.3725304407656154,-85.67492723125947,4.264447327512639,-85.68410483299822,5.01450505708621,-85.63898654572004,5.581006516332142,-85.54498106012912,5.91514865513965,-85.41655754495639,5.968358425806196,-85.26780273497337,5.703650524956434,-85.10623108821557,5.099968492835194,-84.93063320968699,4.141064696229707,-84.73358827965528,2.7938913792821776,-84.50715980342812,0.9936605160643435,-84.246297480608,-1.347850752076475,-83.94433047033145,-4.303146843792163,-83.58554914807064,-7.851636969096583,-83.15908150628832,-11.753950469655482,-82.72547734062017,-15.425103373407623,-82.52554295001784" fill="none" stroke="rgb(165, 42, 42)" stroke-width="2" stroke-linejoin="round" filter="url(#fuzzy)"></polyline><polyline points="24,-83,24.34668786862055,-82.93185207724366,24.347726980305705,-82.65076739937643,23.747613492865995,-82.09819092765949,22.610312324308325,-81.29436309734592,20.86915433585532,-80.27796161303172,18.386032302396202,-79.07232413330807,15.042664284408929,-77.67995817352703,10.769111633300781,-76.08914947509766,5.52686792588781,-74.28982150577463,-0.7204285247578319,-72.29329274898721,-8.023438818824001,-70.13710062913626,-16.439348167798016,-67.85602563637076,-26.011106609560766,-65.42692408137123,-36.76866057577926,-62.73149171663245,-48.76843933876236,-59.59658592689819" fill="none" stroke="rgb(165, 42, 42)" stroke-width="2" stroke-linejoin="round" filter="url(#fuzzy)"></polyline><polyline points="55,-67,55.40155797798861,-66.45007426853535,55.87269186756867,-65.5127060055159,55.915769854001944,-64.6564142599833,55.41130420380087,-63.97062090019496,54.356881937779335,-63.42936741970022,52.77868146246159,-62.98110610192688,50.703012610947,-62.57323884670507,48.13761898264569,-62.17184716492043,45.06134461561285,-61.78058132482959,41.43162892702934,-61.44000818530618,37.20586621761322,-61.202797293663025,32.36076498530315,-61.102120142886726,26.89630632137667,-61.13654280010672,20.823774940105228,-61.281259176837324,14.148488524944192,-61.51492199832009,6.8581011964539975,-61.8390109169238,-1.0816342082108577,-62.27190460420482,-9.726659709082206,-62.82103135379712,-19.138624026542725,-63.46214042217945,-29.30934243110236,-64.17418054757815,-39.95029554773786,-65.10301948287109" fill="none" stroke="rgb(165, 42, 42)" stroke-width="2" stroke-linejoin="round" filter="url(#fuzzy)"></polyline><polyline points="64,-56,64.28226641534498,-55.32167283355477,64.84823641941585,-54.729450088327475,65.53040931281713,-53.93106077983847,66.21825366607361,-52.994229761228475,66.83333459702273,-52.058290433459156,67.33892597766047,-51.2063540217152,67.71454786351862,-50.47705556531678,67.93145303080757,-49.91615905161231,67.9520378112793,-49.60147666931152,67.74656452342977,-49.62458262814451,67.30756496813085,-50.05132977761336,66.6468261878633,-50.89775528624662,65.77364316064167,-52.14471655989938,64.6701105571512,-53.7800293149771,63.29065118669227,-55.82464690882853,61.59358996335552,-58.31456698510206,59.54084664828558,-61.304048697656796" fill="none" stroke="rgb(165, 42, 42)" stroke-width="2" stroke-linejoin="round" filter="url(#fuzzy)"></polyline><polyline points="-47,-69,-46.84676048283231,-69.70784864067177,-46.25874078476188,-70.298457720624,-45.41176465267293,-70.91748131135604,-44.48759490596463,-71.52818943245012,-43.58076593115652,-72.07782101076623,-42.75304492225069,-72.53145221763583,-42.05634546818152,-72.8733703374264,-41.53507058968116,-73.09521009384068,-41.23290682696188,-73.17900025894839,-41.19889783859253,-73.08807802200317,-41.480304239287804,-72.77338708456912,-42.105622273872456,-72.18984783902454,-43.07399832611747,-71.3112201335547,-44.362509586449335,-70.13750021679522,-45.94913818673035,-68.69573790604613,-47.84213159554019,-67.03015538727863,-50.10644234314338,-65.16756117227094,-52.877117997452444,-63.05530002596147,-56.36794915360051,-60.49450965913941" fill="none" stroke="rgb(165, 42, 42)" stroke-width="2" stroke-linejoin="round" filter="url(#fuzzy)"></polyline><polyline points="-41,-74,-40.4776228873044,-73.83573643250423,-39.519836388108054,-74.31410948073301,-38.473068081434334,-74.95087627605136,-37.50988520467841,-75.55352981803371,-36.727124479157965,-76.00306325306951,-36.142146510738186,-76.25507459406201,-35.72779617376524,-76.31838846035063,-35.45861016455255,-76.22146642565853,-35.347471278045134,-75.98502028248154,-35.45985746383667,-75.60465669631958,-35.897602119885065,-75.04631157224978,-36.759834092697844,-74.25651653267596,-38.10449892330114,-73.18334168957541,-39.933309747023564,-71.79806670088063,-42.20746926917877,-70.10681977995796,-44.886587224197,-68.1436597619032,-47.97652356103118,-65.94070381325243,-51.561943663611814,-63.48102693990511,-55.79596766234947,-60.64093808308614" fill="none" stroke="rgb(165, 42, 42)" stroke-width="2" stroke-linejoin="round" filter="url(#fuzzy)"></polyline><polyline points="-45,-71,-44.107163329731506,-71.7741472944494,-42.92169959970194,-72.51223857760797,-41.494100354403365,-73.26460596201633,-39.98326652466009,-74.02677417290737,-38.46268595597473,-74.81518656276637,-36.97440693304461,-75.61969840003717,-35.5722831797369,-76.39114935505228,-34.31891888566816,-77.06551627057152,-33.26440278753788,-77.5958739449251,-32.43286368631908,-77.97042114057015,-31.824709142167457,-78.21045124696376,-31.43313940867769,-78.3517551221054,-31.27004794759908,-78.41663731185949,-31.388551721259088,-78.38778833361195,-31.884176161621824,-78.19800607394322,-32.87292968037041,-77.74282773152304,-34.46786506823074,-76.91817087966899,-36.70153148077344,-75.75319817822891" fill="none" stroke="rgb(165, 42, 42)" stroke-width="2" stroke-linejoin="round" filter="url(#fuzzy)"></polyline><polyline points="37,-79,37.70939771738765,-78.3712172613577,37.86900867924446,-78.06144421453017,37.76317583174039,-77.80260464627341,37.60051904905545,-77.48466220950161,37.37842474016644,-77.06699478286991,36.96679167492424,-76.56127839074556,36.214706507787916,-76.00996134228075,35.01812814457295,-75.45848004896685,33.33581555178629,-74.9366076860052,31.168927852649567,-74.45220427228926,28.529614537887646,-73.99387829111248,25.417519304536647,-73.54028611315393,21.81090698694736,-73.07419380936817,17.670613441384326,-72.59570726296059,12.952110255050052,-72.1256481852157,7.620161125977454,-71.6932925232147,1.6593959936430949,-71.31401904701517,-4.9256556400737175,-70.97444880067145,-12.123581237791566,-70.64239039921964,-19.938458116461348,-70.30009435037918,-28.407276437546475,-69.97808049442237,-37.547189278222035,-69.78375769831047" fill="none" stroke="rgb(165, 42, 42)" stroke-width="2" stroke-linejoin="round" filter="url(#fuzzy)"></polyline><polyline points="70,-48,69.80214666824868,-46.51946994110192,69.2396039360899,-45.618515078552974,68.22780327276847,-45.207921994146574,66.66341303129212,-45.223370318961265,64.44952408594642,-45.60405019426815,61.50519189174889,-46.32151308704069,57.777003792012046,-47.373654313406604,53.24118065207539,-48.77431301768034,47.899735420356244,-50.54697265119948,41.76841197259186,-52.71187270326642,34.850012670605906,-55.27142263856173,27.106961006800553,-58.21630091354318,18.468849211399704,-61.56147650323581,8.885945081767808,-65.38476406867481,-1.6310132113605427,-69.82229831206814,-13.029374170744699,-75.00992245380803" fill="none" stroke="rgb(165, 42, 42)" stroke-width="2" stroke-linejoin="round" filter="url(#fuzzy)"></polyline><polyline points="18,-84,20.401630225166702,-83.93597132612298,21.98127752898113,-83.71583749644205,22.989079353744398,-83.45874290448714,23.632765207062715,-83.23360305906374,24.037554148504597,-83.02706446042623,24.26893111270025,-82.805341664994,24.337840960107375,-82.55308852954079,24.208150657392515,-82.276705385284,23.819920216964647,-81.99164599482778,23.113071576359065,-81.71166367047384,22.033873677253723,-81.446364402771,20.524778225855258,-81.20412146577083,18.51491216841621,-80.99445694873947,15.931017521366488,-80.82694541190332,12.734321652513682,-80.70902502511424,8.962176575445582,-80.64720786398229,4.728483146651914,-80.65083825109835,0.14229226559646335,-80.7283917933805,-4.82786225244231,-80.86822239083656,-10.38819153632889,-81.02124511999374,-16.62364974588855,-81.11757110437675" fill="none" stroke="rgb(165, 42, 42)" stroke-width="2" stroke-linejoin="round" filter="url(#fuzzy)"></polyline><polyline points="-22,-82,-19.81667021508353,-82.34637252990862,-18.721787808904228,-82.26577414280582,-17.159836305142093,-82.2515242634534,-14.913041717583278,-82.31528889540026,-12.233626703538555,-82.3530877694578,-9.382668455570037,-82.29854148750631,-6.481425963949182,-82.14262386993737,-3.5312051890145044,-81.90445625287691,-0.4850021118403216,-81.60514314338752,2.6905468325607735,-81.25869181988018,5.985835224408273,-80.87292616280172,9.352857023477554,-80.45157927274704,12.729985410349967,-79.99602410706834,16.066215365095598,-79.50958563187004,19.33040170781167,-79.00427754626487,22.506312364678216,-78.5033528168476,25.584813030839552,-78.03219784182453,28.560902954103923,-77.59996504006912,31.432155829938374,-77.1886571580213,34.19303765888544,-76.76858681371363,36.83292980600203,-76.33646423498692,39.35398964422696,-75.93358017571192,41.78452460999668,-75.57329918967899" fill="none" stroke="rgb(165, 42, 42)" stroke-width="2" stroke-linejoin="round" filter="url(#fuzzy)"></polyline><polyline points="4,-86,5.574155384547533,-85.83361417561866,7.251732487286302,-85.35334587799127,9.349411588017475,-84.6679381819182,11.794642983630467,-83.82658515854665,14.48396905629943,-82.85118482111443,17.353521611529732,-81.76034184956688,20.36450431919008,-80.56414433960796,23.48141334969062,-79.26503211000309,26.667464710204445,-77.86836440002652,29.89460277557373,-76.3883605003357,33.151065627615736,-74.84271473743046,36.43321542127789,-73.24516594135619,39.725812988129576,-71.61026856342676,42.987597345308,-69.97150743274881,46.15422921943264,-68.39314905765173,49.158635845946264,-66.94852749291913,51.97044844750602,-65.65615277770218,54.66449546192884,-64.40275158021673,57.5000288348055,-62.925398290100944" fill="none" stroke="rgb(165, 42, 42)" stroke-width="2" stroke-linejoin="round" filter="url(#fuzzy)"></polyline><polyline points="11,-85,12.421551557170156,-84.95077157853304,13.255648953545872,-84.76666072633596,13.685496130117071,-84.39209276350752,13.62714292184219,-83.81649328035847,13.01135382500733,-83.06595289341257,11.841339019789347,-82.1615841266182,10.125487320518413,-81.10122226403256,7.832846217596936,-79.87164565428374,4.9075435462406904,-78.46555153336804,1.3036307501166853,-76.88184875428117,-2.9983169920015484,-75.11101038327196,-7.999549075487764,-73.1231576876171,-13.7017299189524,-70.87287115972602,-20.120944232762607,-68.31813114934215,-27.2932474114725,-65.43837833936368,-35.278703532475454,-62.242971699478474,-44.169481914976096,-58.78844855702674,-54.074096663781695,-55.2473589669314" fill="none" stroke="rgb(165, 42, 42)" stroke-width="2" stroke-linejoin="round" filter="url(#fuzzy)"></polyline><polyline points="31,-81,32.14086377466104,-80.74183052171361,33.3127554653599,-80.291734785857,34.4035122629737,-79.80271968060569,35.2969406921658,-79.34146669414018,35.88041952987446,-78.96199117364198,36.13716159864867,-78.68020891951602,36.13431036545894,-78.4732192515383,35.95305677522079,-78.30213024985002,35.62921333152466,-78.13717579485602,35.13663737727153,-77.9718447614952,34.40858200267568,-77.82293378393311,33.372818142175674,-77.72044295072556,31.976996948232074,-77.6939254522901,30.193501559157728,-77.76120671403855,28.00710101561967,-77.92376833512932,25.39663254303032,-78.17147606511142,22.32323497155427,-78.49575688300288,18.735811177679093,-78.90355684098952,14.599027633143713,-79.41888880157263,9.93240633159452,-80.06394728226275,4.818973556014811,-80.83335542395034,-0.6609190504964584,-81.70327948237394,-6.466477217218908,-82.71239028983095" fill="none" stroke="rgb(165, 42, 42)" stroke-width="2" stroke-linejoin="round" filter="url(#fuzzy)"></polyline><polyline points="-25,-81,-23.558045580096632,-81.26617072158862,-22.27028192377148,-81.71362127990933,-20.854892494328947,-82.11257965120565,-19.45973408606369,-82.41632339416537,-18.14402014074181,-82.6761767144822,-16.836394219124657,-82.96134749346223,-15.491024726995434,-83.28997905816011,-14.182830810546875,-83.61866760253906,-13.07772773854563,-83.88379987449703,-12.34704233135895,-84.0474984018951,-12.116889305471862,-84.10477036876861,-12.483875630307011,-84.04640969715547,-13.543745336023555,-83.81794239374445,-15.335090389754836,-83.33926092203933,-17.665291269939196,-82.62860260648988" fill="none" stroke="rgb(165, 42, 42)" stroke-width="2" stroke-linejoin="round" filter="url(#fuzzy)"></polyline><polyline points="73,-40,72.59598206690495,-39.64951198451371,72.63128869999044,-38.94927480330152,72.56293603760935,-38.35978100265525,72.22916116328321,-37.95000700864005,71.60816266083089,-37.641475517708166,70.69288923686256,-37.429556292052325,69.45905256205208,-37.41213648775499,67.8729886732066,-37.71706639698931,65.90569957692958,-38.42975982907593,63.540168388757216,-39.569944203802116,60.76928985118866,-41.116227984428406,57.5871305092634,-43.047833226460924,53.98051622805203,-45.36935195578463,49.928561761777885,-48.103554829870184,45.41168225766179,-51.26541178346725,40.421800370619266,-54.84623183009869,34.96090620661327,-58.82523347794216,29.02482572097243,-63.195103495041394,22.592329872989296,-67.96992732709032,15.650840711937635,-73.16592236580341,8.213886092738276,-78.7981659262628" fill="none" stroke="rgb(165, 42, 42)" stroke-width="2" stroke-linejoin="round" filter="url(#fuzzy)"></polyline><polyline points="-41,-73,-39.476820132659725,-74.22251381482039,-38.00823183276186,-75.14193720817882,-36.50136837479467,-76.05119052607002,-35.07725465588224,-76.84642257095487,-33.76634053032753,-77.48398297282625,-32.56017630436393,-77.98247357384624,-31.47417179970121,-78.36975951554768,-30.568739375556632,-78.66355777631148,-29.945384983435673,-78.86823376088597,-29.721651063736076,-78.9679775377084,-29.992595451044725,-78.92114644892746,-30.802611415554466,-78.67479506074338,-32.12959329162714,-78.21307471966331,-33.857398260439176,-77.61706748631131" fill="none" stroke="rgb(165, 42, 42)" stroke-width="2" stroke-linejoin="round" filter="url(#fuzzy)"></polyline><polyline points="-47,-70,-45.14163801430917,-70.92338599646804,-43.0268896894527,-71.80270228622727,-40.372061429255396,-72.68810288836778,-37.153547780544734,-73.59994703464618,-33.443511690472334,-74.55190635774565,-29.30432961087407,-75.563504998246,-24.793399491397285,-76.63839173414976,-19.994353796284347,-77.74923624693886,-15.015334280776909,-78.84847445500887,-9.951375738932596,-79.89561337319978,-4.839178051342184,-80.8805415534325,0.3599327744294989,-81.83381157802148,5.685539678149864,-82.82788276605501,10.89265271731741,-83.93725612658625" fill="none" stroke="rgb(165, 42, 42)" stroke-width="2" stroke-linejoin="round" filter="url(#fuzzy)"></polyline><polyline points="45,-74,46.26954436161506,-73.33177059088304,46.918056640639534,-72.867337862885,47.25089998245558,-72.38331219730696,47.29613690530946,-71.84957954378916,47.00162192318805,-71.33139332668696,46.29148999592601,-70.90938615805973,45.11137868483572,-70.61987966252178,43.44515865357803,-70.44736054366231,41.30143230706607,-70.35734222647606,38.688862071128405,-70.33414651854177,35.59673603004318,-70.39587968391861,31.98807452172381,-70.58183610976326,27.80788030280317,-70.92737233063424,23.004026501194488,-71.44656510154873,17.548416766021223,-72.13202408000693,11.43925767029552,-72.96332942520374,4.6730147072028245,-73.90787196967094,-2.8045862634916077,-74.91337227468122,-11.136391594609124,-75.92022515530009,-20.5182169764505,-76.9205958601" fill="none" stroke="rgb(165, 42, 42)" stroke-width="2" stroke-linejoin="round" filter="url(#fuzzy)"></polyline><polyline points="-47,-70,-46.408474857615374,-70.33270931627014,-45.31787659898825,-71.0077638178363,-44.16462575161839,-71.74441683320838,-43.041772924650594,-72.43106683385304,-42.00410493519358,-73.02151158040591,-41.12667708979282,-73.4969672155136,-40.48046218249219,-73.84808591260924,-40.12260707941196,-74.05359162075537,-40.107898297922354,-74.06635999363071,-40.48955633577759,-73.82408072382563,-41.30080887024638,-73.28182736643201,-42.559584941683504,-72.43563829395457,-44.3371188729576,-71.3041533029162,-46.8014720987524,-69.87589358957484" fill="none" stroke="rgb(165, 42, 42)" stroke-width="2" stroke-linejoin="round" filter="url(#fuzzy)"></polyline><polyline points="-32,-78,-32.175641978064725,-78.0607948170978,-30.45354143751622,-78.36507219561436,-28.061551671789985,-78.83979269924446,-25.472586915947495,-79.32496530340279,-22.839369888234724,-79.71748209841296,-20.172666508849623,-79.99112462018417,-17.438027503103964,-80.16290827082202,-14.607710538963245,-80.25772906736186,-11.673017410423256,-80.29423646186055,-8.630465558666423,-80.28830581342187,-5.4672646342683,-80.25921294007435,-2.167071521282196,-80.22819688916206,1.2648378769699384,-80.210571368907,4.779325446418598,-80.20970952218495,8.288483752391482,-80.21855068623162,11.702775182348363,-80.225646172059,14.979593332642537,-80.21790819224344,18.15080167670847,-80.17764317692217,21.3041040085959,-80.08261358523072,24.5114685042504,-79.92112765265807,27.722686642789746,-79.72117128561462,30.681695813823918,-79.5752039901009,32.95581628081628,-79.63518367951987" fill="none" stroke="rgb(165, 42, 42)" stroke-width="2" stroke-linejoin="round" filter="url(#fuzzy)"></polyline><!--]--></g><g id="lineNose"><path d="M -8.741499562768643 30.994609460506933, Q11.12976997315783 49.28449975772757,1.194135205194593 -4.861237540333698" fill="none" stroke="black" stroke-width="3" stroke-linejoin="round" filter="url(#fuzzy)"></path></g><g id="mouth"><polyline points="-35.93841110794192,58.62166941793944,-35.637673265145295,57.78253764270876,-35.32157744545056,56.963666789695075,-34.99034401594341,56.16495721157993,-34.64419334370946,55.38630926104488,-34.283345795834364,54.62762329077148,-33.908021739403765,53.888799653441296,-33.51844154150329,53.16973870173588,-33.11482556921864,52.470340788336784,-32.697394189635396,51.790506265925586,-32.266367769839235,51.13013548718383,-31.8219666769158,50.48912880479308,-31.364411277950733,49.867386571434885,-30.893921940029674,49.264809139790806,-30.410719030238283,48.68129686254241,-29.9150229156622,48.11675009237124,-29.407053963387064,47.57106918195887,-28.88703254049853,47.04415448398683,-28.355179014082232,46.5359063511367,-27.811713751223827,46.04622513609006,-27.256857119008956,45.57501119152842,-26.690829484523256,45.12216487013337,-26.11385121485239,44.687586524586436,-25.526142677081985,44.27117650756922,-24.9279242382977,43.872835171763256,-24.319416265585183,43.492462869850094,-23.70083912603007,43.129959954511314,-23.072413186718002,42.78522677842845,-22.434358814734622,42.45816369428307,-21.786896377165604,42.14867105475675,-21.130246241096557,41.85664921253102,-20.464628773613153,41.58199852028745,-19.790264341801024,41.32461933070759,-19.10737331274582,41.084411996473015,-18.416176053533185,40.86127687026527,-17.716892931248772,40.65511430476591,-17.00974431297821,40.465824652656494,-16.294950565807163,40.293308266618595,-15.572732056821263,40.13746549933375,-14.843309153106162,39.99819670348353,-14.1069022217475,39.8754022317495,-13.363731629830932,39.76898243681319,-12.614017744442092,39.678837671356185,-11.857980932666633,39.604868288060025,-11.0958415615902,39.54697463960629,-10.32781999829844,39.50505707867651,-9.554136609876993,39.47901595795225,-8.775011763411506,39.46875163011509,-7.990665825987627,39.47416444784656,-7.2013191646909975,39.495154763828246,-6.407192146607268,39.53162293074169,-5.608505138822082,39.58346930126843,-4.805478508421082,39.65059422809005,-3.998332622489915,39.73289806388811,-3.1872878481142295,39.830281161344146,-2.372564552379671,39.942643873139744,-1.5543831023718777,40.06988655195644,-0.7329638651765062,40.21190955047579,0.09147279212080905,40.36861322137936,0.9187065024344145,40.53989791734872,1.748516898678671,40.72566399106541,2.580683613767928,40.925811795211,3.4149862806165405,41.140241682467035,4.251204532138867,41.368854005515075,5.089118001249257,41.61154911703669,5.928506320862067,41.86822736971342,6.769149123891655,42.138789116226846,7.61082604325237,42.42313470925851,8.453316711858571,42.72116450148997,9.296400762624607,43.03277884560279,10.139857828464839,43.357878094278526,10.983467542293623,43.69636260019873,11.827009537025301,44.04813271604497,12.670263445574237,44.41308879449879,13.513008900854787,44.791131188241756,14.355025535781303,45.18216024995542,15.196092983268136,45.58607633232136,16.035990876229643,46.00277978802111,16.874498847580185,46.43217096973624,17.711396530234108,46.87415023014831,18.546463557105767,47.328617921938864,19.379479561109523,47.79547439778948,20.210224175159723,48.27462001038169,21.038477032170725,48.76595511239707,21.864017765056886,49.26938005651718,22.686626006732556,49.78479519542356,23.506081390112097,50.3121008817978,24.322163548109852,50.85119746832142,25.134652113640186,51.40198530767601,25.943326719617442,51.9643647525431,26.747966998955985,52.53823615560427,27.548352584570168,53.123499869541064,28.344263109374335,53.72005624703504,29.13547820628286,54.32780564076777,29.921777508210084,54.9466484034208,30.70294064807036,55.57648488767569,31.478747258778053,56.217215446214,32.24897697324751,56.868740431717285,33.01340942439309,57.5309601968671,33.771824245129125,58.20377509434501,34.524001068369955,58.887085476832524,33.77182424512908,58.20377509434496,33.01340942439302,57.530960196867056,32.24897697324745,56.86874043171724,31.47874725877799,56.217215446213956,30.702940648070307,55.57648488767565,29.921777508210024,54.94664840342077,29.135478206282798,54.327805640767735,28.344263109374292,53.720056247035004,27.548352584570125,53.12349986954103,26.747966998955942,52.53823615560423,25.94332671961739,51.96436475254307,25.134652113640144,51.40198530767597,24.32216354810981,50.851197468321395,23.506081390112044,50.31210088179777,22.686626006732507,49.78479519542355,21.864017765056836,49.26938005651716,21.038477032170682,48.76595511239705,20.210224175159674,48.27462001038167,19.37947956110948,47.79547439778945,18.546463557105724,47.32861792193884,17.711396530234065,46.87415023014829,16.87449884758014,46.43217096973622,16.0359908762296,46.00277978802109,15.196092983268088,45.58607633232134,14.355025535781264,45.182160249955395,13.51300890085475,44.791131188241735,12.670263445574198,44.41308879449876,11.82700953702526,44.04813271604494,10.98346754229358,43.696362600198704,10.139857828464798,43.357878094278504,9.29640076262457,43.03277884560277,8.453316711858532,42.72116450148996,7.610826043252331,42.42313470925849,6.769149123891617,42.13878911622684,5.92850632086203,41.868227369713416,5.0891180012492185,41.611549117036674,4.251204532138825,41.36885400551506,3.4149862806165006,41.140241682467014,2.5806836137678864,40.925811795210976,1.7485168986786315,40.7256639910654,0.9187065024343757,40.5398979173487,0.09147279212076909,40.36861322137935,-0.7329638651765441,40.21190955047578,-1.5543831023719177,40.06988655195642,-2.3725645523797096,39.94264387313972,-3.1872878481142695,39.83028116134414,-3.998332622489954,39.7328980638881,-4.80547850842112,39.65059422809004,-5.608505138822119,39.583469301268416,-6.4071921466073025,39.531622930741676,-7.201319164691034,39.495154763828246,-7.990665825987662,39.47416444784657,-8.775011763411541,39.468751630115094,-9.554136609877027,39.479015957952264,-10.327819998298471,39.505057078676515,-11.09584156159024,39.5469746396063,-11.85798093266667,39.60486828806004,-12.61401774444213,39.67883767135619,-13.363731629830962,39.768982436813204,-14.106902221747536,39.875402231749504,-14.843309153106192,39.99819670348354,-15.572732056821295,40.137465499333764,-16.29495056580719,40.2933082666186,-17.009744312978246,40.46582465265651,-17.7168929312488,40.655114304765924,-18.416176053533217,40.86127687026528,-19.10737331274585,41.08441199647304,-19.790264341801056,41.32461933070761,-20.46462877361318,41.58199852028747,-21.130246241096582,41.85664921253104,-21.78689637716563,42.14867105475677,-22.434358814734658,42.458163694283094,-23.072413186718027,42.78522677842847,-23.700839126030093,43.129959954511335,-24.31941626558521,43.49246286985012,-24.92792423829773,43.87283517176328,-25.52614267708202,44.27117650756924,-26.113851214852424,44.687586524586465,-26.69082948452329,45.12216487013338,-27.25685711900898,45.57501119152844,-27.811713751223856,46.04622513609008,-28.355179014082264,46.53590635113674,-28.88703254049856,47.04415448398686,-29.407053963387096,47.57106918195888,-29.915022915662224,48.11675009237126,-30.410719030238315,48.68129686254243,-30.893921940029706,49.26480913979084,-31.364411277950758,49.86738657143492,-31.821966676915824,50.48912880479311,-32.26636776983926,51.13013548718387,-32.69739418963542,51.79050626592563,-33.11482556921867,52.47034078833683,-33.518441541503336,53.169738701735916,-33.90802173940379,53.88879965344133,-34.28334579583439,54.627623290771524,-34.64419334370949,55.38630926104492,-34.990344015943435,56.164957211579974,-35.321577445450586,56.963666789695125,-35.637673265145295,57.782537642708824" fill="rgb(215,127,140)" stroke="black" stroke-width="3" stroke-linejoin="round" filter="url(#fuzzy)"></polyline></g></svg>