<svg viewBox="-100 -100 200 200" xmlns="http://www.w3.org/2000/svg" width="400" height="400" id="face-svg"><defs><clipPath id="leftEyeClipPath"><polyline points="28.337304124190844,-0.2619510208485707,28.063513247092107,-0.3607495060780326,27.770238757486293,-0.4647283439584302,27.45744180753089,-0.5737753840937256,27.125120336417968,-0.6877576726162671,26.773307891173236,-0.8065223189158284,26.402072447455158,-0.9298973623686568,26.01151523035407,-1.057692639066516,25.601769535191277,-1.1897006485457293,25.172999548318145,-1.325697420516227,24.72539916791523,-1.4654433815905867,24.25919082479134,-1.6086842220130815,23.774624303182684,-1.7551517623887225,23.271975561551958,-1.9045648204123036,22.751545553387427,-2.0566300775974433,22.213659048002068,-2.211042946005637,21.683376107793812,-2.3666609618010885,21.123627291327313,-2.5292348768945527,20.53465083189003,-2.6980654410371376,19.916845980562154,-2.8723856264589793,19.270761574442826,-3.0513716120942234,18.597084908947767,-3.2341532012724117,17.89663091099774,-3.419823684683467,17.17033160991686,-3.607449160423482,16.419225902860074,-3.7960773229285567,15.644449611588918,-3.9847457326038485,14.847225827414857,-4.172489577955092,14.028855541129307,-4.358348942029767,13.190708554739604,-4.541375584975148,12.33421467183015,-4.720639254520433,11.46085516336781,-4.895233536190178,10.572154505770914,-5.064281255056221,9.669672388060974,-5.226939440835352,8.754995984916356,-5.3824038681398925,7.829732492447062,-5.529913183688436,6.895501923509916,-5.668752632283923,5.953930159383236,-5.79825739336631,5.0066422546202975,-5.9178155399469965,4.05525599190073,-6.026870631732251,3.1013756836990787,-6.124923954242835,2.146586217589708,-6.211536415737049,1.192447342007279,-6.286330113744404,0.24048818928197502,-6.3489895830171115,-0.7077979672313011,-6.399262736706655,-1.6509587251105875,-6.436961512572594,-2.5875873370921165,-6.461962236030862,-3.5163272707440476,-6.474205711848734,-4.43587654676939,-6.473697056293696,-5.344991859118989,-6.460505281543433,-6.242492480095296,-6.4347626441641115,-7.127263953627811,-6.396663769464229,-7.998261579900905,-6.346464563531168,-8.854513694514889,-6.284480924757739,-9.69512474536108,-6.211087266665876,-10.519278170391711,-6.126714863834701,-11.326239079465417,-6.031850032740204,-12.115356743449176,-5.927032159313699,-12.88606689375742,-5.812851585026307,-13.637893835509178,-5.68994736330667,-14.370452377484025,-5.559004898099095,-15.0834495820576,-5.420753476369342,-15.776686338297587,-5.275963706365285,-16.450058761400847,-5.1254448734396405,-17.10355942165256,-4.970042225241979,-17.737278406088162,-4.810634198087229,-18.351404216038897,-4.648129596307907,-18.94719665720211,-4.481736751165869,-19.52564586633886,-4.310311663292879,-20.08663146350085,-4.134255913560816,-20.63006119936771,-3.9539700941936755,-21.155870529247156,-3.769852227444575,-21.664022187075357,-3.582296184272733,-22.154505759417145,-3.391690103020489,-22.627337259466337,-3.198414808090281,-23.082558701045947,-3.0028422286216547,-23.5202376726085,-2.8053338171682594,-23.940466911236285,-2.606238968374839,-24.343363876641632,-2.4058934376542376,-24.72907032516717,-2.2046177598643903,-25.09775188378611,-2.0027156679853233,-24.812403297280913,2.655589522890333,-24.433919555306108,2.8235269051799845,-24.042899508327572,2.990195726648255,-23.639453402174958,3.155393616592086,-23.22371877554764,3.318908630618066,-22.795858819544044,3.4805202083523246,-22.356060737191104,3.640000131150433,-21.904534102973603,3.7971134798073103,-21.441509222363592,3.951619592267118,-20.967235491349765,4.103273021333166,-20.48197975596685,4.251824492377812,-19.986024671825017,4.397021861052361,-19.479667063639244,4.5386110709969625,-18.963216284758712,4.67633711155052,-18.436992576696227,4.809944975460592,-17.899280231265738,4.940245353810575,-17.348452333685106,5.06780831932649,-16.784977575578353,5.19203300831996,-16.20933375304198,5.312339311687651,-15.622005671690118,5.428169640315414,-15.023483047874457,5.538990658796003,-14.414258418327655,5.644294980309445,-13.794825070479167,5.743602815515112,-13.165675005692261,5.836463568304689,-12.527296947671168,5.922457371265059,-11.880174408287104,6.0011965537002325,-11.224783823072094,6.072327035061422,-10.56159276862942,6.135529636634368,-9.89105827420951,6.190521304332993,-9.213625239700157,6.237056235448499,-8.529724972279906,6.274926902203022,-7.839773853983435,6.303964964956908,-7.144172152427797,6.324042067918718,-6.443302986948368,6.335070510207121,-5.737531462393341,6.337003785113662,-5.02720398282562,6.3298369804156085,-4.3126477573809545,6.313607032587928,-3.59417051053117,6.2883928277634915,-2.8720604090013317,6.254315142290615,-2.146586217589708,6.211536415737049,-1.4179976961393461,6.160260349189485,-0.6865262499101492,6.10073132169771,0.04761415439974037,6.033233617712474,0.7842257947343567,5.958090458366234,1.5231257096133266,5.875662829445769,2.264143911669408,5.786348098905876,3.0071212865413015,5.69057841677318,3.751907164872926,5.58881889028917,4.498356555170248,5.481565527141566,5.246327025266875,5.36934293963313,5.995675220149544,5.252701802636977,6.746253003894647,5.132216058187545,7.49790321346696,5.008479859556278,8.250455012131724,4.882104247661124,9.003718830231236,4.753713552658988,9.7574808810771,4.623941513570181,10.511497239709293,4.49342710878402,11.265487472273154,4.362810090294625,12.01912780376555,4.232726214516072,12.772043811901291,4.103802162525939,13.523802634850934,3.9766501425863967,14.273904680601209,3.8518621677919054,15.021774825689153,3.7300040016926475,15.766753091061094,3.611608764742772,16.508084782807757,3.497170194422561,17.125396291905812,3.387785401020405,17.73717071751462,3.279637661890622,18.342778398329404,3.172943836969269,18.94154453671037,3.0679152409549952,19.53274784601874,2.964757131419352,20.11561919795282,2.863668196917102,20.68934026988411,2.7648400450965314,21.253042192193274,2.6684566908097587,21.805804195606296,2.574694044223043,22.34665225853045,2.4837193989270983,22.874557754390455,2.395690920047398,23.38843609896445,2.3107571323544898,23.88714539772011,2.2290564083743027,24.36948509315068,2.1507164564984596,24.834194612111045,2.0758538090945855"></polyline></clipPath><clipPath id="rightEyeClipPath"><polyline points="-25.890030962450474,-0.409301931676459,-25.657527639067872,-0.5119977518734491,-25.405252534847424,-0.6200237657311145,-25.132832068803864,-0.7332496856762312,-24.839954524492853,-0.8515249749535447,-24.526368211081788,-0.9746797083597252,-24.191879624420615,-1.102525432977322,-23.836351608112615,-1.2348560289087187,-23.459701514585227,-1.371448570010085,-23.06189936616085,-1.5120641846253333,-22.642966016127687,-1.6564489163200729,-22.202971309810458,-1.8043345846155625,-21.742032245641305,-1.9554396457226688,-21.260311136230555,-2.109470053275816,-20.758013769437525,-2.2661201190669438,-20.235387569441336,-2.42507337377946,-19.753386010565443,-2.586664164740645,-19.235457056250148,-2.755134163584584,-18.681719288656673,-2.929760972719869,-18.092517609178906,-3.1097557930012245,-17.468406182734523,-3.294274479520265,-16.81013191510241,-3.482428021629107,-16.118618455813976,-3.6732924592574854,-15.394950719105857,-3.865918247584071,-14.640359915441572,-4.059339082122626,-13.85620908610968,-4.252580196283689,-13.043979133405955,-4.444666143472451,-12.205255338907193,-4.634628075783505,-11.34171436234412,-4.821510531353104,-10.455111713580969,-5.004377742429642,-9.547269690209262,-5.182319476222992,-8.620065773263432,-5.354456420593393,-7.6754214735656365,-5.519945126640528,-6.7152916212075375,-5.677982520253504,-5.7416540906764,-5.827809994682364,-4.756499954133174,-5.96871709619182,-3.7618240553500435,-6.1000448148578625,-2.759615996815004,-6.221188492567952,-1.7518515325110524,-6.331600360285405,-0.7404843588774481,-6.430791716638691,0.27256170353934106,-6.518334759896286,1.2854001452374657,-6.59386408538777,2.2961888272067963,-6.657077860431804,3.3031366721637014,-6.707738688831712,4.304509995066012,-6.745674176999271,5.298638480400554,-6.770777213767429,6.2839208137358025,-6.783005975952601,7.258829975032006,-6.78238367172721,8.22191820120133,-6.7689980338631495,9.171821625410406,-6.743000574906825,10.107264600617796,-6.704605616346481,11.027063714838771,-6.6540891038323995,11.930131505629923,-6.591787220510758,12.815479881285999,-6.5180948105317045,13.68222325624147,-6.433463624792394,14.52958140816926,-6.338400400975616,15.356882064269088,-6.233464789944693,16.16356322423792,-6.119267140555333,16.949175227414884,-5.996466154945086,17.713382571593243,-5.865766426361084,18.4559654909918,-5.727915871586725,19.17682130087816,-5.583703070027985,19.87596551633638,-5.433954521520023,20.553532752671437,-5.279531834914727,21.20977741494292,-5.1213288595099,21.8450741841205,-4.9602687713807505,22.460586527412296,-4.79555968269793,23.0571146108465,-4.626056211283382,23.634603099853035,-4.452171321219377,24.193028571875384,-4.27431641774454,24.73239851291668,-4.092899731985626,25.252750314085898,-3.9083247056893065,25.754150268143974,-3.720988375953957,26.23669256604999,-3.531279759961431,26.70049829350728,-3.339578239708862,27.145714427509617,-3.1462519467404295,27.572512832887327,-2.951656146879151,27.981089258853487,-2.756131624958671,28.37166233555001,-2.560003069555035,28.744472570593853,-2.363577457718482,25.009464683304945,2.9556372806386952,24.48418416206853,3.134219923907308,23.946724434273722,3.311449763252013,23.397469397798936,3.487087973817609,22.83684548487224,3.660884338765834,22.26531849654928,3.832578440538946,21.683390437191232,4.001900852123304,21.091596348942698,4.168574328312947,20.49050114620969,4.332314996973169,19.880696450137513,4.492833550304113,19.26279742308873,4.649836436104329,18.63743960312109,4.803027049034375,18.00527573846546,4.952106921880379,17.366972622003736,5.09677691681763,16.723207925746827,5.236738416674155,16.071294767668675,5.372916814254485,15.40895162340647,5.5059540768246285,14.73745647323036,5.635146455883644,14.058064938480777,5.759817081916632,13.372005668681254,5.879318031455539,12.680475775302577,5.993032351972046,11.984636335814006,6.100376035707756,11.285607991657578,6.200799933546907,10.584466663781317,6.293791600036861,9.882239409367292,6.3788770606615754,9.17990044339041,6.455622492473331,8.47836734864383,6.523635809187888,7.7784974978669235,6.582568141848362,7.081084711611629,6.632115206163004,6.386856175483162,6.672018547622159,5.6964696403909345,6.702066655499598,5.010510929445594,6.722095936843481,4.329491775138095,6.731991541562154,3.6538480104366613,6.731688029710061,2.983938137437591,6.721169872078946,2.320042297205762,6.700471775199623,1.6623616644407457,6.669678821859505,1.0110182906044383,6.628926418241177,0.3660554191460932,6.5784000387871755,-0.27256170353934017,6.518334759896286,-0.9049444977836645,6.449014573556504,-1.5312791773127934,6.370771472019981,-2.151824309273108,6.283984294625102,-2.7669077839809075,6.189077327871012,-3.376923170759069,6.086518649849722,-3.9823254362250218,5.976818210141146,-4.5836260013941015,5.860525636276186,-5.1813871139624545,5.738227757873179,-5.776215512133524,5.61054583955289,-6.368755356352237,5.478132513737329,-6.959680405311071,5.341668404437556,-7.549685412591948,5.201858433135775,-8.139476720308227,5.059427797866916,-8.729762026110757,4.915117616604928,-9.321239299922198,4.769680226059042,-9.914584826763651,4.623874126985208,-10.510440352037703,4.478458567117966,-11.109399305632,4.334187752827959,-11.711992081207487,4.191804680610328,-12.318670347035322,4.052034579509229,-12.929790364746687,3.9155779555836947,-13.545595292359476,3.7831032295200715,-14.166196447946078,3.6552389584962754,-14.79155351030623,3.532565633403082,-15.421453633009211,3.4156070425276965,-15.917105711230825,3.297552057460227,-16.410365114024966,3.181466710151062,-16.9008366925496,3.0675766500318096,-17.388065076737348,2.9560977836994913,-17.8715323871497,2.8472355735456576,-18.350655946831168,2.7411843363854986,-18.824785993163548,2.6381265420869613,-19.293203389720063,2.538232112199861,-19.755117338119558,2.4416577185849975,-20.20966308988075,2.348546082043267,-20.65589965827634,2.2590252709447767,-21.092807530187297,2.173207999857959,-21.51928637795698,2.0911909281786865,-21.93415277124538,2.0130539587593828,-22.33613788888329,1.9388595365381396"></polyline></clipPath><filter id="fuzzy"><feTurbulence id="turbulence" baseFrequency="0.05" numOctaves="3" type="noise" result="noise"></feTurbulence><feDisplacementMap in="SourceGraphic" in2="noise" scale="2"></feDisplacementMap></filter><linearGradient id="rainbowGradient" x1="0%" y1="0%" x2="100%" y2="0%"><stop offset="0%" style="stop-color: rgb(185, 55, 55);  stop-opacity: 1"></stop><stop offset="50%" style="stop-color: rgb(128, 128, 128);  stop-opacity: 1"></stop><stop offset="100%" style="stop-color: rgb(50, 205, 50);  stop-opacity: 1"></stop></linearGradient></defs><title>That&#39;s an ugly face</title><desc>CREATED BY XUAN TANG, MORE INFO AT TXSTC55.GITHUB.IO</desc><rect x="-100" y="-100" width="100%" height="100%" opacity="1" fill="rgb(176, 224, 230)"></rect><polyline id="faceContour" points="68,-1,67,3,67,3,67,3,67,4,67,4,67,6,66,9,67,9,66,10,66,12,66,12,65,13,65,16,65,16,65,18,64,19,64,20,64,21,64,20,63,23,62,25,62,24,62,26,61,27,61,28,61,29,60,30,60,31,59,33,59,32,58,34,57,37,58,35,56,37,56,39,54,41,54,41,54,41,53,43,52,45,52,45,52,45,50,48,50,48,49,48,48,49,48,49,48,50,47,51,46,52,45,53,44,55,44,54,43,55,41,57,41,58,40,59,40,59,38,60,39,59,38,60,35,62,35,62,34,63,34,63,33,64,31,65,30,66,30,66,30,66,28,67,28,67,27,68,26,68,25,69,23,70,21,70,22,70,21,71,20,71,19,71,18,72,17,72,16,73,15,73,15,73,14,73,11,74,11,74,10,74,10,74,7,75,6,75,6,75,5,75,4,75,3,75,2,75,2,75,0,75,-1,75,-2,75,-3,75,-5,75,-5,75,-6,75,-7,75,-8,75,-9,75,-10,75,-12,74,-12,74,-14,74,-15,74,-14,74,-16,73,-17,73,-18,73,-18,73,-20,72,-21,72,-21,71,-23,71,-24,70,-24,70,-26,69,-26,70,-28,68,-28,68,-28,68,-29,68,-31,67,-32,66,-32,66,-33,65,-34,64,-35,64,-37,63,-36,63,-39,61,-37,62,-39,61,-40,60,-41,59,-42,58,-42,58,-43,57,-45,55,-46,54,-45,55,-47,53,-48,52,-48,52,-49,50,-49,51,-50,48,-50,49,-52,47,-52,46,-53,45,-54,43,-54,43,-54,42,-55,41,-55,41,-56,40,-57,38,-57,38,-58,36,-59,34,-59,35,-60,32,-60,32,-60,30,-61,30,-61,29,-62,28,-62,27,-62,26,-63,24,-63,23,-63,22,-64,20,-64,20,-65,18,-65,17,-65,15,-65,14,-66,13,-66,10,-66,11,-67,9,-66,10,-67,7,-67,6,-67,6,-67,4,-67,1,-67,3,-68,0,-67,-2,-67,-3,-67,-4,-68,-5,-68,-6,-68,-6,-68,-9,-68,-10,-67,-10,-67,-11,-67,-13,-67,-15,-67,-16,-67,-17,-67,-18,-67,-18,-66,-20,-66,-22,-66,-21,-66,-24,-65,-25,-65,-26,-65,-27,-64,-28,-64,-29,-64,-31,-64,-30,-63,-32,-62,-35,-62,-34,-61,-37,-61,-37,-61,-38,-60,-39,-60,-40,-59,-41,-59,-42,-58,-43,-58,-44,-57,-45,-56,-47,-56,-47,-54,-49,-54,-49,-54,-50,-53,-51,-53,-52,-52,-53,-51,-53,-51,-53,-49,-55,-48,-57,-49,-56,-47,-58,-48,-57,-46,-59,-45,-60,-45,-59,-43,-61,-41,-62,-41,-62,-41,-63,-39,-64,-38,-65,-37,-65,-36,-66,-37,-65,-36,-66,-34,-67,-33,-68,-32,-68,-31,-69,-30,-69,-28,-70,-28,-70,-27,-70,-26,-71,-24,-71,-24,-72,-22,-72,-21,-72,-19,-73,-19,-73,-18,-73,-17,-74,-15,-74,-15,-74,-14,-74,-13,-74,-11,-75,-8,-75,-9,-75,-7,-75,-6,-75,-6,-75,-4,-75,-3,-75,-1,-75,-2,-75,1,-75,2,-75,2,-75,3,-75,4,-75,6,-75,5,-75,7,-75,8,-75,10,-74,12,-74,11,-74,12,-74,14,-74,16,-73,17,-73,19,-72,19,-72,20,-72,21,-72,24,-71,23,-71,26,-70,25,-70,28,-69,29,-69,29,-68,29,-68,31,-67,31,-68,33,-67,34,-66,35,-65,35,-65,38,-64,37,-64,39,-63,39,-63,41,-61,42,-60,43,-60,44,-59,43,-60,44,-58,45,-58,47,-56,47,-56,48,-54,48,-55,50,-52,49,-54,52,-51,52,-51,53,-49,53,-49,54,-48,54,-48,55,-46,56,-45,57,-43,57,-43,57,-43,59,-41,59,-40,59,-39,59,-39,60,-38,61,-36,61,-36,61,-36,62,-35,62,-33,63,-33,63,-31,64,-29,64,-28,64,-27,64,-27,65,-24,65,-24,66,-23,66,-22,66,-21,66,-20,66,-18,67,-16,67,-18,67,-15,67,-13,67,-12,67,-12,67,-10,67,-10,67,-8,68,-6,67,-6,68,-5,67,-4,67,-2,68,-2,68,-1,67,3" fill="#ffc9a9" stroke="black" stroke-width="1.6666666666666665" stroke-linejoin="round" filter="url(#fuzzy)"></polyline><g transform="translate(29.17892208267699 -17.719849773143967)"><polyline id="rightCountour" points="-25.890030962450474,-0.409301931676459,-25.657527639067872,-0.5119977518734491,-25.405252534847424,-0.6200237657311145,-25.132832068803864,-0.7332496856762312,-24.839954524492853,-0.8515249749535447,-24.526368211081788,-0.9746797083597252,-24.191879624420615,-1.102525432977322,-23.836351608112615,-1.2348560289087187,-23.459701514585227,-1.371448570010085,-23.06189936616085,-1.5120641846253333,-22.642966016127687,-1.6564489163200729,-22.202971309810458,-1.8043345846155625,-21.742032245641305,-1.9554396457226688,-21.260311136230555,-2.109470053275816,-20.758013769437525,-2.2661201190669438,-20.235387569441336,-2.42507337377946,-19.753386010565443,-2.586664164740645,-19.235457056250148,-2.755134163584584,-18.681719288656673,-2.929760972719869,-18.092517609178906,-3.1097557930012245,-17.468406182734523,-3.294274479520265,-16.81013191510241,-3.482428021629107,-16.118618455813976,-3.6732924592574854,-15.394950719105857,-3.865918247584071,-14.640359915441572,-4.059339082122626,-13.85620908610968,-4.252580196283689,-13.043979133405955,-4.444666143472451,-12.205255338907193,-4.634628075783505,-11.34171436234412,-4.821510531353104,-10.455111713580969,-5.004377742429642,-9.547269690209262,-5.182319476222992,-8.620065773263432,-5.354456420593393,-7.6754214735656365,-5.519945126640528,-6.7152916212075375,-5.677982520253504,-5.7416540906764,-5.827809994682364,-4.756499954133174,-5.96871709619182,-3.7618240553500435,-6.1000448148578625,-2.759615996815004,-6.221188492567952,-1.7518515325110524,-6.331600360285405,-0.7404843588774481,-6.430791716638691,0.27256170353934106,-6.518334759896286,1.2854001452374657,-6.59386408538777,2.2961888272067963,-6.657077860431804,3.3031366721637014,-6.707738688831712,4.304509995066012,-6.745674176999271,5.298638480400554,-6.770777213767429,6.2839208137358025,-6.783005975952601,7.258829975032006,-6.78238367172721,8.22191820120133,-6.7689980338631495,9.171821625410406,-6.743000574906825,10.107264600617796,-6.704605616346481,11.027063714838771,-6.6540891038323995,11.930131505629923,-6.591787220510758,12.815479881285999,-6.5180948105317045,13.68222325624147,-6.433463624792394,14.52958140816926,-6.338400400975616,15.356882064269088,-6.233464789944693,16.16356322423792,-6.119267140555333,16.949175227414884,-5.996466154945086,17.713382571593243,-5.865766426361084,18.4559654909918,-5.727915871586725,19.17682130087816,-5.583703070027985,19.87596551633638,-5.433954521520023,20.553532752671437,-5.279531834914727,21.20977741494292,-5.1213288595099,21.8450741841205,-4.9602687713807505,22.460586527412296,-4.79555968269793,23.0571146108465,-4.626056211283382,23.634603099853035,-4.452171321219377,24.193028571875384,-4.27431641774454,24.73239851291668,-4.092899731985626,25.252750314085898,-3.9083247056893065,25.754150268143974,-3.720988375953957,26.23669256604999,-3.531279759961431,26.70049829350728,-3.339578239708862,27.145714427509617,-3.1462519467404295,27.572512832887327,-2.951656146879151,27.981089258853487,-2.756131624958671,28.37166233555001,-2.560003069555035,28.744472570593853,-2.363577457718482,25.009464683304945,2.9556372806386952,24.48418416206853,3.134219923907308,23.946724434273722,3.311449763252013,23.397469397798936,3.487087973817609,22.83684548487224,3.660884338765834,22.26531849654928,3.832578440538946,21.683390437191232,4.001900852123304,21.091596348942698,4.168574328312947,20.49050114620969,4.332314996973169,19.880696450137513,4.492833550304113,19.26279742308873,4.649836436104329,18.63743960312109,4.803027049034375,18.00527573846546,4.952106921880379,17.366972622003736,5.09677691681763,16.723207925746827,5.236738416674155,16.071294767668675,5.372916814254485,15.40895162340647,5.5059540768246285,14.73745647323036,5.635146455883644,14.058064938480777,5.759817081916632,13.372005668681254,5.879318031455539,12.680475775302577,5.993032351972046,11.984636335814006,6.100376035707756,11.285607991657578,6.200799933546907,10.584466663781317,6.293791600036861,9.882239409367292,6.3788770606615754,9.17990044339041,6.455622492473331,8.47836734864383,6.523635809187888,7.7784974978669235,6.582568141848362,7.081084711611629,6.632115206163004,6.386856175483162,6.672018547622159,5.6964696403909345,6.702066655499598,5.010510929445594,6.722095936843481,4.329491775138095,6.731991541562154,3.6538480104366613,6.731688029710061,2.983938137437591,6.721169872078946,2.320042297205762,6.700471775199623,1.6623616644407457,6.669678821859505,1.0110182906044383,6.628926418241177,0.3660554191460932,6.5784000387871755,-0.27256170353934017,6.518334759896286,-0.9049444977836645,6.449014573556504,-1.5312791773127934,6.370771472019981,-2.151824309273108,6.283984294625102,-2.7669077839809075,6.189077327871012,-3.376923170759069,6.086518649849722,-3.9823254362250218,5.976818210141146,-4.5836260013941015,5.860525636276186,-5.1813871139624545,5.738227757873179,-5.776215512133524,5.61054583955289,-6.368755356352237,5.478132513737329,-6.959680405311071,5.341668404437556,-7.549685412591948,5.201858433135775,-8.139476720308227,5.059427797866916,-8.729762026110757,4.915117616604928,-9.321239299922198,4.769680226059042,-9.914584826763651,4.623874126985208,-10.510440352037703,4.478458567117966,-11.109399305632,4.334187752827959,-11.711992081207487,4.191804680610328,-12.318670347035322,4.052034579509229,-12.929790364746687,3.9155779555836947,-13.545595292359476,3.7831032295200715,-14.166196447946078,3.6552389584962754,-14.79155351030623,3.532565633403082,-15.421453633009211,3.4156070425276965,-15.917105711230825,3.297552057460227,-16.410365114024966,3.181466710151062,-16.9008366925496,3.0675766500318096,-17.388065076737348,2.9560977836994913,-17.8715323871497,2.8472355735456576,-18.350655946831168,2.7411843363854986,-18.824785993163548,2.6381265420869613,-19.293203389720063,2.538232112199861,-19.755117338119558,2.4416577185849975,-20.20966308988075,2.348546082043267,-20.65589965827634,2.2590252709447767,-21.092807530187297,2.173207999857959,-21.51928637795698,2.0911909281786865,-21.93415277124538,2.0130539587593828,-22.33613788888329,1.9388595365381396" fill="white" stroke="white" stroke-width="0" stroke-linejoin="round" filter="url(#fuzzy)"></polyline></g><g transform="translate(-41.43674758521339 -21.709176662299406)"><polyline id="leftCountour" points="28.337304124190844,-0.2619510208485707,28.063513247092107,-0.3607495060780326,27.770238757486293,-0.4647283439584302,27.45744180753089,-0.5737753840937256,27.125120336417968,-0.6877576726162671,26.773307891173236,-0.8065223189158284,26.402072447455158,-0.9298973623686568,26.01151523035407,-1.057692639066516,25.601769535191277,-1.1897006485457293,25.172999548318145,-1.325697420516227,24.72539916791523,-1.4654433815905867,24.25919082479134,-1.6086842220130815,23.774624303182684,-1.7551517623887225,23.271975561551958,-1.9045648204123036,22.751545553387427,-2.0566300775974433,22.213659048002068,-2.211042946005637,21.683376107793812,-2.3666609618010885,21.123627291327313,-2.5292348768945527,20.53465083189003,-2.6980654410371376,19.916845980562154,-2.8723856264589793,19.270761574442826,-3.0513716120942234,18.597084908947767,-3.2341532012724117,17.89663091099774,-3.419823684683467,17.17033160991686,-3.607449160423482,16.419225902860074,-3.7960773229285567,15.644449611588918,-3.9847457326038485,14.847225827414857,-4.172489577955092,14.028855541129307,-4.358348942029767,13.190708554739604,-4.541375584975148,12.33421467183015,-4.720639254520433,11.46085516336781,-4.895233536190178,10.572154505770914,-5.064281255056221,9.669672388060974,-5.226939440835352,8.754995984916356,-5.3824038681398925,7.829732492447062,-5.529913183688436,6.895501923509916,-5.668752632283923,5.953930159383236,-5.79825739336631,5.0066422546202975,-5.9178155399469965,4.05525599190073,-6.026870631732251,3.1013756836990787,-6.124923954242835,2.146586217589708,-6.211536415737049,1.192447342007279,-6.286330113744404,0.24048818928197502,-6.3489895830171115,-0.7077979672313011,-6.399262736706655,-1.6509587251105875,-6.436961512572594,-2.5875873370921165,-6.461962236030862,-3.5163272707440476,-6.474205711848734,-4.43587654676939,-6.473697056293696,-5.344991859118989,-6.460505281543433,-6.242492480095296,-6.4347626441641115,-7.127263953627811,-6.396663769464229,-7.998261579900905,-6.346464563531168,-8.854513694514889,-6.284480924757739,-9.69512474536108,-6.211087266665876,-10.519278170391711,-6.126714863834701,-11.326239079465417,-6.031850032740204,-12.115356743449176,-5.927032159313699,-12.88606689375742,-5.812851585026307,-13.637893835509178,-5.68994736330667,-14.370452377484025,-5.559004898099095,-15.0834495820576,-5.420753476369342,-15.776686338297587,-5.275963706365285,-16.450058761400847,-5.1254448734396405,-17.10355942165256,-4.970042225241979,-17.737278406088162,-4.810634198087229,-18.351404216038897,-4.648129596307907,-18.94719665720211,-4.481736751165869,-19.52564586633886,-4.310311663292879,-20.08663146350085,-4.134255913560816,-20.63006119936771,-3.9539700941936755,-21.155870529247156,-3.769852227444575,-21.664022187075357,-3.582296184272733,-22.154505759417145,-3.391690103020489,-22.627337259466337,-3.198414808090281,-23.082558701045947,-3.0028422286216547,-23.5202376726085,-2.8053338171682594,-23.940466911236285,-2.606238968374839,-24.343363876641632,-2.4058934376542376,-24.72907032516717,-2.2046177598643903,-25.09775188378611,-2.0027156679853233,-24.812403297280913,2.655589522890333,-24.433919555306108,2.8235269051799845,-24.042899508327572,2.990195726648255,-23.639453402174958,3.155393616592086,-23.22371877554764,3.318908630618066,-22.795858819544044,3.4805202083523246,-22.356060737191104,3.640000131150433,-21.904534102973603,3.7971134798073103,-21.441509222363592,3.951619592267118,-20.967235491349765,4.103273021333166,-20.48197975596685,4.251824492377812,-19.986024671825017,4.397021861052361,-19.479667063639244,4.5386110709969625,-18.963216284758712,4.67633711155052,-18.436992576696227,4.809944975460592,-17.899280231265738,4.940245353810575,-17.348452333685106,5.06780831932649,-16.784977575578353,5.19203300831996,-16.20933375304198,5.312339311687651,-15.622005671690118,5.428169640315414,-15.023483047874457,5.538990658796003,-14.414258418327655,5.644294980309445,-13.794825070479167,5.743602815515112,-13.165675005692261,5.836463568304689,-12.527296947671168,5.922457371265059,-11.880174408287104,6.0011965537002325,-11.224783823072094,6.072327035061422,-10.56159276862942,6.135529636634368,-9.89105827420951,6.190521304332993,-9.213625239700157,6.237056235448499,-8.529724972279906,6.274926902203022,-7.839773853983435,6.303964964956908,-7.144172152427797,6.324042067918718,-6.443302986948368,6.335070510207121,-5.737531462393341,6.337003785113662,-5.02720398282562,6.3298369804156085,-4.3126477573809545,6.313607032587928,-3.59417051053117,6.2883928277634915,-2.8720604090013317,6.254315142290615,-2.146586217589708,6.211536415737049,-1.4179976961393461,6.160260349189485,-0.6865262499101492,6.10073132169771,0.04761415439974037,6.033233617712474,0.7842257947343567,5.958090458366234,1.5231257096133266,5.875662829445769,2.264143911669408,5.786348098905876,3.0071212865413015,5.69057841677318,3.751907164872926,5.58881889028917,4.498356555170248,5.481565527141566,5.246327025266875,5.36934293963313,5.995675220149544,5.252701802636977,6.746253003894647,5.132216058187545,7.49790321346696,5.008479859556278,8.250455012131724,4.882104247661124,9.003718830231236,4.753713552658988,9.7574808810771,4.623941513570181,10.511497239709293,4.49342710878402,11.265487472273154,4.362810090294625,12.01912780376555,4.232726214516072,12.772043811901291,4.103802162525939,13.523802634850934,3.9766501425863967,14.273904680601209,3.8518621677919054,15.021774825689153,3.7300040016926475,15.766753091061094,3.611608764742772,16.508084782807757,3.497170194422561,17.125396291905812,3.387785401020405,17.73717071751462,3.279637661890622,18.342778398329404,3.172943836969269,18.94154453671037,3.0679152409549952,19.53274784601874,2.964757131419352,20.11561919795282,2.863668196917102,20.68934026988411,2.7648400450965314,21.253042192193274,2.6684566908097587,21.805804195606296,2.574694044223043,22.34665225853045,2.4837193989270983,22.874557754390455,2.395690920047398,23.38843609896445,2.3107571323544898,23.88714539772011,2.2290564083743027,24.36948509315068,2.1507164564984596,24.834194612111045,2.0758538090945855" fill="white" stroke="white" stroke-width="0" stroke-linejoin="round" filter="url(#fuzzy)"></polyline></g><g transform="translate(29.17892208267699 -17.719849773143967)"><polyline id="rightUpper" points="-27.257718749962898,0.3120337073749817,-27.187461247391504,0.2647353954881243,-27.104974888008556,0.2121070806899571,-27.00916630431385,0.154029218365914,-26.899022382640062,0.09041112042300314,-26.773608424223543,0.02119009455585119,-26.632066306275117,-0.05366941648724932,-26.473612643050874,-0.13417669563829504,-26.297536946923017,-0.22031561224352725,-26.103199789450613,-0.31204548279738464,-25.890030962450474,-0.409301931676459,-25.657527639067872,-0.5119977518734491,-25.405252534847424,-0.6200237657311145,-25.132832068803864,-0.7332496856762312,-24.839954524492853,-0.8515249749535447,-24.526368211081788,-0.9746797083597252,-24.191879624420615,-1.102525432977322,-23.836351608112615,-1.2348560289087187,-23.459701514585227,-1.371448570010085,-23.06189936616085,-1.5120641846253333,-22.642966016127687,-1.6564489163200729,-22.202971309810458,-1.8043345846155625,-21.742032245641305,-1.9554396457226688,-21.260311136230555,-2.109470053275816,-20.758013769437525,-2.2661201190669438,-20.235387569441336,-2.42507337377946,-19.753386010565443,-2.586664164740645,-19.235457056250148,-2.755134163584584,-18.681719288656673,-2.929760972719869,-18.092517609178906,-3.1097557930012245,-17.468406182734523,-3.294274479520265,-16.81013191510241,-3.482428021629107,-16.118618455813976,-3.6732924592574854,-15.394950719105857,-3.865918247584071,-14.640359915441572,-4.059339082122626,-13.85620908610968,-4.252580196283689,-13.043979133405955,-4.444666143472451,-12.205255338907193,-4.634628075783505,-11.34171436234412,-4.821510531353104,-10.455111713580969,-5.004377742429642,-9.547269690209262,-5.182319476222992,-8.620065773263432,-5.354456420593393,-7.6754214735656365,-5.519945126640528,-6.7152916212075375,-5.677982520253504,-5.7416540906764,-5.827809994682364,-4.756499954133174,-5.96871709619182,-3.7618240553500435,-6.1000448148578625,-2.759615996815004,-6.221188492567952,-1.7518515325110524,-6.331600360285405,-0.7404843588774481,-6.430791716638691,0.27256170353934106,-6.518334759896286,1.2854001452374657,-6.59386408538777,2.2961888272067963,-6.657077860431804,3.3031366721637014,-6.707738688831712,4.304509995066012,-6.745674176999271,5.298638480400554,-6.770777213767429,6.2839208137358025,-6.783005975952601,7.258829975032006,-6.78238367172721,8.22191820120133,-6.7689980338631495,9.171821625410406,-6.743000574906825,10.107264600617796,-6.704605616346481,11.027063714838771,-6.6540891038323995,11.930131505629923,-6.591787220510758,12.815479881285999,-6.5180948105317045,13.68222325624147,-6.433463624792394,14.52958140816926,-6.338400400975616,15.356882064269088,-6.233464789944693,16.16356322423792,-6.119267140555333,16.949175227414884,-5.996466154945086,17.713382571593243,-5.865766426361084,18.4559654909918,-5.727915871586725,19.17682130087816,-5.583703070027985,19.87596551633638,-5.433954521520023,20.553532752671437,-5.279531834914727,21.20977741494292,-5.1213288595099,21.8450741841205,-4.9602687713807505,22.460586527412296,-4.79555968269793,23.0571146108465,-4.626056211283382,23.634603099853035,-4.452171321219377,24.193028571875384,-4.27431641774454,24.73239851291668,-4.092899731985626,25.252750314085898,-3.9083247056893065,25.754150268143974,-3.720988375953957,26.23669256604999,-3.531279759961431,26.70049829350728,-3.339578239708862,27.145714427509617,-3.1462519467404295,27.572512832887327,-2.951656146879151,27.981089258853487,-2.756131624958671,28.37166233555001,-2.560003069555035,28.744472570593853,-2.363577457718482,29.099781345623125,-2.1671424397052235,29.437869912843272,-1.9709647237092307,29.759038391573174,-1.775288460594016,30.063604764791364,-1.5803336286244214,30.3519038756821,-1.3862944181983985,30.624286424181598,-1.1933376165787912,30.881117963524105,-1.0016009926251277,31.12277789678808,-0.8111916815253966,31.349658473442354,-0.6221845695278367,31.56216378589228,-0.4346206786727165" fill="none" stroke="black" stroke-width="1.6666666666666665" stroke-linejoin="round" filter="url(#fuzzy)"></polyline><polyline id="rightLower" points="-25.30274293649178,1.4136067433370822,-25.119777746336236,1.4492834433195123,-24.906043181155905,1.4884126529976611,-24.66378781843111,1.5311450819755024,-24.395151963354927,1.5776069682338156,-24.102169936979024,1.627900779501073,-23.786772364359436,1.6821059146243247,-23.450788462702384,1.7402794049400854,-23.095948329510087,1.8024566156452198,-22.723885230726516,1.8686519471678298,-22.33613788888329,1.9388595365381396,-21.93415277124538,2.0130539587593828,-21.51928637795698,2.0911909281786865,-21.092807530187297,2.173207999857959,-20.65589965827634,2.2590252709447767,-20.20966308988075,2.348546082043267,-19.755117338119558,2.4416577185849975,-19.293203389720063,2.538232112199861,-18.824785993163548,2.6381265420869613,-18.350655946831168,2.7411843363854986,-17.8715323871497,2.8472355735456576,-17.388065076737348,2.9560977836994913,-16.9008366925496,3.0675766500318096,-16.410365114024966,3.181466710151062,-15.917105711230825,3.297552057460227,-15.421453633009211,3.4156070425276965,-14.79155351030623,3.532565633403082,-14.166196447946078,3.6552389584962754,-13.545595292359476,3.7831032295200715,-12.929790364746687,3.9155779555836947,-12.318670347035322,4.052034579509229,-11.711992081207487,4.191804680610328,-11.109399305632,4.334187752827959,-10.510440352037703,4.478458567117966,-9.914584826763651,4.623874126985208,-9.321239299922198,4.769680226059042,-8.729762026110757,4.915117616604928,-8.139476720308227,5.059427797866916,-7.549685412591948,5.201858433135775,-6.959680405311071,5.341668404437556,-6.368755356352237,5.478132513737329,-5.776215512133524,5.61054583955289,-5.1813871139624545,5.738227757873179,-4.5836260013941015,5.860525636276186,-3.9823254362250218,5.976818210141146,-3.376923170759069,6.086518649849722,-2.7669077839809075,6.189077327871012,-2.151824309273108,6.283984294625102,-1.5312791773127934,6.370771472019981,-0.9049444977836645,6.449014573556504,-0.27256170353934017,6.518334759896286,0.3660554191460932,6.5784000387871755,1.0110182906044383,6.628926418241177,1.6623616644407457,6.669678821859505,2.320042297205762,6.700471775199623,2.983938137437591,6.721169872078946,3.6538480104366613,6.731688029710061,4.329491775138095,6.731991541562154,5.010510929445594,6.722095936843481,5.6964696403909345,6.702066655499598,6.386856175483162,6.672018547622159,7.081084711611629,6.632115206163004,7.7784974978669235,6.582568141848362,8.47836734864383,6.523635809187888,9.17990044339041,6.455622492473331,9.882239409367292,6.3788770606615754,10.584466663781317,6.293791600036861,11.285607991657578,6.200799933546907,11.984636335814006,6.100376035707756,12.680475775302577,5.993032351972046,13.372005668681254,5.879318031455539,14.058064938480777,5.759817081916632,14.73745647323036,5.635146455883644,15.40895162340647,5.5059540768246285,16.071294767668675,5.372916814254485,16.723207925746827,5.236738416674155,17.366972622003736,5.09677691681763,18.00527573846546,4.952106921880379,18.63743960312109,4.803027049034375,19.26279742308873,4.649836436104329,19.880696450137513,4.492833550304113,20.49050114620969,4.332314996973169,21.091596348942698,4.168574328312947,21.683390437191232,4.001900852123304,22.26531849654928,3.832578440538946,22.83684548487224,3.660884338765834,23.397469397798936,3.487087973817609,23.946724434273722,3.311449763252013,24.48418416206853,3.134219923907308,25.009464683304945,2.9556372806386952,25.522227799976267,2.77592807505474,26.02218417946958,2.595304774253787,26.509096520087823,2.4139648795603827,26.982782716571847,2.232089735261698,27.443119025622483,2.0498433373439453,27.89004323142262,1.8673711422287966,28.32355781115928,1.684798875509812,28.743733100545622,1.502231340688851,29.15071045934311,1.3197512279125037,29.544705436883504,1.1374179227084984" fill="none" stroke="black" stroke-width="2.2222222222222223" stroke-linejoin="round" filter="url(#fuzzy)"></polyline><!--[--><circle r="4.634689380447692" cx="24.598535190684263" cy="0.9188628285056342" stroke="black" fill="none" stroke-width="1" filter="url(#fuzzy)" clip-path="url(#rightEyeClipPath)"></circle><circle r="4.999346329468449" cx="24.527955405348827" cy="1.8435889950323627" stroke="black" fill="none" stroke-width="1" filter="url(#fuzzy)" clip-path="url(#rightEyeClipPath)"></circle><circle r="3.515170488508195" cx="24.238146820476295" cy="2.2394688208080655" stroke="black" fill="none" stroke-width="1" filter="url(#fuzzy)" clip-path="url(#rightEyeClipPath)"></circle><circle r="3.3124029080217845" cx="27.158884631193313" cy="3.3792632328798486" stroke="black" fill="none" stroke-width="1" filter="url(#fuzzy)" clip-path="url(#rightEyeClipPath)"></circle><circle r="3.3772389967624474" cx="25.699394042885753" cy="0.8834283496660733" stroke="black" fill="none" stroke-width="1" filter="url(#fuzzy)" clip-path="url(#rightEyeClipPath)"></circle><circle r="4.845668599294959" cx="23.07641944687229" cy="1.0168018346868997" stroke="black" fill="none" stroke-width="1" filter="url(#fuzzy)" clip-path="url(#rightEyeClipPath)"></circle><circle r="3.4397026183641897" cx="27.582418424238536" cy="0.4456129821629551" stroke="black" fill="none" stroke-width="1" filter="url(#fuzzy)" clip-path="url(#rightEyeClipPath)"></circle><circle r="3.451146102408323" cx="26.791519606254525" cy="3.374621654556445" stroke="black" fill="none" stroke-width="1" filter="url(#fuzzy)" clip-path="url(#rightEyeClipPath)"></circle><circle r="4.773667972742356" cx="25.233433610562066" cy="3.5704339729491936" stroke="black" fill="none" stroke-width="1" filter="url(#fuzzy)" clip-path="url(#rightEyeClipPath)"></circle><circle r="3.278742394766375" cx="25.30210305963925" cy="3.614211156680617" stroke="black" fill="none" stroke-width="1" filter="url(#fuzzy)" clip-path="url(#rightEyeClipPath)"></circle><!--]--></g><g transform="translate(-41.43674758521339 -21.709176662299406)"><polyline id="leftUpper" points="30.04082422253902,0.433051022269345,29.9507965629309,0.3870278603088517,29.843956480338353,0.3360377130657348,29.71983240052405,0.2799370261224242,29.578001328294153,0.21861171582341066,29.41808766829747,0.15197630254619965,29.23976204582453,0.07997304397226923,29.042740127606685,0.002571068358024453,28.82678144261521,-0.08023449219424683,28.591688202860443,-0.1684233684654186,28.337304124190844,-0.2619510208485707,28.063513247092107,-0.3607495060780326,27.770238757486293,-0.4647283439584302,27.45744180753089,-0.5737753840937256,27.125120336417968,-0.6877576726162671,26.773307891173236,-0.8065223189158284,26.402072447455158,-0.9298973623686568,26.01151523035407,-1.057692639066516,25.601769535191277,-1.1897006485457293,25.172999548318145,-1.325697420516227,24.72539916791523,-1.4654433815905867,24.25919082479134,-1.6086842220130815,23.774624303182684,-1.7551517623887225,23.271975561551958,-1.9045648204123036,22.751545553387427,-2.0566300775974433,22.213659048002068,-2.211042946005637,21.683376107793812,-2.3666609618010885,21.123627291327313,-2.5292348768945527,20.53465083189003,-2.6980654410371376,19.916845980562154,-2.8723856264589793,19.270761574442826,-3.0513716120942234,18.597084908947767,-3.2341532012724117,17.89663091099774,-3.419823684683467,17.17033160991686,-3.607449160423482,16.419225902860074,-3.7960773229285567,15.644449611588918,-3.9847457326038485,14.847225827414857,-4.172489577955092,14.028855541129307,-4.358348942029767,13.190708554739604,-4.541375584975148,12.33421467183015,-4.720639254520433,11.46085516336781,-4.895233536190178,10.572154505770914,-5.064281255056221,9.669672388060974,-5.226939440835352,8.754995984916356,-5.3824038681398925,7.829732492447062,-5.529913183688436,6.895501923509916,-5.668752632283923,5.953930159383236,-5.79825739336631,5.0066422546202975,-5.9178155399469965,4.05525599190073,-6.026870631732251,3.1013756836990787,-6.124923954242835,2.146586217589708,-6.211536415737049,1.192447342007279,-6.286330113744404,0.24048818928197502,-6.3489895830171115,-0.7077979672313011,-6.399262736706655,-1.6509587251105875,-6.436961512572594,-2.5875873370921165,-6.461962236030862,-3.5163272707440476,-6.474205711848734,-4.43587654676939,-6.473697056293696,-5.344991859118989,-6.460505281543433,-6.242492480095296,-6.4347626441641115,-7.127263953627811,-6.396663769464229,-7.998261579900905,-6.346464563531168,-8.854513694514889,-6.284480924757739,-9.69512474536108,-6.211087266665876,-10.519278170391711,-6.126714863834701,-11.326239079465417,-6.031850032740204,-12.115356743449176,-5.927032159313699,-12.88606689375742,-5.812851585026307,-13.637893835509178,-5.68994736330667,-14.370452377484025,-5.559004898099095,-15.0834495820576,-5.420753476369342,-15.776686338297587,-5.275963706365285,-16.450058761400847,-5.1254448734396405,-17.10355942165256,-4.970042225241979,-17.737278406088162,-4.810634198087229,-18.351404216038897,-4.648129596307907,-18.94719665720211,-4.481736751165869,-19.52564586633886,-4.310311663292879,-20.08663146350085,-4.134255913560816,-20.63006119936771,-3.9539700941936755,-21.155870529247156,-3.769852227444575,-21.664022187075357,-3.582296184272733,-22.154505759417145,-3.391690103020489,-22.627337259466337,-3.198414808090281,-23.082558701045947,-3.0028422286216547,-23.5202376726085,-2.8053338171682594,-23.940466911236285,-2.606238968374839,-24.343363876641632,-2.4058934376542376,-24.72907032516717,-2.2046177598643903,-25.09775188378611,-2.0027156679853233,-25.44959762410251,-1.8004725117961495,-25.784819636351557,-1.5981536765520699,-26.1036526033998,-1.3960030016613647,-26.406353374745482,-1.1942411993623967,-26.693200540518742,-0.9930642734006052,-26.964494005481928,-0.7926419377054996,-27.22055456302989,-0.5931160350676659,-27.461723469190154,-0.3945989558157559,-27.688362016623312,-0.1971720564934898,-27.900851108623208,-0.0008840785366499571" fill="none" stroke="black" stroke-width="2.2222222222222223" stroke-linejoin="round" filter="url(#fuzzy)"></polyline><polyline id="leftLower" points="28.18868478929486,1.5351005415740029,27.98377915317354,1.5716055904466115,27.74503916295443,1.612025970415781,27.474399944682933,1.6563850632868093,27.173723082126628,1.7046899559440973,26.844797969439355,1.7569319522408398,26.48934316382504,1.8130870848887128,26.109007738201687,1.8731166273475663,25.705372633865284,1.9369676057151126,25.279952013153792,2.0045733106166166,24.834194612111045,2.0758538090945855,24.36948509315068,2.1507164564984596,23.88714539772011,2.2290564083743027,23.38843609896445,2.3107571323544898,22.874557754390455,2.395690920047398,22.34665225853045,2.4837193989270983,21.805804195606296,2.574694044223043,21.253042192193274,2.6684566908097587,20.68934026988411,2.7648400450965314,20.11561919795282,2.863668196917102,19.53274784601874,2.964757131419352,18.94154453671037,3.0679152409549952,18.342778398329404,3.172943836969269,17.73717071751462,3.279637661890622,17.125396291905812,3.387785401020405,16.508084782807757,3.497170194422561,15.766753091061094,3.611608764742772,15.021774825689153,3.7300040016926475,14.273904680601209,3.8518621677919054,13.523802634850934,3.9766501425863967,12.772043811901291,4.103802162525939,12.01912780376555,4.232726214516072,11.265487472273154,4.362810090294625,10.511497239709293,4.49342710878402,9.7574808810771,4.623941513570181,9.003718830231236,4.753713552658988,8.250455012131724,4.882104247661124,7.49790321346696,5.008479859556278,6.746253003894647,5.132216058187545,5.995675220149544,5.252701802636977,5.246327025266875,5.36934293963313,4.498356555170248,5.481565527141566,3.751907164872926,5.58881889028917,3.0071212865413015,5.69057841677318,2.264143911669408,5.786348098905876,1.5231257096133266,5.875662829445769,0.7842257947343567,5.958090458366234,0.04761415439974037,6.033233617712474,-0.6865262499101492,6.10073132169771,-1.4179976961393461,6.160260349189485,-2.146586217589708,6.211536415737049,-2.8720604090013317,6.254315142290615,-3.59417051053117,6.2883928277634915,-4.3126477573809545,6.313607032587928,-5.02720398282562,6.3298369804156085,-5.737531462393341,6.337003785113662,-6.443302986948368,6.335070510207121,-7.144172152427797,6.324042067918718,-7.839773853983435,6.303964964956908,-8.529724972279906,6.274926902203022,-9.213625239700157,6.237056235448499,-9.89105827420951,6.190521304332993,-10.56159276862942,6.135529636634368,-11.224783823072094,6.072327035061422,-11.880174408287104,6.0011965537002325,-12.527296947671168,5.922457371265059,-13.165675005692261,5.836463568304689,-13.794825070479167,5.743602815515112,-14.414258418327655,5.644294980309445,-15.023483047874457,5.538990658796003,-15.622005671690118,5.428169640315414,-16.20933375304198,5.312339311687651,-16.784977575578353,5.19203300831996,-17.348452333685106,5.06780831932649,-17.899280231265738,4.940245353810575,-18.436992576696227,4.809944975460592,-18.963216284758712,4.67633711155052,-19.479667063639244,4.5386110709969625,-19.986024671825017,4.397021861052361,-20.48197975596685,4.251824492377812,-20.967235491349765,4.103273021333166,-21.441509222363592,3.951619592267118,-21.904534102973603,3.7971134798073103,-22.356060737191104,3.640000131150433,-22.795858819544044,3.4805202083523246,-23.22371877554764,3.318908630618066,-23.639453402174958,3.155393616592086,-24.042899508327572,2.990195726648255,-24.433919555306108,2.8235269051799845,-24.812403297280913,2.655589522890333,-25.178269421762625,2.4865754190820937,-25.531467190072803,2.316664943947906,-25.871978077814536,2.1460260008603425,-26.19981741534304,1.9748130886620192,-26.51503602823627,1.8031663439556889,-26.817721877765557,1.631210583394336,-27.108001701366174,1.4590543459712855,-27.38604265310797,1.2867889353102961,-27.652053944165985,1.1144874619556617,-27.90628848329105,0.9422038856623072" fill="none" stroke="black" stroke-width="2.2222222222222223" stroke-linejoin="round" filter="url(#fuzzy)"></polyline><!--[--><circle r="3.2539805104110924" cx="10.6045036175969" cy="-2.672566058323695" stroke="black" fill="none" stroke-width="1" filter="url(#fuzzy)" clip-path="url(#leftEyeClipPath)"></circle><circle r="3.9245529933424366" cx="12.584652978916415" cy="-3.25240271660229" stroke="black" fill="none" stroke-width="1" filter="url(#fuzzy)" clip-path="url(#leftEyeClipPath)"></circle><circle r="4.764537201717442" cx="11.432815085566965" cy="-1.0303396804016391" stroke="black" fill="none" stroke-width="1" filter="url(#fuzzy)" clip-path="url(#leftEyeClipPath)"></circle><circle r="3.1239036312948567" cx="9.914197312536833" cy="1.0812894820483399" stroke="black" fill="none" stroke-width="1" filter="url(#fuzzy)" clip-path="url(#leftEyeClipPath)"></circle><circle r="3.836787178360911" cx="12.77161673114638" cy="-0.4218416741486144" stroke="black" fill="none" stroke-width="1" filter="url(#fuzzy)" clip-path="url(#leftEyeClipPath)"></circle><circle r="4.866613142921247" cx="12.580991712078026" cy="-0.74384450500754" stroke="black" fill="none" stroke-width="1" filter="url(#fuzzy)" clip-path="url(#leftEyeClipPath)"></circle><circle r="4.737105585873043" cx="9.646889444177747" cy="-2.5847327785206553" stroke="black" fill="none" stroke-width="1" filter="url(#fuzzy)" clip-path="url(#leftEyeClipPath)"></circle><circle r="4.855289610067317" cx="10.361958309115149" cy="0.9859181610071914" stroke="black" fill="none" stroke-width="1" filter="url(#fuzzy)" clip-path="url(#leftEyeClipPath)"></circle><circle r="4.760127048712208" cx="13.679733629364023" cy="1.0285955009673113" stroke="black" fill="none" stroke-width="1" filter="url(#fuzzy)" clip-path="url(#leftEyeClipPath)"></circle><circle r="4.766990129615458" cx="9.134780886655546" cy="0.7740224865969427" stroke="black" fill="none" stroke-width="1" filter="url(#fuzzy)" clip-path="url(#leftEyeClipPath)"></circle><!--]--></g><g id="hairs"><!--[--><polyline points="17,-73,13.14516199443844,-68.94467948720417,17.289350033057566,-62.03682307915194,10.424431611257603,-58.40720919726472,-0.11752563319448989,-57.59801155314166,-5.960201948185345,-58.0323487357391,-5.38571870399831,-59.00272752225505,-1.25926357068156,-60.18671245751441,2.894408405173283,-61.049180548606664,5.027346417080047,-61.04126355957328,4.808704244087829,-60.097008610195054,3.0519949466684086,-58.69258563847477,0.961203015831189,-57.38776185519174,-0.7109983649984568,-56.41232941093715,-2.292301504133059,-55.80160256764515,-4.859575875915402,-55.87218049344004,-8.588066580743533,-57.21828766775533,-10.844162302184518,-59.73978829504559,-6.17663588604899,-61.49029801211598,10.503579880413167,-59.09251562708046,37.88466647188429,-50.763771058401126,57,-43" fill="none" stroke="rgb(128, 128, 128)" stroke-width="2" stroke-linejoin="round" filter="url(#fuzzy)"></polyline><polyline points="-15,-74,-34.30333385522149,-63.541344572349864,-32.67372948480619,-61.359038859912715,-19.447621941196495,-59.480770200107685,-1.3172907753472045,-56.447528635931185,14.86633579407957,-54.239093189632044,23.99240121696255,-54.60550898268287,24.663988511043744,-57.64750190979039,18.955579686360878,-62.13660667515174,10.649879030625918,-66.48513636550928,3.2713445075644776,-69.56145012177429,-1.2836527070673864,-70.99089845767003,-3.2090214332642777,-70.97153164780705,-4.207059082696607,-69.8487960973522,-5.942218116185973,-67.70569287467926,-8.232253474924864,-64.14331888040405,-8.443204445800504,-58.469145000172915,-3.782428028162154,-50.93836602724654,0.5624424960499717,-46.63178348458833,-39,-64" fill="none" stroke="rgb(128, 128, 128)" stroke-width="2" stroke-linejoin="round" filter="url(#fuzzy)"></polyline><polyline points="-22,-72,-16.806051382728857,-73.20238467696302,-15.989881544058681,-73.14759406685477,-16.108639162793995,-72.58986262763938,-15.593571761715522,-72.21829937388664,-14.645812952861164,-72.17775374807302,-14.021696870285316,-72.18262924315854,-14.148731111343004,-71.8662846867099,-14.67486199906707,-71.10683125060153,-14.298195339378687,-70.16966301627187,-11.306509129928852,-69.47149549439551,-4.846357422796363,-68.93593904220563,4.530585424297991,-67.4256810189783,16.58502182126479,-63.38929244443199,31.80130890296995,-58.375753876012844,34,-66" fill="none" stroke="rgb(128, 128, 128)" stroke-width="2" stroke-linejoin="round" filter="url(#fuzzy)"></polyline><polyline points="59,-39,10.867927195072953,-54.471566969824835,11.95858097490623,-59.33107995500928,17.665111954293955,-60.98397368846995,17.24858756090472,-62.42813648596899,12.38537829159745,-63.82546721525447,6.75564348952669,-64.75541610314286,2.4081374196866543,-64.89546142321834,-0.6036384550670049,-64.20330348942612,-3.218444216218353,-62.959391848323826,-5.9968465277002565,-61.60405077546787,-8.18227219581604,-60.455522298812866,-7.8451405003337165,-59.54997644053154,-3.1518477045704407,-58.731476123038796,6.045713619920066,-57.877619877097935,17.46598923263769,-57.02791826189478,27.094008182864837,-56.29944416607049,30.79518322449556,-55.735102880845666,25.77191990771396,-55.39216606146305,11.80361030339876,-55.77844579954083,-5.749325071588573,-58.15815016566496,-9.933713754481087,-63.71961085979124,26,-70" fill="none" stroke="rgb(128, 128, 128)" stroke-width="2" stroke-linejoin="round" filter="url(#fuzzy)"></polyline><polyline points="-54,-49,-12.684589656724128,-56.09752806005587,1.897864941389833,-54.51423733982125,4.12334617772223,-54.48336182018064,6.955832515634584,-55.62468223918293,11.010579692557258,-57.682545497656974,13.185003912567717,-60.155500395593144,12.340955671416452,-61.99135844597389,9.732670107867854,-62.267140508002676,7.223888437311509,-60.78993372335813,5.880669593811035,-58.151756286621094,5.804854174327972,-55.38427819806538,6.747694641902174,-53.48900733644557,8.583078621573282,-53.0434417649287,11.069056373611827,-54.06562620220724,13.120321777002573,-56.289989756616706,12.541170372097518,-59.691060045884555,7.289852206852094,-64.51254023313204,-1.739518971674721,-70.09423164610361,-9.520508549143212,-73.81730996506397,-15,-74" fill="none" stroke="rgb(128, 128, 128)" stroke-width="2" stroke-linejoin="round" filter="url(#fuzzy)"></polyline><polyline points="-45,-60,-8.52902509493057,-67.14702621656183,3.2388040377151195,-66.3572116929444,9.29249003274232,-62.301635789995196,16.23362877101211,-58.12603148929226,24.290219203365645,-55.14050675841736,30.567458278147914,-53.83871347674697,32.491774210330775,-54.35958167876135,29.566561078994575,-56.40329176560606,23.254660764504287,-59.1690166794212,15.851734112795235,-61.59257103149681,9.329980611801147,-62.763402700424194,4.692268509700024,-62.29045868989592,1.8714046452186606,-60.486593143692254,0.041717048145753555,-58.31895666104333,-1.7126605944550872,-57.05603169194297,-3.5812824432479515,-57.573536855595776,-4.71224509406061,-59.52780587036601,-3.878228957063292,-60.99052653004766,0.02944007600969689,-59.27125007504399,10.073167660156784,-53.18132417060658,32.57532299498601,-46.177236256324065,53,-49" fill="none" stroke="rgb(128, 128, 128)" stroke-width="2" stroke-linejoin="round" filter="url(#fuzzy)"></polyline><polyline points="11,-74,26.880921728341324,-62.197222747858014,24.790732902969296,-63.24475069176389,25.208726498172755,-63.73294566828209,27.447522888873294,-63.01489225269997,29.105278103540115,-61.86424667194781,29.123204011660352,-60.522340629718784,27.154589996086532,-59.04167129098729,23.48505241615983,-57.47006713031573,19.2137795769223,-55.78755656025436,15.904665821655248,-53.920298461060945,14.77916999633198,-51.904505154239445,15.988764107227325,-50.040438771247864,18.34703401985577,-48.8555348442773,19.618554968241348,-48.84745941603076,17.345965861284913,-50.1657658362491,10.080551990292745,-52.47384281480419,-1.446774527561952,-55.139165130730696,-14.012108925563023,-57.66002127753667,-23.035663487248147,-59.98708715127016,-24.750383041954898,-62.35000918748999,-17.78370980404169,-64.48237588554859,-2.5267164469834835,-64.4350380410635,21.693377181033693,-56.55043850266676,64,-27" fill="none" stroke="rgb(128, 128, 128)" stroke-width="2" stroke-linejoin="round" filter="url(#fuzzy)"></polyline><polyline points="42,-60,50.4279307399094,-48.69625511189464,43.54734001593218,-50.7269439347097,28.037998796712603,-56.613181896249,10.524443386671104,-61.590707890523866,-3.6770141563234904,-65.07796587325237,-11.96944891316784,-67.64229706756687,-14.673518925840368,-69.56821263180787,-13.683790296840138,-70.76621736702127,-10.801094055175781,-71.09637451171875,-6.824674938654781,-70.58457628486254,-1.7094704041829203,-69.40468712969232,4.589400830579197,-67.69970903629728,11.286787602988019,-65.41932646310164,16.470570517900082,-62.405351672683324,17.298536560351437,-58.94442662431797,10.644801842397943,-56.92936795520837,-2.8351057288369645,-61.098627297895796,5,-75" fill="none" stroke="rgb(128, 128, 128)" stroke-width="2" stroke-linejoin="round" filter="url(#fuzzy)"></polyline><polyline points="-28,-70,-17.62457510474501,-67.9629760962679,6.414904037710952,-62.241816702558616,24.837310705205272,-57.37360382856402,31.433494322810716,-56.14368567130971,29.203989474599034,-57.164373077336194,24.340329309732862,-58.288001788084216,21.523006879495803,-58.796969849239545,21.53650299532569,-59.34240658607294,21.72333827774873,-60.87037591247258,18.66519324433562,-63.75971256904794,11.144405560177784,-67.54391147943646,1.1973516022251465,-71.05568015561524,-7.515705744162597,-73.02795675914186,-11.654821149253886,-73.42245310295601,-3,-75" fill="none" stroke="rgb(128, 128, 128)" stroke-width="2" stroke-linejoin="round" filter="url(#fuzzy)"></polyline><polyline points="3,-75,10.576166054779325,-71.44817743972983,12.676573766630035,-69.75469029810043,18.535921570040422,-67.77549897037026,24.10245919266298,-65.87393769726401,26.20351128796606,-64.51957660796819,24.056446547795268,-63.728348655897356,18.848744989232014,-63.07127889550499,12.831251134940253,-62.04759729583489,8.115512867475427,-60.531069425247985,5.749125926341414,-58.90331911221075,5.4849972380744925,-57.76114373665881,6.18287386420472,-57.45810188412854,6.515683621248817,-57.872137858202336,5.672047026566864,-58.57625388924929,3.822311043650833,-59.21708379542414,2.100800675732791,-59.7092034793085,1.898967503062661,-60.03064998128212,3.690970401075514,-59.82022203292664,6.441699390311267,-58.25668894302696,9.030220118588357,-54.63742916819734,13.478117452109956,-49.93395314152469,24.237867906093015,-49.907114821812655,21,-72" fill="none" stroke="rgb(128, 128, 128)" stroke-width="2" stroke-linejoin="round" filter="url(#fuzzy)"></polyline><polyline points="-56,-47,-0.15212561752678444,-55.7758023071751,6.24953469459113,-64.38091927872254,4.7483076191511495,-68.18542856893448,7.483949758468697,-67.56280353997715,15.032286133389267,-64.24241218801889,24.386468108243335,-60.01908461059823,32.22866457866227,-56.30944781135127,36.04734039745449,-54.15201306281524,34.6098265608407,-54.14665403606824,28.43611211248958,-56.219912093953916,20.017311295617702,-59.526099732264264,13.16164236458822,-62.729081418812484,11.27754142364987,-64.56490809236325,15.213446180353033,-64.430972573311,21.807083843280715,-62.84389134784364,24.282194504513804,-61.576798292523804,15.566810956531807,-62.971935311122486,-3.5646956029574666,-68.05718271216337,-7,-75" fill="none" stroke="rgb(128, 128, 128)" stroke-width="2" stroke-linejoin="round" filter="url(#fuzzy)"></polyline><polyline points="59,-41,51.532464731046964,-41.26708347665852,29.319212540336572,-48.9962322559538,10.216549938349349,-53.16851557900015,-0.22731148759782155,-54.62897350269388,-4.290186187256942,-55.815479957508025,-4.179225047415265,-57.31169754138517,-0.2925781639058722,-58.27012047715048,7.187413142659262,-57.77208134175638,16.956558657330792,-55.737979849758254,26.64570910645487,-53.02619954247887,33.82687434077617,-50.87084928283333,37.09907534583004,-50.0928694576936,36.53066486759539,-50.609301319821306,33.168352290206336,-51.585003665464455,27.961931420929687,-52.14795220750339,21.03316838516957,-52.13673622937331,12.210027396932283,-52.20917094649465,2.7420412317911818,-53.09190954396013,-3.5386881604253517,-54.68939371603222,-2.190932745081299,-56.43709447110136,5.997378750054656,-59.37252775103778,10.303469894848453,-66.83405921804096,5,-75" fill="none" stroke="rgb(128, 128, 128)" stroke-width="2" stroke-linejoin="round" filter="url(#fuzzy)"></polyline><polyline points="-22,-72,5.489470254010938,-67.83318587559691,19.753287253184762,-62.68743211755407,16.272793937152713,-60.62615513393643,5.639199920114604,-59.86327441206923,-2.3781121642219167,-59.65900516687084,-4.299901909530529,-60.2508380319085,-1.3756244736030918,-61.68483922790773,3.7279363721181857,-63.45678852296916,8.915264030056374,-64.88790930408379,13.03089880414395,-65.62380206652959,15.564401657909684,-65.80535046326567,16.460902512073517,-65.84814697504044,16.124472327507444,-66.08157335226096,15.316634680135799,-66.55599276115775,14.809953595107185,-67.1228866528893,15.055893828725175,-67.62501691253838,16.233377339036874,-67.95847035120512,18.61443908577674,-67.96738554730106,22.628240389471408,-67.39540035371017,28.13492117131421,-66.11372939220112,33.466824686918144,-64.50369115891347,35.47772300398015,-63.63680409221509,30.011859226910225,-65.48121148446805,8,-75" fill="none" stroke="rgb(128, 128, 128)" stroke-width="2" stroke-linejoin="round" filter="url(#fuzzy)"></polyline><polyline points="-19,-73,-36.26364316552896,-61.59894979927365,-36.872983165284076,-60.17705774671241,-30.59781741605003,-58.95880013739282,-20.54491234035231,-57.71330969687551,-10.695317692862236,-57.54677681685637,-4.119058310483329,-58.69290914649547,-2.1443122741699,-60.45417215701451,-4.7555084228515625,-61.85394287109375,-10.732772372046947,-62.278655902206836,-17.395803657069596,-61.67683791220507,-20.7359316712288,-60.27216779920298,-16.649710374185815,-58.26540645118803,-3.68672565048787,-56.25987275811601,12.663319039209423,-56.60385211161075,16.925095613043844,-63.71633373521724,-4,-75" fill="none" stroke="rgb(128, 128, 128)" stroke-width="2" stroke-linejoin="round" filter="url(#fuzzy)"></polyline><polyline points="-11,-75,-4.905954393671936,-69.33854917680726,-2.4326691731306203,-64.66291626720694,-3.2214939979186195,-64.03568596056064,-0.31511089390162456,-64.81869637855162,5.915515706861598,-64.77690611159278,11.73152398762267,-63.7719919118682,14.362319311415451,-62.84047594063463,13.420709621765067,-62.86906035634629,10.14400863647461,-63.95494842529297,6.048191761596011,-65.4925306884476,2.067796051156494,-66.62666848720242,-1.5457229134827708,-66.77089712464846,-4.768554094280934,-66.00286290334937,-7.175503989813033,-65.1388397386577,-7.6026590101884475,-65.31125053719387,-4.339483615954043,-67.21945524200098,3.8959190819789153,-70.79294114362042,8,-75" fill="none" stroke="rgb(128, 128, 128)" stroke-width="2" stroke-linejoin="round" filter="url(#fuzzy)"></polyline><polyline points="19,-72,2.9123187751768382,-69.27281745018755,15.424075069910744,-63.39138808927518,29.625884118986964,-57.99611599489558,38.34947983756649,-54.735392778174074,41.48206285377686,-53.76150687485902,40.20750944323298,-54.8367902739555,35.632306409007036,-57.28963453771952,28.91643994994988,-60.08055178129201,21.541853980735173,-62.20023033879579,15.195280402281545,-63.088576063981996,11.272018791660923,-62.82453442485781,10.37690532207489,-62.00575453042984,12.208861549278858,-61.377716372557664,15.886897205590369,-61.39388464262041,20.452234550783736,-61.93995076392363,25.243634680718422,-62.37224324840782,30.002980363088277,-61.85391147566563,34.64576880767662,-59.865025634323786,38.610183256118134,-56.75925407299422,39.95939053692948,-54.16451717060099,35.227901633238645,-54.68741536572398,21.939648229048778,-60.09362149102249,6.055566348875863,-68.1592001843292,17,-73" fill="none" stroke="rgb(128, 128, 128)" stroke-width="2" stroke-linejoin="round" filter="url(#fuzzy)"></polyline><polyline points="53,-49,42.18346653382061,-54.12650483784432,25.35917780066091,-62.757455490831376,16.1406965381474,-67.06587727805204,15.199042522516688,-66.96362816392116,18.473195198019788,-64.18683092131603,21.842649302916822,-60.48781246340841,23.18977924009371,-57.05736851283864,22.32045084242142,-54.48823064235085,19.86494082898697,-53.033060318009,16.493039952285276,-52.80720052461467,12.92919635772705,-53.74338388442993,10.128077133612901,-55.45147082279953,8.796704786269249,-57.27310370791552,8.422102540256677,-58.61916163255137,6.981075508966443,-59.36117269048379,2.2817881826667836,-59.918882867818915,-5.716697347371988,-60.86879075012859,-13.841381671963344,-62.293976249199396,-17.75646776562173,-63.469219751768875,-16.242075687948283,-63.474901911330264,-15.778574481006924,-62.28303696745259,-47,-58" fill="none" stroke="rgb(128, 128, 128)" stroke-width="2" stroke-linejoin="round" filter="url(#fuzzy)"></polyline><polyline points="28,-69,2.5745524531766253,-71.99876689033097,0.6670313095895312,-72.304650149897,3.352827165371785,-70.88434510039444,2.0281702985533836,-68.3269808774738,-2.9969370016025056,-65.50822169481627,-7.155630495749725,-63.14737319907322,-6.743864984001544,-61.43360063928816,-1.7254044320888988,-60.25783435021653,4.765972900868957,-59.62982805342972,9.021675269346698,-59.75108506495777,9.260186745063496,-60.71786191439029,6.373711793288284,-62.243673917982534,2.703807633598761,-63.726540759371325,0.03932254389670785,-64.5927729391797,-1.4496918904978104,-64.55870874002362,-2.408609577683137,-63.56346831477254,-2.546193978052046,-61.56741891899395,-0.6549253809963502,-58.808518826089845,1.7756423355301938,-57.012813225719356,-0.09344569923178447,-60.78184401591318,16,-73" fill="none" stroke="rgb(128, 128, 128)" stroke-width="2" stroke-linejoin="round" filter="url(#fuzzy)"></polyline><!--]--></g><g id="lineNose"><path d="M -7.616689979408999 11.208943842470118, Q9.37155522725927 8.761218824851223,0.8774326239251353 -4.08108033898264" fill="none" stroke="black" stroke-width="3" stroke-linejoin="round" filter="url(#fuzzy)"></path></g><g id="mouth"><polyline points="-16.768867784610137,72.81878391431692,-16.644811504867306,71.53293581215564,-16.51217649306147,70.27581529942684,-16.371121309320223,69.04731567134347,-16.221804513771126,67.84733022311849,-16.064384666541763,66.67575224996486,-15.899020327759711,65.53247504709555,-15.725870057552545,64.41739190972352,-15.545092416047847,63.33039613306172,-15.356845963373189,62.271381012323126,-15.161289259656147,61.24023984272069,-14.958580865024297,60.23686591946737,-14.748879339605223,59.261152537776134,-14.532343243526492,58.31299299285993,-14.309131136915687,57.392280579931736,-14.079401579900386,56.49890859420449,-13.84331313260816,55.63277033089117,-13.601024355166594,54.79375908520473,-13.352693807703256,53.98176815235813,-13.09848005034573,53.19669082756433,-12.83854164322159,52.4384204060363,-12.57303714645841,51.70685018298699,-12.30212512018377,51.00187345362937,-12.025964124525247,50.32338351317639,-11.744712719610417,49.67127365684102,-11.458529465566858,49.0454371798362,-11.167572922522144,48.44576737737492,-10.872001650603853,47.87215754467013,-10.571974209939562,47.32450097693478,-10.26764916065685,46.802690969381835,-9.95918506288329,46.30662081722427,-9.64674047674646,45.83618381567502,-9.33047396237394,45.39127325994707,-9.010544079893304,44.97178244525336,-8.687109389432127,44.57760466680687,-8.36032845111799,44.20863321982055,-8.030359825078468,43.86476139950735,-7.697362071441137,43.54588250108024,-7.361493750333574,43.2518898197522,-7.022913421883356,42.982676650736174,-6.681779646218061,42.73813628924512,-6.338250983465266,42.51816203049197,-5.992485993752544,42.32264716968975,-5.644643237207477,42.15148500205137,-5.294881273957639,42.004568822789814,-4.943358664130607,41.881791927118016,-4.590233967853958,41.78304761024897,-4.235665745255268,41.70822916739562,-3.879812556462115,41.657229893770925,-3.5228329616020755,41.62994308458784,-3.164885520802727,41.62626203505934,-2.806128794191646,41.646080040398374,-2.446721341896408,41.68929039581792,-2.086821724044591,41.75578639653093,-1.7265885007637713,41.84546133775035,-1.3661802321815273,41.95820851468915,-1.0057554784254323,42.09392122256029,-0.6454727996230665,42.25249275657673,-0.2854907559020057,42.43381641195143,0.07403209261017274,42.63778548389736,0.4329371857858937,42.86429326762748,0.7910659634975792,43.11323305835474,1.1482598656176526,43.38449815129209,1.5043603320185364,43.67798184165252,1.8592088025726552,43.993577424648976,2.21264671715243,44.3311781954944,2.564515515630287,44.69067744940179,2.9146566378786476,45.07196848158409,3.262911523769934,45.47494458725425,3.6091216131765727,45.899499061625235,3.953128345970982,46.345525199910014,4.29477316202559,46.812916297321536,4.633897501212815,47.301565649072764,4.970342803405084,47.811366550376675,5.30395050847482,48.34221229644621,5.634562056294445,48.893996182494334,5.962018886736383,49.466611503734015,6.286162439673054,50.0599515553782,6.606834154976887,50.67390963263987,6.923875472520299,51.30837903073196,7.237127832175718,51.96325304486746,7.5464326738155645,52.6384249702593,7.851631437312262,53.333788102120465,8.152565562538234,54.0492357356639,8.449076489365906,54.784661166102566,8.741005657667698,55.53995768864943,9.028194507316032,56.315018598517455,9.310484478183337,57.109737190919596,9.587717010142029,57.92400676106881,9.859733543064538,58.75772060417807,10.126375516823282,59.61077201546033,10.387484371290686,60.48305429012854,10.642901546339175,61.37446072339568,10.892468481841169,62.28488461047469,11.136026617669092,63.21421924657855,11.373417393695371,64.16235792692021,11.60448224979242,65.12919394671263,11.829062625832673,66.11462060116877,12.046999961688547,67.1185311855016,12.258135697232467,68.14081899492406,12.258135697232467,68.14081899492406,11.96786566241404,67.90169219092273,11.677595627595617,67.66748010694454,11.387325592777188,67.43821127962387,11.097055557958761,67.21391424559512,10.806785523140336,66.99461754149267,10.51651548832191,66.78034970395092,10.226245453503484,66.57113926960425,9.935975418685059,66.36701477508701,9.645705383866632,66.16800475703366,9.355435349048209,65.97413775207852,9.06516531422978,65.785442296856,8.774895279411353,65.6019469280005,8.484625244592925,65.4236801821464,8.194355209774502,65.25067059592809,7.904085174956075,65.08294670597994,7.61381514013765,64.92053704893634,7.323545105319225,64.76347016143168,7.0332750705008,64.61177458010037,6.743005035682373,64.46547884157677,6.452735000863946,64.32461148249527,6.162464966045519,64.18920103949029,5.872194931227094,64.05927604919614,5.581924896408667,63.93486504824729,5.291654861590242,63.815996573278085,5.001384826771814,63.70269916092292,4.711114791953389,63.59500134781618,4.420844757134963,63.49293167059225,4.130574722316537,63.396518665885516,3.8403046874981106,63.30579087033038,3.5500346526796855,63.220776820561206,3.259764617861258,63.1415050532124,2.969494583042832,63.06800410491833,2.679224548224407,63.000302512313404,2.388954513405979,62.938428812031994,2.098684478587555,62.88241154070849,1.8084144437691294,62.832279234977285,1.5181444089507021,62.78806043147276,1.2278743741322775,62.7497836668293,0.9376043393138502,62.7174774776813,0.6473343044954247,62.69117040066313,0.3570642696769992,62.670890972409204,0.06679423485857283,62.65666772955389,-0.22347579995985356,62.64852920873158,-0.513745834778278,62.64650394657665,-0.8040158695967043,62.6506204797235,-1.094285904415131,62.66090734480652,-1.3845559392335574,62.67739307846008,-1.6748259740519829,62.70010621731858,-1.9650960088704104,62.729075298016404,-2.2553660436888356,62.76432885718794,-2.545636078507262,62.80589543146757,-2.835906113325689,62.853803557489684,-3.126176148144113,62.90808177188867,-3.4164461829625408,62.96875861129892,-3.706716217780966,63.035862612354805,-3.9969862525993936,63.10942231169072,-4.287256287417818,63.18946624594106,-4.577526322236244,63.276022951740195,-4.86779635705467,63.36912096572254,-5.158066391873096,63.46878882452245,-5.4483364266915215,63.575055064774325,-5.738606461509949,63.687948223112556,-6.028876496328373,63.80749683617154,-6.3191465311468,63.93372944058563,-6.609416565965227,64.06667457298924,-6.899686600783653,64.20636077001676,-7.189956635602079,64.35281656830256,-7.480226670420506,64.50607050448102,-7.770496705238929,64.66615111518655,-8.060766740057357,64.83308693705354,-8.351036774875782,65.00690650671635,-8.641306809694207,65.18763836080937,-8.931576844512634,65.37531103596703,-9.221846879331062,65.56995306882365,-9.512116914149487,65.77159299601368,-9.80238694896791,65.98025935417147,-10.092656983786338,66.19598067993141,-10.382927018604766,66.41878550992789,-10.673197053423191,66.6487023807953,-10.963467088241616,66.88575982916802,-11.253737123060043,67.12998639168046,-11.54400715787847,67.38141060496699,-11.834277192696893,67.64006100566198,-12.12454722751532,67.90596613039983,-12.414817262333747,68.17915451581496,-12.705087297152176,68.4596546985417,-12.995357331970599,68.74749521521447,-13.285627366789024,69.04270460246765,-13.575897401607453,69.34531139693563,-13.866167436425876,69.65534413525279,-14.156437471244303,69.97283135405353,-14.446707506062731,70.29780158997222,-14.736977540881158,70.63028337964326,-15.027247575699581,70.97030525970104,-15.317517610518006,71.31789576677991,-15.607787645336431,71.67308343751431,-15.89805768015486,72.0358968085386,-16.188327714973287,72.40636441648715,-16.47859774979171,72.78451479799439" fill="rgb(215,127,140)" stroke="black" stroke-width="3" stroke-linejoin="round" filter="url(#fuzzy)"></polyline></g></svg>