<svg viewBox="-100 -100 200 200" xmlns="http://www.w3.org/2000/svg" width="400" height="400" id="face-svg"><defs><clipPath id="leftEyeClipPath"><polyline points="31.222409532432373,-9.793707966844611,31.11940275288029,-10.327150841225631,30.97491649165903,-10.8353923993748,30.789866894266382,-11.318870170414822,30.565196712774835,-11.778033725996558,30.30187384530906,-12.213344054494776,30.000889875523313,-12.625272935203874,29.663258612078906,-13.014302312533632,29.290014628121597,-13.380923670204934,28.88221180075906,-13.725637405445518,28.440921850538338,-14.048952203185712,27.96723288092322,-14.351384410254164,27.46224791777172,-14.633457409573596,26.927083448813534,-14.895700994356528,26.362867963127385,-15.138650742301017,25.770740490618593,-15.362847389786408,25.16962083253756,-15.646012584525156,24.525860910202,-15.90520084162779,23.840819493361728,-16.140662896837757,23.116047138667398,-16.35273721266841,22.353266045792466,-16.5418404446552,21.554350706063175,-16.70845837093768,20.721309330034344,-16.853137275472513,19.856266040448933,-16.976475775178876,18.961443817019216,-17.079117081317506,18.03914817946761,-17.161741685404643,17.09175159526491,-17.225060459962226,16.121678598503948,-17.269808164405596,15.13139160634656,-17.296737346369984,14.123377419481775,-17.30661262877713,13.100134393033072,-17.30020537294325,12.064160264352738,-17.27828870802969,11.017940624141122,-17.24163291713755,9.963938017328779,-17.19100117034757,8.904581660159327,-17.12714559500653,7.842257759911048,-17.050803673561546,6.779300423694996,-16.962694959243414,5.717983142767657,-16.86351809990044,4.660510838795995,-16.75394816028395,3.6090124585127907,-16.634634233086793,2.5655341032002443,-16.50619732903615,1.5320326794396797,-16.369228536341904,0.5103700575653125,-16.22428743980188,-0.4976922757400386,-16.071900789865282,-1.4904980842693707,-15.912561411955519,-2.4665007820981275,-15.746727346353833,-3.4242673799351753,-15.574821208944915,-4.362481991580147,-15.39722976312586,-5.279948914049326,-15.214303693179744,-6.175595294932036,-15.02635756941508,-7.048473400539814,-14.833669995372496,-7.897762498410245,-14.636483927399867,-8.722770367727712,-14.43500715689725,-9.522934451223072,-14.229412945532856,-10.297822662114347,-14.01984080373141,-11.047133859650577,-13.806397402736122,-11.770698006820842,-13.589157610545618,-12.468476023790627,-13.368165642027087,-13.14055935062756,-13.143436313506953,-13.787169232878599,-12.914956392140347,-14.40865574356088,-12.682686030360676,-15.005496555128131,-12.446560275710594,-15.578295474974885,-12.206490646355633,-16.127780758040565,-11.962366762581818,-16.654803210075386,-11.714058024578534,-17.16033409513045,-11.461415326807948,-17.645037688177958,-11.204040226357863,-18.10901981580087,-10.94155113376491,-18.55252324038456,-10.673811502827766,-18.975816170932212,-10.400685980759663,-19.37919044671358,-10.122041707122712,-19.762959720913564,-9.837749612762204,-20.127457644280987,-9.547685718740944,-20.473036048777246,-9.251732435273532,-20.800063131224952,-8.949779860660712,-21.108921636956715,-8.641727080223664,-21.400007043463695,-8.327483465238327,-21.67372574404441,-8.006969971869708,-21.930493231453326,-7.680120440106194,-22.17073228154961,-7.346882892693873,-22.671190415010408,-2.2802772417005563,-22.473960613218622,-1.7744158545309698,-22.263514832923654,-1.2604628202089057,-22.03957331323859,-0.7388387325851813,-21.80186231142845,-0.2100124939266248,-21.550114674476795,0.3254999498919542,-21.284070410652305,0.8671368741958076,-21.00347726107536,1.4142920403182764,-20.708091271284673,1.9663159604088296,-20.397677362803826,2.5225171622411082,-20.07200990470791,3.0821634540209377,-19.73087328519008,3.6444831891943945,-19.374062483128156,4.208666531255792,-19.00138363965123,4.773866718555793,-18.61265462970625,5.339201329109359,-18.207479437848804,5.9066784404858605,-17.785099225140698,6.477901593345914,-17.344838818676664,7.051298582194834,-16.886080463343035,7.62522633410026,-16.40826545573004,8.197977441077848,-15.910895696563992,8.767786840842442,-15.393535157391645,9.332838636480863,-14.855811257248918,9.891273045602281,-14.297416145046418,10.441193469522455,-13.718107883403997,10.980673673037769,-13.117711529666641,11.507765065345309,-12.496120109834068,12.020504072664904,-11.853295481136174,12.516919593119487,-11.189269078986888,12.99504052442955,-10.504142544048424,13.452903354978174,-9.798088225138546,13.888559808802336,-9.071349553712896,14.300084535066928,-8.324241285654816,14.685582832577351,-7.557149606105,15.043198399886949,-6.77053209306313,15.371121101555266,-5.964917535493971,15.667594741113335,-5.140905601670074,15.930924831291952,-4.299166353483546,16.159486352069194,-3.4404396024590067,16.35173148709316,-2.5655341032002443,16.506197329036155,-1.6753265800026567,16.62151354443622,-0.7707605823639749,16.69640998858239,0.14715483487457792,16.72972426099946,1.0773466110242937,16.72040919208868,2.018679362949886,16.667540251480204,2.969957256643008,16.57032286865354,3.9299260712360455,16.42809965638213,4.897275459723902,16.24035752755801,5.870641410661481,16.0067346959528,6.848608915104526,15.727027551471059,7.829714843061575,15.40119740045211,8.812451033724663,15.029377061576392,9.79526760374651,14.611877307932561,10.776576477831878,14.149193145801293,11.754755145910812,13.64200992071203,12.728150651161421,13.09120924132859,13.695083813149957,12.497874711719978,14.653853690355806,11.863297462572246,15.602742286349189,11.188981471897746,16.540019503889177,10.476648665797617,17.463948351209794,9.728243789833884,18.372790404761837,8.945939041566989,19.264811532678156,8.13213845481515,20.138287883230092,7.289482026191342,20.99151214254273,6.42084957447423,21.73599533565121,5.783909369428889,22.465629916274956,5.131080893232005,23.179219225075016,4.463678462269959,23.875535708054393,3.7830975614033857,24.553320789896972,3.090816555563956,25.211284747306486,2.3883984013511483,25.8481065823454,1.6774923586290775,26.462433895773913,0.9598357021232609,27.052882760388847,0.23725543301740615,27.61803759436261,-0.48833000944977556,28.15645103458214,-1.214909036387807,28.666643809987804,-1.940375197657639,29.147104614912394,-2.6625254702748435,29.59628998242001,-3.3790585468128604,30.012624157645057,-4.087573123806164"></polyline></clipPath><clipPath id="rightEyeClipPath"><polyline points="-30.49378570303358,-12.721054393022353,-30.168839704235268,-12.985514571949142,-29.815517802072357,-13.237711374752463,-29.434463757391192,-13.477818908074262,-29.02633948296817,-13.706019714412934,-28.59182403702001,-13.922504403787725,-28.131612616714186,-14.12747128540312,-27.646415551679205,-14.321125999313246,-27.136957297514954,-14.503681148086265,-26.60397542930307,-14.675355928468777,-26.048219635117228,-14.836375763050205,-25.470450709533523,-14.986971931927199,-24.871439547140795,-15.127381204368039,-24.251966136050953,-15.257845470477017,-23.61281855140932,-15.378611372858845,-22.95479194890499,-15.489929938283048,-22.26386758135675,-15.633591919959489,-21.542585086681335,-15.764900369508965,-20.791974792300458,-15.883951011402152,-20.01320149016791,-15.990885920939903,-19.207550716734538,-16.085888171329632,-18.376415544742933,-16.169176760453947,-17.521283878584114,-16.241001811189765,-16.643726244949193,-16.301640039136203,-15.745384070508583,-16.351390481609464,-14.827958438351459,-16.390570481763,-13.893199314918135,-16.419511921691193,-12.942895239158085,-16.43855769837485,-11.978863465646262,-16.44805843632671,-11.002940553390422,-16.448369430795264,-10.016973392062095,-16.439847815385136,-9.022810657383971,-16.42284994795228,-8.022294687406282,-16.397729008632254,-7.017253771404978,-16.364832803859816,-6.00949484313428,-16.324501770238122,-5.000796570166371,-16.277067172115768,-3.99290283105087,-16.222849486729924,-2.987516572026789,-16.162156970773864,-1.986294035019658,-16.095284402247074,-0.9908393486565132,-16.02251199144628,-0.0026994740313979193,-15.944104454955575,0.9766405030458745,-15.860310246493972,1.945761741585077,-15.771360938478594,2.903315685002312,-15.677470748161761,3.8480277790254807,-15.57883620220028,4.778700876185763,-15.475635933515122,5.694218335162486,-15.368030604299804,6.593546823248586,-15.256162949035703,7.475738830204113,-15.140157931372576,8.339934901764959,-15.02012300873253,9.185365601074245,-14.896148498495702,10.011353206303573,-14.768308039625923,10.817313152731534,-14.636659143594601,11.602755227546762,-14.501243828461092,12.367284525642821,-14.362089329967825,13.110602174672303,-14.219208883508411,13.832505837627352,-14.072602570827039,14.532890001214058,-13.92225822530736,15.211746058287892,-13.768152389709174,15.869162192617624,-13.61025132021113,16.505323074244977,-13.448512030617731,17.12050937370725,-13.282883370588884,17.71509710339049,-13.113307131750245,18.289556794280152,-12.93971917554265,18.844452516376855,-12.76205057666886,19.380440751044468,-12.580228775995867,19.898456391885155,-12.393926321811097,20.399029191847013,-12.202797423885649,20.882292820492367,-12.006741985428071,21.348401845251956,-11.805663236565213,21.797530624195403,-11.599468556896987,22.22987219880158,-11.388070298051135,22.645637186729104,-11.171386606238,23.04505267458682,-10.949342244805282,23.428361110704138,-10.721869416792813,23.795819197901594,-10.488908587487323,24.147696786261193,-10.250409306977204,24.48427576589691,-10.006331032707273,24.805848959725132,-9.756643952033546,25.112719016235083,-9.501329804777999,23.3931636576079,-1.1375101615785947,23.221322040420482,-0.5577213845880866,23.03061693692983,0.027621191809966916,22.820640898224006,0.6177660740927546,22.59099933416713,1.2119015861458458,22.341312035012244,1.8091593598600575,22.071214693014284,2.4086178257283493,21.780360424042875,3.0093057034426813,21.468421289195284,3.610205492490916,21.13508981640929,4.210256962753686,20.780080522076055,4.808360645101256,20.403131432653048,5.403381321990455,20.00400560627692,5.994151518061464,19.58249265437636,6.579474990734788,19.138410263285046,7.1581302208080935,18.67170766562988,7.733117188609636,18.18177638934386,8.306627229821054,17.667710702872668,8.876205872989498,17.128727639059314,9.439401561342123,16.564168342038677,9.993774534526956,15.97349921408483,10.536905729740045,15.356312851049347,11.06640567617578,14.712328755029366,11.579923356737133,14.041393812904145,12.075155010942861,13.343482529378456,12.54985285296842,12.618697003171734,13.001833678757546,11.867266634991442,13.428987336141308,11.089547555929261,13.829285031901577,10.286021764918848,14.200787449715744,9.457295963893673,14.541652652919627,8.604100079283613,14.85014374602531,7.727285458488906,15.124636268930963,6.8278227299701,15.363625297759363,5.906799315592648,15.565732226262107,4.965416583864689,15.729711201726353,4.004986632706739,15.854455189320923,3.026928690391842,15.93900163881872,2.032765123294851,15.982537727632302,1.02411703908942,15.98440515409942,0.0026994740313979193,15.944104454955575,-1.0296838470328553,15.861298820930294,-2.0711461892944882,15.735817384404019,-3.119723936607993,15.567657953062628,-4.173383181476149,15.356989163486368,-5.230026787755515,15.104152028609967,-6.287501937443813,14.809660852991026,-7.343608172910578,14.47420348982343,-8.396105945932474,14.098640913632632,-9.442725684894624,13.684006082589793,-10.481177391519346,13.231502064381587,-11.509160778483682,12.742499399572505,-12.524375959287067,12.218532676396649,-13.524534701730532,11.661296290915804,-14.507372256368825,11.072639366480676,-15.470659771296804,10.454559806432243,-16.41221730463151,9.809197453979944,-17.329927446051272,9.138826333193784,-18.221749558753174,8.445845945047047,-19.08573465319043,7.732771592446614,-19.920040903950778,7.002223708187717,-20.722949821137533,6.25691615976999,-21.492883087614516,5.49964350501174,-22.228420073476258,4.7332671723992625,-22.928316039104907,3.9607005401081423,-23.591521038175152,3.1848928876333247,-24.24664413907614,2.5520809987205624,-24.879750782878567,1.9145332872310163,-25.49003499780725,1.2736061416137332,-26.076711356732893,0.6306883829290477,-26.639016555922765,-0.012799102149468666,-27.176210993791337,-0.6554037283330203,-27.687580349650986,-1.2956415787156015,-28.172437162462593,-1.9319977717720356,-28.630122409586257,-2.562926828355991,-29.06000708553195,-3.1868530386979987,-29.461493780710157,-3.8021708294034973,-29.834018260182546,-4.407245130450828,-30.177051042412636,-5.000411742189282,-30.490098978016462,-5.579977702337107,-30.77270682851323,-6.144221652979541"></polyline></clipPath><filter id="fuzzy"><feTurbulence id="turbulence" baseFrequency="0.05" numOctaves="3" type="noise" result="noise"></feTurbulence><feDisplacementMap in="SourceGraphic" in2="noise" scale="2"></feDisplacementMap></filter><linearGradient id="rainbowGradient" x1="0%" y1="0%" x2="100%" y2="0%"><stop offset="0%" style="stop-color: rgb(220, 208, 186);  stop-opacity: 1"></stop><stop offset="50%" style="stop-color: rgb(145, 85, 61);  stop-opacity: 1"></stop><stop offset="100%" style="stop-color: rgb(255, 165, 0);  stop-opacity: 1"></stop></linearGradient></defs><title>That&#39;s an ugly face</title><desc>CREATED BY XUAN TANG, MORE INFO AT TXSTC55.GITHUB.IO</desc><rect x="-100" y="-100" width="100%" height="100%" opacity="1" fill="rgb(188, 143, 143)"></rect><polyline id="faceContour" points="70,1,70,2,70,2,70,3,70,5,70,7,70,6,70,10,70,12,70,12,69,13,69,16,69,17,69,19,69,19,69,19,68,20,68,23,68,23,67,26,67,26,67,27,67,28,66,30,66,31,66,31,65,33,65,34,64,35,64,37,62,40,63,39,62,41,62,41,62,42,60,44,59,47,60,46,60,46,58,49,58,50,57,51,56,52,55,54,56,53,54,54,53,56,53,57,52,58,52,59,51,59,50,60,50,61,49,62,47,64,45,66,46,66,44,67,45,66,42,68,42,69,40,70,42,69,39,72,39,72,37,73,36,73,35,74,34,75,34,75,33,76,32,77,31,77,30,77,29,78,28,79,27,79,26,80,24,81,24,81,22,82,21,82,20,83,19,83,18,83,16,84,15,84,16,84,14,85,13,85,10,85,10,86,9,86,8,86,7,86,6,86,3,86,4,86,1,87,1,87,0,87,-1,87,-1,87,-3,87,-4,87,-5,87,-6,87,-7,87,-11,86,-10,86,-13,86,-13,86,-13,86,-14,86,-15,85,-17,85,-17,85,-19,84,-19,85,-22,84,-21,84,-23,83,-24,83,-26,82,-26,82,-29,80,-29,81,-30,80,-31,79,-32,79,-31,80,-33,78,-35,77,-35,77,-37,76,-37,76,-39,74,-41,73,-41,72,-42,72,-43,71,-42,71,-44,70,-46,69,-46,68,-46,68,-48,66,-49,65,-48,65,-50,64,-51,63,-51,62,-52,61,-52,62,-54,58,-54,59,-56,56,-56,55,-55,56,-57,53,-57,52,-58,51,-59,50,-60,49,-59,49,-61,46,-61,46,-61,45,-62,44,-63,42,-63,41,-64,39,-64,38,-65,37,-64,37,-65,35,-66,34,-66,32,-66,31,-67,27,-67,28,-68,25,-68,25,-68,25,-68,24,-68,22,-69,19,-69,18,-69,18,-69,17,-69,14,-70,12,-70,12,-70,11,-70,8,-70,8,-70,5,-70,3,-70,3,-70,0,-70,-1,-70,-2,-70,-4,-70,-3,-70,-7,-70,-7,-70,-8,-69,-11,-69,-10,-69,-13,-69,-14,-69,-15,-68,-17,-68,-17,-68,-20,-68,-21,-67,-24,-67,-23,-67,-25,-67,-26,-66,-28,-65,-31,-65,-31,-65,-31,-65,-33,-64,-34,-64,-35,-63,-38,-63,-38,-62,-41,-62,-41,-61,-43,-61,-44,-60,-44,-59,-46,-60,-45,-57,-50,-57,-50,-56,-52,-56,-53,-56,-53,-55,-54,-54,-54,-54,-56,-52,-58,-52,-58,-51,-59,-51,-60,-50,-61,-49,-62,-49,-62,-49,-63,-48,-64,-47,-65,-45,-68,-45,-67,-44,-68,-43,-69,-43,-69,-42,-70,-40,-72,-40,-73,-37,-75,-38,-74,-37,-75,-36,-75,-33,-77,-34,-77,-34,-77,-32,-78,-31,-79,-30,-79,-28,-80,-28,-80,-27,-81,-26,-81,-26,-81,-24,-82,-24,-82,-23,-83,-22,-83,-20,-84,-17,-85,-17,-85,-17,-85,-17,-85,-16,-85,-14,-86,-14,-86,-11,-86,-9,-86,-8,-86,-10,-86,-8,-86,-6,-87,-7,-87,-5,-87,-3,-86,-3,-87,-2,-87,0,-87,1,-87,1,-87,4,-86,3,-87,7,-86,6,-86,7,-86,9,-86,9,-85,10,-85,12,-85,13,-84,14,-84,15,-84,15,-84,18,-83,18,-83,19,-82,20,-82,20,-82,23,-81,23,-81,24,-80,25,-80,26,-80,28,-78,29,-78,29,-77,30,-77,30,-76,33,-75,33,-74,34,-74,34,-74,36,-72,36,-73,38,-71,38,-70,40,-69,40,-69,42,-67,42,-68,43,-66,44,-66,45,-64,47,-62,46,-63,47,-62,48,-61,48,-61,49,-59,50,-58,51,-57,51,-57,53,-54,52,-55,54,-52,54,-52,55,-51,55,-50,56,-49,58,-47,58,-45,58,-46,59,-45,60,-41,60,-42,60,-41,61,-40,62,-38,62,-37,62,-37,63,-35,64,-33,65,-31,64,-32,65,-30,65,-29,66,-27,66,-26,66,-26,67,-23,67,-22,68,-19,68,-20,68,-17,68,-19,68,-15,69,-16,69,-13,69,-11,69,-11,70,-9,70,-6,70,-7,70,-6,70,-4,70,-4,70,-1,70,1,70,2" fill="#ffc9a9" stroke="black" stroke-width="1.6666666666666665" stroke-linejoin="round" filter="url(#fuzzy)"></polyline><g transform="translate(28.642221415959398 -23.62101717213247)"><polyline id="rightCountour" points="-30.49378570303358,-12.721054393022353,-30.168839704235268,-12.985514571949142,-29.815517802072357,-13.237711374752463,-29.434463757391192,-13.477818908074262,-29.02633948296817,-13.706019714412934,-28.59182403702001,-13.922504403787725,-28.131612616714186,-14.12747128540312,-27.646415551679205,-14.321125999313246,-27.136957297514954,-14.503681148086265,-26.60397542930307,-14.675355928468777,-26.048219635117228,-14.836375763050205,-25.470450709533523,-14.986971931927199,-24.871439547140795,-15.127381204368039,-24.251966136050953,-15.257845470477017,-23.61281855140932,-15.378611372858845,-22.95479194890499,-15.489929938283048,-22.26386758135675,-15.633591919959489,-21.542585086681335,-15.764900369508965,-20.791974792300458,-15.883951011402152,-20.01320149016791,-15.990885920939903,-19.207550716734538,-16.085888171329632,-18.376415544742933,-16.169176760453947,-17.521283878584114,-16.241001811189765,-16.643726244949193,-16.301640039136203,-15.745384070508583,-16.351390481609464,-14.827958438351459,-16.390570481763,-13.893199314918135,-16.419511921691193,-12.942895239158085,-16.43855769837485,-11.978863465646262,-16.44805843632671,-11.002940553390422,-16.448369430795264,-10.016973392062095,-16.439847815385136,-9.022810657383971,-16.42284994795228,-8.022294687406282,-16.397729008632254,-7.017253771404978,-16.364832803859816,-6.00949484313428,-16.324501770238122,-5.000796570166371,-16.277067172115768,-3.99290283105087,-16.222849486729924,-2.987516572026789,-16.162156970773864,-1.986294035019658,-16.095284402247074,-0.9908393486565132,-16.02251199144628,-0.0026994740313979193,-15.944104454955575,0.9766405030458745,-15.860310246493972,1.945761741585077,-15.771360938478594,2.903315685002312,-15.677470748161761,3.8480277790254807,-15.57883620220028,4.778700876185763,-15.475635933515122,5.694218335162486,-15.368030604299804,6.593546823248586,-15.256162949035703,7.475738830204113,-15.140157931372576,8.339934901764959,-15.02012300873253,9.185365601074245,-14.896148498495702,10.011353206303573,-14.768308039625923,10.817313152731534,-14.636659143594601,11.602755227546762,-14.501243828461092,12.367284525642821,-14.362089329967825,13.110602174672303,-14.219208883508411,13.832505837627352,-14.072602570827039,14.532890001214058,-13.92225822530736,15.211746058287892,-13.768152389709174,15.869162192617624,-13.61025132021113,16.505323074244977,-13.448512030617731,17.12050937370725,-13.282883370588884,17.71509710339049,-13.113307131750245,18.289556794280152,-12.93971917554265,18.844452516376855,-12.76205057666886,19.380440751044468,-12.580228775995867,19.898456391885155,-12.393926321811097,20.399029191847013,-12.202797423885649,20.882292820492367,-12.006741985428071,21.348401845251956,-11.805663236565213,21.797530624195403,-11.599468556896987,22.22987219880158,-11.388070298051135,22.645637186729104,-11.171386606238,23.04505267458682,-10.949342244805282,23.428361110704138,-10.721869416792813,23.795819197901594,-10.488908587487323,24.147696786261193,-10.250409306977204,24.48427576589691,-10.006331032707273,24.805848959725132,-9.756643952033546,25.112719016235083,-9.501329804777999,23.3931636576079,-1.1375101615785947,23.221322040420482,-0.5577213845880866,23.03061693692983,0.027621191809966916,22.820640898224006,0.6177660740927546,22.59099933416713,1.2119015861458458,22.341312035012244,1.8091593598600575,22.071214693014284,2.4086178257283493,21.780360424042875,3.0093057034426813,21.468421289195284,3.610205492490916,21.13508981640929,4.210256962753686,20.780080522076055,4.808360645101256,20.403131432653048,5.403381321990455,20.00400560627692,5.994151518061464,19.58249265437636,6.579474990734788,19.138410263285046,7.1581302208080935,18.67170766562988,7.733117188609636,18.18177638934386,8.306627229821054,17.667710702872668,8.876205872989498,17.128727639059314,9.439401561342123,16.564168342038677,9.993774534526956,15.97349921408483,10.536905729740045,15.356312851049347,11.06640567617578,14.712328755029366,11.579923356737133,14.041393812904145,12.075155010942861,13.343482529378456,12.54985285296842,12.618697003171734,13.001833678757546,11.867266634991442,13.428987336141308,11.089547555929261,13.829285031901577,10.286021764918848,14.200787449715744,9.457295963893673,14.541652652919627,8.604100079283613,14.85014374602531,7.727285458488906,15.124636268930963,6.8278227299701,15.363625297759363,5.906799315592648,15.565732226262107,4.965416583864689,15.729711201726353,4.004986632706739,15.854455189320923,3.026928690391842,15.93900163881872,2.032765123294851,15.982537727632302,1.02411703908942,15.98440515409942,0.0026994740313979193,15.944104454955575,-1.0296838470328553,15.861298820930294,-2.0711461892944882,15.735817384404019,-3.119723936607993,15.567657953062628,-4.173383181476149,15.356989163486368,-5.230026787755515,15.104152028609967,-6.287501937443813,14.809660852991026,-7.343608172910578,14.47420348982343,-8.396105945932474,14.098640913632632,-9.442725684894624,13.684006082589793,-10.481177391519346,13.231502064381587,-11.509160778483682,12.742499399572505,-12.524375959287067,12.218532676396649,-13.524534701730532,11.661296290915804,-14.507372256368825,11.072639366480676,-15.470659771296804,10.454559806432243,-16.41221730463151,9.809197453979944,-17.329927446051272,9.138826333193784,-18.221749558753174,8.445845945047047,-19.08573465319043,7.732771592446614,-19.920040903950778,7.002223708187717,-20.722949821137533,6.25691615976999,-21.492883087614516,5.49964350501174,-22.228420073476258,4.7332671723992625,-22.928316039104907,3.9607005401081423,-23.591521038175152,3.1848928876333247,-24.24664413907614,2.5520809987205624,-24.879750782878567,1.9145332872310163,-25.49003499780725,1.2736061416137332,-26.076711356732893,0.6306883829290477,-26.639016555922765,-0.012799102149468666,-27.176210993791337,-0.6554037283330203,-27.687580349650986,-1.2956415787156015,-28.172437162462593,-1.9319977717720356,-28.630122409586257,-2.562926828355991,-29.06000708553195,-3.1868530386979987,-29.461493780710157,-3.8021708294034973,-29.834018260182546,-4.407245130450828,-30.177051042412636,-5.000411742189282,-30.490098978016462,-5.579977702337107,-30.77270682851323,-6.144221652979541" fill="white" stroke="white" stroke-width="0" stroke-linejoin="round" filter="url(#fuzzy)"></polyline></g><g transform="translate(-32.667996923037485 -24.37772587141699)"><polyline id="leftCountour" points="31.222409532432373,-9.793707966844611,31.11940275288029,-10.327150841225631,30.97491649165903,-10.8353923993748,30.789866894266382,-11.318870170414822,30.565196712774835,-11.778033725996558,30.30187384530906,-12.213344054494776,30.000889875523313,-12.625272935203874,29.663258612078906,-13.014302312533632,29.290014628121597,-13.380923670204934,28.88221180075906,-13.725637405445518,28.440921850538338,-14.048952203185712,27.96723288092322,-14.351384410254164,27.46224791777172,-14.633457409573596,26.927083448813534,-14.895700994356528,26.362867963127385,-15.138650742301017,25.770740490618593,-15.362847389786408,25.16962083253756,-15.646012584525156,24.525860910202,-15.90520084162779,23.840819493361728,-16.140662896837757,23.116047138667398,-16.35273721266841,22.353266045792466,-16.5418404446552,21.554350706063175,-16.70845837093768,20.721309330034344,-16.853137275472513,19.856266040448933,-16.976475775178876,18.961443817019216,-17.079117081317506,18.03914817946761,-17.161741685404643,17.09175159526491,-17.225060459962226,16.121678598503948,-17.269808164405596,15.13139160634656,-17.296737346369984,14.123377419481775,-17.30661262877713,13.100134393033072,-17.30020537294325,12.064160264352738,-17.27828870802969,11.017940624141122,-17.24163291713755,9.963938017328779,-17.19100117034757,8.904581660159327,-17.12714559500653,7.842257759911048,-17.050803673561546,6.779300423694996,-16.962694959243414,5.717983142767657,-16.86351809990044,4.660510838795995,-16.75394816028395,3.6090124585127907,-16.634634233086793,2.5655341032002443,-16.50619732903615,1.5320326794396797,-16.369228536341904,0.5103700575653125,-16.22428743980188,-0.4976922757400386,-16.071900789865282,-1.4904980842693707,-15.912561411955519,-2.4665007820981275,-15.746727346353833,-3.4242673799351753,-15.574821208944915,-4.362481991580147,-15.39722976312586,-5.279948914049326,-15.214303693179744,-6.175595294932036,-15.02635756941508,-7.048473400539814,-14.833669995372496,-7.897762498410245,-14.636483927399867,-8.722770367727712,-14.43500715689725,-9.522934451223072,-14.229412945532856,-10.297822662114347,-14.01984080373141,-11.047133859650577,-13.806397402736122,-11.770698006820842,-13.589157610545618,-12.468476023790627,-13.368165642027087,-13.14055935062756,-13.143436313506953,-13.787169232878599,-12.914956392140347,-14.40865574356088,-12.682686030360676,-15.005496555128131,-12.446560275710594,-15.578295474974885,-12.206490646355633,-16.127780758040565,-11.962366762581818,-16.654803210075386,-11.714058024578534,-17.16033409513045,-11.461415326807948,-17.645037688177958,-11.204040226357863,-18.10901981580087,-10.94155113376491,-18.55252324038456,-10.673811502827766,-18.975816170932212,-10.400685980759663,-19.37919044671358,-10.122041707122712,-19.762959720913564,-9.837749612762204,-20.127457644280987,-9.547685718740944,-20.473036048777246,-9.251732435273532,-20.800063131224952,-8.949779860660712,-21.108921636956715,-8.641727080223664,-21.400007043463695,-8.327483465238327,-21.67372574404441,-8.006969971869708,-21.930493231453326,-7.680120440106194,-22.17073228154961,-7.346882892693873,-22.671190415010408,-2.2802772417005563,-22.473960613218622,-1.7744158545309698,-22.263514832923654,-1.2604628202089057,-22.03957331323859,-0.7388387325851813,-21.80186231142845,-0.2100124939266248,-21.550114674476795,0.3254999498919542,-21.284070410652305,0.8671368741958076,-21.00347726107536,1.4142920403182764,-20.708091271284673,1.9663159604088296,-20.397677362803826,2.5225171622411082,-20.07200990470791,3.0821634540209377,-19.73087328519008,3.6444831891943945,-19.374062483128156,4.208666531255792,-19.00138363965123,4.773866718555793,-18.61265462970625,5.339201329109359,-18.207479437848804,5.9066784404858605,-17.785099225140698,6.477901593345914,-17.344838818676664,7.051298582194834,-16.886080463343035,7.62522633410026,-16.40826545573004,8.197977441077848,-15.910895696563992,8.767786840842442,-15.393535157391645,9.332838636480863,-14.855811257248918,9.891273045602281,-14.297416145046418,10.441193469522455,-13.718107883403997,10.980673673037769,-13.117711529666641,11.507765065345309,-12.496120109834068,12.020504072664904,-11.853295481136174,12.516919593119487,-11.189269078986888,12.99504052442955,-10.504142544048424,13.452903354978174,-9.798088225138546,13.888559808802336,-9.071349553712896,14.300084535066928,-8.324241285654816,14.685582832577351,-7.557149606105,15.043198399886949,-6.77053209306313,15.371121101555266,-5.964917535493971,15.667594741113335,-5.140905601670074,15.930924831291952,-4.299166353483546,16.159486352069194,-3.4404396024590067,16.35173148709316,-2.5655341032002443,16.506197329036155,-1.6753265800026567,16.62151354443622,-0.7707605823639749,16.69640998858239,0.14715483487457792,16.72972426099946,1.0773466110242937,16.72040919208868,2.018679362949886,16.667540251480204,2.969957256643008,16.57032286865354,3.9299260712360455,16.42809965638213,4.897275459723902,16.24035752755801,5.870641410661481,16.0067346959528,6.848608915104526,15.727027551471059,7.829714843061575,15.40119740045211,8.812451033724663,15.029377061576392,9.79526760374651,14.611877307932561,10.776576477831878,14.149193145801293,11.754755145910812,13.64200992071203,12.728150651161421,13.09120924132859,13.695083813149957,12.497874711719978,14.653853690355806,11.863297462572246,15.602742286349189,11.188981471897746,16.540019503889177,10.476648665797617,17.463948351209794,9.728243789833884,18.372790404761837,8.945939041566989,19.264811532678156,8.13213845481515,20.138287883230092,7.289482026191342,20.99151214254273,6.42084957447423,21.73599533565121,5.783909369428889,22.465629916274956,5.131080893232005,23.179219225075016,4.463678462269959,23.875535708054393,3.7830975614033857,24.553320789896972,3.090816555563956,25.211284747306486,2.3883984013511483,25.8481065823454,1.6774923586290775,26.462433895773913,0.9598357021232609,27.052882760388847,0.23725543301740615,27.61803759436261,-0.48833000944977556,28.15645103458214,-1.214909036387807,28.666643809987804,-1.940375197657639,29.147104614912394,-2.6625254702748435,29.59628998242001,-3.3790585468128604,30.012624157645057,-4.087573123806164" fill="white" stroke="white" stroke-width="0" stroke-linejoin="round" filter="url(#fuzzy)"></polyline></g><g transform="translate(28.642221415959398 -23.62101717213247)"><polyline id="rightUpper" points="-32.05593724204772,-9.370432500975149,-32.04544405872809,-9.764983058068267,-32.00135714745798,-10.146074178555947,-31.924083392851998,-10.51377535205745,-31.814057896351372,-10.868168187404514,-31.671742969734346,-11.209346044305768,-31.497627128626505,-11.537413665011115,-31.292224086011053,-11.852486805976127,-31.056071745739253,-12.154691869526452,-30.78973119604067,-12.444165535522203,-30.49378570303358,-12.721054393022353,-30.168839704235268,-12.985514571949142,-29.815517802072357,-13.237711374752463,-29.434463757391192,-13.477818908074262,-29.02633948296817,-13.706019714412934,-28.59182403702001,-13.922504403787725,-28.131612616714186,-14.12747128540312,-27.646415551679205,-14.321125999313246,-27.136957297514954,-14.503681148086265,-26.60397542930307,-14.675355928468777,-26.048219635117228,-14.836375763050205,-25.470450709533523,-14.986971931927199,-24.871439547140795,-15.127381204368039,-24.251966136050953,-15.257845470477017,-23.61281855140932,-15.378611372858845,-22.95479194890499,-15.489929938283048,-22.26386758135675,-15.633591919959489,-21.542585086681335,-15.764900369508965,-20.791974792300458,-15.883951011402152,-20.01320149016791,-15.990885920939903,-19.207550716734538,-16.085888171329632,-18.376415544742933,-16.169176760453947,-17.521283878584114,-16.241001811189765,-16.643726244949193,-16.301640039136203,-15.745384070508583,-16.351390481609464,-14.827958438351459,-16.390570481763,-13.893199314918135,-16.419511921691193,-12.942895239158085,-16.43855769837485,-11.978863465646262,-16.44805843632671,-11.002940553390422,-16.448369430795264,-10.016973392062095,-16.439847815385136,-9.022810657383971,-16.42284994795228,-8.022294687406282,-16.397729008632254,-7.017253771404978,-16.364832803859816,-6.00949484313428,-16.324501770238122,-5.000796570166371,-16.277067172115768,-3.99290283105087,-16.222849486729924,-2.987516572026789,-16.162156970773864,-1.986294035019658,-16.095284402247074,-0.9908393486565132,-16.02251199144628,-0.0026994740313979193,-15.944104454955575,0.9766405030458745,-15.860310246493972,1.945761741585077,-15.771360938478594,2.903315685002312,-15.677470748161761,3.8480277790254807,-15.57883620220028,4.778700876185763,-15.475635933515122,5.694218335162486,-15.368030604299804,6.593546823248586,-15.256162949035703,7.475738830204113,-15.140157931372576,8.339934901764959,-15.02012300873253,9.185365601074245,-14.896148498495702,10.011353206303573,-14.768308039625923,10.817313152731534,-14.636659143594601,11.602755227546762,-14.501243828461092,12.367284525642821,-14.362089329967825,13.110602174672303,-14.219208883508411,13.832505837627352,-14.072602570827039,14.532890001214058,-13.92225822530736,15.211746058287892,-13.768152389709174,15.869162192617624,-13.61025132021113,16.505323074244977,-13.448512030617731,17.12050937370725,-13.282883370588884,17.71509710339049,-13.113307131750245,18.289556794280152,-12.93971917554265,18.844452516376855,-12.76205057666886,19.380440751044468,-12.580228775995867,19.898456391885155,-12.393926321811097,20.399029191847013,-12.202797423885649,20.882292820492367,-12.006741985428071,21.348401845251956,-11.805663236565213,21.797530624195403,-11.599468556896987,22.22987219880158,-11.388070298051135,22.645637186729104,-11.171386606238,23.04505267458682,-10.949342244805282,23.428361110704138,-10.721869416792813,23.795819197901594,-10.488908587487323,24.147696786261193,-10.250409306977204,24.48427576589691,-10.006331032707273,24.805848959725132,-9.756643952033546,25.112719016235083,-9.501329804777999,25.405197302259275,-9.240382705783336,25.683602795743944,-8.973809967467753,25.948260978519507,-8.701632922379712,26.199502729070993,-8.423887745752697,26.437663215308497,-8.14062627805999,26.663080787337627,-7.851916847569425,26.876095870229932,-7.55784509289817,27.077049856793337,-7.258514785567481,27.266284000342637,-6.9540486525574785,27.44413830746987,-6.644589198861901" fill="none" stroke="black" stroke-width="1.6666666666666665" stroke-linejoin="round" filter="url(#fuzzy)"></polyline><polyline id="rightLower" points="-31.854695141409643,-10.545683747799034,-31.892057053006425,-10.235319213198311,-31.896858919508198,-9.890938069694073,-31.869090039077655,-9.514525446639915,-31.808793408287258,-9.10804174773665,-31.716064143368605,-8.673422284034288,-31.591047901461778,-8.212576906934022,-31.43393930186464,-7.727389641190191,-31.2449803472822,-7.219718317912269,-31.024458845075962,-6.691394207566834,-30.77270682851323,-6.144221652979541,-30.490098978016462,-5.579977702337107,-30.177051042412636,-5.000411742189282,-29.834018260182546,-4.407245130450828,-29.461493780710157,-3.8021708294034973,-29.06000708553195,-3.1868530386979987,-28.630122409586257,-2.562926828355991,-28.172437162462593,-1.9319977717720356,-27.687580349650986,-1.2956415787156015,-27.176210993791337,-0.6554037283330203,-26.639016555922765,-0.012799102149468666,-26.076711356732893,0.6306883829290477,-25.49003499780725,1.2736061416137332,-24.879750782878567,1.9145332872310163,-24.24664413907614,2.5520809987205624,-23.591521038175152,3.1848928876333247,-22.928316039104907,3.9607005401081423,-22.228420073476258,4.7332671723992625,-21.492883087614516,5.49964350501174,-20.722949821137533,6.25691615976999,-19.920040903950778,7.002223708187717,-19.08573465319043,7.732771592446614,-18.221749558753174,8.445845945047047,-17.329927446051272,9.138826333193784,-16.41221730463151,9.809197453979944,-15.470659771296804,10.454559806432243,-14.507372256368825,11.072639366480676,-13.524534701730532,11.661296290915804,-12.524375959287067,12.218532676396649,-11.509160778483682,12.742499399572505,-10.481177391519346,13.231502064381587,-9.442725684894624,13.684006082589793,-8.396105945932474,14.098640913632632,-7.343608172910578,14.47420348982343,-6.287501937443813,14.809660852991026,-5.230026787755515,15.104152028609967,-4.173383181476149,15.356989163486368,-3.119723936607993,15.567657953062628,-2.0711461892944882,15.735817384404019,-1.0296838470328553,15.861298820930294,0.0026994740313979193,15.944104454955575,1.02411703908942,15.98440515409942,2.032765123294851,15.982537727632302,3.026928690391842,15.93900163881872,4.004986632706739,15.854455189320923,4.965416583864689,15.729711201726353,5.906799315592648,15.565732226262107,6.8278227299701,15.363625297759363,7.727285458488906,15.124636268930963,8.604100079283613,14.85014374602531,9.457295963893673,14.541652652919627,10.286021764918848,14.200787449715744,11.089547555929261,13.829285031901577,11.867266634991442,13.428987336141308,12.618697003171734,13.001833678757546,13.343482529378456,12.54985285296842,14.041393812904145,12.075155010942861,14.712328755029366,11.579923356737133,15.356312851049347,11.06640567617578,15.97349921408483,10.536905729740045,16.564168342038677,9.993774534526956,17.128727639059314,9.439401561342123,17.667710702872668,8.876205872989498,18.18177638934386,8.306627229821054,18.67170766562988,7.733117188609636,19.138410263285046,7.1581302208080935,19.58249265437636,6.579474990734788,20.00400560627692,5.994151518061464,20.403131432653048,5.403381321990455,20.780080522076055,4.808360645101256,21.13508981640929,4.210256962753686,21.468421289195284,3.610205492490916,21.780360424042875,3.0093057034426813,22.071214693014284,2.4086178257283493,22.341312035012244,1.8091593598600575,22.59099933416713,1.2119015861458458,22.820640898224006,0.6177660740927546,23.03061693692983,0.027621191809966916,23.221322040420482,-0.5577213845880866,23.3931636576079,-1.1375101615785947,23.54656057456723,-1.7110573188272564,23.681941392923882,-2.277742199785143,23.799743008240654,-2.837014802285596,23.900409088404878,-3.3883992691410807,23.98438855201549,-3.9314973787401026,24.05213404677015,-4.465992035644057,24.10410042785238,-4.991650761184106,24.14074323631862,-5.508329184058072,24.162517177485412,-6.015974530927315,24.169874599316437,-6.514629117013604" fill="none" stroke="black" stroke-width="2.2222222222222223" stroke-linejoin="round" filter="url(#fuzzy)"></polyline><!--[--><circle r="3.206212221966854" cx="14.966523050852736" cy="-1.9810056516276742" stroke="black" fill="none" stroke-width="1" filter="url(#fuzzy)" clip-path="url(#rightEyeClipPath)"></circle><circle r="3.2984492283114606" cx="15.999971324788458" cy="-4.3185149650837955" stroke="black" fill="none" stroke-width="1" filter="url(#fuzzy)" clip-path="url(#rightEyeClipPath)"></circle><circle r="4.383753218054518" cx="14.322910235059688" cy="-3.667029894868402" stroke="black" fill="none" stroke-width="1" filter="url(#fuzzy)" clip-path="url(#rightEyeClipPath)"></circle><circle r="3.259082700330688" cx="17.95679970049791" cy="-4.461746291784458" stroke="black" fill="none" stroke-width="1" filter="url(#fuzzy)" clip-path="url(#rightEyeClipPath)"></circle><circle r="4.839617789334472" cx="17.503106213698324" cy="-1.459079081364807" stroke="black" fill="none" stroke-width="1" filter="url(#fuzzy)" clip-path="url(#rightEyeClipPath)"></circle><circle r="3.766918822932844" cx="18.00216555500551" cy="-4.903760114866179" stroke="black" fill="none" stroke-width="1" filter="url(#fuzzy)" clip-path="url(#rightEyeClipPath)"></circle><circle r="4.557064786737414" cx="18.097385753171643" cy="-4.6344763736655095" stroke="black" fill="none" stroke-width="1" filter="url(#fuzzy)" clip-path="url(#rightEyeClipPath)"></circle><circle r="3.213370803282596" cx="15.316682164357566" cy="-0.676415112206513" stroke="black" fill="none" stroke-width="1" filter="url(#fuzzy)" clip-path="url(#rightEyeClipPath)"></circle><circle r="3.8364697733836732" cx="17.743065965949032" cy="-3.6645761711806992" stroke="black" fill="none" stroke-width="1" filter="url(#fuzzy)" clip-path="url(#rightEyeClipPath)"></circle><circle r="3.5302602997029098" cx="16.093703150347554" cy="-2.277001685423721" stroke="black" fill="none" stroke-width="1" filter="url(#fuzzy)" clip-path="url(#rightEyeClipPath)"></circle><!--]--></g><g transform="translate(-32.667996923037485 -24.37772587141699)"><polyline id="leftUpper" points="29.79150149374373,-2.986813691053939,30.146779813187138,-3.793237023259824,30.453201872557827,-4.570883763993233,30.711337422865256,-5.320036597860857,30.921797426919255,-6.0409965100401735,31.085232598807465,-6.734082160475177,31.202331943372776,-7.399629258072125,31.273821295690738,-8.037989934895258,31.300461860547017,-8.64953212036255,31.283048751914826,-9.234638915441451,31.222409532432373,-9.793707966844611,31.11940275288029,-10.327150841225631,30.97491649165903,-10.8353923993748,30.789866894266382,-11.318870170414822,30.565196712774835,-11.778033725996558,30.30187384530906,-12.213344054494776,30.000889875523313,-12.625272935203874,29.663258612078906,-13.014302312533632,29.290014628121597,-13.380923670204934,28.88221180075906,-13.725637405445518,28.440921850538338,-14.048952203185712,27.96723288092322,-14.351384410254164,27.46224791777172,-14.633457409573596,26.927083448813534,-14.895700994356528,26.362867963127385,-15.138650742301017,25.770740490618593,-15.362847389786408,25.16962083253756,-15.646012584525156,24.525860910202,-15.90520084162779,23.840819493361728,-16.140662896837757,23.116047138667398,-16.35273721266841,22.353266045792466,-16.5418404446552,21.554350706063175,-16.70845837093768,20.721309330034344,-16.853137275472513,19.856266040448933,-16.976475775178876,18.961443817019216,-17.079117081317506,18.03914817946761,-17.161741685404643,17.09175159526491,-17.225060459962226,16.121678598503948,-17.269808164405596,15.13139160634656,-17.296737346369984,14.123377419481775,-17.30661262877713,13.100134393033072,-17.30020537294325,12.064160264352738,-17.27828870802969,11.017940624141122,-17.24163291713755,9.963938017328779,-17.19100117034757,8.904581660159327,-17.12714559500653,7.842257759911048,-17.050803673561546,6.779300423694996,-16.962694959243414,5.717983142767657,-16.86351809990044,4.660510838795995,-16.75394816028395,3.6090124585127907,-16.634634233086793,2.5655341032002443,-16.50619732903615,1.5320326794396797,-16.369228536341904,0.5103700575653125,-16.22428743980188,-0.4976922757400386,-16.071900789865282,-1.4904980842693707,-15.912561411955519,-2.4665007820981275,-15.746727346353833,-3.4242673799351753,-15.574821208944915,-4.362481991580147,-15.39722976312586,-5.279948914049326,-15.214303693179744,-6.175595294932036,-15.02635756941508,-7.048473400539814,-14.833669995372496,-7.897762498410245,-14.636483927399867,-8.722770367727712,-14.43500715689725,-9.522934451223072,-14.229412945532856,-10.297822662114347,-14.01984080373141,-11.047133859650577,-13.806397402736122,-11.770698006820842,-13.589157610545618,-12.468476023790627,-13.368165642027087,-13.14055935062756,-13.143436313506953,-13.787169232878599,-12.914956392140347,-14.40865574356088,-12.682686030360676,-15.005496555128131,-12.446560275710594,-15.578295474974885,-12.206490646355633,-16.127780758040565,-11.962366762581818,-16.654803210075386,-11.714058024578534,-17.16033409513045,-11.461415326807948,-17.645037688177958,-11.204040226357863,-18.10901981580087,-10.94155113376491,-18.55252324038456,-10.673811502827766,-18.975816170932212,-10.400685980759663,-19.37919044671358,-10.122041707122712,-19.762959720913564,-9.837749612762204,-20.127457644280987,-9.547685718740944,-20.473036048777246,-9.251732435273532,-20.800063131224952,-8.949779860660712,-21.108921636956715,-8.641727080223664,-21.400007043463695,-8.327483465238327,-21.67372574404441,-8.006969971869708,-21.930493231453326,-7.680120440106194,-22.17073228154961,-7.346882892693873,-22.394871136945746,-7.007220834070844,-22.6033416906563,-6.661114549301526,-22.79657766974651,-6.3085624030109795,-22.97501281898105,-5.949582138319215,-23.139079084472655,-5.584212175775513,-23.289204797330854,-5.212512912292726,-23.425812857310603,-4.8345680200815995,-23.54931891646101,-4.450485745585095,-23.660129562774003,-4.060400208412684,-23.758640503833,-3.6644727002746773" fill="none" stroke="black" stroke-width="2.2222222222222223" stroke-linejoin="round" filter="url(#fuzzy)"></polyline><polyline id="leftLower" points="31.999144818718648,-10.128490871746314,32.005182991127086,-9.655455901076705,31.96080872102828,-9.144513062771285,31.867927608943504,-8.599157758508516,31.728411700853684,-8.022768277960008,31.544099614860457,-7.418607510387305,31.316796667847264,-6.789824656238676,31.04827500214037,-6.139456938745916,30.740273712169937,-5.470431315521129,30.394498971131114,-4.785566190153512,30.012624157645057,-4.087573123806164,29.59628998242001,-3.3790585468128604,29.147104614912394,-2.6625254702748435,28.666643809987804,-1.940375197657639,28.15645103458214,-1.214909036387807,27.61803759436261,-0.48833000944977556,27.052882760388847,0.23725543301740615,26.462433895773913,0.9598357021232609,25.8481065823454,1.6774923586290775,25.211284747306486,2.3883984013511483,24.553320789896972,3.090816555563956,23.875535708054393,3.7830975614033857,23.179219225075016,4.463678462269959,22.465629916274956,5.131080893232005,21.73599533565121,5.783909369428889,20.99151214254273,6.42084957447423,20.138287883230092,7.289482026191342,19.264811532678156,8.13213845481515,18.372790404761837,8.945939041566989,17.463948351209794,9.728243789833884,16.540019503889177,10.476648665797617,15.602742286349189,11.188981471897746,14.653853690355806,11.863297462572246,13.695083813149957,12.497874711719978,12.728150651161421,13.09120924132859,11.754755145910812,13.64200992071203,10.776576477831878,14.149193145801293,9.79526760374651,14.611877307932561,8.812451033724663,15.029377061576392,7.829714843061575,15.40119740045211,6.848608915104526,15.727027551471059,5.870641410661481,16.0067346959528,4.897275459723902,16.24035752755801,3.9299260712360455,16.42809965638213,2.969957256643008,16.57032286865354,2.018679362949886,16.667540251480204,1.0773466110242937,16.72040919208868,0.14715483487457792,16.72972426099946,-0.7707605823639749,16.69640998858239,-1.6753265800026567,16.62151354443622,-2.5655341032002443,16.506197329036155,-3.4404396024590067,16.35173148709316,-4.299166353483546,16.159486352069194,-5.140905601670074,15.930924831291952,-5.964917535493971,15.667594741113335,-6.77053209306313,15.371121101555266,-7.557149606105,15.043198399886949,-8.324241285654816,14.685582832577351,-9.071349553712896,14.300084535066928,-9.798088225138546,13.888559808802336,-10.504142544048424,13.452903354978174,-11.189269078986888,12.99504052442955,-11.853295481136174,12.516919593119487,-12.496120109834068,12.020504072664904,-13.117711529666641,11.507765065345309,-13.718107883403997,10.980673673037769,-14.297416145046418,10.441193469522455,-14.855811257248918,9.891273045602281,-15.393535157391645,9.332838636480863,-15.910895696563992,8.767786840842442,-16.40826545573004,8.197977441077848,-16.886080463343035,7.62522633410026,-17.344838818676664,7.051298582194834,-17.785099225140698,6.477901593345914,-18.207479437848804,5.9066784404858605,-18.61265462970625,5.339201329109359,-19.00138363965123,4.773866718555793,-19.374062483128156,4.208666531255792,-19.73087328519008,3.6444831891943945,-20.07200990470791,3.0821634540209377,-20.397677362803826,2.5225171622411082,-20.708091271284673,1.9663159604088296,-21.00347726107536,1.4142920403182764,-21.284070410652305,0.8671368741958076,-21.550114674476795,0.3254999498919542,-21.80186231142845,-0.2100124939266248,-22.03957331323859,-0.7388387325851813,-22.263514832923654,-1.2604628202089057,-22.473960613218622,-1.7744158545309698,-22.671190415010408,-2.2802772417005563,-22.855489445771276,-2.7776759610908925,-23.027147787992256,-3.2662918301072974,-23.186459827616545,-3.7458567689951945,-23.333723682472908,-4.216156065648175,-23.469240630709095,-4.677029640416002,-23.593314539225283,-5.128373310912683,-23.706251292107403,-5.570140056824468,-23.808358219060636,-6.002341284717908,-23.899943523842765,-6.425048092847877,-23.981315712697636,-6.838392535965617" fill="none" stroke="black" stroke-width="2.2222222222222223" stroke-linejoin="round" filter="url(#fuzzy)"></polyline><!--[--><circle r="3.2099959530172257" cx="13.75021659827571" cy="1.4550687255005719" stroke="black" fill="none" stroke-width="1" filter="url(#fuzzy)" clip-path="url(#leftEyeClipPath)"></circle><circle r="4.802735598598429" cx="13.616168413442441" cy="2.566258248621949" stroke="black" fill="none" stroke-width="1" filter="url(#fuzzy)" clip-path="url(#leftEyeClipPath)"></circle><circle r="4.769424717250354" cx="11.319538506332506" cy="3.060390226494434" stroke="black" fill="none" stroke-width="1" filter="url(#fuzzy)" clip-path="url(#leftEyeClipPath)"></circle><circle r="4.770736685337822" cx="9.245966691223662" cy="3.3585577944272043" stroke="black" fill="none" stroke-width="1" filter="url(#fuzzy)" clip-path="url(#leftEyeClipPath)"></circle><circle r="3.1995642593043874" cx="12.577233383481172" cy="1.1528518476984368" stroke="black" fill="none" stroke-width="1" filter="url(#fuzzy)" clip-path="url(#leftEyeClipPath)"></circle><circle r="4.650739434070606" cx="9.770617685542172" cy="3.5918740968607734" stroke="black" fill="none" stroke-width="1" filter="url(#fuzzy)" clip-path="url(#leftEyeClipPath)"></circle><circle r="3.9155453666519056" cx="11.816294534117043" cy="4.8859639412432" stroke="black" fill="none" stroke-width="1" filter="url(#fuzzy)" clip-path="url(#leftEyeClipPath)"></circle><circle r="4.023744451199207" cx="13.181491303069354" cy="1.6208781149757465" stroke="black" fill="none" stroke-width="1" filter="url(#fuzzy)" clip-path="url(#leftEyeClipPath)"></circle><circle r="4.541527079531887" cx="9.29379344217589" cy="4.22793280174337" stroke="black" fill="none" stroke-width="1" filter="url(#fuzzy)" clip-path="url(#leftEyeClipPath)"></circle><circle r="4.335225182870119" cx="12.59648950029096" cy="4.120996860493947" stroke="black" fill="none" stroke-width="1" filter="url(#fuzzy)" clip-path="url(#leftEyeClipPath)"></circle><!--]--></g><g id="hairs"><!--[--><polyline points="-6,-87,-5.880205671490714,-86.89295886975765,-4.61939672166506,-86.61389791918783,-3.008868530874472,-86.30639082350656,-1.2517536115367571,-85.9978857498274,0.6322802886333931,-85.64714220131881,2.635718198464355,-85.21641888011968,4.737692751816318,-84.69323216581807,6.912696352851957,-84.08647554804058,9.13152229027189,-83.41708250029535,11.35808156073298,-82.71035781519349,13.552522897720337,-81.99093282222748,15.680627312402773,-81.27922111023932,17.721758267247353,-80.58854604387818,19.669421958225996,-79.92378531376409,21.52513403940994,-79.28321111879632,23.28969058011974,-78.66379269400169,24.953029153139326,-78.0686579814978,26.479817798306396,-77.51705456696979,27.791259272558346,-77.05860170156967,28.763070662419757,-76.78062806669179,29.326090255359414,-76.76764370979294" fill="none" stroke="rgb(165, 42, 42)" stroke-width="2" stroke-linejoin="round" filter="url(#fuzzy)"></polyline><polyline points="-30,-79,-28.557953709986396,-79.68222392298304,-27.402639751167786,-80.13098157623429,-26.144417048885227,-80.48375394420621,-24.706333817898674,-80.78673428742519,-23.080696490423325,-81.08291417268325,-21.265481821979915,-81.39886992305237,-19.255859678083272,-81.74152588557124,-17.06028567463641,-82.10380771260446,-14.719915484855079,-82.46849647401129,-12.30988424943444,-82.81105995651012,-9.916194145532973,-83.1062025550005,-7.602029025554657,-83.33782404661179,-5.385594418900291,-83.50621463267349,-3.2429015971361776,-83.62653133157686,-1.1320431058064528,-83.71906064911784,0.9758510785522603,-83.7986784950914,3.072952004310145,-83.87173980924948,5.104986487810694,-83.94172024353185,6.979660321505428,-84.01559266744016,8.602509993801249,-84.10007261589216,9.943601424951455,-84.1856422692178,11.090540977479517,-84.23209758358496,12.157683676236044,-84.18060475729884" fill="none" stroke="rgb(165, 42, 42)" stroke-width="2" stroke-linejoin="round" filter="url(#fuzzy)"></polyline><polyline points="-31,-79,-29.80498637989212,-79.27866717286007,-28.562149519776106,-79.78313562275602,-27.432706581348498,-80.32255373636588,-26.371316157397814,-80.84235471667489,-25.33714705786407,-81.33444751177225,-24.317061863825966,-81.81340831307392,-23.318946739410684,-82.29067177494115,-22.372268676757812,-82.75540924072266,-21.535774639380094,-83.17111833094958,-20.902032997182005,-83.48482157720375,-20.58585342026894,-83.64114722790958,-20.69094718096312,-83.59509658749448,-21.267063569584188,-83.32078901739303,-22.292607763845993,-82.81566708103222,-23.75533998130385,-82.08493710247286" fill="none" stroke="rgb(165, 42, 42)" stroke-width="2" stroke-linejoin="round" filter="url(#fuzzy)"></polyline><polyline points="36,-72,36.37234409291103,-72.07995897362566,36.806130757059904,-71.39509932941053,36.95388753300518,-70.64641977399287,36.73504371619371,-70.02909092508928,36.1088960903985,-69.56122548992062,35.04753688999459,-69.21033773424486,33.53397444446337,-68.93551557535359,31.551300205831193,-68.70823986006349,29.068762394854012,-68.52740512198017,26.039499282836914,-68.42088794708252,22.41575386988313,-68.4289878482349,18.17164697687646,-68.57943416459109,13.314227129222354,-68.87136250482612,7.868588129787561,-69.27822491080359,1.841081339396169,-69.7650098324284,-4.811747823405401,-70.31072692725871,-12.163119307980255,-70.93739069268695,-20.208346144781533,-71.7486316220635,-28.698160610305372,-72.96136271280854" fill="none" stroke="rgb(165, 42, 42)" stroke-width="2" stroke-linejoin="round" filter="url(#fuzzy)"></polyline><polyline points="47,-62,46.600769263377295,-62.38245953120701,46.67975270859913,-62.21926115689739,46.73842429308331,-61.95515905542732,46.60400447592838,-61.74855526391184,46.21120243126159,-61.68974666007912,45.50609526397651,-61.8604751287352,44.429626398382275,-62.32466383494437,42.92327117919922,-63.12352752685547,40.93412575301293,-64.28649841989528,38.42005415516071,-65.84120759294169,35.35449152349791,-67.81425432678789,31.720692474453244,-70.23080796591239,27.488073781150817,-73.12287247579113,22.581573359263658,-76.54212484516457,16.855065468930334,-80.54164541682803" fill="none" stroke="rgb(165, 42, 42)" stroke-width="2" stroke-linejoin="round" filter="url(#fuzzy)"></polyline><polyline points="-22,-83,-20.061304411094795,-83.84702672194895,-18.698199014675815,-84.35615614494856,-18.042059384269386,-84.54706219663606,-17.820039149529162,-84.53329721498447,-17.776916229389364,-84.40253712417648,-17.792945810206547,-84.17729811931837,-17.87540860257736,-83.82458772479339,-18.11338172532202,-83.2928041989089,-18.631717173646564,-82.54823929869133,-19.548265381923997,-81.59057111347548,-20.936855186837928,-80.44336738681216,-22.81188218602625,-79.12905316055647,-25.149436614375695,-77.6415975447239,-27.933967906939323,-75.92828472095074,-31.19069708299455,-73.89334881770506,-34.96807824210653,-71.44171983920182,-39.279452072795145,-68.56566614870654,-44.04620873399722,-65.39343885878597" fill="none" stroke="rgb(165, 42, 42)" stroke-width="2" stroke-linejoin="round" filter="url(#fuzzy)"></polyline><polyline points="34,-74,34.57293514259984,-73.48053684933033,35.60620395626247,-72.61428344074177,36.76464496476092,-71.59812395428513,37.98217847255769,-70.44787928024489,39.23095200436699,-69.22776712354072,40.48480567039244,-68.0039053570131,41.71759821544559,-66.81229067911714,42.9088585417467,-65.65918769705544,44.04670648012943,-64.53567948423407,45.1230113825858,-63.43680878418187,46.1242629981771,-62.37767082628853,47.026834975594184,-61.39743823017543,47.80176222102051,-60.547386402818944,48.42531998077439,-59.86981802074121,48.8862630438475,-59.3825646375619,49.18386458556975,-59.08097367565645,49.319660133247396,-58.956723596848676,49.29128704209843,-59.01885230716248,49.09317338114298,-59.29686862783154,48.718334209625596,-59.81650095321819,48.14522131377565,-60.57290106367563,47.29473633485186,-61.575634895298215" fill="none" stroke="rgb(165, 42, 42)" stroke-width="2" stroke-linejoin="round" filter="url(#fuzzy)"></polyline><polyline points="-37,-75,-37.057518801647205,-74.6842397444203,-35.83322528008542,-75.08801197913158,-33.89104583989005,-75.82902616875995,-31.62524700187882,-76.7039846000172,-29.184752446069023,-77.61410768081507,-26.54822088264254,-78.54286513988566,-23.671407771874254,-79.50097046987105,-20.57772854707472,-80.48502232865472,-17.364237556803175,-81.47512692440434,-14.160804698690058,-82.45225988293043,-11.078908142364329,-83.4085185663793,-8.1693264819585,-84.3460797494657,-5.405192199899117,-85.27163197559848,-2.693397026734626,-86.17310754999879" fill="none" stroke="rgb(165, 42, 42)" stroke-width="2" stroke-linejoin="round" filter="url(#fuzzy)"></polyline><polyline points="-24,-82,-23.5133535624221,-82.23026603948806,-22.238350671324195,-82.60629866529749,-20.38063669086705,-82.98108008289616,-18.210081819734185,-83.28921069699895,-15.972548922372388,-83.4745354784567,-13.777611469237803,-83.52054806748406,-11.596482968559766,-83.45264463111377,-9.334363813315429,-83.31170724696933,-6.90780432585516,-83.12738173804972,-4.289411760108809,-82.90896670634598,-1.5167752504348755,-82.65411233901978,1.324294148178982,-82.36421685197882,4.133365157974951,-82.05391724641383,6.8360625058151525,-81.74837404620366,9.413313687448618,-81.47138794399939,11.896330402089358,-81.23418478923347,14.32124048846772,-81.03462074746777,16.67250306212518,-80.86827665934558,18.86677277738805,-80.73835814782989,20.80624935323448,-80.6355997609983,22.475630233888698,-80.46274970124917" fill="none" stroke="rgb(165, 42, 42)" stroke-width="2" stroke-linejoin="round" filter="url(#fuzzy)"></polyline><polyline points="1,-87,2.8638050296476223,-86.55600900971945,4.045225350001532,-86.42074949276952,4.999101354298205,-86.2779046794243,5.744710648164766,-86.10922553755596,6.312449738955345,-85.91729230999024,6.727583963230513,-85.70183868454605,6.983570944339563,-85.47016756517587,7.045039737351036,-85.23543126207719,6.8638169014444035,-85.0095277222135,6.39805170479114,-84.79909091072295,5.626084820983117,-84.60501730315454,4.545875956106411,-84.4231842934603,3.1561936876345227,-84.24517575601445,1.4276586659346293,-84.05870036837354,-0.7159705699149512,-83.84773377537448,-3.3826721210136625,-83.59412789119901,-6.654653883499892,-83.28423704836207,-10.514861076488225,-82.92073486909968,-14.82203960163108,-82.53061801899092,-19.3861007508385,-82.16756936067914" fill="none" stroke="rgb(165, 42, 42)" stroke-width="2" stroke-linejoin="round" filter="url(#fuzzy)"></polyline><polyline points="7,-86,8.393469402077617,-85.7283864191698,9.487728995179978,-85.30245188728907,10.694812389652686,-84.88938603392461,12.000284275906555,-84.49154927442595,13.315427087514927,-84.10982716781568,14.587031072335217,-83.74759893924389,15.795933575660667,-83.39949485969149,16.930222542722827,-83.0569016269922,17.971091673888925,-82.71882751296533,18.895606463126125,-82.39572679478171,19.68477727887612,-82.10459156802034,20.326177407712116,-81.86105565072123,20.809490427404317,-81.67509972852368,21.12036799194215,-81.55287905386433,21.237731340103114,-81.50170273490077,21.134771705429284,-81.53227082036719,20.7808270947926,-81.65459608480526,20.143582683715465,-81.87069018452283,19.1946283774208,-82.17302196786345,17.917229494954352,-82.5572464536755,16.303363802479865,-83.05198053648692,14.335886790254113,-83.77005024927094" fill="none" stroke="rgb(165, 42, 42)" stroke-width="2" stroke-linejoin="round" filter="url(#fuzzy)"></polyline><polyline points="-28,-80,-27.679680239793285,-80.24991451378943,-27.057805773895865,-80.6128815057886,-26.376767651699705,-80.93781473293281,-25.70048907268796,-81.24756793712947,-25.03880985335617,-81.55913558826786,-24.383917341462954,-81.86446379433852,-23.738457026270435,-82.14053930818781,-23.141830511963366,-82.35504121585186,-22.672440720373082,-82.46929878346201,-22.421166502231664,-82.44374557503178,-22.45439617029866,-82.24573524103334,-22.790709763765335,-81.85605576634407,-23.403718328925464,-81.27094606698769,-24.24672532130786,-80.4990449542119,-25.28466109728789,-79.55500375786873,-26.51895653067148,-78.45214085445318,-27.996971245462774,-77.19553513255181,-29.802545075108313,-75.7754020080722,-32.02731249050323,-74.16071926592056,-34.72943266210473,-72.29810784651204,-37.89927777301673,-70.13057056341103,-41.45494483567162,-67.64767035226966,-45.25397368031066,-64.92162332709074" fill="none" stroke="rgb(165, 42, 42)" stroke-width="2" stroke-linejoin="round" filter="url(#fuzzy)"></polyline><polyline points="-17,-85,-15.69123037057725,-85.16688198998045,-13.97773613735388,-85.26533163725354,-11.928568669132684,-85.10707132625419,-9.673097993363243,-84.71667551216755,-7.37264495719289,-84.16189586345688,-5.084669451639993,-83.50205827688367,-2.7607296996671966,-82.7700971256007,-0.31887104029480184,-81.9707907814302,2.2966750432892784,-81.09251659159446,5.097700669684927,-80.12514036639195,8.062332700278823,-79.07247982927795,11.152359695780671,-77.95218857001112,14.32644573452598,-76.78577713482349,17.54715391575895,-75.58839602352751,20.783603567076224,-74.36629762015383,24.01268767138804,-73.12145826032766,27.220518973744905,-71.85557208238276,30.40206105878531,-70.56675398675392,33.55558323253426,-69.24130115879865,36.67532975105148,-67.85118540865828,39.74828188813851,-66.37319141368225,42.703354313064686,-64.88552752608481" fill="none" stroke="rgb(165, 42, 42)" stroke-width="2" stroke-linejoin="round" filter="url(#fuzzy)"></polyline><polyline points="58,-45,58.04455541108358,-45.32842067865216,57.815106688745516,-44.980951268251424,56.98048248241197,-44.80313789507178,55.455088125892104,-45.16093666859678,53.24996703000914,-46.070488806801364,50.36031497355917,-47.47597689562726,46.74730139867919,-49.36690614116312,42.372345362376024,-51.764148660464095,37.2240861229613,-54.68371732129383,31.31177368887168,-58.14430439428824,24.627002531330806,-62.20657041785438,17.07710713184911,-66.98168389052007,8.407088601047953,-72.56370421144878,-1.8050188900701567,-78.93060952236884" fill="none" stroke="rgb(165, 42, 42)" stroke-width="2" stroke-linejoin="round" filter="url(#fuzzy)"></polyline><polyline points="48,-61,48.5419683944939,-59.52413631598936,48.22769153104224,-58.61175131860424,46.9990546986697,-58.01554364312459,44.83090877095094,-57.58375956008317,41.69738222337541,-57.263724291566874,37.576704278685284,-57.067881038197555,32.45381742764864,-57.03671357841006,26.31380398350376,-57.20981598024845,19.1365160316371,-57.60306537474949,10.892134896871703,-58.1980991537079,1.527107167345683,-58.947366727564884,-9.058585854450083,-59.78941651050168,-21.002675294181053,-60.68618871072516,-34.36936243310774,-61.709280835163256" fill="none" stroke="rgb(165, 42, 42)" stroke-width="2" stroke-linejoin="round" filter="url(#fuzzy)"></polyline><polyline points="51,-57,52.03642222539623,-55.27078463515745,52.36940777841478,-54.436536723912056,52.43798709737016,-53.92471381642285,52.24146343300136,-53.6980427850042,51.74872472202479,-53.74744028483891,50.94528187441206,-54.05894985266458,49.80055292412945,-54.653536453628604,48.25343964388243,-55.59197885182709,46.232625887613985,-56.941024203183176,43.686777792357965,-58.736638024194555,40.59478114421976,-60.98183158664477,36.94829979491669,-63.68240071740815,32.72444644352685,-66.87955358490626,27.872304675717864,-70.63102533286362,22.319806645768104,-74.94617417050836,16.000939602378516,-79.75255781487327" fill="none" stroke="rgb(165, 42, 42)" stroke-width="2" stroke-linejoin="round" filter="url(#fuzzy)"></polyline><polyline points="-2,-87,-0.41462217821669467,-86.97381090174086,0.8672918789122899,-86.85703566628062,2.155925314747879,-86.66450547255809,3.5063219084217923,-86.44657556490773,4.854483508119171,-86.22892799494267,6.119421121615836,-86.01603492719087,7.24543577989267,-85.80784021476626,8.205110594396658,-85.60725913972372,8.985149383544922,-85.42242813110352,9.574052129914435,-85.26763924868297,9.9558228816861,-85.16153283449202,10.103733374480015,-85.12188953864717,9.974691321645121,-85.1604289566514,9.51333338253588,-85.28221011340635,8.661862830611296,-85.48981436303143,7.354519164717861,-85.7794359322706,5.57189718869824,-86.08064125561738" fill="none" stroke="rgb(165, 42, 42)" stroke-width="2" stroke-linejoin="round" filter="url(#fuzzy)"></polyline><polyline points="40,-69,41.23561066296424,-67.9088752083609,41.80029481269478,-67.36865573168053,42.10159856818474,-66.84758561044362,42.17689708891156,-66.3306845951678,41.94545273629274,-65.92603443112444,41.32765944607982,-65.73047459332227,40.28960822633012,-65.77779754831789,38.83599429881856,-66.04624100543585,36.98410368895427,-66.49434901494358,34.74459934234619,-67.09264421463013,32.115423217014545,-67.83730127851584,29.083149295704377,-68.74852602169037,25.624233377363353,-69.86137722755564,21.699056443262435,-71.21525465983265,17.235907559489988,-72.84565827430811,12.120517391693273,-74.77879791243299,6.231510429294985,-77.02617735121333,-0.4571877597395879,-79.57163161982743,-7.820920122579852,-82.32641349641916" fill="none" stroke="rgb(165, 42, 42)" stroke-width="2" stroke-linejoin="round" filter="url(#fuzzy)"></polyline><polyline points="14,-84,14.74634614182973,-83.92476070716943,15.45689157026678,-83.64366760831183,16.040084570748203,-83.23766314865773,16.345710201176086,-82.79194557774974,16.34579737924012,-82.3442642239693,16.059034012655697,-81.89489225564785,15.491218596280586,-81.42726947201979,14.624399890845353,-80.92544735961897,13.430844707909124,-80.38032450214796,11.88451161069284,-79.786685573612,9.959414601325989,-79.13976562023163,7.622380802194964,-78.43716037414697,4.832601857668633,-77.68276702633243,1.5508824574218547,-76.88371846357335,-2.2503550676468116,-76.03663018792582,-6.5865134942747225,-75.11365187842861,-11.46926054803829,-74.06879247778298,-16.911789783418037,-72.87624708961243,-22.917212208007875,-71.58261535153761,-29.450078050124553,-70.3192187784118,-36.440261494494116,-69.19781993957474" fill="none" stroke="rgb(165, 42, 42)" stroke-width="2" stroke-linejoin="round" filter="url(#fuzzy)"></polyline><polyline points="-11,-86,-9.570867994930063,-85.9998800039827,-8.840847499940836,-86.03038529965504,-8.19634220417559,-86.13402242662234,-7.381519548209858,-86.29488792919075,-6.4022531477974205,-86.45687969193739,-5.328930621181014,-86.57818575720313,-4.227350646230709,-86.65436271420828,-3.151251572533533,-86.70430110135953,-2.143473943320124,-86.74562443958376,-1.236784879585448,-86.78136725936342,-0.4568744539064493,-86.8021090649044,0.1735543012619019,-86.79601955413818,0.6317390209938266,-86.75788132112412,0.8929533420278816,-86.69239883855258,0.9297397518008688,-86.61140142718511,0.7142377728089966,-86.52674606594488,0.2252197477650184,-86.44197479114905,-0.5428640330554533,-86.34787887437867,-1.5742719786640231,-86.22895252995474,-2.830975836933343,-86.0834859376065,-4.259574981786797,-85.94430960563713,-5.852102309945814,-85.86954224158485,-7.860792316670061,-85.89096215212392" fill="none" stroke="rgb(165, 42, 42)" stroke-width="2" stroke-linejoin="round" filter="url(#fuzzy)"></polyline><polyline points="34,-74,35.05248297394206,-72.87554790771357,35.06591979101641,-72.19024028436196,34.31387909628889,-71.45993459786061,32.79829150515748,-70.71981919573857,30.46320670975151,-70.03592575611049,27.24362350948516,-69.41231450435093,23.08811369850531,-68.82131798841046,17.97079030657642,-68.23813520676426,11.88527649760215,-67.65378656369377,4.819300731407623,-67.07780567072693,-3.276037977384277,-66.53880116694768,-12.500393874200995,-66.0649312092029,-22.989071001556656,-65.60514210805727,-34.85546213214228,-64.93105836477604" fill="none" stroke="rgb(165, 42, 42)" stroke-width="2" stroke-linejoin="round" filter="url(#fuzzy)"></polyline><polyline points="-24,-82,-22.69204331601857,-82.59873207586185,-20.554130266103535,-82.8813987837809,-17.798829298441156,-82.97926441833499,-14.748011259303894,-82.83028567658039,-11.555322399893232,-82.39787325325815,-8.182470148151104,-81.71631056903004,-4.511117328150595,-80.86246779985937,-0.45594024658203125,-79.91202545166016,3.9880589112412537,-78.90626255129627,8.757143506756327,-77.84225087098802,13.745716069953573,-76.69049765758115,18.82097485632403,-75.4298466569162,23.844464119308213,-74.07640381345286,28.737081103090276,-72.68109074494686,33.52935205523084,-71.28893362731823" fill="none" stroke="rgb(165, 42, 42)" stroke-width="2" stroke-linejoin="round" filter="url(#fuzzy)"></polyline><polyline points="3,-87,5.287954000149971,-86.38103122714018,6.211397392383824,-86.11563750165777,6.771948488746602,-85.94351391577872,7.153477738392279,-85.76060907280363,7.336086737013029,-85.55352109165302,7.278048376383079,-85.34125915169751,6.925489941483148,-85.14844665504586,6.1973576660795064,-85.00084290026052,4.984145811072613,-84.91995208488714,3.1633310002868757,-84.90928094151468,0.6337925240140079,-84.94460228615895,-2.647913246628254,-84.98064536632688,-6.67827603413796,-84.97125975157559,-11.475661304158999,-84.9091048506696" fill="none" stroke="rgb(165, 42, 42)" stroke-width="2" stroke-linejoin="round" filter="url(#fuzzy)"></polyline><polyline points="-22,-83,-19.95983166898837,-83.87616035985674,-18.337876973533415,-84.46328349312543,-17.235904683822977,-84.8038740731442,-16.360781987448963,-85.02625156796535,-15.457239444937157,-85.22513189570546,-14.407715836239596,-85.43442166563909,-13.214985515300988,-85.64397389881543,-11.959252157683036,-85.8306861084566,-10.754500701348405,-85.98151179813864,-9.705629981236038,-86.09927708591309,-8.873826327735516,-86.19512914202525,-8.26465946753819,-86.27736178119243,-7.845100391408806,-86.3449733282263,-7.579106213856157,-86.38915703369399,-7.46242944515484,-86.4005487980888,-7.540454896002763,-86.3763856721792,-7.899824980870493,-86.32082894662908,-8.631265400431522,-86.23507069382418,-9.77715407764738,-86.10285108781858,-11.304042955988747,-85.88942747753183,-13.132123695936349,-85.5769164786782,-15.144408371367444,-85.23248962062694" fill="none" stroke="rgb(165, 42, 42)" stroke-width="2" stroke-linejoin="round" filter="url(#fuzzy)"></polyline><polyline points="-17,-85,-15.850389374501335,-85.24121691460344,-14.616092328039436,-85.54995214001335,-13.368220805205294,-85.72121124195633,-12.237835892343075,-85.76491965347327,-11.387818458410486,-85.72951094050066,-10.879092314465566,-85.6529426362009,-10.669530271598342,-85.54921551450093,-10.683485718289665,-85.4070150892733,-10.867478948481272,-85.1989639064901,-11.207331055320036,-84.89726720528367,-11.721537554276262,-84.48591970140568,-12.448214819663963,-83.96225170959559,-13.432183547301976,-83.32903555984173,-14.71428547064849,-82.58409833383477,-16.326907156837425,-81.71306417383748,-18.298469270000325,-80.68641564782077,-20.6620359187755,-79.46139557157474,-23.456629789264255,-77.99329326110227,-26.71360302172701,-76.26166528624893,-30.433602940018375,-74.3062955293243,-34.57092250145559,-72.24390301985515,-39.056642316552654,-70.19736758908667" fill="none" stroke="rgb(165, 42, 42)" stroke-width="2" stroke-linejoin="round" filter="url(#fuzzy)"></polyline><polyline points="-30,-79,-28.561759126464324,-79.7039489188234,-27.403072759367998,-80.23110187626379,-26.153890485116527,-80.71192007388258,-24.749402081910052,-81.18014744652402,-23.20158508669009,-81.6701356647881,-21.537088989632675,-82.20363752281233,-19.776067141189024,-82.78231703315218,-17.93459559109428,-83.39282779716348,-16.048673629760742,-84.01042938232422,-14.197242894489131,-84.5987686394047,-12.495666330195505,-85.11459855700906,-11.053533170260387,-85.524467391639,-9.92451388529557,-85.8277288102677,-9.088463518597262,-86.06589351080598,-8.476302505573916,-86.2933498794863,-8.008436033497482,-86.49977041820198,-7.676938320242745,-86.51853069077747" fill="none" stroke="rgb(165, 42, 42)" stroke-width="2" stroke-linejoin="round" filter="url(#fuzzy)"></polyline><polyline points="-20,-84,-18.094124905279866,-84.62857832685371,-17.23654352936168,-84.88905429986833,-16.63156723100912,-85.04083743954985,-15.9221462385754,-85.20256914953342,-15.002632582945038,-85.39854753718072,-13.902898197272126,-85.60082451819319,-12.722297295655354,-85.77376442825565,-11.588350607476364,-85.90131696086839,-10.619542988499713,-85.9905048458556,-9.893984741172053,-86.05914349855286,-9.436618284778998,-86.11989804298582,-9.22904830586247,-86.17024747248388,-9.232272379188522,-86.1933006083041,-9.408634549923324,-86.16855267100986,-9.73671903515657,-86.08502574734308,-10.222213214526706,-85.94539075750082,-10.909855918266016,-85.75399159626438,-11.89432821230273,-85.49530027870159,-13.314314124405925,-85.12393938645303,-15.301376723238189,-84.58756230029887,-17.86900595669164,-83.87687524944458,-20.82484901947823,-83.03943423124907" fill="none" stroke="rgb(165, 42, 42)" stroke-width="2" stroke-linejoin="round" filter="url(#fuzzy)"></polyline><polyline points="-14,-86,-13.178977759542079,-85.99170317178192,-11.8158770926588,-85.95570369226995,-10.821446588026069,-85.88693889375934,-10.400942454647906,-85.79334659265926,-10.427999428806675,-85.68140093643842,-10.750206279929035,-85.53599472973906,-11.316146647108553,-85.3143097721208,-12.16167594001795,-84.96268521748024,-13.36313805457326,-84.44431076358227,-15.018101796882508,-83.75395398873704,-17.239215065657994,-82.90333024826586,-20.130627189198034,-81.88388871151288,-23.770188049009512,-80.63544078953196,-28.27748572636011,-79.04525415955321" fill="none" stroke="rgb(165, 42, 42)" stroke-width="2" stroke-linejoin="round" filter="url(#fuzzy)"></polyline><polyline points="-17,-85,-17.05725821833765,-84.96387065311508,-17.129702784693144,-84.86806338085138,-17.11270176872484,-84.72849514587439,-17.023542086811105,-84.51981089493245,-16.957787464988797,-84.18030048832736,-17.048227844453578,-83.65035737244547,-17.453420345536273,-82.89555559793683,-18.331739672708224,-81.90255255664879,-19.792188826759997,-80.66200940958004,-21.859180756159073,-79.15655773537094,-24.484035324940923,-77.36269332814754,-27.593008179039295,-75.26257557070184,-31.133500182511927,-72.85389895655595,-35.10315189142411,-70.1479903931025,-39.590807714775636,-67.15055073685627,-44.82193630921079,-63.81648064538757" fill="none" stroke="rgb(165, 42, 42)" stroke-width="2" stroke-linejoin="round" filter="url(#fuzzy)"></polyline><polyline points="-32,-78,-30.632489060752693,-78.55512124023358,-28.448837389069173,-78.67478180410252,-25.630975065705698,-78.52228109291362,-22.26709317941307,-78.12361780004247,-18.360490639925885,-77.49091846043287,-13.898672904785096,-76.64964869676074,-8.887885507613388,-75.63563043425619,-3.356498862710543,-74.48148325923444,2.6582971535982587,-73.20877720017961,9.126615799609914,-71.83076420617496,16.028098482707026,-70.35227590097091,23.324828968629056,-68.75449154604892,30.90327862522856,-66.98697517586919,38.52904829620053,-65.02754968459774" fill="none" stroke="rgb(165, 42, 42)" stroke-width="2" stroke-linejoin="round" filter="url(#fuzzy)"></polyline><polyline points="61,-40,61.479115923706225,-38.614102649035296,61.36777089067431,-37.92528188171863,60.94508186994235,-37.537265874620545,60.22316041426768,-37.361070054750655,59.10065731267754,-37.491449480909935,57.487747094606284,-38.02600591693138,55.35011279688233,-38.99292295176062,52.6914738993265,-40.374031713656734,49.521010536552645,-42.150800728816066,45.837760254855894,-44.32338357960117,41.63505189572692,-46.90172065131796,36.91037674223152,-49.89628930621976,31.665347571031997,-53.32810634777649,25.886169736560802,-57.248149641478115,19.503267064809613,-61.73675974296919,12.355344264705728,-66.86747654714628,4.241232724635983,-72.66108611279567,-4.812486330967785,-79.07806656390724" fill="none" stroke="rgb(165, 42, 42)" stroke-width="2" stroke-linejoin="round" filter="url(#fuzzy)"></polyline><polyline points="-30,-79,-28.51551177040736,-79.6309125489667,-27.23172159748712,-79.93078794217881,-25.756571678922338,-80.04062586187155,-24.010455966411534,-80.0112721390385,-21.98470142125649,-79.89129380069372,-19.676810903188393,-79.71136717666712,-17.07938856986029,-79.48089978413897,-14.194886898002284,-79.19550244831686,-11.056275261835129,-78.84292489043581,-7.731494614657663,-78.40669239066237,-4.30316653280406,-77.8716098991459,-0.8351901769638062,-77.23161506652832,2.6519011039171474,-76.49531965757318,6.181376290342962,-75.6839207307183,9.797598555813634,-74.82074880026195,13.534776814985003,-73.91805956295738,17.393586212872087,-72.97018598009505,21.334026019427863,-71.96012486390123,25.284067377579007,-70.88003689170344,29.15965271594436,-69.75924107447705,32.88887826792705,-68.68685973267017,36.43028532033308,-67.79385423782006,39.786293776204744,-67.09032540129188" fill="none" stroke="rgb(165, 42, 42)" stroke-width="2" stroke-linejoin="round" filter="url(#fuzzy)"></polyline><polyline points="-8,-86,-6.615776510961835,-86.50241244734326,-5.131186434767261,-86.3680180157102,-3.097935965467446,-85.87034228903121,-0.6324701086987825,-85.20672453979087,2.1352857514977743,-84.45696251754002,5.147344286305486,-83.61288190282957,8.36356671019055,-82.64392060157023,11.728980780003411,-81.54408289312214,15.182000032959692,-80.345637316395,18.66732083960588,-79.10904688884433,22.130634430591897,-77.89887141007338,25.503688697105616,-76.74983697894605,28.701249355276854,-75.64072066229794,31.629694637647724,-74.56284296645254" fill="none" stroke="rgb(165, 42, 42)" stroke-width="2" stroke-linejoin="round" filter="url(#fuzzy)"></polyline><polyline points="-14,-86,-13.025421343054981,-85.98530701287979,-11.238168587017192,-85.94801040127338,-9.532379983469886,-85.90456521936322,-8.07129707951257,-85.8809749872575,-6.7141981004001865,-85.89656871056766,-5.3149249789653705,-85.94562841808157,-3.8222429878014905,-85.99895741105453,-2.2589246356238784,-86.02504224004699,-0.6781828353393622,-86.01176397184625,0.8599674167207003,-85.97153698945587,2.29607109263724,-85.92861024222327,3.575338792244536,-85.90130052531742,4.65287404919557,-85.89383048591365,5.498021748912938,-85.90255585833208,6.093813168882225,-85.92752469151601,6.430570961755679,-85.97234045243611,6.521916774611787,-86.02329952552691,6.530680790556258,-86.03382866224202" fill="none" stroke="rgb(165, 42, 42)" stroke-width="2" stroke-linejoin="round" filter="url(#fuzzy)"></polyline><polyline points="-10,-86,-8.24672594700497,-86.23945862480056,-6.916018570544834,-86.5329832947373,-5.726593338322403,-86.66730292971884,-4.5072817220331824,-86.68686714944921,-3.2589157106529987,-86.6785799973162,-2.0247673682679337,-86.6855502831103,-0.8394017325802933,-86.70368993845796,0.2679410652962896,-86.71078131268104,1.2648578695138988,-86.69184395160315,2.115608518569286,-86.6480247556555,2.7833630838001335,-86.59210606669055,3.230562037847485,-86.53883963649652,3.4195118712275283,-86.4966989102385,3.3164650054121116,-86.46418725146623,2.8978720025926332,-86.43191220549926,2.1520821614201453,-86.39187954494612,1.069326849429368,-86.35444197970804,-0.3763809455003422,-86.36424264851027,-2.216469025751967,-86.48674659947258,-4.33817992870961,-86.7315601368386" fill="none" stroke="rgb(165, 42, 42)" stroke-width="2" stroke-linejoin="round" filter="url(#fuzzy)"></polyline><polyline points="-17,-85,-16.81505068474122,-84.93451591218,-16.148678497302516,-84.77560694512322,-14.878787752463595,-84.58015594568533,-13.011896387612301,-84.35015400326158,-10.638121791194862,-84.0422858847885,-7.890312525877786,-83.61783478124511,-4.923117402067683,-83.07322677449376,-1.8770278003384417,-82.43767231890692,1.165457059096668,-81.75134822385124,4.196230888366699,-81.04249048233032,7.255158115247374,-80.31619787938085,10.382390484199615,-79.5594626832211,13.584256708307658,-78.75905956117418,16.82894634172223,-77.92228924004216,20.062644922132677,-77.08637448482227,23.229843169264413,-76.30325197813649,26.289132850379687,-75.59703249489162,29.21110539665094,-74.92178805273335,31.91470178212904,-74.22998714472817" fill="none" stroke="rgb(165, 42, 42)" stroke-width="2" stroke-linejoin="round" filter="url(#fuzzy)"></polyline><polyline points="29,-78,29.325449131263586,-77.26086790380025,30.08115429801663,-76.5653467525622,31.107043296610545,-75.77022843975324,32.22380911809976,-74.95224992759226,33.30368915984163,-74.18364061990161,34.30766246592753,-73.47755997932403,35.24490411137912,-72.81132126720135,36.12534330857769,-72.16266388088042,36.9388634035918,-71.53163052292379,37.657456665414244,-70.94500584581132,38.24552798271179,-70.44763541221619,38.6684365601617,-70.08617127695989,38.89722297712595,-69.89260077677932,38.91128690744642,-69.87562062841018,38.699397101985134,-70.024696196988,38.2554493053175,-70.32616367988116,37.56405683696701,-70.78659555861218,36.579061905783675,-71.4546481233169,35.21928365864558,-72.42191687457431,33.42849567297423,-73.76685853091602,31.307688279293142,-75.41589681399824" fill="none" stroke="rgb(165, 42, 42)" stroke-width="2" stroke-linejoin="round" filter="url(#fuzzy)"></polyline><polyline points="-30,-79,-28.370271009917175,-79.59074825195873,-26.631436347377317,-79.79795220854298,-24.41915007209393,-79.7656251042898,-21.66999428346753,-79.5448760301224,-18.39348686672151,-79.18538253385584,-14.609915043546025,-78.71662677393986,-10.333830100039952,-78.1431861549324,-5.57861328125,-77.46166229248047,-0.3839005192502398,-76.67794016482583,5.153205063441462,-75.80902536322562,10.882023354736871,-74.86697368078387,16.660267531871796,-73.83804525557207,22.442913380826653,-72.68090922820555,28.307190676448457,-71.36077342988659,34.300918548978224,-69.9441297365623" fill="none" stroke="rgb(165, 42, 42)" stroke-width="2" stroke-linejoin="round" filter="url(#fuzzy)"></polyline><polyline points="56,-49,57.11025886118541,-47.38243030606414,57.26557895814137,-46.46853475034652,56.96977202735616,-45.90555082284498,56.32680086069605,-45.47468702048238,55.302536483246776,-45.187798863504014,53.86367180955922,-45.10093627464902,52.00334990539567,-45.230231181027754,49.722601109740225,-45.56499628446085,47.016461513579266,-46.09657931084034,43.873954476338525,-46.82752062243872,40.28040885925293,-47.76843738555908,36.214008779997584,-48.93631395153345,31.64072199762812,-50.35448605201162,26.516750459496684,-52.04669001089026,20.801230802850224,-54.02453680663291,14.472181193041646,-56.280235768958136,7.536650352929012,-58.798023125245535,0.033912376240955666,-61.581415493121455,-7.965766212144466,-64.66808180290272,-16.396239001481973,-68.08597878949641,-25.39926601491097,-71.70580222964315" fill="none" stroke="rgb(165, 42, 42)" stroke-width="2" stroke-linejoin="round" filter="url(#fuzzy)"></polyline><polyline points="54,-52,54.26975547904022,-51.65866325282141,54.786123230864156,-50.8927404331914,55.41839611592898,-49.92630524155702,56.08494273433462,-48.91166253905976,56.67097444808085,-47.998207426293625,57.08833678117211,-47.299228956229406,57.30189239262819,-46.86753801066263,57.30525207519531,-46.72637176513672,57.08967918513376,-46.91429019593238,56.636052625315386,-47.49019435846145,55.92305414225773,-48.501188567673125,54.927762703970075,-49.96864541171817,53.61352710941867,-51.929450326784455,51.94146197659691,-54.477089293152034,49.96376356956162,-57.65081060329464" fill="none" stroke="rgb(165, 42, 42)" stroke-width="2" stroke-linejoin="round" filter="url(#fuzzy)"></polyline><polyline points="18,-83,18.370716068413575,-82.71851280614433,19.176570475001977,-82.25972332370829,20.216589946266243,-81.7799194903816,21.406396647172098,-81.26490778415119,22.661934683106388,-80.70932607932477,23.916502324521566,-80.12826599615923,25.1363539867448,-79.53578524806116,26.304148950923203,-78.9377623476556,27.395816706284947,-78.34077197713536,28.373624418596506,-77.76249268431246,29.197190403938293,-77.23264539241791,29.839694454026002,-76.78474797483085,30.294903791916788,-76.44689312293175,30.56852667322009,-76.23931499389505,30.658448902020098,-76.17973225838949,30.536583048052705,-76.28998364853857,30.146162762307874,-76.59470013728793,29.42108001842994,-77.10735567945984,28.32082807832713,-77.81022353831479,26.859666394262966,-78.65192898644283,25.09161342431473,-79.61909374573615" fill="none" stroke="rgb(165, 42, 42)" stroke-width="2" stroke-linejoin="round" filter="url(#fuzzy)"></polyline><polyline points="6,-86,7.23548098251584,-85.86270505006459,8.618063728216379,-85.4261495044485,10.093440922850423,-84.80642465535733,11.731987408543766,-84.0873751550842,13.517842815366976,-83.30370033680913,15.393979167281751,-82.4726522529856,17.317913718125034,-81.60024127428127,19.271454721386885,-80.68301298016615,21.241860466083466,-79.71949744148273,23.204491546639225,-78.72356077296472,25.12314106066513,-77.72639406256204,26.9641706599171,-76.76378611373573,28.708417376005343,-75.858534050243,30.347754953592137,-75.01302046865501,31.868198083606494,-74.21970604323894,33.236218671583714,-73.48257273187882,34.40495090044021,-72.83274416177471,35.33677354522743,-72.3286135260305,36.011231238888435,-72.05546568152019,36.365967455467036,-72.16376498607988" fill="none" stroke="rgb(165, 42, 42)" stroke-width="2" stroke-linejoin="round" filter="url(#fuzzy)"></polyline><polyline points="13,-84,14.062695174342627,-83.85998752448705,15.417830461401996,-83.39250296496455,17.126290033121702,-82.5866853042881,19.100388034899836,-81.51100847529744,21.221334419409096,-80.26005204902839,23.43317830173327,-78.90845556455506,25.73461740791709,-77.49154703335319,28.128209528121037,-76.01428697405578,30.581160625084827,-74.4809288211628,33.01783355345462,-72.92910008174606,35.337778892093205,-71.44632317125848,37.444622775097756,-70.14347480479825,39.276546459089516,-69.07929511066946,40.81589198193191,-68.24416813918461" fill="none" stroke="rgb(165, 42, 42)" stroke-width="2" stroke-linejoin="round" filter="url(#fuzzy)"></polyline><polyline points="-3,-86,-2.7073282676311488,-86.58827163729325,-2.1025297685009976,-86.71488302952876,-1.5752033754046275,-86.5693043537434,-1.3166764497774084,-86.21119137012207,-1.3784178511781786,-85.6690241632729,-1.7793197400233032,-84.96707053315713,-2.5538793941487237,-84.12119133336383,-3.751548177387045,-83.13246252127946,-5.419214613958509,-81.98541193532712,-7.588591209421478,-80.65104909037152,-10.27371222917444,-79.09705206300336,-13.4732778832536,-77.3046115477733,-17.175398286173454,-75.28254559378428,-21.371126092013895,-73.06536889958008,-26.080402815438514,-70.6905683198955,-31.37284045771125,-68.16453131114983,-37.34227461204861,-65.43543525917408,-43.99045470504311,-62.402301616594364" fill="none" stroke="rgb(165, 42, 42)" stroke-width="2" stroke-linejoin="round" filter="url(#fuzzy)"></polyline><polyline points="-28,-80,-27.631124927196225,-80.26239524720035,-26.86137644074742,-80.66983906655997,-25.93482644501557,-81.07517826117451,-24.91762125959068,-81.50295919609327,-23.82370538508777,-81.97221641559152,-22.649312247584692,-82.47947308077623,-21.400942077574356,-83.0092302772609,-20.126808192650014,-83.53684296639334,-18.92159076710404,-84.02869410009204,-17.892790180440468,-84.44879549622567,-17.110726356506348,-84.77154850959778,-16.577774303161547,-84.99203635227047,-16.2386838427189,-85.12476946244924,-16.02723728400302,-85.18902443896724,-15.92374643099178,-85.18873128563543,-15.992297566596852,-85.10078263954755,-16.373826517318477,-84.88299951567933,-17.22500090529566,-84.5012366032567,-18.614237361095782,-83.95883057463762,-20.4224610208792,-83.30167143324833,-22.336697061199082,-82.59493910749937" fill="none" stroke="rgb(165, 42, 42)" stroke-width="2" stroke-linejoin="round" filter="url(#fuzzy)"></polyline><!--]--></g><g id="pointNose"><g id="rightNose"><!--[--><circle r="1.5338154568822966" cx="12.014461067841259" cy="29.686501317391574" stroke="black" fill="none" stroke-width="1" filter="url(#fuzzy)"></circle><circle r="2.5523943457572553" cx="10.105821678584519" cy="29.41653580684036" stroke="black" fill="none" stroke-width="1" filter="url(#fuzzy)"></circle><circle r="2.436265068702731" cx="12.96848720763877" cy="29.055775228164098" stroke="black" fill="none" stroke-width="1" filter="url(#fuzzy)"></circle><circle r="1.7891013169741221" cx="11.877688616543661" cy="26.383155914756433" stroke="black" fill="none" stroke-width="1" filter="url(#fuzzy)"></circle><circle r="2.633708488403178" cx="9.621378916035855" cy="28.106520250732437" stroke="black" fill="none" stroke-width="1" filter="url(#fuzzy)"></circle><circle r="1.1762312028398214" cx="11.112669137013025" cy="29.12579126288956" stroke="black" fill="none" stroke-width="1" filter="url(#fuzzy)"></circle><circle r="2.331627357904483" cx="13.089084133631246" cy="29.002469866435433" stroke="black" fill="none" stroke-width="1" filter="url(#fuzzy)"></circle><circle r="2.208429602587096" cx="12.547149196271116" cy="29.37344036888214" stroke="black" fill="none" stroke-width="1" filter="url(#fuzzy)"></circle><circle r="2.171044633557563" cx="10.757087255216813" cy="26.259988597001556" stroke="black" fill="none" stroke-width="1" filter="url(#fuzzy)"></circle><circle r="2.048057597496306" cx="10.693721713333405" cy="28.607969799230563" stroke="black" fill="none" stroke-width="1" filter="url(#fuzzy)"></circle><!--]--></g><g id="leftNose"><!--[--><circle r="1.7378225733304216" cx="-10.198865626432614" cy="32.897185197852735" stroke="black" fill="none" stroke-width="1" filter="url(#fuzzy)"></circle><circle r="2.0973431851970634" cx="-11.912659637936116" cy="34.054069647727054" stroke="black" fill="none" stroke-width="1" filter="url(#fuzzy)"></circle><circle r="2.1846134183341572" cx="-10.157453567586494" cy="34.448252258910784" stroke="black" fill="none" stroke-width="1" filter="url(#fuzzy)"></circle><circle r="1.2556424957142318" cx="-11.492022711238388" cy="36.28984228082637" stroke="black" fill="none" stroke-width="1" filter="url(#fuzzy)"></circle><circle r="2.457700756531842" cx="-9.475680150194346" cy="36.07611355302489" stroke="black" fill="none" stroke-width="1" filter="url(#fuzzy)"></circle><circle r="2.9897130244050723" cx="-9.82960903361526" cy="35.18301468293117" stroke="black" fill="none" stroke-width="1" filter="url(#fuzzy)"></circle><circle r="2.4272911287677927" cx="-11.413895943249923" cy="33.75265038762431" stroke="black" fill="none" stroke-width="1" filter="url(#fuzzy)"></circle><circle r="1.8351621574913044" cx="-12.591065700754156" cy="34.94826979302648" stroke="black" fill="none" stroke-width="1" filter="url(#fuzzy)"></circle><circle r="1.226902429946733" cx="-12.429611427236402" cy="35.95939371767725" stroke="black" fill="none" stroke-width="1" filter="url(#fuzzy)"></circle><circle r="1.8836235575488725" cx="-11.10750902133836" cy="35.12135600270223" stroke="black" fill="none" stroke-width="1" filter="url(#fuzzy)"></circle><!--]--></g></g><g id="mouth"><polyline points="-42.25767702171798,45.62244837610783,-42.04601134696036,45.46288615455424,-41.794698586213784,45.294894536753525,-41.5045751914827,45.118866315845715,-41.17647761477157,44.93519428497085,-40.811242308084864,44.74427123726893,-40.409705723427045,44.54648996588,-39.97270431280258,44.34224326394409,-39.501074528215916,44.13192392460121,-38.99565282167152,43.9159247409914,-38.45727564517386,43.69463850625468,-37.88677945072738,43.46845801353108,-37.28500069033657,43.23777605596061,-36.65277581600586,43.00298542668332,-35.99094127973974,42.76447891883921,-35.300333533542656,42.52264932556833,-34.58178902941907,42.27788944001069,-33.83614421937346,42.030592055306315,-33.064235555410264,41.78114996459525,-32.26689948953397,41.52995596101751,-31.444972473749026,41.277402837713105,-30.59929096005989,41.02388338782209,-29.730691400471034,40.76979040448446,-28.840010246986918,40.51551668084027,-27.928083951611985,40.26145501002953,-26.995748966350735,40.00799818519226,-26.04384174320759,39.755538999468506,-25.073198734187034,39.50447024599827,-24.084656391293528,39.2551847179216,-23.07905116653153,39.00807520837851,-22.0572195119055,38.76353451050903,-21.019997879419897,38.52195541745318,-19.968222721079197,38.28373072235099,-18.90273048888785,38.04925321834249,-17.824357634850323,37.8189156985677,-16.733940610971075,37.59311095616665,-15.63231586925457,37.37223178427936,-14.520319861705273,37.15667097604585,-13.398789040327637,36.94682132460618,-12.268559857126132,36.74307562310033,-11.130468764105215,36.545826664668354,-9.985352213269357,36.35546724245027,-8.834046656623006,36.172390149586114,-7.6773885461706355,35.9969881792159,-6.516214333916701,35.829654124479646,-5.351360471865671,35.67078077851739,-4.183663412021998,35.520760934469166,-3.013959606390154,35.37998738547498,-1.8430855069745964,35.24885292467488,-0.6718775657797791,35.12775034520888,0.4988277651898183,35.01707244021701,1.6681940339297472,34.91721200283928,2.835384788435541,34.82856182621573,3.9995635767027427,34.75151470348639,5.159893946726885,34.686463427791274,6.315539446503502,34.63380079227042,7.465663624028146,34.59391959006384,8.609430027296336,34.56721261431158,9.746002204303627,34.55407265815364,10.874543703045546,34.55489251473007,11.994218071517636,34.57006497718088,13.104188857715435,34.599982838646106,14.203619609634483,34.64503889226576,15.291673875270309,34.70562593117988,16.36751520261846,34.782136748528494,17.430307139674472,34.87496413745162,18.479213234433878,34.98450089108929,19.513397034892225,35.111139802581526,20.532022089045043,35.25527366506835,21.53425194488787,35.4172952716898,22.51925015041626,35.59759741558589,23.486180253625726,35.79657288989665,24.434205802511826,36.0146144877621,25.36249034507008,36.252115002322284,26.270197429296047,36.50946722671721,27.156490603185247,36.78706395408692,28.02053341473323,37.085297977571415,28.86148941193553,37.40456209031074,29.678522142787678,37.745249085444925,30.470795155285224,38.107751756113984,31.237471997423697,38.49246289545795,31.97771621719864,38.89977529661684,32.69069136260559,39.330081752730685,33.375560981640085,39.78377505693951,34.031488622297665,40.26124800238335,34.65763783257386,40.762893382202215,35.25317216046422,41.28910398953614,35.81725515396427,41.84027261752515,36.34905036106955,42.41679205930928,36.84772132977562,43.01905510802853,37.312431608077986,43.64745455682296,37.7423447439722,44.30238319883257,38.13662428545381,44.9842338271974,38.49443378051834,45.69339923505747,38.81493677716133,46.4302722155528,39.09729682337833,47.19524556182342,39.340677467164866,47.98871206700937,39.54424225651647,48.811064524250654,39.707154739428695,49.66269572668731,39.82857846389706,50.54399846745937,39.82857846389706,50.54399846745937,39.00771590904091,50.428512479751824,38.18685335418476,50.315389642439115,37.365990799328614,50.20459867203155,36.54512824447246,50.09610828503943,35.7242656896163,49.98988719797304,34.903403134760154,49.885904127342684,34.082540579904006,49.78412778965867,33.26167802504786,49.68452690143128,32.44081547019171,49.58707017917082,31.619952915335553,49.491726339387604,30.79909036047941,49.3984640985919,29.978227805623252,49.30725217329403,29.157365250767104,49.21805928000428,28.336502695910955,49.130854135232966,27.515640141054806,49.04560545549036,26.694777586198654,48.962281957286784,25.873915031342502,48.880852357132525,25.053052476486357,48.80128537153788,24.232189921630205,48.72354971701316,23.411327366774056,48.647614110068645,22.590464811917904,48.57344726721465,21.769602257061756,48.50101790496146,20.948739702205604,48.430294739819374,20.127877147349455,48.36124648829871,19.3070145924933,48.293841866909744,18.486152037637147,48.22804959216279,17.665289482781,48.16383838056814,16.84442692792485,48.10117694863609,16.0235643730687,48.04003401287694,15.202701818212546,47.98037828980099,14.3818392633564,47.92217849591853,13.560976708500245,47.86540334773988,12.740114153644093,47.810021561775315,11.919251598787945,47.75600185453515,11.098389043931796,47.70331294252967,10.277526489075647,47.65192354226918,9.456663934219495,47.60180237026398,8.635801379363347,47.552918143024385,7.814938824507193,47.50523957706066,6.994076269651044,47.45873538888311,6.173213714794898,47.41337429500206,5.35235115993875,47.36912501192778,4.531488605082598,47.325956256170585,3.7106260502264448,47.283836744240766,2.889763495370296,47.24273519264863,2.068900940514143,47.20262031790446,1.2480383856579946,47.16346083651857,0.42717583080184185,47.12522546500125,-0.3936867240543066,47.0878829198628,-1.2145492789104595,47.05140191761352,-2.035411833766612,47.01575117476371,-2.8562743886227606,46.980899407823664,-3.6771369434789114,46.94681533330368,-4.497999498335064,46.913467667714066,-5.318862053191215,46.8808251275651,-6.139724608047361,46.84885642936711,-6.960587162903508,46.81753028963037,-7.781449717759658,46.78681542486519,-8.602312272615809,46.756680551581866,-9.423174827471959,46.727094386290695,-10.244037382328111,46.69802564550198,-11.064899937184261,46.66944304572601,-11.885762492040413,46.641315303473085,-12.706625046896564,46.61361113525352,-13.527487601752716,46.5862992575776,-14.348350156608866,46.55934838695562,-15.169212711465017,46.53272723989788,-15.990075266321167,46.506404532914694,-16.810937821177312,46.48034898251634,-17.631800376033464,46.45452930521312,-18.452662930889616,46.42891421751535,-19.27352548574577,46.40347243593331,-20.094388040601917,46.37817267697731,-20.915250595458065,46.35298365715763,-21.73611315031422,46.32787409298459,-22.556975705170373,46.30281270096848,-23.37783826002652,46.2777681976196,-24.198700814882674,46.25270929944824,-25.019563369738822,46.22760472296471,-25.840425924594975,46.202423184679304,-26.661288479451123,46.17713340110232,-27.482151034307268,46.15170408874405,-28.30301358916342,46.12610396411481,-29.12387614401957,46.100301743724884,-29.944738698875717,46.074266144084575,-30.76560125373187,46.04796588170418,-31.58646380858802,46.021369673094,-32.40732636344417,45.99444623476433,-33.228188918300326,45.96716428322547,-34.049051473156474,45.93949253498772,-34.86991402801262,45.91139970656137,-35.69077658286877,45.88285451445674,-36.51163913772493,45.8538256751841,-37.332501692581076,45.82428190525377,-38.153364247437224,45.794191921176036,-38.97422680229338,45.76352443946121,-39.79508935714952,45.73224817661958,-40.61595191200567,45.70033184916144,-41.43681446686183,45.6677441735971" fill="rgb(215,127,140)" stroke="black" stroke-width="3" stroke-linejoin="round" filter="url(#fuzzy)"></polyline></g></svg>