<svg viewBox="-100 -100 200 200" xmlns="http://www.w3.org/2000/svg" width="400" height="400" id="face-svg"><defs><clipPath id="leftEyeClipPath"><polyline points="23.084561502633743,7.286182165943362,23.1106845721445,6.941880340286231,23.09240182454793,6.590891848759271,23.03176183467555,6.233558675696342,22.930749417759298,5.870253200429189,22.791286656001734,5.501376752723455,22.615233925146192,5.127358168214678,22.404390921046986,4.7486523438443005,22.16049768623961,4.365738793295678,21.885235636510888,3.9791202024300762,21.580228587469218,3.5893209847226792,21.247043781114673,3.1968858366985984,20.887192912409272,2.8023782933688652,20.50213315584712,2.4063792836664515,20.0932681920246,2.009485685882261,19.661949234210564,1.612308883101143,19.137689128910644,1.1836358860853462,18.58950387234244,0.747318796422487,18.018774710212558,0.3048995170899236,17.426854629635947,-0.14198975336800856,16.815071025891537,-0.5916465861082969,16.18472810950523,-1.0423172444703752,15.53710906144872,-1.4922144887209008,14.873477944242687,-1.9395342881130055,14.195081376752889,-2.3824714653109105,13.503149980467764,-2.8192342982306897,12.798899605045907,-3.2480581043480488,12.083532340922147,-3.6672178325239653,11.358237326760626,-4.075039687399013,10.62419135954347,-4.469911811407227,9.882559315083567,-4.850294049460334,9.134494386749978,-5.214726821353212,8.381138150194545,-5.5618391269413685,7.623620461868212,-5.890355709141355,6.863059199115561,-6.199103399804885,6.100559849636167,-6.4870166735175445,5.337214958101228,-6.753142434372883,4.574103437714057,-6.996644060772834,3.812289754502955,-7.216804733305107,3.052822992134985,-7.413030070748658,2.29673580503919,-7.584850099257807,1.5450432676278036,-7.731920579776048,0.7987416274039503,-7.854023718730282,0.05880696974440802,-7.951068287056362,-0.673806197854069,-8.02308917260676,-1.398166434276293,-8.070246390991194,-2.1133669182495716,-8.092823579901122,-2.818527058975424,-8.091226001968813,-3.51279415614363,-8.065978081212009,-4.195345101539988,-8.017720498114816,-4.865388114459327,-7.947206868395881,-5.522164503135204,-7.855300030514474,-6.1649504443977525,-7.742967966965516,-6.793058773771141,-7.611279384414253,-7.405840778222152,-7.46139897772148,-8.002687983771292,-7.294582402910162,-8.58303393017793,-7.112170984124216,-9.146355924910932,-6.915586179630385,-9.692176768616243,-6.706323831914052,-10.220066444292893,-6.485948226919696,-10.729643762388925,-6.256085987486987,-11.220577954028602,-6.0184198260333,-11.692590204582533,-5.774682181533452,-12.145455119792008,-5.526648765847568,-12.57900211665914,-5.276132044447847,-12.99311673131422,-5.024974676595166,-13.388890530110356,-4.771818579233237,-13.767279740082113,-4.514679376899954,-14.128025617261002,-4.254471104686852,-14.470891451713463,-3.992094599708212,-14.795663610647946,-3.728434146077854,-15.102152581522073,-3.4643541198858614,-15.390194015149785,-3.2006956341754016,-15.65964976880846,-2.938273183919458,-15.910408949346053,-2.677871290997622,-16.142388956288265,-2.420241149172858,-16.35553652494563,-2.1660972690682687,-16.549828769520712,-1.916114123143867,-16.72527422621518,-1.6709227906733464,-16.881913896336993,-1.4311076027208554,-20.18071201706204,3.4969886356042377,-19.929376627375962,3.5871141279879115,-19.666025810737064,3.6738954456782658,-19.390741497865328,3.7576125512615413,-19.10362901669469,3.8385671223338047,-18.80481532126752,3.9170803161181977,-18.49444722062917,3.9934905340821922,-18.172689607722408,4.068151186554846,-17.839723688282042,4.14142845734405,-17.495745209729307,4.213699068353796,-17.14096269006646,4.285348044201412,-16.775595646771254,4.356766476834827,-16.399872825691457,4.428349290149828,-16.014030429939336,4.500493004607303,-15.618310348786206,4.5735935018505,-15.211312026660359,4.647040020264213,-14.791696603860778,4.720521558875597,-14.359797654493917,4.794850432068401,-13.915942423393659,4.870794588823028,-13.460450696828087,4.949074521610346,-12.993633701444562,5.030360252609169,-12.515793044677512,5.115268413938283,-12.027219709843063,5.204359438593873,-11.528193119144802,5.298134878783208,-11.018980277814922,5.397034868345432,-10.499835012615076,5.501435745950344,-9.970997317921036,5.611647855765991,-9.432692822615582,5.727913542285962,-8.885132391013755,5.850405356007224,-8.3285118710448,5.979224486649359,-7.763012002915006,6.114399440606071,-7.188798501475726,6.255884979319799,-6.606022325520825,6.403561335270329,-6.014820147237798,6.557233722268215,-5.415315035036829,6.716632156743918,-4.807617362982043,6.88141160672348,-4.191825960049191,7.051152485181615,-3.568029512434041,7.2253615044630575,-2.936308232135704,7.403472908463053,-2.29673580503919,7.5848500992578085,-1.6493816317214067,7.768787674875805,-0.9943133742048822,7.954513894900792,-0.33159982188343795,8.141193590597345,0.3386859101558808,8.327931536249839,1.0164628371904345,8.51377629840569,1.701638202074865,8.697724579713723,2.3941032003849836,8.878726074048533,3.093728320268433,9.055688849611695,3.8003582837778493,9.22748527670066,4.51380657646226,9.392958516836236,5.2338495519925035,9.550929589939463,5.960220098596372,9.700205036248787,6.692600854079252,9.839585189668352,7.430616956205992,9.967873079238288,8.173828315219744,10.083883975417857,8.921721395273561,10.1864555978723,9.673700491550429,10.27445900145425,10.429078489847516,10.346810157070566,11.187067095400415,10.402482244125457,11.94676651772307,10.440518671230741,12.70715459823915,10.460046841874092,13.467075367480653,10.460292681736162,14.225227018629404,10.440595944347393,14.980149284177301,10.40042631177542,15.730210202480947,10.339400307033884,16.306384770230398,10.337145434832749,16.871826240419747,10.322973314650607,17.425188896034427,10.29657868414512,17.965043548404736,10.257685390657477,18.489875292017018,10.206047909037808,18.99808125932489,10.1414528594706,19.487968375560488,10.06372052530011,19.95775111354562,9.97270637085578,20.405549248503014,9.868302559277657,20.82938561286754,9.750439470341803,21.227183851097397,9.619087218285708,21.596766174485353,9.474257169633715,21.935851115969925,9.316003461022424,22.24205128494661,9.144424517026113,22.51287112207911,8.959664567982157"></polyline></clipPath><clipPath id="rightEyeClipPath"><polyline points="-24.417726875991708,5.195607517490414,-24.125016792735593,4.978581539249008,-23.802443544889222,4.754899940549218,-23.45122599444654,4.524720027391959,-23.07256112101607,4.288232843327853,-22.667624048473723,4.045661769305162,-22.23756807161564,3.79726112351774,-21.783524682810995,3.5433147612529687,-21.30660359865483,3.2841346747397084,-20.80789278662091,3.0200595929962324,-20.28845849171451,2.7514535816781773,-19.74934526312525,2.478704642926485,-19.191575980879946,2.2022233152153357,-18.616151882495405,1.9224412732001053,-18.02405258963128,1.6398099275653015,-17.416236134742874,1.3547990248725057,-16.732362636515003,1.0618576284126808,-16.02707355525781,0.7592100763905902,-15.30159328311443,0.4480104475294828,-14.55718535713921,0.12951437999502158,-13.795147599277453,-0.1949389074532366,-13.016807370354455,-0.5239436259614889,-12.223516937882478,-0.8560434794522065,-11.416648957494344,-1.1897468005852465,-10.597592067812347,-1.5235407805292942,-9.767746598561219,-1.855904813263396,-8.92852039173376,-2.1853229751282752,-8.081324735617885,-2.510295660347217,-7.227570411493765,-2.82935039323623,-6.368663852809734,-3.141051837823208,-5.506003416645662,-3.444011025595871,-4.640975767272511,-3.7368938220981933,-3.7749523716167075,-4.01842865309504,-2.909286106438094,-4.287413511024796,-2.045307977030082,-4.54272226245966,-1.1843239472507388,-4.783310277293441,-0.3276118806935001,-5.008219400376439,0.5235814071938414,-5.216582286317322,1.3680429862331231,-5.407626118171584,2.2045965380741297,-5.580675730736448,3.032104972378538,-5.73515615917182,3.8494729328207806,-5.870594633667172,4.655649193097155,-5.986622040873956,5.449628943134504,-6.082973872823396,6.23045596568973,-6.1594906840493175,6.997224703531494,-6.216118077635783,7.74908221739539,-6.252906240909291,8.485230034903907,-6.270009051495216,9.204925890642507,-6.267682774458286,9.907485357583067,-6.246284371246806,10.5922833700461,-6.206269441160354,11.258755638392932,-6.148189816060714,11.906399955639273,-6.072690829045766,12.534777396181415,-5.9805082778060585,13.143513406826344,-5.872465103383836,13.732298790317197,-5.749467805054208,14.300890581545202,-5.612502612048254,14.849112816639574,-5.462631432837724,15.376857195126549,-5.3009876027011655,15.884083635348938,-5.128771450291164,16.37082072333752,-4.947245703922378,16.83716605532549,-4.757730758300213,17.28328647409739,-4.561599822409833,17.709418199363768,-4.360273969285173,18.115866852352852,-4.155217108377781,18.50300737481062,-3.947930901245239,18.871632234274873,-3.737266578835867,19.222229736220328,-3.521535219853148,19.55478521342954,-3.301450233603009,19.869303638263236,-3.077718452197522,20.165809597038542,-2.85103735559023,20.444347264407185,-2.622092296611375,20.704980377733726,-2.39155372600323,20.94779221147378,-2.1600744174553634,21.172885551552216,-1.9282866926399285,21.380382669741415,-1.696799646246947,21.570425298039435,-1.4661963710195893,21.74317460304828,-1.2370311827894698,21.898811160352082,-1.0098268455119284,22.03753492889535,-0.7850717963013079,20.912423670713867,2.013563380339283,20.53304396278088,2.1176675980363298,20.139433264325334,2.218381926641608,19.731649157104396,2.3158946036501096,19.309778488695812,2.410410686617709,18.873936239395523,2.5021504305045363,18.424264389115525,2.5913476650183327,17.960930784281505,2.6782481719578213,17.48412800473065,2.763108062556057,16.994072230609312,2.846192154823811,16.491002109270788,2.927772350892914,15.975177622173051,3.00812601435963,15.446878951776482,3.0875343476280186,14.906405348441561,3.1662807692532975,14.354073997326674,3.2446492912852025,13.788325159074704,3.32229357627325,13.20760941587485,3.399060779115452,12.612302546241862,3.4755045821434543,12.00281927315646,3.5521501837927305,11.379611323784474,3.629492126766594,10.743165431011649,3.7079921766907304,10.094001285254619,3.788077263374115,9.432669445008527,3.870137496792145,8.759749214591787,3.954524269907823,8.075846497548504,4.041548460446824,7.381591634169036,4.131478743742293,6.677637231589202,4.22454002876519,5.964655994928615,4.320912029456043,5.243338567928653,4.420727983473924,4.514391391550584,4.524073530478497,3.778534588994289,4.630985762060971,3.03649988559812,4.741452455439788,2.2890285720803956,4.855411503036895,1.5368695195830018,4.9727505500504225,0.7807772549776075,5.093306852139619,0.021510104895006488,5.216867365337862,-0.740171583061946,5.343169080309597,-1.5035071334612726,5.471899613067032,-2.267737142080229,5.60269806426243,-3.032104972378538,5.7351561591718205,-3.7958581409460375,5.868819680485991,-4.55824958346423,6.003190206024576,-5.3185387927212435,6.137727163489079,-6.075992820219701,6.271850214370679,-6.8298871329169994,6.4049419791286395,-7.5795063166375165,6.536351115755174,-8.324144617696227,6.665395763842587,-9.063106314273258,6.79136736626854,-9.795705909078844,6.913534880615272,-10.521268134848244,7.031149392438613,-11.239127764206074,7.143449142502624,-11.948629215439569,7.249664980095707,-12.649125945720298,7.3490262545440075,-13.339979623313814,7.440767157037961,-14.020559070316741,7.524133524887818,-14.69023896746085,7.59839012032396,-15.348398312523527,7.662828395957883,-15.994418623884213,7.71677475901965,-16.627681880766342,7.759599346487663,-17.247568191704204,7.790725323226599,-17.853453182774242,7.809638715249323,-18.444705097130406,7.815898790218638,-19.020681597382882,7.809148997304694,-19.580726262359832,7.789128478513899,-20.124164769791637,7.755684163605161,-20.59355623025716,7.767375092573125,-21.048311219673913,7.772201485275394,-21.48768431827955,7.770060275225832,-21.91089834334864,7.760873510957429,-22.317143603876996,7.744589514098662,-22.70557715526598,7.721184037449847,-23.075322054006875,7.690661423059506,-23.425466612365145,7.653055760300717,-23.755063653064816,7.6084320439474755,-24.063129763972768,7.556887332251054,-24.348644552783085,7.498551905016354,-24.61054990170136,7.433590421678271,-24.847749222129046,7.3622030793780455,-25.059106709347738,7.284626771039628,-25.24344659720354,7.201136243446034"></polyline></clipPath><filter id="fuzzy"><feTurbulence id="turbulence" baseFrequency="0.05" numOctaves="3" type="noise" result="noise"></feTurbulence><feDisplacementMap in="SourceGraphic" in2="noise" scale="2"></feDisplacementMap></filter><linearGradient id="rainbowGradient" x1="0%" y1="0%" x2="100%" y2="0%"><stop offset="0%" style="stop-color: rgb(185, 55, 55);  stop-opacity: 1"></stop><stop offset="50%" style="stop-color: rgb(148, 0, 211);  stop-opacity: 1"></stop><stop offset="100%" style="stop-color: rgb(220, 208, 186);  stop-opacity: 1"></stop></linearGradient></defs><title>That&#39;s an ugly face</title><desc>CREATED BY XUAN TANG, MORE INFO AT TXSTC55.GITHUB.IO</desc><rect x="-100" y="-100" width="100%" height="100%" opacity="1" fill="rgb(72, 61, 139)"></rect><polyline id="faceContour" points="66,1,66,1,66,4,66,4,66,4,66,6,66,8,66,8,66,12,66,10,66,13,66,13,65,15,65,17,65,19,65,19,65,20,65,21,64,24,64,24,63,27,64,25,63,29,63,30,63,29,62,33,62,33,61,35,61,35,60,37,61,37,60,39,59,40,59,41,58,43,58,44,57,45,57,46,56,48,55,49,55,49,54,51,53,52,53,53,53,53,51,55,51,55,51,56,50,57,50,58,49,59,49,59,47,61,46,62,45,63,45,63,44,65,42,66,41,67,41,67,40,68,39,69,39,70,37,71,38,71,36,72,36,72,34,74,32,75,32,75,32,75,32,75,30,77,30,77,28,77,27,78,26,79,24,80,23,80,23,81,22,81,21,81,21,81,18,82,17,83,15,83,16,83,13,84,14,84,13,84,12,84,8,85,8,85,6,86,8,85,6,85,5,86,3,86,2,86,0,86,-1,86,-1,86,-3,86,-3,86,-5,86,-6,86,-6,87,-8,86,-10,86,-10,86,-11,86,-12,86,-13,85,-13,85,-15,85,-17,84,-16,85,-19,84,-18,84,-20,84,-20,84,-23,83,-24,82,-24,83,-25,82,-27,81,-28,81,-28,80,-30,79,-32,78,-32,78,-32,78,-33,78,-34,77,-37,75,-36,75,-37,75,-38,74,-40,72,-39,73,-39,73,-42,71,-42,71,-43,69,-45,67,-44,68,-46,67,-45,67,-47,65,-47,64,-50,62,-49,62,-49,62,-50,62,-51,59,-51,59,-53,57,-53,56,-54,55,-54,55,-55,53,-55,53,-57,49,-57,49,-57,49,-58,47,-58,47,-59,44,-59,44,-61,41,-60,41,-61,39,-61,40,-61,39,-62,37,-63,33,-62,34,-63,32,-63,31,-64,28,-64,28,-64,26,-64,26,-64,25,-65,21,-65,21,-65,19,-65,18,-66,16,-66,14,-66,13,-66,14,-66,11,-66,8,-66,9,-66,7,-66,5,-66,5,-66,4,-66,2,-66,-1,-66,-1,-66,-3,-66,-5,-65,-7,-66,-7,-65,-10,-65,-11,-65,-12,-65,-14,-65,-12,-64,-15,-64,-19,-64,-18,-64,-19,-64,-20,-63,-22,-63,-23,-62,-25,-63,-26,-62,-29,-62,-28,-61,-32,-61,-31,-60,-34,-60,-36,-59,-38,-59,-38,-59,-38,-58,-41,-58,-41,-57,-41,-57,-44,-56,-44,-56,-44,-56,-46,-55,-47,-54,-48,-53,-51,-53,-51,-52,-53,-52,-53,-51,-54,-50,-56,-50,-57,-48,-59,-49,-58,-47,-61,-47,-61,-46,-63,-45,-64,-44,-65,-43,-65,-43,-67,-43,-66,-42,-68,-40,-70,-40,-69,-40,-69,-37,-72,-36,-73,-36,-73,-37,-72,-36,-73,-34,-74,-33,-75,-32,-77,-32,-77,-30,-78,-28,-79,-28,-79,-28,-79,-27,-80,-26,-80,-25,-81,-24,-81,-23,-82,-21,-83,-22,-82,-21,-83,-20,-83,-19,-83,-16,-84,-17,-84,-17,-84,-15,-85,-14,-85,-13,-85,-13,-85,-10,-86,-11,-86,-9,-86,-8,-86,-7,-86,-5,-86,-4,-86,-4,-86,-3,-86,-2,-86,0,-86,2,-86,1,-86,3,-86,3,-86,5,-86,5,-86,4,-86,6,-86,8,-85,10,-84,10,-85,10,-85,12,-84,13,-84,15,-83,14,-83,16,-83,18,-82,16,-82,18,-82,19,-81,20,-81,22,-80,23,-79,24,-79,24,-79,26,-77,25,-78,27,-77,29,-75,28,-76,30,-75,31,-74,31,-74,32,-73,33,-72,33,-72,34,-71,36,-69,37,-68,38,-67,38,-68,40,-66,40,-66,40,-66,41,-64,41,-64,44,-61,44,-62,45,-59,46,-59,46,-58,46,-57,48,-55,48,-55,50,-53,50,-53,50,-52,51,-50,51,-50,52,-49,52,-48,54,-46,53,-47,55,-44,54,-45,55,-43,57,-41,57,-40,57,-39,58,-37,58,-35,59,-35,58,-36,59,-33,60,-32,61,-29,61,-29,61,-28,62,-26,61,-27,62,-25,62,-23,63,-22,63,-20,63,-20,64,-19,64,-17,65,-14,64,-15,65,-12,65,-12,65,-11,65,-11,65,-7,65,-7,65,-6,66,-5,66,-3,66,-1,66,1,66,1" fill="#ffc9a9" stroke="black" stroke-width="1.6666666666666665" stroke-linejoin="round" filter="url(#fuzzy)"></polyline><g transform="translate(37.354173221264816 -22.13689045968382)"><polyline id="rightCountour" points="-24.417726875991708,5.195607517490414,-24.125016792735593,4.978581539249008,-23.802443544889222,4.754899940549218,-23.45122599444654,4.524720027391959,-23.07256112101607,4.288232843327853,-22.667624048473723,4.045661769305162,-22.23756807161564,3.79726112351774,-21.783524682810995,3.5433147612529687,-21.30660359865483,3.2841346747397084,-20.80789278662091,3.0200595929962324,-20.28845849171451,2.7514535816781773,-19.74934526312525,2.478704642926485,-19.191575980879946,2.2022233152153357,-18.616151882495405,1.9224412732001053,-18.02405258963128,1.6398099275653015,-17.416236134742874,1.3547990248725057,-16.732362636515003,1.0618576284126808,-16.02707355525781,0.7592100763905902,-15.30159328311443,0.4480104475294828,-14.55718535713921,0.12951437999502158,-13.795147599277453,-0.1949389074532366,-13.016807370354455,-0.5239436259614889,-12.223516937882478,-0.8560434794522065,-11.416648957494344,-1.1897468005852465,-10.597592067812347,-1.5235407805292942,-9.767746598561219,-1.855904813263396,-8.92852039173376,-2.1853229751282752,-8.081324735617885,-2.510295660347217,-7.227570411493765,-2.82935039323623,-6.368663852809734,-3.141051837823208,-5.506003416645662,-3.444011025595871,-4.640975767272511,-3.7368938220981933,-3.7749523716167075,-4.01842865309504,-2.909286106438094,-4.287413511024796,-2.045307977030082,-4.54272226245966,-1.1843239472507388,-4.783310277293441,-0.3276118806935001,-5.008219400376439,0.5235814071938414,-5.216582286317322,1.3680429862331231,-5.407626118171584,2.2045965380741297,-5.580675730736448,3.032104972378538,-5.73515615917182,3.8494729328207806,-5.870594633667172,4.655649193097155,-5.986622040873956,5.449628943134504,-6.082973872823396,6.23045596568973,-6.1594906840493175,6.997224703531494,-6.216118077635783,7.74908221739539,-6.252906240909291,8.485230034903907,-6.270009051495216,9.204925890642507,-6.267682774458286,9.907485357583067,-6.246284371246806,10.5922833700461,-6.206269441160354,11.258755638392932,-6.148189816060714,11.906399955639273,-6.072690829045766,12.534777396181415,-5.9805082778060585,13.143513406826344,-5.872465103383836,13.732298790317197,-5.749467805054208,14.300890581545202,-5.612502612048254,14.849112816639574,-5.462631432837724,15.376857195126549,-5.3009876027011655,15.884083635348938,-5.128771450291164,16.37082072333752,-4.947245703922378,16.83716605532549,-4.757730758300213,17.28328647409739,-4.561599822409833,17.709418199363768,-4.360273969285173,18.115866852352852,-4.155217108377781,18.50300737481062,-3.947930901245239,18.871632234274873,-3.737266578835867,19.222229736220328,-3.521535219853148,19.55478521342954,-3.301450233603009,19.869303638263236,-3.077718452197522,20.165809597038542,-2.85103735559023,20.444347264407185,-2.622092296611375,20.704980377733726,-2.39155372600323,20.94779221147378,-2.1600744174553634,21.172885551552216,-1.9282866926399285,21.380382669741415,-1.696799646246947,21.570425298039435,-1.4661963710195893,21.74317460304828,-1.2370311827894698,21.898811160352082,-1.0098268455119284,22.03753492889535,-0.7850717963013079,20.912423670713867,2.013563380339283,20.53304396278088,2.1176675980363298,20.139433264325334,2.218381926641608,19.731649157104396,2.3158946036501096,19.309778488695812,2.410410686617709,18.873936239395523,2.5021504305045363,18.424264389115525,2.5913476650183327,17.960930784281505,2.6782481719578213,17.48412800473065,2.763108062556057,16.994072230609312,2.846192154823811,16.491002109270788,2.927772350892914,15.975177622173051,3.00812601435963,15.446878951776482,3.0875343476280186,14.906405348441561,3.1662807692532975,14.354073997326674,3.2446492912852025,13.788325159074704,3.32229357627325,13.20760941587485,3.399060779115452,12.612302546241862,3.4755045821434543,12.00281927315646,3.5521501837927305,11.379611323784474,3.629492126766594,10.743165431011649,3.7079921766907304,10.094001285254619,3.788077263374115,9.432669445008527,3.870137496792145,8.759749214591787,3.954524269907823,8.075846497548504,4.041548460446824,7.381591634169036,4.131478743742293,6.677637231589202,4.22454002876519,5.964655994928615,4.320912029456043,5.243338567928653,4.420727983473924,4.514391391550584,4.524073530478497,3.778534588994289,4.630985762060971,3.03649988559812,4.741452455439788,2.2890285720803956,4.855411503036895,1.5368695195830018,4.9727505500504225,0.7807772549776075,5.093306852139619,0.021510104895006488,5.216867365337862,-0.740171583061946,5.343169080309597,-1.5035071334612726,5.471899613067032,-2.267737142080229,5.60269806426243,-3.032104972378538,5.7351561591718205,-3.7958581409460375,5.868819680485991,-4.55824958346423,6.003190206024576,-5.3185387927212435,6.137727163489079,-6.075992820219701,6.271850214370679,-6.8298871329169994,6.4049419791286395,-7.5795063166375165,6.536351115755174,-8.324144617696227,6.665395763842587,-9.063106314273258,6.79136736626854,-9.795705909078844,6.913534880615272,-10.521268134848244,7.031149392438613,-11.239127764206074,7.143449142502624,-11.948629215439569,7.249664980095707,-12.649125945720298,7.3490262545440075,-13.339979623313814,7.440767157037961,-14.020559070316741,7.524133524887818,-14.69023896746085,7.59839012032396,-15.348398312523527,7.662828395957883,-15.994418623884213,7.71677475901965,-16.627681880766342,7.759599346487663,-17.247568191704204,7.790725323226599,-17.853453182774242,7.809638715249323,-18.444705097130406,7.815898790218638,-19.020681597382882,7.809148997304694,-19.580726262359832,7.789128478513899,-20.124164769791637,7.755684163605161,-20.59355623025716,7.767375092573125,-21.048311219673913,7.772201485275394,-21.48768431827955,7.770060275225832,-21.91089834334864,7.760873510957429,-22.317143603876996,7.744589514098662,-22.70557715526598,7.721184037449847,-23.075322054006875,7.690661423059506,-23.425466612365145,7.653055760300717,-23.755063653064816,7.6084320439474755,-24.063129763972768,7.556887332251054,-24.348644552783085,7.498551905016354,-24.61054990170136,7.433590421678271,-24.847749222129046,7.3622030793780455,-25.059106709347738,7.284626771039628,-25.24344659720354,7.201136243446034" fill="white" stroke="white" stroke-width="0" stroke-linejoin="round" filter="url(#fuzzy)"></polyline></g><g transform="translate(-33.71962312503135 -22.616705374065845)"><polyline id="leftCountour" points="23.084561502633743,7.286182165943362,23.1106845721445,6.941880340286231,23.09240182454793,6.590891848759271,23.03176183467555,6.233558675696342,22.930749417759298,5.870253200429189,22.791286656001734,5.501376752723455,22.615233925146192,5.127358168214678,22.404390921046986,4.7486523438443005,22.16049768623961,4.365738793295678,21.885235636510888,3.9791202024300762,21.580228587469218,3.5893209847226792,21.247043781114673,3.1968858366985984,20.887192912409272,2.8023782933688652,20.50213315584712,2.4063792836664515,20.0932681920246,2.009485685882261,19.661949234210564,1.612308883101143,19.137689128910644,1.1836358860853462,18.58950387234244,0.747318796422487,18.018774710212558,0.3048995170899236,17.426854629635947,-0.14198975336800856,16.815071025891537,-0.5916465861082969,16.18472810950523,-1.0423172444703752,15.53710906144872,-1.4922144887209008,14.873477944242687,-1.9395342881130055,14.195081376752889,-2.3824714653109105,13.503149980467764,-2.8192342982306897,12.798899605045907,-3.2480581043480488,12.083532340922147,-3.6672178325239653,11.358237326760626,-4.075039687399013,10.62419135954347,-4.469911811407227,9.882559315083567,-4.850294049460334,9.134494386749978,-5.214726821353212,8.381138150194545,-5.5618391269413685,7.623620461868212,-5.890355709141355,6.863059199115561,-6.199103399804885,6.100559849636167,-6.4870166735175445,5.337214958101228,-6.753142434372883,4.574103437714057,-6.996644060772834,3.812289754502955,-7.216804733305107,3.052822992134985,-7.413030070748658,2.29673580503919,-7.584850099257807,1.5450432676278036,-7.731920579776048,0.7987416274039503,-7.854023718730282,0.05880696974440802,-7.951068287056362,-0.673806197854069,-8.02308917260676,-1.398166434276293,-8.070246390991194,-2.1133669182495716,-8.092823579901122,-2.818527058975424,-8.091226001968813,-3.51279415614363,-8.065978081212009,-4.195345101539988,-8.017720498114816,-4.865388114459327,-7.947206868395881,-5.522164503135204,-7.855300030514474,-6.1649504443977525,-7.742967966965516,-6.793058773771141,-7.611279384414253,-7.405840778222152,-7.46139897772148,-8.002687983771292,-7.294582402910162,-8.58303393017793,-7.112170984124216,-9.146355924910932,-6.915586179630385,-9.692176768616243,-6.706323831914052,-10.220066444292893,-6.485948226919696,-10.729643762388925,-6.256085987486987,-11.220577954028602,-6.0184198260333,-11.692590204582533,-5.774682181533452,-12.145455119792008,-5.526648765847568,-12.57900211665914,-5.276132044447847,-12.99311673131422,-5.024974676595166,-13.388890530110356,-4.771818579233237,-13.767279740082113,-4.514679376899954,-14.128025617261002,-4.254471104686852,-14.470891451713463,-3.992094599708212,-14.795663610647946,-3.728434146077854,-15.102152581522073,-3.4643541198858614,-15.390194015149785,-3.2006956341754016,-15.65964976880846,-2.938273183919458,-15.910408949346053,-2.677871290997622,-16.142388956288265,-2.420241149172858,-16.35553652494563,-2.1660972690682687,-16.549828769520712,-1.916114123143867,-16.72527422621518,-1.6709227906733464,-16.881913896336993,-1.4311076027208554,-20.18071201706204,3.4969886356042377,-19.929376627375962,3.5871141279879115,-19.666025810737064,3.6738954456782658,-19.390741497865328,3.7576125512615413,-19.10362901669469,3.8385671223338047,-18.80481532126752,3.9170803161181977,-18.49444722062917,3.9934905340821922,-18.172689607722408,4.068151186554846,-17.839723688282042,4.14142845734405,-17.495745209729307,4.213699068353796,-17.14096269006646,4.285348044201412,-16.775595646771254,4.356766476834827,-16.399872825691457,4.428349290149828,-16.014030429939336,4.500493004607303,-15.618310348786206,4.5735935018505,-15.211312026660359,4.647040020264213,-14.791696603860778,4.720521558875597,-14.359797654493917,4.794850432068401,-13.915942423393659,4.870794588823028,-13.460450696828087,4.949074521610346,-12.993633701444562,5.030360252609169,-12.515793044677512,5.115268413938283,-12.027219709843063,5.204359438593873,-11.528193119144802,5.298134878783208,-11.018980277814922,5.397034868345432,-10.499835012615076,5.501435745950344,-9.970997317921036,5.611647855765991,-9.432692822615582,5.727913542285962,-8.885132391013755,5.850405356007224,-8.3285118710448,5.979224486649359,-7.763012002915006,6.114399440606071,-7.188798501475726,6.255884979319799,-6.606022325520825,6.403561335270329,-6.014820147237798,6.557233722268215,-5.415315035036829,6.716632156743918,-4.807617362982043,6.88141160672348,-4.191825960049191,7.051152485181615,-3.568029512434041,7.2253615044630575,-2.936308232135704,7.403472908463053,-2.29673580503919,7.5848500992578085,-1.6493816317214067,7.768787674875805,-0.9943133742048822,7.954513894900792,-0.33159982188343795,8.141193590597345,0.3386859101558808,8.327931536249839,1.0164628371904345,8.51377629840569,1.701638202074865,8.697724579713723,2.3941032003849836,8.878726074048533,3.093728320268433,9.055688849611695,3.8003582837778493,9.22748527670066,4.51380657646226,9.392958516836236,5.2338495519925035,9.550929589939463,5.960220098596372,9.700205036248787,6.692600854079252,9.839585189668352,7.430616956205992,9.967873079238288,8.173828315219744,10.083883975417857,8.921721395273561,10.1864555978723,9.673700491550429,10.27445900145425,10.429078489847516,10.346810157070566,11.187067095400415,10.402482244125457,11.94676651772307,10.440518671230741,12.70715459823915,10.460046841874092,13.467075367480653,10.460292681736162,14.225227018629404,10.440595944347393,14.980149284177301,10.40042631177542,15.730210202480947,10.339400307033884,16.306384770230398,10.337145434832749,16.871826240419747,10.322973314650607,17.425188896034427,10.29657868414512,17.965043548404736,10.257685390657477,18.489875292017018,10.206047909037808,18.99808125932489,10.1414528594706,19.487968375560488,10.06372052530011,19.95775111354562,9.97270637085578,20.405549248503014,9.868302559277657,20.82938561286754,9.750439470341803,21.227183851097397,9.619087218285708,21.596766174485353,9.474257169633715,21.935851115969925,9.316003461022424,22.24205128494661,9.144424517026113,22.51287112207911,8.959664567982157" fill="white" stroke="white" stroke-width="0" stroke-linejoin="round" filter="url(#fuzzy)"></polyline></g><g transform="translate(37.354173221264816 -22.13689045968382)"><polyline id="rightUpper" points="-25.418504752874373,6.99212630694687,-25.496296906754843,6.84188499368448,-25.530827881284786,6.6855785986407,-25.523536828217978,6.522950043956292,-25.475840750394454,6.353789990842287,-25.3891345283934,6.177935439427931,-25.26479094718596,5.9952683286086295,-25.104160722788052,5.805714135893888,-24.908572528913197,5.609240477255259,-24.67933302362534,5.405855706974278,-24.417726875991708,5.195607517490414,-24.125016792735593,4.978581539249008,-23.802443544889222,4.754899940549218,-23.45122599444654,4.524720027391959,-23.07256112101607,4.288232843327853,-22.667624048473723,4.045661769305162,-22.23756807161564,3.79726112351774,-21.783524682810995,3.5433147612529687,-21.30660359865483,3.2841346747397084,-20.80789278662091,3.0200595929962324,-20.28845849171451,2.7514535816781773,-19.74934526312525,2.478704642926485,-19.191575980879946,2.2022233152153357,-18.616151882495405,1.9224412732001053,-18.02405258963128,1.6398099275653015,-17.416236134742874,1.3547990248725057,-16.732362636515003,1.0618576284126808,-16.02707355525781,0.7592100763905902,-15.30159328311443,0.4480104475294828,-14.55718535713921,0.12951437999502158,-13.795147599277453,-0.1949389074532366,-13.016807370354455,-0.5239436259614889,-12.223516937882478,-0.8560434794522065,-11.416648957494344,-1.1897468005852465,-10.597592067812347,-1.5235407805292942,-9.767746598561219,-1.855904813263396,-8.92852039173376,-2.1853229751282752,-8.081324735617885,-2.510295660347217,-7.227570411493765,-2.82935039323623,-6.368663852809734,-3.141051837823208,-5.506003416645662,-3.444011025595871,-4.640975767272511,-3.7368938220981933,-3.7749523716167075,-4.01842865309504,-2.909286106438094,-4.287413511024796,-2.045307977030082,-4.54272226245966,-1.1843239472507388,-4.783310277293441,-0.3276118806935001,-5.008219400376439,0.5235814071938414,-5.216582286317322,1.3680429862331231,-5.407626118171584,2.2045965380741297,-5.580675730736448,3.032104972378538,-5.73515615917182,3.8494729328207806,-5.870594633667172,4.655649193097155,-5.986622040873956,5.449628943134504,-6.082973872823396,6.23045596568973,-6.1594906840493175,6.997224703531494,-6.216118077635783,7.74908221739539,-6.252906240909291,8.485230034903907,-6.270009051495216,9.204925890642507,-6.267682774458286,9.907485357583067,-6.246284371246806,10.5922833700461,-6.206269441160354,11.258755638392932,-6.148189816060714,11.906399955639273,-6.072690829045766,12.534777396181415,-5.9805082778060585,13.143513406826344,-5.872465103383836,13.732298790317197,-5.749467805054208,14.300890581545202,-5.612502612048254,14.849112816639574,-5.462631432837724,15.376857195126549,-5.3009876027011655,15.884083635348938,-5.128771450291164,16.37082072333752,-4.947245703922378,16.83716605532549,-4.757730758300213,17.28328647409739,-4.561599822409833,17.709418199363768,-4.360273969285173,18.115866852352852,-4.155217108377781,18.50300737481062,-3.947930901245239,18.871632234274873,-3.737266578835867,19.222229736220328,-3.521535219853148,19.55478521342954,-3.301450233603009,19.869303638263236,-3.077718452197522,20.165809597038542,-2.85103735559023,20.444347264407185,-2.622092296611375,20.704980377733726,-2.39155372600323,20.94779221147378,-2.1600744174553634,21.172885551552216,-1.9282866926399285,21.380382669741415,-1.696799646246947,21.570425298039435,-1.4661963710195893,21.74317460304828,-1.2370311827894698,21.898811160352082,-1.0098268455119284,22.03753492889535,-0.7850717963013079,22.15956522536117,-0.5632173704662495,22.265140698549427,-0.34467502654497206,22.354519303755016,-0.12981357134055482,22.427978277146092,0.08104361504376456,22.485814110142247,0.2876213541693238,22.528342523792755,0.48969544422674094,22.5558984431548,0.6870954350006286,22.568835971671646,0.8797074028343106,22.567528365550938,1.067476725594533,22.552368008142825,1.2504108576361883" fill="none" stroke="black" stroke-width="1.6666666666666665" stroke-linejoin="round" filter="url(#fuzzy)"></polyline><polyline id="rightLower" points="-25.31214440857934,6.130777178837903,-25.471972069335024,6.2491429523274435,-25.590662620787704,6.366678713439228,-25.66983243580843,6.482667482599913,-25.711050472675975,6.596441714858799,-25.715839020392565,6.707382141811471,-25.685674443999524,6.814916613523443,-25.621987929892928,6.918518940453799,-25.526166231139328,7.017707735378834,-25.399552412791383,7.112045255315697,-25.24344659720354,7.201136243446034,-25.059106709347738,7.284626771039628,-24.847749222129046,7.3622030793780455,-24.61054990170136,7.433590421678271,-24.348644552783085,7.498551905016354,-24.063129763972768,7.556887332251054,-23.755063653064816,7.6084320439474755,-23.425466612365145,7.653055760300717,-23.075322054006875,7.690661423059506,-22.70557715526598,7.721184037449847,-22.317143603876996,7.744589514098662,-21.91089834334864,7.760873510957429,-21.48768431827955,7.770060275225832,-21.048311219673913,7.772201485275394,-20.59355623025716,7.767375092573125,-20.124164769791637,7.755684163605161,-19.580726262359832,7.789128478513899,-19.020681597382882,7.809148997304694,-18.444705097130406,7.815898790218638,-17.853453182774242,7.809638715249323,-17.247568191704204,7.790725323226599,-16.627681880766342,7.759599346487663,-15.994418623884213,7.71677475901965,-15.348398312523527,7.662828395957883,-14.69023896746085,7.59839012032396,-14.020559070316741,7.524133524887818,-13.339979623313814,7.440767157037961,-12.649125945720298,7.3490262545440075,-11.948629215439569,7.249664980095707,-11.239127764206074,7.143449142502624,-10.521268134848244,7.031149392438613,-9.795705909078844,6.913534880615272,-9.063106314273258,6.79136736626854,-8.324144617696227,6.665395763842587,-7.5795063166375165,6.536351115755174,-6.8298871329169994,6.4049419791286395,-6.075992820219701,6.271850214370679,-5.3185387927212435,6.137727163489079,-4.55824958346423,6.003190206024576,-3.7958581409460375,5.868819680485991,-3.032104972378538,5.7351561591718205,-2.267737142080229,5.60269806426243,-1.5035071334612726,5.471899613067032,-0.740171583061946,5.343169080309597,0.021510104895006488,5.216867365337862,0.7807772549776075,5.093306852139619,1.5368695195830018,4.9727505500504225,2.2890285720803956,4.855411503036895,3.03649988559812,4.741452455439788,3.778534588994289,4.630985762060971,4.514391391550584,4.524073530478497,5.243338567928653,4.420727983473924,5.964655994928615,4.320912029456043,6.677637231589202,4.22454002876519,7.381591634169036,4.131478743742293,8.075846497548504,4.041548460446824,8.759749214591787,3.954524269907823,9.432669445008527,3.870137496792145,10.094001285254619,3.788077263374115,10.743165431011649,3.7079921766907304,11.379611323784474,3.629492126766594,12.00281927315646,3.5521501837927305,12.612302546241862,3.4755045821434543,13.20760941587485,3.399060779115452,13.788325159074704,3.32229357627325,14.354073997326674,3.2446492912852025,14.906405348441561,3.1662807692532975,15.446878951776482,3.0875343476280186,15.975177622173051,3.00812601435963,16.491002109270788,2.927772350892914,16.994072230609312,2.846192154823811,17.48412800473065,2.763108062556057,17.960930784281505,2.6782481719578213,18.424264389115525,2.5913476650183327,18.873936239395523,2.5021504305045363,19.309778488695812,2.410410686617709,19.731649157104396,2.3158946036501096,20.139433264325334,2.218381926641608,20.53304396278088,2.1176675980363298,20.912423670713867,2.013563380339283,21.2775452052899,1.905899478773006,21.628412915699656,1.7945261639341874,21.96506381626113,1.6793153944503256,22.28756871952191,1.5601624396363443,22.596033369361447,1.4369875021512444,22.89059957409332,1.309737340654725,23.17144633956749,1.1783868924638359,23.43879100227257,1.0429408962096076,23.692890362438114,0.903435514493685,23.934041817136848,0.759939956544966" fill="none" stroke="black" stroke-width="2.2222222222222223" stroke-linejoin="round" filter="url(#fuzzy)"></polyline><!--[--><circle r="4.320167835318782" cx="10.541517528531205" cy="-0.9045330519620542" stroke="black" fill="none" stroke-width="1" filter="url(#fuzzy)" clip-path="url(#rightEyeClipPath)"></circle><circle r="3.767522909452251" cx="11.685535167913812" cy="2.522871888159103" stroke="black" fill="none" stroke-width="1" filter="url(#fuzzy)" clip-path="url(#rightEyeClipPath)"></circle><circle r="3.6467868850547998" cx="9.9318696444833" cy="3.207631414850626" stroke="black" fill="none" stroke-width="1" filter="url(#fuzzy)" clip-path="url(#rightEyeClipPath)"></circle><circle r="3.1321469113719917" cx="9.44297457736995" cy="0.28506327128391273" stroke="black" fill="none" stroke-width="1" filter="url(#fuzzy)" clip-path="url(#rightEyeClipPath)"></circle><circle r="4.462308813388516" cx="10.261796610370697" cy="-0.03195814028968602" stroke="black" fill="none" stroke-width="1" filter="url(#fuzzy)" clip-path="url(#rightEyeClipPath)"></circle><circle r="4.134699069352528" cx="14.076912016097815" cy="1.4283667600114631" stroke="black" fill="none" stroke-width="1" filter="url(#fuzzy)" clip-path="url(#rightEyeClipPath)"></circle><circle r="4.17534902406886" cx="12.32398843610006" cy="0.7556034529261852" stroke="black" fill="none" stroke-width="1" filter="url(#fuzzy)" clip-path="url(#rightEyeClipPath)"></circle><circle r="3.631759845260578" cx="13.768580314690894" cy="2.6763203369701216" stroke="black" fill="none" stroke-width="1" filter="url(#fuzzy)" clip-path="url(#rightEyeClipPath)"></circle><circle r="3.900008090639785" cx="11.676070478907576" cy="3.817050487529576" stroke="black" fill="none" stroke-width="1" filter="url(#fuzzy)" clip-path="url(#rightEyeClipPath)"></circle><circle r="4.40572278181739" cx="13.586402807172021" cy="3.7187385624035088" stroke="black" fill="none" stroke-width="1" filter="url(#fuzzy)" clip-path="url(#rightEyeClipPath)"></circle><!--]--></g><g transform="translate(-33.71962312503135 -22.616705374065845)"><polyline id="leftUpper" points="19.882681096477167,10.310821686835443,20.480295062385242,10.044475895446343,21.009284839453006,9.77001312381174,21.472393059868,9.487391955266855,21.872288330516337,9.196615813784751,22.21156625955285,8.897731519412336,22.49275048297134,8.590827843706375,22.718293691174704,8.276034065169483,22.89057865554515,7.953518524686142,23.01191925501437,7.623487180958696,23.084561502633743,7.286182165943362,23.1106845721445,6.941880340286231,23.09240182454793,6.590891848759271,23.03176183467555,6.233558675696342,22.930749417759298,5.870253200429189,22.791286656001734,5.501376752723455,22.615233925146192,5.127358168214678,22.404390921046986,4.7486523438443005,22.16049768623961,4.365738793295678,21.885235636510888,3.9791202024300762,21.580228587469218,3.5893209847226792,21.247043781114673,3.1968858366985984,20.887192912409272,2.8023782933688652,20.50213315584712,2.4063792836664515,20.0932681920246,2.009485685882261,19.661949234210564,1.612308883101143,19.137689128910644,1.1836358860853462,18.58950387234244,0.747318796422487,18.018774710212558,0.3048995170899236,17.426854629635947,-0.14198975336800856,16.815071025891537,-0.5916465861082969,16.18472810950523,-1.0423172444703752,15.53710906144872,-1.4922144887209008,14.873477944242687,-1.9395342881130055,14.195081376752889,-2.3824714653109105,13.503149980467764,-2.8192342982306897,12.798899605045907,-3.2480581043480488,12.083532340922147,-3.6672178325239653,11.358237326760626,-4.075039687399013,10.62419135954347,-4.469911811407227,9.882559315083567,-4.850294049460334,9.134494386749978,-5.214726821353212,8.381138150194545,-5.5618391269413685,7.623620461868212,-5.890355709141355,6.863059199115561,-6.199103399804885,6.100559849636167,-6.4870166735175445,5.337214958101228,-6.753142434372883,4.574103437714057,-6.996644060772834,3.812289754502955,-7.216804733305107,3.052822992134985,-7.413030070748658,2.29673580503919,-7.584850099257807,1.5450432676278036,-7.731920579776048,0.7987416274039503,-7.854023718730282,0.05880696974440802,-7.951068287056362,-0.673806197854069,-8.02308917260676,-1.398166434276293,-8.070246390991194,-2.1133669182495716,-8.092823579901122,-2.818527058975424,-8.091226001968813,-3.51279415614363,-8.065978081212009,-4.195345101539988,-8.017720498114816,-4.865388114459327,-7.947206868395881,-5.522164503135204,-7.855300030514474,-6.1649504443977525,-7.742967966965516,-6.793058773771141,-7.611279384414253,-7.405840778222152,-7.46139897772148,-8.002687983771292,-7.294582402910162,-8.58303393017793,-7.112170984124216,-9.146355924910932,-6.915586179630385,-9.692176768616243,-6.706323831914052,-10.220066444292893,-6.485948226919696,-10.729643762388925,-6.256085987486987,-11.220577954028602,-6.0184198260333,-11.692590204582533,-5.774682181533452,-12.145455119792008,-5.526648765847568,-12.57900211665914,-5.276132044447847,-12.99311673131422,-5.024974676595166,-13.388890530110356,-4.771818579233237,-13.767279740082113,-4.514679376899954,-14.128025617261002,-4.254471104686852,-14.470891451713463,-3.992094599708212,-14.795663610647946,-3.728434146077854,-15.102152581522073,-3.4643541198858614,-15.390194015149785,-3.2006956341754016,-15.65964976880846,-2.938273183919458,-15.910408949346053,-2.677871290997622,-16.142388956288265,-2.420241149172858,-16.35553652494563,-2.1660972690682687,-16.549828769520712,-1.916114123143867,-16.72527422621518,-1.6709227906733464,-16.881913896336993,-1.4311076027208554,-17.019822289407536,-1.1972027871177602,-17.139108466268713,-0.9696891134394221,-17.239917082190143,-0.748990537981955,-17.322429429976275,-0.5354708487390223,-17.3868644830735,-0.3294303103785712,-17.433479938677337,-0.13110230921962085,-17.462573260839534,0.0593500017909534,-17.47448272357521,0.24183705810167844,-17.46958845397003,0.4163462385796919,-17.448313475287293,0.5829452205339862" fill="none" stroke="black" stroke-width="2.2222222222222223" stroke-linejoin="round" filter="url(#fuzzy)"></polyline><polyline id="leftLower" points="22.64429267679381,6.45463028123512,22.889934352580067,6.752105099148187,23.068796881376578,7.0406944539486815,23.184580995221,7.319712577270486,23.240856805531326,7.588534684764723,23.24106604829463,7.846595458274344,23.188524329255923,8.093387528008714,23.086423369106864,8.328459954718195,22.9378332486746,8.551416711868729,22.745704654110533,8.76191516781643,22.51287112207911,8.959664567982157,22.24205128494661,9.144424517026113,21.935851115969925,9.316003461022424,21.596766174485353,9.474257169633715,21.227183851097397,9.619087218285708,20.82938561286754,9.750439470341803,20.405549248503014,9.868302559277657,19.95775111354562,9.97270637085578,19.487968375560488,10.06372052530011,18.99808125932489,10.1414528594706,18.489875292017018,10.206047909037808,17.965043548404736,10.257685390657477,17.425188896034427,10.29657868414512,16.871826240419747,10.322973314650607,16.306384770230398,10.337145434832749,15.730210202480947,10.339400307033884,14.980149284177301,10.40042631177542,14.225227018629404,10.440595944347393,13.467075367480653,10.460292681736162,12.70715459823915,10.460046841874092,11.94676651772307,10.440518671230741,11.187067095400415,10.402482244125457,10.429078489847516,10.346810157070566,9.673700491550429,10.27445900145425,8.921721395273561,10.1864555978723,8.173828315219744,10.083883975417857,7.430616956205992,9.967873079238288,6.692600854079252,9.839585189668352,5.960220098596372,9.700205036248787,5.2338495519925035,9.550929589939463,4.51380657646226,9.392958516836236,3.8003582837778493,9.22748527670066,3.093728320268433,9.055688849611695,2.3941032003849836,8.878726074048533,1.701638202074865,8.697724579713723,1.0164628371904345,8.51377629840569,0.3386859101558808,8.327931536249839,-0.33159982188343795,8.141193590597345,-0.9943133742048822,7.954513894900792,-1.6493816317214067,7.768787674875805,-2.29673580503919,7.5848500992578085,-2.936308232135704,7.403472908463053,-3.568029512434041,7.2253615044630575,-4.191825960049191,7.051152485181615,-4.807617362982043,6.88141160672348,-5.415315035036829,6.716632156743918,-6.014820147237798,6.557233722268215,-6.606022325520825,6.403561335270329,-7.188798501475726,6.255884979319799,-7.763012002915006,6.114399440606071,-8.3285118710448,5.979224486649359,-8.885132391013755,5.850405356007224,-9.432692822615582,5.727913542285962,-9.970997317921036,5.611647855765991,-10.499835012615076,5.501435745950344,-11.018980277814922,5.397034868345432,-11.528193119144802,5.298134878783208,-12.027219709843063,5.204359438593873,-12.515793044677512,5.115268413938283,-12.993633701444562,5.030360252609169,-13.460450696828087,4.949074521610346,-13.915942423393659,4.870794588823028,-14.359797654493917,4.794850432068401,-14.791696603860778,4.720521558875597,-15.211312026660359,4.647040020264213,-15.618310348786206,4.5735935018505,-16.014030429939336,4.500493004607303,-16.399872825691457,4.428349290149828,-16.775595646771254,4.356766476834827,-17.14096269006646,4.285348044201412,-17.495745209729307,4.213699068353796,-17.839723688282042,4.14142845734405,-18.172689607722408,4.068151186554846,-18.49444722062917,3.9934905340821922,-18.80481532126752,3.9170803161181977,-19.10362901669469,3.8385671223338047,-19.390741497865328,3.7576125512615413,-19.666025810737064,3.6738954456782658,-19.929376627375962,3.5871141279879115,-20.18071201706204,3.4969886356042377,-20.41997521739473,3.4032629563335695,-20.647136405398406,3.305707263757549,-20.862194468627823,3.2041201526158822,-21.065178776273676,3.09833087418908,-21.25615095026803,2.988201571681211,-21.435206636389843,2.873629515602641,-21.602477275370457,2.7545493391527804,-21.758131873999073,2.6309352736028417,-21.90237877622825,2.502803383678568,-22.03546743427941,2.3702138029429936" fill="none" stroke="black" stroke-width="2.2222222222222223" stroke-linejoin="round" filter="url(#fuzzy)"></polyline><!--[--><circle r="4.004013926146917" cx="-2.96799577533084" cy="3.232467366630763" stroke="black" fill="none" stroke-width="1" filter="url(#fuzzy)" clip-path="url(#leftEyeClipPath)"></circle><circle r="3.053957618840668" cx="-4.952363289350988" cy="1.3948310439144516" stroke="black" fill="none" stroke-width="1" filter="url(#fuzzy)" clip-path="url(#leftEyeClipPath)"></circle><circle r="4.535178832884794" cx="-5.3815466801601355" cy="1.6318709690113078" stroke="black" fill="none" stroke-width="1" filter="url(#fuzzy)" clip-path="url(#leftEyeClipPath)"></circle><circle r="4.099026675843521" cx="-1.9237269102018435" cy="3.5379542946446776" stroke="black" fill="none" stroke-width="1" filter="url(#fuzzy)" clip-path="url(#leftEyeClipPath)"></circle><circle r="4.375656119278016" cx="-4.383998781258109" cy="2.9983535218679336" stroke="black" fill="none" stroke-width="1" filter="url(#fuzzy)" clip-path="url(#leftEyeClipPath)"></circle><circle r="4.637413712512754" cx="-3.2350501300526453" cy="2.285458571108938" stroke="black" fill="none" stroke-width="1" filter="url(#fuzzy)" clip-path="url(#leftEyeClipPath)"></circle><circle r="4.759496779373855" cx="-2.47939085492727" cy="3.5257542296674416" stroke="black" fill="none" stroke-width="1" filter="url(#fuzzy)" clip-path="url(#leftEyeClipPath)"></circle><circle r="3.062926658752051" cx="-2.3263921025525973" cy="3.3449316853677153" stroke="black" fill="none" stroke-width="1" filter="url(#fuzzy)" clip-path="url(#leftEyeClipPath)"></circle><circle r="3.9457564620626115" cx="-2.5473878129270218" cy="3.6666411676302024" stroke="black" fill="none" stroke-width="1" filter="url(#fuzzy)" clip-path="url(#leftEyeClipPath)"></circle><circle r="4.135266112105355" cx="-3.773945260952577" cy="2.9696430676349443" stroke="black" fill="none" stroke-width="1" filter="url(#fuzzy)" clip-path="url(#leftEyeClipPath)"></circle><!--]--></g><g id="hairs"><!--[--><polyline points="4,-86,5.94790423608058,-85.6568639571891,7.79300505238662,-85.06830599009933,9.376177291622405,-84.55987422863926,10.785437570160795,-84.1226623057601,12.169600358392886,-83.66331402777861,13.598346857896638,-83.13656368930292,15.049411110518644,-82.55705123505629,16.45900020910977,-81.96575200080802,17.766850242969454,-81.40116140997544,18.93254243228595,-80.88936551271654,19.936017659659292,-80.4460491319463,20.7782248098701,-80.0795929985974,21.478382162298278,-79.79205307526473,22.053644910267586,-79.58233976248607,22.483183876527622,-79.45439161359313,22.681330666689394,-79.43002957308383,22.494842245770045,-79.57598927793966,21.704473550239072,-80.04609737230948" fill="none" stroke="rgb(220, 208, 186)" stroke-width="2" stroke-linejoin="round" filter="url(#fuzzy)"></polyline><polyline points="52,-49,52.11146435919466,-48.0869337714592,51.73103948148164,-47.60113601080104,50.56948829972074,-47.550509563753295,48.62777346544516,-47.833237037440746,45.92483111547568,-48.39434383399381,42.44376866770125,-49.22888744505836,38.125297475552635,-50.3792679305278,32.89885265936537,-51.91462791534791,26.72182027327898,-53.905221436683064,19.581431719270793,-56.41291026556935,11.448368243504673,-59.48675179365857,2.2277685280767905,-63.132709686195,-8.205778109885623,-67.27100559432894,-19.804301733465675,-71.80310030406605" fill="none" stroke="rgb(220, 208, 186)" stroke-width="2" stroke-linejoin="round" filter="url(#fuzzy)"></polyline><polyline points="-19,-83,-17.319948029371655,-83.64163937921752,-16.615309959387645,-84.00098423041366,-15.925815642879945,-84.31390766297784,-15.086721616044002,-84.60846688765905,-14.186039942784602,-84.8666447453203,-13.32641343434455,-85.08424080371128,-12.571723928679571,-85.26360510279395,-11.957324796211113,-85.39643519101321,-11.504081851708248,-85.46293826348149,-11.227572777622337,-85.44398217246935,-11.151294139243284,-85.33203908718006,-11.323495847675648,-85.13235843680299,-11.821208890344742,-84.85674782314774,-12.722489396916217,-84.51785473413192,-14.0505434272753,-84.1285483595534,-15.733351495117263,-83.70492097662398,-17.64936723264113,-83.26787706277324,-19.831668191294362,-82.80839510629805" fill="none" stroke="rgb(220, 208, 186)" stroke-width="2" stroke-linejoin="round" filter="url(#fuzzy)"></polyline><polyline points="50,-52,50.65971988286427,-50.709246753968934,51.07641476879983,-49.96720458089398,51.41729683374399,-49.35564406661754,51.66962175810389,-48.83604623430039,51.785326487138256,-48.451391433255225,51.73472004487385,-48.22449214779355,51.51401250035465,-48.15070759108194,51.126787628248934,-48.220259819205666,50.56214425463522,-48.43892350985627,49.786753472183605,-48.83606054526368,48.75403776897954,-49.4604261689835,47.42149718743902,-50.36907394494155,45.76508324101425,-51.6136486559525,43.78525351790771,-53.22618477775185,41.504463806788394,-55.20858493634514,38.9558004463054,-57.534569345828416,36.16179809099664,-60.171086605426886,33.109850936430625,-63.111897742033804,29.745174805082748,-66.39829117857634,26.001109866814822,-70.103495872931,21.836474388880163,-74.28963204887991,17.18973462902826,-78.96844541459632" fill="none" stroke="rgb(220, 208, 186)" stroke-width="2" stroke-linejoin="round" filter="url(#fuzzy)"></polyline><polyline points="-2,-86,-0.32792308526336655,-85.9999999986197,0.7575329794830616,-85.99999890157444,1.4479648151896072,-85.99995196540851,1.9250825884280474,-85.99937005357224,2.1979782618053547,-85.99579115445293,2.1983634365743097,-85.98189461233991,1.8858856354125573,-85.94329481845853,1.2787224750023585,-85.86112013086098,0.40352329779773477,-85.7219318261547,-0.7804577263852455,-85.53125535392115,-2.4047677276933865,-85.32006971606666,-4.619611800508828,-85.13401777001596,-7.473695649800378,-85.00847387150736,-10.906612653285803,-84.95465352880196" fill="none" stroke="rgb(220, 208, 186)" stroke-width="2" stroke-linejoin="round" filter="url(#fuzzy)"></polyline><polyline points="1,-86,2.3171466549125626,-85.99133187123593,3.05147303436936,-85.96104937948347,3.426201833571654,-85.88893112470448,3.5432406791318654,-85.73631763099463,3.529005200906113,-85.47161257377593,3.429590768881944,-85.09657810742083,3.1838759778240284,-84.64438256307791,2.684397499388278,-84.15135074147159,1.8440029267147642,-83.62867594462298,0.6169629096984863,-83.05606842041016,-1.0195500237046105,-82.3971842180674,-3.0896799949934843,-81.61987424533346,-5.626021382603561,-80.7056202387435,-8.663320964040388,-79.64751972808858,-12.231976114822146,-78.45019312996374,-16.34573983272205,-77.14479661119874,-20.957107510088377,-75.81552486730726,-25.88758327289781,-74.61134350452365,-30.871408792177505,-73.69488032691328" fill="none" stroke="rgb(220, 208, 186)" stroke-width="2" stroke-linejoin="round" filter="url(#fuzzy)"></polyline><polyline points="31,-74,31.350871014241232,-73.64619373412295,32.06500550873571,-72.92848195741176,32.910092960260094,-72.08372337738646,33.85719467872924,-71.14622845771962,34.8874790533614,-70.1451638533706,35.93478045980479,-69.16169394158538,36.916129469337825,-68.28904827186402,37.76790865229383,-67.58260294373896,38.45390009085058,-67.04614871798168,38.95529651641846,-66.65189599990845,39.26193946456973,-66.37090760546582,39.36954754392005,-66.19673910031386,39.27465812965123,-66.15764986085048,38.963013604447376,-66.31549531603869,38.40256705766251,-66.7456301804516,37.55762494242178,-67.49938127134199,36.417566068744904,-68.57725533667336,34.99222232086204,-69.96258691498191,33.230636624778484,-71.72034524642343" fill="none" stroke="rgb(220, 208, 186)" stroke-width="2" stroke-linejoin="round" filter="url(#fuzzy)"></polyline><polyline points="-36,-73,-35.98099874832268,-72.66009649702481,-34.56123514100495,-73.01829365851735,-32.36523188460052,-73.64389872570733,-29.718281851087088,-74.31448721842031,-26.72241068708041,-74.8983779541869,-23.389551327180005,-75.32622633956777,-19.737087659082192,-75.57155739268569,-15.812412809991109,-75.6342563874949,-11.667936325073242,-75.533447265625,-7.332886089537375,-75.30492865755434,-2.813572035923727,-74.99688951195057,1.8805541713790603,-74.66467573169577,6.713218833044433,-74.36482928844313,11.628521127010245,-74.13815257862865,16.592811031261018,-73.97107593716521,21.635088968688983,-73.7588151526428,26.809499935539005,-73.3690610484707" fill="none" stroke="rgb(220, 208, 186)" stroke-width="2" stroke-linejoin="round" filter="url(#fuzzy)"></polyline><polyline points="50,-53,50.07635699078001,-52.60718079710188,50.355181372766005,-51.745258059358555,50.75841647594592,-50.80543792072527,51.21119283177063,-49.93619258832273,51.668283506817914,-49.16520595464144,52.086733252251975,-48.51183136573868,52.41756192125934,-48.010798228051854,52.61520223297793,-47.696856804009236,52.649221420288086,-47.59496307373047,52.507057912051096,-47.72616038673128,52.18473805953425,-48.11990762259211,51.671204632649165,-48.82163533947737,50.93734912800788,-49.8906859711753,49.937382093976126,-51.393317135388116,48.61694279542589,-53.400609666822575,46.902626420416965,-55.994176929118204,44.602789021640774,-59.31319389706622" fill="none" stroke="rgb(220, 208, 186)" stroke-width="2" stroke-linejoin="round" filter="url(#fuzzy)"></polyline><polyline points="-17,-84,-16.27417248069169,-84.19682229840166,-14.80032705311836,-84.41019644327736,-13.049253612938502,-84.47586689808801,-11.115559235790412,-84.43364399401713,-9.00063850955514,-84.32937234745675,-6.711062122822668,-84.1684132732244,-4.266664939408851,-83.93511672394129,-1.693738243320552,-83.62111645910699,0.9710235595703125,-83.23746871948242,3.673917915947211,-82.81063709413655,6.349335256131848,-82.37116429170905,8.941160394677354,-81.94245549396675,11.428453744989836,-81.53513896113083,13.829849386921302,-81.14976940518727,16.16876044885039,-80.78131043067768,18.414970305496794,-80.41711235274596,20.436857878495367,-80.0726102956578" fill="none" stroke="rgb(220, 208, 186)" stroke-width="2" stroke-linejoin="round" filter="url(#fuzzy)"></polyline><polyline points="8,-85,9.207740290524677,-84.61224118293478,9.72963282757871,-84.60352864685031,10.106047809703991,-84.5028283434447,10.412948477875661,-84.26205124687236,10.540277726979891,-83.94753805286443,10.373957580407346,-83.62074676093525,9.847894544476752,-83.31116897294746,8.925604882935843,-83.02373098842916,7.582000732421875,-82.75329971313477,5.809978498900655,-82.4942148244281,3.6286395377908525,-82.2425274784622,1.0638946804213365,-81.99419662684215,-1.896214660214138,-81.74233550110253,-5.336844875307246,-81.47505867982326,-9.402244823616055,-81.17942893441843,-14.216573284307437,-80.85802353984569,-19.784634058841437,-80.52261476784467" fill="none" stroke="rgb(220, 208, 186)" stroke-width="2" stroke-linejoin="round" filter="url(#fuzzy)"></polyline><polyline points="54,-45,55.120850654860966,-43.16835281874303,56.06918509454558,-41.59660379478703,56.705610853967805,-40.24041646713683,57.13687450650353,-39.04851799975046,57.44258997573843,-38.05469213392303,57.65452228741939,-37.30333773247051,57.78774458810618,-36.786110147513924,57.85362395191613,-36.45471643550013,57.85152394655271,-36.27692101726157,57.75950050354004,-36.27640962600708,57.53899671995845,-36.527779308995456,57.15135988582918,-37.119507444898645,56.57213251853121,-38.11591557540557,55.79112001826285,-39.54031182556482,54.79845566035738,-41.38387814327575,53.56883132085352,-43.635037695401586,52.059354769816565,-46.3202119545594,50.229918060340836,-49.535580303086796,48.09913161886099,-53.426900798668605" fill="none" stroke="rgb(220, 208, 186)" stroke-width="2" stroke-linejoin="round" filter="url(#fuzzy)"></polyline><polyline points="44,-62,44.85861542524721,-60.06003514143067,45.44309210915952,-58.99795347631377,45.876413971199064,-58.154220805967825,46.2815886125445,-57.389947478614296,46.66509953934812,-56.732131906134946,46.9601764963599,-56.22827623266018,47.0905339878686,-55.90555620710902,47.007342881742154,-55.773984015633886,46.695337968121095,-55.839885409829634,46.159884312128874,-56.114273732784355,45.409732937812805,-56.61332643032074,44.44565529387181,-57.355007149888905,43.257811171448544,-58.3562528969732,41.82880273179316,-59.6318433578176,40.137211851144556,-61.19385130996708,38.15776655687437,-63.05183536702911,35.856929940469996,-65.21674945578644,33.18537725920917,-67.71088689103964,30.075225410149958,-70.57726508816522,26.465303638055545,-73.86980178475221,22.38304491570646,-77.629004434251" fill="none" stroke="rgb(220, 208, 186)" stroke-width="2" stroke-linejoin="round" filter="url(#fuzzy)"></polyline><polyline points="-27,-80,-25.965493599094387,-80.2708995413856,-24.775516781781025,-80.75933777200308,-23.466417639044145,-81.29496882971723,-22.118008818978165,-81.80464282856587,-20.7824125794604,-82.25148933166454,-19.44650430622016,-82.64011294339252,-18.065546270162105,-82.99632996851543,-16.617406868261398,-83.34322105596014,-15.126710318218567,-83.69054842960668,-13.648433882615194,-84.03600894925725,-12.235050678253174,-84.37086808681488,-10.91793665202081,-84.68489921652362,-9.714068266858648,-84.96943699614005,-8.643423338003815,-85.21940055359522,-7.734289566251386,-85.43445074575608,-7.009978303876635,-85.61762034483374,-6.475224862594277,-85.7703911863604,-6.128300003992123,-85.88792275289654,-6.004297482138464,-85.96204972331172,-6.217136371734864,-85.9936189899451,-6.91752947668682,-85.9998098254769" fill="none" stroke="rgb(220, 208, 186)" stroke-width="2" stroke-linejoin="round" filter="url(#fuzzy)"></polyline><polyline points="16,-82,17.45745605093445,-81.75316088315029,18.362415788663416,-81.31835758123975,18.906148967507455,-80.8398256690862,19.05005119865165,-80.36774610585024,18.70675032864426,-79.94480344078761,17.83439564406087,-79.58937152622474,16.440066262901603,-79.29428399110289,14.544566372531484,-79.04089333725389,12.149740064452585,-78.81106887877885,9.225739928815802,-78.59581352257925,5.720364576939007,-78.40165140101334,1.5832140244222792,-78.24766938668415,-3.2102696578356316,-78.15185926684049,-8.647399816634469,-78.12589824330905,-14.670878339610994,-78.19899886141755,-21.160191225729086,-78.45275238885074" fill="none" stroke="rgb(220, 208, 186)" stroke-width="2" stroke-linejoin="round" filter="url(#fuzzy)"></polyline><polyline points="-21,-83,-21.349888366805338,-82.58789893065624,-21.029754898383786,-82.5898487459294,-20.501941316488487,-82.59907854662343,-20.063095619640652,-82.51748853163365,-19.91104173692053,-82.30541808131521,-20.119674135167052,-81.92399178690466,-20.667873193389276,-81.33733118331445,-21.51605092770304,-80.51777341703507,-22.665934240136153,-79.44410424511148,-24.16957454333724,-78.09589305507785,-26.10164191244409,-76.44489564771624,-28.52712706089177,-74.44631362549137,-31.48394256394814,-72.040615501751,-34.98352436344352,-69.17597680769514,-39.02265135888775,-65.84877027355661,-43.539623085714354,-62.19902655178489" fill="none" stroke="rgb(220, 208, 186)" stroke-width="2" stroke-linejoin="round" filter="url(#fuzzy)"></polyline><polyline points="10,-84,10.241253765162027,-84.47717724700698,11.120924559771003,-84.2343158175768,12.461002026433773,-83.59701709957281,14.01102276410436,-82.76326316603563,15.63020183875547,-81.83056549874024,17.26784482434991,-80.8381949793969,18.911264068559433,-79.79877439448573,20.5632824105841,-78.71768350782779,22.240068690300294,-77.60052267831537,23.963535047596288,-76.45447266259877,25.742043495178223,-75.29020488262177,27.55208341847066,-74.1260844830512,29.33504533876361,-72.99123536726195,31.012764815705587,-71.9230587950058,32.51491775583337,-70.95845307990106,33.80677329162194,-70.12269516692827,34.90616499726418,-69.4206710371703,35.87902993077445,-68.83174600987653,36.80035286106124,-68.31274086162261,37.66681726340978,-67.83801577916726,38.26135988813909,-67.54244277050582" fill="none" stroke="rgb(220, 208, 186)" stroke-width="2" stroke-linejoin="round" filter="url(#fuzzy)"></polyline><polyline points="-3,-86,-1.7025276711571142,-85.98360122783609,-0.19606530655869972,-85.94029588463374,1.156867708673086,-85.87672190659765,2.3572812197043107,-85.79789270085763,3.4798872499191353,-85.70799553069081,4.546090058924757,-85.60933266318128,5.538401032564593,-85.50026222411236,6.448302530633236,-85.37586363847427,7.288303375244141,-85.233154296875,8.063033577613899,-85.07842544319615,8.735356821688125,-84.93112454406975,9.221004097006684,-84.82024266059575,9.412444411918475,-84.7764344387514,9.20668896671041,-84.82887750870603,8.524465904444309,-85.00606881053388,7.357474957850146,-85.3147630286291,5.923491260151004,-85.68227976804704" fill="none" stroke="rgb(220, 208, 186)" stroke-width="2" stroke-linejoin="round" filter="url(#fuzzy)"></polyline><polyline points="24,-79,25.05759380423694,-77.91903926625858,25.534488777370594,-77.39640104646683,25.859686497931783,-76.88910930781869,25.9465855783452,-76.39621697113179,25.70917453050922,-75.953944014322,25.1113332081877,-75.55531939256448,24.137380731234597,-75.18069297610258,22.781342918860414,-74.81875460037708,21.046964414037724,-74.4664073760319,18.942328698574844,-74.12251473828013,16.466397030624655,-73.78587955159469,13.59474868039639,-73.45898893026333,10.275640332849948,-73.15229491193057,6.4429221262501155,-72.88113202293113,2.0385489715098046,-72.65243283435986,-2.975125966374028,-72.45116832564995,-8.624833364367472,-72.24697823542903,-14.932266073653535,-72.0333984161536,-21.85299555371148,-71.88424878616958,-29.107511567776214,-72.01660324344176" fill="none" stroke="rgb(220, 208, 186)" stroke-width="2" stroke-linejoin="round" filter="url(#fuzzy)"></polyline><polyline points="5,-86,5.158444468765732,-85.84141201637885,6.645644528783549,-85.30802956732457,8.601314368821663,-84.55686980870477,10.60259795936537,-83.76509920655795,12.537313329858517,-82.98862547509722,14.446101244156312,-82.20060711254754,16.380995818494576,-81.36862302548198,18.336567010623476,-80.49609355025638,20.25747187932201,-79.62018462081352,22.079511631094967,-78.78732742500875,23.749431220845405,-78.03096023044179,25.205007814891935,-77.367386891341,26.381714389835945,-76.79205919491079,27.397212532525096,-76.18628830608885" fill="none" stroke="rgb(220, 208, 186)" stroke-width="2" stroke-linejoin="round" filter="url(#fuzzy)"></polyline><polyline points="-36,-73,-34.42093587817295,-74.02008149384432,-33.27749213787214,-75.10914990923023,-32.30467905857738,-76.09460805952904,-31.374402080241104,-76.9007051873463,-30.500753135133614,-77.52042943688006,-29.74874714179158,-77.9717743721449,-29.153099878918596,-78.28357345342447,-28.704292660234536,-78.48411818029247,-28.378167663001534,-78.58922280464895,-28.166020152364464,-78.5975541007049,-28.08400913550016,-78.4943613564341,-28.164715230464935,-78.25792956352234,-28.442017630790794,-77.86450028479038,-28.937607358602854,-77.29246962777842,-29.654329608376294,-76.52762192559308,-30.581460307969763,-75.56681330595454,-31.714002813622173,-74.41427058420734,-33.07688893975688,-73.06864335864574,-34.73193765840249,-71.5080732884318,-36.74799452483238,-69.68595296544635,-39.146603296880734,-67.54469077368354,-41.88889068701322,-65.0328134693416,-45.00983463482499,-62.044175059229936" fill="none" stroke="rgb(220, 208, 186)" stroke-width="2" stroke-linejoin="round" filter="url(#fuzzy)"></polyline><polyline points="25,-78,26.750368904788687,-76.88379247104328,28.06028364176464,-75.91637795329684,29.163810333770392,-75.10479035641269,30.227403293666825,-74.30655993142403,31.268450436303933,-73.47519268027052,32.2635117739866,-72.62362330242577,33.20384268988772,-71.77576418447985,34.10072814660641,-70.946797280573,34.96885029244385,-70.14487791928471,35.80286164007502,-69.38559333215935,36.56075490769298,-68.70690306328564,37.16700121652423,-68.17035295481622,37.53502118512426,-67.84587498817798,37.59030966456873,-67.79551709012443,37.27549961897144,-68.0726987323498,36.54935767484539,-68.7238352959279,35.429096624535546,-69.7431600805836,34.10429357412804,-70.95947586909209" fill="none" stroke="rgb(220, 208, 186)" stroke-width="2" stroke-linejoin="round" filter="url(#fuzzy)"></polyline><polyline points="5,-86,5.157204036191634,-85.82834321693052,6.636606670666579,-85.25999027796189,8.577787877040512,-84.4627295398666,10.579407788562436,-83.60641282756379,12.55237507375904,-82.72874909780771,14.547018744465653,-81.79368227468106,16.61657165699322,-80.77092616430724,18.76158028587341,-79.66492352002216,20.938788378088848,-78.502810730553,23.089663344148363,-77.31379706211575,25.157000569845422,-76.12073666533882,27.08819520971366,-74.94859925152645,28.83744943394529,-73.84550581950671,30.36271481921845,-72.90435219088306,31.599233790455397,-72.25895608522167,32.451278073316644,-72.01056607107206" fill="none" stroke="rgb(220, 208, 186)" stroke-width="2" stroke-linejoin="round" filter="url(#fuzzy)"></polyline><polyline points="-17,-84,-15.43664581221703,-84.62600896288579,-14.284706460355924,-84.90416955172503,-13.346413865435142,-85.08857181605728,-12.536138436645162,-85.27002717798865,-11.861405634124848,-85.42981041459588,-11.356298579050497,-85.51437882724187,-11.050062088803521,-85.48833604417234,-10.987884783103611,-85.34691488752576,-11.255033081593856,-85.10320866915778,-11.959573250654795,-84.77387878161497,-13.174045353786306,-84.37415676065032,-14.879497345990659,-83.92005827583017,-16.978002973604468,-83.43202372624135,-19.468913401079714,-82.90128247956412" fill="none" stroke="rgb(220, 208, 186)" stroke-width="2" stroke-linejoin="round" filter="url(#fuzzy)"></polyline><polyline points="-13,-85,-12.182907155451437,-85.21940693823629,-10.805283750884623,-85.49739222993007,-9.284601246616292,-85.63576749793418,-7.600600120902527,-85.64374281169148,-5.752371526066522,-85.57088401348122,-3.8043484340108034,-85.45824730127173,-1.8532012065532202,-85.33254788904179,0.01486968994140625,-85.2112045288086,1.7528914471322676,-85.10827322668726,3.3481558276380112,-85.03741561883756,4.790357402067526,-85.00779589381544,6.048954681085888,-85.01106652145972,7.087512602459024,-85.0058946297508,7.887171032295228,-84.92513117724117,8.36795854513854,-84.7766330628176" fill="none" stroke="rgb(220, 208, 186)" stroke-width="2" stroke-linejoin="round" filter="url(#fuzzy)"></polyline><polyline points="14,-83,15.682043628271677,-82.7182622482574,16.754882283787058,-82.26158139548485,17.625055560532044,-81.79051878169125,18.608012189431413,-81.28057733968288,19.762459608684505,-80.71051087587733,21.0145536242376,-80.09453097240345,22.25636813572393,-79.46911799389274,23.39606369216033,-78.87271184230273,24.377583540288235,-78.33257279832654,25.180587699723993,-77.86337056359042,25.80780542925662,-77.47379169427876,26.26801704387242,-77.17377377200141,26.56261321242566,-76.97759525576308,26.68000372345235,-76.90257712925913,26.596270910444062,-76.96537406582942,26.275706920351396,-77.17900319609276,25.66567783452147,-77.5563655143978,24.68932055105075,-78.12372701384125,23.253732569581075,-78.92535623097622,21.30461069401549,-79.96079702025006" fill="none" stroke="rgb(220, 208, 186)" stroke-width="2" stroke-linejoin="round" filter="url(#fuzzy)"></polyline><polyline points="-4,-86,-3.5336329245109828,-85.93628388640238,-2.350716712056174,-85.75840310156391,-0.6960376667537114,-85.47826764410944,1.1951166611034676,-85.10336674080503,3.1578279534412426,-84.64072238740471,5.126250164805274,-84.0999405570943,7.090984900407606,-83.49546093493976,9.050148836977412,-82.8464470807659,10.997369576100638,-82.17167583113975,12.938394880928644,-81.48140520938423,14.90057146545528,-80.77447093276479,16.911216652065235,-80.04760454327743,18.957233117085636,-79.31233483261866,20.96556810038351,-78.60230657036844,22.83200789233679,-77.95660799804742,24.478236831664994,-77.38760396373887,25.8912057137001,-76.8564618787735,27.186943363277592,-76.2244796610263" fill="none" stroke="rgb(220, 208, 186)" stroke-width="2" stroke-linejoin="round" filter="url(#fuzzy)"></polyline><polyline points="-21,-83,-21.180787661364263,-82.59842512490553,-20.345624315170873,-82.64664362109303,-18.959728865622797,-82.76441533299739,-17.311519991651892,-82.87901399121014,-15.572414522145984,-82.97615193576183,-13.789265615229045,-83.04813868223924,-11.934362274692598,-83.08754770916666,-9.972287880352335,-83.08855955852803,-7.895094839020135,-83.04968690342228,-5.72212521128847,-82.97397990748487,-3.4849893958932965,-82.86561671124774,-1.2148955166339874,-82.72643730044365,1.062201207110066,-82.55643625532682,3.3243590573364106,-82.35792665950855,5.549907174614264,-82.13899783842481,7.714560732763785,-81.91247605617671,9.791533509001223,-81.6912316377637,11.754235810809758,-81.4844605860824,13.57808531195357,-81.29881523727202,15.235745831796324,-81.1449511920278,16.680651505564242,-81.04722924119824,17.826100936086014,-81.04257068931942,18.57014412043788,-81.11602082247903" fill="none" stroke="rgb(220, 208, 186)" stroke-width="2" stroke-linejoin="round" filter="url(#fuzzy)"></polyline><polyline points="25,-78,26.640417492018454,-76.9566014464939,27.600801399576632,-76.20541901676513,28.11777306333868,-75.730602794337,28.36131304607633,-75.3724953183978,28.35696639595571,-75.06548748323416,28.087279953482618,-74.80121197450187,27.54186432468724,-74.58413124953071,26.722833690866775,-74.41574692805634,25.632897033944904,-74.29779277430244,24.26003892374255,-74.24302113357878,22.568565232547115,-74.28219299339007,20.50346600205524,-74.45852785620087,18.00632446529989,-74.81014168699579,15.032741520739004,-75.35141559005348,11.562910197279304,-76.06678542521095,7.605953928000272,-76.92212025885982,3.1975647877941995,-77.8857106479205,-1.6325161268660082,-78.94298349697794,-6.958771026516121,-80.0947766526654,-13.05173232760651,-81.36619682093112" fill="none" stroke="rgb(220, 208, 186)" stroke-width="2" stroke-linejoin="round" filter="url(#fuzzy)"></polyline><polyline points="-24,-81,-22.718903514185087,-81.72497282326313,-21.23961072987383,-81.92143291114311,-19.533521222807053,-81.77341400630962,-17.405443863910055,-81.44882011569457,-14.803675577880274,-81.0188777484035,-11.806571106946981,-80.50425242395141,-8.532535986455233,-79.9094819146924,-5.065172924298121,-79.2381703249768,-1.4313831329345703,-78.49616241455078,2.375786933733737,-77.68824457442288,6.365629336991718,-76.81395445473609,10.535267133656077,-75.86617331519949,14.866543651778445,-74.83257851724579,19.31647106372882,-73.69840239908615,23.809342066679566,-72.44754658511887,28.270262901394034,-71.05458653780143,32.69273279353722,-69.48912956769213" fill="none" stroke="rgb(220, 208, 186)" stroke-width="2" stroke-linejoin="round" filter="url(#fuzzy)"></polyline><polyline points="50,-52,50.57774882938481,-50.72096849782869,50.742745033614824,-50.009771248094616,50.66401594817303,-49.43901756015856,50.33376807783966,-48.96102430035877,49.70714252486888,-48.60557962612095,48.75400328537533,-48.379907755307016,47.467372922306836,-48.265220094943054,45.84852705243456,-48.241014631923704,43.88979590058627,-48.30463872799692,41.56872758970228,-48.476659328874675,38.85392257249378,-48.794269868917745,35.71427398920059,-49.29877066612244,32.12499598421108,-50.021664641158615,28.070305878276145,-50.97196227309684,23.544930699399686,-52.128936079736306,18.552953255347077,-53.44787903080448,13.100549253522356,-54.8844555439281,7.1864974827326265,-56.43186835716482,0.8060891873649823,-58.150215073897186,-6.019041689608709,-60.16276197170052,-13.207937206853073,-62.60723435340181,-20.66050147976772,-65.54814832053783,-28.44550113288193,-68.8494247519544" fill="none" stroke="rgb(220, 208, 186)" stroke-width="2" stroke-linejoin="round" filter="url(#fuzzy)"></polyline><polyline points="16,-83,16.80179915343601,-82.34812104974306,16.911877206320938,-81.94278561844766,17.041889073493333,-81.50095161705882,17.168730621689278,-80.95202913240288,17.1473478413343,-80.30609656704688,16.84058618433911,-79.59039591280438,16.148015952947524,-78.82398350280985,15.01708432670517,-78.0119191096201,13.439459904617918,-77.14907929304873,11.433157983209973,-76.22607573890707,9.020129919052124,-75.2344776391983,6.209610099169655,-74.1711409994951,2.9913542621302955,-73.0393132922702,-0.6631782717685084,-71.84314754698181,-4.7951516923027775,-70.57720307276898,-9.449003428438802,-69.21898084289386,-14.658749784072665,-67.73227747681267,-20.434544504195973,-66.08164108921966,-26.76166027489764,-64.25130834115039,-33.610478446380846,-62.265459207230954,-40.880730010114746,-60.26319177726525" fill="none" stroke="rgb(220, 208, 186)" stroke-width="2" stroke-linejoin="round" filter="url(#fuzzy)"></polyline><polyline points="12,-84,13.011053512368866,-83.74884036764541,13.731061868086297,-83.37506480440824,14.174033319870478,-83.03108081054631,14.383360747252192,-82.6969469305769,14.345224128025665,-82.34855330933743,14.072711049177585,-81.971286532916,13.598954733539173,-81.5531568486666,12.934341556663975,-81.08766063077081,12.045589249677896,-80.57849355389548,10.86462618855763,-80.03721679363615,9.312814950942993,-79.47400403022766,7.325877424835872,-78.88802455521652,4.869399654854925,-78.26424788607387,1.9388166762200054,-77.57917077010498,-1.4554236669828118,-76.81374975361362,-5.305862639835235,-75.97040290207617,-9.60921903498769,-75.08951913511358,-14.339371492449404,-74.25515511182292,-19.41812231703785,-73.57259791546356,-24.76152063052339,-73.10065605525351,-30.46884047250535,-72.725953245201" fill="none" stroke="rgb(220, 208, 186)" stroke-width="2" stroke-linejoin="round" filter="url(#fuzzy)"></polyline><polyline points="-17,-84,-15.457961556252082,-84.61849770304202,-14.380239468144685,-84.87273967682249,-13.563589609057196,-85.01905259022857,-12.911998405004852,-85.14641039277194,-12.417508505131645,-85.23735307033006,-12.109592598477766,-85.23971298501121,-12.028373759284621,-85.11295355892791,-12.225357055664062,-84.84154510498047,-12.766501054238816,-84.42894301802158,-13.723318768325472,-83.886356734111,-15.15075079669176,-83.2246247721252,-17.05901347345207,-82.4531232403242,-19.404449827771842,-81.58388422578275,-22.14995711381563,-80.62531251416047,-25.45208242568383,-79.5244788242573" fill="none" stroke="rgb(220, 208, 186)" stroke-width="2" stroke-linejoin="round" filter="url(#fuzzy)"></polyline><polyline points="38,-67,38.35081032836549,-67.18020392259075,38.61787603779983,-66.83843043177599,38.45135574934035,-66.49262132665395,37.912489905443366,-66.16791903230573,37.087479278301494,-65.84880072765095,35.97927699681932,-65.5683809609139,34.51211885570116,-65.38681361647686,32.58091897747783,-65.36114152251957,30.103699744714767,-65.5313428114681,27.04891180395985,-65.9184979258566,23.427993953345283,-66.52796402305998,19.262132532731705,-67.35501923867511,14.545213352491652,-68.39218667771722,9.228164485418816,-69.63630568601914,3.2378297155047857,-71.09285314047312,-3.4824991461950496,-72.77400415949295,-10.943949159285633,-74.68541674509422,-19.11907788886131,-76.80234468930897" fill="none" stroke="rgb(220, 208, 186)" stroke-width="2" stroke-linejoin="round" filter="url(#fuzzy)"></polyline><polyline points="37,-68,37.650099504611454,-67.51564498902054,38.01943080683429,-67.21669219526693,38.107189348520286,-66.86241726223115,37.86978635697008,-66.46706800166999,37.34872964453771,-66.0261774457938,36.59281726258388,-65.5418420213218,35.60304427137463,-65.0443667720921,34.33145672181735,-64.58107655928261,32.70943156597086,-64.19626913401643,30.67674753723887,-63.917735199542804,28.196784307486347,-63.75307834270788,25.256724641794754,-63.69409706256795,21.857511414685405,-63.725972229918256,17.999472644251917,-63.837177834009154,13.671192228698033,-64.02691606522347,8.851072564215404,-64.3099006215262,3.5268069511328193,-64.72011724283313,-2.2776274011941204,-65.31116615181223,-8.499887003987842,-66.14045593409793,-15.103194896155959,-67.21488033490714,-22.214986996338094,-68.38385535888176,-30.26712974802749,-69.21913591938517" fill="none" stroke="rgb(220, 208, 186)" stroke-width="2" stroke-linejoin="round" filter="url(#fuzzy)"></polyline><polyline points="50,-53,50.07343195314489,-52.60722270339183,50.34552325846195,-51.757756899350994,50.74331449706937,-50.83444494569291,51.197726924888876,-49.97069093788648,51.6643036091022,-49.18557870774643,52.099600585683866,-48.48938494882687,52.46131654452003,-47.90395763525066,52.7213718127483,-47.449493446351404,52.87103160787435,-47.13632024281236,52.910324549735165,-46.970891052937965,52.82957911491394,-46.968796610832214,52.597780265309424,-47.16426459317334,52.16732073088406,-47.61010201586137,51.492627953164245,-48.3689347699228,50.55100002135407,-49.49986950192833,49.35394968697527,-51.042141594250324,47.94302884158678,-52.99597841545452,46.36748032250871,-55.31169132810563,44.64204493064905,-57.915601731611105,42.69845514201533,-60.78347778284198,40.4132947701707,-63.94294478609376" fill="none" stroke="rgb(220, 208, 186)" stroke-width="2" stroke-linejoin="round" filter="url(#fuzzy)"></polyline><polyline points="18,-82,17.310498424265962,-81.93688846359319,17.82894836925141,-81.68735642973328,18.679584297223403,-81.31035062970724,19.546878810562102,-80.87847671771331,20.273627825271955,-80.44994532919824,20.76734058865568,-80.06477620447527,20.988962191491034,-79.73993908751325,20.941482393580912,-79.47532532063912,20.64608705925348,-79.26569700411466,20.116603965067082,-79.11002918367389,19.3448071289925,-79.01470437598601,18.301921131434714,-78.99086607179578,16.951685994718222,-79.04823756890667,15.264132797102157,-79.18934967160158,13.22124319530346,-79.40825625658826,10.8137273717224,-79.69526897598564,8.0348246658914,-80.04535767433552,4.876522328134644,-80.46461566761923,1.326661557173999,-80.96740250801116,-2.640139602106606,-81.56009171421773,-7.071538579452333,-82.22613687653198,-11.978182996762552,-82.96720185456888" fill="none" stroke="rgb(220, 208, 186)" stroke-width="2" stroke-linejoin="round" filter="url(#fuzzy)"></polyline><polyline points="44,-61,44.3069944654521,-60.88043421820411,44.86683589653343,-59.996583415630056,45.377271997681795,-59.112832265331924,45.784267117793206,-58.347186264640186,46.11873489924949,-57.72097070587974,46.38296073827465,-57.27713401406274,46.521558157550466,-57.06675444605837,46.445838928222656,-57.12700653076172,46.073009535579885,-57.48124770963349,45.35119990673781,-58.157574777516416,44.25475492340324,-59.21310739655626,42.75732890208019,-60.74273130547954,40.81877839458125,-62.84616804283009,38.43005593171422,-65.54729598893803,35.71914337450814,-68.70488194985457" fill="none" stroke="rgb(220, 208, 186)" stroke-width="2" stroke-linejoin="round" filter="url(#fuzzy)"></polyline><polyline points="6,-86,7.745512201660216,-85.1951767863269,8.953449256059343,-84.82056025652699,9.813964124923286,-84.65993305579858,10.578097150508764,-84.49956652978524,11.323142127658544,-84.27499742346978,12.005917922168534,-84.00852069468999,12.554334532870318,-83.74131249026291,12.913177150827709,-83.50169407789716,13.05282894408136,-83.30047956573429,12.966968217587238,-83.13704974281663,12.667423661519917,-83.00600145180121,12.171362881004464,-82.90182147801578,11.480969310651297,-82.82270180118749,10.567155504665633,-82.77386450944151,9.37082559501938,-82.76847552590309,7.824066424738129,-82.82366644738266,5.878598867659781,-82.95165647889968,3.5218625320374937,-83.15020216380346,0.7682269794790697,-83.39948771470236,-2.367180882964929,-83.67183496970905,-5.878922160753037,-83.96007063366476,-9.737101347985323,-84.3356505791945" fill="none" stroke="rgb(220, 208, 186)" stroke-width="2" stroke-linejoin="round" filter="url(#fuzzy)"></polyline><polyline points="-13,-85,-12.162436351644478,-85.16921009846469,-10.746436394191367,-85.27622232467189,-9.12593500778859,-85.12882430459028,-7.261544338316881,-84.74661399937534,-5.149053631184953,-84.18502527849974,-2.8420505497729156,-83.48858330274413,-0.4078915959760643,-82.68719661941873,2.1093221621048848,-81.80232430095558,4.700665505105536,-80.85160416592053,7.37747876007696,-79.85021846946188,10.143417358398438,-78.81109416484833,12.974241003881367,-77.74608486417011,15.818465639872958,-76.66824936537286,18.616015524471557,-75.59334622003146,21.32063549269072,-74.53838608257286,23.913871714876937,-73.51639246044616,26.410173644893906,-72.52787652745255,28.8587318815196,-71.55107456921942,31.33428595336312,-70.53943363647289,33.879614934935276,-69.45449785717219,36.33515830224977,-68.4037388531451" fill="none" stroke="rgb(220, 208, 186)" stroke-width="2" stroke-linejoin="round" filter="url(#fuzzy)"></polyline><polyline points="-24,-81,-22.784364174442707,-81.80715768743524,-21.491693234064208,-82.2529685779805,-20.107020140834962,-82.50154414225767,-18.437864310049918,-82.70821855164832,-16.44024742030699,-82.93453285481215,-14.21045290311246,-83.19165525406811,-11.888387963746624,-83.47316723963323,-9.573005676269531,-83.76944732666016,-7.293088302162248,-84.06928922015,-5.034295602404949,-84.35405883424116,-2.792156929899254,-84.59841917531202,-0.6180767242913134,-84.79350268637063,1.3537684034673543,-84.98590268135447,2.9038866470218085,-85.27993832140595,3.793691887985122,-85.71443791015743" fill="none" stroke="rgb(220, 208, 186)" stroke-width="2" stroke-linejoin="round" filter="url(#fuzzy)"></polyline><polyline points="57,-40,57.20052330430642,-38.81838098538478,57.429314131375236,-37.686943256988236,57.48277419862432,-36.98109602280056,57.35274989449578,-36.63991358212942,57.07843069071506,-36.48408250818185,56.66803856570176,-36.43123126312049,56.08328509841712,-36.52242794381856,55.26729060399852,-36.85395150207724,54.17707290757857,-37.50789707731841,52.79670499369385,-38.52089382019647,51.13050615352411,-39.888704127680235,49.18774553890554,-41.58940225966818,46.96972477096144,-43.608696967824386,44.46434785446767,-45.955571396211184,41.6490025929091,-48.66103576308092,38.50031265415302,-51.76016676669935,35.00519265378483,-55.26905422149612,31.160396347332025,-59.1783356286793,26.94563679863915,-63.48247377795539,22.27425550523058,-68.23671978258876,16.971955175001437,-73.57724473988713,10.871794693452854,-79.5864795571056" fill="none" stroke="rgb(220, 208, 186)" stroke-width="2" stroke-linejoin="round" filter="url(#fuzzy)"></polyline><polyline points="8,-85,9.128798398937976,-84.59131624226303,9.415880891417785,-84.52177471235032,9.399850758187448,-84.31612420993358,9.162747588183265,-83.9164747625473,8.580641515012257,-83.38236200322402,7.510187742710505,-82.76485134346933,5.862753404634997,-82.0747999730017,3.5968093872070312,-81.29145050048828,0.6888569729992966,-80.38430514984046,-2.873560874630927,-79.3357035005642,-7.0755879902531245,-78.15933470295704,-11.862569303193595,-76.91200733749429,-17.15790932352603,-75.68718050952495,-22.935486543984858,-74.56018981716414,-29.373930925237566,-73.45506120858778" fill="none" stroke="rgb(220, 208, 186)" stroke-width="2" stroke-linejoin="round" filter="url(#fuzzy)"></polyline><polyline points="30,-75,30.52846166726395,-74.33378294733981,30.570852325377253,-73.85466206129598,30.266565906897466,-73.40379729832551,29.606301320739735,-72.9762479058986,28.576646692413956,-72.56461706301339,27.142823993984596,-72.17391902632609,25.228334681514532,-71.84954558394227,22.73678202769606,-71.66179841068008,19.59001779309863,-71.66508882334817,15.748594352848766,-71.87144493441119,11.204461700206274,-72.25671962344613,5.956351468148332,-72.78419945795358,-0.0193099818846747,-73.41711613645275,-6.791183982804711,-74.11404592168059,-14.455912707320733,-74.84278247423798,-22.999625534747043,-75.67160327512768" fill="none" stroke="rgb(220, 208, 186)" stroke-width="2" stroke-linejoin="round" filter="url(#fuzzy)"></polyline><polyline points="-13,-85,-12.149586438620345,-85.16816381801637,-10.688411748721347,-85.27867823982228,-9.000657201338939,-85.14298770312783,-7.050702043956993,-84.78321387722924,-4.83670443404435,-84.25707738123265,-2.4195700776508087,-83.61311532217263,0.12158776108659541,-82.88643550578452,2.7314253730482028,-82.10170980433627,5.396631895981471,-81.27473931403532,8.133883476257324,-80.41229724884033,10.957666907501135,-79.51250662086942,13.851092434312333,-78.56804976124714,16.76073060943063,-77.5724473929858,19.618344074569116,-76.52750621969201,22.369103513168284,-75.45123457267482,24.975842863896442,-74.38943728373273,27.38823528044467,-73.43092657517116,29.51534591709011,-72.70303769880266,31.29698759921771,-72.2896864323626" fill="none" stroke="rgb(220, 208, 186)" stroke-width="2" stroke-linejoin="round" filter="url(#fuzzy)"></polyline><polyline points="10,-85,11.384456571266693,-84.26907471473295,11.968790567192839,-83.64785119858499,11.834813672606934,-83.01123854233768,11.051082860428274,-82.32131582997164,9.62602059748059,-81.52538819391152,7.522035781848269,-80.58255325271818,4.723837664628045,-79.47696298017128,1.2517322124287862,-78.19857841892598,-2.881879922553649,-76.72505678839153,-7.705238640592389,-75.03322840780369,-13.276854091623248,-73.13047264285444,-19.669044073476925,-71.06412781731186,-26.988856980318314,-68.88294812205912,-35.399470417661405,-66.58337846051636" fill="none" stroke="rgb(220, 208, 186)" stroke-width="2" stroke-linejoin="round" filter="url(#fuzzy)"></polyline><polyline points="32,-73,32.72878469789218,-72.27254431340927,33.46200663762687,-71.54119576086208,34.367375970132215,-70.64733430728869,35.31182468563443,-69.74530476993964,36.13692746106936,-69.0098537452761,36.75224172206681,-68.5221244847844,37.122890928822926,-68.27792136454609,37.2351699139689,-68.23819521514025,37.081611010007975,-68.36788656543632,36.66295838245854,-68.65139627301375,35.98545202101403,-69.0986007983518,35.040090483425416,-69.75258855811683,33.77582064228038,-70.69010519874146,32.10652488524833,-71.99199795788695,29.984394622662016,-73.69100976352608,27.429384006614765,-75.83300194209889" fill="none" stroke="rgb(220, 208, 186)" stroke-width="2" stroke-linejoin="round" filter="url(#fuzzy)"></polyline><polyline points="5,-86,5.084355335214273,-85.89804596244794,6.312818395688804,-85.5377206379191,7.812512412486349,-85.08410338294615,9.227698038410733,-84.6740085029312,10.510441223733574,-84.31426692061288,11.720154448713124,-83.95887891161526,12.900731526455981,-83.57839139617002,14.048316662393145,-83.17681293367859,15.128476453061298,-82.77769457117253,16.100843991087196,-82.40643960036806,16.93407746737055,-82.080928664745,17.61240127682686,-81.80989471077919,18.137516136636386,-81.59452607187242,18.524842884318524,-81.43100736004496,18.791884435308095,-81.31460396582051,18.941366861418498,-81.24565843674429,18.947587259708946,-81.23493977936548,18.75574026502799,-81.30390544108869,18.298716924974368,-81.47833160961817,17.522321282503444,-81.78133878483399,16.391186496765684,-82.23636551033833,14.850914907634586,-82.8782649197931,12.787066020540877,-83.7523361039031" fill="none" stroke="rgb(220, 208, 186)" stroke-width="2" stroke-linejoin="round" filter="url(#fuzzy)"></polyline><!--]--></g><g id="pointNose"><g id="rightNose"><!--[--><circle r="1.5975613836995008" cx="8.930497653698986" cy="2.126414894289569" stroke="black" fill="none" stroke-width="1" filter="url(#fuzzy)"></circle><circle r="2.8455842540507925" cx="8.44375649459647" cy="5.13327540865315" stroke="black" fill="none" stroke-width="1" filter="url(#fuzzy)"></circle><circle r="2.860221031307496" cx="7.062180142996125" cy="3.941536158338538" stroke="black" fill="none" stroke-width="1" filter="url(#fuzzy)"></circle><circle r="2.2318071522807985" cx="10.054731354411416" cy="4.86189945928067" stroke="black" fill="none" stroke-width="1" filter="url(#fuzzy)"></circle><circle r="2.909444340693639" cx="8.329407160069042" cy="3.602260128472283" stroke="black" fill="none" stroke-width="1" filter="url(#fuzzy)"></circle><circle r="1.7499491238055567" cx="7.289940973207605" cy="2.3700433152354474" stroke="black" fill="none" stroke-width="1" filter="url(#fuzzy)"></circle><circle r="1.509006490326878" cx="6.856404875592798" cy="4.122769804143479" stroke="black" fill="none" stroke-width="1" filter="url(#fuzzy)"></circle><circle r="1.4693903801629546" cx="10.388554247682919" cy="4.498266000923321" stroke="black" fill="none" stroke-width="1" filter="url(#fuzzy)"></circle><circle r="2.577744739427164" cx="9.052706298386266" cy="2.3399458242064757" stroke="black" fill="none" stroke-width="1" filter="url(#fuzzy)"></circle><circle r="1.2590233389137313" cx="9.922703746883009" cy="2.3326399820066213" stroke="black" fill="none" stroke-width="1" filter="url(#fuzzy)"></circle><!--]--></g><g id="leftNose"><!--[--><circle r="1.9504821452259824" cx="-8.559231367791975" cy="9.41503442965322" stroke="black" fill="none" stroke-width="1" filter="url(#fuzzy)"></circle><circle r="1.8764648051020199" cx="-6.96360239086429" cy="9.143071278263026" stroke="black" fill="none" stroke-width="1" filter="url(#fuzzy)"></circle><circle r="1.9033733880493222" cx="-6.860330010770397" cy="6.738098227857041" stroke="black" fill="none" stroke-width="1" filter="url(#fuzzy)"></circle><circle r="2.447439898122567" cx="-10.30929561463072" cy="9.810887412044506" stroke="black" fill="none" stroke-width="1" filter="url(#fuzzy)"></circle><circle r="1.7401503487283407" cx="-10.214625455851552" cy="6.882473171812354" stroke="black" fill="none" stroke-width="1" filter="url(#fuzzy)"></circle><circle r="2.948665012342618" cx="-10.436033355574947" cy="7.485025240201054" stroke="black" fill="none" stroke-width="1" filter="url(#fuzzy)"></circle><circle r="1.4495136845770304" cx="-9.752943270792876" cy="10.051732964356095" stroke="black" fill="none" stroke-width="1" filter="url(#fuzzy)"></circle><circle r="2.5064083435352282" cx="-9.69125179774174" cy="8.263426448880743" stroke="black" fill="none" stroke-width="1" filter="url(#fuzzy)"></circle><circle r="2.1748100891224142" cx="-9.98358884002688" cy="8.645025540234073" stroke="black" fill="none" stroke-width="1" filter="url(#fuzzy)"></circle><circle r="2.017558978835927" cx="-7.642750082556953" cy="6.289637439699899" stroke="black" fill="none" stroke-width="1" filter="url(#fuzzy)"></circle><!--]--></g></g><g id="mouth"><polyline points="-41.22169664327653,41.01550529582995,-40.536161972657055,42.312179191005086,-39.833421354743564,43.599351316241666,-39.113948955871194,44.87653219410273,-38.37821894237506,46.14323234715128,-37.62670548059031,47.39896229795037,-36.85988273685207,48.64323256906304,-36.07822487749547,49.875553683052296,-35.282206068855665,51.09543616248119,-34.47230047726775,52.30239052991275,-33.64898226906687,53.49592730790998,-32.81272561058815,54.67555701903594,-31.964004668166748,55.84079018585365,-31.103293608137776,56.99113733092614,-30.23106659683636,58.126108976816454,-29.347797800597654,59.24521564608761,-28.453961385756767,60.34796786130264,-27.55003151864885,61.433876145024584,-26.63648236560902,62.50245101981646,-25.713788092972415,63.55320300824131,-24.78242286707417,64.58564263286216,-23.84286085424941,65.59928041624204,-22.89557622083327,66.59362688094399,-21.941043133160886,67.56819254953102,-20.97973575756738,68.52248794456618,-20.012128260387904,69.45602358861251,-19.03869480795756,70.368310004233,-18.059909566611505,71.25885771399072,-17.07624670268486,72.12717724044869,-16.08818038251275,72.97277910616995,-15.096184772430318,73.7951738337175,-14.1007340387727,74.59387194565439,-13.10230234787502,75.36838396454367,-12.101363866072406,76.11822041294832,-11.098392759699994,76.84289181343144,-10.093863195092922,77.541908688556,-9.088249338586316,78.21478156088509,-8.0820253565153,78.86102095298168,-7.075665415215022,79.48013738740883,-6.069643681020608,80.07164138672957,-5.064434320267184,80.63504347350691,-4.060511499289888,81.16985417030392,-3.0583493844238454,81.67558399968362,-2.058422142004196,82.151743484209,-1.061203938366067,82.59784314644317,-0.06716893984459116,83.0133935089491,0.9232086872251002,83.39790509428984,1.909454776507871,83.75088842502839,2.8910951616685923,84.07185402372782,3.8676556763721397,84.36031241295115,4.838662154283365,84.61577411526139,5.803640429067151,84.83774965322164,6.76211633438836,85.02574954939485,7.713615703911862,85.17928432634406,8.657664371302523,85.29786450663238,9.593788170225208,85.38100061282273,10.521512934344798,85.42820316747822,11.440364497326144,85.43898269316186,12.349868692834129,85.41284971243667,13.249551354533608,85.3493147478657,14.138938316089458,85.24788832201196,15.017555411166544,85.10808095743849,15.884928473429738,84.92940317670833,16.7405833365439,84.7113655023845,17.584045834173907,84.45347845703002,18.41484179998462,84.15525256320794,19.232497067640914,83.81619834348129,20.03653747080765,83.43582632041308,20.826488843149704,83.01364701656638,21.601877018331933,82.54917095450419,22.362227830019215,82.04190865678954,23.107067111876418,81.49137064598548,23.835920697568405,80.89706744465505,24.548314420760043,80.25850957536122,25.24377411511621,79.57520756066708,25.921825614301767,78.84667192313566,26.58199475198158,78.07241318532995,27.223807361820516,77.25194186981304,27.846789277483452,76.3847684991479,28.450466332635244,75.47040359589758,29.034364360940778,74.50835768262515,29.5980091960649,73.49814128189358,30.1409266716725,72.43926491626594,30.662642621428425,71.33123910830525,31.162682878997565,70.17357438057456,31.64057327804477,68.96578125563687,32.095839652234915,67.70737025605521,32.52800783523287,66.39785190439265,32.9366036607035,65.03673672321219,33.32115296231167,63.62353523507687,33.68118157372226,62.15775796254972,34.016215328600126,60.638915428193755,34.32578006061014,59.06651815457202,34.609401603417176,57.440076664247556,34.866605790686094,55.759101479783396,35.09691845608177,54.023103123742544,35.29986543326906,52.231592118688056,35.47497255591284,50.38407898718295,35.621765657677976,48.480074251790256,35.73977057222934,46.51908843507301,35.73977057222934,46.519088435073,34.97015590007428,46.726676198237186,34.20054122791922,46.92684113614887,33.43092655576416,47.11964701217293,32.6613118836091,47.305157589674245,31.891697211454048,47.48343663201771,31.122082539298983,47.65454790256817,30.352467867143925,47.81855516469052,29.582853194988875,47.97552218174965,28.81323852283381,48.12551271711043,28.043623850678753,48.26859053413773,27.274009178523695,48.40481939619643,26.504394506368634,48.53426306665143,25.734779834213576,48.65698530886757,24.96516516205852,48.77304988620976,24.195550489903457,48.88252056204286,23.4259358177484,48.985461099731765,22.65632114559334,49.08193526264135,21.886706473438284,49.17200681413648,21.117091801283227,49.25573951758206,20.347477129128166,49.33319713634292,19.577862456973108,49.40444343378398,18.80824778481805,49.46954217327013,18.038633112662993,49.52855711816619,17.26901844050793,49.58155203183709,16.499403768352874,49.6285906776477,15.729789096197813,49.669736818962875,14.960174424042751,49.70505421914753,14.190559751887694,49.73460664156651,13.420945079732633,49.7584578495847,12.651330407577579,49.77667160656699,11.881715735422517,49.78931167587825,11.11210106326746,49.79644182088337,10.342486391112399,49.79812580494721,9.572871718957341,49.79442739143465,8.803257046802289,49.7854103437106,8.033642374647227,49.7711384251399,7.26402770249217,49.751675399087446,6.494413030337109,49.72708502891811,5.724798358182046,49.69743107799678,4.9551836860269916,49.66277730968832,4.1855690138719375,49.623187487357626,3.4159543417168763,49.57872537436956,2.6463396695618187,49.529454734089015,1.8767249974067575,49.47543932988086,1.1071103252516998,49.416742925109965,0.3374956530966422,49.353429283141224,-0.43211901905841543,49.28556216733951,-1.2017336912134766,49.21320534106971,-1.9713483633685343,49.136422567696684,-2.7409630355235954,49.05527761058533,-3.5105777076786566,48.969834233100514,-4.280192379833714,48.88015619860711,-5.049807051988775,48.786307270470004,-5.819421724143833,48.68835121205407,-6.589036396298894,48.586351786724194,-7.358651068453952,48.48037275784526,-8.128265740609008,48.37047788878213,-8.897880412764067,48.25673094289969,-9.66749508491912,48.13919568356282,-10.437109757074179,48.017935874136384,-11.206724429229238,47.893015277985285,-11.976339101384298,47.76449765847438,-12.745953773539357,47.63244677896857,-13.515568445694417,47.496926402832706,-14.285183117849476,47.35800029343168,-15.054797790004535,47.215732214130384,-15.824412462159595,47.07018592829367,-16.594027134314654,46.92142519928643,-17.36364180646971,46.76951379047355,-18.133256478624766,46.6145154652199,-18.902871150779823,46.45649398689036,-19.672485822934885,46.2955131188498,-20.442100495089946,46.131636624463106,-21.211715167245003,45.96492826709516,-21.98132983940006,45.79545181011083,-22.750944511555122,45.623271016875,-23.520559183710184,45.44844965075256,-24.290173855865245,45.271051475108365,-25.059788528020306,45.09114025330731,-25.829403200175356,44.90877974871427,-26.599017872330414,44.72403372469412,-27.36863254448547,44.536965944611744,-28.13824721664053,44.34764017183202,-28.90786188879559,44.15612016971982,-29.67747656095065,43.962469701640025,-30.44709123310571,43.76675253095752,-31.216705905260767,43.56903242103717,-31.986320577415828,43.36937313524387,-32.75593524957089,43.16783843694248,-33.52554992172595,42.964492089497895,-34.295164593881,42.75939785627499,-35.064779266036055,42.55261950063863,-35.83439393819112,42.34422078595371,-36.60400861034617,42.134265475585096,-37.373623282501235,41.92281733289767,-38.14323795465629,41.70994012125633,-38.91285262681135,41.49569760402592,-39.68246729896641,41.280153544571334,-40.45208197112147,41.06337170625746" fill="rgb(215,127,140)" stroke="black" stroke-width="3" stroke-linejoin="round" filter="url(#fuzzy)"></polyline></g></svg>