<svg viewBox="-100 -100 200 200" xmlns="http://www.w3.org/2000/svg" width="400" height="400" id="face-svg"><defs><clipPath id="leftEyeClipPath"><polyline points="28.00192340652424,0.7019241276915444,28.052073009657438,0.3658171389090299,28.074866269150956,0.021862327393223246,28.069489324722337,-0.3289148712356642,28.03523579379404,-0.6855104657337003,27.971503643716208,-1.046941964136634,27.877792063989506,-1.4122484286633128,27.753698338487983,-1.780490530619086,27.59891471768179,-2.1507506052992245,27.413225290860126,-2.522132706892318,27.196502858353966,-2.8937626633836953,26.94870580375891,-3.264788131458829,26.66987496615801,-3.6343786514067506,26.360130512344572,-4.001725702023451,26.019668809044997,-4.366042755515307,25.648759295141588,-4.726565332402473,25.397075896893345,-5.175508156520705,25.092186984400367,-5.62058635855877,24.73406836605108,-6.060120785663072,24.323057954420126,-6.492467419192851,23.85982660767598,-6.916024938926208,23.345350008970414,-7.329241722379171,22.780881566683885,-7.7306222924451955,22.167926318401022,-8.118733226562464,21.50821582149001,-8.49220854061628,20.803684013160193,-8.849754560784044,20.056444022871748,-9.190154296530014,19.268765919971607,-9.512271327957347,18.443055379429598,-9.815053220724728,17.5818332485489,-10.097534481734934,16.687715997524858,-10.358839068802672,15.763397036726154,-10.598182467509213,14.811628883572507,-10.814873348450886,13.835206161882816,-11.008314818089113,12.836949416567894,-11.178005276409136,11.819689726541796,-11.323538894594863,10.786254098725795,-11.444605725927191,9.739451626019097,-11.540991463113203,8.682060392110287,-11.612576855253513,7.616815106003602,-11.659336797655206,6.546395449134068,-11.681339107697708,5.473415117945543,-11.678742999958923,4.4004115448057295,-11.651797273808993,3.329836280132203,-11.600838226679114,2.264046018603504,-11.526287306212714,1.2052942523293688,-11.42864851450629,0.15572353385408044,-11.308505577647443,-0.8826416681328931,-11.166518893757255,-1.9079015375050483,-11.003422272744585,-2.918286920951626,-10.820019480979424,-3.912164796901061,-10.617180604092917,-4.888043220240971,-10.395838241111127,-5.844575759960685,-10.156983543130213,-6.780565446842245,-9.901662109740085,-7.694968248325821,-9.630969756404177,-8.586896087675516,-9.34604816600241,-9.45561942457146,-9.04808043774499,-10.300569414254205,-8.738286546664176,-11.12133966234731,-8.417918726891537,-11.91768759248411,-8.088256791927945,-12.689535443864596,-7.750603405113745,-13.436970915868336,-7.406279313506415,-14.160247476849474,-7.056618558373099,-14.859784354239604,-6.702963675505385,-15.536166223084603,-6.346660898563638,-16.19014261014135,-5.98905537865833,-16.822602995021857,-5.628865452288512,-17.433891253584406,-5.264362755082715,-18.024092363412723,-4.896209273325232,-18.5933304139629,-4.525052982045185,-19.141766312909464,-4.151526076173546,-19.669595492491545,-3.7762432017000815,-20.177045615858997,-3.3997996868303897,-20.66437428341855,-3.0227697731428442,-21.131866739179888,-2.645704846745618,-21.57983357710183,-2.2691316694336496,-22.008608447438426,-1.893550609845633,-22.418545763085117,-1.5194338746210212,-22.81001840592483,-1.1472237395569946,-23.18341543317414,-0.7773307807654533,-23.276295928795978,4.464746605774134,-23.091337370974376,4.792839315654846,-22.894353952125883,5.115847507627601,-22.685276389044358,5.433557363645114,-22.46405088339606,5.745752162693594,-22.23063836423339,6.052212880212625,-21.98501373050882,6.352718787515065,-21.727165093588667,6.64704805120693,-21.457093019766994,6.934978332607294,-21.174809772779387,7.21628738716818,-20.880338556316847,7.49075366389444,-20.573712756539614,7.758156904763663,-20.254975184590997,8.018278744146048,-19.92417731911122,8.270903308224318,-19.58137854875129,8.515817814413593,-19.22573130387431,8.754104685900625,-18.856271450223982,8.986565677153441,-18.472903290294038,9.212587352845564,-18.075549923263896,9.431580839391199,-17.6641529179405,9.64298304629477,-17.238671968561146,9.846257851193052,-16.799084539112915,10.040897244114245,-16.345385501824754,10.22642242647832,-15.87758677548807,10.402384860362979,-15.395716969261699,10.568367263559526,-14.899821037617233,10.723984545943047,-14.389959952080492,10.868884682681138,-13.866210395425092,11.0027495198056,-13.328664483974059,11.125295507671371,-12.777429523665258,11.236274357827085,-12.212627805536677,11.335473618821503,-11.634396446287333,11.422717166470257,-11.04288727956979,11.497865604107126,-10.438266803670142,11.560816568344283,-9.820716191231377,11.61150493586575,-9.190431366675995,11.649902926778456,-8.547623156983773,11.676020100045209,-7.892517521480677,11.689903236523898,-7.2253558662946,11.691636105137288,-6.546395449134068,11.68133910769771,-5.855909880045644,11.659168797910993,-5.154189723805986,11.625317270083979,-4.441543209604454,11.58001141305991,-3.7182970536721633,11.523512024906083,-2.9847974005133677,11.456112783878051,-2.241410888395079,11.378139071184716,-1.4885258447508238,11.289946641078672,-0.7265536171544189,11.19192013379607,0.04406995448032314,11.084471426870424,0.8228829188180631,10.968037820344588,1.6093954414827043,10.84308005140532,2.4030878752445153,10.710080133964725,3.20340866635778,10.569539018712906,4.009772091393001,10.421974069166168,4.82155581890783,10.267916349235108,5.638098290300784,10.107907717836902,6.458695914191867,9.94249772607615,7.282600068674173,9.77224031251858,8.109013905780657,9.597690292081971,8.937088952510038,9.41939963406861,9.765921502756097,9.237913524863606,10.594548794484336,9.053766210823419,11.421944966500188,8.867476616878912,12.24701678915283,8.679543736377273,13.068599163318769,8.490441787687116,13.759734302271024,8.320341578052663,14.447008584530959,8.147336894024905,15.129672657356856,7.971537325329612,15.806937041445988,7.793047730171389,16.477971190910626,7.6119678311953844,17.141902553254102,7.4283918114489955,17.797815629346868,7.242407910343578,18.444751033402486,7.054098019616157,19.08170455295374,6.863537279291126,19.707626208828614,6.670793673641966,20.32141931512639,6.475927627152945,20.921939539193644,6.27899160048083,21.507993961600338,6.080029686416594,22.078340136115802,5.879077205847126,22.631685149684824,5.676160303716936"></polyline></clipPath><clipPath id="rightEyeClipPath"><polyline points="-29.948939517490583,2.61357397165333,-29.962282045190342,2.272701209846698,-29.949281790521567,1.920280746779941,-29.90874339881394,1.557270943416853,-29.83960994582003,1.1846295224210124,-29.740958951466986,0.8033128014764728,-29.611998393608246,0.41427492660844045,-29.452062721775206,0.01846710550395514,-29.26060887092897,-0.38316315916742205,-29.037212275211985,-0.7896728364329313,-28.781562881699823,-1.2001241336959367,-28.493461164152798,-1.6135852634152297,-28.17281413676773,-2.0291312097843637,-27.81963136792959,-2.4458444954109684,-27.43402099396324,-2.862815947996058,-27.016185732885127,-3.2791454670133646,-26.74676589008861,-3.7679751114517437,-26.41787702480275,-4.259994986286863,-26.029503364562583,-4.753236342357193,-25.58206744228714,-5.245703181716813,-25.07639305681134,-5.735387827203041,-24.51366963013503,-6.220285534754439,-23.895417937068498,-6.698408169761642,-23.223457182953766,-7.167796968733496,-22.49987340514096,-7.626534407561033,-21.726989173899288,-8.072755197661664,-20.907334568441577,-8.504656431286183,-20.043619403742184,-8.920506897270979,-19.138706683827117,-9.318655588517966,-18.195587257216165,-9.697539422484716,-17.217355650195945,-10.055690195967262,-16.207187053603537,-10.391740795458073,-15.16831543879983,-10.704430684361622,-14.104012778512013,-10.992610688350123,-13.017569348224457,-11.255247100141826,-11.912275083797462,-11.49142512498441,-10.791401970992995,-11.700351688125888,-9.658187442586973,-11.881357625555609,-8.515818758747253,-12.033899279297746,-7.367418346356727,-12.1575595185397,-6.216030072960885,-12.252048207878158,-5.06460643101911,-12.317202143964902,-3.9159966081390816,-12.352984481835215,-2.772935418973604,-12.359483672201062,-1.6380330744592115,-12.336911930991786,-0.5137657640758394,-12.285603262424594,0.5975329731930666,-12.20601105688742,1.693680113520679,-12.098705284916619,2.7726502728378497,-11.964369308551994,3.8325821156957196,-11.803796331351556,4.871784072710627,-11.617885508348657,5.888739390911878,-11.40763773723371,6.882110541313141,-11.174151152043336,7.850743008028079,-10.918616340639062,8.79366848325091,-10.642311307258307,9.710107492422557,-10.346596201419974,10.599471473903042,-10.032907834467224,11.461364337470851,-9.702754005029878,12.295583525969821,-9.357707654688934,13.102120604424362,-8.999400875125634,13.88116140094358,-8.629518788037647,14.633085723734975,-8.249793319104775,15.358466678548472,-7.8619968872867005,16.058069610871318,-7.467936030735212,16.73285069719461,-7.069444990603445,17.383955209672145,-6.6683792740345975,18.012034804966564,-6.263093757009379,18.617033459526294,-5.851299029067778,19.199208290265968,-5.433887637730875,19.75885745820849,-5.01173836231059,20.296316911252646,-4.585713363577577,20.81195712694077,-4.156655333429086,21.306179855226386,-3.7253846445569003,21.779414861241865,-3.2926965001151736,22.23211666806604,-2.859358083388365,22.664761299491893,-2.426105707459108,23.077843022794166,-1.993641964876101,23.471871091497025,-1.562632877321997,23.847366488141695,-1.1337050452813102,24.204858667054122,-0.7074427977082696,23.101695053026102,3.7158052441259564,22.903439217117864,4.139807340777528,22.69388430521089,4.5544854199274685,22.472955482285986,4.959636176261431,22.240591463605362,5.355063091208665,21.99674381963897,5.740576730048744,21.741376280990877,6.1159950390183315,21.474464043325632,6.481143642417921,21.19599307229463,6.835856139718594,20.90595940846247,7.179974402668778,20.604368472233315,7.513348872400976,20.29123436877729,7.835838856538536,19.966579192956797,8.147312826302393,19.6304323342529,8.44764871361782,19.28282978169171,8.736734208221188,18.922919243227877,9.015756032523328,18.549731275920365,9.285600083979329,18.16314283749034,9.545739406107915,17.76304700680756,9.79568620263898,17.34935285073405,10.034992246817783,16.92198527875397,10.263249228843158,16.480884890579652,10.48008903922131,16.026007821923493,10.685183985816865,15.55732559362577,10.878246942382717,15.074824969328105,11.059031426350296,14.578507826882639,11.227331603661888,14.068391048686605,11.382982218426537,13.544506436132341,11.525858445181235,13.006900653362527,11.65587566153889,12.455635205520585,11.772989139004775,11.890786456686113,11.877193649742994,11.31244569268518,11.96852298707461,10.720719233965475,12.047049397488985,10.115728603726108,12.112882921950009,9.49761075649194,12.166170644278752,8.866518372322407,12.207095844394194,8.222620221844629,12.235877054193585,7.566101607300755,12.252767013854093,6.897164884799363,12.258051526337296,6.216030072960885,12.252048207878158,5.522935553146846,12.235105132240056,4.818138866462867,12.207599366517492,4.101917612725275,12.169935396268073,3.3745704565812447,12.122543437755386,2.6364182459723104,12.06587763508432,1.887805248131151,12.000414140010509,1.1291005083015506,11.92664907220545,0.3606993363713771,11.84509635775889,-0.4169750733915094,11.756285443700138,-1.2034698843105267,11.660758886319854,-1.9983007157889818,11.559069811073943,-2.800949593126078,11.451779241851138,-3.6108627434704923,11.33945329738592,-4.427448232721593,11.222660252598299,-5.250073438188451,11.10196746264215,-6.0780623518167385,10.977938147443634,-6.910692708793656,10.85112803451134,-7.747192936340944,10.72208185779977,-8.586738917506194,10.591329710407699,-9.42845056476249,10.459383248893108,-10.271388198226541,10.326731746986217,-11.114548723305399,10.193837996482264,-11.956861602581908,10.0611340530956,-12.797184616748948,9.929016825056738,-13.634299409402692,9.79784350223394,-14.337052927371266,9.67376947404177,-15.036094827715525,9.548490422929682,-15.730648168104262,9.422090145512902,-16.419894462784722,9.294645337329339,-17.102972716515346,9.166225142931182,-17.778978458498536,9.036890705976502,-18.446962776313423,8.906694719320843,-19.105931349848618,8.775680975108822,-19.75484348523498,8.643883914865727,-20.392611148778354,8.511328179589118,-21.018098000892365,8.378028159840417,-21.630118430031136,8.243987545836513,-22.227436586622083,8.109198877541356,-22.808765416998654,7.973643094757555,-23.372765697333097,7.837289087217974"></polyline></clipPath><filter id="fuzzy"><feTurbulence id="turbulence" baseFrequency="0.05" numOctaves="3" type="noise" result="noise"></feTurbulence><feDisplacementMap in="SourceGraphic" in2="noise" scale="2"></feDisplacementMap></filter><linearGradient id="rainbowGradient" x1="0%" y1="0%" x2="100%" y2="0%"><stop offset="0%" style="stop-color: rgb(185, 55, 55);  stop-opacity: 1"></stop><stop offset="50%" style="stop-color: rgb(255, 192, 203);  stop-opacity: 1"></stop><stop offset="100%" style="stop-color: rgb(233, 236, 239);  stop-opacity: 1"></stop></linearGradient></defs><title>That&#39;s an ugly face</title><desc>CREATED BY XUAN TANG, MORE INFO AT TXSTC55.GITHUB.IO</desc><rect x="-100" y="-100" width="100%" height="100%" opacity="1" fill="rgb(85, 107, 47)"></rect><polyline id="faceContour" points="61,1,61,0,61,2,61,4,61,6,60,7,61,6,60,9,60,10,60,12,60,11,59,14,59,15,59,16,59,16,58,20,58,19,58,20,57,22,57,22,56,27,56,27,56,27,55,28,55,30,54,31,54,33,54,31,53,35,52,36,53,36,51,38,51,39,51,38,50,41,50,41,49,43,48,45,48,46,48,45,47,48,46,48,45,50,45,50,44,52,44,52,44,52,43,54,42,55,41,56,40,57,41,57,39,59,38,60,38,61,36,63,37,62,35,64,35,64,34,66,33,66,33,66,31,68,31,68,31,69,30,69,28,71,28,71,27,72,26,73,25,73,24,74,24,74,23,75,23,75,21,76,21,76,20,77,18,78,19,78,19,78,16,79,14,80,14,80,14,80,13,81,12,81,12,81,10,82,9,82,8,82,7,82,7,83,7,83,6,83,5,83,3,83,3,84,1,84,1,84,0,84,-1,84,-1,84,-2,84,-2,84,-4,84,-5,84,-6,84,-7,84,-8,83,-9,83,-8,83,-10,83,-13,83,-13,82,-12,83,-13,83,-15,82,-16,82,-18,81,-17,81,-18,80,-18,81,-21,79,-22,79,-21,79,-23,78,-25,77,-24,77,-24,77,-26,76,-26,76,-28,75,-28,74,-29,74,-30,74,-31,72,-31,73,-32,71,-32,71,-33,70,-34,69,-34,69,-36,67,-36,67,-37,66,-38,64,-38,65,-39,64,-39,63,-41,61,-41,60,-42,60,-43,58,-42,59,-44,56,-44,57,-45,55,-46,53,-45,54,-47,51,-48,50,-48,49,-48,49,-49,48,-49,47,-50,46,-51,44,-51,43,-52,40,-51,42,-53,39,-54,36,-53,37,-54,36,-54,33,-55,32,-56,30,-56,30,-56,28,-56,27,-57,26,-57,25,-58,23,-58,20,-58,19,-59,19,-59,17,-59,16,-59,17,-59,14,-59,13,-60,11,-60,9,-60,10,-61,6,-61,6,-61,3,-61,3,-61,1,-61,0,-61,-2,-61,-2,-61,-3,-61,-5,-62,-6,-62,-8,-61,-9,-62,-13,-61,-14,-62,-13,-61,-14,-62,-16,-61,-18,-61,-20,-61,-21,-61,-21,-61,-22,-61,-25,-61,-24,-61,-26,-60,-27,-60,-30,-60,-32,-60,-33,-59,-34,-59,-37,-59,-36,-58,-38,-58,-38,-58,-39,-57,-42,-57,-42,-56,-45,-56,-45,-56,-46,-56,-46,-55,-48,-55,-48,-54,-50,-53,-51,-53,-53,-52,-54,-52,-54,-51,-56,-51,-56,-50,-58,-50,-58,-49,-60,-49,-60,-47,-62,-47,-62,-47,-63,-45,-65,-45,-65,-45,-66,-43,-67,-42,-68,-42,-69,-41,-69,-41,-70,-39,-71,-40,-71,-37,-73,-38,-72,-36,-73,-35,-74,-35,-74,-34,-75,-32,-76,-31,-77,-31,-76,-31,-77,-29,-78,-27,-79,-27,-79,-26,-79,-24,-80,-24,-80,-23,-81,-21,-81,-20,-82,-20,-82,-19,-82,-17,-82,-17,-82,-16,-83,-15,-83,-14,-83,-11,-83,-11,-83,-11,-83,-8,-84,-9,-83,-8,-84,-6,-84,-5,-84,-4,-84,-3,-84,-1,-84,1,-84,1,-83,3,-83,3,-84,5,-83,5,-83,8,-83,8,-82,10,-82,11,-82,11,-82,12,-82,14,-81,14,-81,16,-81,16,-81,17,-80,18,-80,18,-80,22,-79,22,-78,23,-78,24,-77,25,-77,25,-77,28,-76,28,-75,28,-75,30,-74,30,-74,31,-74,33,-72,32,-73,35,-71,36,-70,37,-69,38,-68,38,-69,38,-68,39,-67,40,-66,42,-65,43,-64,42,-65,43,-63,44,-62,45,-61,46,-59,46,-59,48,-57,48,-57,49,-56,49,-56,49,-56,50,-54,51,-52,51,-52,52,-49,52,-51,53,-48,53,-48,53,-47,54,-46,55,-45,55,-44,56,-42,56,-42,57,-39,57,-39,58,-37,58,-36,58,-36,59,-33,58,-34,59,-33,59,-30,59,-29,60,-28,60,-26,60,-25,60,-26,60,-25,61,-24,61,-21,61,-18,61,-19,61,-17,61,-18,61,-14,62,-14,62,-13,62,-11,62,-10,62,-10,62,-7,61,-6,61,-4,62,-2,61,-4,61,-2,61,1,61,0" fill="#ffc9a9" stroke="black" stroke-width="1.6666666666666665" stroke-linejoin="round" filter="url(#fuzzy)"></polyline><g transform="translate(35.95052377557927 -22.34176644966156)"><polyline id="rightCountour" points="-29.948939517490583,2.61357397165333,-29.962282045190342,2.272701209846698,-29.949281790521567,1.920280746779941,-29.90874339881394,1.557270943416853,-29.83960994582003,1.1846295224210124,-29.740958951466986,0.8033128014764728,-29.611998393608246,0.41427492660844045,-29.452062721775206,0.01846710550395514,-29.26060887092897,-0.38316315916742205,-29.037212275211985,-0.7896728364329313,-28.781562881699823,-1.2001241336959367,-28.493461164152798,-1.6135852634152297,-28.17281413676773,-2.0291312097843637,-27.81963136792959,-2.4458444954109684,-27.43402099396324,-2.862815947996058,-27.016185732885127,-3.2791454670133646,-26.74676589008861,-3.7679751114517437,-26.41787702480275,-4.259994986286863,-26.029503364562583,-4.753236342357193,-25.58206744228714,-5.245703181716813,-25.07639305681134,-5.735387827203041,-24.51366963013503,-6.220285534754439,-23.895417937068498,-6.698408169761642,-23.223457182953766,-7.167796968733496,-22.49987340514096,-7.626534407561033,-21.726989173899288,-8.072755197661664,-20.907334568441577,-8.504656431286183,-20.043619403742184,-8.920506897270979,-19.138706683827117,-9.318655588517966,-18.195587257216165,-9.697539422484716,-17.217355650195945,-10.055690195967262,-16.207187053603537,-10.391740795458073,-15.16831543879983,-10.704430684361622,-14.104012778512013,-10.992610688350123,-13.017569348224457,-11.255247100141826,-11.912275083797462,-11.49142512498441,-10.791401970992995,-11.700351688125888,-9.658187442586973,-11.881357625555609,-8.515818758747253,-12.033899279297746,-7.367418346356727,-12.1575595185397,-6.216030072960885,-12.252048207878158,-5.06460643101911,-12.317202143964902,-3.9159966081390816,-12.352984481835215,-2.772935418973604,-12.359483672201062,-1.6380330744592115,-12.336911930991786,-0.5137657640758394,-12.285603262424594,0.5975329731930666,-12.20601105688742,1.693680113520679,-12.098705284916619,2.7726502728378497,-11.964369308551994,3.8325821156957196,-11.803796331351556,4.871784072710627,-11.617885508348657,5.888739390911878,-11.40763773723371,6.882110541313141,-11.174151152043336,7.850743008028079,-10.918616340639062,8.79366848325091,-10.642311307258307,9.710107492422557,-10.346596201419974,10.599471473903042,-10.032907834467224,11.461364337470851,-9.702754005029878,12.295583525969821,-9.357707654688934,13.102120604424362,-8.999400875125634,13.88116140094358,-8.629518788037647,14.633085723734975,-8.249793319104775,15.358466678548472,-7.8619968872867005,16.058069610871318,-7.467936030735212,16.73285069719461,-7.069444990603445,17.383955209672145,-6.6683792740345975,18.012034804966564,-6.263093757009379,18.617033459526294,-5.851299029067778,19.199208290265968,-5.433887637730875,19.75885745820849,-5.01173836231059,20.296316911252646,-4.585713363577577,20.81195712694077,-4.156655333429086,21.306179855226386,-3.7253846445569003,21.779414861241865,-3.2926965001151736,22.23211666806604,-2.859358083388365,22.664761299491893,-2.426105707459108,23.077843022794166,-1.993641964876101,23.471871091497025,-1.562632877321997,23.847366488141695,-1.1337050452813102,24.204858667054122,-0.7074427977082696,23.101695053026102,3.7158052441259564,22.903439217117864,4.139807340777528,22.69388430521089,4.5544854199274685,22.472955482285986,4.959636176261431,22.240591463605362,5.355063091208665,21.99674381963897,5.740576730048744,21.741376280990877,6.1159950390183315,21.474464043325632,6.481143642417921,21.19599307229463,6.835856139718594,20.90595940846247,7.179974402668778,20.604368472233315,7.513348872400976,20.29123436877729,7.835838856538536,19.966579192956797,8.147312826302393,19.6304323342529,8.44764871361782,19.28282978169171,8.736734208221188,18.922919243227877,9.015756032523328,18.549731275920365,9.285600083979329,18.16314283749034,9.545739406107915,17.76304700680756,9.79568620263898,17.34935285073405,10.034992246817783,16.92198527875397,10.263249228843158,16.480884890579652,10.48008903922131,16.026007821923493,10.685183985816865,15.55732559362577,10.878246942382717,15.074824969328105,11.059031426350296,14.578507826882639,11.227331603661888,14.068391048686605,11.382982218426537,13.544506436132341,11.525858445181235,13.006900653362527,11.65587566153889,12.455635205520585,11.772989139004775,11.890786456686113,11.877193649742994,11.31244569268518,11.96852298707461,10.720719233965475,12.047049397488985,10.115728603726108,12.112882921950009,9.49761075649194,12.166170644278752,8.866518372322407,12.207095844394194,8.222620221844629,12.235877054193585,7.566101607300755,12.252767013854093,6.897164884799363,12.258051526337296,6.216030072960885,12.252048207878158,5.522935553146846,12.235105132240056,4.818138866462867,12.207599366517492,4.101917612725275,12.169935396268073,3.3745704565812447,12.122543437755386,2.6364182459723104,12.06587763508432,1.887805248131151,12.000414140010509,1.1291005083015506,11.92664907220545,0.3606993363713771,11.84509635775889,-0.4169750733915094,11.756285443700138,-1.2034698843105267,11.660758886319854,-1.9983007157889818,11.559069811073943,-2.800949593126078,11.451779241851138,-3.6108627434704923,11.33945329738592,-4.427448232721593,11.222660252598299,-5.250073438188451,11.10196746264215,-6.0780623518167385,10.977938147443634,-6.910692708793656,10.85112803451134,-7.747192936340944,10.72208185779977,-8.586738917506194,10.591329710407699,-9.42845056476249,10.459383248893108,-10.271388198226541,10.326731746986217,-11.114548723305399,10.193837996482264,-11.956861602581908,10.0611340530956,-12.797184616748948,9.929016825056738,-13.634299409402692,9.79784350223394,-14.337052927371266,9.67376947404177,-15.036094827715525,9.548490422929682,-15.730648168104262,9.422090145512902,-16.419894462784722,9.294645337329339,-17.102972716515346,9.166225142931182,-17.778978458498536,9.036890705976502,-18.446962776313423,8.906694719320843,-19.105931349848618,8.775680975108822,-19.75484348523498,8.643883914865727,-20.392611148778354,8.511328179589118,-21.018098000892365,8.378028159840417,-21.630118430031136,8.243987545836513,-22.227436586622083,8.109198877541356,-22.808765416998654,7.973643094757555,-23.372765697333097,7.837289087217974" fill="white" stroke="white" stroke-width="0" stroke-linejoin="round" filter="url(#fuzzy)"></polyline></g><g transform="translate(-34.904928743744534 -23.848918048022732)"><polyline id="leftCountour" points="28.00192340652424,0.7019241276915444,28.052073009657438,0.3658171389090299,28.074866269150956,0.021862327393223246,28.069489324722337,-0.3289148712356642,28.03523579379404,-0.6855104657337003,27.971503643716208,-1.046941964136634,27.877792063989506,-1.4122484286633128,27.753698338487983,-1.780490530619086,27.59891471768179,-2.1507506052992245,27.413225290860126,-2.522132706892318,27.196502858353966,-2.8937626633836953,26.94870580375891,-3.264788131458829,26.66987496615801,-3.6343786514067506,26.360130512344572,-4.001725702023451,26.019668809044997,-4.366042755515307,25.648759295141588,-4.726565332402473,25.397075896893345,-5.175508156520705,25.092186984400367,-5.62058635855877,24.73406836605108,-6.060120785663072,24.323057954420126,-6.492467419192851,23.85982660767598,-6.916024938926208,23.345350008970414,-7.329241722379171,22.780881566683885,-7.7306222924451955,22.167926318401022,-8.118733226562464,21.50821582149001,-8.49220854061628,20.803684013160193,-8.849754560784044,20.056444022871748,-9.190154296530014,19.268765919971607,-9.512271327957347,18.443055379429598,-9.815053220724728,17.5818332485489,-10.097534481734934,16.687715997524858,-10.358839068802672,15.763397036726154,-10.598182467509213,14.811628883572507,-10.814873348450886,13.835206161882816,-11.008314818089113,12.836949416567894,-11.178005276409136,11.819689726541796,-11.323538894594863,10.786254098725795,-11.444605725927191,9.739451626019097,-11.540991463113203,8.682060392110287,-11.612576855253513,7.616815106003602,-11.659336797655206,6.546395449134068,-11.681339107697708,5.473415117945543,-11.678742999958923,4.4004115448057295,-11.651797273808993,3.329836280132203,-11.600838226679114,2.264046018603504,-11.526287306212714,1.2052942523293688,-11.42864851450629,0.15572353385408044,-11.308505577647443,-0.8826416681328931,-11.166518893757255,-1.9079015375050483,-11.003422272744585,-2.918286920951626,-10.820019480979424,-3.912164796901061,-10.617180604092917,-4.888043220240971,-10.395838241111127,-5.844575759960685,-10.156983543130213,-6.780565446842245,-9.901662109740085,-7.694968248325821,-9.630969756404177,-8.586896087675516,-9.34604816600241,-9.45561942457146,-9.04808043774499,-10.300569414254205,-8.738286546664176,-11.12133966234731,-8.417918726891537,-11.91768759248411,-8.088256791927945,-12.689535443864596,-7.750603405113745,-13.436970915868336,-7.406279313506415,-14.160247476849474,-7.056618558373099,-14.859784354239604,-6.702963675505385,-15.536166223084603,-6.346660898563638,-16.19014261014135,-5.98905537865833,-16.822602995021857,-5.628865452288512,-17.433891253584406,-5.264362755082715,-18.024092363412723,-4.896209273325232,-18.5933304139629,-4.525052982045185,-19.141766312909464,-4.151526076173546,-19.669595492491545,-3.7762432017000815,-20.177045615858997,-3.3997996868303897,-20.66437428341855,-3.0227697731428442,-21.131866739179888,-2.645704846745618,-21.57983357710183,-2.2691316694336496,-22.008608447438426,-1.893550609845633,-22.418545763085117,-1.5194338746210212,-22.81001840592483,-1.1472237395569946,-23.18341543317414,-0.7773307807654533,-23.276295928795978,4.464746605774134,-23.091337370974376,4.792839315654846,-22.894353952125883,5.115847507627601,-22.685276389044358,5.433557363645114,-22.46405088339606,5.745752162693594,-22.23063836423339,6.052212880212625,-21.98501373050882,6.352718787515065,-21.727165093588667,6.64704805120693,-21.457093019766994,6.934978332607294,-21.174809772779387,7.21628738716818,-20.880338556316847,7.49075366389444,-20.573712756539614,7.758156904763663,-20.254975184590997,8.018278744146048,-19.92417731911122,8.270903308224318,-19.58137854875129,8.515817814413593,-19.22573130387431,8.754104685900625,-18.856271450223982,8.986565677153441,-18.472903290294038,9.212587352845564,-18.075549923263896,9.431580839391199,-17.6641529179405,9.64298304629477,-17.238671968561146,9.846257851193052,-16.799084539112915,10.040897244114245,-16.345385501824754,10.22642242647832,-15.87758677548807,10.402384860362979,-15.395716969261699,10.568367263559526,-14.899821037617233,10.723984545943047,-14.389959952080492,10.868884682681138,-13.866210395425092,11.0027495198056,-13.328664483974059,11.125295507671371,-12.777429523665258,11.236274357827085,-12.212627805536677,11.335473618821503,-11.634396446287333,11.422717166470257,-11.04288727956979,11.497865604107126,-10.438266803670142,11.560816568344283,-9.820716191231377,11.61150493586575,-9.190431366675995,11.649902926778456,-8.547623156983773,11.676020100045209,-7.892517521480677,11.689903236523898,-7.2253558662946,11.691636105137288,-6.546395449134068,11.68133910769771,-5.855909880045644,11.659168797910993,-5.154189723805986,11.625317270083979,-4.441543209604454,11.58001141305991,-3.7182970536721633,11.523512024906083,-2.9847974005133677,11.456112783878051,-2.241410888395079,11.378139071184716,-1.4885258447508238,11.289946641078672,-0.7265536171544189,11.19192013379607,0.04406995448032314,11.084471426870424,0.8228829188180631,10.968037820344588,1.6093954414827043,10.84308005140532,2.4030878752445153,10.710080133964725,3.20340866635778,10.569539018712906,4.009772091393001,10.421974069166168,4.82155581890783,10.267916349235108,5.638098290300784,10.107907717836902,6.458695914191867,9.94249772607615,7.282600068674173,9.77224031251858,8.109013905780657,9.597690292081971,8.937088952510038,9.41939963406861,9.765921502756097,9.237913524863606,10.594548794484336,9.053766210823419,11.421944966500188,8.867476616878912,12.24701678915283,8.679543736377273,13.068599163318769,8.490441787687116,13.759734302271024,8.320341578052663,14.447008584530959,8.147336894024905,15.129672657356856,7.971537325329612,15.806937041445988,7.793047730171389,16.477971190910626,7.6119678311953844,17.141902553254102,7.4283918114489955,17.797815629346868,7.242407910343578,18.444751033402486,7.054098019616157,19.08170455295374,6.863537279291126,19.707626208828614,6.670793673641966,20.32141931512639,6.475927627152945,20.921939539193644,6.27899160048083,21.507993961600338,6.080029686416594,22.078340136115802,5.879077205847126,22.631685149684824,5.676160303716936" fill="white" stroke="white" stroke-width="0" stroke-linejoin="round" filter="url(#fuzzy)"></polyline></g><g transform="translate(35.95052377557927 -22.34176644966156)"><polyline id="rightUpper" points="-28.736597459151078,5.177417115723925,-28.91431844309999,5.004323469860671,-29.086140839268133,4.810232076037845,-29.249265745099837,4.596065510858839,-29.401072550945322,4.3627533794200115,-29.53911495381242,4.1112315486313795,-29.66111697111822,3.8424413805372906,-29.7649689544408,3.557328965637115,-29.84872360327094,3.256844356205921,-29.910591978763794,2.941940799615156,-29.948939517490583,2.61357397165333,-29.962282045190342,2.272701209846698,-29.949281790521567,1.920280746779941,-29.90874339881394,1.557270943416853,-29.83960994582003,1.1846295224210124,-29.740958951466986,0.8033128014764728,-29.611998393608246,0.41427492660844045,-29.452062721775206,0.01846710550395514,-29.26060887092897,-0.38316315916742205,-29.037212275211985,-0.7896728364329313,-28.781562881699823,-1.2001241336959367,-28.493461164152798,-1.6135852634152297,-28.17281413676773,-2.0291312097843637,-27.81963136792959,-2.4458444954109684,-27.43402099396324,-2.862815947996058,-27.016185732885127,-3.2791454670133646,-26.74676589008861,-3.7679751114517437,-26.41787702480275,-4.259994986286863,-26.029503364562583,-4.753236342357193,-25.58206744228714,-5.245703181716813,-25.07639305681134,-5.735387827203041,-24.51366963013503,-6.220285534754439,-23.895417937068498,-6.698408169761642,-23.223457182953766,-7.167796968733496,-22.49987340514096,-7.626534407561033,-21.726989173899288,-8.072755197661664,-20.907334568441577,-8.504656431286183,-20.043619403742184,-8.920506897270979,-19.138706683827117,-9.318655588517966,-18.195587257216165,-9.697539422484716,-17.217355650195945,-10.055690195967262,-16.207187053603537,-10.391740795458073,-15.16831543879983,-10.704430684361622,-14.104012778512013,-10.992610688350123,-13.017569348224457,-11.255247100141826,-11.912275083797462,-11.49142512498441,-10.791401970992995,-11.700351688125888,-9.658187442586973,-11.881357625555609,-8.515818758747253,-12.033899279297746,-7.367418346356727,-12.1575595185397,-6.216030072960885,-12.252048207878158,-5.06460643101911,-12.317202143964902,-3.9159966081390816,-12.352984481835215,-2.772935418973604,-12.359483672201062,-1.6380330744592115,-12.336911930991786,-0.5137657640758394,-12.285603262424594,0.5975329731930666,-12.20601105688742,1.693680113520679,-12.098705284916619,2.7726502728378497,-11.964369308551994,3.8325821156957196,-11.803796331351556,4.871784072710627,-11.617885508348657,5.888739390911878,-11.40763773723371,6.882110541313141,-11.174151152043336,7.850743008028079,-10.918616340639062,8.79366848325091,-10.642311307258307,9.710107492422557,-10.346596201419974,10.599471473903042,-10.032907834467224,11.461364337470851,-9.702754005029878,12.295583525969821,-9.357707654688934,13.102120604424362,-8.999400875125634,13.88116140094358,-8.629518788037647,14.633085723734975,-8.249793319104775,15.358466678548472,-7.8619968872867005,16.058069610871318,-7.467936030735212,16.73285069719461,-7.069444990603445,17.383955209672145,-6.6683792740345975,18.012034804966564,-6.263093757009379,18.617033459526294,-5.851299029067778,19.199208290265968,-5.433887637730875,19.75885745820849,-5.01173836231059,20.296316911252646,-4.585713363577577,20.81195712694077,-4.156655333429086,21.306179855226386,-3.7253846445569003,21.779414861241865,-3.2926965001151736,22.23211666806604,-2.859358083388365,22.664761299491893,-2.426105707459108,23.077843022794166,-1.993641964876101,23.471871091497025,-1.562632877321997,23.847366488141695,-1.1337050452813102,24.204858667054122,-0.7074427977082696,24.544882297112604,-0.2843853416947564,24.867974004515442,0.13497608786184934,25.17466911554858,0.5502010785907538,25.46549839935326,0.9609028909798525,25.74098481069368,1.3667513087078689,26.00164023272458,1.767475488976447,26.247962219758996,2.162866812842254,26.480430740035768,2.552781735549104,26.699504918487314,2.937144636860058,26.905619779507205,3.315950671389544" fill="none" stroke="black" stroke-width="1.6666666666666665" stroke-linejoin="round" filter="url(#fuzzy)"></polyline><polyline id="rightLower" points="-27.725833274378356,6.413485874996717,-27.420943978533483,6.562505894637711,-27.082252000709808,6.709654853167177,-26.711671400045358,6.8551091065118115,-26.311054404844544,6.999028461444547,-25.882192378645417,7.1415566254929495,-25.426816786286892,7.282821656847624,-24.946600159975993,7.422936414270615,-24.44315706535511,7.5619990070038074,-23.918045067569203,7.700093244677335,-23.372765697333097,7.837289087217974,-22.808765416998654,7.973643094757555,-22.227436586622083,8.109198877541356,-21.630118430031136,8.243987545836513,-21.018098000892365,8.378028159840417,-20.392611148778354,8.511328179589118,-19.75484348523498,8.643883914865727,-19.105931349848618,8.775680975108822,-18.446962776313423,8.906694719320843,-17.778978458498536,9.036890705976502,-17.102972716515346,9.166225142931182,-16.419894462784722,9.294645337329339,-15.730648168104262,9.422090145512902,-15.036094827715525,9.548490422929682,-14.337052927371266,9.67376947404177,-13.634299409402692,9.79784350223394,-12.797184616748948,9.929016825056738,-11.956861602581908,10.0611340530956,-11.114548723305399,10.193837996482264,-10.271388198226541,10.326731746986217,-9.42845056476249,10.459383248893108,-8.586738917506194,10.591329710407699,-7.747192936340944,10.72208185779977,-6.910692708793656,10.85112803451134,-6.0780623518167385,10.977938147443634,-5.250073438188451,11.10196746264215,-4.427448232721593,11.222660252598299,-3.6108627434704923,11.33945329738592,-2.800949593126078,11.451779241851138,-1.9983007157889818,11.559069811073943,-1.2034698843105267,11.660758886319854,-0.4169750733915094,11.756285443700138,0.3606993363713771,11.84509635775889,1.1291005083015506,11.92664907220545,1.887805248131151,12.000414140010509,2.6364182459723104,12.06587763508432,3.3745704565812447,12.122543437755386,4.101917612725275,12.169935396268073,4.818138866462867,12.207599366517492,5.522935553146846,12.235105132240056,6.216030072960885,12.252048207878158,6.897164884799363,12.258051526337296,7.566101607300755,12.252767013854093,8.222620221844629,12.235877054193585,8.866518372322407,12.207095844394194,9.49761075649194,12.166170644278752,10.115728603726108,12.112882921950009,10.720719233965475,12.047049397488985,11.31244569268518,11.96852298707461,11.890786456686113,11.877193649742994,12.455635205520585,11.772989139004775,13.006900653362527,11.65587566153889,13.544506436132341,11.525858445181235,14.068391048686605,11.382982218426537,14.578507826882639,11.227331603661888,15.074824969328105,11.059031426350296,15.55732559362577,10.878246942382717,16.026007821923493,10.685183985816865,16.480884890579652,10.48008903922131,16.92198527875397,10.263249228843158,17.34935285073405,10.034992246817783,17.76304700680756,9.79568620263898,18.16314283749034,9.545739406107915,18.549731275920365,9.285600083979329,18.922919243227877,9.015756032523328,19.28282978169171,8.736734208221188,19.6304323342529,8.44764871361782,19.966579192956797,8.147312826302393,20.29123436877729,7.835838856538536,20.604368472233315,7.513348872400976,20.90595940846247,7.179974402668778,21.19599307229463,6.835856139718594,21.474464043325632,6.481143642417921,21.741376280990877,6.1159950390183315,21.99674381963897,5.740576730048744,22.240591463605362,5.355063091208665,22.472955482285986,4.959636176261431,22.69388430521089,4.5544854199274685,22.903439217117864,4.139807340777528,23.101695053026102,3.7158052441259564,23.28874089330981,3.282688924923926,23.464680758771866,2.840674370652689,23.62963430571743,2.389983464216831,23.783737521027597,1.9308436868375196,23.92714341723304,1.4634878209457503,24.060022727587622,0.9881536530755914,24.182564601142058,0.5050836767574483,24.29497729781753,0.014524795411297475,24.397488883479326,-0.4832719747600578,24.490347925010507,-0.9880518018777327" fill="none" stroke="black" stroke-width="2.2222222222222223" stroke-linejoin="round" filter="url(#fuzzy)"></polyline><!--[--><circle r="4.918264027175905" cx="14.957403709558644" cy="-4.6799327234190855" stroke="black" fill="none" stroke-width="1" filter="url(#fuzzy)" clip-path="url(#rightEyeClipPath)"></circle><circle r="3.762935288546382" cx="16.97864154313951" cy="-5.134442157077" stroke="black" fill="none" stroke-width="1" filter="url(#fuzzy)" clip-path="url(#rightEyeClipPath)"></circle><circle r="4.779594352229509" cx="15.742764342870668" cy="-6.55942812539831" stroke="black" fill="none" stroke-width="1" filter="url(#fuzzy)" clip-path="url(#rightEyeClipPath)"></circle><circle r="3.1104299430786586" cx="16.614942138502755" cy="-6.135617266840999" stroke="black" fill="none" stroke-width="1" filter="url(#fuzzy)" clip-path="url(#rightEyeClipPath)"></circle><circle r="3.749451316806145" cx="13.314851744941855" cy="-3.910341799074211" stroke="black" fill="none" stroke-width="1" filter="url(#fuzzy)" clip-path="url(#rightEyeClipPath)"></circle><circle r="4.8184367505181225" cx="15.173232479357853" cy="-3.8346125036748293" stroke="black" fill="none" stroke-width="1" filter="url(#fuzzy)" clip-path="url(#rightEyeClipPath)"></circle><circle r="3.1801110068912815" cx="14.072317343182107" cy="-4.323857742823215" stroke="black" fill="none" stroke-width="1" filter="url(#fuzzy)" clip-path="url(#rightEyeClipPath)"></circle><circle r="4.823618069193079" cx="14.670963053106782" cy="-6.548616528309494" stroke="black" fill="none" stroke-width="1" filter="url(#fuzzy)" clip-path="url(#rightEyeClipPath)"></circle><circle r="4.805013621505417" cx="12.658105213621868" cy="-3.0152241971219444" stroke="black" fill="none" stroke-width="1" filter="url(#fuzzy)" clip-path="url(#rightEyeClipPath)"></circle><circle r="4.204812592822744" cx="14.906867011147785" cy="-3.8481009827246684" stroke="black" fill="none" stroke-width="1" filter="url(#fuzzy)" clip-path="url(#rightEyeClipPath)"></circle><!--]--></g><g transform="translate(-34.904928743744534 -23.848918048022732)"><polyline id="leftUpper" points="26.257986106058322,3.3905451163295344,26.511055374294358,3.193993820833867,26.751506286463734,2.978172984457877,26.97727817749018,2.7443194668969744,27.186449137774144,2.4936492325043957,27.377232885415573,2.227357295387791,27.54797563843676,1.9466176645058155,27.697152987005143,1.6525832887647205,27.823366765656115,1.3463860021149427,27.925341925515877,1.0291364686476916,28.00192340652424,0.7019241276915444,28.052073009657438,0.3658171389090299,28.074866269150956,0.021862327393223246,28.069489324722337,-0.3289148712356642,28.03523579379404,-0.6855104657337003,27.971503643716208,-1.046941964136634,27.877792063989506,-1.4122484286633128,27.753698338487983,-1.780490530619086,27.59891471768179,-2.1507506052992245,27.413225290860126,-2.522132706892318,27.196502858353966,-2.8937626633836953,26.94870580375891,-3.264788131458829,26.66987496615801,-3.6343786514067506,26.360130512344572,-4.001725702023451,26.019668809044997,-4.366042755515307,25.648759295141588,-4.726565332402473,25.397075896893345,-5.175508156520705,25.092186984400367,-5.62058635855877,24.73406836605108,-6.060120785663072,24.323057954420126,-6.492467419192851,23.85982660767598,-6.916024938926208,23.345350008970414,-7.329241722379171,22.780881566683885,-7.7306222924451955,22.167926318401022,-8.118733226562464,21.50821582149001,-8.49220854061628,20.803684013160193,-8.849754560784044,20.056444022871748,-9.190154296530014,19.268765919971607,-9.512271327957347,18.443055379429598,-9.815053220724728,17.5818332485489,-10.097534481734934,16.687715997524858,-10.358839068802672,15.763397036726154,-10.598182467509213,14.811628883572507,-10.814873348450886,13.835206161882816,-11.008314818089113,12.836949416567894,-11.178005276409136,11.819689726541796,-11.323538894594863,10.786254098725795,-11.444605725927191,9.739451626019097,-11.540991463113203,8.682060392110287,-11.612576855253513,7.616815106003602,-11.659336797655206,6.546395449134068,-11.681339107697708,5.473415117945543,-11.678742999958923,4.4004115448057295,-11.651797273808993,3.329836280132203,-11.600838226679114,2.264046018603504,-11.526287306212714,1.2052942523293688,-11.42864851450629,0.15572353385408044,-11.308505577647443,-0.8826416681328931,-11.166518893757255,-1.9079015375050483,-11.003422272744585,-2.918286920951626,-10.820019480979424,-3.912164796901061,-10.617180604092917,-4.888043220240971,-10.395838241111127,-5.844575759960685,-10.156983543130213,-6.780565446842245,-9.901662109740085,-7.694968248325821,-9.630969756404177,-8.586896087675516,-9.34604816600241,-9.45561942457146,-9.04808043774499,-10.300569414254205,-8.738286546664176,-11.12133966234731,-8.417918726891537,-11.91768759248411,-8.088256791927945,-12.689535443864596,-7.750603405113745,-13.436970915868336,-7.406279313506415,-14.160247476849474,-7.056618558373099,-14.859784354239604,-6.702963675505385,-15.536166223084603,-6.346660898563638,-16.19014261014135,-5.98905537865833,-16.822602995021857,-5.628865452288512,-17.433891253584406,-5.264362755082715,-18.024092363412723,-4.896209273325232,-18.5933304139629,-4.525052982045185,-19.141766312909464,-4.151526076173546,-19.669595492491545,-3.7762432017000815,-20.177045615858997,-3.3997996868303897,-20.66437428341855,-3.0227697731428442,-21.131866739179888,-2.645704846745618,-21.57983357710183,-2.2691316694336496,-22.008608447438426,-1.893550609845633,-22.418545763085117,-1.5194338746210212,-22.81001840592483,-1.1472237395569946,-23.18341543317414,-0.7773307807654533,-23.539139783729368,-0.410132105830022,-23.877605984512755,-0.045969584963015286,-24.19923785681853,0.31485191783756505,-24.50446622265911,0.6720663136310341,-24.793726611111165,1.025448057377048,-25.067456964661794,1.3748139167786162,-25.32609534555464,1.7200247411250968,-25.570077642136006,2.0609872301352348,-25.799835275201005,2.397655702800143,-26.015792904339666,2.730033866226342" fill="none" stroke="black" stroke-width="2.2222222222222223" stroke-linejoin="round" filter="url(#fuzzy)"></polyline><polyline id="leftLower" points="26.907664853655756,3.537330300906901,26.60721648611913,3.760761041398131,26.27385534646287,3.9818952445187263,25.90943071730537,4.2008207468540135,25.515732014200914,4.417612168664023,25.0944897256636,4.6323313179217775,24.647376353191333,4.845027594351587,24.17600735128975,5.0557383934673386,23.681942067496205,5.264489510610791,23.166684682403687,5.471295544989865,22.631685149684824,5.676160303716936,22.078340136115802,5.879077205847126,21.507993961600338,6.080029686416594,20.921939539193644,6.27899160048083,20.32141931512639,6.475927627152945,19.707626208828614,6.670793673641966,19.08170455295374,6.863537279291126,18.444751033402486,7.054098019616157,17.797815629346868,7.242407910343578,17.141902553254102,7.4283918114489955,16.477971190910626,7.6119678311953844,15.806937041445988,7.793047730171389,15.129672657356856,7.971537325329612,14.447008584530959,8.147336894024905,13.759734302271024,8.320341578052663,13.068599163318769,8.490441787687116,12.24701678915283,8.679543736377273,11.421944966500188,8.867476616878912,10.594548794484336,9.053766210823419,9.765921502756097,9.237913524863606,8.937088952510038,9.41939963406861,8.109013905780657,9.597690292081971,7.282600068674173,9.77224031251858,6.458695914191867,9.94249772607615,5.638098290300784,10.107907717836902,4.82155581890783,10.267916349235108,4.009772091393001,10.421974069166168,3.20340866635778,10.569539018712906,2.4030878752445153,10.710080133964725,1.6093954414827043,10.84308005140532,0.8228829188180631,10.968037820344588,0.04406995448032314,11.084471426870424,-0.7265536171544189,11.19192013379607,-1.4885258447508238,11.289946641078672,-2.241410888395079,11.378139071184716,-2.9847974005133677,11.456112783878051,-3.7182970536721633,11.523512024906083,-4.441543209604454,11.58001141305991,-5.154189723805986,11.625317270083979,-5.855909880045644,11.659168797910993,-6.546395449134068,11.68133910769771,-7.2253558662946,11.691636105137288,-7.892517521480677,11.689903236523898,-8.547623156983773,11.676020100045209,-9.190431366675995,11.649902926778456,-9.820716191231377,11.61150493586575,-10.438266803670142,11.560816568344283,-11.04288727956979,11.497865604107126,-11.634396446287333,11.422717166470257,-12.212627805536677,11.335473618821503,-12.777429523665258,11.236274357827085,-13.328664483974059,11.125295507671371,-13.866210395425092,11.0027495198056,-14.389959952080492,10.868884682681138,-14.899821037617233,10.723984545943047,-15.395716969261699,10.568367263559526,-15.87758677548807,10.402384860362979,-16.345385501824754,10.22642242647832,-16.799084539112915,10.040897244114245,-17.238671968561146,9.846257851193052,-17.6641529179405,9.64298304629477,-18.075549923263896,9.431580839391199,-18.472903290294038,9.212587352845564,-18.856271450223982,8.986565677153441,-19.22573130387431,8.754104685900625,-19.58137854875129,8.515817814413593,-19.92417731911122,8.270903308224318,-20.254975184590997,8.018278744146048,-20.573712756539614,7.758156904763663,-20.880338556316847,7.49075366389444,-21.174809772779387,7.21628738716818,-21.457093019766994,6.934978332607294,-21.727165093588667,6.64704805120693,-21.98501373050882,6.352718787515065,-22.23063836423339,6.052212880212625,-22.46405088339606,5.745752162693594,-22.685276389044358,5.433557363645114,-22.894353952125883,5.115847507627601,-23.091337370974376,4.792839315654846,-23.276295928795978,4.464746605774134,-23.449315151155307,4.131779693646342,-23.610497563461664,3.7941447931260512,-23.75996344845518,3.452043416841661,-23.897851603692963,3.1056717767754876,-24.024320099035272,2.755220184843881,-24.13954703413168,2.4008724534773247,-24.243731295907217,2.042805296200552,-24.337093316048534,1.6811877282126524,-24.419875828490063,1.3161804669671797,-24.492344626900202,0.9479353327522615" fill="none" stroke="black" stroke-width="2.2222222222222223" stroke-linejoin="round" filter="url(#fuzzy)"></polyline><!--[--><circle r="3.6143390962351734" cx="4.5508105174031055" cy="4.559289239456831" stroke="black" fill="none" stroke-width="1" filter="url(#fuzzy)" clip-path="url(#leftEyeClipPath)"></circle><circle r="3.646219319190943" cx="4.980515039709721" cy="5.887818704175727" stroke="black" fill="none" stroke-width="1" filter="url(#fuzzy)" clip-path="url(#leftEyeClipPath)"></circle><circle r="3.6369671485583006" cx="7.330660836035911" cy="4.193592973599145" stroke="black" fill="none" stroke-width="1" filter="url(#fuzzy)" clip-path="url(#leftEyeClipPath)"></circle><circle r="3.056613014235313" cx="3.5196982289269556" cy="4.947279908746603" stroke="black" fill="none" stroke-width="1" filter="url(#fuzzy)" clip-path="url(#leftEyeClipPath)"></circle><circle r="4.67856838731074" cx="7.055061124180055" cy="4.282477325728059" stroke="black" fill="none" stroke-width="1" filter="url(#fuzzy)" clip-path="url(#leftEyeClipPath)"></circle><circle r="3.9915519082503357" cx="3.214956275604692" cy="8.79906579821619" stroke="black" fill="none" stroke-width="1" filter="url(#fuzzy)" clip-path="url(#leftEyeClipPath)"></circle><circle r="4.661915157496365" cx="4.857213723078645" cy="7.207965700063998" stroke="black" fill="none" stroke-width="1" filter="url(#fuzzy)" clip-path="url(#leftEyeClipPath)"></circle><circle r="4.198320060683795" cx="4.68514053385633" cy="8.93739863359681" stroke="black" fill="none" stroke-width="1" filter="url(#fuzzy)" clip-path="url(#leftEyeClipPath)"></circle><circle r="4.124843055402552" cx="7.405774990039681" cy="7.77265603417678" stroke="black" fill="none" stroke-width="1" filter="url(#fuzzy)" clip-path="url(#leftEyeClipPath)"></circle><circle r="3.433314250949808" cx="6.040715346486097" cy="6.519425969833204" stroke="black" fill="none" stroke-width="1" filter="url(#fuzzy)" clip-path="url(#leftEyeClipPath)"></circle><!--]--></g><g id="hairs"><!--[--><!--]--></g><g id="pointNose"><g id="rightNose"><!--[--><circle r="2.133965045517544" cx="9.000537390840638" cy="12.333228777724687" stroke="black" fill="none" stroke-width="1" filter="url(#fuzzy)"></circle><circle r="2.3094445812145272" cx="8.267606052676761" cy="15.407168480598767" stroke="black" fill="none" stroke-width="1" filter="url(#fuzzy)"></circle><circle r="2.5141036514051223" cx="8.778984059905317" cy="13.128065626406878" stroke="black" fill="none" stroke-width="1" filter="url(#fuzzy)"></circle><circle r="1.8586108016786302" cx="7.756653636997044" cy="12.109261593339523" stroke="black" fill="none" stroke-width="1" filter="url(#fuzzy)"></circle><circle r="2.215972497834125" cx="8.351660664034544" cy="13.309631684249755" stroke="black" fill="none" stroke-width="1" filter="url(#fuzzy)"></circle><circle r="1.9812704517392592" cx="7.338432629033381" cy="14.631606358679022" stroke="black" fill="none" stroke-width="1" filter="url(#fuzzy)"></circle><circle r="2.9645525255857343" cx="10.84749679904267" cy="13.020273299351423" stroke="black" fill="none" stroke-width="1" filter="url(#fuzzy)"></circle><circle r="1.0820704988372716" cx="10.118925951906997" cy="13.740262674851266" stroke="black" fill="none" stroke-width="1" filter="url(#fuzzy)"></circle><circle r="1.3533412956043596" cx="8.85146740429139" cy="12.168731676480377" stroke="black" fill="none" stroke-width="1" filter="url(#fuzzy)"></circle><circle r="2.541537516623619" cx="9.96748324110403" cy="15.024810566911224" stroke="black" fill="none" stroke-width="1" filter="url(#fuzzy)"></circle><!--]--></g><g id="leftNose"><!--[--><circle r="2.7410555810087964" cx="-9.421094762974604" cy="13.834260189595149" stroke="black" fill="none" stroke-width="1" filter="url(#fuzzy)"></circle><circle r="1.7311399320304388" cx="-8.438606544267191" cy="15.614192138215383" stroke="black" fill="none" stroke-width="1" filter="url(#fuzzy)"></circle><circle r="2.4480271603873636" cx="-9.568210491345878" cy="13.96937759970624" stroke="black" fill="none" stroke-width="1" filter="url(#fuzzy)"></circle><circle r="2.6442870261228997" cx="-8.531679615328438" cy="16.357052578720896" stroke="black" fill="none" stroke-width="1" filter="url(#fuzzy)"></circle><circle r="2.6670141397755556" cx="-9.966911570855945" cy="16.72801341581147" stroke="black" fill="none" stroke-width="1" filter="url(#fuzzy)"></circle><circle r="2.3284733042440875" cx="-9.54100205428567" cy="16.212873205924296" stroke="black" fill="none" stroke-width="1" filter="url(#fuzzy)"></circle><circle r="1.644072570686855" cx="-7.828531145856008" cy="16.224219767733942" stroke="black" fill="none" stroke-width="1" filter="url(#fuzzy)"></circle><circle r="1.2598483454495208" cx="-7.46250990151889" cy="17.065003808006782" stroke="black" fill="none" stroke-width="1" filter="url(#fuzzy)"></circle><circle r="1.049955802212078" cx="-10.872642459513033" cy="16.97367790384662" stroke="black" fill="none" stroke-width="1" filter="url(#fuzzy)"></circle><circle r="1.6680317788886607" cx="-10.158585106548863" cy="14.57165824822102" stroke="black" fill="none" stroke-width="1" filter="url(#fuzzy)"></circle><!--]--></g></g><g id="mouth"><polyline points="12.212363589504948,44.78098587604524,12.183988896809431,45.684063351328675,12.131320118619684,45.85127871683938,12.035804437467622,45.89905140088289,11.821083449950661,47.03480613482645,11.774593617435299,46.97244619876626,11.452403778746282,47.776123472336266,11.66691644309432,47.4631501293574,11.407027692656408,47.97590325887464,11.186837486762542,48.5287641480168,10.762686695753382,49.116566700730914,10.880961644989503,48.93078894277212,10.366502018765773,49.81328628923533,10.438933627069845,49.66921290003944,10.426409989994472,49.64609341133834,9.615921214799123,50.70843652289345,9.853493898041966,50.368435315845716,9.744916960625304,50.642201030080805,9.458356250016708,50.828080016343456,9.330488038708049,50.94826109634946,9.233893778673009,51.14645045118964,8.122516078545331,52.06467581148285,8.55224209361693,51.80130555249186,7.901318078463564,52.22500542524334,7.255229870464371,52.67699285263861,6.833507399960202,52.98399497299278,6.88660132740853,52.984550265013155,6.7678910799768435,53.01444546220844,6.226882788228801,53.29344025296686,5.896622704751575,53.446118565919775,5.409519920268099,53.70678574128385,4.965814815486185,53.9161922288672,4.893833383679208,53.908755360766676,4.296189858353586,54.11880680734421,4.231775776030499,54.13682854042755,4.215260309331715,54.173614448180395,3.8534704604159593,54.264033256811956,3.101233704092981,54.476768903642515,3.334800220989686,54.409977930996035,2.298625228207044,54.613531052173464,2.0174459389754626,54.63915146530708,1.3394694873191215,54.74099810683208,0.8500545295792705,54.78022946452575,0.4584076510429964,54.78715819294425,0.5947251537488771,54.782887441108805,0.07873135833979905,54.801310246737025,-1.25359288019239,54.75047322995134,-1.4094933684669204,54.73528461312227,-1.303780007606378,54.74487516892208,-1.8018545926047738,54.69158211487481,-2.708413556788698,54.55049634198134,-2.7657104716862326,54.539281028857616,-3.3025272757676563,54.422949949323716,-3.421399170700884,54.396567645807735,-3.9235631385744485,54.268495901147915,-4.635307162394619,54.02729888895271,-4.1163388738591635,54.20351203662429,-4.7117605711134605,54.01922371685924,-4.677852985739103,54.015247949418246,-5.193627033598791,53.831649294702416,-5.6552929485693655,53.648373013869495,-6.803944276776232,53.096198735566766,-6.2312488331033995,53.36742014433396,-7.311965753780144,52.77825015548287,-7.442749516395456,52.69837133581115,-7.095450244937591,52.94718817898767,-8.222968533554461,52.20263432548347,-8.53837645132861,51.96800261245465,-8.191155099040092,52.250976423461914,-9.379914792047469,51.28614655423735,-9.26058218147956,51.41313749607009,-9.48864560143697,51.1708727382923,-10.121619256075197,50.565944778950254,-10.46357373711016,50.14506211674453,-10.39289765438344,50.25060685465835,-10.395682700803974,50.179383764367756,-10.724154809522084,49.90956176781434,-10.719909643568462,49.786039374715926,-10.97983594090476,49.49935258055387,-11.380353151188542,49.013437097738546,-11.482048203780959,48.869778494707425,-11.601172685795877,48.66647000966347,-11.838407373674734,48.20482669758897,-11.976674633762444,48.001992121634295,-12.541249073392667,46.72599106353534,-12.59735025170319,46.37062924189989,-12.598282690571374,46.675898617147716,-12.751626637382888,45.92613387653629,-12.60219865750614,46.46056933534728,-12.88199969345358,45.443958317706176,-13.132025722072358,44.72483893237938,-13.033813145105501,44.61136417492863,-13.092069090231627,44.75965283790537,-13.208615802366797,43.83381262279642,-13.159334299304502,44.204777497048575,-13.223803590726073,43.98619049422802,-13.183326238117239,43.28236413000484,-13.204084765754661,42.45372169186822,-13.248440995661998,42.7311785958058,-13.053367976637901,41.47906887001731,-13.192159526000754,41.8302197741446,-13.083463309209103,41.44031885097124,-13.039290181915392,41.54136434706925,-12.98035166626661,41.1380062207086,-12.7366441134508,40.11774164528172,-12.72326433947866,39.987305904589306,-12.767730274588486,40.12086869945976,-12.651866275189166,39.80374829523964,-12.376157208929664,38.9298188687802,-12.236427116465027,38.85565650447929,-12.066664327091496,38.26486884178094,-11.906078111407265,38.10316821355414,-11.721231362132247,37.771699784900704,-11.519594593002198,37.510390119921276,-11.534635935658564,37.54372697968993,-10.774330341136727,36.47862922407909,-10.764396921165726,36.39665857798067,-10.67981042689428,36.289584906484315,-10.45287644343142,36.06108052585138,-9.917087634803046,35.59897105498889,-9.86638448391877,35.541849280158345,-9.947929163677067,35.58278587260362,-9.368415413225991,35.12076483006778,-9.305031689401346,35.027195240212656,-8.058888663686584,34.12836067927146,-8.69250046045828,34.61355806029128,-7.386086213613885,33.74302415075875,-7.891375743047246,34.02635115001529,-7.678118851835072,33.90771752174903,-6.913969842799704,33.48418806332731,-6.654925906559064,33.36603865888233,-6.678649650256157,33.38593489770224,-5.937850163969856,33.134500273056,-5.104331293386301,32.83218115647141,-5.7003862915423955,33.020993692206744,-4.3574181181806555,32.60593693882045,-4.528408059722077,32.66053530771585,-4.300886499018105,32.57041824920246,-4.055241480781525,32.534299889206764,-3.3989082511882387,32.40767496570078,-2.709119208212421,32.31087870304623,-2.369162086207618,32.25648396507761,-1.8067516578290972,32.21019373470708,-1.64218010309862,32.20583229241895,-0.8458158318367672,32.203341717510284,-0.7815158488479481,32.191285057217634,0.28315046110131326,32.24677046171962,0.32031259603616125,32.2527965181296,1.0236383031522394,32.329711899194535,0.4425673759009019,32.262150574228926,1.5217206116503197,32.40703254587578,1.766017425250793,32.450253707407754,1.7759182661968511,32.451703534052555,2.1462238634025743,32.52859844746112,2.271755537836894,32.560728286289624,2.483888161063601,32.607668712774675,3.9471732884391235,33.03014899196042,3.94566698251408,33.036463755650566,4.587572134786873,33.3022283285534,4.095330914498445,33.109577703694626,4.943990216263458,33.448922928522194,5.213744959377501,33.57138085789614,5.211101754231245,33.561706644244026,5.490203486195771,33.69997798197992,6.869111423905999,34.4671637066355,6.896289365165865,34.51045723889546,7.3519586222549655,34.843199890401195,6.874295130188532,34.49079139052927,7.6734664605686955,35.011944991935195,7.590381876635329,34.946742505829455,8.537792234519808,35.75608253716003,8.817564653085508,35.975814642642405,9.066926253890234,36.27684687560321,9.221241549051317,36.38548712830162,9.318618201911878,36.542175710792485,9.882214760641457,37.12787456244597,9.67256243488402,36.97775755697418,10.252825592460086,37.607047635107115,10.384556103141925,37.834373180482345,10.694896174745368,38.25284362302642,11.018970897179434,38.821474227648,10.8831846014199,38.62642365510532,11.093846536922804,39.02289116683639,11.25789422388055,39.40272721788925,11.343417361270712,39.597931229396025,11.378039447971501,39.6945584558095,11.858125014699489,41.04771047703358,11.68656498344007,40.414171946794525,11.84814394031608,40.808858249744,11.916669793135622,40.984435870519945,12.060369249551158,41.647256624341736,12.223248861087395,42.723285169058535,12.258151608678364,42.939580611479364,12.204199663550966,42.34323329401954,12.282383405937738,42.83895098684287,12.299403549797136,43.64066293636971,12.306483195731447,44.09909957283326,12.31470844035482,44.50568138218787,12.268419346697938,44.25522115222385,12.265405661859187,44.99127908586981" fill="rgb(215,127,140)" stroke="black" stroke-width="3" stroke-linejoin="round" filter="url(#fuzzy)"></polyline></g></svg>