<svg viewBox="-100 -100 200 200" xmlns="http://www.w3.org/2000/svg" width="400" height="400" id="face-svg"><defs><clipPath id="leftEyeClipPath"><polyline points="27.598136975410906,-3.453366734720192,27.538755549025627,-3.6257490936956716,27.456915044472655,-3.7996207732951173,27.351526137593513,-3.9745574877682013,27.221609309952573,-4.150147826822973,27.06629184463645,-4.325993139921767,26.88480482205335,-4.501707420577125,26.67648011573245,-4.6769171906476945,26.440747388123203,-4.851261384634158,26.177131086394805,-5.024391233975135,25.885247438235456,-5.195970151343097,25.564801447651785,-5.365673614940281,25.21558389076819,-5.53318905279461,24.837468311626186,-5.698215727055594,24.43040801798382,-5.86046461829025,23.994433077114966,-6.019658309779013,23.677198685721855,-6.222188844693692,23.30840415108594,-6.420790846617567,22.887651109889855,-6.614797424335277,22.414908564518885,-6.803564957258837,21.89048774905199,-6.986474221150418,21.315017699662278,-7.162931423038289,20.68942152084901,-7.332369147190937,20.014893338922764,-7.494247214014514,19.292875934165696,-7.648053453738587,18.52503904308875,-7.793304396755337,17.71325832220753,-7.929545882477218,16.859594964758777,-8.056353588578173,15.966275961779214,-8.173333482483446,15.035674998968677,-8.280122196973116,14.07029398075921,-8.376387331764299,13.072745173012127,-8.461827682937258,12.045733955764717,-8.536173402070311,10.992042177448592,-8.599186086948722,9.914512102001293,-8.650658805712606,8.816030940293224,-8.690416056308887,7.699515957291516,-8.718313663112427,6.567900146382859,-8.73423861258134,5.4241184622769305,-8.738108829811614,4.271094603912451,-8.729872897856023,3.1117283387875316,-8.709509721672521,1.9488833601362492,-8.677028138567044,0.7853756683732085,-8.632466476995889,-0.37603753177199906,-8.575892065592694,-1.532668427008696,-8.507400694285097,-2.6819086927054814,-8.427116029366129,-3.8212391001552692,-8.335188984385406,-4.948238642463134,-8.231797048725213,-6.060593187635179,-8.11714357572653,-7.156103667446532,-7.991457032230034,-8.232693810666715,-7.854990211397203,-9.288417429220504,-7.708019410676551,-10.321465265862454,-7.550843576780064,-11.330171411943267,-7.3837834195349075,-12.313019303846211,-7.207180496475486,-13.268647306671667,-7.021396270040874,-14.195853893748062,-6.826811139242773,-15.093602430547335,-6.623823447668924,-15.961025571583043,-6.412848469687219,-16.797429278869394,-6.194317376715407,-17.602296470519263,-5.96867618542157,-18.375290308059427,-5.736384689720392,-19.116257131041166,-5.497915378430308,-19.825229047524413,-5.253752340456572,-20.50242618901358,-5.004390159365329,-21.148258638423332,-4.750332799213776,-21.763735905314547,-4.490833772258657,-22.349328312206477,-4.224926353165939,-22.904821949262004,-3.9527907308838546,-23.430057090597465,-3.674607185176761,-23.92492704542065,-3.390555836839458,-24.389377009168786,-3.1008163979115193,-24.82340291464661,-2.805567921891625,-25.227050283164324,-2.504988553951878,-25.6004130756756,-2.199255281152144,-25.943632543915637,-1.8885436826543782,-26.256896081539107,-1.5730276799369458,-26.540436075258235,-1.252879287008959,-26.79452875598072,-0.9282683606245987,-27.01949304994783,-0.5993623504974459,-28.648622563191118,1.0230099713590026,-28.35982326097741,1.3314010016485627,-28.049592156379372,1.6386140102423807,-27.71791629059955,1.9443350570532276,-27.364823206456737,2.248232849682876,-26.99037992023319,2.549960069319742,-26.594691893521887,2.849154696636552,-26.1779020050737,3.1454413376879917,-25.740189522644698,3.438432549808358,-25.28176907484331,3.7277301675092285,-24.802889622977577,4.012926628377093,-24.303833432902405,4.2936062989710315,-23.78491504686674,4.569346800720348,-23.24648025536084,4.839720335822243,-22.68890506896349,5.1042950131394615,-22.11084294028828,5.364415682750536,-21.510826817516204,5.621061791830121,-20.889134424101666,5.873262689858533,-20.246121862958386,6.120065626325303,-19.58222077707003,6.360538748742707,-18.897935382924718,6.593774078647455,-18.193839384450136,6.81889045569045,-17.470572775126186,7.0350364399145295,-16.72883853595204,7.241393162320254,-15.969399236944462,7.437177113819612,-15.193073549844293,7.6216428626776835,-14.400732679707957,7.794085690542156,-13.593296723060853,7.953844137160711,-12.771730960289524,8.100302443886216,-11.937042089949479,8.232892886069715,-11.090274412665531,8.35109798444113,-10.232505972301523,8.454452585577705,-9.364844662076328,8.542545801560072,-8.488424303302994,8.615022798916021,-7.604400704427894,8.671586426951809,-6.713947708046778,8.711998675571062,-5.8182532335745805,8.736081952681204,-4.918515323245874,8.743720171287368,-4.015938199122822,8.734859636373772,-3.1117283387875316,8.709509721672521,-2.207090577395662,8.667743326419767,-1.3032242437681605,8.60969710219926,-0.40131933819801624,8.535571439973163,0.4974472403511081,8.445630207400205,1.3919154099774884,8.340200226541008,2.2809455568283257,8.219670482050667,3.163422113664212,8.0844910499585,4.038257058324237,7.9351717371348744,4.904393324414834,7.772280421545238,5.7608081165454985,7.596441083391095,6.606516122434511,7.408331517238095,7.440572614207768,7.208680715231056,8.262076431213902,6.998265911495995,9.070172836678719,6.777909277829032,9.864056240522213,6.548474260772201,10.642972780661157,6.310861550176101,11.406222755120474,6.0660046693493666,12.153162897276442,5.8148651768948945,12.883208486554988,5.558427470332845,13.595835286908066,5.297693181610304,14.290581305391267,5.033675154597658,14.967048363165876,4.767390994671558,15.624903471248434,4.4998561804845245,16.26388000333081,4.23207672802107,16.883778657994288,3.9650413970403817,17.464205022788224,3.73600299839836,18.03214670482856,3.5057050099058586,18.587296803211352,3.2745679030770556,19.129348018885185,3.0430153571284895,19.657992793162343,2.811473838426911,20.172923446229905,2.580372179937125,20.673832315660956,2.3501411606698617,21.160411894925712,2.1212130851296203,21.632354971902693,1.894021362762524,22.089354767389853,1.6690000874041773,22.531105073615773,1.4465836167275126,22.957300392750785,1.227206151690654,23.36763607541813,1.0113013159847641,23.761808459205117,0.7993017354819014,24.13951500717429,0.5916386176828734"></polyline></clipPath><clipPath id="rightEyeClipPath"><polyline points="-31.058866682671812,-5.69451583739937,-30.926916743339255,-5.819405249958713,-30.771035691971022,-5.9449688148496085,-30.59000603557034,-6.070842721066924,-30.382743605760623,-6.19667873956383,-30.14829377170537,-6.322143952648242,-29.88582765302828,-6.446920483379272,-29.59463833273314,-6.570705224963677,-29.274137070123857,-6.693209570152304,-28.923849513724477,-6.8141591406365425,-28.543411914199105,-6.933293516444765,-28.132567337271944,-7.050365965338785,-27.69116187664727,-7.165143172210295,-27.219140866929436,-7.277404968477324,-26.716545096542838,-7.386944061480676,-26.183507020651938,-7.493565763880386,-25.780756933384517,-7.637718267400818,-25.32083734232978,-7.777305435984076,-24.803675641330045,-7.911860016465516,-24.229629650037836,-8.040941165815688,-23.59945383776747,-8.164132870702929,-22.914266688684506,-8.281042476648919,-22.17551919060555,-8.391299323666257,-21.384964429680785,-8.494553485267012,-20.5446282732318,-8.590474607731277,-19.656781123017133,-8.67875084652474,-18.723910721197925,-8.759087896754256,-17.748695991276307,-8.831208114550435,-16.733981896278884,-8.894849726266267,-15.682755296457769,-8.949766122380758,-14.59812178878166,-8.995725232996604,-13.483283510489462,-9.032508981820904,-12.341517888978876,-9.059912815517926,-11.176157320302433,-9.077745305322896,-9.99056975854341,-9.085827817805871,-8.788140198344179,-9.083994251674653,-7.572253032859342,-9.07209083750577,-6.346275269406206,-9.049975997292538,-5.113540585085042,-9.017520260699175,-3.8773342046415484,-8.97460623491003,-2.640878582844052,-8.921128624962858,-1.4073198736478831,-8.856994301455217,-0.17971516841936186,-8.782122412512958,1.0389795145080725,-8.69644453690979,2.2459205066731958,-8.599904875226994,3.4383870504492555,-8.492460475942215,4.613791161856781,-8.374081493336384,5.7696868129543475,-8.244751474107765,6.903778451534988,-8.104467669582137,8.013928875855617,-7.953241370408086,9.098166482127164,-7.791098260626468,10.154691902492829,-7.618078788002984,11.181884051222024,-7.434238547512934,12.178305596847606,-7.239648674867103,13.142707877973809,-7.034396246967821,14.074035280482525,-6.818584686184187,14.971429093865392,-6.592334165335455,15.834230864409289,-6.3557820102716,16.661985262962673,-6.109083096940081,17.454442485010407,-5.852410239827763,18.211560200784533,-5.585954568667058,18.93350507313854,-5.30992589029524,19.620653860912725,-5.024553032555981,20.273594125518045,-4.730084167132084,20.89312455846612,-4.426787108198438,21.480254947572895,-4.114949583784181,22.035566222935756,-3.7937714178127377,22.55887721830689,-3.462251925860138,23.05025390178419,-3.1203986818667193,23.509815269973714,-2.768226960030982,23.937730973766392,-2.405760151460669,24.33421894411468,-2.0330301808238285,24.699543017809333,-1.650077922999905,25.034010563256096,-1.2569536197307887,25.337970106252406,-0.8537172962719204,25.61180895576412,-0.44043917804334587,25.855950829702188,-0.017200107280793908,26.070853480699455,0.41590804031324247,26.257006321887253,0.8587819389184386,26.41492805267221,1.3113063959455609,30.898565066928136,1.400057876046577,30.529564077410356,1.7091633887971511,30.14342715611466,2.019000146779497,29.73991316568634,2.329123072020666,29.318800144251632,2.6390582234631053,28.87988611207529,2.948305034921453,28.42298987821823,3.2563385530393294,27.947951847195043,3.562611675246109,27.454634825631672,3.8665573877137236,26.94292482892289,4.167591003313453,26.412731887889983,4.465112399572683,25.86399085543831,4.758508256631736,25.29666221321486,5.047154295200616,24.710732878265866,5.330417514515818,24.10621700969441,5.6076584302971275,23.482271288959048,5.880584278046327,22.837699748981912,6.150400421569915,22.172086671987458,6.415729869398649,21.485120571789324,6.67522437911071,20.77659404362698,6.927569005695074,20.04640344203805,7.171486610491933,19.294548380743123,7.405742314000016,18.521131048520015,7.629147875840709,17.72635533504444,7.840565985168982,16.910525760674084,8.038914444820925,16.074046204153007,8.223170232487945,15.21741842221335,8.392373422207442,14.34124035505126,8.545630949459941,13.446204211654056,8.68212020316259,12.533094328955537,8.801092427848964,11.602784798796414,8.901875919325036,10.656236856666826,8.983878997091349,9.694496026207865,9.046592736821147,8.718689013449133,9.089593446184601,7.730020344759195,9.112544867308848,6.729768742485975,9.1152000891639,5.719283232263987,9.097403153164276,4.6999789759654025,9.059090335276323,3.6733328242718644,9.00029108792111,2.6408785828440524,8.921128624962858,1.604201986065935,8.821820133072801,0.5649353723406438,8.7026765927584,-0.47524794508503376,8.564102192347825,-1.5146396177906079,8.406593318219702,-2.5515025183693343,8.230737104567911,-3.5840773191561874,8.037209525991493,-4.610589399519414,7.826773016199524,-5.629256087738678,7.600273596120824,-6.638294243492922,7.358637494708593,-7.635928186980854,7.10286724572969,-8.620397980697264,6.834037243828624,-9.58996806988806,6.55328874315613,-10.542936287707187,6.261824281852243,-11.477643231098384,5.96090151567381,-12.392482013424905,5.651826444056362,-13.285908399870168,5.335946011900249,-14.15645133163243,5.014640070370995,-15.002723844936499,4.689312680003758,-15.823434390885543,4.361382739401846,-16.617398562176056,4.0322739228192015,-17.38355123269895,3.7034039099167666,-18.120959116049967,3.376172890982681,-18.828833748972244,3.051951330906191,-19.506544905754268,2.7320669751952424,-20.153634449606166,2.417791081327638,-20.79785942373747,2.134834307315339,-21.42465352741666,1.8528070957427971,-22.033608550286772,1.5722687337037113,-22.624341550514714,1.2937741961435334,-23.19649620588831,1.0178732407886795,-23.749744164913345,0.7451095030757431,-24.28378639791068,0.4760195910807159,-24.79835454811328,0.21113218044819781,-25.29321228276332,-0.049032890679390206,-25.768156644209228,-0.30396552673258803,-26.22301940100276,-0.5531662797856822,-26.657668398996087,-0.796147254627495,-27.072008912438832,-1.032433013832165,-27.465984995075168,-1.2615614828299342,-27.839580831240873,-1.4830848549779363"></polyline></clipPath><filter id="fuzzy"><feTurbulence id="turbulence" baseFrequency="0.05" numOctaves="3" type="noise" result="noise"></feTurbulence><feDisplacementMap in="SourceGraphic" in2="noise" scale="2"></feDisplacementMap></filter><linearGradient id="rainbowGradient" x1="0%" y1="0%" x2="100%" y2="0%"><stop offset="0%" style="stop-color: rgb(128, 128, 128);  stop-opacity: 1"></stop><stop offset="50%" style="stop-color: rgb(192, 192, 192);  stop-opacity: 1"></stop><stop offset="100%" style="stop-color: rgb(64, 224, 208);  stop-opacity: 1"></stop></linearGradient></defs><title>That&#39;s an ugly face</title><desc>CREATED BY XUAN TANG, MORE INFO AT TXSTC55.GITHUB.IO</desc><rect x="-100" y="-100" width="100%" height="100%" opacity="1" fill="rgb(25, 25, 112)"></rect><polyline id="faceContour" points="73,1,72,1,73,2,73,4,73,4,73,8,73,9,72,9,72,11,72,11,72,14,72,15,72,15,72,17,71,17,71,20,71,22,71,20,70,24,70,25,70,26,70,27,70,28,68,32,68,30,68,32,68,34,68,33,68,34,67,37,66,37,65,41,65,40,65,41,64,43,63,45,63,45,62,45,61,48,62,48,59,50,60,50,59,52,59,53,57,54,57,55,55,57,55,57,54,58,54,58,53,60,52,61,51,62,50,63,50,63,48,65,48,65,48,66,47,66,45,68,43,69,44,69,43,70,42,70,40,72,38,72,37,74,38,73,35,75,35,75,34,76,32,76,32,76,30,78,30,78,29,78,27,79,26,80,26,79,26,79,23,81,20,82,21,82,20,82,19,82,17,83,17,83,16,83,15,84,13,84,11,84,9,84,9,85,8,85,8,85,7,85,5,85,2,86,4,85,1,86,0,85,-2,86,-1,85,-2,86,-6,85,-5,85,-7,85,-9,85,-9,85,-10,85,-13,84,-12,85,-13,85,-14,84,-16,84,-17,84,-19,83,-20,83,-23,82,-24,82,-23,82,-26,81,-24,82,-26,81,-27,80,-27,80,-30,79,-32,78,-33,78,-34,78,-36,76,-36,76,-36,76,-38,75,-38,74,-40,74,-40,73,-42,72,-43,71,-42,72,-43,71,-46,69,-47,68,-46,69,-49,66,-48,67,-50,65,-51,64,-51,63,-53,62,-52,63,-54,60,-55,59,-55,59,-56,58,-57,55,-58,55,-59,53,-59,53,-60,52,-59,53,-60,51,-62,49,-63,47,-62,47,-64,45,-64,44,-65,43,-64,44,-66,40,-66,40,-67,37,-67,37,-67,36,-68,35,-68,32,-68,33,-69,31,-69,29,-69,29,-70,28,-70,27,-71,23,-71,24,-71,23,-71,21,-71,21,-72,16,-72,15,-72,16,-72,13,-72,14,-72,13,-72,8,-72,8,-72,9,-73,7,-72,4,-72,3,-73,0,-72,-1,-72,-3,-72,-2,-72,-4,-72,-4,-72,-8,-72,-8,-72,-10,-71,-10,-71,-13,-71,-14,-71,-14,-70,-16,-70,-19,-70,-19,-70,-20,-69,-20,-69,-23,-68,-24,-68,-25,-67,-28,-67,-29,-67,-30,-67,-29,-66,-33,-66,-32,-65,-35,-65,-35,-65,-36,-64,-38,-63,-40,-62,-41,-62,-42,-61,-44,-61,-44,-60,-46,-59,-47,-59,-48,-59,-47,-58,-50,-58,-50,-56,-53,-56,-54,-54,-56,-55,-56,-54,-56,-53,-58,-51,-59,-51,-60,-50,-62,-50,-61,-48,-64,-47,-64,-46,-65,-46,-66,-46,-65,-45,-67,-43,-69,-43,-68,-42,-69,-40,-71,-41,-70,-38,-73,-39,-72,-38,-72,-36,-74,-36,-74,-35,-75,-33,-76,-33,-76,-32,-77,-32,-77,-30,-78,-29,-79,-28,-79,-26,-79,-26,-80,-24,-81,-23,-81,-23,-82,-21,-82,-20,-83,-20,-82,-19,-83,-15,-84,-17,-83,-16,-83,-15,-84,-13,-84,-12,-85,-11,-85,-10,-85,-8,-85,-9,-85,-7,-85,-5,-86,-3,-86,-3,-85,-4,-85,-3,-85,0,-85,2,-85,2,-85,2,-85,4,-85,6,-85,7,-85,8,-85,9,-85,11,-84,11,-84,13,-83,13,-84,13,-84,16,-83,17,-83,16,-83,18,-82,19,-81,21,-81,20,-81,21,-81,23,-80,25,-79,27,-78,27,-78,27,-78,28,-77,31,-76,29,-77,32,-76,32,-75,33,-74,35,-73,36,-72,36,-72,38,-71,39,-70,39,-70,39,-70,41,-69,42,-67,43,-67,44,-66,45,-64,45,-65,47,-63,48,-62,49,-61,50,-59,49,-59,52,-58,51,-58,53,-56,53,-56,54,-54,53,-55,55,-53,56,-52,57,-50,57,-49,58,-49,59,-46,60,-45,60,-44,61,-44,60,-44,61,-42,62,-41,62,-40,63,-39,65,-35,64,-36,64,-35,65,-34,65,-33,66,-31,67,-29,67,-30,68,-27,68,-25,69,-24,69,-23,69,-22,69,-21,70,-18,70,-19,70,-18,70,-17,71,-14,71,-13,71,-13,72,-10,72,-10,72,-9,72,-5,72,-6,72,-4,72,-4,73,-2,73,1,72,1" fill="#ffc9a9" stroke="black" stroke-width="1.6666666666666665" stroke-linejoin="round" filter="url(#fuzzy)"></polyline><g transform="translate(36.221836422076635 -24.319096244970147)"><polyline id="rightCountour" points="-31.058866682671812,-5.69451583739937,-30.926916743339255,-5.819405249958713,-30.771035691971022,-5.9449688148496085,-30.59000603557034,-6.070842721066924,-30.382743605760623,-6.19667873956383,-30.14829377170537,-6.322143952648242,-29.88582765302828,-6.446920483379272,-29.59463833273314,-6.570705224963677,-29.274137070123857,-6.693209570152304,-28.923849513724477,-6.8141591406365425,-28.543411914199105,-6.933293516444765,-28.132567337271944,-7.050365965338785,-27.69116187664727,-7.165143172210295,-27.219140866929436,-7.277404968477324,-26.716545096542838,-7.386944061480676,-26.183507020651938,-7.493565763880386,-25.780756933384517,-7.637718267400818,-25.32083734232978,-7.777305435984076,-24.803675641330045,-7.911860016465516,-24.229629650037836,-8.040941165815688,-23.59945383776747,-8.164132870702929,-22.914266688684506,-8.281042476648919,-22.17551919060555,-8.391299323666257,-21.384964429680785,-8.494553485267012,-20.5446282732318,-8.590474607731277,-19.656781123017133,-8.67875084652474,-18.723910721197925,-8.759087896754256,-17.748695991276307,-8.831208114550435,-16.733981896278884,-8.894849726266267,-15.682755296457769,-8.949766122380758,-14.59812178878166,-8.995725232996604,-13.483283510489462,-9.032508981820904,-12.341517888978876,-9.059912815517926,-11.176157320302433,-9.077745305322896,-9.99056975854341,-9.085827817805871,-8.788140198344179,-9.083994251674653,-7.572253032859342,-9.07209083750577,-6.346275269406206,-9.049975997292538,-5.113540585085042,-9.017520260699175,-3.8773342046415484,-8.97460623491003,-2.640878582844052,-8.921128624962858,-1.4073198736478831,-8.856994301455217,-0.17971516841936186,-8.782122412512958,1.0389795145080725,-8.69644453690979,2.2459205066731958,-8.599904875226994,3.4383870504492555,-8.492460475942215,4.613791161856781,-8.374081493336384,5.7696868129543475,-8.244751474107765,6.903778451534988,-8.104467669582137,8.013928875855617,-7.953241370408086,9.098166482127164,-7.791098260626468,10.154691902492829,-7.618078788002984,11.181884051222024,-7.434238547512934,12.178305596847606,-7.239648674867103,13.142707877973809,-7.034396246967821,14.074035280482525,-6.818584686184187,14.971429093865392,-6.592334165335455,15.834230864409289,-6.3557820102716,16.661985262962673,-6.109083096940081,17.454442485010407,-5.852410239827763,18.211560200784533,-5.585954568667058,18.93350507313854,-5.30992589029524,19.620653860912725,-5.024553032555981,20.273594125518045,-4.730084167132084,20.89312455846612,-4.426787108198438,21.480254947572895,-4.114949583784181,22.035566222935756,-3.7937714178127377,22.55887721830689,-3.462251925860138,23.05025390178419,-3.1203986818667193,23.509815269973714,-2.768226960030982,23.937730973766392,-2.405760151460669,24.33421894411468,-2.0330301808238285,24.699543017809333,-1.650077922999905,25.034010563256096,-1.2569536197307887,25.337970106252406,-0.8537172962719204,25.61180895576412,-0.44043917804334587,25.855950829702188,-0.017200107280793908,26.070853480699455,0.41590804031324247,26.257006321887253,0.8587819389184386,26.41492805267221,1.3113063959455609,30.898565066928136,1.400057876046577,30.529564077410356,1.7091633887971511,30.14342715611466,2.019000146779497,29.73991316568634,2.329123072020666,29.318800144251632,2.6390582234631053,28.87988611207529,2.948305034921453,28.42298987821823,3.2563385530393294,27.947951847195043,3.562611675246109,27.454634825631672,3.8665573877137236,26.94292482892289,4.167591003313453,26.412731887889983,4.465112399572683,25.86399085543831,4.758508256631736,25.29666221321486,5.047154295200616,24.710732878265866,5.330417514515818,24.10621700969441,5.6076584302971275,23.482271288959048,5.880584278046327,22.837699748981912,6.150400421569915,22.172086671987458,6.415729869398649,21.485120571789324,6.67522437911071,20.77659404362698,6.927569005695074,20.04640344203805,7.171486610491933,19.294548380743123,7.405742314000016,18.521131048520015,7.629147875840709,17.72635533504444,7.840565985168982,16.910525760674084,8.038914444820925,16.074046204153007,8.223170232487945,15.21741842221335,8.392373422207442,14.34124035505126,8.545630949459941,13.446204211654056,8.68212020316259,12.533094328955537,8.801092427848964,11.602784798796414,8.901875919325036,10.656236856666826,8.983878997091349,9.694496026207865,9.046592736821147,8.718689013449133,9.089593446184601,7.730020344759195,9.112544867308848,6.729768742485975,9.1152000891639,5.719283232263987,9.097403153164276,4.6999789759654025,9.059090335276323,3.6733328242718644,9.00029108792111,2.6408785828440524,8.921128624962858,1.604201986065935,8.821820133072801,0.5649353723406438,8.7026765927584,-0.47524794508503376,8.564102192347825,-1.5146396177906079,8.406593318219702,-2.5515025183693343,8.230737104567911,-3.5840773191561874,8.037209525991493,-4.610589399519414,7.826773016199524,-5.629256087738678,7.600273596120824,-6.638294243492922,7.358637494708593,-7.635928186980854,7.10286724572969,-8.620397980697264,6.834037243828624,-9.58996806988806,6.55328874315613,-10.542936287707187,6.261824281852243,-11.477643231098384,5.96090151567381,-12.392482013424905,5.651826444056362,-13.285908399870168,5.335946011900249,-14.15645133163243,5.014640070370995,-15.002723844936499,4.689312680003758,-15.823434390885543,4.361382739401846,-16.617398562176056,4.0322739228192015,-17.38355123269895,3.7034039099167666,-18.120959116049967,3.376172890982681,-18.828833748972244,3.051951330906191,-19.506544905754268,2.7320669751952424,-20.153634449606166,2.417791081327638,-20.79785942373747,2.134834307315339,-21.42465352741666,1.8528070957427971,-22.033608550286772,1.5722687337037113,-22.624341550514714,1.2937741961435334,-23.19649620588831,1.0178732407886795,-23.749744164913345,0.7451095030757431,-24.28378639791068,0.4760195910807159,-24.79835454811328,0.21113218044819781,-25.29321228276332,-0.049032890679390206,-25.768156644209228,-0.30396552673258803,-26.22301940100276,-0.5531662797856822,-26.657668398996087,-0.796147254627495,-27.072008912438832,-1.032433013832165,-27.465984995075168,-1.2615614828299342,-27.839580831240873,-1.4830848549779363" fill="white" stroke="white" stroke-width="0" stroke-linejoin="round" filter="url(#fuzzy)"></polyline></g><g transform="translate(-38.243362067622684 -22.33337082547949)"><polyline id="leftCountour" points="27.598136975410906,-3.453366734720192,27.538755549025627,-3.6257490936956716,27.456915044472655,-3.7996207732951173,27.351526137593513,-3.9745574877682013,27.221609309952573,-4.150147826822973,27.06629184463645,-4.325993139921767,26.88480482205335,-4.501707420577125,26.67648011573245,-4.6769171906476945,26.440747388123203,-4.851261384634158,26.177131086394805,-5.024391233975135,25.885247438235456,-5.195970151343097,25.564801447651785,-5.365673614940281,25.21558389076819,-5.53318905279461,24.837468311626186,-5.698215727055594,24.43040801798382,-5.86046461829025,23.994433077114966,-6.019658309779013,23.677198685721855,-6.222188844693692,23.30840415108594,-6.420790846617567,22.887651109889855,-6.614797424335277,22.414908564518885,-6.803564957258837,21.89048774905199,-6.986474221150418,21.315017699662278,-7.162931423038289,20.68942152084901,-7.332369147190937,20.014893338922764,-7.494247214014514,19.292875934165696,-7.648053453738587,18.52503904308875,-7.793304396755337,17.71325832220753,-7.929545882477218,16.859594964758777,-8.056353588578173,15.966275961779214,-8.173333482483446,15.035674998968677,-8.280122196973116,14.07029398075921,-8.376387331764299,13.072745173012127,-8.461827682937258,12.045733955764717,-8.536173402070311,10.992042177448592,-8.599186086948722,9.914512102001293,-8.650658805712606,8.816030940293224,-8.690416056308887,7.699515957291516,-8.718313663112427,6.567900146382859,-8.73423861258134,5.4241184622769305,-8.738108829811614,4.271094603912451,-8.729872897856023,3.1117283387875316,-8.709509721672521,1.9488833601362492,-8.677028138567044,0.7853756683732085,-8.632466476995889,-0.37603753177199906,-8.575892065592694,-1.532668427008696,-8.507400694285097,-2.6819086927054814,-8.427116029366129,-3.8212391001552692,-8.335188984385406,-4.948238642463134,-8.231797048725213,-6.060593187635179,-8.11714357572653,-7.156103667446532,-7.991457032230034,-8.232693810666715,-7.854990211397203,-9.288417429220504,-7.708019410676551,-10.321465265862454,-7.550843576780064,-11.330171411943267,-7.3837834195349075,-12.313019303846211,-7.207180496475486,-13.268647306671667,-7.021396270040874,-14.195853893748062,-6.826811139242773,-15.093602430547335,-6.623823447668924,-15.961025571583043,-6.412848469687219,-16.797429278869394,-6.194317376715407,-17.602296470519263,-5.96867618542157,-18.375290308059427,-5.736384689720392,-19.116257131041166,-5.497915378430308,-19.825229047524413,-5.253752340456572,-20.50242618901358,-5.004390159365329,-21.148258638423332,-4.750332799213776,-21.763735905314547,-4.490833772258657,-22.349328312206477,-4.224926353165939,-22.904821949262004,-3.9527907308838546,-23.430057090597465,-3.674607185176761,-23.92492704542065,-3.390555836839458,-24.389377009168786,-3.1008163979115193,-24.82340291464661,-2.805567921891625,-25.227050283164324,-2.504988553951878,-25.6004130756756,-2.199255281152144,-25.943632543915637,-1.8885436826543782,-26.256896081539107,-1.5730276799369458,-26.540436075258235,-1.252879287008959,-26.79452875598072,-0.9282683606245987,-27.01949304994783,-0.5993623504974459,-28.648622563191118,1.0230099713590026,-28.35982326097741,1.3314010016485627,-28.049592156379372,1.6386140102423807,-27.71791629059955,1.9443350570532276,-27.364823206456737,2.248232849682876,-26.99037992023319,2.549960069319742,-26.594691893521887,2.849154696636552,-26.1779020050737,3.1454413376879917,-25.740189522644698,3.438432549808358,-25.28176907484331,3.7277301675092285,-24.802889622977577,4.012926628377093,-24.303833432902405,4.2936062989710315,-23.78491504686674,4.569346800720348,-23.24648025536084,4.839720335822243,-22.68890506896349,5.1042950131394615,-22.11084294028828,5.364415682750536,-21.510826817516204,5.621061791830121,-20.889134424101666,5.873262689858533,-20.246121862958386,6.120065626325303,-19.58222077707003,6.360538748742707,-18.897935382924718,6.593774078647455,-18.193839384450136,6.81889045569045,-17.470572775126186,7.0350364399145295,-16.72883853595204,7.241393162320254,-15.969399236944462,7.437177113819612,-15.193073549844293,7.6216428626776835,-14.400732679707957,7.794085690542156,-13.593296723060853,7.953844137160711,-12.771730960289524,8.100302443886216,-11.937042089949479,8.232892886069715,-11.090274412665531,8.35109798444113,-10.232505972301523,8.454452585577705,-9.364844662076328,8.542545801560072,-8.488424303302994,8.615022798916021,-7.604400704427894,8.671586426951809,-6.713947708046778,8.711998675571062,-5.8182532335745805,8.736081952681204,-4.918515323245874,8.743720171287368,-4.015938199122822,8.734859636373772,-3.1117283387875316,8.709509721672521,-2.207090577395662,8.667743326419767,-1.3032242437681605,8.60969710219926,-0.40131933819801624,8.535571439973163,0.4974472403511081,8.445630207400205,1.3919154099774884,8.340200226541008,2.2809455568283257,8.219670482050667,3.163422113664212,8.0844910499585,4.038257058324237,7.9351717371348744,4.904393324414834,7.772280421545238,5.7608081165454985,7.596441083391095,6.606516122434511,7.408331517238095,7.440572614207768,7.208680715231056,8.262076431213902,6.998265911495995,9.070172836678719,6.777909277829032,9.864056240522213,6.548474260772201,10.642972780661157,6.310861550176101,11.406222755120474,6.0660046693493666,12.153162897276442,5.8148651768948945,12.883208486554988,5.558427470332845,13.595835286908066,5.297693181610304,14.290581305391267,5.033675154597658,14.967048363165876,4.767390994671558,15.624903471248434,4.4998561804845245,16.26388000333081,4.23207672802107,16.883778657994288,3.9650413970403817,17.464205022788224,3.73600299839836,18.03214670482856,3.5057050099058586,18.587296803211352,3.2745679030770556,19.129348018885185,3.0430153571284895,19.657992793162343,2.811473838426911,20.172923446229905,2.580372179937125,20.673832315660956,2.3501411606698617,21.160411894925712,2.1212130851296203,21.632354971902693,1.894021362762524,22.089354767389853,1.6690000874041773,22.531105073615773,1.4465836167275126,22.957300392750785,1.227206151690654,23.36763607541813,1.0113013159847641,23.761808459205117,0.7993017354819014,24.13951500717429,0.5916386176828734" fill="white" stroke="white" stroke-width="0" stroke-linejoin="round" filter="url(#fuzzy)"></polyline></g><g transform="translate(36.221836422076635 -24.319096244970147)"><polyline id="rightUpper" points="-31.43291221091703,-4.574421359665747,-31.44127209847712,-4.6689381312616804,-31.446041815680097,-4.768683705728416,-31.444462333927078,-4.873123569282464,-31.433945820039384,-4.981741496134152,-31.41207184917866,-5.094039277884078,-31.376583617766734,-5.209536452919554,-31.32538415640569,-5.327770035811058,-31.256532542797828,-5.448294246708677,-31.16824011466563,-5.570680240738563,-31.058866682671812,-5.69451583739937,-30.926916743339255,-5.819405249958713,-30.771035691971022,-5.9449688148496085,-30.59000603557034,-6.070842721066924,-30.382743605760623,-6.19667873956383,-30.14829377170537,-6.322143952648242,-29.88582765302828,-6.446920483379272,-29.59463833273314,-6.570705224963677,-29.274137070123857,-6.693209570152304,-28.923849513724477,-6.8141591406365425,-28.543411914199105,-6.933293516444765,-28.132567337271944,-7.050365965338785,-27.69116187664727,-7.165143172210295,-27.219140866929436,-7.277404968477324,-26.716545096542838,-7.386944061480676,-26.183507020651938,-7.493565763880386,-25.780756933384517,-7.637718267400818,-25.32083734232978,-7.777305435984076,-24.803675641330045,-7.911860016465516,-24.229629650037836,-8.040941165815688,-23.59945383776747,-8.164132870702929,-22.914266688684506,-8.281042476648919,-22.17551919060555,-8.391299323666257,-21.384964429680785,-8.494553485267012,-20.5446282732318,-8.590474607731277,-19.656781123017133,-8.67875084652474,-18.723910721197925,-8.759087896754256,-17.748695991276307,-8.831208114550435,-16.733981896278884,-8.894849726266267,-15.682755296457769,-8.949766122380758,-14.59812178878166,-8.995725232996604,-13.483283510489462,-9.032508981820904,-12.341517888978876,-9.059912815517926,-11.176157320302433,-9.077745305322896,-9.99056975854341,-9.085827817805871,-8.788140198344179,-9.083994251674653,-7.572253032859342,-9.07209083750577,-6.346275269406206,-9.049975997292538,-5.113540585085042,-9.017520260699175,-3.8773342046415484,-8.97460623491003,-2.640878582844052,-8.921128624962858,-1.4073198736478831,-8.856994301455217,-0.17971516841936186,-8.782122412512958,1.0389795145080725,-8.69644453690979,2.2459205066731958,-8.599904875226994,3.4383870504492555,-8.492460475942215,4.613791161856781,-8.374081493336384,5.7696868129543475,-8.244751474107765,6.903778451534988,-8.104467669582137,8.013928875855617,-7.953241370408086,9.098166482127164,-7.791098260626468,10.154691902492829,-7.618078788002984,11.181884051222024,-7.434238547512934,12.178305596847606,-7.239648674867103,13.142707877973809,-7.034396246967821,14.074035280482525,-6.818584686184187,14.971429093865392,-6.592334165335455,15.834230864409289,-6.3557820102716,16.661985262962673,-6.109083096940081,17.454442485010407,-5.852410239827763,18.211560200784533,-5.585954568667058,18.93350507313854,-5.30992589029524,19.620653860912725,-5.024553032555981,20.273594125518045,-4.730084167132084,20.89312455846612,-4.426787108198438,21.480254947572895,-4.114949583784181,22.035566222935756,-3.7937714178127377,22.55887721830689,-3.462251925860138,23.05025390178419,-3.1203986818667193,23.509815269973714,-2.768226960030982,23.937730973766392,-2.405760151460669,24.33421894411468,-2.0330301808238285,24.699543017809333,-1.650077922999905,25.034010563256096,-1.2569536197307887,25.337970106252406,-0.8537172962719204,25.61180895576412,-0.44043917804334587,25.855950829702188,-0.017200107280793908,26.070853480699455,0.41590804031324247,26.257006321887253,0.8587819389184386,26.41492805267221,1.3113063959455609,26.545164284512907,1.7733539353853907,26.648285166696617,2.2447843811576575,26.724883012116003,2.7254444404599516,26.77556992304583,3.215167287116655,26.80097541691969,3.713772144927872,26.80174405210669,4.221063871018354,26.778533053688214,4.7368325391864206,26.73200993923455,5.260853023252877,26.66285014458169,5.792884580409955,26.571734649607976,6.332670434570232" fill="none" stroke="black" stroke-width="1.6666666666666665" stroke-linejoin="round" filter="url(#fuzzy)"></polyline><polyline id="rightLower" points="-30.482544460217966,-3.1935343077285365,-30.303826185732127,-3.068905199908583,-30.107073932027205,-2.9331767803619213,-29.891827898512524,-2.7866043975693215,-29.65768192615969,-2.6294667186462988,-29.404282146405563,-2.462064824272326,-29.13132563005515,-2.28472130362005,-28.838559036184577,-2.0977793492845054,-28.525777261043963,-1.9016018522123308,-28.192822086960405,-1.6965704966309785,-27.839580831240873,-1.4830848549779363,-27.465984995075168,-1.2615614828299342,-27.072008912438832,-1.032433013832165,-26.657668398996087,-0.796147254627495,-26.22301940100276,-0.5531662797856822,-25.768156644209228,-0.30396552673258803,-25.29321228276332,-0.049032890679390206,-24.79835454811328,0.21113218044819781,-24.28378639791068,0.4760195910807159,-23.749744164913345,0.7451095030757431,-23.19649620588831,1.0178732407886795,-22.624341550514714,1.2937741961435334,-22.033608550286772,1.5722687337037113,-21.42465352741666,1.8528070957427971,-20.79785942373747,2.134834307315339,-20.153634449606166,2.417791081327638,-19.506544905754268,2.7320669751952424,-18.828833748972244,3.051951330906191,-18.120959116049967,3.376172890982681,-17.38355123269895,3.7034039099167666,-16.617398562176056,4.0322739228192015,-15.823434390885543,4.361382739401846,-15.002723844936499,4.689312680003758,-14.15645133163243,5.014640070370995,-13.285908399870168,5.335946011900249,-12.392482013424905,5.651826444056362,-11.477643231098384,5.96090151567381,-10.542936287707187,6.261824281852243,-9.58996806988806,6.55328874315613,-8.620397980697264,6.834037243828624,-7.635928186980854,7.10286724572969,-6.638294243492922,7.358637494708593,-5.629256087738678,7.600273596120824,-4.610589399519414,7.826773016199524,-3.5840773191561874,8.037209525991493,-2.5515025183693343,8.230737104567911,-1.5146396177906079,8.406593318219702,-0.47524794508503376,8.564102192347825,0.5649353723406438,8.7026765927584,1.604201986065935,8.821820133072801,2.6408785828440524,8.921128624962858,3.6733328242718644,9.00029108792111,4.6999789759654025,9.059090335276323,5.719283232263987,9.097403153164276,6.729768742485975,9.1152000891639,7.730020344759195,9.112544867308848,8.718689013449133,9.089593446184601,9.694496026207865,9.046592736821147,10.656236856666826,8.983878997091349,11.602784798796414,8.901875919325036,12.533094328955537,8.801092427848964,13.446204211654056,8.68212020316259,14.34124035505126,8.545630949459941,15.21741842221335,8.392373422207442,16.074046204153007,8.223170232487945,16.910525760674084,8.038914444820925,17.72635533504444,7.840565985168982,18.521131048520015,7.629147875840709,19.294548380743123,7.405742314000016,20.04640344203805,7.171486610491933,20.77659404362698,6.927569005695074,21.485120571789324,6.67522437911071,22.172086671987458,6.415729869398649,22.837699748981912,6.150400421569915,23.482271288959048,5.880584278046327,24.10621700969441,5.6076584302971275,24.710732878265866,5.330417514515818,25.29666221321486,5.047154295200616,25.86399085543831,4.758508256631736,26.412731887889983,4.465112399572683,26.94292482892289,4.167591003313453,27.454634825631672,3.8665573877137236,27.947951847195043,3.562611675246109,28.42298987821823,3.2563385530393294,28.87988611207529,2.948305034921453,29.318800144251632,2.6390582234631053,29.73991316568634,2.329123072020666,30.14342715611466,2.019000146779497,30.529564077410356,1.7091633887971511,30.898565066928136,1.400057876046577,31.250689630846082,1.0920975854593493,31.586214837508052,0.7856631549688586,31.905434510766064,0.48109964555354523,32.20865842332278,0.17871430328009996,32.496211490073826,-0.12122567865332279,32.76843296145027,-0.4184953978738917,33.02567561676104,-0.7129144807908747,33.26830495753525,-1.004349320552448,33.49669840086472,-1.2927153150024604,33.71124447274633,-1.5779791046372358" fill="none" stroke="black" stroke-width="2.2222222222222223" stroke-linejoin="round" filter="url(#fuzzy)"></polyline><!--[--><circle r="4.277428113328996" cx="-6.811327218582303" cy="4.25099757537227" stroke="black" fill="none" stroke-width="1" filter="url(#fuzzy)" clip-path="url(#rightEyeClipPath)"></circle><circle r="4.425906868201155" cx="-6.000981292731414" cy="1.393855355741087" stroke="black" fill="none" stroke-width="1" filter="url(#fuzzy)" clip-path="url(#rightEyeClipPath)"></circle><circle r="3.5556215977587993" cx="-9.505012554759453" cy="6.098221789488381" stroke="black" fill="none" stroke-width="1" filter="url(#fuzzy)" clip-path="url(#rightEyeClipPath)"></circle><circle r="4.8319851947056485" cx="-5.726726283096998" cy="4.263305785737762" stroke="black" fill="none" stroke-width="1" filter="url(#fuzzy)" clip-path="url(#rightEyeClipPath)"></circle><circle r="3.8805851167765857" cx="-6.6085608043580635" cy="4.4409253971894245" stroke="black" fill="none" stroke-width="1" filter="url(#fuzzy)" clip-path="url(#rightEyeClipPath)"></circle><circle r="4.310207410529274" cx="-9.531518250230448" cy="3.6491306295760637" stroke="black" fill="none" stroke-width="1" filter="url(#fuzzy)" clip-path="url(#rightEyeClipPath)"></circle><circle r="4.238401020038568" cx="-8.791674513174389" cy="6.115776603533842" stroke="black" fill="none" stroke-width="1" filter="url(#fuzzy)" clip-path="url(#rightEyeClipPath)"></circle><circle r="4.726995305882892" cx="-8.176417278314606" cy="5.702274585088505" stroke="black" fill="none" stroke-width="1" filter="url(#fuzzy)" clip-path="url(#rightEyeClipPath)"></circle><circle r="4.663286926003616" cx="-5.335373370559623" cy="2.1476304236479447" stroke="black" fill="none" stroke-width="1" filter="url(#fuzzy)" clip-path="url(#rightEyeClipPath)"></circle><circle r="4.229649097308052" cx="-8.664294516718947" cy="5.790854013820448" stroke="black" fill="none" stroke-width="1" filter="url(#fuzzy)" clip-path="url(#rightEyeClipPath)"></circle><!--]--></g><g transform="translate(-38.243362067622684 -22.33337082547949)"><polyline id="leftUpper" points="27.280878756433207,-1.9142362366754064,27.359870020521793,-2.0454743438786376,27.43399568692539,-2.183178234318846,27.50090314322183,-2.326788503937173,27.558379624718132,-2.4757597811740064,27.60434921024994,-2.629560611264891,27.636869817980863,-2.7876733405364416,27.654130201201834,-2.9495940007022563,27.654446944130488,-3.114832193158829,27.63626145771047,-3.2829109732814654,27.598136975410906,-3.453366734720192,27.538755549025627,-3.6257490936956716,27.456915044472655,-3.7996207732951173,27.351526137593513,-3.9745574877682013,27.221609309952573,-4.150147826822973,27.06629184463645,-4.325993139921767,26.88480482205335,-4.501707420577125,26.67648011573245,-4.6769171906476945,26.440747388123203,-4.851261384634158,26.177131086394805,-5.024391233975135,25.885247438235456,-5.195970151343097,25.564801447651785,-5.365673614940281,25.21558389076819,-5.53318905279461,24.837468311626186,-5.698215727055594,24.43040801798382,-5.86046461829025,23.994433077114966,-6.019658309779013,23.677198685721855,-6.222188844693692,23.30840415108594,-6.420790846617567,22.887651109889855,-6.614797424335277,22.414908564518885,-6.803564957258837,21.89048774905199,-6.986474221150418,21.315017699662278,-7.162931423038289,20.68942152084901,-7.332369147190937,20.014893338922764,-7.494247214014514,19.292875934165696,-7.648053453738587,18.52503904308875,-7.793304396755337,17.71325832220753,-7.929545882477218,16.859594964758777,-8.056353588578173,15.966275961779214,-8.173333482483446,15.035674998968677,-8.280122196973116,14.07029398075921,-8.376387331764299,13.072745173012127,-8.461827682937258,12.045733955764717,-8.536173402070311,10.992042177448592,-8.599186086948722,9.914512102001293,-8.650658805712606,8.816030940293224,-8.690416056308887,7.699515957291516,-8.718313663112427,6.567900146382859,-8.73423861258134,5.4241184622769305,-8.738108829811614,4.271094603912451,-8.729872897856023,3.1117283387875316,-8.709509721672521,1.9488833601362492,-8.677028138567044,0.7853756683732085,-8.632466476995889,-0.37603753177199906,-8.575892065592694,-1.532668427008696,-8.507400694285097,-2.6819086927054814,-8.427116029366129,-3.8212391001552692,-8.335188984385406,-4.948238642463134,-8.231797048725213,-6.060593187635179,-8.11714357572653,-7.156103667446532,-7.991457032230034,-8.232693810666715,-7.854990211397203,-9.288417429220504,-7.708019410676551,-10.321465265862454,-7.550843576780064,-11.330171411943267,-7.3837834195349075,-12.313019303846211,-7.207180496475486,-13.268647306671667,-7.021396270040874,-14.195853893748062,-6.826811139242773,-15.093602430547335,-6.623823447668924,-15.961025571583043,-6.412848469687219,-16.797429278869394,-6.194317376715407,-17.602296470519263,-5.96867618542157,-18.375290308059427,-5.736384689720392,-19.116257131041166,-5.497915378430308,-19.825229047524413,-5.253752340456572,-20.50242618901358,-5.004390159365329,-21.148258638423332,-4.750332799213776,-21.763735905314547,-4.490833772258657,-22.349328312206477,-4.224926353165939,-22.904821949262004,-3.9527907308838546,-23.430057090597465,-3.674607185176761,-23.92492704542065,-3.390555836839458,-24.389377009168786,-3.1008163979115193,-24.82340291464661,-2.805567921891625,-25.227050283164324,-2.504988553951878,-25.6004130756756,-2.199255281152144,-25.943632543915637,-1.8885436826543782,-26.256896081539107,-1.5730276799369458,-26.540436075258235,-1.252879287008959,-26.79452875598072,-0.9282683606245987,-27.01949304994783,-0.5993623504974459,-27.21568942987236,-0.2663260495148092,-27.38351876607665,0.07067865604794643,-27.523421177630603,0.4114930363130753,-27.635874883489677,0.7559617675861139,-27.721395053632907,1.1039331821415619,-27.780532660200922,1.455259518008555,-27.813873328633928,1.8097971687565284,-27.822036188809733,2.1674069332808896,-27.805672726181747,2.5279542655886975,-27.765465632917014,2.891309524584327" fill="none" stroke="black" stroke-width="2.2222222222222223" stroke-linejoin="round" filter="url(#fuzzy)"></polyline><polyline id="leftLower" points="26.945483404762864,-1.1534775422604104,26.748728106506913,-1.012282727584302,26.532573976649996,-0.8626099070872634,26.297304679263807,-0.704852974189552,26.04320638900681,-0.5394114462041375,25.770567652613078,-0.3666900437845557,25.47967925038117,-0.18709827037276305,25.17083405766294,-0.0010499916469892678,24.844326906352396,0.191036985030407,24.50045444637456,0.38874133116508647,24.13951500717429,0.5916386176828734,23.761808459205117,0.7993017354819014,23.36763607541813,1.0113013159847641,22.957300392750785,1.227206151690654,22.531105073615773,1.4465836167275126,22.089354767389853,1.6690000874041773,21.632354971902693,1.894021362762524,21.160411894925712,2.1212130851296203,20.673832315660956,2.3501411606698617,20.172923446229905,2.580372179937125,19.657992793162343,2.811473838426911,19.129348018885185,3.0430153571284895,18.587296803211352,3.2745679030770556,18.03214670482856,3.5057050099058586,17.464205022788224,3.73600299839836,16.883778657994288,3.9650413970403817,16.26388000333081,4.23207672802107,15.624903471248434,4.4998561804845245,14.967048363165876,4.767390994671558,14.290581305391267,5.033675154597658,13.595835286908066,5.297693181610304,12.883208486554988,5.558427470332845,12.153162897276442,5.8148651768948945,11.406222755120474,6.0660046693493666,10.642972780661157,6.310861550176101,9.864056240522213,6.548474260772201,9.070172836678719,6.777909277829032,8.262076431213902,6.998265911495995,7.440572614207768,7.208680715231056,6.606516122434511,7.408331517238095,5.7608081165454985,7.596441083391095,4.904393324414834,7.772280421545238,4.038257058324237,7.9351717371348744,3.163422113664212,8.0844910499585,2.2809455568283257,8.219670482050667,1.3919154099774884,8.340200226541008,0.4974472403511081,8.445630207400205,-0.40131933819801624,8.535571439973163,-1.3032242437681605,8.60969710219926,-2.207090577395662,8.667743326419767,-3.1117283387875316,8.709509721672521,-4.015938199122822,8.734859636373772,-4.918515323245874,8.743720171287368,-5.8182532335745805,8.736081952681204,-6.713947708046778,8.711998675571062,-7.604400704427894,8.671586426951809,-8.488424303302994,8.615022798916021,-9.364844662076328,8.542545801560072,-10.232505972301523,8.454452585577705,-11.090274412665531,8.35109798444113,-11.937042089949479,8.232892886069715,-12.771730960289524,8.100302443886216,-13.593296723060853,7.953844137160711,-14.400732679707957,7.794085690542156,-15.193073549844293,7.6216428626776835,-15.969399236944462,7.437177113819612,-16.72883853595204,7.241393162320254,-17.470572775126186,7.0350364399145295,-18.193839384450136,6.81889045569045,-18.897935382924718,6.593774078647455,-19.58222077707003,6.360538748742707,-20.246121862958386,6.120065626325303,-20.889134424101666,5.873262689858533,-21.510826817516204,5.621061791830121,-22.11084294028828,5.364415682750536,-22.68890506896349,5.1042950131394615,-23.24648025536084,4.839720335822243,-23.78491504686674,4.569346800720348,-24.303833432902405,4.2936062989710315,-24.802889622977577,4.012926628377093,-25.28176907484331,3.7277301675092285,-25.740189522644698,3.438432549808358,-26.1779020050737,3.1454413376879917,-26.594691893521887,2.849154696636552,-26.99037992023319,2.549960069319742,-27.364823206456737,2.248232849682876,-27.71791629059955,1.9443350570532276,-28.049592156379372,1.6386140102423807,-28.35982326097741,1.3314010016485627,-28.648622563191118,1.0230099713590026,-28.916044551586978,0.7137361812522678,-29.16218627265325,0.4038548891006086,-29.387188358952763,0.09362002267231029,-29.591236057275676,-0.21673714616596373,-29.774560256792267,-0.5270093273468335,-29.937438517205678,-0.8370145384998537,-30.080196096904704,-1.1465974308491629,-30.20320698111657,-1.4556306151111467,-30.306894910059693,-1.7640159873920849,-30.391734407096457,-2.071686055085814" fill="none" stroke="black" stroke-width="2.2222222222222223" stroke-linejoin="round" filter="url(#fuzzy)"></polyline><!--[--><circle r="3.804903146943661" cx="9.080387485556699" cy="1.5776763753321834" stroke="black" fill="none" stroke-width="1" filter="url(#fuzzy)" clip-path="url(#leftEyeClipPath)"></circle><circle r="3.4836939858677036" cx="7.884856423153424" cy="-0.421102898218062" stroke="black" fill="none" stroke-width="1" filter="url(#fuzzy)" clip-path="url(#leftEyeClipPath)"></circle><circle r="4.8420452768491025" cx="5.664277057795264" cy="-1.7475149731415027" stroke="black" fill="none" stroke-width="1" filter="url(#fuzzy)" clip-path="url(#leftEyeClipPath)"></circle><circle r="3.439755896985203" cx="7.553888248488484" cy="2.2122636357891547" stroke="black" fill="none" stroke-width="1" filter="url(#fuzzy)" clip-path="url(#leftEyeClipPath)"></circle><circle r="4.2610436306950294" cx="8.068915828295314" cy="1.021819315151662" stroke="black" fill="none" stroke-width="1" filter="url(#fuzzy)" clip-path="url(#leftEyeClipPath)"></circle><circle r="4.371833683016016" cx="7.4791890884956835" cy="1.2066627205234401" stroke="black" fill="none" stroke-width="1" filter="url(#fuzzy)" clip-path="url(#leftEyeClipPath)"></circle><circle r="3.2593184609037458" cx="8.241981743658998" cy="2.362914435153579" stroke="black" fill="none" stroke-width="1" filter="url(#fuzzy)" clip-path="url(#leftEyeClipPath)"></circle><circle r="3.916407820716623" cx="6.398155308830102" cy="1.5159835727677944" stroke="black" fill="none" stroke-width="1" filter="url(#fuzzy)" clip-path="url(#leftEyeClipPath)"></circle><circle r="4.42967337296799" cx="4.78508529438505" cy="-1.0490954325160131" stroke="black" fill="none" stroke-width="1" filter="url(#fuzzy)" clip-path="url(#leftEyeClipPath)"></circle><circle r="3.973560107912642" cx="6.220779328846035" cy="1.6902416505149347" stroke="black" fill="none" stroke-width="1" filter="url(#fuzzy)" clip-path="url(#leftEyeClipPath)"></circle><!--]--></g><g id="hairs"><!--[--><polyline points="16,-83,16.481482224144905,-82.92163206996463,16.85614659651742,-82.59967893721793,17.361496350916305,-82.15430026544004,17.82185127214379,-81.73234266163992,18.11694635531322,-81.37545970180376,18.239911280367313,-81.04935715093168,18.21396540457167,-80.70945228395048,18.018366427246885,-80.34117807691156,17.579741352051496,-79.96287238080272,16.811307581882126,-79.60609323031801,15.65453248744921,-79.29407831494406,14.092062926996803,-79.03125605952935,12.131595458097976,-78.80487049038469,9.78093980983252,-78.59250052663765,7.033602040840554,-78.37012334975057,3.8692057724877547,-78.12063447804476,0.25991105673483084,-77.84415101527361,-3.827088046237476,-77.56460340840037,-8.431898781792194,-77.31938615921784,-13.599573386397925,-77.12737332504271,-19.35580056413732,-76.9666400504346,-25.627050537825514,-76.83943426865592" fill="none" stroke="rgb(145, 85, 61)" stroke-width="2" stroke-linejoin="round" filter="url(#fuzzy)"></polyline><polyline points="0,-85,1.3101970368405058,-84.99599722333447,2.1568979066443577,-84.98637095424606,3.1274241758816115,-84.97146207084289,4.302253958330616,-84.94813362663498,5.556320402360066,-84.90957116506338,6.755028654004506,-84.84475790282005,7.813579711906158,-84.74417029905852,8.684851889380573,-84.60947089355888,9.336394002623154,-84.45817889801874,9.742593574307518,-84.3174413200248,9.889314707495279,-84.2101345694731,9.775563632624152,-84.14330539578987,9.40066215154253,-84.10765504505638,8.74269995769409,-84.08825777547057,7.753179518983224,-84.078351455453,6.392455915778479,-84.08812296644672,4.693787378327819,-84.1492971809722,2.783892769828006,-84.32175294157351,0.761466303629561,-84.692943823984,-1.584419629096063,-85.31932177123639" fill="none" stroke="rgb(145, 85, 61)" stroke-width="2" stroke-linejoin="round" filter="url(#fuzzy)"></polyline><polyline points="56,-52,56.66851145842977,-50.50139231564471,57.14994933166955,-49.46509411825635,57.58576298774124,-48.55608128627426,57.895899202703696,-47.78653191260062,57.9914292556663,-47.26673501348692,57.83556824801625,-47.04119101853062,57.44047301203899,-47.07362796862478,56.84038973918803,-47.298623528999144,56.062060378297346,-47.670924110668324,55.104120028959755,-48.187224429973774,53.93166189642012,-48.88418464846117,52.48780333194071,-49.82295706677288,50.718144624432924,-51.066757276778645,48.59592468487416,-52.657894093801865,46.13107601770749,-54.60556461086881,43.353608328598035,-56.895497613675204,40.281526173148904,-59.519084120894284,36.901694232123994,-62.49933958560439,33.185826403514405,-65.88366665479427,29.12061823997937,-69.69802339185217,24.66898306610705,-73.91635731723245,19.560931535631866,-78.56184259607407" fill="none" stroke="rgb(145, 85, 61)" stroke-width="2" stroke-linejoin="round" filter="url(#fuzzy)"></polyline><polyline points="-3,-85,-3.184344134466663,-84.99541820180083,-2.3159706079002147,-84.98196503235637,-1.1900011521135647,-84.95530094195647,-0.28121481459110087,-84.90985535274959,0.30000220133342737,-84.84060500205533,0.6091792107071246,-84.73953447330129,0.6969020594334241,-84.59285629955194,0.5492996980170544,-84.38122232888391,0.1069195808044956,-84.08334321325346,-0.6979265213012695,-83.68306159973145,-1.9205525057930615,-83.17734025198253,-3.602269990500779,-82.57920338185481,-5.773209516891935,-81.91045082592174,-8.447676001438223,-81.18630342087297,-11.613295765817838,-80.40318790872834,-15.229014727322525,-79.54211290699038,-19.25433060196752,-78.58805409990886,-23.72153903970907,-77.54563403094156,-28.82241094541802,-76.41034598524227" fill="none" stroke="rgb(145, 85, 61)" stroke-width="2" stroke-linejoin="round" filter="url(#fuzzy)"></polyline><polyline points="2,-85,3.7741740955264156,-85.00242467754566,5.1679487125884265,-84.99835625428759,6.173247294043847,-84.95663569725887,6.865627341628224,-84.84555858550299,7.271533051989726,-84.66124187039335,7.359125306033525,-84.43317193344849,7.076423846206732,-84.20276824667792,6.387077724584698,-83.99566032336804,5.284360510628433,-83.80994437797472,3.778968597566063,-83.6273464905769,1.8662546362531236,-83.43355584143157,-0.5054545832746546,-83.2248111226786,-3.4307091326337034,-82.99530131172668,-6.983697980713558,-82.73642498579437,-11.127930084584595,-82.48274815406427,-15.739610354690754,-82.32272215146487" fill="none" stroke="rgb(145, 85, 61)" stroke-width="2" stroke-linejoin="round" filter="url(#fuzzy)"></polyline><polyline points="55,-53,55.7464204215874,-51.875879909251864,56.032977325238996,-50.833286427408865,55.95221676179153,-50.00577429078515,55.54669987284339,-49.35276620165529,54.77571134123621,-48.90408068477875,53.57509493115856,-48.726922836684935,51.90456871888349,-48.84951045933664,49.762442029142264,-49.24051160611762,47.17296309986569,-49.83738626750795,44.1612646794263,-50.58493761970241,40.732017397880554,-51.458505034446716,36.86106433797726,-52.46839312508982,32.5007103558103,-53.65282715881966,27.59461547481608,-55.06468152066668,22.096342015790974,-56.75286810209703,15.98325211214776,-58.74153800799449,9.257152792889158,-61.0175951825111,1.9314241114533885,-63.540177208393914,-5.980285644189106,-66.27807955196755,-14.45368687692296,-69.25912646596188,-23.437247348050494,-72.55763996980727" fill="none" stroke="rgb(145, 85, 61)" stroke-width="2" stroke-linejoin="round" filter="url(#fuzzy)"></polyline><polyline points="51,-58,51.931326733844635,-56.74344829529724,51.50018958410536,-56.13634415900625,50.09794109863366,-55.85839767582806,47.912304588475685,-55.7701496726497,44.97671234935645,-55.80163922357761,41.20801225887579,-55.96388162785772,36.490605923061715,-56.315432875910815,30.742533350274876,-56.91108890446678,23.92581853096182,-57.78193913025004,16.019203111893244,-58.958919495865906,6.996466868398489,-60.5035486061735,-3.1720076955418754,-62.48375283431506,-14.517645545720443,-64.8766685642244,-27.02065261174228,-67.563173125511" fill="none" stroke="rgb(145, 85, 61)" stroke-width="2" stroke-linejoin="round" filter="url(#fuzzy)"></polyline><polyline points="0,-85,1.378861736232509,-84.93820225711573,2.436586058176708,-84.75947161018831,3.767873686433629,-84.47588803233499,5.449607445779528,-84.09275132864367,7.368238025249927,-83.60375989494146,9.410068035681288,-82.99723097175684,11.508581357880047,-82.26912172950813,13.6293722649766,-81.4329814249955,15.750943521834088,-80.51958790359595,17.85873687269118,-79.56696588769384,19.945706043925284,-78.60783911142765,22.00928708910942,-77.66199088096619,24.042989247139502,-76.73631110404234,26.029666687076464,-75.83003553481223,27.944073929415783,-74.94112001396063,29.763310004158043,-74.07207441483386,31.473754411980213,-73.2357806624735,33.06440540680207,-72.4598080273211,34.511927282194,-71.7836192500962,35.77684077753023,-71.24521333341244,36.82110390459784,-70.86468147781872,37.63022352158291,-70.6305213814459,38.24538085616621,-70.44837015095216" fill="none" stroke="rgb(145, 85, 61)" stroke-width="2" stroke-linejoin="round" filter="url(#fuzzy)"></polyline><polyline points="0,-85,1.178946673199732,-84.98052452964659,1.633663817523747,-84.91473557129554,1.939268582844845,-84.79056165571598,2.179352731373959,-84.59518383857704,2.2252977365990634,-84.30892815840072,1.9320307648124082,-83.90337151304706,1.2058643993923743,-83.34995555575634,-0.0031415011092761347,-82.63489453504174,-1.7261409759521484,-81.76928329467773,-3.987434358570849,-80.7843129320929,-6.8018458716827706,-79.70987569842247,-10.172064489513009,-78.54712518228912,-14.100238698089765,-77.25563998005535,-18.61351927666668,-75.77277052049413,-23.780038188531382,-74.05953597783747,-29.668597873794628,-72.15027885178397,-36.20325493807448,-70.24476867356245" fill="none" stroke="rgb(145, 85, 61)" stroke-width="2" stroke-linejoin="round" filter="url(#fuzzy)"></polyline><polyline points="-15,-84,-15.93561353300281,-83.43432562886,-15.719915707155916,-83.4127093160561,-15.056505947983133,-83.61624174071602,-14.333347392190054,-83.83455131544005,-13.755833860106321,-83.95066359848938,-13.418224860613828,-83.91363022244775,-13.35739741947316,-83.7168610486926,-13.585063075867023,-83.374376384598,-14.107849746608366,-82.89774804368108,-14.946678357029414,-82.28208351483599,-16.14978923628125,-81.50745143227064,-17.782500712142337,-80.55414238785518,-19.891033740424184,-79.41880708807668,-22.46898480785945,-78.11314536174503,-25.470070048792792,-76.63968843267395,-28.881107493360783,-74.9662848328027,-32.808556065076154,-73.0246997677122,-37.48812740292674,-70.71332991656774" fill="none" stroke="rgb(145, 85, 61)" stroke-width="2" stroke-linejoin="round" filter="url(#fuzzy)"></polyline><polyline points="23,-80,24.67214208191947,-79.1553418437931,25.691622876495856,-78.60997563478497,26.16202170779466,-78.29835521438523,26.313662524335086,-78.10865947260754,26.234130031274965,-78.00142183446215,25.88048007728524,-77.97855337473186,25.177855313000137,-78.03517227771118,24.078689575195312,-78.15546417236328,22.5552038310775,-78.33965683019835,20.557656719690165,-78.62365230393462,17.988987794668066,-79.07122924582549,14.742234327364713,-79.74775514373323,10.81239843626744,-80.6989784211507,6.403525896682742,-81.95991457128879,1.8293693853833766,-83.6232940497949" fill="none" stroke="rgb(145, 85, 61)" stroke-width="2" stroke-linejoin="round" filter="url(#fuzzy)"></polyline><polyline points="-5,-86,-3.6809303560723956,-85.69670707754631,-2.8582975339539605,-85.20552031941892,-1.7662213641597444,-84.74323584625714,-0.17173049243042837,-84.31228325507864,1.7999991615425617,-83.87916785307125,3.949521176780501,-83.42262958299949,6.158799533638786,-82.93691401505674,8.400599213619584,-82.42320850331208,10.682066977156948,-81.8810456571599,12.99760072928015,-81.30415878484092,15.316794404432027,-80.68302742486148,17.594348519763024,-80.01354277196889,19.781389289754184,-79.3072149969092,21.830500286437918,-78.5964673070068,23.698268906862193,-77.9311500940901,25.349781067969325,-77.36721053722587,26.76629426042908,-76.95119927530759,27.954146800499487,-76.70571304493038,28.92601652097439,-76.62759177580598,29.540254898438246,-76.71604775401265" fill="none" stroke="rgb(145, 85, 61)" stroke-width="2" stroke-linejoin="round" filter="url(#fuzzy)"></polyline><polyline points="-41,-70,-39.009381336192774,-71.60579873980413,-37.362206710461706,-72.08435185011857,-35.253724111518395,-72.38725866625607,-32.59384793341624,-72.71960919339156,-29.45236334068589,-73.05549898110007,-25.903692618934638,-73.34102169800323,-22.004564938826633,-73.54451003280401,-17.79006661361698,-73.66090908016693,-13.274057388305664,-73.7054672241211,-8.462385865094364,-73.70137439167661,-3.372421181178286,-73.66452365214796,1.959023510326869,-73.59264921066166,7.489320337675672,-73.46420470413837,13.192814558226205,-73.24793963320721,19.058081386465215,-72.92481457318706,25.020778598282202,-72.52536253430006,30.833128530784307,-72.16559809975605" fill="none" stroke="rgb(145, 85, 61)" stroke-width="2" stroke-linejoin="round" filter="url(#fuzzy)"></polyline><polyline points="-33,-76,-32.483651873283655,-76.23453153940923,-31.182926288245156,-76.63210587867474,-29.214763202592344,-77.05397647919334,-26.675382397946237,-77.45455308527738,-23.685015758013527,-77.79933412196868,-20.35395579701286,-78.089370995195,-16.766966630524955,-78.35527291660017,-12.982554932689236,-78.62201716935547,-9.039041099948864,-78.88303664425317,-4.963616201782852,-79.10369858464313,-0.7815066407260751,-79.24645935475743,3.479350927989966,-79.29608137461759,7.798652348621831,-79.26541291639849,12.192621858289879,-79.17725705426653,16.708293020592784,-79.04630096574576,21.234844814813073,-78.91598588945203" fill="none" stroke="rgb(145, 85, 61)" stroke-width="2" stroke-linejoin="round" filter="url(#fuzzy)"></polyline><polyline points="20,-81,21.33754637861355,-80.6307073138273,23.071400919285093,-79.8509047866518,24.780616624319507,-78.98649614061219,26.274650340541463,-78.179995245916,27.561946528849145,-77.45355639126434,28.72814875867724,-76.78634125997864,29.837791818172413,-76.15894464285621,30.908762713647672,-75.55795074368416,31.931915622615016,-74.96852162486978,32.89138774015409,-74.37864655534024,33.76653863069875,-73.79449837097008,34.52370184893939,-73.25098028935646,35.11323105800477,-72.80617083002933,35.477477730315485,-72.52371504868772,35.56319648246557,-72.45690784821133,35.32983468553702,-72.64356941402909,34.75396822250314,-73.106314734871,33.838309755750096,-73.84075471983076,32.63712795111691,-74.77331756241891,31.368072072190504,-75.67513152217386" fill="none" stroke="rgb(145, 85, 61)" stroke-width="2" stroke-linejoin="round" filter="url(#fuzzy)"></polyline><polyline points="48,-62,48.826418898342496,-60.88717472870101,49.41273437190281,-59.91118491225169,49.929912984709276,-59.20478209211394,50.40215451678321,-58.6798894399156,50.76420819460272,-58.27260291985502,50.955282727027544,-57.977259692095515,50.948195753164136,-57.817529172236156,50.743018784965145,-57.81636628050239,50.3450709423478,-57.98754988758211,49.741470148019744,-58.347424860711875,48.89075949523631,-58.931866965271084,47.73279444577285,-59.80135421605634,46.212160745380935,-61.026653593476674,44.29808007897165,-62.66345652131618,41.98637406330988,-64.73351139059699,39.287192217066874,-67.22056835800319,36.216806094646515,-70.07272481197808,32.726284978227596,-73.24171047483655" fill="none" stroke="rgb(145, 85, 61)" stroke-width="2" stroke-linejoin="round" filter="url(#fuzzy)"></polyline><polyline points="53,-55,54.52744172847387,-53.39981686526849,55.506711965128495,-52.127087751265684,56.120112787501704,-51.10323952949454,56.49332560881426,-50.30837085626633,56.679783433700635,-49.72527403995975,56.664879548380625,-49.3838674840564,56.40089671670872,-49.34815526061543,55.844228573813254,-49.66722185633557,54.97612098631339,-50.34603556569512,53.80147325235861,-51.357568816315506,52.33193134132477,-52.67810992743827,50.56766389421794,-54.313556291077454,48.49031931515874,-56.298936684396686,46.06770551961925,-58.678900452409536,43.26123693903337,-61.48962336820081,40.02853439635888,-64.75502609092577,36.308117105084946,-68.50558256345207,31.96788343790936,-72.84578264341137" fill="none" stroke="rgb(145, 85, 61)" stroke-width="2" stroke-linejoin="round" filter="url(#fuzzy)"></polyline><polyline points="16,-83,17.632977995533928,-82.12331869741325,18.907183935176832,-81.51574048669202,19.894067253100676,-81.13313296519983,20.75293619996416,-80.82562080645907,21.62542123194336,-80.48645618428745,22.514681178017604,-80.10126601659081,23.302809059637237,-79.72848927575568,23.84607166818069,-79.44688397498194,24.055992126464844,-79.30972099304199,23.915110239166438,-79.3302628857425,23.437980452600648,-79.49552615475562,22.628553662615747,-79.78523060078356,21.474165281620735,-80.17848843704118,19.96319739904897,-80.65869210662268,18.078121859315665,-81.2435298148093,15.757319426898944,-82.03250990836116,12.869744655932971,-83.20399823673509" fill="none" stroke="rgb(145, 85, 61)" stroke-width="2" stroke-linejoin="round" filter="url(#fuzzy)"></polyline><polyline points="-35,-75,-33.4737189475109,-75.69109869415934,-32.06766748998958,-76.21167806442409,-30.350900742662386,-76.73553460530667,-28.196894673869036,-77.29308219698366,-25.635793374637764,-77.87212038139639,-22.76181255391163,-78.44927989841088,-19.666726465163652,-79.01191221003793,-16.41490580779943,-79.56255525483236,-13.052289277449153,-80.10929613088157,-9.623415379639582,-80.6568464844568,-6.172822637084872,-81.2046949219309,-2.7307737165113473,-81.74576969084407,0.6860319761126625,-82.26198825201632,4.026979983023523,-82.73124453539639,7.152274637545354,-83.16309288751935,9.956871717198581,-83.61903261175102" fill="none" stroke="rgb(145, 85, 61)" stroke-width="2" stroke-linejoin="round" filter="url(#fuzzy)"></polyline><polyline points="63,-39,64.00377993402438,-36.68876968140875,64.2272353474568,-35.74845001064174,64.37009575330214,-35.07515529935973,64.5801443854925,-34.39454469271566,64.83037901858428,-33.71185539520407,65.05558110727212,-33.103648726376086,65.19624707279847,-32.63595436625938,65.20933321329336,-32.35100167519201,65.06499230167528,-32.28534757044438,64.74031372474444,-32.48375229057972,64.21738862991333,-32.994770884513855,63.4858597965041,-33.85895106924578,62.54406363803055,-35.10623502380943,61.39319031226664,-36.76491410289501,60.02576960621606,-38.86813428286892,58.41802268954237,-41.44379531957547,56.53728974676113,-44.492701022843995,54.365372045088144,-47.98192277354963,51.919296787613426,-51.88181394288615,49.23634091372516,-56.24493691628102,46.30205278770019,-61.2600465774365" fill="none" stroke="rgb(145, 85, 61)" stroke-width="2" stroke-linejoin="round" filter="url(#fuzzy)"></polyline><polyline points="-3,-86,-6.312477154513576,-85.35552680645355,-8.825699419882648,-84.97250697811641,-11.078642480005087,-84.57185698965748,-13.222312461282955,-84.11297592572808,-15.340270712471472,-83.60419278064491,-17.510746019858523,-83.04114584314473,-19.783499103951403,-82.41116412591771,-22.167121294291217,-81.70498644671324,-24.644084076473955,-80.91994864008025,-27.198789051292177,-80.05771654002872,-29.836897256720444,-79.12157637126089,-32.58257969850876,-78.11542602579412,-35.45740453553639,-77.04393905489226,-38.4580259527232,-75.91227513306981,-41.549027465435124,-74.72441613344654,-44.673475222615885,-73.48088363843775,-47.76991917637827,-72.17765086877625,-50.7836265915514,-70.80744288503135,-53.671871747890876,-69.36282727654833,-56.41444968631194,-67.83913996025353,-59.036741002187654,-66.23550003405342,-61.63409337608141,-64.55352842867093,-64.37094355041702,-62.79453437577813,-67.43544085644092,-60.956228374085434,-70.96013600488573,-59.03033558982651,-74.9475438966425,-57.00387285539481,-79.24063338547,-54.86813232422314,-83.55548858370398,-52.636573979066554,-87.57760949385127,-50.362472387174314,-91.1261482033666,-48.133326194990154,-94.35396967974977,-46.019710002253824,-97.80391912671503,-44.00126684027401,-102.02026946609098,-41.98570385295658,-106.70475608853991,-40" fill="none" stroke="rgb(145, 85, 61)" stroke-width="2" stroke-linejoin="round" filter="url(#fuzzy)"></polyline><polyline points="-3,-86,-6.0498086332633285,-85.35524796674407,-8.576189674903896,-84.9717853289576,-11.193179317175572,-84.57049052340393,-13.85924723148962,-84.11094342641479,-16.452158266792612,-83.60124629030767,-19.005847649720753,-83.03691462941997,-21.68351290935431,-82.40537262896285,-24.640975012539123,-81.69749314391841,-27.918881150827435,-80.91066713161887,-31.428094955836077,-80.04655954818887,-35.01677142882778,-79.1084780625797,-38.561231552932874,-78.1003808993882,-42.020736346727574,-77.02694886955832,-45.42968503609838,-75.89318233610993,-48.84242640174333,-74.70275564094602,-52.2702656647189,-73.45593183823033,-55.64846771067104,-72.14870132565186,-58.8506143338631,-70.77411837865233,-61.74279855105935,-69.32517428688604,-64.25261950845659,-67.79741401054511,-66.42316144921872,-66.18976399999927,-68.42921964623787,-64.50325950426127,-70.54691009566365,-62.73843567374728,-73.0825229203941,-60.892598082154485,-76.27881637483355,-58.95856035991764,-80.22730788430003,-56.927157992150924,-84.82328663227295,-54.79573805082166,-89.79893069450728,-52.58139713649974,-94.84519065512038,-50.330247024407925,-99.77876163979289,-48.10740837994977,-104.64779297723506,-45.957913910161004,-109.65425387624256,-43.854381859952014,-114.88032048411581,-41.674501474203865,-120.15035817799478,-39.207160302989024,-126.25498785554173,-36" fill="none" stroke="rgb(145, 85, 61)" stroke-width="2" stroke-linejoin="round" filter="url(#fuzzy)"></polyline><polyline points="-9,-85,-10.42623317682458,-84.91160917611673,-12.603458258773507,-84.56112303909086,-15.125261570707615,-84.06534776942512,-17.604874393534995,-83.53352818237275,-19.88392802477331,-82.968011636734,-22.0309996293255,-82.32224745178613,-24.235698713727132,-81.56086499602452,-26.676965371091647,-80.67933085255916,-29.415266732947124,-79.69503902259721,-32.353415689002844,-78.63102892592356,-35.280974484847476,-77.50493105697952,-37.972122993751675,-76.32607276829337,-40.28183091933966,-75.09824072116687,-42.194914925060395,-73.82401506454063,-43.81443888489945,-72.50738141574112,-45.307224241844146,-71.15326626669756,-46.83906688788536,-69.76465528355055,-48.5277795934666,-68.33918265221291,-50.42603369067324,-66.86721327272696,-52.52964617453272,-65.33272594806671,-54.799014125249045,-63.71714924084671,-57.18321964268816,-62.00499052770771,-59.64229313364334,-60.18899732819485,-62.165547074451915,-58.272379725016116,-64.78002118564497,-56.26690030082306,-67.53875368989995,-54.18795558738226,-70.48401169692806,-52.04931273708143,-73.59925670870625,-49.859186291990206,-76.78306952614385,-47.61665751182819,-79.87472071694934,-45.30696068406676,-82.72175518937571,-42.898945720357915,-85.22980085379619,-40.35406901187734,-87.33760943994098,-37.65210897821298,-88.96852070545532,-34.818145410394806,-90.1900517366445,-31.916246479125597,-92.02626125914723,-29" fill="none" stroke="rgb(145, 85, 61)" stroke-width="2" stroke-linejoin="round" filter="url(#fuzzy)"></polyline><polyline points="-9,-85,-10.401016038692491,-84.9119191218396,-12.363111740843504,-84.56208843633004,-14.48833137674587,-84.06671660358492,-16.606533623527735,-83.53552779090725,-18.725054326503624,-82.97138236291738,-20.903512160808095,-82.32754899750921,-23.17802492329572,-81.56811445077713,-25.54748618132421,-80.68819616608764,-27.99224616244565,-79.70523086845807,-30.497279188666134,-78.64253300240375,-33.06512083261815,-77.51796618539962,-35.713768683886734,-76.34087308934137,-38.46163189175703,-75.11485820307543,-41.30776586460661,-73.84231066254303,-44.219250137200426,-72.52724301457765,-47.135379129090914,-71.17493722008498,-49.990047895721844,-69.7889735494327,-52.7432634811092,-68.3675534189625,-55.40599191732585,-66.90123998554435,-58.043926594924415,-65.37357753496191,-60.75539786328033,-63.764927981863295,-63.631840501444664,-62.058495616226395,-66.71850157877923,-60.24616633804036,-69.99253835721045,-58.33125270546966,-73.36554233523685,-56.326499178262154,-76.70507730294752,-54.2485962221732,-79.86480953112718,-52.112696609684264,-82.71959609966946,-49.929121324732236,-85.213003957641,-47.69995119703139,-87.42144886048709,-45.411438947500955,-89.60522841857596,-43.02584920807602,-92.1667268874184,-40.48947760418179,-95.42372484147621,-37.77155436278589,-99.10967777629523,-34.91122297228124,-101.23623393663203,-32" fill="none" stroke="rgb(145, 85, 61)" stroke-width="2" stroke-linejoin="round" filter="url(#fuzzy)"></polyline><polyline points="70,-18,71.13748759130335,-14.966042984104659,73.07160151883174,-12.377525505771075,75.28903706584812,-9.713508176635388,77.0884211642629,-7.054337910332695,78.35131773184058,-4.463042547731041,79.35192068809872,-1.9127277601608572,80.3288650625003,0.6359905159102595,81.30369009777804,3.190235097646869,82.17486009058352,5.732485953319198,82.88809973222384,8.244645501305753,83.5175066738557,10.721280350126117,84.22482069428501,13.169152145587894,85.15614017161764,15.602475762367249,86.35085393440255,18.039690937381913,87.7104288185483,20.498932975234347,89.04121112352625,22.98791831928368,90.15459437615952,25.4921410047908,90.97855588848799,27.974381875952552,91.62043140481995,30.395939757488797,92.3425580965747,32.75080790485486,93.4583075363739,35.08006188300135,95.16949855707331,37.43268080777946,97.32254996284871,39.78602464722073,99.0878387457942,42.012263044486815,98.88807826537443,43.93326106003459,95.38776247173183,45" fill="none" stroke="rgb(145, 85, 61)" stroke-width="2" stroke-linejoin="round" filter="url(#fuzzy)"></polyline><polyline points="-39,-72,-41.390455608878696,-70.44602890229372,-43.363088054439146,-69.1939518457833,-45.13086147801803,-67.88594098797228,-47.062269704876634,-66.48672979277087,-49.33758183454496,-65.00145593408958,-51.9860611257151,-63.39843384854299,-54.95881399195934,-61.65235806547042,-58.20633898156943,-59.773404745444246,-61.723241695300445,-57.79480176690177,-65.53785889990212,-55.747926263403514,-69.65504158253803,-53.65023237535616,-73.98314871233437,-51.507336139678955,-78.29157383241224,-49.3175798956192,-82.24672150885075,-47.071839152515494,-85.54410075657938,-44.75230275383023,-88.08738644159602,-42.338581445742065,-90.09792665831229,-39.823939483875705,-92.0397645032779,-37.23454226792268,-94.36067469764787,-34.63845735049359,-97.2234296714502,-32.131027077359455,-100.47467860054019,-29.78552499015807,-103.95830715608324,-27.568517944905032,-108.01269653568184,-25.292772946501763,-113.23676235764778,-23" fill="none" stroke="rgb(145, 85, 61)" stroke-width="2" stroke-linejoin="round" filter="url(#fuzzy)"></polyline><polyline points="-43,-69,-47.49817956139816,-66.38675306175769,-50.47518034525992,-64.83017773430714,-52.013933070436636,-63.27477181012289,-53.62452491158644,-61.485608320760335,-55.858322212950554,-59.52011664986515,-58.57846210717545,-57.4661304660435,-61.43993536738476,-55.365749154678284,-64.14350151712873,-53.22582537394105,-66.54673624805264,-51.04065389680057,-68.68530541617895,-48.801303905856464,-70.70343621905475,-46.49708015370164,-72.73285245402032,-44.119242922617254,-74.8033708491932,-41.668732422284144,-76.84169788673321,-39.1623918684666,-78.74083663822938,-36.631769379600875,-80.43269435665835,-34.113406775269006,-81.91197839515678,-31.63517357705951,-83.21687404378824,-29.20588905472991,-84.41162840529627,-26.813699249202433,-85.59889111610076,-24.43366310891637,-86.93380077823586,-22.03999262798382,-88.57972902478939,-19.616597891799294,-90.58772690785598,-17.161640070767312,-92.78006038849732,-14.685130679000519,-94.78007686204668,-12.20077030901707,-96.25597280432636,-9.716483577410248,-97.23880684887669,-7.236836608383769,-98.21452523856354,-4.792748894193178,-99.84998208667305,-2.4519790108634814,-102.79695652738803,0" fill="none" stroke="rgb(145, 85, 61)" stroke-width="2" stroke-linejoin="round" filter="url(#fuzzy)"></polyline><polyline points="-46,-65,-50.685055050344225,-64.5503492415235,-55.6301330929892,-63.292119780553456,-58.51801287758653,-61.50442691853057,-60.05753020853141,-59.48334383427712,-60.95113562045621,-57.39266880663177,-61.682917758005956,-55.27607000045388,-62.54341176783101,-53.127330359272264,-63.73238362611416,-50.93362364745937,-65.42394619176626,-48.684229660889244,-67.72420763547022,-46.368499933322056,-70.58740552361324,-43.978903563077644,-73.79785928955715,-41.518851625703824,-77.05343030136505,-39.007602720863815,-80.09425491202529,-36.476888331082655,-82.7904319010851,-33.96023157532072,-85.14456748909382,-31.48073475435376,-87.23124775046168,-29.043737835766215,-89.13007843508002,-26.63758869398622,-90.89305086209161,-24.2412147747745,-92.54557327921792,-21.834022542283,-94.09478427645487,-19.403368082993882,-95.52980708072457,-16.946917406987687,-96.82985940996556,-14.469886618238933,-98.00777554743068,-11.978961880106365,-99.18248499541548,-9.475195422854675,-100.61491569072649,-6.947264420234239,-102.62126193007397,-4.364511880032385,-105.34866746422539,-1.670513156842945,-108.53786516342147,1.2044975227791945,-111.52111040344502,4.244822502210978,-113.81085839612086,7.026883998068816,-116.81603474505843,8" fill="none" stroke="rgb(145, 85, 61)" stroke-width="2" stroke-linejoin="round" filter="url(#fuzzy)"></polyline><polyline points="-54,-56,-55.758137832929016,-55.0009252912104,-58.52204643798173,-52.98246147688202,-63.2476687895511,-50.7266642344329,-68.7607301346348,-48.45342993968199,-73.48477998986752,-46.15165137271204,-76.77653947245648,-43.76775726595546,-79.00188250775135,-41.284675585521484,-80.86315835435535,-38.73268573379381,-82.85460382201235,-36.167046385245555,-85.19838107913982,-33.63819221536809,-88.03685325090701,-31.17122345312914,-91.53126663825077,-28.761629712641966,-95.76074177765885,-26.384780450863996,-100.5761085588585,-24.010973140597343,-105.60224189932613,-21.617774540273878,-110.42531138732694,-19.195430798238228,-114.83276086076127,-16.745552266705282,-118.93990644039232,-14.275558140068187,-123.13058857831341,-11.791556595933722,-127.8478632978576,-9.291668220228038,-133.31758691435942,-6.760896827677774,-139.30829569543187,-4.168262549218849,-145.08107025476852,-1.469936542972375,-149.67790112603888,1.3692604248120839,-152.46318934957725,4.321499590462356,-153.54626906177762,7.245760166789203,-154.24495602446171,10.079080905790436,-159.6327751950075,14" fill="none" stroke="rgb(145, 85, 61)" stroke-width="2" stroke-linejoin="round" filter="url(#fuzzy)"></polyline><polyline points="-66,-33,-68.03393490462545,-30.300409444177514,-71.42090924005409,-27.501777374101383,-73.79708813914301,-24.624719126007406,-75.2539108445487,-21.846592693067006,-76.84347176756987,-19.19925244327321,-78.91713830381534,-16.616226253750455,-81.0508884557389,-14.029349497166187,-82.69926429789875,-11.414689699089148,-83.6991324890626,-8.786799528665084,-84.35123363019403,-6.16944558542664,-85.21936310652013,-3.57038916176278,-86.86034508542991,-0.976347933211763,-89.60622390402517,1.6316523186638294,-93.44036742777698,4.256783607978242,-97.98444272582253,6.878181445768174,-102.59587581108599,9.466743488294789,-106.53960118549516,12.016642131838509,-109.18994752285084,14.564353509315666,-110.28393032885091,17.159665581784836,-110.29253261646785,19.78033046953861,-110.75356305124365,22.28113040204211,-113.87879694176408,24.65557545037013,-120.88061425320385,28" fill="none" stroke="rgb(145, 85, 61)" stroke-width="2" stroke-linejoin="round" filter="url(#fuzzy)"></polyline><polyline points="-66,-33,-68.47828776515706,-30.300409444177514,-72.34451003325546,-27.501777374101383,-75.56562091827003,-24.624719126007406,-77.3556650361251,-21.846592693067006,-77.94747025671336,-19.19925244327321,-78.01085262362699,-16.616226253750455,-78.18384452448792,-14.029349497166187,-78.87624327584237,-11.414689699089148,-80.27887008833981,-8.786799528665084,-82.41751883776467,-6.16944558542664,-85.15733297580081,-3.57038916176278,-88.18756815563151,-0.976347933211763,-91.07648012200286,1.6316523186638294,-93.43319164065281,4.256783607978242,-95.09612714999795,6.878181445768174,-96.19356491687311,9.466743488294789,-96.98497497578964,12.016642131838509,-97.59406037364072,14.564353509315666,-97.94569898793495,17.159665581784836,-98.15426379639662,19.78033046953861,-99.03362865126597,22.28113040204211,-101.44782440228623,24.65557545037013,-103.10054667298971,28" fill="none" stroke="rgb(145, 85, 61)" stroke-width="2" stroke-linejoin="round" filter="url(#fuzzy)"></polyline><polyline points="65,-34,67.14780379165323,-36.165627376527056,68.29339993302662,-38.44568190776553,68.00340189581324,-40.57470071788307,66.43766173722847,-42.53995790118116,64.55662639920286,-44.46079691851615,63.13155523606329,-46.45468271951178,62.42780998309796,-48.55319943000543,62.28927374309139,-50.700939355009986,62.34567769042543,-52.8065092896134,62.23990719309776,-54.79827373910156,61.794688624270904,-56.654245376586914,61.04008933423083,-58.400417830186086,60.10382265369193,-60.088880627204055,59.072284769835356,-61.77127590631976,57.950108228258564,-63.47761732774909,56.74539028537284,-65.20277392941937,55.572748824457626,-66.9009655054151,54.62430998930714,-68.49518697502752,53.959802899400685,-69.91556573103296,53.24688734022389,-71.17050441468847,51.73713795944169,-72.41925118024871,48.835627973051366,-74" fill="none" stroke="rgb(145, 85, 61)" stroke-width="2" stroke-linejoin="round" filter="url(#fuzzy)"></polyline><polyline points="61,-44,60.2416243240839,-45.76370504750049,60.540498196179136,-47.96990770768341,61.55884468274256,-50.07675788275005,62.77306868075914,-52.03889141570962,63.852887330059175,-53.90891149948507,64.46454523424106,-55.74983308848137,64.29535635302068,-57.6036162826197,63.189322558447486,-59.478201847725494,61.22179631143335,-61.3514815872994,58.672226419346174,-63.18736304889625,55.92477205010787,-64.95360094008203,53.343673384543344,-66.63271021618843,51.168030254655946,-68.22327371056612,49.459383879111186,-69.73417874113653,48.11499927629457,-71.17647886475841,46.93406644080213,-72.5571128393762,45.7040182513975,-73.87679562231506,44.270284585752634,-75.13197468207042,42.56664974858668,-76.31870539727456,40.60569874217623,-77.43555988602697,38.44600001944935,-78.48367894835431,36.156233191733534,-79.46420959129843,33.78835559913453,-80.3752321305901,31.361644306679295,-81.21065288027921,28.855894599825913,-81.96229078157566,26.21578836547351,-82.62438978641916,23.371035747268287,-83.19801057163257,20.269062496624006,-83.69176103443462,16.900914472840977,-84.11601240576606,13.29476046536763,-84.47195793903585,9.473975707875162,-84.74481354758679,5.419643873534295,-84.91483772816,1.1026678167885298,-84.98596840087251,-3.294873330873677,-84.99959410107635,-6.204493066422147,-85" fill="none" stroke="rgb(145, 85, 61)" stroke-width="2" stroke-linejoin="round" filter="url(#fuzzy)"></polyline><polyline points="45,-64,45.66462769918175,-66.4684685120617,46.20972896120749,-68.25776877169608,44.972427810398095,-69.68310745044444,43.03651277335806,-70.98308532632441,41.18756511183996,-72.26455500980548,39.47634761104697,-73.53720390371696,37.6607867470073,-74.7741458962478,35.60174068890796,-75.9532516219044,33.35868711187299,-77.06867963918276,31.08977662666768,-78.12437677091165,28.923396047456258,-79.12436191014226,26.892068946208305,-80.0675600298551,24.937625265184888,-80.94772874014555,22.95740048172883,-81.75585246417816,20.85644507248369,-82.48262511006448,18.580938863130857,-83.12005179849321,16.123103492640364,-83.66230685734645,13.503709112760923,-84.10650207346143,10.749054237335892,-84.45402601858201,7.878783071118552,-84.712466192153,4.909170955298507,-84.89677832014539,1.8625647879215939,-85.02710482550918,-1.23148499277586,-85.12113591341239,-4.35105437235044,-85.18261568365945,-7.5071768071019385,-85.19385454347096,-10.76179190008901,-85.12351833459387,-14.220629616030951,-84.94813337078165,-18.016602351916745,-84.63811750773532,-22.17080038019762,-84" fill="none" stroke="rgb(145, 85, 61)" stroke-width="2" stroke-linejoin="round" filter="url(#fuzzy)"></polyline><polyline points="39,-70,40.39695589027443,-71.03684907791325,39.25615753454789,-72.30075159635244,37.05333450932291,-73.6458292862085,34.934352257402864,-74.92562245304804,33.10532568842136,-76.0995208833407,31.360284044694676,-77.1877312332318,29.492592819437387,-78.21822026632739,27.448754999844198,-79.20356115748483,25.318975855708658,-80.14084152945863,23.248508838605986,-81.0194928774801,21.33268637999176,-81.82765830029916,19.55056871796828,-82.55504666030012,17.7697095714954,-83.1936403134142,15.813935323537084,-83.73746682072621,13.55070874436829,-84.18205327639355,10.947923369541332,-84.52491217103336,8.07384660448809,-84.76907258180817,5.050054479275628,-84.9298186387082,1.9940945964241859,-85.0403306275793,-1.0064453849970745,-85.14737370022272,-3.885735721680792,-85.28282095163912,-6.728871713425167,-85.37608313095423,-10.775299238738421,-85" fill="none" stroke="rgb(145, 85, 61)" stroke-width="2" stroke-linejoin="round" filter="url(#fuzzy)"></polyline><polyline points="36,-72,34.63411551667977,-73.27271115556543,32.635802791781636,-74.69736283988483,30.9489477275695,-75.94937112420293,29.88809031683112,-77.0359807200326,29.318405116643795,-78.03956289416223,28.84014217617662,-79.00318738989836,28.027662909966356,-79.92515803072128,26.63166390327394,-80.78493338351429,24.647205328947514,-81.56301756789323,22.244314516460843,-82.24934384601784,19.63621023415238,-82.8441887666772,16.971410931399255,-83.3547988093709,14.295521118057154,-83.79008263103282,11.576980286765352,-84.15638521153025,8.76013534722277,-84.45680742710066,5.807697330168612,-84.6937940120293,2.713318905708409,-84.87188253519783,-0.5127416277375165,-84.9972344896666,-3.8685126796525444,-85.07330308034173,-7.378432409329301,-85.09555040473388,-11.094842345323014,-85.04958524490398,-15.081485640623272,-84.9152498592438,-19.380760278528328,-84.67573266035257,-23.96381362110264,-84.32896714075046,-28.66675715215994,-83.89915777586724,-33.156069757617594,-83.44316191529094,-37.06455931514636,-83.02944671487035,-40.553999638959425,-82.64305379812163,-45.610781034546676,-82" fill="none" stroke="rgb(145, 85, 61)" stroke-width="2" stroke-linejoin="round" filter="url(#fuzzy)"></polyline><polyline points="11,-84,9.143183026912615,-84.62630122692865,7.081927420066533,-84.8668383951468,4.832644398140625,-84.96840134402409,2.481939082373802,-85.03387389056549,0.0726943452402586,-85.08935606036952,-2.3808921234548905,-85.11760469845179,-4.890439688291539,-85.08694574840237,-7.490636815122684,-84.97204627395436,-10.223647623653909,-84.76224174269788,-13.1160636361108,-84.45982568522959,-16.163508626429,-84.07357259466981,-19.33393375262336,-83.61217470527491,-22.58860723301172,-83.08040494722223,-25.907716419571624,-82.47868276566321,-29.30210530661805,-81.80495549938604,-32.79935533464736,-81.05705195991322,-36.41069161260282,-80.23410700426818,-40.103706271489315,-79.3368082518043,-43.807428061724984,-78.3672188029946,-47.45343526947074,-77.32904694071439,-51.02390484104909,-76.22827163658486,-54.56352236595606,-75.07265464796369,-58.13513574425027,-73.86839068014511,-61.74565011230002,-72.61442391810097,-65.30173456158792,-71.29915261880508,-68.64686745529009,-69.90586621473584,-71.68939944995954,-68.4260261901105,-74.57899018511151,-66.8642549711416,-77.81995264032456,-65.21543678153358,-82.11220669848359,-63.438102332586624,-87.72741342400481,-61.54623513647859,-93.65041370077127,-60" fill="none" stroke="rgb(145, 85, 61)" stroke-width="2" stroke-linejoin="round" filter="url(#fuzzy)"></polyline><polyline points="4,-85,2.216114480455619,-85.0129478438498,-0.43926302425143826,-85.08400802934378,-2.877594843535648,-85.16169390317535,-5.027620270137802,-85.16243809125949,-7.159702197028015,-85.04696692499103,-9.446863385330618,-84.81485115745983,-11.90023427351731,-84.48256095330983,-14.467879714257528,-84.06801897415376,-17.124399254157947,-83.58274548409162,-19.88029162446622,-83.03023444495766,-22.735840533883223,-82.40852907009771,-25.643641165434214,-81.71407646768044,-28.519796160083814,-80.94448620146323,-31.29442308723491,-80.09946920088785,-33.961843181718145,-79.18061945519506,-36.59673396856337,-78.19100426636861,-39.3307889617134,-77.13489998537497,-42.30932552010293,-76.01723030304179,-45.652462268194625,-74.8421480830858,-49.43284456902095,-73.61097463637728,-53.6660679980822,-72.32072208566869,-58.30523095809137,-70.96459033333942,-63.24003669560884,-69.53465719467464,-68.31211980016649,-68.02528890907011,-73.35550211955344,-66.43517544962071,-78.24930284497195,-64.76701561411205,-82.9463436686129,-63.02536065045271,-87.44732650621316,-61.21280946168304,-91.73961272529861,-59.322998077906526,-95.77438880894144,-57.33021789720572,-99.53415235026446,-55.18504629781758,-103.11369876206447,-52.84149013320684,-106.68456093224775,-50.35469729297245,-110.56480569899608,-48.08767560239848,-115.506679305659,-47" fill="none" stroke="rgb(145, 85, 61)" stroke-width="2" stroke-linejoin="round" filter="url(#fuzzy)"></polyline><polyline points="2,-85,-0.2654598949836184,-85.05562794776354,-2.4863028559643308,-85.17727777324465,-4.683089179750112,-85.21110457524469,-6.93848408018926,-85.1042448102742,-9.223161981385406,-84.8685788543907,-11.52427777063411,-84.53070816922535,-13.857331499228579,-84.11421181307773,-16.23325376579857,-83.63303203070672,-18.65346871949014,-83.0902208903339,-21.131573969493374,-82.48161980220412,-23.70696663240782,-81.80146879671909,-26.427969511376098,-81.04630929374309,-29.313927420804422,-80.21579636514572,-32.3281097274199,-79.31150716543198,-35.388076176751255,-78.33584644399411,-38.41064696231908,-77.2924557454168,-41.35798711365341,-76.18759400363676,-44.24697754557701,-75.02999171932184,-47.11452371512246,-73.82672666749637,-49.97333949680889,-72.57621939581503,-52.80432124244766,-71.26476842140278,-55.592290425115074,-69.87392261953892,-58.357683489355715,-68.39595967193368,-61.144817553512674,-66.83788510944922,-64.02504555007155,-65.19465364927669,-67.22429519019954,-63.42248193230159,-71.21693976893215,-61.53706662272052,-76.13593465123665,-60" fill="none" stroke="rgb(145, 85, 61)" stroke-width="2" stroke-linejoin="round" filter="url(#fuzzy)"></polyline><!--]--></g><g id="pointNose"><g id="rightNose"><!--[--><circle r="1.133619102493273" cx="8.87683831098668" cy="14.493232629282467" stroke="black" fill="none" stroke-width="1" filter="url(#fuzzy)"></circle><circle r="1.075841753962219" cx="9.427797046286042" cy="12.293427107316173" stroke="black" fill="none" stroke-width="1" filter="url(#fuzzy)"></circle><circle r="2.950688187227045" cx="10.117676896959042" cy="12.173804289651754" stroke="black" fill="none" stroke-width="1" filter="url(#fuzzy)"></circle><circle r="2.2265410280957427" cx="11.645137139973206" cy="14.889263468693123" stroke="black" fill="none" stroke-width="1" filter="url(#fuzzy)"></circle><circle r="1.4904833350826872" cx="11.45832183720357" cy="14.821834371651946" stroke="black" fill="none" stroke-width="1" filter="url(#fuzzy)"></circle><circle r="1.2192248168894873" cx="9.836522854396243" cy="14.01154373833716" stroke="black" fill="none" stroke-width="1" filter="url(#fuzzy)"></circle><circle r="2.7966980897711746" cx="8.520965919558158" cy="12.31434570037512" stroke="black" fill="none" stroke-width="1" filter="url(#fuzzy)"></circle><circle r="1.233165479482332" cx="10.542740337080815" cy="11.924974590609343" stroke="black" fill="none" stroke-width="1" filter="url(#fuzzy)"></circle><circle r="1.2151812119893979" cx="10.114214709463923" cy="12.778666817536445" stroke="black" fill="none" stroke-width="1" filter="url(#fuzzy)"></circle><circle r="1.7578380988057434" cx="11.68221200490561" cy="14.319519899513995" stroke="black" fill="none" stroke-width="1" filter="url(#fuzzy)"></circle><!--]--></g><g id="leftNose"><!--[--><circle r="1.105865270410249" cx="-8.975076023373704" cy="12.874050006002026" stroke="black" fill="none" stroke-width="1" filter="url(#fuzzy)"></circle><circle r="2.2800552552633206" cx="-9.988913484414319" cy="16.856872399916455" stroke="black" fill="none" stroke-width="1" filter="url(#fuzzy)"></circle><circle r="1.880946401981244" cx="-8.188828042633137" cy="15.423715478918098" stroke="black" fill="none" stroke-width="1" filter="url(#fuzzy)"></circle><circle r="2.780259175664994" cx="-10.361419993467305" cy="13.747982290125124" stroke="black" fill="none" stroke-width="1" filter="url(#fuzzy)"></circle><circle r="2.695232999650254" cx="-10.652741224568999" cy="15.481794746884855" stroke="black" fill="none" stroke-width="1" filter="url(#fuzzy)"></circle><circle r="1.1834441544322956" cx="-9.672509113624635" cy="14.007419659222016" stroke="black" fill="none" stroke-width="1" filter="url(#fuzzy)"></circle><circle r="1.3928439186771797" cx="-8.332515611829496" cy="15.127753466155827" stroke="black" fill="none" stroke-width="1" filter="url(#fuzzy)"></circle><circle r="2.076952105722714" cx="-10.141358843863625" cy="14.387714071528865" stroke="black" fill="none" stroke-width="1" filter="url(#fuzzy)"></circle><circle r="1.9615789936440717" cx="-11.620534375959348" cy="14.550372948812075" stroke="black" fill="none" stroke-width="1" filter="url(#fuzzy)"></circle><circle r="2.0968022190671665" cx="-10.93718213598076" cy="15.650558515599148" stroke="black" fill="none" stroke-width="1" filter="url(#fuzzy)"></circle><!--]--></g></g><g id="mouth"><polyline points="-17.663229180615907,69.45129117443578,-17.627028378895776,68.12515601401046,-17.57413012939429,66.83549642298709,-17.5048775865028,65.58200407127778,-17.419613904612667,64.36437062879457,-17.318682238115237,63.18228776544958,-17.20242574140187,62.035447151154855,-17.07118756886392,60.92354045582248,-16.925310874892748,59.84625934936453,-16.765138813879695,58.803295501693086,-16.59101454021613,57.79434058272024,-16.403281208293386,56.81908626235804,-16.202281972502846,55.87722421051859,-15.988359987235844,54.968446097113954,-15.761858406883746,54.09244359205621,-15.5231203858379,53.24890836525745,-15.272489078489668,52.43753208662973,-15.010307639230401,51.65800642608513,-14.73691922245145,50.910023053535745,-14.452666982544173,50.19327363889365,-14.157894073899925,49.5074498520709,-13.852943650910062,48.8522433629796,-13.538158867965937,48.22734584153181,-13.213882879458907,47.63244895763961,-12.880458839780326,47.06724438121508,-12.538229903321549,46.5314237821703,-12.187539224473921,46.024678830417365,-11.828729957628811,45.5467011958683,-11.462145257177568,45.09718254843523,-11.088128277511546,44.67581455803023,-10.707022173022098,44.28228889456537,-10.319170098100583,43.916297227952704,-9.924915207138355,43.577531228104334,-9.524600654526767,43.26568256493234,-9.11856959465718,42.98044290834879,-8.707165181920937,42.72150392826577,-8.290730570709403,42.48855729459535,-7.869608915413924,42.28129467724961,-7.444143370425865,42.09940774614062,-7.014677090136572,41.94258817118046,-6.581553228937405,41.81052762228123,-6.145114941219718,41.70291776935498,-5.705705381374864,41.6194502823138,-5.263667703794198,41.55981683106977,-4.819345062869077,41.52370908553495,-4.3730806129908535,41.51081871562143,-3.925217508550883,41.52083739124131,-3.47609890394052,41.55345678230663,-3.026067953551122,41.60836855872949,-2.575467811774036,41.68526439042196,-2.1246416330006284,41.78383594729611,-1.6739325716222457,41.90377489926403,-1.2236837820302422,42.04477291623779,-0.7742384186159774,42.20652166812949,-0.32593963577080154,42.38871282485117,0.12086941211392421,42.59103805631493,0.5658455706468546,42.813189032432845,1.008645685436623,43.054857423116985,1.4489266020918867,43.31573489827944,1.8863451662212825,43.59551312783229,2.3205582234334594,43.89388378168759,2.751222619337061,44.21053852975744,3.1779951995407334,44.54516904195391,3.6005328096531226,44.89746698818907,4.018492295282872,45.267124038375016,4.431530502038626,45.653831862423814,4.839304275529034,46.05728213024753,5.241470461362739,46.47716651175827,5.637685905148381,46.91317667686808,6.027607452494614,47.365004295489065,6.410891949010079,47.832341037533276,6.787196240303423,48.31487857291282,7.156177171983288,48.81230857153975,7.517491589658322,49.32432270332616,7.870796338937167,49.85061263818412,8.215748265428472,50.390870046025704,8.552004214740883,50.944786596762995,8.87922103248304,51.512053960308066,9.197055564263591,52.092363806573005,9.505164655691182,52.68540780546988,9.80320515237446,53.29087762691077,10.090833899922064,53.908464940807754,10.367707743942644,54.53786141707292,10.633483530044844,55.17875872561832,10.887818103837313,55.83084853635605,11.13036831092869,56.49382251919819,11.360790996927623,57.16737234405681,11.578743007442757,57.85118968084399,11.783881188082738,58.54496619947181,11.975862384456208,59.24839356985234,12.154343442171818,59.96116346189766,12.31898120683821,60.68296754551986,12.469432524064025,61.413497490630995,12.605354239457917,62.15244496714317,12.726403198628528,62.89950164496843,12.832236247184499,63.65435919401888,12.922510230734481,64.41670928420659,12.996881994887113,65.18624358544363,13.055008385251046,65.9626537676421,13.09654624743492,66.74563150071404,13.09654624743492,66.74563150071404,12.788948493154411,66.15631644497998,12.481350738873905,65.57199877273403,12.173752984593396,64.99291309863237,11.866155230312886,64.41929403733123,11.55855747603238,63.85137620348678,11.25095972175187,63.289394211755244,10.94336196747136,62.73358267679281,10.635764213190855,62.18417621325568,10.328166458910347,61.641409435800064,10.020568704629836,61.10551695908215,9.712970950349328,60.576733397758154,9.40537319606882,60.05529336648427,9.097775441788311,59.541431479916696,8.790177687507805,59.03538235271164,8.482579933227296,58.5373805995253,8.174982178946788,58.04766083501388,7.86738442466628,57.56645767383357,7.559786670385773,57.094005730640575,7.252188916105265,56.63053962009111,6.944591161824755,56.17629395684137,6.636993407544248,55.73150335554755,6.329395653263738,55.29640243086585,6.02179789898323,54.87122579745248,5.714200144702723,54.45620806996364,5.406602390422213,54.05158386305552,5.0990046361417045,53.65758779138433,4.791406881861197,53.27445446960627,4.483809127580688,52.90241851237754,4.1762113733001796,52.54171453435434,3.868613619019672,52.19257715019288,3.561015864739163,51.85524097454935,3.2534181104586555,51.52994062207997,2.945820356178147,51.2169107074409,2.6382226018976374,50.916385845288396,2.3306248476171314,50.628600650278614,2.023027093336622,50.353789737067785,1.7154293390561146,50.0921877203121,1.4078315847756055,49.84402921466775,1.1002338304950983,49.609548834790935,0.7926360762145892,49.388981195337884,0.4850383219340828,49.18256091096477,0.17744056765357508,48.9905225963278,-0.13015718662693487,48.8131008660832,-0.4377549409074437,48.65053033488713,-0.7453526951879503,48.50304561739581,-1.0529504494684603,48.370881328265455,-1.360548203748968,48.25427208215224,-1.6681459580294757,48.15345249371239,-1.9757437123099844,48.068657177602105,-2.2833414665904934,48.00012074847757,-2.590939220871002,47.94807782099499,-2.8985369751515098,47.91276300981057,-3.2061347294320184,47.89441092958051,-3.513732483712527,47.89325619496101,-3.821330237993036,47.909533420608284,-4.128927992273544,47.94347722117852,-4.43652574655405,47.99532221132792,-4.744123500834558,48.065303005712686,-5.051721255115067,48.153654218989026,-5.359319009395577,48.26061046581312,-5.666916763676083,48.38640636084121,-5.974514517956592,48.53127651872946,-6.2821122722371,48.69545555413408,-6.589710026517609,48.87917808171127,-6.897307780798117,49.08267871611724,-7.204905535078625,49.30619207200819,-7.512503289359134,49.54995276404031,-7.820101043639643,49.81419540686982,-8.12769879792015,50.09915461515291,-8.435296552200658,50.40506500354577,-8.742894306481166,50.732161186704616,-9.050492060761677,51.08067777928565,-9.358089815042185,51.450849395945085,-9.665687569322692,51.84291065133907,-9.9732853236032,52.25709616012387,-10.28088307788371,52.69364053695565,-10.588480832164217,53.152778396490625,-10.896078586444725,53.63474435338499,-11.203676340725234,54.13977302229494,-11.511274095005742,54.66809901787669,-11.81887184928625,55.219956954786426,-12.126469603566758,55.79558144768036,-12.434067357847267,56.395207111214695,-12.741665112127773,57.01906856004563,-13.049262866408284,57.66740040882936,-13.35686062068879,58.3404372722221,-13.664458374969298,59.038413764880026,-13.97205612924981,59.76156450145936,-14.279653883530317,60.51012409661631,-14.587251637810823,61.28432716500705,-14.894849392091333,62.08440832128781,-15.20244714637184,62.91060218011477,-15.510044900652348,63.76314335614414,-15.817642654932856,64.64226646403212,-16.12524040921337,65.5482061184349,-16.43283816349387,66.48119693400872,-16.74043591777438,67.44147352540973,-17.04803367205489,68.42927050729416,-17.3556314263354,69.44482249431822" fill="rgb(215,127,140)" stroke="black" stroke-width="3" stroke-linejoin="round" filter="url(#fuzzy)"></polyline></g></svg>