<svg viewBox="-100 -100 200 200" xmlns="http://www.w3.org/2000/svg" width="400" height="400" id="face-svg"><defs><clipPath id="leftEyeClipPath"><polyline points="29.89336642744578,-1.3380645791594181,29.66824405975199,-1.4412156301288506,29.415632272592788,-1.5459706852499546,29.135441232951685,-1.652160718612616,28.827647832311,-1.7596146476787022,28.49229346825296,-1.8681595577617478,28.129481826060882,-1.977620926506643,27.739376660320275,-2.0878228483693193,27.322199576519992,-2.1985882590964376,26.878227812653375,-2.309739160205073,26.407792020819393,-2.4210968434624065,25.911274048823778,-2.532482115365405,25.38910472178018,-2.6437155216205164,24.841761623711264,-2.75461757162335,24.26976687914991,-2.865008962938366,23.673684934740304,-2.974710805778565,23.113686561860916,-3.100862311437014,22.511581704051075,-3.227400481737335,21.868017816017186,-3.353884370194825,21.183903750914574,-3.479862593439093,20.46038676796924,-3.6048771200647014,19.698830367905067,-3.7284668401578265,18.90079294277916,-3.8501709202328844,18.068007226827806,-3.9695319483130582,17.202360534925724,-4.086098873888664,16.305875775261008,-4.19942974748731,15.380693222828468,-4.3090942645897625,14.429053040343927,-4.414676118625504,13.453278533181926,-4.515775167781865,12.45576012493955,-4.612009420360728,11.438940040228802,-4.7030168434167035,10.405297681300205,-4.788456999410742,9.357335685100104,-4.868012515613103,8.297566647364352,-4.941390390989648,7.228500500350792,-5.00832314530537,6.152632530813222,-5.068569815179123,5.072432024819362,-5.1219168018234695,3.990331526015388,-5.168178575203612,2.908716693939602,-5.207198239349336,1.8299167489878208,-5.238847963553889,0.7561954906330038,-5.2630292841937765,-0.3102571244982455,-5.279673281903378,-1.3673328580898219,-5.288740638838337,-2.41301253253825,-5.290221580761667,-3.4453728536903405,-5.28413570868653,-4.462592727313688,-5.270531724809578,-5.462959082697556,-5.249487057468868,-6.444872216781511,-5.221107389860224,-7.406850672209284,-5.185526097246044,-8.347535662705234,-5.142903597390444,-9.265695059170946,-5.09342661895472,-10.160226949899286,-5.037307392587034,-11.030162788303443,-4.9747827694402895,-11.874670141558315,-4.906113271852138,-12.69305505355174,-4.8315820809210255,-13.484764035542977,-4.7514939657122675,-14.249385697925831,-4.666174158828043,-14.986652036493945,-4.575967183075289,-15.696439386605622,-4.48123563396542,-16.37876905864562,-4.382358922779803,-17.033807668181417,-4.279731984934951,-17.661867174211267,-4.173763958381351,-18.26340463890162,-4.064876836769888,-18.83902172221119,-3.9535041021197976,-19.38946392479924,-3.840089341722076,-19.915619592615478,-3.725084854012326,-20.41816424620712,-3.6080467445650175,-20.897191474395967,-3.48836107332042,-21.35284939546153,-3.3662297470951446,-21.78531968772885,-3.2418528100800916,-22.19481579526919,-3.1154278098305324,-22.581581133600785,-2.9871491632561975,-22.94588729538959,-2.8572075226113807,-23.288032256149986,-2.7257891414850155,-23.608338579945528,-2.5930752407907813,-23.907151625089668,-2.4592413747571853,-24.184837749846487,-2.324456796917658,-24.441782518131433,-2.1888838261006454,-24.67838890521204,-2.0526772124196984,-24.895075503408673,-1.915983503263565,-22.582475818300104,0.055606887932590054,-22.23737151807087,0.23274389664064554,-21.87872595133698,0.4092370350545369,-21.506673638597665,0.5849894510336426,-21.12137941422283,0.7598985963643443,-20.723036477837056,0.9338563835150027,-20.311864445703666,1.1067493423909294,-19.888107402108748,1.2784587770893614,-19.45203195074521,1.4488609226544285,-19.003925266096818,1.6178271018321344,-18.544093144822224,1.7852238818253192,-18.072858057139015,1.9509132310486401,-17.590557198207772,2.1147526758835395,-17.09754053951606,2.2765954574332183,-16.59416888026254,2.436290688277611,-16.078697103560717,2.5943892055585915,-15.549491296804629,2.7513292667473936,-15.00709025795382,2.906782630555464,-14.452036546409678,3.0604145813933097,-13.884874112119515,3.2118849880649636,-13.30614593136726,3.360849379297885,-12.716391663800161,3.5069600349378476,-12.116145345241314,3.6498670916383773,-11.505933130837603,3.789219661874305,-10.886271103092751,3.9246669651089983,-10.257663159335147,4.055859469944841,-9.620598993170113,4.182450046086499,-8.975552184466265,4.304095124946567,-8.322978412425647,4.420455867723142,-7.663313806287302,4.531199339778884,-6.99697344821394,4.6359996901511416,-6.324350042911376,4.734539335022681,-5.645812768530383,4.826510143982605,-4.961706323400678,4.911614627907022,-4.272350183146638,4.9895671272890025,-3.578038082734462,5.060094999847425,-2.8790377380004264,5.122939806244244,-2.1755908212098953,5.177858492739758,-1.4679132051967645,5.224624569615413,-0.7561954906330037,5.2630292841937765,-0.040603830977939515,5.292882787285146,0.6787189303430182,5.314015291890428,1.4016517959805737,5.32627822298981,2.128093809374975,5.329545357246841,2.8579618935910283,5.323713951457401,3.5911883197250276,5.308705858573198,4.327717790333918,5.284468630129323,5.067504123337056,5.250976603905415,5.810506521840866,5.208231975650031,6.556685415336763,5.156265853697745,7.305997857722657,5.095139295308587,8.058392467598349,5.024944323559324,8.813803896285215,4.945804923616213,9.57214680902045,4.857878017218724,10.333309364776238,4.761354414203851,11.097146180154184,4.656459739900538,11.863470762805335,4.543455337223801,12.632047399826089,4.4226391422980855,13.402582486580407,4.294346532439473,14.174715281398594,4.158951145326223,14.948008071603002,4.016865668187302,15.721935736311,3.868542595838373,16.495874691465524,3.7144749563948816,17.269091202543574,3.5551970034917666,18.040729050392947,3.3912848738393504,18.671860941148985,3.2713383489098007,19.29800718751279,3.148601690138145,19.918460048055227,3.0233424519002075,20.532457392260635,2.8958437613243753,21.139181038393666,2.7664046308428762,21.737755091366008,2.635340270743054,22.327244280603274,2.50298240171865,22.90665229791172,2.3696795674210787,23.474920135345073,2.2357974470107047,24.030924423071358,2.1017191677081195,24.573475767239636,1.9678456173454215,25.101317087846837,1.8345957569174924,25.61312195660456,1.7024069331332758,26.10749293480584,1.571735190967051,26.582959911191985,1.4430555862097165"></polyline></clipPath><clipPath id="rightEyeClipPath"><polyline points="-33.2872975344124,-1.4805320606075454,-33.02141185214222,-1.609754295092496,-32.725508486682656,-1.7395141827143483,-32.399714393269846,-1.8695740616617749,-32.04421900325945,-1.999701610769948,-31.659271992046776,-2.1296698609616187,-31.24518104698685,-2.2592572066881966,-30.802309635314586,-2.388247417370832,-30.33107477206488,-2.516429648841491,-29.83194478799275,-2.6435984547840414,-29.30543709749344,-2.7695537981753287,-28.75211596652254,-2.894101062726257,-28.172590280516104,-3.017051064322871,-27.567511312310796,-3.1382200624674335,-26.93757049006397,-3.257429771719507,-26.283497165173834,-3.3745073731370323,-25.65073052927782,-3.518504866980146,-24.975707983619223,-3.6602255316182135,-24.259391431817313,-3.7992249288184867,-23.502995875308795,-3.935070837845692,-22.70796458488119,-4.06734507719691,-21.875945256081266,-4.195645182405015,-21.008767131163363,-4.319585943322136,-20.10841907024269,-4.438800804294623,-19.177028554318497,-4.552943130640973,-18.216841602832318,-4.661687344844191,-17.23020358842604,-4.7647299358700685,-16.219540931565003,-4.861790345022822,-15.187343657691045,-4.952611731749584,-14.13614879957047,-5.0369616228052125,-13.068524627502022,-5.114632448188876,-11.987055690049775,-5.1854419672638965,-10.894328647966027,-5.249233588472316,-9.79291888396915,-5.3058765860556605,-8.685377871041375,-5.355266217193351,-7.574221281911616,-5.397323742970271,-6.461917822388193,-5.431996356584908,-5.350878771206574,-5.459257022209595,-4.243448209057093,-5.479104227914266,-3.1418939194576327,-5.491561656065242,-2.0483989441362915,-5.4966777746104905,-0.9650537755890505,-5.494525352662829,0.10615083052260132,-5.485200903792556,1.163330440469018,-5.46882406044097,2.2047129423798033,-5.445536882866245,3.2286439783361667,-5.415503106033128,4.233591825963335,-5.378907327857952,5.218151746857948,-5.335954142220401,6.181049819185454,-5.28686722015351,7.12114627178248,-5.231888342623385,8.03743833709926,-5.171276388310098,8.929062640317,-5.105306279801207,9.79529714197524,-5.03426789160942,10.635562651444253,-4.958464923425825,11.449423928577378,-4.878213742020184,12.236590390878359,-4.793842195199748,12.996916443518675,-4.705688401238062,13.73040144953984,-4.614099517185239,14.437189357575683,-4.519430489471171,15.11756800442961,-4.422042790213127,15.771968109841843,-4.322303142639248,16.400961980781606,-4.220582239039355,17.00526194259932,-4.117253454654593,17.58571851437375,-4.012691560917344,18.143318345789066,-3.907271441452894,18.679181932877,-3.801366814254315,19.19393220050421,-3.694611820105092,19.687570463655497,-3.5865161555917893,20.160405409033377,-3.477262517514757,20.612772791920463,-3.367029612457369,21.045033114528,-3.2559916998927685,21.45756930434429,-3.1443181352906135,21.85078439248329,-3.0321729132238358,22.22509919203308,-2.9197142104753766,22.58094997640435,-2.8070939291449477,22.918786157678962,-2.694457239755774,23.239067964958377,-2.581942124361344,23.54226412271226,-2.4696789196521607,23.828849529126902,-2.3577898600624883,24.09930293445378,-2.2463886208770987,22.403949746398062,-0.41051427345621583,22.166917079719514,-0.24332156758017853,21.916938930086793,-0.07607041042663842,21.65384963111634,0.09121704608680425,21.377495359967714,0.25851522911615443,21.087734009577296,0.4257947748810319,20.784435060892065,0.5930221586546758,20.467479455103277,0.7601593247539571,20.13675946588021,0.9271633165293847,19.792178571603888,1.0939859063551196,19.433651327600792,1.2605732256189741,19.061103238376614,1.4268653947124277,18.67447062984994,1.5927961530206343,18.273700521586004,1.7582924889124274,17.858750499030418,1.9232742697303342,17.428858249137864,2.088080370450408,16.98303205065449,2.2530296268166783,16.520922658564523,2.4179869525665314,16.04222051682719,2.5827919247285682,15.54665626864022,2.7472593725770285,15.034001214576914,2.9111800168000235,14.504067719550562,3.0743211616443182,13.956709569560342,3.236427442799388,13.391822279172583,3.397221633783517,12.809343350691417,3.5564055135946537,12.209252485972897,3.7136607983887933,11.59157175183634,3.868650139948584,10.956365700027195,4.0210181937049585,10.303741442685133,4.170392759074472,9.633848684271541,4.316385994875141,8.946879710910313,4.458595712583471,8.24306933809596,4.596606750195472,7.522694817723033,4.729992429454345,6.786075705390814,4.858316099207629,6.0335736889373015,4.981132767656521,5.26559237915646,5.097990826260123,4.482577063652703,5.208433868057348,3.6850144247866696,5.312002603169242,2.873432222666138,5.408236874244431,2.0483989441362915,5.4966777746104905,1.210523418723045,5.5768698718939085,0.3604544024836862,5.648363539871447,-0.5011198692813856,5.710717401315593,-1.37347215950168,5.763500884596885,-2.255836736040531,5.806296896805815,-3.1474099066758456,5.838704616157076,-4.047350581403694,5.860342406438889,-4.954780861110818,5.870850856270132,-5.868786651661997,5.86989594592805,-6.788418302448315,5.857172344509261,-7.712691268442363,5.832406840186784,-8.640586794806332,5.7953619063258754,-9.571052623099067,5.745839406221381,-10.503003718128047,5.683684439219347,-11.435323014492347,5.608789330985648,-12.366862181862547,5.521097770684366,-13.296442408043653,5.420609097828639,-14.222855198866956,5.307382741566764,-15.144863193956976,5.181542815166264,-16.06120099741936,5.043282868458657,-16.970576022495816,4.892870801007701,-17.871669349232153,4.730653938763821,-18.76313659420527,4.557064276967469,-19.643608791355298,4.3726238920641824,-20.51169328296877,4.1779505253940386,-21.259902016399263,4.052418119063593,-21.998620879595407,3.9215009776497327,-22.726904438292692,3.785495453298431,-23.443773256909765,3.644727298821767,-24.148213393811965,3.499552526580848,-24.839175896574904,3.3503582673687395,-25.51557629724804,3.1975636292933896,-26.17629410761821,3.0416205566605607,-26.82017231447325,2.883014688856753,-27.446016874865506,2.722266219232133,-28.052596211375437,2.559930753983461,-28.638640707375167,2.3966001710370177,-29.202842202292054,2.232903478931534,-29.743853486872244,2.0695076757011144,-30.260287798444278,1.9071186077581697"></polyline></clipPath><filter id="fuzzy"><feTurbulence id="turbulence" baseFrequency="0.05" numOctaves="3" type="noise" result="noise"></feTurbulence><feDisplacementMap in="SourceGraphic" in2="noise" scale="2"></feDisplacementMap></filter><linearGradient id="rainbowGradient" x1="0%" y1="0%" x2="100%" y2="0%"><stop offset="0%" style="stop-color: rgb(0, 0, 0);  stop-opacity: 1"></stop><stop offset="50%" style="stop-color: rgb(145, 85, 61);  stop-opacity: 1"></stop><stop offset="100%" style="stop-color: rgb(148, 0, 211);  stop-opacity: 1"></stop></linearGradient></defs><title>That&#39;s an ugly face</title><desc>CREATED BY XUAN TANG, MORE INFO AT TXSTC55.GITHUB.IO</desc><rect x="-100" y="-100" width="100%" height="100%" opacity="1" fill="rgb(72, 61, 139)"></rect><polyline id="faceContour" points="70,1,70,1,70,2,69,2,69,7,69,5,69,7,69,9,69,10,69,12,69,11,68,16,67,17,68,17,67,19,67,19,66,22,66,24,66,24,66,25,65,26,65,27,64,30,65,28,64,30,63,34,62,36,63,34,62,36,62,38,60,40,60,41,60,42,60,42,58,45,57,46,57,47,57,47,57,48,56,49,55,50,54,51,54,52,52,55,52,55,51,56,52,55,49,58,49,59,48,60,48,60,47,61,46,63,45,63,45,64,44,64,42,66,43,66,41,67,41,67,39,69,39,69,39,69,37,70,35,72,36,72,34,73,34,72,33,73,32,74,31,74,30,75,29,76,28,76,27,76,25,77,25,78,23,78,23,78,23,78,20,79,20,79,19,80,19,80,16,80,15,81,15,81,14,81,13,81,10,82,10,81,10,81,9,82,6,82,7,82,5,82,4,82,2,82,2,82,2,82,-1,82,-3,81,-1,82,-4,81,-3,81,-5,81,-7,81,-6,81,-8,81,-10,80,-11,80,-11,80,-12,79,-13,80,-16,78,-15,79,-17,78,-16,78,-18,78,-21,76,-21,77,-23,75,-23,75,-22,76,-25,75,-25,74,-26,74,-28,73,-29,72,-29,71,-31,71,-31,71,-32,70,-33,69,-33,69,-35,67,-34,68,-37,66,-38,65,-38,66,-40,63,-39,65,-41,63,-42,61,-43,61,-44,60,-46,58,-45,59,-46,57,-47,57,-48,55,-48,56,-49,54,-50,53,-50,53,-52,50,-52,51,-53,49,-53,48,-55,46,-56,45,-56,44,-56,44,-57,42,-56,44,-57,42,-59,39,-59,40,-60,37,-60,37,-61,35,-61,35,-62,33,-62,33,-63,30,-64,29,-63,29,-63,29,-64,27,-65,24,-65,25,-65,23,-67,20,-66,21,-67,19,-67,20,-67,16,-68,16,-68,13,-68,15,-68,14,-69,11,-69,9,-69,9,-69,8,-69,5,-69,5,-70,2,-70,3,-70,1,-70,0,-70,0,-70,-3,-70,-4,-70,-6,-70,-6,-70,-6,-70,-8,-69,-10,-69,-11,-69,-12,-69,-13,-69,-16,-69,-16,-69,-17,-69,-17,-69,-18,-68,-21,-68,-21,-68,-23,-67,-25,-67,-26,-67,-26,-67,-26,-66,-28,-65,-31,-65,-32,-65,-31,-65,-33,-64,-35,-64,-35,-64,-35,-63,-37,-62,-39,-62,-40,-61,-40,-60,-42,-60,-44,-59,-44,-59,-45,-58,-46,-58,-47,-57,-47,-57,-48,-55,-50,-54,-52,-55,-51,-54,-52,-52,-54,-52,-55,-51,-55,-50,-57,-49,-58,-50,-57,-47,-60,-48,-59,-46,-61,-46,-61,-44,-63,-44,-64,-44,-63,-42,-65,-42,-65,-39,-66,-39,-67,-39,-68,-38,-68,-37,-69,-36,-70,-33,-71,-35,-70,-33,-71,-31,-72,-30,-73,-30,-73,-27,-75,-27,-75,-26,-75,-25,-76,-24,-76,-22,-76,-22,-77,-22,-77,-20,-77,-18,-78,-17,-78,-17,-78,-14,-80,-13,-80,-11,-80,-12,-80,-10,-80,-9,-81,-7,-81,-8,-81,-5,-81,-5,-81,-5,-81,-2,-81,-1,-82,1,-81,2,-82,2,-82,2,-82,4,-82,6,-82,7,-82,10,-82,9,-81,11,-81,11,-81,12,-81,14,-81,14,-81,17,-80,18,-80,18,-81,20,-80,20,-80,23,-79,22,-79,24,-78,25,-78,27,-78,27,-78,28,-77,29,-77,30,-76,31,-76,32,-75,33,-75,34,-74,34,-74,36,-73,37,-73,39,-71,39,-71,40,-71,42,-69,42,-69,42,-69,42,-69,46,-66,45,-66,45,-66,47,-64,48,-64,48,-64,49,-62,51,-60,51,-60,52,-60,52,-59,53,-58,53,-58,56,-55,56,-54,56,-55,57,-52,58,-52,58,-51,59,-49,59,-49,61,-46,61,-46,61,-46,62,-44,62,-43,62,-43,63,-41,64,-39,65,-37,65,-35,65,-35,66,-34,65,-34,66,-32,67,-29,66,-30,67,-28,67,-27,68,-26,68,-24,68,-24,68,-22,68,-21,69,-20,69,-19,69,-15,69,-15,70,-12,69,-14,70,-11,70,-9,70,-10,70,-6,70,-4,70,-5,70,-2,70,-2,70,1,70,1" fill="#ffc9a9" stroke="black" stroke-width="1.6666666666666665" stroke-linejoin="round" filter="url(#fuzzy)"></polyline><g transform="translate(39.60142245670616 -20.508392065237484)"><polyline id="rightCountour" points="-33.2872975344124,-1.4805320606075454,-33.02141185214222,-1.609754295092496,-32.725508486682656,-1.7395141827143483,-32.399714393269846,-1.8695740616617749,-32.04421900325945,-1.999701610769948,-31.659271992046776,-2.1296698609616187,-31.24518104698685,-2.2592572066881966,-30.802309635314586,-2.388247417370832,-30.33107477206488,-2.516429648841491,-29.83194478799275,-2.6435984547840414,-29.30543709749344,-2.7695537981753287,-28.75211596652254,-2.894101062726257,-28.172590280516104,-3.017051064322871,-27.567511312310796,-3.1382200624674335,-26.93757049006397,-3.257429771719507,-26.283497165173834,-3.3745073731370323,-25.65073052927782,-3.518504866980146,-24.975707983619223,-3.6602255316182135,-24.259391431817313,-3.7992249288184867,-23.502995875308795,-3.935070837845692,-22.70796458488119,-4.06734507719691,-21.875945256081266,-4.195645182405015,-21.008767131163363,-4.319585943322136,-20.10841907024269,-4.438800804294623,-19.177028554318497,-4.552943130640973,-18.216841602832318,-4.661687344844191,-17.23020358842604,-4.7647299358700685,-16.219540931565003,-4.861790345022822,-15.187343657691045,-4.952611731749584,-14.13614879957047,-5.0369616228052125,-13.068524627502022,-5.114632448188876,-11.987055690049775,-5.1854419672638965,-10.894328647966027,-5.249233588472316,-9.79291888396915,-5.3058765860556605,-8.685377871041375,-5.355266217193351,-7.574221281911616,-5.397323742970271,-6.461917822388193,-5.431996356584908,-5.350878771206574,-5.459257022209595,-4.243448209057093,-5.479104227914266,-3.1418939194576327,-5.491561656065242,-2.0483989441362915,-5.4966777746104905,-0.9650537755890505,-5.494525352662829,0.10615083052260132,-5.485200903792556,1.163330440469018,-5.46882406044097,2.2047129423798033,-5.445536882866245,3.2286439783361667,-5.415503106033128,4.233591825963335,-5.378907327857952,5.218151746857948,-5.335954142220401,6.181049819185454,-5.28686722015351,7.12114627178248,-5.231888342623385,8.03743833709926,-5.171276388310098,8.929062640317,-5.105306279801207,9.79529714197524,-5.03426789160942,10.635562651444253,-4.958464923425825,11.449423928577378,-4.878213742020184,12.236590390878359,-4.793842195199748,12.996916443518675,-4.705688401238062,13.73040144953984,-4.614099517185239,14.437189357575683,-4.519430489471171,15.11756800442961,-4.422042790213127,15.771968109841843,-4.322303142639248,16.400961980781606,-4.220582239039355,17.00526194259932,-4.117253454654593,17.58571851437375,-4.012691560917344,18.143318345789066,-3.907271441452894,18.679181932877,-3.801366814254315,19.19393220050421,-3.694611820105092,19.687570463655497,-3.5865161555917893,20.160405409033377,-3.477262517514757,20.612772791920463,-3.367029612457369,21.045033114528,-3.2559916998927685,21.45756930434429,-3.1443181352906135,21.85078439248329,-3.0321729132238358,22.22509919203308,-2.9197142104753766,22.58094997640435,-2.8070939291449477,22.918786157678962,-2.694457239755774,23.239067964958377,-2.581942124361344,23.54226412271226,-2.4696789196521607,23.828849529126902,-2.3577898600624883,24.09930293445378,-2.2463886208770987,22.403949746398062,-0.41051427345621583,22.166917079719514,-0.24332156758017853,21.916938930086793,-0.07607041042663842,21.65384963111634,0.09121704608680425,21.377495359967714,0.25851522911615443,21.087734009577296,0.4257947748810319,20.784435060892065,0.5930221586546758,20.467479455103277,0.7601593247539571,20.13675946588021,0.9271633165293847,19.792178571603888,1.0939859063551196,19.433651327600792,1.2605732256189741,19.061103238376614,1.4268653947124277,18.67447062984994,1.5927961530206343,18.273700521586004,1.7582924889124274,17.858750499030418,1.9232742697303342,17.428858249137864,2.088080370450408,16.98303205065449,2.2530296268166783,16.520922658564523,2.4179869525665314,16.04222051682719,2.5827919247285682,15.54665626864022,2.7472593725770285,15.034001214576914,2.9111800168000235,14.504067719550562,3.0743211616443182,13.956709569560342,3.236427442799388,13.391822279172583,3.397221633783517,12.809343350691417,3.5564055135946537,12.209252485972897,3.7136607983887933,11.59157175183634,3.868650139948584,10.956365700027195,4.0210181937049585,10.303741442685133,4.170392759074472,9.633848684271541,4.316385994875141,8.946879710910313,4.458595712583471,8.24306933809596,4.596606750195472,7.522694817723033,4.729992429454345,6.786075705390814,4.858316099207629,6.0335736889373015,4.981132767656521,5.26559237915646,5.097990826260123,4.482577063652703,5.208433868057348,3.6850144247866696,5.312002603169242,2.873432222666138,5.408236874244431,2.0483989441362915,5.4966777746104905,1.210523418723045,5.5768698718939085,0.3604544024836862,5.648363539871447,-0.5011198692813856,5.710717401315593,-1.37347215950168,5.763500884596885,-2.255836736040531,5.806296896805815,-3.1474099066758456,5.838704616157076,-4.047350581403694,5.860342406438889,-4.954780861110818,5.870850856270132,-5.868786651661997,5.86989594592805,-6.788418302448315,5.857172344509261,-7.712691268442363,5.832406840186784,-8.640586794806332,5.7953619063258754,-9.571052623099067,5.745839406221381,-10.503003718128047,5.683684439219347,-11.435323014492347,5.608789330985648,-12.366862181862547,5.521097770684366,-13.296442408043653,5.420609097828639,-14.222855198866956,5.307382741566764,-15.144863193956976,5.181542815166264,-16.06120099741936,5.043282868458657,-16.970576022495816,4.892870801007701,-17.871669349232153,4.730653938763821,-18.76313659420527,4.557064276967469,-19.643608791355298,4.3726238920641824,-20.51169328296877,4.1779505253940386,-21.259902016399263,4.052418119063593,-21.998620879595407,3.9215009776497327,-22.726904438292692,3.785495453298431,-23.443773256909765,3.644727298821767,-24.148213393811965,3.499552526580848,-24.839175896574904,3.3503582673687395,-25.51557629724804,3.1975636292933896,-26.17629410761821,3.0416205566605607,-26.82017231447325,2.883014688856753,-27.446016874865506,2.722266219232133,-28.052596211375437,2.559930753983461,-28.638640707375167,2.3966001710370177,-29.202842202292054,2.232903478931534,-29.743853486872244,2.0695076757011144,-30.260287798444278,1.9071186077581697" fill="white" stroke="white" stroke-width="0" stroke-linejoin="round" filter="url(#fuzzy)"></polyline></g><g transform="translate(-40.61037962281142 -23.379685866564003)"><polyline id="leftCountour" points="29.89336642744578,-1.3380645791594181,29.66824405975199,-1.4412156301288506,29.415632272592788,-1.5459706852499546,29.135441232951685,-1.652160718612616,28.827647832311,-1.7596146476787022,28.49229346825296,-1.8681595577617478,28.129481826060882,-1.977620926506643,27.739376660320275,-2.0878228483693193,27.322199576519992,-2.1985882590964376,26.878227812653375,-2.309739160205073,26.407792020819393,-2.4210968434624065,25.911274048823778,-2.532482115365405,25.38910472178018,-2.6437155216205164,24.841761623711264,-2.75461757162335,24.26976687914991,-2.865008962938366,23.673684934740304,-2.974710805778565,23.113686561860916,-3.100862311437014,22.511581704051075,-3.227400481737335,21.868017816017186,-3.353884370194825,21.183903750914574,-3.479862593439093,20.46038676796924,-3.6048771200647014,19.698830367905067,-3.7284668401578265,18.90079294277916,-3.8501709202328844,18.068007226827806,-3.9695319483130582,17.202360534925724,-4.086098873888664,16.305875775261008,-4.19942974748731,15.380693222828468,-4.3090942645897625,14.429053040343927,-4.414676118625504,13.453278533181926,-4.515775167781865,12.45576012493955,-4.612009420360728,11.438940040228802,-4.7030168434167035,10.405297681300205,-4.788456999410742,9.357335685100104,-4.868012515613103,8.297566647364352,-4.941390390989648,7.228500500350792,-5.00832314530537,6.152632530813222,-5.068569815179123,5.072432024819362,-5.1219168018234695,3.990331526015388,-5.168178575203612,2.908716693939602,-5.207198239349336,1.8299167489878208,-5.238847963553889,0.7561954906330038,-5.2630292841937765,-0.3102571244982455,-5.279673281903378,-1.3673328580898219,-5.288740638838337,-2.41301253253825,-5.290221580761667,-3.4453728536903405,-5.28413570868653,-4.462592727313688,-5.270531724809578,-5.462959082697556,-5.249487057468868,-6.444872216781511,-5.221107389860224,-7.406850672209284,-5.185526097246044,-8.347535662705234,-5.142903597390444,-9.265695059170946,-5.09342661895472,-10.160226949899286,-5.037307392587034,-11.030162788303443,-4.9747827694402895,-11.874670141558315,-4.906113271852138,-12.69305505355174,-4.8315820809210255,-13.484764035542977,-4.7514939657122675,-14.249385697925831,-4.666174158828043,-14.986652036493945,-4.575967183075289,-15.696439386605622,-4.48123563396542,-16.37876905864562,-4.382358922779803,-17.033807668181417,-4.279731984934951,-17.661867174211267,-4.173763958381351,-18.26340463890162,-4.064876836769888,-18.83902172221119,-3.9535041021197976,-19.38946392479924,-3.840089341722076,-19.915619592615478,-3.725084854012326,-20.41816424620712,-3.6080467445650175,-20.897191474395967,-3.48836107332042,-21.35284939546153,-3.3662297470951446,-21.78531968772885,-3.2418528100800916,-22.19481579526919,-3.1154278098305324,-22.581581133600785,-2.9871491632561975,-22.94588729538959,-2.8572075226113807,-23.288032256149986,-2.7257891414850155,-23.608338579945528,-2.5930752407907813,-23.907151625089668,-2.4592413747571853,-24.184837749846487,-2.324456796917658,-24.441782518131433,-2.1888838261006454,-24.67838890521204,-2.0526772124196984,-24.895075503408673,-1.915983503263565,-22.582475818300104,0.055606887932590054,-22.23737151807087,0.23274389664064554,-21.87872595133698,0.4092370350545369,-21.506673638597665,0.5849894510336426,-21.12137941422283,0.7598985963643443,-20.723036477837056,0.9338563835150027,-20.311864445703666,1.1067493423909294,-19.888107402108748,1.2784587770893614,-19.45203195074521,1.4488609226544285,-19.003925266096818,1.6178271018321344,-18.544093144822224,1.7852238818253192,-18.072858057139015,1.9509132310486401,-17.590557198207772,2.1147526758835395,-17.09754053951606,2.2765954574332183,-16.59416888026254,2.436290688277611,-16.078697103560717,2.5943892055585915,-15.549491296804629,2.7513292667473936,-15.00709025795382,2.906782630555464,-14.452036546409678,3.0604145813933097,-13.884874112119515,3.2118849880649636,-13.30614593136726,3.360849379297885,-12.716391663800161,3.5069600349378476,-12.116145345241314,3.6498670916383773,-11.505933130837603,3.789219661874305,-10.886271103092751,3.9246669651089983,-10.257663159335147,4.055859469944841,-9.620598993170113,4.182450046086499,-8.975552184466265,4.304095124946567,-8.322978412425647,4.420455867723142,-7.663313806287302,4.531199339778884,-6.99697344821394,4.6359996901511416,-6.324350042911376,4.734539335022681,-5.645812768530383,4.826510143982605,-4.961706323400678,4.911614627907022,-4.272350183146638,4.9895671272890025,-3.578038082734462,5.060094999847425,-2.8790377380004264,5.122939806244244,-2.1755908212098953,5.177858492739758,-1.4679132051967645,5.224624569615413,-0.7561954906330037,5.2630292841937765,-0.040603830977939515,5.292882787285146,0.6787189303430182,5.314015291890428,1.4016517959805737,5.32627822298981,2.128093809374975,5.329545357246841,2.8579618935910283,5.323713951457401,3.5911883197250276,5.308705858573198,4.327717790333918,5.284468630129323,5.067504123337056,5.250976603905415,5.810506521840866,5.208231975650031,6.556685415336763,5.156265853697745,7.305997857722657,5.095139295308587,8.058392467598349,5.024944323559324,8.813803896285215,4.945804923616213,9.57214680902045,4.857878017218724,10.333309364776238,4.761354414203851,11.097146180154184,4.656459739900538,11.863470762805335,4.543455337223801,12.632047399826089,4.4226391422980855,13.402582486580407,4.294346532439473,14.174715281398594,4.158951145326223,14.948008071603002,4.016865668187302,15.721935736311,3.868542595838373,16.495874691465524,3.7144749563948816,17.269091202543574,3.5551970034917666,18.040729050392947,3.3912848738393504,18.671860941148985,3.2713383489098007,19.29800718751279,3.148601690138145,19.918460048055227,3.0233424519002075,20.532457392260635,2.8958437613243753,21.139181038393666,2.7664046308428762,21.737755091366008,2.635340270743054,22.327244280603274,2.50298240171865,22.90665229791172,2.3696795674210787,23.474920135345073,2.2357974470107047,24.030924423071358,2.1017191677081195,24.573475767239636,1.9678456173454215,25.101317087846837,1.8345957569174924,25.61312195660456,1.7024069331332758,26.10749293480584,1.571735190967051,26.582959911191985,1.4430555862097165" fill="white" stroke="white" stroke-width="0" stroke-linejoin="round" filter="url(#fuzzy)"></polyline></g><g transform="translate(39.60142245670616 -20.508392065237484)"><polyline id="rightUpper" points="-34.31639067911495,-0.27396189398384374,-34.3423236833203,-0.38356943561931334,-34.34089669612146,-0.4963824670247755,-34.31148914716607,-0.6121105491833181,-34.253565263020086,-0.7304684693137268,-34.16667183508789,-0.8511762523115658,-34.05043598753242,-0.9739591721902581,-33.90456294519526,-1.098547763522165,-33.728833801516835,-1.2246778328796664,-33.52310328645643,-1.3520904702762406,-33.2872975344124,-1.4805320606075454,-33.02141185214222,-1.609754295092496,-32.725508486682656,-1.7395141827143483,-32.399714393269846,-1.8695740616617749,-32.04421900325945,-1.999701610769948,-31.659271992046776,-2.1296698609616187,-31.24518104698685,-2.2592572066881966,-30.802309635314586,-2.388247417370832,-30.33107477206488,-2.516429648841491,-29.83194478799275,-2.6435984547840414,-29.30543709749344,-2.7695537981753287,-28.75211596652254,-2.894101062726257,-28.172590280516104,-3.017051064322871,-27.567511312310796,-3.1382200624674335,-26.93757049006397,-3.257429771719507,-26.283497165173834,-3.3745073731370323,-25.65073052927782,-3.518504866980146,-24.975707983619223,-3.6602255316182135,-24.259391431817313,-3.7992249288184867,-23.502995875308795,-3.935070837845692,-22.70796458488119,-4.06734507719691,-21.875945256081266,-4.195645182405015,-21.008767131163363,-4.319585943322136,-20.10841907024269,-4.438800804294623,-19.177028554318497,-4.552943130640973,-18.216841602832318,-4.661687344844191,-17.23020358842604,-4.7647299358700685,-16.219540931565003,-4.861790345022822,-15.187343657691045,-4.952611731749584,-14.13614879957047,-5.0369616228052125,-13.068524627502022,-5.114632448188876,-11.987055690049775,-5.1854419672638965,-10.894328647966027,-5.249233588472316,-9.79291888396915,-5.3058765860556605,-8.685377871041375,-5.355266217193351,-7.574221281911616,-5.397323742970271,-6.461917822388193,-5.431996356584908,-5.350878771206574,-5.459257022209595,-4.243448209057093,-5.479104227914266,-3.1418939194576327,-5.491561656065242,-2.0483989441362915,-5.4966777746104905,-0.9650537755890505,-5.494525352662829,0.10615083052260132,-5.485200903792556,1.163330440469018,-5.46882406044097,2.2047129423798033,-5.445536882866245,3.2286439783361667,-5.415503106033128,4.233591825963335,-5.378907327857952,5.218151746857948,-5.335954142220401,6.181049819185454,-5.28686722015351,7.12114627178248,-5.231888342623385,8.03743833709926,-5.171276388310098,8.929062640317,-5.105306279801207,9.79529714197524,-5.03426789160942,10.635562651444253,-4.958464923425825,11.449423928577378,-4.878213742020184,12.236590390878359,-4.793842195199748,12.996916443518675,-4.705688401238062,13.73040144953984,-4.614099517185239,14.437189357575683,-4.519430489471171,15.11756800442961,-4.422042790213127,15.771968109841843,-4.322303142639248,16.400961980781606,-4.220582239039355,17.00526194259932,-4.117253454654593,17.58571851437375,-4.012691560917344,18.143318345789066,-3.907271441452894,18.679181932877,-3.801366814254315,19.19393220050421,-3.694611820105092,19.687570463655497,-3.5865161555917893,20.160405409033377,-3.477262517514757,20.612772791920463,-3.367029612457369,21.045033114528,-3.2559916998927685,21.45756930434429,-3.1443181352906135,21.85078439248329,-3.0321729132238358,22.22509919203308,-2.9197142104753766,22.58094997640435,-2.8070939291449477,22.918786157678962,-2.694457239755774,23.239067964958377,-2.581942124361344,23.54226412271226,-2.4696789196521607,23.828849529126902,-2.3577898600624883,24.09930293445378,-2.2463886208770987,24.354104619358047,-2.135579861338029,24.59373407326703,-2.0254587677513225,24.81866767271875,-1.9161105965937804,25.029376359710444,-1.8076102176197142,25.226323320047022,-1.7000216569676878,25.409961661689636,-1.5933976402672718,25.580732093104142,-1.4877791357457921,25.739060601609633,-1.383194897335077,25.885356131726933,-1.2796610077782091,26.020008263527124,-1.1771804217362707" fill="none" stroke="black" stroke-width="1.6666666666666665" stroke-linejoin="round" filter="url(#fuzzy)"></polyline><polyline id="rightLower" points="-33.738518435041556,0.523380653976953,-33.55318843891211,0.6277200718429483,-33.3271273630744,0.7424503041711907,-33.06214526488014,0.8664297822052358,-32.760007600899,0.9985643743962176,-32.422435731655156,1.1378065275199176,-32.051107426363686,1.2831544077938404,-31.64765736766696,1.4336510419942845,-31.213677656371146,1.5883834585734147,-30.750718316182585,1.7464818287763375,-30.260287798444278,1.9071186077581697,-29.743853486872244,2.0695076757011144,-29.202842202292054,2.232903478931534,-28.638640707375167,2.3966001710370177,-28.052596211375437,2.559930753983461,-27.446016874865506,2.722266219232133,-26.82017231447325,2.883014688856753,-26.17629410761821,3.0416205566605607,-25.51557629724804,3.1975636292933896,-24.839175896574904,3.3503582673687395,-24.148213393811965,3.499552526580848,-23.443773256909765,3.644727298821767,-22.726904438292692,3.785495453298431,-21.998620879595407,3.9215009776497327,-21.259902016399263,4.052418119063593,-20.51169328296877,4.1779505253940386,-19.643608791355298,4.3726238920641824,-18.76313659420527,4.557064276967469,-17.871669349232153,4.730653938763821,-16.970576022495816,4.892870801007701,-16.06120099741936,5.043282868458657,-15.144863193956976,5.181542815166264,-14.222855198866956,5.307382741566764,-13.296442408043653,5.420609097828639,-12.366862181862547,5.521097770684366,-11.435323014492347,5.608789330985648,-10.503003718128047,5.683684439219347,-9.571052623099067,5.745839406221381,-8.640586794806332,5.7953619063258754,-7.712691268442363,5.832406840186784,-6.788418302448315,5.857172344509261,-5.868786651661997,5.86989594592805,-4.954780861110818,5.870850856270132,-4.047350581403694,5.860342406438889,-3.1474099066758456,5.838704616157076,-2.255836736040531,5.806296896805815,-1.37347215950168,5.763500884596885,-0.5011198692813856,5.710717401315593,0.3604544024836862,5.648363539871447,1.210523418723045,5.5768698718939085,2.0483989441362915,5.4966777746104905,2.873432222666138,5.408236874244431,3.6850144247866696,5.312002603169242,4.482577063652703,5.208433868057348,5.26559237915646,5.097990826260123,6.0335736889373015,4.981132767656521,6.786075705390814,4.858316099207629,7.522694817723033,4.729992429454345,8.24306933809596,4.596606750195472,8.946879710910313,4.458595712583471,9.633848684271541,4.316385994875141,10.303741442685133,4.170392759074472,10.956365700027195,4.0210181937049585,11.59157175183634,3.868650139948584,12.209252485972897,3.7136607983887933,12.809343350691417,3.5564055135946537,13.391822279172583,3.397221633783517,13.956709569560342,3.236427442799388,14.504067719550562,3.0743211616443182,15.034001214576914,2.9111800168000235,15.54665626864022,2.7472593725770285,16.04222051682719,2.5827919247285682,16.520922658564523,2.4179869525665314,16.98303205065449,2.2530296268166783,17.428858249137864,2.088080370450408,17.858750499030418,1.9232742697303342,18.273700521586004,1.7582924889124274,18.67447062984994,1.5927961530206343,19.061103238376614,1.4268653947124277,19.433651327600792,1.2605732256189741,19.792178571603888,1.0939859063551196,20.13675946588021,0.9271633165293847,20.467479455103277,0.7601593247539571,20.784435060892065,0.5930221586546758,21.087734009577296,0.4257947748810319,21.377495359967714,0.25851522911615443,21.65384963111634,0.09121704608680425,21.916938930086793,-0.07607041042663842,22.166917079719514,-0.24332156758017853,22.403949746398062,-0.41051427345621583,22.62821456781541,-0.5776294270535558,22.83990128074019,-0.7446506082774154,23.039211848782962,-0.9115637079294333,23.226360590162553,-1.0783565576976781,23.40157430547225,-1.2450185601466548,23.565092405446116,-1.4115403187073214,23.71716703872527,-1.5779132676670853,23.85806321962416,-1.7441293021598225,23.988058955896815,-1.9101804081558795,24.107445376503158,-2.0760582924520854" fill="none" stroke="black" stroke-width="2.2222222222222223" stroke-linejoin="round" filter="url(#fuzzy)"></polyline><!--[--><circle r="4.460673570374819" cx="16.98581584906645" cy="-1.9619517159011617" stroke="black" fill="none" stroke-width="1" filter="url(#fuzzy)" clip-path="url(#rightEyeClipPath)"></circle><circle r="3.077824274822504" cx="17.10106509094728" cy="-0.39548177257776373" stroke="black" fill="none" stroke-width="1" filter="url(#fuzzy)" clip-path="url(#rightEyeClipPath)"></circle><circle r="3.215191195197967" cx="13.265768742209854" cy="-2.7091049444692548" stroke="black" fill="none" stroke-width="1" filter="url(#fuzzy)" clip-path="url(#rightEyeClipPath)"></circle><circle r="4.722381229397139" cx="16.940499178100644" cy="-2.5832628759767964" stroke="black" fill="none" stroke-width="1" filter="url(#fuzzy)" clip-path="url(#rightEyeClipPath)"></circle><circle r="3.2766038672472666" cx="15.201318464405688" cy="-2.12640092705664" stroke="black" fill="none" stroke-width="1" filter="url(#fuzzy)" clip-path="url(#rightEyeClipPath)"></circle><circle r="3.208636782081807" cx="14.722314923622513" cy="-1.4415255551051012" stroke="black" fill="none" stroke-width="1" filter="url(#fuzzy)" clip-path="url(#rightEyeClipPath)"></circle><circle r="4.762405833103532" cx="13.365385345463682" cy="0.9693266817872148" stroke="black" fill="none" stroke-width="1" filter="url(#fuzzy)" clip-path="url(#rightEyeClipPath)"></circle><circle r="3.5128047129854987" cx="16.113753075563896" cy="1.0435488542019726" stroke="black" fill="none" stroke-width="1" filter="url(#fuzzy)" clip-path="url(#rightEyeClipPath)"></circle><circle r="4.115347763980547" cx="12.686306780742898" cy="-0.2590088943274065" stroke="black" fill="none" stroke-width="1" filter="url(#fuzzy)" clip-path="url(#rightEyeClipPath)"></circle><circle r="3.254129832091188" cx="14.965715922058404" cy="-1.4051724964108396" stroke="black" fill="none" stroke-width="1" filter="url(#fuzzy)" clip-path="url(#rightEyeClipPath)"></circle><!--]--></g><g transform="translate(-40.61037962281142 -23.379685866564003)"><polyline id="leftUpper" points="30.70458454856259,-0.4300401006647726,30.733150014698186,-0.5084676462017125,30.739282286715767,-0.5900269549192538,30.722102274673652,-0.6745819135702615,30.680819797117554,-0.761992107482712,30.61473136268171,-0.8521130450393787,30.523217951690043,-0.9447963821575198,30.405742797757284,-1.0398901467685646,30.261849169390107,-1.137238963297801,30.09115815158827,-1.2366842771440638,29.89336642744578,-1.3380645791594181,29.66824405975199,-1.4412156301288506,29.415632272592788,-1.5459706852499546,29.135441232951685,-1.652160718612616,28.827647832311,-1.7596146476787022,28.49229346825296,-1.8681595577617478,28.129481826060882,-1.977620926506643,27.739376660320275,-2.0878228483693193,27.322199576519992,-2.1985882590964376,26.878227812653375,-2.309739160205073,26.407792020819393,-2.4210968434624065,25.911274048823778,-2.532482115365405,25.38910472178018,-2.6437155216205164,24.841761623711264,-2.75461757162335,24.26976687914991,-2.865008962938366,23.673684934740304,-2.974710805778565,23.113686561860916,-3.100862311437014,22.511581704051075,-3.227400481737335,21.868017816017186,-3.353884370194825,21.183903750914574,-3.479862593439093,20.46038676796924,-3.6048771200647014,19.698830367905067,-3.7284668401578265,18.90079294277916,-3.8501709202328844,18.068007226827806,-3.9695319483130582,17.202360534925724,-4.086098873888664,16.305875775261008,-4.19942974748731,15.380693222828468,-4.3090942645897625,14.429053040343927,-4.414676118625504,13.453278533181926,-4.515775167781865,12.45576012493955,-4.612009420360728,11.438940040228802,-4.7030168434167035,10.405297681300205,-4.788456999410742,9.357335685100104,-4.868012515613103,8.297566647364352,-4.941390390989648,7.228500500350792,-5.00832314530537,6.152632530813222,-5.068569815179123,5.072432024819362,-5.1219168018234695,3.990331526015388,-5.168178575203612,2.908716693939602,-5.207198239349336,1.8299167489878208,-5.238847963553889,0.7561954906330038,-5.2630292841937765,-0.3102571244982455,-5.279673281903378,-1.3673328580898219,-5.288740638838337,-2.41301253253825,-5.290221580761667,-3.4453728536903405,-5.28413570868653,-4.462592727313688,-5.270531724809578,-5.462959082697556,-5.249487057468868,-6.444872216781511,-5.221107389860224,-7.406850672209284,-5.185526097246044,-8.347535662705234,-5.142903597390444,-9.265695059170946,-5.09342661895472,-10.160226949899286,-5.037307392587034,-11.030162788303443,-4.9747827694402895,-11.874670141558315,-4.906113271852138,-12.69305505355174,-4.8315820809210255,-13.484764035542977,-4.7514939657122675,-14.249385697925831,-4.666174158828043,-14.986652036493945,-4.575967183075289,-15.696439386605622,-4.48123563396542,-16.37876905864562,-4.382358922779803,-17.033807668181417,-4.279731984934951,-17.661867174211267,-4.173763958381351,-18.26340463890162,-4.064876836769888,-18.83902172221119,-3.9535041021197976,-19.38946392479924,-3.840089341722076,-19.915619592615478,-3.725084854012326,-20.41816424620712,-3.6080467445650175,-20.897191474395967,-3.48836107332042,-21.35284939546153,-3.3662297470951446,-21.78531968772885,-3.2418528100800916,-22.19481579526919,-3.1154278098305324,-22.581581133600785,-2.9871491632561975,-22.94588729538959,-2.8572075226113807,-23.288032256149986,-2.7257891414850155,-23.608338579945528,-2.5930752407907813,-23.907151625089668,-2.4592413747571853,-24.184837749846487,-2.324456796917658,-24.441782518131433,-2.1888838261006454,-24.67838890521204,-2.0526772124196984,-24.895075503408673,-1.915983503263565,-25.092274727795257,-1.7789404092862855,-25.270431021900006,-1.6416761703972795,-25.42999906340613,-1.5043089217514385,-25.57144196985264,-1.366946059739222,-25.695229504334986,-1.2296836079767433,-25.801836281205837,-1.092605583295863,-25.891739971775838,-0.955783361734284,-25.96541951001427,-0.8192750445256389,-26.02335329824986,-0.6831248240895853,-26.066017412871457,-0.5473623500218938" fill="none" stroke="black" stroke-width="2.2222222222222223" stroke-linejoin="round" filter="url(#fuzzy)"></polyline><polyline id="leftLower" points="29.919196633133947,0.3845578316608892,29.73080218075258,0.46278214001097806,29.50443995431823,0.5488634998738793,29.24239820793325,0.6421195569722682,28.946875901816206,0.7418900933582118,28.619984364435105,0.847536714861892,28.263748954640576,0.958442538540327,27.88011072379907,1.074011880126094,27.470928077926082,1.1936699414760517,27.03797843981933,1.3168624980200632,26.582959911191985,1.4430555862097165,26.10749293480584,1.571735190967051,25.61312195660456,1.7024069331332758,25.101317087846837,1.8345957569174924,24.573475767239636,1.9678456173454215,24.030924423071358,2.1017191677081195,23.474920135345073,2.2357974470107047,22.90665229791172,2.3696795674210787,22.327244280603274,2.50298240171865,21.737755091366008,2.635340270743054,21.139181038393666,2.7664046308428762,20.532457392260635,2.8958437613243753,19.918460048055227,3.0233424519002075,19.29800718751279,3.148601690138145,18.671860941148985,3.2713383489098007,18.040729050392947,3.3912848738393504,17.269091202543574,3.5551970034917666,16.495874691465524,3.7144749563948816,15.721935736311,3.868542595838373,14.948008071603002,4.016865668187302,14.174715281398594,4.158951145326223,13.402582486580407,4.294346532439473,12.632047399826089,4.4226391422980855,11.863470762805335,4.543455337223801,11.097146180154184,4.656459739900538,10.333309364776238,4.761354414203851,9.57214680902045,4.857878017218724,8.813803896285215,4.945804923616213,8.058392467598349,5.024944323559324,7.305997857722657,5.095139295308587,6.556685415336763,5.156265853697745,5.810506521840866,5.208231975650031,5.067504123337056,5.250976603905415,4.327717790333918,5.284468630129323,3.5911883197250276,5.308705858573198,2.8579618935910283,5.323713951457401,2.128093809374975,5.329545357246841,1.4016517959805737,5.32627822298981,0.6787189303430182,5.314015291890428,-0.040603830977939515,5.292882787285146,-0.7561954906330037,5.2630292841937765,-1.4679132051967645,5.224624569615413,-2.1755908212098953,5.177858492739758,-2.8790377380004264,5.122939806244244,-3.578038082734462,5.060094999847425,-4.272350183146638,4.9895671272890025,-4.961706323400678,4.911614627907022,-5.645812768530383,4.826510143982605,-6.324350042911376,4.734539335022681,-6.99697344821394,4.6359996901511416,-7.663313806287302,4.531199339778884,-8.322978412425647,4.420455867723142,-8.975552184466265,4.304095124946567,-9.620598993170113,4.182450046086499,-10.257663159335147,4.055859469944841,-10.886271103092751,3.9246669651089983,-11.505933130837603,3.789219661874305,-12.116145345241314,3.6498670916383773,-12.716391663800161,3.5069600349378476,-13.30614593136726,3.360849379297885,-13.884874112119515,3.2118849880649636,-14.452036546409678,3.0604145813933097,-15.00709025795382,2.906782630555464,-15.549491296804629,2.7513292667473936,-16.078697103560717,2.5943892055585915,-16.59416888026254,2.436290688277611,-17.09754053951606,2.2765954574332183,-17.590557198207772,2.1147526758835395,-18.072858057139015,1.9509132310486401,-18.544093144822224,1.7852238818253192,-19.003925266096818,1.6178271018321344,-19.45203195074521,1.4488609226544285,-19.888107402108748,1.2784587770893614,-20.311864445703666,1.1067493423909294,-20.723036477837056,0.9338563835150027,-21.12137941422283,0.7598985963643443,-21.506673638597665,0.5849894510336426,-21.87872595133698,0.4092370350545369,-22.23737151807087,0.23274389664064554,-22.582475818300104,0.055606887932590054,-22.91393659401205,-0.12208299175697118,-23.231685798296663,-0.30024075269832207,-23.535691543962404,-0.47878757149965684,-23.825960052152244,-0.6576509478620538,-24.102537600959593,-0.8367648613344485,-24.36551247404429,-1.016069928068609,-24.615016909248528,-1.1955135575741023,-24.85122904721282,-1.3750501094732717,-25.07437487999198,-1.5546410502562065,-25.28473019967109,-1.7342551100357173" fill="none" stroke="black" stroke-width="2.2222222222222223" stroke-linejoin="round" filter="url(#fuzzy)"></polyline><!--[--><circle r="4.39720581336274" cx="14.276416004723835" cy="-3.1444402399418796" stroke="black" fill="none" stroke-width="1" filter="url(#fuzzy)" clip-path="url(#leftEyeClipPath)"></circle><circle r="4.282603204528365" cx="17.26618187820444" cy="-1.9702063914024424" stroke="black" fill="none" stroke-width="1" filter="url(#fuzzy)" clip-path="url(#leftEyeClipPath)"></circle><circle r="4.127369067671177" cx="18.69259463183189" cy="-2.2658628408589507" stroke="black" fill="none" stroke-width="1" filter="url(#fuzzy)" clip-path="url(#leftEyeClipPath)"></circle><circle r="4.742763537906507" cx="15.012023679099144" cy="-0.15425676284920264" stroke="black" fill="none" stroke-width="1" filter="url(#fuzzy)" clip-path="url(#leftEyeClipPath)"></circle><circle r="3.7937027576499416" cx="15.70594152342684" cy="-0.07997815020816734" stroke="black" fill="none" stroke-width="1" filter="url(#fuzzy)" clip-path="url(#leftEyeClipPath)"></circle><circle r="4.727970110629253" cx="16.87661136994162" cy="-2.8112094879419285" stroke="black" fill="none" stroke-width="1" filter="url(#fuzzy)" clip-path="url(#leftEyeClipPath)"></circle><circle r="3.417342390720534" cx="18.208002648909073" cy="-2.3055797028483243" stroke="black" fill="none" stroke-width="1" filter="url(#fuzzy)" clip-path="url(#leftEyeClipPath)"></circle><circle r="3.542226096679522" cx="17.195529553712092" cy="0.2857159372216129" stroke="black" fill="none" stroke-width="1" filter="url(#fuzzy)" clip-path="url(#leftEyeClipPath)"></circle><circle r="4.757250073620801" cx="18.124904347020934" cy="-2.9289481581461527" stroke="black" fill="none" stroke-width="1" filter="url(#fuzzy)" clip-path="url(#leftEyeClipPath)"></circle><circle r="3.879517283074085" cx="19.25013939948972" cy="-0.2447585014504048" stroke="black" fill="none" stroke-width="1" filter="url(#fuzzy)" clip-path="url(#leftEyeClipPath)"></circle><!--]--></g><g id="hairs"><!--[--><polyline points="45,-66,8.064681006391366,-73.3975961105746,-0.9668854447148711,-74.43113994703843,-5.160780495504473,-72.91383929035534,-6.519592066710962,-71.90273979273178,-3.924351159173966,-71.98660928601294,1.2038063691954501,-72.44537240493226,6.535264680668387,-72.58682200667,10.743926522545511,-72.32907130701624,13.57708960476769,-72.12764664648248,15.14052963256836,-72.5253095626831,15.599529262664701,-73.64373048646564,15.300673637915107,-74.95811687459363,14.657689653144793,-75.5282248204478,13.616823110172927,-74.53994447893233,11.476159240544803,-71.79829096699086,8.201899808271175,-67.84283931184372,7.26181802104033,-63.46614401043852,16.825908727521394,-58.5050059553399,41.89890963818783,-50.86136694996132,62,-43" fill="none" stroke="rgb(220, 208, 186)" stroke-width="2" stroke-linejoin="round" filter="url(#fuzzy)"></polyline><polyline points="48,-64,11.34389806314477,-68.96108262268112,0.46903474037004017,-65.69612318107727,2.1797300944589177,-64.88566168777298,7.49836859554193,-66.95530764327268,13.250209820126118,-69.9263918997476,18.062856500085633,-72.33227378689315,21.505681159159675,-73.62120233011885,23.780781204902272,-73.7444066059497,24.90277862548828,-72.8277359008789,24.063572338272106,-71.15544235086668,19.884544665752543,-69.28237051929614,11.441884603062395,-67.95135425065246,-0.7100549077771143,-67.64467496328183,-14.385841888884896,-68.03208718931245,-26.78904930204768,-67.98782059158677,-36.0351030309872,-66.50483488986069,-42.36735188693375,-63.29364914547111,-50,-57" fill="none" stroke="rgb(220, 208, 186)" stroke-width="2" stroke-linejoin="round" filter="url(#fuzzy)"></polyline><polyline points="52,-59,9.737669140223517,-68.21189846793933,12.505201096948584,-70.79821364988493,24.551320942531376,-68.92021255829721,32.84452030019134,-66.60498285048487,33.967732626145704,-65.50694079713209,28.60220010212711,-65.41813018624171,19.43761774035901,-65.62348555353742,10.1038067339023,-65.55921368901437,3.8956365600170004,-65.00056218264619,2.4206309639873966,-64.15129669268758,4.8645892560824615,-63.626793781012594,8.388304059067888,-64.18980775655523,9.729168104262115,-66.2883032709274,7.421780874386829,-69.68070915477955,3.1486265634075004,-73.44275066452526,0.6026040107546129,-76.33733989343965,2.766655947284317,-77.05014776235119,13.465281038478484,-73.61998554756374,49,-62" fill="none" stroke="rgb(220, 208, 186)" stroke-width="2" stroke-linejoin="round" filter="url(#fuzzy)"></polyline><polyline points="58,-51,52.693991048709584,-56.116833735868084,43.05689217325563,-61.781284507608305,30.920133150536838,-67.16248777561378,19.220162724592715,-69.0223990037151,7.463670359508033,-67.15790616592163,-4.9505491773013555,-63.538448351081925,-16.565627032166105,-60.370296320043714,-24.756217805654828,-58.92271906761276,-27.769204673748717,-59.344905377695085,-25.891860229845356,-61.074533034946604,-21.096535682678223,-63.369837522506714,-15.730663604069544,-65.64785571160337,-11.299536171424474,-67.53241731739831,-8.113045936188083,-68.7488977242912,-5.827775805988443,-69.12335561889155,-4.234334904460062,-68.79440290760401,-3.5309667530138755,-68.36999293233244,-3.957533744773989,-68.54898504703907,-5.712359309521492,-69.19194930827221,-10.383320546980826,-69.03343987118434,-21.059968158101327,-68.32148191299342,-22,-76" fill="none" stroke="rgb(220, 208, 186)" stroke-width="2" stroke-linejoin="round" filter="url(#fuzzy)"></polyline><polyline points="57,-52,37.37011398944745,-44.33705674419564,16.62207315914309,-45.974516722485575,6.751181140587157,-51.03686606679912,2.3117378011811525,-56.30553119140677,0.7587110842057815,-60.112253905631164,0.622200385829661,-62.53712931693899,0.09293772976961877,-64.42917938564052,-2.1355438232421875,-66.31950378417969,-6.059052255453499,-68.03083654711979,-10.612011360684914,-68.91061550184739,-14.023353315561062,-68.3908899314965,-13.576401103986427,-66.69708907860331,-6.600921354166992,-65.34916411329236,4.190327114016032,-66.6800213214015,3.168332065415246,-71.4750101639053,-30,-73" fill="none" stroke="rgb(220, 208, 186)" stroke-width="2" stroke-linejoin="round" filter="url(#fuzzy)"></polyline><polyline points="7,-82,24.703472234387934,-70.71927892052759,12.357037117484273,-66.97447586272114,-0.2216850081164262,-64.08811814201223,-3.448100455342161,-61.01538221019539,0.32665326424968044,-57.81492812219701,5.92249307942927,-55.096795380027416,9.68634290045945,-53.48935253110582,10.898887126326052,-53.02967120190555,11.215701427308423,-53.1195909817349,12.817166781365444,-53.098621002974916,16.528014358189953,-52.8627582554358,21.176104485988617,-52.96201729774475,24.551964605834627,-54.11836812716735,25.194907025660207,-56.590523462087425,23.669934939076015,-59.87936621337911,22.343724020520543,-62.9512955201202,23.675765450666372,-64.79630124496283,28.087007295070404,-65.01656665232022,32.88069539320704,-64.22113827595334,33.16193741832548,-64.01735649369759,24.624441669031253,-66.26095799939424,7.328849210342266,-71.37286122812957,-10.876433224282277,-76.62649111829744,-17,-78" fill="none" stroke="rgb(220, 208, 186)" stroke-width="2" stroke-linejoin="round" filter="url(#fuzzy)"></polyline><polyline points="-17,-78,29.87429330966664,-61.168988565334814,45.438136946397265,-55.66938587728765,48.454777147454585,-54.06347199996042,44.94543848707856,-55.645012314821,37.89302779567146,-58.82618435245716,29.32777603513608,-61.69228330814161,21.20453657784987,-63.06648067692372,15.251069066544657,-62.78371525376046,12.201786084143365,-61.47401768701532,11.486952680329027,-60.13163740094393,11.811628535154075,-59.638140949664844,12.112828243340191,-60.40644409662053,12.09842089163135,-62.28215216855226,11.994741073531845,-64.73152847311766,11.782425639057099,-67.20210234990763,10.63232968058298,-69.43219307671943,7.2158392763017165,-71.49364125432234,0.9493477274049431,-73.52935750206086,-6.8166155812271985,-75.4109691393168,-13.406966798539324,-76.63109731447611,-18.092322856950275,-76.40115574777883,-25.507366230902548,-73.3774700327053,-42,-65" fill="none" stroke="rgb(220, 208, 186)" stroke-width="2" stroke-linejoin="round" filter="url(#fuzzy)"></polyline><polyline points="65,-35,4.945258768161059,-50.81410550010552,6.16067490465035,-59.74468937820968,18.555566571623,-63.246385675030666,24.7625706987613,-64.77451705750316,22.144880972317246,-66.10671102653747,13.856243354088242,-67.94631101205401,4.368383455543401,-70.34876813201718,-2.935164631081665,-72.95277595671655,-6.482426020466099,-75.26475720216108,-6.149165430152975,-76.93700995762865,-2.770525065381865,-77.88773793253775,1.9902416368487978,-78.23056080266466,5.768068562088636,-78.10443836646337,6.320325780061121,-77.49670692332877,3.3153099736281044,-76.11036372654647,0.4004551241780303,-73.42565332456643,5.675596318516316,-69.31770409523742,26.543518064176148,-65.2739927318958,48,-64" fill="none" stroke="rgb(220, 208, 186)" stroke-width="2" stroke-linejoin="round" filter="url(#fuzzy)"></polyline><polyline points="-38,-68,-16.18146991460656,-71.35138704723796,-4.367854343106893,-70.05696919000573,-0.9575627790445773,-68.55924425265445,0.23907067052434383,-67.21214686935582,1.0468143626483895,-65.52042219095557,0.5610278228049811,-63.58596569027389,-1.9297150053530847,-62.022270364616055,-5.2600829106357185,-61.341819231302885,-7.140964172920944,-61.59195285945349,-6.30969169737027,-62.407606110271836,-3.9478042125701904,-63.270275831222534,-3.081911164767025,-63.728158161571216,-6.402153592421757,-63.49161878615441,-14.095309607819615,-62.47912271030083,-23.174890555402577,-60.909408257949096,-28.67743481647094,-59.39441139023553,-25.944750590678357,-58.82145442781131,-12.932553347327215,-59.83392762018037,7.943994457032415,-62.0657183956026,28.74211931101313,-64.03694205704004,37.0870130992359,-65.99333617580659,18,-80" fill="none" stroke="rgb(220, 208, 186)" stroke-width="2" stroke-linejoin="round" filter="url(#fuzzy)"></polyline><polyline points="34,-74,13.132682208866148,-63.84371330703492,26.75781142523795,-56.50802949878551,31.67257200228939,-55.208462196006955,22.55124924740052,-56.766019741178084,6.625645380604573,-58.14305297553713,-6.972790381501186,-58.533968341018785,-12.561509911473694,-58.371310336431726,-9.875894934879545,-58.17925070483099,-3.1233662912130646,-58.246611196025505,1.9137420971860757,-58.703440239108225,1.110520310022054,-59.53839171754578,-6.088747137280217,-60.557461321204094,-16.949846753703408,-61.454330156172475,-27.49745055047545,-61.97770176671157,-34.83890808589006,-62.05898796197704,-38.15400061283654,-61.92001088966991,-37.87092694703342,-62.282732474571134,-34.42935287004867,-64.3631173933008,-29.176693068411236,-68.6338446626953,-27.45803452974859,-72.26358728742746,-33,-71" fill="none" stroke="rgb(220, 208, 186)" stroke-width="2" stroke-linejoin="round" filter="url(#fuzzy)"></polyline><polyline points="53,-58,55.22320465522675,-54.02939722491865,47.97938023636409,-56.06519386395903,31.38968258130333,-60.168672981826084,12.255760975197466,-63.471615268798175,-2.149992517692429,-65.063616808801,-9.044333422202635,-65.4972752145234,-9.91980824913644,-65.67198654506095,-7.439759413097701,-66.07814278787353,-3.002870356483372,-66.57961997206961,3.3415436430666285,-66.65252353752923,11.43681289873199,-65.87657267866383,19.89982748195362,-64.32932297628997,26.457492627142923,-62.560169182350755,29.270372315457656,-61.14481183719165,27.817282359588887,-60.23821352975551,22.522499188208094,-59.62545091971855,14.218896244754033,-59.246033896699565,5.869955844325444,-59.389663826714155,6.452429396922428,-59.80500388064715,28.17432343666153,-58.5879153649432,58,-52" fill="none" stroke="rgb(220, 208, 186)" stroke-width="2" stroke-linejoin="round" filter="url(#fuzzy)"></polyline><polyline points="-11,-80,2.7329924499943075,-77.10947127957613,-4.664623487540939,-76.1899943687087,-9.925100884139818,-76.505481507544,-11.55540724922853,-77.04460600564441,-12.247805870618322,-76.75475951217777,-12.519809410941777,-75.30900588409158,-10.83783541311973,-72.9983109236746,-6.0138626531258055,-70.22116403629911,0.9701113643968824,-67.2445578417272,7.098991394042969,-64.3895320892334,9.290076328310473,-62.26049715516622,6.8232679152745686,-61.59332193902917,2.435430947916599,-62.71039111979612,0.9628819861894111,-65.01529969277185,6.0301716789690545,-67.05888483854324,16.89653500195654,-67.37705589575172,27.81203010071948,-65.63160654395219,30.198981907795773,-62.83050306533611,13.631870130051112,-59.85915279762518,-47,-60" fill="none" stroke="rgb(220, 208, 186)" stroke-width="2" stroke-linejoin="round" filter="url(#fuzzy)"></polyline><polyline points="42,-69,14.477561163452108,-63.50799485265947,16.90234179114554,-60.73810471724445,11.677468262144393,-62.83065343594728,2.87796762717896,-66.96259464266737,-1.5177024370805636,-70.98548823874712,0.4786491117885443,-73.72488638595405,6.458895270182394,-74.61506578352399,12.999052028089388,-73.52661241944077,17.53211979219197,-70.84942781713468,18.875103648710564,-67.69259102666231,17.372556271108333,-65.7819662216261,14.85527116994039,-66.65197881333458,13.73082358331618,-70.39584799908097,15.08311143447496,-75.100536053309,17.95495270107231,-77.95111449003122,23.112751087497333,-77.0836166812981,40,-71" fill="none" stroke="rgb(220, 208, 186)" stroke-width="2" stroke-linejoin="round" filter="url(#fuzzy)"></polyline><polyline points="53,-58,14.309262460696822,-63.93524144633529,16.675363918260476,-66.87775667658747,24.554262400845012,-67.82768730489613,29.539245671512905,-67.92899171417896,29.56525083366523,-67.90410234526644,25.680921567090646,-67.87653963118831,20.735047420334162,-67.80117892407772,17.402222236728356,-67.55266156826845,16.354650268609795,-66.84995030254834,15.78914737701416,-65.42170715332031,12.701454454611177,-63.332723914172334,5.204803302514309,-61.08494415914167,-5.509613112050656,-59.33349331120741,-14.935019079159334,-58.490820524256286,-17.31904479781133,-58.6120958094034,-9.47680924320338,-59.62306851846608,5.126433456676202,-61.546859205206985,14.100262111760411,-64.3208284591966,-0.667603704609057,-66.55088768752454,-48,-59" fill="none" stroke="rgb(220, 208, 186)" stroke-width="2" stroke-linejoin="round" filter="url(#fuzzy)"></polyline><polyline points="-57,-47,4.19622553640941,-50.12666799641345,4.779453931759741,-59.45812448083002,-3.6347821789347883,-62.90889476400749,-4.297625159724546,-61.764987108079126,2.938842171044799,-58.74654912740048,13.083672968921087,-56.06095017571122,21.193520240354978,-55.5818158065882,24.786417565456805,-58.12423488311318,25.004540888973313,-62.44003935440076,25.50848123832708,-65.58713796110045,28.66001173033925,-65.13620939874978,31.526039078928385,-61.86729434012057,26.696586369533197,-60.64083535106929,13.531341654997387,-67.14855508986638,27,-78" fill="none" stroke="rgb(220, 208, 186)" stroke-width="2" stroke-linejoin="round" filter="url(#fuzzy)"></polyline><polyline points="61,-46,4.272290641685688,-61.781528998316915,0.2655039337491181,-67.42475236691907,11.382921179986791,-67.92819991824626,18.23360913786517,-68.05319656414513,16.036220021699993,-69.50919437043204,7.957695525704175,-71.71664263923454,-0.784180469398056,-73.50805413670948,-6.083522415414874,-74.01797002252702,-5.746864532044248,-72.8102015094825,0.6156151124787079,-69.79868435636293,11.588396203894046,-65.27996235448904,23.879416674369757,-60.08077565116557,32.81649890558324,-55.646951644642215,33.818288652146954,-53.80085266179122,24.715074464619416,-55.85971489544876,8.546446879041433,-61.07044322418551,-3.872927561519626,-65.1956885213898,6.470468953209135,-60.95042127353412,64,-39" fill="none" stroke="rgb(220, 208, 186)" stroke-width="2" stroke-linejoin="round" filter="url(#fuzzy)"></polyline><polyline points="6,-82,10.866349108642096,-79.66756341057982,9.96645850848147,-76.3701598566714,17.68906100918961,-70.4360105475838,30.28212859069712,-63.802188882408124,41.239474197802345,-58.89942020696312,47.037137733828054,-57.12936659114078,47.28734705691868,-58.524179942915985,43.404390079057436,-62.0471370594513,37.476985931396484,-66.20179748535156,31.587800008757508,-69.67809315946205,27.407183414325427,-71.77227640688645,25.918238573076604,-72.4083948125934,27.2386588238243,-71.79040366927389,30.54693403310677,-69.98433638354219,33.8355915116452,-66.9913862730793,32.36937162174582,-63.815726638569494,14.465813211755481,-63.48420026799299,-42,-65" fill="none" stroke="rgb(220, 208, 186)" stroke-width="2" stroke-linejoin="round" filter="url(#fuzzy)"></polyline><polyline points="53,-58,44.11805658083057,-62.62325431715595,37.64816961826351,-66.22523130803152,36.78113080317433,-66.81799918360437,37.5009667077,-65.66381318887147,36.4235768693714,-64.31952373935961,32.16321197999278,-64.14923033425917,25.748101695526962,-65.59099761023073,19.55964748799438,-68.04015748468926,15.562603005529061,-70.41128933217102,14.176339046573538,-71.85209453207888,14.348486956877965,-72.16247244179635,14.437312722206116,-71.77502012252808,13.1375570209165,-71.3995149443172,9.914806330008133,-71.56903818499714,4.9143311163249175,-72.34871579555573,-1.3055313083651359,-73.36734121825103,-7.867365476193397,-74.13335104394938,-13.507466089847263,-74.40585138603966,-16.69790542142035,-74.33866417413971,-16.228513386280767,-74.23361624379632,-12.170369334760549,-73.91953207147901,-7.373246588870068,-71.92025616282325,-11.633124941194788,-64.80764647281666,-58,-47" fill="none" stroke="rgb(220, 208, 186)" stroke-width="2" stroke-linejoin="round" filter="url(#fuzzy)"></polyline><polyline points="65,-35,39.464791372378244,-53.631755248569156,22.777691833883537,-62.8041260930037,14.156658754180517,-67.18355858894789,6.109072835547321,-69.26249968767547,-1.1275498551814283,-69.90310391099875,-5.155266836916468,-69.25790024925155,-5.523734713783164,-67.47959162867237,-3.8612136986896384,-65.06430309731519,-2.2659473789809392,-62.74429348202205,-1.865861493571398,-61.136681360151215,-2.382168366822677,-60.49220778727647,-2.750746250152588,-60.70964968204498,-2.2629173558544027,-61.50809047165236,-1.348940864793184,-62.55724704050651,-1.316114451030296,-63.49723749581116,-3.075218751822826,-63.948911828979455,-5.723822570132897,-63.63209217001417,-6.261949127626991,-62.56099343017437,-1.3724434965653014,-61.147734810444845,8.971872215419747,-60.11128842390754,18.19958838118981,-60.335593863666965,14.219560530435839,-62.74691944598553,-10.64993775934185,-66.98068420840393,-39,-66" fill="none" stroke="rgb(220, 208, 186)" stroke-width="2" stroke-linejoin="round" filter="url(#fuzzy)"></polyline><polyline points="-17,-78,-32.38669749913519,-68.55486977279202,-28.56051080975126,-69.5039373939084,-19.00008652587192,-70.46494701362656,-7.095413292745242,-68.0729373812248,5.81347465322051,-63.46109846918898,16.62420266953272,-59.215052907987115,22.458168620080954,-57.13463991824613,23.247834484914907,-57.437312526892384,21.51766867904842,-59.23120188630338,19.8883638381958,-61.474249839782715,18.867787139767348,-63.59799513082337,16.78579434458854,-65.48176721445752,11.63240575251552,-67.06357013623389,3.0657084472498237,-68.09192213339736,-6.876625724277801,-68.25056766674152,-14.312604608199006,-67.43784374962824,-14.354190839720012,-65.83109739207174,-2.812146975943162,-63.93862984783147,16.67277692069943,-64.53291718496595,9,-81" fill="none" stroke="rgb(220, 208, 186)" stroke-width="2" stroke-linejoin="round" filter="url(#fuzzy)"></polyline><polyline points="-17,-78,1.4140611903151548,-71.73354572507593,22.864686832462226,-63.70901224892803,29.94106865865473,-61.97474742220426,26.140370151635256,-64.56536265368281,18.63545760806587,-67.1284857980956,12.641215298634897,-67.24263114237742,10.540019646504874,-65.09024430405753,11.982513871607576,-62.41615338655841,14.675981959755175,-60.99801254947769,16.03485966916038,-61.44859827239356,14.850344831345643,-62.90184707013631,11.869679162126118,-63.648398079624364,9.06319976214078,-62.253921852204215,8.334226131102085,-58.477005656230524,10.501164191546282,-53.51948749522219,14.633911119416629,-49.55551450351862,17.311430385627467,-48.729513546020165,12.279892618083549,-51.74937802088754,-6.613330116067921,-56.30914565638453,-35.588258410351344,-57.40356270823974,-49,-58" fill="none" stroke="rgb(220, 208, 186)" stroke-width="2" stroke-linejoin="round" filter="url(#fuzzy)"></polyline><polyline points="-57,-48,-3.964789792552035,-66.78013001631109,17.58903183722918,-70.17235411036901,22.191125350287447,-68.15488423632351,15.873730205590794,-66.50649487589367,5.167821376578685,-66.60062053179257,-3.786157081218154,-67.64172986488786,-7.551152782139957,-68.66976867387152,-6.01517158933698,-69.15511732971439,-1.4111621999319988,-68.83460107980757,3.375647940969792,-67.60373061655008,6.272647555377907,-65.64356740872576,6.613830397877923,-63.48470880983975,4.831493139146447,-61.77487985498575,1.747136049646832,-60.92141022305402,-1.971217608144095,-61.0271301081857,-5.879193083312987,-62.2477818717638,-9.279878560907376,-65.02478671118763,-10.615445362561363,-69.3950343726069,-8.590228886246472,-73.62908575303024,-8.403441777489142,-74.31478277358579,-37,-69" fill="none" stroke="rgb(220, 208, 186)" stroke-width="2" stroke-linejoin="round" filter="url(#fuzzy)"></polyline><polyline points="-57,-47,-25.86126370819989,-60.50590775729139,6.560319818692301,-63.10470491627255,23.724401129488406,-61.930146210906166,26.673717904571934,-62.74749874079946,23.118533836758456,-66.10354029056018,19.263779407757312,-69.81648346765722,16.906542904898153,-71.89659986342689,14.82374674313907,-71.60511330974138,11.37406366895309,-69.21110457181798,5.851656645345884,-65.71867578485246,-1.5779577598063543,-62.892282311765506,-9.367588818550788,-62.57304414424269,-11.90283589442528,-64.13641463580397,3.585892093927413,-61.273582337324655,62,-44" fill="none" stroke="rgb(220, 208, 186)" stroke-width="2" stroke-linejoin="round" filter="url(#fuzzy)"></polyline><polyline points="-55,-51,13.32165113042137,-54.194688287580355,31.28039861889187,-54.78231806337087,30.306583595283566,-55.03123510304008,26.53386735625938,-57.090571831446965,25.02602364297199,-60.921452441367606,25.40048177090974,-65.23576471914798,26.25872609245584,-68.666378452524,26.941043472097956,-70.41594326074575,27.55461806800274,-70.38704568575177,28.40984152402586,-69.03781814984414,29.523906536392968,-67.12427468700466,30.45670355838547,-65.3988416310999,30.46448767077356,-64.36220089184164,28.800597272801134,-64.19223870626179,25.031935475546135,-64.85482725461942,19.363957762190374,-66.2031888769714,12.86588948028215,-67.86085222946481,7.101599965617213,-69.01426121356826,2.674579033505066,-68.62849910057926,-2.3071320572972436,-66.39807455033159,-9.804928982310173,-63.72324285961364,-9.942963111113462,-63.596779470376504,37,-73" fill="none" stroke="rgb(220, 208, 186)" stroke-width="2" stroke-linejoin="round" filter="url(#fuzzy)"></polyline><polyline points="46,-66,52.53027117297393,-47.977423954044205,41.77716188013315,-48.39603129892227,31.302537421652403,-53.59714437402417,27.71809894017699,-56.917197615523165,29.78157319717379,-57.759421382041175,33.86985586785408,-57.60215357263755,36.74351987213681,-57.61142064143364,36.53589126185207,-58.20751673052068,32.877883814156505,-59.48014051222745,26.621856537402646,-61.47590040222421,19.289515894623683,-64.13522435032733,12.34585283775267,-67.1524391122801,6.573195478307645,-70.02895564660594,1.8784935684929416,-72.32782516512124,-2.288010513146436,-73.91962073316056,-6.000709654364644,-74.98015812916525,-7.892336224286618,-75.67829702529981,-5.071656208738472,-75.81774628173275,5.071849562180928,-75.02353280789549,20.191620629237427,-74.2781214762024,20,-80" fill="none" stroke="rgb(220, 208, 186)" stroke-width="2" stroke-linejoin="round" filter="url(#fuzzy)"></polyline><polyline points="42,-69,3.135459457098051,-72.28341908581763,-4.456477123806808,-71.7487422174199,-0.015230160984049865,-71.32089759525954,3.6484353302796166,-70.53435707339406,5.413861453696092,-69.48159171349124,7.709834693332394,-68.93150067496825,11.068926494000562,-69.39427780060593,13.928234439484577,-70.56005913288665,14.381893157958984,-71.5066032409668,11.158392601245923,-71.33859198230859,3.6812936418145505,-69.73951197601113,-7.682592548686799,-67.16590403405328,-20.926943944873628,-64.67192200068631,-32.46292976426132,-63.39829646554987,-39.0632015862973,-63.81560987345095,-40.45850953114003,-65.25182011052155,-38.8489655554711,-66.86826697722444,-33,-71" fill="none" stroke="rgb(220, 208, 186)" stroke-width="2" stroke-linejoin="round" filter="url(#fuzzy)"></polyline><polyline points="-42,-65,-41.8264272151421,-57.39160523584511,-24.12732121027125,-53.56259632496204,-4.369286269348429,-51.542901796278706,9.854658933384258,-50.510694762821345,16.760766993088346,-51.13714337426599,18.118529394556646,-53.72141743128102,17.898474937337024,-57.37932713824776,19.33372061867995,-60.82050550792704,22.536670684814453,-63.36824417114258,24.892487379469454,-65.17756435718884,23.696677919473196,-66.72003370411635,18.62047619789155,-68.25098139040342,12.02569423655944,-69.7616332825274,7.1637492307575,-71.22565696991677,6.108553934314404,-72.52688031231362,8.652551072147775,-72.97973648824478,8.233650704126761,-72.02706006710343,-26,-75" fill="none" stroke="rgb(220, 208, 186)" stroke-width="2" stroke-linejoin="round" filter="url(#fuzzy)"></polyline><polyline points="-31,-72,-15.995317481895798,-60.013719564150186,10.56698314191024,-58.91090938818537,24.82712152635548,-62.4531888793397,30.7105208405918,-65.98936875652329,32.44385977496722,-68.66353740499117,31.363737143536156,-71.02446752044179,28.0772285779748,-73.36018310166659,23.66972139548158,-75.40478997914231,19.47194519634902,-76.66122081588328,16.40654896134583,-76.72387399984576,14.65734938441791,-75.42233420516246,13.764443062474445,-72.861668121127,12.890788910160756,-69.4447121356949,11.08366798891447,-65.84596831420585,7.689429810861638,-62.86346076701038,3.4129969241984,-61.220059438232546,2.7289806231061826,-61.35952318626961,17.35048645539196,-61.73804869461098,59,-49" fill="none" stroke="rgb(220, 208, 186)" stroke-width="2" stroke-linejoin="round" filter="url(#fuzzy)"></polyline><polyline points="-49,-58,-25.66111510615944,-68.16663095138499,-7.5231382450952236,-69.94955064231627,2.9562447979814968,-66.66808374995762,8.4345433045303,-63.35795873535205,11.42165410125278,-62.571400093343414,13.793871968777756,-63.93710616731595,16.705452230875796,-65.75322667566617,20.416138587925886,-66.68923392470204,24.22428005812643,-66.52715145264345,26.92311617023457,-65.82812522825444,27.58848297685494,-65.16922529864121,25.991100752088848,-64.7516282187039,22.27651528611691,-64.64768565958794,16.396700273481702,-65.19866501380099,8.159039907219828,-66.85516338695375,-1.7718105050446884,-69.51679541618275,-10.538544796311886,-72.60843802316062,-13.058282252009288,-76.51465115923142,-11,-80" fill="none" stroke="rgb(220, 208, 186)" stroke-width="2" stroke-linejoin="round" filter="url(#fuzzy)"></polyline><polyline points="-39,-66,-22.35647026856344,-61.17991536985936,0.3603454031275461,-59.66258754838572,17.503613698514105,-58.27112566418195,30.643911938012927,-56.48672129714839,38.63748362297358,-55.219321754759896,40.344759559089226,-54.99288248393282,37.219569019350764,-55.336974403608714,33.092777892493466,-55.315957619562255,31.810295692750877,-54.49516718945085,34.54551031220705,-53.439309771832725,38.80107844401982,-53.333289390849565,39.82042465176184,-55.0955085893628,33.288053171735804,-58.68441496401318,17.89239659842196,-62.91817094294985,-1.6451116812381912,-65.78039119120513,-8.63680239298975,-66.4783658040715,34,-74" fill="none" stroke="rgb(220, 208, 186)" stroke-width="2" stroke-linejoin="round" filter="url(#fuzzy)"></polyline><!--]--></g><g id="lineNose"><path d="M -8.771093934413821 32.6353274116907, Q10.358689483978608 38.25588270299114,0.7937977747823934 -4.1824992264405525" fill="none" stroke="black" stroke-width="3" stroke-linejoin="round" filter="url(#fuzzy)"></path></g><g id="mouth"><polyline points="43.234211791227395,58.559789512320435,43.15292873763927,58.91526576786788,43.28815296853651,58.65331467037639,42.91094061554182,59.06302538356033,42.63674695375279,59.61539656320889,42.85840926342213,59.62550679053478,42.59501106939551,60.061734134878336,42.19453326174249,60.32287429488925,42.435344341545814,60.14217549054621,42.05240886363731,60.612046392147704,41.731493878634254,60.73104558288134,40.43652206589569,61.85596872800158,40.83680643473792,61.49875534593112,40.28789494644797,62.012479735989245,40.176748828134805,62.03338699116245,39.03752950248973,62.51286261983035,39.032390772890516,62.52574263703285,38.56944213802336,62.822181353210716,38.5385050078156,62.82998212306883,37.00349533699388,63.39421689273573,37.505535131680844,63.12764319701523,36.70250004521346,63.44836178312764,35.58652025767695,63.76131544765519,35.34790407627689,63.86100993871905,33.484418473381126,64.28646637744755,34.57291438005494,63.9922465998851,33.25146728319031,64.30546845179234,33.1643048627618,64.3386955320989,32.445972463109854,64.4570194571793,30.081996488629198,64.79767858842885,31.442171425916275,64.61557764722406,30.21520146438298,64.7414360351604,29.30626906465831,64.86864024088432,28.28290468607824,64.9216957412798,25.63914475139952,65.04682649538631,25.010355329551118,65.07517768986655,25.531031693192652,65.04958630316665,23.288618965072978,65.09450633323512,22.344925453175044,65.07937894888818,24.35581136960191,65.10691951444703,22.76974006087257,65.08776468575238,20.44607364197129,65.01730947671585,19.48816169448314,64.97045446026307,20.505654809133667,65.02929021372066,18.65053619865788,64.91929880725759,18.014270212183412,64.87717677599422,15.523793646361218,64.6462531149204,16.49384322633282,64.742615466877,15.132560396566094,64.60565638040123,13.3608744940325,64.3868034578984,12.255777142151809,64.2320673586371,11.828885119661805,64.16795436017507,11.883876003779875,64.17475766591288,10.936030624555137,64.02824086541283,8.062277407632394,63.49147738461837,8.091803680208411,63.50661928178083,6.95843719428309,63.27766485602555,7.826373727807917,63.45503467471387,7.125234941218466,63.305983025950475,6.205710765792736,63.1044771005718,4.8380879095483245,62.792763311714694,2.7200594627526264,62.200917665364386,2.9392971048634315,62.274224801128874,0.3700109028872429,61.52134772986046,2.0088034594908777,62.030008987631376,0.9213041677623508,61.68641862058513,0.16713162721301522,61.43960888465793,-2.355027152032651,60.541821038518165,-1.531876507289569,60.901450637727564,-2.984497707055848,60.31102446297746,-2.3535281645331594,60.56982083252758,-3.1394710044494616,60.25547408401462,-4.574780068533244,59.65459723808994,-4.42330063785251,59.71709013510302,-7.20801244563469,58.455041555550444,-6.459485191969723,58.83268252016403,-7.585345364539215,58.26379887284705,-8.632635888171826,57.58462736716801,-9.432111677287825,57.152673570555585,-9.199707557058488,57.25287854196068,-10.362862885123597,56.53989771464555,-10.502158867613158,56.360058848301165,-11.211080144110738,55.838867208411266,-10.970342988143958,56.037042379848856,-11.972480813560932,55.21351336956961,-11.66039904636865,55.455198696965326,-12.734005129410406,54.47101949105932,-13.001598286350411,54.10763763675864,-12.577582448485288,54.59643321137288,-13.20977765065765,53.77764837578089,-13.728497721249976,53.22214822612192,-13.281929385404283,53.74683516107401,-13.98843976116867,52.65841681769762,-13.76661532625495,52.83660677650173,-13.807991654354439,52.861502976515084,-14.225121076298866,51.63265986188227,-14.400414383154981,51.07241912200923,-14.381947243963207,51.13943234707853,-14.240487022770807,51.5020412269196,-14.483638701267516,50.136061575401996,-14.410169873093203,50.15085946226091,-14.253507755709123,50.45855690712934,-14.388007803573306,50.11864509128237,-14.139781389235917,49.129750553784994,-14.10570206928012,49.184740480740004,-14.127552519650408,49.129852036643726,-13.85661939886564,48.84405117638162,-12.972361078219041,47.80299808572332,-13.403503413196528,48.39876071621637,-13.333405513315572,48.019500334403034,-12.396489871041933,47.340712389427054,-12.584083441537075,47.43265223759282,-11.841656331586751,46.90694424324301,-11.930161358514539,46.95807445459368,-10.741183884519664,46.17105001082063,-9.89062888264026,45.820164869154176,-10.487550908624577,46.180608444973714,-10.022810537267151,45.91950360567062,-9.726346340176558,45.772301734494974,-7.6490349787999,45.06884658990018,-7.541720394032129,45.00657793960516,-6.936956998787206,44.809326473319274,-5.7175546937091895,44.562216055532396,-5.343763077248372,44.40215646093809,-6.1504416707809355,44.67048648480009,-5.328128858888416,44.46570241700453,-3.3034223795145827,44.098937789369,-2.5391916481737553,43.99015184000148,-1.9151666862732455,43.91632540946188,-2.6166382723340647,43.95636295482113,-0.15730894487032643,43.716979597629525,-0.1358115197060492,43.70932026256635,-0.9121248550105907,43.79589317278162,1.4222765409103229,43.60436832787205,3.0060988893893317,43.513887370357935,2.834571555813641,43.53262392801195,3.5198519609258803,43.49104862912816,4.700148988515194,43.49107807802501,4.448700734951812,43.489890770963136,6.973453722540559,43.52106086411228,5.966598513656814,43.49038219944853,9.149133560588153,43.59957977847127,7.14171923398062,43.505924287925964,10.907154416551862,43.710496303998944,12.05190935668675,43.81647947743264,10.962096286626952,43.72758051320372,13.164990643458726,43.91987610622109,13.942246818375747,44.00443428812017,13.502249911560693,43.955724667091246,14.722363420647607,44.102127632920485,15.954322555565447,44.26273673719711,16.34493231846853,44.31880114904399,16.519921976177415,44.342442139039335,18.61912292470662,44.680450587743266,18.235815993303518,44.615027226428865,19.71199200590453,44.869187711235334,22.73934554015503,45.49424263517562,20.865245036983595,45.089886823987705,23.383703829267517,45.64088266350277,22.89467894008982,45.534745919650526,25.245323693961954,46.0911555804271,26.5874183709988,46.49422118268237,26.56816941284108,46.48327688244823,27.1707837916611,46.64728831155839,27.976060634676635,46.86162987617821,27.864201710566935,46.852254147600874,30.456146103010223,47.729891128814565,29.956118426165567,47.52465421818819,30.53153931486319,47.75794288265831,31.03950354712673,47.899504066491474,33.66680597587096,49.00487627619424,33.41365166003568,48.87755899366184,34.13492197013369,49.12994600685107,34.518859454016166,49.33649095285044,35.96965914058302,50.10263049005198,35.639001270327185,49.868108970125576,36.83626453884833,50.45765349303442,36.29245553988517,50.172173276416565,37.68151330274837,50.971615823002814,37.931727793168506,51.090896618312364,39.188141124098884,51.90959336591296,38.826880647005396,51.78259984402556,38.730714318697224,51.72230811151934,39.14858793038475,51.99741185209126,39.87146913438032,52.42072408236133,41.275590430587485,53.707372781713964,41.398628722914296,53.903990821812336,41.73718063897947,54.15077543881332,41.5583632110871,53.91657130133568,42.23177155908128,54.873403491831716,42.830829604973644,55.575287950592205,42.733309924179025,55.42415983199119,42.947963326064496,56.04405534698285,42.64122230786906,55.49041253915298,42.95877399463158,56.29490745351429,43.14447732176429,56.2184161400195,43.30629917450082,56.841256495324416,43.22669618850904,57.385431076169375,43.29289567370856,57.31306085833061,43.41184497205154,58.094745310414446" fill="rgb(215,127,140)" stroke="black" stroke-width="3" stroke-linejoin="round" filter="url(#fuzzy)"></polyline></g></svg>