<svg viewBox="-100 -100 200 200" xmlns="http://www.w3.org/2000/svg" width="400" height="400" id="face-svg"><defs><clipPath id="leftEyeClipPath"><polyline points="27.03008528717649,4.613619404305091,26.68891818392351,4.021323218181635,26.322630825213793,3.417397453293546,25.932466171040492,2.8041596224386147,25.51962884262792,2.1838378313745643,25.08528572082733,1.5585721931577492,24.630566544512565,0.930416242481872,24.15656450897583,0.3013383500166782,23.6643368643234,-0.32677686325331834,23.154905513871366,-0.9521271116901264,22.629257612541316,-1.5729910306635873,22.08834616525608,-2.1877267622126446,21.533090625335475,-2.7947705407066543,20.964377492891995,-3.3926352785066527,20.383060913226533,-3.9799091516266785,19.789963275224142,-4.555254185395036,19.1028632661789,-5.338315510383058,18.401559349690086,-6.101245643627408,17.687063658070425,-6.8412442019134865,16.96037378811905,-7.555716081547832,16.222474478001264,-8.242270503172062,15.47433908298925,-8.898719664663513,14.716930856316385,-9.523077014053197,13.951204041397844,-10.113555154391165,13.178104781670072,-10.668563392489936,12.398571854301952,-11.18670494347608,11.613537234030154,-11.66677380308051,10.82392649337147,-12.107751299597833,10.030659045464768,-12.508802337444969,9.23464823579516,-12.869271344249679,8.436801289053157,-13.188677933399077,7.63801911738141,-13.466712293978702,6.839195996261718,-13.703230320032414,6.041219114294993,-13.898248491073549,5.244968003126808,-14.051938515777604,4.4513138537712456,-14.164621750786981,3.6611187255856574,-14.236763406557891,2.875234654149048,-14.268966552180146,2.0945026642967366,-14.261965931099851,1.3197516945639456,-14.216621599675591,0.5517974392910054,-14.133912400498435,-0.20855888535715605,-14.014929282406008,-0.9605318452046037,-13.860868479121226,-1.7033531554583554,-13.673024558445785,-2.436273105430078,-13.45278335393903,-3.158562034332829,-13.201614791012364,-3.869511851900204,-12.921065619369717,-4.5684375975751825,-12.61275206372435,-5.254679032016063,-12.278352404722394,-5.927602254666739,-11.91959950200349,-6.586601341138754,-11.538273271328915,-7.231099994152356,-11.136193127707475,-7.860553201783975,-10.715210406449692,-8.474448896767402,-10.277200774080491,-9.07230961059604,-9.824056641040873,-9.653694116173519,-9.357679588108809,-10.218199052760031,-8.879972818469927,-10.765460526961757,-8.39283364736809,-11.295155683510611,-7.898146041266525,-11.807004239581754,-7.397773218449618,-12.300769976396165,-6.8935503229958925,-12.776262181855522,-6.387277184052476,-13.233337037956904,-5.880711172341488,-13.67189894673447,-5.375560165828588,-14.091901788475521,-4.873475636484194,-14.493350105958339,-4.3760458700676885,-14.877273151871258,-3.881777947849031,-15.24453992826924,-3.388771722944252,-15.594967064432332,-2.897928075203481,-15.928390252515687,-2.4101130362032013,-16.244665084960285,-1.9261561914292162,-16.54366789190372,-1.4468490824595612,-16.825296578590944,-0.972943609147503,-17.089471462785063,-0.5051504318044415,-17.33613611217806,-0.04413737338290602,-17.565258181801614,0.4094721783405131,-17.7768302514378,0.8551008685822197,-17.970870663029924,1.2922189733686427,-18.147424358093218,1.7203459973532933,-18.306563715125666,2.1390522716338296,-17.199289547972924,3.7082502554122616,-17.070287374200863,4.105243878006574,-16.924172078949983,4.491626235164512,-16.760975161412137,4.867578427400069,-16.580759819323642,5.233311889863584,-16.38361925310657,5.589066019446603,-16.169674970010092,5.93510580188674,-15.939075088251698,6.2717194388725215,-15.69199264115857,6.5992159751482555,-15.428623881308852,6.917922925618894,-15.149186584672897,7.22818390245488,-14.853918354754661,7.530356242197007,-14.543074926732913,7.824808632861283,-14.21692847160256,8.111918741043786,-13.87576590031599,8.392070839025518,-13.518492785541191,8.66537738258651,-13.143978837492615,8.93208510501053,-12.752484901105952,9.192768627419632,-12.344293905326282,9.447980526765342,-11.919708956609806,9.69824813388993,-11.479051409888974,9.944070374821052,-11.022658929663258,10.185914673017436,-10.55088355387803,10.424213930283212,-10.064089773254011,10.659363604068524,-9.562652638729595,10.891718898873988,-9.046955909678555,11.121592089476685,-8.517390255565523,11.349249993695242,-7.974351523701581,11.574911612411666,-7.418239085762482,11.798745954567515,-6.8494542757318735,12.020870064852037,-6.268398931931871,12.241347271799892,-5.675474055803492,12.460185674016088,-5.071078600099312,12.677336882245715,-4.455608399150744,12.892695035006126,-3.829455253872389,13.106096105499166,-3.193006184165829,13.317317517521072,-2.5466428613853127,13.526078088087663,-1.8907412335277174,13.732038314492414,-1.2256713558092036,13.93480102351508,-0.551797439291005,14.133912400498433,0.13052186978329816,14.328863416010766,0.8209329672765431,14.519091667811756,1.5190865124104191,14.703983655839336,2.2246363803191382,14.882877507935152,2.937238333241945,15.05506617402625,3.656548397692041,15.219801106480604,4.382220934939519,15.37629644435411,5.113906392145902,15.523733719246625,5.851248721487855,15.661267100484725,6.593882454607682,15.78802919734877,7.341429419728184,15.903137436061868,8.093495088769455,16.00570102925841,8.84966454180524,16.094828555649745,9.609498036196392,16.169636167604637,10.372526167739071,16.229256444362132,11.138244611165238,16.2728479085944,11.906108427333034,16.299605224037226,12.675525924444639,16.308770091905757,13.445852060629221,16.299642863813084,14.216381375228515,16.271594888909313,14.986340436122667,16.224081612958745,15.754879790433918,16.15665644707274,16.521065405945667,16.068985423815953,17.283869590574593,15.960862658403457,18.042161377233384,15.83222663270649,18.661657662505295,15.77719212766268,19.274114753535986,15.710588194238778,19.878651084652752,15.632281440753816,20.47433027359458,15.542172788643931,21.060159633329047,15.440199009214767,21.63508868386919,15.326334260393878,22.19800766409038,15.200591623483154,22.747746043547203,15.063024639911214,23.28307103429035,14.913728847985825,23.802686102683474,14.752843319646308,24.305229481220092,14.580552197215951,24.789272680340435,14.397086230154413,25.253319000248357,14.202724311810137,25.69580204272818,13.997795016172763,26.115084222961606,13.782678134625527"></polyline></clipPath><clipPath id="rightEyeClipPath"><polyline points="-29.190419325992078,5.7850206981429615,-28.830584479439565,5.066580248840756,-28.44732802129925,4.331032078707409,-28.041371520382835,3.58113765699572,-27.613436108624523,2.8195660110944196,-27.16424207515337,2.0488948942443237,-26.69450846036573,1.2716119532544923,-26.204952649997697,0.49011589621837004,-25.696289969197494,-0.29328233977001616,-25.16923327659796,-1.0763584208999575,-24.62449255838892,-1.856973448927853,-24.062774522389613,-2.6330727934610962,-23.484782192121166,-3.402684924241896,-22.891214500878956,-4.1639202434311215,-22.282765885805087,-4.914969917892165,-21.660125881960795,-5.654104711474766,-20.984192106869703,-6.632546378132446,-20.286354637582278,-7.592146373268363,-19.5675109495572,-8.529285087991148,-18.82863430204543,-9.440541699702354,-18.07076656946259,-10.322699046246491,-17.295011274268813,-11.172747745292678,-16.502526819436962,-11.987889578941967,-15.694519918589918,-12.765540163554729,-14.872239221887735,-13.503330924792238,-14.036969135745498,-14.199110397866882,-13.190023834462558,-14.850944872995072,-12.332741461844046,-15.45711840604725,-11.466478520895365,-16.016132214389117,-10.59260444967046,-16.526703477908562,-9.71249638135468,-16.98776356522223,-8.827534086662965,-17.398455705056314,-7.93909509663418,-17.75813212279558,-7.048550003902365,-18.066350662194978,-6.157257940525657,-18.32287091224822,-5.26656223045372,-18.5276498592073,-4.377786214714407,-18.680837083747477,-3.4922292474004766,-18.782769523271853,-2.611162860537127,-18.833965819349785,-1.7358270959111388,-18.835120270283504,-0.8674270019423882,-18.78709640879711,-0.007129293678549864,-18.690920224842117,0.8439408260062664,-18.54777305351405,1.6847026859281429,-18.3589841480741,2.514123008744481,-18.12602295807026,3.3312186176588017,-17.850491132552115,4.135058989598514,-17.53411426837358,4.924768656784773,-17.178733423577796,5.699529458613764,-16.78629641585855,6.458582645768493,-16.358848926092357,7.201230838480432,-15.898525426935478,7.9268398408601435,-15.407539956480235,8.634840313216161,-14.888176756964786,9.324729304281298,-14.342780798530598,9.996071645265642,-13.773748208022003,10.648501207655446,-13.183516622821898,11.281722026677095,-12.57455548971808,11.895509292345425,-11.94935632879422,12.48971021001556,-11.310422982340008,13.064244732357551,-10.66026186877448,13.619106164672935,-10.001372261576943,14.154361645472552,-9.336236613219647,14.670152504234693,-8.667310944096592,15.166694498263023,-7.997015316442603,15.644277930563174,-7.3277244132369646,16.103267650657575,-6.661758242085966,16.544593064720573,-5.996955061192203,16.968886246678416,-5.330488634836776,17.376137321178742,-4.6636072963538915,17.766356768344576,-3.9975193431720015,18.13957516673612,-3.3333903590114105,18.495842936312624,-2.6723405360819115,18.835230081394236,-2.0154419972804547,19.157825933623844,-1.3637161183887372,19.463738894928905,-0.7181308502708816,19.753096180483332,-0.07959804107102997,20.026043561669297,0.5510292415889673,20.282745109039094,1.1729593884119645,20.523382935276995,1.785464926227867,20.748156938161085,2.3878851957959935,20.31456014371442,7.2874240302180056,20.11163927229782,7.711378958958466,19.893870843727164,8.124927384108986,19.661145440803836,8.528248225049849,19.413373349624706,8.921549775602374,19.150484067842445,9.305067257222653,18.872425812926036,9.679060372195332,18.57916503042106,10.043810856827365,18.270685902210175,10.39962003464177,17.94698985477348,10.746806369571416,17.60809506744892,11.085703019152756,17.254035980692677,11.416655387719604,16.884862804339598,11.740018679596897,16.500641025863526,12.056155452294458,16.101450918637802,12.365433169700756,15.686461337013888,12.668016345901524,15.254658346241126,12.964203822596714,14.80589239541877,13.254547698237449,14.340058368340685,13.539572210271064,13.857095130412002,13.819770722385321,13.356985012967893,14.095602766492949,12.839753238666047,14.367491157726061,12.305467291624499,14.635819200709934,11.754236235976514,14.900928005385596,11.186209986514124,15.163113930650752,10.60157853509204,15.422626174088501,10.000571136463503,15.67966452605336,9.38345545721985,15.934377306384057,8.750536691505323,16.1868595020126,8.102156647178873,16.437151123739078,7.438692806094588,16.685235800441742,6.760557362172355,16.93103962899176,6.0681962409304795,17.174430298142227,5.362088104151891,17.415216504660844,4.642743343355553,17.653147679975806,3.9107030657448285,17.887914045604354,3.166538076304311,18.11914701563347,2.4108478597169563,18.346419964522237,1.644259565772987,18.56924937849533,0.8674270019423882,18.78709640879711,0.08102963678252362,18.99936884507585,-0.7142283821473883,19.205423527167508,-1.5176191921933389,19.40456921354862,-2.3283921576634237,19.596069924727754,-3.1457747863629684,19.779148779844984,-3.9689736169361884,19.952992344748935,-4.797175073342747,20.11675550982083,-5.629546282797548,20.269566915815066,-6.465235853502116,20.410534945985777,-7.303374608495883,20.538754302768872,-8.14307627195578,20.653313187289076,-8.983438104272407,20.75330109996138,-9.823541482231187,20.837817280456488,-10.662452420626806,20.905979805299644,-11.499222031639304,20.956935361372416,-12.332886918300183,20.989869713586867,-13.162469498376808,21.004018885001607,-13.986978255003518,20.998681067649237,-14.805407910387752,20.973229282344654,-15.616739518919541,20.92712480574369,-16.419940476012723,20.859931382921623,-17.213964439006226,20.771330243740955,-17.997751156453692,20.661135941278058,-18.770226202129937,20.529313030578088,-19.53030061008244,20.375993606007665,-20.189289713117137,20.311800047187212,-20.838664951315664,20.23622647619628,-21.477635163295272,20.149277932815025,-22.105380078302,20.05100298890066,-22.72104983271561,19.9414955263766,-23.32376448655452,19.82089651522161,-23.912613539980743,19.689395791458946,-24.486655449804868,19.54723383514552,-25.044917145990933,19.394703548361022,-25.586393548161425,19.232152033197085,-26.110047082102202,19.05998236974643,-26.61480719626744,18.878655394091997,-27.099569878284562,18.68869147629611,-27.563197171459176,18.490672298389622,-28.004516691280067,18.28524263236105"></polyline></clipPath><filter id="fuzzy"><feTurbulence id="turbulence" baseFrequency="0.05" numOctaves="3" type="noise" result="noise"></feTurbulence><feDisplacementMap in="SourceGraphic" in2="noise" scale="2"></feDisplacementMap></filter><linearGradient id="rainbowGradient" x1="0%" y1="0%" x2="100%" y2="0%"><stop offset="0%" style="stop-color: rgb(167, 133, 106);  stop-opacity: 1"></stop><stop offset="50%" style="stop-color: rgb(230, 230, 250);  stop-opacity: 1"></stop><stop offset="100%" style="stop-color: rgb(128, 128, 128);  stop-opacity: 1"></stop></linearGradient></defs><title>That&#39;s an ugly face</title><desc>CREATED BY XUAN TANG, MORE INFO AT TXSTC55.GITHUB.IO</desc><rect x="-100" y="-100" width="100%" height="100%" opacity="1" fill="rgb(135, 206, 235)"></rect><polyline id="faceContour" points="67,1,67,3,67,4,67,4,67,5,67,5,67,8,66,11,66,12,66,12,66,13,65,14,65,16,65,16,64,18,64,18,64,22,64,20,63,25,63,24,62,26,62,27,62,28,61,29,61,31,60,32,60,32,60,34,59,35,59,36,58,37,58,38,57,40,56,43,55,43,55,44,54,46,54,46,53,48,53,48,52,50,52,51,51,51,51,52,49,55,48,56,48,56,47,57,46,58,46,58,44,60,44,61,43,62,43,63,42,63,41,65,40,66,41,65,40,66,38,69,38,68,37,69,36,70,35,70,33,72,33,73,33,73,32,73,31,74,29,76,29,76,27,77,28,76,27,77,24,79,24,79,24,80,22,80,21,81,22,81,19,82,18,82,16,83,16,83,16,84,14,84,13,84,12,85,11,85,11,85,10,85,10,86,7,86,6,87,6,87,6,87,5,87,4,87,2,88,1,87,0,87,-1,87,-2,88,-2,87,-4,88,-4,87,-6,87,-7,87,-9,87,-9,87,-10,87,-11,87,-11,87,-13,86,-13,86,-15,86,-15,86,-17,85,-16,86,-19,85,-20,85,-20,84,-21,84,-21,84,-23,83,-24,82,-25,82,-27,81,-27,81,-28,80,-29,80,-30,79,-31,79,-31,79,-33,77,-32,77,-33,76,-35,75,-35,75,-37,74,-37,73,-38,73,-39,71,-39,71,-41,70,-42,68,-43,67,-42,68,-43,68,-44,66,-45,65,-47,63,-47,62,-48,60,-48,61,-48,60,-48,60,-50,58,-51,56,-52,54,-52,55,-53,52,-53,52,-54,50,-55,48,-55,48,-56,46,-56,46,-57,45,-57,43,-58,41,-58,42,-59,40,-60,38,-59,38,-61,34,-61,32,-61,34,-62,31,-63,29,-62,29,-63,28,-63,25,-63,26,-64,24,-64,23,-64,22,-65,20,-65,17,-66,14,-66,12,-66,13,-66,12,-66,11,-66,9,-67,8,-67,6,-67,5,-67,5,-68,-1,-67,0,-67,-1,-67,-3,-67,-5,-67,-5,-68,-8,-68,-10,-67,-10,-67,-12,-68,-13,-67,-16,-67,-17,-67,-16,-67,-18,-67,-20,-67,-23,-67,-24,-66,-25,-66,-28,-66,-27,-66,-30,-66,-29,-65,-31,-65,-31,-65,-35,-65,-34,-64,-38,-64,-38,-63,-39,-64,-40,-63,-41,-62,-44,-62,-45,-61,-46,-61,-46,-61,-48,-60,-49,-60,-50,-59,-52,-57,-55,-57,-55,-58,-55,-57,-56,-56,-57,-56,-58,-54,-60,-55,-60,-53,-62,-53,-62,-52,-64,-52,-63,-50,-66,-49,-67,-49,-67,-49,-68,-48,-69,-47,-70,-45,-71,-46,-71,-44,-72,-43,-74,-43,-74,-41,-75,-41,-75,-41,-75,-39,-76,-38,-77,-36,-78,-36,-79,-34,-80,-33,-80,-33,-80,-31,-82,-30,-82,-29,-82,-30,-82,-28,-83,-28,-83,-25,-84,-25,-84,-23,-85,-20,-86,-21,-85,-20,-86,-19,-86,-17,-86,-17,-86,-15,-87,-14,-87,-14,-87,-11,-87,-12,-87,-10,-87,-7,-88,-8,-87,-7,-88,-5,-88,-4,-88,-3,-88,-2,-87,0,-87,2,-87,2,-88,3,-87,3,-87,7,-87,7,-87,9,-86,8,-86,10,-86,10,-86,13,-85,14,-85,16,-85,16,-85,17,-84,19,-84,20,-83,21,-83,22,-82,23,-82,24,-82,25,-81,26,-81,29,-79,29,-79,30,-78,31,-78,32,-77,34,-76,35,-75,34,-75,36,-75,36,-74,38,-73,38,-73,40,-72,39,-72,42,-70,43,-69,45,-67,43,-68,45,-67,46,-66,45,-66,48,-63,48,-64,49,-63,49,-62,50,-61,51,-60,52,-59,53,-58,54,-57,55,-55,55,-54,56,-53,57,-52,57,-51,58,-50,57,-51,59,-48,58,-48,59,-47,59,-46,61,-43,61,-42,62,-41,63,-39,62,-40,63,-38,63,-36,63,-36,64,-33,64,-33,64,-33,65,-31,65,-30,65,-28,65,-29,66,-25,66,-26,67,-22,67,-21,67,-20,67,-19,67,-19,67,-16,67,-15,67,-12,67,-12,68,-12,68,-11,68,-10,68,-8,67,-6,68,-5,67,-2,68,-2,67,-1,67,1,67,3" fill="#ffc9a9" stroke="black" stroke-width="1.6666666666666665" stroke-linejoin="round" filter="url(#fuzzy)"></polyline><g transform="translate(34.72623790824708 -31.033209375027376)"><polyline id="rightCountour" points="-29.190419325992078,5.7850206981429615,-28.830584479439565,5.066580248840756,-28.44732802129925,4.331032078707409,-28.041371520382835,3.58113765699572,-27.613436108624523,2.8195660110944196,-27.16424207515337,2.0488948942443237,-26.69450846036573,1.2716119532544923,-26.204952649997697,0.49011589621837004,-25.696289969197494,-0.29328233977001616,-25.16923327659796,-1.0763584208999575,-24.62449255838892,-1.856973448927853,-24.062774522389613,-2.6330727934610962,-23.484782192121166,-3.402684924241896,-22.891214500878956,-4.1639202434311215,-22.282765885805087,-4.914969917892165,-21.660125881960795,-5.654104711474766,-20.984192106869703,-6.632546378132446,-20.286354637582278,-7.592146373268363,-19.5675109495572,-8.529285087991148,-18.82863430204543,-9.440541699702354,-18.07076656946259,-10.322699046246491,-17.295011274268813,-11.172747745292678,-16.502526819436962,-11.987889578941967,-15.694519918589918,-12.765540163554729,-14.872239221887735,-13.503330924792238,-14.036969135745498,-14.199110397866882,-13.190023834462558,-14.850944872995072,-12.332741461844046,-15.45711840604725,-11.466478520895365,-16.016132214389117,-10.59260444967046,-16.526703477908562,-9.71249638135468,-16.98776356522223,-8.827534086662965,-17.398455705056314,-7.93909509663418,-17.75813212279558,-7.048550003902365,-18.066350662194978,-6.157257940525657,-18.32287091224822,-5.26656223045372,-18.5276498592073,-4.377786214714407,-18.680837083747477,-3.4922292474004766,-18.782769523271853,-2.611162860537127,-18.833965819349785,-1.7358270959111388,-18.835120270283504,-0.8674270019423882,-18.78709640879711,-0.007129293678549864,-18.690920224842117,0.8439408260062664,-18.54777305351405,1.6847026859281429,-18.3589841480741,2.514123008744481,-18.12602295807026,3.3312186176588017,-17.850491132552115,4.135058989598514,-17.53411426837358,4.924768656784773,-17.178733423577796,5.699529458613764,-16.78629641585855,6.458582645768493,-16.358848926092357,7.201230838480432,-15.898525426935478,7.9268398408601435,-15.407539956480235,8.634840313216161,-14.888176756964786,9.324729304281298,-14.342780798530598,9.996071645265642,-13.773748208022003,10.648501207655446,-13.183516622821898,11.281722026677095,-12.57455548971808,11.895509292345425,-11.94935632879422,12.48971021001556,-11.310422982340008,13.064244732357551,-10.66026186877448,13.619106164672935,-10.001372261576943,14.154361645472552,-9.336236613219647,14.670152504234693,-8.667310944096592,15.166694498263023,-7.997015316442603,15.644277930563174,-7.3277244132369646,16.103267650657575,-6.661758242085966,16.544593064720573,-5.996955061192203,16.968886246678416,-5.330488634836776,17.376137321178742,-4.6636072963538915,17.766356768344576,-3.9975193431720015,18.13957516673612,-3.3333903590114105,18.495842936312624,-2.6723405360819115,18.835230081394236,-2.0154419972804547,19.157825933623844,-1.3637161183887372,19.463738894928905,-0.7181308502708816,19.753096180483332,-0.07959804107102997,20.026043561669297,0.5510292415889673,20.282745109039094,1.1729593884119645,20.523382935276995,1.785464926227867,20.748156938161085,2.3878851957959935,20.31456014371442,7.2874240302180056,20.11163927229782,7.711378958958466,19.893870843727164,8.124927384108986,19.661145440803836,8.528248225049849,19.413373349624706,8.921549775602374,19.150484067842445,9.305067257222653,18.872425812926036,9.679060372195332,18.57916503042106,10.043810856827365,18.270685902210175,10.39962003464177,17.94698985477348,10.746806369571416,17.60809506744892,11.085703019152756,17.254035980692677,11.416655387719604,16.884862804339598,11.740018679596897,16.500641025863526,12.056155452294458,16.101450918637802,12.365433169700756,15.686461337013888,12.668016345901524,15.254658346241126,12.964203822596714,14.80589239541877,13.254547698237449,14.340058368340685,13.539572210271064,13.857095130412002,13.819770722385321,13.356985012967893,14.095602766492949,12.839753238666047,14.367491157726061,12.305467291624499,14.635819200709934,11.754236235976514,14.900928005385596,11.186209986514124,15.163113930650752,10.60157853509204,15.422626174088501,10.000571136463503,15.67966452605336,9.38345545721985,15.934377306384057,8.750536691505323,16.1868595020126,8.102156647178873,16.437151123739078,7.438692806094588,16.685235800441742,6.760557362172355,16.93103962899176,6.0681962409304795,17.174430298142227,5.362088104151891,17.415216504660844,4.642743343355553,17.653147679975806,3.9107030657448285,17.887914045604354,3.166538076304311,18.11914701563347,2.4108478597169563,18.346419964522237,1.644259565772987,18.56924937849533,0.8674270019423882,18.78709640879711,0.08102963678252362,18.99936884507585,-0.7142283821473883,19.205423527167508,-1.5176191921933389,19.40456921354862,-2.3283921576634237,19.596069924727754,-3.1457747863629684,19.779148779844984,-3.9689736169361884,19.952992344748935,-4.797175073342747,20.11675550982083,-5.629546282797548,20.269566915815066,-6.465235853502116,20.410534945985777,-7.303374608495883,20.538754302768872,-8.14307627195578,20.653313187289076,-8.983438104272407,20.75330109996138,-9.823541482231187,20.837817280456488,-10.662452420626806,20.905979805299644,-11.499222031639304,20.956935361372416,-12.332886918300183,20.989869713586867,-13.162469498376808,21.004018885001607,-13.986978255003518,20.998681067649237,-14.805407910387752,20.973229282344654,-15.616739518919541,20.92712480574369,-16.419940476012723,20.859931382921623,-17.213964439006226,20.771330243740955,-17.997751156453692,20.661135941278058,-18.770226202129937,20.529313030578088,-19.53030061008244,20.375993606007665,-20.189289713117137,20.311800047187212,-20.838664951315664,20.23622647619628,-21.477635163295272,20.149277932815025,-22.105380078302,20.05100298890066,-22.72104983271561,19.9414955263766,-23.32376448655452,19.82089651522161,-23.912613539980743,19.689395791458946,-24.486655449804868,19.54723383514552,-25.044917145990933,19.394703548361022,-25.586393548161425,19.232152033197085,-26.110047082102202,19.05998236974643,-26.61480719626744,18.878655394091997,-27.099569878284562,18.68869147629611,-27.563197171459176,18.490672298389622,-28.004516691280067,18.28524263236105" fill="white" stroke="white" stroke-width="0" stroke-linejoin="round" filter="url(#fuzzy)"></polyline></g><g transform="translate(-46.0819728639857 -26.757333422099343)"><polyline id="leftCountour" points="27.03008528717649,4.613619404305091,26.68891818392351,4.021323218181635,26.322630825213793,3.417397453293546,25.932466171040492,2.8041596224386147,25.51962884262792,2.1838378313745643,25.08528572082733,1.5585721931577492,24.630566544512565,0.930416242481872,24.15656450897583,0.3013383500166782,23.6643368643234,-0.32677686325331834,23.154905513871366,-0.9521271116901264,22.629257612541316,-1.5729910306635873,22.08834616525608,-2.1877267622126446,21.533090625335475,-2.7947705407066543,20.964377492891995,-3.3926352785066527,20.383060913226533,-3.9799091516266785,19.789963275224142,-4.555254185395036,19.1028632661789,-5.338315510383058,18.401559349690086,-6.101245643627408,17.687063658070425,-6.8412442019134865,16.96037378811905,-7.555716081547832,16.222474478001264,-8.242270503172062,15.47433908298925,-8.898719664663513,14.716930856316385,-9.523077014053197,13.951204041397844,-10.113555154391165,13.178104781670072,-10.668563392489936,12.398571854301952,-11.18670494347608,11.613537234030154,-11.66677380308051,10.82392649337147,-12.107751299597833,10.030659045464768,-12.508802337444969,9.23464823579516,-12.869271344249679,8.436801289053157,-13.188677933399077,7.63801911738141,-13.466712293978702,6.839195996261718,-13.703230320032414,6.041219114294993,-13.898248491073549,5.244968003126808,-14.051938515777604,4.4513138537712456,-14.164621750786981,3.6611187255856574,-14.236763406557891,2.875234654149048,-14.268966552180146,2.0945026642967366,-14.261965931099851,1.3197516945639456,-14.216621599675591,0.5517974392910054,-14.133912400498435,-0.20855888535715605,-14.014929282406008,-0.9605318452046037,-13.860868479121226,-1.7033531554583554,-13.673024558445785,-2.436273105430078,-13.45278335393903,-3.158562034332829,-13.201614791012364,-3.869511851900204,-12.921065619369717,-4.5684375975751825,-12.61275206372435,-5.254679032016063,-12.278352404722394,-5.927602254666739,-11.91959950200349,-6.586601341138754,-11.538273271328915,-7.231099994152356,-11.136193127707475,-7.860553201783975,-10.715210406449692,-8.474448896767402,-10.277200774080491,-9.07230961059604,-9.824056641040873,-9.653694116173519,-9.357679588108809,-10.218199052760031,-8.879972818469927,-10.765460526961757,-8.39283364736809,-11.295155683510611,-7.898146041266525,-11.807004239581754,-7.397773218449618,-12.300769976396165,-6.8935503229958925,-12.776262181855522,-6.387277184052476,-13.233337037956904,-5.880711172341488,-13.67189894673447,-5.375560165828588,-14.091901788475521,-4.873475636484194,-14.493350105958339,-4.3760458700676885,-14.877273151871258,-3.881777947849031,-15.24453992826924,-3.388771722944252,-15.594967064432332,-2.897928075203481,-15.928390252515687,-2.4101130362032013,-16.244665084960285,-1.9261561914292162,-16.54366789190372,-1.4468490824595612,-16.825296578590944,-0.972943609147503,-17.089471462785063,-0.5051504318044415,-17.33613611217806,-0.04413737338290602,-17.565258181801614,0.4094721783405131,-17.7768302514378,0.8551008685822197,-17.970870663029924,1.2922189733686427,-18.147424358093218,1.7203459973532933,-18.306563715125666,2.1390522716338296,-17.199289547972924,3.7082502554122616,-17.070287374200863,4.105243878006574,-16.924172078949983,4.491626235164512,-16.760975161412137,4.867578427400069,-16.580759819323642,5.233311889863584,-16.38361925310657,5.589066019446603,-16.169674970010092,5.93510580188674,-15.939075088251698,6.2717194388725215,-15.69199264115857,6.5992159751482555,-15.428623881308852,6.917922925618894,-15.149186584672897,7.22818390245488,-14.853918354754661,7.530356242197007,-14.543074926732913,7.824808632861283,-14.21692847160256,8.111918741043786,-13.87576590031599,8.392070839025518,-13.518492785541191,8.66537738258651,-13.143978837492615,8.93208510501053,-12.752484901105952,9.192768627419632,-12.344293905326282,9.447980526765342,-11.919708956609806,9.69824813388993,-11.479051409888974,9.944070374821052,-11.022658929663258,10.185914673017436,-10.55088355387803,10.424213930283212,-10.064089773254011,10.659363604068524,-9.562652638729595,10.891718898873988,-9.046955909678555,11.121592089476685,-8.517390255565523,11.349249993695242,-7.974351523701581,11.574911612411666,-7.418239085762482,11.798745954567515,-6.8494542757318735,12.020870064852037,-6.268398931931871,12.241347271799892,-5.675474055803492,12.460185674016088,-5.071078600099312,12.677336882245715,-4.455608399150744,12.892695035006126,-3.829455253872389,13.106096105499166,-3.193006184165829,13.317317517521072,-2.5466428613853127,13.526078088087663,-1.8907412335277174,13.732038314492414,-1.2256713558092036,13.93480102351508,-0.551797439291005,14.133912400498433,0.13052186978329816,14.328863416010766,0.8209329672765431,14.519091667811756,1.5190865124104191,14.703983655839336,2.2246363803191382,14.882877507935152,2.937238333241945,15.05506617402625,3.656548397692041,15.219801106480604,4.382220934939519,15.37629644435411,5.113906392145902,15.523733719246625,5.851248721487855,15.661267100484725,6.593882454607682,15.78802919734877,7.341429419728184,15.903137436061868,8.093495088769455,16.00570102925841,8.84966454180524,16.094828555649745,9.609498036196392,16.169636167604637,10.372526167739071,16.229256444362132,11.138244611165238,16.2728479085944,11.906108427333034,16.299605224037226,12.675525924444639,16.308770091905757,13.445852060629221,16.299642863813084,14.216381375228515,16.271594888909313,14.986340436122667,16.224081612958745,15.754879790433918,16.15665644707274,16.521065405945667,16.068985423815953,17.283869590574593,15.960862658403457,18.042161377233384,15.83222663270649,18.661657662505295,15.77719212766268,19.274114753535986,15.710588194238778,19.878651084652752,15.632281440753816,20.47433027359458,15.542172788643931,21.060159633329047,15.440199009214767,21.63508868386919,15.326334260393878,22.19800766409038,15.200591623483154,22.747746043547203,15.063024639911214,23.28307103429035,14.913728847985825,23.802686102683474,14.752843319646308,24.305229481220092,14.580552197215951,24.789272680340435,14.397086230154413,25.253319000248357,14.202724311810137,25.69580204272818,13.997795016172763,26.115084222961606,13.782678134625527" fill="white" stroke="white" stroke-width="0" stroke-linejoin="round" filter="url(#fuzzy)"></polyline></g><g transform="translate(34.72623790824708 -31.033209375027376)"><polyline id="rightUpper" points="-31.34233431516342,11.352543609282906,-31.256207743979214,10.978233304342787,-31.13950914889109,10.55385938596541,-30.992942141469666,10.083171966432849,-30.817213955683762,9.56981703900155,-30.613035041972818,9.017337645618474,-30.381118661319327,8.42917504463728,-30.122180479321248,7.808669878534454,-29.83693816026443,7.159063341625485,-29.526110961195062,6.483498347781008,-29.190419325992078,5.7850206981429615,-28.830584479439565,5.066580248840756,-28.44732802129925,4.331032078707409,-28.041371520382835,3.58113765699572,-27.613436108624523,2.8195660110944196,-27.16424207515337,2.0488948942443237,-26.69450846036573,1.2716119532544923,-26.204952649997697,0.49011589621837004,-25.696289969197494,-0.29328233977001616,-25.16923327659796,-1.0763584208999575,-24.62449255838892,-1.856973448927853,-24.062774522389613,-2.6330727934610962,-23.484782192121166,-3.402684924241896,-22.891214500878956,-4.1639202434311215,-22.282765885805087,-4.914969917892165,-21.660125881960795,-5.654104711474766,-20.984192106869703,-6.632546378132446,-20.286354637582278,-7.592146373268363,-19.5675109495572,-8.529285087991148,-18.82863430204543,-9.440541699702354,-18.07076656946259,-10.322699046246491,-17.295011274268813,-11.172747745292678,-16.502526819436962,-11.987889578941967,-15.694519918589918,-12.765540163554729,-14.872239221887735,-13.503330924792238,-14.036969135745498,-14.199110397866882,-13.190023834462558,-14.850944872995072,-12.332741461844046,-15.45711840604725,-11.466478520895365,-16.016132214389117,-10.59260444967046,-16.526703477908562,-9.71249638135468,-16.98776356522223,-8.827534086662965,-17.398455705056314,-7.93909509663418,-17.75813212279558,-7.048550003902365,-18.066350662194978,-6.157257940525657,-18.32287091224822,-5.26656223045372,-18.5276498592073,-4.377786214714407,-18.680837083747477,-3.4922292474004766,-18.782769523271853,-2.611162860537127,-18.833965819349785,-1.7358270959111388,-18.835120270283504,-0.8674270019423882,-18.78709640879711,-0.007129293678549864,-18.690920224842117,0.8439408260062664,-18.54777305351405,1.6847026859281429,-18.3589841480741,2.514123008744481,-18.12602295807026,3.3312186176588017,-17.850491132552115,4.135058989598514,-17.53411426837358,4.924768656784773,-17.178733423577796,5.699529458613764,-16.78629641585855,6.458582645768493,-16.358848926092357,7.201230838480432,-15.898525426935478,7.9268398408601435,-15.407539956480235,8.634840313216161,-14.888176756964786,9.324729304281298,-14.342780798530598,9.996071645265642,-13.773748208022003,10.648501207655446,-13.183516622821898,11.281722026677095,-12.57455548971808,11.895509292345425,-11.94935632879422,12.48971021001556,-11.310422982340008,13.064244732357551,-10.66026186877448,13.619106164672935,-10.001372261576943,14.154361645472552,-9.336236613219647,14.670152504234693,-8.667310944096592,15.166694498263023,-7.997015316442603,15.644277930563174,-7.3277244132369646,16.103267650657575,-6.661758242085966,16.544593064720573,-5.996955061192203,16.968886246678416,-5.330488634836776,17.376137321178742,-4.6636072963538915,17.766356768344576,-3.9975193431720015,18.13957516673612,-3.3333903590114105,18.495842936312624,-2.6723405360819115,18.835230081394236,-2.0154419972804547,19.157825933623844,-1.3637161183887372,19.463738894928905,-0.7181308502708816,19.753096180483332,-0.07959804107102997,20.026043561669297,0.5510292415889673,20.282745109039094,1.1729593884119645,20.523382935276995,1.785464926227867,20.748156938161085,2.3878851957959935,20.957284543525102,2.9796290296074357,21.15100044822031,3.56017742968743,21.329556363077298,4.129086245397733,21.49322075586789,4.685988851238951,21.64227859426692,5.230598824652937,21.777031088814137,5.762712623825159,21.897795435876034,6.282212265487017,22.00490456060766,6.789068002718267,22.098706859914518,7.283341002749342,22.179565945414385,7.765186024763738" fill="none" stroke="black" stroke-width="1.6666666666666665" stroke-linejoin="round" filter="url(#fuzzy)"></polyline><polyline id="rightLower" points="-30.9072759163997,16.013887816841763,-30.76143509691005,16.242808851794987,-30.579562760114186,16.474628223795534,-30.363202160920167,16.707972471875095,-30.113857291468555,16.941549004914506,-29.832993364627576,17.17414432365459,-29.522037297488122,17.404622242707024,-29.182378194858792,17.631922112565178,-28.81536783276102,17.85505704161497,-28.422321141924055,18.073112118145733,-28.004516691280067,18.28524263236105,-27.563197171459176,18.490672298389622,-27.099569878284562,18.68869147629611,-26.61480719626744,18.878655394091997,-26.110047082102202,19.05998236974643,-25.586393548161425,19.232152033197085,-25.044917145990933,19.394703548361022,-24.486655449804868,19.54723383514552,-23.912613539980743,19.689395791458946,-23.32376448655452,19.82089651522161,-22.72104983271561,19.9414955263766,-22.105380078302,20.05100298890066,-21.477635163295272,20.149277932815025,-20.838664951315664,20.23622647619628,-20.189289713117137,20.311800047187212,-19.53030061008244,20.375993606007665,-18.770226202129937,20.529313030578088,-17.997751156453692,20.661135941278058,-17.213964439006226,20.771330243740955,-16.419940476012723,20.859931382921623,-15.616739518919541,20.92712480574369,-14.805407910387752,20.973229282344654,-13.986978255003518,20.998681067649237,-13.162469498376808,21.004018885001607,-12.332886918300183,20.989869713586867,-11.499222031639304,20.956935361372416,-10.662452420626806,20.905979805299644,-9.823541482231187,20.837817280456488,-8.983438104272407,20.75330109996138,-8.14307627195578,20.653313187289076,-7.303374608495883,20.538754302768872,-6.465235853502116,20.410534945985777,-5.629546282797548,20.269566915815066,-4.797175073342747,20.11675550982083,-3.9689736169361884,19.952992344748935,-3.1457747863629684,19.779148779844984,-2.3283921576634237,19.596069924727754,-1.5176191921933389,19.40456921354862,-0.7142283821473883,19.205423527167508,0.08102963678252362,18.99936884507585,0.8674270019423882,18.78709640879711,1.644259565772987,18.56924937849533,2.4108478597169563,18.346419964522237,3.166538076304311,18.11914701563347,3.9107030657448285,17.887914045604354,4.642743343355553,17.653147679975806,5.362088104151891,17.415216504660844,6.0681962409304795,17.174430298142227,6.760557362172355,16.93103962899176,7.438692806094588,16.685235800441742,8.102156647178873,16.437151123739078,8.750536691505323,16.1868595020126,9.38345545721985,15.934377306384057,10.000571136463503,15.67966452605336,10.60157853509204,15.422626174088501,11.186209986514124,15.163113930650752,11.754236235976514,14.900928005385596,12.305467291624499,14.635819200709934,12.839753238666047,14.367491157726061,13.356985012967893,14.095602766492949,13.857095130412002,13.819770722385321,14.340058368340685,13.539572210271064,14.80589239541877,13.254547698237449,15.254658346241126,12.964203822596714,15.686461337013888,12.668016345901524,16.101450918637802,12.365433169700756,16.500641025863526,12.056155452294458,16.884862804339598,11.740018679596897,17.254035980692677,11.416655387719604,17.60809506744892,11.085703019152756,17.94698985477348,10.746806369571416,18.270685902210175,10.39962003464177,18.57916503042106,10.043810856827365,18.872425812926036,9.679060372195332,19.150484067842445,9.305067257222653,19.413373349624706,8.921549775602374,19.661145440803836,8.528248225049849,19.893870843727164,8.124927384108986,20.11163927229782,7.711378958958466,20.31456014371442,7.2874240302180056,20.502763070210626,6.852915499754573,20.676398350794756,6.40774053748863,20.83563746298939,5.9518230282003834,20.98067355457096,5.485126018335997,21.111721935309383,5.007654162813862,21.229020568707604,4.5194561718308,21.332830563741275,4.020627257668325,21.423436666598274,3.511311581498873,21.50114775241837,2.991704700192038,21.5662973170328,2.462056013120808" fill="none" stroke="black" stroke-width="2.2222222222222223" stroke-linejoin="round" filter="url(#fuzzy)"></polyline><!--[--><circle r="3.6241526819359313" cx="2.719171829267867" cy="6.051585403046451" stroke="black" fill="none" stroke-width="1" filter="url(#fuzzy)" clip-path="url(#rightEyeClipPath)"></circle><circle r="4.084298734435549" cx="-0.845529251658232" cy="10.173212355310294" stroke="black" fill="none" stroke-width="1" filter="url(#fuzzy)" clip-path="url(#rightEyeClipPath)"></circle><circle r="3.786348888085366" cx="-0.7334415638525715" cy="8.888340280181232" stroke="black" fill="none" stroke-width="1" filter="url(#fuzzy)" clip-path="url(#rightEyeClipPath)"></circle><circle r="3.32108395860565" cx="1.6058494767418647" cy="7.555989808180389" stroke="black" fill="none" stroke-width="1" filter="url(#fuzzy)" clip-path="url(#rightEyeClipPath)"></circle><circle r="3.6760990497220267" cx="2.5707919230545295" cy="9.0165624796627" stroke="black" fill="none" stroke-width="1" filter="url(#fuzzy)" clip-path="url(#rightEyeClipPath)"></circle><circle r="4.285978541272492" cx="3.073259123149551" cy="6.795297493968443" stroke="black" fill="none" stroke-width="1" filter="url(#fuzzy)" clip-path="url(#rightEyeClipPath)"></circle><circle r="4.128155140005697" cx="1.8263084119041046" cy="9.057078939698586" stroke="black" fill="none" stroke-width="1" filter="url(#fuzzy)" clip-path="url(#rightEyeClipPath)"></circle><circle r="3.7655820180569304" cx="2.0342835219475646" cy="6.711819614134397" stroke="black" fill="none" stroke-width="1" filter="url(#fuzzy)" clip-path="url(#rightEyeClipPath)"></circle><circle r="3.8303700071534994" cx="-0.25224079728565263" cy="7.189986096734835" stroke="black" fill="none" stroke-width="1" filter="url(#fuzzy)" clip-path="url(#rightEyeClipPath)"></circle><circle r="3.02180238070159" cx="1.6355607854612657" cy="8.889851346421947" stroke="black" fill="none" stroke-width="1" filter="url(#fuzzy)" clip-path="url(#rightEyeClipPath)"></circle><!--]--></g><g transform="translate(-46.0819728639857 -26.757333422099343)"><polyline id="leftUpper" points="28.758080863148667,9.320344078222247,28.745341496168827,8.992487684616854,28.692811994456527,8.624598042548886,28.602151617457892,8.219964523845857,28.474975301893007,7.781772949908127,28.31285426015162,7.313107006047594,28.117316578688882,6.816949655826417,27.889847816421042,6.296184555395721,27.631891603121208,5.753597467834302,27.344850237815038,5.191877677487335,27.03008528717649,4.613619404305091,26.68891818392351,4.021323218181635,26.322630825213793,3.417397453293546,25.932466171040492,2.8041596224386147,25.51962884262792,2.1838378313745643,25.08528572082733,1.5585721931577492,24.630566544512565,0.930416242481872,24.15656450897583,0.3013383500166782,23.6643368643234,-0.32677686325331834,23.154905513871366,-0.9521271116901264,22.629257612541316,-1.5729910306635873,22.08834616525608,-2.1877267622126446,21.533090625335475,-2.7947705407066543,20.964377492891995,-3.3926352785066527,20.383060913226533,-3.9799091516266785,19.789963275224142,-4.555254185395036,19.1028632661789,-5.338315510383058,18.401559349690086,-6.101245643627408,17.687063658070425,-6.8412442019134865,16.96037378811905,-7.555716081547832,16.222474478001264,-8.242270503172062,15.47433908298925,-8.898719664663513,14.716930856316385,-9.523077014053197,13.951204041397844,-10.113555154391165,13.178104781670072,-10.668563392489936,12.398571854301952,-11.18670494347608,11.613537234030154,-11.66677380308051,10.82392649337147,-12.107751299597833,10.030659045464768,-12.508802337444969,9.23464823579516,-12.869271344249679,8.436801289053157,-13.188677933399077,7.63801911738141,-13.466712293978702,6.839195996261718,-13.703230320032414,6.041219114294993,-13.898248491073549,5.244968003126808,-14.051938515777604,4.4513138537712456,-14.164621750786981,3.6611187255856574,-14.236763406557891,2.875234654149048,-14.268966552180146,2.0945026642967366,-14.261965931099851,1.3197516945639456,-14.216621599675591,0.5517974392910054,-14.133912400498435,-0.20855888535715605,-14.014929282406008,-0.9605318452046037,-13.860868479121226,-1.7033531554583554,-13.673024558445785,-2.436273105430078,-13.45278335393903,-3.158562034332829,-13.201614791012364,-3.869511851900204,-12.921065619369717,-4.5684375975751825,-12.61275206372435,-5.254679032016063,-12.278352404722394,-5.927602254666739,-11.91959950200349,-6.586601341138754,-11.538273271328915,-7.231099994152356,-11.136193127707475,-7.860553201783975,-10.715210406449692,-8.474448896767402,-10.277200774080491,-9.07230961059604,-9.824056641040873,-9.653694116173519,-9.357679588108809,-10.218199052760031,-8.879972818469927,-10.765460526961757,-8.39283364736809,-11.295155683510611,-7.898146041266525,-11.807004239581754,-7.397773218449618,-12.300769976396165,-6.8935503229958925,-12.776262181855522,-6.387277184052476,-13.233337037956904,-5.880711172341488,-13.67189894673447,-5.375560165828588,-14.091901788475521,-4.873475636484194,-14.493350105958339,-4.3760458700676885,-14.877273151871258,-3.881777947849031,-15.24453992826924,-3.388771722944252,-15.594967064432332,-2.897928075203481,-15.928390252515687,-2.4101130362032013,-16.244665084960285,-1.9261561914292162,-16.54366789190372,-1.4468490824595612,-16.825296578590944,-0.972943609147503,-17.089471462785063,-0.5051504318044415,-17.33613611217806,-0.04413737338290602,-17.565258181801614,0.4094721783405131,-17.7768302514378,0.8551008685822197,-17.970870663029924,1.2922189733686427,-18.147424358093218,1.7203459973532933,-18.306563715125666,2.1390522716338296,-18.448389387018715,2.5479605515690604,-18.573031138468096,2.9467476145960454,-18.680648683384536,3.335145858047113,-18.77143252230456,3.71294489696691,-18.845604779801235,4.07999316192946,-18.90342004189494,4.436199496855213,-18.945166193464146,4.781534756828076,-18.971165255656143,5.116033405912482,-18.981774223297858,5.439795114970417,-18.97738590230657,5.7529863594784985" fill="none" stroke="black" stroke-width="2.2222222222222223" stroke-linejoin="round" filter="url(#fuzzy)"></polyline><polyline id="leftLower" points="28.61771217822351,11.194443213173132,28.53723088897252,11.478180823175459,28.412930225860375,11.758683803278547,28.24724148980343,12.034975666780612,28.042509913284185,12.306146511897563,27.800996148534402,12.571351485010595,27.524877755718254,12.82980924391379,27.216250691115402,13.08080042106169,26.877130795304154,13.323666086816903,26.509455281344575,13.557806212697683,26.115084222961606,13.782678134625527,25.69580204272818,13.997795016172763,25.253319000248357,14.202724311810137,24.789272680340435,14.397086230154413,24.305229481220092,14.580552197215951,23.802686102683474,14.752843319646308,23.28307103429035,14.913728847985825,22.747746043547203,15.063024639911214,22.19800766409038,15.200591623483154,21.63508868386919,15.326334260393878,21.060159633329047,15.440199009214767,20.47433027359458,15.542172788643931,19.878651084652752,15.632281440753816,19.274114753535986,15.710588194238778,18.661657662505295,15.77719212766268,18.042161377233384,15.83222663270649,17.283869590574593,15.960862658403457,16.521065405945667,16.068985423815953,15.754879790433918,16.15665644707274,14.986340436122667,16.224081612958745,14.216381375228515,16.271594888909313,13.445852060629221,16.299642863813084,12.675525924444639,16.308770091905757,11.906108427333034,16.299605224037226,11.138244611165238,16.2728479085944,10.372526167739071,16.229256444362132,9.609498036196392,16.169636167604637,8.84966454180524,16.094828555649745,8.093495088769455,16.00570102925841,7.341429419728184,15.903137436061868,6.593882454607682,15.78802919734877,5.851248721487855,15.661267100484725,5.113906392145902,15.523733719246625,4.382220934939519,15.37629644435411,3.656548397692041,15.219801106480604,2.937238333241945,15.05506617402625,2.2246363803191382,14.882877507935152,1.5190865124104191,14.703983655839336,0.8209329672765431,14.519091667811756,0.13052186978329816,14.328863416010766,-0.551797439291005,14.133912400498433,-1.2256713558092036,13.93480102351508,-1.8907412335277174,13.732038314492414,-2.5466428613853127,13.526078088087663,-3.193006184165829,13.317317517521072,-3.829455253872389,13.106096105499166,-4.455608399150744,12.892695035006126,-5.071078600099312,12.677336882245715,-5.675474055803492,12.460185674016088,-6.268398931931871,12.241347271799892,-6.8494542757318735,12.020870064852037,-7.418239085762482,11.798745954567515,-7.974351523701581,11.574911612411666,-8.517390255565523,11.349249993695242,-9.046955909678555,11.121592089476685,-9.562652638729595,10.891718898873988,-10.064089773254011,10.659363604068524,-10.55088355387803,10.424213930283212,-11.022658929663258,10.185914673017436,-11.479051409888974,9.944070374821052,-11.919708956609806,9.69824813388993,-12.344293905326282,9.447980526765342,-12.752484901105952,9.192768627419632,-13.143978837492615,8.93208510501053,-13.518492785541191,8.66537738258651,-13.87576590031599,8.392070839025518,-14.21692847160256,8.111918741043786,-14.543074926732913,7.824808632861283,-14.853918354754661,7.530356242197007,-15.149186584672897,7.22818390245488,-15.428623881308852,6.917922925618894,-15.69199264115857,6.5992159751482555,-15.939075088251698,6.2717194388725215,-16.169674970010092,5.93510580188674,-16.38361925310657,5.589066019446603,-16.580759819323642,5.233311889863584,-16.760975161412137,4.867578427400069,-16.924172078949983,4.491626235164512,-17.070287374200863,4.105243878006574,-17.199289547972924,3.7082502554122616,-17.31118049547751,3.3004969743990706,-17.405997202187837,2.8818707224111275,-17.483813439697695,2.4522956402143308,-17.544741461580163,2.0117356947915024,-17.58893369924632,1.5601970522375073,-17.61658445780392,1.0977304506544225,-17.62793161191613,0.6244335730466535,-17.623258301660208,0.14045342021610097,-17.602894628386213,-0.3540113163427119,-17.567219350575716,-0.8587078815475007" fill="none" stroke="black" stroke-width="2.2222222222222223" stroke-linejoin="round" filter="url(#fuzzy)"></polyline><!--[--><circle r="3.706856635328009" cx="-16.510859045830415" cy="0.8815866077048389" stroke="black" fill="none" stroke-width="1" filter="url(#fuzzy)" clip-path="url(#leftEyeClipPath)"></circle><circle r="3.5547065308957757" cx="-14.381887990848007" cy="-2.203331078001213" stroke="black" fill="none" stroke-width="1" filter="url(#fuzzy)" clip-path="url(#leftEyeClipPath)"></circle><circle r="4.38411915566306" cx="-12.930649853692092" cy="0.6854467408997018" stroke="black" fill="none" stroke-width="1" filter="url(#fuzzy)" clip-path="url(#leftEyeClipPath)"></circle><circle r="4.126394421180267" cx="-14.699717183361475" cy="-0.8689456673111919" stroke="black" fill="none" stroke-width="1" filter="url(#fuzzy)" clip-path="url(#leftEyeClipPath)"></circle><circle r="3.888634228977578" cx="-13.958813509310398" cy="-0.08394470736490423" stroke="black" fill="none" stroke-width="1" filter="url(#fuzzy)" clip-path="url(#leftEyeClipPath)"></circle><circle r="3.37367166915147" cx="-14.302890229651652" cy="-1.3568557688818963" stroke="black" fill="none" stroke-width="1" filter="url(#fuzzy)" clip-path="url(#leftEyeClipPath)"></circle><circle r="3.9721070127416462" cx="-14.936771725070244" cy="1.1824390452251468" stroke="black" fill="none" stroke-width="1" filter="url(#fuzzy)" clip-path="url(#leftEyeClipPath)"></circle><circle r="3.254443043449065" cx="-12.89189635385262" cy="0.3574605893202665" stroke="black" fill="none" stroke-width="1" filter="url(#fuzzy)" clip-path="url(#leftEyeClipPath)"></circle><circle r="4.0626496679326705" cx="-13.441219853497728" cy="-0.9305138429547222" stroke="black" fill="none" stroke-width="1" filter="url(#fuzzy)" clip-path="url(#leftEyeClipPath)"></circle><circle r="4.624553498991582" cx="-13.435814207623164" cy="1.859139960166451" stroke="black" fill="none" stroke-width="1" filter="url(#fuzzy)" clip-path="url(#leftEyeClipPath)"></circle><!--]--></g><g id="hairs"><!--[--><polyline points="-12,-87,-16.956399251141374,-80.35035618931853,1.8685391528918067,-70.00493620821527,20.102384293520583,-60.67121548904796,27.33774202291056,-56.93943847604259,26.421670385197718,-58.30777686820307,23.805078628662837,-62.064801477239435,22.733283303610076,-65.87752237130756,22.419006540410145,-68.54168308697878,20.968338012695312,-69.6242561340332,18.37492771465365,-68.92539691554137,17.076334277167646,-66.3523460358317,19.75327670395873,-62.33829652463218,26.169747902837805,-58.3465666769873,31.889835599790647,-56.59083816070806,30.468974915438093,-58.642993726341146,17.284032238499538,-64.3880690600618,-7.891783653092077,-73.42397139520725,-29,-82" fill="none" stroke="rgb(44, 34, 43)" stroke-width="2" stroke-linejoin="round" filter="url(#fuzzy)"></polyline><polyline points="-21,-85,-6.731853479906603,-77.14813893333218,10.108582533102407,-73.1938723285029,15.247598068227536,-73.90701389631907,15.228012530133128,-74.72500630980358,14.465966868381415,-73.895277316364,14.060932744594055,-72.25988979634572,14.35443214640708,-71.37233967585514,15.7078857421875,-72.02719116210938,18.225598629447536,-73.78434063179424,21.53515274764638,-75.51680731724215,24.702766815604743,-76.42301006946748,26.4866125266999,-76.48569321399555,26.560276510992356,-75.76350752991034,26.78902564011466,-73.62273687173362,27.34527852727559,-71.68977994535548,7,-87" fill="none" stroke="rgb(44, 34, 43)" stroke-width="2" stroke-linejoin="round" filter="url(#fuzzy)"></polyline><polyline points="35,-75,-20.545475439567703,-67.40723908354248,-35.80385201883368,-66.34165400829741,-30.0457999496735,-68.71949948950886,-16.017177298180183,-70.49572362382801,-3.5580735289223355,-69.94259813372165,1.8830382594067197,-67.90413094953757,0.20776725385421552,-66.02954663497444,-4.680755492666067,-65.15782189150065,-7.901716160912154,-64.97525978056868,-6.5433348228256065,-64.6961643919838,-0.9802718162536621,-63.89059591293335,5.935457516491956,-62.80031542072539,11.057948490159287,-62.08431122235641,12.968436008809723,-62.37929019409765,12.501037371449042,-64.04032743057171,11.649864041884,-67.04422257307,12.084773602024626,-70.78069483850646,14.596644070056266,-73.78520000813104,19.20559667440192,-74.0863131403493,24.79591923362403,-70.3193061719415,31.909346416104135,-60.399977050496865,65,-28" fill="none" stroke="rgb(44, 34, 43)" stroke-width="2" stroke-linejoin="round" filter="url(#fuzzy)"></polyline><polyline points="64,-33,16.893708526528584,-54.442409899513905,17.938996937624356,-60.108254398486764,17.359558149140973,-64.80439405901242,10.77328901764235,-70.76425834656506,4.103023568150822,-75.72685535238402,0.7974170279532942,-78.08189814913518,0.27904741943095024,-77.96622209527756,0.20511403157970898,-76.66316796794582,-1.1592259811164574,-75.59256222577004,-3.9082474078395317,-75.42877453644812,-6.858702117382338,-75.75801503222792,-8.541041761531297,-75.50926297568036,-8.024740558681149,-73.92571497094676,-5.37529156295483,-71.35939659975449,-1.7483668990121772,-69.06995875293588,1.706400123520276,-67.82554162529057,6.741770159486668,-66.81585428580652,16.215502853815735,-67.29330498959847,3,-87" fill="none" stroke="rgb(44, 34, 43)" stroke-width="2" stroke-linejoin="round" filter="url(#fuzzy)"></polyline><polyline points="-23,-85,-33.25477476510442,-78.7281258599363,-31.151831541442984,-76.14151943568922,-24.46630366968674,-74.87984747839998,-19.78526371561963,-73.97752888189645,-18.018166564651928,-72.64843826747236,-16.32760833142867,-70.82074290613104,-12.411399455026027,-68.91077358988144,-6.141024125018522,-67.19144219604881,1.0506412656288608,-65.52500979610775,6.794736508566537,-63.75256589829284,8.103189148314645,-62.35107962873781,2.9033222245084014,-62.587615712404194,-6.879846204177479,-65.7108390313226,-13.756442886508237,-71.53832615654615,-8.690490227011644,-77.26406213724837,11.616807920969007,-76.83365061987074,50,-61" fill="none" stroke="rgb(44, 34, 43)" stroke-width="2" stroke-linejoin="round" filter="url(#fuzzy)"></polyline><polyline points="2,-87,21.938119268898088,-79.38838644423362,30.74893585789494,-72.71540328939865,32.80264270132664,-68.09327874062254,29.416822742752498,-67.57449142918219,24.10334467216404,-70.02213528104308,18.962710510185023,-73.53157813702148,13.968178750172095,-77.01120362635113,8.895580111947142,-80.02533016814867,4.656446550640996,-82.23271923432787,2.6769748329585394,-83.29218662465591,3.2562940701746244,-83.13584542189042,4.720211668107731,-82.12846573049912,4.73723776548429,-80.82359881418105,3.647837581987125,-79.42132305809136,6.753999754002679,-77.5798991258937,18.201319298889988,-76.27391421164506,16,-85" fill="none" stroke="rgb(44, 34, 43)" stroke-width="2" stroke-linejoin="round" filter="url(#fuzzy)"></polyline><polyline points="-15,-87,-30.887811267602675,-79.59822887184356,-34.478186404875,-76.652955823076,-29.389836616963414,-75.71346796771411,-19.64922696020578,-75.61525381631111,-9.697431442184671,-75.45228529035296,-1.4372631077477052,-74.97441036406295,5.149003037113023,-74.57182168593471,9.835792291813474,-74.7969230467009,11.47057453834289,-75.83228232545821,9.13598079931848,-77.22048876981717,3.565307252576597,-77.9752738111514,-2.688534275748062,-77.04948331782776,-6.592784532116279,-74.01945493641894,-6.6179698701562115,-69.69580490681673,-4.0352807100842725,-66.18895046760818,-2.542884112828091,-65.90012061856223,-6.797919428303969,-69.34398894403844,-22.256213789794426,-72.8349496175736,-49,-67" fill="none" stroke="rgb(44, 34, 43)" stroke-width="2" stroke-linejoin="round" filter="url(#fuzzy)"></polyline><polyline points="22,-82,12.19607816575095,-79.03376386673784,-0.7082908638496146,-76.07871691871185,-0.7898529236359447,-73.56570106824164,5.853667821977145,-72.26869398808529,13.37039594702689,-71.26607450190514,19.59306760404933,-69.70938634667164,23.6106359538726,-67.85829596671475,24.693885501691675,-66.5696005175132,22.713193440019385,-66.36317604882414,18.331800163872586,-67.0862819783194,12.502965092148685,-68.24467009733026,5.9786516371916365,-69.45891640977221,-0.6197903519457897,-70.61447781914787,-6.486313788148591,-71.72804598884294,-10.773352023099118,-72.80973621576271,-13.329811497589526,-73.86699306884489,-15.273686729491448,-74.91060064186217,-18.473909258831302,-75.77021031233588,-23.986782358093354,-75.87040448186181,-30.658872254347603,-74.60627670837854,-34.64898452995197,-72.95458300809271,-28.219018282522597,-75.55354346075396,2,-88" fill="none" stroke="rgb(44, 34, 43)" stroke-width="2" stroke-linejoin="round" filter="url(#fuzzy)"></polyline><polyline points="2,-87,19.10996910112275,-72.9673544266045,13.434465719613945,-65.7190814554696,0.329178798470499,-61.624877613682294,-14.280859595933215,-61.553780336735024,-25.24476704629659,-64.05286916322657,-30.316334562601988,-67.24064966502034,-29.793338800034057,-69.93162888278056,-25.05915034443588,-71.48381245816363,-17.49338690946906,-71.5355402908385,-8.176370081161178,-70.13667865696003,1.7908142466431634,-67.9637164310335,10.979336802521914,-66.13163101764265,17.931668101051844,-65.53114925441119,21.94885398842493,-66.1651515209357,23.519424886210228,-67.12310985347438,23.72335381234465,-67.37906180639807,23.067043284361986,-66.77355658912846,21.1086370503063,-66.05790513470556,17.9428286733539,-65.4909260090775,19.242752118589962,-62.71782724200271,59,-47" fill="none" stroke="rgb(44, 34, 43)" stroke-width="2" stroke-linejoin="round" filter="url(#fuzzy)"></polyline><polyline points="38,-73,29.089783125526985,-75.48324114891003,35.99017820002506,-69.01694804130138,40.269168849550965,-64.26414436673234,40.614662534562406,-62.53440712506204,40.34747602398762,-61.69256916961123,41.16336398701308,-60.309770149857755,42.16680210293623,-58.491267721915655,41.370508419884345,-56.973953755410356,37.37561944419033,-56.298915223857435,30.295269535592443,-56.58647119705064,21.722096204568093,-57.62751841125745,13.84647097626819,-59.011902140290196,8.211892688071242,-60.28487570874629,4.936217356164334,-61.17662616266799,3.001798068087744,-61.798043494112555,1.3235368918177355,-62.63295863793399,-0.4622097447993642,-64.31108461005962,-2.1398051478401032,-67.2867817158028,-3.2359642472824834,-71.42859836881863,-2.509122327549604,-75.44911267558433,1.260341644641259,-76.8426301448132,0.632715435720673,-74.36175377047658,-41,-75" fill="none" stroke="rgb(44, 34, 43)" stroke-width="2" stroke-linejoin="round" filter="url(#fuzzy)"></polyline><polyline points="-2,-87,26.06208180541545,-60.94236892133038,12.280765301289508,-63.22951989053677,-5.843794935119874,-67.46620734308358,-15.07019948131051,-68.88437947699505,-15.91547572229719,-68.9776984407245,-13.247314235293691,-69.84539163508735,-10.788710020920005,-72.03343183205466,-9.398567752139341,-74.48147084399366,-7.706902780411906,-75.57848227774464,-3.534238670583067,-74.14684846727351,4.717348669544344,-69.63209923120107,16.67127404311348,-61.985713790484475,27.347200435375456,-53.04057803622955,20.194042645924718,-50.91519703745347,-43,-74" fill="none" stroke="rgb(44, 34, 43)" stroke-width="2" stroke-linejoin="round" filter="url(#fuzzy)"></polyline><polyline points="-46,-71,-46.385208987428456,-69.69266624059793,-41.70926447969424,-71.34368995576166,-31.66189952434332,-73.75156806441692,-18.627442005079036,-75.04899115002772,-6.49825305275263,-74.30027457088066,2.3209784033905314,-72.1228610859557,7.837798556795773,-69.79648251206275,11.581501799785068,-68.14653982413414,15.05447769165039,-67.20708847045898,18.479191530961764,-66.71587552525496,20.54577942084674,-66.74018979471211,19.38009949184696,-67.7028120188037,14.038505546567169,-69.80577401862239,5.365122015083325,-72.61647355672065,-3.8994231362844887,-75.46619141941831,-8.514672131215285,-78.32318991281613,-1.7164888790841788,-82.07640413984215,8,-86" fill="none" stroke="rgb(44, 34, 43)" stroke-width="2" stroke-linejoin="round" filter="url(#fuzzy)"></polyline><polyline points="34,-76,-1.6528901736404902,-73.58595444240275,-0.026101915650472512,-72.35834678065837,6.926100812872633,-67.09294983870817,13.45001365308492,-60.76933755521213,19.251179675204753,-56.73974872547898,23.63753589854367,-56.398235065201526,25.418696325075846,-59.16272071513617,24.103861321713012,-63.27868411651083,20.400387803785993,-66.89006803252967,15.917836106315992,-68.87968999908698,12.418910026550293,-69.1755199432373,10.893285891986181,-68.53889682062079,10.933700184920909,-68.01691373389535,11.00157638383504,-68.27680375299683,9.576657834681608,-69.12675310152048,6.186433892191231,-69.63171181749416,1.120359352105438,-69.02389378258079,-5.861563422639055,-67.84245031021813,-15.261317814299883,-67.8853326046897,-23.50264971032161,-70.09998004027034,-16.995773969514765,-73.0463807620338,29,-79" fill="none" stroke="rgb(44, 34, 43)" stroke-width="2" stroke-linejoin="round" filter="url(#fuzzy)"></polyline><polyline points="9,-86,36.02344595169799,-68.1565099927815,40.48545887295589,-65.17431061877465,35.53289890974385,-64.27585727746495,28.212618944611627,-62.25259626350284,21.37457054906099,-59.881019229282174,14.062325660718647,-59.00469335426039,5.0290063076441776,-60.61650485833751,-4.7217229658212565,-64.36129760017126,-12.492061165217043,-69.06465161066554,-16.087903022766113,-73.4854679107666,-15.377486197520863,-76.79668775799433,-12.224968342558496,-78.7104007239031,-9.197491105683886,-79.3628198031412,-7.918079559483356,-79.12983502959021,-7.819493112806413,-78.52992935511611,-6.01272396027555,-78.19344078231258,0.9433672099254308,-78.57185549856403,13.179774508821197,-79.27660359525933,23.42869929842182,-79.7134856213955,16,-85" fill="none" stroke="rgb(44, 34, 43)" stroke-width="2" stroke-linejoin="round" filter="url(#fuzzy)"></polyline><polyline points="-14,-87,1.9482323149641727,-81.24987150736798,11.436500441888917,-74.02749789649718,21.892749650776523,-67.14667586552163,26.79134556511417,-62.331187546951696,26.558001159752543,-60.02460285268911,25.846670210594063,-59.9700645478713,27.545112794021865,-61.50281894867706,30.692291259765625,-63.80912780761719,32.06565567312684,-66.35607774048768,28.928713306182296,-69.1186771364712,21.2610874975548,-72.225219467847,12.714458017144352,-75.31973634730093,9.135607727435831,-77.58299697679647,13.233271605313554,-78.99581247431752,17.58637559348124,-81.54186674384647,10,-86" fill="none" stroke="rgb(44, 34, 43)" stroke-width="2" stroke-linejoin="round" filter="url(#fuzzy)"></polyline><polyline points="64,-33,4.410110696722556,-60.7366938606391,-4.906494969913952,-69.23177016141862,5.003714112048416,-72.13521638365742,14.285031903712033,-73.06367210007798,16.085812264991198,-73.42688281908632,11.972586775957941,-73.76481669796247,6.770318275310125,-74.11995247283252,4.431735439497251,-74.34856722241209,6.203141345425392,-74.23851738867444,11.085536659523896,-73.53178464856911,17.212211798458796,-72.09498587905107,22.63913212964502,-70.25832256731056,25.191468634954916,-68.99992354827528,22.35120112731522,-69.52881775030195,12.505854505066175,-72.17959049863485,-2.2444103951675523,-75.38720624746692,-13.25875265844427,-76.19574562450478,-4.3581643680832265,-72.57456591892773,48,-63" fill="none" stroke="rgb(44, 34, 43)" stroke-width="2" stroke-linejoin="round" filter="url(#fuzzy)"></polyline><polyline points="-52,-63,-42.45054364308149,-72.62721208274989,-38.68004045944935,-75.73043267426242,-35.31643878731455,-75.79018261867319,-29.69758993382936,-73.9154217737901,-21.983051340713477,-70.828543339859,-14.326823363664845,-67.41834888649687,-8.800658140105561,-64.79590075606806,-5.674994303860393,-63.82024898170598,-3.018892751214171,-64.50645315534786,2.0513731369117143,-65.86323402228189,11.076002036445722,-66.35961502373826,22.52134966243001,-64.84698271771549,32.19404700476319,-61.50739643202708,35.887981047117485,-58.04865774421077,32.227721284655864,-56.4380781744865,20.271281532530516,-58.8034273128419,-25,-84" fill="none" stroke="rgb(44, 34, 43)" stroke-width="2" stroke-linejoin="round" filter="url(#fuzzy)"></polyline><!--]--></g><g id="pointNose"><g id="rightNose"><!--[--><circle r="2.1837461339987456" cx="8.988947111015262" cy="16.496496824374425" stroke="black" fill="none" stroke-width="1" filter="url(#fuzzy)"></circle><circle r="2.6192237140493893" cx="9.343456681803154" cy="16.80756909869062" stroke="black" fill="none" stroke-width="1" filter="url(#fuzzy)"></circle><circle r="2.058860036232088" cx="6.239460779652269" cy="19.06102514155052" stroke="black" fill="none" stroke-width="1" filter="url(#fuzzy)"></circle><circle r="1.9717184052685313" cx="7.224917840205308" cy="16.373758721991045" stroke="black" fill="none" stroke-width="1" filter="url(#fuzzy)"></circle><circle r="2.022669153418523" cx="6.5909771233256045" cy="17.485228766766966" stroke="black" fill="none" stroke-width="1" filter="url(#fuzzy)"></circle><circle r="1.4214453855430775" cx="9.755702319721536" cy="18.859340389149256" stroke="black" fill="none" stroke-width="1" filter="url(#fuzzy)"></circle><circle r="2.834330104032866" cx="10.025249185824613" cy="16.778593298738585" stroke="black" fill="none" stroke-width="1" filter="url(#fuzzy)"></circle><circle r="2.526990023226303" cx="8.953247285914392" cy="19.51015899582299" stroke="black" fill="none" stroke-width="1" filter="url(#fuzzy)"></circle><circle r="2.5354687565387293" cx="9.888176172795202" cy="18.161093442720333" stroke="black" fill="none" stroke-width="1" filter="url(#fuzzy)"></circle><circle r="1.2927583314413167" cx="6.131473173996852" cy="18.296194200586484" stroke="black" fill="none" stroke-width="1" filter="url(#fuzzy)"></circle><!--]--></g><g id="leftNose"><!--[--><circle r="2.253974831184846" cx="-11.108863166613952" cy="19.507984398442265" stroke="black" fill="none" stroke-width="1" filter="url(#fuzzy)"></circle><circle r="2.6750918461997566" cx="-9.050949137728542" cy="21.155416846622582" stroke="black" fill="none" stroke-width="1" filter="url(#fuzzy)"></circle><circle r="2.449704961602591" cx="-11.9641156139007" cy="21.23829583399557" stroke="black" fill="none" stroke-width="1" filter="url(#fuzzy)"></circle><circle r="1.5656237035122103" cx="-8.364109245307999" cy="20.67600439982767" stroke="black" fill="none" stroke-width="1" filter="url(#fuzzy)"></circle><circle r="1.4887700581545924" cx="-10.677411597600145" cy="19.522320801323897" stroke="black" fill="none" stroke-width="1" filter="url(#fuzzy)"></circle><circle r="2.3820378169102314" cx="-9.170095511999952" cy="20.14807250384637" stroke="black" fill="none" stroke-width="1" filter="url(#fuzzy)"></circle><circle r="1.80276523822244" cx="-10.273183144270943" cy="20.205344944379434" stroke="black" fill="none" stroke-width="1" filter="url(#fuzzy)"></circle><circle r="1.1145785192245672" cx="-11.70320387625631" cy="22.726569148839125" stroke="black" fill="none" stroke-width="1" filter="url(#fuzzy)"></circle><circle r="1.207633372114053" cx="-10.36630233998002" cy="21.471094133135317" stroke="black" fill="none" stroke-width="1" filter="url(#fuzzy)"></circle><circle r="1.4208526406552702" cx="-9.277050936648472" cy="23.136077685875623" stroke="black" fill="none" stroke-width="1" filter="url(#fuzzy)"></circle><!--]--></g></g><g id="mouth"><polyline points="-44.0814043071596,34.95965951213768,-43.485756510963085,36.6319228839303,-42.883144408317314,38.25845060541198,-42.27360243365702,39.839577610417166,-41.6571650214169,41.375638832780254,-41.033866606031694,42.86696920633566,-40.403741621936106,44.3139036649178,-39.76682450356485,45.716777142361074,-39.12314968535266,47.07592457249994,-38.47275160173424,48.39168088916876,-37.815664687144306,49.664381026201966,-37.15192337601756,50.894359917433974,-36.48156210278875,52.08195249669922,-35.804615301892575,53.227493697832095,-35.12111740776375,54.331318454667006,-34.431102854837015,55.393761701038386,-33.73460607754705,56.41515837078064,-33.031661510328604,57.3958433977282,-32.32230358761638,58.33615171571546,-31.606566743845097,59.236418258576826,-30.884485413449486,60.096977960146745,-30.156094030864235,60.91816575425961,-29.42142703052408,61.70031657474983,-28.680518846863738,62.44376535545184,-27.933403914317925,63.14884703020003,-27.18011666732136,63.815896532828845,-26.42069154030875,64.44524879717265,-25.655162967714812,65.03723875706592,-24.883565383974275,65.59220134634303,-24.10593322352185,66.11047149883841,-23.322300920792248,66.59238414838646,-22.5327029102202,67.0382742288216,-21.737173626240413,67.44847667397826,-20.9357475032876,67.82332641769084,-20.12845897579649,68.16315839379374,-19.315342478201796,68.4683075361214,-18.496432444938236,68.73910877850824,-17.671763310440515,68.97589705478865,-16.841369509143366,69.17900729879705,-16.005285475481504,69.34877444436786,-15.16354564388963,69.48553342533549,-14.316184448802487,69.58961917553438,-13.463236324654767,69.6613666287989,-12.6047357058812,69.70111071896349,-11.740717026916506,69.70918637986256,-10.871214722195397,69.68592854533054,-9.996263226152582,69.63167214920182,-9.115896973222794,69.54675212531083,-8.230150397840742,69.43150340749196,-7.339057934441137,69.28626092957965,-6.442654017458709,69.11135962540831,-5.540973081328168,68.90713442881236,-4.634049560484227,68.6739202736262,-3.7219178893616105,68.41205209368425,-2.804612502395033,68.12186482282092,-1.8821678340192127,67.80369339487065,-0.954618318668861,67.4578727436678,-0.02199839077870358,67.08473780304686,0.9156575152165498,66.68462350684219,1.8583149648821777,66.2578647888882,2.805939523783465,65.80479658301934,3.7584967574856947,65.32575382306999,4.715952231554149,64.8210714428746,5.678271511554112,64.29108437626755,6.645420163050864,63.736127557083286,7.617363751609691,63.15653591915619,8.594067842795873,62.5526443963207,9.575498002174696,61.92478792241122,10.56161979531144,61.27330143126217,11.55239878777139,60.59851985670795,12.547800545119829,59.900778132583,13.54779063292204,59.18041119272172,14.552334616743302,58.43775397095853,15.561398062148902,57.67314140112782,16.574946534704125,56.886908417064035,17.59294559997425,56.07938995260159,18.61536082352456,55.25092094157487,19.64215777092034,54.40183631781832,20.67330200772687,53.53247101516634,21.708759099509436,52.64315996745334,22.74849461183332,51.734238108513736,23.7924741102638,50.806040372181954,24.84066316036617,49.858901692292406,25.893027327705703,48.893157002679494,26.94953217784769,47.90914123717765,28.010143276357407,46.907189329621275,29.074826188800138,45.88763621384478,30.14354648074117,44.85081682368259,31.216269717745778,43.79706609296912,32.29296146537925,42.72671895553877,33.373587289206874,41.64011034522598,34.45811275479392,40.537575195865145,35.546503427705694,39.41944844129068,36.63872487350745,38.286065015337,37.73474265776449,37.13775985183853,38.8345223460421,35.974867884629674,39.93802950390554,34.79772404754485,41.045229696920124,33.60666327441847,42.15608849065111,32.402020499084955,43.27057145066378,31.184130655378713,44.38864414252336,29.95332867713424,43.27057145066372,31.184130655378794,42.15608849065102,32.40202049908503,41.045229696920046,33.606663274418544,39.93802950390547,34.797724047544925,38.83452234604202,35.974867884629745,37.73474265776442,37.137759851838595,36.63872487350738,38.28606501533707,35.54650342770563,39.419448441290754,34.458112754793866,40.537575195865216,33.37358728920682,41.640110345226056,32.29296146537919,42.726718955538836,31.21626971774572,43.79706609296918,30.143546480741108,44.85081682368265,29.07482618880008,45.88763621384483,28.010143276357343,46.90718932962132,26.94953217784763,47.90914123717769,25.89302732770565,48.89315700267955,24.840663160366113,49.85890169229245,23.792474110263743,50.806040372182004,22.748494611833266,51.73423810851379,21.70875909950938,52.64315996745338,20.673302007726814,53.53247101516638,19.642157770920285,54.40183631781835,18.615360823524504,55.25092094157492,17.592945599974204,56.07938995260164,16.574946534704075,56.886908417064085,15.561398062148854,57.673141401127864,14.552334616743257,58.43775397095857,13.547790632921991,59.18041119272177,12.547800545119783,59.90077813258304,11.552398787771343,60.598519856708,10.561619795311396,61.27330143126221,9.575498002174648,61.924787922411255,8.594067842795829,62.552644396320744,7.617363751609645,63.15653591915622,6.645420163050819,63.73612755708332,5.678271511554064,64.29108437626759,4.715952231554104,64.82107144287463,3.7584967574856494,65.32575382307003,2.8059395237834215,65.80479658301937,1.8583149648821347,66.25786478888824,0.9156575152165045,66.6846235068422,-0.021998390778748877,67.08473780304689,-0.9546183186689063,67.45787274366785,-1.8821678340192571,67.80369339487068,-2.804612502395079,68.12186482282094,-3.7219178893616567,68.41205209368427,-4.6340495604842715,68.67392027362622,-5.54097308132821,68.90713442881237,-6.442654017458748,69.11135962540831,-7.339057934441178,69.28626092957965,-8.23015039784078,69.43150340749196,-9.115896973222835,69.54675212531082,-9.996263226152625,69.63167214920182,-10.871214722195433,69.68592854533053,-11.740717026916546,69.70918637986256,-12.604735705881241,69.70111071896349,-13.463236324654808,69.66136662879889,-14.316184448802524,69.58961917553435,-15.163545643889673,69.48553342533548,-16.00528547548154,69.34877444436785,-16.841369509143405,69.17900729879703,-17.671763310440554,68.97589705478863,-18.49643244493827,68.73910877850821,-19.315342478201835,68.46830753612139,-20.12845897579653,68.16315839379372,-20.93574750328764,67.8233264176908,-21.737173626240445,67.44847667397822,-22.53270291022023,67.03827422882156,-23.322300920792284,66.59238414838642,-24.10593322352188,66.11047149883836,-24.88356538397431,65.592201346343,-25.655162967714844,65.03723875706588,-26.42069154030878,64.44524879717262,-27.180116667321393,63.8158965328288,-27.933403914317964,63.148847030199995,-28.68051884686378,62.4437653554518,-29.421427030524125,61.70031657474979,-30.156094030864274,60.91816575425957,-30.88448541344952,60.09697796014671,-31.606566743845143,59.236418258576784,-32.322303587616425,58.3361517157154,-33.03166151032865,57.39584339772816,-33.73460607754709,56.4151583707806,-34.43110285483705,55.39376170103834,-35.12111740776379,54.331318454666956,-35.80461530189261,53.22749369783203,-36.481562102788786,52.08195249669916,-37.15192337601759,50.89435991743392,-37.815664687144334,49.664381026201895,-38.472751601734274,48.39168088916868,-39.12314968535269,47.075924572499844,-39.7668245035649,45.716777142361,-40.40374162193615,44.31390366491772,-41.03386660603174,42.86696920633557,-41.65716502141695,41.37563883278017,-42.27360243365706,39.839577610417074,-42.883144408317364,38.25845060541189,-43.48575651096313,36.63192288393018" fill="rgb(215,127,140)" stroke="black" stroke-width="3" stroke-linejoin="round" filter="url(#fuzzy)"></polyline></g></svg>