<svg viewBox="-100 -100 200 200" xmlns="http://www.w3.org/2000/svg" width="400" height="400" id="face-svg"><defs><clipPath id="leftEyeClipPath"><polyline points="31.257007147334132,-4.52541068321187,30.942434012800824,-4.824744453543778,30.587178517486038,-5.10690262950664,30.192683495528264,-5.372700909042723,29.760398355251226,-5.62292678562202,29.29177789125339,-5.858340053882827,28.78828109649756,-6.07967331527233,28.251369974400415,-6.28763248368719,27.68250835092208,-6.482897291114127,27.083160686655667,-6.666121793270509,26.454790888916847,-6.837934875244937,25.7988611238334,-6.998940757137824,25.11683062843477,-7.1497194997019875,24.41015452274163,-7.290827509983234,23.68028262185543,-7.422798046960939,22.928658248047952,-7.54614172718864,22.11039596319175,-7.660092883021872,21.258035840179236,-7.766970254635936,20.37374050221904,-7.8671879948735794,19.459805729906797,-7.961131765976486,18.518639387024727,-8.049160288273791,17.552741351034506,-8.13160683768329,16.56468442868121,-8.208780692994793,15.557096237126196,-8.280968533905138,14.532642031026597,-8.348435790774309,13.494008455979415,-8.411427947072175,12.443888208747772,-8.470171795485326,11.38496558468737,-8.524876648653473,10.319902892790772,-8.575735505504902,9.251327718767385,-8.62292617416048,8.18182101657693,-8.666612352375672,7.113906008834199,-8.706944666490083,6.050037876502903,-8.744061669853949,4.992594218296403,-8.778090801701143,3.943866260203114,-8.809149307438119,2.906050795554412,-8.837345121318268,1.8812428360528184,-8.86277771247124,0.8714289541782492,-8.885538895256627,-0.12151870260983344,-8.905713604911558,-1.0958477454565685,-8.923380639461643,-2.049930245064436,-8.938613368864788,-2.982266819596612,-8.951480412357324,-3.8914901291133326,-8.962046284971965,-4.776367796123326,-8.97037201419706,-5.635804771832614,-8.976515727746637,-6.46884516767275,-8.980533213410691,-7.274673571690897,-8.982478451955243,-8.052615869383704,-8.982404124041619,-8.802139588557424,-8.980362092134435,-9.522853787796244,-8.976403858367801,-10.214508508121241,-8.970580999339182,-10.876993807421979,-8.962945578800426,-11.5103383972431,-8.953550539215449,-12.114707901507977,-8.942450073154028,-12.690402756761763,-8.92969997549123,-13.237855773515896,-8.915357977381907,-13.757629378276395,-8.899484062979786,-14.250412555838029,-8.882140769870611,-14.717017511426668,-8.86339347418883,-15.15837607227192,-8.843310661387303,-15.575535848192331,-8.821964183629522,-15.969656170775252,-8.799429504773812,-16.342003830733788,-8.775785933919023,-16.69394863302268,-8.751116848481159,-17.026958789295623,-8.725509907770457,-17.34259616728619,-8.699057258038387,-17.640933293113076,-8.671652945154891,-17.92135292424426,-8.643147803036197,-18.184459102512438,-8.61357331807216,-18.430866436367786,-8.58296177102531,-18.661197478261762,-8.551346107189412,-18.876080102030954,-8.518759806548,-19.076144880280985,-8.485236753932941,-19.262022461770293,-8.450811109182975,-19.43434094879405,-8.415517177302272,-19.593723274567974,-8.37938927861897,-19.74078458061219,-8.342461618943736,-19.876129594135076,-8.304768159728308,-20.000350005417147,-8.266342488224046,-20.114021845194852,-8.227217687640483,-18.141650878418762,-3.6855784201993353,-17.890709313253435,-3.421749616598981,-17.630469209800935,-3.1515962849883,-17.360592671870812,-2.875154851108644,-17.080737200570322,-2.592482556769104,-16.790556997561357,-2.3036581651307726,-16.489704268317485,-2.0087826659909664,-16.177830525380855,-1.7079799810674885,-15.854587891619193,-1.40139766928288,-15.519630403482775,-1.0892076320486384,-15.17261531426136,-0.7716068185495004,-14.813204397341206,-0.44881793102765677,-14.441065249461985,-0.12109013006701907,-14.055872593973803,0.2113002601225471,-13.657309584094119,0.548049046420962,-13.245137011321436,0.8897305921460319,-12.81870909605368,1.2369385789453808,-12.377149721827458,1.5893077771777762,-11.91964301479706,1.9463832534604535,-11.4454361095537,2.30762286246474,-10.953841826891153,2.672399910667309,-10.444241253786718,3.0400059973231244,-9.916086215866624,3.4096540379262095,-9.368901632624695,3.7804814754244056,-8.802287745663566,4.151553684454148,-8.215922210227195,4.52186757386152,-7.60956204029387,4.8903553927755326,-6.98304539749865,5.255888745499933,-6.33629321415426,5.617282820489526,-5.669310640639477,5.973300838677211,-4.982188307423968,6.322658726417815,-4.275103391998691,6.664030018314875,-3.548320480980747,6.996050995196436,-2.8021922176618403,7.31732606250608,-2.037159725269216,7.626433374375216,-1.2537527962082233,7.921930708642828,-0.45258983755540605,8.202361598088713,0.36562243692878305,8.466261723146433,1.200089577998673,8.712165571362059,2.0499302450644343,8.938613368864788,2.914177333006516,9.144158289115632,3.7917793913944218,9.32737394420022,4.681602345840828,9.486862163931951,5.582431531222003,9.621261068031467,6.492974046495551,9.729253436648717,7.4118614408464465,9.809575384493607,8.33765274089232,9.86102534384147,9.26883782867904,9.8824733616794,10.203841180197516,9.872870716259603,11.141025974152726,9.831259858325888,12.078698580716004,9.756784682279426,13.015113439991483,9.64870113254983,13.948478339927737,9.506388150437862,14.876960103405622,9.329358966695596,15.798690694233233,9.117272745110514,16.711773751779063,8.8699465823593,17.61429156397422,8.587367869397747,18.50431248841481,8.26970701965273,19.379898831295417,7.917330569282408,20.239115193904627,7.530814654770802,21.08003729641368,7.11095887312287,21.90076128868913,6.658800529926143,22.699413557860577,6.175629280545126,23.47416104237441,5.663002169714529,24.22322206226456,5.122759074797488,24.887068065466472,4.781337244060941,25.532536620628147,4.426253467669321,26.158341574313987,4.058451760088364,26.763172974491013,3.6789637204042585,27.34569732635428,3.288911050973338,27.904557848152333,2.8895080760717757,28.438374727012658,2.4820642605452914,28.945745374767135,2.0679867284588287,29.42524468377746,1.6487827817462506,29.87542528276063,1.2260624188600477,30.294817792614346,0.8015408534210078,30.68193108224251,0.3770410328679361,31.035252524380624,-0.04550384289266951,31.35324825142126,-0.46404780283692126,31.634363411239523,-0.8764295861738365"></polyline></clipPath><clipPath id="rightEyeClipPath"><polyline points="-31.878642485762867,-6.8320214382759215,-31.593195085182423,-7.190216342865704,-31.268532212769657,-7.527809144425083,-30.905590063098636,-7.845782022580245,-30.505344782493623,-8.145083096821882,-30.06881044203513,-8.426627038407931,-29.597037010566055,-8.691295682266352,-29.091108327697825,-8.939938638897882,-28.552140076816464,-9.173373906278789,-27.98127775808878,-9.392388481763646,-27.379694661468406,-9.597738973988088,-26.748589839701957,-9.790152214771565,-26.089186081335143,-9.970325871020114,-25.4027278837189,-10.138929056629117,-24.690479426015457,-10.296602944386056,-23.953722542204517,-10.443961377873283,-23.193151911583648,-10.57967153757696,-22.39125323666535,-10.706959202525008,-21.54996158808777,-10.826323380508363,-20.671427715384795,-10.938227871122546,-19.75799029753103,-11.043103129968484,-18.812149458536318,-11.141348075517358,-17.836541523725465,-11.233331839660067,-16.833914992339196,-11.319395462962042,-15.807107702092061,-11.399853535644073,-14.759025161323285,-11.474995785309812,-13.69262002437625,-11.545088612440658,-12.610872685842669,-11.61037657467868,-11.516772969307134,-11.671083820918255,-10.413302886228003,-11.727415476227119,-9.303420440590434,-11.779558978617494,-8.190044454967449,-11.827685368687964,-7.076040393624868,-11.871950533156795,-5.9642071583059995,-11.912496403307363,-4.857264832331911,-11.949452109366376,-3.757843348653144,-11.982935091835557,-2.6684720574887777,-12.013052170797486,-1.5915701691886177,-12.039900574216254,-0.5294380479544518,-12.063568926253627,0.5157506679438342,-12.084138196621394,1.5419561438213787,-12.101682611990562,2.547278648464861,-12.116270530478097,3.529964100616585,-12.127965280231882,4.48840888642019,-12.136825963134555,5.421163972192264,-12.14290822464693,6.326938336883805,-12.146264990811662,7.2046017485959215,-12.14694717343784,8.053186909513665,-12.145004344487177,8.871890993622321,-12.140485380682499,9.660076601570191,-12.133439079359174,10.417272157042111,-12.123914746580203,11.143171769007674,-12.111962758535599,11.837634584208518,-12.09763509724679,12.500683654248624,-12.080985861596677,13.132504341651972,-12.062071754706038,13.733442289251402,-12.040952548676986,14.304000977273175,-12.0176915277241,14.844838892481084,-11.992355910713968,15.356766333744423,-11.96501725413378,15.840741878393873,-11.935751836509656,16.297868533729535,-11.90464102529541,16.729389598045103,-11.871771627252397,17.136684255532487,-11.83723622334113,17.521262929430947,-11.80113348914537,17.884762417784813,-11.763568501849326,18.228940836174118,-11.724653034788675,18.55376976464823,-11.684241493163187,18.858422913591106,-11.642131343279841,19.143563390881503,-11.598355337010162,19.409870266059258,-11.552947708609326,19.658035307270602,-11.50594403801821,19.888759718213393,-11.457381114165443,20.102750875082457,-11.407296798269467,20.300719063514926,-11.355729887140585,20.483374215535427,-11.302719976483024,20.65142264650153,-11.248307324196977,20.8055637920489,-11.192532713680674,20.94648694503671,-11.135437317132418,21.074867992492862,-11.077062558852658,21.191366152559333,-11.01744997854603,19.427893774358388,-4.7902958882576065,19.153374346948446,-4.418955033393711,18.869846020559635,-4.039491057460032,18.57696360388252,-3.6520053117357802,18.274376512643116,-3.25662913312285,17.961730194746863,-2.853524456691689,17.63866755542265,-2.4428844282271633,17.304830382366724,-2.024934016774443,16.959860770886756,-1.599930627184861,16.60340254904576,-1.168164712661783,16.235102702806138,-0.7299603873064964,15.854612801173621,-0.28567603866407687,15.461590421341272,0.16429505973075287,15.055700573833468,0.6195241358077315,14.636617127649897,1.0795463064152067,14.204082669485727,1.5452989844317813,13.757426403021261,2.0176819431960418,13.295755427952335,2.4960617421391618,12.818240170451523,2.979694919996609,12.324117126430432,3.467731721825265,11.812691510432073,3.959220038867823,11.283339799512161,4.45310956583819,10.735512161468334,4.948256180201454,10.168734756776152,5.443426548022238,9.582611903590864,5.9373029609549555,8.976828095173824,6.42848840894985,8.35114985910249,6.91551189324823,7.7054274476229185,7.396833984240864,7.039596348503734,7.870852628762915,6.353678605750444,8.335909211399382,5.647783939539028,8.790294874374524,4.922110654727742,9.232257100598972,4.176946327306059,9.660006564448278,3.4126682581397034,10.07172425484653,2.6297436833706023,10.465568875228694,1.8287297308308208,10.839684524955413,1.0102731118292834,11.192208666753846,0.17510953767028958,11.521280384758349,-0.6759371497373312,11.825048937724539,-1.5419561438213787,12.101682611990562,-2.4219511464790076,12.34937787875906,-3.3148421590418753,12.566368860273741,-4.219467601715019,12.750937109463933,-5.134586772130334,12.901421707631187,-6.058882653655866,13.016229684751163,-6.990965084101928,13.093846766964845,-7.929374295465131,13.132848455832573,-8.872584835351407,13.131911443924572,-9.81900988071911,13.08982537132172,-10.767005954583215,13.005504927600217,-11.714878056321803,12.878002303873775,-12.660885216225768,12.706519999467062,-13.603246484932924,12.49042398779406,-14.540147368387547,12.229257246014992,-15.469746718966437,11.922753653045572,-16.390184093412564,11.570852260492089,-17.29958758821738,11.173711941086207,-18.196082163092875,10.731726419192995,-19.077798463174453,10.245539687965952,-19.942882150595693,9.716061817722665,-20.789503756076066,9.144485160114762,-21.61586906116274,8.532300952665924,-22.420230021767413,7.88131632825149,-23.200896243639455,7.193671734093456,-23.9562470204162,6.471858764844491,-24.63666360125398,6.005656029514455,-25.30007130185156,5.5223726297483005,-25.945334731862957,5.023278474754491,-26.571303631539053,4.5097540006523715,-27.176813359078352,3.983293249587561,-27.76068537797775,3.445506948847372,-28.321727744383324,2.898125589976228,-28.85873559444105,2.3430025078910717,-29.370491631647617,1.7821169599967668,-29.85576661420116,1.217577205301538,-30.31331984235205,0.6516235835323556,-30.741899645753648,0.08663159425036504,-31.14024387081306,-0.47488502403371413,-31.50708036804194,-1.0302712147441557,-31.841127479407206,-1.5767275241248306"></polyline></clipPath><filter id="fuzzy"><feTurbulence id="turbulence" baseFrequency="0.05" numOctaves="3" type="noise" result="noise"></feTurbulence><feDisplacementMap in="SourceGraphic" in2="noise" scale="2"></feDisplacementMap></filter><linearGradient id="rainbowGradient" x1="0%" y1="0%" x2="100%" y2="0%"><stop offset="0%" style="stop-color: rgb(220, 208, 186);  stop-opacity: 1"></stop><stop offset="50%" style="stop-color: rgb(64, 224, 208);  stop-opacity: 1"></stop><stop offset="100%" style="stop-color: rgb(220, 208, 186);  stop-opacity: 1"></stop></linearGradient></defs><title>That&#39;s an ugly face</title><desc>CREATED BY XUAN TANG, MORE INFO AT TXSTC55.GITHUB.IO</desc><rect x="-100" y="-100" width="100%" height="100%" opacity="1" fill="rgb(230, 230, 250)"></rect><polyline id="faceContour" points="63,0,63,2,63,1,63,4,63,6,64,5,64,9,64,8,63,12,63,13,63,12,63,16,63,14,63,18,62,21,63,20,63,20,63,22,62,24,62,25,62,26,61,28,61,30,61,31,60,34,60,34,60,35,60,34,59,37,59,37,58,39,58,40,57,42,56,44,56,44,56,45,56,46,55,47,54,49,54,50,54,49,53,52,53,52,52,54,51,55,51,56,50,58,49,59,48,59,47,62,47,61,47,62,47,62,44,65,43,66,44,66,44,66,42,68,41,69,41,70,39,71,39,70,37,72,38,72,37,73,36,74,35,75,33,77,33,77,32,77,32,77,30,79,29,79,28,80,28,80,25,81,26,82,25,81,23,83,21,84,21,83,21,84,18,85,19,84,16,86,17,85,15,86,14,86,13,87,13,87,10,88,8,88,9,88,8,88,7,88,7,88,4,89,4,89,3,89,1,89,-1,89,-1,89,-2,89,-3,89,-5,89,-4,89,-7,89,-8,89,-8,89,-10,89,-11,89,-12,88,-14,88,-14,88,-14,88,-16,87,-17,87,-18,87,-20,86,-19,86,-20,86,-22,85,-23,85,-25,84,-25,84,-27,83,-27,83,-29,82,-29,82,-29,82,-30,81,-33,80,-34,79,-32,80,-34,79,-35,78,-37,77,-37,77,-37,76,-38,75,-39,74,-41,72,-42,71,-42,71,-43,70,-43,70,-45,68,-44,68,-46,67,-47,66,-47,66,-48,65,-49,63,-50,61,-50,61,-50,61,-51,59,-52,58,-52,57,-54,54,-54,54,-54,54,-54,53,-54,52,-56,49,-57,47,-56,47,-56,48,-58,45,-57,45,-58,43,-59,42,-59,40,-60,38,-60,37,-60,36,-60,35,-61,34,-61,31,-62,30,-62,30,-62,29,-62,26,-63,23,-62,24,-63,22,-63,21,-63,19,-63,17,-63,16,-63,13,-63,14,-63,13,-63,11,-64,9,-64,9,-64,8,-64,5,-64,2,-64,2,-64,-2,-63,-2,-63,-3,-63,-4,-63,-7,-63,-7,-63,-10,-62,-12,-62,-11,-62,-14,-62,-16,-62,-16,-62,-18,-61,-19,-61,-20,-61,-22,-60,-24,-60,-25,-60,-27,-59,-29,-59,-29,-59,-31,-58,-32,-58,-33,-57,-34,-57,-35,-57,-37,-56,-38,-56,-38,-56,-40,-55,-42,-54,-44,-54,-45,-53,-46,-53,-47,-52,-48,-52,-50,-51,-52,-52,-50,-51,-51,-49,-55,-49,-56,-48,-57,-48,-58,-47,-59,-46,-61,-46,-61,-45,-63,-44,-64,-44,-63,-43,-66,-43,-66,-41,-68,-41,-68,-41,-68,-39,-70,-39,-70,-38,-71,-37,-72,-35,-74,-35,-74,-35,-74,-34,-76,-32,-77,-32,-77,-32,-77,-31,-78,-30,-79,-29,-80,-28,-80,-28,-80,-27,-81,-25,-82,-25,-82,-24,-83,-22,-84,-22,-84,-20,-85,-20,-85,-20,-85,-17,-86,-18,-86,-18,-86,-15,-87,-14,-87,-14,-88,-13,-88,-12,-88,-11,-88,-10,-88,-10,-88,-9,-89,-7,-89,-8,-89,-5,-89,-5,-89,-3,-89,-3,-89,-1,-89,-1,-89,1,-89,1,-89,3,-89,3,-89,3,-89,5,-89,6,-88,5,-89,7,-88,8,-88,11,-87,10,-87,12,-86,11,-87,13,-86,15,-85,15,-85,16,-85,16,-85,17,-85,17,-84,21,-83,20,-83,22,-81,21,-82,24,-80,25,-80,24,-80,26,-79,26,-79,28,-77,29,-76,30,-76,30,-76,30,-76,32,-74,32,-74,33,-73,33,-73,34,-72,36,-70,36,-70,37,-69,38,-68,38,-67,39,-66,40,-65,41,-64,42,-63,42,-63,43,-62,44,-60,44,-60,44,-60,45,-59,46,-56,47,-55,48,-54,47,-54,49,-52,49,-51,50,-50,51,-48,52,-47,51,-48,53,-44,53,-44,54,-43,54,-42,54,-41,55,-39,56,-37,56,-36,56,-36,56,-35,57,-33,57,-33,58,-32,58,-29,59,-28,59,-26,60,-24,60,-25,60,-23,61,-20,61,-21,61,-18,61,-16,62,-15,62,-14,62,-13,62,-14,63,-10,62,-11,63,-9,63,-8,63,-6,63,-4,63,-1,63,-2,63,0,63,2" fill="#ffc9a9" stroke="black" stroke-width="1.6666666666666665" stroke-linejoin="round" filter="url(#fuzzy)"></polyline><g transform="translate(24.961311218173343 -26.6405621818765)"><polyline id="rightCountour" points="-31.878642485762867,-6.8320214382759215,-31.593195085182423,-7.190216342865704,-31.268532212769657,-7.527809144425083,-30.905590063098636,-7.845782022580245,-30.505344782493623,-8.145083096821882,-30.06881044203513,-8.426627038407931,-29.597037010566055,-8.691295682266352,-29.091108327697825,-8.939938638897882,-28.552140076816464,-9.173373906278789,-27.98127775808878,-9.392388481763646,-27.379694661468406,-9.597738973988088,-26.748589839701957,-9.790152214771565,-26.089186081335143,-9.970325871020114,-25.4027278837189,-10.138929056629117,-24.690479426015457,-10.296602944386056,-23.953722542204517,-10.443961377873283,-23.193151911583648,-10.57967153757696,-22.39125323666535,-10.706959202525008,-21.54996158808777,-10.826323380508363,-20.671427715384795,-10.938227871122546,-19.75799029753103,-11.043103129968484,-18.812149458536318,-11.141348075517358,-17.836541523725465,-11.233331839660067,-16.833914992339196,-11.319395462962042,-15.807107702092061,-11.399853535644073,-14.759025161323285,-11.474995785309812,-13.69262002437625,-11.545088612440658,-12.610872685842669,-11.61037657467868,-11.516772969307134,-11.671083820918255,-10.413302886228003,-11.727415476227119,-9.303420440590434,-11.779558978617494,-8.190044454967449,-11.827685368687964,-7.076040393624868,-11.871950533156795,-5.9642071583059995,-11.912496403307363,-4.857264832331911,-11.949452109366376,-3.757843348653144,-11.982935091835557,-2.6684720574887777,-12.013052170797486,-1.5915701691886177,-12.039900574216254,-0.5294380479544518,-12.063568926253627,0.5157506679438342,-12.084138196621394,1.5419561438213787,-12.101682611990562,2.547278648464861,-12.116270530478097,3.529964100616585,-12.127965280231882,4.48840888642019,-12.136825963134555,5.421163972192264,-12.14290822464693,6.326938336883805,-12.146264990811662,7.2046017485959215,-12.14694717343784,8.053186909513665,-12.145004344487177,8.871890993622321,-12.140485380682499,9.660076601570191,-12.133439079359174,10.417272157042111,-12.123914746580203,11.143171769007674,-12.111962758535599,11.837634584208518,-12.09763509724679,12.500683654248624,-12.080985861596677,13.132504341651972,-12.062071754706038,13.733442289251402,-12.040952548676986,14.304000977273175,-12.0176915277241,14.844838892481084,-11.992355910713968,15.356766333744423,-11.96501725413378,15.840741878393873,-11.935751836509656,16.297868533729535,-11.90464102529541,16.729389598045103,-11.871771627252397,17.136684255532487,-11.83723622334113,17.521262929430947,-11.80113348914537,17.884762417784813,-11.763568501849326,18.228940836174118,-11.724653034788675,18.55376976464823,-11.684241493163187,18.858422913591106,-11.642131343279841,19.143563390881503,-11.598355337010162,19.409870266059258,-11.552947708609326,19.658035307270602,-11.50594403801821,19.888759718213393,-11.457381114165443,20.102750875082457,-11.407296798269467,20.300719063514926,-11.355729887140585,20.483374215535427,-11.302719976483024,20.65142264650153,-11.248307324196977,20.8055637920489,-11.192532713680674,20.94648694503671,-11.135437317132418,21.074867992492862,-11.077062558852658,21.191366152559333,-11.01744997854603,19.427893774358388,-4.7902958882576065,19.153374346948446,-4.418955033393711,18.869846020559635,-4.039491057460032,18.57696360388252,-3.6520053117357802,18.274376512643116,-3.25662913312285,17.961730194746863,-2.853524456691689,17.63866755542265,-2.4428844282271633,17.304830382366724,-2.024934016774443,16.959860770886756,-1.599930627184861,16.60340254904576,-1.168164712661783,16.235102702806138,-0.7299603873064964,15.854612801173621,-0.28567603866407687,15.461590421341272,0.16429505973075287,15.055700573833468,0.6195241358077315,14.636617127649897,1.0795463064152067,14.204082669485727,1.5452989844317813,13.757426403021261,2.0176819431960418,13.295755427952335,2.4960617421391618,12.818240170451523,2.979694919996609,12.324117126430432,3.467731721825265,11.812691510432073,3.959220038867823,11.283339799512161,4.45310956583819,10.735512161468334,4.948256180201454,10.168734756776152,5.443426548022238,9.582611903590864,5.9373029609549555,8.976828095173824,6.42848840894985,8.35114985910249,6.91551189324823,7.7054274476229185,7.396833984240864,7.039596348503734,7.870852628762915,6.353678605750444,8.335909211399382,5.647783939539028,8.790294874374524,4.922110654727742,9.232257100598972,4.176946327306059,9.660006564448278,3.4126682581397034,10.07172425484653,2.6297436833706023,10.465568875228694,1.8287297308308208,10.839684524955413,1.0102731118292834,11.192208666753846,0.17510953767028958,11.521280384758349,-0.6759371497373312,11.825048937724539,-1.5419561438213787,12.101682611990562,-2.4219511464790076,12.34937787875906,-3.3148421590418753,12.566368860273741,-4.219467601715019,12.750937109463933,-5.134586772130334,12.901421707631187,-6.058882653655866,13.016229684751163,-6.990965084101928,13.093846766964845,-7.929374295465131,13.132848455832573,-8.872584835351407,13.131911443924572,-9.81900988071911,13.08982537132172,-10.767005954583215,13.005504927600217,-11.714878056321803,12.878002303873775,-12.660885216225768,12.706519999467062,-13.603246484932924,12.49042398779406,-14.540147368387547,12.229257246014992,-15.469746718966437,11.922753653045572,-16.390184093412564,11.570852260492089,-17.29958758821738,11.173711941086207,-18.196082163092875,10.731726419192995,-19.077798463174453,10.245539687965952,-19.942882150595693,9.716061817722665,-20.789503756076066,9.144485160114762,-21.61586906116274,8.532300952665924,-22.420230021767413,7.88131632825149,-23.200896243639455,7.193671734093456,-23.9562470204162,6.471858764844491,-24.63666360125398,6.005656029514455,-25.30007130185156,5.5223726297483005,-25.945334731862957,5.023278474754491,-26.571303631539053,4.5097540006523715,-27.176813359078352,3.983293249587561,-27.76068537797775,3.445506948847372,-28.321727744383324,2.898125589976228,-28.85873559444105,2.3430025078910717,-29.370491631647617,1.7821169599967668,-29.85576661420116,1.217577205301538,-30.31331984235205,0.6516235835323556,-30.741899645753648,0.08663159425036504,-31.14024387081306,-0.47488502403371413,-31.50708036804194,-1.0302712147441557,-31.841127479407206,-1.5767275241248306" fill="white" stroke="white" stroke-width="0" stroke-linejoin="round" filter="url(#fuzzy)"></polyline></g><g transform="translate(-26.287270372225898 -27.621955413700604)"><polyline id="leftCountour" points="31.257007147334132,-4.52541068321187,30.942434012800824,-4.824744453543778,30.587178517486038,-5.10690262950664,30.192683495528264,-5.372700909042723,29.760398355251226,-5.62292678562202,29.29177789125339,-5.858340053882827,28.78828109649756,-6.07967331527233,28.251369974400415,-6.28763248368719,27.68250835092208,-6.482897291114127,27.083160686655667,-6.666121793270509,26.454790888916847,-6.837934875244937,25.7988611238334,-6.998940757137824,25.11683062843477,-7.1497194997019875,24.41015452274163,-7.290827509983234,23.68028262185543,-7.422798046960939,22.928658248047952,-7.54614172718864,22.11039596319175,-7.660092883021872,21.258035840179236,-7.766970254635936,20.37374050221904,-7.8671879948735794,19.459805729906797,-7.961131765976486,18.518639387024727,-8.049160288273791,17.552741351034506,-8.13160683768329,16.56468442868121,-8.208780692994793,15.557096237126196,-8.280968533905138,14.532642031026597,-8.348435790774309,13.494008455979415,-8.411427947072175,12.443888208747772,-8.470171795485326,11.38496558468737,-8.524876648653473,10.319902892790772,-8.575735505504902,9.251327718767385,-8.62292617416048,8.18182101657693,-8.666612352375672,7.113906008834199,-8.706944666490083,6.050037876502903,-8.744061669853949,4.992594218296403,-8.778090801701143,3.943866260203114,-8.809149307438119,2.906050795554412,-8.837345121318268,1.8812428360528184,-8.86277771247124,0.8714289541782492,-8.885538895256627,-0.12151870260983344,-8.905713604911558,-1.0958477454565685,-8.923380639461643,-2.049930245064436,-8.938613368864788,-2.982266819596612,-8.951480412357324,-3.8914901291133326,-8.962046284971965,-4.776367796123326,-8.97037201419706,-5.635804771832614,-8.976515727746637,-6.46884516767275,-8.980533213410691,-7.274673571690897,-8.982478451955243,-8.052615869383704,-8.982404124041619,-8.802139588557424,-8.980362092134435,-9.522853787796244,-8.976403858367801,-10.214508508121241,-8.970580999339182,-10.876993807421979,-8.962945578800426,-11.5103383972431,-8.953550539215449,-12.114707901507977,-8.942450073154028,-12.690402756761763,-8.92969997549123,-13.237855773515896,-8.915357977381907,-13.757629378276395,-8.899484062979786,-14.250412555838029,-8.882140769870611,-14.717017511426668,-8.86339347418883,-15.15837607227192,-8.843310661387303,-15.575535848192331,-8.821964183629522,-15.969656170775252,-8.799429504773812,-16.342003830733788,-8.775785933919023,-16.69394863302268,-8.751116848481159,-17.026958789295623,-8.725509907770457,-17.34259616728619,-8.699057258038387,-17.640933293113076,-8.671652945154891,-17.92135292424426,-8.643147803036197,-18.184459102512438,-8.61357331807216,-18.430866436367786,-8.58296177102531,-18.661197478261762,-8.551346107189412,-18.876080102030954,-8.518759806548,-19.076144880280985,-8.485236753932941,-19.262022461770293,-8.450811109182975,-19.43434094879405,-8.415517177302272,-19.593723274567974,-8.37938927861897,-19.74078458061219,-8.342461618943736,-19.876129594135076,-8.304768159728308,-20.000350005417147,-8.266342488224046,-20.114021845194852,-8.227217687640483,-18.141650878418762,-3.6855784201993353,-17.890709313253435,-3.421749616598981,-17.630469209800935,-3.1515962849883,-17.360592671870812,-2.875154851108644,-17.080737200570322,-2.592482556769104,-16.790556997561357,-2.3036581651307726,-16.489704268317485,-2.0087826659909664,-16.177830525380855,-1.7079799810674885,-15.854587891619193,-1.40139766928288,-15.519630403482775,-1.0892076320486384,-15.17261531426136,-0.7716068185495004,-14.813204397341206,-0.44881793102765677,-14.441065249461985,-0.12109013006701907,-14.055872593973803,0.2113002601225471,-13.657309584094119,0.548049046420962,-13.245137011321436,0.8897305921460319,-12.81870909605368,1.2369385789453808,-12.377149721827458,1.5893077771777762,-11.91964301479706,1.9463832534604535,-11.4454361095537,2.30762286246474,-10.953841826891153,2.672399910667309,-10.444241253786718,3.0400059973231244,-9.916086215866624,3.4096540379262095,-9.368901632624695,3.7804814754244056,-8.802287745663566,4.151553684454148,-8.215922210227195,4.52186757386152,-7.60956204029387,4.8903553927755326,-6.98304539749865,5.255888745499933,-6.33629321415426,5.617282820489526,-5.669310640639477,5.973300838677211,-4.982188307423968,6.322658726417815,-4.275103391998691,6.664030018314875,-3.548320480980747,6.996050995196436,-2.8021922176618403,7.31732606250608,-2.037159725269216,7.626433374375216,-1.2537527962082233,7.921930708642828,-0.45258983755540605,8.202361598088713,0.36562243692878305,8.466261723146433,1.200089577998673,8.712165571362059,2.0499302450644343,8.938613368864788,2.914177333006516,9.144158289115632,3.7917793913944218,9.32737394420022,4.681602345840828,9.486862163931951,5.582431531222003,9.621261068031467,6.492974046495551,9.729253436648717,7.4118614408464465,9.809575384493607,8.33765274089232,9.86102534384147,9.26883782867904,9.8824733616794,10.203841180197516,9.872870716259603,11.141025974152726,9.831259858325888,12.078698580716004,9.756784682279426,13.015113439991483,9.64870113254983,13.948478339927737,9.506388150437862,14.876960103405622,9.329358966695596,15.798690694233233,9.117272745110514,16.711773751779063,8.8699465823593,17.61429156397422,8.587367869397747,18.50431248841481,8.26970701965273,19.379898831295417,7.917330569282408,20.239115193904627,7.530814654770802,21.08003729641368,7.11095887312287,21.90076128868913,6.658800529926143,22.699413557860577,6.175629280545126,23.47416104237441,5.663002169714529,24.22322206226456,5.122759074797488,24.887068065466472,4.781337244060941,25.532536620628147,4.426253467669321,26.158341574313987,4.058451760088364,26.763172974491013,3.6789637204042585,27.34569732635428,3.288911050973338,27.904557848152333,2.8895080760717757,28.438374727012658,2.4820642605452914,28.945745374767135,2.0679867284588287,29.42524468377746,1.6487827817462506,29.87542528276063,1.2260624188600477,30.294817792614346,0.8015408534210078,30.68193108224251,0.3770410328679361,31.035252524380624,-0.04550384289266951,31.35324825142126,-0.46404780283692126,31.634363411239523,-0.8764295861738365" fill="white" stroke="white" stroke-width="0" stroke-linejoin="round" filter="url(#fuzzy)"></polyline></g><g transform="translate(24.961311218173343 -26.6405621818765)"><polyline id="rightUpper" points="-32.402926277608785,-1.875299181728062,-32.550885611264775,-2.5014657363482318,-32.65291081226064,-3.095200465615747,-32.709427073005294,-3.6578598051637305,-32.72091980759665,-4.190760011462179,-32.687932624827724,-4.695177773720745,-32.61106530119276,-5.172350825791482,-32.49097175389336,-5.623478558071606,-32.32835801384455,-6.049722629406258,-32.12398019868095,-6.4522075789912705,-31.878642485762867,-6.8320214382759215,-31.593195085182423,-7.190216342865704,-31.268532212769657,-7.527809144425083,-30.905590063098636,-7.845782022580245,-30.505344782493623,-8.145083096821882,-30.06881044203513,-8.426627038407931,-29.597037010566055,-8.691295682266352,-29.091108327697825,-8.939938638897882,-28.552140076816464,-9.173373906278789,-27.98127775808878,-9.392388481763646,-27.379694661468406,-9.597738973988088,-26.748589839701957,-9.790152214771565,-26.089186081335143,-9.970325871020114,-25.4027278837189,-10.138929056629117,-24.690479426015457,-10.296602944386056,-23.953722542204517,-10.443961377873283,-23.193151911583648,-10.57967153757696,-22.39125323666535,-10.706959202525008,-21.54996158808777,-10.826323380508363,-20.671427715384795,-10.938227871122546,-19.75799029753103,-11.043103129968484,-18.812149458536318,-11.141348075517358,-17.836541523725465,-11.233331839660067,-16.833914992339196,-11.319395462962042,-15.807107702092061,-11.399853535644073,-14.759025161323285,-11.474995785309812,-13.69262002437625,-11.545088612440658,-12.610872685842669,-11.61037657467868,-11.516772969307134,-11.671083820918255,-10.413302886228003,-11.727415476227119,-9.303420440590434,-11.779558978617494,-8.190044454967449,-11.827685368687964,-7.076040393624868,-11.871950533156795,-5.9642071583059995,-11.912496403307363,-4.857264832331911,-11.949452109366376,-3.757843348653144,-11.982935091835557,-2.6684720574887777,-12.013052170797486,-1.5915701691886177,-12.039900574216254,-0.5294380479544518,-12.063568926253627,0.5157506679438342,-12.084138196621394,1.5419561438213787,-12.101682611990562,2.547278648464861,-12.116270530478097,3.529964100616585,-12.127965280231882,4.48840888642019,-12.136825963134555,5.421163972192264,-12.14290822464693,6.326938336883805,-12.146264990811662,7.2046017485959215,-12.14694717343784,8.053186909513665,-12.145004344487177,8.871890993622321,-12.140485380682499,9.660076601570191,-12.133439079359174,10.417272157042111,-12.123914746580203,11.143171769007674,-12.111962758535599,11.837634584208518,-12.09763509724679,12.500683654248624,-12.080985861596677,13.132504341651972,-12.062071754706038,13.733442289251402,-12.040952548676986,14.304000977273175,-12.0176915277241,14.844838892481084,-11.992355910713968,15.356766333744423,-11.96501725413378,15.840741878393873,-11.935751836509656,16.297868533729535,-11.90464102529541,16.729389598045103,-11.871771627252397,17.136684255532487,-11.83723622334113,17.521262929430947,-11.80113348914537,17.884762417784813,-11.763568501849326,18.228940836174118,-11.724653034788675,18.55376976464823,-11.684241493163187,18.858422913591106,-11.642131343279841,19.143563390881503,-11.598355337010162,19.409870266059258,-11.552947708609326,19.658035307270602,-11.50594403801821,19.888759718213393,-11.457381114165443,20.102750875082457,-11.407296798269467,20.300719063514926,-11.355729887140585,20.483374215535427,-11.302719976483024,20.65142264650153,-11.248307324196977,20.8055637920489,-11.192532713680674,20.94648694503671,-11.135437317132418,21.074867992492862,-11.077062558852658,21.191366152559333,-11.01744997854603,21.29662071143745,-10.956641094623414,21.39124776033323,-10.894677267503996,21.475836932402586,-10.831599562917315,21.55094813969675,-10.767448615205321,21.617108310107497,-10.702264490624426,21.67480812431242,-10.63608655064756,21.724498752720308,-10.568953315266233,21.76658859241639,-10.500902326292577,21.80144000410764,-10.431970010661407,21.829366049068113,-10.362191543732278" fill="none" stroke="black" stroke-width="1.6666666666666665" stroke-linejoin="round" filter="url(#fuzzy)"></polyline><polyline id="rightLower" points="-33.09039467005275,-5.824858945398341,-33.156476033180645,-5.555640353112196,-33.17653567732379,-5.240878091621777,-33.15192354167019,-4.88498493783499,-33.083984930370825,-4.492198480325205,-32.97406002518886,-4.066584198446665,-32.82348339814887,-3.6120385414499134,-32.633583524186115,-3.1322920075971865,-32.405682293795685,-2.63091222327785,-32.14109452568185,-2.111307022123789,-31.841127479407206,-1.5767275241248306,-31.50708036804194,-1.0302712147441557,-31.14024387081306,-0.47488502403371413,-30.741899645753648,0.08663159425036504,-30.31331984235205,0.6516235835323556,-29.85576661420116,1.217577205301538,-29.370491631647617,1.7821169599967668,-28.85873559444105,2.3430025078910717,-28.321727744383324,2.898125589976228,-27.76068537797775,3.445506948847372,-27.176813359078352,3.983293249587561,-26.571303631539053,4.5097540006523715,-25.945334731862957,5.023278474754491,-25.30007130185156,5.5223726297483005,-24.63666360125398,6.005656029514455,-23.9562470204162,6.471858764844491,-23.200896243639455,7.193671734093456,-22.420230021767413,7.88131632825149,-21.61586906116274,8.532300952665924,-20.789503756076066,9.144485160114762,-19.942882150595693,9.716061817722665,-19.077798463174453,10.245539687965952,-18.196082163092875,10.731726419192995,-17.29958758821738,11.173711941086207,-16.390184093412564,11.570852260492089,-15.469746718966437,11.922753653045572,-14.540147368387547,12.229257246014992,-13.603246484932924,12.49042398779406,-12.660885216225768,12.706519999467062,-11.714878056321803,12.878002303873775,-10.767005954583215,13.005504927600217,-9.81900988071911,13.08982537132172,-8.872584835351407,13.131911443924572,-7.929374295465131,13.132848455832573,-6.990965084101928,13.093846766964845,-6.058882653655866,13.016229684751163,-5.134586772130334,12.901421707631187,-4.219467601715019,12.750937109463933,-3.3148421590418753,12.566368860273741,-2.4219511464790076,12.34937787875906,-1.5419561438213787,12.101682611990562,-0.6759371497373312,11.825048937724539,0.17510953767028958,11.521280384758349,1.0102731118292834,11.192208666753846,1.8287297308308208,10.839684524955413,2.6297436833706023,10.465568875228694,3.4126682581397034,10.07172425484653,4.176946327306059,9.660006564448278,4.922110654727742,9.232257100598972,5.647783939539028,8.790294874374524,6.353678605750444,8.335909211399382,7.039596348503734,7.870852628762915,7.7054274476229185,7.396833984240864,8.35114985910249,6.91551189324823,8.976828095173824,6.42848840894985,9.582611903590864,5.9373029609549555,10.168734756776152,5.443426548022238,10.735512161468334,4.948256180201454,11.283339799512161,4.45310956583819,11.812691510432073,3.959220038867823,12.324117126430432,3.467731721825265,12.818240170451523,2.979694919996609,13.295755427952335,2.4960617421391618,13.757426403021261,2.0176819431960418,14.204082669485727,1.5452989844317813,14.636617127649897,1.0795463064152067,15.055700573833468,0.6195241358077315,15.461590421341272,0.16429505973075287,15.854612801173621,-0.28567603866407687,16.235102702806138,-0.7299603873064964,16.60340254904576,-1.168164712661783,16.959860770886756,-1.599930627184861,17.304830382366724,-2.024934016774443,17.63866755542265,-2.4428844282271633,17.961730194746863,-2.853524456691689,18.274376512643116,-3.25662913312285,18.57696360388252,-3.6520053117357802,18.869846020559635,-4.039491057460032,19.153374346948446,-4.418955033393711,19.427893774358388,-4.7902958882576065,19.693742675990336,-5.153441643849304,19.95125118179267,-5.508349082497332,20.20073975331723,-5.85500313451528,20.4425177585754,-6.193416265655925,20.676882046894036,-6.523627864565361,20.90411552377155,-6.84570363023714,21.124485725733926,-7.159734959466367,21.33824339519066,-7.465838334303867,21.545621055290866,-7.764154709510279,21.74683158477923,-8.054848900010208" fill="none" stroke="black" stroke-width="2.2222222222222223" stroke-linejoin="round" filter="url(#fuzzy)"></polyline><!--[--><circle r="4.834259803377226" cx="-13.341430817847087" cy="8.506550445599277" stroke="black" fill="none" stroke-width="1" filter="url(#fuzzy)" clip-path="url(#rightEyeClipPath)"></circle><circle r="4.965433442731461" cx="-8.586382512189715" cy="3.7828435774673403" stroke="black" fill="none" stroke-width="1" filter="url(#fuzzy)" clip-path="url(#rightEyeClipPath)"></circle><circle r="4.768862340189258" cx="-12.91255974544765" cy="8.058930211491045" stroke="black" fill="none" stroke-width="1" filter="url(#fuzzy)" clip-path="url(#rightEyeClipPath)"></circle><circle r="3.3974812780475974" cx="-8.960818508344818" cy="4.157392314689785" stroke="black" fill="none" stroke-width="1" filter="url(#fuzzy)" clip-path="url(#rightEyeClipPath)"></circle><circle r="3.63132224231809" cx="-12.322483065062192" cy="5.333876946375347" stroke="black" fill="none" stroke-width="1" filter="url(#fuzzy)" clip-path="url(#rightEyeClipPath)"></circle><circle r="3.911469550865174" cx="-11.793943182016832" cy="5.0856091506811225" stroke="black" fill="none" stroke-width="1" filter="url(#fuzzy)" clip-path="url(#rightEyeClipPath)"></circle><circle r="4.484595188816853" cx="-13.255314132481818" cy="5.272645117714465" stroke="black" fill="none" stroke-width="1" filter="url(#fuzzy)" clip-path="url(#rightEyeClipPath)"></circle><circle r="3.3355171698389032" cx="-9.364434638607381" cy="8.373155424872962" stroke="black" fill="none" stroke-width="1" filter="url(#fuzzy)" clip-path="url(#rightEyeClipPath)"></circle><circle r="3.261138153716429" cx="-12.044213371971889" cy="5.192867950975547" stroke="black" fill="none" stroke-width="1" filter="url(#fuzzy)" clip-path="url(#rightEyeClipPath)"></circle><circle r="3.222124528646997" cx="-12.692746828612087" cy="8.53001165519144" stroke="black" fill="none" stroke-width="1" filter="url(#fuzzy)" clip-path="url(#rightEyeClipPath)"></circle><!--]--></g><g transform="translate(-26.287270372225898 -27.621955413700604)"><polyline id="leftUpper" points="31.854863878349068,-0.38678325216275145,32.02417455253479,-0.9093028699303698,32.138997445038115,-1.404827427002008,32.20064431307107,-1.874482476274939,32.21044536713529,-2.3193603097683004,32.16974808311167,-2.740520464263681,32.079916014349834,-3.138990226945709,31.942327603757683,-3.515765141042631,31.75837499589104,-3.871809511466905,31.529462849043117,-4.208056910455777,31.257007147334132,-4.52541068321187,30.942434012800824,-4.824744453543778,30.587178517486038,-5.10690262950664,30.192683495528264,-5.372700909042723,29.760398355251226,-5.62292678562202,29.29177789125339,-5.858340053882827,28.78828109649756,-6.07967331527233,28.251369974400415,-6.28763248368719,27.68250835092208,-6.482897291114127,27.083160686655667,-6.666121793270509,26.454790888916847,-6.837934875244937,25.7988611238334,-6.998940757137824,25.11683062843477,-7.1497194997019875,24.41015452274163,-7.290827509983234,23.68028262185543,-7.422798046960939,22.928658248047952,-7.54614172718864,22.11039596319175,-7.660092883021872,21.258035840179236,-7.766970254635936,20.37374050221904,-7.8671879948735794,19.459805729906797,-7.961131765976486,18.518639387024727,-8.049160288273791,17.552741351034506,-8.13160683768329,16.56468442868121,-8.208780692994793,15.557096237126196,-8.280968533905138,14.532642031026597,-8.348435790774309,13.494008455979415,-8.411427947072175,12.443888208747772,-8.470171795485326,11.38496558468737,-8.524876648653473,10.319902892790772,-8.575735505504902,9.251327718767385,-8.62292617416048,8.18182101657693,-8.666612352375672,7.113906008834199,-8.706944666490083,6.050037876502903,-8.744061669853949,4.992594218296403,-8.778090801701143,3.943866260203114,-8.809149307438119,2.906050795554412,-8.837345121318268,1.8812428360528184,-8.86277771247124,0.8714289541782492,-8.885538895256627,-0.12151870260983344,-8.905713604911558,-1.0958477454565685,-8.923380639461643,-2.049930245064436,-8.938613368864788,-2.982266819596612,-8.951480412357324,-3.8914901291133326,-8.962046284971965,-4.776367796123326,-8.97037201419706,-5.635804771832614,-8.976515727746637,-6.46884516767275,-8.980533213410691,-7.274673571690897,-8.982478451955243,-8.052615869383704,-8.982404124041619,-8.802139588557424,-8.980362092134435,-9.522853787796244,-8.976403858367801,-10.214508508121241,-8.970580999339182,-10.876993807421979,-8.962945578800426,-11.5103383972431,-8.953550539215449,-12.114707901507977,-8.942450073154028,-12.690402756761763,-8.92969997549123,-13.237855773515896,-8.915357977381907,-13.757629378276395,-8.899484062979786,-14.250412555838029,-8.882140769870611,-14.717017511426668,-8.86339347418883,-15.15837607227192,-8.843310661387303,-15.575535848192331,-8.821964183629522,-15.969656170775252,-8.799429504773812,-16.342003830733788,-8.775785933919023,-16.69394863302268,-8.751116848481159,-17.026958789295623,-8.725509907770457,-17.34259616728619,-8.699057258038387,-17.640933293113076,-8.671652945154891,-17.92135292424426,-8.643147803036197,-18.184459102512438,-8.61357331807216,-18.430866436367786,-8.58296177102531,-18.661197478261762,-8.551346107189412,-18.876080102030954,-8.518759806548,-19.076144880280985,-8.485236753932941,-19.262022461770293,-8.450811109182975,-19.43434094879405,-8.415517177302272,-19.593723274567974,-8.37938927861897,-19.74078458061219,-8.342461618943736,-19.876129594135076,-8.304768159728308,-20.000350005417147,-8.266342488224046,-20.114021845194852,-8.227217687640483,-20.21770286204448,-8.18742620730387,-20.311929899765985,-8.146999732815736,-20.397216274766826,-8.10596905621142,-20.47404915344587,-8.064363946118632,-20.54288692957716,-8.022213017916004,-20.604156601693862,-7.979543603891631,-20.658251150472054,-7.936381623401627,-20.705526916114582,-7.892751453028668,-20.74630097573495,-7.848675796740551,-20.780848520741134,-7.80417555604873" fill="none" stroke="black" stroke-width="2.2222222222222223" stroke-linejoin="round" filter="url(#fuzzy)"></polyline><polyline id="leftLower" points="32.060524577255805,-4.098375811971401,32.23816563518303,-3.8936497215014896,32.36227973777554,-3.6542538063921226,32.43461751193351,-3.3836407508382935,32.45691115829405,-3.085122762770972,32.43087419540586,-2.7618740925067975,32.35820120390375,-2.416933551397773,32.2405675706831,-2.0532070304809587,32.07962923307454,-1.6734700191281693,31.87702242301846,-1.280370123695663,31.634363411239523,-0.8764295861738365,31.35324825142126,-0.46404780283692126,31.035252524380624,-0.04550384289266951,30.68193108224251,0.3770410328679361,30.294817792614346,0.8015408534210078,29.87542528276063,1.2260624188600477,29.42524468377746,1.6487827817462506,28.945745374767135,2.0679867284588287,28.438374727012658,2.4820642605452914,27.904557848152333,2.8895080760717757,27.34569732635428,3.288911050973338,26.763172974491013,3.6789637204042585,26.158341574313987,4.058451760088364,25.532536620628147,4.426253467669321,24.887068065466472,4.781337244060941,24.22322206226456,5.122759074797488,23.47416104237441,5.663002169714529,22.699413557860577,6.175629280545126,21.90076128868913,6.658800529926143,21.08003729641368,7.11095887312287,20.239115193904627,7.530814654770802,19.379898831295417,7.917330569282408,18.50431248841481,8.26970701965273,17.61429156397422,8.587367869397747,16.711773751779063,8.8699465823593,15.798690694233233,9.117272745110514,14.876960103405622,9.329358966695596,13.948478339927737,9.506388150437862,13.015113439991483,9.64870113254983,12.078698580716004,9.756784682279426,11.141025974152726,9.831259858325888,10.203841180197516,9.872870716259603,9.26883782867904,9.8824733616794,8.33765274089232,9.86102534384147,7.4118614408464465,9.809575384493607,6.492974046495551,9.729253436648717,5.582431531222003,9.621261068031467,4.681602345840828,9.486862163931951,3.7917793913944218,9.32737394420022,2.914177333006516,9.144158289115632,2.0499302450644343,8.938613368864788,1.200089577998673,8.712165571362059,0.36562243692878305,8.466261723146433,-0.45258983755540605,8.202361598088713,-1.2537527962082233,7.921930708642828,-2.037159725269216,7.626433374375216,-2.8021922176618403,7.31732606250608,-3.548320480980747,6.996050995196436,-4.275103391998691,6.664030018314875,-4.982188307423968,6.322658726417815,-5.669310640639477,5.973300838677211,-6.33629321415426,5.617282820489526,-6.98304539749865,5.255888745499933,-7.60956204029387,4.8903553927755326,-8.215922210227195,4.52186757386152,-8.802287745663566,4.151553684454148,-9.368901632624695,3.7804814754244056,-9.916086215866624,3.4096540379262095,-10.444241253786718,3.0400059973231244,-10.953841826891153,2.672399910667309,-11.4454361095537,2.30762286246474,-11.91964301479706,1.9463832534604535,-12.377149721827458,1.5893077771777762,-12.81870909605368,1.2369385789453808,-13.245137011321436,0.8897305921460319,-13.657309584094119,0.548049046420962,-14.055872593973803,0.2113002601225471,-14.441065249461985,-0.12109013006701907,-14.813204397341206,-0.44881793102765677,-15.17261531426136,-0.7716068185495004,-15.519630403482775,-1.0892076320486384,-15.854587891619193,-1.40139766928288,-16.177830525380855,-1.7079799810674885,-16.489704268317485,-2.0087826659909664,-16.790556997561357,-2.3036581651307726,-17.080737200570322,-2.592482556769104,-17.360592671870812,-2.875154851108644,-17.630469209800935,-3.1515962849883,-17.890709313253435,-3.421749616598981,-18.141650878418762,-3.6855784201993353,-18.38362589552813,-3.9430663808315085,-18.616959145596493,-4.194216589036901,-18.84196689716562,-4.439050835571919,-19.058955603047103,-4.677608906123725,-19.26822059706543,-4.9099478760259965,-19.470044790800944,-5.136141404974685,-19.664697370332977,-5.356279031743753,-19.85243249298277,-5.570465468900947,-20.033487984056606,-5.778819897523537,-20.20808403358878,-5.981475261914077" fill="none" stroke="black" stroke-width="2.2222222222222223" stroke-linejoin="round" filter="url(#fuzzy)"></polyline><!--[--><circle r="3.3014595500026633" cx="1.3128630271643558" cy="3.0497638872499806" stroke="black" fill="none" stroke-width="1" filter="url(#fuzzy)" clip-path="url(#leftEyeClipPath)"></circle><circle r="4.517399964157992" cx="-0.10063760478875183" cy="3.000839193562486" stroke="black" fill="none" stroke-width="1" filter="url(#fuzzy)" clip-path="url(#leftEyeClipPath)"></circle><circle r="3.549065751606644" cx="1.560089398449069" cy="-0.039568940476864434" stroke="black" fill="none" stroke-width="1" filter="url(#fuzzy)" clip-path="url(#leftEyeClipPath)"></circle><circle r="3.679819156213992" cx="1.3573985592395297" cy="1.6613057604174672" stroke="black" fill="none" stroke-width="1" filter="url(#fuzzy)" clip-path="url(#leftEyeClipPath)"></circle><circle r="4.105253921042577" cx="-1.1107686396322736" cy="-0.39477286598526096" stroke="black" fill="none" stroke-width="1" filter="url(#fuzzy)" clip-path="url(#leftEyeClipPath)"></circle><circle r="4.186059872070926" cx="0.15148611445824356" cy="3.122054919054343" stroke="black" fill="none" stroke-width="1" filter="url(#fuzzy)" clip-path="url(#leftEyeClipPath)"></circle><circle r="3.062500059759902" cx="-1.591410474984012" cy="3.6282685648544266" stroke="black" fill="none" stroke-width="1" filter="url(#fuzzy)" clip-path="url(#leftEyeClipPath)"></circle><circle r="3.397200930913501" cx="-0.4699571225351713" cy="0.8654235087233717" stroke="black" fill="none" stroke-width="1" filter="url(#fuzzy)" clip-path="url(#leftEyeClipPath)"></circle><circle r="4.127294953090785" cx="-0.6279894021249937" cy="0.2987395022983641" stroke="black" fill="none" stroke-width="1" filter="url(#fuzzy)" clip-path="url(#leftEyeClipPath)"></circle><circle r="4.373421404727506" cx="2.7779991412611267" cy="1.7228133080572858" stroke="black" fill="none" stroke-width="1" filter="url(#fuzzy)" clip-path="url(#leftEyeClipPath)"></circle><!--]--></g><g id="hairs"><!--[--><polyline points="-35,-74,-33.78833124567264,-75.53241416042695,-32.54554899529009,-76.52323732808391,-31.40636738210528,-77.28739647461232,-30.234974127084882,-78.06055939057056,-28.940098474799445,-78.9218562398594,-27.525731285363833,-79.83813929781861,-26.04680011812459,-80.74685015752313,-24.560068693765075,-81.61488899718248,-23.104862874740828,-82.4481772948679,-21.710694638145814,-83.26387186866546,-20.411075782993347,-84.05722252168522,-19.248930595631244,-84.78927252409107,-18.281733767998887,-85.39901821511343,-17.60582406908395,-85.8258977895679,-17.377025249548524,-86.03151959891699,-17.685049616243603,-86.03127555785305" fill="none" stroke="rgb(233, 236, 239)" stroke-width="2" stroke-linejoin="round" filter="url(#fuzzy)"></polyline><polyline points="6,-88,5.860270771761477,-88.33013541411535,6.449906597354816,-88.01858554837652,7.026700187042007,-87.45644982308173,7.236165851655221,-86.77637057101745,6.962540447154723,-86.01997107764909,6.226851841276993,-85.18154640074732,5.083895938751148,-84.23743900557511,3.5541429103510724,-83.17230591261361,1.6092276013053706,-81.9881540179434,-0.8017165778511846,-80.69092621840554,-3.7161754448159723,-79.26793251344161,-7.1398850896803285,-77.67821190630482,-11.055041991569102,-75.86934770384357,-15.448825907175992,-73.81288966082145,-20.34776500768716,-71.52868151199972,-25.833280432195192,-69.06385467184477,-32.001341487700415,-66.43184592650765,-38.83777090250641,-63.63136015644421" fill="none" stroke="rgb(233, 236, 239)" stroke-width="2" stroke-linejoin="round" filter="url(#fuzzy)"></polyline><polyline points="30,-76,30.375400685287733,-75.56912985358399,30.777224473327568,-74.98791487722907,30.82079418198919,-74.623688039524,30.484545783051473,-74.47912396724307,29.799051244809114,-74.49706975358244,28.748521666130742,-74.66179510300834,27.263261691451312,-75.01019536643251,25.253038073657468,-75.59910761978509,22.64171315879608,-76.47169852374383,19.378961338309598,-77.65039153621015,15.429878174965552,-79.15244296274093,10.757719097488174,-81.00466676232357,5.321739485332296,-83.24213509450482,-0.8274991130379377,-85.89807247661852" fill="none" stroke="rgb(233, 236, 239)" stroke-width="2" stroke-linejoin="round" filter="url(#fuzzy)"></polyline><polyline points="-10,-88,-9.013759616317333,-88.58268420114545,-8.302255958647335,-88.70740458351278,-7.873349742218451,-88.58049884527664,-7.69553601889573,-88.27819726934467,-7.827178799518789,-87.81966642708983,-8.340340841106638,-87.20682096994551,-9.28716582682509,-86.43478324922874,-10.710345284371327,-85.48586020969671,-12.654650901122253,-84.32661872109811,-15.159449055364751,-82.92138776377415,-18.24963774434565,-81.25264392896197,-21.961493595671758,-79.31306305608746,-26.407272228940638,-77.04254080623967,-31.7748487428078,-74.27833278500228" fill="none" stroke="rgb(233, 236, 239)" stroke-width="2" stroke-linejoin="round" filter="url(#fuzzy)"></polyline><polyline points="-1,-89,-0.45251136570919315,-88.99420719028856,0.49595929388799775,-88.97813558370105,1.4659291228899554,-88.95305030066623,2.3619160407370368,-88.91675168638578,3.1709267119897104,-88.86276118368797,3.9057531783686925,-88.78599283794532,4.577700167198969,-88.68643075808778,5.1923866538136805,-88.56699289412835,5.749846163410368,-88.43028267955208,6.2354003901327495,-88.27944256763507,6.608300683626597,-88.12253808505862,6.803566394233865,-87.97529562630854,6.751866488678445,-87.85792708247004,6.405113614626129,-87.78707129847572,5.747550884875659,-87.76929818150927,4.781080555685168,-87.80346057522837,3.495085629229214,-87.89239155513468,1.85040944025485,-88.05209596559054,-0.19414953876471852,-88.30072929282298,-2.6017895181397472,-88.62954433728005" fill="none" stroke="rgb(233, 236, 239)" stroke-width="2" stroke-linejoin="round" filter="url(#fuzzy)"></polyline><polyline points="8,-88,9.865079847456698,-87.2118654751539,11.039728840605527,-86.48433354984321,12.270274069721678,-85.67919948085175,13.753010119574103,-84.72491094976817,15.478147956910266,-83.6147152358493,17.345105479608936,-82.4022943875159,19.25932161837827,-81.14401556619913,21.186338363381275,-79.85380714762033,23.146339416503906,-78.50601768493652,25.170888614497457,-77.07189518508025,27.25764051170903,-75.55333968480424,29.351598343920664,-73.98909958184134,31.3627267439297,-72.43769703240751,33.20556771427959,-70.96125228905855,34.828670190078014,-69.62424595772949,36.206549731889844,-68.49174511597718,37.294906956958926,-67.61180358695857" fill="none" stroke="rgb(233, 236, 239)" stroke-width="2" stroke-linejoin="round" filter="url(#fuzzy)"></polyline><polyline points="17,-84,19.319145091705053,-83.26206754975117,20.232944916839894,-82.6348760035436,20.73750949663106,-82.06375513272559,21.079578924182453,-81.57128788332588,21.254042990267152,-81.1622321624287,21.204905766194784,-80.82275202306202,20.905578461143136,-80.52361051997516,20.355597109057186,-80.2375134352151,19.548341466224933,-79.95964183882462,18.453865213515574,-79.71331131511874,17.02822709083557,-79.5354837179184,15.234989259842601,-79.45317036837757,13.058657124722384,-79.46848390932804,10.50054643516129,-79.56269063888308,7.562784473675858,-79.71371922308282,4.233731175939617,-79.9099474985534,0.48423312153430587,-80.14681967970932,-3.7250001897324214,-80.41123238416503,-8.42974300613712,-80.6767141458696,-13.640419228303543,-80.93426605805823,-19.278138763173924,-81.27283549923632" fill="none" stroke="rgb(233, 236, 239)" stroke-width="2" stroke-linejoin="round" filter="url(#fuzzy)"></polyline><polyline points="-3,-89,-1.553608621074917,-88.97789143168946,-0.3740964824478321,-88.91513080380668,0.8176519056483962,-88.81707444776248,2.015900910464773,-88.6881098918607,3.1892300566430145,-88.5301382574825,4.330156585930514,-88.34384396195152,5.442903790253597,-88.13261738423927,6.527307863006714,-87.90320313187232,7.5802361834506184,-87.66117632356402,8.601763363689727,-87.40671658518913,9.587774183955458,-87.13732371647868,10.510983398180793,-86.85773386164581,11.310765323354724,-86.58940826927147,11.908651968584966,-86.36953110301204,12.24503822374942,-86.23538167350964,12.312281175149517,-86.2024264016253,12.154351021368814,-86.25730267359022,11.816734478200082,-86.38697998666997,11.2601643047078,-86.63391363707164,10.257083821222684,-87.11241212308846" fill="none" stroke="rgb(233, 236, 239)" stroke-width="2" stroke-linejoin="round" filter="url(#fuzzy)"></polyline><polyline points="30,-76,30.392316557250215,-75.50462662773747,30.81515453207208,-74.76007204637057,30.91068730673163,-74.1068902883203,30.68762096026153,-73.52229488071869,30.19416897069394,-72.9399272382377,29.431812932981323,-72.33462429632063,28.360871315713418,-71.72090667256845,26.93200442092253,-71.12521511026861,25.108649942846537,-70.56498892203771,22.872081372557076,-70.04454355588642,20.21517848968506,-69.56218016147614,17.13202438148108,-69.11841602213855,13.607561894201453,-68.71799502576091,9.611681263861044,-68.3645714481243,5.103179109991409,-68.05395961838195,0.04464106453666261,-67.77517110300491,-5.581159059488758,-67.52286380265284,-11.768184103486899,-67.3116515213807,-18.4965788872396,-67.17680463011766,-25.719113924865123,-67.16824919507391,-33.29053514399469,-67.38421877185492" fill="none" stroke="rgb(233, 236, 239)" stroke-width="2" stroke-linejoin="round" filter="url(#fuzzy)"></polyline><polyline points="49,-51,49.87613522609371,-49.8778402871269,50.47482698974917,-48.8957355586993,50.77367265301039,-48.18332941220255,50.84973408261656,-47.64768941886742,50.741815776277086,-47.266962898151135,50.44103980256791,-47.06882264122316,49.926129163945326,-47.07169187492478,49.18218052542849,-47.279384511624265,48.19804707992914,-47.70446077367223,46.95904272049837,-48.38204590866832,45.446624377427526,-49.36139009511932,43.643684583820644,-50.685569638938375,41.53767052957409,-52.376118860598524,39.11809209731222,-54.43133070401582,36.373426365855316,-56.835059428114704,33.29446596965366,-59.56782864464839,29.882463991789606,-62.61666812104569,26.14890502946878,-65.98637592635055,22.09650603541335,-69.71130920520098,17.700449194148835,-73.85311837025594,12.947724845749459,-78.4665681967862,7.962802491793875,-83.54725246419325" fill="none" stroke="rgb(233, 236, 239)" stroke-width="2" stroke-linejoin="round" filter="url(#fuzzy)"></polyline><polyline points="-34,-76,-32.73752699710993,-76.63888904627282,-32.119521951128846,-77.01515688333598,-31.60988343604471,-77.42307153870648,-31.057181352796352,-77.8935974794797,-30.48940057000235,-78.34178821633418,-29.978435405258672,-78.68250006238169,-29.576010806366046,-78.87785772756705,-29.303841727759902,-78.92919844646521,-29.170384869561524,-78.84772196232991,-29.18825927760559,-78.6320145715039,-29.380716350744468,-78.26107913065209,-29.77955905238035,-77.69779926531791,-30.420450355456865,-76.89707926057861,-31.337587181790433,-75.81758210170958,-32.55781212715064,-74.43519839943656,-34.097450845708984,-72.7489496200817,-35.9666245379805,-70.7671066854884,-38.17813650356722,-68.47689343418597,-40.74503000842264,-65.83137556807087,-43.66115222614801,-62.76723803879312" fill="none" stroke="rgb(233, 236, 239)" stroke-width="2" stroke-linejoin="round" filter="url(#fuzzy)"></polyline><polyline points="-1,-89,0.3064504450688731,-88.97190192319556,1.025415593332426,-88.87881407542118,1.4087770754274789,-88.69984863304002,1.5150585794553997,-88.40957078811648,1.3807193476171746,-87.98660666671049,1.0120851920226501,-87.41819717490027,0.402492991835671,-86.69724385185286,-0.4517696616144855,-85.81854404975324,-1.5614116995810612,-84.77990364596836,-2.9613537182416403,-83.58538636643937,-4.709384995932497,-82.24394595757283,-6.8634239385111115,-80.76132340951013,-9.456380216464407,-79.13150828713518,-12.489942249005207,-77.337718650933,-15.953557925968674,-75.36592684062055,-19.854583627049927,-73.21889130675655,-24.232367515061963,-70.90923015648451,-29.134095251770535,-68.42625297427254,-34.56334181900309,-65.71322330073627,-40.475895475037895,-62.680753424464214" fill="none" stroke="rgb(233, 236, 239)" stroke-width="2" stroke-linejoin="round" filter="url(#fuzzy)"></polyline><polyline points="-20,-85,-19.852662669725213,-85.04062336569064,-19.376522776542192,-85.18615834051825,-18.881712740960648,-85.32623090812339,-18.50177336008595,-85.38451010936657,-18.23822053260792,-85.33382043296965,-18.11907736994119,-85.15147685615136,-18.213415444256526,-84.8030962292744,-18.583782009356316,-84.25015817011511,-19.261825347833245,-83.46338687348182,-20.25960765938492,-82.42947952298215,-21.58947550219049,-81.14663756128786,-23.2696935191303,-79.61324269183163,-25.315967440541232,-77.81985847507704,-27.735628345760297,-75.75169111273246,-30.53825415004206,-73.39610223152556,-33.75482719298216,-70.73724359449895,-37.435169100781515,-67.73321847264799,-41.58891248338876,-64.36077950011844" fill="none" stroke="rgb(233, 236, 239)" stroke-width="2" stroke-linejoin="round" filter="url(#fuzzy)"></polyline><polyline points="-3,-89,-2.526332821138224,-88.97849513726624,-1.7980059815564506,-88.9083038054177,-1.1586328762485487,-88.7800139294218,-0.6889218482866308,-88.58449129976279,-0.43304382199222724,-88.3086653536529,-0.41745248173939586,-87.93483044026392,-0.6474523319230583,-87.44550586118187,-1.1147752996206717,-86.82845461379394,-1.8080636071595837,-86.07728275051329,-2.7186371197568784,-85.18787990288045,-3.8446336088946715,-84.1546385060131,-5.197496235370636,-82.97022294998169,-6.806939130060143,-81.62929018533656,-8.716645936230542,-80.1327267153874,-10.969550658226556,-78.4875743857381,-13.592206381756816,-76.7004496400219,-16.591068191294394,-74.76802224484491,-19.964993867634902,-72.67286828079644,-23.724248512278578,-70.39080940604259,-27.897808591066745,-67.90508787988686,-32.515230693869825,-65.21379985480985,-37.570298679144294,-62.32620869249929,-43.021733335051046,-59.25783754396007" fill="none" stroke="rgb(233, 236, 239)" stroke-width="2" stroke-linejoin="round" filter="url(#fuzzy)"></polyline><polyline points="21,-83,20.796345199393617,-82.56237878219115,21.173224037124328,-81.96489940731038,21.66913428286005,-81.45919472613426,22.084548204278224,-81.05094205030679,22.2922862320801,-80.72514529836322,22.254982899786025,-80.4516446887428,21.98439699981135,-80.20265992561254,21.48523331330608,-79.97705718756647,20.730380965301585,-79.8052369160265,19.670879095721887,-79.73123446716954,18.260307093319675,-79.78698956538386,16.47211984811916,-79.97726830120601,14.299852381728208,-80.28360565080213,11.743898088237435,-80.68049390750576,8.795837014061464,-81.14877542602073,5.428836263560255,-81.67704899170323,1.5979361786177595,-82.25769214658229,-2.737661053345292,-82.89551972674596,-7.533721100170769,-83.64075240221592,-12.494625408439617,-84.62753648873186" fill="none" stroke="rgb(233, 236, 239)" stroke-width="2" stroke-linejoin="round" filter="url(#fuzzy)"></polyline><polyline points="33,-73,33.2583493033535,-72.61698664376738,33.70142075842476,-71.78875342690297,33.93044739403401,-70.88475073893295,33.785920763817956,-70.01781635546827,33.24221411189444,-69.17767209823964,32.316851387897344,-68.34165606584399,31.030308573970053,-67.50761952564089,29.388566797008586,-66.68883127591876,27.3777715275915,-65.900259343738,24.969401199110756,-65.14805576454503,22.131482638838293,-64.42662545253793,18.838497000555243,-63.72352911049357,15.07525159472623,-63.02707996546329,10.835600674367193,-62.32850734223517,6.119802797298888,-61.6155112180209,0.9318974929926647,-60.8651159905895,-4.725500770765574,-60.049757995607,-10.860152051542489,-59.16061387212639,-17.49537591081649,-58.23029891376266,-24.65810184410762,-57.325291965179986,-32.34873246880325,-56.49798072074343,-40.51425083413434,-55.735470300409894" fill="none" stroke="rgb(233, 236, 239)" stroke-width="2" stroke-linejoin="round" filter="url(#fuzzy)"></polyline><polyline points="32,-74,32.757276866664114,-73.22836778184907,33.55194925507899,-72.39476141164562,34.52653414175914,-71.36034938728966,35.57275313656886,-70.22880181607634,36.58930328350834,-69.0917006719319,37.53275531026339,-67.9898739586197,38.40055239911062,-66.93961776321127,39.20603488431537,-65.95492514494958,39.956694392377074,-65.05710797109965,40.639638900756836,-64.27651596069336,41.219985616807634,-63.64736819185997,41.65182814627889,-63.198317847257115,41.89208423627403,-62.94790944431059,41.90663395017236,-62.91309145400103,41.66943256224113,-63.124633519750205,41.16780349073717,-63.62821956785249,40.42195777684828,-64.45811891039169,39.495174410062404,-65.61056547590523,38.42863345987877,-67.08160198328447" fill="none" stroke="rgb(233, 236, 239)" stroke-width="2" stroke-linejoin="round" filter="url(#fuzzy)"></polyline><polyline points="16,-85,16.818453281846402,-84.68535281743183,17.72071767284199,-84.0728183510092,18.49181917480052,-83.41220297914575,18.949406265194256,-82.78189613399539,19.089023938316554,-82.20729647533415,18.945638058619956,-81.6958883367597,18.522764478674695,-81.24245558229319,17.799154281097994,-80.8280984952902,16.755679425632046,-80.42432226135169,15.38420933851057,-80.00587061425432,13.67643678188324,-79.56602418422699,11.61064149165096,-79.12300494414606,9.151840860482322,-78.71072480894259,6.2657638180501625,-78.35792072866056,2.93364765297059,-78.06851536434387,-0.8465400376778245,-77.81637654929906,-5.0734569813975945,-77.55958881170915,-9.75197556254295,-77.26913513728528,-14.875027289489655,-76.96113018579808,-20.378749815508343,-76.7202483283387,-26.12169427032878,-76.69381245909662" fill="none" stroke="rgb(233, 236, 239)" stroke-width="2" stroke-linejoin="round" filter="url(#fuzzy)"></polyline><polyline points="29,-76,29.669108060200543,-75.95364539644109,30.172427062032842,-75.69009712283057,30.774703717932912,-75.17643812811058,31.454296899318944,-74.5286254908546,32.13922280225939,-73.8547773838235,32.79594604349572,-73.20120720038219,33.41871712557816,-72.57662081825966,33.99732585594628,-71.98861053991777,34.50296753532062,-71.4589878687456,34.89604991172452,-71.01765447717017,35.141555309295654,-70.69087529182434,35.21697523993808,-70.498104166488,35.107512895558315,-70.46002420892354,34.79429917556628,-70.60938542477633,34.247312557462585,-70.99229500843374,33.43231081113235,-71.65291647736426,32.33048339939804,-72.60732375390769,30.954695816857242,-73.82682328654732,29.333022962415903,-75.25803887837209,27.421203256099233,-76.89995412469798,24.908469616834605,-78.94631039555837" fill="none" stroke="rgb(233, 236, 239)" stroke-width="2" stroke-linejoin="round" filter="url(#fuzzy)"></polyline><polyline points="32,-74,32.25785522880999,-73.74023147370755,32.73198785384017,-73.25969996810704,33.31648212537809,-72.66123395439432,33.954844829509184,-71.99315135246069,34.55446191143076,-71.33228101134134,35.03498845935413,-70.74021681148304,35.353778267028524,-70.24921522552849,35.49894622298757,-69.87651301741559,35.47024264824822,-69.63944398071826,35.26324881168842,-69.55931455298847,34.863995330596566,-69.65624836729988,34.25288923848352,-69.94221876514004,33.41073280795167,-70.41894220390618,32.319570649029465,-71.08378904621324,30.95786811492256,-71.94072802292325,29.297915406841085,-73.00680846680496,27.315162062019752,-74.30427364736558,25.009108760290857,-75.840579763144,22.416684343199943,-77.59973024484569,19.58680351940703,-79.57615957641241,16.498877208652576,-81.8441620472194,12.924077055764483,-84.57766733856428" fill="none" stroke="rgb(233, 236, 239)" stroke-width="2" stroke-linejoin="round" filter="url(#fuzzy)"></polyline><polyline points="30,-76,30.012120680760205,-75.89928125478131,30.122371265920815,-75.50988466765526,30.115731797359864,-75.0221837233087,29.81714857007355,-74.58960910595808,29.183477073745557,-74.24108301802528,28.22251818027344,-73.95477498132496,26.92450909456313,-73.71968311204202,25.2451859061566,-73.55073488132638,23.122898787623207,-73.47238890799818,20.501321149213844,-73.49925144643325,17.342116806161943,-73.63170986662338,13.625919880324908,-73.86562573638015,9.344356608717778,-74.20409425963504,4.48588950073923,-74.66140505175997,-0.9756262536380707,-75.2591073497189,-7.0696947844725955,-76.02444421600327,-13.784160513395987,-77.00565934880933,-21.05161500469755,-78.29811831068095" fill="none" stroke="rgb(233, 236, 239)" stroke-width="2" stroke-linejoin="round" filter="url(#fuzzy)"></polyline><polyline points="44,-60,44.250956031615594,-59.616181134368006,44.707430961184464,-58.69694140677787,45.06162274727326,-57.76799192020294,45.140016894745166,-57.153968582193386,44.88795755950033,-56.92681554681549,44.32471043884314,-57.03807488698243,43.47797993307749,-57.43579617626833,42.34104536313421,-58.116035795144604,40.86850166320801,-59.11974906921387,39.000263290007865,-60.502449111630824,36.692922441842896,-62.30346492299885,33.93468510128281,-64.53705245998661,30.725940618909128,-67.21376494511755,27.03054764551055,-70.37201057546967,22.736905964118183,-74.07805765295966,17.684676599712123,-78.38168746446416,11.777381185813244,-83.30212369068914" fill="none" stroke="rgb(233, 236, 239)" stroke-width="2" stroke-linejoin="round" filter="url(#fuzzy)"></polyline><polyline points="8,-88,9.845191183583946,-87.25470796884576,10.963632840935535,-86.64870005154611,12.082044210980698,-86.05025694775354,13.38776399573544,-85.39092003455153,14.871809825278255,-84.65330737230208,16.43432756223652,-83.87626981213559,17.969992320101067,-83.11376838851119,19.423866271972656,-82.39221954345703,20.799918396315057,-81.69702002954143,22.129875986529917,-80.99083067230728,23.418841484527853,-80.25354672132912,24.59116228594212,-79.52829850587295,25.479791897094927,-78.94760982732683,25.911259984393823,-78.69955091143906,25.901789715973024,-78.86999797877291" fill="none" stroke="rgb(233, 236, 239)" stroke-width="2" stroke-linejoin="round" filter="url(#fuzzy)"></polyline><polyline points="32,-74,32.53457647690206,-73.33388148919211,32.667337041059504,-72.79818262567603,32.53493086346023,-72.22960209773296,32.01749996260519,-71.71341742974188,30.999092029385253,-71.32300042495343,29.42009324623356,-71.07117834596933,27.258163468618786,-70.94439900077307,24.50591942540285,-70.93550978191432,21.154687845675763,-71.05383040751067,17.182003803253906,-71.32059129373327,12.54918414321443,-71.76069641533653,7.215324922742035,-72.39605853269171,1.1567751827239938,-73.23996855410347,-5.6372556397410225,-74.28731976821751,-13.207279675630708,-75.49638114110637,-21.648183880487142,-76.77339626466605" fill="none" stroke="rgb(233, 236, 239)" stroke-width="2" stroke-linejoin="round" filter="url(#fuzzy)"></polyline><polyline points="30,-76,30.17002833388304,-75.826512144662,30.755843210191358,-75.23041873936313,31.544806925797026,-74.42555941639968,32.35539563823392,-73.59768028077166,33.136035949712095,-72.80502640608863,33.89016037030239,-72.0488080540604,34.60475196326436,-71.33989900180231,35.22744158220604,-70.72080217840715,35.68495187195647,-70.25105537104383,35.91563844703731,-69.98189492152783,35.891708528272076,-69.94224553370506,35.61889862587097,-70.14432758886613,35.110972663049495,-70.60554389520898,34.34658939720144,-71.37562290437539,33.239782033336496,-72.54591136543479,31.702512950266744,-74.18350315835173" fill="none" stroke="rgb(233, 236, 239)" stroke-width="2" stroke-linejoin="round" filter="url(#fuzzy)"></polyline><polyline points="-25,-82,-24.680807774207388,-82.2647868582473,-24.00895372907558,-82.7180618360004,-23.376766569578514,-83.0444722971411,-22.998638680318262,-83.12119059621708,-22.95685985002204,-82.91563547894862,-23.269893107908608,-82.42764820186399,-23.939766843432423,-81.6631110112573,-24.97681243443619,-80.61853987839753,-26.399450076577793,-79.27111801626297,-28.225450133588573,-77.57593908256102,-30.47919442267805,-75.47496061930957,-33.21121266116199,-72.92595435524588,-36.49137752385415,-69.95601373100669,-40.371513392655146,-66.68631676105228" fill="none" stroke="rgb(233, 236, 239)" stroke-width="2" stroke-linejoin="round" filter="url(#fuzzy)"></polyline><polyline points="-5,-89,-3.5300454150279976,-88.96927174590137,-2.2633826950370275,-88.88282841184312,-0.9244910045158191,-88.753729478344,0.4932322538899603,-88.59574573872827,1.945487602202812,-88.42226249063431,3.3738587366286743,-88.243822899058,4.729599789344013,-88.06322719783238,5.9937987416391305,-87.87300931651893,7.173531243401891,-87.66001199891002,8.274502047334199,-87.41729701303643,9.275166816402864,-87.15694643462663,10.124539188724288,-86.91367384016942,10.760819892143829,-86.7321633067923,11.134299610972581,-86.63859494349336,11.225270341061721,-86.6117718565635,10.99951178485558,-86.62532977723812" fill="none" stroke="rgb(233, 236, 239)" stroke-width="2" stroke-linejoin="round" filter="url(#fuzzy)"></polyline><polyline points="37,-69,37.54920143213235,-68.13129543200186,37.68110971341316,-67.42138445870296,37.555765232456125,-66.89584003287193,37.1127900399324,-66.5864263505682,36.25361548396913,-66.51926777538492,34.906033022426314,-66.70320314015761,33.02925627456781,-67.13440324956532,30.59815764739623,-67.81082903232658,27.593245207378313,-68.73585527333701,24.000657070136953,-69.90406276611162,19.809513982145607,-71.28895534070105,15.000148078816723,-72.86037191517775,9.541138229435058,-74.63203691119705,3.4189721354795726,-76.69493721450456,-3.3402369918470978,-79.17183417835338,-10.845007405247088,-82.06065293003029" fill="none" stroke="rgb(233, 236, 239)" stroke-width="2" stroke-linejoin="round" filter="url(#fuzzy)"></polyline><polyline points="-13,-88,-12.033029109793086,-88.0047055823811,-11.104367104533347,-88.04501660255313,-10.241935224302107,-88.16355967755318,-9.40415524176615,-88.35391544805852,-8.570292333595983,-88.56483940182503,-7.756946544450244,-88.7432616825572,-6.999311217831709,-88.86066380973095,-6.339152623787638,-88.91265349086248,-5.821437718765122,-88.90716880070448,-5.490535758108971,-88.85576929504387,-5.385810280915995,-88.77115363645439,-5.54115051510181,-88.66593438538314,-5.987574345508079,-88.54754673830226,-6.753061966946579,-88.40944626691584,-7.860042247297444,-88.22412895118083,-9.337209573170592,-87.94553885343183,-11.275823912830434,-87.52531072644412,-13.953616757930442,-86.92492624710582" fill="none" stroke="rgb(233, 236, 239)" stroke-width="2" stroke-linejoin="round" filter="url(#fuzzy)"></polyline><polyline points="16,-85,16.972545500013133,-84.5843207416299,18.359444276095843,-83.67398235678625,19.948026498641596,-82.54245766652124,21.535696477155227,-81.29449945243626,23.105716165522065,-79.98646765499882,24.690867949079156,-78.6614757202478,26.293507842001908,-77.34698458658606,27.89117631456713,-76.04693911176814,29.467924118041992,-74.74629592895508,31.022268340931582,-73.43158495385052,32.5469945030457,-72.11457251404909,34.006315456726746,-70.84094968709823,35.33296198378415,-69.67777932808272,36.446389038402124,-68.68977714867877,37.280314794601594,-67.91901677322927,37.80972622698924,-67.37547812541553,38.05670914202867,-67.04993200212537" fill="none" stroke="rgb(233, 236, 239)" stroke-width="2" stroke-linejoin="round" filter="url(#fuzzy)"></polyline><polyline points="-3,-89,-1.5834254700255417,-88.99447620429368,-0.5056869451263205,-88.98104505206675,0.5173579527857297,-88.96120135765152,1.4869286022524262,-88.93445600894609,2.3772348791768576,-88.89722213920149,3.1835922842233053,-88.84351335124191,3.91667787186489,-88.76847179984622,4.590096899088125,-88.6703781326749,5.214432763224149,-88.5496627457379,5.792338905391346,-88.40769378440172,6.310377532091197,-88.24795561704927,6.733143210411072,-88.0787301659584,7.008079425612231,-87.9139490113348,7.081514405431951,-87.77007459697657,6.9159249969864565,-87.66060758503207,6.49549832093812,-87.59272454940253,5.8152117126592415,-87.56956439170628,4.862160965904355,-87.59652328807665,3.6055032118747414,-87.68442976054146,2.004594859065883,-87.84311869870477,0.028138464384865447,-88.06890539572181,-2.3232655576245045,-88.34136226578582,-4.925224742310202,-88.64297772087257" fill="none" stroke="rgb(233, 236, 239)" stroke-width="2" stroke-linejoin="round" filter="url(#fuzzy)"></polyline><polyline points="12,-86,11.945269525554808,-86.30278450827443,12.659249442456304,-85.96224857081491,13.28930982563586,-85.53152180331386,13.591856467076688,-85.16604050772263,13.582558151540917,-84.83715044710148,13.34198785670888,-84.46831233685283,12.924435829783542,-84.0024939139499,12.32809816689917,-83.42201953505905,11.507534208041108,-82.74196181921947,10.405618878143322,-81.99412662251369,8.978512758828263,-81.2115347185493,7.200046396415219,-80.4169392247835,5.0523379745805705,-79.61626741726334,2.5188103171128695,-78.79786289854503,-0.4133502322498668,-77.93785766946571,-3.7504916825441956,-77.00954284626891,-7.5023941540505525,-75.99261459281904,-11.700545265465868,-74.88027108401508,-16.399271837134705,-73.68654133841457,-21.640945410588866,-72.45145415377226,-27.41899593386681,-71.21607864535466,-33.74669952021699,-69.90307359972496" fill="none" stroke="rgb(233, 236, 239)" stroke-width="2" stroke-linejoin="round" filter="url(#fuzzy)"></polyline><polyline points="26,-79,27.530635538115934,-77.52092748869183,28.47474158843475,-76.74969727575107,29.01788620973542,-76.36228973003048,29.31943530277273,-76.09902444654703,29.476237981202292,-75.83998661845607,29.513342649587027,-75.5714348543559,29.418426527280978,-75.31953647207442,29.172779233381018,-75.10762571768673,28.759134343189746,-74.94800802958882,28.155459913190956,-74.85117074799328,27.330256627861825,-74.83327117154842,26.246293604373932,-74.91494461894035,24.86965134289466,-75.11558372627417,23.177267539169907,-75.44965019996307,21.15861788035864,-75.92715745647206,18.81143478893216,-76.55569649979188,16.13444021646297,-77.34085902383949,13.121654725488067,-78.2852357834351,9.76252742478292,-79.38955929092899,6.046840730349841,-80.65941966402968,1.9622244570281202,-82.11603881933851,-2.5294848238879144,-83.80157959537786,-7.507700756448435,-85.76372896877196" fill="none" stroke="rgb(233, 236, 239)" stroke-width="2" stroke-linejoin="round" filter="url(#fuzzy)"></polyline><polyline points="30,-76,31.282531345924337,-74.70441743633442,31.927288325399388,-74.01559848554044,32.35516066880709,-73.50529156771286,32.707691991948145,-73.02534352429637,32.990294330126346,-72.55893860507645,33.13981516421963,-72.14911814236528,33.085629358001896,-71.84271434794859,32.78505389755636,-71.66670806962878,32.22767114989011,-71.63260374773111,31.419970414481668,-71.74954222409863,30.365719199180603,-72.03185331821442,29.053546056311077,-72.49776340419044,27.455721025587202,-73.16317553613726,25.534853399624694,-74.03640875426572,23.252175737298717,-75.1184323656459,20.57340855488254,-76.40950543511575,17.472660413111516,-77.91738100849015,13.93667232463257,-79.65706473043937,9.968240529443426,-81.63579709660051,5.5770569716806495,-83.83829363671852,0.7171881750838982,-86.2567247586595" fill="none" stroke="rgb(233, 236, 239)" stroke-width="2" stroke-linejoin="round" filter="url(#fuzzy)"></polyline><polyline points="16,-85,16.859329098528377,-84.69176333715686,17.897804268304778,-84.09912364289046,18.89180254372138,-83.48305036634244,19.635678324058155,-82.93300550164055,20.119039453466772,-82.48273070095256,20.383312520148653,-82.148180541575,20.43415439359879,-81.93551316861223,20.244792540785465,-81.83927654692586,19.790001569511922,-81.84212387650119,19.058363704138653,-81.92462736365371,18.035616960333314,-82.08306653015526,16.684018825159086,-82.34221846019614,14.941852443133326,-82.74961553140022,12.745937769790986,-83.34946833414759,10.060673847473435,-84.15224965555512,6.890623538249079,-85.12783901350802,3.2616718313280764,-86.24152831710478,-0.7959301692122014,-87.51270223716729" fill="none" stroke="rgb(233, 236, 239)" stroke-width="2" stroke-linejoin="round" filter="url(#fuzzy)"></polyline><polyline points="-3,-89,-2.44133762227141,-88.99190008322064,-1.4525965859929837,-88.97014188748159,-0.38346670422156853,-88.94020578595926,0.6798604326905098,-88.90502751190989,1.6921968099851474,-88.86378286694307,2.6243084544870183,-88.8137951238332,3.462422984486741,-88.752618611359,4.203169253697007,-88.67941158395668,4.8489199531567175,-88.59484540005471,5.406287828372391,-88.49979909387541,5.881452560424805,-88.39481782913208,6.268244101408056,-88.28202119793042,6.5360682687985285,-88.16847292181338,6.630046360965039,-88.0677493868362,6.48738568656321,-87.99707958733501,6.059738717645066,-87.97071542067337,5.324891327471542,-87.99401515051827,4.277840744144648,-88.06473884475537,2.9063418144070865,-88.18483914195126,1.1769101299800264,-88.3730758185121,-0.9059983343824383,-88.65170391349473" fill="none" stroke="rgb(233, 236, 239)" stroke-width="2" stroke-linejoin="round" filter="url(#fuzzy)"></polyline><polyline points="16,-85,16.6299697463584,-84.6519967732184,17.00928694513685,-83.90716646098316,16.920651789316935,-83.0028307197592,16.12213608901085,-82.00405646015346,14.572329632261667,-80.9226985720934,12.30468594317394,-79.7619249392976,9.320597667348643,-78.52321752752648,5.577643240422745,-77.20156002685076,1.0330005125988357,-75.77643615500371,-4.3290626480005265,-74.20493330955452,-10.516450382457775,-72.42583937572732,-17.55988902181602,-70.38413197146193,-25.50403174065803,-68.08352139759373,-34.36117815935686,-65.69800031585852" fill="none" stroke="rgb(233, 236, 239)" stroke-width="2" stroke-linejoin="round" filter="url(#fuzzy)"></polyline><polyline points="3,-89,3.6622254354607104,-88.86473714052454,4.874435555723864,-88.47131969004302,6.213495446875863,-87.91744232256477,7.721667725152737,-87.22846568446856,9.461838101462043,-86.40215074445108,11.386687248747972,-85.46050748837233,13.38519148231911,-84.44997800072086,15.36245705635417,-83.41950744536541,17.277875900268555,-82.40314102172852,19.131661733238907,-81.41793359126473,20.92786139844809,-80.47374660036813,22.649301242815792,-79.58281931667963,24.26141240931225,-78.75980811168219,25.7316094776642,-78.01698893934207,27.03414580796544,-77.36971547710968,28.13330419307396,-76.8521044007633,29.01321330169643,-76.4861529945764" fill="none" stroke="rgb(233, 236, 239)" stroke-width="2" stroke-linejoin="round" filter="url(#fuzzy)"></polyline><polyline points="53,-44,53.17207889692011,-43.745795080327746,53.30812766455632,-43.235801347271064,53.26978605738342,-42.64688395135353,53.067992725228684,-42.08787885612497,52.67408912573437,-41.687922816242036,52.03490268977675,-41.56342573251845,51.11864949242855,-41.77447955196539,49.92631792407317,-42.32062534271598,48.47417539439366,-43.16656060146573,46.77239401997531,-44.271643159260094,44.814499105074574,-45.60950680438246,42.57805061755247,-47.178167838118014,40.03086387820221,-49.00352197814507,37.1381050426178,-51.13493962538547,33.86820177824436,-53.630858921335346,30.19663842410495,-56.53820133120015,26.10665632107271,-59.87686270418426,21.585763460196972,-63.64130298468292,16.61786702204961,-67.82046009424636,11.176119456478531,-72.41879075211948,5.239970256675264,-77.45559685551567,-1.0812693345750937,-82.95766419808238" fill="none" stroke="rgb(233, 236, 239)" stroke-width="2" stroke-linejoin="round" filter="url(#fuzzy)"></polyline><polyline points="37,-69,37.738665201159655,-67.99932657773383,38.443976861717346,-66.9153642222247,39.2828776355667,-65.7915180011707,40.19964576871572,-64.67992523130509,41.107393035397536,-63.62056400502388,41.94743331858161,-62.630976865023925,42.690301783871504,-61.7188519195138,43.32051153086096,-60.90009734847686,43.82996177105261,-60.19862136889637,44.22187662124634,-59.62858486175537,44.51139058771833,-59.1839206131573,44.7122057235563,-58.85513077211863,44.815455521653426,-58.66298338171343,44.779763609170566,-58.673549014716855,44.54616439469032,-58.969732791104434,44.06783871004574,-59.6008956129551,43.32075403316433,-60.57187891660166,42.2711473232895,-61.904529862506195,40.845290879082825,-63.692202943637966" fill="none" stroke="rgb(233, 236, 239)" stroke-width="2" stroke-linejoin="round" filter="url(#fuzzy)"></polyline><polyline points="38,-67,38.66315878176049,-66.11133094876456,38.72883559589643,-65.34814504659501,38.118168750653986,-64.75816985337617,36.78335905825952,-64.33727096399525,34.70830640252623,-64.03989114045918,31.883859006335108,-63.83587724311783,28.295592949281474,-63.725765498734575,23.927284240722656,-63.706687927246094,18.765738912149985,-63.74567817464634,12.797384339618898,-63.80420102272251,5.9978347222893476,-63.89372765366592,-1.676561432715971,-64.09749327291502,-10.277703536422868,-64.52283350031887,-19.808037594265862,-65.24159127820172,-30.119333948251903,-66.33506116399157" fill="none" stroke="rgb(233, 236, 239)" stroke-width="2" stroke-linejoin="round" filter="url(#fuzzy)"></polyline><polyline points="-25,-82,-23.692786633590437,-82.82776052657593,-22.08943569723625,-83.35043790803014,-20.337262732582513,-83.61927839100957,-18.43004969732086,-83.6970766797438,-16.345283514690436,-83.63402009748802,-14.065727532904532,-83.47123194547059,-11.583328531583412,-83.23842207997671,-8.896335376993324,-82.95493422933642,-6.014379838646295,-82.63256046988324,-2.968905448913574,-82.27605199813843,0.18827776168495802,-81.88213340049904,3.4046781810239413,-81.44018244143308,6.649584888921584,-80.93666437207932,9.917420402194267,-80.36408422627997,13.207258709916914,-79.73318149959891,16.499444911835816,-79.08069810007832,19.76234253675934,-78.45443684488575,23.008189262803462,-77.852290571279,26.367612175414145,-77.12162702089184" fill="none" stroke="rgb(233, 236, 239)" stroke-width="2" stroke-linejoin="round" filter="url(#fuzzy)"></polyline><polyline points="22,-81,21.994816480092727,-81.17051698149628,22.446275069924972,-80.80831493849406,22.44881827086338,-80.48116350384873,21.89338057703551,-80.22689890683627,20.85504833225278,-79.98710456947468,19.366130466750466,-79.75008925314582,17.37819142821842,-79.56826146559708,14.793105108480152,-79.52053580401834,11.515783731576837,-79.6581464983339,7.494494598090293,-79.96883453678157,2.717058953646589,-80.38506275436328,-2.837605433278471,-80.83329967713813,-9.249505428991242,-81.27846137155285,-16.644774021971397,-81.6933224398949" fill="none" stroke="rgb(233, 236, 239)" stroke-width="2" stroke-linejoin="round" filter="url(#fuzzy)"></polyline><!--]--></g><g id="pointNose"><g id="rightNose"><!--[--><circle r="1.2077844609787238" cx="10.61927880101218" cy="31.68032232297852" stroke="black" fill="none" stroke-width="1" filter="url(#fuzzy)"></circle><circle r="1.6799342450893096" cx="10.455020248647132" cy="29.43435838024768" stroke="black" fill="none" stroke-width="1" filter="url(#fuzzy)"></circle><circle r="1.478416003255205" cx="8.391580036763417" cy="28.842856734321334" stroke="black" fill="none" stroke-width="1" filter="url(#fuzzy)"></circle><circle r="2.281662602684701" cx="12.178387999257584" cy="28.252496696763124" stroke="black" fill="none" stroke-width="1" filter="url(#fuzzy)"></circle><circle r="2.1270866056030933" cx="8.609703511237502" cy="29.86566588204474" stroke="black" fill="none" stroke-width="1" filter="url(#fuzzy)"></circle><circle r="1.7775135796022683" cx="10.145206729533086" cy="28.089007411379217" stroke="black" fill="none" stroke-width="1" filter="url(#fuzzy)"></circle><circle r="1.6403152093591975" cx="9.661953907582463" cy="27.790881039512612" stroke="black" fill="none" stroke-width="1" filter="url(#fuzzy)"></circle><circle r="2.103046294014603" cx="8.785086563297133" cy="28.131374489420807" stroke="black" fill="none" stroke-width="1" filter="url(#fuzzy)"></circle><circle r="1.197102625692178" cx="9.395607636226762" cy="31.77610633842695" stroke="black" fill="none" stroke-width="1" filter="url(#fuzzy)"></circle><circle r="1.2921704731862271" cx="9.251123364863188" cy="28.616299613588975" stroke="black" fill="none" stroke-width="1" filter="url(#fuzzy)"></circle><!--]--></g><g id="leftNose"><!--[--><circle r="1.072928936185599" cx="-7.998322031309084" cy="28.297798425325787" stroke="black" fill="none" stroke-width="1" filter="url(#fuzzy)"></circle><circle r="1.8090688670046489" cx="-8.850655766052336" cy="27.94343208618038" stroke="black" fill="none" stroke-width="1" filter="url(#fuzzy)"></circle><circle r="1.1565994098897843" cx="-6.538492725760404" cy="28.21590803722626" stroke="black" fill="none" stroke-width="1" filter="url(#fuzzy)"></circle><circle r="2.7617370818104447" cx="-8.22706196691595" cy="28.35353263026526" stroke="black" fill="none" stroke-width="1" filter="url(#fuzzy)"></circle><circle r="2.496884445052884" cx="-9.562365654814013" cy="27.86412121906776" stroke="black" fill="none" stroke-width="1" filter="url(#fuzzy)"></circle><circle r="2.1456147606055707" cx="-8.366798810042663" cy="31.115909175112414" stroke="black" fill="none" stroke-width="1" filter="url(#fuzzy)"></circle><circle r="1.74426758229927" cx="-6.270052241459357" cy="31.108384790526145" stroke="black" fill="none" stroke-width="1" filter="url(#fuzzy)"></circle><circle r="2.2256555980606434" cx="-9.40050223807097" cy="27.875617981092102" stroke="black" fill="none" stroke-width="1" filter="url(#fuzzy)"></circle><circle r="2.7523073794600186" cx="-6.255082054681595" cy="30.485705718412582" stroke="black" fill="none" stroke-width="1" filter="url(#fuzzy)"></circle><circle r="2.514476000536121" cx="-5.960437422310081" cy="28.832668566163132" stroke="black" fill="none" stroke-width="1" filter="url(#fuzzy)"></circle><!--]--></g></g><g id="mouth"><polyline points="-43.52830389469547,28.175610761421627,-42.820478915212284,30.692083334233477,-42.10239748821328,33.136931398331896,-41.374286874888675,35.51081181810298,-40.636374336428666,37.8143814579328,-39.88888713402348,40.048297182207406,-39.13205252886329,42.21321585531292,-38.36609778213833,44.30979434163539,-37.59125015503879,46.33868950556092,-36.80773690875488,48.30055821147557,-36.01578530447679,50.196057323765416,-35.21562260339475,52.025843706816545,-34.407476066698955,53.79057422501504,-33.59157295557961,55.490905742746975,-32.768140531226905,57.127495124398415,-31.937406054831072,58.70099923435546,-31.099596787582303,60.212074937004175,-30.25493999067081,61.66137909673067,-29.40366292528678,63.04956857792098,-28.54599285262044,64.37730024496119,-27.682157033861994,65.64523096223742,-26.812382730201627,66.85401759413568,-25.936897202829563,68.00431700504211,-25.055927712936,69.09678605934278,-24.169701521711147,70.13208162142374,-23.27844589034522,71.11086055567108,-22.38238808002839,72.03377972647088,-21.4817553519509,72.90149599820923,-20.57677496730293,73.7146662352722,-19.6676741872747,74.47394730204587,-18.7546802730564,75.1799960629163,-17.838020485838257,75.83346938226961,-16.917922086810457,76.43502412449183,-15.99461233716322,76.98531715396908,-15.068318498086741,77.48500533508742,-14.139267830771228,77.93474553223292,-13.20768759640689,78.33519460979169,-12.273805056183924,78.68700943214978,-11.337847471292545,78.99084686369325,-10.400042102922956,79.24736376880824,-9.460616212265357,79.45721701188077,-8.51979706050996,79.62106345729697,-7.577811908846959,79.73955996944287,-6.634888018466578,79.81336341270456,-5.691252650559006,79.84313065146814,-4.747133066314456,79.82951855011969,-3.8027565269231323,79.77318397304526,-2.8583502935752394,79.67478378463096,-1.9141416274609817,79.53497484926284,-0.9703577897705626,79.35441403132698,-0.027226041694198067,79.1337581952095,0.9150263555779174,78.87366420529645,1.8561721408555787,78.57478892597389,2.7959840529485733,78.23778922162792,3.7342348306667033,77.86332195664461,4.670697212819756,77.45204399541005,5.605143938217533,77.00461220231031,6.537347745669823,76.52168344173148,7.467081373986424,76.00391457805962,8.394117561977133,75.45196247568083,9.31822904845174,74.8664839989812,10.23918857222004,74.24813601234673,11.156768872091831,73.5975753801636,12.070742686876905,72.91545896681782,12.980882755385057,72.2024436366955,13.88696181642608,71.45918625418273,14.788752608809773,70.68634368366556,15.68602787134593,69.88457278953005,16.57856034284434,69.05453043616234,17.4661227621148,68.19687348794847,18.348487867967112,67.31225880927452,19.225428399211065,66.40134326452657,20.096717094656455,65.46478371809071,20.96212669311307,64.503237034353,21.82142993339071,63.517360077699536,22.674399554299175,62.50780971251639,23.520808294648248,61.475242803189644,24.360428893247736,60.420316214105384,25.193034088907424,59.343686809649654,26.018396620437112,58.24601145420857,26.836289226646592,57.12794701216821,27.646484646345655,55.99015034791461,28.44875561834411,54.8332783258339,29.242874881451733,53.65798781031213,30.028615174478336,52.464935665735396,30.8057492362337,51.254778756489756,31.574049805527626,50.0281739469613,32.33328962116991,48.78577810153612,33.08324142197034,47.528248084600264,33.82367794673871,46.25624076053984,34.55437193428483,44.970412993740915,35.275096123418486,43.67142164858956,35.985623252949466,42.35992358947186,36.68572606168757,41.0365756807739,37.37517728844259,39.702034786881754,38.053749672024324,38.3569577721815,38.72121595124257,37.00200150105921,39.37734886490711,35.63782283790098,40.021921151827755,34.26507864709287,40.654705550814285,32.88442579302097,41.27547480067646,31.496521140071447,40.65470555081424,32.88442579302105,40.021921151827705,34.26507864709296,39.37734886490706,35.63782283790107,38.72121595124252,37.0020015010593,38.05374967202428,38.35695777218158,37.37517728844254,39.70203478688183,36.68572606168752,41.03657568077398,35.98562325294942,42.35992358947194,35.27509612341844,43.67142164858964,34.554371934284795,44.97041299374099,33.82367794673868,46.2562407605399,33.0832414219703,47.528248084600335,32.33328962116987,48.785778101536174,31.574049805527583,50.02817394696137,30.80574923623366,51.254778756489806,30.02861517447829,52.46493566573545,29.24287488145169,53.65798781031219,28.448755618344066,54.83327832583396,27.646484646345613,55.99015034791468,26.83628922664655,57.127947012168256,26.018396620437063,58.24601145420862,25.193034088907375,59.343686809649704,24.360428893247686,60.420316214105426,23.52080829464821,61.47524280318971,22.67439955429914,62.507809712516455,21.821429933390675,63.5173600776996,20.962126693113028,64.50323703435305,20.096717094656416,65.46478371809079,19.225428399211026,66.40134326452663,18.348487867967076,67.31225880927457,17.466122762114768,68.19687348794852,16.578560342844302,69.0545304361624,15.686027871345892,69.88457278953011,14.788752608809736,70.6863436836656,13.886961816426037,71.45918625418277,12.980882755385014,72.20244363669556,12.070742686876859,72.91545896681788,11.156768872091789,73.59757538016365,10.239188572219994,74.24813601234679,9.318229048451695,74.86648399898122,8.394117561977094,75.45196247568086,7.467081373986382,76.00391457805966,6.537347745669778,76.52168344173151,5.605143938217488,77.00461220231034,4.670697212819714,77.4520439954101,3.734234830666656,77.86332195664463,2.7959840529485334,78.23778922162793,1.8561721408555343,78.57478892597389,0.915026355577873,78.87366420529646,-0.02722604169423981,79.13375819520951,-0.9703577897706062,79.354414031327,-1.9141416274610235,79.53497484926284,-2.858350293575284,79.67478378463095,-3.802756526923176,79.77318397304525,-4.747133066314499,79.82951855011966,-5.691252650559052,79.84313065146812,-6.63488801846662,79.81336341270455,-7.577811908847009,79.73955996944285,-8.51979706051,79.62106345729693,-9.4606162122654,79.45721701188074,-10.400042102922999,79.24736376880821,-11.337847471292589,78.99084686369324,-12.273805056183967,78.68700943214974,-13.207687596406931,78.33519460979164,-14.13926783077127,77.9347455322329,-15.068318498086782,77.4850053350874,-15.994612337163264,76.98531715396905,-16.9179220868105,76.4350241244918,-17.838020485838296,75.83346938226957,-18.754680273056444,75.17999606291626,-19.667674187274738,74.47394730204581,-20.57677496730297,73.71466623527216,-21.481755351950937,72.90149599820919,-22.382388080028434,72.03377972647084,-23.278445890345253,71.11086055567102,-24.169701521711197,70.13208162142368,-25.055927712936054,69.09678605934272,-25.936897202829613,68.00431700504205,-26.812382730201676,66.85401759413563,-27.682157033862037,65.64523096223735,-28.545992852620486,64.37730024496113,-29.40366292528683,63.0495685779209,-30.254939990670852,61.661379096730585,-31.099596787582353,60.21207493700412,-31.937406054831122,58.70099923435539,-32.768140531226955,57.12749512439834,-33.59157295557965,55.49090574274688,-34.407476066699,53.790574225014936,-35.21562260339479,52.025843706816445,-36.01578530447684,50.19605732376532,-36.80773690875492,48.300558211475455,-37.591250155038836,46.3386895055608,-38.36609778213838,44.309794341635275,-39.13205252886335,42.2132158553128,-39.88888713402353,40.04829718220728,-40.636374336428716,37.814381457932654,-41.374286874888725,35.51081181810284,-42.10239748821333,33.136931398331754,-42.82047891521233,30.692083334233313" fill="rgb(215,127,140)" stroke="black" stroke-width="3" stroke-linejoin="round" filter="url(#fuzzy)"></polyline></g></svg>