<svg viewBox="-100 -100 200 200" xmlns="http://www.w3.org/2000/svg" width="400" height="400" id="face-svg"><defs><clipPath id="leftEyeClipPath"><polyline points="27.623848335490774,-7.413772541633417,27.39677513086266,-7.676003803987564,27.149049629480967,-7.945543911119963,26.88007602277901,-8.221403455777278,26.589328592716118,-8.502621816097601,26.276349775438977,-8.788266894361506,25.940748224943153,-9.077434855743073,25.58219687673444,-9.369249867060944,25.20043101149037,-9.662863835529354,24.795246318721613,-9.957456147509184,24.366496960433427,-10.252233407258988,23.914093634787033,-10.54642917568605,23.438001639761143,-10.839303709097425,22.93823893681331,-11.13014369795096,22.414874214541417,-11.418262005606357,21.868024952345092,-11.702997407076213,21.37791743670909,-12.070901063724635,20.84712289162181,-12.433868351331775,20.275413746924475,-12.790511019663427,19.662818012191824,-13.139488685962634,19.0096031520148,-13.479511754579523,18.316260339631054,-13.809344087181099,17.583489085799,-14.127805429155613,16.812182239811037,-14.433773597826082,16.00341135954184,-14.726186438087577,15.158412447427263,-15.004043551082875,14.278572049269684,-15.266407801531052,13.365413712765502,-15.51240660932366,12.420584802650467,-15.74123303100304,11.445843669358663,-15.952146636737414,10.44304716809069,-16.144474188407298,9.414138525187013,-16.317610124417918,8.361135548701935,-16.471016856852135,7.2861191800741985,-16.604224886578535,6.19122238378964,-16.716832741929302,5.078619371931913,-16.808506746562404,3.9505151605167654,-16.878980622122732,2.8091354545057534,-16.928054931316833,1.6567168583950274,-16.95559636701571,0.4954974092749538,-16.961536893000442,-0.6722925707437106,-16.945872741965154,-1.8444393058413668,-16.908663276391845,-3.0187540846431435,-16.850029717911866,-4.193081468318732,-16.770153750768472,-5.365307191732764,-16.669276004995158,-6.533365760750049,-16.547694424924295,-7.695247748799907,-16.405762528640743,-8.84900679580385,-16.243887563995017,-9.992766312571003,-16.062528566790522,-11.124725893765365,-15.862194326759592,-12.243167442549353,-15.643441266942865,-13.346461010007811,-15.406871242086538,-14.43307035245677,-15.153129261672214,-15.501558209741262,-14.882901143193868,-16.550591307626448,-14.596911101296538,-17.578945087386344,-14.295919278391343,-18.585508165694407,-13.980719222361454,-19.56928652792027,-13.65213531697357,-20.52940745793687,-13.311020170609567,-21.465123207542355,-12.958251968932803,-22.375814408600853,-12.594731797103842,-23.26099323100657,-12.221380937160014,-24.12030628957539,-11.83913814617358,-24.95353730296828,-11.448956920802962,-25.760609507750743,-11.051802753851735,-26.541587830692688,-10.648650388449926,-27.29807066989343,-10.238260890170407,-28.031335657999723,-9.8190106686013,-28.741106338743947,-9.391300063308641,-29.427149008134325,-8.95552519755041,-30.08927229870356,-8.512077226321287,-30.7273267637576,-8.061341584397425,-31.341204461624375,-7.603697234381217,-31.930838539902552,-7.139515914746058,-32.496202819710184,-6.669161387881123,-33.03731137993356,-6.192988688136128,-33.5542181414758,-5.71134336986609,-34.047016451505726,-5.224560755476109,-34.515838667706475,-4.73296518346612,-34.96085574252429,-4.236869256475673,-34.15207709369432,6.606560738189238,-33.63189912675503,7.214697141543727,-33.08939041715526,7.819390446195937,-32.52453300185595,8.419560070252407,-31.937352800317147,9.014070144631901,-31.32791912752338,9.601735529648039,-30.69634420700933,10.181327831591965,-30.04278268388521,10.75158141931497,-29.367431137862457,11.31119944081115,-28.670527596279083,11.85885983980006,-27.952351047125347,12.393221372309362,-27.21322095206919,12.912929623257451,-26.453496759481805,13.416623023036124,-25.67357741746313,13.902938864093212,-24.873900886867418,14.370519317515264,-24.052665056500015,14.82324822056557,-23.2079350538147,15.26374166905585,-22.340064944365093,15.688845200598184,-21.44952135687643,16.095542280690626,-20.53688022573217,16.480963707565948,-19.602823341495174,16.84239679207268,-18.64813471309963,17.177294267664713,-17.673696745349655,17.483282885575324,-16.680486235360753,17.75817165025217,-15.669570191580211,17.99995965012925,-14.642101479022392,18.206843438811944,-13.599314294355187,18.377223921751572,-12.542519474473519,18.50971270348531,-11.473099642196102,18.60313785051797,-10.392504192721454,18.656549024921667,-9.302244124479282,18.669221943729504,-8.203886718013315,18.6406621191996,-7.099050066531633,18.570607835025516,-5.9893974617606025,18.459032313569406,-4.876631638738441,18.306145029193882,-3.7624888831845773,18.11239212276898,-2.6487330050807776,17.87845587243023,-1.5371491821001921,17.605253175664174,-0.4295376765203649,17.293932997797356,0.6722925707437106,16.945872741965154,1.7665304653504244,16.562673495636382,2.8513694003501655,16.146154108770173,3.9250140089756833,15.698344058680956,4.98568702576809,15.221475056688085,6.03163625240245,14.717971351625973,7.061141624576823,14.190438685291134,8.072522376328816,13.641651854902246,9.064144298143379,13.074540837649337,10.034427085215956,12.49217543240847,10.981851772234776,11.897748373697885,11.904968251046295,11.294556872951947,12.80240286756765,10.685982542189018,13.672866094310113,10.075469655149428,14.515160274877385,9.466501700979748,15.32818743680279,8.862576185539556,16.110957169089097,8.267177635406838,16.8625945608151,7.683748759658261,17.582348197172717,7.115659724500466,18.269598209298618,6.5661754958285545,18.923864374264326,6.038421204787989,19.54481426158861,5.535345491416077,20.13227142263621,5.059681781439185,20.686223619266723,4.613907451301915,21.206831088097676,4.200200836504418,21.694434836745604,3.820396038323981,22.2115950887293,3.3743954819801125,22.708621939146855,2.9407067793069768,23.185434648949727,2.52004615342838,23.641983569840963,2.113056432867152,24.078251286391808,1.7203030008132467,24.49425375815836,1.3422697443918707,24.890041461798386,0.9793550039315964,25.26570053318783,0.6318675222324819,25.621353909537635,0.3000223938341797,25.957162471510333,-0.01606298571593534,26.27332618533679,-0.3163729705946592,26.570085244932795,-0.6009977154348332,26.84772121401588,-0.8701372260572331,27.10655816822184,-1.124105410202449,27.346963837221562,-1.3633341282627691"></polyline></clipPath><clipPath id="rightEyeClipPath"><polyline points="-23.45416063363391,-11.147212936189602,-23.229026944729668,-11.508292079157926,-22.98618994905356,-11.879997876392354,-22.72523548186969,-12.260978800119842,-22.44579273651469,-12.649919080958925,-22.147533170403293,-13.04553848396117,-21.830169411034063,-13.44659208465261,-21.493454161994975,-13.851870045075188,-21.13717910896908,-14.2601973898282,-20.76117382574013,-14.670433782109738,-20.365304680198257,-15.081473299758123,-19.94947374034556,-15.492244211293356,-19.5136176803018,-15.90170875195856,-19.05770668631,-16.308862899761415,-18.58174336274209,-16.712736151515607,-18.0857616381046,-17.112391298882258,-17.62242821103434,-17.62369002931399,-17.126477276484508,-18.129314907357568,-16.597473772511684,-18.62729078268633,-16.03516343129774,-19.115696973112005,-15.439465548042643,-19.592672827273553,-14.810465698872948,-20.056422867666818,-14.148408413491849,-20.505221523313672,-13.453689808297023,-20.93741746136932,-12.726850185692124,-21.351437526966286,-11.968566605318097,-21.745790300593768,-11.179645432930327,-22.11906928231101,-10.36101487264761,-22.469955712093203,-9.513717488299116,-22.797221035608686,-8.638902719595235,-23.09972902472594,-7.737819398848449,-23.376437562049055,-6.8118082739702945,-23.626400098780344,-5.862294543470314,-23.84876679520857,-4.890780409183256,-24.042785353121587,-3.8988376524503803,-24.207801549441925,-2.8881002394810285,-24.34325948038392,-1.8602569616204097,-24.448701525431083,-0.8170441162497664,-24.523768040432273,0.23976176595517096,-24.568196789115326,1.3083511416812676,-24.581822122316744,2.3868886178246793,-24.564573914226074,3.473520050801012,-24.516476264943627,4.566379576592988,-24.437645978650075,5.663596565809499,-24.328290826686676,6.763302498030071,-24.188707604844623,7.8636377497086345,-24.019279994162225,8.962758289910601,-23.820476234528513,10.058842278157185,-23.59284662039186,11.150096558650928,-23.337020827872323,12.234763045156367,-23.053705082576222,13.31112499080983,-22.7436791774117,14.377513137132302,-22.407793349703695,15.43231173651931,-22.046965026907273,16.473964442481766,-21.662175450217518,17.5009800619118,-21.25446618537498,18.511938163647436,-20.824935529965106,19.505494537610126,-20.374734826510267,20.48038649878913,-19.905064690653127,21.435438030346575,-19.417171163729883,22.369564760117296,-18.912341799032006,23.28177876477733,-18.391901691055104,24.171193195955016,-17.85720945703359,25.03702672255871,-17.309653180059712,25.878607783595022,-16.750646323085554,26.695378645751518,-16.18162362310668,27.48689926001794,-15.604036974826116,28.255066100741345,-15.016073139797752,29.001647278593076,-14.415345878557973,29.726132039399534,-13.802454417155362,30.428052063939617,-13.177992232914505,31.10698223482555,-12.542545809084778,31.76254140338387,-11.896693389489153,32.394393156536324,-11.241003733172999,33.00224658368082,-10.576034869052862,33.585857043572304,-9.902332850565294,34.145026931203745,-9.22043051031564,34.679606444686996,-8.530846214726829,35.18949435213379,-7.834082618688184,35.674638758536595,-7.130625420204217,36.13503787264959,-6.420942115043426,34.003877835889504,9.92172209130512,33.38451004908011,10.815171326782943,32.74178189635486,11.703092323998218,32.07595512513122,12.583869233212921,31.387353724286754,13.455804497411643,30.67636174577128,14.317127879876688,29.943421126219235,15.166005491763146,29.189029508561855,16.000548819674016,28.413738063639535,16.81882375323527,27.61814931181399,17.618859612670995,26.802914944580607,18.398658176378397,25.968733646180674,19.15620270850301,25.11634891521367,19.88946698651369,24.246546886249476,20.596424328777744,23.360154151440724,21.275056622136077,22.4544526287446,21.931134101385936,21.52690489823122,22.56852852977004,20.57870312492497,23.18253526925828,19.61112214108991,23.76866018901009,18.625513409629765,24.32263366139835,17.62329884374619,24.840424213823162,16.605964499120574,25.318251768909377,15.575054154884684,25.752600405681804,14.53216279964542,26.14023057431269,13.47893003882903,26.478190697034975,12.417033439610005,26.763828087816023,11.348181829690049,26.994799123385405,10.274108566192297,27.1690785982112,9.196564790936193,27.284968196018816,8.117312688358236,27.34110401044638,7.0381187623439265,27.336463047430847,5.960747148236231,27.27036864191897,4.886952976285821,27.142494721497116,3.8184758028083703,26.952868849534248,2.757033125314262,26.701873980431905,1.7043139978759605,26.39024885957555,0.661972762998337,26.0190870005812,-0.36837708374271116,25.58983417243155,-1.385168880028127,25.1042843290956,-2.3868886178246793,24.564573914226074,-3.372080582849792,23.97317447352851,-4.339352796206951,23.332883507396247,-5.287382241926357,22.64681349640545,-6.214919864145573,21.9183790322642,-7.120795317664799,21.151281986809757,-8.003921455611552,20.34949465164822,-8.863298537949449,19.517240781030488,-9.6980181445657,18.658974470558803,-10.507266776672184,17.779356804317935,-11.29032913025467,16.88323020302503,-12.046591025304943,15.975590405792365,-12.775541974570524,15.061556018097006,-13.476777375556752,14.146335558551543,-14.150000309515834,13.23519193706993,-14.79502293115762,12.333404297022641,-15.411767432816818,11.446227153975178,-16.00026656681137,10.578846763604025,-16.560663709726548,9.73633465138421,-17.09321245235978,8.923598236642544,-17.5982756990605,8.145328483570635,-18.076324260200153,7.40594451179183,-18.527934921506713,6.70953509907614,-18.95378797399863,6.059797008797263,-19.35466418825282,5.4599700747258435,-19.73144121674141,4.912768975753044,-20.124318273617547,4.260034572230147,-20.500474889742094,3.627082023329452,-20.860058894302206,3.014992679455201,-21.203232028310346,2.424736336395652,-21.530170068544294,1.8571651059049525,-21.841062951487025,1.313007286285032,-22.136114897266765,0.7928612329675051,-22.415544533596886,0.29718922909555623,-22.679585019715866,-0.17368864389416672,-22.92848417032728,-0.6196006356896575,-23.16250457953973,-1.0405294565216696,-23.38192374480684,-1.4366184065818106,-23.587034190867165,-1.8081775054406561,-23.77814359368419,-2.155689621465857,-23.955574904386303,-2.4798166012402496"></polyline></clipPath><filter id="fuzzy"><feTurbulence id="turbulence" baseFrequency="0.05" numOctaves="3" type="noise" result="noise"></feTurbulence><feDisplacementMap in="SourceGraphic" in2="noise" scale="2"></feDisplacementMap></filter><linearGradient id="rainbowGradient" x1="0%" y1="0%" x2="100%" y2="0%"><stop offset="0%" style="stop-color: rgb(128, 128, 128);  stop-opacity: 1"></stop><stop offset="5.844101014156374%" style="stop-color: rgb(0, 191, 255);  stop-opacity: 1"></stop><stop offset="100%" style="stop-color: rgb(255, 165, 0);  stop-opacity: 1"></stop></linearGradient></defs><title>That&#39;s an ugly face</title><desc>CREATED BY XUAN TANG, MORE INFO AT TXSTC55.GITHUB.IO</desc><rect x="-100" y="-100" width="100%" height="100%" opacity="1" fill="rgb(139, 0, 0)"></rect><polyline id="faceContour" points="80,0,80,1,80,4,80,4,80,5,79,9,79,9,80,9,80,9,79,12,79,13,78,15,78,18,78,20,78,19,77,21,76,24,77,22,76,24,75,27,75,28,74,30,74,31,74,32,73,34,73,34,72,35,72,36,71,38,70,41,69,42,69,44,69,43,68,45,68,44,67,47,66,49,65,50,64,52,62,54,64,51,63,54,61,56,60,58,60,57,58,60,59,59,58,61,57,61,56,63,55,64,54,65,53,66,53,67,53,67,50,69,49,70,49,70,48,72,45,74,45,74,46,73,43,76,42,77,41,77,41,78,38,80,38,80,38,79,36,81,34,83,34,83,33,83,32,83,30,85,30,85,29,86,26,87,26,87,25,88,23,89,22,89,22,89,21,89,19,90,19,91,17,91,16,92,15,92,13,92,12,92,11,93,9,93,8,93,7,94,5,94,6,94,5,94,2,95,1,95,0,94,-1,95,-2,95,-6,95,-4,95,-8,95,-8,95,-10,95,-10,95,-11,95,-10,95,-13,94,-14,94,-16,94,-16,94,-19,93,-18,93,-20,93,-22,92,-22,93,-24,92,-26,91,-26,91,-27,91,-28,90,-29,90,-31,89,-32,89,-32,89,-33,88,-35,87,-36,86,-39,85,-38,85,-40,84,-41,83,-41,83,-43,82,-43,82,-44,81,-46,80,-47,79,-47,78,-49,77,-50,76,-50,76,-50,76,-52,73,-54,72,-53,72,-56,69,-56,69,-56,69,-58,67,-59,65,-59,65,-60,64,-61,62,-63,60,-62,61,-63,60,-64,58,-65,57,-65,55,-66,53,-68,51,-67,52,-68,49,-68,50,-70,48,-70,45,-70,45,-71,43,-71,43,-72,41,-73,39,-73,39,-74,37,-74,35,-75,32,-75,33,-75,30,-76,28,-77,26,-76,27,-77,23,-78,22,-78,20,-79,17,-78,18,-79,16,-79,13,-79,14,-79,12,-80,9,-80,6,-80,7,-80,4,-80,2,-80,1,-80,-1,-81,-2,-80,-4,-81,-6,-81,-5,-80,-8,-81,-11,-80,-10,-80,-15,-80,-16,-80,-15,-80,-17,-80,-18,-79,-22,-79,-23,-79,-24,-79,-26,-79,-27,-78,-28,-78,-30,-78,-31,-78,-32,-77,-35,-77,-35,-76,-38,-76,-37,-75,-41,-75,-41,-75,-44,-75,-44,-73,-47,-73,-49,-72,-50,-72,-49,-71,-53,-72,-51,-69,-56,-70,-54,-69,-56,-69,-57,-67,-59,-67,-60,-67,-60,-66,-62,-64,-65,-64,-65,-63,-67,-60,-69,-61,-68,-59,-71,-60,-71,-57,-73,-58,-72,-57,-73,-55,-75,-55,-75,-54,-76,-52,-78,-53,-77,-49,-80,-48,-81,-48,-81,-48,-81,-48,-81,-46,-83,-45,-83,-43,-84,-41,-85,-40,-86,-40,-86,-38,-88,-36,-88,-34,-89,-34,-89,-34,-89,-32,-90,-32,-90,-32,-90,-28,-91,-29,-91,-26,-92,-25,-92,-25,-92,-21,-93,-20,-93,-19,-94,-19,-94,-17,-94,-17,-94,-14,-94,-13,-94,-13,-94,-12,-94,-9,-94,-8,-95,-7,-95,-7,-95,-5,-95,-3,-95,0,-95,0,-95,3,-94,1,-94,6,-94,5,-94,5,-94,7,-94,10,-93,10,-93,12,-93,12,-93,14,-92,18,-91,18,-91,19,-91,19,-91,23,-90,23,-89,22,-90,25,-89,27,-88,28,-88,30,-87,31,-86,32,-86,32,-85,32,-85,35,-84,36,-83,37,-83,40,-81,40,-81,40,-81,43,-79,43,-79,44,-78,45,-78,48,-75,49,-75,48,-74,49,-75,52,-72,52,-72,53,-71,54,-70,54,-70,56,-67,57,-67,58,-65,58,-65,60,-64,61,-62,61,-62,62,-61,63,-59,64,-58,65,-57,65,-57,65,-57,67,-53,68,-52,68,-53,68,-51,69,-50,70,-48,70,-47,71,-46,71,-46,73,-43,73,-42,73,-41,74,-40,74,-38,76,-36,76,-34,76,-33,76,-35,77,-32,77,-32,78,-29,78,-27,78,-27,79,-24,79,-24,79,-22,79,-20,80,-18,79,-19,79,-19,80,-14,80,-14,80,-14,80,-12,80,-10,81,-7,81,-5,81,-5,81,-4,81,-3,81,-2,80,0,80,1" fill="#ffc9a9" stroke="black" stroke-width="1.6666666666666665" stroke-linejoin="round" filter="url(#fuzzy)"></polyline><g transform="translate(37.1053650272035 -29.567127848647118)"><polyline id="rightCountour" points="-23.45416063363391,-11.147212936189602,-23.229026944729668,-11.508292079157926,-22.98618994905356,-11.879997876392354,-22.72523548186969,-12.260978800119842,-22.44579273651469,-12.649919080958925,-22.147533170403293,-13.04553848396117,-21.830169411034063,-13.44659208465261,-21.493454161994975,-13.851870045075188,-21.13717910896908,-14.2601973898282,-20.76117382574013,-14.670433782109738,-20.365304680198257,-15.081473299758123,-19.94947374034556,-15.492244211293356,-19.5136176803018,-15.90170875195856,-19.05770668631,-16.308862899761415,-18.58174336274209,-16.712736151515607,-18.0857616381046,-17.112391298882258,-17.62242821103434,-17.62369002931399,-17.126477276484508,-18.129314907357568,-16.597473772511684,-18.62729078268633,-16.03516343129774,-19.115696973112005,-15.439465548042643,-19.592672827273553,-14.810465698872948,-20.056422867666818,-14.148408413491849,-20.505221523313672,-13.453689808297023,-20.93741746136932,-12.726850185692124,-21.351437526966286,-11.968566605318097,-21.745790300593768,-11.179645432930327,-22.11906928231101,-10.36101487264761,-22.469955712093203,-9.513717488299116,-22.797221035608686,-8.638902719595235,-23.09972902472594,-7.737819398848449,-23.376437562049055,-6.8118082739702945,-23.626400098780344,-5.862294543470314,-23.84876679520857,-4.890780409183256,-24.042785353121587,-3.8988376524503803,-24.207801549441925,-2.8881002394810285,-24.34325948038392,-1.8602569616204097,-24.448701525431083,-0.8170441162497664,-24.523768040432273,0.23976176595517096,-24.568196789115326,1.3083511416812676,-24.581822122316744,2.3868886178246793,-24.564573914226074,3.473520050801012,-24.516476264943627,4.566379576592988,-24.437645978650075,5.663596565809499,-24.328290826686676,6.763302498030071,-24.188707604844623,7.8636377497086345,-24.019279994162225,8.962758289910601,-23.820476234528513,10.058842278157185,-23.59284662039186,11.150096558650928,-23.337020827872323,12.234763045156367,-23.053705082576222,13.31112499080983,-22.7436791774117,14.377513137132302,-22.407793349703695,15.43231173651931,-22.046965026907273,16.473964442481766,-21.662175450217518,17.5009800619118,-21.25446618537498,18.511938163647436,-20.824935529965106,19.505494537610126,-20.374734826510267,20.48038649878913,-19.905064690653127,21.435438030346575,-19.417171163729883,22.369564760117296,-18.912341799032006,23.28177876477733,-18.391901691055104,24.171193195955016,-17.85720945703359,25.03702672255871,-17.309653180059712,25.878607783595022,-16.750646323085554,26.695378645751518,-16.18162362310668,27.48689926001794,-15.604036974826116,28.255066100741345,-15.016073139797752,29.001647278593076,-14.415345878557973,29.726132039399534,-13.802454417155362,30.428052063939617,-13.177992232914505,31.10698223482555,-12.542545809084778,31.76254140338387,-11.896693389489153,32.394393156536324,-11.241003733172999,33.00224658368082,-10.576034869052862,33.585857043572304,-9.902332850565294,34.145026931203745,-9.22043051031564,34.679606444686996,-8.530846214726829,35.18949435213379,-7.834082618688184,35.674638758536595,-7.130625420204217,36.13503787264959,-6.420942115043426,34.003877835889504,9.92172209130512,33.38451004908011,10.815171326782943,32.74178189635486,11.703092323998218,32.07595512513122,12.583869233212921,31.387353724286754,13.455804497411643,30.67636174577128,14.317127879876688,29.943421126219235,15.166005491763146,29.189029508561855,16.000548819674016,28.413738063639535,16.81882375323527,27.61814931181399,17.618859612670995,26.802914944580607,18.398658176378397,25.968733646180674,19.15620270850301,25.11634891521367,19.88946698651369,24.246546886249476,20.596424328777744,23.360154151440724,21.275056622136077,22.4544526287446,21.931134101385936,21.52690489823122,22.56852852977004,20.57870312492497,23.18253526925828,19.61112214108991,23.76866018901009,18.625513409629765,24.32263366139835,17.62329884374619,24.840424213823162,16.605964499120574,25.318251768909377,15.575054154884684,25.752600405681804,14.53216279964542,26.14023057431269,13.47893003882903,26.478190697034975,12.417033439610005,26.763828087816023,11.348181829690049,26.994799123385405,10.274108566192297,27.1690785982112,9.196564790936193,27.284968196018816,8.117312688358236,27.34110401044638,7.0381187623439265,27.336463047430847,5.960747148236231,27.27036864191897,4.886952976285821,27.142494721497116,3.8184758028083703,26.952868849534248,2.757033125314262,26.701873980431905,1.7043139978759605,26.39024885957555,0.661972762998337,26.0190870005812,-0.36837708374271116,25.58983417243155,-1.385168880028127,25.1042843290956,-2.3868886178246793,24.564573914226074,-3.372080582849792,23.97317447352851,-4.339352796206951,23.332883507396247,-5.287382241926357,22.64681349640545,-6.214919864145573,21.9183790322642,-7.120795317664799,21.151281986809757,-8.003921455611552,20.34949465164822,-8.863298537949449,19.517240781030488,-9.6980181445657,18.658974470558803,-10.507266776672184,17.779356804317935,-11.29032913025467,16.88323020302503,-12.046591025304943,15.975590405792365,-12.775541974570524,15.061556018097006,-13.476777375556752,14.146335558551543,-14.150000309515834,13.23519193706993,-14.79502293115762,12.333404297022641,-15.411767432816818,11.446227153975178,-16.00026656681137,10.578846763604025,-16.560663709726548,9.73633465138421,-17.09321245235978,8.923598236642544,-17.5982756990605,8.145328483570635,-18.076324260200153,7.40594451179183,-18.527934921506713,6.70953509907614,-18.95378797399863,6.059797008797263,-19.35466418825282,5.4599700747258435,-19.73144121674141,4.912768975753044,-20.124318273617547,4.260034572230147,-20.500474889742094,3.627082023329452,-20.860058894302206,3.014992679455201,-21.203232028310346,2.424736336395652,-21.530170068544294,1.8571651059049525,-21.841062951487025,1.313007286285032,-22.136114897266765,0.7928612329675051,-22.415544533596886,0.29718922909555623,-22.679585019715866,-0.17368864389416672,-22.92848417032728,-0.6196006356896575,-23.16250457953973,-1.0405294565216696,-23.38192374480684,-1.4366184065818106,-23.587034190867165,-1.8081775054406561,-23.77814359368419,-2.155689621465857,-23.955574904386303,-2.4798166012402496" fill="white" stroke="white" stroke-width="0" stroke-linejoin="round" filter="url(#fuzzy)"></polyline></g><g transform="translate(-41.317437139425856 -27.31178396601659)"><polyline id="leftCountour" points="27.623848335490774,-7.413772541633417,27.39677513086266,-7.676003803987564,27.149049629480967,-7.945543911119963,26.88007602277901,-8.221403455777278,26.589328592716118,-8.502621816097601,26.276349775438977,-8.788266894361506,25.940748224943153,-9.077434855743073,25.58219687673444,-9.369249867060944,25.20043101149037,-9.662863835529354,24.795246318721613,-9.957456147509184,24.366496960433427,-10.252233407258988,23.914093634787033,-10.54642917568605,23.438001639761143,-10.839303709097425,22.93823893681331,-11.13014369795096,22.414874214541417,-11.418262005606357,21.868024952345092,-11.702997407076213,21.37791743670909,-12.070901063724635,20.84712289162181,-12.433868351331775,20.275413746924475,-12.790511019663427,19.662818012191824,-13.139488685962634,19.0096031520148,-13.479511754579523,18.316260339631054,-13.809344087181099,17.583489085799,-14.127805429155613,16.812182239811037,-14.433773597826082,16.00341135954184,-14.726186438087577,15.158412447427263,-15.004043551082875,14.278572049269684,-15.266407801531052,13.365413712765502,-15.51240660932366,12.420584802650467,-15.74123303100304,11.445843669358663,-15.952146636737414,10.44304716809069,-16.144474188407298,9.414138525187013,-16.317610124417918,8.361135548701935,-16.471016856852135,7.2861191800741985,-16.604224886578535,6.19122238378964,-16.716832741929302,5.078619371931913,-16.808506746562404,3.9505151605167654,-16.878980622122732,2.8091354545057534,-16.928054931316833,1.6567168583950274,-16.95559636701571,0.4954974092749538,-16.961536893000442,-0.6722925707437106,-16.945872741965154,-1.8444393058413668,-16.908663276391845,-3.0187540846431435,-16.850029717911866,-4.193081468318732,-16.770153750768472,-5.365307191732764,-16.669276004995158,-6.533365760750049,-16.547694424924295,-7.695247748799907,-16.405762528640743,-8.84900679580385,-16.243887563995017,-9.992766312571003,-16.062528566790522,-11.124725893765365,-15.862194326759592,-12.243167442549353,-15.643441266942865,-13.346461010007811,-15.406871242086538,-14.43307035245677,-15.153129261672214,-15.501558209741262,-14.882901143193868,-16.550591307626448,-14.596911101296538,-17.578945087386344,-14.295919278391343,-18.585508165694407,-13.980719222361454,-19.56928652792027,-13.65213531697357,-20.52940745793687,-13.311020170609567,-21.465123207542355,-12.958251968932803,-22.375814408600853,-12.594731797103842,-23.26099323100657,-12.221380937160014,-24.12030628957539,-11.83913814617358,-24.95353730296828,-11.448956920802962,-25.760609507750743,-11.051802753851735,-26.541587830692688,-10.648650388449926,-27.29807066989343,-10.238260890170407,-28.031335657999723,-9.8190106686013,-28.741106338743947,-9.391300063308641,-29.427149008134325,-8.95552519755041,-30.08927229870356,-8.512077226321287,-30.7273267637576,-8.061341584397425,-31.341204461624375,-7.603697234381217,-31.930838539902552,-7.139515914746058,-32.496202819710184,-6.669161387881123,-33.03731137993356,-6.192988688136128,-33.5542181414758,-5.71134336986609,-34.047016451505726,-5.224560755476109,-34.515838667706475,-4.73296518346612,-34.96085574252429,-4.236869256475673,-34.15207709369432,6.606560738189238,-33.63189912675503,7.214697141543727,-33.08939041715526,7.819390446195937,-32.52453300185595,8.419560070252407,-31.937352800317147,9.014070144631901,-31.32791912752338,9.601735529648039,-30.69634420700933,10.181327831591965,-30.04278268388521,10.75158141931497,-29.367431137862457,11.31119944081115,-28.670527596279083,11.85885983980006,-27.952351047125347,12.393221372309362,-27.21322095206919,12.912929623257451,-26.453496759481805,13.416623023036124,-25.67357741746313,13.902938864093212,-24.873900886867418,14.370519317515264,-24.052665056500015,14.82324822056557,-23.2079350538147,15.26374166905585,-22.340064944365093,15.688845200598184,-21.44952135687643,16.095542280690626,-20.53688022573217,16.480963707565948,-19.602823341495174,16.84239679207268,-18.64813471309963,17.177294267664713,-17.673696745349655,17.483282885575324,-16.680486235360753,17.75817165025217,-15.669570191580211,17.99995965012925,-14.642101479022392,18.206843438811944,-13.599314294355187,18.377223921751572,-12.542519474473519,18.50971270348531,-11.473099642196102,18.60313785051797,-10.392504192721454,18.656549024921667,-9.302244124479282,18.669221943729504,-8.203886718013315,18.6406621191996,-7.099050066531633,18.570607835025516,-5.9893974617606025,18.459032313569406,-4.876631638738441,18.306145029193882,-3.7624888831845773,18.11239212276898,-2.6487330050807776,17.87845587243023,-1.5371491821001921,17.605253175664174,-0.4295376765203649,17.293932997797356,0.6722925707437106,16.945872741965154,1.7665304653504244,16.562673495636382,2.8513694003501655,16.146154108770173,3.9250140089756833,15.698344058680956,4.98568702576809,15.221475056688085,6.03163625240245,14.717971351625973,7.061141624576823,14.190438685291134,8.072522376328816,13.641651854902246,9.064144298143379,13.074540837649337,10.034427085215956,12.49217543240847,10.981851772234776,11.897748373697885,11.904968251046295,11.294556872951947,12.80240286756765,10.685982542189018,13.672866094310113,10.075469655149428,14.515160274877385,9.466501700979748,15.32818743680279,8.862576185539556,16.110957169089097,8.267177635406838,16.8625945608151,7.683748759658261,17.582348197172717,7.115659724500466,18.269598209298618,6.5661754958285545,18.923864374264326,6.038421204787989,19.54481426158861,5.535345491416077,20.13227142263621,5.059681781439185,20.686223619266723,4.613907451301915,21.206831088097676,4.200200836504418,21.694434836745604,3.820396038323981,22.2115950887293,3.3743954819801125,22.708621939146855,2.9407067793069768,23.185434648949727,2.52004615342838,23.641983569840963,2.113056432867152,24.078251286391808,1.7203030008132467,24.49425375815836,1.3422697443918707,24.890041461798386,0.9793550039315964,25.26570053318783,0.6318675222324819,25.621353909537635,0.3000223938341797,25.957162471510333,-0.01606298571593534,26.27332618533679,-0.3163729705946592,26.570085244932795,-0.6009977154348332,26.84772121401588,-0.8701372260572331,27.10655816822184,-1.124105410202449,27.346963837221562,-1.3633341282627691" fill="white" stroke="white" stroke-width="0" stroke-linejoin="round" filter="url(#fuzzy)"></polyline></g><g transform="translate(37.1053650272035 -29.567127848647118)"><polyline id="rightUpper" points="-24.85612309066942,-8.444239216229995,-24.774922427091596,-8.616690812501652,-24.682785476847634,-8.81530032318992,-24.578804324786866,-9.038346318885187,-24.46212535377468,-9.284145368155013,-24.331948150698224,-9.55105181358557,-24.187524412472015,-9.837457547823078,-24.028156852043566,-10.141791789615253,-23.853198104399084,-10.462520859852741,-23.66204963256905,-10.798147957610578,-23.45416063363391,-11.147212936189602,-23.229026944729668,-11.508292079157926,-22.98618994905356,-11.879997876392354,-22.72523548186969,-12.260978800119842,-22.44579273651469,-12.649919080958925,-22.147533170403293,-13.04553848396117,-21.830169411034063,-13.44659208465261,-21.493454161994975,-13.851870045075188,-21.13717910896908,-14.2601973898282,-20.76117382574013,-14.670433782109738,-20.365304680198257,-15.081473299758123,-19.94947374034556,-15.492244211293356,-19.5136176803018,-15.90170875195856,-19.05770668631,-16.308862899761415,-18.58174336274209,-16.712736151515607,-18.0857616381046,-17.112391298882258,-17.62242821103434,-17.62369002931399,-17.126477276484508,-18.129314907357568,-16.597473772511684,-18.62729078268633,-16.03516343129774,-19.115696973112005,-15.439465548042643,-19.592672827273553,-14.810465698872948,-20.056422867666818,-14.148408413491849,-20.505221523313672,-13.453689808297023,-20.93741746136932,-12.726850185692124,-21.351437526966286,-11.968566605318097,-21.745790300593768,-11.179645432930327,-22.11906928231101,-10.36101487264761,-22.469955712093203,-9.513717488299116,-22.797221035608686,-8.638902719595235,-23.09972902472594,-7.737819398848449,-23.376437562049055,-6.8118082739702945,-23.626400098780344,-5.862294543470314,-23.84876679520857,-4.890780409183256,-24.042785353121587,-3.8988376524503803,-24.207801549441925,-2.8881002394810285,-24.34325948038392,-1.8602569616204097,-24.448701525431083,-0.8170441162497664,-24.523768040432273,0.23976176595517096,-24.568196789115326,1.3083511416812676,-24.581822122316744,2.3868886178246793,-24.564573914226074,3.473520050801012,-24.516476264943627,4.566379576592988,-24.437645978650075,5.663596565809499,-24.328290826686676,6.763302498030071,-24.188707604844623,7.8636377497086345,-24.019279994162225,8.962758289910601,-23.820476234528513,10.058842278157185,-23.59284662039186,11.150096558650928,-23.337020827872323,12.234763045156367,-23.053705082576222,13.31112499080983,-22.7436791774117,14.377513137132302,-22.407793349703695,15.43231173651931,-22.046965026907273,16.473964442481766,-21.662175450217518,17.5009800619118,-21.25446618537498,18.511938163647436,-20.824935529965106,19.505494537610126,-20.374734826510267,20.48038649878913,-19.905064690653127,21.435438030346575,-19.417171163729883,22.369564760117296,-18.912341799032006,23.28177876477733,-18.391901691055104,24.171193195955016,-17.85720945703359,25.03702672255871,-17.309653180059712,25.878607783595022,-16.750646323085554,26.695378645751518,-16.18162362310668,27.48689926001794,-15.604036974826116,28.255066100741345,-15.016073139797752,29.001647278593076,-14.415345878557973,29.726132039399534,-13.802454417155362,30.428052063939617,-13.177992232914505,31.10698223482555,-12.542545809084778,31.76254140338387,-11.896693389489153,32.394393156536324,-11.241003733172999,33.00224658368082,-10.576034869052862,33.585857043572304,-9.902332850565294,34.145026931203745,-9.22043051031564,34.679606444686996,-8.530846214726829,35.18949435213379,-7.834082618688184,35.674638758536595,-7.130625420204217,36.13503787264959,-6.420942115043426,36.57074077386956,-5.7054807513871015,36.98184817911686,-4.98466868447812,37.36851320971626,-4.258911331269738,37.730942158277976,-3.528590925074413,38.069395255578506,-2.7940652702125788,38.384187437441604,-2.0556664966614453,38.67568911161921,-1.3136998147038201,38.944326924672296,-0.5684422695768907,39.19058452885191,0.1798585038789735,39.41500334898003,0.9309855265714182" fill="none" stroke="black" stroke-width="1.6666666666666665" stroke-linejoin="round" filter="url(#fuzzy)"></polyline><polyline id="rightLower" points="-25.059812064014586,-4.720750672321122,-24.997950209057144,-4.550315751711533,-24.926507174127877,-4.374306434498272,-24.84500043975185,-4.189933973950743,-24.752964001018626,-3.994649895734615,-24.649948243642235,-3.786139868493703,-24.53551982002132,-3.5623175744318756,-24.40926152529908,-3.3213185798949327,-24.270772173423367,-3.0614942059525094,-24.119666473206685,-2.7814053989799583,-23.955574904386303,-2.4798166012402496,-23.77814359368419,-2.155689621465857,-23.587034190867165,-1.8081775054406561,-23.38192374480684,-1.4366184065818106,-23.16250457953973,-1.0405294565216696,-22.92848417032728,-0.6196006356896575,-22.679585019715866,-0.17368864389416672,-22.415544533596886,0.29718922909555623,-22.136114897266765,0.7928612329675051,-21.841062951487025,1.313007286285032,-21.530170068544294,1.8571651059049525,-21.203232028310346,2.424736336395652,-20.860058894302206,3.014992679455201,-20.500474889742094,3.627082023329452,-20.124318273617547,4.260034572230147,-19.73144121674141,4.912768975753044,-19.35466418825282,5.4599700747258435,-18.95378797399863,6.059797008797263,-18.527934921506713,6.70953509907614,-18.076324260200153,7.40594451179183,-17.5982756990605,8.145328483570635,-17.09321245235978,8.923598236642544,-16.560663709726548,9.73633465138421,-16.00026656681137,10.578846763604025,-15.411767432816818,11.446227153975178,-14.79502293115762,12.333404297022641,-14.150000309515834,13.23519193706993,-13.476777375556752,14.146335558551543,-12.775541974570524,15.061556018097006,-12.046591025304943,15.975590405792365,-11.29032913025467,16.88323020302503,-10.507266776672184,17.779356804317935,-9.6980181445657,18.658974470558803,-8.863298537949449,19.517240781030488,-8.003921455611552,20.34949465164822,-7.120795317664799,21.151281986809757,-6.214919864145573,21.9183790322642,-5.287382241926357,22.64681349640545,-4.339352796206951,23.332883507396247,-3.372080582849792,23.97317447352851,-2.3868886178246793,24.564573914226074,-1.385168880028127,25.1042843290956,-0.36837708374271116,25.58983417243155,0.661972762998337,26.0190870005812,1.7043139978759605,26.39024885957555,2.757033125314262,26.701873980431905,3.8184758028083703,26.952868849534248,4.886952976285821,27.142494721497116,5.960747148236231,27.27036864191897,7.0381187623439265,27.336463047430847,8.117312688358236,27.34110401044638,9.196564790936193,27.284968196018816,10.274108566192297,27.1690785982112,11.348181829690049,26.994799123385405,12.417033439610005,26.763828087816023,13.47893003882903,26.478190697034975,14.53216279964542,26.14023057431269,15.575054154884684,25.752600405681804,16.605964499120574,25.318251768909377,17.62329884374619,24.840424213823162,18.625513409629765,24.32263366139835,19.61112214108991,23.76866018901009,20.57870312492497,23.18253526925828,21.52690489823122,22.56852852977004,22.4544526287446,21.931134101385936,23.360154151440724,21.275056622136077,24.246546886249476,20.596424328777744,25.11634891521367,19.88946698651369,25.968733646180674,19.15620270850301,26.802914944580607,18.398658176378397,27.61814931181399,17.618859612670995,28.413738063639535,16.81882375323527,29.189029508561855,16.000548819674016,29.943421126219235,15.166005491763146,30.67636174577128,14.317127879876688,31.387353724286754,13.455804497411643,32.07595512513122,12.583869233212921,32.74178189635486,11.703092323998218,33.38451004908011,10.815171326782943,34.003877835889504,9.92172209130512,34.59968792921332,9.024269732450287,35.17180959971734,8.124239602676418,35.72018089469061,7.222948264438809,36.244810816433116,6.321594462615005,36.74578150064359,5.421250096929699,37.223250394807195,4.522851194379614,37.67745243658326,3.627188881658453,38.10870223219302,2.73490035758178,38.517396234807364,1.8464598655119353,38.90401492293455,0.9621696657829268" fill="none" stroke="black" stroke-width="2.2222222222222223" stroke-linejoin="round" filter="url(#fuzzy)"></polyline><!--[--><circle r="4.2452451274467595" cx="-16.53044165651421" cy="-1.1702998685923311" stroke="black" fill="none" stroke-width="1" filter="url(#fuzzy)" clip-path="url(#rightEyeClipPath)"></circle><circle r="4.539477790353405" cx="-16.014074864038374" cy="1.877527418959442" stroke="black" fill="none" stroke-width="1" filter="url(#fuzzy)" clip-path="url(#rightEyeClipPath)"></circle><circle r="4.165173813879726" cx="-15.64448242102629" cy="0.8541079199271224" stroke="black" fill="none" stroke-width="1" filter="url(#fuzzy)" clip-path="url(#rightEyeClipPath)"></circle><circle r="3.3007339834648866" cx="-15.28462196897329" cy="1.4421401751623217" stroke="black" fill="none" stroke-width="1" filter="url(#fuzzy)" clip-path="url(#rightEyeClipPath)"></circle><circle r="4.916595732197107" cx="-14.559596797230952" cy="-0.6220454054848075" stroke="black" fill="none" stroke-width="1" filter="url(#fuzzy)" clip-path="url(#rightEyeClipPath)"></circle><circle r="4.182758104125315" cx="-14.322100174524262" cy="1.147532090162383" stroke="black" fill="none" stroke-width="1" filter="url(#fuzzy)" clip-path="url(#rightEyeClipPath)"></circle><circle r="3.556124064612312" cx="-16.724089549195188" cy="0.06629043684001124" stroke="black" fill="none" stroke-width="1" filter="url(#fuzzy)" clip-path="url(#rightEyeClipPath)"></circle><circle r="3.8642889191508845" cx="-17.60951179973289" cy="1.5607022355104627" stroke="black" fill="none" stroke-width="1" filter="url(#fuzzy)" clip-path="url(#rightEyeClipPath)"></circle><circle r="3.097302974183624" cx="-14.684089574453582" cy="-0.45638324800240593" stroke="black" fill="none" stroke-width="1" filter="url(#fuzzy)" clip-path="url(#rightEyeClipPath)"></circle><circle r="4.93170794442539" cx="-15.252055427984816" cy="1.329725232934015" stroke="black" fill="none" stroke-width="1" filter="url(#fuzzy)" clip-path="url(#rightEyeClipPath)"></circle><!--]--></g><g transform="translate(-41.317437139425856 -27.31178396601659)"><polyline id="leftUpper" points="28.943773220872746,-5.432220551917392,28.873649114824683,-5.560426388435532,28.79311177110282,-5.707475813564816,28.70075797725961,-5.872077197444893,28.595273974759134,-6.052970308096423,28.475433522638586,-6.248926050172123,28.34009596116962,-6.458746203707808,28.188204275519833,-6.681263162873431,28.018783159414216,-6.915339674724124,27.830937078796513,-7.159868577951245,27.623848335490774,-7.413772541633417,27.39677513086266,-7.676003803987564,27.149049629480967,-7.945543911119963,26.88007602277901,-8.221403455777278,26.589328592716118,-8.502621816097601,26.276349775438977,-8.788266894361506,25.940748224943153,-9.077434855743073,25.58219687673444,-9.369249867060944,25.20043101149037,-9.662863835529354,24.795246318721613,-9.957456147509184,24.366496960433427,-10.252233407258988,23.914093634787033,-10.54642917568605,23.438001639761143,-10.839303709097425,22.93823893681331,-11.13014369795096,22.414874214541417,-11.418262005606357,21.868024952345092,-11.702997407076213,21.37791743670909,-12.070901063724635,20.84712289162181,-12.433868351331775,20.275413746924475,-12.790511019663427,19.662818012191824,-13.139488685962634,19.0096031520148,-13.479511754579523,18.316260339631054,-13.809344087181099,17.583489085799,-14.127805429155613,16.812182239811037,-14.433773597826082,16.00341135954184,-14.726186438087577,15.158412447427263,-15.004043551082875,14.278572049269684,-15.266407801531052,13.365413712765502,-15.51240660932366,12.420584802650467,-15.74123303100304,11.445843669358663,-15.952146636737414,10.44304716809069,-16.144474188407298,9.414138525187013,-16.317610124417918,8.361135548701935,-16.471016856852135,7.2861191800741985,-16.604224886578535,6.19122238378964,-16.716832741929302,5.078619371931913,-16.808506746562404,3.9505151605167654,-16.878980622122732,2.8091354545057534,-16.928054931316833,1.6567168583950274,-16.95559636701571,0.4954974092749538,-16.961536893000442,-0.6722925707437106,-16.945872741965154,-1.8444393058413668,-16.908663276391845,-3.0187540846431435,-16.850029717911866,-4.193081468318732,-16.770153750768472,-5.365307191732764,-16.669276004995158,-6.533365760750049,-16.547694424924295,-7.695247748799907,-16.405762528640743,-8.84900679580385,-16.243887563995017,-9.992766312571003,-16.062528566790522,-11.124725893765365,-15.862194326759592,-12.243167442549353,-15.643441266942865,-13.346461010007811,-15.406871242086538,-14.43307035245677,-15.153129261672214,-15.501558209741262,-14.882901143193868,-16.550591307626448,-14.596911101296538,-17.578945087386344,-14.295919278391343,-18.585508165694407,-13.980719222361454,-19.56928652792027,-13.65213531697357,-20.52940745793687,-13.311020170609567,-21.465123207542355,-12.958251968932803,-22.375814408600853,-12.594731797103842,-23.26099323100657,-12.221380937160014,-24.12030628957539,-11.83913814617358,-24.95353730296828,-11.448956920802962,-25.760609507750743,-11.051802753851735,-26.541587830692688,-10.648650388449926,-27.29807066989343,-10.238260890170407,-28.031335657999723,-9.8190106686013,-28.741106338743947,-9.391300063308641,-29.427149008134325,-8.95552519755041,-30.08927229870356,-8.512077226321287,-30.7273267637576,-8.061341584397425,-31.341204461624375,-7.603697234381217,-31.930838539902552,-7.139515914746058,-32.496202819710184,-6.669161387881123,-33.03731137993356,-6.192988688136128,-33.5542181414758,-5.71134336986609,-34.047016451505726,-5.224560755476109,-34.515838667706475,-4.73296518346612,-34.96085574252429,-4.236869256475673,-35.382276807417256,-3.7365730893286937,-35.780348757104,-3.23236355707825,-36.155355833812436,-2.7245135430513177,-36.50761921152851,-2.2132811868935596,-36.8374965802449,-1.698909132614078,-37.14538173020978,-1.1816237766301807,-37.43170413617552,-0.6616345158121679,-37.69692854164744,-0.13913299552807556,-37.94155454313253,0.3857076423115342,-38.166116174388215,0.9127335112088302" fill="none" stroke="black" stroke-width="2.2222222222222223" stroke-linejoin="round" filter="url(#fuzzy)"></polyline><polyline id="leftLower" points="28.8516995211022,-3.1324056716943995,28.764961071135428,-2.987973436237143,28.66612087026714,-2.840498895475557,28.554311832058776,-2.6881478722468026,28.428721945273633,-2.529244649358568,28.288593131760134,-2.362267918857188,28.133220104335212,-2.18584673129576,27.96194922466754,-1.9987564450022612,27.774177361160927,-1.799914675347667,27.569350746837603,-1.588377244014063,27.346963837221562,-1.3633341282627691,27.10655816822184,-1.124105410202449,26.84772121401588,-0.8701372260572331,26.570085244932795,-0.6009977154348332,26.27332618533679,-0.3163729705946592,25.957162471510333,-0.01606298571593534,25.621353909537635,0.3000223938341797,25.26570053318783,0.6318675222324819,24.890041461798386,0.9793550039315964,24.49425375815836,1.3422697443918707,24.078251286391808,1.7203030008132467,23.641983569840963,2.113056432867152,23.185434648949727,2.52004615342838,22.708621939146855,2.9407067793069768,22.2115950887293,3.3743954819801125,21.694434836745604,3.820396038323981,21.206831088097676,4.200200836504418,20.686223619266723,4.613907451301915,20.13227142263621,5.059681781439185,19.54481426158861,5.535345491416077,18.923864374264326,6.038421204787989,18.269598209298618,6.5661754958285545,17.582348197172717,7.115659724500466,16.8625945608151,7.683748759658261,16.110957169089097,8.267177635406838,15.32818743680279,8.862576185539556,14.515160274877385,9.466501700979748,13.672866094310113,10.075469655149428,12.80240286756765,10.685982542189018,11.904968251046295,11.294556872951947,10.981851772234776,11.897748373697885,10.034427085215956,12.49217543240847,9.064144298143379,13.074540837649337,8.072522376328816,13.641651854902246,7.061141624576823,14.190438685291134,6.03163625240245,14.717971351625973,4.98568702576809,15.221475056688085,3.9250140089756833,15.698344058680956,2.8513694003501655,16.146154108770173,1.7665304653504244,16.562673495636382,0.6722925707437106,16.945872741965154,-0.4295376765203649,17.293932997797356,-1.5371491821001921,17.605253175664174,-2.6487330050807776,17.87845587243023,-3.7624888831845773,18.11239212276898,-4.876631638738441,18.306145029193882,-5.9893974617606025,18.459032313569406,-7.099050066531633,18.570607835025516,-8.203886718013315,18.6406621191996,-9.302244124479282,18.669221943729504,-10.392504192721454,18.656549024921667,-11.473099642196102,18.60313785051797,-12.542519474473519,18.50971270348531,-13.599314294355187,18.377223921751572,-14.642101479022392,18.206843438811944,-15.669570191580211,17.99995965012925,-16.680486235360753,17.75817165025217,-17.673696745349655,17.483282885575324,-18.64813471309963,17.177294267664713,-19.602823341495174,16.84239679207268,-20.53688022573217,16.480963707565948,-21.44952135687643,16.095542280690626,-22.340064944365093,15.688845200598184,-23.2079350538147,15.26374166905585,-24.052665056500015,14.82324822056557,-24.873900886867418,14.370519317515264,-25.67357741746313,13.902938864093212,-26.453496759481805,13.416623023036124,-27.21322095206919,12.912929623257451,-27.952351047125347,12.393221372309362,-28.670527596279083,11.85885983980006,-29.367431137862457,11.31119944081115,-30.04278268388521,10.75158141931497,-30.69634420700933,10.181327831591965,-31.32791912752338,9.601735529648039,-31.937352800317147,9.014070144631901,-32.52453300185595,8.419560070252407,-33.08939041715526,7.819390446195937,-33.63189912675503,7.214697141543727,-34.15207709369432,6.606560738189238,-34.64998665048564,5.996000514255485,-35.12573498608951,5.383968427512418,-35.57947463288889,4.771343098794246,-36.01140395366368,4.1589237954168246,-36.42176762856518,3.547424414594974,-36.810857142090555,2.9374674668598404,-37.179011270057345,2.3295780594762636,-37.526616566577886,1.72417787986012,-37.85410785103383,1.1215791789956793,-38.16196869505062,0.5219787548529395" fill="none" stroke="black" stroke-width="2.2222222222222223" stroke-linejoin="round" filter="url(#fuzzy)"></polyline><!--[--><circle r="4.342046460587168" cx="-10.316814185981507" cy="0.6725880297908358" stroke="black" fill="none" stroke-width="1" filter="url(#fuzzy)" clip-path="url(#leftEyeClipPath)"></circle><circle r="3.5163143423283882" cx="-8.134325052904257" cy="3.027636119282146" stroke="black" fill="none" stroke-width="1" filter="url(#fuzzy)" clip-path="url(#leftEyeClipPath)"></circle><circle r="3.3880387798954255" cx="-7.544278925230087" cy="3.7514029371588116" stroke="black" fill="none" stroke-width="1" filter="url(#fuzzy)" clip-path="url(#leftEyeClipPath)"></circle><circle r="4.204049172170308" cx="-10.194594784261824" cy="-0.3388932637568649" stroke="black" fill="none" stroke-width="1" filter="url(#fuzzy)" clip-path="url(#leftEyeClipPath)"></circle><circle r="4.590653832243182" cx="-8.953729596930135" cy="0.013988899191189397" stroke="black" fill="none" stroke-width="1" filter="url(#fuzzy)" clip-path="url(#leftEyeClipPath)"></circle><circle r="4.425667204145406" cx="-7.52940396461346" cy="-0.3424200049313688" stroke="black" fill="none" stroke-width="1" filter="url(#fuzzy)" clip-path="url(#leftEyeClipPath)"></circle><circle r="3.5371619829606806" cx="-10.33289003727102" cy="2.032666999507259" stroke="black" fill="none" stroke-width="1" filter="url(#fuzzy)" clip-path="url(#leftEyeClipPath)"></circle><circle r="4.067516334453276" cx="-7.787056857115447" cy="1.7820178632691421" stroke="black" fill="none" stroke-width="1" filter="url(#fuzzy)" clip-path="url(#leftEyeClipPath)"></circle><circle r="4.026156589485915" cx="-10.725647511849548" cy="0.8296822752878601" stroke="black" fill="none" stroke-width="1" filter="url(#fuzzy)" clip-path="url(#leftEyeClipPath)"></circle><circle r="3.0162572024433287" cx="-6.9635447216146735" cy="2.1031107450260134" stroke="black" fill="none" stroke-width="1" filter="url(#fuzzy)" clip-path="url(#leftEyeClipPath)"></circle><!--]--></g><g id="hairs"><!--[--><polyline points="64,-58,64.51428401927093,-57.44376117030233,64.56008128444805,-57.149261797924105,64.39301088554592,-56.824883731782116,63.93640041915933,-56.65083550452255,63.03060943372956,-56.85752199722493,61.5889045620973,-57.526632299785184,59.603786542121085,-58.63596172482671,57.082740783691406,-60.167022705078125,54.00390756220324,-62.15245172271821,50.321332242290666,-64.65208992496767,45.982032630970586,-67.71229725803066,40.90598018578021,-71.36245421157219,34.945911009590496,-75.65603967309251,27.94250456519343,-80.6998504183825,20.017231512798013,-86.56373097673696" fill="none" stroke="url(#rainbowGradient)" stroke-width="2" stroke-linejoin="round" filter="url(#fuzzy)"></polyline><polyline points="0,-95,1.6232479841135654,-94.36678684816778,2.4993628561681294,-94.09305055707054,3.1445488779541457,-93.93379397729991,3.5329064907484793,-93.76582875680737,3.7017662805282168,-93.52697351824027,3.665326779614095,-93.19504803745265,3.372501994344627,-92.76950363483193,2.75162740451554,-92.25199786566775,1.7509607137048517,-91.63719958742654,0.33572815474784257,-90.91804387887255,-1.5362331453846956,-90.09672393204482,-3.9224963946874727,-89.1889217635075,-6.874041250382676,-88.21700032274751,-10.404152485990707,-87.19932628974088,-14.484527867800827,-86.1451979354958,-19.086843605714005,-85.0533181621858,-24.24758844182596,-83.89787115791313,-30.10231573590262,-82.59626512307497,-36.83320893196832,-81.01295295906726,-44.445255119140114,-79.17153336813732" fill="none" stroke="url(#rainbowGradient)" stroke-width="2" stroke-linejoin="round" filter="url(#fuzzy)"></polyline><polyline points="-48,-81,-47.6381339352127,-81.10256347846283,-46.37343094733795,-81.50199080246571,-44.31900788099872,-82.03031656838006,-41.68840893444378,-82.55563148992702,-38.66206255294056,-83.03395166795272,-35.35683324495527,-83.45459356054509,-31.822486118952135,-83.8111708886043,-28.06919588025412,-84.09208185456187,-24.107533489972987,-84.28040798705071,-19.971079235149165,-84.36052547521528,-15.709234325598521,-84.32678928588102,-11.362284633355827,-84.18774176745168,-6.94161430421174,-83.96348147288455,-2.4310240280761377,-83.68021551819685,2.1911060343747124,-83.36724802594189,6.9239141639897674,-83.05562434525052,11.731583997508043,-82.77130099518826,16.559032273639154,-82.51995509473383,21.363050800541437,-82.27752769879262,26.118627514642277,-82.01243957835791,30.77813776165406,-81.73817034389435,35.2851775988361,-81.49950266984196" fill="none" stroke="url(#rainbowGradient)" stroke-width="2" stroke-linejoin="round" filter="url(#fuzzy)"></polyline><polyline points="40,-81,41.905373722040174,-79.7016973367164,42.89311303392933,-78.96402232569025,43.6654374986148,-78.32032080833615,44.31756047649342,-77.6833548158652,44.740883236063304,-77.11850784157684,44.8518308190531,-76.69391129342502,44.64214428994286,-76.42585498018708,44.13111177244436,-76.29699785586124,43.31682019798879,-76.29084662003345,42.16716131766244,-76.40651319430462,40.63796581692012,-76.6528044663427,38.69189422434859,-77.03831230330042,36.305618773349444,-77.56980286805172,33.46810583447413,-78.25761626012832,30.175817606344914,-79.11856551092009,26.425028596918988,-80.17030583597759,22.1988504925556,-81.42214790631746,17.45518518855009,-82.8749596025596,12.137536921260693,-84.53695250255461,6.231665811721136,-86.44195211208869,-0.15763204793720575,-88.63976984593634,-6.851729702943407,-91.15448813491787" fill="none" stroke="url(#rainbowGradient)" stroke-width="2" stroke-linejoin="round" filter="url(#fuzzy)"></polyline><polyline points="65,-57,65.08602982786927,-56.770300158533885,65.44600393921964,-55.938972157111834,65.8183079634891,-55.00292095837538,65.95726640062519,-54.31131656570965,65.79181518902747,-53.89839045033195,65.34461761609744,-53.69721267442189,64.64581098952198,-53.67469137047365,63.69962983366092,-53.84776817659745,62.48733115046845,-54.25008751382546,60.97766667557191,-54.90590618616703,59.13204685583358,-55.82829895373675,56.90826671076181,-57.03004818060003,54.26945620421633,-58.52968665173124,51.19517849102416,-60.347258796701844,47.68271060706828,-62.49911915027743,43.73148712567661,-65.00322014339442,39.32234745959839,-67.89253884134538,34.41926359999157,-71.21723722955166,29.01155824086147,-75.01632685489524,23.164306330514385,-79.26905421205687,16.957591822433407,-83.88203593047608,10.102947941749317,-88.77711883635597" fill="none" stroke="url(#rainbowGradient)" stroke-width="2" stroke-linejoin="round" filter="url(#fuzzy)"></polyline><polyline points="73,-41,73.24082425299792,-39.96350665974698,72.39487939226824,-39.03384756832633,70.41325859048001,-38.59116917320584,67.16303189519388,-38.85664513612899,62.622058065700344,-39.84158849172278,56.834405155661415,-41.40721647908946,49.844892384374106,-43.40040106964601,41.66906027117702,-45.76044921098587,32.28457918014423,-48.533647341073205,21.623082255208246,-51.806126208776746,9.567059888438479,-55.61983447524553,-4.015458538953126,-59.953989925581624,-19.169123893729374,-64.810095078951,-35.768646609446165,-70.26723947513024" fill="none" stroke="url(#rainbowGradient)" stroke-width="2" stroke-linejoin="round" filter="url(#fuzzy)"></polyline><polyline points="71,-46,72.24279744113744,-43.833312117552545,72.78309649590837,-42.47420718198078,73.1254607365138,-41.42345854859427,73.42760661019142,-40.48490924699137,73.67162704325919,-39.679781735077654,73.77776110221352,-39.140770536890315,73.67913306703481,-38.99624545369669,73.3507288008609,-39.295071978116255,72.79717305912196,-40.00202079102165,72.02450880990075,-41.049757809908215,71.02208464153385,-42.40351704831473,69.76298972206425,-44.09741502278279,68.21419201882145,-46.2271830527523,66.34550125097272,-48.91012418488046,64.13716308715398,-52.235060447312904,61.591240870909864,-56.22469543841459,58.73418575883505,-60.835018026123635,55.568783478309285,-66.0391068916068" fill="none" stroke="url(#rainbowGradient)" stroke-width="2" stroke-linejoin="round" filter="url(#fuzzy)"></polyline><polyline points="10,-93,10.70487134225911,-92.84150970575992,12.240141584404853,-92.29044787529524,14.383506999824558,-91.31677417134918,17.00044893443916,-90.0192007356614,19.882581817266573,-88.52318880751012,22.873469291398294,-86.90193515294445,25.918670832218027,-85.1740562775575,29.0199419318388,-83.34023308072346,32.182716369628906,-81.40864944458008,35.40500428933483,-79.3935953101184,38.686544876004184,-77.30723081401484,42.019470947495506,-75.16743037562992,45.36081239531862,-73.01604258624087,48.627910956798516,-70.91626972161627,51.74337983798217,-68.91311519943338,54.690679053425974,-67.00187321749978,57.49156671425621,-65.21880844209859" fill="none" stroke="url(#rainbowGradient)" stroke-width="2" stroke-linejoin="round" filter="url(#fuzzy)"></polyline><polyline points="-17,-94,-16.218709641742766,-94.00000605735814,-14.981888718894888,-94.00051834846353,-13.94332964010067,-94.00548568340898,-13.126685449947153,-94.0234336340551,-12.48513790399971,-94.0575124874204,-12.089586559857459,-94.09091245355826,-12.079681032853554,-94.0842486065408,-12.55733368610732,-93.98961275841688,-13.547245831140149,-93.76890519086695,-15.04629541934216,-93.40200862221307,-17.102685652281906,-92.8836883599619,-19.84126461055468,-92.22121245081601,-23.367776691668933,-91.44668815705782,-27.54544445411709,-90.65076582319145" fill="none" stroke="url(#rainbowGradient)" stroke-width="2" stroke-linejoin="round" filter="url(#fuzzy)"></polyline><polyline points="73,-43,73.02141270442634,-42.088778852902884,73.15920006446075,-41.184622460650594,73.3550580664545,-40.239728812806284,73.48732576582535,-39.36353745183409,73.43767401075846,-38.7307835410774,73.13461410041405,-38.46268280470544,72.56190434592189,-38.573789964683414,71.7354319729221,-38.998917557883196,70.67440735855735,-39.65888792032827,69.383988417521,-40.51444615925083,67.85086574076142,-41.582462259033534,66.04636934399605,-42.918709218502045,63.9328468064916,-44.58782675465056,61.47218177271924,-46.640501194659095,58.63609636884677,-49.10712879931922,55.415664157092266,-52.004968828911515,51.82416522920214,-55.34828396082928,47.88681230345837,-59.1510020470201,43.61807293793887,-63.41874782067953,39.004830006247175,-68.13815606475708,34.0300221647431,-73.27844335489345,28.748828482712767,-78.81207989799951,23.33358921786757,-84.7301447846659" fill="none" stroke="url(#rainbowGradient)" stroke-width="2" stroke-linejoin="round" filter="url(#fuzzy)"></polyline><polyline points="-25,-92,-22.037672654489906,-92.66690421392595,-19.977665301581254,-93.07898463695697,-18.164733851958264,-93.34546906342801,-16.275804986941473,-93.4716462234795,-14.1872563285836,-93.48252930877428,-11.899618716345188,-93.41805228668062,-9.476477810386024,-93.31688846766816,-6.993114595850314,-93.2109603535696,-4.506187438964844,-93.12414741516113,-2.0570406851641483,-93.07038980548002,0.29877872584720855,-93.0535758694962,2.4689567179809098,-93.07196577480619,4.345888948599347,-93.12343282211367,5.874962807956342,-93.202141816824,7.112184696503725,-93.28204949060671,8.178943904232963,-93.30339540697713,9.11444973642105,-93.2030842319336" fill="none" stroke="url(#rainbowGradient)" stroke-width="2" stroke-linejoin="round" filter="url(#fuzzy)"></polyline><polyline points="56,-67,56.645804241499256,-66.59561566154747,56.696354929285285,-66.06175649918916,56.21495861582971,-65.70273223419265,55.16268302429676,-65.54651815317551,53.460032826228336,-65.60833431964606,51.053903326448754,-65.90296821129,47.90838627153008,-66.44382187565459,43.97550610890983,-67.25799419927469,39.193163285139335,-68.38582286025823,33.5091350987811,-69.85558566302788,26.90061763181754,-71.6586425683212,19.364861168957272,-73.75837340810118,10.885668054454094,-76.13978116584272,1.413965825042272,-78.85970132927555,-9.071221222623379,-82.0307432893199,-20.37020711247837,-85.7322307028112" fill="none" stroke="url(#rainbowGradient)" stroke-width="2" stroke-linejoin="round" filter="url(#fuzzy)"></polyline><polyline points="62,-61,62.88051488537554,-59.49686499793902,63.52725281363212,-58.590417383568855,63.88078357551475,-58.056807045263824,63.99817934143391,-57.691122075526735,63.92742177823579,-57.4121850467769,63.6407445918515,-57.27832849033315,63.06407150379061,-57.39395270645517,62.13532100696337,-57.82468884998288,60.83366335691053,-58.58478327796827,59.17063416901195,-59.673850445160426,57.164084992018104,-61.11049391773484,54.81450215536091,-62.93506467114614,52.08960559313882,-65.19078792921188,48.917604756859085,-67.90901631459303,45.192904007507316,-71.11463696573016,40.79569260738958,-74.84562724670562,35.60632646658417,-79.16854085754349,29.461037266453413,-84.18391707293846" fill="none" stroke="url(#rainbowGradient)" stroke-width="2" stroke-linejoin="round" filter="url(#fuzzy)"></polyline><polyline points="64,-58,64.43916315994373,-57.41255925939865,64.26227736326689,-57.00662017751079,63.73227774455282,-56.48032331227443,62.78319817780798,-56.00010374790038,61.281379669532726,-55.754701371461124,59.156140485341744,-55.792842522059395,56.401115293578854,-56.08158314399764,53.03265172812133,-56.594792692550406,49.06110074431257,-57.34400215206609,44.483421325683594,-58.359564781188965,39.282592563315276,-59.66271865448077,33.42280709924802,-61.25605471745701,26.84379782801514,-63.1324935946205,19.46767539151729,-65.28568520834857,11.228326315661434,-67.70918999695095,2.113860106755599,-70.3919866960813,-7.8171528674378585,-73.33056280424958,-18.50476313961094,-76.55549380365237,-30.073414907031147,-80.11616510602401" fill="none" stroke="url(#rainbowGradient)" stroke-width="2" stroke-linejoin="round" filter="url(#fuzzy)"></polyline><polyline points="7,-94,9.174101356464725,-93.27777739560746,10.95551612473287,-92.71835269304079,12.924685723357115,-92.05646283809128,15.254246500553563,-91.1892201564624,17.897053783290957,-90.14815076478999,20.68352246425116,-89.02352645769268,23.454003767983046,-87.88639996348105,26.137008666992188,-86.7590560913086,28.72247524680907,-85.64114932839327,31.18429890004541,-84.553603008181,33.4522687314782,-83.54860180190204,35.473068966763094,-82.6679301232216,37.276504297649765,-81.89773297776696,38.896811184602264,-81.21005641585677,40.097794770939096,-80.73307893916112" fill="none" stroke="url(#rainbowGradient)" stroke-width="2" stroke-linejoin="round" filter="url(#fuzzy)"></polyline><polyline points="-34,-89,-33.67593736274222,-88.9875438954048,-32.628468029831524,-88.99089989948503,-31.013319774708172,-88.92371072597012,-28.910671852852676,-88.73895088229257,-26.344237986099422,-88.44013664234635,-23.356470189387952,-88.03643621970672,-20.006619985799144,-87.52725901761903,-16.348929490494832,-86.90816554307858,-12.428341647549267,-86.17958094599203,-8.290198787616866,-85.34838967156698,-3.9859747930202847,-84.42193134791663,0.43431925773620605,-83.400495916605,4.936578619131405,-82.2760799469135,9.509713703818528,-81.04063715303161,14.157695609060948,-79.69874410670356,18.882589568817174,-78.2740895779275,23.672657763022645,-76.80266376081836,28.50425600492784,-75.31707379615759,33.35191558058825,-73.83586887279338,38.19154419742254,-72.3666075134307,42.992090389753145,-70.91167394436279,47.72251354623909,-69.46080054429315,52.401559701940094,-68.02828439543852" fill="none" stroke="url(#rainbowGradient)" stroke-width="2" stroke-linejoin="round" filter="url(#fuzzy)"></polyline><polyline points="-43,-84,-41.5216000341828,-84.86736860165169,-40.54308209425559,-85.57808976167746,-39.68917077924251,-86.18304499791306,-38.88284479732948,-86.64255838962833,-38.28440191762808,-86.86256114606273,-38.09599526741607,-86.77371959886482,-38.427083117443054,-86.35635652088598,-39.27819877742043,-85.62054957622563,-40.60101696421887,-84.5748410295976,-42.36042589631856,-83.21126889084073,-44.557942963543695,-81.51547653262867,-47.22625620315341,-79.49329243829698,-50.430895904099366,-77.18511461448252,-54.37365147765561,-74.5641428103138" fill="none" stroke="url(#rainbowGradient)" stroke-width="2" stroke-linejoin="round" filter="url(#fuzzy)"></polyline><polyline points="-36,-88,-34.50150998804498,-88.6110697301861,-33.13946173220068,-88.88748481662721,-31.434148242794677,-89.08781140538365,-29.284778954245915,-89.27204455096181,-26.69213389120358,-89.44628049734929,-23.67723554496884,-89.61515347475603,-20.285930741245693,-89.78067817106746,-16.591329273629775,-89.93739685685453,-12.681644439697266,-90.07852935791016,-8.648370708539822,-90.20482085147987,-4.583908461663961,-90.32526381344513,-0.5834857329912673,-90.44737301438903,3.266793405083824,-90.5634890662233,6.932145081608519,-90.64339090518465,10.475909532942323,-90.64670728846869,13.994856295838302,-90.57833754134793,17.253973529487375,-90.59645764368138" fill="none" stroke="url(#rainbowGradient)" stroke-width="2" stroke-linejoin="round" filter="url(#fuzzy)"></polyline><polyline points="-3,-95,-0.6976940505858837,-94.77255818315771,1.427092723948979,-94.07497377964053,3.812401822559858,-93.06351837484176,6.558639902854338,-91.85695394466165,9.654768564171304,-90.48136399713927,13.069483241784456,-88.92463026614422,16.79647855076238,-87.18080315151273,20.8289794921875,-85.2646484375,25.117685129213417,-83.20761717447587,29.57036653574015,-81.04656405835517,34.093242368970344,-78.81127607006667,38.63239412731491,-76.51675912865903,43.1761168095447,-74.17210847268458,47.697064183264736,-71.81428784426595,52.045113582167204,-69.50701307857219" fill="none" stroke="url(#rainbowGradient)" stroke-width="2" stroke-linejoin="round" filter="url(#fuzzy)"></polyline><polyline points="-48,-81,-47.64415815146294,-81.18571845741542,-46.425634648815105,-81.84127726942987,-44.48114882626849,-82.79651596567845,-42.05762545271002,-83.889116292777,-39.370371113748725,-85.04570236604091,-36.579890670416695,-86.22590823574406,-33.78584956722601,-87.39191318539588,-31.037638620446693,-88.5082094374811,-28.364446695928624,-89.54727026853149,-25.807838789858117,-90.49141645422888,-23.439430113082746,-91.33387422203967,-21.362286714368818,-92.08201926998098,-19.68843626553808,-92.76046410307474,-18.41672798030426,-93.40310248033138" fill="none" stroke="url(#rainbowGradient)" stroke-width="2" stroke-linejoin="round" filter="url(#fuzzy)"></polyline><polyline points="-34,-89,-32.37165190205037,-89.5514505857851,-30.508536279770464,-89.66779784503895,-27.896531457732628,-89.62390505447841,-24.547295316820964,-89.49006920889951,-20.60866778226644,-89.25714344045875,-16.19111211397067,-88.90454636283772,-11.351898360146688,-88.42786299777745,-6.1407318115234375,-87.84597778320312,-0.6465730418308784,-87.19257471336475,5.0023947412065475,-86.4944366929464,10.697923885126379,-85.74950837905357,16.41537757241167,-84.9282975725364,22.195858198860133,-84.01450356700312,28.03695951931384,-83.058788363319,33.86636844425,-82.14051618170254" fill="none" stroke="url(#rainbowGradient)" stroke-width="2" stroke-linejoin="round" filter="url(#fuzzy)"></polyline><polyline points="49,-75,50.6913926925771,-73.11043163588631,50.981906106568104,-72.20089808071613,50.48137185398703,-71.62612952884434,49.37306357318111,-71.17048792163801,47.6908397477471,-70.7831928622018,45.39213048521383,-70.49216264088714,42.397841202328905,-70.34788982204262,38.63319496982951,-70.38325112080904,34.04846382141113,-70.60175704956055,28.609792814271863,-70.98941975804767,22.2781991725274,-71.53167738471328,15.003009078507123,-72.22131511222165,6.738689409934629,-73.05856399486234,-2.5292364734633175,-74.05405724057314,-12.767370661498699,-75.24063970418318,-23.882529320523727,-76.69379655816346,-35.69706159143262,-78.56150498546057" fill="none" stroke="url(#rainbowGradient)" stroke-width="2" stroke-linejoin="round" filter="url(#fuzzy)"></polyline><polyline points="23,-90,22.905676141122854,-89.55563043552738,23.25782332035298,-89.34619468482484,23.97685081946815,-89.02086404676278,24.673792324536493,-88.61371100873403,25.072479586925056,-88.1977222001608,25.02516641918417,-87.8228361657421,24.47342326945966,-87.51821974759861,23.42431417311376,-87.29457271037215,21.92323638002707,-87.1452226155386,20.01183319091797,-87.0530514717102,17.687287907769893,-87.00261405055313,14.888552432427389,-86.99135802235963,11.518862995972365,-87.03373813812959,7.488014333992867,-87.15494102033674,2.744059403688425,-87.37555170939117,-2.727584832004341,-87.6957810958556,-8.93855415368222,-88.09578655195492,-15.944072420518559,-88.56372578289883,-23.807058769980436,-89.13707484721253" fill="none" stroke="url(#rainbowGradient)" stroke-width="2" stroke-linejoin="round" filter="url(#fuzzy)"></polyline><polyline points="68,-52,68.01003901128195,-52.11369558627752,68.12501525426076,-51.45765093971132,68.23956284200166,-50.71325596789139,68.20931958148135,-50.16565661672551,67.95377937676236,-49.92236672581538,67.43117833417622,-49.998396296336836,66.60398095300087,-50.38281522986983,65.43342479215642,-51.080936247737554,63.89381568022011,-52.1201444509568,61.98062572407257,-53.534983053757074,59.695666960000324,-55.358813979131455,57.01645370448864,-57.63368705469103,53.875444680125824,-60.42480019544014,50.17116740265481,-63.815035177406344,45.80756241667854,-67.86881035403802,40.733382576448705,-72.58331525494286,34.97196582844539,-77.86160825412782,28.742354797997493,-83.499396641584" fill="none" stroke="url(#rainbowGradient)" stroke-width="2" stroke-linejoin="round" filter="url(#fuzzy)"></polyline><polyline points="65,-57,66.26300938523346,-54.39575131958551,66.41519943738504,-53.35779537830097,65.76045767968445,-52.91846233162218,64.50771933085403,-52.657844813922914,62.727725461429145,-52.51396496325128,60.41359211553896,-52.55350910826616,57.53848137944788,-52.840915880451334,54.07386008679594,-53.39867793107301,49.98259177988613,-54.220460479816964,45.21322154998779,-55.296123027801514,39.709518636035355,-56.62284555303464,33.429990237129154,-58.20106834450438,26.359062349609218,-60.03062231528039,18.493998434708487,-62.119153366456345,9.811101442308427,-64.49704723521677,0.2412569323589402,-67.21923554058799,-10.305149954682104,-70.33804106562567,-21.862051680110383,-73.84357374269032,-34.38248050233972,-77.56404172590264" fill="none" stroke="url(#rainbowGradient)" stroke-width="2" stroke-linejoin="round" filter="url(#fuzzy)"></polyline><polyline points="-13,-94,-12.528054300719552,-94.0156550586453,-11.348583812953738,-94.12138802944978,-9.989976175292403,-94.32175291757608,-8.778703461297317,-94.53783785426685,-7.778589799913693,-94.69929236715461,-6.932653349334524,-94.78029251399084,-6.2054175119237485,-94.78565315273909,-5.6462908456599505,-94.72773902208712,-5.368412017822266,-94.61577415466309,-5.486566304189583,-94.457359405375,-6.071360781420744,-94.26167778193364,-7.153647039904835,-94.03589125268661,-8.769668397788221,-93.77630965430993,-10.997420401215301,-93.46538862530724,-13.922925874279064,-93.08524446967053,-17.520242863868067,-92.64810201784275,-21.56526894360216,-92.23483364773627" fill="none" stroke="url(#rainbowGradient)" stroke-width="2" stroke-linejoin="round" filter="url(#fuzzy)"></polyline><polyline points="-32,-90,-31.70870428472741,-90.07751649350028,-30.715726399460223,-90.35744366110033,-29.40755146612085,-90.75163332630147,-28.09579135826789,-91.15728021861287,-26.90669269391163,-91.51161611387828,-25.891471151017875,-91.78810068746758,-25.098433475089916,-91.9816291800123,-24.599960327148438,-92.08968353271484,-24.48051414945912,-92.09821669576831,-24.79998070211377,-91.97973125211362,-25.567590830910344,-91.70429461317882,-26.757802144391462,-91.25639823818346,-28.373743032631737,-90.6418151950286,-30.546320934970247,-89.86943951433788,-33.62232139109497,-88.9392887027239" fill="none" stroke="url(#rainbowGradient)" stroke-width="2" stroke-linejoin="round" filter="url(#fuzzy)"></polyline><polyline points="69,-50,69.61585586745132,-48.52559241359042,69.9045865065558,-47.650159986183,70.03502693349648,-47.096180187546196,69.98413024155302,-46.728532621292636,69.66831284969327,-46.557952920723494,69.02226316418896,-46.65213434166978,68.02637572626791,-47.06434237129359,66.68799724494049,-47.82685189386564,65.00793692903932,-48.98031954995902,62.95948471036646,-50.593051739013276,60.48954041191716,-52.74670385508541,57.53534174580884,-55.497557886117775,54.04189027352916,-58.84470218285802,49.96907965074555,-62.73551015303884,45.295104630164076,-67.11109422385245,40.0445546596532,-71.95477417565533,34.36815034079303,-77.2965739961654,28.613609094598694,-83.20373019936619" fill="none" stroke="url(#rainbowGradient)" stroke-width="2" stroke-linejoin="round" filter="url(#fuzzy)"></polyline><polyline points="53,-71,53.57422695389293,-70.26898296007207,53.79761099975583,-69.55846855892922,53.68101378727763,-68.92330639090258,53.07063985053772,-68.53603915419457,51.880528367984446,-68.46287932859654,50.07339255081957,-68.69690777396227,47.61061106053627,-69.2166510189809,44.44573147817185,-70.01748679380519,40.54371777041508,-71.11430601733778,35.88452284254672,-72.53386742125998,30.441120455937895,-74.31231275396831,24.162402677846543,-76.49444186726579,16.994598775582045,-79.11902712736571,8.933573597335885,-82.18482819265067,0.054841690225961415,-85.61665784560302,-9.540642619743506,-89.2677968093086" fill="none" stroke="url(#rainbowGradient)" stroke-width="2" stroke-linejoin="round" filter="url(#fuzzy)"></polyline><polyline points="52,-72,52.00833490173044,-71.7196480167622,51.710940106379,-71.16117390596024,50.888134924918226,-70.5013242756522,49.47981836888254,-69.79509402872084,47.41780333369576,-69.10424648555185,44.609088007389005,-68.49043334067625,40.976024848512054,-67.98702573879088,36.47491094853224,-67.59664324435477,31.08319664001465,-67.30671119689941,24.781715333324986,-67.10462858814961,17.55100607716432,-66.98521423628618,9.377158855770617,-66.95567651646152,0.2516493006293352,-67.04305359554604,-9.841740758670653,-67.291771562701,-20.94169834225333,-67.72349840218851,-33.09796415120262,-68.2526743756587,-46.34076036996623,-68.5905550153799" fill="none" stroke="url(#rainbowGradient)" stroke-width="2" stroke-linejoin="round" filter="url(#fuzzy)"></polyline><polyline points="65,-57,65.06772597602476,-56.78766045618812,65.37156195041479,-56.00444148614158,65.65015995543995,-55.14157055474898,65.65285638245416,-54.5573584891406,65.30562088826603,-54.29199577263658,64.62956686353523,-54.27839147676484,63.64995349007122,-54.484017556999426,62.36312883849217,-54.93005875603164,60.74242136047023,-55.65634996207015,58.749130055431934,-56.69311744742235,56.33703791868153,-58.05856586734201,53.45872363226213,-59.7695825604057,50.079537391995586,-61.84645727278571,46.18866967160349,-64.30699301900682,41.78967604166348,-67.16265397470615,36.870311613009186,-70.42987690700664,31.38459222582059,-74.14889622887398,25.299500125336795,-78.38023707300374,18.732171404622875,-83.15771897032559,12.099302240911927,-88.42494563153295" fill="none" stroke="url(#rainbowGradient)" stroke-width="2" stroke-linejoin="round" filter="url(#fuzzy)"></polyline><polyline points="-28,-91,-27.825567480280228,-91.24261940283374,-26.753692499390358,-91.59048523174847,-25.557681609593338,-91.88701788885172,-24.405729775213114,-92.14345830349282,-23.418927222968478,-92.3539637169979,-22.717907638871772,-92.47810330685758,-22.367566219392096,-92.46619452611772,-22.372293959109907,-92.28172190678522,-22.71355325439776,-91.91045410695804,-23.38375997543335,-91.35844421386719,-24.392083423580342,-90.6449990086087,-25.74857821058994,-89.79554564197606,-27.451842759216202,-88.83402951659087,-29.504897323022412,-87.7693182611508,-31.960279631251296,-86.57308697986991,-34.95445728187389,-85.16337058745529,-38.66231581628538,-83.43003170322498,-43.13868608384908,-81.32909058433351,-48.19762606262537,-78.94583247668263" fill="none" stroke="url(#rainbowGradient)" stroke-width="2" stroke-linejoin="round" filter="url(#fuzzy)"></polyline><polyline points="12,-93,14.044375773124186,-92.13384495392846,15.44012298625021,-91.53287784888441,15.880895731829552,-91.14616786257352,15.585120330390055,-90.82878625235753,14.714027266036839,-90.48297853748996,13.272893491525583,-90.08564590949652,11.19817058482877,-89.64797622103636,8.437416076660156,-89.16846466064453,4.957078820909691,-88.62127347028854,0.7116551537698985,-87.9775677424312,-4.376121922102843,-87.22870559726826,-10.415721933881287,-86.38768325740239,-17.545563765742045,-85.4751749443679,-25.90419420528075,-84.51967956124035,-35.505160752741986,-83.60395501093977" fill="none" stroke="url(#rainbowGradient)" stroke-width="2" stroke-linejoin="round" filter="url(#fuzzy)"></polyline><polyline points="23,-89,23.28079637047744,-89.30156849452557,24.70639210399158,-88.92768545013139,26.285232058909227,-88.3758834971592,27.680802700318363,-87.8118430630675,28.779644286238085,-87.29152011493034,29.55263638962645,-86.84551026442487,30.023875619359686,-86.49210687818969,30.246463794143168,-86.23719216626658,30.264684677381272,-86.0795259316526,30.078562159402882,-86.02070008951243,29.627820778815344,-86.07545438845003,28.80214353828905,-86.27696096841856,27.478154003247948,-86.67006399115905,25.575160770869815,-87.28924651662693,23.099108332865466,-88.13290217674265,20.12013016809896,-89.16510040090856,16.65426070083975,-90.3750632378951,12.505730659436308,-91.87710145724691" fill="none" stroke="url(#rainbowGradient)" stroke-width="2" stroke-linejoin="round" filter="url(#fuzzy)"></polyline><polyline points="22,-90,24.282255679598112,-89.14485233675617,25.650181291269103,-88.50609607437735,26.28494765048858,-88.00808750064512,26.23843740054872,-87.60215218027588,25.50324659015463,-87.29193156980764,24.087560806543536,-87.08336104964229,22.02622997949195,-86.96396658465275,19.345062255859375,-86.91390991210938,16.024806890352377,-86.92448785896696,11.995863750949766,-87.00589072294542,7.157688930813192,-87.18032414081787,1.3986209515715018,-87.46838565228973,-5.390619199602407,-87.87877453944313,-13.29624113147096,-88.40423548570028,-22.325272768843917,-89.04284422279831" fill="none" stroke="url(#rainbowGradient)" stroke-width="2" stroke-linejoin="round" filter="url(#fuzzy)"></polyline><polyline points="-48,-81,-46.26076960997902,-82.35736929686439,-44.50439910137322,-83.29377872588576,-42.67642362506638,-84.20469137526077,-40.87725516464411,-85.14651501822385,-39.13861481850893,-86.09433792359604,-37.44038498377815,-87.01072593191927,-35.79071419849688,-87.85463840912425,-34.25751732636259,-88.58863989990508,-32.93512723935969,-89.19077248961148,-31.891075690074814,-89.65956623109545,-31.14079360196603,-90.00691174159994,-30.66177747145087,-90.24558153824316,-30.42398141533766,-90.3825689326942,-30.408495063041528,-90.4221673783529,-30.608707971483824,-90.37001261378788,-31.03196313455578,-90.22400027084726,-31.72237707409677,-89.95213923257296,-32.769722581927816,-89.50210325159134" fill="none" stroke="url(#rainbowGradient)" stroke-width="2" stroke-linejoin="round" filter="url(#fuzzy)"></polyline><polyline points="18,-91,18.39809616196097,-90.91433182330525,19.42458184823272,-90.57703150869474,20.90171066918263,-89.96498251225023,22.60058513556475,-89.16586544186576,24.40937711528673,-88.26015846477512,26.33274665953791,-87.2764203681557,28.385013380926118,-86.21647101720123,30.527466353796342,-85.08768771538733,32.67666688647708,-83.91479704354744,34.74388945596906,-82.73544347954348,36.668989181518555,-81.59010255336761,38.435077352452865,-80.51201888327701,40.06343547012336,-79.5201947369101,41.59120154685297,-78.61904282429012,43.03837745323135,-77.80699676670955,44.37894904751114,-77.09047792641157,45.53626693760491,-76.49211380354636,46.418500276948606,-76.03952054791715,46.996574829705736,-75.7306589496335,47.39281241203772,-75.50178692602474,47.82829299663804,-75.26750040013357" fill="none" stroke="url(#rainbowGradient)" stroke-width="2" stroke-linejoin="round" filter="url(#fuzzy)"></polyline><polyline points="19,-91,20.039314604894297,-90.66473616032555,21.536706277911655,-90.08029093808521,22.884434806693793,-89.5139608871959,24.255507157297934,-88.95357892533171,25.759255225739814,-88.35073116414281,27.345734492349564,-87.69716965377688,28.901279208012074,-87.01605926313825,30.327040469740524,-86.3408297424368,31.57073971816613,-85.70167892771383,32.62676032011152,-85.1196631008243,33.51813430730588,-84.60653168829333,34.27109211683273,-84.16859582066536,34.89410774067414,-83.81191023507569,35.37100927261628,-83.54598210089337,35.668959269486706,-83.38470597994194,35.752222972249086,-83.34507337310744,35.589016633729145,-83.44535772362379,35.144683433675915,-83.70451623033958,34.36707689078861,-84.14295424408635,33.180479342440954,-84.78175760703105,31.498490292149917,-85.63798048826885,29.23097652790949,-86.72840426780448,26.210262317066466,-88.11818358854858" fill="none" stroke="url(#rainbowGradient)" stroke-width="2" stroke-linejoin="round" filter="url(#fuzzy)"></polyline><polyline points="-34,-89,-33.481054083061224,-89.25259465596973,-32.628953027652706,-89.64062250079388,-31.720435102944787,-89.99613866533811,-30.745301950722933,-90.32916065421887,-29.754536284127983,-90.6460407103068,-28.847406816694722,-90.92276024429042,-28.10855412599922,-91.12512037549227,-27.594970703125,-91.2279052734375,-27.364449016065606,-91.21764519900721,-27.514399146590144,-91.07864782850905,-28.19430227632163,-90.77339875949146,-29.557405157014728,-90.23554953071289,-31.65721750483466,-89.3907654643048,-34.36975858834861,-88.20784194047332,-37.4737215742471,-86.74591516021083" fill="none" stroke="url(#rainbowGradient)" stroke-width="2" stroke-linejoin="round" filter="url(#fuzzy)"></polyline><polyline points="64,-58,64.34729801937705,-57.396094087941314,63.89633340208117,-56.93846531766994,62.921948179792885,-56.31815686076334,61.3731827099322,-55.69930666803421,59.12132608835543,-55.27334673561775,56.08822272068711,-55.08234830427962,52.251352351469066,-55.074872669212425,47.60913423478765,-55.20473109863349,42.158470055300434,-55.47157010922904,35.89069855917737,-55.90276904575049,28.792551071149358,-56.520282833010874,20.84393501439913,-57.32942527860552,12.0166558753351,-58.33576913698591,2.281477178858111,-59.5667128269819,-8.37987443792154,-61.06406533908568,-19.973472705328287,-62.83366258879522,-32.50768984438419,-64.78295728853345,-46.02750170963311,-66.68995002601908" fill="none" stroke="url(#rainbowGradient)" stroke-width="2" stroke-linejoin="round" filter="url(#fuzzy)"></polyline><polyline points="0,-95,1.6666640227674447,-94.38030185973946,2.6788514063640374,-94.14286434606615,3.5417666695420023,-94.04865802016491,4.201094593452899,-93.97602406971679,4.682579559949375,-93.86829187083478,5.007788530599203,-93.7167325603165,5.124360998738196,-93.54105982578497,4.941455637412332,-93.36346511249923,4.388591766357422,-93.19126510620117,3.432826964657843,-93.01842932948419,2.04771792132534,-92.83944794695552,0.16905724536077926,-92.65852875685158,-2.3201011624323886,-92.48322796774434,-5.5564041309917025,-92.3098856299199,-9.629785774665052,-92.12338004732635,-14.511375942160388,-91.93156321732616,-20.013904636072485,-91.82902051034984" fill="none" stroke="url(#rainbowGradient)" stroke-width="2" stroke-linejoin="round" filter="url(#fuzzy)"></polyline><polyline points="63,-59,63.79322863397606,-58.20885598383267,64.21353653776342,-57.74849775787377,64.34789816658827,-57.449622381507425,64.27830544470677,-57.22314556987796,63.961619655072035,-57.18487875069513,63.29271389563782,-57.508512577925934,62.190070667942095,-58.290051449762046,60.6240989873128,-59.539068394082676,58.58789292882002,-61.250866008404785,56.04905857986257,-63.4695097682353,52.92621877125862,-66.29086395954383,49.114453250716466,-69.81020779745772,44.528384498758996,-74.06515071137531,39.02720743504512,-79.06851628753346" fill="none" stroke="url(#rainbowGradient)" stroke-width="2" stroke-linejoin="round" filter="url(#fuzzy)"></polyline><polyline points="68,-51,68.63604616834995,-49.90860473300509,68.57585118397407,-48.95673399436717,67.89109385034068,-48.34532221653385,66.65381481874655,-48.01944276803492,64.86325318094964,-47.905771226276784,62.47176917221152,-47.990357226684466,59.42764446423178,-48.295406263110664,55.697232698031456,-48.840183007157066,51.261642197786806,-49.6337155003399,46.101449489593506,-50.693583965301514,40.18496943519061,-52.05994132945273,33.46901899875992,-53.78337628645578,25.912444296932858,-55.89212708566137,17.495231869759547,-58.366145005988855,8.233107014939606,-61.146772367132826,-1.8180323529511782,-64.18916069501284,-12.565447512943575,-67.53289410765777,-23.89096559082289,-71.34029086306361,-35.69549930148312,-75.82697199199569" fill="none" stroke="url(#rainbowGradient)" stroke-width="2" stroke-linejoin="round" filter="url(#fuzzy)"></polyline><polyline points="-3,-95,-0.7934838008929868,-94.85054355526219,1.0182809992477835,-94.38422488891328,2.8960658682240377,-93.74448389012748,4.941472755812836,-93.03919904390494,7.153687895404346,-92.29098816977216,9.525111597658325,-91.48250546301406,12.065944548912304,-90.59610090491877,14.775856366783167,-89.63038211297884,17.621220638798466,-88.59853816079988,20.54529094696045,-87.51857805252075,23.493308744263878,-86.40575265597286,26.42428507616375,-85.272671099407,29.301959541600226,-84.1353835185984,32.079221755407104,-83.01996952392582,34.69120722960042,-81.96679999419871,37.05656829252709,-81.03228494017989,39.08185727158477,-80.27953352909466,40.692054042235654,-79.73438658903721,41.92684502248633,-79.31587529985869" fill="none" stroke="url(#rainbowGradient)" stroke-width="2" stroke-linejoin="round" filter="url(#fuzzy)"></polyline><polyline points="10,-93,10.5714840603266,-92.97020971614194,11.696656847090898,-92.79287638787451,13.1557310179418,-92.42733092481758,14.801075478263513,-91.96097790422401,16.430283111026423,-91.49853907655093,17.908048983345644,-91.09061028281889,19.19675037098453,-90.73634040659354,20.310969113876364,-90.41714848023325,21.272631568284925,-90.12144325659237,22.094430372854173,-89.84892760234833,22.777377226135403,-89.60426927731153,23.305222928524017,-89.39317095279694,23.635908111459678,-89.22502776355076,23.702188641065046,-89.11711359757241,23.42935436313546,-89.09335758671585,22.763447349716223,-89.17625065327172,21.691454856849337,-89.37774090397045,20.23592304061978,-89.69769258000184,18.42337615084974,-90.13293742044164,16.253348472555412,-90.68807780526593,13.718051581833434,-91.37093744840632,10.91339695621285,-92.16750813070081,8.184720399594479,-93.03491810610097" fill="none" stroke="url(#rainbowGradient)" stroke-width="2" stroke-linejoin="round" filter="url(#fuzzy)"></polyline><polyline points="37,-83,38.763909390961196,-81.78350390900252,39.3699668827472,-81.24970564041512,39.527125471829414,-80.90529275670713,39.34821728989482,-80.65864041779423,38.767519223284836,-80.53655370867966,37.706653685794045,-80.56035929629155,36.079893028792306,-80.74738320676467,33.78736877441406,-81.1366958618164,30.74967547528271,-81.77997635503289,26.94374770089455,-82.70390836298529,22.380305125253493,-83.88851519319974,17.025734468828887,-85.29490991187049,10.761003149354957,-86.92722850819834,3.491667895902223,-88.86550867798142,-4.605731986253309,-91.21259041797359" fill="none" stroke="url(#rainbowGradient)" stroke-width="2" stroke-linejoin="round" filter="url(#fuzzy)"></polyline><polyline points="57,-67,57.53218875401535,-65.75372039854349,57.61921295487752,-65.10396439865916,57.26200069818293,-64.65526943426076,56.31719033094424,-64.37423600711259,54.71721986764125,-64.28075654305921,52.44214813498592,-64.39376935998867,49.46929671244232,-64.74575123327843,45.759599479161864,-65.37434157493063,41.2726936340332,-66.29506492614746,35.986207288710986,-67.49179999928084,29.899979616876667,-68.94176722258504,23.021997095082227,-70.65375579297253,15.350071933073536,-72.6783702597834,6.870000179803981,-75.07133004719287,-2.4230797522087286,-77.84572912714815,-12.518138856997618,-80.9746316697073,-23.511578024550104,-84.41825078432036" fill="none" stroke="url(#rainbowGradient)" stroke-width="2" stroke-linejoin="round" filter="url(#fuzzy)"></polyline><polyline points="43,-79,43.890415969921385,-78.23047718252585,44.65113014215935,-77.438596029775,44.92194683005217,-76.73334117739545,44.513279898416954,-76.27589682819101,43.464901889427,-76.06005277577631,41.847395126625194,-76.01129138612326,39.65118918063724,-76.08269103187311,36.80568328550652,-76.27475015484889,33.242475509643555,-76.60799598693848,28.927889855191644,-77.09604606677331,23.851202212394025,-77.74366027559495,17.997816867312526,-78.56426331563138,11.341030096760631,-79.5948040796228,3.862660562204809,-80.88814307188856,-4.424122549773951,-82.48018167008561,-13.503376971515063,-84.35390451318533,-23.41872043509067,-86.46521739231588" fill="none" stroke="url(#rainbowGradient)" stroke-width="2" stroke-linejoin="round" filter="url(#fuzzy)"></polyline><polyline points="-26,-92,-25.091870083777668,-92.06908849170442,-23.822040204436075,-92.32449499737345,-22.42849960750066,-92.67232673401261,-21.22809851472939,-93.0045587106847,-20.29956173568323,-93.25056363884107,-19.59096543778386,-93.37792847379106,-19.04444933410898,-93.38371896186331,-18.65034909805358,-93.28022843763652,-18.441388637641335,-93.0822500778094,-18.46253510597903,-92.80047467903835,-18.749512740561393,-92.43969522553856,-19.32948060441286,-91.99794535229519,-20.23350861140969,-91.46495394369052,-21.4999063266928,-90.82211008829341,-23.158398504007952,-90.04731878826358,-25.207214600916643,-89.12517830619831,-27.607531504524076,-88.05793779210681,-30.310177264790397,-86.86876076629613,-33.30721333627863,-85.58665217148517,-36.68964318636999,-84.20203958781758,-40.70748516806891,-82.58877510109971,-45.85685981024663,-80.40698178911028" fill="none" stroke="url(#rainbowGradient)" stroke-width="2" stroke-linejoin="round" filter="url(#fuzzy)"></polyline><polyline points="67,-53,67.64365047044268,-52.46085079458717,68.03015664680058,-51.89962033634955,68.44349797245938,-51.02744211820445,68.91941652375087,-49.99211330944004,69.40774230287332,-48.96805780832344,69.86079517510692,-48.05747866136564,70.24901811689126,-47.292941286524666,70.54847151030927,-46.67534209551821,70.73231020848327,-46.209927219591805,70.77409588511625,-45.92052898076666,70.65460348129272,-45.84438908100128,70.36183072950412,-46.02326058586341,69.88249466660103,-46.50242629452691,69.19312789971764,-47.334702399699225,68.2612675224365,-48.576586061345296,67.05894876013254,-50.26965154806163,65.57640629973129,-52.420122657151005,63.81608567336157,-55.00544878103932,61.761998207222575,-58.02325919554113,59.36416368234312,-61.54491003386155,56.634069386894296,-65.65905987267321" fill="none" stroke="url(#rainbowGradient)" stroke-width="2" stroke-linejoin="round" filter="url(#fuzzy)"></polyline><polyline points="49,-75,48.754007343963494,-74.44935040997922,49.332375234076274,-73.9122754823511,49.970538061939536,-73.27386720063505,50.32880164832093,-72.67857874068478,50.34013778846537,-72.17551714044022,50.03123674069416,-71.75502698591781,49.43013187249091,-71.41040360534802,48.53584619124114,-71.15917553179398,47.32156513821452,-71.03387535909505,45.75026448943036,-71.0651938730589,43.78806959372671,-71.2725814487007,41.40920892357826,-71.66479253768921,38.59447184069198,-72.2453153302678,35.32831781794542,-73.01749283843284,31.597805465503065,-73.98733066605615,27.392474224756327,-75.16338600781737,22.701793737291133,-76.5521373531349,17.507479430361858,-78.14832131660165,11.771733836342571,-79.92683799904735,5.429573062599182,-81.85199168786006,-1.593926389879904,-83.91753934467178,-9.306900899912357,-86.2028025724949,-17.520108437003586,-88.8748218707301" fill="none" stroke="url(#rainbowGradient)" stroke-width="2" stroke-linejoin="round" filter="url(#fuzzy)"></polyline><polyline points="43,-79,43.12181470642873,-78.78335284854013,43.31031388251192,-78.34299650112435,43.27429242708422,-77.82900344321217,42.683038726390805,-77.42338250909233,41.343687141500304,-77.26370361642181,39.23624160484435,-77.37500035177342,36.39957363750529,-77.709479160857,32.817543029785156,-78.22077178955078,28.398695878303165,-78.90334960855313,23.036268111233955,-79.78323460817536,16.67447307198188,-80.88809601405029,9.317155001976062,-82.22962264687521,0.972943600916043,-83.81045200306436,-8.415511031279387,-85.64413728468563,-19.074616687108826,-87.74675062173372" fill="none" stroke="url(#rainbowGradient)" stroke-width="2" stroke-linejoin="round" filter="url(#fuzzy)"></polyline><polyline points="-32,-90,-31.70683290953108,-90.07804229214578,-30.708222779040625,-90.35897870978374,-29.393610293352875,-90.75469365207375,-28.085561572292573,-91.16032971054551,-26.92000823941969,-91.50964804032351,-25.955283772086684,-91.77240580324067,-25.24440350133909,-91.94137428670409,-24.864277161530172,-92.01408368422699,-24.906275235273114,-91.97719706460488,-25.437028107204725,-91.80211338280563,-26.465318117679626,-91.45549964250814,-27.950366089910684,-90.92174741384724,-29.86085522473829,-90.21543268717313,-32.32099924206859,-89.32268826849588" fill="none" stroke="url(#rainbowGradient)" stroke-width="2" stroke-linejoin="round" filter="url(#fuzzy)"></polyline><!--]--></g><g id="lineNose"><path d="M -11.613545536412307 28.658493238577584, Q13.283943019813865 29.017675641205877,0.8351987417007791 -5.450963628612804" fill="none" stroke="black" stroke-width="3" stroke-linejoin="round" filter="url(#fuzzy)"></path></g><g id="mouth"><polyline points="-61.38197109758153,51.525180622842,-59.93586054331783,51.97070047057552,-58.50711498483658,52.42629785640217,-57.09530165865401,52.89137567174428,-55.69998780128631,53.36533680802412,-54.32074064924973,53.84758415666402,-52.95712743906045,54.33752060908627,-51.608715407234705,54.83454905671317,-50.27507179028873,55.33807239096706,-48.95576382473872,55.84749350327021,-47.65035874710089,56.36221528504493,-46.358423793891426,56.88164062771351,-45.079526201626614,57.40517242269829,-43.8132332068226,57.93221356142154,-42.55911204599567,58.46216693530559,-41.316729955661984,58.99443543577273,-40.08565417233778,59.528421954245275,-38.86545193253929,60.063529382145525,-37.655690472782695,60.59916061089578,-36.45593702958423,61.13471853191834,-35.26575883946012,61.66960603663553,-34.08472313892657,62.20322601646963,-32.912397164499794,62.73498136284296,-31.748348152696018,63.26427496717782,-30.592143340031456,63.7905097208965,-29.44334996302233,64.31308851542134,-28.30153525818484,64.83141424217462,-27.1662664620352,65.34488979257864,-26.037110811089647,65.85291805805572,-24.91363554186438,66.35490193002813,-23.79540789087563,66.85024429991822,-22.681995094639603,67.33834805914827,-21.572964389672517,67.8186160991406,-20.467883012490592,68.29045131131748,-19.366318199610042,68.75325658710125,-18.267837187547077,69.2064348179142,-17.172007212817928,69.64938889517866,-16.078395511938794,70.08152171031688,-14.986569321425907,70.50223615475123,-13.896095877795476,70.91093511990394,-12.806542417563715,71.30702149719735,-11.717476177246846,71.6898981780538,-10.628464393361082,72.05896805389555,-9.53907430242264,72.41363401614493,-8.448873140947734,72.7532989562242,-7.3574281454525865,73.07736576555573,-6.264306552453407,73.38523733556177,-5.169075598466419,73.67631655766465,-4.071302520007832,73.95000632328667,-2.9705545535938604,74.20570952385015,-1.8663989357407331,74.44282905077733,-0.7584029029646562,74.6607677954906,0.35386630821815324,74.85892864941222,1.4708414612914762,75.0367145039645,2.5929553197391,75.19352825056976,3.720640647044803,75.32877278065027,4.854330206692376,75.44185098562835,5.994456762165592,75.53216575692632,7.141453076948245,75.59911998596647,8.295751914524114,75.6421165641711,9.457786038376984,75.66055838296255,10.627988211990637,75.65384833376308,11.806791198848856,75.62138930799499,12.994627762435428,75.56258419708064,14.19193066623414,75.47683589244228,15.399132673728761,75.36354728550224,16.61666654840309,75.22212126768281,17.844965053740903,75.0519607304063,19.084460953225985,74.85246856509501,20.335587010342124,74.62304766317126,21.598775988573095,74.36310091605736,22.87446065140269,74.07203121517558,24.16307376231469,73.74924145194827,25.465048084792873,73.39413451779768,26.78081638232103,73.00611330414615,28.110811418382948,72.58458070241599,29.455465956462398,72.12893960402948,30.815212760043167,71.63859290040895,32.19048459260905,71.11294348297668,33.58171421764382,70.55139424315499,34.989334398631264,69.95334807236617,36.41377789905516,69.31820786203254,37.85547748239931,68.64537650357639,39.314865912147475,67.93425688842004,40.792375951783455,67.1842519079858,42.288440364791015,66.39476445369593,43.803491914653954,65.56519741697278,45.337963364856066,64.69495368923864,46.8922874788811,63.78343616191583,48.46689702021287,62.83004772642663,50.062224752335155,61.83419127419336,51.67870343873172,60.7952696966383,53.31676584288638,59.712685885183774,54.97684472828289,58.5858427312521,56.65937285840506,57.41414312626556,58.364782996736636,56.19698996164646,60.09350790676144,54.933786128817104,61.845980351963235,53.62393451919982,63.62263309582581,52.26683802421688,65.42389890183294,50.861899535290604,67.2502105334683,49.4085219438434,65.42389890183283,50.8618995352907,63.622633095825684,52.266838024216966,61.84598035196312,53.6239345191999,60.09350790676132,54.933786128817175,58.364782996736515,56.19698996164653,56.65937285840494,57.41414312626562,54.97684472828278,58.58584273125215,53.316765842886284,59.71268588518385,51.67870343873164,60.795269696638364,50.06222475233507,61.83419127419341,48.46689702021278,62.830047726426685,46.89228747888102,63.78343616191589,45.337963364855966,64.6949536892387,43.803491914653875,65.56519741697284,42.28844036479093,66.39476445369598,40.79237595178336,67.18425190798582,39.3148659121474,67.93425688842008,37.85547748239922,68.64537650357641,36.413777899055084,69.31820786203255,34.989334398631186,69.9533480723662,33.58171421764375,70.551394243155,32.190484592608975,71.1129434829767,30.8152127600431,71.63859290040897,29.455465956462323,72.1289396040295,28.110811418382884,72.58458070241602,26.780816382320968,73.00611330414618,25.465048084792816,73.39413451779771,24.163073762314628,73.7492414519483,22.874460651402632,74.07203121517561,21.59877598857304,74.36310091605738,20.335587010342064,74.62304766317129,19.084460953225932,74.85246856509504,17.844965053740847,75.05196073040631,16.616666548403032,75.22212126768282,15.399132673728708,75.36354728550225,14.191930666234082,75.4768358924423,12.994627762435373,75.56258419708065,11.806791198848803,75.62138930799502,10.627988211990584,75.6538483337631,9.457786038376927,75.66055838296255,8.295751914524063,75.64211656417112,7.141453076948191,75.59911998596648,5.994456762165538,75.53216575692633,4.85433020669232,75.44185098562836,3.7206406470447515,75.32877278065027,2.5929553197390467,75.19352825056976,1.4708414612914265,75.0367145039645,0.35386630821810083,74.85892864941223,-0.7584029029647086,74.66076779549059,-1.866398935740782,74.44282905077732,-2.970554553593913,74.20570952385012,-4.071302520007881,73.95000632328666,-5.169075598466469,73.67631655766462,-6.264306552453459,73.38523733556175,-7.3574281454526345,73.0773657655557,-8.448873140947786,72.75329895622419,-9.53907430242269,72.4136340161449,-10.628464393361131,72.05896805389553,-11.717476177246898,71.68989817805377,-12.806542417563765,71.30702149719733,-13.896095877795524,70.9109351199039,-14.986569321425957,70.50223615475117,-16.078395511938847,70.08152171031685,-17.172007212817977,69.64938889517862,-18.267837187547126,69.20643481791419,-19.36631819961009,68.75325658710122,-20.46788301249064,68.29045131131744,-21.572964389672567,67.81861609914056,-22.681995094639653,67.33834805914823,-23.79540789087568,66.85024429991819,-24.913635541864437,66.35490193002809,-26.037110811089697,65.85291805805568,-27.166266462035253,65.3448897925786,-28.301535258184884,64.83141424217459,-29.443349963022378,64.31308851542131,-30.59214334003152,63.79050972089648,-31.74834815269608,63.26427496717779,-32.912397164499865,62.73498136284293,-34.084723138926634,62.2032260164696,-35.26575883946018,61.6696060366355,-36.4559370295843,61.13471853191832,-37.65569047278276,60.59916061089575,-38.86545193253935,60.0635293821455,-40.085654172337854,59.52842195424525,-41.316729955662055,58.994435435772715,-42.55911204599574,58.46216693530556,-43.81323320682269,57.93221356142152,-45.07952620162668,57.40517242269826,-46.3584237938915,56.88164062771348,-47.650358747100945,56.36221528504488,-48.95576382473878,55.84749350327017,-50.27507179028881,55.33807239096703,-51.608715407234804,54.83454905671315,-52.95712743906055,54.33752060908625,-54.320740649249814,53.84758415666399,-55.699987801286404,53.3653368080241,-57.0953016586541,52.89137567174425,-58.50711498483668,52.42629785640215,-59.93586054331792,51.970700470575494" fill="rgb(215,127,140)" stroke="black" stroke-width="3" stroke-linejoin="round" filter="url(#fuzzy)"></polyline></g></svg>