<svg viewBox="-100 -100 200 200" xmlns="http://www.w3.org/2000/svg" width="400" height="400" id="face-svg"><defs><clipPath id="leftEyeClipPath"><polyline points="28.03344319432439,-1.9393736276733644,27.82183313650399,-2.1437246806026997,27.58831680790979,-2.349254630033082,27.332405502783352,-2.5558135701577087,27.053681650736507,-2.763239698659509,26.751796748776194,-2.9713599123824013,26.426469293329223,-3.179990403002553,26.0774827122672,-3.388937252699643,25.704683296931282,-3.5979970298281123,25.30797813415702,-3.806957384588432,24.887333038299197,-4.015597644698355,24.442770483256638,-4.223689411064179,23.974367534497052,-4.43099715345201,23.482253781081834,-4.63727880615901,22.966609267690927,-4.842286363684663,22.427662426647608,-5.045766476402041,21.943320720278606,-5.270586921488952,21.418210076843486,-5.496715579203943,20.852338263232383,-5.723430088564092,20.245968671715218,-5.949975119597361,19.599601463158507,-6.175570728692768,18.913955297232704,-6.399420234750293,18.189949641309816,-6.620717626600041,17.42868764975101,-6.838654512160159,16.631439605283617,-7.052426619803037,15.799626914167629,-7.261239862399325,14.93480664685087,-7.464315974509236,14.038656615812904,-7.660897733190719,13.11296098229709,-7.850253772893951,12.159596383630593,-8.031683004911727,11.18051857283189,-8.204518651855214,10.17774956220558,-8.368131907624623,9.153365262624021,-8.521935233344298,8.109483610195571,-8.665385299731735,7.04825317201901,-8.79798558637007,5.971842222723868,-8.919288648353543,4.882428283496283,-9.028898060775422,3.782188115290081,-9.126470051527988,2.673288157922716,-9.211714832883978,1.5578754067557536,-9.28439764232914,0.4380687186595713,-9.34433950311529,-0.6840494610381205,-9.391417715003481,-1.8064409589201729,-9.425566085666766,-2.9271193294647544,-9.44677491322204,-4.044156914947214,-9.45509073036055,-5.155691517559445,-9.450615820546528,-6.259932692047058,-9.433507516753497,-7.355167667164707,-9.403977293207767,-8.43976690424992,-9.3622896606086,-9.512189301215717,-9.308760875294617,-10.570987050262445,-9.243757472825934,-11.614810157609082,-9.167694636451543,-12.642410633544351,-9.081034410931455,-13.652646361098054,-8.984283772183154,-14.644484651632894,-8.877992563221817,-15.617005495657132,-8.762751306863873,-16.569404517158418,-8.639188905663412,-17.500995639759182,-8.507970239550914,-18.411213472993815,-8.369793671643894,-19.2996154270081,-8.22538847269889,-20.165883563981097,-8.075512174674394,-21.00982619456999,-7.920947863874173,-21.83137922767803,-7.762501424140579,-22.630607281846068,-7.600998740567271,-23.407704566567936,-7.4372828742009185,-24.162995541830096,-7.272211218201437,-24.89791448197127,-7.105052001523743,-25.61353890833428,-6.934770017917629,-26.30978281270387,-6.761773474353592,-26.986594877582473,-6.586465360896201,-27.643957364538068,-6.409242048536582,-28.28188500255192,-6.230491887024926,-28.90042387636648,-6.050593802702992,-29.499650314833165,-5.869915896336602,-30.079669779260172,-5.688814040948144,-30.64061575176031,-5.507630479649074,-31.18264862359881,-5.326692423472416,-31.70595458354114,-5.146310649205263,-32.21074450620084,-4.966778097221271,-32.69725284038733,-4.788368469313171,-26.97502253805652,-2.945886586227301,-26.69617963570076,-2.6725516581783237,-26.394246869549445,-2.398353769408579,-26.069165356340896,-2.1230864539749943,-25.720918020197466,-1.8465381948108708,-25.349528858804618,-1.5684948207051592,-24.95506220959005,-1.2887419032817027,-24.53762201590274,-1.007067153978508,-24.09735109319209,-0.7232628210270027,-23.634430395186953,-0.43712808643127954,-23.149078280074782,-0.14847146294737834,-22.641549776680694,0.14288680893747108,-22.112135850646567,0.4371123640255834,-21.561162670610113,0.7343543154295624,-20.988990874383997,1.0347428575930397,-20.394390136912932,1.338185456683382,-19.77594398091592,1.6448460472384774,-19.133833308236255,1.9551519290374788,-18.468335708777197,2.269433701041202,-17.77982271572013,2.587924472770021,-17.068756901172193,2.910759255841428,-16.335688817722485,3.237974553564734,-15.58125379138607,3.5695081664903396,-14.806168571414988,3.9051992318110207,-14.011227842455487,4.244788514512665,-13.197300604530598,4.58791896817196,-12.36532642632735,4.934136583298365,-11.516311577267723,5.282891541117942,-10.65132504384263,5.633539690696398,-9.77149443568803,5.985344367298819,-8.87800178688244,6.33747856988356,-7.972079257945007,6.689027515627679,-7.055004744013356,7.03899158938141,-6.128097394680395,7.386289705949113,-5.1927130509692505,7.72976310309413,-4.250239604925608,8.068179583165005,-3.302092287306558,8.400238221240482,-2.349708888845209,8.724574557690808,-1.3945449205702367,9.039766293052661,-0.4380687186595704,9.34433950311529,0.5182435006925807,9.636775392115165,1.4729126309161806,9.915517601936735,2.424461703734085,10.178980095216563,3.371420951379836,10.42555563024851,4.312332896885353,10.65362484558716,5.245757466959283,10.86156597224711,6.170277121976879,11.047765191395563,7.084501997602111,11.210627655435509,7.98707505256295,11.348589190377151,8.876677217100475,11.460128697394879,9.752032536612772,11.543781271467289,10.611913305014234,11.598152054997673,11.455145182331268,11.621930844312448,12.280612291055085,11.613907466934954,13.087262285772379,11.57298794753206,13.874111390594784,11.498211480431042,14.64024939890784,11.388768226604178,15.384844629960241,11.244017953018442,16.107148836814297,11.063509532247874,16.806502060178307,10.84700132024593,17.482337422641628,10.59448243017535,18.13418585783338,10.30619492019294,18.761680769025418,9.982656913086757,19.3645626117005,9.624686665663084,19.942683394606437,9.233427605780705,20.50346437935303,9.032739192637663,21.048484789956067,8.816243076702865,21.577435390430217,8.584551382064223,22.090016434050966,8.338369519474664,22.585938198246428,8.078499358253634,23.064921519489182,7.805842398188566,23.526698328188125,7.521402941436404,23.97101218358032,7.2262912644250905,24.397618808622802,6.921726789755039,24.806286624884464,6.609041258100661,25.196797287437878,6.289681900111833,25.568946219751112,5.965214608315398,25.922543148579614,5.637327109016668,26.257412638858025,5.307832134200909,26.57339462859203,4.978670593434839"></polyline></clipPath><clipPath id="rightEyeClipPath"><polyline points="-31.00986879056291,-1.0272568854328834,-30.826440307169722,-1.1935108992402714,-30.61962205449976,-1.3607185264974426,-30.38879354220521,-1.5286106844399405,-30.13341944631183,-1.6969209245691155,-29.85304713309947,-1.865385575553503,-29.547304182982668,-2.0337438861302033,-29.215895914391275,-2.2017381680062607,-28.85860290765103,-2.369113938760041,-28.47527852886414,-2.535620064742612,-28.065846453789916,-2.7010089039791256,-27.630298191725302,-2.8650364490701894,-27.168690609385532,-3.0274624700932553,-26.68114345478468,-3.1880506575039904,-26.167836881116262,-3.3465687650376617,-25.62900897063386,-3.5027887526105137,-25.162128806702473,-3.689572411515073,-24.64997685572443,-3.874551648719704,-24.092574487697032,-4.057133627819902,-23.490237714930053,-4.236730451259533,-22.843554339551755,-4.412762846047818,-22.15336187029651,-4.584663595439891,-21.42072619660593,-4.751880722449086,-20.646921008075452,-4.9138804310590745,-19.83340794727839,-5.070149811004014,-18.98181748399929,-5.22019931198486,-18.093930498908655,-5.363564993189948,-17.17166056471098,-5.499810553988045,-16.217036912797955,-5.628529151661959,-15.232188073438909,-5.749345012050894,-14.219326177540388,-5.8619148389696685,-13.18073190800678,-5.96592902827295,-12.11874008873406,-6.061112692432657,-11.035725899268497,-6.147226501496653,-9.934091703162304,-6.224067346296906,-8.816254478058232,-6.291468829775225,-7.684633835534985,-6.34930159229474,-6.5416406187455,-6.397473476805267,-5.389666065879922,-6.435929539730694,-4.231071527485383,-6.464651913446527,-3.0681787256743918,-6.483659526215778,-1.9032605432538774,-6.493007685451275,-0.7385323308068141,-6.492787530172593,0.42385628024162125,-6.483125358525737,1.5818290705414197,-6.464181836233702,2.733390443686635,-6.436151091846073,3.876632167003936,-6.399259704655794,5.009739654228753,-6.353765591151284,6.1309978020371805,-6.299956795871993,7.238796392401573,-6.238150192535579,8.331635072737981,-6.168690101304845,9.408127925813394,-6.091946828062569,10.467007641380892,-6.008315131562376,11.507129301510695,-5.918212624323806,12.527473791585251,-5.822078113139704,13.5271508489263,-5.720369885064092,14.505401761022013,-5.613563944748659,15.461601725322307,-5.5021522089960015,16.395261882570235,-5.3866406643978095,17.30603103563769,-5.267547493926064,18.193697065833277,-5.145401178345446,19.058188058650565,-5.020738578315099,19.899573150924642,-4.89410300304785,20.718063111365126,-4.7660422713950945,21.51401066643353,-4.637106771225408,22.287910583533233,-4.507847522965126,23.041131064081316,-4.377771609844062,23.77461592589698,-4.246204497925597,24.48835746172627,-4.113420330811058,25.182383530469554,-3.979687599086902,25.856755954318118,-3.8452683544125406,26.511568915890752,-3.710417423608182,27.146947355370358,-3.5753816227426705,27.763045367640576,-3.44039897122132,28.36004459942232,-3.3056979058737523,28.938152646410447,-3.171496495041741,29.497601450410308,-3.038001652667038,30.038645696474376,-2.9054083523792222,30.561561210038814,-2.7738988415835295,31.06664335406012,-2.643641855548693,26.291574358944224,-1.8645319367131759,26.16252881969401,-1.6577961188382486,26.009893825998358,-1.4516109630946807,25.83340871839065,-1.245853852061933,25.632843455230482,-1.0403971167540869,25.407998875976563,-0.835109578420469,25.15870696445978,-0.6298580903462678,24.884831112156082,-0.42450907965315743,24.586266381459534,-0.21893008909991674,24.262939768955263,-0.012991318883042488,23.914810468692416,0.19343283156261817,23.54187013545717,0.4004622217632565,23.14414314804571,0.6082094284054791,22.721686872537173,0.8167782035356885,22.274591925566643,1.0262619327594638,21.802411957219928,1.2366737662295497,21.304280378223474,1.4481715804242787,20.779768802914948,1.6610150647434334,20.228563303318257,1.8754072281546597,19.650463559519096,2.091493771960579,19.045381823998756,2.309362568835793,18.413341697960202,2.5290432596458823,17.754476717680802,2.7505069795605412,17.06902874892587,2.9736662249729062,16.357346187457257,3.1983748727372476,15.61988196367123,3.424428363237106,14.857191349399889,3.651564058795967,14.069929564910279,3.8794617889426313,13.258849184135494,4.107744594043357,12.424797336172004,4.335979678812891,11.568712701077356,4.563679587216514,10.691622298002573,4.790303610275195,9.794638063693405,5.015259438285968,8.878953219394738,5.237905068969665,7.945838424192274,5.457550983058076,6.996637712825846,5.6734625988326925,6.032764216008477,5.8848630171271,5.055695661285517,6.090936068305176,4.066969652467977,6.290829672727166,3.068178725674392,6.483659526215778,2.0609651800153665,6.668513122034389,1.0470156809550732,6.844454120889476,0.02805563438390868,7.010527080469394,-0.9941566705634459,7.165762556031607,-2.01783615191034,7.309182583550474,-3.0411772604266285,7.439806556937705,-4.062360542369046,7.556657510847632,-5.079559441339285,7.65876882057933,-6.090947341225542,7.745191330587784,-7.094704852193271,7.815000923116157,-8.089027341690983,7.867306538461304,-9.072132712436764,7.901258658384597,-10.042269429351407,7.916058264180236,-10.997724797403809,7.910966280913112,-11.936833492334497,7.885313519338339,-12.857986346223,7.838511127014584,-13.759639389864862,7.770061560123291,-14.640323153924026,7.679570087505898,-15.498652230826462,7.566756838431221,-16.3333350993607,7.4314694056050055,-17.14318421395107,7.273696014933883,-17.927126360569495,7.093579273555736,-18.68421328125147,6.891430507648662,-19.41363256918213,6.667744701530589,-20.114718836318126,6.423216049561699,-20.79089228535472,6.296214170309904,-21.450305114726522,6.159150517735977,-22.092421212214067,6.012386833755606,-22.7167185893443,5.85634187809632,-23.322690403819575,5.691493376448763,-23.9098459819466,5.518379968617962,-24.477711841065517,5.337603156674616,-25.025832711978833,5.149829253106355,-25.55377256138043,4.955791328969026,-26.061115614284585,4.756291162037964,-26.547467376454946,4.5522011849592685,-27.01245565683355,4.344466433401077,-27.45573158996977,4.13410649420484,-27.87697065844938,3.9222174535365983,-28.275873715323513,3.709973845038259"></polyline></clipPath><filter id="fuzzy"><feTurbulence id="turbulence" baseFrequency="0.05" numOctaves="3" type="noise" result="noise"></feTurbulence><feDisplacementMap in="SourceGraphic" in2="noise" scale="2"></feDisplacementMap></filter><linearGradient id="rainbowGradient" x1="0%" y1="0%" x2="100%" y2="0%"><stop offset="0%" style="stop-color: rgb(165, 42, 42);  stop-opacity: 1"></stop><stop offset="50%" style="stop-color: rgb(220, 208, 186);  stop-opacity: 1"></stop><stop offset="100%" style="stop-color: rgb(44, 34, 43);  stop-opacity: 1"></stop></linearGradient></defs><title>That&#39;s an ugly face</title><desc>CREATED BY XUAN TANG, MORE INFO AT TXSTC55.GITHUB.IO</desc><rect x="-100" y="-100" width="100%" height="100%" opacity="1" fill="rgb(255, 253, 208)"></rect><polyline id="faceContour" points="75,2,75,3,75,1,75,3,75,6,74,6,74,7,74,9,74,10,73,12,74,13,74,13,73,17,72,17,72,19,71,21,71,21,71,23,71,23,70,26,70,27,69,29,68,31,68,32,68,32,67,34,66,36,66,37,66,36,64,39,64,41,64,40,63,42,62,43,63,43,61,46,61,46,60,47,60,48,58,51,58,51,58,50,56,53,56,53,55,55,53,58,55,55,53,58,53,58,52,58,50,61,51,61,49,63,47,65,47,64,46,66,46,66,45,67,43,68,42,69,42,70,40,71,39,72,39,73,38,73,37,74,36,75,34,76,33,77,33,77,32,77,31,78,31,78,30,79,28,80,28,80,26,81,24,82,22,83,22,83,23,82,21,83,20,84,19,84,17,85,17,85,15,85,14,86,13,87,11,87,10,87,10,87,10,87,8,88,6,88,5,88,6,88,3,88,3,88,1,88,0,88,-1,88,-3,88,-4,88,-4,88,-5,88,-6,88,-8,88,-8,88,-9,88,-11,88,-12,87,-12,87,-14,87,-15,87,-16,86,-18,86,-17,86,-20,85,-21,85,-20,85,-22,84,-24,84,-26,83,-26,83,-28,82,-28,82,-28,82,-31,80,-32,80,-33,79,-33,79,-34,78,-35,78,-38,76,-36,77,-38,76,-39,75,-40,74,-41,74,-42,73,-42,73,-43,71,-44,71,-44,71,-46,69,-48,67,-49,66,-49,65,-51,64,-50,64,-51,63,-53,60,-52,61,-55,58,-55,59,-54,59,-56,57,-57,55,-57,55,-57,55,-58,53,-60,50,-61,49,-61,48,-62,47,-62,46,-62,46,-63,45,-63,43,-65,41,-65,41,-66,38,-66,38,-66,38,-67,35,-68,32,-68,33,-69,29,-69,31,-70,29,-71,26,-71,24,-71,23,-71,23,-71,22,-72,20,-73,19,-72,18,-73,15,-73,14,-74,13,-73,13,-74,11,-74,10,-75,8,-75,6,-74,6,-75,4,-75,2,-75,-1,-75,-2,-75,-3,-75,-3,-76,-5,-75,-7,-75,-9,-75,-9,-76,-13,-75,-11,-75,-15,-75,-14,-75,-18,-75,-19,-75,-19,-75,-22,-75,-21,-74,-25,-74,-26,-73,-29,-74,-28,-73,-29,-73,-32,-73,-33,-72,-34,-72,-36,-72,-35,-71,-39,-71,-39,-69,-42,-69,-43,-70,-41,-69,-43,-68,-45,-68,-46,-66,-49,-66,-50,-66,-50,-65,-52,-65,-53,-64,-54,-64,-54,-63,-56,-62,-56,-62,-58,-61,-58,-61,-59,-60,-60,-59,-62,-57,-64,-57,-63,-56,-65,-56,-65,-54,-67,-53,-68,-52,-69,-52,-70,-50,-71,-51,-71,-50,-72,-47,-73,-47,-74,-47,-74,-44,-76,-42,-77,-42,-77,-41,-78,-42,-77,-40,-78,-39,-79,-38,-79,-36,-80,-35,-81,-35,-81,-33,-82,-31,-83,-32,-82,-29,-84,-28,-84,-29,-84,-24,-85,-26,-85,-24,-85,-23,-86,-22,-86,-19,-87,-18,-87,-17,-87,-15,-87,-14,-88,-12,-88,-11,-88,-10,-88,-10,-88,-8,-88,-5,-88,-4,-88,-5,-89,-2,-88,-1,-88,1,-88,2,-88,2,-88,2,-88,5,-88,6,-88,9,-88,9,-88,10,-87,11,-87,13,-87,15,-86,17,-86,16,-86,19,-85,21,-85,21,-85,23,-85,23,-84,23,-84,25,-83,26,-83,28,-82,28,-82,31,-81,31,-81,34,-80,33,-80,34,-79,36,-79,37,-78,39,-77,40,-76,42,-75,42,-75,43,-74,44,-73,45,-72,45,-73,46,-71,48,-71,49,-70,49,-70,51,-67,53,-66,53,-66,54,-65,54,-64,54,-65,55,-63,57,-61,57,-61,58,-61,60,-58,61,-56,61,-55,62,-54,61,-55,64,-52,64,-52,65,-49,64,-50,66,-48,67,-47,67,-45,68,-44,68,-45,69,-42,69,-41,70,-39,70,-40,70,-38,71,-36,71,-35,71,-34,72,-33,72,-32,73,-29,73,-30,74,-27,73,-27,74,-25,74,-24,74,-22,74,-23,74,-20,75,-20,75,-17,75,-17,75,-14,75,-13,76,-12,75,-10,75,-9,76,-7,76,-6,76,-4,75,-4,75,-2,75,-2,75,2,75,3" fill="#ffc9a9" stroke="black" stroke-width="1.6666666666666665" stroke-linejoin="round" filter="url(#fuzzy)"></polyline><g transform="translate(43.09580416659831 -19.628830364620622)"><polyline id="rightCountour" points="-31.00986879056291,-1.0272568854328834,-30.826440307169722,-1.1935108992402714,-30.61962205449976,-1.3607185264974426,-30.38879354220521,-1.5286106844399405,-30.13341944631183,-1.6969209245691155,-29.85304713309947,-1.865385575553503,-29.547304182982668,-2.0337438861302033,-29.215895914391275,-2.2017381680062607,-28.85860290765103,-2.369113938760041,-28.47527852886414,-2.535620064742612,-28.065846453789916,-2.7010089039791256,-27.630298191725302,-2.8650364490701894,-27.168690609385532,-3.0274624700932553,-26.68114345478468,-3.1880506575039904,-26.167836881116262,-3.3465687650376617,-25.62900897063386,-3.5027887526105137,-25.162128806702473,-3.689572411515073,-24.64997685572443,-3.874551648719704,-24.092574487697032,-4.057133627819902,-23.490237714930053,-4.236730451259533,-22.843554339551755,-4.412762846047818,-22.15336187029651,-4.584663595439891,-21.42072619660593,-4.751880722449086,-20.646921008075452,-4.9138804310590745,-19.83340794727839,-5.070149811004014,-18.98181748399929,-5.22019931198486,-18.093930498908655,-5.363564993189948,-17.17166056471098,-5.499810553988045,-16.217036912797955,-5.628529151661959,-15.232188073438909,-5.749345012050894,-14.219326177540388,-5.8619148389696685,-13.18073190800678,-5.96592902827295,-12.11874008873406,-6.061112692432657,-11.035725899268497,-6.147226501496653,-9.934091703162304,-6.224067346296906,-8.816254478058232,-6.291468829775225,-7.684633835534985,-6.34930159229474,-6.5416406187455,-6.397473476805267,-5.389666065879922,-6.435929539730694,-4.231071527485383,-6.464651913446527,-3.0681787256743918,-6.483659526215778,-1.9032605432538774,-6.493007685451275,-0.7385323308068141,-6.492787530172593,0.42385628024162125,-6.483125358525737,1.5818290705414197,-6.464181836233702,2.733390443686635,-6.436151091846073,3.876632167003936,-6.399259704655794,5.009739654228753,-6.353765591151284,6.1309978020371805,-6.299956795871993,7.238796392401573,-6.238150192535579,8.331635072737981,-6.168690101304845,9.408127925813394,-6.091946828062569,10.467007641380892,-6.008315131562376,11.507129301510695,-5.918212624323806,12.527473791585251,-5.822078113139704,13.5271508489263,-5.720369885064092,14.505401761022013,-5.613563944748659,15.461601725322307,-5.5021522089960015,16.395261882570235,-5.3866406643978095,17.30603103563769,-5.267547493926064,18.193697065833277,-5.145401178345446,19.058188058650565,-5.020738578315099,19.899573150924642,-4.89410300304785,20.718063111365126,-4.7660422713950945,21.51401066643353,-4.637106771225408,22.287910583533233,-4.507847522965126,23.041131064081316,-4.377771609844062,23.77461592589698,-4.246204497925597,24.48835746172627,-4.113420330811058,25.182383530469554,-3.979687599086902,25.856755954318118,-3.8452683544125406,26.511568915890752,-3.710417423608182,27.146947355370358,-3.5753816227426705,27.763045367640576,-3.44039897122132,28.36004459942232,-3.3056979058737523,28.938152646410447,-3.171496495041741,29.497601450410308,-3.038001652667038,30.038645696474376,-2.9054083523792222,30.561561210038814,-2.7738988415835295,31.06664335406012,-2.643641855548693,26.291574358944224,-1.8645319367131759,26.16252881969401,-1.6577961188382486,26.009893825998358,-1.4516109630946807,25.83340871839065,-1.245853852061933,25.632843455230482,-1.0403971167540869,25.407998875976563,-0.835109578420469,25.15870696445978,-0.6298580903462678,24.884831112156082,-0.42450907965315743,24.586266381459534,-0.21893008909991674,24.262939768955263,-0.012991318883042488,23.914810468692416,0.19343283156261817,23.54187013545717,0.4004622217632565,23.14414314804571,0.6082094284054791,22.721686872537173,0.8167782035356885,22.274591925566643,1.0262619327594638,21.802411957219928,1.2366737662295497,21.304280378223474,1.4481715804242787,20.779768802914948,1.6610150647434334,20.228563303318257,1.8754072281546597,19.650463559519096,2.091493771960579,19.045381823998756,2.309362568835793,18.413341697960202,2.5290432596458823,17.754476717680802,2.7505069795605412,17.06902874892587,2.9736662249729062,16.357346187457257,3.1983748727372476,15.61988196367123,3.424428363237106,14.857191349399889,3.651564058795967,14.069929564910279,3.8794617889426313,13.258849184135494,4.107744594043357,12.424797336172004,4.335979678812891,11.568712701077356,4.563679587216514,10.691622298002573,4.790303610275195,9.794638063693405,5.015259438285968,8.878953219394738,5.237905068969665,7.945838424192274,5.457550983058076,6.996637712825846,5.6734625988326925,6.032764216008477,5.8848630171271,5.055695661285517,6.090936068305176,4.066969652467977,6.290829672727166,3.068178725674392,6.483659526215778,2.0609651800153665,6.668513122034389,1.0470156809550732,6.844454120889476,0.02805563438390868,7.010527080469394,-0.9941566705634459,7.165762556031607,-2.01783615191034,7.309182583550474,-3.0411772604266285,7.439806556937705,-4.062360542369046,7.556657510847632,-5.079559441339285,7.65876882057933,-6.090947341225542,7.745191330587784,-7.094704852193271,7.815000923116157,-8.089027341690983,7.867306538461304,-9.072132712436764,7.901258658384597,-10.042269429351407,7.916058264180236,-10.997724797403809,7.910966280913112,-11.936833492334497,7.885313519338339,-12.857986346223,7.838511127014584,-13.759639389864862,7.770061560123291,-14.640323153924026,7.679570087505898,-15.498652230826462,7.566756838431221,-16.3333350993607,7.4314694056050055,-17.14318421395107,7.273696014933883,-17.927126360569495,7.093579273555736,-18.68421328125147,6.891430507648662,-19.41363256918213,6.667744701530589,-20.114718836318126,6.423216049561699,-20.79089228535472,6.296214170309904,-21.450305114726522,6.159150517735977,-22.092421212214067,6.012386833755606,-22.7167185893443,5.85634187809632,-23.322690403819575,5.691493376448763,-23.9098459819466,5.518379968617962,-24.477711841065517,5.337603156674616,-25.025832711978833,5.149829253106355,-25.55377256138043,4.955791328969026,-26.061115614284585,4.756291162037964,-26.547467376454946,4.5522011849592685,-27.01245565683355,4.344466433401077,-27.45573158996977,4.13410649420484,-27.87697065844938,3.9222174535365983,-28.275873715323513,3.709973845038259" fill="white" stroke="white" stroke-width="0" stroke-linejoin="round" filter="url(#fuzzy)"></polyline></g><g transform="translate(-31.931117258430763 -25.205810333253712)"><polyline id="leftCountour" points="28.03344319432439,-1.9393736276733644,27.82183313650399,-2.1437246806026997,27.58831680790979,-2.349254630033082,27.332405502783352,-2.5558135701577087,27.053681650736507,-2.763239698659509,26.751796748776194,-2.9713599123824013,26.426469293329223,-3.179990403002553,26.0774827122672,-3.388937252699643,25.704683296931282,-3.5979970298281123,25.30797813415702,-3.806957384588432,24.887333038299197,-4.015597644698355,24.442770483256638,-4.223689411064179,23.974367534497052,-4.43099715345201,23.482253781081834,-4.63727880615901,22.966609267690927,-4.842286363684663,22.427662426647608,-5.045766476402041,21.943320720278606,-5.270586921488952,21.418210076843486,-5.496715579203943,20.852338263232383,-5.723430088564092,20.245968671715218,-5.949975119597361,19.599601463158507,-6.175570728692768,18.913955297232704,-6.399420234750293,18.189949641309816,-6.620717626600041,17.42868764975101,-6.838654512160159,16.631439605283617,-7.052426619803037,15.799626914167629,-7.261239862399325,14.93480664685087,-7.464315974509236,14.038656615812904,-7.660897733190719,13.11296098229709,-7.850253772893951,12.159596383630593,-8.031683004911727,11.18051857283189,-8.204518651855214,10.17774956220558,-8.368131907624623,9.153365262624021,-8.521935233344298,8.109483610195571,-8.665385299731735,7.04825317201901,-8.79798558637007,5.971842222723868,-8.919288648353543,4.882428283496283,-9.028898060775422,3.782188115290081,-9.126470051527988,2.673288157922716,-9.211714832883978,1.5578754067557536,-9.28439764232914,0.4380687186595713,-9.34433950311529,-0.6840494610381205,-9.391417715003481,-1.8064409589201729,-9.425566085666766,-2.9271193294647544,-9.44677491322204,-4.044156914947214,-9.45509073036055,-5.155691517559445,-9.450615820546528,-6.259932692047058,-9.433507516753497,-7.355167667164707,-9.403977293207767,-8.43976690424992,-9.3622896606086,-9.512189301215717,-9.308760875294617,-10.570987050262445,-9.243757472825934,-11.614810157609082,-9.167694636451543,-12.642410633544351,-9.081034410931455,-13.652646361098054,-8.984283772183154,-14.644484651632894,-8.877992563221817,-15.617005495657132,-8.762751306863873,-16.569404517158418,-8.639188905663412,-17.500995639759182,-8.507970239550914,-18.411213472993815,-8.369793671643894,-19.2996154270081,-8.22538847269889,-20.165883563981097,-8.075512174674394,-21.00982619456999,-7.920947863874173,-21.83137922767803,-7.762501424140579,-22.630607281846068,-7.600998740567271,-23.407704566567936,-7.4372828742009185,-24.162995541830096,-7.272211218201437,-24.89791448197127,-7.105052001523743,-25.61353890833428,-6.934770017917629,-26.30978281270387,-6.761773474353592,-26.986594877582473,-6.586465360896201,-27.643957364538068,-6.409242048536582,-28.28188500255192,-6.230491887024926,-28.90042387636648,-6.050593802702992,-29.499650314833165,-5.869915896336602,-30.079669779260172,-5.688814040948144,-30.64061575176031,-5.507630479649074,-31.18264862359881,-5.326692423472416,-31.70595458354114,-5.146310649205263,-32.21074450620084,-4.966778097221271,-32.69725284038733,-4.788368469313171,-26.97502253805652,-2.945886586227301,-26.69617963570076,-2.6725516581783237,-26.394246869549445,-2.398353769408579,-26.069165356340896,-2.1230864539749943,-25.720918020197466,-1.8465381948108708,-25.349528858804618,-1.5684948207051592,-24.95506220959005,-1.2887419032817027,-24.53762201590274,-1.007067153978508,-24.09735109319209,-0.7232628210270027,-23.634430395186953,-0.43712808643127954,-23.149078280074782,-0.14847146294737834,-22.641549776680694,0.14288680893747108,-22.112135850646567,0.4371123640255834,-21.561162670610113,0.7343543154295624,-20.988990874383997,1.0347428575930397,-20.394390136912932,1.338185456683382,-19.77594398091592,1.6448460472384774,-19.133833308236255,1.9551519290374788,-18.468335708777197,2.269433701041202,-17.77982271572013,2.587924472770021,-17.068756901172193,2.910759255841428,-16.335688817722485,3.237974553564734,-15.58125379138607,3.5695081664903396,-14.806168571414988,3.9051992318110207,-14.011227842455487,4.244788514512665,-13.197300604530598,4.58791896817196,-12.36532642632735,4.934136583298365,-11.516311577267723,5.282891541117942,-10.65132504384263,5.633539690696398,-9.77149443568803,5.985344367298819,-8.87800178688244,6.33747856988356,-7.972079257945007,6.689027515627679,-7.055004744013356,7.03899158938141,-6.128097394680395,7.386289705949113,-5.1927130509692505,7.72976310309413,-4.250239604925608,8.068179583165005,-3.302092287306558,8.400238221240482,-2.349708888845209,8.724574557690808,-1.3945449205702367,9.039766293052661,-0.4380687186595704,9.34433950311529,0.5182435006925807,9.636775392115165,1.4729126309161806,9.915517601936735,2.424461703734085,10.178980095216563,3.371420951379836,10.42555563024851,4.312332896885353,10.65362484558716,5.245757466959283,10.86156597224711,6.170277121976879,11.047765191395563,7.084501997602111,11.210627655435509,7.98707505256295,11.348589190377151,8.876677217100475,11.460128697394879,9.752032536612772,11.543781271467289,10.611913305014234,11.598152054997673,11.455145182331268,11.621930844312448,12.280612291055085,11.613907466934954,13.087262285772379,11.57298794753206,13.874111390594784,11.498211480431042,14.64024939890784,11.388768226604178,15.384844629960241,11.244017953018442,16.107148836814297,11.063509532247874,16.806502060178307,10.84700132024593,17.482337422641628,10.59448243017535,18.13418585783338,10.30619492019294,18.761680769025418,9.982656913086757,19.3645626117005,9.624686665663084,19.942683394606437,9.233427605780705,20.50346437935303,9.032739192637663,21.048484789956067,8.816243076702865,21.577435390430217,8.584551382064223,22.090016434050966,8.338369519474664,22.585938198246428,8.078499358253634,23.064921519489182,7.805842398188566,23.526698328188125,7.521402941436404,23.97101218358032,7.2262912644250905,24.397618808622802,6.921726789755039,24.806286624884464,6.609041258100661,25.196797287437878,6.289681900111833,25.568946219751112,5.965214608315398,25.922543148579614,5.637327109016668,26.257412638858025,5.307832134200909,26.57339462859203,4.978670593434839" fill="white" stroke="white" stroke-width="0" stroke-linejoin="round" filter="url(#fuzzy)"></polyline></g><g transform="translate(43.09580416659831 -19.628830364620622)"><polyline id="rightUpper" points="-31.76007533890078,0.522038893232426,-31.755910551597697,0.38059792995916153,-31.739789795308642,0.2353990792756411,-31.71010472938327,0.08672990702852637,-31.66535694073883,-0.06512322618753458,-31.604155467740735,-0.219875307931289,-31.525214324083212,-0.37724281681625493,-31.427350022669795,-0.5369438654121034,-31.30947909949403,-0.6986983431460347,-31.17061563751999,-0.8622280592041611,-31.00986879056291,-1.0272568854328834,-30.826440307169722,-1.1935108992402714,-30.61962205449976,-1.3607185264974426,-30.38879354220521,-1.5286106844399405,-30.13341944631183,-1.6969209245691155,-29.85304713309947,-1.865385575553503,-29.547304182982668,-2.0337438861302033,-29.215895914391275,-2.2017381680062607,-28.85860290765103,-2.369113938760041,-28.47527852886414,-2.535620064742612,-28.065846453789916,-2.7010089039791256,-27.630298191725302,-2.8650364490701894,-27.168690609385532,-3.0274624700932553,-26.68114345478468,-3.1880506575039904,-26.167836881116262,-3.3465687650376617,-25.62900897063386,-3.5027887526105137,-25.162128806702473,-3.689572411515073,-24.64997685572443,-3.874551648719704,-24.092574487697032,-4.057133627819902,-23.490237714930053,-4.236730451259533,-22.843554339551755,-4.412762846047818,-22.15336187029651,-4.584663595439891,-21.42072619660593,-4.751880722449086,-20.646921008075452,-4.9138804310590745,-19.83340794727839,-5.070149811004014,-18.98181748399929,-5.22019931198486,-18.093930498908655,-5.363564993189948,-17.17166056471098,-5.499810553988045,-16.217036912797955,-5.628529151661959,-15.232188073438909,-5.749345012050894,-14.219326177540388,-5.8619148389696685,-13.18073190800678,-5.96592902827295,-12.11874008873406,-6.061112692432657,-11.035725899268497,-6.147226501496653,-9.934091703162304,-6.224067346296906,-8.816254478058232,-6.291468829775225,-7.684633835534985,-6.34930159229474,-6.5416406187455,-6.397473476805267,-5.389666065879922,-6.435929539730694,-4.231071527485383,-6.464651913446527,-3.0681787256743918,-6.483659526215778,-1.9032605432538774,-6.493007685451275,-0.7385323308068141,-6.492787530172593,0.42385628024162125,-6.483125358525737,1.5818290705414197,-6.464181836233702,2.733390443686635,-6.436151091846073,3.876632167003936,-6.399259704655794,5.009739654228753,-6.353765591151284,6.1309978020371805,-6.299956795871993,7.238796392401573,-6.238150192535579,8.331635072737981,-6.168690101304845,9.408127925813394,-6.091946828062569,10.467007641380892,-6.008315131562376,11.507129301510695,-5.918212624323806,12.527473791585251,-5.822078113139704,13.5271508489263,-5.720369885064092,14.505401761022013,-5.613563944748659,15.461601725322307,-5.5021522089960015,16.395261882570235,-5.3866406643978095,17.30603103563769,-5.267547493926064,18.193697065833277,-5.145401178345446,19.058188058650565,-5.020738578315099,19.899573150924642,-4.89410300304785,20.718063111365126,-4.7660422713950945,21.51401066643353,-4.637106771225408,22.287910583533233,-4.507847522965126,23.041131064081316,-4.377771609844062,23.77461592589698,-4.246204497925597,24.48835746172627,-4.113420330811058,25.182383530469554,-3.979687599086902,25.856755954318118,-3.8452683544125406,26.511568915890752,-3.710417423608182,27.146947355370358,-3.5753816227426705,27.763045367640576,-3.44039897122132,28.36004459942232,-3.3056979058737523,28.938152646410447,-3.171496495041741,29.497601450410308,-3.038001652667038,30.038645696474376,-2.9054083523792222,30.561561210038814,-2.7738988415835295,31.06664335406012,-2.643641855548693,31.55420542615168,-2.51479183149478,32.02457705572041,-2.3874881226810305,32.47810260110331,-2.261854212493695,32.915139546704104,-2.137996928533871,33.33605690012981,-2.01600565670534,33.741233589327365,-1.8959515553024033,34.1310568597202,-1.7778867690977298,34.50592067134487,-1.6618436434301778,34.866224095987604,-1.5478339382926471,35.21236971432096,-1.4358480424199065" fill="none" stroke="black" stroke-width="1.6666666666666665" stroke-linejoin="round" filter="url(#fuzzy)"></polyline><polyline id="rightLower" points="-30.990798102599786,1.8864240747140508,-30.825395704855186,2.01896263835682,-30.63628613599081,2.167635175041585,-30.42345860470706,2.330375528047669,-30.18693791445965,2.505215469643011,-29.92678344103062,2.6902827529328923,-29.643088110099395,2.8837991637086544,-29.3359773748137,3.0840785722964323,-29.005608193360647,3.289524985405872,-28.652168006537643,3.498630597978864,-28.275873715323513,3.709973845038259,-27.87697065844938,3.9222174535365983,-27.45573158996977,4.13410649420484,-27.01245565683355,4.344466433401077,-26.547467376454946,4.5522011849592685,-26.061115614284585,4.756291162037964,-25.55377256138043,4.955791328969026,-25.025832711978833,5.149829253106355,-24.477711841065517,5.337603156674616,-23.9098459819466,5.518379968617962,-23.322690403819575,5.691493376448763,-22.7167185893443,5.85634187809632,-22.092421212214067,6.012386833755606,-21.450305114726522,6.159150517735977,-20.79089228535472,6.296214170309904,-20.114718836318126,6.423216049561699,-19.41363256918213,6.667744701530589,-18.68421328125147,6.891430507648662,-17.927126360569495,7.093579273555736,-17.14318421395107,7.273696014933883,-16.3333350993607,7.4314694056050055,-15.498652230826462,7.566756838431221,-14.640323153924026,7.679570087505898,-13.759639389864862,7.770061560123291,-12.857986346223,7.838511127014584,-11.936833492334497,7.885313519338339,-10.997724797403809,7.910966280913112,-10.042269429351407,7.916058264180236,-9.072132712436764,7.901258658384597,-8.089027341690983,7.867306538461304,-7.094704852193271,7.815000923116157,-6.090947341225542,7.745191330587784,-5.079559441339285,7.65876882057933,-4.062360542369046,7.556657510847632,-3.0411772604266285,7.439806556937705,-2.01783615191034,7.309182583550474,-0.9941566705634459,7.165762556031607,0.02805563438390868,7.010527080469394,1.0470156809550732,6.844454120889476,2.0609651800153665,6.668513122034389,3.068178725674392,6.483659526215778,4.066969652467977,6.290829672727166,5.055695661285517,6.090936068305176,6.032764216008477,5.8848630171271,6.996637712825846,5.6734625988326925,7.945838424192274,5.457550983058076,8.878953219394738,5.237905068969665,9.794638063693405,5.015259438285968,10.691622298002573,4.790303610275195,11.568712701077356,4.563679587216514,12.424797336172004,4.335979678812891,13.258849184135494,4.107744594043357,14.069929564910279,3.8794617889426313,14.857191349399889,3.651564058795967,15.61988196367123,3.424428363237106,16.357346187457257,3.1983748727372476,17.06902874892587,2.9736662249729062,17.754476717680802,2.7505069795605412,18.413341697960202,2.5290432596458823,19.045381823998756,2.309362568835793,19.650463559519096,2.091493771960579,20.228563303318257,1.8754072281546597,20.779768802914948,1.6610150647434334,21.304280378223474,1.4481715804242787,21.802411957219928,1.2366737662295497,22.274591925566643,1.0262619327594638,22.721686872537173,0.8167782035356885,23.14414314804571,0.6082094284054791,23.54187013545717,0.4004622217632565,23.914810468692416,0.19343283156261817,24.262939768955263,-0.012991318883042488,24.586266381459534,-0.21893008909991674,24.884831112156082,-0.42450907965315743,25.15870696445978,-0.6298580903462678,25.407998875976563,-0.835109578420469,25.632843455230482,-1.0403971167540869,25.83340871839065,-1.245853852061933,26.009893825998358,-1.4516109630946807,26.16252881969401,-1.6577961188382486,26.291574358944224,-1.8645319367131759,26.39732145776879,-2.0719344407740086,26.48009122146774,-2.2801115199086737,26.540234583348344,-2.4891613860378623,26.578132041452147,-2.6991710323144087,26.59419339528197,-2.9102146913226687,26.588857482528965,-3.1223522932779035,26.562591915799626,-3.335627924225657,26.51589281934277,-3.5500682842411324,26.44928456577666,-3.7656811456285793,26.363319512815924,-3.982453811120669" fill="none" stroke="black" stroke-width="2.2222222222222223" stroke-linejoin="round" filter="url(#fuzzy)"></polyline><!--[--><circle r="3.2612508942230805" cx="-9.964730901989874" cy="-1.9060235586989993" stroke="black" fill="none" stroke-width="1" filter="url(#fuzzy)" clip-path="url(#rightEyeClipPath)"></circle><circle r="4.299274935874311" cx="-6.205138806849198" cy="-2.588775760786603" stroke="black" fill="none" stroke-width="1" filter="url(#fuzzy)" clip-path="url(#rightEyeClipPath)"></circle><circle r="4.387245476797138" cx="-8.490426572498281" cy="-1.4769642637224183" stroke="black" fill="none" stroke-width="1" filter="url(#fuzzy)" clip-path="url(#rightEyeClipPath)"></circle><circle r="4.937954889294232" cx="-9.833212952569584" cy="0.07269025268561924" stroke="black" fill="none" stroke-width="1" filter="url(#fuzzy)" clip-path="url(#rightEyeClipPath)"></circle><circle r="3.254536876885025" cx="-7.350579765592411" cy="-1.1825153227144511" stroke="black" fill="none" stroke-width="1" filter="url(#fuzzy)" clip-path="url(#rightEyeClipPath)"></circle><circle r="3.249027796966046" cx="-10.860884202018903" cy="-2.9158553590692446" stroke="black" fill="none" stroke-width="1" filter="url(#fuzzy)" clip-path="url(#rightEyeClipPath)"></circle><circle r="3.8581904781891088" cx="-9.234674224587563" cy="-2.0543290985213205" stroke="black" fill="none" stroke-width="1" filter="url(#fuzzy)" clip-path="url(#rightEyeClipPath)"></circle><circle r="3.4288247191288606" cx="-6.676562589542614" cy="-3.545533052909778" stroke="black" fill="none" stroke-width="1" filter="url(#fuzzy)" clip-path="url(#rightEyeClipPath)"></circle><circle r="3.6878280198487228" cx="-7.853423104383079" cy="-2.188024236736191" stroke="black" fill="none" stroke-width="1" filter="url(#fuzzy)" clip-path="url(#rightEyeClipPath)"></circle><circle r="4.94584374940942" cx="-7.38615507660376" cy="-1.071520036009178" stroke="black" fill="none" stroke-width="1" filter="url(#fuzzy)" clip-path="url(#rightEyeClipPath)"></circle><!--]--></g><g transform="translate(-31.931117258430763 -25.205810333253712)"><polyline id="leftUpper" points="29.107216022865856,0.016016855268897068,29.07066147236098,-0.17134355048524774,29.021455108569704,-0.36059655506667776,28.958283133396343,-0.5517439796905277,28.879923563867195,-0.7447697923490726,28.78524416415545,-0.9396407034829877,28.67320037760591,-1.1363067616526075,28.542833258759863,-1.3347019492091832,28.393267405379937,-1.5347447779661423,28.223708890474875,-1.7363388848703498,28.03344319432439,-1.9393736276733644,27.82183313650399,-2.1437246806026997,27.58831680790979,-2.349254630033082,27.332405502783352,-2.5558135701577087,27.053681650736507,-2.763239698659509,26.751796748776194,-2.9713599123824013,26.426469293329223,-3.179990403002553,26.0774827122672,-3.388937252699643,25.704683296931282,-3.5979970298281123,25.30797813415702,-3.806957384588432,24.887333038299197,-4.015597644698355,24.442770483256638,-4.223689411064179,23.974367534497052,-4.43099715345201,23.482253781081834,-4.63727880615901,22.966609267690927,-4.842286363684663,22.427662426647608,-5.045766476402041,21.943320720278606,-5.270586921488952,21.418210076843486,-5.496715579203943,20.852338263232383,-5.723430088564092,20.245968671715218,-5.949975119597361,19.599601463158507,-6.175570728692768,18.913955297232704,-6.399420234750293,18.189949641309816,-6.620717626600041,17.42868764975101,-6.838654512160159,16.631439605283617,-7.052426619803037,15.799626914167629,-7.261239862399325,14.93480664685087,-7.464315974509236,14.038656615812904,-7.660897733190719,13.11296098229709,-7.850253772893951,12.159596383630593,-8.031683004911727,11.18051857283189,-8.204518651855214,10.17774956220558,-8.368131907624623,9.153365262624021,-8.521935233344298,8.109483610195571,-8.665385299731735,7.04825317201901,-8.79798558637007,5.971842222723868,-8.919288648353543,4.882428283496283,-9.028898060775422,3.782188115290081,-9.126470051527988,2.673288157922716,-9.211714832883978,1.5578754067557536,-9.28439764232914,0.4380687186595713,-9.34433950311529,-0.6840494610381205,-9.391417715003481,-1.8064409589201729,-9.425566085666766,-2.9271193294647544,-9.44677491322204,-4.044156914947214,-9.45509073036055,-5.155691517559445,-9.450615820546528,-6.259932692047058,-9.433507516753497,-7.355167667164707,-9.403977293207767,-8.43976690424992,-9.3622896606086,-9.512189301215717,-9.308760875294617,-10.570987050262445,-9.243757472825934,-11.614810157609082,-9.167694636451543,-12.642410633544351,-9.081034410931455,-13.652646361098054,-8.984283772183154,-14.644484651632894,-8.877992563221817,-15.617005495657132,-8.762751306863873,-16.569404517158418,-8.639188905663412,-17.500995639759182,-8.507970239550914,-18.411213472993815,-8.369793671643894,-19.2996154270081,-8.22538847269889,-20.165883563981097,-8.075512174674394,-21.00982619456999,-7.920947863874173,-21.83137922767803,-7.762501424140579,-22.630607281846068,-7.600998740567271,-23.407704566567936,-7.4372828742009185,-24.162995541830096,-7.272211218201437,-24.89791448197127,-7.105052001523743,-25.61353890833428,-6.934770017917629,-26.30978281270387,-6.761773474353592,-26.986594877582473,-6.586465360896201,-27.643957364538068,-6.409242048536582,-28.28188500255192,-6.230491887024926,-28.90042387636648,-6.050593802702992,-29.499650314833165,-5.869915896336602,-30.079669779260172,-5.688814040948144,-30.64061575176031,-5.507630479649074,-31.18264862359881,-5.326692423472416,-31.70595458354114,-5.146310649205263,-32.21074450620084,-4.966778097221271,-32.69725284038733,-4.788368469313171,-33.16573649745371,-4.61133482652526,-33.61647373964462,-4.435908186985912,-34.049763068444,-4.262296123740061,-34.46592211292298,-4.090681362581724,-34.86528651808764,-3.921220379886484,-35.248208833226855,-3.754042000443995,-35.615057400260085,-3.589245995290492,-35.96621524208523,-3.4269016795412734,-36.30207895092644,-3.2670465102232233,-36.623057576681944,-3.1096846841072954" fill="none" stroke="black" stroke-width="2.2222222222222223" stroke-linejoin="round" filter="url(#fuzzy)"></polyline><polyline id="leftLower" points="28.671250956500586,2.230391280712798,28.549182858602578,2.4190014773252444,28.407589835329297,2.6351017889630013,28.246448798913413,2.875295075662678,28.065757383576994,3.1363440940572733,27.86553341063977,3.4151683254746867,27.64581435362721,3.708840804036213,27.406656803378716,4.01458494475506,27.1481359331558,4.329771371634849,26.870344963750185,4.65191474576812,26.57339462859203,4.978670593434839,26.257412638858025,5.307832134200909,25.922543148579614,5.637327109016668,25.568946219751112,5.965214608315398,25.196797287437878,6.289681900111833,24.806286624884464,6.609041258100661,24.397618808622802,6.921726789755039,23.97101218358032,7.2262912644250905,23.526698328188125,7.521402941436404,23.064921519489182,7.805842398188566,22.585938198246428,8.078499358253634,22.090016434050966,8.338369519474664,21.577435390430217,8.584551382064223,21.048484789956067,8.816243076702865,20.50346437935303,9.032739192637663,19.942683394606437,9.233427605780705,19.3645626117005,9.624686665663084,18.761680769025418,9.982656913086757,18.13418585783338,10.30619492019294,17.482337422641628,10.59448243017535,16.806502060178307,10.84700132024593,16.107148836814297,11.063509532247874,15.384844629960241,11.244017953018442,14.64024939890784,11.388768226604178,13.874111390594784,11.498211480431042,13.087262285772379,11.57298794753206,12.280612291055085,11.613907466934954,11.455145182331268,11.621930844312448,10.611913305014234,11.598152054997673,9.752032536612772,11.543781271467289,8.876677217100475,11.460128697394879,7.98707505256295,11.348589190377151,7.084501997602111,11.210627655435509,6.170277121976879,11.047765191395563,5.245757466959283,10.86156597224711,4.312332896885353,10.65362484558716,3.371420951379836,10.42555563024851,2.424461703734085,10.178980095216563,1.4729126309161806,9.915517601936735,0.5182435006925807,9.636775392115165,-0.4380687186595704,9.34433950311529,-1.3945449205702367,9.039766293052661,-2.349708888845209,8.724574557690808,-3.302092287306558,8.400238221240482,-4.250239604925608,8.068179583165005,-5.1927130509692505,7.72976310309413,-6.128097394680395,7.386289705949113,-7.055004744013356,7.03899158938141,-7.972079257945007,6.689027515627679,-8.87800178688244,6.33747856988356,-9.77149443568803,5.985344367298819,-10.65132504384263,5.633539690696398,-11.516311577267723,5.282891541117942,-12.36532642632735,4.934136583298365,-13.197300604530598,4.58791896817196,-14.011227842455487,4.244788514512665,-14.806168571414988,3.9051992318110207,-15.58125379138607,3.5695081664903396,-16.335688817722485,3.237974553564734,-17.068756901172193,2.910759255841428,-17.77982271572013,2.587924472770021,-18.468335708777197,2.269433701041202,-19.133833308236255,1.9551519290374788,-19.77594398091592,1.6448460472384774,-20.394390136912932,1.338185456683382,-20.988990874383997,1.0347428575930397,-21.561162670610113,0.7343543154295624,-22.112135850646567,0.4371123640255834,-22.641549776680694,0.14288680893747108,-23.149078280074782,-0.14847146294737834,-23.634430395186953,-0.43712808643127954,-24.09735109319209,-0.7232628210270027,-24.53762201590274,-1.007067153978508,-24.95506220959005,-1.2887419032817027,-25.349528858804618,-1.5684948207051592,-25.720918020197466,-1.8465381948108708,-26.069165356340896,-2.1230864539749943,-26.394246869549445,-2.398353769408579,-26.69617963570076,-2.6725516581783237,-26.97502253805652,-2.945886586227301,-27.230877001083346,-3.218557571395714,-27.463887724273718,-3.490753786441624,-27.674243415966846,-3.762652162061702,-27.862177527169653,-4.034414989911964,-28.027968985377598,-4.306187525628509,-28.17194292839565,-4.578095591848275,-28.294471438159167,-4.850243181229761,-28.39597427455481,-5.1227100594737776,-28.47691960924145,-5.395549368344191,-28.537824759471096,-5.668785228688652" fill="none" stroke="black" stroke-width="2.2222222222222223" stroke-linejoin="round" filter="url(#fuzzy)"></polyline><!--[--><circle r="3.4709067240804345" cx="-15.118379062653803" cy="-6.887791618540857" stroke="black" fill="none" stroke-width="1" filter="url(#fuzzy)" clip-path="url(#leftEyeClipPath)"></circle><circle r="4.028631177816882" cx="-18.799533731130865" cy="-6.933663657022429" stroke="black" fill="none" stroke-width="1" filter="url(#fuzzy)" clip-path="url(#leftEyeClipPath)"></circle><circle r="4.958780096239189" cx="-16.22147833523905" cy="-6.089125903500609" stroke="black" fill="none" stroke-width="1" filter="url(#fuzzy)" clip-path="url(#leftEyeClipPath)"></circle><circle r="3.6049288232469547" cx="-18.86580273901495" cy="-7.305212479779717" stroke="black" fill="none" stroke-width="1" filter="url(#fuzzy)" clip-path="url(#leftEyeClipPath)"></circle><circle r="3.5352843351981544" cx="-15.084743216701632" cy="-4.860114250560271" stroke="black" fill="none" stroke-width="1" filter="url(#fuzzy)" clip-path="url(#leftEyeClipPath)"></circle><circle r="3.0376553016133756" cx="-18.556160974001024" cy="-8.093139472634576" stroke="black" fill="none" stroke-width="1" filter="url(#fuzzy)" clip-path="url(#leftEyeClipPath)"></circle><circle r="4.365853458574568" cx="-18.97701989733597" cy="-8.72085139177237" stroke="black" fill="none" stroke-width="1" filter="url(#fuzzy)" clip-path="url(#leftEyeClipPath)"></circle><circle r="3.596687335598835" cx="-16.3613608455831" cy="-8.761539895299165" stroke="black" fill="none" stroke-width="1" filter="url(#fuzzy)" clip-path="url(#leftEyeClipPath)"></circle><circle r="3.99440976334117" cx="-19.90376218549611" cy="-5.745646234494444" stroke="black" fill="none" stroke-width="1" filter="url(#fuzzy)" clip-path="url(#leftEyeClipPath)"></circle><circle r="4.489181954028175" cx="-16.311292255835493" cy="-8.852411540078469" stroke="black" fill="none" stroke-width="1" filter="url(#fuzzy)" clip-path="url(#leftEyeClipPath)"></circle><!--]--></g><g id="hairs"><!--[--><polyline points="70,-39,21.90446423038569,-61.887160950693875,19.207648937751227,-66.64007833519294,18.147807894969247,-67.33732448699718,14.638911256549765,-68.30470448946707,11.258329315645303,-69.7636550170632,9.604610392472303,-71.24439530914029,9.60097606280986,-72.65246506649927,9.928535439580859,-74.05737205149262,8.926444833437209,-75.33274326117355,5.666669217803264,-76.1834902406139,0.6281154316877929,-76.44119996890711,-4.434588313102722,-76.25923591852188,-7.365034454046863,-76.0000243535333,-6.707805422079446,-75.90978373645497,-2.39634042511243,-75.86565998824048,4.276089409392362,-75.44617454618269,11.164522126239532,-74.34103265666859,15.885159865333897,-72.80094140876375,16.667298833731483,-71.64235712202947,13.92600685336566,-71.52783751083817,11.830496933744467,-71.92184868124853,16.8085110602729,-70.599095397585,32.43899009841106,-62.7547075707036,72,-32" fill="none" stroke="rgb(165, 42, 42)" stroke-width="2" stroke-linejoin="round" filter="url(#fuzzy)"></polyline><polyline points="13,-87,10.146496047261044,-78.40128615648378,23.451451988613716,-72.66421702680385,31.420520971513852,-71.19048356685435,35.414937891298905,-70.58061213139445,36.61324788867587,-70.3452858700648,34.91781107273494,-70.66691015746859,30.918315272438683,-70.95005061028635,25.944351196289062,-70.61529541015625,21.173919325101114,-70.12292882199786,16.994412511871932,-70.73528865844186,12.643264032456043,-73.27294601956906,6.200503193074837,-77.12741268519312,-4.21551978212848,-80.51248081149926,-17.880785360817864,-81.87445735990663,-30.41880195208795,-81.05607232320381,-42,-77" fill="none" stroke="rgb(165, 42, 42)" stroke-width="2" stroke-linejoin="round" filter="url(#fuzzy)"></polyline><polyline points="61,-55,28.41912156044621,-71.12656071168273,13.309521508961378,-74.03500965833832,0.6669208581898257,-75.58745256057247,-8.387367179645585,-77.33264377958442,-11.832161920068206,-78.68027209319854,-9.110131330285565,-79.05822047407308,-2.5785818784019066,-78.43479544888923,3.042941802905308,-77.39598655211601,3.753099291885567,-76.69900031456051,-0.43959104341536115,-76.4233913426298,-5.083442299645359,-75.41609991523376,-4.251407667789819,-71.89438287914597,6.1737512990385515,-65.77087781175506,25.560777930345083,-63.05423464081136,25,-83" fill="none" stroke="rgb(165, 42, 42)" stroke-width="2" stroke-linejoin="round" filter="url(#fuzzy)"></polyline><polyline points="-57,-64,-4.3719261825593545,-58.7550412593238,7.9255093721512,-59.06269225420432,18.88178942621535,-61.17271586900028,28.19022967875935,-63.33820105437189,34.030955953003236,-64.98488780902642,37.491373930724116,-65.56986586243706,39.92624712248756,-64.88963148488673,41.11927795410156,-63.70074462890625,39.73898372366158,-63.19913750100328,34.61039724507797,-63.85539419926148,25.060416766473146,-65.21398081342099,10.645268062362447,-67.08333749417216,-7.544184671408643,-70.38676723228359,-23.518882521732476,-75.79875273675056,-26.346984709047813,-81.91202356651672,-10,-88" fill="none" stroke="rgb(165, 42, 42)" stroke-width="2" stroke-linejoin="round" filter="url(#fuzzy)"></polyline><polyline points="69,-41,60.03017179902681,-51.38584125976002,43.08852003162053,-64.71331878548517,26.850098119321828,-74.22044051988999,12.276098184287548,-79.08577466057613,-1.3926430785166155,-80.1635370913338,-12.764456287885082,-78.67995951258717,-18.391836902170425,-75.91893688228718,-15.056640625,-72.68850708007812,-2.312332572577887,-68.93435256553437,16.340879433488112,-64.18869857475465,34.351964494464426,-58.67329995868271,44.39739143103361,-54.0287821595557,40.54243477508721,-52.8646551667038,20.167990642945252,-57.4188389165638,-9.33603486894071,-68.56196769813485,-5,-89" fill="none" stroke="rgb(165, 42, 42)" stroke-width="2" stroke-linejoin="round" filter="url(#fuzzy)"></polyline><polyline points="42,-75,4.982990880828843,-79.91449709536269,6.199257013441421,-79.17335823917148,11.342906650886672,-74.24472628270438,10.064599993756694,-69.78838119187792,3.953648498003454,-68.3385792473645,-2.116521739193105,-69.68906456398234,-4.27326348929937,-72.21747983201644,-1.2336424788488056,-74.19116641694329,5.3654567194995515,-74.65809911481882,11.956533113051023,-73.80643537588452,15.574083991061032,-72.52629628672331,16.774151708756307,-71.29700804336952,20.24779063114692,-69.37582401155221,30.774844445971997,-65.5963268924895,46.01010861383049,-60.98238181508463,53.99474100366503,-61.052269486104116,45,-73" fill="none" stroke="rgb(165, 42, 42)" stroke-width="2" stroke-linejoin="round" filter="url(#fuzzy)"></polyline><polyline points="70,-40,34.038921632071606,-68.78511423596868,13.231277782751611,-77.52072365824891,-3.531750122483662,-77.13604441205315,-15.947763282376707,-74.12754762420631,-20.300852391028155,-71.99415662442303,-16.46188320463353,-71.90591720873084,-7.529711220220023,-73.31685592723636,3.2658518767929285,-74.88050298388265,14.061851501464844,-75.46993637084961,23.62173972623332,-74.8261321387528,30.16692780448883,-73.5210604804839,31.44553866380568,-72.37118463293253,26.16551571745269,-71.83096234802971,15.686055449310938,-71.92772607587429,4.406217321669604,-72.85328743649191,-2.7387027179973757,-75.52068008929301,-4.402543396869373,-80.73561645820386,11,-87" fill="none" stroke="rgb(165, 42, 42)" stroke-width="2" stroke-linejoin="round" filter="url(#fuzzy)"></polyline><polyline points="54,-65,2.131420988585597,-69.0986378499631,-7.6259579567717255,-74.41200074774218,-9.770304975877238,-77.52878619460601,-9.737302472886793,-78.70127076257137,-11.185789268127337,-78.41381977786932,-15.883123725658827,-76.98113927138654,-22.123751414845977,-74.9520199853783,-26.519007486820687,-73.1238266933232,-26.772869711378604,-72.16502409868346,-22.896902084350586,-72.2849760055542,-16.3483026174468,-73.18557728337706,-8.316677965177098,-74.21770468025838,1.1761625402683074,-74.59784261939846,12.61381806272264,-73.64438052925112,25.489311434723277,-71.01793187785643,37.46597248693391,-66.89620993854835,44.75858103346648,-62.2221998418845,41.98212508221587,-59.59385937929753,18.44928648694929,-64.02086848556478,-47,-74" fill="none" stroke="rgb(165, 42, 42)" stroke-width="2" stroke-linejoin="round" filter="url(#fuzzy)"></polyline><polyline points="26,-83,27.767348018771116,-77.42027425192957,16.535295338816344,-72.98408525786634,-1.4738673526707333,-71.96157004521758,-12.67308234964338,-72.1191462555286,-13.736799714474765,-72.4607420054847,-8.656906165848145,-72.80580547715954,-2.134929644812755,-73.29182485910164,3.5430550206718427,-74.05156274191108,7.951076507568359,-74.91630935668945,11.115667834015525,-75.36341685997063,13.106509702833504,-74.80585740998121,14.146002376244997,-72.9817007561518,13.991133689491528,-70.09069533418166,10.843807695038864,-66.56263221220574,2.1559186675230553,-62.67206751551054,-9.527847138810648,-58.058768055246574,-3.728557370707957,-50.21839067905326,72,-32" fill="none" stroke="rgb(165, 42, 42)" stroke-width="2" stroke-linejoin="round" filter="url(#fuzzy)"></polyline><polyline points="-35,-81,12.99990612815083,-73.36740982381994,13.248109450216576,-73.96480092576883,5.69469570530324,-76.47203313078278,5.977161192068337,-77.44237206052175,14.279198944785227,-75.48160375763717,24.86972347678451,-71.3378880339119,31.99016092789323,-66.90158929838805,33.225036239913216,-63.74959974184587,30.515561034183413,-62.260438589159044,28.47747455927605,-61.764110205827144,30.89355757131337,-61.389208090652794,37.911713532156114,-60.72260010246248,46.44557726690612,-59.54728782487411,53.43489693514012,-57.08667726417383,57.75469878775829,-53.00281432888835,56.24463576406625,-53.05097317744097,36,-79" fill="none" stroke="rgb(165, 42, 42)" stroke-width="2" stroke-linejoin="round" filter="url(#fuzzy)"></polyline><polyline points="40,-76,3.744208927121104,-79.1487521977775,-0.4321457723331328,-79.0735633656746,-1.6966907176757382,-75.78726210726983,-3.211992548080161,-72.57285885931924,-4.853239460553071,-70.94733911330432,-5.770940210400813,-70.02488892390016,-4.323671155035109,-68.71752057094493,-0.1504669189453125,-67.45974731445312,4.347300312549557,-67.88076921684065,5.596678739447025,-71.11675190435841,2.228445596248918,-76.52597142605214,-3.521984786959365,-81.98298411490396,-8.597093304702975,-85.37469888992783,-13.708835522874342,-85.72786729278738,-24.411738234388295,-82.62145559144929,-47,-74" fill="none" stroke="rgb(165, 42, 42)" stroke-width="2" stroke-linejoin="round" filter="url(#fuzzy)"></polyline><polyline points="28,-82,26.40499267217193,-82.08219218496659,22.79128515735269,-80.50814867237028,13.131648422728022,-79.74840700060136,1.8099696148177704,-80.10526624177669,-6.687204391857836,-80.50845023725161,-11.53098002804531,-80.13858332437995,-13.75921452543614,-78.95029500161262,-14.098527105994858,-77.39738566718712,-12.776955520857152,-75.8963530472308,-10.287165515622213,-74.4648028697273,-7.413792425399017,-72.76792107551665,-4.461725422932087,-70.52196944722053,-1.0472119233587645,-67.95799957120107,2.7250389369374712,-65.98243253909507,4.751571583272169,-65.84247470519999,1.0795183758282367,-68.4254809006245,-11.23868093647381,-73.47886000197074,-28.233253109852377,-78.8430715583032,-33,-82" fill="none" stroke="rgb(165, 42, 42)" stroke-width="2" stroke-linejoin="round" filter="url(#fuzzy)"></polyline><polyline points="-10,-88,-0.5838135795240296,-75.22019489633313,12.625812229450352,-69.09069325787468,16.714649222676496,-70.43201170391045,17.862779334728693,-71.6004768408688,16.569991080156854,-70.86214838523945,10.643478414295037,-70.23168388792318,0.9038784843632596,-71.15659089297826,-8.362326893517395,-73.03075720903027,-12.659797377187841,-74.3261691240448,-9.978654820189446,-74.30131284564045,-0.9489855646749266,-73.69089937578033,11.784931770040327,-73.95595079516158,22.25564432121434,-75.75796047531561,18.707117053754967,-78.75929303410736,-19,-87" fill="none" stroke="rgb(165, 42, 42)" stroke-width="2" stroke-linejoin="round" filter="url(#fuzzy)"></polyline><polyline points="64,-52,61.780230921251125,-52.27922138992515,55.918655561686535,-55.767283020686186,47.692818626885895,-57.7103489532423,37.05271286889911,-61.20595349697396,26.7597373176321,-66.60832137962767,18.48212530349923,-71.83256100081785,11.741197280630509,-74.99873890972516,6.114990234375,-75.71798706054688,2.7932359371144106,-74.88704118493723,3.146966504334557,-73.88709027323608,5.838156121697045,-73.75725922322776,6.507743399590254,-74.50447877077386,2.7531506558696237,-74.77005723990779,1.805163445577307,-72.11691599029433,21.74898547308154,-62.56742316822371,72,-32" fill="none" stroke="rgb(165, 42, 42)" stroke-width="2" stroke-linejoin="round" filter="url(#fuzzy)"></polyline><polyline points="-57,-63,-7.447302424683068,-71.1476374507845,-11.546150160759728,-72.96052135116211,-22.91641215423095,-71.74683154619073,-24.09183136847166,-70.36966627618976,-13.38821796285199,-68.56519173866624,3.989413347570494,-65.88101787270548,21.457979570024143,-63.15609651429154,34.22055503437603,-61.8613486058706,40.49086873197541,-62.88235515852814,41.15704258351579,-65.95524172799742,38.506558656692505,-69.9597499370575,34.76326540546634,-73.6371165981777,31.117483655481973,-76.1786968211993,27.648821984883014,-77.35545829438216,24.04362299404826,-77.2442471210228,20.47584130513142,-75.93989746614598,17.89424273217186,-73.63458380523511,17.597562815180176,-70.92552241279489,20.87064641608259,-68.57629186583618,28.56913596766645,-66.59384350675647,35.67669844084119,-66.41633645768354,13,-87" fill="none" stroke="rgb(165, 42, 42)" stroke-width="2" stroke-linejoin="round" filter="url(#fuzzy)"></polyline><polyline points="-11,-88,-5.676543822273147,-76.2053484917927,12.987555213129948,-65.86957273483505,18.09111884972938,-62.65689088503253,15.822251443187929,-65.34614301134853,13.225319988387477,-69.71425668205893,12.231266254350922,-72.62021263438153,12.52544551488723,-73.31478190070919,13.311277207794033,-72.79948354023297,13.17095820566108,-72.49607773204434,10.432373490400522,-73.08124057475911,4.79885317249004,-73.98956477781094,-1.6133445774887727,-73.87435775361975,-5.805575251956484,-71.94853478825728,-6.72687478664273,-69.38290259315583,-4.056366919187713,-68.98896641395169,11.035849359802299,-70.76777221197622,57,-61" fill="none" stroke="rgb(165, 42, 42)" stroke-width="2" stroke-linejoin="round" filter="url(#fuzzy)"></polyline><polyline points="-23,-86,-12.859225336419327,-86.84077971229138,-9.767546274657063,-84.2532974009468,-12.780183006609414,-79.17047927609761,-14.697225014215695,-74.18859768230743,-14.297613051642202,-70.9379499079617,-15.124227064889345,-69.61701394795723,-19.229567283471674,-69.59117331787029,-24.606315893389297,-70.14088441893993,-27.53387817834906,-70.93268462678836,-25.94437743585627,-72.01990493073794,-20.2654105622407,-73.44359217553196,-11.992048294920187,-74.65198864950885,-3.5103363091252255,-74.1415272426577,-3.8521211116285112,-70.79676227314413,-52,-70" fill="none" stroke="rgb(165, 42, 42)" stroke-width="2" stroke-linejoin="round" filter="url(#fuzzy)"></polyline><polyline points="53,-66,55.35116544102534,-56.03406723696165,42.07618604761683,-64.66038685361053,28.23097167377032,-73.4787031335041,18.281236159641875,-78.47865617725019,13.275028363193133,-79.73992339730489,12.572212075463819,-78.51491942360863,13.999640625806135,-76.50255219283545,15.113095575355771,-75.01984132977583,14.918400618189368,-74.24822433134385,14.4161021852229,-73.30170940615858,15.385121008285207,-71.1615890887221,18.379437585915248,-67.74643368778952,21.659224537561297,-64.25609818053275,22.16383743089177,-62.47078491772034,18.01922250192435,-63.482805517515004,10.603471724066424,-66.81665791702332,4.237056371064279,-70.6101580212991,3.4535989157023126,-72.61149069333997,9.246326304987779,-71.33214386594686,11.740462751051204,-68.73804322140309,-33,-82" fill="none" stroke="rgb(165, 42, 42)" stroke-width="2" stroke-linejoin="round" filter="url(#fuzzy)"></polyline><polyline points="34,-80,28.41212926189664,-77.7655471405129,14.597570132202474,-77.77276273192112,10.206800293134343,-73.42902452918688,8.747100278621785,-66.915562566989,3.8780704342149566,-61.97203703390095,-2.2259650154987494,-60.272101628837895,-4.024214042219442,-61.23997381403815,0.21664251968597714,-63.69475765001479,6.89821820728115,-67.0848293301125,11.244052247324483,-71.21518036182128,12.252279621494678,-75.21324566705297,13.817373904011266,-77.24818826815078,21.323874880966187,-75.07075837448838,37.80905064959809,-64.59118301843155,72,-32" fill="none" stroke="rgb(165, 42, 42)" stroke-width="2" stroke-linejoin="round" filter="url(#fuzzy)"></polyline><polyline points="-24,-85,10.75229538999473,-63.39967931424614,18.1924805884808,-58.108660018465834,28.549055071075237,-57.239516831890484,36.50150092957862,-59.03794468203539,38.794342051563795,-62.16937021973473,36.104363335105674,-65.16543350410308,30.273964430395957,-67.27028121662181,23.315967423159503,-68.45242289344,17.30714938365634,-68.95495059601747,13.904353261084982,-68.95773958385372,13.463534731056175,-68.55218366496204,14.566801798225342,-67.93357152866207,14.672376869857667,-67.53379762855779,11.773379972358857,-67.84218721041593,5.961899063292333,-68.98841930860148,-0.4542695749885597,-70.53800709241986,-4.379274767762311,-71.84011138389417,-2.828793709084987,-72.48118869744168,8.559517464166714,-71.79435946289827,34.00109819478944,-67.79613435206572,57,-61" fill="none" stroke="rgb(165, 42, 42)" stroke-width="2" stroke-linejoin="round" filter="url(#fuzzy)"></polyline><polyline points="61,-56,1.3022944427585057,-70.47858412439946,-25.092035941079427,-71.54403592329183,-27.50305735366459,-69.94508144969048,-17.173708801234007,-67.77261650459064,-3.4663654715960455,-65.76653079399607,8.050998518563121,-64.58315292405723,15.395272281762617,-64.6645325213921,19.035479708213114,-66.05501107135542,20.299625396728516,-68.49525451660156,19.82802991347569,-71.66078178409968,17.171942533829625,-75.25468892129695,12.093706579880967,-78.8645271778592,6.459167770893941,-81.78918837060955,4.57906666669679,-83.07364741338647,10.856319652101305,-81.73626924310213,26.00308666871726,-77.06198141407718,44.5740131805263,-69.38405967308915,55,-63" fill="none" stroke="rgb(165, 42, 42)" stroke-width="2" stroke-linejoin="round" filter="url(#fuzzy)"></polyline><polyline points="53,-66,51.10545090991825,-54.17301095608181,38.13659527083526,-54.90793452090581,28.472826353466434,-54.17858016109048,24.175885503180325,-54.03097497951239,22.09119942293534,-56.24623327348223,18.817756083413386,-60.297550984357414,14.72149807769732,-64.539951241632,12.65753173828125,-67.63055419921875,13.908077941957622,-69.22245301038471,16.438806598530917,-69.81114897818966,17.34291498710838,-70.09691026550756,16.300887648947537,-70.36944332253188,15.071691091539499,-70.34172853632101,13.126774095827002,-69.6276805483232,11.882409982384933,-68.41021197342705,53,-66" fill="none" stroke="rgb(165, 42, 42)" stroke-width="2" stroke-linejoin="round" filter="url(#fuzzy)"></polyline><polyline points="-54,-67,25.631430590077034,-44.09202192771714,43.6881671792546,-43.414438887465195,34.917234947988014,-53.03122269350469,21.71426017409903,-63.92802202681428,13.12430837133027,-71.69075670906462,8.744990015228662,-75.43366106535481,5.123990408874337,-75.98764204867436,-0.08526172615552145,-74.66684721047925,-6.745536804199219,-72.7287483215332,-12.455857924206015,-71.20285331026416,-13.86134589609705,-70.83011479535162,-8.887548407384315,-71.96268379858454,1.314687620232648,-74.314336436748,12.899882443830593,-76.5617195233396,23.20992181809318,-76.03754485358742,34.938742529574306,-69.06045829779909,53.694937716067116,-52.98792999197108,72,-33" fill="none" stroke="rgb(165, 42, 42)" stroke-width="2" stroke-linejoin="round" filter="url(#fuzzy)"></polyline><polyline points="70,-40,31.593229223723608,-68.84589808194353,9.674863297937344,-77.36407420351959,-0.411991696185895,-77.65333942894809,-2.8900452444965032,-76.09178761979453,0.3162240629066759,-74.88309932151087,7.573086366838564,-73.94442043754962,15.903459962928377,-72.86850895162843,21.73014133057159,-71.82031836461799,22.801298894605104,-71.23942795889516,19.428088612363005,-71.18940594394081,13.999127068252536,-71.18115285668385,9.153057512694465,-70.61074429332838,6.089263858785396,-69.32825392034049,4.432345995611599,-67.76170101471477,3.67835632371597,-66.45845697825764,4.5135305775518795,-65.52430343556627,7.8513146746372255,-64.71974627263826,11.36472803986314,-64.43673544144494,7.416044866769917,-66.4857867571642,-7.832796689866642,-73.18790462650611,2,-88" fill="none" stroke="rgb(165, 42, 42)" stroke-width="2" stroke-linejoin="round" filter="url(#fuzzy)"></polyline><polyline points="-52,-70,-1.5490091066424811,-64.15307367904632,4.086250746991778,-69.37986533995365,8.67292570687898,-72.67354721914067,15.53891271106487,-71.57924694900586,22.699217438652305,-68.0086373826244,29.312577371373568,-64.64835375457893,34.338765592906974,-63.61873070717158,35.831096260887804,-65.91699286561087,32.217269358559236,-70.98972889307544,23.47508977513062,-76.82828148513332,10.567538509436638,-80.85554240042416,-6.028635436875788,-81.03428258837299,-26.232343081142638,-76.51415109602036,-46.92680119823217,-68.57481184645248,-56,-65" fill="none" stroke="rgb(165, 42, 42)" stroke-width="2" stroke-linejoin="round" filter="url(#fuzzy)"></polyline><polyline points="-29,-84,15.872355126575405,-72.17574269100113,19.186241673507883,-66.88201229889042,13.313279875716301,-66.34078851464902,10.500743781074574,-67.24901548386846,8.20808550677332,-68.93331992993605,3.26171661132304,-71.12800012412697,-3.0144342822643284,-73.04127367233357,-7.022555498227562,-73.8687266888295,-6.873508565144973,-73.39629393619718,-4.238112408678753,-72.1847295438034,-2.863733208259188,-71.31073065147676,-4.941040178176952,-71.61387988494495,-8.258280337301159,-72.64988697987934,-7.3783364277063885,-72.14558875660622,-0.08656610771962026,-67.16037423733317,1.529207894064868,-58.95323783194956,-54,-67" fill="none" stroke="rgb(165, 42, 42)" stroke-width="2" stroke-linejoin="round" filter="url(#fuzzy)"></polyline><polyline points="23,-84,1.4410151998972185,-70.28840360585251,4.605493208721123,-65.06719353179254,7.881808047177441,-68.3389730980072,11.568030187079032,-73.6529858195759,14.187656057333031,-77.50260803085062,14.091785104323703,-78.93695146309113,12.09391149359009,-78.04724065316522,10.682473460268675,-75.39253829025226,11.544437408447266,-71.89000701904297,14.161374567684206,-68.45746437381653,16.93806824294953,-65.4069536511354,19.775070737159698,-62.185502450284716,25.061271750097905,-57.9843975612883,34.91438573789133,-53.03507414712732,46.62015396060567,-49.572257012385904,52.72216317415277,-50.897007647055865,51.686309025284615,-56.09027013251714,68,-44" fill="none" stroke="rgb(165, 42, 42)" stroke-width="2" stroke-linejoin="round" filter="url(#fuzzy)"></polyline><polyline points="54,-64,61.614353866891555,-52.66458319284792,57.30718191183141,-50.63235676530476,41.77634839091789,-55.112347586882656,21.891492616401035,-62.292374214490756,5.520793384529077,-68.78310752798639,-3.3273347674214158,-73.05983290553482,-4.723490303555771,-74.97999964518628,-0.7834159737832409,-74.93799945997303,6.106595527542321,-73.46734290451802,13.961380609942793,-71.21423634797395,21.134387827014233,-68.93574099189178,26.157513252095764,-67.36170831109774,27.84385012154248,-67.00051177307311,25.66728386541782,-68.01416224330963,20.183502475788693,-70.18655345415591,13.12403044647475,-72.95112484974685,6.903856444673802,-75.50781413267305,3.7422753989757878,-77.1009479860271,5.07829657910093,-77.3501819731046,11.720066130955884,-76.2110838147956,24.06547610344726,-73.34741699981046,40.788271034304394,-68.59738456146432,49,-70" fill="none" stroke="rgb(165, 42, 42)" stroke-width="2" stroke-linejoin="round" filter="url(#fuzzy)"></polyline><polyline points="64,-52,11.751113727489074,-58.74769701981442,7.383656459612933,-65.16856183897737,7.69160785134081,-69.6121119541263,10.264614849375555,-70.80945510141157,15.575881181988734,-69.79358700392913,21.87589731646175,-68.10757334178923,26.521250507270192,-67.05647752118588,27.88997027385171,-67.3312205770585,26.574461713422544,-68.69084922965388,24.992918014526367,-70.11289978027344,25.609844323926133,-70.48818983823926,29.191886209071882,-69.32861422803896,34.54272831572505,-66.91972848188065,39.836229261440394,-63.87962867171918,44.21283117461098,-60.590487491142994,47.99975997020377,-57.00929749366203,50.838217911136084,-53.095217087680005,48.01335427299167,-49.946420112108925,25.32641488501503,-51.855816651684776,-50,-72" fill="none" stroke="rgb(165, 42, 42)" stroke-width="2" stroke-linejoin="round" filter="url(#fuzzy)"></polyline><polyline points="-64,-54,-40.46787501241937,-71.58273704466527,-25.934885567052,-75.9126462440395,-12.00227220033989,-74.21742841679877,-0.160329347596152,-69.45445462674468,8.557971841234549,-64.8731437184195,14.228760927453548,-62.599528656700734,17.10073183201401,-62.903273188431335,17.23060878117888,-64.8487001705737,14.83439850373414,-67.3416991594394,10.763451409911525,-69.72749360113262,6.494553711790599,-71.78962115922941,3.4876074323766346,-73.48940948072804,2.420477312267573,-74.79163356690151,3.0704697983159748,-75.6490558523433,5.066365561963531,-76.0218708852014,8.764113292982742,-75.83611144601983,15.137941790408355,-74.91130186942898,24.502910213810846,-72.9345082453826,35.363312677509256,-69.55523133788367,44.73527467378026,-64.87069084413186,48.74198454734225,-61.002956023531134,39.760736031629115,-64.98468500185791,1,-88" fill="none" stroke="rgb(165, 42, 42)" stroke-width="2" stroke-linejoin="round" filter="url(#fuzzy)"></polyline><polyline points="-19,-87,-15.291406184157806,-81.44199683704474,-10.094888082782028,-76.80732595647179,-6.639578808752952,-72.37622939289544,0.7141290745173379,-68.69676923698604,10.584685259099388,-66.44504760679683,19.940083494771738,-65.2499439009171,27.501505901776213,-64.23798904302474,33.33628013734909,-63.048193191528114,37.60306359285901,-62.11756115864107,40.12961673736572,-62.17628765106201,40.68331360436627,-63.6160761922824,39.2433363471472,-66.27899807399096,36.004387056774576,-69.64055188017554,31.271718764047044,-73.00075367667318,25.414362795964735,-75.47324323303019,19.067980446730697,-75.96107739963982,14.25687718281189,-73.36880731725067,17.01620593221807,-66.87747533926046,37.94150445632433,-55.41607954492132,71,-34" fill="none" stroke="rgb(165, 42, 42)" stroke-width="2" stroke-linejoin="round" filter="url(#fuzzy)"></polyline><polyline points="-42,-77,-39.3097369107363,-77.94044578185328,-31.929346319454652,-78.02402554503111,-16.894164194638964,-77.46094101537,-1.1420375910071827,-76.07923708344265,7.995486797122821,-74.62441773625999,7.293064908181633,-73.3336439938448,-1.7929526567516645,-71.8643240614669,-14.780796171154787,-69.97357383017204,-26.399415208207436,-67.88751068959395,-32.38625943208501,-66.11271375163807,-30.535313321346134,-65.02337400901374,-21.08566898177682,-64.63569513893002,-6.547139190732588,-64.73934853665901,9.081999283503851,-65.23930971779284,21.696279383986138,-66.37165665905887,28.704134121745945,-68.52033316534933,30.131057656514145,-71.67758664709504,28.406534348709897,-74.97327553256447,26.624305213912173,-76.80019590612415,26.151308336937586,-75.62337169065722,24.97123171537461,-71.0284478676784,14.732306595348996,-65.94455078008318,-40,-78" fill="none" stroke="rgb(165, 42, 42)" stroke-width="2" stroke-linejoin="round" filter="url(#fuzzy)"></polyline><polyline points="-44,-76,22.577497482892902,-61.66137449832134,43.42444482409602,-59.75242056224744,48.73996933224602,-60.100737843265186,49.543465072512774,-60.31500648170299,49.171658611768756,-60.33445826676404,48.186844516253906,-60.67053419106308,46.71331073752468,-61.28185188270269,44.92699272711618,-61.64301610915597,42.758588167045765,-61.4347663623367,39.641901166317396,-61.00042879915547,34.72332237362069,-61.16806209015813,27.537781122170333,-62.56733651102404,18.713665564049855,-64.9311430667831,10.12036847968374,-66.92897662358217,4.309356102873603,-66.76654614675883,3.6216424609718993,-63.32745004349667,8.939451861022988,-57.4243189629953,17.066768091684178,-52.75036632628588,17.50942542166623,-55.59119596025601,-1.6593173788876214,-70.51365222625927,-18,-87" fill="none" stroke="rgb(165, 42, 42)" stroke-width="2" stroke-linejoin="round" filter="url(#fuzzy)"></polyline><polyline points="57,-61,33.66036777566416,-68.34775461460441,5.840687376759361,-72.27162670266432,-7.179649789286913,-74.13725823131755,-7.478991637825073,-74.61353357157614,-1.951834057970191,-73.48149265739787,3.9192253646171036,-71.53251657486221,7.105021706743079,-70.14193021340662,6.950933004563043,-70.12113178542874,4.575981936008066,-71.23938453521772,1.863033339684811,-72.5959904630806,0.5430383682250977,-73.36080622673035,1.6669959042652442,-73.33733129328444,5.358817446759036,-73.0317017271897,10.75369964832145,-73.22595306650008,16.23311439896088,-74.36046045686496,19.96876329289681,-76.20001403840953,20.50009049066758,-78.09121809036235,17.211314018751576,-79.553177704666,11.146527762667494,-80.35986730226594,6.578326871501088,-79.45427653941596,13.630888819883129,-73.31343600244169,61,-55" fill="none" stroke="rgb(165, 42, 42)" stroke-width="2" stroke-linejoin="round" filter="url(#fuzzy)"></polyline><polyline points="61,-56,16.548030390992732,-60.89296234126904,19.43156735765467,-64.83808300408435,24.59741550949557,-70.45453856089189,26.474022154357566,-74.75986924008338,26.176355659280556,-76.41187258516001,25.051972099581146,-75.58034581636176,23.559792256559962,-73.35032669927494,21.285097232963896,-71.14882784476352,17.612385730101206,-70.05879120474054,12.577428429042092,-70.27825433432156,7.161804773297496,-71.06831266570721,2.770544469356537,-71.24071735143661,0.3798652449723513,-69.88892582027952,0.08486183714957576,-66.92986129030213,1.347575323108059,-63.1480875749934,3.6252584288254117,-59.718808729024914,6.784530126977152,-57.49352381885012,10.882768410774158,-56.53414631054696,15.297784356789558,-56.34390664340089,17.77197712604019,-56.834057548541374,15.04966860501936,-59.24863781034409,8.094930535647212,-65.30856744640396,12.107262204942689,-72.63623076292961,51,-67" fill="none" stroke="rgb(165, 42, 42)" stroke-width="2" stroke-linejoin="round" filter="url(#fuzzy)"></polyline><polyline points="-19,-87,-27.973342094440017,-79.02935530242597,-22.715853963693544,-79.81974448836174,-18.676333230424394,-80.95069313597337,-14.780421170616654,-80.33901431117856,-7.641737481648555,-77.56880156131588,3.9453994236221144,-73.34008375328861,17.82221145786318,-69.08410847816684,30.280833922198717,-66.10594852782393,38.66089630126953,-64.80605697631836,42.34413733773174,-64.65627573360767,41.8263018915687,-64.92555802472289,37.45376246479313,-65.39239017634918,29.392618514413673,-66.3160952333343,18.673524992340244,-67.88794004161248,7.852513668593946,-70.18176546711337,1.355674520046429,-73.72092470482356,8.487131529320003,-78.04728336801887,42,-75" fill="none" stroke="rgb(165, 42, 42)" stroke-width="2" stroke-linejoin="round" filter="url(#fuzzy)"></polyline><polyline points="61,-55,40.88385653091644,-68.00753415025113,40.56441935023414,-67.86115487513645,41.11877812914604,-66.2595515405959,41.98818064969909,-64.28684751949461,42.28693573765065,-62.62680466729093,40.11922088320276,-61.7816583093295,35.27082720478195,-61.52690860480887,29.732539864873143,-61.4178225814829,26.235171564099772,-61.321246108856855,26.55120492035502,-61.340067024563474,30.718069448912157,-61.46753353725645,37.28581709306008,-61.50551193256882,44.09052986081598,-61.317665953445086,48.99457793146185,-61.08342147507503,50.226195830462366,-61.27787591556186,46.256377171793496,-62.399509169715415,35.700735382115425,-64.55471396145221,18.557327565518392,-66.85502346656689,0.7531934597678518,-66.59644709251015,3.3338679858942264,-58.36607262553928,72,-33" fill="none" stroke="rgb(165, 42, 42)" stroke-width="2" stroke-linejoin="round" filter="url(#fuzzy)"></polyline><polyline points="-56,-65,1.1038051378022458,-74.37733234089144,26.988426352447814,-74.42922538283405,40.36320180461369,-70.09099663957836,47.951218297472224,-64.80921668699011,50.623258788186284,-61.48629548970162,47.23485207494045,-61.56639027268842,37.133147483748324,-64.71490611016765,21.700546264648438,-69.37069702148438,4.749022128040491,-73.65783638751148,-8.520667814768931,-76.241446917663,-13.71055253905802,-76.87686337582662,-9.543997640023008,-76.41208837321028,1.265508625188982,-75.8924583077545,14.751339360753345,-74.25201767136026,33.73229725379483,-64.32401598486771,73,-29" fill="none" stroke="rgb(165, 42, 42)" stroke-width="2" stroke-linejoin="round" filter="url(#fuzzy)"></polyline><polyline points="46,-71,2.2875561402982334,-79.96387852711545,-11.440746371655264,-82.97038083795746,-17.132035292806382,-83.07765210994377,-22.32302714595544,-81.4461459382417,-26.146622308546036,-79.23362374512689,-26.56488289709729,-77.27146920607657,-23.510730506817147,-75.87450699744754,-18.49302043325184,-75.00296398438282,-12.87511007578824,-74.44356705231309,-6.842294890307292,-73.86481634367264,0.21953511238098145,-72.8683922290802,8.564153830650323,-71.17500937934992,17.238009718354395,-68.89490915634212,24.140874261895547,-66.67036194770303,26.8343855673838,-65.48536898144305,23.60769529047011,-66.10666435538771,14.447273026968203,-68.40519957232279,1.7823450360438835,-71.14845039712395,-9.03162824267034,-72.94825333665068,-10.014960037308812,-74.27084081712086,4.047951378108827,-78.51472488217553,9,-88" fill="none" stroke="rgb(165, 42, 42)" stroke-width="2" stroke-linejoin="round" filter="url(#fuzzy)"></polyline><!--]--></g><g id="pointNose"><g id="rightNose"><!--[--><circle r="1.5453118548767741" cx="7.507023068220933" cy="11.134849243382003" stroke="black" fill="none" stroke-width="1" filter="url(#fuzzy)"></circle><circle r="1.3458545055433913" cx="10.910641180564" cy="11.140617091798248" stroke="black" fill="none" stroke-width="1" filter="url(#fuzzy)"></circle><circle r="2.8728636547043735" cx="8.800984351037883" cy="13.443556446394323" stroke="black" fill="none" stroke-width="1" filter="url(#fuzzy)"></circle><circle r="1.1029420796183156" cx="10.595161215891117" cy="13.520941271986748" stroke="black" fill="none" stroke-width="1" filter="url(#fuzzy)"></circle><circle r="1.6733935001811344" cx="8.182570938800374" cy="13.125707606488993" stroke="black" fill="none" stroke-width="1" filter="url(#fuzzy)"></circle><circle r="1.7392491989082344" cx="7.1397909421875525" cy="11.958382480253235" stroke="black" fill="none" stroke-width="1" filter="url(#fuzzy)"></circle><circle r="1.867957052332652" cx="7.073953063575603" cy="12.04632686613726" stroke="black" fill="none" stroke-width="1" filter="url(#fuzzy)"></circle><circle r="2.1099576613190947" cx="10.718674855475683" cy="11.509778999044407" stroke="black" fill="none" stroke-width="1" filter="url(#fuzzy)"></circle><circle r="1.3572309920368537" cx="9.997733089465129" cy="14.610768080692498" stroke="black" fill="none" stroke-width="1" filter="url(#fuzzy)"></circle><circle r="2.716822780208884" cx="10.031749358157036" cy="11.898388329864948" stroke="black" fill="none" stroke-width="1" filter="url(#fuzzy)"></circle><!--]--></g><g id="leftNose"><!--[--><circle r="2.266248859098898" cx="-9.965481495485726" cy="5.67484172456427" stroke="black" fill="none" stroke-width="1" filter="url(#fuzzy)"></circle><circle r="2.2410395398304805" cx="-11.243198403598106" cy="7.655390925292023" stroke="black" fill="none" stroke-width="1" filter="url(#fuzzy)"></circle><circle r="2.0371518585859514" cx="-7.967213153935411" cy="7.866598828755823" stroke="black" fill="none" stroke-width="1" filter="url(#fuzzy)"></circle><circle r="1.270004628643759" cx="-8.616737933546613" cy="8.095655407461274" stroke="black" fill="none" stroke-width="1" filter="url(#fuzzy)"></circle><circle r="2.458178530951578" cx="-10.291696188984766" cy="8.680043085136159" stroke="black" fill="none" stroke-width="1" filter="url(#fuzzy)"></circle><circle r="2.1021294528242604" cx="-7.855557473238827" cy="8.987956945345454" stroke="black" fill="none" stroke-width="1" filter="url(#fuzzy)"></circle><circle r="2.7317687974303615" cx="-7.755113053062722" cy="5.866239014417251" stroke="black" fill="none" stroke-width="1" filter="url(#fuzzy)"></circle><circle r="1.2042446747113131" cx="-9.235229339574552" cy="8.501083604396918" stroke="black" fill="none" stroke-width="1" filter="url(#fuzzy)"></circle><circle r="2.7988102736104867" cx="-9.200328048651011" cy="8.07531187291697" stroke="black" fill="none" stroke-width="1" filter="url(#fuzzy)"></circle><circle r="1.7939769210888559" cx="-9.83092959504881" cy="6.1876011411027125" stroke="black" fill="none" stroke-width="1" filter="url(#fuzzy)"></circle><!--]--></g></g><g id="mouth"><polyline points="-33.66970612890475,69.56668265595437,-33.422816493354176,68.58634499838705,-33.16153070007897,67.62487361852084,-32.88602451540655,66.68233228668524,-32.59647370566434,65.75878477320973,-32.29305403717974,64.85429484842378,-31.975941276280214,63.96892628265686,-31.645311189293146,63.10274284623848,-31.30133954254599,62.2558083094981,-30.94420210236614,61.42818644276522,-30.574074635081036,60.61994101636931,-30.19113290701807,59.831135800639856,-29.795552684504717,59.06183456590634,-29.38750973386835,58.312101082498245,-28.967179821436424,57.58199912074505,-28.534738713536353,56.871592450976244,-28.090362176495542,56.180944843521296,-27.63422597664144,55.510120068709696,-27.166505880301454,54.85918189687092,-26.687377653803004,54.22819409833447,-26.19701706347353,53.6172204434298,-25.695599875640436,53.026324702486406,-25.183301856631147,52.45557064583378,-24.660298772773096,51.90502204380139,-24.12676639039369,51.374742666718724,-23.582880475820367,50.86479628491524,-23.028816795380536,50.37524666872047,-22.464751115401636,49.90615758846385,-21.89085920221107,49.457592814474886,-21.30731682213627,49.029616117083044,-20.714299741504654,48.62229126661783,-20.111983726643658,48.2356820334087,-19.500544543880686,47.86985218778516,-18.88015795954317,47.52486550007668,-18.25099973995853,47.20078574061274,-17.613245651454193,46.897676679722814,-16.967071460357573,46.61560208773639,-16.3126529329961,46.35462573498297,-15.650165835697196,46.11481139179201,-14.97978593478828,45.896222828493,-14.301688996596772,45.69892381541544,-13.616050787450103,45.52297812288878,-12.923047073675688,45.368449521242525,-12.222853621600953,45.23540178080615,-11.51564619755332,45.12389867190913,-10.80160056786021,45.03400396488095,-10.080892498849044,44.9657814300511,-9.353697756847248,44.91929483774907,-8.620192108182241,44.89460795830431,-7.880551319181445,44.89178456204635,-7.1349511561722885,44.91088841930463,-6.383567385482191,44.951983300408635,-5.626575773438568,45.01513297568786,-4.8641520863688505,45.1004012154718,-4.096472090600459,45.20785179008991,-3.323711552460815,45.33754846987169,-2.5460462382773374,45.48955502514662,-1.7636519143774574,45.663935226244156,-0.9767043470885888,45.86075284349382,-0.1853793027381549,46.080071647225076,0.6101474523464165,46.3219554077674,1.4097001518377066,46.58646789545029,2.2131030294082916,46.87367288060321,3.020180318730753,47.183634133555636,3.830756253477663,47.51641542463708,4.644655067321602,47.872080524177015,5.461700993935148,48.25069320250491,6.281718266990879,48.65231722995025,7.104531120161372,49.077016376842515,7.929963787119203,49.5248544135112,8.75784050153695,49.99589511028578,9.587985497087192,50.49020223749574,10.420223007442505,51.00783956547054,11.254377266275466,51.5488708645397,12.09027250725866,52.11335990503268,12.927732964064655,52.701370457278955,13.766582870366035,53.31296629160802,14.60664645983537,53.94821117834935,15.447747966145247,54.60716888783244,16.289711622968237,55.28990319038675,17.13236166397692,55.99647785634178,17.975522322843876,56.726956656027006,18.819017833241677,57.48140335977191,19.662672428842907,58.25988173790598,20.50631034332014,59.06245556075868,21.349755810345954,59.889188598659516,22.192833063592918,60.74014462193795,23.03536633673363,61.61538740092348,23.87717986344065,62.514980705945575,24.71809787738656,63.438988307333716,25.557944612243947,64.38747397541741,26.39654430168537,65.36050148052611,27.233721179383426,66.3581345929893,28.06929947901068,67.38043708313648,28.903103434239707,68.42747272129712,29.734957278743106,69.49930527780072,30.564685246193424,70.59599852297671,31.392111570263264,71.71761622715464,32.21706048462519,72.86422216066396,33.03935622295178,74.03588009383414,33.03935622295178,74.03588009383414,32.37226559943322,73.58450208790464,31.70517497591465,73.14216454876568,31.03808435239609,72.70884446374143,30.37099372887752,72.28451882015612,29.70390310535895,71.86916460533398,29.03681248184039,71.46275880659923,28.36972185832182,71.06527841127607,27.70263123480326,70.67670040668872,27.0355406112847,70.2970017801614,26.368449987766137,69.92615951901833,25.701359364247566,69.56415061058374,25.034268740729004,69.21095204218182,24.367178117210436,68.86654080113681,23.700087493691875,68.53089387477291,23.032996870173307,68.20398825041435,22.365906246654735,67.88580091538535,21.698815623136174,67.57630885701012,21.031724999617612,67.27548906261288,20.364634376099044,66.98331851951784,19.697543752580483,66.69977421504923,19.030453129061915,66.42483313653126,18.36336250554335,66.15847227128813,17.696271882024785,65.9006686066441,17.029181258506217,65.65139912992336,16.362090634987656,65.41064082845011,15.695000011469089,65.17837068954861,15.027909387950523,64.95456570054304,14.360818764431956,64.73920284875764,13.693728140913391,64.53225912151662,13.026637517394827,64.3337115061442,12.35954689387626,64.14353698996459,11.692456270357695,63.96171256030201,11.025365646839129,63.788215204480686,10.358275023320562,63.623021909824814,9.691184399802001,63.466109663658635,9.024093776283435,63.31745545330635,8.35700315276487,63.1770362660922,7.689912529246304,63.04482908934038,7.022821905727737,62.92081091037512,6.355731282209171,62.804958716520616,5.68864065869061,62.697249495101104,5.021550035172047,62.5976602334408,4.354459411653481,62.50616791886392,3.687368788134914,62.42274953869469,3.020278164616349,62.3473820802573,2.353187541097783,62.28004253087599,1.68609691757922,62.22070787787497,1.0190062940606546,62.16935510857847,0.3519156705420869,62.1259612103107,-0.3151749529764785,62.09050317039586,-0.9822655764950439,62.06295797615819,-1.6493562000136095,62.0433026149219,-2.316446823532177,62.0315140740112,-2.98353744705074,62.02756934075032,-3.6506280705693057,62.031445402463476,-4.317718694087871,62.04311924647487,-4.98480931760643,62.06256786010874,-5.6518999411249995,62.08976823068929,-6.318990564643565,62.12469734554074,-6.986081188162131,62.167332191987306,-7.653171811680696,62.217649757353215,-8.320262435199261,62.27562702896267,-8.987353058717824,62.341240994139895,-9.65444368223639,62.414468640209115,-10.321534305754955,62.495286954494546,-10.988624929273522,62.58367292432038,-11.65571555279209,62.67960353701087,-12.322806176310657,62.783055779890205,-12.989896799829218,62.894006640282626,-13.656987423347783,63.01243310551234,-14.324078046866347,63.13831216290355,-14.991168670384914,63.27162079978051,-15.658259293903479,63.412336003467395,-16.32534991742204,63.56043476128844,-16.992440540940613,63.71589406056788,-17.659531164459175,63.878690888629905,-18.32662178797774,64.04880223279875,-18.993712411496308,64.22620508039861,-19.660803035014872,64.41087641875374,-20.327893658533434,64.60279323518833,-20.994984282052005,64.8019325170266,-21.662074905570567,65.00827125159276,-22.329165529089135,65.22178642621105,-22.996256152607696,65.44245502820569,-23.663346776126268,65.67025404490086,-24.33043739964483,65.9051604636208,-24.997528023163397,66.14715127168974,-25.66461864668196,66.39620345643188,-26.331709270200527,66.65229400517144,-26.998799893719088,66.91539990523263,-27.66589051723766,67.1854981439397,-28.33298114075622,67.46256570861684,-29.00007176427479,67.74657958658825,-29.667162387793343,68.0375167651782,-30.33425301131191,68.33535423171085,-31.001343634830473,68.64006897351047,-31.66843425834904,68.95163797790123,-32.33552488186761,69.27003823220737,-33.002615505386174,69.5952467237531" fill="rgb(215,127,140)" stroke="black" stroke-width="3" stroke-linejoin="round" filter="url(#fuzzy)"></polyline></g></svg>