<svg viewBox="-100 -100 200 200" xmlns="http://www.w3.org/2000/svg" width="400" height="400" id="face-svg"><defs><clipPath id="leftEyeClipPath"><polyline points="30.013214989626064,0.020996925597911442,29.664739417305,-0.19511612373630705,29.28449516953431,-0.4146186364935245,28.873888271513692,-0.6361640420277999,28.4342982025355,-0.8584831047378785,27.967077947461263,-1.0803821442550117,27.473554048198125,-1.3007412556307525,26.95502665517538,-1.5185125295247754,26.41276957882092,-1.7327182723926775,25.848030341037777,-1.9424492266737916,25.262030226680572,-2.146862790978993,24.655964335032003,-2.345181240278503,24.031001631279373,-2.5366899460897105,23.38828499799103,-2.7207355966649693,22.728931286592903,-2.89672441717941,22.054031368844953,-3.064120389918748,21.287515058252907,-3.354290176418303,20.49975754690504,-3.62609494458135,19.692240187224414,-3.8785407933550093,18.866472055670386,-4.110825168165793,18.023983867237334,-4.3223246779218165,17.166322129286954,-4.512583299604698,16.295043531197596,-4.6813009642756285,15.41170956631343,-4.828322518320167,14.517881382676862,-4.953627053756261,13.615114859027164,-5.057317601430045,12.704955902548505,-5.139611180923891,11.788935964850573,-5.2008292010012855,10.868567772664845,-5.241388204413012,9.945341269739673,-5.261790950889207,9.020719766417352,-5.262617832141741,8.096136293376258,-5.244518612701549,7.172990156021227,-5.208204490415312,6.252643686005322,-5.15444047042612,5.336419186366072,-5.084038046462579,4.425596066759381,-4.99784818326089,3.52140816527421,-4.896754593944435,2.6250412533111707,-4.781667306185403,1.7376307200081893,-4.6535165109729295,0.860259432696358,-4.513246687812339,-0.006044230130898498,-4.361811000179957,-0.8603081768521461,-4.200165955058047,-1.7016182352727185,-4.0292663203743775,-2.529119623216687,-3.8500602941709374,-3.342018260673022,-3.6634849193263666,-4.139581927012657,-3.470461737656537,-4.921141266793459,-3.2718926772179104,-5.686090647669882,-3.0686561666380943,-6.433888873924204,-2.86160347029821,-7.164059759136155,-2.6515552381915253,-7.876192561507919,-2.439298264282911,-8.569942285361208,-2.2255824471936227,-9.245029852323407,-2.011117947035957,-9.901242145719598,-1.7965725322222763,-10.538431931687333,-1.5825691100729387,-11.156517660530978,-1.3696834350476506,-11.755483151832587,-1.1584419884247756,-12.335377166836052,-0.9493200232530894,-12.896312871621506,-0.7427397684005621,-13.43846719458672,-0.5390687855246146,-13.962080081752498,-0.33861847278844603,-14.46745365340878,-0.141642709147896,-14.954951265618467,0.051663366966615776,-15.42499648009568,0.2411644507485171,-15.878071945975437,0.4267860420694234,-16.314718196991592,0.6085153006648065,-16.735799357919753,0.7865544693678483,-17.141864967893937,0.9610149576779143,-17.533036321285763,1.1318073224345242,-17.909447653170787,1.298858717996417,-18.271245668320105,1.462112069168636,-18.618589070191973,1.6215252441296149,-18.95164808992341,1.7770702273582577,-19.270604015321837,1.928732292561031,-19.575648719856645,2.076509175599037,-19.866984191650843,2.220410247415105,-20.14482206247264,2.3604556869608775,-20.409383136727108,2.4966756541238864,-20.660896920447726,2.6291094626546445,-20.89960115028802,2.7578047530937266,-19.46851223772594,4.390980983810119,-19.20697611601843,4.4344032607108215,-18.933750764256658,4.476143823270562,-18.648777992811446,4.516127640403452,-18.352014702655516,4.5542793190315916,-18.04343210013034,4.590523538987203,-17.723014911713115,4.6247854879147585,-17.39076059878367,4.656991296173111,-17.046678572391407,4.687068471737618,-16.690789408022205,4.714946335102279,-16.323124060365373,4.740556454181855,-15.943723078080536,4.763833079214004,-15.55263581856459,4.784713577661411,-15.149919662718622,4.80313886911391,-14.735639229714858,4.819053860190619,-14.308734433875271,4.832718957685104,-13.86804822215617,4.844294693001276,-13.41351747664301,4.853594388310463,-12.945096032004072,4.86045151284275,-12.462754590834477,4.864719876953341,-11.966480626361248,4.866273790544021,-11.456278278372304,4.865008182592419,-10.932168248232566,4.8608386785418185,-10.39418769885019,4.853701632304237,-9.842390165456033,4.843554109629508,-9.276845483059411,4.8303738195931025,-8.697639736443223,4.814158990955407,-8.104875238561542,4.794928190145201,-7.498670543202676,4.7727200776200664,-6.8791604977808625,4.7475930993564415,-6.2464963421196185,4.719625110222074,-5.600845859089802,4.688912925983588,-4.942393582965504,4.655571800701899,-4.271341071360862,4.6197348262682105,-3.587907246610728,4.581552250833326,-2.8923288124585014,4.541190712882991,-2.1848607519139627,4.498832387712022,-1.4657769121443405,4.454674043049924,-0.7353706822616006,4.408926000590758,0.00604423013089761,4.361811000179956,0.7581329177693901,4.313562963410845,1.520538282075191,4.264425653383593,2.292879925151656,4.214651227379305,3.074752919569489,4.164498679202022,3.8657264500773825,4.1142321679413225,4.6653423213748875,4.064119229908285,5.473113326084415,4.0144288704975235,6.288521467059366,3.965429532728037,7.111016028165231,3.9173869392156027,7.940011487670646,3.870561804329434,8.774885268385319,3.8252074132858525,9.614975318681722,3.7815670649316835,10.459577518537538,3.739871374970125,11.307942904735697,3.700335436381806,12.159274709359028,3.663155833793773,13.012725205716393,3.6285075085491334,13.867392355837245,3.5965404712300906,14.722316253671497,3.567376358387089,15.576475358131736,3.5411048302268187,16.42878251011457,3.5177798060117906,17.27808072763815,3.497415533924231,18.12313877323273,3.479982492147011,18.962646487721173,3.465403117914352,19.795209884526436,3.453547361285033,20.61934599864282,3.4442280603908353,21.299705406327767,3.40945632039318,21.970713037120593,3.374101808999434,22.631275665484395,3.3379633533036452,23.280245460454736,3.3008201389661176,23.916418742518744,3.2624310718228364,24.53853474049427,3.222534139494895,25.145274348409103,3.18084577299792,25.735258882380023,3.137060208351496,26.307048837492033,3.090848848188592,26.859142644677455,3.041859623364989,27.389975427595154,2.989716354568702,27.897917759509596,2.934018113929407,28.381274420170072,2.8743385866278692,28.83828315268981,2.810225432505365,29.267113420425176,2.7411996476731098"></polyline></clipPath><clipPath id="rightEyeClipPath"><polyline points="-32.29588276277994,0.013760955309606082,-31.96490034666869,-0.16305242586585855,-31.605400396382976,-0.3425607659958101,-31.218601581143968,-0.5237559650724588,-30.805697005553146,-0.7056855597117622,-30.36785436712929,-0.8874514775265059,-29.90621611384548,-1.0682087914993943,-29.421899601666116,-1.247164474356131,-28.915997252083894,-1.4235761529385051,-28.389576709656836,-1.5967508625774798,-27.843680999545292,-1.7660438014662763,-27.279328685048903,-1.930857085033459,-26.697514025143665,-2.0906385003160217,-26.099207132018883,-2.2448802603324722,-25.485354128614194,-2.3931177584559187,-24.856877306156573,-2.5349283227871604,-24.145582142557267,-2.7689498131202868,-23.414614425413546,-2.989653477820836,-22.665147767274277,-3.196231846468298,-21.8983767416259,-3.388014544709436,-21.115513150019684,-3.564460230961987,-20.317782395871184,-3.7251487669324224,-19.506419964220935,-3.8697736185237943,-18.682668006745303,-3.9981344837097437,-17.84777203130658,-4.110130143950673,-17.00297769533127,-4.205751535728211,-16.14952770230553,-4.285075038773928,-15.288658800676846,-4.348255977568435,-14.421598884450866,-4.3955223326868555,-13.549564194772408,-4.427168658566773,-12.673756621779644,-4.443550204274645,-11.795361106020467,-4.445077233846801,-10.915543138719988,-4.432209542781004,-10.035446360188237,-4.405451167254711,-9.156190255656977,-4.365345282645976,-8.27886794783469,-4.3124692879331645,-7.404544085468708,-4.24743007254942,-6.534252827203462,-4.1708594622680275,-5.6689959200238995,-4.083409840694637,-4.809740871573014,-3.9857499429424736,-3.9574192156324957,-3.8785608180665516,-3.112924870055517,-3.7625319568329143,-2.277112586440632,-3.6383575813990143,-1.450796490835783,-3.506733093481226,-0.6347487147614084,-3.3683516775855775,0.1703018841583166,-3.2239010558777412,0.9636709126671779,-3.074060391268314,1.744719544162507,-2.9194973352894804,2.5128555335056806,-2.7608652173390658,3.267534145068524,-2.5988003718680632,4.008258994726658,-2.4339196000876564,4.7345828065107565,-2.26681776277181,5.446108084626729,-2.098065500731474,6.142487701555847,-1.9282070795364472,6.8234254029458,-1.7577583550609441,7.488676230003717,-1.5872048564289472,8.138046860102103,-1.4169999829353346,8.771395866308747,-1.2475633115189098,9.3886338965516,-1.0792790113633277,9.989723773129569,-0.9124943622019837,10.574680513280352,-0.7475183729029178,11.143571271516162,-0.5846204969097961,11.69651520443848,-0.42402944111499163,12.233683258742797,-0.2659320647408494,12.755297883124278,-0.11047236480514888,13.261632664795496,0.04224945525314627,13.753821934200428,0.19246390735135233,14.232789453952037,0.34036687950737443,14.698541273708074,0.4858494335548542,15.151096987990385,0.628815380776734,15.59048964096111,0.7691808233405988,16.016765631198776,0.9068736957340144,16.42998461647453,1.0418333061998601,16.830219418528273,1.174009878171677,17.2175559278448,1.3033640917089957,17.592093008430027,1.4298666249326808,17.953942402587064,1.5534976954602673,18.303228635692477,1.6742466018412978,18.640088920972364,1.7921112649926638,18.964673064278585,1.9070977696339393,19.266068647326236,3.536229207178235,19.108145711871487,3.584043086128798,18.939745500004584,3.6304297964669283,18.760783735503637,3.6753227740460463,18.57118557042678,3.718654820096944,18.370884634476845,3.760358450379979,18.159822084366155,3.800366244337272,17.93794565318113,3.8386111942449044,17.70520869974715,3.8750270543651144,17.461569257993112,3.9095486900984953,17.20698908631628,3.9421124271361907,16.941432716946913,3.9726564006120957,16.664866505313043,4.001120904255047,16.377257679405133,4.027448739541027,16.07857338914087,4.051585564845358,15.76800293952476,4.073776479955944,15.444621823603267,4.094179028875389,15.108221064325129,4.112621326420842,14.7585857840294,4.12894696835318,14.395495816982205,4.1430152988437925,14.018726353764261,4.154701651159289,13.628048624607235,4.163897558957097,13.223230628776903,4.170510935584956,12.804037917101358,4.174466218777314,12.370234434742162,4.175704478141611,11.921583431306718,4.174183482827453,11.457848445399716,4.169877726771671,10.978794370711938,4.162778408912262,10.484188610744344,4.152893365764214,9.973802329265627,4.1402469537502,9.44741180360121,4.124879878679154,8.904799887851873,4.106848969765711,8.345757593139968,4.086226895583513,7.770085791981437,4.06310181934539,7.1775970538815415,4.037576990903391,6.568117619252565,4.009770272861677,5.9414895187514,3.9798135981952685,5.2975728451352175,3.947852356767649,4.6362481847331924,3.914044708140211,3.9574192156324965,3.878560818066551,3.2610154796764697,3.841582016064611,2.5469953353732073,3.8032998714596493,1.8153490988124723,3.7639151852910615,1.0661023796892266,3.723636895476024,0.29931961953162123,3.6826808926229724,-0.48489216076831543,3.6412687438879083,-1.2863793970232518,3.599626322266529,-2.10493779432037,3.557982338715177,-2.9403079089942636,3.5165667744936133,-3.792170492904898,3.475609211122596,-4.660141592922544,3.4353370553492817,-5.54376739852159,3.395973656513429,-6.442518830385178,3.357736313707411,-7.355785862922574,3.3208341701230286,-8.282871573601188,3.2854659919781244,-9.222985911995215,3.2518178294159945,-10.175239181452746,3.2200605567705924,-11.13863522628331,3.1903472895905245,-12.1120643173678,3.162810675814831,-13.094295729092657,3.1375600584935546,-14.083970000510245,3.1146785074460874,-15.079590873627378,3.0942197172502985,-16.079516901723856,3.076204768955436,-17.08195272060301,3.0606187529117976,-18.084939975676107,3.0474072501101777,-18.888651878587716,3.0188445306901404,-19.6883705006001,2.9904497275383495,-20.482812133104456,2.9621378947383117,-21.270617522643104,2.9338119743923547,-22.05035001443068,2.9053623610403037,-22.82049369587534,2.8766664660781585,-23.579451540099946,2.8475882821767677,-24.325543549463262,2.8179779477005065,-25.05700489908115,2.7876713111259512,-25.77198408034776,2.756489495460556,-26.468541044456728,2.7242384626613267,-27.14464534592237,2.6907085780535,-27.798174286100863,2.6556741747492176,-28.426911056711464,2.618893118066201,-29.028542883357666,2.580106369946431"></polyline></clipPath><filter id="fuzzy"><feTurbulence id="turbulence" baseFrequency="0.05" numOctaves="3" type="noise" result="noise"></feTurbulence><feDisplacementMap in="SourceGraphic" in2="noise" scale="2"></feDisplacementMap></filter><linearGradient id="rainbowGradient" x1="0%" y1="0%" x2="100%" y2="0%"><stop offset="0%" style="stop-color: rgb(220, 208, 186);  stop-opacity: 1"></stop><stop offset="50%" style="stop-color: rgb(145, 85, 61);  stop-opacity: 1"></stop><stop offset="100%" style="stop-color: rgb(233, 236, 239);  stop-opacity: 1"></stop></linearGradient></defs><title>That&#39;s an ugly face</title><desc>CREATED BY XUAN TANG, MORE INFO AT TXSTC55.GITHUB.IO</desc><rect x="-100" y="-100" width="100%" height="100%" opacity="1" fill="rgb(135, 206, 235)"></rect><polyline id="faceContour" points="68,1,68,3,68,2,68,3,68,6,68,6,67,9,68,9,67,11,67,10,67,12,66,15,66,15,66,18,65,18,65,19,65,19,64,22,64,22,64,24,63,25,63,27,62,29,62,29,61,32,61,32,61,32,60,36,59,36,59,37,59,38,59,38,58,39,57,40,56,43,57,42,55,45,55,45,54,47,53,48,53,49,52,50,51,52,51,53,50,53,50,54,49,55,49,55,47,57,47,58,46,59,45,60,43,62,43,62,43,62,42,63,41,64,40,66,39,66,37,68,37,69,37,69,36,69,37,69,34,71,33,72,32,73,32,73,32,73,30,74,29,75,27,77,27,77,26,77,25,78,24,78,24,79,22,79,22,80,20,81,20,81,19,81,17,82,16,82,16,82,14,83,13,83,13,83,11,84,10,84,11,84,9,84,8,84,7,85,7,85,5,85,5,85,2,86,1,86,1,86,-2,86,-1,86,-2,86,-3,86,-3,86,-5,86,-5,86,-6,86,-8,86,-9,85,-10,85,-11,85,-12,85,-13,85,-13,85,-15,84,-15,84,-18,83,-16,84,-19,83,-20,83,-21,82,-21,82,-23,81,-23,81,-23,81,-25,80,-28,79,-27,79,-28,79,-30,78,-29,78,-30,77,-33,75,-33,75,-33,75,-34,75,-35,74,-35,73,-36,73,-38,71,-40,69,-40,69,-40,69,-41,68,-42,67,-42,66,-42,67,-44,65,-44,64,-47,61,-47,62,-48,60,-49,58,-47,60,-49,59,-50,57,-51,56,-52,54,-52,53,-53,52,-53,51,-55,48,-55,49,-56,47,-55,47,-57,44,-58,43,-57,44,-58,42,-59,40,-59,39,-60,37,-60,36,-60,38,-61,35,-61,34,-62,31,-62,32,-62,30,-63,28,-64,25,-64,25,-64,25,-65,22,-66,20,-65,21,-65,20,-66,17,-67,14,-66,16,-67,12,-67,10,-67,9,-68,8,-68,7,-68,5,-68,4,-68,3,-68,1,-69,-2,-69,-3,-69,-3,-69,-4,-69,-7,-69,-8,-68,-8,-68,-10,-69,-11,-69,-12,-69,-14,-69,-14,-68,-19,-68,-19,-68,-19,-68,-20,-68,-22,-68,-24,-68,-23,-67,-27,-67,-27,-67,-29,-66,-31,-66,-33,-66,-33,-66,-35,-66,-34,-65,-37,-64,-39,-64,-39,-64,-40,-63,-43,-63,-43,-63,-43,-62,-46,-61,-47,-62,-46,-61,-49,-60,-50,-59,-52,-58,-53,-58,-54,-58,-53,-57,-56,-56,-57,-56,-57,-56,-57,-53,-61,-54,-60,-53,-62,-52,-63,-52,-62,-51,-64,-50,-66,-49,-67,-47,-68,-49,-66,-47,-69,-46,-69,-45,-70,-44,-71,-42,-73,-43,-72,-41,-74,-41,-74,-40,-74,-37,-77,-37,-76,-37,-77,-35,-78,-36,-77,-34,-78,-32,-80,-32,-79,-30,-80,-29,-80,-27,-81,-27,-82,-25,-82,-24,-83,-23,-83,-23,-83,-23,-83,-22,-83,-19,-84,-18,-84,-17,-84,-14,-85,-15,-85,-12,-85,-12,-85,-11,-86,-10,-85,-9,-86,-9,-86,-5,-86,-6,-86,-4,-86,-2,-86,-3,-86,0,-86,1,-86,3,-86,4,-86,5,-86,6,-86,8,-85,8,-85,9,-85,9,-85,12,-84,12,-84,16,-83,15,-84,17,-83,18,-83,19,-82,21,-82,21,-81,23,-81,23,-81,26,-80,25,-80,27,-79,28,-79,31,-77,31,-77,32,-77,32,-76,32,-76,34,-75,37,-74,37,-73,38,-72,39,-72,39,-72,40,-71,41,-70,43,-69,42,-70,45,-68,45,-67,45,-66,47,-65,47,-65,49,-63,49,-63,50,-62,51,-60,51,-60,54,-57,53,-58,54,-57,54,-56,55,-55,55,-55,56,-54,58,-52,58,-51,58,-51,59,-50,59,-48,60,-46,61,-45,61,-44,62,-43,63,-41,62,-42,62,-42,64,-39,64,-38,65,-35,65,-36,65,-34,65,-34,66,-32,66,-29,66,-29,66,-29,67,-28,67,-26,67,-25,67,-23,68,-22,68,-19,68,-19,68,-18,68,-16,69,-14,68,-15,69,-14,69,-11,69,-10,69,-9,69,-7,69,-7,69,-5,69,-4,68,-2,69,-1,68,1,68,3" fill="#ffc9a9" stroke="black" stroke-width="1.6666666666666665" stroke-linejoin="round" filter="url(#fuzzy)"></polyline><g transform="translate(26.671212617244798 -22.139837308452694)"><polyline id="rightCountour" points="-32.29588276277994,0.013760955309606082,-31.96490034666869,-0.16305242586585855,-31.605400396382976,-0.3425607659958101,-31.218601581143968,-0.5237559650724588,-30.805697005553146,-0.7056855597117622,-30.36785436712929,-0.8874514775265059,-29.90621611384548,-1.0682087914993943,-29.421899601666116,-1.247164474356131,-28.915997252083894,-1.4235761529385051,-28.389576709656836,-1.5967508625774798,-27.843680999545292,-1.7660438014662763,-27.279328685048903,-1.930857085033459,-26.697514025143665,-2.0906385003160217,-26.099207132018883,-2.2448802603324722,-25.485354128614194,-2.3931177584559187,-24.856877306156573,-2.5349283227871604,-24.145582142557267,-2.7689498131202868,-23.414614425413546,-2.989653477820836,-22.665147767274277,-3.196231846468298,-21.8983767416259,-3.388014544709436,-21.115513150019684,-3.564460230961987,-20.317782395871184,-3.7251487669324224,-19.506419964220935,-3.8697736185237943,-18.682668006745303,-3.9981344837097437,-17.84777203130658,-4.110130143950673,-17.00297769533127,-4.205751535728211,-16.14952770230553,-4.285075038773928,-15.288658800676846,-4.348255977568435,-14.421598884450866,-4.3955223326868555,-13.549564194772408,-4.427168658566773,-12.673756621779644,-4.443550204274645,-11.795361106020467,-4.445077233846801,-10.915543138719988,-4.432209542781004,-10.035446360188237,-4.405451167254711,-9.156190255656977,-4.365345282645976,-8.27886794783469,-4.3124692879331645,-7.404544085468708,-4.24743007254942,-6.534252827203462,-4.1708594622680275,-5.6689959200238995,-4.083409840694637,-4.809740871573014,-3.9857499429424736,-3.9574192156324957,-3.8785608180665516,-3.112924870055517,-3.7625319568329143,-2.277112586440632,-3.6383575813990143,-1.450796490835783,-3.506733093481226,-0.6347487147614084,-3.3683516775855775,0.1703018841583166,-3.2239010558777412,0.9636709126671779,-3.074060391268314,1.744719544162507,-2.9194973352894804,2.5128555335056806,-2.7608652173390658,3.267534145068524,-2.5988003718680632,4.008258994726658,-2.4339196000876564,4.7345828065107565,-2.26681776277181,5.446108084626729,-2.098065500731474,6.142487701555847,-1.9282070795364472,6.8234254029458,-1.7577583550609441,7.488676230003717,-1.5872048564289472,8.138046860102103,-1.4169999829353346,8.771395866308747,-1.2475633115189098,9.3886338965516,-1.0792790113633277,9.989723773129569,-0.9124943622019837,10.574680513280352,-0.7475183729029178,11.143571271516162,-0.5846204969097961,11.69651520443848,-0.42402944111499163,12.233683258742797,-0.2659320647408494,12.755297883124278,-0.11047236480514888,13.261632664795496,0.04224945525314627,13.753821934200428,0.19246390735135233,14.232789453952037,0.34036687950737443,14.698541273708074,0.4858494335548542,15.151096987990385,0.628815380776734,15.59048964096111,0.7691808233405988,16.016765631198776,0.9068736957340144,16.42998461647453,1.0418333061998601,16.830219418528273,1.174009878171677,17.2175559278448,1.3033640917089957,17.592093008430027,1.4298666249326808,17.953942402587064,1.5534976954602673,18.303228635692477,1.6742466018412978,18.640088920972364,1.7921112649926638,18.964673064278585,1.9070977696339393,19.266068647326236,3.536229207178235,19.108145711871487,3.584043086128798,18.939745500004584,3.6304297964669283,18.760783735503637,3.6753227740460463,18.57118557042678,3.718654820096944,18.370884634476845,3.760358450379979,18.159822084366155,3.800366244337272,17.93794565318113,3.8386111942449044,17.70520869974715,3.8750270543651144,17.461569257993112,3.9095486900984953,17.20698908631628,3.9421124271361907,16.941432716946913,3.9726564006120957,16.664866505313043,4.001120904255047,16.377257679405133,4.027448739541027,16.07857338914087,4.051585564845358,15.76800293952476,4.073776479955944,15.444621823603267,4.094179028875389,15.108221064325129,4.112621326420842,14.7585857840294,4.12894696835318,14.395495816982205,4.1430152988437925,14.018726353764261,4.154701651159289,13.628048624607235,4.163897558957097,13.223230628776903,4.170510935584956,12.804037917101358,4.174466218777314,12.370234434742162,4.175704478141611,11.921583431306718,4.174183482827453,11.457848445399716,4.169877726771671,10.978794370711938,4.162778408912262,10.484188610744344,4.152893365764214,9.973802329265627,4.1402469537502,9.44741180360121,4.124879878679154,8.904799887851873,4.106848969765711,8.345757593139968,4.086226895583513,7.770085791981437,4.06310181934539,7.1775970538815415,4.037576990903391,6.568117619252565,4.009770272861677,5.9414895187514,3.9798135981952685,5.2975728451352175,3.947852356767649,4.6362481847331924,3.914044708140211,3.9574192156324965,3.878560818066551,3.2610154796764697,3.841582016064611,2.5469953353732073,3.8032998714596493,1.8153490988124723,3.7639151852910615,1.0661023796892266,3.723636895476024,0.29931961953162123,3.6826808926229724,-0.48489216076831543,3.6412687438879083,-1.2863793970232518,3.599626322266529,-2.10493779432037,3.557982338715177,-2.9403079089942636,3.5165667744936133,-3.792170492904898,3.475609211122596,-4.660141592922544,3.4353370553492817,-5.54376739852159,3.395973656513429,-6.442518830385178,3.357736313707411,-7.355785862922574,3.3208341701230286,-8.282871573601188,3.2854659919781244,-9.222985911995215,3.2518178294159945,-10.175239181452746,3.2200605567705924,-11.13863522628331,3.1903472895905245,-12.1120643173678,3.162810675814831,-13.094295729092657,3.1375600584935546,-14.083970000510245,3.1146785074460874,-15.079590873627378,3.0942197172502985,-16.079516901723856,3.076204768955436,-17.08195272060301,3.0606187529117976,-18.084939975676107,3.0474072501101777,-18.888651878587716,3.0188445306901404,-19.6883705006001,2.9904497275383495,-20.482812133104456,2.9621378947383117,-21.270617522643104,2.9338119743923547,-22.05035001443068,2.9053623610403037,-22.82049369587534,2.8766664660781585,-23.579451540099946,2.8475882821767677,-24.325543549463262,2.8179779477005065,-25.05700489908115,2.7876713111259512,-25.77198408034776,2.756489495460556,-26.468541044456728,2.7242384626613267,-27.14464534592237,2.6907085780535,-27.798174286100863,2.6556741747492176,-28.426911056711464,2.618893118066201,-29.028542883357666,2.580106369946431" fill="white" stroke="white" stroke-width="0" stroke-linejoin="round" filter="url(#fuzzy)"></polyline></g><g transform="translate(-30.45271063126354 -24.226452893342838)"><polyline id="leftCountour" points="30.013214989626064,0.020996925597911442,29.664739417305,-0.19511612373630705,29.28449516953431,-0.4146186364935245,28.873888271513692,-0.6361640420277999,28.4342982025355,-0.8584831047378785,27.967077947461263,-1.0803821442550117,27.473554048198125,-1.3007412556307525,26.95502665517538,-1.5185125295247754,26.41276957882092,-1.7327182723926775,25.848030341037777,-1.9424492266737916,25.262030226680572,-2.146862790978993,24.655964335032003,-2.345181240278503,24.031001631279373,-2.5366899460897105,23.38828499799103,-2.7207355966649693,22.728931286592903,-2.89672441717941,22.054031368844953,-3.064120389918748,21.287515058252907,-3.354290176418303,20.49975754690504,-3.62609494458135,19.692240187224414,-3.8785407933550093,18.866472055670386,-4.110825168165793,18.023983867237334,-4.3223246779218165,17.166322129286954,-4.512583299604698,16.295043531197596,-4.6813009642756285,15.41170956631343,-4.828322518320167,14.517881382676862,-4.953627053756261,13.615114859027164,-5.057317601430045,12.704955902548505,-5.139611180923891,11.788935964850573,-5.2008292010012855,10.868567772664845,-5.241388204413012,9.945341269739673,-5.261790950889207,9.020719766417352,-5.262617832141741,8.096136293376258,-5.244518612701549,7.172990156021227,-5.208204490415312,6.252643686005322,-5.15444047042612,5.336419186366072,-5.084038046462579,4.425596066759381,-4.99784818326089,3.52140816527421,-4.896754593944435,2.6250412533111707,-4.781667306185403,1.7376307200081893,-4.6535165109729295,0.860259432696358,-4.513246687812339,-0.006044230130898498,-4.361811000179957,-0.8603081768521461,-4.200165955058047,-1.7016182352727185,-4.0292663203743775,-2.529119623216687,-3.8500602941709374,-3.342018260673022,-3.6634849193263666,-4.139581927012657,-3.470461737656537,-4.921141266793459,-3.2718926772179104,-5.686090647669882,-3.0686561666380943,-6.433888873924204,-2.86160347029821,-7.164059759136155,-2.6515552381915253,-7.876192561507919,-2.439298264282911,-8.569942285361208,-2.2255824471936227,-9.245029852323407,-2.011117947035957,-9.901242145719598,-1.7965725322222763,-10.538431931687333,-1.5825691100729387,-11.156517660530978,-1.3696834350476506,-11.755483151832587,-1.1584419884247756,-12.335377166836052,-0.9493200232530894,-12.896312871621506,-0.7427397684005621,-13.43846719458672,-0.5390687855246146,-13.962080081752498,-0.33861847278844603,-14.46745365340878,-0.141642709147896,-14.954951265618467,0.051663366966615776,-15.42499648009568,0.2411644507485171,-15.878071945975437,0.4267860420694234,-16.314718196991592,0.6085153006648065,-16.735799357919753,0.7865544693678483,-17.141864967893937,0.9610149576779143,-17.533036321285763,1.1318073224345242,-17.909447653170787,1.298858717996417,-18.271245668320105,1.462112069168636,-18.618589070191973,1.6215252441296149,-18.95164808992341,1.7770702273582577,-19.270604015321837,1.928732292561031,-19.575648719856645,2.076509175599037,-19.866984191650843,2.220410247415105,-20.14482206247264,2.3604556869608775,-20.409383136727108,2.4966756541238864,-20.660896920447726,2.6291094626546445,-20.89960115028802,2.7578047530937266,-19.46851223772594,4.390980983810119,-19.20697611601843,4.4344032607108215,-18.933750764256658,4.476143823270562,-18.648777992811446,4.516127640403452,-18.352014702655516,4.5542793190315916,-18.04343210013034,4.590523538987203,-17.723014911713115,4.6247854879147585,-17.39076059878367,4.656991296173111,-17.046678572391407,4.687068471737618,-16.690789408022205,4.714946335102279,-16.323124060365373,4.740556454181855,-15.943723078080536,4.763833079214004,-15.55263581856459,4.784713577661411,-15.149919662718622,4.80313886911391,-14.735639229714858,4.819053860190619,-14.308734433875271,4.832718957685104,-13.86804822215617,4.844294693001276,-13.41351747664301,4.853594388310463,-12.945096032004072,4.86045151284275,-12.462754590834477,4.864719876953341,-11.966480626361248,4.866273790544021,-11.456278278372304,4.865008182592419,-10.932168248232566,4.8608386785418185,-10.39418769885019,4.853701632304237,-9.842390165456033,4.843554109629508,-9.276845483059411,4.8303738195931025,-8.697639736443223,4.814158990955407,-8.104875238561542,4.794928190145201,-7.498670543202676,4.7727200776200664,-6.8791604977808625,4.7475930993564415,-6.2464963421196185,4.719625110222074,-5.600845859089802,4.688912925983588,-4.942393582965504,4.655571800701899,-4.271341071360862,4.6197348262682105,-3.587907246610728,4.581552250833326,-2.8923288124585014,4.541190712882991,-2.1848607519139627,4.498832387712022,-1.4657769121443405,4.454674043049924,-0.7353706822616006,4.408926000590758,0.00604423013089761,4.361811000179956,0.7581329177693901,4.313562963410845,1.520538282075191,4.264425653383593,2.292879925151656,4.214651227379305,3.074752919569489,4.164498679202022,3.8657264500773825,4.1142321679413225,4.6653423213748875,4.064119229908285,5.473113326084415,4.0144288704975235,6.288521467059366,3.965429532728037,7.111016028165231,3.9173869392156027,7.940011487670646,3.870561804329434,8.774885268385319,3.8252074132858525,9.614975318681722,3.7815670649316835,10.459577518537538,3.739871374970125,11.307942904735697,3.700335436381806,12.159274709359028,3.663155833793773,13.012725205716393,3.6285075085491334,13.867392355837245,3.5965404712300906,14.722316253671497,3.567376358387089,15.576475358131736,3.5411048302268187,16.42878251011457,3.5177798060117906,17.27808072763815,3.497415533924231,18.12313877323273,3.479982492147011,18.962646487721173,3.465403117914352,19.795209884526436,3.453547361285033,20.61934599864282,3.4442280603908353,21.299705406327767,3.40945632039318,21.970713037120593,3.374101808999434,22.631275665484395,3.3379633533036452,23.280245460454736,3.3008201389661176,23.916418742518744,3.2624310718228364,24.53853474049427,3.222534139494895,25.145274348409103,3.18084577299792,25.735258882380023,3.137060208351496,26.307048837492033,3.090848848188592,26.859142644677455,3.041859623364989,27.389975427595154,2.989716354568702,27.897917759509596,2.934018113929407,28.381274420170072,2.8743385866278692,28.83828315268981,2.810225432505365,29.267113420425176,2.7411996476731098" fill="white" stroke="white" stroke-width="0" stroke-linejoin="round" filter="url(#fuzzy)"></polyline></g><g transform="translate(26.671212617244798 -22.139837308452694)"><polyline id="rightUpper" points="-33.75054122347261,1.3696160917942861,-33.777497811561815,1.288328481059592,-33.76230946104066,1.190930859065419,-33.706459151862454,1.0790562015372913,-33.61140272399082,0.9542693913078462,-33.47856903493664,0.818068463943745,-33.30936011729507,0.67188585337259,-33.105151336282546,0.517089637509839,-32.8672915472738,0.3549847838857181,-32.59710325333883,0.1868143952721386,-32.29588276277994,0.013760955309606082,-31.96490034666869,-0.16305242586585855,-31.605400396382976,-0.3425607659958101,-31.218601581143968,-0.5237559650724588,-30.805697005553146,-0.7056855597117622,-30.36785436712929,-0.8874514775265059,-29.90621611384548,-1.0682087914993943,-29.421899601666116,-1.247164474356131,-28.915997252083894,-1.4235761529385051,-28.389576709656836,-1.5967508625774798,-27.843680999545292,-1.7660438014662763,-27.279328685048903,-1.930857085033459,-26.697514025143665,-2.0906385003160217,-26.099207132018883,-2.2448802603324722,-25.485354128614194,-2.3931177584559187,-24.856877306156573,-2.5349283227871604,-24.145582142557267,-2.7689498131202868,-23.414614425413546,-2.989653477820836,-22.665147767274277,-3.196231846468298,-21.8983767416259,-3.388014544709436,-21.115513150019684,-3.564460230961987,-20.317782395871184,-3.7251487669324224,-19.506419964220935,-3.8697736185237943,-18.682668006745303,-3.9981344837097437,-17.84777203130658,-4.110130143950673,-17.00297769533127,-4.205751535728211,-16.14952770230553,-4.285075038773928,-15.288658800676846,-4.348255977568435,-14.421598884450866,-4.3955223326868555,-13.549564194772408,-4.427168658566773,-12.673756621779644,-4.443550204274645,-11.795361106020467,-4.445077233846801,-10.915543138719988,-4.432209542781004,-10.035446360188237,-4.405451167254711,-9.156190255656977,-4.365345282645976,-8.27886794783469,-4.3124692879331645,-7.404544085468708,-4.24743007254942,-6.534252827203462,-4.1708594622680275,-5.6689959200238995,-4.083409840694637,-4.809740871573014,-3.9857499429424736,-3.9574192156324957,-3.8785608180665516,-3.112924870055517,-3.7625319568329143,-2.277112586440632,-3.6383575813990143,-1.450796490835783,-3.506733093481226,-0.6347487147614084,-3.3683516775855775,0.1703018841583166,-3.2239010558777412,0.9636709126671779,-3.074060391268314,1.744719544162507,-2.9194973352894804,2.5128555335056806,-2.7608652173390658,3.267534145068524,-2.5988003718680632,4.008258994726658,-2.4339196000876564,4.7345828065107565,-2.26681776277181,5.446108084626729,-2.098065500731474,6.142487701555847,-1.9282070795364472,6.8234254029458,-1.7577583550609441,7.488676230003717,-1.5872048564289472,8.138046860102103,-1.4169999829353346,8.771395866308747,-1.2475633115189098,9.3886338965516,-1.0792790113633277,9.989723773129569,-0.9124943622019837,10.574680513280352,-0.7475183729029178,11.143571271516162,-0.5846204969097961,11.69651520443848,-0.42402944111499163,12.233683258742797,-0.2659320647408494,12.755297883124278,-0.11047236480514888,13.261632664795496,0.04224945525314627,13.753821934200428,0.19246390735135233,14.232789453952037,0.34036687950737443,14.698541273708074,0.4858494335548542,15.151096987990385,0.628815380776734,15.59048964096111,0.7691808233405988,16.016765631198776,0.9068736957340144,16.42998461647453,1.0418333061998601,16.830219418528273,1.174009878171677,17.2175559278448,1.3033640917089957,17.592093008430027,1.4298666249326808,17.953942402587064,1.5534976954602673,18.303228635692477,1.6742466018412978,18.640088920972364,1.7921112649926638,18.964673064278585,1.9070977696339393,19.277143368864873,2.0192199057227227,19.577674540163038,2.128498709889974,19.8664535905591,2.234962006875352,20.143679744169493,2.3386439509625525,20.409564341617152,2.4395845674146486,20.664330744807767,2.537829293909427,20.908214241705892,2.633428521974727,21.141461951111104,2.726437138423776,21.364332727434206,2.816914066790533,21.577097065473353,2.9049218087650215" fill="none" stroke="black" stroke-width="1.6666666666666665" stroke-linejoin="round" filter="url(#fuzzy)"></polyline><polyline id="rightLower" points="-32.97294642122576,2.011979539495503,-32.79200655383979,2.0891004784841734,-32.55514743682144,2.1605998318987085,-32.26574361205895,2.226929628527387,-31.92705509053673,2.2885206379695013,-31.542229208814227,2.345782806216684,-31.11430248550469,2.399105691234233,-30.646202477753988,2.4488588985424338,-30.1407496377194,2.4953925167978843,-29.60065916904844,2.5390375533748184,-29.028542883357666,2.580106369946431,-28.426911056711464,2.618893118066201,-27.798174286100863,2.6556741747492176,-27.14464534592237,2.6907085780535,-26.468541044456728,2.7242384626613267,-25.77198408034776,2.756489495460556,-25.05700489908115,2.7876713111259512,-24.325543549463262,2.8179779477005065,-23.579451540099946,2.8475882821767677,-22.82049369587534,2.8766664660781585,-22.05035001443068,2.9053623610403037,-21.270617522643104,2.9338119743923547,-20.482812133104456,2.9621378947383117,-19.6883705006001,2.9904497275383495,-18.888651878587716,3.0188445306901404,-18.084939975676107,3.0474072501101777,-17.08195272060301,3.0606187529117976,-16.079516901723856,3.076204768955436,-15.079590873627378,3.0942197172502985,-14.083970000510245,3.1146785074460874,-13.094295729092657,3.1375600584935546,-12.1120643173678,3.162810675814831,-11.13863522628331,3.1903472895905245,-10.175239181452746,3.2200605567705924,-9.222985911995215,3.2518178294159945,-8.282871573601188,3.2854659919781244,-7.355785862922574,3.3208341701230286,-6.442518830385178,3.357736313707411,-5.54376739852159,3.395973656513429,-4.660141592922544,3.4353370553492817,-3.792170492904898,3.475609211122596,-2.9403079089942636,3.5165667744936133,-2.10493779432037,3.557982338715177,-1.2863793970232518,3.599626322266529,-0.48489216076831543,3.6412687438879083,0.29931961953162123,3.6826808926229724,1.0661023796892266,3.723636895476024,1.8153490988124723,3.7639151852910615,2.5469953353732073,3.8032998714596493,3.2610154796764697,3.841582016064611,3.9574192156324965,3.878560818066551,4.6362481847331924,3.914044708140211,5.2975728451352175,3.947852356767649,5.9414895187514,3.9798135981952685,6.568117619252565,4.009770272861677,7.1775970538815415,4.037576990903391,7.770085791981437,4.06310181934539,8.345757593139968,4.086226895583513,8.904799887851873,4.106848969765711,9.44741180360121,4.124879878679154,9.973802329265627,4.1402469537502,10.484188610744344,4.152893365764214,10.978794370711938,4.162778408912262,11.457848445399716,4.169877726771671,11.921583431306718,4.174183482827453,12.370234434742162,4.175704478141611,12.804037917101358,4.174466218777314,13.223230628776903,4.170510935584956,13.628048624607235,4.163897558957097,14.018726353764261,4.154701651159289,14.395495816982205,4.1430152988437925,14.7585857840294,4.12894696835318,15.108221064325129,4.112621326420842,15.444621823603267,4.094179028875389,15.76800293952476,4.073776479955944,16.07857338914087,4.051585564845358,16.377257679405133,4.027448739541027,16.664866505313043,4.001120904255047,16.941432716946913,3.9726564006120957,17.20698908631628,3.9421124271361907,17.461569257993112,3.9095486900984953,17.70520869974715,3.8750270543651144,17.93794565318113,3.8386111942449044,18.159822084366155,3.800366244337272,18.370884634476845,3.760358450379979,18.57118557042678,3.718654820096944,18.760783735503637,3.6753227740460463,18.939745500004584,3.6304297964669283,19.108145711871487,3.584043086128798,19.266068647326236,3.536229207178235,19.413608961506,3.487053739986987,19.550872639098547,3.43658093199978,19.677977944977478,3.3848733485821167,19.795056374837557,3.331991523868081,19.902253605829955,3.277993611608139,19.999730447197567,3.222935036016946,20.08766379091028,3.1668681426211447,20.166247562300224,3.1098418491071715,20.23569367069713,3.051901296169058,20.29623296006355,2.9930874983562354" fill="none" stroke="black" stroke-width="2.2222222222222223" stroke-linejoin="round" filter="url(#fuzzy)"></polyline><!--[--><circle r="3.4085367047138564" cx="-26.208498312377003" cy="0.07509887523253234" stroke="black" fill="none" stroke-width="1" filter="url(#fuzzy)" clip-path="url(#rightEyeClipPath)"></circle><circle r="3.923825398173324" cx="-25.98522352678015" cy="1.7891907235448787" stroke="black" fill="none" stroke-width="1" filter="url(#fuzzy)" clip-path="url(#rightEyeClipPath)"></circle><circle r="4.774534533844327" cx="-23.680732516686533" cy="1.2307747223814287" stroke="black" fill="none" stroke-width="1" filter="url(#fuzzy)" clip-path="url(#rightEyeClipPath)"></circle><circle r="4.705638452845109" cx="-26.014150992091835" cy="0.6710013378434967" stroke="black" fill="none" stroke-width="1" filter="url(#fuzzy)" clip-path="url(#rightEyeClipPath)"></circle><circle r="3.607990031431108" cx="-25.641789836756026" cy="1.0346871390331187" stroke="black" fill="none" stroke-width="1" filter="url(#fuzzy)" clip-path="url(#rightEyeClipPath)"></circle><circle r="3.375413801669723" cx="-24.697445486125382" cy="1.1162742479919547" stroke="black" fill="none" stroke-width="1" filter="url(#fuzzy)" clip-path="url(#rightEyeClipPath)"></circle><circle r="4.751575258001909" cx="-28.079137868446555" cy="2.348781391220471" stroke="black" fill="none" stroke-width="1" filter="url(#fuzzy)" clip-path="url(#rightEyeClipPath)"></circle><circle r="4.008628974242919" cx="-23.892704894818277" cy="1.5476903174833652" stroke="black" fill="none" stroke-width="1" filter="url(#fuzzy)" clip-path="url(#rightEyeClipPath)"></circle><circle r="4.188609450831281" cx="-25.510831446537555" cy="1.7378482716778123" stroke="black" fill="none" stroke-width="1" filter="url(#fuzzy)" clip-path="url(#rightEyeClipPath)"></circle><circle r="4.244467262546879" cx="-27.10705589721361" cy="-0.09908996093987188" stroke="black" fill="none" stroke-width="1" filter="url(#fuzzy)" clip-path="url(#rightEyeClipPath)"></circle><!--]--></g><g transform="translate(-30.45271063126354 -24.226452893342838)"><polyline id="leftUpper" points="31.42228463949302,1.6406036476064747,31.474704112956545,1.5507328935779734,31.47982330924203,1.4393619835269327,31.439316543829534,1.3087087282167302,31.354831071526817,1.160895805244143,31.227987137945938,0.9979525388515316,31.060378030979685,0.8218166797390332,30.853570132278072,0.6343361848767586,30.60910296872484,0.4372709973169764,30.32848926391395,0.23229482600630558,30.013214989626064,0.020996925597911442,29.664739417305,-0.19511612373630705,29.28449516953431,-0.4146186364935245,28.873888271513692,-0.6361640420277999,28.4342982025355,-0.8584831047378785,27.967077947461263,-1.0803821442550117,27.473554048198125,-1.3007412556307525,26.95502665517538,-1.5185125295247754,26.41276957882092,-1.7327182723926775,25.848030341037777,-1.9424492266737916,25.262030226680572,-2.146862790978993,24.655964335032003,-2.345181240278503,24.031001631279373,-2.5366899460897105,23.38828499799103,-2.7207355966649693,22.728931286592903,-2.89672441717941,22.054031368844953,-3.064120389918748,21.287515058252907,-3.354290176418303,20.49975754690504,-3.62609494458135,19.692240187224414,-3.8785407933550093,18.866472055670386,-4.110825168165793,18.023983867237334,-4.3223246779218165,17.166322129286954,-4.512583299604698,16.295043531197596,-4.6813009642756285,15.41170956631343,-4.828322518320167,14.517881382676862,-4.953627053756261,13.615114859027164,-5.057317601430045,12.704955902548505,-5.139611180923891,11.788935964850573,-5.2008292010012855,10.868567772664845,-5.241388204413012,9.945341269739673,-5.261790950889207,9.020719766417352,-5.262617832141741,8.096136293376258,-5.244518612701549,7.172990156021227,-5.208204490415312,6.252643686005322,-5.15444047042612,5.336419186366072,-5.084038046462579,4.425596066759381,-4.99784818326089,3.52140816527421,-4.896754593944435,2.6250412533111707,-4.781667306185403,1.7376307200081893,-4.6535165109729295,0.860259432696358,-4.513246687812339,-0.006044230130898498,-4.361811000179957,-0.8603081768521461,-4.200165955058047,-1.7016182352727185,-4.0292663203743775,-2.529119623216687,-3.8500602941709374,-3.342018260673022,-3.6634849193263666,-4.139581927012657,-3.470461737656537,-4.921141266793459,-3.2718926772179104,-5.686090647669882,-3.0686561666380943,-6.433888873924204,-2.86160347029821,-7.164059759136155,-2.6515552381915253,-7.876192561507919,-2.439298264282911,-8.569942285361208,-2.2255824471936227,-9.245029852323407,-2.011117947035957,-9.901242145719598,-1.7965725322222763,-10.538431931687333,-1.5825691100729387,-11.156517660530978,-1.3696834350476506,-11.755483151832587,-1.1584419884247756,-12.335377166836052,-0.9493200232530894,-12.896312871621506,-0.7427397684005621,-13.43846719458672,-0.5390687855246146,-13.962080081752498,-0.33861847278844603,-14.46745365340878,-0.141642709147896,-14.954951265618467,0.051663366966615776,-15.42499648009568,0.2411644507485171,-15.878071945975437,0.4267860420694234,-16.314718196991592,0.6085153006648065,-16.735799357919753,0.7865544693678483,-17.141864967893937,0.9610149576779143,-17.533036321285763,1.1318073224345242,-17.909447653170787,1.298858717996417,-18.271245668320105,1.462112069168636,-18.618589070191973,1.6215252441296149,-18.95164808992341,1.7770702273582577,-19.270604015321837,1.928732292561031,-19.575648719856645,2.076509175599037,-19.866984191650843,2.220410247415105,-20.14482206247264,2.3604556869608775,-20.409383136727108,2.4966756541238864,-20.660896920447726,2.6291094626546445,-20.89960115028802,2.7578047530937266,-21.125741322513214,2.8828166656988543,-21.339570221991785,3.0042070133719796,-21.541347451187086,3.12204345458637,-21.731338959148992,3.236398666313692,-21.909816570505477,3.3473495169510956,-22.077057514454225,3.4549762392482997,-22.233343953754293,3.5593616032346738,-22.37896251371763,3.660590089146324,-22.514203811200787,3.758747060353176,-22.639361983596444,3.853917936286061" fill="none" stroke="black" stroke-width="2.2222222222222223" stroke-linejoin="round" filter="url(#fuzzy)"></polyline><polyline id="leftLower" points="31.551573718916664,1.655023629857952,31.521117992349183,1.8058434055450232,31.44014956134503,1.945353560554767,31.31125013176345,2.074334847558171,31.136920698498287,2.193534971590416,30.919582788598895,2.303669228441455,30.661579704390924,2.4054211430465835,30.365177766597192,2.499443107877016,30.03256755745857,2.5863570213304583,29.665865163854754,2.6667549261216856,29.267113420425176,2.7411996476731098,28.83828315268981,2.810225432505365,28.381274420170072,2.8743385866278692,27.897917759509596,2.934018113929407,27.389975427595154,2.989716354568702,26.859142644677455,3.041859623364989,26.307048837492033,3.090848848188592,25.735258882380023,3.137060208351496,25.145274348409103,3.18084577299792,24.53853474049427,3.222534139494895,23.916418742518744,3.2624310718228364,23.280245460454736,3.3008201389661176,22.631275665484395,3.3379633533036452,21.970713037120593,3.374101808999434,21.299705406327767,3.40945632039318,20.61934599864282,3.4442280603908353,19.795209884526436,3.453547361285033,18.962646487721173,3.465403117914352,18.12313877323273,3.479982492147011,17.27808072763815,3.497415533924231,16.42878251011457,3.5177798060117906,15.576475358131736,3.5411048302268187,14.722316253671497,3.567376358387089,13.867392355837245,3.5965404712300906,13.012725205716393,3.6285075085491334,12.159274709359028,3.663155833793773,11.307942904735697,3.700335436381806,10.459577518537538,3.739871374970125,9.614975318681722,3.7815670649316835,8.774885268385319,3.8252074132858525,7.940011487670646,3.870561804329434,7.111016028165231,3.9173869392156027,6.288521467059366,3.965429532728037,5.473113326084415,4.0144288704975235,4.6653423213748875,4.064119229908285,3.8657264500773825,4.1142321679413225,3.074752919569489,4.164498679202022,2.292879925151656,4.214651227379305,1.520538282075191,4.264425653383593,0.7581329177693901,4.313562963410845,0.00604423013089761,4.361811000179956,-0.7353706822616006,4.408926000590758,-1.4657769121443405,4.454674043049924,-2.1848607519139627,4.498832387712022,-2.8923288124585014,4.541190712882991,-3.587907246610728,4.581552250833326,-4.271341071360862,4.6197348262682105,-4.942393582965504,4.655571800701899,-5.600845859089802,4.688912925983588,-6.2464963421196185,4.719625110222074,-6.8791604977808625,4.7475930993564415,-7.498670543202676,4.7727200776200664,-8.104875238561542,4.794928190145201,-8.697639736443223,4.814158990955407,-9.276845483059411,4.8303738195931025,-9.842390165456033,4.843554109629508,-10.39418769885019,4.853701632304237,-10.932168248232566,4.8608386785418185,-11.456278278372304,4.865008182592419,-11.966480626361248,4.866273790544021,-12.462754590834477,4.864719876953341,-12.945096032004072,4.86045151284275,-13.41351747664301,4.853594388310463,-13.86804822215617,4.844294693001276,-14.308734433875271,4.832718957685104,-14.735639229714858,4.819053860190619,-15.149919662718622,4.80313886911391,-15.55263581856459,4.784713577661411,-15.943723078080536,4.763833079214004,-16.323124060365373,4.740556454181855,-16.690789408022205,4.714946335102279,-17.046678572391407,4.687068471737618,-17.39076059878367,4.656991296173111,-17.723014911713115,4.6247854879147585,-18.04343210013034,4.590523538987203,-18.352014702655516,4.5542793190315916,-18.648777992811446,4.516127640403452,-18.933750764256658,4.476143823270562,-19.20697611601843,4.4344032607108215,-19.46851223772594,4.390980983810119,-19.71843319484328,4.345951226760209,-19.95682971390255,4.29938699195658,-20.183809967736956,4.251359615096324,-20.399500360713844,4.2019383302760085,-20.604046313967793,4.151189835089551,-20.797613050633693,4.099177855726082,-20.980386381079846,4.0459627120678245,-21.152573488140966,3.9916008827879614,-21.314403712351314,3.936144570448504,-21.46612933717779,3.879641266598167" fill="none" stroke="black" stroke-width="2.2222222222222223" stroke-linejoin="round" filter="url(#fuzzy)"></polyline><!--[--><circle r="3.5859412604060203" cx="17.102193978777326" cy="-1.5694537033892326" stroke="black" fill="none" stroke-width="1" filter="url(#fuzzy)" clip-path="url(#leftEyeClipPath)"></circle><circle r="4.5758431143130105" cx="17.70058363064049" cy="-0.19172990674061463" stroke="black" fill="none" stroke-width="1" filter="url(#fuzzy)" clip-path="url(#leftEyeClipPath)"></circle><circle r="3.5984919601812027" cx="17.916151460650802" cy="-1.0776846017357882" stroke="black" fill="none" stroke-width="1" filter="url(#fuzzy)" clip-path="url(#leftEyeClipPath)"></circle><circle r="3.615780495901205" cx="18.47177837072192" cy="-2.396160024393296" stroke="black" fill="none" stroke-width="1" filter="url(#fuzzy)" clip-path="url(#leftEyeClipPath)"></circle><circle r="4.426777359182196" cx="20.087745609971794" cy="-1.0919858512505314" stroke="black" fill="none" stroke-width="1" filter="url(#fuzzy)" clip-path="url(#leftEyeClipPath)"></circle><circle r="4.938203607277565" cx="19.645623510427637" cy="-2.289949359432333" stroke="black" fill="none" stroke-width="1" filter="url(#fuzzy)" clip-path="url(#leftEyeClipPath)"></circle><circle r="4.651590582641942" cx="18.49359065179268" cy="0.25834995518765247" stroke="black" fill="none" stroke-width="1" filter="url(#fuzzy)" clip-path="url(#leftEyeClipPath)"></circle><circle r="3.7945177121133984" cx="17.33476580871591" cy="-1.2530654910252605" stroke="black" fill="none" stroke-width="1" filter="url(#fuzzy)" clip-path="url(#leftEyeClipPath)"></circle><circle r="3.5114651677427444" cx="17.936445880784376" cy="1.0431842873766897" stroke="black" fill="none" stroke-width="1" filter="url(#fuzzy)" clip-path="url(#leftEyeClipPath)"></circle><circle r="4.788223732063817" cx="17.14634923568472" cy="-0.9434091814914118" stroke="black" fill="none" stroke-width="1" filter="url(#fuzzy)" clip-path="url(#leftEyeClipPath)"></circle><!--]--></g><g id="hairs"><!--[--><polyline points="32,-76,18.870406413095804,-80.52150854082694,7.0580415929698415,-83.28046672871243,0.6168111802266034,-83.93706590823143,-0.407047890246734,-82.32654845630509,3.7577647932734024,-78.75266285332484,11.720958582663348,-74.28556551932977,20.736073664108392,-70.25643941394175,27.83138059330067,-67.50965060151928,30.884051984923815,-66.1391223711067,29.02307713601065,-65.77022902291878,22.769371443697842,-65.93525000425225,14.231725345959422,-66.18854705649763,6.937508629108664,-66.05025045135272,4.621698565984834,-65.12555059829369,9.045814156260851,-63.539959960089384,18.137820680897715,-62.32609300938394,26.314462729774064,-63.09607042180255,27.85225893071747,-66.74999883492309,21.377591268818506,-72.13708920944067,9.078914437247777,-76.74053615248363,-24,-83" fill="none" stroke="rgb(233, 236, 239)" stroke-width="2" stroke-linejoin="round" filter="url(#fuzzy)"></polyline><polyline points="-57,-56,14.570471889269763,-54.08569962386343,35.26828806209129,-53.28456093925311,32.344298089258714,-58.11615568484461,23.974002394426474,-65.47026381825512,18.458466244191587,-71.76246071002785,16.993688449451128,-75.56553718819973,17.743426906841048,-77.12435783568777,18.35195024559779,-77.25492016649974,17.120433807373047,-76.61229705810547,13.633822190819096,-75.41796365712041,8.812516646196128,-73.59322406373715,4.063656496494695,-71.2258737559954,-0.18134893811273714,-69.0622859198459,-5.437941355427304,-68.40844063360751,-14.310675038364073,-69.92168863783232,-27.46389242471603,-71.87458895576195,-40.89497764480183,-70.77608154872163,-47,-69" fill="none" stroke="rgb(233, 236, 239)" stroke-width="2" stroke-linejoin="round" filter="url(#fuzzy)"></polyline><polyline points="54,-56,42.215323549774894,-66.15928812883777,32.586139830016684,-70.82682000512355,19.204925731962902,-75.84816626440609,6.56408471581524,-79.80934648306835,-1.523346412378307,-81.3594975561554,-3.7243736889753594,-80.12169886649548,-0.8479569045512271,-76.63373632708374,4.772764760269729,-72.37837108520397,10.503225551093761,-69.3686394678149,14.792037888321389,-69.06181230389187,17.099293340931794,-71.44988166795605,15.963999544606715,-75.42361468397159,8.34318940892972,-79.96283849690155,-5.684491929431783,-83.81465242043441,-18,-84" fill="none" stroke="rgb(233, 236, 239)" stroke-width="2" stroke-linejoin="round" filter="url(#fuzzy)"></polyline><polyline points="54,-56,25.562499605493862,-63.23430995406418,9.52839114445964,-60.192776777514084,4.503188683905314,-59.2192076793949,2.936607039407777,-62.482862970246416,0.9478127921421672,-67.43928045228525,-3.051311803491115,-71.31289252747814,-8.277984384591054,-72.89530037541844,-12.04571192229314,-72.5310682550527,-11.741344451904297,-71.41598510742188,-6.989271815644655,-70.88241756166464,-0.242371958079799,-71.84017238508379,4.706093481803435,-74.35848471091057,5.131899031743095,-77.51708363777871,0.9258322090797735,-79.73552057961015,-5.526307506351607,-79.48253078852318,-10.010560859306123,-75.91439552619661,-3.810938825090709,-69.68561193987935,45,-67" fill="none" stroke="rgb(233, 236, 239)" stroke-width="2" stroke-linejoin="round" filter="url(#fuzzy)"></polyline><polyline points="47,-65,23.591550249454993,-66.16464104768082,28.483956959555528,-61.03804618733374,34.007567364264055,-59.508371598500254,34.95745492133842,-61.472510586966884,30.790082298538437,-65.73991278887752,23.17012917121535,-70.44777561248725,14.848076443712559,-73.8480956750193,8.440338363184505,-75.0865377313838,5.363632238475657,-74.36205470766045,5.391608238220215,-72.5514440536499,7.150612927605724,-70.62881650700812,9.189888454951625,-69.21310072521835,10.724235394862776,-68.43910398039469,11.47807187483215,-68.07064083776018,10.951013233031517,-67.618333564561,7.854022944754159,-66.53930903042158,0.2271211422110615,-65.02885991687384,-13.063950513756076,-64.95693355336546,-29.65625633592626,-66.9765823569858,-56,-57" fill="none" stroke="rgb(233, 236, 239)" stroke-width="2" stroke-linejoin="round" filter="url(#fuzzy)"></polyline><polyline points="-49,-66,-29.76387062635828,-71.68004643074063,-7.664645274423955,-76.289791973707,5.759981415464965,-76.92615464766675,13.132499007932255,-73.68523274316046,17.802892652381136,-68.16964205008793,20.75089964351488,-62.63927674103399,22.228334305998935,-59.04293971220516,23.02370430468674,-58.31257633822217,23.288770578513923,-60.378979541385206,21.301123284163733,-64.64616001762364,15.339101889692754,-70.26422762785305,7.871314577162237,-75.97897230037812,6.417052430118662,-80.10221906998669,15.652053304909428,-81.24563345396697,25,-80" fill="none" stroke="rgb(233, 236, 239)" stroke-width="2" stroke-linejoin="round" filter="url(#fuzzy)"></polyline><polyline points="-51,-64,17.617408828833,-54.28119741538569,34.06861871979312,-55.72070731321202,32.92587346130788,-59.45997256139696,28.769332720254326,-60.48728561405528,23.6309384055221,-60.10162212307932,17.080004441938563,-60.71579130933774,10.047297511130136,-62.941391970218376,3.952262868968907,-65.78096545571562,-0.5693630268133975,-67.98446148778471,-3.4819469451904297,-69.0029649734497,-4.439973431175708,-69.10985399523925,-2.5192608827645846,-69.00475819384292,2.9405300682666615,-69.34029625427758,11.177927172497158,-70.38166139444293,19.915888939578508,-71.81025199326996,26.90426577356192,-72.75651111691404,31.65855076402771,-72.41368909481524,34.67769805605484,-71.48726445249082,34.35331368086284,-73.0687860973042,32,-76" fill="none" stroke="rgb(233, 236, 239)" stroke-width="2" stroke-linejoin="round" filter="url(#fuzzy)"></polyline><polyline points="31,-77,21.055371812964204,-66.6426730295769,-2.0954091974314335,-67.45713340229665,-9.265180844678229,-71.01568336218472,-3.702135683152151,-74.26120846516338,5.583891544045372,-76.201466775728,12.33643468329827,-77.09066612143417,14.255473408523184,-77.50460063631319,12.008173932236975,-77.70225859694347,7.745191077901483,-77.56361742140241,3.651689264120704,-76.90337254767074,0.9063226549012258,-75.77657574368651,-0.6106891805771224,-74.51442987647282,-1.7895788279076155,-73.4868923437935,-3.331708119130496,-72.81688712470597,-5.057861372386981,-72.33055351667463,-6.0049717608675,-71.8499027144879,-5.213923765547515,-71.60375827552893,-2.582383649334863,-72.30100957439086,0.7516119096422608,-74.53247729273265,2.45624380897977,-77.6623253512599,-0.9926629819133579,-78.9130843723886,-15.731747475595688,-73.28744295385651,-58,-53" fill="none" stroke="rgb(233, 236, 239)" stroke-width="2" stroke-linejoin="round" filter="url(#fuzzy)"></polyline><polyline points="-37,-76,-24.026478883647748,-75.4041592945834,-10.233465729714585,-70.43198248520376,3.030306301771777,-69.76251660799187,11.590109845511142,-71.90683074609852,17.11446920660927,-73.80109976320851,21.193394238291972,-74.05110205015654,23.228964984291153,-72.70438365040175,22.065623958043208,-70.40272516104389,17.76032192754484,-68.11290672716186,11.544572907190775,-67.11551437332474,4.41591790720493,-68.54298506403093,-3.4633741486325826,-72.3793221892178,-10.957024547393212,-76.82600787119807,-16.372008298860926,-79.25314774800074,-37,-77" fill="none" stroke="rgb(233, 236, 239)" stroke-width="2" stroke-linejoin="round" filter="url(#fuzzy)"></polyline><polyline points="-37,-76,16.51140206752039,-62.51170029907337,27.74833420252023,-61.00252276080274,24.67283539340719,-63.20325739870633,18.3125655074992,-67.02616652838068,13.048955014650266,-70.38597435419135,8.939567865937324,-72.44731720731176,4.597103913905002,-73.40052841466992,-0.7064116519605594,-73.64720421854081,-6.621114115226747,-73.43978959671095,-12.277818046858958,-72.94745038849713,-16.77079992284406,-72.37860071867007,-19.251440703868866,-71.96949869394302,-19.01330549841298,-71.8680967798097,-15.895765266151367,-72.02636289703929,-10.754452172368145,-72.1961322007623,-5.3759911630033965,-72.04959030108009,-1.5496302075257944,-71.34575294440207,0.146954111559257,-70.02451223845941,0.731044993848914,-68.23372339837493,1.766622632681639,-66.4977182184482,3.7371784533258454,-66.13263982585063,5.412116933291699,-69.29496504929367,4.819972246047944,-77.15795681525336,12,-84" fill="none" stroke="rgb(233, 236, 239)" stroke-width="2" stroke-linejoin="round" filter="url(#fuzzy)"></polyline><polyline points="-49,-67,-9.051905820343286,-76.69155302073997,13.878662796515682,-74.5080567483274,24.010225520438567,-68.91540521940183,25.362562191094547,-64.7361368550649,23.00597226537393,-63.05934977396763,20.624129119601378,-63.18929587028628,19.42422484327536,-64.24730116548108,18.84777026603127,-65.76384691585736,17.982937956713467,-67.60315719004187,16.509623514991368,-69.71526288777356,14.733516454696655,-71.97929239273071,13.119047193724802,-74.13302430839002,11.955868237355867,-75.7300199956504,11.325619945512297,-76.20663332519177,11.077164389276682,-75.20834947196083,10.693450751494405,-73.10559279033168,9.465806394641094,-71.24087078700855,7.238736901586582,-71.3275577860125,4.625425718869176,-74.02482234090895,0.8385425512643871,-78.01541093622028,-7.884579703891242,-81.56913950255925,-12,-85" fill="none" stroke="rgb(233, 236, 239)" stroke-width="2" stroke-linejoin="round" filter="url(#fuzzy)"></polyline><polyline points="58,-51,29.057287043945546,-65.8336480954907,12.874323440254708,-69.02111385084788,3.464134942262847,-69.56006837242903,-2.5294067782812264,-69.78815813042067,-3.0111095202663796,-69.74476822507806,2.2370212088601313,-69.4103626919808,10.388227045001395,-68.84403989265356,17.92391289072756,-67.95050654977113,22.72033136299501,-66.575108295046,24.6009808902158,-64.78551147988215,24.724291391817122,-62.980081006631195,24.56560879945755,-61.67364454269409,25.054882816074095,-61.13963232067511,26.1130830008241,-61.24998769666969,26.59977658034076,-61.70049693263948,24.64675839080411,-62.43266910414386,18.443901658504398,-63.79759139126115,7.454558249442119,-66.18879901031013,-6.491902122817725,-69.45594428048842,-19.393199615628625,-72.81299922218463,-27.278047586655987,-75.52390801396751,-28.80211159311937,-77.68072624744762,-24.062197766552387,-80.37177326963476,-10,-85" fill="none" stroke="rgb(233, 236, 239)" stroke-width="2" stroke-linejoin="round" filter="url(#fuzzy)"></polyline><polyline points="-56,-57,3.6955597703769265,-61.068899957961015,4.586171559994631,-66.62283671695458,-6.855388176946011,-68.07132556615878,-9.537478026181788,-65.73344693253851,-0.449267280687536,-61.54695004401191,14.366110708932062,-57.56593733900217,27.48198340369697,-55.36671791407379,34.41524323041314,-55.62286626563969,34.289786264584095,-57.89737321202034,28.207042330236813,-60.94684182300511,17.44582861859371,-63.4712102440878,3.0773909399623327,-64.83342290735148,-12.968763996548775,-65.31949454348081,-26.886485580724557,-65.91162501956802,-33.69518941233302,-67.79879058492277,-29.76079488644558,-71.71564490796973,-15.542202605882704,-77.14094058309685,1.9656027540578171,-82.12097611636293,3,-86" fill="none" stroke="rgb(233, 236, 239)" stroke-width="2" stroke-linejoin="round" filter="url(#fuzzy)"></polyline><polyline points="-29,-80,-1.7873791379872104,-77.02662483239122,24.193079622483324,-68.60839641915166,39.42247649121314,-61.94456016837597,44.872411868679094,-59.11970121841353,43.082615983791584,-59.70788419463224,36.83589750088192,-62.32097025779756,29.305694567953566,-65.4333370567397,23.389135218262865,-67.74202948148027,20.485028452309745,-68.4459272947164,19.839953422546387,-67.4961290359497,19.03778423077218,-65.65884480814248,15.432297506603735,-64.25013670507678,7.9234852096173025,-64.54391072490516,-1.7601687011609433,-67.06356450943466,-9.292734224855849,-71.16371731488925,-10.079430601460215,-75.30585417033052,-2.8396746921466134,-78.09837417582865,7.683926516832198,-79.62674316431054,10.57154188797562,-81.93482097166861,-5,-86" fill="none" stroke="rgb(233, 236, 239)" stroke-width="2" stroke-linejoin="round" filter="url(#fuzzy)"></polyline><polyline points="54,-57,-5.508046359857053,-64.61465147081176,-11.733982798286359,-71.18352385181039,-3.289335808283728,-72.30307724251129,3.659874295661968,-69.87618772076885,5.562558950719084,-67.03479809847182,5.2328241911852045,-65.16790176783869,6.696593332901215,-63.920677172535584,11.844563874257437,-62.5344888731474,19.679946899414062,-60.900177001953125,27.537367216062385,-59.655313412329,33.07190702088369,-59.43575355483329,35.849537575695955,-59.98740746259294,37.376331876704384,-60.18606542647539,38.90479465717106,-59.54502870362246,38.25356016199527,-60.16843917162709,29.485793418714202,-66.2144977427474,9.535939219863767,-78.25538125523641,-9,-86" fill="none" stroke="rgb(233, 236, 239)" stroke-width="2" stroke-linejoin="round" filter="url(#fuzzy)"></polyline><polyline points="67,-28,10.867138725612959,-47.39736586367987,0.5080502086322259,-57.723342598129726,0.050159924808007926,-62.248673702427155,6.524456645548903,-61.71299465853045,14.7166708883988,-58.82463411591453,18.749354640013657,-56.74824537484845,17.053094175236932,-57.04698750792275,12.55111375903068,-59.230421351771675,9.54901607289263,-61.76035024908112,10.607309672669341,-63.37947429351175,15.398607622525159,-63.806263152787274,21.720953098823532,-63.54267602781508,27.475068396935512,-63.17079142316555,31.951339137874033,-62.766679385328985,35.434304248285066,-61.88349411286213,37.66675727400365,-60.07732856606552,37.12348241144852,-57.46505815686989,33.00016283267211,-54.70925842305455,29.477849369365252,-52.496917577290816,35.88266594318929,-52.840542380544086,39,-72" fill="none" stroke="rgb(233, 236, 239)" stroke-width="2" stroke-linejoin="round" filter="url(#fuzzy)"></polyline><polyline points="-11,-86,-23.235630936226134,-79.020776125199,-28.485964710804144,-74.66352050060732,-21.551802863594993,-73.88719153779957,-7.236646083622151,-72.19389572529698,9.103992917232972,-68.1428430035321,22.922374555152576,-63.501320528957876,31.289503663182323,-60.68545358178255,33.55417323892081,-60.671584152675536,30.978279301351876,-62.62083497799753,25.59851837158203,-64.8775577545166,19.185194212922415,-66.28761517053633,12.824783758479267,-66.9054901126437,7.073967170790629,-67.70348246098212,2.3530182320154585,-69.52974189440617,-0.7418894230140722,-72.10893644672069,-1.3530219134743304,-74.03301786084295,1.6133846326005576,-73.94429254122967,9.49380621513788,-71.33846674747463,24.751892209085945,-63.62041989468909,65,-36" fill="none" stroke="rgb(233, 236, 239)" stroke-width="2" stroke-linejoin="round" filter="url(#fuzzy)"></polyline><polyline points="-41,-74,-24.22776113905612,-80.38529305470267,-22.839313138469066,-79.9640505248784,-22.352484447059993,-77.45302123816556,-17.910007929190733,-75.54140565072603,-13.274361663923264,-74.61660034454198,-12.612117277671425,-74.19089786647348,-15.201171433789208,-73.74504636747565,-16.08211658549311,-72.74073383928945,-10.297071737470974,-70.57299687410891,2.9524118457245514,-67.14831115707977,18.78659824538734,-63.90645431686847,29.087748749754365,-63.9078542351401,29.303982518275713,-69.01814760251256,27.483826848359037,-74.07436226470793,47,-65" fill="none" stroke="rgb(233, 236, 239)" stroke-width="2" stroke-linejoin="round" filter="url(#fuzzy)"></polyline><polyline points="38,-72,-7.212819719261983,-68.48352693337154,-7.0613489635292375,-73.3943405445893,4.143605126456739,-74.5878393483859,14.530082696823987,-71.65729446872626,18.883937625308366,-67.30994102853442,17.015005517687033,-63.783753127728936,12.067987566057365,-62.00594734540043,7.763853943623371,-61.88283557756936,6.347156524658203,-62.72067642211914,7.887599319627296,-63.56071115268675,10.571803031971388,-63.63817796572218,11.71406378045225,-62.98223333252775,9.52086700285734,-62.65098205320783,5.002382657806477,-63.92683634670679,1.9436222611217424,-66.57388799603265,3.3801690551749637,-67.76386715214285,11.445969517212278,-63.68561009993889,58,-51" fill="none" stroke="rgb(233, 236, 239)" stroke-width="2" stroke-linejoin="round" filter="url(#fuzzy)"></polyline><polyline points="32,-77,14.870168048078602,-69.78105863123717,26.52236979385351,-60.978306347278036,32.0593039718363,-58.14860066812871,29.237184918494833,-59.300394627268204,22.061657404031756,-62.244636284599856,14.81983616755196,-65.55855526961952,10.653014451067596,-68.13585861664816,10.857236960590404,-69.19154798107681,14.809434860410171,-68.55238668357752,20.540669490690615,-66.78022144029289,25.72639926436017,-64.89727139382114,28.715342134936684,-63.84027659850476,29.110206978928343,-64.0190922243039,27.573065340300705,-65.28141221211649,25.0680171969401,-67.23018729698745,22.26480649342498,-69.52235271735857,19.65696270079425,-71.82794875576738,17.9824550841092,-73.56503896174591,17.71400778942381,-73.94833407311032,17.168493677740358,-72.78327307561725,11.582265931445676,-71.75289789235873,-0.945366536620694,-75.10437197095469,6,-86" fill="none" stroke="rgb(233, 236, 239)" stroke-width="2" stroke-linejoin="round" filter="url(#fuzzy)"></polyline><polyline points="41,-70,-4.118234536811262,-75.98120063967487,-13.258535417535072,-79.15369601202585,-9.624289713079236,-80.24435941830072,-3.561179326260377,-80.55899769149369,1.3562989639886303,-80.84227156901798,4.665533207432524,-81.16700712328925,7.004753153588283,-81.19940833387034,9.220520910488586,-80.52304933947678,12.001963464456498,-78.90438898186783,15.734866475194456,-76.42677273530322,20.47515287573983,-73.4230464197176,26.01885728475678,-70.23447905107403,32.00698644755192,-66.9964143632405,37.93600333268639,-63.6996835925384,42.9968250525835,-60.551237370225344,45.85854542979137,-58.29392388068161,44.665734782839,-58.01372159609407,37.463109785879816,-60.314635213121676,23.126901188596207,-64.38846409565001,3.016476103677449,-67.91896831514009,-16.026715773024694,-68.62503527908925,-16.935028145946596,-67.87326561103826,32,-76" fill="none" stroke="rgb(233, 236, 239)" stroke-width="2" stroke-linejoin="round" filter="url(#fuzzy)"></polyline><polyline points="37,-73,9.6642403367592,-77.56289864307502,2.49404762389763,-75.00469936815699,7.934563619634568,-70.40961684643419,13.738728080675472,-66.55058460837238,17.031433077371656,-64.3208934446865,19.603444640513825,-63.49422157522254,22.603141422755247,-63.551194347771236,25.576482305659844,-63.93729313301775,27.74533772584664,-64.13232347296268,28.86154286840755,-63.85183269947489,28.954861965194798,-63.25331154114871,27.770065248012543,-62.85934579372406,24.763847137769545,-63.14853194842516,19.741781283625382,-64.11397926322748,13.495636052435012,-65.19458829089804,7.755121720990216,-65.71673892486675,4.3700216354032575,-65.52965009902215,4.333772270873791,-65.23600548065176,7.3494897928633565,-65.59537954090126,11.893394591420426,-66.33758993996088,15.108075779664805,-65.4367787042159,13.706329620222387,-60.076433426366165,13.518656098937974,-48.95214232964733,66,-32" fill="none" stroke="rgb(233, 236, 239)" stroke-width="2" stroke-linejoin="round" filter="url(#fuzzy)"></polyline><polyline points="-50,-66,20.30177078105361,-47.644300746790066,31.588807716700508,-49.52124840248477,19.152903301747475,-58.0091243094118,5.259608193699198,-65.96724455582451,-1.4232427567544148,-71.64006507251032,-1.42085022913085,-75.17522162320162,1.4541887288113529,-76.99110474345734,4.006006099425293,-77.41595953943657,4.946016219994319,-76.7146729232006,4.557822260861502,-75.15107210678329,3.889526605606079,-73.03463339805603,4.107336553173196,-70.73441930941524,6.13510441105266,-68.59201817642479,10.510880355434207,-66.69748026652768,17.364301719435808,-64.6734256437761,26.31178881824854,-61.80012552147113,36.008258470108714,-57.70827401085051,43.479313336330755,-53.363155289055044,44.08998580294843,-51.60538588468168,33.34823278901529,-56.62865182803182,12.44024649944619,-71.32100291346248,6,-86" fill="none" stroke="rgb(233, 236, 239)" stroke-width="2" stroke-linejoin="round" filter="url(#fuzzy)"></polyline><polyline points="45,-66,11.285953057721866,-70.05909847760459,15.046186127573334,-71.25199278087744,14.201080503613762,-72.58637112186223,4.713995647607602,-74.06329024716916,-6.288185748087926,-75.40077985500102,-12.268474182451667,-76.45830507860185,-10.900516835562177,-76.95962044960977,-3.7027775091151067,-76.60778008317703,5.749698359576502,-75.48826754331178,13.743280410766602,-74.2037353515625,17.86149925259642,-73.50498216044824,17.595823024609913,-73.72921010136353,14.112695248249743,-74.54918916832749,9.60125782430615,-75.19450790336751,6.6639025179410964,-74.81172627891647,7.4662860138943214,-72.61752626257297,11.79416048592163,-68.1240817207801,15.417529130273214,-62.01095310065507,17.829117594875207,-56.1251735623653,61,-44" fill="none" stroke="rgb(233, 236, 239)" stroke-width="2" stroke-linejoin="round" filter="url(#fuzzy)"></polyline><polyline points="12,-84,11.446916316713006,-77.8963247605596,24.509044103948852,-69.99654704002961,30.878223298110083,-65.90083561631069,28.446094168640027,-66.64693199185417,20.010579373679036,-70.60543228464299,9.207057308987535,-74.9126081823708,-1.2831980439377972,-77.46731781936907,-10.03415543345864,-77.81811611332398,-16.225522640175978,-76.79779893675574,-18.921531273742428,-75.52585858651776,-17.04167226438396,-74.47477141756227,-10.198185690228238,-73.2564640537277,0.11184410593237626,-71.45032081097825,10.029805313187673,-69.6632856041903,15.732419731234746,-68.30809313888325,23.088957536281676,-61.305057744801346,67,-28" fill="none" stroke="rgb(233, 236, 239)" stroke-width="2" stroke-linejoin="round" filter="url(#fuzzy)"></polyline><polyline points="66,-29,30.730570010950103,-56.89291374451904,33.810454176493245,-60.15974770276114,38.959211762095975,-60.579977624306764,40.228003423618894,-62.103226955549324,37.50580197605999,-64.14124473525648,31.2227407455192,-66.03263940592886,23.067616124775043,-67.29275429413109,15.953948045563784,-67.52640521972432,12.332905622666821,-66.76094383667913,12.563590187333043,-65.64300571549855,14.823928684408973,-65.11295088439975,16.555122421937416,-65.75946212580992,16.262906276944953,-67.36011383133135,14.42128143000363,-68.94905153387707,13.020253319696378,-69.33505226131454,14.22166787529419,-67.68631721577225,18.995543614354848,-63.83909936379067,26.310415706203624,-58.33009373008773,32.754817712147926,-52.4930537895642,32.27415410243936,-48.852872205770275,17.475120474666838,-51.178733460097284,-11.461710036259108,-62.698238454225795,-18,-84" fill="none" stroke="rgb(233, 236, 239)" stroke-width="2" stroke-linejoin="round" filter="url(#fuzzy)"></polyline><polyline points="6,-86,-5.711096608468036,-82.86446152849571,-11.607875890287833,-79.03803016323685,-16.621181882204,-76.13552650762134,-14.991908151253293,-74.89520091971399,-6.474082867025135,-74.09545779246862,4.600114985190408,-72.23040080971103,12.784713262581528,-68.95772340389347,14.517975652913712,-65.22940255032725,10.084605458124068,-62.46869962631924,3.449626361270444,-61.571640560296615,-0.5746455139487637,-62.391836817806954,-0.07121548000420508,-64.0059605818681,3.0420860095678206,-65.4811240429905,7.070365835153963,-66.30860878727081,15.295785968207007,-66.05580241258002,29.19768513082676,-65.87062767296243,21,-82" fill="none" stroke="rgb(233, 236, 239)" stroke-width="2" stroke-linejoin="round" filter="url(#fuzzy)"></polyline><polyline points="-27,-81,2.9459488168561654,-67.68948061488715,14.345973296363391,-57.304411076465286,27.079803253875003,-52.4062306575275,34.12033093274521,-53.561024984064815,33.22292149808709,-58.11094868381679,27.144475885527402,-62.95263951750796,19.463557304937563,-66.4793078782925,12.763106213550914,-68.69319006371845,8.669004539799529,-70.29922874062909,7.969738006591797,-71.84716701507568,10.340092746676005,-73.40115881714222,14.317212623413473,-74.64322427418315,17.90748238026177,-75.16152656740185,19.256466906233847,-74.7879900667179,16.71021705469684,-73.89499070913644,8.835584565810057,-73.42555172265766,-3.959997795552138,-74.39994336407494,-16.354971067042104,-77.14214848404461,-19.49597582922513,-81.13227649055389,-18,-84" fill="none" stroke="rgb(233, 236, 239)" stroke-width="2" stroke-linejoin="round" filter="url(#fuzzy)"></polyline><polyline points="62,-42,8.66597533231966,-54.004549348166506,6.247129329049255,-62.84214178239195,9.580051467154108,-64.92261295601124,12.293134000775039,-61.421156512844775,14.870436080553388,-56.19033177843735,16.811802488006872,-52.804667466084695,17.496904764506116,-52.831809391607216,17.894523250143934,-55.5803393489291,19.975358364780266,-59.01013458630718,24.702402871106646,-61.224044288974945,30.73255373782651,-61.765445952760686,35.05011721567188,-61.829002524550745,35.32330931862888,-62.81477753540039,32.262671729438416,-63.934342611555564,28.145537153669856,-61.79483553612145,15.867279044018774,-56.83328833860346,-44,-71" fill="none" stroke="rgb(233, 236, 239)" stroke-width="2" stroke-linejoin="round" filter="url(#fuzzy)"></polyline><polyline points="8,-85,-6.091753122696792,-81.25447114016148,-19.38787772910083,-77.77401157549188,-26.850356394670825,-76.19923527228173,-31.176707318103862,-74.9253414569829,-33.02807298946091,-73.33397061515312,-31.513080140684067,-71.6674291018202,-26.065837533588216,-70.51371552833035,-17.648586191850164,-70.40879650083565,-8.641841888427734,-71.52602005004883,-1.6564575753574071,-73.53923590320154,1.8548357630042727,-75.73663923971196,2.373338803978433,-77.26092908059904,2.2756519035686216,-77.24046932235305,5.116881978123755,-74.77986700948068,13.729147020966137,-69.25400934814934,25.412850077076317,-61.8620126090819,23.23764353003411,-59.48312837581607,-30,-80" fill="none" stroke="rgb(233, 236, 239)" stroke-width="2" stroke-linejoin="round" filter="url(#fuzzy)"></polyline><polyline points="5,-86,17.253362603932693,-64.92121818082684,15.528189626084167,-59.88292104118337,20.098918291079187,-60.105425931403325,21.277479969730642,-62.3290415981606,14.884533435194765,-65.98445400754224,4.194955676647426,-70.50918670873395,-6.1265399699872845,-74.7742231056239,-13.840294206002328,-77.72378674546759,-18.71932864980582,-79.04288409799884,-20.54283918628785,-79.13955411377327,-18.85152341087327,-78.44540015689006,-15.443007758368767,-76.64786336323994,-17.140272572575054,-72.77914464573442,-32.84854544785429,-66.79658035291313,-52,-62" fill="none" stroke="rgb(233, 236, 239)" stroke-width="2" stroke-linejoin="round" filter="url(#fuzzy)"></polyline><polyline points="37,-74,40.47404101613887,-69.41120980008856,35.59703002160211,-70.39220760834877,31.70332825805863,-70.66247681235131,32.89982099132612,-67.71714652562514,36.71147476381835,-63.4435974607348,39.41464524332548,-60.47030933385228,39.110827826449295,-59.951545485742024,35.778839111328125,-61.352691650390625,30.276780328889874,-63.12659251269942,23.604137619244632,-63.6746297987767,16.53970098430629,-62.418584564741764,9.339800127316266,-60.403570930007845,1.6331177935536147,-59.42880782686364,-5.451773448424426,-59.238692628747835,0.7438299787221716,-54.026921074321265,65,-34" fill="none" stroke="rgb(233, 236, 239)" stroke-width="2" stroke-linejoin="round" filter="url(#fuzzy)"></polyline><polyline points="23,-81,3.488860095749555,-74.63142178466272,19.62305311800953,-66.72692087505546,34.328934104435014,-61.10316013470466,40.184340946352734,-59.423643514919554,39.82298248051573,-59.99713782945932,36.62775280325474,-60.857737715717384,32.01864474086609,-61.2562802017035,26.26952108912826,-61.45462848342466,19.926373444303024,-62.02468762092176,14.219501371010798,-63.36719566241232,10.459431409835815,-65.55888533592224,9.264140384406724,-68.3718571699026,10.363841500288284,-71.30977540571489,13.086137719576458,-73.63512193982258,17.019915673280487,-74.50207757598906,22.188217722759,-73.33421745056056,28.40450834622805,-70.41563166642024,34.12136632072643,-67.33912213447772,35.63122605278307,-66.63835005052168,27.53197901385626,-69.94711708849658,4.220730041440692,-75.01887040045779,-41,-74" fill="none" stroke="rgb(233, 236, 239)" stroke-width="2" stroke-linejoin="round" filter="url(#fuzzy)"></polyline><polyline points="-45,-70,-14.152458427317406,-78.4178961947012,-0.4989716344669439,-77.67780762598446,2.286858876126936,-72.45410142441291,2.081134122563526,-67.32186355628073,1.0005520206523015,-65.31007216474059,-0.8399908563160814,-66.49766901443414,-2.548840108778856,-69.14018355368387,-2.5700225830078125,-71.3624267578125,0.2786731011152068,-72.03004845889096,5.7921508063377125,-70.98175588886548,11.686735741477,-69.16910318788443,14.387520220829174,-68.50238000787795,12.217897522950235,-70.64589945248112,8.772917324223908,-74.8358270156588,12.445918837926223,-76.74953813000904,42,-70" fill="none" stroke="rgb(233, 236, 239)" stroke-width="2" stroke-linejoin="round" filter="url(#fuzzy)"></polyline><polyline points="-5,-86,-5.499187751985642,-78.63223029371854,-13.27115319195067,-74.45080281120153,-8.779226375810667,-72.3258505861964,3.982800179450679,-69.2801502358735,17.372039637617043,-65.56471666311494,26.485580101288228,-62.658659633213475,30.221368680049885,-61.398148455933026,29.756748849002616,-61.48537325270687,26.70210848772285,-61.974143585318124,22.26394034644594,-62.095670916663025,17.378432118668343,-61.89368262675854,13.011265941927563,-62.291684392122384,10.037247567870457,-64.43481981336903,8.864282604869102,-68.53496555654642,9.585685386530121,-72.90466839782074,13.325442359966184,-74.01823590821566,23.77545752628365,-68.09104964315762,44.20222218195115,-54.63087573868707,61,-45" fill="none" stroke="rgb(233, 236, 239)" stroke-width="2" stroke-linejoin="round" filter="url(#fuzzy)"></polyline><polyline points="1,-86,32.860317031932425,-66.30215564789931,42.38847532945179,-58.92767487747852,38.90427610662099,-60.7791473503664,29.702035299735144,-65.27541020861827,18.498572318376706,-69.8815269691003,8.234428105701785,-74.03867050780632,1.4721941052343597,-77.29783258500893,-1.1489715576171875,-79.21897888183594,-1.57672804085722,-79.81672953631191,-2.779038861392916,-79.54383496056248,-5.919808449694743,-78.68906369492808,-8.374341898364946,-76.61648296169005,-4.087481931969385,-71.37086677761387,13.398419372389856,-60.14459546925792,44.12755572480104,-41.99824739389863,66,-29" fill="none" stroke="rgb(233, 236, 239)" stroke-width="2" stroke-linejoin="round" filter="url(#fuzzy)"></polyline><polyline points="32,-76,-11.14390629035115,-70.60423081557516,-15.107097148077546,-72.90831988884642,-10.864229642210129,-72.41068271191754,-4.659861629130955,-71.12013934356916,1.207608947792854,-71.28253373696194,5.998199060143156,-72.21269359607882,10.550848004575126,-71.82137560215828,15.386500943675768,-68.91032021077561,18.935039520263672,-64.26381301879883,18.113134614467857,-60.14263998933845,11.037270931506514,-58.73134220415409,-0.44574869141728835,-60.57229206584374,-10.92053785501361,-64.01719544746776,-14.904790969439848,-66.18525092913441,-11.647999713832716,-65.15266911378787,-7.374539808817594,-62.637252628442155,-9.125913434462484,-65.93827955379977,9,-85" fill="none" stroke="rgb(233, 236, 239)" stroke-width="2" stroke-linejoin="round" filter="url(#fuzzy)"></polyline><polyline points="-47,-69,9.066893642866702,-68.79854663282276,25.075357268687977,-65.56466872863558,20.904258752980372,-64.15886778728031,13.821015365188941,-64.07827893225476,12.529798718678517,-63.583701946921735,16.11598670732712,-62.54876103881615,20.31070535734451,-61.779366543433994,23.269027709960938,-61.626678466796875,26.215733570689288,-61.87553241149928,30.330756671775926,-62.58054304362196,34.285420549729054,-64.40618915591634,35.392530403798446,-67.74931416241452,33.39927927700136,-71.37425991285446,33.06016955213761,-71.93876965518058,41.66164594415065,-65.36284689642721,58,-51" fill="none" stroke="rgb(233, 236, 239)" stroke-width="2" stroke-linejoin="round" filter="url(#fuzzy)"></polyline><polyline points="-35,-78,-18.9417190450065,-80.90678470906212,-1.6237848174471097,-80.08644058640799,6.0192154233694195,-78.56711222297187,3.0130186094902456,-77.70130955358036,-4.3252512616043,-77.51310666683315,-9.775100876043076,-77.67342844685082,-10.81179700489445,-77.61750027587775,-7.579986572265625,-76.57270812988281,-0.5193286359976769,-73.94664901431268,10.12203913761848,-69.91512323142534,22.538294317684024,-65.80016061299466,31.897860886063427,-63.820232815342024,31.800764135646208,-65.87510771004216,18.149915821507214,-71.25437938796391,-9.117549897125633,-73.79537143900203,-53,-61" fill="none" stroke="rgb(233, 236, 239)" stroke-width="2" stroke-linejoin="round" filter="url(#fuzzy)"></polyline><!--]--></g><g id="lineNose"><path d="M -9.453407983644773 1.0329675432962135, Q8.205289915882846 3.999828092881431,-0.6240590338809637 -4.587025944242722" fill="none" stroke="black" stroke-width="3" stroke-linejoin="round" filter="url(#fuzzy)"></path></g><g id="mouth"><polyline points="26.12389560893685,52.752617098551234,26.149102153464483,52.655436796411706,26.064632537980007,53.1888622399966,25.75235435747044,53.96613430130207,25.817779431432356,54.12177175113361,25.515494578777332,54.740255748958795,25.14306038016354,55.38328761919427,25.638319673622494,54.481294389348335,25.187121019141472,55.51489084863586,25.05140826490709,55.72868950358787,24.77326822884503,56.168246290206426,24.161438556930676,56.82656753800575,24.107249595925225,57.08718328032528,24.39270393879537,56.60480276456185,23.10266620241729,58.008392674172285,23.230037711365696,58.036453274900346,23.47551443983021,57.71430547186079,22.84649979287648,58.2104398262256,22.759890281203617,58.44492150119338,21.80349096489294,59.212415342851955,21.97020756623321,58.94144767163099,21.645972891733877,59.194072302139915,21.245468962809163,59.47256896954643,21.10256687851541,59.68571194295485,19.903288260652424,60.29371518084711,18.83332274269664,60.84051388285742,18.544149663393334,60.99226372349273,19.278193351530284,60.6686694615215,18.870692764919497,60.8498396025535,17.88568465093798,61.221894406807266,17.717630889455176,61.31609876301874,17.6992837621417,61.306282108859016,16.826957792310843,61.564224423597295,15.407243331617263,61.96981800149581,15.464425542903895,61.91169853226927,15.033364284322111,62.06225203442041,14.896155341342446,62.08319141184506,13.395868408128237,62.334901313193924,13.70989275448391,62.24764981032185,13.588206789591728,62.29975642827766,12.411483097438742,62.40910675658483,11.917296004793304,62.44441067531866,10.77848147161708,62.50857385168493,9.585088051566746,62.5085210185123,10.667188596052686,62.504855902187636,9.817950704408213,62.50107093857707,9.056041219187067,62.48561002322808,7.804135746317063,62.39027060081869,8.153524894379892,62.41782023381279,7.81639255078125,62.38814981401837,6.355724498023832,62.196907222468305,5.8177212123671564,62.10606664145938,5.189231634193298,61.983920474715106,5.960978711634386,62.12917676547793,3.7998035052026164,61.65459568637024,3.7426490943134736,61.64120758572702,3.6086077393162324,61.59647356429436,3.1740251852742976,61.47073153079535,2.557533813527728,61.293609359169956,1.9822724571038783,61.08438442996744,2.0789586588679247,61.117184144002316,0.11444714983275084,60.350228022860975,-0.5639477062841394,59.988993159480344,0.13916975197256498,60.3161820663159,-1.0975208843591382,59.73714323528799,-1.4538511881209182,59.550170285174474,-2.0408864657280397,59.16074356323334,-1.9725658705141687,59.22910387111822,-1.9992929261216545,59.25397357948222,-3.1432822062461625,58.473509514901316,-3.0463632262239955,58.52093070071005,-3.7702313033590062,58.03143334827895,-3.8334547476210012,58.03906376023795,-4.941330040164454,57.09233500515792,-4.959329934186259,57.03368820881387,-5.080377447543809,56.895297597354364,-5.72674334591164,56.3463267552263,-5.740438072660172,56.35055920764866,-6.759384530593897,55.22890935068848,-7.049499564691557,54.7976671115708,-6.807900339264789,55.20658703815314,-7.713813111952238,53.95003030110558,-7.173851397052106,54.56827996557698,-7.9708997926481615,53.26409547922831,-8.175154865189064,52.93427758698197,-8.099360535492377,53.00879105077659,-7.934166670501337,53.33176169348854,-8.571432730478382,52.30114183653704,-8.506695957124858,52.444044351594165,-8.896503061302084,51.4734443718069,-9.017378747683104,50.817920798391626,-9.048530300180602,50.95854036829883,-9.255530163413393,49.812139434002816,-9.251263999704822,49.86309323618194,-9.275137356882077,49.19122113501508,-9.23091250314695,49.42389927459956,-9.32115555361829,49.104000759375175,-9.324320340440089,48.120414996152995,-9.351525177764021,47.33610570456179,-9.312235501818268,47.06382170851154,-9.230048334289396,46.91923487234376,-9.29910108496393,47.054568535773136,-9.043997319382875,46.25928591644369,-8.994706273204116,45.73184315749347,-8.900957985907894,45.348126548629445,-8.83301927132769,45.34712117482691,-8.440874920253492,44.52255272089265,-8.388370991648056,44.30595976976292,-8.230398765083713,43.85546119615113,-8.142766490694516,43.95403086041248,-7.564484790470964,42.80488193200307,-7.61879988616608,42.962826604368416,-7.674103353138467,43.073628694991385,-6.95458606725802,42.16799269661351,-7.168899310854812,42.50647812180085,-6.308902767460754,41.58780070170389,-6.4550767591064755,41.64313692677285,-6.122371275565104,41.322492804663966,-5.332576962875191,40.68371821040988,-5.4719849218739025,40.798414666269025,-4.937461728552178,40.31946991934514,-5.111588814176759,40.46471546215408,-4.204038573825928,39.89032176230009,-4.171021766420349,39.87821690560989,-3.100040382548203,39.21492809440157,-2.206284931971899,38.743592251478645,-2.423295274760399,38.91978069580711,-2.177603698203228,38.71542561547788,-0.7739381556683682,38.1888600914252,-1.5727295961317562,38.5493605755469,-0.2650732723623914,38.00555105526442,0.3127774748668166,37.82723071973033,0.9029855712378971,37.68690435137928,1.7580119084026737,37.50034438511617,2.4123076581209952,37.38609252268546,2.1945920815983815,37.447582467964594,2.377697684774266,37.412834111743365,4.069606202091121,37.148215483637934,3.9238789226146285,37.16373707784446,5.145279207884108,37.05953496177737,3.815390045982449,37.17576256041733,5.941807881052169,37.035462033633934,6.789863497985709,37.03182098669933,7.043927110857771,37.03827212431955,7.5968956955282545,37.054388432674116,8.216948680526919,37.09235095917678,8.147662258163866,37.07816906656912,9.448958107585108,37.19747583606983,9.235541462025548,37.17890729231252,9.869070672807961,37.251695484153,10.454269961640334,37.33600498814715,10.31548889975074,37.3146602461356,12.28768283758694,37.689826344627164,11.303337362233057,37.4842735042043,11.667643928027008,37.55858945222552,13.107664943554562,37.899572592726564,14.519352150626892,38.32295045163335,13.915118561651315,38.125299603603146,15.122966556059168,38.52537544624625,14.904743515596047,38.4409233086576,14.92564086904109,38.45836414461786,16.820367509017608,39.1908360912839,16.747183454564453,39.17749826389174,17.25717048947101,39.4182405814741,17.963940598211813,39.777664813484705,18.683508429551882,40.155709741669156,18.81177375358222,40.23917038580465,18.50988943914448,40.08346818856644,19.83603855106299,40.85220207163593,19.76605606537371,40.78518645101124,20.402325902232878,41.24949774939851,21.017574643696584,41.7342787497612,21.200781072979694,41.84147411990795,21.746273692795306,42.29846654447149,22.648840393519095,43.11127877321417,22.903860229271082,43.37161990837791,22.626655673090724,43.04563971042883,23.441114410551585,43.98752871703067,23.590524349587934,44.163043074392824,23.521557614461216,44.16704929019202,24.117705145757395,44.752606427510926,24.336592661612777,45.10192103857686,24.399850315234875,45.27951293038011,24.639014074789007,45.50812190511801,25.080226944247322,46.322663566873686,24.74654394907923,45.88262465734806,25.290676007605725,46.892825907466694,25.67619543415382,47.70260115242646,25.681611473007518,47.78348184502798,26.05407287967886,48.6138405624509,25.80136215846837,47.93507849196087,26.11821355342942,49.58291730555222,26.244405582656707,49.977063294733206,26.187891693129295,49.85115267522808,26.2888010881574,50.56661362873739,26.264363954426194,49.792300122849035,26.314652891976717,51.43280672694834,26.37282577420729,51.10386329257025,26.2205686235115,51.729638515985485,26.32643942381684,51.59679121578213" fill="rgb(215,127,140)" stroke="black" stroke-width="3" stroke-linejoin="round" filter="url(#fuzzy)"></polyline></g></svg>