<svg viewBox="-100 -100 200 200" xmlns="http://www.w3.org/2000/svg" width="400" height="400" id="face-svg"><defs><clipPath id="leftEyeClipPath"><polyline points="27.20825162365107,-4.863067861813276,26.714511636611864,-4.915603796098504,26.198210519480376,-4.971509390161147,25.6604361263843,-5.030839990428609,25.102266487525906,-5.093628181474655,24.52476940980491,-5.159884588766649,23.929002077441368,-5.229598681412776,23.31601065259855,-5.302739574909273,22.686829876005813,-5.379256833887659,22.042482667581496,-5.4590812748619655,21.38397972705578,-5.542125768975962,20.712319134593578,-5.628286044750391,20.028485951417423,-5.71744149083019,19.333451820430323,-5.8094559587317285,18.628174566838652,-5.904178565590034,17.91359779877505,-6.00144449690602,17.10896187005384,-6.087529434207443,16.288542762772725,-6.180468039858642,15.453945661813227,-6.279845510157818,14.606824370678726,-6.385170656160473,13.748871414984874,-6.49588442459887,12.88180858903962,-6.611368073012787,12.00737793767216,-6.730951005127527,11.127333165469963,-6.853918272515151,10.243431465583193,-6.979517748574881,9.35742576025573,-7.10696698086866,8.471057345242054,-7.235459727847806,7.586048930269242,-7.364172186006739,6.704098067703328,-7.492268913499732,5.826870961579242,-7.618908456256666,4.95599664915361,-7.743248682633714,4.093061547139651,-7.8644518326349715,3.2396043547834044,-7.98168928774094,2.397111305940564,-8.09414606737986,1.5670117623131254,-8.201025058077848,0.7506741400051142,-8.301550981323793,-0.05059783844332877,-8.394974106184984,-0.8355685743843377,-8.480573712709417,-1.6030737135938296,-8.557661312150763,-2.3520229648470092,-8.625583630051947,-3.0814026243785264,-8.683725358223288,-3.7902778140680446,-8.731511681651192,-4.47779444119208,-8.768410586373346,-5.143180887582696,-8.793934954356342,-5.785749436033996,-8.807644451411782,-6.404897441796949,-8.8091472141867,-7.000108257003562,-8.798101342264381,-7.570951915860869,-8.77421620141147,-8.117085588455769,-8.73725354400736,-8.6382538110112,-8.687028452691802,-9.134288500434675,-8.623410113266726,-9.605108760999624,-8.5463224228882,-10.05072049100064,-8.455744439584537,-10.471215797223046,-8.35171067913645,-10.866772225067844,-8.234311265355297,-11.237651812172526,-8.10369193979527,-11.584199973368662,-7.960053936935617,-11.90684422481705,-7.803653730868744,-12.20609275516102,-7.634802659530247,-12.482532851538771,-7.453866432506771,-12.73682918829551,-7.261264528457707,-12.96972198623602,-7.057469488186649,-13.182025050258538,-6.843006109398608,-13.374623693210648,-6.618450549178924,-13.54847255380789,-6.384429340229836,-13.704593316455988,-6.141618326900695,-13.84298974361257,-5.889113081669436,-13.963158251045805,-5.625655479782585,-14.065417915508917,-5.351435132630095,-14.150099696219357,-5.066651678292493,-14.21754538475788,-4.771513973153103,-14.268106554967641,-4.466239283510262,-14.302143512853316,-4.1510524771895385,-14.32002424648018,-3.8261852151559355,-14.322123375873215,-3.491875143126127,-14.308821102916223,-3.148365083180665,-14.28050216125088,-2.7959022253761945,-14.237554766175897,-2.434737319357672,-14.180369564546059,-2.065123865970584,-14.109338584671374,-1.6873173088731597,-13.933499034411224,1.1457026510939397,-13.63336847120748,1.4588591047248407,-13.326182601638632,1.7725575776704359,-13.011970439987746,2.0863487533676723,-12.69077234537636,2.399754677869182,-12.362639058084664,2.712271024941818,-12.027630735871707,3.023369361165196,-11.68581599029557,3.3324994110302253,-11.3372709230336,3.6390913220376504,-10.982078162202559,3.942557929796587,-10.620325898678846,4.24229702312306,-10.252106922418669,4.537693609138536,-9.87751765877827,4.828122178368469,-9.496657204834076,5.112948969840826,-9.109626365702926,5.39153423618464,-8.71522877181485,5.665603810687751,-8.31229577818073,5.936375082943012,-7.900966374441198,6.2024628267997315,-7.481373708255932,6.462512577573776,-7.053644638601018,6.715205197646782,-6.617899311822486,6.95926139909356,-6.174250767641469,7.19344620642498,-5.722804582306406,7.4165733425335585,-5.263658556087822,7.627509520929083,-4.796902452311135,7.825178627351441,-4.322617795122996,8.008565773848048,-3.8408777331865736,8.176721208402977,-3.3517469765013264,8.32876406320521,-2.8552818135427263,8.463885924643172,-2.3515302159173483,8.581354208112854,-1.8405320377289005,8.680515320726789,-1.322319316850587,8.76079759501113,-0.796916685299319,8.821713976678078,-0.26434189590725055,8.862864449561004,0.27539352751390656,8.88393818079943,0.8222835093202798,8.884715369361176,1.37632650329952,8.86506878098897,1.9375244288552214,8.824964952658716,2.505881454916695,8.764465049636746,3.0814026243785255,8.683725358223287,3.6640923118745112,8.58299739726942,4.2539525076904585,8.46262763155478,4.850980920620402,8.323056770113274,5.455168892570719,8.164818632594107,6.066499117716714,7.988538566745326,6.6849431590161705,7.794931400107149,7.310458754884391,7.584798909002448,7.942986908835274,7.359026787911466,8.582448754892921,7.118581102318226,9.22874219157832,6.864504208115751,9.881738277275623,6.597910120657444,10.541277379782532,6.319979316541827,11.207165072849339,6.031952951218004,11.879167772511128,5.73512647549895,12.55700810601765,5.430842634070098,13.240360006165437,5.120483829080282,13.928843523836651,4.8054638319024665,14.622019351549163,4.4872188261513966,15.31938305082246,4.167197765045556,16.020358976163838,3.8468520262005637,16.724293888479426,3.5276243469414146,17.430450250714603,3.210937023220694,18.13799919852824,2.898179355230143,18.8460131788054,2.590694322792756,19.553458248812937,2.289764473622725,20.13136017879089,2.0176592188977445,20.70608347970807,1.7472360873872015,21.27690490152834,1.4790766750493827,21.84305387880798,1.213758095808565,22.403711245920192,0.951852052174182,22.958007952279708,0.6939239058600055,23.505023777567324,0.44053174840332154,24.043786046954473,0.19222547178410032,24.573268346327758,-0.05045416095582489,25.092389237513547,-0.2869764450935808,25.600010973502503,-0.5168216636060867,26.09493821367416,-0.7394820165508706,26.575916739021462,-0.9544625504468982,27.041632167375337,-1.1612820876553953,27.490708668629257,-1.3594741557606778"></polyline></clipPath><clipPath id="rightEyeClipPath"><polyline points="-28.053474413278934,-3.2099764981956667,-27.514733239373427,-3.267982723942461,-26.952951239666994,-3.3298665677907295,-26.36952460130894,-3.395721795551287,-25.76582046113389,-3.4656137288111757,-25.143176970119466,-3.539580228148067,-24.502903357843955,-3.617632676344664,-23.846279996944045,-3.699756961603103,-23.174558467572503,-3.785914460759358,-22.488961621855864,-3.8760430224976394,-21.790683648352164,-3.9700579505648,-21.08089013650858,-4.067852986984733,-20.360718141119158,-4.16930129527278,-19.631276246782516,-4.274256443650128,-18.893644632359525,-4.382553388258214,-18.148875135431012,-4.494009456373127,-17.285410621490932,-4.589782098138105,-16.410870017060077,-4.693996660414564,-15.527050075414001,-4.8061874715219,-14.635745657923003,-4.925796816449493,-13.738743148257807,-5.052185371154981,-12.837814211735246,-5.1846421980810735,-11.93470989332784,-5.322394310842287,-11.031155047861056,-5.4646158160330085,-10.128843095922129,-5.610436640108254,-9.229431099004305,-5.758950849288517,-8.334535147410293,-5.909224570440104,-7.445726054438836,-6.060303520882318,-6.564525350378213,-6.2112201550729065,-5.692401569830496,-6.361000436123147,-4.830766825890459,-6.508670240093941,-3.980973664702935,-6.6532614010243485,-3.144312193922497,-6.793817404643894,-2.322007478599306,-6.929398738720073,-1.5152171980149216,-7.059087907992427,-0.7250295569920091,-7.18199412164459,0.04753855479827962,-7.297257661265655,0.8015431620074231,-7.404053937252302,1.5361145677352113,-7.501597241603038,2.2504584890862347,-7.589144205055932,2.943856970633295,-7.665996966521271,3.615669082263903,-7.731506062760461,4.265331407886013,-7.7850730462626485,4.892358331469147,-7.826152839270331,5.496342126897098,-7.854255831905479,6.076952858108294,-7.868949732347438,6.633938096000071,-7.869861177014068,7.167122458572935,-7.856677108697479,7.676406980790992,-7.829145930605776,8.161768320634705,-7.787078444262148,8.623257807822208,-7.730348579212755,9.061000341675102,-7.658893922494741,9.47519314460522,-7.572716055815805,9.866104377698198,-7.471880708396683,10.234071624870255,-7.356517733427957,10.579500252074157,-7.226820916092542,10.902861648030667,-7.083047621105284,11.204691352961449,-6.925518287721015,11.485587081799865,-6.754615780162469,11.746206648355509,-6.57078460141946,11.987265796908842,-6.374529978370676,12.209535947711997,-6.166416826179502,12.413841862871946,-5.947068599915257,12.601059239092192,-5.717166041351214,12.772112233749018,-5.477445828890811,12.927970930778718,-5.228699138573438,13.068717226837697,-4.9699471527581025,13.193987448502606,-4.699813194001225,13.304121173091586,-4.418539808934326,13.399463885873613,-4.126379614278733,13.480366112726164,-3.823594231927676,13.547182552793062,-3.5104532240283834,13.600271211142212,-3.1872330280641936,13.639992531423376,-2.854215891936641,13.666708528525936,-2.5116888090475737,13.680781921236692,-2.159942453381253,13.682575264897581,-1.7992701145864407,13.672450084063515,-1.4299666330585161,13.650766005160074,-1.052327335021567,13.617879889141326,-0.6666469676104989,13.913069826560681,1.2920838595654995,13.681567734919534,1.537685859556575,13.442171742216251,1.7839848350576002,13.194705184987365,2.0306623628398635,12.938993272614999,2.277378672145667,12.674863422205457,2.5237741713077186,12.40214559346792,2.769470974368538,12.120672623592965,3.0140744276998426,11.830280562131344,3.2571746366219587,11.530809005872465,3.4983479920232154,11.222101433723106,3.7371586969793302,10.904005541586047,3.9731602933728363,10.57637357723866,4.205897188512444,10.239062675211555,4.434906181752466,9.891935191667221,4.659717991112208,9.534454238298276,4.881597989462309,9.165866322941062,5.101454506411794,8.785734905044203,5.318288518497625,8.39365361786106,5.531116326203867,7.9892474685240895,5.738972921265948,7.572173999197224,5.9409153359285165,7.14212440680579,6.136025962758134,6.698824618843561,6.3234158336119775,6.242036322756489,6.50222784636387,5.771557946402705,6.671639927988839,5.287225587088379,6.830868122607481,4.788913886678976,6.979169593091288,4.27653685028551,7.115845524830308,3.750048606025338,7.240243920264279,3.2094441033571233,7.351762272778507,2.654759747489477,7.449850108565742,2.0860739673628697,7.5340113850553,1.5035077147044156,7.603806734510619,0.9072248916550905,7.658855541396584,0.29743270446891046,7.698837842117768,-0.32561805921629094,7.723496035728885,-0.9616328320369529,7.73263639421869,-1.6102731499911425,7.7261303609685585,-2.2711566194556774,7.70391562598699,-2.943856970633295,7.665996966521271,-3.627904199930482,7.612446841647571,-4.322784803766224,7.543405729440647,-5.02794210631223,7.459082195324485,-5.74277668366495,7.359752680205049,-6.466646886949913,7.245760996986408,-7.198869466858746,7.117517524071482,-7.938720302119305,6.975498084448678,-8.685435234399394,6.820242498965546,-9.438211012144448,6.652352802390886,-10.196206345849612,6.472491110866355,-10.958543077266699,6.281377129348935,-11.724307465046351,6.079785287645474,-12.492551589315951,5.868541493640522,-13.262294877693606,5.648519492318727,-14.032525755238698,5.420636819183033,-14.802203420839414,5.185850336669891,-15.57025975253765,4.94515134216278,-16.33560134429176,4.699560236205211,-17.09711167667755,4.450120739514525,-17.853653424027954,4.197893647397673,-18.60407090051182,3.9439501101702534,-19.34719264765225,3.6893644281800295,-20.08183416578482,3.435206350036176,-20.80680079195632,3.1825328626454956,-21.520890726764186,2.9323794616568613,-22.141325195695153,2.717125397979104,-22.754108452704955,2.5020200652832143,-23.358460274725914,2.2875407529619194,-23.953576781021432,2.0741681062466375,-24.538630220326255,1.862385661814149,-25.11276875798673,1.6526793833932585,-25.675116263101017,1.4455371973714826,-26.224772095659368,1.2414485284017127,-26.760810893684358,1.0409038350088826,-27.28228236037114,0.8443941451966523,-27.788211051227684,0.6524105920540686,-28.277596161215023,0.46544394936224354,-28.749411311887506,0.28398416720102393,-29.202604338533035,0.10851990755566465,-29.636097077313323,-0.06046192007649953"></polyline></clipPath><filter id="fuzzy"><feTurbulence id="turbulence" baseFrequency="0.05" numOctaves="3" type="noise" result="noise"></feTurbulence><feDisplacementMap in="SourceGraphic" in2="noise" scale="2"></feDisplacementMap></filter><linearGradient id="rainbowGradient" x1="0%" y1="0%" x2="100%" y2="0%"><stop offset="0%" style="stop-color: rgb(185, 55, 55);  stop-opacity: 1"></stop><stop offset="50%" style="stop-color: rgb(80, 68, 68);  stop-opacity: 1"></stop><stop offset="100%" style="stop-color: rgb(233, 236, 239);  stop-opacity: 1"></stop></linearGradient></defs><title>That&#39;s an ugly face</title><desc>CREATED BY XUAN TANG, MORE INFO AT TXSTC55.GITHUB.IO</desc><rect x="-100" y="-100" width="100%" height="100%" opacity="1" fill="rgb(47, 79, 79)"></rect><polyline id="faceContour" points="55,1,55,0,55,3,55,4,54,7,54,6,55,6,54,10,54,10,54,11,53,16,54,14,53,16,53,17,53,20,52,22,52,24,52,24,51,26,52,25,51,28,51,28,50,30,50,30,50,34,50,33,49,35,48,38,48,39,47,41,47,40,46,44,46,44,46,46,45,47,45,46,44,48,44,49,43,52,43,52,42,53,42,53,42,54,41,56,40,57,40,58,39,59,38,61,38,61,38,62,37,62,37,63,36,64,36,65,35,66,34,67,33,69,33,69,32,71,31,72,31,71,29,73,29,74,28,75,28,75,26,76,26,76,25,78,25,77,24,78,23,80,22,80,21,80,21,81,21,81,20,82,18,82,18,83,18,83,16,84,16,84,15,84,15,84,13,85,12,85,11,86,11,86,10,86,10,86,9,86,8,86,7,87,6,87,6,87,3,87,3,87,2,87,3,87,2,87,2,87,0,87,0,87,-1,87,-1,87,-3,87,-4,87,-5,86,-6,86,-7,86,-8,85,-9,85,-9,85,-10,85,-10,85,-11,84,-12,84,-13,83,-14,83,-13,84,-14,83,-16,82,-16,82,-17,81,-18,81,-19,80,-19,80,-21,79,-20,79,-22,78,-22,77,-24,76,-24,76,-24,76,-26,73,-26,74,-27,73,-27,73,-28,72,-29,71,-31,69,-30,70,-31,68,-32,67,-33,66,-32,67,-33,66,-35,63,-35,63,-36,62,-35,62,-37,61,-38,59,-38,58,-39,57,-39,56,-40,54,-40,54,-41,53,-42,52,-41,52,-43,49,-43,49,-43,49,-44,48,-44,47,-45,44,-45,44,-46,42,-46,40,-46,40,-47,40,-47,39,-48,36,-49,34,-49,34,-49,32,-50,31,-50,29,-50,29,-50,28,-51,28,-51,25,-52,23,-52,22,-52,21,-53,20,-53,18,-53,17,-53,16,-53,15,-53,13,-54,12,-54,11,-54,11,-54,10,-55,6,-54,7,-55,4,-55,1,-55,2,-55,-1,-55,0,-55,-3,-55,-5,-55,-6,-55,-7,-55,-8,-55,-10,-55,-11,-55,-12,-55,-12,-55,-14,-55,-16,-55,-17,-55,-17,-54,-22,-55,-22,-54,-23,-54,-25,-54,-23,-54,-26,-53,-28,-54,-28,-53,-30,-53,-30,-53,-32,-53,-33,-52,-35,-52,-36,-52,-36,-51,-40,-51,-40,-51,-39,-50,-44,-50,-44,-49,-44,-49,-46,-49,-47,-48,-49,-48,-49,-47,-51,-47,-51,-46,-52,-46,-53,-45,-54,-45,-55,-44,-57,-43,-58,-43,-59,-43,-58,-42,-60,-42,-61,-40,-63,-40,-63,-38,-65,-39,-64,-39,-64,-37,-67,-37,-67,-37,-67,-36,-68,-36,-69,-34,-70,-33,-71,-31,-73,-31,-74,-31,-74,-30,-75,-29,-75,-27,-77,-29,-76,-27,-77,-27,-77,-26,-78,-24,-79,-24,-79,-22,-81,-21,-81,-20,-81,-20,-82,-19,-82,-19,-82,-18,-83,-18,-83,-15,-84,-15,-84,-13,-85,-13,-84,-11,-85,-11,-85,-10,-85,-10,-86,-8,-86,-7,-86,-7,-86,-4,-87,-4,-87,-3,-87,-2,-87,-1,-87,1,-87,2,-87,2,-87,4,-87,3,-87,4,-87,6,-87,7,-87,9,-87,8,-87,10,-87,9,-87,12,-86,14,-86,14,-86,14,-86,14,-86,17,-85,17,-84,18,-84,20,-84,19,-84,21,-83,23,-82,21,-83,24,-82,23,-82,26,-80,26,-80,27,-79,28,-79,28,-79,30,-77,31,-76,30,-77,32,-76,32,-75,33,-74,33,-74,35,-72,35,-73,36,-71,37,-70,38,-68,39,-68,38,-68,39,-67,40,-66,40,-66,41,-64,42,-63,42,-63,42,-63,44,-60,45,-58,45,-58,45,-58,46,-56,46,-56,47,-54,47,-53,48,-52,48,-50,48,-50,49,-48,50,-47,50,-45,50,-46,51,-43,51,-42,52,-39,51,-40,52,-38,52,-38,53,-35,52,-36,53,-33,53,-32,53,-32,53,-31,54,-26,54,-28,54,-27,54,-25,54,-24,55,-21,55,-21,55,-20,55,-18,55,-14,55,-14,55,-13,55,-10,55,-11,55,-10,55,-8,55,-4,55,-4,55,-1,55,-2,55,1,55,0" fill="#ffc9a9" stroke="black" stroke-width="1.6666666666666665" stroke-linejoin="round" filter="url(#fuzzy)"></polyline><g transform="translate(26.102533524776806 -27.453998988892735)"><polyline id="rightCountour" points="-28.053474413278934,-3.2099764981956667,-27.514733239373427,-3.267982723942461,-26.952951239666994,-3.3298665677907295,-26.36952460130894,-3.395721795551287,-25.76582046113389,-3.4656137288111757,-25.143176970119466,-3.539580228148067,-24.502903357843955,-3.617632676344664,-23.846279996944045,-3.699756961603103,-23.174558467572503,-3.785914460759358,-22.488961621855864,-3.8760430224976394,-21.790683648352164,-3.9700579505648,-21.08089013650858,-4.067852986984733,-20.360718141119158,-4.16930129527278,-19.631276246782516,-4.274256443650128,-18.893644632359525,-4.382553388258214,-18.148875135431012,-4.494009456373127,-17.285410621490932,-4.589782098138105,-16.410870017060077,-4.693996660414564,-15.527050075414001,-4.8061874715219,-14.635745657923003,-4.925796816449493,-13.738743148257807,-5.052185371154981,-12.837814211735246,-5.1846421980810735,-11.93470989332784,-5.322394310842287,-11.031155047861056,-5.4646158160330085,-10.128843095922129,-5.610436640108254,-9.229431099004305,-5.758950849288517,-8.334535147410293,-5.909224570440104,-7.445726054438836,-6.060303520882318,-6.564525350378213,-6.2112201550729065,-5.692401569830496,-6.361000436123147,-4.830766825890459,-6.508670240093941,-3.980973664702935,-6.6532614010243485,-3.144312193922497,-6.793817404643894,-2.322007478599306,-6.929398738720073,-1.5152171980149216,-7.059087907992427,-0.7250295569920091,-7.18199412164459,0.04753855479827962,-7.297257661265655,0.8015431620074231,-7.404053937252302,1.5361145677352113,-7.501597241603038,2.2504584890862347,-7.589144205055932,2.943856970633295,-7.665996966521271,3.615669082263903,-7.731506062760461,4.265331407886013,-7.7850730462626485,4.892358331469147,-7.826152839270331,5.496342126897098,-7.854255831905479,6.076952858108294,-7.868949732347438,6.633938096000071,-7.869861177014068,7.167122458572935,-7.856677108697479,7.676406980790992,-7.829145930605776,8.161768320634705,-7.787078444262148,8.623257807822208,-7.730348579212755,9.061000341675102,-7.658893922494741,9.47519314460522,-7.572716055815805,9.866104377698198,-7.471880708396683,10.234071624870255,-7.356517733427957,10.579500252074157,-7.226820916092542,10.902861648030667,-7.083047621105284,11.204691352961449,-6.925518287721015,11.485587081799865,-6.754615780162469,11.746206648355509,-6.57078460141946,11.987265796908842,-6.374529978370676,12.209535947711997,-6.166416826179502,12.413841862871946,-5.947068599915257,12.601059239092192,-5.717166041351214,12.772112233749018,-5.477445828890811,12.927970930778718,-5.228699138573438,13.068717226837697,-4.9699471527581025,13.193987448502606,-4.699813194001225,13.304121173091586,-4.418539808934326,13.399463885873613,-4.126379614278733,13.480366112726164,-3.823594231927676,13.547182552793062,-3.5104532240283834,13.600271211142212,-3.1872330280641936,13.639992531423376,-2.854215891936641,13.666708528525936,-2.5116888090475737,13.680781921236692,-2.159942453381253,13.682575264897581,-1.7992701145864407,13.672450084063515,-1.4299666330585161,13.650766005160074,-1.052327335021567,13.617879889141326,-0.6666469676104989,13.913069826560681,1.2920838595654995,13.681567734919534,1.537685859556575,13.442171742216251,1.7839848350576002,13.194705184987365,2.0306623628398635,12.938993272614999,2.277378672145667,12.674863422205457,2.5237741713077186,12.40214559346792,2.769470974368538,12.120672623592965,3.0140744276998426,11.830280562131344,3.2571746366219587,11.530809005872465,3.4983479920232154,11.222101433723106,3.7371586969793302,10.904005541586047,3.9731602933728363,10.57637357723866,4.205897188512444,10.239062675211555,4.434906181752466,9.891935191667221,4.659717991112208,9.534454238298276,4.881597989462309,9.165866322941062,5.101454506411794,8.785734905044203,5.318288518497625,8.39365361786106,5.531116326203867,7.9892474685240895,5.738972921265948,7.572173999197224,5.9409153359285165,7.14212440680579,6.136025962758134,6.698824618843561,6.3234158336119775,6.242036322756489,6.50222784636387,5.771557946402705,6.671639927988839,5.287225587088379,6.830868122607481,4.788913886678976,6.979169593091288,4.27653685028551,7.115845524830308,3.750048606025338,7.240243920264279,3.2094441033571233,7.351762272778507,2.654759747489477,7.449850108565742,2.0860739673628697,7.5340113850553,1.5035077147044156,7.603806734510619,0.9072248916550905,7.658855541396584,0.29743270446891046,7.698837842117768,-0.32561805921629094,7.723496035728885,-0.9616328320369529,7.73263639421869,-1.6102731499911425,7.7261303609685585,-2.2711566194556774,7.70391562598699,-2.943856970633295,7.665996966521271,-3.627904199930482,7.612446841647571,-4.322784803766224,7.543405729440647,-5.02794210631223,7.459082195324485,-5.74277668366495,7.359752680205049,-6.466646886949913,7.245760996986408,-7.198869466858746,7.117517524071482,-7.938720302119305,6.975498084448678,-8.685435234399394,6.820242498965546,-9.438211012144448,6.652352802390886,-10.196206345849612,6.472491110866355,-10.958543077266699,6.281377129348935,-11.724307465046351,6.079785287645474,-12.492551589315951,5.868541493640522,-13.262294877693606,5.648519492318727,-14.032525755238698,5.420636819183033,-14.802203420839414,5.185850336669891,-15.57025975253765,4.94515134216278,-16.33560134429176,4.699560236205211,-17.09711167667755,4.450120739514525,-17.853653424027954,4.197893647397673,-18.60407090051182,3.9439501101702534,-19.34719264765225,3.6893644281800295,-20.08183416578482,3.435206350036176,-20.80680079195632,3.1825328626454956,-21.520890726764186,2.9323794616568613,-22.141325195695153,2.717125397979104,-22.754108452704955,2.5020200652832143,-23.358460274725914,2.2875407529619194,-23.953576781021432,2.0741681062466375,-24.538630220326255,1.862385661814149,-25.11276875798673,1.6526793833932585,-25.675116263101017,1.4455371973714826,-26.224772095659368,1.2414485284017127,-26.760810893684358,1.0409038350088826,-27.28228236037114,0.8443941451966523,-27.788211051227684,0.6524105920540686,-28.277596161215023,0.46544394936224354,-28.749411311887506,0.28398416720102393,-29.202604338533035,0.10851990755566465,-29.636097077313323,-0.06046192007649953" fill="white" stroke="white" stroke-width="0" stroke-linejoin="round" filter="url(#fuzzy)"></polyline></g><g transform="translate(-28.191890355787034 -23.954228811640167)"><polyline id="leftCountour" points="27.20825162365107,-4.863067861813276,26.714511636611864,-4.915603796098504,26.198210519480376,-4.971509390161147,25.6604361263843,-5.030839990428609,25.102266487525906,-5.093628181474655,24.52476940980491,-5.159884588766649,23.929002077441368,-5.229598681412776,23.31601065259855,-5.302739574909273,22.686829876005813,-5.379256833887659,22.042482667581496,-5.4590812748619655,21.38397972705578,-5.542125768975962,20.712319134593578,-5.628286044750391,20.028485951417423,-5.71744149083019,19.333451820430323,-5.8094559587317285,18.628174566838652,-5.904178565590034,17.91359779877505,-6.00144449690602,17.10896187005384,-6.087529434207443,16.288542762772725,-6.180468039858642,15.453945661813227,-6.279845510157818,14.606824370678726,-6.385170656160473,13.748871414984874,-6.49588442459887,12.88180858903962,-6.611368073012787,12.00737793767216,-6.730951005127527,11.127333165469963,-6.853918272515151,10.243431465583193,-6.979517748574881,9.35742576025573,-7.10696698086866,8.471057345242054,-7.235459727847806,7.586048930269242,-7.364172186006739,6.704098067703328,-7.492268913499732,5.826870961579242,-7.618908456256666,4.95599664915361,-7.743248682633714,4.093061547139651,-7.8644518326349715,3.2396043547834044,-7.98168928774094,2.397111305940564,-8.09414606737986,1.5670117623131254,-8.201025058077848,0.7506741400051142,-8.301550981323793,-0.05059783844332877,-8.394974106184984,-0.8355685743843377,-8.480573712709417,-1.6030737135938296,-8.557661312150763,-2.3520229648470092,-8.625583630051947,-3.0814026243785264,-8.683725358223288,-3.7902778140680446,-8.731511681651192,-4.47779444119208,-8.768410586373346,-5.143180887582696,-8.793934954356342,-5.785749436033996,-8.807644451411782,-6.404897441796949,-8.8091472141867,-7.000108257003562,-8.798101342264381,-7.570951915860869,-8.77421620141147,-8.117085588455769,-8.73725354400736,-8.6382538110112,-8.687028452691802,-9.134288500434675,-8.623410113266726,-9.605108760999624,-8.5463224228882,-10.05072049100064,-8.455744439584537,-10.471215797223046,-8.35171067913645,-10.866772225067844,-8.234311265355297,-11.237651812172526,-8.10369193979527,-11.584199973368662,-7.960053936935617,-11.90684422481705,-7.803653730868744,-12.20609275516102,-7.634802659530247,-12.482532851538771,-7.453866432506771,-12.73682918829551,-7.261264528457707,-12.96972198623602,-7.057469488186649,-13.182025050258538,-6.843006109398608,-13.374623693210648,-6.618450549178924,-13.54847255380789,-6.384429340229836,-13.704593316455988,-6.141618326900695,-13.84298974361257,-5.889113081669436,-13.963158251045805,-5.625655479782585,-14.065417915508917,-5.351435132630095,-14.150099696219357,-5.066651678292493,-14.21754538475788,-4.771513973153103,-14.268106554967641,-4.466239283510262,-14.302143512853316,-4.1510524771895385,-14.32002424648018,-3.8261852151559355,-14.322123375873215,-3.491875143126127,-14.308821102916223,-3.148365083180665,-14.28050216125088,-2.7959022253761945,-14.237554766175897,-2.434737319357672,-14.180369564546059,-2.065123865970584,-14.109338584671374,-1.6873173088731597,-13.933499034411224,1.1457026510939397,-13.63336847120748,1.4588591047248407,-13.326182601638632,1.7725575776704359,-13.011970439987746,2.0863487533676723,-12.69077234537636,2.399754677869182,-12.362639058084664,2.712271024941818,-12.027630735871707,3.023369361165196,-11.68581599029557,3.3324994110302253,-11.3372709230336,3.6390913220376504,-10.982078162202559,3.942557929796587,-10.620325898678846,4.24229702312306,-10.252106922418669,4.537693609138536,-9.87751765877827,4.828122178368469,-9.496657204834076,5.112948969840826,-9.109626365702926,5.39153423618464,-8.71522877181485,5.665603810687751,-8.31229577818073,5.936375082943012,-7.900966374441198,6.2024628267997315,-7.481373708255932,6.462512577573776,-7.053644638601018,6.715205197646782,-6.617899311822486,6.95926139909356,-6.174250767641469,7.19344620642498,-5.722804582306406,7.4165733425335585,-5.263658556087822,7.627509520929083,-4.796902452311135,7.825178627351441,-4.322617795122996,8.008565773848048,-3.8408777331865736,8.176721208402977,-3.3517469765013264,8.32876406320521,-2.8552818135427263,8.463885924643172,-2.3515302159173483,8.581354208112854,-1.8405320377289005,8.680515320726789,-1.322319316850587,8.76079759501113,-0.796916685299319,8.821713976678078,-0.26434189590725055,8.862864449561004,0.27539352751390656,8.88393818079943,0.8222835093202798,8.884715369361176,1.37632650329952,8.86506878098897,1.9375244288552214,8.824964952658716,2.505881454916695,8.764465049636746,3.0814026243785255,8.683725358223287,3.6640923118745112,8.58299739726942,4.2539525076904585,8.46262763155478,4.850980920620402,8.323056770113274,5.455168892570719,8.164818632594107,6.066499117716714,7.988538566745326,6.6849431590161705,7.794931400107149,7.310458754884391,7.584798909002448,7.942986908835274,7.359026787911466,8.582448754892921,7.118581102318226,9.22874219157832,6.864504208115751,9.881738277275623,6.597910120657444,10.541277379782532,6.319979316541827,11.207165072849339,6.031952951218004,11.879167772511128,5.73512647549895,12.55700810601765,5.430842634070098,13.240360006165437,5.120483829080282,13.928843523836651,4.8054638319024665,14.622019351549163,4.4872188261513966,15.31938305082246,4.167197765045556,16.020358976163838,3.8468520262005637,16.724293888479426,3.5276243469414146,17.430450250714603,3.210937023220694,18.13799919852824,2.898179355230143,18.8460131788054,2.590694322792756,19.553458248812937,2.289764473622725,20.13136017879089,2.0176592188977445,20.70608347970807,1.7472360873872015,21.27690490152834,1.4790766750493827,21.84305387880798,1.213758095808565,22.403711245920192,0.951852052174182,22.958007952279708,0.6939239058600055,23.505023777567324,0.44053174840332154,24.043786046954473,0.19222547178410032,24.573268346327758,-0.05045416095582489,25.092389237513547,-0.2869764450935808,25.600010973502503,-0.5168216636060867,26.09493821367416,-0.7394820165508706,26.575916739021462,-0.9544625504468982,27.041632167375337,-1.1612820876553953,27.490708668629257,-1.3594741557606778" fill="white" stroke="white" stroke-width="0" stroke-linejoin="round" filter="url(#fuzzy)"></polyline></g><g transform="translate(26.102533524776806 -27.453998988892735)"><polyline id="rightUpper" points="-31.845579541111512,-2.8002487426984586,-31.62047407491542,-2.8315966345530175,-31.35675396342338,-2.8641037469248873,-31.05610944210501,-2.898202364654738,-30.720201051538297,-2.9342864962154427,-30.35065970186723,-2.9727128569264822,-29.949086737259563,-3.0138018521683456,-29.51705400036444,-3.057838560596934,-29.056103896770146,-3.105073717357961,-28.567749459461773,-3.155724697301356,-28.053474413278934,-3.2099764981956667,-27.514733239373427,-3.267982723942461,-26.952951239666994,-3.3298665677907295,-26.36952460130894,-3.395721795551287,-25.76582046113389,-3.4656137288111757,-25.143176970119466,-3.539580228148067,-24.502903357843955,-3.617632676344664,-23.846279996944045,-3.699756961603103,-23.174558467572503,-3.785914460759358,-22.488961621855864,-3.8760430224976394,-21.790683648352164,-3.9700579505648,-21.08089013650858,-4.067852986984733,-20.360718141119158,-4.16930129527278,-19.631276246782516,-4.274256443650128,-18.893644632359525,-4.382553388258214,-18.148875135431012,-4.494009456373127,-17.285410621490932,-4.589782098138105,-16.410870017060077,-4.693996660414564,-15.527050075414001,-4.8061874715219,-14.635745657923003,-4.925796816449493,-13.738743148257807,-5.052185371154981,-12.837814211735246,-5.1846421980810735,-11.93470989332784,-5.322394310842287,-11.031155047861056,-5.4646158160330085,-10.128843095922129,-5.610436640108254,-9.229431099004305,-5.758950849288517,-8.334535147410293,-5.909224570440104,-7.445726054438836,-6.060303520882318,-6.564525350378213,-6.2112201550729065,-5.692401569830496,-6.361000436123147,-4.830766825890459,-6.508670240093941,-3.980973664702935,-6.6532614010243485,-3.144312193922497,-6.793817404643894,-2.322007478599306,-6.929398738720073,-1.5152171980149216,-7.059087907992427,-0.7250295569920091,-7.18199412164459,0.04753855479827962,-7.297257661265655,0.8015431620074231,-7.404053937252302,1.5361145677352113,-7.501597241603038,2.2504584890862347,-7.589144205055932,2.943856970633295,-7.665996966521271,3.615669082263903,-7.731506062760461,4.265331407886013,-7.7850730462626485,4.892358331469147,-7.826152839270331,5.496342126897098,-7.854255831905479,6.076952858108294,-7.868949732347438,6.633938096000071,-7.869861177014068,7.167122458572935,-7.856677108697479,7.676406980790992,-7.829145930605776,8.161768320634705,-7.787078444262148,8.623257807822208,-7.730348579212755,9.061000341675102,-7.658893922494741,9.47519314460522,-7.572716055815805,9.866104377698198,-7.471880708396683,10.234071624870255,-7.356517733427957,10.579500252074157,-7.226820916092542,10.902861648030667,-7.083047621105284,11.204691352961449,-6.925518287721015,11.485587081799865,-6.754615780162469,11.746206648355509,-6.57078460141946,11.987265796908842,-6.374529978370676,12.209535947711997,-6.166416826179502,12.413841862871946,-5.947068599915257,12.601059239092192,-5.717166041351214,12.772112233749018,-5.477445828890811,12.927970930778718,-5.228699138573438,13.068717226837697,-4.9699471527581025,13.193987448502606,-4.699813194001225,13.304121173091586,-4.418539808934326,13.399463885873613,-4.126379614278733,13.480366112726164,-3.823594231927676,13.547182552793062,-3.5104532240283834,13.600271211142212,-3.1872330280641936,13.639992531423376,-2.854215891936641,13.666708528525936,-2.5116888090475737,13.680781921236692,-2.159942453381253,13.682575264897581,-1.7992701145864407,13.672450084063515,-1.4299666330585161,13.650766005160074,-1.052327335021567,13.617879889141326,-0.6666469676104989,13.57414496414759,-0.2732186339531326,13.519909958163217,0.1276672717476992,13.455518231674285,0.5357241291320429,13.381306910326492,0.9506701566007205,13.29760601758281,1.3722294762332394,13.204737607381334,1.8001331787056856,13.103014896792997,2.234120388208617,12.99274139867938,2.6739393273649705,12.874210054350465,3.11934838214795,12.747702366222393,3.570117166798939" fill="none" stroke="black" stroke-width="1.6666666666666665" stroke-linejoin="round" filter="url(#fuzzy)"></polyline><polyline id="rightLower" points="-32.63129706764851,-1.2888090905654255,-32.45997822111317,-1.2107140168463477,-32.2567006672432,-1.1214659695085745,-32.02281426842529,-1.0215087915371837,-31.75964075932238,-0.911292722338457,-31.46847395973346,-0.791273933346547,-31.150579987453277,-0.6619140636301557,-30.807197471132106,-0.5236797554991997,-30.439537763135526,-0.37704219011148643,-30.04878515240413,-0.22247662307938576,-29.636097077313323,-0.06046192007649953,-29.202604338533035,0.10851990755566465,-28.749411311887506,0.28398416720102393,-28.277596161215023,0.46544394936224354,-27.788211051227684,0.6524105920540686,-27.28228236037114,0.8443941451966523,-26.760810893684358,1.0409038350088826,-26.224772095659368,1.2414485284017127,-25.675116263101017,1.4455371973714826,-25.11276875798673,1.6526793833932585,-24.538630220326255,1.862385661814149,-23.953576781021432,2.0741681062466375,-23.358460274725914,2.2875407529619194,-22.754108452704955,2.5020200652832143,-22.141325195695153,2.717125397979104,-21.520890726764186,2.9323794616568613,-20.80680079195632,3.1825328626454956,-20.08183416578482,3.435206350036176,-19.34719264765225,3.6893644281800295,-18.60407090051182,3.9439501101702534,-17.853653424027954,4.197893647397673,-17.09711167667755,4.450120739514525,-16.33560134429176,4.699560236205211,-15.57025975253765,4.94515134216278,-14.802203420839414,5.185850336669891,-14.032525755238698,5.420636819183033,-13.262294877693606,5.648519492318727,-12.492551589315951,5.868541493640522,-11.724307465046351,6.079785287645474,-10.958543077266699,6.281377129348935,-10.196206345849612,6.472491110866355,-9.438211012144448,6.652352802390886,-8.685435234399394,6.820242498965546,-7.938720302119305,6.975498084448678,-7.198869466858746,7.117517524071482,-6.466646886949913,7.245760996986408,-5.74277668366495,7.359752680205049,-5.02794210631223,7.459082195324485,-4.322784803766224,7.543405729440647,-3.627904199930482,7.612446841647571,-2.943856970633295,7.665996966521271,-2.2711566194556774,7.70391562598699,-1.6102731499911425,7.7261303609685585,-0.9616328320369529,7.73263639421869,-0.32561805921629094,7.723496035728885,0.29743270446891046,7.698837842117768,0.9072248916550905,7.658855541396584,1.5035077147044156,7.603806734510619,2.0860739673628697,7.5340113850553,2.654759747489477,7.449850108565742,3.2094441033571233,7.351762272778507,3.750048606025338,7.240243920264279,4.27653685028551,7.115845524830308,4.788913886678976,6.979169593091288,5.287225587088379,6.830868122607481,5.771557946402705,6.671639927988839,6.242036322756489,6.50222784636387,6.698824618843561,6.3234158336119775,7.14212440680579,6.136025962758134,7.572173999197224,5.9409153359285165,7.9892474685240895,5.738972921265948,8.39365361786106,5.531116326203867,8.785734905044203,5.318288518497625,9.165866322941062,5.101454506411794,9.534454238298276,4.881597989462309,9.891935191667221,4.659717991112208,10.239062675211555,4.434906181752466,10.57637357723866,4.205897188512444,10.904005541586047,3.9731602933728363,11.222101433723106,3.7371586969793302,11.530809005872465,3.4983479920232154,11.830280562131344,3.2571746366219587,12.120672623592965,3.0140744276998426,12.40214559346792,2.769470974368538,12.674863422205457,2.5237741713077186,12.938993272614999,2.277378672145667,13.194705184987365,2.0306623628398635,13.442171742216251,1.7839848350576002,13.681567734919534,1.537685859556575,13.913069826560681,1.2920838595654995,14.13685621857009,1.0474743841646936,14.353106315466489,0.804128581666697,14.562000389978271,0.562291672996861,14.763719248164913,0.3221814250739601,14.958443894538297,0.08398662419078651,15.146355197184112,-0.15213445060525022,15.327633552883226,-0.3860555541315094,15.502458552233014,-0.6176840016895278,15.671008644768792,-0.846962195684412,15.833460804085144,-1.073869152244241" fill="none" stroke="black" stroke-width="2.2222222222222223" stroke-linejoin="round" filter="url(#fuzzy)"></polyline><!--[--><circle r="3.4464164983711" cx="0.1681639741770682" cy="-4.641422674589829" stroke="black" fill="none" stroke-width="1" filter="url(#fuzzy)" clip-path="url(#rightEyeClipPath)"></circle><circle r="4.770592722246436" cx="0.25314710957313835" cy="-6.578428013502012" stroke="black" fill="none" stroke-width="1" filter="url(#fuzzy)" clip-path="url(#rightEyeClipPath)"></circle><circle r="3.130735384761288" cx="1.412333014742396" cy="-4.239397595714022" stroke="black" fill="none" stroke-width="1" filter="url(#fuzzy)" clip-path="url(#rightEyeClipPath)"></circle><circle r="3.918763882603809" cx="-0.8688033851819588" cy="-5.3472768236155295" stroke="black" fill="none" stroke-width="1" filter="url(#fuzzy)" clip-path="url(#rightEyeClipPath)"></circle><circle r="3.7574422118820303" cx="1.1198355416562" cy="-4.226673833204659" stroke="black" fill="none" stroke-width="1" filter="url(#fuzzy)" clip-path="url(#rightEyeClipPath)"></circle><circle r="4.922029550803504" cx="0.21359273578034" cy="-3.850780412366051" stroke="black" fill="none" stroke-width="1" filter="url(#fuzzy)" clip-path="url(#rightEyeClipPath)"></circle><circle r="3.6873336821200473" cx="-0.1869189124448325" cy="-4.64964236500219" stroke="black" fill="none" stroke-width="1" filter="url(#fuzzy)" clip-path="url(#rightEyeClipPath)"></circle><circle r="3.5169946669775296" cx="2.2085684467718396" cy="-4.837394685641764" stroke="black" fill="none" stroke-width="1" filter="url(#fuzzy)" clip-path="url(#rightEyeClipPath)"></circle><circle r="4.094942112332188" cx="3.8258887631432072" cy="-5.962590161094129" stroke="black" fill="none" stroke-width="1" filter="url(#fuzzy)" clip-path="url(#rightEyeClipPath)"></circle><circle r="4.371950958380726" cx="1.2620839256241139" cy="-5.455331766123349" stroke="black" fill="none" stroke-width="1" filter="url(#fuzzy)" clip-path="url(#rightEyeClipPath)"></circle><!--]--></g><g transform="translate(-28.191890355787034 -23.954228811640167)"><polyline id="leftUpper" points="30.659236877193536,-4.492981767387256,30.45281587705201,-4.520446729474386,30.21250275260956,-4.549299380724474,29.93946163150646,-4.579866837198893,29.634850811228787,-4.612445425633091,29.299822359731284,-4.647301486183811,28.93552171606021,-4.68467217517633,28.543087290976278,-4.724766267851682,28.123650067577483,-4.7677649611138895,27.678333201921998,-4.813822676277192,27.20825162365107,-4.863067861813276,26.714511636611864,-4.915603796098504,26.198210519480376,-4.971509390161147,25.6604361263843,-5.030839990428609,25.102266487525906,-5.093628181474655,24.52476940980491,-5.159884588766649,23.929002077441368,-5.229598681412776,23.31601065259855,-5.302739574909273,22.686829876005813,-5.379256833887659,22.042482667581496,-5.4590812748619655,21.38397972705578,-5.542125768975962,20.712319134593578,-5.628286044750391,20.028485951417423,-5.71744149083019,19.333451820430323,-5.8094559587317285,18.628174566838652,-5.904178565590034,17.91359779877505,-6.00144449690602,17.10896187005384,-6.087529434207443,16.288542762772725,-6.180468039858642,15.453945661813227,-6.279845510157818,14.606824370678726,-6.385170656160473,13.748871414984874,-6.49588442459887,12.88180858903962,-6.611368073012787,12.00737793767216,-6.730951005127527,11.127333165469963,-6.853918272515151,10.243431465583193,-6.979517748574881,9.35742576025573,-7.10696698086866,8.471057345242054,-7.235459727847806,7.586048930269242,-7.364172186006739,6.704098067703328,-7.492268913499732,5.826870961579242,-7.618908456256666,4.95599664915361,-7.743248682633714,4.093061547139651,-7.8644518326349715,3.2396043547834044,-7.98168928774094,2.397111305940564,-8.09414606737986,1.5670117623131254,-8.201025058077848,0.7506741400051142,-8.301550981323793,-0.05059783844332877,-8.394974106184984,-0.8355685743843377,-8.480573712709417,-1.6030737135938296,-8.557661312150763,-2.3520229648470092,-8.625583630051947,-3.0814026243785264,-8.683725358223288,-3.7902778140680446,-8.731511681651192,-4.47779444119208,-8.768410586373346,-5.143180887582696,-8.793934954356342,-5.785749436033996,-8.807644451411782,-6.404897441796949,-8.8091472141867,-7.000108257003562,-8.798101342264381,-7.570951915860869,-8.77421620141147,-8.117085588455769,-8.73725354400736,-8.6382538110112,-8.687028452691802,-9.134288500434675,-8.623410113266726,-9.605108760999624,-8.5463224228882,-10.05072049100064,-8.455744439584537,-10.471215797223046,-8.35171067913645,-10.866772225067844,-8.234311265355297,-11.237651812172526,-8.10369193979527,-11.584199973368662,-7.960053936935617,-11.90684422481705,-7.803653730868744,-12.20609275516102,-7.634802659530247,-12.482532851538771,-7.453866432506771,-12.73682918829551,-7.261264528457707,-12.96972198623602,-7.057469488186649,-13.182025050258538,-6.843006109398608,-13.374623693210648,-6.618450549178924,-13.54847255380789,-6.384429340229836,-13.704593316455988,-6.141618326900695,-13.84298974361257,-5.889113081669436,-13.963158251045805,-5.625655479782585,-14.065417915508917,-5.351435132630095,-14.150099696219357,-5.066651678292493,-14.21754538475788,-4.771513973153103,-14.268106554967641,-4.466239283510262,-14.302143512853316,-4.1510524771895385,-14.32002424648018,-3.8261852151559355,-14.322123375873215,-3.491875143126127,-14.308821102916223,-3.148365083180665,-14.28050216125088,-2.7959022253761945,-14.237554766175897,-2.434737319357672,-14.180369564546059,-2.065123865970584,-14.109338584671374,-1.6873173088731597,-14.024854186216135,-1.3015742261485914,-13.927308010098049,-0.9081515219172478,-13.81708992838729,-0.5073056179488917,-13.694586994205679,-0.09929164527490197,-13.56018239162568,0.31563736419951915,-13.414254385569581,0.7372312860831265,-13.257175271708565,1.1652437118864123,-13.08931032636178,1.5994327574093896,-12.911016756395505,2.0395618711293784,-12.722642649122182,2.485400642588785" fill="none" stroke="black" stroke-width="2.2222222222222223" stroke-linejoin="round" filter="url(#fuzzy)"></polyline><polyline id="leftLower" points="30.717142671516022,-2.7766349596039674,30.524563257802814,-2.686473909024768,30.2979243287669,-2.584033916236715,30.039286856538684,-2.469583285479265,29.750637517556704,-2.3434143200232094,29.43388997734308,-2.2058423927898456,29.09088617527892,-2.057205016970159,28.723397609379795,-1.897860916643995,28.333126621071152,-1.7281890973992353,27.921707679963784,-1.5485879169509706,27.490708668629257,-1.3594741557606778,27.041632167375337,-1.1612820876553953,26.575916739021462,-0.9544625504468982,26.09493821367416,-0.7394820165508706,25.600010973502503,-0.5168216636060867,25.092389237513547,-0.2869764450935808,24.573268346327758,-0.05045416095582489,24.043786046954473,0.19222547178410032,23.505023777567324,0.44053174840332154,22.958007952279708,0.6939239058600055,22.403711245920192,0.951852052174182,21.84305387880798,1.213758095808565,21.27690490152834,1.4790766750493827,20.70608347970807,1.7472360873872015,20.13136017879089,2.0176592188977445,19.553458248812937,2.289764473622725,18.8460131788054,2.590694322792756,18.13799919852824,2.898179355230143,17.430450250714603,3.210937023220694,16.724293888479426,3.5276243469414146,16.020358976163838,3.8468520262005637,15.31938305082246,4.167197765045556,14.622019351549163,4.4872188261513966,13.928843523836651,4.8054638319024665,13.240360006165437,5.120483829080282,12.55700810601765,5.430842634070098,11.879167772511128,5.73512647549895,11.207165072849339,6.031952951218004,10.541277379782532,6.319979316541827,9.881738277275623,6.597910120657444,9.22874219157832,6.864504208115751,8.582448754892921,7.118581102318226,7.942986908835274,7.359026787911466,7.310458754884391,7.584798909002448,6.6849431590161705,7.794931400107149,6.066499117716714,7.988538566745326,5.455168892570719,8.164818632594107,4.850980920620402,8.323056770113274,4.2539525076904585,8.46262763155478,3.6640923118745112,8.58299739726942,3.0814026243785255,8.683725358223287,2.505881454916695,8.764465049636746,1.9375244288552214,8.824964952658716,1.37632650329952,8.86506878098897,0.8222835093202798,8.884715369361176,0.27539352751390656,8.88393818079943,-0.26434189590725055,8.862864449561004,-0.796916685299319,8.821713976678078,-1.322319316850587,8.76079759501113,-1.8405320377289005,8.680515320726789,-2.3515302159173483,8.581354208112854,-2.8552818135427263,8.463885924643172,-3.3517469765013264,8.32876406320521,-3.8408777331865736,8.176721208402977,-4.322617795122996,8.008565773848048,-4.796902452311135,7.825178627351441,-5.263658556087822,7.627509520929083,-5.722804582306406,7.4165733425335585,-6.174250767641469,7.19344620642498,-6.617899311822486,6.95926139909356,-7.053644638601018,6.715205197646782,-7.481373708255932,6.462512577573776,-7.900966374441198,6.2024628267997315,-8.31229577818073,5.936375082943012,-8.71522877181485,5.665603810687751,-9.109626365702926,5.39153423618464,-9.496657204834076,5.112948969840826,-9.87751765877827,4.828122178368469,-10.252106922418669,4.537693609138536,-10.620325898678846,4.24229702312306,-10.982078162202559,3.942557929796587,-11.3372709230336,3.6390913220376504,-11.68581599029557,3.3324994110302253,-12.027630735871707,3.023369361165196,-12.362639058084664,2.712271024941818,-12.69077234537636,2.399754677869182,-13.011970439987746,2.0863487533676723,-13.326182601638632,1.7725575776704359,-13.63336847120748,1.4588591047248407,-13.933499034411224,1.1457026510939397,-14.226557585485082,0.8335066308579302,-14.512540690862352,0.5226562905156262,-14.791459152854195,0.21350144388590664,-15.063338973329493,-0.09364579299080233,-15.328222317394626,-0.39851326695108646,-15.586168477073265,-0.7008710528070683,-15.837254834986211,-1.0005337184449399,-16.081577828031172,-1.2973625899235133,-16.319253911062603,-1.5912680165727449,-16.55042052057148,-1.8822116360922818" fill="none" stroke="black" stroke-width="2.2222222222222223" stroke-linejoin="round" filter="url(#fuzzy)"></polyline><!--[--><circle r="3.6855078675473187" cx="12.92577759602936" cy="-5.095346978352973" stroke="black" fill="none" stroke-width="1" filter="url(#fuzzy)" clip-path="url(#leftEyeClipPath)"></circle><circle r="3.894187783422529" cx="10.822694542108685" cy="-4.757870562259249" stroke="black" fill="none" stroke-width="1" filter="url(#fuzzy)" clip-path="url(#leftEyeClipPath)"></circle><circle r="3.5531385251370713" cx="13.824497708602145" cy="-3.4033258145488006" stroke="black" fill="none" stroke-width="1" filter="url(#fuzzy)" clip-path="url(#leftEyeClipPath)"></circle><circle r="3.7639384296347633" cx="11.944918857470663" cy="-3.1815919702171414" stroke="black" fill="none" stroke-width="1" filter="url(#fuzzy)" clip-path="url(#leftEyeClipPath)"></circle><circle r="3.9551039630932023" cx="13.979134011864012" cy="-6.023830363663408" stroke="black" fill="none" stroke-width="1" filter="url(#fuzzy)" clip-path="url(#leftEyeClipPath)"></circle><circle r="3.700325065165763" cx="11.725350708618427" cy="-4.044978841543672" stroke="black" fill="none" stroke-width="1" filter="url(#fuzzy)" clip-path="url(#leftEyeClipPath)"></circle><circle r="4.0817020094259835" cx="13.323583810518981" cy="-5.982178363018247" stroke="black" fill="none" stroke-width="1" filter="url(#fuzzy)" clip-path="url(#leftEyeClipPath)"></circle><circle r="4.770973738016279" cx="11.586388584628114" cy="-4.136446901281266" stroke="black" fill="none" stroke-width="1" filter="url(#fuzzy)" clip-path="url(#leftEyeClipPath)"></circle><circle r="4.173102125694244" cx="11.843747503629563" cy="-3.634290173467245" stroke="black" fill="none" stroke-width="1" filter="url(#fuzzy)" clip-path="url(#leftEyeClipPath)"></circle><circle r="4.487068923332551" cx="10.28592444584204" cy="-4.746156248354446" stroke="black" fill="none" stroke-width="1" filter="url(#fuzzy)" clip-path="url(#leftEyeClipPath)"></circle><!--]--></g><g id="hairs"><!--[--><polyline points="21,-83,20.067088133360574,-61.039237281257556,5.596463264857185,-65.09505320650057,2.389038101021104,-71.73566771741726,6.261476663406938,-75.39036198006943,9.425592986968358,-76.72009929664985,8.942829142346646,-76.89004629474881,6.746433543886328,-76.03227875041935,5.880218505859375,-73.89700317382812,6.774465360612139,-70.80145807055113,6.320601377167087,-67.73138669724382,0.41810827358397984,-65.527093060987,-11.880972357932478,-64.12988184439018,-26.16655471068896,-63.132762613373686,-35.27765860522076,-63.425170427744675,-36.21146224853443,-66.62446009378138,-37,-67" fill="none" stroke="rgb(145, 85, 61)" stroke-width="2" stroke-linejoin="round" filter="url(#fuzzy)"></polyline><polyline points="28,-79,18.616567321815634,-71.76946225064009,6.75147559006206,-68.75127969620075,-0.13797844305174206,-69.4875571379972,-3.6922186565947896,-72.1357918579778,-3.9265774369665225,-74.77247976640179,-1.2105423955690462,-76.23770804249622,3.0557210108569284,-76.24417363197793,7.356388630159339,-75.11793756965383,10.880566029626102,-73.48950234141775,13.456183399147523,-72.04223030778763,14.988846209164358,-71.29613815203425,15.169187843799591,-71.42662954330444,13.739394456453262,-72.21518225017104,10.9584332752417,-73.23413008933875,7.707411300007545,-74.19416089997506,5.040689379355244,-75.1644742667314,3.549105440059825,-76.37570073545609,3.177240517285913,-77.65159742502894,3.8519268977983554,-77.9587446575434,6.500818509268109,-75.68430634957528,13.136832104410036,-69.88611605356705,24.15188334514322,-62.38772423672952,31.65505757393505,-61.05373357728269,14,-86" fill="none" stroke="rgb(145, 85, 61)" stroke-width="2" stroke-linejoin="round" filter="url(#fuzzy)"></polyline><polyline points="-43,-58,-4.735537887311383,-69.0838888608523,6.329946087922649,-69.84819117268174,10.2706655907345,-69.73377212143396,12.833958664210964,-70.65430609774154,16.172633118018577,-71.17768374121975,19.566479000380188,-70.45158642488745,21.713140185632817,-68.65979820214534,22.664615987931267,-66.3838055349113,23.49715688278428,-64.31893894319053,24.602029882646512,-63.31073105208115,24.88528411899394,-64.17952309482297,23.16335952545927,-67.0983147954465,20.56523022224408,-70.88701467661416,20.918064515526545,-73.04945646703123,27.17362685038882,-71.10984189345042,37.13603741321433,-63.750975232508196,50,-45" fill="none" stroke="rgb(145, 85, 61)" stroke-width="2" stroke-linejoin="round" filter="url(#fuzzy)"></polyline><polyline points="-8,-86,-5.717082594398473,-84.70024096805729,-11.231996271035507,-81.7150585489071,-13.23666961226139,-80.14585278755644,-12.044223433693094,-79.08558223388978,-9.106585818696862,-76.44031458284599,-3.785516748832764,-71.59884653369753,4.655280069983761,-65.83955444800735,14.741274127383935,-61.14153875260555,23.219642217299963,-58.74274282776166,27.761636896803356,-58.48870607357062,28.796987944014397,-59.38390574421536,27.53681833105818,-61.03365928176845,20.9116116321727,-64.44957052717483,-0.3621746494941256,-68.64123827700678,-43,-59" fill="none" stroke="rgb(145, 85, 61)" stroke-width="2" stroke-linejoin="round" filter="url(#fuzzy)"></polyline><polyline points="23,-82,7.5222712239198195,-76.42446731969935,19.575253581794417,-68.15700305939102,30.476080079427536,-62.00722148565225,34.072529560685346,-60.86268691109974,32.59036559809322,-63.55844327672382,29.69089102064707,-67.45475352980634,27.447729380240123,-70.65670366866097,26.152669712206038,-72.5525749533332,25.37107671305918,-73.29113058846595,24.767419589013684,-73.20772727770232,24.217201232910156,-72.62526512145996,23.59537478455387,-71.8409847296041,22.702538450286397,-71.03330943594706,21.313354842110762,-70.15586071344498,19.07528913087962,-69.09718141589771,15.361962291058033,-68.12953038510177,9.706148464268788,-68.1678170583583,3.101036749452211,-70.2211841556658,-0.9469266806555554,-74.0131895516856,2.57907084653169,-76.65611374216144,17.964574375190104,-72.39823112800678,48,-52" fill="none" stroke="rgb(145, 85, 61)" stroke-width="2" stroke-linejoin="round" filter="url(#fuzzy)"></polyline><polyline points="-27,-77,-18.722252332713847,-81.23195501064303,-9.777015593996744,-82.03663766678459,1.1075383825241614,-79.6789280028508,10.766752261202782,-75.20230057835579,16.602082258591953,-69.8598971864225,19.53990505015718,-64.70298238778126,22.288558729988225,-60.74846577241797,26.206268310546875,-58.90869140625,30.07030624005263,-59.493958953879826,31.16968593889197,-61.91829765950229,27.180963281164786,-65.04639061774505,17.707671869080514,-67.8271359205246,5.652272856416739,-69.70814409416602,-2.2071584138772735,-71.24996268838845,-0.8907690209767001,-75.47341979822491,-13,-85" fill="none" stroke="rgb(145, 85, 61)" stroke-width="2" stroke-linejoin="round" filter="url(#fuzzy)"></polyline><polyline points="-31,-74,-4.398949107668424,-77.95152724959635,2.4188439468517173,-76.5417687787728,2.2135614974767095,-75.25204529921277,3.905026295115061,-73.47330307167758,7.85599360353816,-70.79292360707599,11.408213793652623,-68.03602189921236,12.476406664286117,-66.38180105866954,10.610557412317842,-66.35538551238913,7.020186896377737,-67.62506678611808,4.100585324234647,-69.54558558468715,4.249616522366398,-71.7272762360643,8.215709087202422,-74.00907057992978,14.277831916307452,-75.86746107380898,19.465880751953446,-75.94992699470305,21.252923034684283,-72.79163138428899,13.857801506249519,-68.2778588827835,-27,-77" fill="none" stroke="rgb(145, 85, 61)" stroke-width="2" stroke-linejoin="round" filter="url(#fuzzy)"></polyline><polyline points="-4,-87,6.3767796566026345,-75.50152952062574,3.471710994774422,-71.58636678090785,0.9818641075689007,-72.73961947901653,-1.998026916186431,-75.40225343463571,-4.742749813016417,-77.48859723621172,-5.886270916000571,-78.30001633680018,-5.334418609437862,-77.71403688836969,-4.433726214810505,-75.84222072958899,-4.88445711735388,-73.05717014333779,-7.376453399658203,-69.92215156555176,-10.787319383514506,-66.93180678942363,-12.472715425697109,-64.34813084553022,-9.66812457014556,-62.344504130857736,-1.3242562291920905,-61.25673254718586,10.866072128203086,-61.4345643528668,23.35981816454644,-62.42906931624119,33.37643449175894,-62.19061915879318,40.82798754140187,-58.157792155732906,46.23203695330005,-52.027139454556064,46,-56" fill="none" stroke="rgb(145, 85, 61)" stroke-width="2" stroke-linejoin="round" filter="url(#fuzzy)"></polyline><polyline points="21,-83,-11.773782561982049,-69.1834452367895,-7.767441857698859,-62.854447046225246,5.317533861194219,-64.28386866939978,12.956613158574328,-69.38926647696644,13.07827866684257,-74.29658449265524,8.981486681494825,-77.26989014924176,4.784347061282571,-78.21440331678977,3.1810150146484375,-77.72076416015625,4.736776390702751,-76.54433323189565,8.567423233457102,-75.25983984030655,13.85003498459962,-73.75582486269303,20.71091636060737,-70.99663551244885,29.06803810545948,-65.95748085591859,35.87032345314819,-59.98179114230926,33.385168017667034,-60.136332586748644,8,-87" fill="none" stroke="rgb(145, 85, 61)" stroke-width="2" stroke-linejoin="round" filter="url(#fuzzy)"></polyline><polyline points="-29,-75,-23.543094972656327,-74.73845592240595,-9.094873268392506,-74.65149577271575,1.7367855242319903,-70.95328696235589,7.255489812729237,-67.19491702388568,10.546006693206301,-65.36601935465605,13.904116010366305,-65.44310856480176,17.546298191828708,-66.59042623578473,20.794509207251778,-67.78950634236881,23.04222802456164,-68.2289695649307,23.757598580404544,-67.6901345491167,22.22668427702896,-66.6618157444115,17.76084440946579,-65.98397016525269,10.355337508894417,-66.22861666488963,1.2265025296953793,-67.26973354024493,-7.29084267411237,-68.35023875657919,-12.527546918956979,-68.57479412420422,-12.572814860419577,-67.46203790451895,-7.229826680747852,-65.20024715495302,1.5126752193731603,-62.53278715448582,9.883703836859503,-60.50821451999419,13.9350249350055,-60.42489486506754,11.596443411326216,-64.15369747963311,3.478990018092479,-74.26320375423202,2,-87" fill="none" stroke="rgb(145, 85, 61)" stroke-width="2" stroke-linejoin="round" filter="url(#fuzzy)"></polyline><polyline points="-45,-55,-20.319884982530237,-59.79719572345187,7.388384440533027,-62.73365878032036,24.86623729762791,-62.79902417472806,34.13189840233962,-60.4060818306988,37.14078060806645,-58.35096358971058,35.10004088963912,-58.77615432882446,29.791890636737804,-61.67217738307215,23.631958857099207,-65.45005952644597,18.723537036576488,-68.41615090590736,16.037591245723632,-69.85900594017143,15.384179592132568,-70.13930058479309,16.038226504806186,-70.02302717812721,17.432055523848167,-69.97053369274032,19.40545577077731,-69.96801035403426,21.89815753881814,-69.9377382547764,24.397442447611816,-70.20674506014608,25.71484985119249,-71.37774761195438,24.550479218449624,-73.43352865259031,20.57360280251029,-74.76283997714867,14.339064558880388,-72.29866964209478,2.018887014535281,-63.75622857834304,-45,-54" fill="none" stroke="rgb(145, 85, 61)" stroke-width="2" stroke-linejoin="round" filter="url(#fuzzy)"></polyline><polyline points="42,-63,3.894741654767024,-64.07821013572341,5.253840712834573,-71.59538103786305,9.218023987281233,-76.02521325241702,8.804376397743649,-76.47157530832904,5.471261849672481,-74.81069020380315,1.5312078006115348,-73.06327036830075,-1.747714951995128,-72.15775165205801,-3.670116209273069,-71.89628636077644,-3.5752902055136992,-71.67279314653659,-1.0566863510056548,-71.21183606156602,3.4984915256500244,-70.81561589241028,8.789486541209849,-71.0694683726292,13.154770128742824,-72.3330751554506,15.390928589958513,-74.44468418457024,15.174764251958415,-76.8542220241442,12.780251522386079,-79.01802088241614,8.434195345290934,-80.63453347278944,1.9952636192281874,-81.4734084201867,-6.591723323221419,-81.1301284126137,-15.933731833300381,-79.51611327370071,-20.83713084639094,-78.68536200272399,-10,-86" fill="none" stroke="rgb(145, 85, 61)" stroke-width="2" stroke-linejoin="round" filter="url(#fuzzy)"></polyline><polyline points="-8,-86,-2.1487852697997596,-82.81499857692668,10.246246080215816,-80.58138228975696,16.159272621326743,-78.46620588325244,15.091793026044842,-76.10684650657606,9.972642751691133,-74.10068257931641,3.6839414418523555,-72.90614571471573,-2.2216207767352936,-72.48203155175884,-7.184809069192806,-72.59127325900828,-10.947371209849326,-73.0571260668516,-13.333808233198287,-73.73212523716865,-14.3406708185392,-74.38762249681967,-14.062760689789538,-74.73865556311941,-12.432311966493502,-74.59180809977872,-9.186734415055556,-73.95261266279047,-4.328276047307225,-72.97353212974703,1.286281207190437,-71.78958186052263,6.018421789443539,-70.41292365098748,8.573498239910354,-68.7913230008595,9.336328887742523,-66.87811749127096,10.036863191012934,-64.41852247815387,11.255719637532442,-60.58725912095483,14.546487802832377,-53.93927049582288,52,-38" fill="none" stroke="rgb(145, 85, 61)" stroke-width="2" stroke-linejoin="round" filter="url(#fuzzy)"></polyline><polyline points="30,-77,19.02685406122055,-79.2842155387772,20.67307983910909,-75.99099189871568,18.424383909199246,-75.07072083780145,13.097620246087272,-76.83295962651371,8.17744354579755,-79.52757798459568,4.982935969341077,-81.87307956732296,3.1131620479245905,-83.26148864163285,1.8348741246493039,-83.44377148715398,0.8375275335892638,-82.39473732088199,0.25320727488113054,-80.36498637157155,0.2545421807308135,-77.92358347216697,0.6528666032580288,-75.82916037251479,0.8592801102180022,-74.71162503920769,0.25900862175244516,-74.72135116380252,-1.3304659587442833,-75.3915440890635,-3.5350238719491736,-75.86241859454445,-5.746228431277319,-75.36238117084736,-7.598679918008278,-73.61477733903632,-9.101732701461914,-70.85125510792233,-9.96442488974242,-67.44381139980862,-8.710410671870864,-63.69639532741602,-7.523061991002869,-60.61085378436195,-42,-61" fill="none" stroke="rgb(145, 85, 61)" stroke-width="2" stroke-linejoin="round" filter="url(#fuzzy)"></polyline><polyline points="47,-54,35.751747702841364,-68.19703060055788,26.931828685829238,-73.90200576761026,16.677506244878007,-77.67437969777296,8.59329459936597,-79.7373508690285,5.424511907558238,-79.18393027240751,7.40234377708394,-75.85921738519963,12.57859749884887,-70.98829672451917,17.792513108700426,-66.58266626516748,20.14964187917229,-64.1430256287856,18.49444503582155,-63.764649269421696,14.047777773491477,-64.40754185646178,9.673689318469474,-65.0797733791399,7.91762528279858,-65.86920659993837,8.823351561919893,-67.79751895177606,9.281783402665432,-71.38380149851933,5.412580742377595,-75.08879383640183,-2.5136302641700454,-75.73621081334034,-4.740667271269345,-72.94938367459714,28,-79" fill="none" stroke="rgb(145, 85, 61)" stroke-width="2" stroke-linejoin="round" filter="url(#fuzzy)"></polyline><polyline points="-4,-87,9.417462571885011,-68.96137153011244,-1.178957530803261,-66.77107564043027,-7.563960342741001,-67.67085716874861,-11.048944844446737,-68.69969344286035,-14.356854358314553,-69.29983078153626,-15.861401963462654,-69.73663719158577,-13.337465433834947,-70.31109032442215,-7.322936401331258,-70.87298962710013,-0.5864808090173459,-70.89626926222542,4.924331588461753,-69.96593280589248,10.036241713316905,-68.3283961096912,16.477688117461,-67.09066986838425,22.335009391785498,-67.53633988745574,19.494602178760537,-70.54164156331078,-10,-85" fill="none" stroke="rgb(145, 85, 61)" stroke-width="2" stroke-linejoin="round" filter="url(#fuzzy)"></polyline><polyline points="45,-58,23.682456294069123,-67.23724868968321,13.319604538436773,-70.57077753167,15.82838518264416,-71.29563541698371,20.526780002505507,-70.5061160260132,20.95663355255192,-69.8125770625135,16.040151227004436,-70.56408232193425,8.093367451964273,-72.93850336449172,0.4160221766441781,-76.00865011749563,-4.551719665527344,-78.46765518188477,-5.889975668801277,-79.35230310476209,-3.87689061819087,-78.43565957396822,0.5104682344252517,-76.28401158205136,5.728957708531211,-74.02695324675975,9.640262302147166,-72.86336411556728,9.894151082539668,-73.43460552024193,5.502034538926166,-75.3220797587873,2.318069428089517,-76.99993716333492,28,-79" fill="none" stroke="rgb(145, 85, 61)" stroke-width="2" stroke-linejoin="round" filter="url(#fuzzy)"></polyline><polyline points="52,-38,17.453291230545677,-68.76943849944935,3.3787893716360635,-77.40652906807027,-1.02791161278465,-75.36939233710481,-2.0234117121096618,-70.02388973675006,-3.1098105969758763,-66.31524386969431,-5.279063367900683,-65.9033210171,-7.781218355977469,-68.0037523602468,-9.345730271897539,-71.14325764023584,-9.252583098403493,-74.27475795796981,-7.837459564208984,-76.89864540100098,-6.250858442976821,-78.7676583213625,-5.683175711681627,-79.73278881409051,-6.670081134299243,-79.7831021458326,-9.07897573238032,-79.0259762016656,-12.73168806126705,-77.51912079521026,-17.71921621682286,-75.25841428838473,-23.300008683732912,-72.70627718461111,-25.74354936317362,-71.57265506162652,-17.44664521539412,-74.65757024108933,14,-86" fill="none" stroke="rgb(145, 85, 61)" stroke-width="2" stroke-linejoin="round" filter="url(#fuzzy)"></polyline><polyline points="40,-66,36.26867710897619,-69.47185488942155,31.847306062545343,-71.89500167802608,25.81066724196171,-72.16330160506563,16.294494838695588,-72.6733910459175,5.160592183804359,-73.99902074417123,-4.01235810399048,-75.38347846570748,-8.226085316341495,-75.95606270149395,-6.245627459310174,-75.113967879986,1.0090174116828503,-72.55620543516748,10.672338242835194,-68.47746583159196,18.860995509284642,-63.7617388389203,22.32199000174435,-59.73457016373823,20.311749376458582,-57.423156951779184,15.592440160718166,-56.93711660381809,13.095992736334072,-57.74868954619672,15.5369861847031,-59.66356293293696,17.841928536641266,-62.47869491319186,5.281295845591032,-62.452342725205455,-46,-52" fill="none" stroke="rgb(145, 85, 61)" stroke-width="2" stroke-linejoin="round" filter="url(#fuzzy)"></polyline><polyline points="54,-26,35.39433047829854,-47.089622621271616,7.7337647906589435,-60.06605799865335,-11.637662350311857,-66.13554983862048,-18.66413170337786,-70.11331891501128,-15.804571422553266,-73.83387029024165,-7.6404609140976945,-77.07346971887752,1.4924443218978756,-79.07491947755177,8.642838235278218,-79.43572128949663,12.561467855400668,-78.36898251003159,13.560309186823819,-76.51611596335721,13.138253140819947,-74.52464059734608,13.331836671931375,-72.67480419792862,15.627804732713996,-70.90377723850803,19.409483699851112,-69.5423347267023,20.67122598585393,-70.6292130645084,14.796887101855544,-77.7026939264698,14,-86" fill="none" stroke="rgb(145, 85, 61)" stroke-width="2" stroke-linejoin="round" filter="url(#fuzzy)"></polyline><polyline points="24,-82,-10.852310316016826,-74.12315864423492,-16.526518661401365,-74.11849388889313,-16.814653057689547,-75.03877073016032,-17.48171354082582,-76.06445021736543,-17.45246983970734,-77.48431631018461,-15.784040859026447,-79.08318092593193,-13.068457853878943,-80.2357487110423,-10.343005094328321,-80.36551623404594,-7.945152282714844,-79.22794723510742,-5.3569629334546045,-76.91663181864419,-1.8445814834295577,-73.71232360649354,2.891166388466351,-69.93180068491422,8.555947479247514,-65.81109335104108,14.30855642907733,-61.402438578407995,18.34181040408677,-56.70028800375737,17.821547273050385,-52.27483766595541,15.700896157120638,-48.81764726352815,52,-38" fill="none" stroke="rgb(145, 85, 61)" stroke-width="2" stroke-linejoin="round" filter="url(#fuzzy)"></polyline><polyline points="-37,-67,-21.017353323263666,-71.76311034214372,-11.312320675233474,-74.14590851974212,-9.376016389575529,-76.03985809966233,-9.250387929835151,-77.76045587905062,-9.63027286066511,-78.84619957562717,-10.87795547978143,-78.81324278020944,-12.70198180304006,-77.52717672325323,-14.124613297352361,-75.24166549673204,-14.014463248897464,-72.52197080437783,-11.486720713253675,-70.17207360977383,-6.5580135614816015,-69.05272442839625,-0.9706666363815252,-69.64285014313431,2.02246403504688,-71.50890026579197,-0.30826624498351807,-73.22918063007606,-8.306142807182855,-73.28708676828995,-20.972446252143392,-71.98937701705006,-29,-75" fill="none" stroke="rgb(145, 85, 61)" stroke-width="2" stroke-linejoin="round" filter="url(#fuzzy)"></polyline><polyline points="-40,-63,-1.3846817458622245,-73.59560543130766,19.942077396080695,-72.72121867364149,31.15061269338142,-68.60723382640803,36.55017746449448,-64.26051834248938,36.934349550153094,-61.69142240478014,32.107072917377906,-61.7527068485008,22.96410105932424,-63.95400161958242,12.163223266601562,-66.89601135253906,3.041331530828947,-69.21740249456491,-2.4738057632153776,-70.48174176482075,-5.0355812067685415,-71.25637850776816,-6.446900760522112,-72.22954235994257,-6.532494522586417,-73.17041698000115,-3.20592922940963,-72.72687788135181,-2.373811573210306,-69.20759022570871,-39,-64" fill="none" stroke="rgb(145, 85, 61)" stroke-width="2" stroke-linejoin="round" filter="url(#fuzzy)"></polyline><!--]--></g><g id="pointNose"><g id="rightNose"><!--[--><circle r="2.139674821899738" cx="5.436587685187001" cy="17.770745337108618" stroke="black" fill="none" stroke-width="1" filter="url(#fuzzy)"></circle><circle r="2.3629190057853986" cx="6.234732385556223" cy="17.884557403337862" stroke="black" fill="none" stroke-width="1" filter="url(#fuzzy)"></circle><circle r="1.8601870779943952" cx="5.520354764150054" cy="18.56505322574856" stroke="black" fill="none" stroke-width="1" filter="url(#fuzzy)"></circle><circle r="1.9539255359788035" cx="9.179522345658688" cy="20.363091569421037" stroke="black" fill="none" stroke-width="1" filter="url(#fuzzy)"></circle><circle r="2.69818953821086" cx="5.867184923826316" cy="18.204849601440966" stroke="black" fill="none" stroke-width="1" filter="url(#fuzzy)"></circle><circle r="1.464819067510619" cx="6.642559495294986" cy="20.054111778821625" stroke="black" fill="none" stroke-width="1" filter="url(#fuzzy)"></circle><circle r="2.413319675108232" cx="8.266072301049547" cy="19.915033544300204" stroke="black" fill="none" stroke-width="1" filter="url(#fuzzy)"></circle><circle r="1.2569879172066067" cx="5.732973326749704" cy="19.728364492546586" stroke="black" fill="none" stroke-width="1" filter="url(#fuzzy)"></circle><circle r="2.9221726422888867" cx="6.394830529990667" cy="17.27841091348607" stroke="black" fill="none" stroke-width="1" filter="url(#fuzzy)"></circle><circle r="2.911523916132192" cx="5.76323495965611" cy="18.117801975070062" stroke="black" fill="none" stroke-width="1" filter="url(#fuzzy)"></circle><!--]--></g><g id="leftNose"><!--[--><circle r="2.3036136471420816" cx="-5.243893368909314" cy="17.01597327110071" stroke="black" fill="none" stroke-width="1" filter="url(#fuzzy)"></circle><circle r="2.062543306818295" cx="-6.091961217500165" cy="16.78529308998219" stroke="black" fill="none" stroke-width="1" filter="url(#fuzzy)"></circle><circle r="1.134889120648673" cx="-8.785014351232128" cy="19.275799236539225" stroke="black" fill="none" stroke-width="1" filter="url(#fuzzy)"></circle><circle r="2.348685346928234" cx="-7.120464706790406" cy="17.886274255756764" stroke="black" fill="none" stroke-width="1" filter="url(#fuzzy)"></circle><circle r="2.9701799802636266" cx="-5.727834146485227" cy="17.957873886035973" stroke="black" fill="none" stroke-width="1" filter="url(#fuzzy)"></circle><circle r="1.2050898333158069" cx="-8.910976573636649" cy="17.32952486197375" stroke="black" fill="none" stroke-width="1" filter="url(#fuzzy)"></circle><circle r="1.1466583667004482" cx="-7.33808612662593" cy="16.35635331296699" stroke="black" fill="none" stroke-width="1" filter="url(#fuzzy)"></circle><circle r="2.5630076501707717" cx="-6.5211805559689715" cy="18.034473703517893" stroke="black" fill="none" stroke-width="1" filter="url(#fuzzy)"></circle><circle r="1.745488921717488" cx="-7.497121897367517" cy="15.442537270892746" stroke="black" fill="none" stroke-width="1" filter="url(#fuzzy)"></circle><circle r="2.7241095281430128" cx="-5.429229176381685" cy="18.794337572223313" stroke="black" fill="none" stroke-width="1" filter="url(#fuzzy)"></circle><!--]--></g></g><g id="mouth"><polyline points="-45.25022849956166,48.37939040980612,-44.68590080397975,50.16026883461512,-44.100748431792766,51.90359717635506,-43.49519923624489,53.609322713184696,-42.8696810705803,55.277392723262764,-42.22462178804319,56.907754484748,-41.56044924187772,58.50035527579914,-40.87759128532807,60.055142374574906,-40.176475771638465,61.572063059234075,-39.457530554053044,63.051064607935366,-38.72118348581598,64.4920942988375,-37.96786242017147,65.89509941009922,-37.197995210363715,67.2600272198793,-36.412009709636855,68.58682500633644,-35.61033377123511,69.87544004762938,-34.79339524840264,71.12581962191689,-33.96162199438362,72.33791100735769,-33.115441862422266,73.51166148211051,-32.25528270576271,74.64701832433408,-31.38157237764916,75.74392881218716,-30.494738731325793,76.80234022382848,-29.595209620036794,77.8221998374168,-28.683412897026344,78.80345493111082,-27.759776415538614,79.74605278306932,-26.82472802881779,80.64994067145099,-25.87869559010807,81.51506587441459,-24.922106952653603,82.34137567011886,-23.95538996969859,83.12881733672256,-22.97897249448721,83.8773381523844,-21.993282380263633,84.58688539526312,-20.99874748027205,85.25740634351745,-19.995795647756648,85.88884827530616,-18.9848547359616,86.48115846878798,-17.966352598131085,87.03428420212161,-16.940717087509288,87.54817275346583,-15.908376057340385,88.02277140097938,-14.86975736086856,88.45802742282099,-13.825288851337993,88.85388809714938,-12.775398381992874,89.21030070212329,-11.720513806077369,89.52721251590147,-10.661062976835666,89.80457081664265,-9.597473747511952,90.04232288250562,-8.530173971350393,90.24041599164903,-7.459591501595189,90.39879742223167,-6.3861541914905064,90.51741445241227,-5.310289894280526,90.59621436034959,-4.232426463209439,90.63514442420234,-3.1529917515214203,90.63415192212926,-2.0724136124606485,90.59318413228911,-0.9911198992713057,90.51218833284058,0.09046153480241603,90.39111180194243,1.1719028365163506,90.22990181775344,2.252776152626317,90.02850565843234,3.332653629888126,89.78687060213782,4.411107415057601,89.50494392702863,5.487709654890554,89.18267291126354,6.562032496142819,88.82000483300128,7.633648085570199,88.41688697040055,8.702128569928524,87.97326660162014,9.767046095973608,87.48909100481875,10.827972810461272,86.96430745815516,11.884480860147333,86.39886323978807,12.93614239178761,85.79270562787622,13.982529552137928,85.14578190057837,15.023214487954101,84.45803933605325,16.057769345991943,83.72942521245957,17.085766273007284,82.95988680795612,18.106777415755936,82.1493714007016,19.12037492099372,81.29782626885478,20.126130935476453,80.40519869057437,21.123617605959957,79.4714359440191,22.112407079200054,78.49648530734774,23.092071501952553,77.48029405871902,24.06218302097328,76.42280947629166,25.022313783018056,75.32397883822442,25.972035934842697,74.18374942267602,26.910921623203024,73.0020685078052,27.83854299485485,71.77888337177073,28.754472196554,70.51414129273131,29.65828137505629,69.2077895488457,30.549542677117543,67.85977541827262,31.427828249493576,66.47004617917082,32.2927102389402,65.03854910969903,33.14376079221325,63.56523148801601,33.98055205606854,62.05004059228048,34.80265617726189,60.49292370065119,35.6096453025491,58.89382809128686,36.40109157868601,57.252701042346246,37.17656715242843,55.56948983198807,37.935644170532186,53.844141738371086,38.677894779753096,52.07660403965403,39.402891126846974,50.266824013995624,40.11020535856964,48.41474893955463,40.799409621676915,46.52032609448976,41.47007606292462,44.58350275695978,42.121776829068565,42.60422620512341,42.75408406686458,40.5824437171394,43.36656992306848,38.51810257116648,43.95880654443609,36.411150045363385,44.53036607772321,34.26153341788886,45.08082066968564,32.06919996690179,44.530366077723166,34.261533417889005,43.95880654443605,36.41115004536352,43.36656992306844,38.51810257116661,42.754084066864536,40.582443717139526,42.121776829068516,42.60422620512353,41.47007606292457,44.5835027569599,40.799409621676865,46.52032609448987,40.110205358569594,48.41474893955474,39.40289112684694,50.26682401399574,38.67789477975306,52.076604039654136,37.93564417053215,53.84414173837118,37.1765671524284,55.56948983198817,36.401091578685964,57.25270104234633,35.60964530254905,58.89382809128695,34.80265617726183,60.49292370065127,33.98055205606849,62.05004059228055,33.1437607922132,63.5652314880161,32.29271023894016,65.03854910969912,31.427828249493523,66.4700461791709,30.549542677117497,67.85977541827269,29.65828137505624,69.20778954884577,28.754472196553948,70.51414129273138,27.8385429948548,71.77888337177079,26.910921623202974,73.00206850780528,25.972035934842655,74.1837494226761,25.022313783018017,75.32397883822448,24.062183020973237,76.42280947629172,23.092071501952507,77.48029405871908,22.11240707920001,78.49648530734781,21.123617605959915,79.47143594401916,20.126130935476407,80.40519869057442,19.120374920993676,81.29782626885485,18.10677741575589,82.14937140070167,17.085766273007234,82.95988680795618,16.057769345991897,83.72942521245963,15.02321448795405,84.4580393360533,13.98252955213788,85.14578190057843,12.93614239178756,85.79270562787627,11.884480860147281,86.39886323978813,10.827972810461223,86.96430745815519,9.76704609597356,87.48909100481882,8.702128569928473,87.97326660162017,7.633648085570151,88.4168869704006,6.56203249614277,88.82000483300129,5.487709654890508,89.18267291126358,4.411107415057547,89.50494392702866,3.3326536298880773,89.78687060213784,2.252776152626268,90.02850565843235,1.171902836516301,90.22990181775347,0.09046153480237074,90.39111180194246,-0.9911198992713564,90.51218833284058,-2.0724136124607,90.5931841322891,-3.152991751521469,90.63415192212923,-4.2324264632094915,90.63514442420234,-5.310289894280576,90.59621436034956,-6.386154191490556,90.51741445241227,-7.459591501595236,90.39879742223165,-8.530173971350447,90.240415991649,-9.597473747512,90.04232288250557,-10.661062976835716,89.80457081664264,-11.720513806077417,89.52721251590144,-12.77539838199292,89.21030070212325,-13.825288851338044,88.85388809714932,-14.86975736086861,88.45802742282095,-15.908376057340428,88.02277140097934,-16.94071708750933,87.5481727534658,-17.96635259813113,87.03428420212157,-18.984854735961644,86.48115846878792,-19.995795647756694,85.88884827530612,-20.9987474802721,85.2574063435174,-21.99328238026368,84.58688539526307,-22.97897249448725,83.87733815238435,-23.95538996969863,83.1288173367225,-24.92210695265365,82.34137567011882,-25.878695590108112,81.51506587441455,-26.824728028817844,80.64994067145093,-27.759776415538663,79.74605278306927,-28.683412897026393,78.80345493111078,-29.595209620036847,77.82219983741675,-30.494738731325846,76.80234022382845,-31.381572377649206,75.74392881218711,-32.25528270576275,74.64701832433403,-33.1154418624223,73.51166148211044,-33.96162199438368,72.33791100735763,-34.79339524840269,71.12581962191683,-35.61033377123516,69.87544004762933,-36.41200970963691,68.58682500633637,-37.19799521036376,67.26002721987923,-37.96786242017152,65.89509941009915,-38.72118348581603,64.49209429883742,-39.45753055405308,63.05106460793528,-40.1764757716385,61.57206305923398,-40.87759128532813,60.05514237457482,-41.56044924187777,58.50035527579905,-42.22462178804323,56.907754484747905,-42.86968107058035,55.277392723262665,-43.49519923624493,53.609322713184596,-44.10074843179281,51.90359717635496,-44.685900803979784,50.160268834614996" fill="rgb(215,127,140)" stroke="black" stroke-width="3" stroke-linejoin="round" filter="url(#fuzzy)"></polyline></g></svg>