<svg viewBox="-100 -100 200 200" xmlns="http://www.w3.org/2000/svg" width="400" height="400" id="face-svg"><defs><clipPath id="leftEyeClipPath"><polyline points="37.34294585682938,1.9852185131707423,37.10262814540947,1.9225909313915053,36.825600827551774,1.8571397849560691,36.51174969789223,1.7887616771417878,36.16105522297743,1.7173788837419774,35.773589352001956,1.6429384764554866,35.3495123275456,1.5654114462762685,34.88906949631065,1.4847918268829488,34.39258811985915,1.4010958180283999,33.860474185350185,1.3143609089293093,33.29320921627712,1.224645001655751,32.69134708320486,1.132025534520757,32.05551081450717,1.0365986054698855,31.386389407103888,0.9384780954707941,30.684734637198186,0.837794791902811,29.951357871013887,0.7346955119465022,29.27474616534283,0.6450806380401262,28.541968758576143,0.5483882572015737,27.75404990121084,0.4450109120041157,26.91237211599285,0.3354137675868869,26.018642285388555,0.22012478192967233,25.07485906230244,0.09972536675568433,24.08328158091404,-0.025158471116914605,23.046399444507742,-0.15386451815401037,21.966903967168694,-0.28570228239429785,20.847660646218344,-0.41996047182705665,19.691682842262832,-0.5559140330382051,18.502106643727824,-0.6928307603038695,17.282166892752976,-0.829977485310732,16.03517434931957,-0.9666258576824096,14.764493970484628,-1.1020577264911076,13.473524281594903,-1.2355701329338107,12.165677816354151,-1.3664799243522552,10.844362602617105,-1.4941279997759427,9.51296467078344,-1.6178831971674406,8.174831561665224,-1.7371458325492282,6.833256810701187,-1.8513509011913345,5.491465385391191,-1.9599709510390269,4.15260005282433,-2.0625186385597973,2.8197086541740193,-2.158548977188899,1.4957322630334429,-2.247661288552694,0.18349420446481401,-2.3295008666490493,-1.1143100883642538,-2.4037603651640516,-2.395122403083778,-2.470180918104274,-3.656530285690558,-2.52855300392387,-4.896274809909938,-2.5787170633257186,-6.112257601476932,-2.6205638809159058,-7.3025471404631634,-2.6540347408907583,-8.465384364776423,-2.679121366935726,-9.599187597959208,-2.6958656565153087,-10.70255682441316,-2.7043592197333504,-11.774277335175707,-2.7047427329428815,-12.813322767375752,-2.697205117284812,-13.818857560494887,-2.6819825523347043,-14.790238852560826,-2.659357335036892,-15.727017839399583,-2.6296565941051884,-16.628940620073095,-2.5932508700694243,-17.495948551628878,-2.5505525711471058,-18.328178136288205,-2.5020143151193968,-19.125960464199704,-2.4481271673907243,-19.889820234884624,-2.389418785411219,-20.620474380500685,-2.326451479641268,-21.318830314050967,-2.2598202012374347,-21.985983825664473,-2.190150466638976,-22.62321665007499,-2.118096229234221,-23.231993728424932,-2.044337708286092,-23.812868773424327,-1.9683694551063788,-24.36556304221086,-1.8894258786343339,-24.89045885296841,-1.8078158534286843,-25.387976634612844,-1.7238478155490395,-25.85857182947797,-1.6378283992631517,-26.302731796001403,-1.5500610737541738,-26.720972711410557,-1.4608447798279336,-27.11383647440855,-1.3704725666201862,-27.48188760786013,-1.279230228303886,-27.825710161477627,-1.1873949407964455,-28.145904614506833,-1.0952338984670011,-28.44308477841299,-1.0030029508436735,-28.71787469956668,-0.9109452393208368,-28.970905561929758,-0.8192898338663741,-29.09956857637164,1.455587781044026,-28.659087057426305,1.4431861576474199,-28.20603980137128,1.4314069979606936,-27.740314731500145,1.4203487218050226,-27.2618136934328,1.4101135047300328,-26.770452189375508,1.4008065917002368,-26.26615911238101,1.3925356107814708,-25.748876480608626,1.385409886827332,-25.21855917158433,1.3795397551656134,-24.675174656460836,1.375035875284745,-24.11870273427771,1.3720085445202252,-23.549135266221445,1.370567011741062,-22.966475909885553,1.3708187910362084,-22.37073985353063,1.3728689754009988,-21.761953550344515,1.3768195504235865,-21.13875400882371,1.382391779337477,-20.49962108602033,1.3894261965160752,-19.84438280801157,1.3981846442290728,-19.172906014531787,1.4089066486702366,-18.48509648054205,1.42180873339927,-17.780898986507307,1.4370837720506113,-17.060297339365167,1.4549003854336475,-16.32331434617062,1.4754023881488187,-15.570011742400894,1.4987082898440836,-14.80049007690452,1.5249108562362255,-14.01488855547894,1.5540767350214728,-13.213384845060752,1.5862461517999036,-12.39619484051283,1.6214326811381152,-11.563572395992482,1.6596230978946314,-10.715809022884882,1.700777313932517,-9.853233556285872,1.7448284053436844,-8.976211792018475,1.791682735309356,-8.085146096167149,1.8412201777211663,-7.180474989114112,1.8932944466873673,-6.262672706061808,1.947733537048628,-5.332248736025818,2.004340281027884,-4.3897473412823125,2.062893026138728,-3.435747059254307,2.1231464394768014,-2.470860188820861,2.1848324435186774,-1.4957322630334429,2.2476612885526936,-0.5110415102236483,2.3113227668662244,0.48250169451354274,2.3754875738138517,1.4841553854768128,2.4398088208909257,2.493146568171566,2.5039237059369754,3.508671784794933,2.567455345593453,4.529897681408446,2.630014775140281,5.5559615748142175,2.691203120835685,6.5859720171504375,2.750613949883769,7.619009356222,2.8078358031543353,8.654126289582026,2.862454915779395,9.690348410380183,2.9140581307508646,10.726674742993493,2.9622360106439105,11.762078266455536,3.006586152590426,12.795506423699795,3.046716711627103,13.825881614632987,3.0822501375425904,14.852101671054193,3.112827130348195,15.873040311435542,3.138110819496613,16.8875475735803,3.1577911719731575,17.89445022317421,3.1715896343839693,18.892552136245804,3.1792640141656685,19.880634653551542,3.1806136050409353,20.85745690490163,3.175484561844488,21.821756101442222,3.163775529843936,22.772247793909916,3.1454435336799795,23.707626094874293,3.120510131050433,24.520313891402193,3.124215514138788,25.321467409727397,3.12498225561837,26.110139064217773,3.1228366498953424,26.88534694505932,3.11782158850433,27.646074262380544,3.109997229405231,28.391268790376753,3.0994416662800233,29.119842311434553,3.0862515978295733,29.830670060256114,3.0705429970704445,30.52259016798358,3.0524517806317046,31.19440310632346,3.0321344780517356,31.844871131670974,3.0097689010750415,32.47271772923442,2.9855548129490552,33.07662705715956,2.9597145977209496,33.65524339065398,2.932493929534443,34.20717056611147,2.9041624419266094"></polyline></clipPath><clipPath id="rightEyeClipPath"><polyline points="-38.56340983535013,1.7644787572925744,-38.2611569597324,1.6998709796361662,-37.922720112847365,1.6321612272216188,-37.548261056736,1.561235870485462,-37.13801701185014,1.4870090757724972,-36.69229795156901,1.4094218582864007,-36.211483896716004,1.3284411350403307,-35.69602221007526,1.2440587778075318,-35.146424890908385,1.1562906660719408,-34.56326586947105,1.0651757399787902,-33.94717830152971,0.9707750532852157,-33.29885186287822,0.8731708263108597,-32.61903004385453,0.7724654988884763,-31.908507443857317,0.6687807833145374,-31.16812706586264,0.5622567172998378,-30.398777610940655,0.453050716920099,-29.6566158135932,0.35888780594997605,-28.863736846892294,0.25699857608810506,-28.021329229690906,0.14780104796580495,-27.13089184215149,0.031791877841450766,-26.194204101026344,-0.09046425202653774,-25.213297277871824,-0.218344713443114,-24.190426940745482,-0.3511784937685558,-23.128046499934406,-0.4882552498310959,-22.028781838263676,-0.6288338652523491,-20.895407006533553,-0.7721505221776908,-19.73082096463395,-0.9174262984037109,-18.53802534888503,-1.063874300894876,-17.320103246152456,-1.2107063466815426,-16.080198955286036,-1.3571392021314517,-14.82149871643039,-1.5024003915868431,-13.547212388756313,-1.6457335863593179,-12.260556057161516,-1.786403585074587,-10.964735548489434,-1.9237008963592506,-9.662930837814656,-2.0569459348617243,-8.358281325343798,-2.1854928415994697,-7.053871964480364,-2.308732939624637,-5.752720221602318,-2.426097836000286,-4.457763848101024,-2.537062181079292,-3.1718494452302095,-2.6411460960780873,-1.8977218023136255,-2.7379172799373834,-0.6380139888600773,-2.826992806461965,0.6047618188655255,-2.9080406227317597,1.8282227962664193,-2.9807807597762426,3.0301232332848933,-3.0449862665043868,4.2083616211711234,-3.100483877882214,5.360987082601385,-3.147154428350158,6.486205164596827,-3.1849330214723293,7.582383013694315,-3.2138089668098124,8.64805395282046,-3.233825495010167,9.681921479320431,-3.2450792621052407,10.682862703592633,-3.2477196540094178,11.649931247780755,-3.241947902210478,12.582359623974428,-3.2280160216451734,13.479561111369923,-3.2062255817516445,14.34113115184209,-3.176926321690853,15.166848283378956,-3.140514620729127,15.956674630830387,-3.097431834773968,16.710755973421932,-3.04816251005527,17.429421408485418,-2.993232484944054,18.113182630857516,-2.933206890900878,18.76273284739755,-2.8686880635460468,19.378945346076087,-2.800313374843767,19.962871739085344,-2.728752997392372,20.51573989942308,-2.6547076118127246,21.03895161040105,-2.578906068227029,21.532941976054595,-2.5008132567918504,21.997329620070417,-2.419616062071698,22.432450311835176,-2.3356465253638192,22.83867749580901,-2.2492361686284164,23.216419686436176,-2.1607145223277278,23.566117863055617,-2.0704076532650766,23.888242864811644,-1.9786366924239345,24.18329278556459,-1.8857163628069906,24.451790368801333,-1.7919535072752035,24.694280402546063,-1.6976456163868736,24.911327114270783,-1.6030793562366954,25.103511565806045,-1.5085290962948235,25.27142904825149,-1.4142554372459375,25.415686476886556,-1.320503738828298,26.359768395418968,1.3371646484322897,25.906647056374766,1.3338813677063417,25.44374622881142,1.3315581071876967,24.971184263504455,1.330303741582762,24.489098676897186,1.3302305012901852,23.997644186946644,1.3314531746702407,23.496990748969715,1.3340883103142165,22.987321591489057,1.3382534193138016,22.46883125207924,1.3440661775304732,21.941723613212666,1.3516436278648831,21.40620993810567,1.361101382526246,20.86250690656452,1.372552825301724,20.310834650831445,1.386108313825818,19.751414791430633,1.40187438184975,19.184468473014334,1.4199529415108538,18.60801155962401,1.4400547407909305,18.020194139390092,1.4620250786478604,17.421417112782834,1.4861426677098701,16.81205373564468,1.5126575490086394,16.19244851736663,1.5417904259588786,15.562916186550622,1.5737320493648024,14.923740738823687,1.6086426594098924,14.275174581469328,1.6466514905863385,13.617437789542107,1.6878563455205433,12.950717488130886,1.7323232436510805,12.275167375436515,1.7800861507155,11.590907401329625,1.8311467950023554,10.898023616054223,1.8854745763248628,10.196568203742734,1.9430065736725586,9.486559715408221,2.003647657497356,8.76798351607945,2.0672707125903926,8.040792460744425,2.1337169775060434,7.304907813768203,2.2027965064895043,6.560220426450536,2.2742887598643193,5.806592187389121,2.347943328836256,5.0438577603140775,2.4234808006699007,4.271826624059376,2.5005937701943775,3.4902854293368932,2.578948003594568,2.699000686978743,2.6581837604442278,1.897721802313625,2.7379172799373834,1.0861844703428218,2.8177424372744055,0.2641144463815559,2.897232576159133,-0.5687682931686435,2.9759425233634547,-1.4127449852507943,3.053410791315722,-2.268093095120987,3.1291619746693886,-3.135080897188787,3.202709346808268,-4.013961607063867,3.273557662244786,-4.90496705014321,3.341206170867631,-5.808300852073168,3.4051518499951814,-6.724131136420707,3.464892860191103,-7.65258271488815,3.5199322307985024,-8.593728755405749,3.5697817811490222,-9.547581913436375,3.61396628340328,-10.51408491182668,3.6520278729790174,-11.49310055453901,3.6835307125233747,-12.484401159598416,3.7080659153856486,-13.487657396589086,3.7252567345469583,-14.502426514034427,3.7347640229631667,-15.52813994199529,3.7362919712774856,-16.56409025522046,3.7295941288591266,-17.60941748218385,3.7144797141243937,-18.66309474534272,3.6908202200966103,-19.723913217951107,3.6585563211612673,-20.790466382762986,3.617705086972774,-21.861133577959308,3.5683675094692133,-22.71335529651717,3.559237648103046,-23.56267461965256,3.546299191770405,-24.40793966925026,3.5296223714686574,-25.247912406135733,3.5092996756920765,-26.081266132992084,3.485446704839231,-26.906582997277027,3.4582030256203775,-27.722351494139794,3.4277330254648475,-28.526963969338098,3.394226766928439,-29.31871412215512,3.3579008421008067,-30.09579450831638,3.31899922701285,-30.856294042906754,3.2777941360441063,-31.598195503287393,3.2345868763301375,-32.31937303201266,3.1897087021699226,-33.017589639747115,3.143521669433247,-33.69049470818241,3.096419489968091"></polyline></clipPath><filter id="fuzzy"><feTurbulence id="turbulence" baseFrequency="0.05" numOctaves="3" type="noise" result="noise"></feTurbulence><feDisplacementMap in="SourceGraphic" in2="noise" scale="2"></feDisplacementMap></filter><linearGradient id="rainbowGradient" x1="0%" y1="0%" x2="100%" y2="0%"><stop offset="0%" style="stop-color: rgb(145, 85, 61);  stop-opacity: 1"></stop><stop offset="50%" style="stop-color: rgb(185, 55, 55);  stop-opacity: 1"></stop><stop offset="100%" style="stop-color: rgb(165, 42, 42);  stop-opacity: 1"></stop></linearGradient></defs><title>That&#39;s an ugly face</title><desc>CREATED BY XUAN TANG, MORE INFO AT TXSTC55.GITHUB.IO</desc><rect x="-100" y="-100" width="100%" height="100%" opacity="1" fill="rgb(72, 61, 139)"></rect><polyline id="faceContour" points="81,1,81,3,81,2,81,4,81,7,80,8,80,10,80,12,79,13,79,15,79,14,79,17,78,18,78,20,77,23,77,23,77,23,76,27,76,28,76,30,75,32,75,33,75,33,74,35,73,38,72,39,71,42,71,42,70,45,70,45,70,45,68,49,69,48,67,50,67,52,65,54,66,53,64,56,65,55,63,58,61,62,61,61,61,61,59,65,60,63,58,66,57,67,56,69,55,70,54,71,55,71,53,72,51,74,51,74,51,75,49,76,47,79,47,79,46,80,46,79,44,81,43,82,42,83,41,84,42,83,38,85,37,86,37,86,37,87,34,88,35,88,33,89,31,90,30,90,29,91,30,91,27,91,27,92,26,92,26,92,23,93,22,94,22,93,19,95,19,94,18,95,16,95,14,95,15,95,12,96,11,96,11,96,9,96,6,96,7,96,6,96,4,96,4,96,2,96,2,96,-1,96,-1,96,-2,96,-3,96,-4,95,-5,96,-7,95,-8,95,-10,94,-11,94,-13,93,-13,93,-13,93,-14,94,-17,92,-17,93,-19,92,-19,91,-20,91,-21,91,-23,90,-25,89,-25,89,-26,88,-26,88,-29,87,-29,87,-31,86,-33,84,-33,84,-34,83,-36,82,-35,82,-36,82,-39,80,-38,80,-40,79,-41,78,-42,77,-43,77,-45,74,-45,75,-47,73,-47,73,-48,71,-48,72,-51,69,-51,69,-53,67,-53,66,-54,65,-56,63,-57,62,-57,61,-56,62,-59,59,-59,58,-59,59,-62,55,-61,55,-61,55,-63,53,-63,52,-65,50,-65,49,-65,48,-67,47,-68,44,-67,46,-69,42,-70,40,-69,41,-70,39,-71,38,-72,36,-73,34,-73,34,-73,33,-74,30,-75,28,-74,30,-75,27,-76,26,-77,23,-76,24,-77,23,-77,21,-78,19,-79,15,-79,15,-79,14,-79,13,-80,10,-79,12,-80,6,-80,7,-81,4,-81,5,-81,2,-81,2,-81,0,-81,-3,-81,-4,-82,-4,-82,-5,-82,-8,-81,-8,-82,-10,-82,-10,-81,-12,-81,-15,-81,-18,-82,-16,-81,-17,-82,-19,-81,-22,-81,-23,-80,-24,-80,-25,-80,-25,-80,-28,-80,-30,-80,-31,-79,-32,-78,-35,-79,-34,-78,-37,-78,-36,-78,-37,-77,-40,-76,-41,-76,-43,-75,-45,-75,-46,-74,-47,-74,-48,-73,-49,-73,-50,-72,-52,-72,-52,-71,-54,-71,-54,-69,-57,-68,-58,-68,-58,-66,-61,-66,-61,-65,-61,-66,-61,-62,-66,-63,-64,-62,-66,-63,-66,-61,-67,-60,-69,-58,-71,-57,-72,-57,-71,-55,-74,-54,-75,-52,-76,-52,-76,-51,-77,-52,-76,-50,-78,-48,-79,-47,-80,-45,-81,-43,-82,-41,-83,-41,-84,-40,-84,-39,-85,-38,-85,-38,-85,-36,-86,-34,-88,-32,-88,-30,-89,-30,-89,-28,-90,-28,-90,-25,-91,-26,-91,-23,-92,-23,-92,-21,-92,-19,-93,-15,-94,-14,-94,-13,-94,-14,-94,-12,-94,-11,-95,-9,-95,-9,-95,-5,-95,-6,-95,-4,-96,-3,-96,2,-96,2,-96,3,-96,6,-96,7,-96,6,-96,9,-96,9,-96,11,-96,14,-96,15,-96,15,-96,17,-95,19,-95,20,-95,19,-95,24,-94,26,-94,28,-94,28,-93,29,-93,30,-93,31,-92,33,-92,35,-91,36,-91,36,-91,38,-90,39,-89,40,-89,41,-88,42,-88,44,-87,44,-87,48,-84,47,-85,48,-85,50,-83,51,-82,53,-81,52,-81,54,-80,55,-79,57,-78,58,-77,59,-76,59,-75,59,-74,62,-72,62,-73,62,-72,62,-72,65,-69,66,-68,66,-67,67,-66,69,-63,69,-63,69,-63,69,-62,71,-59,70,-60,72,-57,72,-58,73,-55,74,-53,74,-52,76,-48,75,-50,76,-47,76,-47,77,-45,78,-43,77,-43,78,-41,79,-40,79,-37,79,-38,80,-35,80,-35,80,-34,80,-31,81,-29,81,-27,81,-24,81,-23,81,-23,81,-23,81,-20,81,-18,81,-18,82,-14,82,-15,82,-11,82,-9,81,-8,81,-6,82,-5,81,-2,81,-2,81,1,81,3" fill="#ffc9a9" stroke="black" stroke-width="1.6666666666666665" stroke-linejoin="round" filter="url(#fuzzy)"></polyline><g transform="translate(32.424357115433935 -25.174294750431294)"><polyline id="rightCountour" points="-38.56340983535013,1.7644787572925744,-38.2611569597324,1.6998709796361662,-37.922720112847365,1.6321612272216188,-37.548261056736,1.561235870485462,-37.13801701185014,1.4870090757724972,-36.69229795156901,1.4094218582864007,-36.211483896716004,1.3284411350403307,-35.69602221007526,1.2440587778075318,-35.146424890908385,1.1562906660719408,-34.56326586947105,1.0651757399787902,-33.94717830152971,0.9707750532852157,-33.29885186287822,0.8731708263108597,-32.61903004385453,0.7724654988884763,-31.908507443857317,0.6687807833145374,-31.16812706586264,0.5622567172998378,-30.398777610940655,0.453050716920099,-29.6566158135932,0.35888780594997605,-28.863736846892294,0.25699857608810506,-28.021329229690906,0.14780104796580495,-27.13089184215149,0.031791877841450766,-26.194204101026344,-0.09046425202653774,-25.213297277871824,-0.218344713443114,-24.190426940745482,-0.3511784937685558,-23.128046499934406,-0.4882552498310959,-22.028781838263676,-0.6288338652523491,-20.895407006533553,-0.7721505221776908,-19.73082096463395,-0.9174262984037109,-18.53802534888503,-1.063874300894876,-17.320103246152456,-1.2107063466815426,-16.080198955286036,-1.3571392021314517,-14.82149871643039,-1.5024003915868431,-13.547212388756313,-1.6457335863593179,-12.260556057161516,-1.786403585074587,-10.964735548489434,-1.9237008963592506,-9.662930837814656,-2.0569459348617243,-8.358281325343798,-2.1854928415994697,-7.053871964480364,-2.308732939624637,-5.752720221602318,-2.426097836000286,-4.457763848101024,-2.537062181079292,-3.1718494452302095,-2.6411460960780873,-1.8977218023136255,-2.7379172799373834,-0.6380139888600773,-2.826992806461965,0.6047618188655255,-2.9080406227317597,1.8282227962664193,-2.9807807597762426,3.0301232332848933,-3.0449862665043868,4.2083616211711234,-3.100483877882214,5.360987082601385,-3.147154428350158,6.486205164596827,-3.1849330214723293,7.582383013694315,-3.2138089668098124,8.64805395282046,-3.233825495010167,9.681921479320431,-3.2450792621052407,10.682862703592633,-3.2477196540094178,11.649931247780755,-3.241947902210478,12.582359623974428,-3.2280160216451734,13.479561111369923,-3.2062255817516445,14.34113115184209,-3.176926321690853,15.166848283378956,-3.140514620729127,15.956674630830387,-3.097431834773968,16.710755973421932,-3.04816251005527,17.429421408485418,-2.993232484944054,18.113182630857516,-2.933206890900878,18.76273284739755,-2.8686880635460468,19.378945346076087,-2.800313374843767,19.962871739085344,-2.728752997392372,20.51573989942308,-2.6547076118127246,21.03895161040105,-2.578906068227029,21.532941976054595,-2.5008132567918504,21.997329620070417,-2.419616062071698,22.432450311835176,-2.3356465253638192,22.83867749580901,-2.2492361686284164,23.216419686436176,-2.1607145223277278,23.566117863055617,-2.0704076532650766,23.888242864811644,-1.9786366924239345,24.18329278556459,-1.8857163628069906,24.451790368801333,-1.7919535072752035,24.694280402546063,-1.6976456163868736,24.911327114270783,-1.6030793562366954,25.103511565806045,-1.5085290962948235,25.27142904825149,-1.4142554372459375,25.415686476886556,-1.320503738828298,26.359768395418968,1.3371646484322897,25.906647056374766,1.3338813677063417,25.44374622881142,1.3315581071876967,24.971184263504455,1.330303741582762,24.489098676897186,1.3302305012901852,23.997644186946644,1.3314531746702407,23.496990748969715,1.3340883103142165,22.987321591489057,1.3382534193138016,22.46883125207924,1.3440661775304732,21.941723613212666,1.3516436278648831,21.40620993810567,1.361101382526246,20.86250690656452,1.372552825301724,20.310834650831445,1.386108313825818,19.751414791430633,1.40187438184975,19.184468473014334,1.4199529415108538,18.60801155962401,1.4400547407909305,18.020194139390092,1.4620250786478604,17.421417112782834,1.4861426677098701,16.81205373564468,1.5126575490086394,16.19244851736663,1.5417904259588786,15.562916186550622,1.5737320493648024,14.923740738823687,1.6086426594098924,14.275174581469328,1.6466514905863385,13.617437789542107,1.6878563455205433,12.950717488130886,1.7323232436510805,12.275167375436515,1.7800861507155,11.590907401329625,1.8311467950023554,10.898023616054223,1.8854745763248628,10.196568203742734,1.9430065736725586,9.486559715408221,2.003647657497356,8.76798351607945,2.0672707125903926,8.040792460744425,2.1337169775060434,7.304907813768203,2.2027965064895043,6.560220426450536,2.2742887598643193,5.806592187389121,2.347943328836256,5.0438577603140775,2.4234808006699007,4.271826624059376,2.5005937701943775,3.4902854293368932,2.578948003594568,2.699000686978743,2.6581837604442278,1.897721802313625,2.7379172799373834,1.0861844703428218,2.8177424372744055,0.2641144463815559,2.897232576159133,-0.5687682931686435,2.9759425233634547,-1.4127449852507943,3.053410791315722,-2.268093095120987,3.1291619746693886,-3.135080897188787,3.202709346808268,-4.013961607063867,3.273557662244786,-4.90496705014321,3.341206170867631,-5.808300852073168,3.4051518499951814,-6.724131136420707,3.464892860191103,-7.65258271488815,3.5199322307985024,-8.593728755405749,3.5697817811490222,-9.547581913436375,3.61396628340328,-10.51408491182668,3.6520278729790174,-11.49310055453901,3.6835307125233747,-12.484401159598416,3.7080659153856486,-13.487657396589086,3.7252567345469583,-14.502426514034427,3.7347640229631667,-15.52813994199529,3.7362919712774856,-16.56409025522046,3.7295941288591266,-17.60941748218385,3.7144797141243937,-18.66309474534272,3.6908202200966103,-19.723913217951107,3.6585563211612673,-20.790466382762986,3.617705086972774,-21.861133577959308,3.5683675094692133,-22.71335529651717,3.559237648103046,-23.56267461965256,3.546299191770405,-24.40793966925026,3.5296223714686574,-25.247912406135733,3.5092996756920765,-26.081266132992084,3.485446704839231,-26.906582997277027,3.4582030256203775,-27.722351494139794,3.4277330254648475,-28.526963969338098,3.394226766928439,-29.31871412215512,3.3579008421008067,-30.09579450831638,3.31899922701285,-30.856294042906754,3.2777941360441063,-31.598195503287393,3.2345868763301375,-32.31937303201266,3.1897087021699226,-33.017589639747115,3.143521669433247,-33.69049470818241,3.096419489968091" fill="white" stroke="white" stroke-width="0" stroke-linejoin="round" filter="url(#fuzzy)"></polyline></g><g transform="translate(-29.70844595280321 -26.199611212473734)"><polyline id="leftCountour" points="37.34294585682938,1.9852185131707423,37.10262814540947,1.9225909313915053,36.825600827551774,1.8571397849560691,36.51174969789223,1.7887616771417878,36.16105522297743,1.7173788837419774,35.773589352001956,1.6429384764554866,35.3495123275456,1.5654114462762685,34.88906949631065,1.4847918268829488,34.39258811985915,1.4010958180283999,33.860474185350185,1.3143609089293093,33.29320921627712,1.224645001655751,32.69134708320486,1.132025534520757,32.05551081450717,1.0365986054698855,31.386389407103888,0.9384780954707941,30.684734637198186,0.837794791902811,29.951357871013887,0.7346955119465022,29.27474616534283,0.6450806380401262,28.541968758576143,0.5483882572015737,27.75404990121084,0.4450109120041157,26.91237211599285,0.3354137675868869,26.018642285388555,0.22012478192967233,25.07485906230244,0.09972536675568433,24.08328158091404,-0.025158471116914605,23.046399444507742,-0.15386451815401037,21.966903967168694,-0.28570228239429785,20.847660646218344,-0.41996047182705665,19.691682842262832,-0.5559140330382051,18.502106643727824,-0.6928307603038695,17.282166892752976,-0.829977485310732,16.03517434931957,-0.9666258576824096,14.764493970484628,-1.1020577264911076,13.473524281594903,-1.2355701329338107,12.165677816354151,-1.3664799243522552,10.844362602617105,-1.4941279997759427,9.51296467078344,-1.6178831971674406,8.174831561665224,-1.7371458325492282,6.833256810701187,-1.8513509011913345,5.491465385391191,-1.9599709510390269,4.15260005282433,-2.0625186385597973,2.8197086541740193,-2.158548977188899,1.4957322630334429,-2.247661288552694,0.18349420446481401,-2.3295008666490493,-1.1143100883642538,-2.4037603651640516,-2.395122403083778,-2.470180918104274,-3.656530285690558,-2.52855300392387,-4.896274809909938,-2.5787170633257186,-6.112257601476932,-2.6205638809159058,-7.3025471404631634,-2.6540347408907583,-8.465384364776423,-2.679121366935726,-9.599187597959208,-2.6958656565153087,-10.70255682441316,-2.7043592197333504,-11.774277335175707,-2.7047427329428815,-12.813322767375752,-2.697205117284812,-13.818857560494887,-2.6819825523347043,-14.790238852560826,-2.659357335036892,-15.727017839399583,-2.6296565941051884,-16.628940620073095,-2.5932508700694243,-17.495948551628878,-2.5505525711471058,-18.328178136288205,-2.5020143151193968,-19.125960464199704,-2.4481271673907243,-19.889820234884624,-2.389418785411219,-20.620474380500685,-2.326451479641268,-21.318830314050967,-2.2598202012374347,-21.985983825664473,-2.190150466638976,-22.62321665007499,-2.118096229234221,-23.231993728424932,-2.044337708286092,-23.812868773424327,-1.9683694551063788,-24.36556304221086,-1.8894258786343339,-24.89045885296841,-1.8078158534286843,-25.387976634612844,-1.7238478155490395,-25.85857182947797,-1.6378283992631517,-26.302731796001403,-1.5500610737541738,-26.720972711410557,-1.4608447798279336,-27.11383647440855,-1.3704725666201862,-27.48188760786013,-1.279230228303886,-27.825710161477627,-1.1873949407964455,-28.145904614506833,-1.0952338984670011,-28.44308477841299,-1.0030029508436735,-28.71787469956668,-0.9109452393208368,-28.970905561929758,-0.8192898338663741,-29.09956857637164,1.455587781044026,-28.659087057426305,1.4431861576474199,-28.20603980137128,1.4314069979606936,-27.740314731500145,1.4203487218050226,-27.2618136934328,1.4101135047300328,-26.770452189375508,1.4008065917002368,-26.26615911238101,1.3925356107814708,-25.748876480608626,1.385409886827332,-25.21855917158433,1.3795397551656134,-24.675174656460836,1.375035875284745,-24.11870273427771,1.3720085445202252,-23.549135266221445,1.370567011741062,-22.966475909885553,1.3708187910362084,-22.37073985353063,1.3728689754009988,-21.761953550344515,1.3768195504235865,-21.13875400882371,1.382391779337477,-20.49962108602033,1.3894261965160752,-19.84438280801157,1.3981846442290728,-19.172906014531787,1.4089066486702366,-18.48509648054205,1.42180873339927,-17.780898986507307,1.4370837720506113,-17.060297339365167,1.4549003854336475,-16.32331434617062,1.4754023881488187,-15.570011742400894,1.4987082898440836,-14.80049007690452,1.5249108562362255,-14.01488855547894,1.5540767350214728,-13.213384845060752,1.5862461517999036,-12.39619484051283,1.6214326811381152,-11.563572395992482,1.6596230978946314,-10.715809022884882,1.700777313932517,-9.853233556285872,1.7448284053436844,-8.976211792018475,1.791682735309356,-8.085146096167149,1.8412201777211663,-7.180474989114112,1.8932944466873673,-6.262672706061808,1.947733537048628,-5.332248736025818,2.004340281027884,-4.3897473412823125,2.062893026138728,-3.435747059254307,2.1231464394768014,-2.470860188820861,2.1848324435186774,-1.4957322630334429,2.2476612885526936,-0.5110415102236483,2.3113227668662244,0.48250169451354274,2.3754875738138517,1.4841553854768128,2.4398088208909257,2.493146568171566,2.5039237059369754,3.508671784794933,2.567455345593453,4.529897681408446,2.630014775140281,5.5559615748142175,2.691203120835685,6.5859720171504375,2.750613949883769,7.619009356222,2.8078358031543353,8.654126289582026,2.862454915779395,9.690348410380183,2.9140581307508646,10.726674742993493,2.9622360106439105,11.762078266455536,3.006586152590426,12.795506423699795,3.046716711627103,13.825881614632987,3.0822501375425904,14.852101671054193,3.112827130348195,15.873040311435542,3.138110819496613,16.8875475735803,3.1577911719731575,17.89445022317421,3.1715896343839693,18.892552136245804,3.1792640141656685,19.880634653551542,3.1806136050409353,20.85745690490163,3.175484561844488,21.821756101442222,3.163775529843936,22.772247793909916,3.1454435336799795,23.707626094874293,3.120510131050433,24.520313891402193,3.124215514138788,25.321467409727397,3.12498225561837,26.110139064217773,3.1228366498953424,26.88534694505932,3.11782158850433,27.646074262380544,3.109997229405231,28.391268790376753,3.0994416662800233,29.119842311434553,3.0862515978295733,29.830670060256114,3.0705429970704445,30.52259016798358,3.0524517806317046,31.19440310632346,3.0321344780517356,31.844871131670974,3.0097689010750415,32.47271772923442,2.9855548129490552,33.07662705715956,2.9597145977209496,33.65524339065398,2.932493929534443,34.20717056611147,2.9041624419266094" fill="white" stroke="white" stroke-width="0" stroke-linejoin="round" filter="url(#fuzzy)"></polyline></g><g transform="translate(32.424357115433935 -25.174294750431294)"><polyline id="rightUpper" points="-39.619601664172684,2.2867164934247874,-39.669550142519334,2.240086597221951,-39.68644244811739,2.193228147717453,-39.66953695731617,2.1456974685483963,-39.618194559709174,2.0970881497541036,-39.531875952650786,2.047030100726721,-39.41013893577288,1.9951886031618251,-39.25263570550155,1.9412633640090278,-39.05911014957367,1.8849875684225803,-38.82939514155368,1.82612693271198,-38.56340983535013,1.7644787572925744,-38.2611569597324,1.6998709796361662,-37.922720112847365,1.6321612272216188,-37.548261056736,1.561235870485462,-37.13801701185014,1.4870090757724972,-36.69229795156901,1.4094218582864007,-36.211483896716004,1.3284411350403307,-35.69602221007526,1.2440587778075318,-35.146424890908385,1.1562906660719408,-34.56326586947105,1.0651757399787902,-33.94717830152971,0.9707750532852157,-33.29885186287822,0.8731708263108597,-32.61903004385453,0.7724654988884763,-31.908507443857317,0.6687807833145374,-31.16812706586264,0.5622567172998378,-30.398777610940655,0.453050716920099,-29.6566158135932,0.35888780594997605,-28.863736846892294,0.25699857608810506,-28.021329229690906,0.14780104796580495,-27.13089184215149,0.031791877841450766,-26.194204101026344,-0.09046425202653774,-25.213297277871824,-0.218344713443114,-24.190426940745482,-0.3511784937685558,-23.128046499934406,-0.4882552498310959,-22.028781838263676,-0.6288338652523491,-20.895407006533553,-0.7721505221776908,-19.73082096463395,-0.9174262984037109,-18.53802534888503,-1.063874300894876,-17.320103246152456,-1.2107063466815426,-16.080198955286036,-1.3571392021314517,-14.82149871643039,-1.5024003915868431,-13.547212388756313,-1.6457335863593179,-12.260556057161516,-1.786403585074587,-10.964735548489434,-1.9237008963592506,-9.662930837814656,-2.0569459348617243,-8.358281325343798,-2.1854928415994697,-7.053871964480364,-2.308732939624637,-5.752720221602318,-2.426097836000286,-4.457763848101024,-2.537062181079292,-3.1718494452302095,-2.6411460960780873,-1.8977218023136255,-2.7379172799373834,-0.6380139888600773,-2.826992806461965,0.6047618188655255,-2.9080406227317597,1.8282227962664193,-2.9807807597762426,3.0301232332848933,-3.0449862665043868,4.2083616211711234,-3.100483877882214,5.360987082601385,-3.147154428350158,6.486205164596827,-3.1849330214723293,7.582383013694315,-3.2138089668098124,8.64805395282046,-3.233825495010167,9.681921479320431,-3.2450792621052407,10.682862703592633,-3.2477196540094178,11.649931247780755,-3.241947902210478,12.582359623974428,-3.2280160216451734,13.479561111369923,-3.2062255817516445,14.34113115184209,-3.176926321690853,15.166848283378956,-3.140514620729127,15.956674630830387,-3.097431834773968,16.710755973421932,-3.04816251005527,17.429421408485418,-2.993232484944054,18.113182630857516,-2.933206890900878,18.76273284739755,-2.8686880635460468,19.378945346076087,-2.800313374843767,19.962871739085344,-2.728752997392372,20.51573989942308,-2.6547076118127246,21.03895161040105,-2.578906068227029,21.532941976054595,-2.5008132567918504,21.997329620070417,-2.419616062071698,22.432450311835176,-2.3356465253638192,22.83867749580901,-2.2492361686284164,23.216419686436176,-2.1607145223277278,23.566117863055617,-2.0704076532650766,23.888242864811644,-1.9786366924239345,24.18329278556459,-1.8857163628069906,24.451790368801333,-1.7919535072752035,24.694280402546063,-1.6976456163868736,24.911327114270783,-1.6030793562366954,25.103511565806045,-1.5085290962948235,25.27142904825149,-1.4142554372459375,25.415686476886556,-1.320503738828298,25.536899786081037,-1.2275026476728104,25.635691324205766,-1.1354626251420918,25.712687248543197,-1.0445744751695236,25.768514920198093,-0.9550078720983222,25.803800299008103,-0.866909888520595,25.819165338454404,-0.7804035231164037,25.81522538057235,-0.6955862284928291,25.79258655086206,-0.612528439023027,25.751843153199125,-0.5312720986852977,25.693575064745126,-0.4518291889021433" fill="none" stroke="black" stroke-width="1.6666666666666665" stroke-linejoin="round" filter="url(#fuzzy)"></polyline><polyline id="rightLower" points="-38.42403082737115,2.6860257798110823,-38.16030894730096,2.7130500584350523,-37.840970393068574,2.7450253572369467,-37.46963941227897,2.7811944121803718,-37.0498016527337,2.8208401592810306,-36.584806659513994,2.863284880199332,-36.0778703720638,2.9078893478330015,-35.532077621272805,2.9540519719096903,-34.95038462655952,3.001207944579586,-34.335621492954296,3.048828386008023,-33.69049470818241,3.096419489968091,-33.017589639747115,3.143521669433247,-32.31937303201266,3.1897087021699226,-31.598195503287393,3.2345868763301375,-30.856294042906754,3.2777941360441063,-30.09579450831638,3.31899922701285,-29.31871412215512,3.3579008421008067,-28.526963969338098,3.394226766928439,-27.722351494139794,3.4277330254648475,-26.906582997277027,3.4582030256203775,-26.081266132992084,3.485446704839231,-25.247912406135733,3.5092996756920765,-24.40793966925026,3.5296223714686574,-23.56267461965256,3.546299191770405,-22.71335529651717,3.559237648103046,-21.861133577959308,3.5683675094692133,-20.790466382762986,3.617705086972774,-19.723913217951107,3.6585563211612673,-18.66309474534272,3.6908202200966103,-17.60941748218385,3.7144797141243937,-16.56409025522046,3.7295941288591266,-15.52813994199529,3.7362919712774856,-14.502426514034427,3.7347640229631667,-13.487657396589086,3.7252567345469583,-12.484401159598416,3.7080659153856486,-11.49310055453901,3.6835307125233747,-10.51408491182668,3.6520278729790174,-9.547581913436375,3.61396628340328,-8.593728755405749,3.5697817811490222,-7.65258271488815,3.5199322307985024,-6.724131136420707,3.464892860191103,-5.808300852073168,3.4051518499951814,-4.90496705014321,3.341206170867631,-4.013961607063867,3.273557662244786,-3.135080897188787,3.202709346808268,-2.268093095120987,3.1291619746693886,-1.4127449852507943,3.053410791315722,-0.5687682931686435,2.9759425233634547,0.2641144463815559,2.897232576159133,1.0861844703428218,2.8177424372744055,1.897721802313625,2.7379172799373834,2.699000686978743,2.6581837604442278,3.4902854293368932,2.578948003594568,4.271826624059376,2.5005937701943775,5.0438577603140775,2.4234808006699007,5.806592187389121,2.347943328836256,6.560220426450536,2.2742887598643193,7.304907813768203,2.2027965064895043,8.040792460744425,2.1337169775060434,8.76798351607945,2.0672707125903926,9.486559715408221,2.003647657497356,10.196568203742734,1.9430065736725586,10.898023616054223,1.8854745763248628,11.590907401329625,1.8311467950023554,12.275167375436515,1.7800861507155,12.950717488130886,1.7323232436510805,13.617437789542107,1.6878563455205433,14.275174581469328,1.6466514905863385,14.923740738823687,1.6086426594098924,15.562916186550622,1.5737320493648024,16.19244851736663,1.5417904259588786,16.81205373564468,1.5126575490086394,17.421417112782834,1.4861426677098701,18.020194139390092,1.4620250786478604,18.60801155962401,1.4400547407909305,19.184468473014334,1.4199529415108538,19.751414791430633,1.40187438184975,20.310834650831445,1.386108313825818,20.86250690656452,1.372552825301724,21.40620993810567,1.361101382526246,21.941723613212666,1.3516436278648831,22.46883125207924,1.3440661775304732,22.987321591489057,1.3382534193138016,23.496990748969715,1.3340883103142165,23.997644186946644,1.3314531746702407,24.489098676897186,1.3302305012901852,24.971184263504455,1.330303741582762,25.44374622881142,1.3315581071876967,25.906647056374766,1.3338813677063417,26.359768395418968,1.3371646484322897,26.8030130249902,1.3413032280819857,27.236306818110343,1.3461973365253397,27.659600705930927,1.3517529525163408,28.072872641887137,1.3578826014236696,28.476129565851764,1.3645061529613114,28.869409368289183,1.3715516189191685,29.25278285440934,1.3789559508936728,29.626355708321697,1.3866658380184012,29.99027045718924,1.3946385046946843,30.344708435382415,1.402842508322224" fill="none" stroke="black" stroke-width="2.2222222222222223" stroke-linejoin="round" filter="url(#fuzzy)"></polyline><!--[--><circle r="4.7789375394567815" cx="-26.717767385973364" cy="1.883963893443954" stroke="black" fill="none" stroke-width="1" filter="url(#fuzzy)" clip-path="url(#rightEyeClipPath)"></circle><circle r="3.7466731565984244" cx="-24.85671390872659" cy="-1.0012504990175175" stroke="black" fill="none" stroke-width="1" filter="url(#fuzzy)" clip-path="url(#rightEyeClipPath)"></circle><circle r="4.5302295405599775" cx="-23.695147065746887" cy="1.163363930236729" stroke="black" fill="none" stroke-width="1" filter="url(#fuzzy)" clip-path="url(#rightEyeClipPath)"></circle><circle r="4.346304965946722" cx="-26.131175863572597" cy="-0.029102557535437334" stroke="black" fill="none" stroke-width="1" filter="url(#fuzzy)" clip-path="url(#rightEyeClipPath)"></circle><circle r="4.240847192070932" cx="-23.328628851680982" cy="0.0348950785190949" stroke="black" fill="none" stroke-width="1" filter="url(#fuzzy)" clip-path="url(#rightEyeClipPath)"></circle><circle r="3.382368971329845" cx="-26.105031111257585" cy="0.6804751086221978" stroke="black" fill="none" stroke-width="1" filter="url(#fuzzy)" clip-path="url(#rightEyeClipPath)"></circle><circle r="4.110642622729648" cx="-23.421848575075366" cy="2.4496265050700865" stroke="black" fill="none" stroke-width="1" filter="url(#fuzzy)" clip-path="url(#rightEyeClipPath)"></circle><circle r="4.528274262027411" cx="-22.899453138211392" cy="1.560727879964146" stroke="black" fill="none" stroke-width="1" filter="url(#fuzzy)" clip-path="url(#rightEyeClipPath)"></circle><circle r="4.829539335117552" cx="-24.250920424723486" cy="0.4381921572716796" stroke="black" fill="none" stroke-width="1" filter="url(#fuzzy)" clip-path="url(#rightEyeClipPath)"></circle><circle r="3.940710358550876" cx="-26.840633307621886" cy="2.7906347468368615" stroke="black" fill="none" stroke-width="1" filter="url(#fuzzy)" clip-path="url(#rightEyeClipPath)"></circle><!--]--></g><g transform="translate(-29.70844595280321 -26.199611212473734)"><polyline id="leftUpper" points="37.82629511718981,2.499056376846633,37.92368403191532,2.452702891915251,37.99141398673359,2.406164652226489,38.028248647723224,2.359033322324469,38.03307824550085,2.3109350053735684,38.0049163859584,2.2615293665479905,37.94289686100039,2.210508756421334,37.84627045928114,2.1575973343561654,37.71440177694209,2.102550191893589,37.54676602834902,2.0451524761428175,37.34294585682938,1.9852185131707423,37.10262814540947,1.9225909313915053,36.825600827551774,1.8571397849560691,36.51174969789223,1.7887616771417878,36.16105522297743,1.7173788837419774,35.773589352001956,1.6429384764554866,35.3495123275456,1.5654114462762685,34.88906949631065,1.4847918268829488,34.39258811985915,1.4010958180283999,33.860474185350185,1.3143609089293093,33.29320921627712,1.224645001655751,32.69134708320486,1.132025534520757,32.05551081450717,1.0365986054698855,31.386389407103888,0.9384780954707941,30.684734637198186,0.837794791902811,29.951357871013887,0.7346955119465022,29.27474616534283,0.6450806380401262,28.541968758576143,0.5483882572015737,27.75404990121084,0.4450109120041157,26.91237211599285,0.3354137675868869,26.018642285388555,0.22012478192967233,25.07485906230244,0.09972536675568433,24.08328158091404,-0.025158471116914605,23.046399444507742,-0.15386451815401037,21.966903967168694,-0.28570228239429785,20.847660646218344,-0.41996047182705665,19.691682842262832,-0.5559140330382051,18.502106643727824,-0.6928307603038695,17.282166892752976,-0.829977485310732,16.03517434931957,-0.9666258576824096,14.764493970484628,-1.1020577264911076,13.473524281594903,-1.2355701329338107,12.165677816354151,-1.3664799243522552,10.844362602617105,-1.4941279997759427,9.51296467078344,-1.6178831971674406,8.174831561665224,-1.7371458325492282,6.833256810701187,-1.8513509011913345,5.491465385391191,-1.9599709510390269,4.15260005282433,-2.0625186385597973,2.8197086541740193,-2.158548977188899,1.4957322630334429,-2.247661288552694,0.18349420446481401,-2.3295008666490493,-1.1143100883642538,-2.4037603651640516,-2.395122403083778,-2.470180918104274,-3.656530285690558,-2.52855300392387,-4.896274809909938,-2.5787170633257186,-6.112257601476932,-2.6205638809159058,-7.3025471404631634,-2.6540347408907583,-8.465384364776423,-2.679121366935726,-9.599187597959208,-2.6958656565153087,-10.70255682441316,-2.7043592197333504,-11.774277335175707,-2.7047427329428815,-12.813322767375752,-2.697205117284812,-13.818857560494887,-2.6819825523347043,-14.790238852560826,-2.659357335036892,-15.727017839399583,-2.6296565941051884,-16.628940620073095,-2.5932508700694243,-17.495948551628878,-2.5505525711471058,-18.328178136288205,-2.5020143151193968,-19.125960464199704,-2.4481271673907243,-19.889820234884624,-2.389418785411219,-20.620474380500685,-2.326451479641268,-21.318830314050967,-2.2598202012374347,-21.985983825664473,-2.190150466638976,-22.62321665007499,-2.118096229234221,-23.231993728424932,-2.044337708286092,-23.812868773424327,-1.9683694551063788,-24.36556304221086,-1.8894258786343339,-24.89045885296841,-1.8078158534286843,-25.387976634612844,-1.7238478155490395,-25.85857182947797,-1.6378283992631517,-26.302731796001403,-1.5500610737541738,-26.720972711410557,-1.4608447798279336,-27.11383647440855,-1.3704725666201862,-27.48188760786013,-1.279230228303886,-27.825710161477627,-1.1873949407964455,-28.145904614506833,-1.0952338984670011,-28.44308477841299,-1.0030029508436735,-28.71787469956668,-0.9109452393208368,-28.970905561929758,-0.8192898338663741,-29.202812589741303,-0.7282503697289489,-29.414231950203547,-0.6380236841452627,-29.605797656167756,-0.5487884530473215,-29.778138468820227,-0.4607038277696991,-29.93187480036816,-0.37390807175679885,-30.06761561672562,-0.28851719727011726,-30.185955340199488,-0.20462360209551234,-30.28747075217529,-0.12229470625045913,-30.372717895803287,-0.041571588691318606,-30.44222897868426,0.037532375979398847" fill="none" stroke="black" stroke-width="2.2222222222222223" stroke-linejoin="round" filter="url(#fuzzy)"></polyline><polyline id="leftLower" points="37.92135602041487,2.6375427742907465,37.72240341377838,2.656402997816703,37.48045358564562,2.6783137492244347,37.197337660920375,2.7027289897188593,36.87484076693631,2.729133332866332,36.51470258933268,2.757041375297837,36.1186179279299,2.7859970274121832,35.68823725260515,2.8155728440791905,35.22516725916809,2.8453693553428843,34.730971425236405,2.875014397124687,34.20717056611147,2.9041624419266094,33.65524339065398,2.932493929534443,33.07662705715956,2.9597145977209496,32.47271772923442,2.9855548129490552,31.844871131670974,3.0097689010750415,31.19440310632346,3.0321344780517356,30.52259016798358,3.0524517806317046,29.830670060256114,3.0705429970704445,29.119842311434553,3.0862515978295733,28.391268790376753,3.0994416662800233,27.646074262380544,3.109997229405231,26.88534694505932,3.11782158850433,26.110139064217773,3.1228366498953424,25.321467409727397,3.12498225561837,24.520313891402193,3.124215514138788,23.707626094874293,3.120510131050433,22.772247793909916,3.1454435336799795,21.821756101442222,3.163775529843936,20.85745690490163,3.175484561844488,19.880634653551542,3.1806136050409353,18.892552136245804,3.1792640141656685,17.89445022317421,3.1715896343839693,16.8875475735803,3.1577911719731575,15.873040311435542,3.138110819496613,14.852101671054193,3.112827130348195,13.825881614632987,3.0822501375425904,12.795506423699795,3.046716711627103,11.762078266455536,3.006586152590426,10.726674742993493,2.9622360106439105,9.690348410380183,2.9140581307508646,8.654126289582026,2.862454915779395,7.619009356222,2.8078358031543353,6.5859720171504375,2.750613949883769,5.5559615748142175,2.691203120835685,4.529897681408446,2.630014775140281,3.508671784794933,2.567455345593453,2.493146568171566,2.5039237059369754,1.4841553854768128,2.4398088208909257,0.48250169451354274,2.3754875738138517,-0.5110415102236483,2.3113227668662244,-1.4957322630334429,2.2476612885526936,-2.470860188820861,2.1848324435186774,-3.435747059254307,2.1231464394768014,-4.3897473412823125,2.062893026138728,-5.332248736025818,2.004340281027884,-6.262672706061808,1.947733537048628,-7.180474989114112,1.8932944466873673,-8.085146096167149,1.8412201777211663,-8.976211792018475,1.791682735309356,-9.853233556285872,1.7448284053436844,-10.715809022884882,1.700777313932517,-11.563572395992482,1.6596230978946314,-12.39619484051283,1.6214326811381152,-13.213384845060752,1.5862461517999036,-14.01488855547894,1.5540767350214728,-14.80049007690452,1.5249108562362255,-15.570011742400894,1.4987082898440836,-16.32331434617062,1.4754023881488187,-17.060297339365167,1.4549003854336475,-17.780898986507307,1.4370837720506113,-18.48509648054205,1.42180873339927,-19.172906014531787,1.4089066486702366,-19.84438280801157,1.3981846442290728,-20.49962108602033,1.3894261965160752,-21.13875400882371,1.382391779337477,-21.761953550344515,1.3768195504235865,-22.37073985353063,1.3728689754009988,-22.966475909885553,1.3708187910362084,-23.549135266221445,1.370567011741062,-24.11870273427771,1.3720085445202252,-24.675174656460836,1.375035875284745,-25.21855917158433,1.3795397551656134,-25.748876480608626,1.385409886827332,-26.26615911238101,1.3925356107814708,-26.770452189375508,1.4008065917002368,-27.2618136934328,1.4101135047300328,-27.740314731500145,1.4203487218050226,-28.20603980137128,1.4314069979606936,-28.659087057426305,1.4431861576474199,-29.09956857637164,1.455587781044026,-29.527610622979918,1.4685178903713485,-29.943353915829878,1.4818876362057996,-30.34695389304628,1.4956139837929328,-30.738580978039845,1.5096203993610011,-31.118420845247098,1.5238375364345251,-31.486674685870373,1.5382039221478532,-31.843559473617628,1.552666643558724,-32.18930823044241,1.5671820339618334,-32.52417029228377,1.5817163592023924,-32.84841157480612,1.5962465039896943" fill="none" stroke="black" stroke-width="2.2222222222222223" stroke-linejoin="round" filter="url(#fuzzy)"></polyline><!--[--><circle r="3.456254684696554" cx="2.957016470615309" cy="-1.4239292420215581" stroke="black" fill="none" stroke-width="1" filter="url(#fuzzy)" clip-path="url(#leftEyeClipPath)"></circle><circle r="4.980827811922896" cx="1.0943592356197573" cy="2.5293809230440347" stroke="black" fill="none" stroke-width="1" filter="url(#fuzzy)" clip-path="url(#leftEyeClipPath)"></circle><circle r="3.0096587475180847" cx="0.7656684021152231" cy="0.6940633108236307" stroke="black" fill="none" stroke-width="1" filter="url(#fuzzy)" clip-path="url(#leftEyeClipPath)"></circle><circle r="4.461275864327704" cx="0.41547230272006885" cy="1.0487941610957279" stroke="black" fill="none" stroke-width="1" filter="url(#fuzzy)" clip-path="url(#leftEyeClipPath)"></circle><circle r="4.899282466007679" cx="3.9305770263414725" cy="2.7112071953496306" stroke="black" fill="none" stroke-width="1" filter="url(#fuzzy)" clip-path="url(#leftEyeClipPath)"></circle><circle r="3.602768724034581" cx="1.4547872533823902" cy="-0.920936029658681" stroke="black" fill="none" stroke-width="1" filter="url(#fuzzy)" clip-path="url(#leftEyeClipPath)"></circle><circle r="3.673771227048224" cx="1.3546007091251981" cy="-0.7149350462276296" stroke="black" fill="none" stroke-width="1" filter="url(#fuzzy)" clip-path="url(#leftEyeClipPath)"></circle><circle r="3.4935104187971078" cx="1.1146972225351952" cy="0.46509964710460006" stroke="black" fill="none" stroke-width="1" filter="url(#fuzzy)" clip-path="url(#leftEyeClipPath)"></circle><circle r="4.60540774337396" cx="2.5941637372120443" cy="1.7307051011203827" stroke="black" fill="none" stroke-width="1" filter="url(#fuzzy)" clip-path="url(#leftEyeClipPath)"></circle><circle r="3.0885227098626764" cx="3.917062130433475" cy="1.9861406942566848" stroke="black" fill="none" stroke-width="1" filter="url(#fuzzy)" clip-path="url(#leftEyeClipPath)"></circle><!--]--></g><g id="hairs"><!--[--><polyline points="26,-94,27.46971062577504,-93.65324449130229,28.75593864927856,-92.99592738090813,30.274291913754332,-92.21555038217323,32.11608732590685,-91.3159374523675,34.24909849488326,-90.2929798269666,36.57228035478281,-89.16787759038688,38.95465217721269,-87.97930327611074,41.287864685058594,-86.76995849609375,43.51989084957432,-85.57808588777087,45.63868806924955,-84.43852289301697,47.6187036711974,-83.39037484418076,49.38075793971075,-82.48048537375871,50.80647845601776,-81.75537165367389,51.79285022204826,-81.24948454639575,52.26697786651558,-80.98555852931861" fill="none" stroke="rgb(165, 42, 42)" stroke-width="2" stroke-linejoin="round" filter="url(#fuzzy)"></polyline><polyline points="-47,-80,-45.02144260101684,-80.98831439891042,-43.02695520071848,-82.03447714326525,-41.18119161029421,-83.06153693482665,-39.47601016005501,-84.01601468451554,-37.862840098637896,-84.88139475824843,-36.31812186629021,-85.67079589998414,-34.83046133381725,-86.41817269976627,-33.38447570800781,-87.15947723388672,-31.980029342093776,-87.90168128100895,-30.66824056865734,-88.60128745099857,-29.563804362283726,-89.17674921994401,-28.813205029815435,-89.55113224236993,-28.53239577155466,-89.68964152473441,-28.74820096802138,-89.59938969001982,-29.36639263466032,-89.31240423363244" fill="none" stroke="rgb(165, 42, 42)" stroke-width="2" stroke-linejoin="round" filter="url(#fuzzy)"></polyline><polyline points="-19,-93,-16.319986310994317,-93.58155071769112,-15.135267693016733,-93.70199709686302,-14.814362329468318,-93.58492635550797,-14.972835054737516,-93.32841482909862,-15.440945861631647,-92.94365583102461,-16.213664557054656,-92.38826793403294,-17.364240518634567,-91.61282833379676,-18.975860595703125,-90.59762573242188,-21.11366441299082,-89.35543542270022,-23.828143452058395,-87.89950084086887,-27.176483498889482,-86.2007193971082,-31.254081364604644,-84.16637699247804,-36.21738663658463,-81.66148583761155,-42.2444957225522,-78.58497823200241,-49.35040613391219,-75.06087539412012" fill="none" stroke="rgb(165, 42, 42)" stroke-width="2" stroke-linejoin="round" filter="url(#fuzzy)"></polyline><polyline points="14,-96,14.727060426790015,-95.93826900097658,15.465051771115775,-95.71983613529318,16.23542405452924,-95.45847480861335,16.822318188733377,-95.23657068708695,17.10598944342359,-95.05167369194051,17.06139218515067,-94.87102211585474,16.633141132965164,-94.67854682314967,15.667408537914113,-94.48482810900896,13.960504573971662,-94.31229773202062,11.36520800271872,-94.17590008772098,7.8545923772536606,-94.07036053941675,3.4941111487561676,-93.9711385772753,-1.621729331683972,-93.86619267155926,-7.320080661361141,-93.82719824872785" fill="none" stroke="rgb(165, 42, 42)" stroke-width="2" stroke-linejoin="round" filter="url(#fuzzy)"></polyline><polyline points="51,-82,51.962202182106225,-81.36028582632953,52.16180700055697,-80.939966434135,52.09367519691704,-80.55214800057789,51.670011694775894,-80.22009600931779,50.68259959954786,-80.00532767477551,48.96007432581434,-79.9554745326059,46.42413626325612,-80.10212112811172,43.07933044433594,-80.4764404296875,38.9525767799251,-81.12123970578548,34.031310331929205,-82.08231651962998,28.255203128061034,-83.37723202550654,21.5681722399313,-84.96627322630957,13.972644335053847,-86.76906935424633,5.5278712195943775,-88.75521368671039,-3.6415610801632843,-91.07075906044349" fill="none" stroke="rgb(165, 42, 42)" stroke-width="2" stroke-linejoin="round" filter="url(#fuzzy)"></polyline><polyline points="26,-94,27.344513329537968,-93.74562118218782,28.234900748089544,-93.36934832949866,29.124260159431525,-93.02094467151707,30.12054818005497,-92.67895050967785,31.18986137168526,-92.33317813814409,32.23006280090263,-91.99703083348483,33.12942592232179,-91.68501877027788,33.810303013454146,-91.40167147342018,34.24150766810233,-91.14603657455059,34.423530618807305,-90.92100445894599,34.36523820923052,-90.7371847875956,34.06756442785263,-90.60872626304626,33.517583992979525,-90.54580441082807,32.688134946856785,-90.55083270476273,31.539343722210056,-90.62212287654565,30.02442440929497,-90.762281231049,28.10378179729639,-90.98359458285475,25.763712278230916,-91.30392459602403,23.023488718733486,-91.73592723248788,19.90929814493207,-92.28326326136612,16.38722870257449,-92.9548445989168,12.2920355320084,-93.78270464968884,7.396714938134091,-94.80422883421782" fill="none" stroke="rgb(165, 42, 42)" stroke-width="2" stroke-linejoin="round" filter="url(#fuzzy)"></polyline><polyline points="-30,-89,-29.494205925471046,-89.24810142245857,-28.605940762527027,-89.65976183766675,-27.727037441140347,-90.04073335400044,-27.00931672669494,-90.32571007918854,-26.512164770924148,-90.4786003793414,-26.243408679233134,-90.48255599794585,-26.203300979516456,-90.33438507807216,-26.42743010642019,-90.02704811115437,-27.02287119439626,-89.52685800243202,-28.18510181065824,-88.76266856655585,-30.170490951517543,-87.6431708440021,-33.20580681560229,-86.0994881869906,-37.35402710593518,-84.12143262212751,-42.41559194227112,-81.74600071688032" fill="none" stroke="rgb(165, 42, 42)" stroke-width="2" stroke-linejoin="round" filter="url(#fuzzy)"></polyline><polyline points="-30,-89,-28.37427829336855,-89.67979619308704,-26.665211650906404,-90.15300582835675,-24.674955384809536,-90.57609714312761,-22.38495207219292,-90.96128465034516,-19.76318569881687,-91.31033413701039,-16.791728087807368,-91.6389784811692,-13.50580412496844,-91.9630411126845,-10.009340536940364,-92.2802023689561,-6.451453298056365,-92.56922056636593,-2.973484992980957,-92.80733633041382,0.3412992463247857,-92.9898832568353,3.4856092296113346,-93.1352665495313,6.507490049600996,-93.27129906265361,9.469132388680578,-93.41450314331996,12.409675070484354,-93.56088719407512,15.322687802558304,-93.69847716706894,18.138082507519638,-93.8298385578185,20.69418225854496,-93.96826166904894,22.726781097338332,-94.07399158531044" fill="none" stroke="rgb(165, 42, 42)" stroke-width="2" stroke-linejoin="round" filter="url(#fuzzy)"></polyline><polyline points="-9,-95,-6.374002933544656,-94.937274325797,-4.355762484625872,-94.78902470445477,-1.8623228974857726,-94.45280089814702,1.2221529133575042,-93.86110113536951,4.7100994541754595,-93.01963628253763,8.41452928074337,-91.96377967399874,12.234034957665234,-90.7290586824507,16.136334332966594,-89.34399244483919,20.129739964569993,-87.83165002700783,24.24718286914229,-86.21007794414567,28.52829478857045,-84.49232686646965,32.98910885100976,-82.69230622333842,37.591625089792366,-80.83700865634452,42.23938822698514,-78.97278049263252,46.81640826904298,-77.15022422118395,51.24717140556122,-75.3989096874873,55.48789319303104,-73.75389418098511,59.32267005267855,-72.41211019844316" fill="none" stroke="rgb(165, 42, 42)" stroke-width="2" stroke-linejoin="round" filter="url(#fuzzy)"></polyline><polyline points="-45,-81,-43.14722329672688,-81.97304858240217,-41.54856858954436,-82.92503102406765,-40.10565538793898,-83.78735584825327,-38.66176727661926,-84.56825451907342,-37.156187791513865,-85.30588053450812,-35.59366867169919,-86.04294709171668,-34.00310330676772,-86.80787143215235,-32.428309152786674,-87.59581675643683,-30.93636930613872,-88.36352180583118,-29.618721884774413,-89.04539044290146,-28.574033666757767,-89.5804708181989,-27.88143159938278,-89.93207905564381,-27.583871596142828,-90.08944290269044,-27.69407421226068,-90.05483536043315,-28.2108469635068,-89.82967783368287,-29.0979673856475,-89.42462324283647" fill="none" stroke="rgb(165, 42, 42)" stroke-width="2" stroke-linejoin="round" filter="url(#fuzzy)"></polyline><polyline points="76,-47,10.157501146823941,-69.82453912401454,5.607445699910783,-80.38412458187385,9.917482438125864,-81.91020184794202,10.92489876289908,-78.94383029771288,12.588289971703489,-74.57999852704344,18.96721755458035,-70.66684495552347,29.28192622406969,-68.11989596621925,39.7841022862361,-67.10852937213397,46.785826927797636,-67.38431396869171,48.16616922831007,-68.57725815704515,43.39936089515686,-70.23359107971191,33.04537036311037,-71.74128828241912,18.390665962040185,-72.47555801205563,1.4310574051454992,-72.21595389129014,-15.054116301176487,-71.46187228970439,-27.899243117434892,-71.21002080792294,-34.77812537605109,-72.20738880357835,-35.527860890192876,-74.29970450806562,-31.73532482746689,-76.65578937239606,-24.555486057572512,-78.79915006098415,-18.93811733530097,-80.18483071110929,-55,-74" fill="none" stroke="rgb(165, 42, 42)" stroke-width="2" stroke-linejoin="round" filter="url(#fuzzy)"></polyline><polyline points="74,-52,50.08928871770041,-68.726561343189,29.61306094721875,-78.42021767274673,19.91381553572122,-80.67896427176787,12.392662609069982,-80.28513207369672,4.4878357780044675,-79.78892310797254,-1.1066386951435918,-79.36508253606013,-1.5531094169282986,-78.5262453432436,3.403415108574876,-76.99628169963522,11.268561541000246,-74.84279805911164,18.368805925803315,-72.56234495623163,22.350417243206206,-71.09383995977724,23.87682444582279,-71.26067915878743,25.49461063892409,-72.72645370653203,28.04267128511562,-73.5899451278205,28.535454008990055,-71.89103701783566,19.8803932280493,-69.97664544382742,-32,-88" fill="none" stroke="rgb(165, 42, 42)" stroke-width="2" stroke-linejoin="round" filter="url(#fuzzy)"></polyline><polyline points="7,-96,-23.916542808387664,-86.02754709742948,-22.98181543602317,-87.47832531268493,-17.746006171681746,-88.95681963969677,-17.601428749644374,-87.88027029588284,-21.95453163828026,-85.20293253210733,-26.75151841888671,-82.59400175644777,-28.90792085415018,-80.97373093612032,-27.71148223893137,-80.35389701074551,-24.40110051470514,-80.32197888786555,-21.275745280897244,-80.44750279886884,-20.692204300129568,-80.3834969067476,-23.957195674143563,-79.82900412780539,-30.603658475055422,-78.5469606177013,-38.72232735945418,-76.48399547501275,-46.14154562540337,-73.97193721866412,-51.06683914462403,-72.05445174251844,-50.97876796971179,-72.91402508545133,-40.90085837939791,-79.65407874088424,-14,-94" fill="none" stroke="rgb(165, 42, 42)" stroke-width="2" stroke-linejoin="round" filter="url(#fuzzy)"></polyline><polyline points="2,-96,26.03504435738334,-79.5347754563628,22.814022805618443,-80.61149802723284,17.54031548209223,-83.94609566864769,10.772121269721538,-86.45796859776601,3.7450855785321977,-88.10020930103195,-1.2510006188378426,-89.19650467277106,-2.829283598970422,-89.82911885300896,-1.374237060546875,-89.91879272460938,0.7982201899289177,-89.47762200722816,0.3929978060730903,-88.74977924622644,-4.4617818143324435,-88.15630267122283,-11.724039505701512,-88.17626652633771,-15.815174523590564,-89.25154678870109,-13.051652710814487,-91.3706769130309,-10.158540838810712,-92.87824044667289,-28,-90" fill="none" stroke="rgb(165, 42, 42)" stroke-width="2" stroke-linejoin="round" filter="url(#fuzzy)"></polyline><polyline points="-43,-82,7.7578798853147815,-84.7936977182244,14.880329106857728,-84.25756154029605,10.341185856765962,-81.10185776988166,4.772624356213559,-77.59882476654253,3.0249494961532624,-74.85604102110361,7.179681237467139,-73.311502565376,14.829428071668683,-73.44729411182756,21.03341497412325,-75.52700873178779,22.75975305209446,-78.9476986003456,20.78465621109678,-82.23154976194354,17.59022439709461,-83.85695389150094,15.448066842984444,-83.03292089466879,19.410228297633008,-79.521949639418,39.941026914234094,-73.06133579683403,69,-63" fill="none" stroke="rgb(165, 42, 42)" stroke-width="2" stroke-linejoin="round" filter="url(#fuzzy)"></polyline><polyline points="-43,-82,-20.38417453921276,-88.30850198579836,-15.958496448089202,-84.85019910633396,-9.162424467353807,-78.74681495414927,0.692387496632863,-74.07510225850434,10.24177052130608,-72.1445019788952,15.920146620215771,-72.6032260476446,15.974915089378186,-74.42576842220535,11.878525869208543,-76.6187610752682,7.522711055867805,-78.59366663079544,6.590174247585556,-80.17134976747113,10.175931215286255,-81.34490036964417,16.340505129585296,-82.03090420630706,21.66494901829368,-81.96116482426345,23.494836541075045,-80.73808260417415,21.27127284779157,-78.04768157476815,16.147323506577237,-74.02622744873509,9.363998642835897,-69.61945109333064,0.7798738620116998,-66.51539124453066,-11.085398071213863,-66.3623338612854,-26.81973149896493,-69.82230600032528,-41.65140053574672,-76.13880597704332,-48,-79" fill="none" stroke="rgb(165, 42, 42)" stroke-width="2" stroke-linejoin="round" filter="url(#fuzzy)"></polyline><polyline points="-54,-75,-34.22969163853303,-78.13431157499146,-12.52189892752926,-76.32996247053933,4.531437076329457,-71.2491679089464,15.511504093841394,-67.20367774557324,19.458541306373263,-65.6772187462484,18.237640046239346,-66.36360288710915,15.072965567590577,-68.46473388088137,12.602958956131168,-71.07842213991354,11.966924307519234,-73.32302749539805,12.884671211242676,-74.54959869384766,14.36854959977728,-74.54513699495932,15.577654607460873,-73.5717423694746,16.402981255041055,-72.19228781494725,17.616396909007772,-70.97014240985158,20.351856224163384,-70.2778447207238,24.560162067632803,-70.37400344340978,27.21659193638963,-71.36989491195456,23.003301817855167,-72.33871403048313,5.465597088380235,-70.63800973656814,-60,-69" fill="none" stroke="rgb(165, 42, 42)" stroke-width="2" stroke-linejoin="round" filter="url(#fuzzy)"></polyline><polyline points="62,-72,34.64309983754586,-83.73808264715859,29.65928661279259,-82.40803371867182,21.178522010159117,-77.71054819916125,11.624670749872251,-72.82872147719868,6.875458944484174,-69.49926248258747,8.210931974251999,-68.80509881731626,13.459639753567927,-70.6754429833692,19.558157156899632,-74.05984510539575,24.049697110462574,-77.63965858948033,25.555274201045563,-80.4612681232894,23.68306303024292,-82.21675992012024,18.812241754372465,-83.19769105233885,12.0240976714835,-84.00892391462942,5.051088890702882,-85.13905464620305,-0.21846090313980956,-86.58250907253883,-2.8861520140535064,-87.79703570943023,-4.177061129046449,-88.14848343054163,-7.146894127850151,-87.60450737713609,-13.893001918849219,-87.07703992513576,-21.28335376444022,-87.92013085794623,-20.12831894014975,-90.82488419116251,-5,-95" fill="none" stroke="rgb(165, 42, 42)" stroke-width="2" stroke-linejoin="round" filter="url(#fuzzy)"></polyline><polyline points="6,-96,42.779561002113645,-69.50458031629633,38.652389595905525,-69.96092636209113,28.371777772071326,-74.81130715598688,22.489946661783762,-77.7717043671527,18.608204605006037,-79.49594829658456,14.054585977289637,-81.45663238194275,9.195190198862411,-84.00199889563169,5.541537299178245,-86.60526304475948,3.709083667008603,-88.59285218962597,3.0554351491761866,-89.62500580011742,2.5009396713444194,-89.8210445908572,1.4511904692378612,-89.6283397763438,0.1417296997762831,-89.56318321793957,-0.6720028812896163,-89.95281069178466,-0.3518517193767924,-90.79388090595354,1.085645103802885,-91.77910084065736,2.823299612567705,-92.44042735566434,3.5685344787941413,-92.28488950696148,2.2364690431978347,-90.83218678384068,-1.3382791548966726,-87.63547585165676,-5.8719302897359285,-82.73149685799329,-5.1341063614094224,-78.82419429994061,39,-89" fill="none" stroke="rgb(165, 42, 42)" stroke-width="2" stroke-linejoin="round" filter="url(#fuzzy)"></polyline><polyline points="-30,-89,20.63289318836075,-83.51693042928636,32.717121868681666,-77.98518301410813,22.958509620913976,-76.0081031564351,9.185916003329206,-76.91543200150154,0.21575232422840981,-79.12327498613337,-3.3085776800642037,-81.2611959431581,-3.692989036458808,-82.55993785437744,-2.9496893869209218,-82.8933226251993,-2.1997229893809322,-82.52296528342914,-2.1236489332150095,-81.74215208271373,-3.21654891210933,-80.66469189108487,-5.60636305809021,-79.25913137197495,-8.84727289034075,-77.55189549747165,-12.105687997152963,-75.83175886171084,-14.667441812799003,-74.68712766741525,-16.24373873200274,-74.77708977081356,-16.697830860519698,-76.38137872401839,-15.54134997117329,-78.96336076362138,-12.059816332179182,-81.0930830931493,-6.313827038389441,-80.97974799623219,0.20946393239177707,-77.58145371846786,5.589308759906412,-72.06978955730852,5.585689459108355,-69.82247401471344,-39,-85" fill="none" stroke="rgb(165, 42, 42)" stroke-width="2" stroke-linejoin="round" filter="url(#fuzzy)"></polyline><polyline points="80,-34,43.992007177240005,-55.020438737977194,10.249449164107443,-70.15556675844083,-6.932461390033979,-79.72782126414327,-13.817429932359513,-84.6392693305933,-14.628978537746661,-86.87791044000278,-11.697802885800249,-87.81717615203972,-7.436715321686806,-87.7298586543283,-4.6558485915015035,-86.32867026085574,-5.456965294079312,-83.54477524916612,-9.847238540649414,-79.96315097808838,-15.49444418231189,-76.6855218542715,-19.253852362118476,-74.79230380787727,-19.50166737011139,-74.84732187666431,-17.292821469591626,-76.79190366609855,-15.120621964511884,-80.14270489708088,-14.19236404106069,-84.09832308592783,-12.501661052095617,-87.4697999526155,-4.724995527127931,-88.99108844569724,16.536835941595193,-87.91627247445902,52,-81" fill="none" stroke="rgb(165, 42, 42)" stroke-width="2" stroke-linejoin="round" filter="url(#fuzzy)"></polyline><polyline points="-41,-83,-10.44276410173646,-83.0615950030211,3.506395150349489,-78.45157270293407,16.576615765924682,-75.60952276248456,22.034775663582966,-74.11254105948034,20.55469539421411,-73.29895536559263,17.80954846887101,-73.09929613999064,17.914761643311465,-73.69750373209204,20.9679710889955,-75.14060875076957,24.393323463430924,-77.17805504727414,25.419653955941723,-79.37999831427227,22.76743219272107,-81.37199506816994,16.98080152273178,-82.97640401124954,9.745240844506938,-84.18802023425353,2.9111529067012003,-85.05789345166959,-2.1071502483980593,-85.58174428801287,-4.332385445087169,-85.61734878897744,-2.9751834814142044,-84.81353920593908,2.53832665693454,-82.59984197382197,12.182940288446579,-78.3954599309609,24.929566187111426,-72.15807367829201,37.99932680600235,-65.03795053459999,44.181129443141856,-59.4383149989703,26.366555744852636,-58.7855097027273,-52,-76" fill="none" stroke="rgb(165, 42, 42)" stroke-width="2" stroke-linejoin="round" filter="url(#fuzzy)"></polyline><polyline points="-51,-77,8.938100729840157,-78.52982511217606,9.594838454759671,-80.16061186885908,-2.0481670407895995,-78.02343520091428,-4.6497463225079585,-72.93315697908396,3.724304798732909,-67.7665839143212,16.66749719958562,-64.7882596995945,27.749334091457676,-64.25511973823126,33.57341650608809,-65.02470388136439,33.443200933356486,-65.9954792227463,28.384179627217748,-66.91555988806617,20.56846600942185,-68.12069301994065,12.652360796928406,-69.78428173065186,6.582178255411598,-71.50076301768614,2.4319138388991477,-72.55942824562838,-1.6180307172574735,-72.62155061186998,-7.724150985907089,-72.17136592564658,-16.19210352529459,-72.2720694168041,-24.438901516479923,-73.70344262354809,-28.249175730675947,-76.11048980681075,-24.685426475210246,-77.89473680650069,-14.57811456073463,-77.04165404420306,-2.3079146582706436,-72.29452629527844,12.19965633507285,-63.772048141802244,74,-52" fill="none" stroke="rgb(165, 42, 42)" stroke-width="2" stroke-linejoin="round" filter="url(#fuzzy)"></polyline><polyline points="-13,-94,10.24704666011859,-89.9428372471234,25.614805179980277,-83.46853767985279,24.333141338853068,-81.3504386509522,16.67962597868066,-81.9043314960481,13.143076442827805,-81.62700608585783,17.023021633223696,-78.84067804868738,24.97714385619917,-74.13949250501969,31.12604134392064,-69.3571080711561,31.392476009419774,-66.2402478604553,25.752721786499023,-65.50340938568115,17.44282021379749,-66.62838538798312,9.985407572739557,-68.4374536664944,4.458386948167312,-70.05245418392389,-0.5245601666951473,-71.54076480308457,-5.801736371149673,-73.6734289651422,-8.578755888636815,-76.95614817716321,-3.7672319658853186,-81.02926758627135,8.597212436300836,-85.46702648379775,15.06453166744819,-90.72902692933468,-5,-95" fill="none" stroke="rgb(165, 42, 42)" stroke-width="2" stroke-linejoin="round" filter="url(#fuzzy)"></polyline><polyline points="-13,-94,-23.906114153599642,-86.34682721550462,-5.920529527360842,-84.33898182394552,13.378910453306696,-81.13391610807156,24.48303151839575,-78.62713114741167,28.146636795422715,-78.00023913751171,28.647890987142862,-78.78422134859093,29.527474900001803,-79.9308251679469,31.997190201521136,-80.58257812091513,35.34858241219906,-80.31020563289584,38.23410142534527,-79.01496340181022,39.76258739614145,-76.73978119660684,39.8880096077919,-73.60298681259155,39.14232921107899,-69.92015121537943,38.02471479360992,-66.37625966316118,36.36123831379025,-64.01124946589968,32.965840508417756,-63.87364501319996,26.02241023107192,-66.43165179330528,14.423330185847565,-71.08966606554682,-0.48402545441039563,-76.29168299407571,-14.266657492420274,-80.48249898096334,-21.44964222818406,-83.41422880157909,-20.465261736781375,-86.08157458049399,-20.727481533426772,-87.17157930736228,-50,-78" fill="none" stroke="rgb(165, 42, 42)" stroke-width="2" stroke-linejoin="round" filter="url(#fuzzy)"></polyline><polyline points="79,-38,59.88570330733645,-63.11660167327162,47.627476695964965,-68.56627044281514,41.084702193831504,-67.19735283004007,41.17280400888874,-65.03828807074626,46.402314247379714,-63.394327841684564,52.40236922783697,-62.91281517548161,55.24696987434564,-64.24211881136803,53.6435682053889,-67.2546494726703,48.70134114065495,-70.89046470639865,42.28242643335661,-74.00341363640351,35.345310475101336,-76.22978889257226,27.148210717965455,-77.84823385220875,15.60362604936409,-78.77939850183807,-0.5991927504560044,-78.10240075217438,-16.331171849931383,-75.30936166909726,-10.319206978636462,-72.59147916365113,59,-74" fill="none" stroke="rgb(165, 42, 42)" stroke-width="2" stroke-linejoin="round" filter="url(#fuzzy)"></polyline><polyline points="54,-80,57.55661503539617,-71.68348369922298,48.085263794622406,-71.03251911995488,31.59120476709667,-75.07972319251952,17.713207909889494,-77.03844755673643,10.940787597992767,-76.00014988547804,11.420177421230825,-74.10554365130653,17.106641017395866,-73.21513926698046,24.83996060536625,-73.79699902076517,30.9420166015625,-75.36509704589844,32.26293463197711,-77.20364368423392,27.587395842361367,-78.7051156713414,18.575302964939485,-79.39983533498663,9.51813204587826,-79.02310314599104,5.879987724707167,-77.68125848429962,12.256117433956742,-75.76902209757547,30.108428205929705,-73.08342656799759,54.541830897389794,-66.22174420103848,77,-43" fill="none" stroke="rgb(165, 42, 42)" stroke-width="2" stroke-linejoin="round" filter="url(#fuzzy)"></polyline><polyline points="74,-53,31.504104854281028,-66.4860639245651,0.08143306748290209,-68.17734355863945,-4.730613201422479,-66.47717348547671,-0.2657781727500651,-63.292048445493585,1.8213340462574161,-60.56941773857749,1.3062556069408058,-59.91701155227241,1.0393590419206797,-61.76331170330648,0.7887162864082069,-65.442456870081,-2.0825767517089844,-69.79444122314453,-8.97532207408792,-73.77002677377136,-18.366773999802735,-76.7733210877431,-27.25122295222749,-78.68453147556686,-33.432189616106896,-79.6763517363437,-36.31479127101488,-80.01490045653557,-36.25706448580412,-79.99148647163481,-34.20406657111418,-80.02407827091268,-33.90327776574969,-80.01277659043818,-58,-71" fill="none" stroke="rgb(165, 42, 42)" stroke-width="2" stroke-linejoin="round" filter="url(#fuzzy)"></polyline><polyline points="28,-94,59.33311476544651,-62.38722426090309,66.2130476447941,-55.48724771217072,57.052064769185385,-60.759075444309424,36.93793838727288,-68.60760894184932,11.872333127432833,-73.9813662137018,-11.297819504786123,-76.09497015330858,-26.891814942813355,-76.26999631519733,-31.887527465820312,-75.82064819335938,-26.231990230561234,-75.26525783643184,-12.852168729748275,-74.78353193719292,2.1999672673347663,-74.97814859697658,10.904239932773635,-76.95789003139362,7.90642029487337,-81.29619072100317,-2.030187562535577,-86.46261052591578,0.06505337848983928,-89.03199530527931,41,-88" fill="none" stroke="rgb(165, 42, 42)" stroke-width="2" stroke-linejoin="round" filter="url(#fuzzy)"></polyline><polyline points="77,-45,67.5888738259934,-56.85884680723184,56.37829313015154,-58.50615064361467,39.357512553074976,-64.14999715853456,26.606902187738964,-72.0294716724955,23.015969807146572,-78.6299266772677,26.63841423693049,-82.28032932023214,32.77091448754212,-83.18926850456954,37.210196654513396,-82.44695526413105,37.69465126150734,-81.13536393569305,34.26603401515944,-79.91900147416604,28.971627839221025,-79.02543280895561,24.79963234770594,-78.41682204213959,23.927116973554092,-78.0273160265729,26.150911325685183,-77.94883079542225,28.83589155699486,-78.38383446039948,28.933567509799634,-79.30228374806235,25.77395784707343,-80.17638996604447,21.975392869430696,-80.50337013147879,20.829221505626503,-81.15820317112576,23.565908947040565,-84.28127755043464,47,-85" fill="none" stroke="rgb(165, 42, 42)" stroke-width="2" stroke-linejoin="round" filter="url(#fuzzy)"></polyline><polyline points="-12,-94,-34.509926046419,-80.72154311562585,-24.08044896041772,-77.45787136281241,-1.251128378126445,-78.58819017183089,17.980751395034023,-80.436915158223,28.500536457517228,-81.64432992012189,30.82033710150347,-81.97520625785482,26.836935614109574,-81.705562510532,18.648803544272237,-81.16735213134281,8.797688580679248,-80.43259752697776,0.3229198455810547,-79.25582313537598,-3.9501617552934127,-77.31752080026861,-2.622144283041563,-74.6559121558148,3.204624026036238,-71.95324946938945,9.684716224298871,-70.29385655626803,11.476152108369206,-70.43523870274839,4.745173902876235,-72.32335031147088,-9.167572960121033,-75.58056582178718,-22.77249574249636,-80.23097935921353,-27.43060579099188,-85.85860412679756,-14,-94" fill="none" stroke="rgb(165, 42, 42)" stroke-width="2" stroke-linejoin="round" filter="url(#fuzzy)"></polyline><polyline points="30,-93,18.07200428733641,-89.45723370103873,4.001779908706437,-84.55667934088959,4.228398645733539,-78.08433882201516,7.234509971736275,-72.6418470446682,3.5908830635411415,-70.34462667585406,-6.211110796997271,-71.15367793696016,-16.15768724446865,-73.58717526481787,-20.8243636637997,-75.98650140581019,-18.798989510704356,-77.16778902581713,-12.949513745269643,-76.61932944882211,-8.246115278851262,-74.68138474452859,-8.258291672603567,-72.6028291773657,-12.177526262699672,-72.03175014441285,-14.637258745533543,-73.89410089158979,-9.37133231312812,-77.3464029569387,5.402615440988865,-79.77168528873139,24.707517807149124,-78.54687678561689,39.24416100533733,-76.04103889012418,26,-94" fill="none" stroke="rgb(165, 42, 42)" stroke-width="2" stroke-linejoin="round" filter="url(#fuzzy)"></polyline><polyline points="79,-37,10.623549083842159,-68.25687317439672,-20.14055758392793,-73.57999592392399,-24.264343450091538,-72.29306441059538,-15.971411620923496,-69.45534336731589,-6.200063321896229,-67.2724219342979,-1.6186911898009568,-67.47895131514468,-3.7391694453499933,-70.60886435898372,-8.904465295275047,-75.83382756119097,-11.165760876707838,-81.57851306957211,-6.642076570710232,-86.10151609457083,3.8969715551452406,-87.96897059436462,15.510648983224325,-86.97064006382388,21.2840261877349,-85.47597149499327,17.481597582790087,-88.24250820720016,26,-94" fill="none" stroke="rgb(165, 42, 42)" stroke-width="2" stroke-linejoin="round" filter="url(#fuzzy)"></polyline><polyline points="-48,-79,4.513817814383697,-78.8354286917052,24.12370473992446,-75.98932681733812,26.785009932993987,-76.89670716102798,25.117742101919603,-78.74933907330286,21.421148966914693,-80.71570856152243,14.783448555343343,-82.34398025142211,5.633520798689553,-82.84848578991694,-3.5788123116436306,-81.80054447156795,-9.731540446011818,-79.66988232196206,-10.84808317305071,-77.62765789224906,-7.2345914374031794,-76.85878655655647,-1.3036252258071837,-77.87181797791288,3.7158358963507117,-80.20725081183092,5.309035185646758,-82.71147928713886,2.609099531885585,-84.22339590515374,-3.4689022756740613,-84.23438581533924,-10.554268149738387,-83.04235823558055,-15.343699327027522,-81.2611466996037,-14.53679331570468,-79.1205097260059,-6.583155800052813,-76.31524032455535,6.3432817556015895,-72.58069700545427,22.03541626679896,-67.09995993472262,75,-50" fill="none" stroke="rgb(165, 42, 42)" stroke-width="2" stroke-linejoin="round" filter="url(#fuzzy)"></polyline><polyline points="41,-88,46.78903114607432,-73.75899842774153,30.96719455282055,-77.0551686961369,13.185131661161233,-78.91426308280964,-0.5800480066656328,-77.70084514158216,-7.320508999689946,-74.74502634587428,-5.937621872367724,-71.5799105381828,1.7124935924594211,-69.47371953201157,10.945444754816663,-68.96737799703449,16.405339139465923,-69.73543069294688,14.864279038465453,-71.04098176133928,6.883827845789063,-72.3948952228761,-3.5506925894452217,-73.84643589714445,-11.229171862836406,-75.70623823899774,-12.708042644762306,-77.9961845055109,-8.502456436693063,-80.14939116708517,-2.8629134374785665,-81.34734641182979,-0.40168437243726507,-81.43065108715082,-0.870279256042617,-81.62897566187533,3.3153820499454105,-83.8387985070655,18.080551826479272,-88.29100855240222,19,-95" fill="none" stroke="rgb(165, 42, 42)" stroke-width="2" stroke-linejoin="round" filter="url(#fuzzy)"></polyline><polyline points="-40,-84,-46.88391236181274,-75.69011487225475,-40.581300525994784,-79.11490411806052,-31.566550725604902,-82.04308334625381,-18.5456335681962,-82.85850801111947,-2.931976855879475,-81.97997390030751,10.841948039239725,-80.70134893570605,18.50354091700169,-80.43922563032415,18.42797822680623,-81.77453150559523,12.177300424844196,-84.1992810870891,3.3369080162956513,-86.64031274761321,-4.334532779452635,-88.1415488413638,-8.372158191027626,-88.23063590574407,-8.144244590995202,-86.97096602484937,-4.6255345406619215,-84.91025456628647,0.04220424706157522,-82.95927310153729,2.9297057083881053,-82.00078911043187,1.200071455246565,-82.20674699493927,-5.562398589839191,-82.77832838964294,-12.561479315206975,-83.33262934490998,-13.563935283029064,-86.05306778725273,-30,-89" fill="none" stroke="rgb(165, 42, 42)" stroke-width="2" stroke-linejoin="round" filter="url(#fuzzy)"></polyline><polyline points="48,-85,7.395287173961832,-83.52586623625484,-15.92019490595322,-78.64944902247844,-16.45480182159259,-78.84279668712837,-7.912161249434575,-81.35321329836734,0.8751228636703305,-82.86564085948366,8.638072399358354,-82.32280724935576,16.59476651500877,-80.76462492692225,24.350357055664062,-79.98066711425781,29.517515058274302,-81.07893398923291,29.651499069685034,-83.8184858219934,23.891806965944113,-87.00754136105188,13.211039182031527,-89.49593675439246,0.06418799849687584,-90.77837001069283,-12.512251654851124,-90.41582346615023,-25.768128864130333,-86.25901417254356,-57,-72" fill="none" stroke="rgb(165, 42, 42)" stroke-width="2" stroke-linejoin="round" filter="url(#fuzzy)"></polyline><polyline points="50,-83,30.150961113841223,-77.4977378996915,3.6496929868325187,-80.14994049596068,-9.960209901860285,-84.00376444656072,-14.127158030039247,-85.48073782451222,-11.432138952587446,-84.61029799230391,-4.580135559118568,-82.67101185502875,1.814168138985968,-80.56321204697632,3.4982174152714327,-78.40546588159579,-0.40155792236328125,-75.96604537963867,-7.129018695302888,-73.32630165829154,-12.837992088209996,-71.20106175900922,-15.071681709637195,-70.61130807410653,-12.742394963861111,-72.04112331694715,-4.601710615784128,-74.54271016372245,9.761465675955112,-75.35269799982794,23.95016972691915,-70.94000589697413,16.894210087350654,-62.21462726846103,-58,-71" fill="none" stroke="rgb(165, 42, 42)" stroke-width="2" stroke-linejoin="round" filter="url(#fuzzy)"></polyline><polyline points="73,-55,10.292965968309101,-72.30521508385893,-4.539315580077863,-71.38514967716216,-8.40050031519335,-69.66394830549818,-12.958115599331638,-70.45777062344969,-16.550856451993187,-71.59242226603048,-18.37413869876019,-71.62420275075483,-20.777992173170375,-71.10221734366532,-25.478703702581445,-71.20990800272104,-30.853141628715008,-72.49131418953318,-32.98200294977172,-74.74766691288751,-28.945805906432366,-77.4993535642369,-19.375355660435446,-80.06952858717389,-8.307498152020507,-81.61644601115013,-3.401759157967355,-82.48993734640999,-38,-85" fill="none" stroke="rgb(165, 42, 42)" stroke-width="2" stroke-linejoin="round" filter="url(#fuzzy)"></polyline><polyline points="-68,-58,1.7224228049658226,-57.74944887247693,16.729185338853576,-67.304077708776,25.550529634389544,-71.04236063068326,27.989843538571,-71.37585615914794,22.162936747522462,-71.68907202088762,12.663364993068305,-72.48545979456453,5.40029844239834,-72.96248699611296,2.8899571704593665,-72.83422138000455,3.996124267578125,-72.7305793762207,6.148854217292402,-73.52897377574529,7.121209656485889,-75.5805594237555,5.537023871755014,-78.45640691966605,0.9188061370646586,-81.15017557729617,-6.3588129079185745,-82.36507570911591,-15.374533025087413,-80.98534403152668,-22.901769301074594,-77.45678700383897,-14.078029930486583,-75.91583532606434,50,-83" fill="none" stroke="rgb(165, 42, 42)" stroke-width="2" stroke-linejoin="round" filter="url(#fuzzy)"></polyline><polyline points="72,-58,-12.601883418360224,-62.23037983346896,-32.28339144161239,-66.82306555842146,-24.907594322243547,-72.15677226734239,-12.050153928001546,-77.04356930273651,-2.758232307750575,-80.43410014032688,0.40251254103475104,-81.77721973927075,-2.3597446512357503,-81.2728666064949,-9.199542124747909,-79.7538815705907,-17.236091599028086,-78.18518574047329,-23.5971325571294,-77.16300657941494,-26.45900272494977,-76.7584424273541,-25.359351977780232,-76.71440773891109,-20.73697490712551,-76.74731375060824,-13.358231871446876,-76.7272772750356,-4.26613208221643,-76.70687236946112,4.903788720814082,-76.87260867198609,12.199132406598535,-77.3772280210187,16.89358681612714,-77.90047635703674,21.144967540974243,-77.1310730826686,28.434324081863043,-73.22704682529655,35.812009284647374,-66.62079062555742,22.48063725594211,-64.07296595958975,-54,-75" fill="none" stroke="rgb(165, 42, 42)" stroke-width="2" stroke-linejoin="round" filter="url(#fuzzy)"></polyline><polyline points="72,-57,40.18411810997973,-77.5885160926062,33.691006893908934,-83.08098195334425,24.22207980460394,-85.165737168988,12.430152302126064,-86.12742741435342,4.531408346712053,-86.6853356892589,3.291466461406177,-87.19682214425005,7.057404391451996,-87.81971111068147,12.305835350565166,-88.54110993366304,16.53589601957598,-89.06350848863013,19.699505053647748,-88.75376461850996,23.66364260924067,-86.8806529116067,30.329992346038527,-83.11212168535556,39.70572819688026,-78.0168056454226,49.186824934426184,-73.25736834264977,54.61485306604343,-71.19875458740626,52.701289666675336,-73.69973251688572,44.02403169612927,-80.0579361654513,37.12262421961778,-84.80728194391452,58,-77" fill="none" stroke="rgb(165, 42, 42)" stroke-width="2" stroke-linejoin="round" filter="url(#fuzzy)"></polyline><polyline points="-58,-71,-7.681912974669061,-77.27406761177306,16.512832591175876,-74.73221424205352,22.89154473419894,-73.76064517731743,22.50681194367278,-73.68936192378962,20.596865014597547,-73.29643761430854,18.90246251294079,-72.31879935741223,18.165278190601548,-71.21438037134621,18.681639721715772,-70.5679092111445,19.6377020021671,-70.76574506954896,19.078973894377157,-71.95452818908547,15.217839873262616,-74.04498080587959,8.078291268375446,-76.68736122827403,0.018985145827764064,-79.30552449378173,-5.364668594833473,-81.22915726056345,-5.187898846552621,-81.87205317550786,1.1530302104676318,-80.93276980173766,11.450219958848459,-78.64116871553638,21.099144853581556,-75.93582113752616,24.51894496930249,-74.20319371528537,18.770211981587416,-74.26593211335177,10.533304390937582,-74.87876091797045,22.19725841907985,-70.81007225843769,77,-45" fill="none" stroke="rgb(165, 42, 42)" stroke-width="2" stroke-linejoin="round" filter="url(#fuzzy)"></polyline><polyline points="-36,-86,0.3877689530737578,-89.87534989008677,10.973531104500701,-85.92021541026665,5.771389439526382,-81.22451921617129,-1.5627193995429027,-79.07711818329214,-1.6388062752048427,-79.06484613854536,6.028634452828627,-79.85404113129209,16.564277301519578,-80.65526821290321,25.15369251974377,-81.29732063179654,29.915254853603248,-81.82052772302013,31.592182159423828,-82.18533611297607,31.712881274672554,-82.20789659867344,31.080015707206993,-81.67045701440144,29.37494432052752,-80.59613655072957,25.576226761861818,-79.58928749932214,18.668862765571248,-79.84292323663522,8.579954132586732,-82.31077967303415,-2.6289254824438153,-86.25694505546439,-9.931199307917037,-88.90279917323232,-4.268626290642292,-88.46934903774361,38,-90" fill="none" stroke="rgb(165, 42, 42)" stroke-width="2" stroke-linejoin="round" filter="url(#fuzzy)"></polyline><polyline points="-5,-95,-15.769214894307245,-85.51835229232816,-3.135045096605389,-72.4871119791593,10.59325378930724,-65.71109817574158,12.727347428298865,-66.45679681565436,6.985087559291567,-71.15476162045418,0.6750278097526224,-75.98696351650209,-2.5386076292261603,-78.86365453006199,-2.478885533047899,-79.361474141764,0.24005431657479614,-77.9995084074173,5.544720137957703,-75.62659110354657,13.223729372024536,-73.08604788780212,21.874402595931794,-71.07403776124384,29.089789952949467,-70.09218760302139,32.898005159115726,-70.44713738858503,33.07956097506113,-72.26088556754155,31.10083394418244,-75.39925324306462,28.713705857179242,-79.22470718019164,26.289211686371527,-82.34922008199317,21.789587133330937,-83.03691540227024,11.627907740849697,-80.90833504479447,-0.4468683393824602,-79.70944653501677,31,-92" fill="none" stroke="rgb(165, 42, 42)" stroke-width="2" stroke-linejoin="round" filter="url(#fuzzy)"></polyline><polyline points="30,-93,20.85563158700118,-84.26303543962638,-0.5471795523948807,-80.0183882663648,-5.234469935872455,-78.32031745052329,1.3799769087478586,-78.09220136584445,10.837585823633793,-78.09972906066642,19.95379380920312,-77.34292366065499,28.5041286559552,-75.52135638964792,36.153219410627464,-73.29300075909848,41.75842658678468,-71.86866422619632,44.30484729852134,-72.13658800624347,43.81920329258111,-74.03928083243335,41.284118913132346,-76.70581685505822,37.692531617129355,-79.16233692329861,33.14685839713431,-80.96887242593591,26.86402332013118,-82.2621566710296,18.157832460718325,-83.27171088744663,7.563569127214689,-83.88683670888653,-2.8989621975415107,-83.80482017055296,-10.365284001659063,-83.16958162000967,-11.387835862061518,-82.93668322003687,-1.0586218439401973,-84.08177846334647,24.757236243807633,-85.31153533027614,53,-81" fill="none" stroke="rgb(165, 42, 42)" stroke-width="2" stroke-linejoin="round" filter="url(#fuzzy)"></polyline><polyline points="50,-83,40.4576309750314,-71.73435904691465,24.64934196649531,-73.7645537503017,26.283779704192085,-72.88719536756928,34.932798044494525,-70.57381529068822,40.09565206721273,-69.98233667630647,38.36978149787872,-71.47528135378681,31.917643054504143,-73.42809142616434,25.443777102871653,-73.99053189907107,23.236025994935048,-72.29814300327904,26.914776062533885,-68.88221184989906,34.76768898963928,-65.3274621963501,42.95561912964195,-63.40353315887547,47.72584349772693,-64.11996531900515,47.148369764027905,-67.228585851508,41.34935278010466,-71.48059056193807,31.39545494924526,-75.49458710422452,18.03122054498733,-78.60896331517031,1.5828690435267365,-80.9148706265399,-16.816724875229816,-82.27408619559618,-34.16364805852623,-81.69278727054404,-45.776360368701816,-79.47652851786458,-45,-81" fill="none" stroke="rgb(165, 42, 42)" stroke-width="2" stroke-linejoin="round" filter="url(#fuzzy)"></polyline><polyline points="-38,-85,3.8620698219165863,-84.12882825289257,3.716233573195608,-86.43830286214822,2.636433046256603,-88.11136862750794,4.806579278652908,-88.66614769407168,6.712599654533394,-87.90666626554395,6.743509387343099,-86.2088414826477,5.142184462564696,-84.41851209842419,2.455164467949687,-83.12111578858269,-0.6178170679151003,-82.23800823377867,-2.905104886566723,-81.45371852824692,-3.4189118580189675,-80.94468513633193,-2.422083588189376,-81.38419756980774,-0.666039947483055,-82.80983676272687,3.979809589724432,-83.26749630452292,18.586561210881584,-79.00139259589865,48.136563899012735,-67.37057250539594,74,-53" fill="none" stroke="rgb(165, 42, 42)" stroke-width="2" stroke-linejoin="round" filter="url(#fuzzy)"></polyline><!--]--></g><g id="pointNose"><g id="rightNose"><!--[--><circle r="2.0137153494967706" cx="9.449515618112514" cy="35.80038232700455" stroke="black" fill="none" stroke-width="1" filter="url(#fuzzy)"></circle><circle r="2.0175305378776205" cx="7.887415426873064" cy="36.93089629563792" stroke="black" fill="none" stroke-width="1" filter="url(#fuzzy)"></circle><circle r="2.5040446657154716" cx="8.213183128242711" cy="34.30900091686007" stroke="black" fill="none" stroke-width="1" filter="url(#fuzzy)"></circle><circle r="2.553702642665538" cx="8.730334397031942" cy="36.48612781315413" stroke="black" fill="none" stroke-width="1" filter="url(#fuzzy)"></circle><circle r="2.2250354957111327" cx="10.673644802460295" cy="35.3558404749834" stroke="black" fill="none" stroke-width="1" filter="url(#fuzzy)"></circle><circle r="1.4044833765987113" cx="10.406098736259429" cy="36.606113090158786" stroke="black" fill="none" stroke-width="1" filter="url(#fuzzy)"></circle><circle r="1.38206313207716" cx="10.16195683881329" cy="34.6167559896685" stroke="black" fill="none" stroke-width="1" filter="url(#fuzzy)"></circle><circle r="1.166621892413949" cx="8.752477177018136" cy="35.1341998002097" stroke="black" fill="none" stroke-width="1" filter="url(#fuzzy)"></circle><circle r="2.611058053833231" cx="10.36601357914535" cy="35.792199084368605" stroke="black" fill="none" stroke-width="1" filter="url(#fuzzy)"></circle><circle r="2.5570687470668876" cx="9.668700305902068" cy="35.16176430997594" stroke="black" fill="none" stroke-width="1" filter="url(#fuzzy)"></circle><!--]--></g><g id="leftNose"><!--[--><circle r="2.3755523949826833" cx="-11.180638351132622" cy="36.01842273885177" stroke="black" fill="none" stroke-width="1" filter="url(#fuzzy)"></circle><circle r="1.5693655255649879" cx="-11.2590112426961" cy="35.2251472298035" stroke="black" fill="none" stroke-width="1" filter="url(#fuzzy)"></circle><circle r="1.9461685085936333" cx="-10.130216016370541" cy="36.51297421085928" stroke="black" fill="none" stroke-width="1" filter="url(#fuzzy)"></circle><circle r="2.773020225406457" cx="-11.164310417991684" cy="37.94721628889855" stroke="black" fill="none" stroke-width="1" filter="url(#fuzzy)"></circle><circle r="1.587587317920118" cx="-9.04633147051361" cy="38.364684920289406" stroke="black" fill="none" stroke-width="1" filter="url(#fuzzy)"></circle><circle r="1.025041742642193" cx="-10.601177147588725" cy="38.21885927831746" stroke="black" fill="none" stroke-width="1" filter="url(#fuzzy)"></circle><circle r="2.7407034946705346" cx="-9.62945520720051" cy="38.32313939404308" stroke="black" fill="none" stroke-width="1" filter="url(#fuzzy)"></circle><circle r="1.7294081760647702" cx="-10.290113586030609" cy="35.85590712084834" stroke="black" fill="none" stroke-width="1" filter="url(#fuzzy)"></circle><circle r="1.936156694848301" cx="-10.960202351005465" cy="36.469116750098706" stroke="black" fill="none" stroke-width="1" filter="url(#fuzzy)"></circle><circle r="2.88296385283156" cx="-10.635868476935261" cy="39.00071184251417" stroke="black" fill="none" stroke-width="1" filter="url(#fuzzy)"></circle><!--]--></g></g><g id="mouth"><polyline points="-39.739401104542246,46.26073327493856,-39.61724398974377,46.9834829522294,-39.464357267621324,47.68739505098876,-39.28131439167166,48.372589991506054,-39.06868881539143,49.039188194070654,-38.82705399227738,49.68731007897196,-38.556983375826185,50.317076066499354,-38.25905041953455,50.92860657694222,-37.93382857689921,51.52202203058996,-37.581891301416825,52.09744284773197,-37.203812046584105,52.654989448657595,-36.80016426589777,53.19478225365627,-36.37152141285452,53.71694168301738,-35.91845694095104,54.22158815703029,-35.44154430368406,54.70884209598441,-34.941356954550265,55.17882392016913,-34.418468347046336,55.63165404987384,-33.873451934669035,56.06745290538792,-33.30688117091501,56.48634090700075,-32.71932950928099,56.88843847500174,-32.11137040326367,57.27386602968028,-31.483577306359756,57.64274399132574,-30.836523672065944,57.995192780227526,-30.17078295387894,58.331332816675015,-29.486928605295454,58.65128452095762,-28.785534079812194,58.95516831336471,-28.06717283092583,59.24310461418567,-27.332418312133097,59.51521384370989,-26.58184397693069,59.771616422226785,-25.816023278815294,60.01243277002572,-25.035529671283637,60.237783307396086,-24.24093660783241,60.44778845462728,-23.432817541958315,60.6425686320087,-22.611745927158058,60.82224425982972,-21.778295216928335,60.98693575837972,-20.933038864765862,61.136763547948114,-20.076550324167325,61.27184804882428,-19.20940304862944,61.39230968129762,-18.33217049164891,61.498268865657494,-17.445426106722426,61.58984602219333,-16.54974334734669,61.66716157119446,-15.645695667018424,61.730335932950354,-14.733856519234314,61.779489527750336,-13.814799357491067,61.81474277588382,-12.889097635285387,61.83621609764019,-11.957324806113977,61.84402991330886,-11.020054323473538,61.83830464317917,-10.077859640860773,61.819160707540554,-9.131314211772386,61.78671852668238,-8.180991489705074,61.74109852089403,-7.227464928155547,61.68242111046491,-6.27130798062051,61.610806715684426,-5.313094100596655,61.52637575684193,-4.353396741580692,61.429248654226825,-3.3927893570693186,61.31954582812852,-2.4318454005592463,61.19738769883637,-1.4711383255471668,61.062894686639794,-0.5112415855297945,60.91618721182817,0.44727136599617623,60.75738569469089,1.403827075534041,60.58661055551734,2.3578520895870962,60.4039822145969,3.308772954658642,60.20962109221898,4.256016217251971,60.00364760867296,5.199008423870381,59.78618218424823,6.137176121017172,59.557345239234174,7.069945855195639,59.317257193920184,7.9967441729090805,59.066038468595664,8.916997620660796,58.803809483549976,9.83013274495408,58.53069065907253,10.73557609229223,58.246802415452706,11.632754209178543,57.95226517297991,12.521093642116318,57.64719935194351,13.40002093760885,57.3317253726329,14.268962642159437,57.00596365533748,15.127345302271383,56.670034620346634,15.974595464447974,56.32405868794975,16.810139675192513,55.968156278436226,17.6334044810083,55.60244781209542,18.443816428398623,55.22705370921676,19.240802063866788,54.84209439008963,20.023787933916093,54.4476902750034,20.792200585049827,54.04396178424747,21.545466563771296,53.63102933811123,22.28301241658379,53.209013356884064,23.004264689990617,52.77803426085538,23.70864993049506,52.338212470314545,24.395594684600425,51.88966840555095,25.06452549881001,51.432522486854,25.714868919627108,50.96689513451307,26.346051493555017,50.49290676881756,26.95749976709704,50.01067781005686,27.548640286756466,49.52032867852034,28.118899599036595,49.02197979449741,28.667704250440732,48.51575157827746,29.194480787472166,48.00176445014987,29.698655756634192,47.48013883040403,30.179655704430118,46.95099513932933,30.63690717736323,46.41445379721517,31.069836721936834,45.87063522435092,31.477870884654216,45.31965984102598,31.860436212018662,44.761648067529784,31.477870884654195,45.31965984102602,31.069836721936806,45.87063522435095,30.6369071773632,46.414453797215195,30.179655704430083,46.95099513932936,29.698655756634157,47.48013883040405,29.194480787472127,48.0017644501499,28.667704250440693,48.51575157827748,28.118899599036563,49.02197979449744,27.548640286756438,49.52032867852038,26.95749976709701,50.01067781005689,26.346051493554977,50.49290676881758,25.714868919627076,50.9668951345131,25.064525498809974,51.432522486854026,24.395594684600386,51.88966840555097,23.70864993049502,52.338212470314545,23.004264689990574,52.77803426085539,22.28301241658375,53.20901335688409,21.545466563771257,53.63102933811125,20.792200585049788,54.043961784247486,20.023787933916047,54.44769027500342,19.24080206386674,54.84209439008965,18.44381642839858,55.22705370921678,17.633404481008256,55.60244781209544,16.810139675192467,55.96815627843624,15.974595464447939,56.32405868794978,15.127345302271342,56.670034620346655,14.268962642159403,57.00596365533751,13.400020937608812,57.33172537263294,12.521093642116277,57.64719935194353,11.632754209178502,57.95226517297993,10.73557609229219,58.24680241545274,9.830132744954039,58.530690659072555,8.916997620660753,58.803809483550005,7.996744172909038,59.06603846859568,7.069945855195598,59.3172571939202,6.137176121017126,59.557345239234195,5.199008423870334,59.78618218424825,4.256016217251926,60.003647608672985,3.3087729546585947,60.209621092219,2.35785208958705,60.40398221459692,1.4038270755339965,60.58661055551735,0.4472713659961314,60.7573856946909,-0.5112415855298384,60.91618721182819,-1.4711383255472148,61.06289468663981,-2.431845400559293,61.19738769883639,-3.392789357069369,61.31954582812854,-4.353396741580735,61.429248654226846,-5.313094100596698,61.526375756841944,-6.2713079806205565,61.61080671568444,-7.227464928155591,61.682421110464915,-8.180991489705116,61.741098520894035,-9.131314211772427,61.786718526682364,-10.077859640860815,61.81916070754054,-11.020054323473582,61.83830464317917,-11.957324806114016,61.84402991330884,-12.889097635285431,61.836216097640175,-13.814799357491108,61.814742775883815,-14.733856519234356,61.77948952775033,-15.645695667018463,61.73033593295035,-16.549743347346734,61.66716157119446,-17.44542610672246,61.589846022193306,-18.332170491648945,61.49826886565748,-19.209403048629483,61.392309681297604,-20.076550324167364,61.27184804882427,-20.933038864765898,61.13676354794811,-21.778295216928377,60.9869357583797,-22.611745927158093,60.82224425982969,-23.43281754195835,60.642568632008675,-24.24093660783244,60.447788454627265,-25.03552967128367,60.23778330739607,-25.81602327881533,60.0124327700257,-26.58184397693072,59.77161642222676,-27.33241831213313,59.51521384370987,-28.067172830925863,59.24310461418565,-28.78553407981222,58.95516831336468,-29.48692860529549,58.6512845209576,-30.170782953878984,58.331332816675,-30.83652367206598,57.99519278022751,-31.483577306359788,57.642743991325716,-32.111370403263706,57.273866029680256,-32.719329509281025,56.88843847500172,-33.30688117091504,56.48634090700073,-33.87345193466906,56.067452905387896,-34.41846834704638,55.631654049873816,-34.94135695455029,55.178823920169116,-35.44154430368408,54.708842095984394,-35.918456940951074,54.22158815703027,-36.37152141285454,53.71694168301735,-36.8001642658978,53.19478225365624,-37.20381204658413,52.654989448657574,-37.58189130141684,52.09744284773192,-37.933828576899224,51.52202203058992,-38.25905041953458,50.92860657694219,-38.556983375826206,50.317076066499325,-38.8270539922774,49.687310078971926,-39.068688815391454,49.03918819407062,-39.28131439167167,48.372589991506025,-39.464357267621345,47.68739505098873,-39.61724398974377,46.98348295222935" fill="rgb(215,127,140)" stroke="black" stroke-width="3" stroke-linejoin="round" filter="url(#fuzzy)"></polyline></g></svg>