<svg viewBox="-100 -100 200 200" xmlns="http://www.w3.org/2000/svg" width="400" height="400" id="face-svg"><defs><clipPath id="leftEyeClipPath"><polyline points="34.63568881500083,-3.9624074662088176,34.476138468952634,-4.12594116282193,34.27574984080662,-4.286022797004866,34.03423937919301,-4.442460558380319,33.7514427292801,-4.595076251196469,33.427310787439644,-4.743704980002457,33.0619057559122,-4.88819483532388,32.6553971974725,-5.028406579338268,32.20805809009483,-5.164213331550579,31.720260881618323,-5.295500254468678,31.1924735444124,-5.422164239278823,30.625255630042076,-5.544113591521155,30.01925432393336,-5.661267716765184,29.375200500038595,-5.773556806285267,28.6939047755018,-5.880921522736105,27.976253565324072,-5.983312685828221,27.347139200083546,-6.121114279405009,26.653058578521886,-6.251823005961456,25.895153485590093,-6.375171098547444,25.075005743729676,-6.490930521110467,24.194596157626496,-6.5989104733262,23.2562650319055,-6.69895499378683,22.262674234774266,-6.790940659549406,21.216770780623428,-6.8747743800463885,20.12175190459199,-6.95039128336063,18.981031602105563,-7.017752692867005,17.79820860639549,-7.076844192242905,16.57703577700704,-7.127673776849791,15.321390872304454,-7.170270089488065,14.035248678981095,-7.204680738527433,12.72265447158258,-7.2309706964149925,11.387698775050971,-7.249220776563275,10.034493403298027,-7.25952618662042,8.66714874681561,-7.261995156124749,7.289752282331127,-7.256747636545909,5.90634827751618,-7.243914071714824,4.520918663756346,-7.223634236644665,3.1373650499901515,-7.1960561427450696,1.7594918506252821,-7.161335007431786,0.39099050053998907,-7.1196322861340064,-0.9645752698222327,-7.071114764701582,-2.3037831262566737,-7.015953710214323,-3.6233648164921552,-6.954324078195629,-4.920217876768446,-6.88640377423264,-6.19141638628834,-6.812372968005143,-7.434220796536314,-6.732413457725427,-8.64608686245589,-6.646708082991337,-9.824673702477464,-6.555440184054699,-10.96785101438881,-6.45879310550738,-12.073705474040008,-6.356949742387147,-13.140546343875016,-6.250092126705594,-14.166910318281598,-6.13840105240031,-15.151565632751838,-6.0220557367135195,-16.093515463845037,-5.901233515999431,-16.99200064694505,-5.776109573962469,-17.846501738804026,-5.646856700328637,-18.656740451864525,-5.5136450779522255,-19.42268048735201,-5.376642096360053,-20.144527794129626,-5.236012189735495,-20.82273028030735,-5.091916697344493,-21.45797700459736,-4.944513744405753,-22.051196874407744,-4.793958141407374,-22.603556877666385,-4.6404012998721065,-23.11645987536713,-4.483991162573453,-23.591541981830055,-4.324872146204833,-24.03066955966806,-4.163185094504042,-24.433749436828364,-3.9985542609095974,-24.799603987402094,-3.830533912798546,-25.128683136545153,-3.6591568246916313,-25.42148663902482,-3.4844554696189256,-25.6785604642228,-3.306462286680202,-25.90049318113823,-3.12520994860531,-26.08791234339077,-2.9407316293145516,-26.24148087422366,-2.753061271479046,-26.36189345150676,-2.562233854081122,-26.449872892739602,-2.368285659974676,-26.506166540054462,-2.1712545434455572,-26.53154264521937,-1.9711801977719352,-26.52678675464122,-1.768104422784678,-26.49269809436878,-1.562071392427727,-26.9487488405132,0.19499975935817337,-26.421432523280785,0.403966647727672,-25.881926209568128,0.614824311279663,-25.330395702620716,0.8273875040280254,-24.767035715554105,1.0414539696433813,-24.192067914146435,1.2568050732642275,-23.605738959631136,1.4732064333080732,-23.00831855148941,1.6904085532825572,-22.400097470242933,1.90814745359659,-21.781385620246365,2.1261453033714837,-21.152510072480002,2.3441110522520763,-20.513813107342344,2.5617410622178705,-19.865650257442702,2.778719739394157,-19.20838835039378,2.994720165863149,-18.54240355160429,3.209404731475116,-17.865467782208903,3.4236237455776033,-17.17551747200882,3.638034935379812,-16.473182096958023,3.851991032443876,-15.759090207612253,4.0648291781328165,-15.033867076835204,4.2758733776646105,-14.298132362421548,4.484436990299654,-13.552497799250432,4.689825250944019,-12.7975649355834,4.891337818451027,-12.033922928120491,5.088271345903611,-11.262146410428358,5.279922068159904,-10.482793449354183,5.465588401944609,-9.696403604039256,5.644573553768521,-8.903496102146011,5.816188130958783,-8.104568147912302,5.979752751082288,-7.300093376646766,6.134600645044713,-6.49052047027914,6.280080249147697,-5.676271948579197,6.415557781386599,-4.857743150658308,6.540419797271292,-4.035301421367281,6.654075720452586,-3.2092855172043846,6.755960343436601,-2.3800052463473627,6.845536293669686,-1.5477413574232044,6.922296460276294,-0.7127456916295609,6.985766376732333,0.1247583871784621,7.0355065547564175,0.9645752698222329,7.071114764701581,1.8065360719404944,7.092228257729825,2.650497282323389,7.098525925052065,3.496339074825812,7.089730389515885,4.343963269246251,7.065610024823656,5.193290926557323,7.025980897663401,6.044259563874178,6.970708628034964,6.896819974546967,6.899710163053904,7.750932638763541,6.812955459515639,8.606563710048585,6.710469070502264,9.463680563045344,6.592331631314578,10.322246887966186,6.458681240011733,11.182217317098091,6.309714727841041,12.043531568749344,6.145688814840393,12.906108094023558,5.966921145895733,13.769837211807243,5.77379120253613,14.634573717357082,5.5667410857488795,15.50012894987314,5.3462761650971045,16.366262304444096,5.112965589422376,17.23267217375083,4.867442654414794,18.098986304914405,4.610405022333006,18.96475155687472,4.342614789156663,19.829423043686006,4.06489839445378,20.692352649115264,3.7781463692454604,21.552776897930002,3.4833129171504815,22.40980416926125,3.181415324092222,23.116510267691595,2.952542147933382,23.816742200980848,2.718977220924738,24.509733269325643,2.481178320071738,25.19465933959038,2.2396265793347574,25.870637092343777,1.9948268771164477,26.536722268895403,1.747308223749065,27.19190791833225,1.4976241489818447,27.83512264455529,1.2463530894683208,28.465228853316017,0.9940987762536855,29.08102099925302,0.7414906222621367,29.681223832928513,0.4891841097842118,30.264490647864907,0.23786117796414707,30.829401527581382,-0.01176938971278263,31.37446159263039,-0.2589715779329187,31.898099247634264,-0.5029817520668667"></polyline></clipPath><clipPath id="rightEyeClipPath"><polyline points="-36.0841647982791,-2.3685796098164773,-36.02597880267124,-2.5376760110935477,-35.92060434117447,-2.7034673407971024,-35.76790737383706,-2.865783381143717,-35.56787589096681,-3.024464428709539,-35.320615780662585,-3.1793610793806915,-35.02634669634605,-3.3303340133036796,-34.685397924293305,-3.477253779835797,-34.298204251166545,-3.6200005824955297,-33.86530183154567,-3.7584640639129656,-33.38732405546004,-3.8925430907801974,-32.864997415920044,-4.02214553880173,-32.299137376448776,-4.1471880776448895,-31.690644238613725,-4.26759595589022,-31.04049900955841,-4.383302785981904,-30.349759269534015,-4.494250329178155,-29.75703950009667,-4.638487428819834,-29.09369302986549,-4.776355619730208,-28.36102552949937,-4.907558165156794,-27.560804867312104,-5.031832320180712,-26.69521704593367,-5.148948074505515,-25.766823865191324,-5.258706911366971,-24.778522280993187,-5.360940582565599,-23.733505429996914,-5.455509899623761,-22.635225289846268,-5.542303541069137,-21.487356944758066,-5.621236875846369,-20.293764426242337,-5.692250802858686,-19.058468098738256,-5.755310606641337,-17.785613559948548,-5.810404829168604,-16.479442025655064,-5.857544157796243,-15.144262168798093,-5.896760329341118,-13.784423382602213,-5.928105050299891,-12.404290437531234,-5.951648933208492,-11.008219501854985,-5.967480449144281,-9.600535495610508,-5.975704896372619,-8.185510747740459,-5.976443385139705,-6.767344926191236,-5.969831838613469,-5.35014621075364,-5.95602000997434,-3.9379136784286155,-5.935170515657681,-2.5345208711008285,-5.907457884749707,-1.1437005153026738,-5.873067624538711,0.23096963614855026,-5.832195302223351,1.5860798708577022,-5.785045642779885,2.9184005221203764,-5.7318316429900875,4.2248929429703646,-5.672773701631705,5.50271947922331,-5.608098765833225,6.749252471733922,-5.538039493594795,7.962082318084033,-5.462833432477069,9.139024623918907,-5.3827222144598235,10.278126474149012,-5.297950766972107,11.377671854234805,-5.208766540095789,12.436186251771531,-5.115418749944238,13.452440468591774,-5.018157638218021,14.425453673602707,-4.917233747939368,15.354495726575696,-4.81289721536724,16.239088803105332,-4.705397078094796,17.079008350955412,-4.594980599331079,17.874283408009152,-4.481892608368701,18.625196312040828,-4.3663748572393875,19.33228183252647,-4.248665393559113,19.99632575471063,-4.1289979495647176,20.618362946146735,-4.007601347343737,21.19967493592839,-3.8846989202593165,21.74178703682881,-3.7605079505719714,22.24646504056583,-3.635239123260022,22.71571151640984,-3.5090959960405095,23.149420382004568,-3.3817562569626682,23.546357523085433,-3.252828188983475,23.907048027712353,-3.122403307676513,24.23206626597532,-2.990570089524792,24.522031843029954,-2.8574139716786733,24.77760555213316,-2.7230173517137866,24.999485327678762,-2.5874595873889588,25.18840219823314,-2.4508169964041264,25.345116239570817,-2.3131628561582662,25.47041252771018,-2.1745674035073135,25.565097091948978,-2.0350978345220807,25.629992867900096,-1.894818304246183,25.665935650527054,-1.75378992645396,25.673770047179737,-1.6120707734083937,25.67214020487261,0.34790221242571073,25.180143967236546,0.48954939642436734,24.678692497853586,0.6329642183061237,24.168022634806025,0.7780884440325031,23.64839659561192,0.9248545499312875,23.120099327439494,1.073185641369676,22.58343585732155,1.2229953714274568,22.038728642369865,1.3741878595701666,21.486314919989596,1.5266576103222609,20.926544058093686,1.6802894319402797,20.359774905317238,1.8349583550860058,19.78637314123198,1.9905295514996406,19.206708626560598,2.1468582526729603,18.62115275339118,2.303789668522486,18.030075795391614,2.4611589060626504,17.431132937032963,2.6193624686134815,16.822250937059447,2.7787490919313984,16.20417360434225,2.9390524925274204,15.577601091793966,3.099977845423872,14.943187719474949,3.2612030093114295,14.301539891284204,3.422379808277538,13.65321412501983,3.583135370713412,12.99871521559405,3.743073526006857,12.33849455118795,3.9017762596281984,11.672948602130933,4.0588052272164745,11.002417602290045,4.213703328273233,10.327184442754117,4.365996340071083,9.647473797597886,4.5151946123843025,8.96345150151112,4.660794823648715,8.275224199077844,4.802281799158077,7.582839285490649,4.93913039190423,6.886285158485269,5.0708074266682495,6.185491801280411,5.1967737079698,5.480331716307913,5.316486092482016,4.770621229518324,5.429399626519061,4.056122185046962,5.534969749203659,3.336544050025477,5.632654561921827,2.611546449324055,5.721917164672039,1.8807421500092696,5.802228059916056,1.1437005153026742,5.873067624538711,0.3999514478251953,5.933928650523814,-0.35101015808760794,5.984318954953487,-1.1097194352143585,6.023764059938097,-1.8767360136356646,6.051809943084136,-2.6526379224958667,6.068025859107156,-3.4380149035536616,6.072007233197089,-4.233461116736516,6.0633786267432015,-5.039567217913829,6.041796776025816,-5.856911789103771,6.006953704482195,-6.686052101328711,5.958579909153695,-7.527514190334219,5.896447621921501,-8.381782225386498,5.820374146138164,-9.249287151363273,5.730225269262178,-10.130394584352988,5.6259187521028355,-11.025391940977293,5.5074278952826425,-11.934474781651769,5.374785183524438,-12.857732347999754,5.228086008370568,-13.795132274634266,5.067492469941282,-14.746504455522974,4.8932372583396315,-15.711524045151059,4.705627615310066,-16.68969357469702,4.505049376758027,-17.68032416343626,4.291971096737729,-18.682515805587407,4.066948253515399,-19.69513671281638,3.830627538315191,-20.71680169261303,3.5837512273550423,-21.513426422093854,3.412513639754558,-22.309512376255984,3.235254147383715,-23.10402919672849,3.052308189426666,-23.895853279885078,2.8640404543378284,-24.68376484109483,2.670845671021938,-25.466444978973033,2.4731494000140963,-26.242472739631953,2.271408824659827,-27.010322180931627,2.0661135422951324,-27.768359436730673,1.857786355426533,-28.51483978113706,1.646984062911133,-29.24790469275891,1.4342982511366622,-29.965578918955334,1.2203560852015367,-30.665767540087135,1.0058211000949053,-31.346253033767677,0.7913939918767032,-32.00469233911365,0.5778134088577076"></polyline></clipPath><filter id="fuzzy"><feTurbulence id="turbulence" baseFrequency="0.05" numOctaves="3" type="noise" result="noise"></feTurbulence><feDisplacementMap in="SourceGraphic" in2="noise" scale="2"></feDisplacementMap></filter><linearGradient id="rainbowGradient" x1="0%" y1="0%" x2="100%" y2="0%"><stop offset="0%" style="stop-color: rgb(80, 68, 68);  stop-opacity: 1"></stop><stop offset="50%" style="stop-color: rgb(220, 208, 186);  stop-opacity: 1"></stop><stop offset="100%" style="stop-color: rgb(44, 34, 43);  stop-opacity: 1"></stop></linearGradient></defs><title>That&#39;s an ugly face</title><desc>CREATED BY XUAN TANG, MORE INFO AT TXSTC55.GITHUB.IO</desc><rect x="-100" y="-100" width="100%" height="100%" opacity="1" fill="rgb(85, 107, 47)"></rect><polyline id="faceContour" points="80,3,80,3,81,2,80,4,80,6,79,8,80,10,80,10,79,13,79,14,78,17,78,17,78,19,77,21,78,20,77,24,76,26,76,26,76,27,76,27,75,30,74,31,75,31,73,37,73,36,72,38,71,40,72,39,71,41,69,46,69,46,69,46,68,48,66,50,67,49,65,52,65,53,65,54,63,56,63,57,63,56,62,58,60,62,61,60,59,63,58,65,57,66,57,66,56,67,54,69,53,71,52,71,51,72,50,74,50,75,51,73,48,76,48,76,47,77,47,77,46,79,44,80,41,82,42,82,41,82,40,84,38,85,38,84,37,85,35,87,33,88,34,87,33,88,32,88,30,89,28,91,29,90,28,91,26,91,24,92,24,92,22,93,20,94,19,94,18,94,17,94,16,95,15,95,15,95,12,96,12,96,11,96,8,96,9,96,6,96,5,96,4,97,2,97,1,97,2,97,0,96,-1,97,-2,96,-4,96,-4,96,-7,96,-7,96,-9,96,-10,95,-11,95,-13,94,-13,95,-15,94,-15,94,-17,94,-17,93,-18,93,-18,93,-21,92,-23,91,-23,91,-26,90,-26,90,-27,89,-29,88,-28,89,-29,88,-30,88,-32,86,-34,86,-35,85,-34,85,-37,83,-38,83,-39,82,-40,81,-40,81,-42,79,-42,79,-43,78,-44,78,-46,76,-46,75,-49,73,-48,74,-48,73,-50,71,-52,70,-54,68,-54,67,-53,68,-55,66,-56,65,-56,65,-57,63,-57,63,-59,61,-61,58,-61,58,-61,58,-62,56,-62,56,-64,52,-65,51,-65,51,-66,50,-66,49,-68,46,-68,45,-69,44,-69,43,-70,42,-70,41,-70,41,-71,38,-72,36,-72,35,-74,31,-74,33,-74,32,-75,29,-74,30,-75,27,-76,23,-77,24,-77,20,-77,22,-78,19,-78,17,-78,18,-79,15,-79,12,-79,11,-79,10,-79,10,-80,6,-80,4,-80,5,-80,3,-80,3,-80,0,-81,-4,-81,-3,-81,-6,-81,-5,-81,-7,-81,-9,-81,-12,-81,-12,-81,-13,-81,-15,-80,-16,-81,-16,-81,-18,-80,-22,-80,-23,-80,-21,-79,-25,-79,-27,-79,-29,-78,-31,-79,-30,-78,-32,-78,-34,-77,-36,-77,-35,-76,-39,-76,-40,-76,-41,-76,-41,-75,-43,-75,-42,-73,-47,-74,-46,-73,-48,-73,-48,-72,-49,-71,-52,-71,-53,-70,-53,-69,-56,-67,-59,-69,-57,-67,-60,-67,-59,-65,-63,-64,-64,-65,-62,-64,-64,-63,-66,-62,-67,-60,-68,-59,-69,-58,-70,-58,-71,-57,-72,-57,-72,-55,-74,-54,-75,-53,-76,-52,-76,-51,-77,-48,-80,-49,-79,-48,-80,-46,-81,-45,-82,-42,-84,-42,-84,-42,-84,-40,-85,-40,-85,-38,-87,-36,-87,-35,-88,-32,-89,-33,-89,-30,-90,-29,-91,-27,-91,-27,-91,-27,-91,-27,-91,-22,-93,-23,-93,-22,-93,-21,-93,-18,-94,-15,-95,-15,-95,-13,-95,-13,-95,-12,-95,-11,-96,-10,-96,-6,-96,-6,-96,-3,-96,-3,-97,-2,-97,1,-97,1,-97,3,-96,2,-97,4,-97,9,-96,9,-96,11,-96,11,-96,13,-96,14,-96,14,-96,17,-95,17,-95,19,-95,19,-95,23,-94,24,-94,25,-93,26,-93,27,-92,30,-92,31,-91,32,-91,32,-91,33,-90,36,-89,36,-89,37,-89,40,-87,40,-87,41,-87,43,-86,45,-84,44,-84,45,-84,48,-82,48,-82,49,-82,50,-80,52,-79,52,-79,54,-77,56,-75,56,-75,57,-74,57,-74,57,-74,60,-71,60,-71,61,-70,62,-69,64,-66,63,-67,65,-65,66,-63,66,-63,68,-60,68,-60,68,-60,69,-59,70,-57,70,-56,71,-55,72,-52,73,-51,72,-51,74,-49,74,-48,75,-47,75,-45,75,-45,76,-43,76,-41,76,-40,77,-38,77,-36,78,-35,78,-33,79,-32,79,-30,79,-30,79,-28,80,-26,80,-27,80,-23,80,-24,81,-19,81,-19,81,-17,81,-16,81,-15,81,-11,81,-10,81,-10,81,-9,81,-8,81,-6,81,-4,81,-2,80,3,80,3" fill="#ffc9a9" stroke="black" stroke-width="1.6666666666666665" stroke-linejoin="round" filter="url(#fuzzy)"></polyline><g transform="translate(32.81268148438111 -27.362926295964776)"><polyline id="rightCountour" points="-36.0841647982791,-2.3685796098164773,-36.02597880267124,-2.5376760110935477,-35.92060434117447,-2.7034673407971024,-35.76790737383706,-2.865783381143717,-35.56787589096681,-3.024464428709539,-35.320615780662585,-3.1793610793806915,-35.02634669634605,-3.3303340133036796,-34.685397924293305,-3.477253779835797,-34.298204251166545,-3.6200005824955297,-33.86530183154567,-3.7584640639129656,-33.38732405546004,-3.8925430907801974,-32.864997415920044,-4.02214553880173,-32.299137376448776,-4.1471880776448895,-31.690644238613725,-4.26759595589022,-31.04049900955841,-4.383302785981904,-30.349759269534015,-4.494250329178155,-29.75703950009667,-4.638487428819834,-29.09369302986549,-4.776355619730208,-28.36102552949937,-4.907558165156794,-27.560804867312104,-5.031832320180712,-26.69521704593367,-5.148948074505515,-25.766823865191324,-5.258706911366971,-24.778522280993187,-5.360940582565599,-23.733505429996914,-5.455509899623761,-22.635225289846268,-5.542303541069137,-21.487356944758066,-5.621236875846369,-20.293764426242337,-5.692250802858686,-19.058468098738256,-5.755310606641337,-17.785613559948548,-5.810404829168604,-16.479442025655064,-5.857544157796243,-15.144262168798093,-5.896760329341118,-13.784423382602213,-5.928105050299891,-12.404290437531234,-5.951648933208492,-11.008219501854985,-5.967480449144281,-9.600535495610508,-5.975704896372619,-8.185510747740459,-5.976443385139705,-6.767344926191236,-5.969831838613469,-5.35014621075364,-5.95602000997434,-3.9379136784286155,-5.935170515657681,-2.5345208711008285,-5.907457884749707,-1.1437005153026738,-5.873067624538711,0.23096963614855026,-5.832195302223351,1.5860798708577022,-5.785045642779885,2.9184005221203764,-5.7318316429900875,4.2248929429703646,-5.672773701631705,5.50271947922331,-5.608098765833225,6.749252471733922,-5.538039493594795,7.962082318084033,-5.462833432477069,9.139024623918907,-5.3827222144598235,10.278126474149012,-5.297950766972107,11.377671854234805,-5.208766540095789,12.436186251771531,-5.115418749944238,13.452440468591774,-5.018157638218021,14.425453673602707,-4.917233747939368,15.354495726575696,-4.81289721536724,16.239088803105332,-4.705397078094796,17.079008350955412,-4.594980599331079,17.874283408009152,-4.481892608368701,18.625196312040828,-4.3663748572393875,19.33228183252647,-4.248665393559113,19.99632575471063,-4.1289979495647176,20.618362946146735,-4.007601347343737,21.19967493592839,-3.8846989202593165,21.74178703682881,-3.7605079505719714,22.24646504056583,-3.635239123260022,22.71571151640984,-3.5090959960405095,23.149420382004568,-3.3817562569626682,23.546357523085433,-3.252828188983475,23.907048027712353,-3.122403307676513,24.23206626597532,-2.990570089524792,24.522031843029954,-2.8574139716786733,24.77760555213316,-2.7230173517137866,24.999485327678762,-2.5874595873889588,25.18840219823314,-2.4508169964041264,25.345116239570817,-2.3131628561582662,25.47041252771018,-2.1745674035073135,25.565097091948978,-2.0350978345220807,25.629992867900096,-1.894818304246183,25.665935650527054,-1.75378992645396,25.673770047179737,-1.6120707734083937,25.67214020487261,0.34790221242571073,25.180143967236546,0.48954939642436734,24.678692497853586,0.6329642183061237,24.168022634806025,0.7780884440325031,23.64839659561192,0.9248545499312875,23.120099327439494,1.073185641369676,22.58343585732155,1.2229953714274568,22.038728642369865,1.3741878595701666,21.486314919989596,1.5266576103222609,20.926544058093686,1.6802894319402797,20.359774905317238,1.8349583550860058,19.78637314123198,1.9905295514996406,19.206708626560598,2.1468582526729603,18.62115275339118,2.303789668522486,18.030075795391614,2.4611589060626504,17.431132937032963,2.6193624686134815,16.822250937059447,2.7787490919313984,16.20417360434225,2.9390524925274204,15.577601091793966,3.099977845423872,14.943187719474949,3.2612030093114295,14.301539891284204,3.422379808277538,13.65321412501983,3.583135370713412,12.99871521559405,3.743073526006857,12.33849455118795,3.9017762596281984,11.672948602130933,4.0588052272164745,11.002417602290045,4.213703328273233,10.327184442754117,4.365996340071083,9.647473797597886,4.5151946123843025,8.96345150151112,4.660794823648715,8.275224199077844,4.802281799158077,7.582839285490649,4.93913039190423,6.886285158485269,5.0708074266682495,6.185491801280411,5.1967737079698,5.480331716307913,5.316486092482016,4.770621229518324,5.429399626519061,4.056122185046962,5.534969749203659,3.336544050025477,5.632654561921827,2.611546449324055,5.721917164672039,1.8807421500092696,5.802228059916056,1.1437005153026742,5.873067624538711,0.3999514478251953,5.933928650523814,-0.35101015808760794,5.984318954953487,-1.1097194352143585,6.023764059938097,-1.8767360136356646,6.051809943084136,-2.6526379224958667,6.068025859107156,-3.4380149035536616,6.072007233197089,-4.233461116736516,6.0633786267432015,-5.039567217913829,6.041796776025816,-5.856911789103771,6.006953704482195,-6.686052101328711,5.958579909153695,-7.527514190334219,5.896447621921501,-8.381782225386498,5.820374146138164,-9.249287151363273,5.730225269262178,-10.130394584352988,5.6259187521028355,-11.025391940977293,5.5074278952826425,-11.934474781651769,5.374785183524438,-12.857732347999754,5.228086008370568,-13.795132274634266,5.067492469941282,-14.746504455522974,4.8932372583396315,-15.711524045151059,4.705627615310066,-16.68969357469702,4.505049376758027,-17.68032416343626,4.291971096737729,-18.682515805587407,4.066948253515399,-19.69513671281638,3.830627538315191,-20.71680169261303,3.5837512273550423,-21.513426422093854,3.412513639754558,-22.309512376255984,3.235254147383715,-23.10402919672849,3.052308189426666,-23.895853279885078,2.8640404543378284,-24.68376484109483,2.670845671021938,-25.466444978973033,2.4731494000140963,-26.242472739631953,2.271408824659827,-27.010322180931627,2.0661135422951324,-27.768359436730673,1.857786355426533,-28.51483978113706,1.646984062911133,-29.24790469275891,1.4342982511366622,-29.965578918955334,1.2203560852015367,-30.665767540087135,1.0058211000949053,-31.346253033767677,0.7913939918767032,-32.00469233911365,0.5778134088577076" fill="white" stroke="white" stroke-width="0" stroke-linejoin="round" filter="url(#fuzzy)"></polyline></g><g transform="translate(-44.30321893392457 -25.886633885215584)"><polyline id="leftCountour" points="34.63568881500083,-3.9624074662088176,34.476138468952634,-4.12594116282193,34.27574984080662,-4.286022797004866,34.03423937919301,-4.442460558380319,33.7514427292801,-4.595076251196469,33.427310787439644,-4.743704980002457,33.0619057559122,-4.88819483532388,32.6553971974725,-5.028406579338268,32.20805809009483,-5.164213331550579,31.720260881618323,-5.295500254468678,31.1924735444124,-5.422164239278823,30.625255630042076,-5.544113591521155,30.01925432393336,-5.661267716765184,29.375200500038595,-5.773556806285267,28.6939047755018,-5.880921522736105,27.976253565324072,-5.983312685828221,27.347139200083546,-6.121114279405009,26.653058578521886,-6.251823005961456,25.895153485590093,-6.375171098547444,25.075005743729676,-6.490930521110467,24.194596157626496,-6.5989104733262,23.2562650319055,-6.69895499378683,22.262674234774266,-6.790940659549406,21.216770780623428,-6.8747743800463885,20.12175190459199,-6.95039128336063,18.981031602105563,-7.017752692867005,17.79820860639549,-7.076844192242905,16.57703577700704,-7.127673776849791,15.321390872304454,-7.170270089488065,14.035248678981095,-7.204680738527433,12.72265447158258,-7.2309706964149925,11.387698775050971,-7.249220776563275,10.034493403298027,-7.25952618662042,8.66714874681561,-7.261995156124749,7.289752282331127,-7.256747636545909,5.90634827751618,-7.243914071714824,4.520918663756346,-7.223634236644665,3.1373650499901515,-7.1960561427450696,1.7594918506252821,-7.161335007431786,0.39099050053998907,-7.1196322861340064,-0.9645752698222327,-7.071114764701582,-2.3037831262566737,-7.015953710214323,-3.6233648164921552,-6.954324078195629,-4.920217876768446,-6.88640377423264,-6.19141638628834,-6.812372968005143,-7.434220796536314,-6.732413457725427,-8.64608686245589,-6.646708082991337,-9.824673702477464,-6.555440184054699,-10.96785101438881,-6.45879310550738,-12.073705474040008,-6.356949742387147,-13.140546343875016,-6.250092126705594,-14.166910318281598,-6.13840105240031,-15.151565632751838,-6.0220557367135195,-16.093515463845037,-5.901233515999431,-16.99200064694505,-5.776109573962469,-17.846501738804026,-5.646856700328637,-18.656740451864525,-5.5136450779522255,-19.42268048735201,-5.376642096360053,-20.144527794129626,-5.236012189735495,-20.82273028030735,-5.091916697344493,-21.45797700459736,-4.944513744405753,-22.051196874407744,-4.793958141407374,-22.603556877666385,-4.6404012998721065,-23.11645987536713,-4.483991162573453,-23.591541981830055,-4.324872146204833,-24.03066955966806,-4.163185094504042,-24.433749436828364,-3.9985542609095974,-24.799603987402094,-3.830533912798546,-25.128683136545153,-3.6591568246916313,-25.42148663902482,-3.4844554696189256,-25.6785604642228,-3.306462286680202,-25.90049318113823,-3.12520994860531,-26.08791234339077,-2.9407316293145516,-26.24148087422366,-2.753061271479046,-26.36189345150676,-2.562233854081122,-26.449872892739602,-2.368285659974676,-26.506166540054462,-2.1712545434455572,-26.53154264521937,-1.9711801977719352,-26.52678675464122,-1.768104422784678,-26.49269809436878,-1.562071392427727,-26.9487488405132,0.19499975935817337,-26.421432523280785,0.403966647727672,-25.881926209568128,0.614824311279663,-25.330395702620716,0.8273875040280254,-24.767035715554105,1.0414539696433813,-24.192067914146435,1.2568050732642275,-23.605738959631136,1.4732064333080732,-23.00831855148941,1.6904085532825572,-22.400097470242933,1.90814745359659,-21.781385620246365,2.1261453033714837,-21.152510072480002,2.3441110522520763,-20.513813107342344,2.5617410622178705,-19.865650257442702,2.778719739394157,-19.20838835039378,2.994720165863149,-18.54240355160429,3.209404731475116,-17.865467782208903,3.4236237455776033,-17.17551747200882,3.638034935379812,-16.473182096958023,3.851991032443876,-15.759090207612253,4.0648291781328165,-15.033867076835204,4.2758733776646105,-14.298132362421548,4.484436990299654,-13.552497799250432,4.689825250944019,-12.7975649355834,4.891337818451027,-12.033922928120491,5.088271345903611,-11.262146410428358,5.279922068159904,-10.482793449354183,5.465588401944609,-9.696403604039256,5.644573553768521,-8.903496102146011,5.816188130958783,-8.104568147912302,5.979752751082288,-7.300093376646766,6.134600645044713,-6.49052047027914,6.280080249147697,-5.676271948579197,6.415557781386599,-4.857743150658308,6.540419797271292,-4.035301421367281,6.654075720452586,-3.2092855172043846,6.755960343436601,-2.3800052463473627,6.845536293669686,-1.5477413574232044,6.922296460276294,-0.7127456916295609,6.985766376732333,0.1247583871784621,7.0355065547564175,0.9645752698222329,7.071114764701581,1.8065360719404944,7.092228257729825,2.650497282323389,7.098525925052065,3.496339074825812,7.089730389515885,4.343963269246251,7.065610024823656,5.193290926557323,7.025980897663401,6.044259563874178,6.970708628034964,6.896819974546967,6.899710163053904,7.750932638763541,6.812955459515639,8.606563710048585,6.710469070502264,9.463680563045344,6.592331631314578,10.322246887966186,6.458681240011733,11.182217317098091,6.309714727841041,12.043531568749344,6.145688814840393,12.906108094023558,5.966921145895733,13.769837211807243,5.77379120253613,14.634573717357082,5.5667410857488795,15.50012894987314,5.3462761650971045,16.366262304444096,5.112965589422376,17.23267217375083,4.867442654414794,18.098986304914405,4.610405022333006,18.96475155687472,4.342614789156663,19.829423043686006,4.06489839445378,20.692352649115264,3.7781463692454604,21.552776897930002,3.4833129171504815,22.40980416926125,3.181415324092222,23.116510267691595,2.952542147933382,23.816742200980848,2.718977220924738,24.509733269325643,2.481178320071738,25.19465933959038,2.2396265793347574,25.870637092343777,1.9948268771164477,26.536722268895403,1.747308223749065,27.19190791833225,1.4976241489818447,27.83512264455529,1.2463530894683208,28.465228853316017,0.9940987762536855,29.08102099925302,0.7414906222621367,29.681223832928513,0.4891841097842118,30.264490647864907,0.23786117796414707,30.829401527581382,-0.01176938971278263,31.37446159263039,-0.2589715779329187,31.898099247634264,-0.5029817520668667" fill="white" stroke="white" stroke-width="0" stroke-linejoin="round" filter="url(#fuzzy)"></polyline></g><g transform="translate(32.81268148438111 -27.362926295964776)"><polyline id="rightUpper" points="-34.195672756978986,-0.5412328692347763,-34.572197850969815,-0.7315510885937517,-34.910495685894674,-0.9208920149004424,-35.20898463344836,-1.10896845904806,-35.466246420268526,-1.2955058967853268,-35.68102199546745,-1.4802422536668802,-35.85220739816356,-1.662927690003679,-35.97884962501319,-1.8433243858134085,-36.06014249774216,-2.021206325770888,-36.09542253067752,-2.1963590841584764,-36.0841647982791,-2.3685796098164773,-36.02597880267124,-2.5376760110935477,-35.92060434117447,-2.7034673407971024,-35.76790737383706,-2.865783381143717,-35.56787589096681,-3.024464428709539,-35.320615780662585,-3.1793610793806915,-35.02634669634605,-3.3303340133036796,-34.685397924293305,-3.477253779835797,-34.298204251166545,-3.6200005824955297,-33.86530183154567,-3.7584640639129656,-33.38732405546004,-3.8925430907801974,-32.864997415920044,-4.02214553880173,-32.299137376448776,-4.1471880776448895,-31.690644238613725,-4.26759595589022,-31.04049900955841,-4.383302785981904,-30.349759269534015,-4.494250329178155,-29.75703950009667,-4.638487428819834,-29.09369302986549,-4.776355619730208,-28.36102552949937,-4.907558165156794,-27.560804867312104,-5.031832320180712,-26.69521704593367,-5.148948074505515,-25.766823865191324,-5.258706911366971,-24.778522280993187,-5.360940582565599,-23.733505429996914,-5.455509899623761,-22.635225289846268,-5.542303541069137,-21.487356944758066,-5.621236875846369,-20.293764426242337,-5.692250802858686,-19.058468098738256,-5.755310606641337,-17.785613559948548,-5.810404829168604,-16.479442025655064,-5.857544157796243,-15.144262168798093,-5.896760329341118,-13.784423382602213,-5.928105050299891,-12.404290437531234,-5.951648933208492,-11.008219501854985,-5.967480449144281,-9.600535495610508,-5.975704896372619,-8.185510747740459,-5.976443385139705,-6.767344926191236,-5.969831838613469,-5.35014621075364,-5.95602000997434,-3.9379136784286155,-5.935170515657681,-2.5345208711008285,-5.907457884749707,-1.1437005153026738,-5.873067624538711,0.23096963614855026,-5.832195302223351,1.5860798708577022,-5.785045642779885,2.9184005221203764,-5.7318316429900875,4.2248929429703646,-5.672773701631705,5.50271947922331,-5.608098765833225,6.749252471733922,-5.538039493594795,7.962082318084033,-5.462833432477069,9.139024623918907,-5.3827222144598235,10.278126474149012,-5.297950766972107,11.377671854234805,-5.208766540095789,12.436186251771531,-5.115418749944238,13.452440468591774,-5.018157638218021,14.425453673602707,-4.917233747939368,15.354495726575696,-4.81289721536724,16.239088803105332,-4.705397078094796,17.079008350955412,-4.594980599331079,17.874283408009152,-4.481892608368701,18.625196312040828,-4.3663748572393875,19.33228183252647,-4.248665393559113,19.99632575471063,-4.1289979495647176,20.618362946146735,-4.007601347343737,21.19967493592839,-3.8846989202593165,21.74178703682881,-3.7605079505719714,22.24646504056583,-3.635239123260022,22.71571151640984,-3.5090959960405095,23.149420382004568,-3.3817562569626682,23.546357523085433,-3.252828188983475,23.907048027712353,-3.122403307676513,24.23206626597532,-2.990570089524792,24.522031843029954,-2.8574139716786733,24.77760555213316,-2.7230173517137866,24.999485327678762,-2.5874595873889588,25.18840219823314,-2.4508169964041264,25.345116239570817,-2.3131628561582662,25.47041252771018,-2.1745674035073135,25.565097091948978,-2.0350978345220807,25.629992867900096,-1.894818304246183,25.665935650527054,-1.75378992645396,25.673770047179737,-1.6120707734083937,25.65434543062997,-1.4697158756190352,25.60851189210716,-1.326777221599921,25.537116194333922,-1.183303757627499,25.440997724561747,-1.0393413874985482,25.320984447606556,-0.8949329722881018,25.177888858884398,-0.7501183301073651,25.012503937447068,-0.6049342358616419,24.825599099017687,-0.45941442100825314,24.617916149026414,-0.3135895733144618,24.39016523564599,-0.16748733661538973" fill="none" stroke="black" stroke-width="1.6666666666666665" stroke-linejoin="round" filter="url(#fuzzy)"></polyline><polyline id="rightLower" points="-36.76543424481452,-1.32021110519092,-36.48604270134609,-1.1646366201785514,-36.15362387856776,-0.9985676934515868,-35.77193768853587,-0.8231660107320646,-35.34458914731806,-0.6395473936906617,-34.875031310742436,-0.44878259112674557,-34.36656821014678,-0.25189807014842724,-33.82235778812775,-0.049876807352613683,-33.245414834290095,0.15634091999494126,-32.63861392099588,0.3658567427795836,-32.00469233911365,0.5778134088577076,-31.346253033767677,0.7913939918767032,-30.665767540087135,1.0058211000949053,-29.965578918955334,1.2203560852015367,-29.24790469275891,1.4342982511366622,-28.51483978113706,1.646984062911133,-27.768359436730673,1.857786355426533,-27.010322180931627,2.0661135422951324,-26.242472739631953,2.271408824659827,-25.466444978973033,2.4731494000140963,-24.68376484109483,2.670845671021938,-23.895853279885078,2.8640404543378284,-23.10402919672849,3.052308189426666,-22.309512376255984,3.235254147383715,-21.513426422093854,3.412513639754558,-20.71680169261303,3.5837512273550423,-19.69513671281638,3.830627538315191,-18.682515805587407,4.066948253515399,-17.68032416343626,4.291971096737729,-16.68969357469702,4.505049376758027,-15.711524045151059,4.705627615310066,-14.746504455522974,4.8932372583396315,-13.795132274634266,5.067492469941282,-12.857732347999754,5.228086008370568,-11.934474781651769,5.374785183524438,-11.025391940977293,5.5074278952826425,-10.130394584352988,5.6259187521028355,-9.249287151363273,5.730225269262178,-8.381782225386498,5.820374146138164,-7.527514190334219,5.896447621921501,-6.686052101328711,5.958579909153695,-5.856911789103771,6.006953704482195,-5.039567217913829,6.041796776025816,-4.233461116736516,6.0633786267432015,-3.4380149035536616,6.072007233197089,-2.6526379224958667,6.068025859107156,-1.8767360136356646,6.051809943084136,-1.1097194352143585,6.023764059938097,-0.35101015808760794,5.984318954953487,0.3999514478251953,5.933928650523814,1.1437005153026742,5.873067624538711,1.8807421500092696,5.802228059916056,2.611546449324055,5.721917164672039,3.336544050025477,5.632654561921827,4.056122185046962,5.534969749203659,4.770621229518324,5.429399626519061,5.480331716307913,5.316486092482016,6.185491801280411,5.1967737079698,6.886285158485269,5.0708074266682495,7.582839285490649,4.93913039190423,8.275224199077844,4.802281799158077,8.96345150151112,4.660794823648715,9.647473797597886,4.5151946123843025,10.327184442754117,4.365996340071083,11.002417602290045,4.213703328273233,11.672948602130933,4.0588052272164745,12.33849455118795,3.9017762596281984,12.99871521559405,3.743073526006857,13.65321412501983,3.583135370713412,14.301539891284204,3.422379808277538,14.943187719474949,3.2612030093114295,15.577601091793966,3.099977845423872,16.20417360434225,2.9390524925274204,16.822250937059447,2.7787490919313984,17.431132937032963,2.6193624686134815,18.030075795391614,2.4611589060626504,18.62115275339118,2.303789668522486,19.206708626560598,2.1468582526729603,19.78637314123198,1.9905295514996406,20.359774905317238,1.8349583550860058,20.926544058093686,1.6802894319402797,21.486314919989596,1.5266576103222609,22.038728642369865,1.3741878595701666,22.58343585732155,1.2229953714274568,23.120099327439494,1.073185641369676,23.64839659561192,0.9248545499312875,24.168022634806025,0.7780884440325031,24.678692497853586,0.6329642183061237,25.180143967236546,0.48954939642436734,25.67214020487261,0.34790221242571073,26.154472401900854,0.20807169204172027,26.62696242846733,0.07009773402388308,27.089465483510615,-0.0659888085295508,27.541872744547494,-0.20016604684673878,27.984114017458445,-0.3324209751554099,28.416160386273354,-0.4627493893560337,28.838026862957033,-0.5911558056949775,29.249775037194826,-0.7176533794376805,29.651515726178264,-0.8422638235418125,30.043411624390554,-0.9650173273304448" fill="none" stroke="black" stroke-width="2.2222222222222223" stroke-linejoin="round" filter="url(#fuzzy)"></polyline><!--[--><circle r="4.526579696759793" cx="-17.669006842980984" cy="0.7188061493497293" stroke="black" fill="none" stroke-width="1" filter="url(#fuzzy)" clip-path="url(#rightEyeClipPath)"></circle><circle r="3.5684028486525676" cx="-18.229632423065926" cy="-1.644414875390348" stroke="black" fill="none" stroke-width="1" filter="url(#fuzzy)" clip-path="url(#rightEyeClipPath)"></circle><circle r="4.328454086401809" cx="-19.992505598363742" cy="0.11012615328007236" stroke="black" fill="none" stroke-width="1" filter="url(#fuzzy)" clip-path="url(#rightEyeClipPath)"></circle><circle r="3.57452411805679" cx="-18.98698465498162" cy="-2.055944242250112" stroke="black" fill="none" stroke-width="1" filter="url(#fuzzy)" clip-path="url(#rightEyeClipPath)"></circle><circle r="4.754127351502834" cx="-19.26336771119855" cy="-0.12713081068723664" stroke="black" fill="none" stroke-width="1" filter="url(#fuzzy)" clip-path="url(#rightEyeClipPath)"></circle><circle r="3.305424414760445" cx="-20.156324537919165" cy="-0.15316506840864985" stroke="black" fill="none" stroke-width="1" filter="url(#fuzzy)" clip-path="url(#rightEyeClipPath)"></circle><circle r="3.04301747331502" cx="-16.29661734529178" cy="0.19242946268827676" stroke="black" fill="none" stroke-width="1" filter="url(#fuzzy)" clip-path="url(#rightEyeClipPath)"></circle><circle r="3.7484913613112" cx="-19.46126556358915" cy="2.2980856601085087" stroke="black" fill="none" stroke-width="1" filter="url(#fuzzy)" clip-path="url(#rightEyeClipPath)"></circle><circle r="3.266542290621538" cx="-17.491385118562246" cy="-0.1662226626434813" stroke="black" fill="none" stroke-width="1" filter="url(#fuzzy)" clip-path="url(#rightEyeClipPath)"></circle><circle r="4.044541239373732" cx="-18.700870279261814" cy="1.8957363761264112" stroke="black" fill="none" stroke-width="1" filter="url(#fuzzy)" clip-path="url(#rightEyeClipPath)"></circle><!--]--></g><g transform="translate(-44.30321893392457 -25.886633885215584)"><polyline id="leftUpper" points="34.140592146138026,-2.189769084320152,34.34478514308294,-2.3740538748501367,34.51839915484344,-2.557622662517495,34.65974167126373,-2.740130202841843,34.76727883207243,-2.9212480092134196,34.839631481548004,-3.1006640385685706,34.87557122318419,-3.2780823770652368,34.874016474355194,-3.453222925758437,34.83402852098122,-3.625821086275754,34.754807572193734,-3.7956274464928232,34.63568881500083,-3.9624074662088176,34.476138468952634,-4.12594116282193,34.27574984080662,-4.286022797004866,34.03423937919301,-4.442460558380319,33.7514427292801,-4.595076251196469,33.427310787439644,-4.743704980002457,33.0619057559122,-4.88819483532388,32.6553971974725,-5.028406579338268,32.20805809009483,-5.164213331550579,31.720260881618323,-5.295500254468678,31.1924735444124,-5.422164239278823,30.625255630042076,-5.544113591521155,30.01925432393336,-5.661267716765184,29.375200500038595,-5.773556806285267,28.6939047755018,-5.880921522736105,27.976253565324072,-5.983312685828221,27.347139200083546,-6.121114279405009,26.653058578521886,-6.251823005961456,25.895153485590093,-6.375171098547444,25.075005743729676,-6.490930521110467,24.194596157626496,-6.5989104733262,23.2562650319055,-6.69895499378683,22.262674234774266,-6.790940659549406,21.216770780623428,-6.8747743800463885,20.12175190459199,-6.95039128336063,18.981031602105563,-7.017752692867005,17.79820860639549,-7.076844192242905,16.57703577700704,-7.127673776849791,15.321390872304454,-7.170270089488065,14.035248678981095,-7.204680738527433,12.72265447158258,-7.2309706964149925,11.387698775050971,-7.249220776563275,10.034493403298027,-7.25952618662042,8.66714874681561,-7.261995156124749,7.289752282331127,-7.256747636545909,5.90634827751618,-7.243914071714824,4.520918663756346,-7.223634236644665,3.1373650499901515,-7.1960561427450696,1.7594918506252821,-7.161335007431786,0.39099050053998907,-7.1196322861340064,-0.9645752698222327,-7.071114764701582,-2.3037831262566737,-7.015953710214323,-3.6233648164921552,-6.954324078195629,-4.920217876768446,-6.88640377423264,-6.19141638628834,-6.812372968005143,-7.434220796536314,-6.732413457725427,-8.64608686245589,-6.646708082991337,-9.824673702477464,-6.555440184054699,-10.96785101438881,-6.45879310550738,-12.073705474040008,-6.356949742387147,-13.140546343875016,-6.250092126705594,-14.166910318281598,-6.13840105240031,-15.151565632751838,-6.0220557367135195,-16.093515463845037,-5.901233515999431,-16.99200064694505,-5.776109573962469,-17.846501738804026,-5.646856700328637,-18.656740451864525,-5.5136450779522255,-19.42268048735201,-5.376642096360053,-20.144527794129626,-5.236012189735495,-20.82273028030735,-5.091916697344493,-21.45797700459736,-4.944513744405753,-22.051196874407744,-4.793958141407374,-22.603556877666385,-4.6404012998721065,-23.11645987536713,-4.483991162573453,-23.591541981830055,-4.324872146204833,-24.03066955966806,-4.163185094504042,-24.433749436828364,-3.9985542609095974,-24.799603987402094,-3.830533912798546,-25.128683136545153,-3.6591568246916313,-25.42148663902482,-3.4844554696189256,-25.6785604642228,-3.306462286680202,-25.90049318113823,-3.12520994860531,-26.08791234339077,-2.9407316293145516,-26.24148087422366,-2.753061271479046,-26.36189345150676,-2.562233854081122,-26.449872892739602,-2.368285659974676,-26.506166540054462,-2.1712545434455572,-26.53154264521937,-1.9711801977719352,-26.52678675464122,-1.768104422784678,-26.49269809436878,-1.562071392427727,-26.430085955095755,-1.3531279223184693,-26.339766077163883,-1.141323737308113,-26.222557035565902,-0.9267117390420636,-26.079276624948687,-0.7093482735202965,-25.910738244616244,-0.48929339865773214,-25.717747283532823,-0.26661115184460815,-25.50109750532589,-0.04136981750685775,-25.26156743328927,0.1863578053335151,-24.999916735386126,0.41649413549806624,-24.716882609252067,0.6489565420915326" fill="none" stroke="black" stroke-width="2.2222222222222223" stroke-linejoin="round" filter="url(#fuzzy)"></polyline><polyline id="leftLower" points="35.55213093923518,-2.5789995397852357,35.347286003948774,-2.4152627140430143,35.100697676724856,-2.239093218339335,34.81480112523201,-2.0515521922649356,34.491937271574166,-1.8536692812213624,34.13435454525416,-1.6464430239083143,33.74421063613713,-1.4308412398109924,33.3235742474139,-1.2078014166874436,32.874426848564546,-0.978231098055907,32.398664428321744,-0.7430082706821612,31.898099247634264,-0.5029817520668667,31.37446159263039,-0.2589715779329187,30.829401527581382,-0.01176938971278263,30.264490647864907,0.23786117796414707,29.681223832928513,0.4891841097842118,29.08102099925302,0.7414906222621367,28.465228853316017,0.9940987762536855,27.83512264455529,1.2463530894683208,27.19190791833225,1.4976241489818447,26.536722268895403,1.747308223749065,25.870637092343777,1.9948268771164477,25.19465933959038,2.2396265793347574,24.509733269325643,2.481178320071738,23.816742200980848,2.718977220924738,23.116510267691595,2.952542147933382,22.40980416926125,3.181415324092222,21.552776897930002,3.4833129171504815,20.692352649115264,3.7781463692454604,19.829423043686006,4.06489839445378,18.96475155687472,4.342614789156663,18.098986304914405,4.610405022333006,17.23267217375083,4.867442654414794,16.366262304444096,5.112965589422376,15.50012894987314,5.3462761650971045,14.634573717357082,5.5667410857488795,13.769837211807243,5.77379120253613,12.906108094023558,5.966921145895733,12.043531568749344,6.145688814840393,11.182217317098091,6.309714727841041,10.322246887966186,6.458681240011733,9.463680563045344,6.592331631314578,8.606563710048585,6.710469070502264,7.750932638763541,6.812955459515639,6.896819974546967,6.899710163053904,6.044259563874178,6.970708628034964,5.193290926557323,7.025980897663401,4.343963269246251,7.065610024823656,3.496339074825812,7.089730389515885,2.650497282323389,7.098525925052065,1.8065360719404944,7.092228257729825,0.9645752698222329,7.071114764701581,0.1247583871784621,7.0355065547564175,-0.7127456916295609,6.985766376732333,-1.5477413574232044,6.922296460276294,-2.3800052463473627,6.845536293669686,-3.2092855172043846,6.755960343436601,-4.035301421367281,6.654075720452586,-4.857743150658308,6.540419797271292,-5.676271948579197,6.415557781386599,-6.49052047027914,6.280080249147697,-7.300093376646766,6.134600645044713,-8.104568147912302,5.979752751082288,-8.903496102146011,5.816188130958783,-9.696403604039256,5.644573553768521,-10.482793449354183,5.465588401944609,-11.262146410428358,5.279922068159904,-12.033922928120491,5.088271345903611,-12.7975649355834,4.891337818451027,-13.552497799250432,4.689825250944019,-14.298132362421548,4.484436990299654,-15.033867076835204,4.2758733776646105,-15.759090207612253,4.0648291781328165,-16.473182096958023,3.851991032443876,-17.17551747200882,3.638034935379812,-17.865467782208903,3.4236237455776033,-18.54240355160429,3.209404731475116,-19.20838835039378,2.994720165863149,-19.865650257442702,2.778719739394157,-20.513813107342344,2.5617410622178705,-21.152510072480002,2.3441110522520763,-21.781385620246365,2.1261453033714837,-22.400097470242933,1.90814745359659,-23.00831855148941,1.6904085532825572,-23.605738959631136,1.4732064333080732,-24.192067914146435,1.2568050732642275,-24.767035715554105,1.0414539696433813,-25.330395702620716,0.8273875040280254,-25.881926209568128,0.614824311279663,-26.421432523280785,0.403966647727672,-26.9487488405132,0.19499975935817337,-27.46374022509733,-0.011908749997096457,-27.966304565149976,-0.21660955047191655,-28.456374530280193,-0.41897221797672035,-28.9339195287967,-0.6188858660097107,-29.398947664915262,-0.816259777468006,-29.85150769596613,-1.0110240364587662,-30.291690989601427,-1.2031301601103177,-30.719633481002525,-1.392551730383293,-31.135517630087495,-1.5792850258817537,-31.5395743787185,-1.7633496536643298" fill="none" stroke="black" stroke-width="2.2222222222222223" stroke-linejoin="round" filter="url(#fuzzy)"></polyline><!--[--><circle r="4.603779432229638" cx="-1.5479053201418131" cy="4.7529461598247575" stroke="black" fill="none" stroke-width="1" filter="url(#fuzzy)" clip-path="url(#leftEyeClipPath)"></circle><circle r="4.314072269617759" cx="1.743459197988603" cy="2.629424607871739" stroke="black" fill="none" stroke-width="1" filter="url(#fuzzy)" clip-path="url(#leftEyeClipPath)"></circle><circle r="3.2470395017712383" cx="2.1002957698076363" cy="4.985848598958008" stroke="black" fill="none" stroke-width="1" filter="url(#fuzzy)" clip-path="url(#leftEyeClipPath)"></circle><circle r="4.425669125254761" cx="0.48150708662761055" cy="1.0833082132015326" stroke="black" fill="none" stroke-width="1" filter="url(#fuzzy)" clip-path="url(#leftEyeClipPath)"></circle><circle r="4.784383262301469" cx="-1.1466272001070432" cy="3.9118027522190992" stroke="black" fill="none" stroke-width="1" filter="url(#fuzzy)" clip-path="url(#leftEyeClipPath)"></circle><circle r="4.606108415065537" cx="-0.28165918430223247" cy="3.654656558759873" stroke="black" fill="none" stroke-width="1" filter="url(#fuzzy)" clip-path="url(#leftEyeClipPath)"></circle><circle r="3.808205769553929" cx="-1.375543296991002" cy="2.4647131529275788" stroke="black" fill="none" stroke-width="1" filter="url(#fuzzy)" clip-path="url(#leftEyeClipPath)"></circle><circle r="3.807708721675175" cx="-0.33043974649386243" cy="0.9200512293148302" stroke="black" fill="none" stroke-width="1" filter="url(#fuzzy)" clip-path="url(#leftEyeClipPath)"></circle><circle r="3.598579897216535" cx="2.923257131227671" cy="3.7774485047926563" stroke="black" fill="none" stroke-width="1" filter="url(#fuzzy)" clip-path="url(#leftEyeClipPath)"></circle><circle r="4.548495357827054" cx="2.040637528939948" cy="3.4112339576296256" stroke="black" fill="none" stroke-width="1" filter="url(#fuzzy)" clip-path="url(#leftEyeClipPath)"></circle><!--]--></g><g id="hairs"><!--[--><polyline points="3,-96,3.264116118331421,-96.54459349236001,5.066051761400381,-96.5320620093899,7.216665312505274,-96.32204967107104,9.145931911660334,-96.1154747931989,10.733441166503047,-95.97064887743632,12.03157183391335,-95.87503861985995,13.109823193833076,-95.79778567497321,14.003467877968696,-95.71696766970464,14.712610244750977,-95.62871170043945,15.214602656214215,-95.5435558135564,15.475063136580012,-95.47554592273336,15.452810642822424,-95.43269641064339,15.091227439495034,-95.41823437130111,14.286212205069777,-95.44602189519813,12.835902226004183,-95.56172684176708,10.416639286674993,-95.84857011272626,6.702708454624362,-96.37867618666405" fill="none" stroke="rgb(167, 133, 106)" stroke-width="2" stroke-linejoin="round" filter="url(#fuzzy)"></polyline><polyline points="64,-66,63.764793739161334,-66.08096395832364,63.953102921485,-65.36902967370065,63.86768122065401,-64.62670250548413,63.30569447863395,-64.1297783951908,62.20183049251076,-63.97026012695121,60.53121498090022,-64.14979030660203,58.28501433905929,-64.61732095120219,55.455741619683444,-65.31364928886973,52.031961165842816,-66.20872980814752,48.00253328689777,-67.31494568392921,43.35899494945012,-68.68076653940992,38.088006322754175,-70.37519141013819,32.15804621211617,-72.46490137153405,25.508250954261207,-74.98403083457458,18.038956329903783,-77.90970573777298,9.60306922089339,-81.16863631992561,0.03320545123616192,-84.69161089622912,-10.688894378306081,-88.5206376998717" fill="none" stroke="rgb(167, 133, 106)" stroke-width="2" stroke-linejoin="round" filter="url(#fuzzy)"></polyline><polyline points="3,-96,3.2125980118088133,-96.5548887075867,4.875162303828776,-96.5697195588177,6.8005620216969,-96.39208756932946,8.383889482414816,-96.22519509983249,9.477083015388788,-96.1309627632134,10.128429278954314,-96.09591813659826,10.416655586964874,-96.08499581848932,10.378166198730469,-96.0709228515625,9.992307684341679,-96.04317518375261,9.198350905031813,-96.00310446103612,7.924965916052108,-95.95275809133284,6.110295534774195,-95.88792101922445,3.686973119843361,-95.80867316037859,0.5185958433460707,-95.75027104780756,-3.7285356389730717,-95.7974226674126" fill="none" stroke="rgb(167, 133, 106)" stroke-width="2" stroke-linejoin="round" filter="url(#fuzzy)"></polyline><polyline points="17,-95,18.4487724424498,-94.9315835127232,19.7328244322292,-94.67139490260483,20.86867452985382,-94.29144545205378,21.632954322288434,-93.86271162486743,21.955701641845963,-93.41900194994946,21.86084159853709,-92.97718411104245,21.364899018082603,-92.54895446256987,20.43801676060682,-92.14059064785815,19.025035172635338,-91.7500604968409,17.08758020401001,-91.3696608543396,14.625337215426587,-90.99429884767432,11.657545125061828,-90.62734671887719,8.18032047298709,-90.27563125553019,4.137693032772747,-89.93543549528803,-0.5652615141491424,-89.58478984381577,-6.015816687095375,-89.19758072856843,-12.257175133248056,-88.76972657224835,-19.309437443978297,-88.31023524157264,-27.242808763090153,-87.76286863195519" fill="none" stroke="rgb(167, 133, 106)" stroke-width="2" stroke-linejoin="round" filter="url(#fuzzy)"></polyline><polyline points="-12,-95,-10.698729749376218,-95.59172669867246,-8.632388867962137,-95.75776416327446,-6.171700660898142,-95.7597529836664,-3.6089046861271594,-95.72872034443196,-1.0489823841296522,-95.70335089617113,1.5010546600674668,-95.66407047424669,4.051494172290547,-95.57348771012659,6.586008262422185,-95.41065594042125,9.058760328219414,-95.18656633216038,11.421232656514075,-94.93695813697087,13.648826922263172,-94.70072966672026,15.73493520521934,-94.50261426559095,17.644134278304364,-94.35635532629254,19.25506802999573,-94.2833990224168,20.33523835614867,-94.31974047121953,20.507965992337155,-94.50715709684376" fill="none" stroke="rgb(167, 133, 106)" stroke-width="2" stroke-linejoin="round" filter="url(#fuzzy)"></polyline><polyline points="40,-87,40.36905096044946,-86.91905915002297,41.21334206242302,-86.52553850072601,42.08428506603685,-85.92218187979866,42.74633679957219,-85.30917120311979,43.17531446091745,-84.78944705013214,43.40313866682439,-84.37850184565389,43.42935286715787,-84.05875655661276,43.21790313915063,-83.811321711851,42.72242885241821,-83.62659402877763,41.90334517954465,-83.50672308232421,40.731733864856814,-83.46574649708246,39.18549759378975,-83.52899109036406,37.24162248046773,-83.73137272420213,34.869129427385026,-84.11138155043909,32.030173774510914,-84.69771426320669,28.6926206589632,-85.49274109802329,24.844022673830178,-86.46656858930837,20.486188281134933,-87.57574647403439,15.598776824445826,-88.80417794076695,10.093488865481868,-90.19662149312957,3.8139679825387187,-91.83987146724029,-3.351462028248812,-93.7829398845114" fill="none" stroke="rgb(167, 133, 106)" stroke-width="2" stroke-linejoin="round" filter="url(#fuzzy)"></polyline><polyline points="69,-59,69.45204756018441,-57.52725587563634,69.28277616106979,-56.51521267146653,68.62004856223811,-55.75132623303296,67.38189482572514,-55.30657220317716,65.4870534532689,-55.26453562280457,62.89122811295958,-55.6297415855051,59.56234988344665,-56.36437419824083,55.46768434795121,-57.44036098254246,50.581478118896484,-58.855247497558594,44.890669219138935,-60.617894451630306,38.38855510000752,-62.73273116807448,31.07121439224313,-65.20499195126462,22.951727322086573,-68.06548155267267,14.072943422955632,-71.38738825584377,4.467032315853288,-75.26302705525357,-5.950671058788213,-79.73987348818669,-17.41846644679881,-84.74896987368982" fill="none" stroke="rgb(167, 133, 106)" stroke-width="2" stroke-linejoin="round" filter="url(#fuzzy)"></polyline><polyline points="64,-66,63.809937433349084,-66.03302354396209,64.11513850293048,-65.19221044429416,64.21868023752874,-64.23904550217547,63.93241140432376,-63.43845647211221,63.20998579139581,-62.8719692285376,62.05012910817868,-62.52763145343833,60.46868835077484,-62.34419534892034,58.48145925399404,-62.259956982066434,56.09327126129922,-62.24732772008045,53.29280873500976,-62.31943967033158,50.05203107573443,-62.51557882215056,46.331097304821014,-62.87981563806534,42.08804522112015,-63.44384645060856,37.28771539091217,-64.21937298465903,31.903751274588508,-65.2005830251221,25.91420918165325,-66.37316607276695,19.299289594510366,-67.72385388861065,12.0492488771425,-69.24614889922458,4.179386233851442,-70.94368358198241,-4.2624062470762105,-72.83777169136694,-13.205242436258455,-74.98264223721358,-22.564263805241737,-77.47718605395593,-32.21090452592208,-80.44965006760067" fill="none" stroke="rgb(167, 133, 106)" stroke-width="2" stroke-linejoin="round" filter="url(#fuzzy)"></polyline><polyline points="14,-96,14.477738645590748,-95.70195507390157,14.863068427635802,-95.16803910545008,14.628078211445565,-94.56228341177393,13.743805013168858,-93.83233678105442,12.200955375904254,-92.89624085421055,9.893044039988018,-91.70731427296708,6.667490523485956,-90.26044486293296,2.4122416420980866,-88.57227380370935,-2.912877230935244,-86.65424176549723,-9.313169428166196,-84.49809693983428,-16.812445383595502,-82.08867712333097,-25.461044848217306,-79.43467166502748,-35.28371540236863,-76.5720590754904,-46.21391128298513,-73.48390300055078" fill="none" stroke="rgb(167, 133, 106)" stroke-width="2" stroke-linejoin="round" filter="url(#fuzzy)"></polyline><polyline points="57,-74,58.804269574377514,-72.09823184627326,59.449533783344975,-71.116403251042,59.561793005549866,-70.35995693236306,59.26215870559405,-69.68920121984524,58.534882240765064,-69.13702024937277,57.35246192344511,-68.74146242078044,55.68566561474014,-68.51870942536092,53.49275189512059,-68.48378817911411,50.725379353491505,-68.66263389067177,47.346729662557046,-69.08319440177459,43.34388653399323,-69.75689452328956,38.72384672384802,-70.66769872314845,33.49862699880734,-71.7807214997235,27.675641382482816,-73.0690373364059,21.26198528421562,-74.54244151882132,14.267302106467236,-76.25602839981335,6.676160104993258,-78.28554303192846,-1.6087623897977075,-80.67407948377208,-10.788874602071227,-83.36952242198043,-21.111940823568585,-86.1958274252537" fill="none" stroke="rgb(167, 133, 106)" stroke-width="2" stroke-linejoin="round" filter="url(#fuzzy)"></polyline><polyline points="-11,-96,-9.383239872356285,-95.88841419346623,-7.49801186623645,-95.81506885730211,-5.837792668062079,-95.84709813711159,-4.40069737776194,-95.95307690206177,-3.0987745236404,-96.05060821569484,-1.8582619788827992,-96.0648943774421,-0.6556682634091576,-95.97799777561993,0.4952023091777311,-95.8301760015086,1.598525632872711,-95.678491722879,2.732696696098036,-95.54684302609665,4.050039882736221,-95.4007379529776,5.676607276992312,-95.16513752681624,7.532456965575169,-94.7911068530257,9.260955527259853,-94.36581914262106,10.797528708594639,-94.2329778204623,-50.99314618101809,-116.74746625654141,-48.029661269232264,-115.42593599992185,-45.460380205262936,-114.77532477476386,-43.15442635219528,-114.29442792670547,-40.93542450055336,-113.59091390656248,-38.768216592332735,-112.6436822500448,-36.752471034217855,-111.64543051264874,-34.97515188106392,-110.76259327808002,-33.407361499834934,-110.0005141338388,-31.925432810376613,-109.25631636807837,-30.410215669373297,-108.48119312289026,-28.82505269753122,-107.78683316387111,-27.207014285307423,-107.37858975690797,-25.58757168080086,-107.34365781686554,-23.923345070210125,-107.46493325427889,-22.11360808082924,-107.25463268866427,-20.10547864453181,-106.25065316098234,-17.995582683187823,-104.3720744931075,-16.01347095369349,-102.00062009274218,-14.36586682297963,-99.65224165279326,-13.075438123215593,-97.59482904961685,-11.996198160017952,-96.07591417827186,-11,-96" fill="none" stroke="rgb(167, 133, 106)" stroke-width="2" stroke-linejoin="round" filter="url(#fuzzy)"></polyline><polyline points="-15,-95,-15.230281538383647,-99.7118474046856,-14.451960011289735,-100.15625969433734,-13.52682171615424,-99.97548108253402,-12.506992836295826,-99.92938861676737,-11.300393918377484,-100.05833841828378,-9.884646196570381,-100.43962920766683,-8.331009036309322,-101.26932759871883,-6.7528917808443785,-102.73343601304342,-5.239717161262032,-104.87797054271998,-3.8142747262890886,-107.54929530374123,-2.433791049709748,-110.41655052228182,-1.03752720704838,-113.08739720319221,0.3773755159090763,-115.34953171115893,1.6933912893187815,-117.47166681372832,2.6373343527638746,-120.07752000983788,2.52602732026044,-122.51232503263134,-21,-93,-21.870190473558267,-92.97543234108014,-22.733043603210433,-92.77186153447754,-23.79753003740869,-92.371980157458,-24.935298308485073,-91.91448068808798,-25.988248978053164,-91.51420509779996,-26.9437025857862,-91.1924439581294,-27.889158276736943,-90.90247614754693,-28.912953522327005,-90.58117842166446,-30.051566705209854,-90.18538417222541,-31.294617134360216,-89.70199875090286,-32.614824497556086,-89.1392985963079,-33.989121300895775,-88.51313426879096,-35.39789304053906,-87.83879556461861,-36.81115902860763,-87.13206724821657,-38.1796774580495,-86.41637342071269,-39.442511849088625,-85.72876515672581,-40.54831346039245,-85.11519559373555,-41.48077612542812,-84.60518583766282,-42.29878843945341,-84.15789757704299,-43.26160681207412,-83.5668243613665,-45.15649411732338,-82.28516705823371,1.16312049307033,-112.82268782782201,0.23463495249489136,-112.39207219569687,-1.2899843609424817,-110.78813440777503,-2.8026986714110027,-109.50567583681664,-4.333097917427528,-108.89646041820414,-5.942796514040349,-108.60457478400274,-7.6048852094308605,-108.20812232693652,-9.234876556765393,-107.53123648499079,-10.749308815872263,-106.62314968206647,-12.112529777789577,-105.62900466689301,-13.355362043436516,-104.69573380712603,-14.560643968947087,-103.9238111624993,-15.822568271382154,-103.33052413319467,-17.197612134994053,-102.82187257013477,-18.671230999213314,-102.20817287208462,-20.162487126197462,-101.29202223804693,-21.573445216350102,-100.00306540732315,-22.85981633153983,-98.48834725193707,-24.065220865490907,-97.04683890782793,-25.255389717519474,-95.87698817582938,-26.356286790582583,-94.80432591220719,-27.063393636608016,-93.38629729149862,-27.138768323473755,-91.72495402591973,-27,-91,-10.368912616140635,-99.5415611149501,-11.34145394873092,-99.26302852153606,-12.236644494214328,-98.80249262325437,-13.091137154030353,-98.34890025106812,-14.028984622839836,-97.93280250136881,-15.152937887876524,-97.49871959193905,-16.491251957934303,-97.00620592734538,-17.989002132599786,-96.4736379237516,-19.54204188190383,-95.95063918394172,-21.05297868193069,-95.47263193486177,-22.470162964779846,-95.04220620528469,-23.785250320049215,-94.6412403992139,-25.001243975646616,-94.25056671190929,-26.107816780097952,-93.85438429709734,-27.09181876871125,-93.4263872085677,-27.975001604972032,-92.91751214105905,-28.8385450524007,-92.27313084969542,-29.7948367117815,-91.48557071405229,-30.90639229058709,-90.6386114907463,-32.112337640738616,-89.86049031674754,-33.312031593758704,-89.13195335509445,-35,-88,-36,-87,-35.2903690317002,-89.42742331649448,-33.94237131185928,-90.24342444238563,-32.6965549422145,-91.08903600455713,-31.5493784083312,-92.1296550669744,-30.501240092671818,-93.20600421096239,-29.579885217982337,-94.18013110477592,-28.75288209051341,-94.9821999749882,-27.918784659810463,-95.60662171354124,-26.974021010200943,-96.09858212339692,-25.884682988237735,-96.5274499473138,-24.6951088222901,-96.96010335084094,-23.456594590945134,-97.4505219525622,-22.134520446811912,-98.04960543795207,-20.602343557315805,-98.83164587979486,-18.802338618236348,-99.91513249697559,-17.037398955962544,-101.37380101036118,-16.2366510826278,-102.83212352330942" fill="none" stroke="rgb(167, 133, 106)" stroke-width="2" stroke-linejoin="round" filter="url(#fuzzy)"></polyline><polyline points="-52,-76,-51.52706265871111,-78.59118303069172,-50.529490670014226,-80.12530444747684,-49.88984030711092,-81.72621346101866,-49.584937618397845,-83.97773143089773,-49.401486024694925,-86.75323316387889,-49.08231493026784,-89.45491344813911,-48.47161498308556,-91.55290643878345,-47.5767482747609,-92.92078492942831,-46.51324294143914,-93.8149543084562,-45.41452550913212,-94.66606820568038,-44.37917586997511,-95.87899342575605,-43.45961110306776,-97.70963710599449,-42.66188850267009,-100.20305269885962,-41.946052380665556,-103.1953012764568,-41.24403331987831,-106.41514002645715,-40.50146154331294,-109.66925607026917,-39.70899663055486,-112.96803566141784,-38.8782250064967,-116.3928299570438,-37.9811611963989,-119.6740019151356,-36.96991898522448,-121.83824406614866,-36.195455020696016,-121.99208914382731" fill="none" stroke="rgb(167, 133, 106)" stroke-width="2" stroke-linejoin="round" filter="url(#fuzzy)"></polyline><polyline points="-57,-72,-62.64638379551942,-77.1041033862662,-62.64017487704955,-75.33178473605679,-62.539785839901306,-73.1403259268002,-63.55379068192413,-71.95056497633077,-65.54712457265376,-71.69735368024081,-67.96422002989463,-71.91420970028464,-70.24015895389628,-72.13117013480829,-72.12613356283056,-72.12629230475451,-73.78759162995333,-71.97910605293491,-75.57719916303967,-71.88790984485385,-77.68336018188509,-71.93669713426021,-79.99582487649407,-72.05761491457702,-82.32578993486975,-72.21629572530851,-84.7199661841583,-72.52835604471227,-87.42326141385678,-72.94720552357536,-90.43927908144593,-72.67941573232646,-93.33519773675832,-70.66807828640272,-97.04558704792932,-30.71062881263586,-95.36591860531905,-32.40484620236293,-93.43134848862235,-33.6685819676132,-91.41347942204229,-34.501618664749785,-89.57708003745276,-35.22198860125184,-87.9513896466671,-36.04353424836255,-86.56628956184296,-37.05495836601998,-85.5355490813091,-38.29386374742286,-84.95721436464706,-39.758759782192286,-84.7963383106163,-41.37833559448178,-84.87171769408855,-43.01349208827478,-84.93236779736519,-44.510741503381915,-84.72394252104984,-45.75531193181679,-83.99070552135655,-46.67514668280243,-82.4867157777711,-47.21867379206922,-80.12642846477769,-47.380326614443135,-77.25647772220447,-47.29262177149392,-74.72951834255656,-47.267190478660446,-73.35084461192065,-47.597430628538554,-73,-48,-75,-42,-73.35515662552699,-44.6109447174706,-71.97473868376174,-45.35505807019001,-70.54168569562842,-45.61728247422885,-69.11582753021864,-45.91824664743421,-67.81683927455603,-46.46901851365759,-66.82406561712507,-47.38878584155232,-66.23091254619251,-48.69989093432211,-65.93981983084053,-50.28914455942569,-65.70940130213087,-51.92309890935017,-65.30096060975578,-53.334249033687385,-64.60155164211204,-54.350340264588056,-63.63550034192161,-54.99791223960501,-62.46859450611846,-55.49702619338931,-61.09477961595718,-56.11773958654574,-59.41680291370375,-56.94548581278495,-57.380043390413555,-57.380043390413555" fill="none" stroke="rgb(167, 133, 106)" stroke-width="2" stroke-linejoin="round" filter="url(#fuzzy)"></polyline><polyline points="-74.80410477788827,-61.794695251299004,-73.24199707010811,-61.44185122497441,-73.39173401437948,-59.78145979815649,-74.12703868621965,-58.05632296545355,-74.99342608444677,-56.52922504195333,-75.72740397029654,-55.06859124382999,-76.17858859326351,-53.54739226901329,-76.32848208851291,-51.95572083373052,-76.29059626374682,-50.36077275460878,-76.24936714160123,-48.83501622315915,-76.35066991550276,-47.40863696505278,-76.60449935423092,-46.060558252686945,-76.87212049566038,-44.7434307608195,-76.96624909018087,-43.42507501186939,-76.8086975425542,-42.11557891764258,-76.52117680970646,-40.8408329703859,-76.34976441762312,-39.53302098771363,-76.48275495796413,-37.853341663707624,-77,-35" fill="none" stroke="rgb(167, 133, 106)" stroke-width="2" stroke-linejoin="round" filter="url(#fuzzy)"></polyline><polyline points="95.95398603048243,-4.738468445949749,94.73398730067082,-6.782012394035566,93.28184883593319,-8.394112799945347,92.05368593441109,-9.653735345651166,91.16074076290904,-10.793624798972962,90.56848394334544,-12.020878577253491,90.07707489305629,-13.40291466731544,89.47770129412353,-14.891880997634578,88.69566888830448,-16.413966506488148,87.79034774590887,-17.930988516723072,86.85792518513058,-19.442928708008385,85.94729948873012,-20.95625562324812,85.04767574955673,-22.45675623370304,84.128319955499,-23.907455915108756,83.17958048838342,-25.26807016787963,82.22660023871327,-26.51942523558936,81.32119903438965,-27.676656868941997,80.52496203257,-28.783410524294677,79.88174062916787,-29.89093835097046,79.37749678467247,-31.03671099705355,78.91885595454579,-32.23833695085899,78.3872284384997,-33.501342944079965,77.75475048481138,-34.80902950227477,77,-36,72,-51,74.25424685845888,-50.03731577082437,75.60481205558665,-49.17238016999847,76.27730002006186,-48.08147841394258,76.83664038617357,-46.96415300778713,77.49259821627929,-45.86611645646358,78.20819896109624,-44.715628534341974,78.9133315335505,-43.45436826200091,79.62323779888224,-42.095712839831045,80.43300347501457,-40.709657533759035,81.43105593870196,-39.371428097131215,82.61092049593172,-38.114059009574326,83.85000796402358,-36.91575518444425,84.96867190514612,-35.72774137274971,85.82747676093237,-34.51696298924784,86.42088922832242,-33.2849872375957,86.96973891436375,-32.04168203874224,87.96069467067733,-30.735042634312528,89.73582034942035,-29.164141613561615" fill="none" stroke="rgb(167, 133, 106)" stroke-width="2" stroke-linejoin="round" filter="url(#fuzzy)"></polyline><polyline points="73.74241876167439,-33.08954688023851,73.33645027110379,-34.38861216162901,73.11231590607956,-35.963522124350305,72.98331837799438,-37.588221297657945,72.92030593764432,-39.189439565008335,72.90622627844819,-40.74822354542774,72.93580636843475,-42.25866974562008,72.96484266399322,-43.70420649391031,72.9045048421173,-45.0587833020851,72.68348745465647,-46.3103078458821,72.31480236107315,-47.48335558760627,71.89451645917929,-48.6375753072549,71.52081335527951,-49.84193610961742,71.19897058218949,-51.14790412642075,70.8279355469556,-52.57382916156945,70.31651931877428,-54.07644034809618,69.80079133744206,-55.52458918188137,70,-57,68,-60,67.1052056549136,-59.07025028715734,65.65606853336016,-57.11278189996013,64.683427617201,-55.05745397092728,64.54297859403911,-53.39640545790631,65.13292507983026,-52.179122085105796,66.04327308943887,-51.16610380261692,66.74350018247087,-50.029336976493006,66.85357971182174,-48.55286801705252,66.35414956701459,-46.74879579694481,65.58459847288286,-44.836449606641345,65.01126052963384,-43.10195871163294,64.9005119954896,-41.71464987581206,65.11088859107622,-40.607522300335695,65.1845358278794,-39.51606887306641,64.74352211018365,-38.148993493603356,63.72083862088343,-36.05257974602615" fill="none" stroke="rgb(167, 133, 106)" stroke-width="2" stroke-linejoin="round" filter="url(#fuzzy)"></polyline><polyline points="66,-63,66.46270612093204,-62.25209751153714,67.10224176758699,-61.13942591273727,67.63112832114285,-60.201396698870326,68.12222840996142,-59.344132921509356,68.64080836511734,-58.40606386926238,69.19752856336218,-57.314265503470025,69.7821245244454,-56.077641219884924,70.38352690750091,-54.75023047108999,70.9877164426633,-53.403499505071366,71.57540059440349,-52.10177490406094,72.1318751197554,-50.876518014510765,72.65823432931073,-49.71339320014231,73.16436991497314,-48.568463256921554,73.64142655622415,-47.406864679957096,74.03850706680372,-46.238126221308036,74.27303490800625,-45.163215653622686,74.29381986773915,-44.57629192064349,22.750429741382195,-113.75214870691097,25.847530035061823,-111.78743209301872,27.534020470007377,-109.92225148802072,28.806733527946363,-108.30296338941054,30.145495380988333,-107.19499415630585,31.63985759175874,-106.55043472324296,33.1702368376914,-106.11230299913944,34.58683724943792,-105.60593255465503,35.79779773111719,-104.8102452041781,36.77625871463202,-103.56268820891604,37.54251803685922,-101.78847025005268,38.157442504237274,-99.55829084864855,38.724683654818556,-97.11531671685725,39.38059769667536,-94.82351231081554,40.25880524465761,-93.04231728906193,41.43519983341607,-91.97521346155177,42.87235481159807,-91.55132243584775,44.38857078274664,-91.3943704049309,45.68637831521022,-90.92858125590153,46.48318365546284,-89.64715857984925,46.7460896790573,-87.47182246508422,46.873739459523655,-84.94594952881337,47.41794523340669,-82.91505073869381,48,-82,48,-82,47.559693750625776,-80.55768048621307,48.26531612463443,-79.92298917625646,49.26121244791286,-79.14289706227072,50.31749834877215,-78.18730107571007,51.39970618309644,-77.14895066576236,52.49411199254687,-76.11462122425421,53.537927538885434,-75.14386549118684,54.43765195860272,-74.24874184360938,55.13004607400523,-73.38495025364149,55.628891763688124,-72.46727779578812,56.02581314052623,-71.41058387887044,56.44541924841284,-70.1906829180209,56.9770554993822,-68.8982838643349,57.62105823782608,-67.71090721566911,58.28354016006243,-66.67752912972018,58.73859259062114,-65.3703691734332" fill="none" stroke="rgb(167, 133, 106)" stroke-width="2" stroke-linejoin="round" filter="url(#fuzzy)"></polyline><polyline points="45,-84,43.7391806219299,-82.76798433731582,42.38618089329281,-81.83155012645189,41.097961698696906,-81.81718147360327,39.80927349206346,-82.086949840457,38.48368835288198,-82.28061556448735,37.158558109141694,-82.44955841468285,35.89038188108498,-82.74812600630459,34.68665353483458,-83.17531218854656,33.48787635722811,-83.52816876798438,32.21443254843515,-83.5355674378349,30.83414000643407,-83.0463566454043,29.386205153888405,-82.13715312823929,27.934545026557892,-81.06357474219178,26.489576760326685,-80.07624112252844,24.984066783921445,-79.23335809432878,23.376800198927345,-78.41714552167377,21.845310533055454,-77.63766707946709,20.68478845132172,-76.94741303891679" fill="none" stroke="rgb(167, 133, 106)" stroke-width="2" stroke-linejoin="round" filter="url(#fuzzy)"></polyline><polyline points="41,-87,42.346433597514086,-85.28495583695904,42.78081653677614,-83.01292048521853,43.13848441302958,-81.29586171899737,43.829716286326175,-80.27241696735832,44.668385206670656,-79.44355108434227,45.31597308306624,-78.26828260867262,45.615990959776795,-76.51161760092127,45.66420064699747,-74.30459197349488,45.698348045047915,-71.99774159002389,45.93890600429463,-69.92652732824749,46.466814663679656,-68.21911789193857,47.15643447422188,-66.7409365048355,47.6662277216914,-65.19102402080897,47.591998722330466,-63.305513979162,47.0599030226166,-61.095312696028564,4.836566092652789,-117.28672774683014,8.788644551043754,-116.9262526443479,10.770436742522973,-115.55878102738748,12.079765778716393,-113.93145027364501,13.130273477124986,-111.99567042241442,14.094999236395452,-109.88945559851523,15.072531353893684,-107.92697934781064,16.102791168126114,-106.2723516071091,17.172594327421955,-104.81624541795946,18.252256548473607,-103.32308822005166,19.338865614579717,-101.64811257105657,20.466155861153545,-99.83507820606897,21.67234778042555,-98.06781976176516,22.96029815708287,-96.5732941795982,24.297909951254535,-95.56254832535399,25.672187184829177,-95.18991908465142,27.138553719751066,-95.39962133991051,28.7273808442802,-95.38630751721465,30,-92,26,-93,28.04516847584993,-94.32690565539464,29.60337210143279,-93.69693648976923,30.805538068426618,-92.85798280783209,31.903539441460428,-92.37061093385462,33.086341562743215,-92.2654948395319,34.42174118456753,-92.39701656469569,35.87942524082028,-92.59503546801517,37.38583076674185,-92.71524825022662,38.87159593053157,-92.66086759230757,40.29948838562394,-92.4025947644764,41.67331837436393,-91.98695922194655,43.02707673849569,-91.51551191459545,44.39759149408836,-91.0965495684532,45.798351927845914,-90.79458819306805,47.218345182134364,-90.60775909972257,48.64755990516927,-90.48421399859924,50.08947645137944,-90.35788125843196,51.51124943651613,-90.15944814070876,52.77006344685536,-89.7669810575075,53.736280591677165,-88.96708558164559,54.844349224456344,-87.75095875913016,17,-95,18.957625995419622,-97.12555221036428,20.45391055120828,-96.62872443682629,22.067843809427227,-96.0387045073106,23.749660290353663,-96.03670225148355,25.419305503966527,-96.46284632058585,27.04826406304412,-96.9404361618595,28.641144431180884,-97.25240068706233,30.20760865522887,-97.42997635651773,31.75161204201288,-97.63956392974752,33.284313423683145,-98.0296557709559,34.83845791347353,-98.64098548448874,36.45264358738699,-99.38769694060504,38.12429464765172,-100.0781400553143,39.78061122867787,-100.46483101637621,41.33708715232723,-100.3482037840956,42.84550103967545,-99.77646202873895,44.521365246723896,-99.3329951013992,46.03733188634116,-100.13119685279202" fill="none" stroke="rgb(167, 133, 106)" stroke-width="2" stroke-linejoin="round" filter="url(#fuzzy)"></polyline><polyline points="25.956440668192943,-88.4441682027315,25.170865678381357,-89.59052315998906,24.268445068227805,-90.4607777698696,23.137367365536484,-91.19310362140392,21.797786140514873,-91.81358968798301,20.380194846510598,-92.3672342727935,19.006550178192303,-92.90220965866067,17.727521859866027,-93.435622096309,16.53466120752631,-93.9447356367323,15.399303179083212,-94.38286075010906,14.297773234945705,-94.70642237266138,13.214167890466515,-94.90210261613998,12.130747896069526,-95.00501896962878,11.014740402093071,-95.09722480115951,9.804087234058123,-95.27749481591145,8.402283896243253,-95.60596764645757,6.718776251305472,-96.04731452745128,4.8168002321491175,-96.4447917573991,3.197741100963809,-96.53557001676143,3,-96" fill="none" stroke="rgb(167, 133, 106)" stroke-width="2" stroke-linejoin="round" filter="url(#fuzzy)"></polyline><!--]--></g><g id="pointNose"><g id="rightNose"><!--[--><circle r="2.789214497994614" cx="11.020083817920707" cy="33.568362022719654" stroke="black" fill="none" stroke-width="1" filter="url(#fuzzy)"></circle><circle r="2.0186583727644916" cx="11.786575524291138" cy="33.62959234673987" stroke="black" fill="none" stroke-width="1" filter="url(#fuzzy)"></circle><circle r="1.3150565143339124" cx="11.782101023578981" cy="35.63271701414593" stroke="black" fill="none" stroke-width="1" filter="url(#fuzzy)"></circle><circle r="2.3628648395085508" cx="8.278350587950062" cy="32.75829067685097" stroke="black" fill="none" stroke-width="1" filter="url(#fuzzy)"></circle><circle r="2.3969816738269474" cx="9.951009445573582" cy="33.90045330929135" stroke="black" fill="none" stroke-width="1" filter="url(#fuzzy)"></circle><circle r="1.0279007633561499" cx="11.59317109737023" cy="34.155061129326526" stroke="black" fill="none" stroke-width="1" filter="url(#fuzzy)"></circle><circle r="1.2824934064186977" cx="11.219341243774178" cy="33.679058507879624" stroke="black" fill="none" stroke-width="1" filter="url(#fuzzy)"></circle><circle r="1.235963156720992" cx="8.625781590638313" cy="34.10464281636344" stroke="black" fill="none" stroke-width="1" filter="url(#fuzzy)"></circle><circle r="1.1576919838551967" cx="8.108123761621274" cy="33.159347036291344" stroke="black" fill="none" stroke-width="1" filter="url(#fuzzy)"></circle><circle r="2.3273135999012835" cx="9.49030549112966" cy="36.213282603169596" stroke="black" fill="none" stroke-width="1" filter="url(#fuzzy)"></circle><!--]--></g><g id="leftNose"><!--[--><circle r="2.875610682567501" cx="-10.87397603517326" cy="36.29675005104809" stroke="black" fill="none" stroke-width="1" filter="url(#fuzzy)"></circle><circle r="2.729801264358706" cx="-11.956683698838912" cy="38.766302642956994" stroke="black" fill="none" stroke-width="1" filter="url(#fuzzy)"></circle><circle r="2.6248497211231494" cx="-10.415586841242732" cy="39.29271678916831" stroke="black" fill="none" stroke-width="1" filter="url(#fuzzy)"></circle><circle r="2.36102417754384" cx="-11.269281400179725" cy="38.916729796688244" stroke="black" fill="none" stroke-width="1" filter="url(#fuzzy)"></circle><circle r="1.098687706543727" cx="-13.412665219273954" cy="35.79643447450165" stroke="black" fill="none" stroke-width="1" filter="url(#fuzzy)"></circle><circle r="2.5591207390185136" cx="-13.496219605066713" cy="36.915885613087596" stroke="black" fill="none" stroke-width="1" filter="url(#fuzzy)"></circle><circle r="2.0141049108708584" cx="-12.739053469453587" cy="37.88321439523187" stroke="black" fill="none" stroke-width="1" filter="url(#fuzzy)"></circle><circle r="2.3025769429139706" cx="-10.975112064859207" cy="37.58007528209008" stroke="black" fill="none" stroke-width="1" filter="url(#fuzzy)"></circle><circle r="2.6986890600522266" cx="-14.093256150306555" cy="36.51068330242357" stroke="black" fill="none" stroke-width="1" filter="url(#fuzzy)"></circle><circle r="1.9492437938936664" cx="-11.809929530219542" cy="37.60575502143047" stroke="black" fill="none" stroke-width="1" filter="url(#fuzzy)"></circle><!--]--></g></g><g id="mouth"><polyline points="33.10898687512791,58.359301372873354,33.40474403387731,60.10769217312577,33.27567178567904,59.98650338821739,33.41126680458762,59.79173225700889,33.12862212612245,61.32346656551875,33.238321960476924,60.7745216561056,33.079401638377334,61.5436820904874,33.103806336220174,61.6161112843974,33.12023042367784,61.82863968710461,32.756578598545126,62.70022689987365,32.63063122974772,63.12081984244498,32.66926221557583,63.402140645937585,32.010547400662304,64.54815319697887,31.525066510927182,65.45894509852717,31.285186264596174,65.7777026030158,31.020642469994023,66.17005047891786,31.012101141777997,66.42285905195924,30.022808777781513,67.54943696880527,29.77570222981528,67.83182252936602,30.01868110336983,67.55030678862651,29.977407702169813,67.61898033097924,28.05320313938214,69.42778327124665,28.987087522490288,68.5567240853796,28.42066222444888,69.16865936517037,26.98383186529436,70.36806683521465,27.16491948313456,70.21815946120567,26.71048044928851,70.50292014672809,26.704229472614657,70.54202886844277,25.60753590412891,71.25276360715392,25.10363383150012,71.65448943490523,24.49335321662748,71.94310405909083,22.962713672133713,72.83620693857878,23.20959649834605,72.65166370238182,21.97610362713399,73.37808498689337,21.884408585951697,73.38031559384657,20.67626073128581,73.9216793895889,20.33842192285266,74.07919068789182,20.00582224136624,74.21459508244546,18.255633400945374,74.9140448082321,18.543132314831745,74.82059518841294,17.948456320783936,75.03229018785862,16.260652105084006,75.55271030192836,15.45884515874027,75.7715988272307,15.003447484254536,75.90606697145601,13.492037608485308,76.29846717114985,12.336171606255034,76.541879662688,13.853456249381843,76.22149631953278,11.635725205113394,76.68333949361912,10.365718748076798,76.90218617544991,9.69513154796332,77.00721454580125,8.17291650479254,77.19980424327552,7.873703401460937,77.23347093973892,6.347804339276447,77.36752393539737,7.419094314845367,77.2738839482614,5.738704911932363,77.39826795481422,3.937686927965558,77.44950467356153,5.345794163412382,77.4125590564785,2.0094546412032095,77.46125893910073,3.414014029692904,77.46454388860063,0.7181080319422586,77.3738250486422,0.780390566335714,77.37694222442387,0.46601132259166533,77.38516781104738,0.16324252080661417,77.35413618975521,-0.3603126240884498,77.32189521641847,-1.6054975093101778,77.15577423541363,-2.5435954648058328,77.02177993729752,-3.295683190448189,76.93683204596431,-3.1728824401736198,76.92021262570121,-6.219495601073104,76.3323742480937,-7.032920392783096,76.13074615926367,-7.142541124589497,76.06142622381515,-7.625319511201271,75.89678997007219,-7.8193191805374305,75.80502819162255,-7.9082143299220675,75.76672032559893,-8.673141180741244,75.5723535168953,-9.628969943897662,75.1934459937859,-9.258562466258134,75.32444876858648,-10.507753513627343,74.77093919245947,-11.420399347369987,74.2969982249648,-12.040193634606467,74.07535074079641,-13.277767521451533,73.2842279145078,-13.685178136753468,72.93804427314751,-13.656909334091203,73.06730360105398,-14.584886788308623,72.46147506919331,-15.202225216315309,71.88707576145035,-14.831810416077229,72.10761632418561,-14.743736164101854,72.30306537554178,-15.751277035421491,71.38627488326016,-15.748157549651307,71.33480561923398,-16.729710403669547,70.38316123992931,-17.11012346706806,69.83216845362936,-17.11452206499989,69.68476472990102,-17.41034720053828,69.19986814951606,-17.458803144638445,69.3982253981999,-17.757469133965223,68.44453302950535,-18.188371783154192,67.82491658205338,-18.526432413328205,67.11144250051576,-18.281487315305313,67.49181348812535,-18.583709111480307,66.61846790809503,-18.78360414659364,65.7351801744527,-18.859540061308376,65.41488821136916,-18.919322819837777,65.31372388321847,-18.84073254131373,65.10609245366834,-18.843163504483655,64.2288128429876,-18.725760819519124,64.64041850664317,-18.906278949076547,64.0722829329493,-18.824950381133725,63.72386991531086,-18.699817676794197,63.26614888040268,-18.30155908376403,61.334782679104435,-18.469373667879278,61.90229482402631,-17.917837857351078,60.477379948368565,-18.162777163896223,61.344908441523266,-18.13009956420882,60.8057869925874,-17.498380077598938,59.58069692221712,-17.36604364347752,59.61117242234105,-17.238803177883483,59.481831225901644,-16.47603629084937,58.198116962332165,-16.203522733955555,57.91379684592002,-15.399190814917262,56.791293466958294,-15.68258446460716,57.094704540078325,-15.319064126432618,56.84688471455389,-14.076106944481563,55.61613984581294,-13.607219850973522,55.105685040019765,-14.289367067354672,55.75903011408648,-12.31868626189668,54.08973250124693,-11.799468039631368,53.84148874455761,-11.236813639518388,53.386345381548495,-11.792742682765663,53.72233223187699,-10.487421273481196,52.97402747625291,-9.488696767884264,52.36032999094563,-10.37496345024124,52.81313687374923,-9.007960257853664,52.05582409028547,-9.257249783379319,52.205195342542616,-7.216813510446352,51.17633487920318,-7.549240405265438,51.368764161040346,-7.383180878888933,51.23180592992141,-5.585706725686709,50.48900320956409,-4.801722444487638,50.1690147891029,-3.0617822175342493,49.53606360830831,-3.3027981457868307,49.58656121080787,-3.0444334117759677,49.52001486631825,-0.5796820278599455,48.79080435929098,-2.0777433380403956,49.22651330612141,0.1384680524835975,48.5893210078065,0.726643071692946,48.44955495821835,1.4409863991544203,48.27246131965721,1.7443595017797469,48.228046422219855,3.968510916575993,47.8064113653572,4.103597822850296,47.778980658737716,4.7044006649880625,47.68845347708645,6.628752524003856,47.45253898757095,5.467911550357511,47.58503512496721,7.146336421454038,47.40431012636258,7.662735261662208,47.35817429391831,8.445141368125952,47.29522677746664,8.016258458593887,47.32378364465589,10.263239634845013,47.21728126993545,12.120836282757043,47.19877946011777,11.185951066143613,47.217304662675275,11.37277327267304,47.21622081013991,14.03385540371526,47.29700945616672,14.832568137217374,47.37168883177929,15.181997176389805,47.36528548148021,16.472936131754892,47.52857214814131,17.051061477273976,47.596949283429105,16.45819676240974,47.533554485160565,19.216164498528038,47.963165966301304,17.974937903787776,47.72043523492515,18.75121495253628,47.88059466170926,20.023305005010606,48.12115203160663,21.839412073529633,48.56340563992951,22.61077340123798,48.828257059834435,21.78290399274521,48.62660670319494,22.377897969053564,48.761638554923096,23.7557357252601,49.305210559839416,25.438919997289574,49.91560415628369,24.767265554447302,49.64015357559729,25.203344689636367,49.86345282382287,25.887727982022227,50.19245989672939,27.0676544698022,50.84911424985513,27.70955848912743,51.18883563532536,27.940690968374827,51.32503649456321,28.802666078195994,51.907013772211506,29.46941339885221,52.42571633817985,29.81839589984345,52.65608634249767,30.04353199732001,52.898914328329624,29.892954680575368,52.80810216729014,30.325146769769376,53.26510573592557,30.57101263077003,53.37954638350593,30.750720154395204,53.59534540483078,31.668265187197786,54.954396907206124,31.378221723156074,54.4158137880825,31.664573183820536,54.99559800899867,31.986436041315123,55.19265359316286,32.65722259080822,56.73847027992608,32.30542307319885,55.99650608675075,32.677383365464266,56.42046868670229,32.58177954713979,56.75195876404057,33.11448396121287,57.898963136322955,33.05540674796938,58.10021595182115" fill="rgb(215,127,140)" stroke="black" stroke-width="3" stroke-linejoin="round" filter="url(#fuzzy)"></polyline></g></svg>